<svg width="24" height="24" viewBox="0 0 24 24" fill="none" xmlns="http://www.w3.org/2000/svg">
<path fill-rule="evenodd" clip-rule="evenodd" d="M15.8238 14.9722C15.7008 14.9631 15.4933 14.9774 14.9023 15.0244C13.9088 15.1036 12.8068 15.1667 11.8123 15.1667C10.9188 15.1667 9.97912 15.1158 9.1226 15.0481C8.51838 15.0003 8.30292 14.9854 8.18565 14.9933C7.33686 15.0507 6.73348 15.5697 6.54968 16.4003C6.52416 16.5156 6.50881 16.702 6.4704 17.2397C6.42923 17.8161 6.41639 18.0248 6.42951 18.1863C6.51577 19.2481 7.31989 20.1117 8.37285 20.2734C8.53294 20.2979 8.742 20.3 9.31988 20.3H14.6531C15.2572 20.3 15.4757 20.2978 15.6428 20.2709C16.683 20.1038 17.4767 19.2515 17.5692 18.202C17.5841 18.0334 17.5708 17.8153 17.5277 17.2128C17.4892 16.6727 17.4737 16.4873 17.4462 16.3667C17.2615 15.558 16.651 15.0332 15.8238 14.9722ZM14.8718 13.6224C15.3528 13.584 15.6806 13.5578 15.9268 13.576C17.3672 13.6822 18.4896 14.647 18.8111 16.0551C18.866 16.2956 18.8877 16.6004 18.9191 17.0415C18.9207 17.0649 18.9224 17.0888 18.9242 17.113C18.9258 17.1364 18.9275 17.1594 18.9291 17.1821C18.9655 17.6904 18.9898 18.0299 18.9638 18.325C18.8149 20.0132 17.5382 21.3844 15.8649 21.6532C15.5724 21.7002 15.232 21.7001 14.7224 21.7C14.6996 21.7 14.6766 21.7 14.6531 21.7H9.31988C9.29747 21.7 9.27539 21.7 9.25363 21.7C8.76604 21.7001 8.44047 21.7002 8.16036 21.6571C6.46647 21.397 5.17288 20.0077 5.0341 18.2996C5.01116 18.0172 5.03441 17.6924 5.06923 17.2061C5.07078 17.1844 5.07236 17.1623 5.07396 17.14C5.07571 17.1155 5.07742 17.0914 5.07911 17.0678C5.11032 16.6294 5.13177 16.3282 5.18274 16.0978C5.5008 14.6605 6.62234 13.6959 8.09114 13.5965C8.32664 13.5806 8.65787 13.6068 9.14884 13.6458C9.17637 13.6479 9.2044 13.6502 9.23294 13.6524C10.0674 13.7184 10.9679 13.7667 11.8123 13.7667C12.7545 13.7667 13.8155 13.7066 14.7911 13.6289C14.8185 13.6267 14.8454 13.6245 14.8718 13.6224Z" fill="#222628"/>
<path fill-rule="evenodd" clip-rule="evenodd" d="M7.80002 7.50005C7.80002 5.18045 9.68042 3.30005 12 3.30005C14.3196 3.30005 16.2 5.18045 16.2 7.50005V8.00005C16.2 10.0435 14.5435 11.7 12.5 11.7H11.5C9.45656 11.7 7.80002 10.0435 7.80002 8.00005V7.50005ZM12 4.70005C10.4536 4.70005 9.20002 5.95365 9.20002 7.50005V8.00005C9.20002 9.2703 10.2298 10.3 11.5 10.3H12.5C13.7703 10.3 14.8 9.2703 14.8 8.00005V7.50005C14.8 5.95365 13.5464 4.70005 12 4.70005Z" fill="#222628"/>
<path fill-rule="evenodd" clip-rule="evenodd" d="M20.0361 14.4788C20.1584 14.1121 20.5548 13.9139 20.9215 14.0361L20.7002 14.7002C20.9215 14.0361 20.9219 14.0362 20.9223 14.0364L20.9232 14.0367L20.925 14.0373L20.9289 14.0386L20.9386 14.042C20.9458 14.0445 20.9544 14.0477 20.9644 14.0515C20.9844 14.059 21.01 14.0692 21.0404 14.0822C21.101 14.1082 21.1812 14.1458 21.2745 14.1977C21.4603 14.3009 21.7031 14.4632 21.9452 14.7052C22.4426 15.2027 22.9002 16.0024 22.9002 17.2002C22.9002 18.398 22.4426 19.1977 21.9452 19.6952C21.7031 19.9372 21.4603 20.0995 21.2745 20.2027C21.1812 20.2545 21.101 20.2922 21.0404 20.3182C21.01 20.3312 20.9844 20.3414 20.9644 20.3489C20.9544 20.3527 20.9458 20.3558 20.9386 20.3584L20.9289 20.3618L20.925 20.3631L20.9232 20.3637L20.9223 20.364C20.9219 20.3641 20.9215 20.3643 20.7002 19.7002L20.9215 20.3643C20.5548 20.4865 20.1584 20.2883 20.0361 19.9215C19.9148 19.5577 20.109 19.1646 20.4702 19.0391C20.4726 19.0381 20.479 19.0356 20.4889 19.0314C20.5103 19.0222 20.5473 19.0052 20.5946 18.9789C20.69 18.9259 20.8223 18.8382 20.9552 18.7052C21.2078 18.4527 21.5002 18.0024 21.5002 17.2002C21.5002 16.398 21.2078 15.9477 20.9552 15.6952C20.8223 15.5622 20.69 15.4745 20.5946 15.4215C20.5473 15.3952 20.5103 15.3782 20.4889 15.369C20.479 15.3648 20.4726 15.3623 20.4702 15.3613C20.109 15.2358 19.9148 14.8427 20.0361 14.4788Z" fill="#222628"/>
<path fill-rule="evenodd" clip-rule="evenodd" d="M3.86403 14.4788C3.74178 14.1121 3.34536 13.9139 2.9786 14.0361L3.19996 14.7002C2.9786 14.0361 2.9782 14.0362 2.9778 14.0364L2.97697 14.0367L2.97519 14.0373L2.97122 14.0386L2.96157 14.042C2.95439 14.0445 2.94575 14.0477 2.93573 14.0515C2.9157 14.059 2.89011 14.0692 2.85976 14.0822C2.79916 14.1082 2.71891 14.1458 2.62563 14.1977C2.43981 14.3009 2.19704 14.4632 1.95498 14.7052C1.45754 15.2027 0.999957 16.0024 0.999957 17.2002C0.999957 18.398 1.45754 19.1977 1.95498 19.6952C2.19704 19.9372 2.43981 20.0995 2.62563 20.2027C2.71891 20.2545 2.79916 20.2922 2.85976 20.3182C2.89011 20.3312 2.9157 20.3414 2.93573 20.3489C2.94575 20.3527 2.95439 20.3558 2.96157 20.3584L2.97122 20.3618L2.97519 20.3631L2.97697 20.3637L2.9778 20.364C2.9782 20.3641 2.9786 20.3643 3.19996 19.7002L2.9786 20.3643C3.34536 20.4865 3.74178 20.2883 3.86403 19.9215C3.98532 19.5577 3.79119 19.1646 3.42997 19.0391C3.42752 19.0381 3.4211 19.0356 3.41125 19.0314C3.38981 19.0222 3.35288 19.0052 3.30553 18.9789C3.21011 18.9259 3.07788 18.8382 2.94493 18.7052C2.69237 18.4527 2.39996 18.0024 2.39996 17.2002C2.39996 16.398 2.69237 15.9477 2.94493 15.6952C3.07788 15.5622 3.21011 15.4745 3.30553 15.4215C3.35288 15.3952 3.38981 15.3782 3.41125 15.369C3.4211 15.3648 3.42751 15.3623 3.42997 15.3613C3.79118 15.2358 3.98532 14.8427 3.86403 14.4788Z" fill="#222628"/>
<path fill-rule="evenodd" clip-rule="evenodd" d="M17.1576 4.46484C17.213 4.08223 17.5681 3.81697 17.9507 3.87237L17.8504 4.56514C17.9507 3.87237 17.9511 3.87242 17.9514 3.87247L17.9522 3.87258L17.9538 3.87282L17.9577 3.8734L17.9676 3.87497L17.9963 3.87986C18.0192 3.88394 18.0495 3.88977 18.0862 3.89776C18.1595 3.91369 18.2594 3.93841 18.3774 3.97538C18.6116 4.04871 18.9284 4.17367 19.2541 4.382C19.9239 4.81042 20.6175 5.5895 20.6969 6.89703C20.7762 8.20456 20.1818 9.06179 19.5688 9.56804C19.2707 9.81423 18.9713 9.97657 18.7477 10.0777C18.635 10.1287 18.5388 10.1653 18.468 10.1899C18.4325 10.2023 18.4031 10.2118 18.3809 10.2186L18.3531 10.2269L18.3433 10.2297L18.3396 10.2307L18.338 10.2311L18.3373 10.2313C18.3369 10.2314 18.3366 10.2315 18.1532 9.55596L18.3366 10.2315C17.9635 10.3328 17.5789 10.1124 17.4777 9.73929C17.3769 9.36779 17.5949 8.98495 17.9651 8.88172L17.9698 8.88031C17.9764 8.87828 17.9892 8.87421 18.0074 8.86788C18.0439 8.85517 18.1008 8.83374 18.1709 8.80204C18.3129 8.73779 18.4984 8.63631 18.6773 8.48856C19.0183 8.20694 19.3464 7.75591 19.2994 6.98182C19.2525 6.20773 18.8723 5.79967 18.4997 5.56135C18.3043 5.43632 18.1078 5.358 17.9591 5.31141C17.8856 5.28842 17.8266 5.27401 17.7888 5.26581C17.7701 5.26173 17.7568 5.25923 17.75 5.25802L17.7452 5.25719C17.3652 5.19947 17.1025 4.84581 17.1576 4.46484Z" fill="#222628"/>
<path fill-rule="evenodd" clip-rule="evenodd" d="M6.84944 4.49462C6.8095 4.11009 6.4654 3.83075 6.08086 3.87069L6.15319 4.56695C6.08086 3.87069 6.0805 3.87073 6.08012 3.87077L6.07934 3.87085L6.07761 3.87104L6.07359 3.87148L6.06329 3.87268L6.03393 3.87652C6.01061 3.87977 5.9798 3.8845 5.94254 3.89119C5.86819 3.90454 5.76708 3.92589 5.64759 3.95928C5.41061 4.02549 5.0897 4.14228 4.75947 4.34673C4.07486 4.77059 3.38657 5.55479 3.30329 6.89461C3.22 8.23444 3.80587 9.09784 4.43272 9.60322C4.73509 9.847 5.03906 10.0026 5.26601 10.0977C5.38045 10.1456 5.47814 10.1793 5.55026 10.2018C5.58641 10.213 5.61639 10.2215 5.63914 10.2277L5.66779 10.2351L5.67786 10.2376L5.6818 10.2385L5.68349 10.2389L5.68426 10.2391C5.68462 10.2392 5.68498 10.2392 5.84298 9.55731L5.68498 10.2392C6.06161 10.3265 6.43766 10.0919 6.52492 9.71531C6.61177 9.34043 6.37976 8.96612 6.0062 8.87661C6.00619 8.87661 6.00619 8.87661 6.00618 8.8766C6.00549 8.87642 6.00426 8.8761 6.00252 8.87564C5.9964 8.87399 5.98407 8.87055 5.96646 8.86507C5.93108 8.85406 5.87549 8.83512 5.80683 8.80636C5.6676 8.74805 5.48611 8.65416 5.31142 8.51333C4.98415 8.24947 4.64951 7.80324 4.70059 6.98147C4.75167 6.15971 5.13901 5.75836 5.49643 5.53706C5.68722 5.41894 5.87893 5.34826 6.02432 5.30764C6.096 5.28761 6.15351 5.2757 6.18999 5.26915C6.20814 5.26589 6.2208 5.26401 6.22708 5.26313M6.23083 5.26263C6.23084 5.26263 6.23084 5.26263 6.23085 5.26263C6.23138 5.26256 6.2316 5.26253 6.23151 5.26254L6.22986 5.26273L6.22803 5.26293L6.22686 5.26306" fill="#222628"/>
</svg>
