<svg width="24" height="24" viewBox="0 0 24 24" fill="none" xmlns="http://www.w3.org/2000/svg">
<path fill-rule="evenodd" clip-rule="evenodd" d="M15.3924 8.42046C15.7126 8.63719 15.7964 9.0724 15.5797 9.39254L15 9.00012L14.4204 8.6077C14.6371 8.28756 15.0723 8.20373 15.3924 8.42046ZM9.5303 12.0432L9.53466 12.0482L9.54851 12.0642L9.6023 12.1261C9.649 12.1797 9.71625 12.2565 9.79788 12.3488C9.96148 12.5337 10.1814 12.779 10.4087 13.0232C10.5883 13.2161 10.7673 13.4027 10.9242 13.5566C11.0012 13.4585 11.0876 13.3457 11.1823 13.2199C11.5632 12.7137 12.0492 12.0338 12.5308 11.3479C13.0115 10.6633 13.484 9.97815 13.8365 9.46376C14.0127 9.20667 14.1588 8.99246 14.2608 8.8426L14.4204 8.6077L15 9.00012L15.5797 9.39254L15.4182 9.63029C15.3155 9.78121 15.1685 9.9967 14.9913 10.2552C14.6371 10.7721 14.1614 11.4619 13.6766 12.1524C13.1928 12.8414 12.6961 13.5365 12.301 14.0616C12.1047 14.3226 11.9263 14.5511 11.7839 14.7181C11.7143 14.7996 11.6414 14.8806 11.5723 14.9462C11.539 14.9777 11.4905 15.0213 11.432 15.0614C11.4026 15.0816 11.357 15.1105 11.2986 15.1363C11.2465 15.1594 11.1399 15.2001 11 15.2001C10.8054 15.2001 10.6565 15.1237 10.6058 15.097C10.5336 15.059 10.4687 15.0144 10.4172 14.976C10.3124 14.8982 10.2002 14.7995 10.0927 14.6988C9.87436 14.4947 9.61999 14.2307 9.38393 13.9771C9.14582 13.7213 8.91755 13.4666 8.74936 13.2765C8.6651 13.1812 8.59555 13.1018 8.54691 13.046L8.49036 12.9809L8.47527 12.9635L8.47019 12.9576C8.21782 12.6647 8.2502 12.2222 8.54306 11.9698C8.83592 11.7175 9.27793 11.7503 9.5303 12.0432Z" fill="#222628"/>
<path fill-rule="evenodd" clip-rule="evenodd" d="M7.74656 20.5052C8.77736 20.5987 10.105 20.6 12 20.6C13.895 20.6 15.2226 20.5987 16.2534 20.5052C17.265 20.4136 17.8524 20.2421 18.3 19.9837C18.9993 19.58 19.58 18.9993 19.9837 18.3C20.2421 17.8524 20.4136 17.265 20.5052 16.2534C20.5987 15.2226 20.6 13.895 20.6 12C20.6 10.105 20.5987 8.77736 20.5052 7.74656C20.4136 6.73501 20.2421 6.14756 19.9837 5.7C19.58 5.00071 18.9993 4.42002 18.3 4.01628C17.8524 3.75788 17.265 3.58645 16.2534 3.49477C15.2226 3.40134 13.895 3.4 12 3.4C10.105 3.4 8.77736 3.40134 7.74656 3.49477C6.73501 3.58645 6.14756 3.75788 5.7 4.01628C5.00071 4.42002 4.42002 5.00071 4.01628 5.7C3.75788 6.14756 3.58645 6.73501 3.49477 7.74656C3.40134 8.77736 3.4 10.105 3.4 12C3.4 13.895 3.40134 15.2226 3.49477 16.2534C3.58645 17.265 3.75788 17.8524 4.01628 18.3C4.42002 18.9993 5.00071 19.58 5.7 19.9837C6.14756 20.2421 6.73501 20.4136 7.74656 20.5052ZM2.80385 5C2 6.3923 2 8.26154 2 12C2 15.7385 2 17.6077 2.80385 19C3.33046 19.9121 4.08788 20.6695 5 21.1962C6.3923 22 8.26154 22 12 22C15.7385 22 17.6077 22 19 21.1962C19.9121 20.6695 20.6695 19.9121 21.1962 19C22 17.6077 22 15.7385 22 12C22 8.26154 22 6.3923 21.1962 5C20.6695 4.08788 19.9121 3.33046 19 2.80385C17.6077 2 15.7385 2 12 2C8.26154 2 6.3923 2 5 2.80385C4.08788 3.33046 3.33046 4.08788 2.80385 5Z" fill="#222628"/>
</svg>
