<svg width="24" height="24" viewBox="0 0 24 24" fill="none" xmlns="http://www.w3.org/2000/svg">
<path fill-rule="evenodd" clip-rule="evenodd" d="M17.6923 3.70005C16.409 3.70005 15.3958 4.49282 14.7672 5.38974C14.2693 6.10028 14.2 7.04429 14.2 8.1758V20.3H15.9667V11.001C15.9667 10.7488 16.1023 10.5152 16.3218 10.3909C16.5412 10.2667 16.8106 10.2701 17.0268 10.3998C18.1287 11.061 18.9828 10.9513 19.6357 10.6327C20.3378 10.29 20.8658 9.67141 21.1616 9.24901C21.2476 9.12619 21.3 8.95353 21.3 8.73307V5.73809C21.3 5.50804 21.2054 5.32066 21.0629 5.21047C20.6908 4.92281 20.1418 4.53701 19.5248 4.22579C18.8987 3.90998 18.2593 3.70005 17.6923 3.70005ZM17.3667 12.0887C18.4601 12.4406 19.4399 12.2861 20.2497 11.8908C21.2642 11.3957 21.9581 10.5522 22.3084 10.052C22.5974 9.6394 22.7 9.1663 22.7 8.73307V5.73809C22.7 5.12575 22.4431 4.50805 21.9192 4.10294C21.5064 3.78372 20.8797 3.34119 20.1553 2.9758C19.44 2.615 18.5725 2.30005 17.6923 2.30005C15.7904 2.30005 14.402 3.47147 13.6207 4.58629C12.8389 5.70198 12.8 7.07731 12.8 8.1758V20.5C12.8 21.1628 13.3372 21.7001 14 21.7001H16.1667C16.828 21.7001 17.3667 21.165 17.3667 20.5008V12.0887Z" fill="#222628"/>
<path fill-rule="evenodd" clip-rule="evenodd" d="M19.7778 5.80005C20.1644 5.80005 20.4778 6.11345 20.4778 6.50005V8.00005C20.4778 8.38665 20.1644 8.70005 19.7778 8.70005C19.3912 8.70005 19.0778 8.38665 19.0778 8.00005V6.50005C19.0778 6.11345 19.3912 5.80005 19.7778 5.80005Z" fill="#222628"/>
<path fill-rule="evenodd" clip-rule="evenodd" d="M6.30768 3.70005C7.59095 3.70005 8.60421 4.49282 9.23276 5.38974C9.73069 6.10028 9.79999 7.04429 9.79999 8.1758V20.3H8.03332V11.001C8.03332 10.7488 7.89767 10.5152 7.67821 10.3909C7.45875 10.2667 7.18942 10.2701 6.97317 10.3998C5.87123 11.061 5.01715 10.9513 4.36428 10.6327C3.6622 10.29 3.13414 9.67141 2.83836 9.24901C2.75236 9.12619 2.69999 8.95353 2.69999 8.73307V5.73809C2.69999 5.50804 2.79461 5.32066 2.93712 5.21047C3.30913 4.92281 3.8582 4.53701 4.4752 4.22579C5.10128 3.90998 5.7407 3.70005 6.30768 3.70005ZM6.63332 12.0887C5.5399 12.4406 4.56004 12.2861 3.75024 11.8908C2.73575 11.3957 2.04183 10.5522 1.69157 10.052C1.40262 9.6394 1.29999 9.1663 1.29999 8.73307V5.73809C1.29999 5.12575 1.55683 4.50805 2.08073 4.10294C2.49357 3.78372 3.12031 3.34119 3.84469 2.9758C4.55999 2.615 5.42752 2.30005 6.30768 2.30005C8.2096 2.30005 9.59801 3.47147 10.3793 4.58629C11.1611 5.70198 11.2 7.07731 11.2 8.1758V20.5C11.2 21.1628 10.6627 21.7001 9.99999 21.7001H7.83332C7.17199 21.7001 6.63332 21.165 6.63332 20.5008V12.0887Z" fill="#222628"/>
<path fill-rule="evenodd" clip-rule="evenodd" d="M4.22221 5.80005C3.83562 5.80005 3.52221 6.11345 3.52221 6.50005V8.00005C3.52221 8.38665 3.83562 8.70005 4.22221 8.70005C4.60881 8.70005 4.92221 8.38665 4.92221 8.00005V6.50005C4.92221 6.11345 4.60881 5.80005 4.22221 5.80005Z" fill="#222628"/>
</svg>
