<svg width="24" height="24" viewBox="0 0 24 24" fill="none" xmlns="http://www.w3.org/2000/svg">
<path fill-rule="evenodd" clip-rule="evenodd" d="M11.4691 1.30005H12.5309C14.1377 1.30005 15.3854 1.30004 16.3865 1.37959C17.4019 1.46028 18.2233 1.62606 18.9633 1.991C20.2861 2.64333 21.3567 3.71392 22.009 5.03671C22.374 5.77675 22.5398 6.59817 22.6204 7.6135C22.7 8.6146 22.7 9.86229 22.7 11.4692V11.5309C22.7 13.1378 22.7 14.3855 22.6204 15.3866C22.5398 16.4019 22.374 17.2233 22.009 17.9634C21.3567 19.2862 20.2861 20.3568 18.9633 21.0091C18.2233 21.374 17.4019 21.5398 16.3865 21.6205C15.3854 21.7001 14.1377 21.7001 12.5309 21.7001H11.4691C9.86222 21.7001 8.61454 21.7001 7.61344 21.6205C6.59811 21.5398 5.77669 21.374 5.03665 21.0091C3.71386 20.3568 2.64327 19.2862 1.99094 17.9634C1.62599 17.2233 1.46022 16.4019 1.37953 15.3866C1.29998 14.3855 1.29998 13.1378 1.29999 11.5309V11.4692C1.29998 9.86229 1.29998 8.6146 1.37953 7.6135C1.46022 6.59817 1.62599 5.77675 1.99094 5.03671C2.64327 3.71392 3.71386 2.64333 5.03665 1.991C5.77669 1.62606 6.59811 1.46028 7.61344 1.37959C8.61454 1.30004 9.86223 1.30005 11.4691 1.30005ZM7.72434 2.77519C6.793 2.8492 6.17055 2.99281 5.65586 3.24662C4.60947 3.76265 3.76259 4.60953 3.24656 5.65592C2.99274 6.17061 2.84914 6.79306 2.77513 7.7244C2.7005 8.66359 2.69999 9.85583 2.69999 11.5C2.69999 13.1443 2.7005 14.3365 2.77513 15.2757C2.84914 16.207 2.99274 16.8295 3.24656 17.3442C3.76259 18.3906 4.60947 19.2375 5.65586 19.7535C6.17055 20.0073 6.793 20.1509 7.72434 20.2249C8.66353 20.2995 9.85577 20.3 11.5 20.3H12.5C14.1442 20.3 15.3364 20.2995 16.2756 20.2249C17.207 20.1509 17.8294 20.0073 18.3441 19.7535C19.3905 19.2375 20.2374 18.3906 20.7534 17.3442C21.0072 16.8295 21.1508 16.207 21.2248 15.2757C21.2995 14.3365 21.3 13.1443 21.3 11.5C21.3 9.85583 21.2995 8.66359 21.2248 7.7244C21.1508 6.79306 21.0072 6.17061 20.7534 5.65592C20.2374 4.60953 19.3905 3.76265 18.3441 3.24662C17.8294 2.99281 17.207 2.8492 16.2756 2.77519C15.3364 2.70056 14.1442 2.70005 12.5 2.70005H11.5C9.85577 2.70005 8.66353 2.70056 7.72434 2.77519Z" fill="#222628"/>
<path fill-rule="evenodd" clip-rule="evenodd" d="M22 10.0001L2 10.0001L2 8.6001L22 8.6001L22 10.0001Z" fill="#222628"/>
<path fill-rule="evenodd" clip-rule="evenodd" d="M14.3 6.00005C14.3 5.61345 14.6134 5.30005 15 5.30005L18 5.30005C18.3866 5.30005 18.7 5.61345 18.7 6.00005C18.7 6.38665 18.3866 6.70005 18 6.70005L15 6.70005C14.6134 6.70005 14.3 6.38665 14.3 6.00005Z" fill="#222628"/>
<path d="M8.99998 6.00005C8.99998 6.38665 8.68657 6.70005 8.29998 6.70005C7.91338 6.70005 7.59998 6.38665 7.59998 6.00005C7.59998 5.61345 7.91338 5.30005 8.29998 5.30005C8.68657 5.30005 8.99998 5.61345 8.99998 6.00005Z" fill="#222628"/>
<path d="M6.99998 6.00005C6.99998 6.38665 6.68657 6.70005 6.29998 6.70005C5.91338 6.70005 5.59998 6.38665 5.59998 6.00005C5.59998 5.61345 5.91338 5.30005 6.29998 5.30005C6.68657 5.30005 6.99998 5.61345 6.99998 6.00005Z" fill="#222628"/>
</svg>
