<svg width="24" height="24" viewBox="0 0 24 24" fill="none" xmlns="http://www.w3.org/2000/svg">
<path fill-rule="evenodd" clip-rule="evenodd" d="M12 1.30005C6.09054 1.30005 1.29999 6.0906 1.29999 12C1.29999 17.9095 6.09054 22.7001 12 22.7001C17.9094 22.7001 22.7 17.9095 22.7 12C22.7 6.0906 17.9094 1.30005 12 1.30005ZM2.69999 12C2.69999 6.8638 6.86374 2.70005 12 2.70005C17.1362 2.70005 21.3 6.8638 21.3 12C21.3 17.1363 17.1362 21.3 12 21.3C6.86374 21.3 2.69999 17.1363 2.69999 12Z" fill="#222628"/>
<path fill-rule="evenodd" clip-rule="evenodd" d="M8.03172 10.4797C7.74436 10.7384 7.72107 11.181 7.97969 11.4683L8.49999 11.0001L9.0203 10.5318C8.76168 10.2444 8.31908 10.2211 8.03172 10.4797ZM15.5 11.0001L14.9797 10.5318L14.9451 10.5701L14.8455 10.6801C14.7594 10.7751 14.6358 10.9109 14.4863 11.0739C14.1872 11.4003 13.7855 11.8345 13.3737 12.2679C12.9604 12.7031 12.5434 13.1304 12.2118 13.4463C12.1339 13.5204 12.0631 13.5862 12 13.643C11.9369 13.5862 11.8661 13.5204 11.7882 13.4463C11.4566 13.1304 11.0396 12.7031 10.6262 12.2679C10.2145 11.8345 9.81281 11.4003 9.51366 11.0739C9.3642 10.9109 9.24062 10.7751 9.15449 10.6801L9.0549 10.5701L9.0203 10.5318L8.49999 11.0001L7.97969 11.4683L8.01601 11.5086L8.11757 11.6208C8.20507 11.7172 8.33031 11.8549 8.48164 12.0199C8.78405 12.3498 9.19176 12.7906 9.61124 13.2322C10.0291 13.6721 10.4653 14.1197 10.8227 14.4601C10.9999 14.6288 11.1687 14.7818 11.3118 14.8963C11.3821 14.9525 11.4607 15.0112 11.5402 15.0594C11.5799 15.0834 11.6329 15.1129 11.6946 15.1381C11.7471 15.1595 11.8581 15.2001 12 15.2001C12.1419 15.2001 12.2529 15.1595 12.3054 15.1381C12.3671 15.1129 12.4201 15.0834 12.4598 15.0594C12.5393 15.0112 12.6179 14.9525 12.6882 14.8963C12.8313 14.7818 13.0001 14.6288 13.1773 14.4601C13.5347 14.1197 13.9709 13.6721 14.3887 13.2322C14.8082 12.7906 15.2159 12.3498 15.5183 12.0199C15.6697 11.8549 15.7949 11.7172 15.8824 11.6208L15.984 11.5086L16.0196 11.4691L15.5 11.0001ZM15.5 11.0001L14.9797 10.5318C15.2383 10.2444 15.6809 10.2211 15.9683 10.4797C16.2556 10.7384 16.2789 11.181 16.0203 11.4683L15.5 11.0001Z" fill="#222628"/>
</svg>
