<svg width="24" height="24" viewBox="0 0 24 24" fill="none" xmlns="http://www.w3.org/2000/svg">
<path fill-rule="evenodd" clip-rule="evenodd" d="M14.495 7.00507C14.2216 6.73171 13.7784 6.73171 13.505 7.00507L13.9385 7.4385C13.505 7.00508 13.5051 7.00503 13.505 7.00507L13.4591 7.05115L13.331 7.18013C13.2208 7.2913 13.0636 7.45049 12.875 7.64302C12.4981 8.02777 11.9946 8.54698 11.4903 9.08279C10.9877 9.61681 10.4772 10.1748 10.0896 10.6351C9.89705 10.8637 9.72481 11.08 9.59726 11.2634C9.53419 11.3541 9.47206 11.4508 9.42291 11.5461C9.38924 11.6113 9.30002 11.7868 9.30002 12C9.30002 12.2133 9.38924 12.3888 9.42291 12.454C9.47206 12.5493 9.53419 12.646 9.59726 12.7367C9.72481 12.9201 9.89705 13.1364 10.0896 13.365C10.4772 13.8253 10.9877 14.3833 11.4903 14.9173C11.9946 15.4531 12.4981 15.9723 12.875 16.3571C13.0636 16.5496 13.2208 16.7088 13.331 16.82L13.4591 16.9489L13.5042 16.9942L13.505 16.9949C13.505 16.995 13.505 16.995 14 16.5L14.495 16.0051L14.4511 15.9611L14.3253 15.8344C14.2168 15.7249 14.0615 15.5677 13.8751 15.3774C13.502 14.9965 13.0055 14.4845 12.5098 13.9578C12.0124 13.4293 11.5229 12.8936 11.1605 12.4632C11.0056 12.2794 10.8812 12.1232 10.7914 12C10.8812 11.8769 11.0056 11.7207 11.1605 11.5369C11.5229 11.1065 12.0124 10.5708 12.5098 10.0423C13.0055 9.51562 13.502 9.00357 13.8751 8.62271C14.0615 8.43242 14.2168 8.2752 14.3253 8.16567L14.4511 8.03904L14.4944 7.99563C14.7678 7.72226 14.7684 7.27844 14.495 7.00507ZM10.667 12.1882C10.6598 12.2062 10.6572 12.2071 10.667 12.1882C10.6671 12.1879 10.6668 12.1884 10.667 12.1882ZM14.495 16.995C14.7684 16.7217 14.7683 16.2784 14.495 16.0051L14 16.5L13.505 16.9949C13.7783 17.2683 14.2216 17.2684 14.495 16.995Z" fill="#222628"/>
</svg>
