<svg width="24" height="24" viewBox="0 0 24 24" fill="none" xmlns="http://www.w3.org/2000/svg">
<path fill-rule="evenodd" clip-rule="evenodd" d="M22.7 12.0354L22.7 11.9645C22.7 10.1253 22.7 8.69722 22.5967 7.55696C22.4918 6.39975 22.2761 5.4704 21.8024 4.64995C21.2143 3.63142 20.3685 2.78563 19.35 2.19758C18.5296 1.72389 17.6002 1.50817 16.443 1.40329C15.3027 1.29994 13.8747 1.29995 12.0354 1.29995L11.9646 1.29995C10.1254 1.29995 8.69729 1.29994 7.55702 1.40329C6.39981 1.50817 5.47046 1.7239 4.65001 2.19758C3.63148 2.78563 2.78569 3.63142 2.19764 4.64995C1.72395 5.4704 1.50823 6.39975 1.40335 7.55696C1.3 8.69724 1.30001 10.1253 1.30001 11.9646L1.30001 12.0353C1.30001 13.8746 1.3 15.3027 1.40335 16.4429C1.50823 17.6002 1.72395 18.5295 2.19764 19.35C2.78569 20.3685 3.63148 21.2143 4.65001 21.8023C5.47046 22.276 6.39981 22.4917 7.55702 22.5966C8.69728 22.7 10.1253 22.7 11.9646 22.7L12.0355 22.7C13.8747 22.7 15.3027 22.7 16.443 22.5966C17.6002 22.4917 18.5296 22.276 19.35 21.8023C20.3685 21.2143 21.2143 20.3685 21.8024 19.35C22.2761 18.5295 22.4918 17.6002 22.5967 16.4429C22.7 15.3027 22.7 13.8746 22.7 12.0354ZM21.2024 16.3166C21.1063 17.3767 20.9201 18.0781 20.5899 18.65C20.1248 19.4557 19.4557 20.1247 18.65 20.5899C18.0782 20.92 17.3767 21.1062 16.3166 21.2023C15.2469 21.2993 13.8821 21.3 12 21.3C10.1179 21.3 8.75311 21.2993 7.68339 21.2023C6.62328 21.1062 5.92187 20.92 5.35001 20.5899C4.54431 20.1247 3.87525 19.4557 3.41008 18.65C3.07992 18.0781 2.89371 17.3767 2.79763 16.3166C2.70068 15.2469 2.70001 13.8821 2.70001 12C2.70001 10.1178 2.70068 8.75306 2.79763 7.68333C2.89371 6.62322 3.07991 5.92181 3.41007 5.34995C3.87525 4.54425 4.54431 3.87519 5.35001 3.41002C5.92186 3.07986 6.62328 2.89366 7.68338 2.79758C8.75311 2.70062 10.1179 2.69995 12 2.69995C13.8821 2.69995 15.2469 2.70062 16.3166 2.79757C17.3767 2.89365 18.0782 3.07986 18.65 3.41002C19.4557 3.87519 20.1248 4.54425 20.5899 5.34995C20.9201 5.92181 21.1063 6.62322 21.2024 7.68333C21.2993 8.75305 21.3 10.1178 21.3 12C21.3 13.8821 21.2993 15.2469 21.2024 16.3166Z" fill="#222628"/>
<path fill-rule="evenodd" clip-rule="evenodd" d="M15.9683 13.5203C16.2556 13.2616 16.2789 12.819 16.0203 12.5317L15.5 12.9999L14.9797 13.4682C15.2383 13.7556 15.6809 13.7789 15.9683 13.5203ZM12 10.357C12.0631 10.4138 12.1339 10.4796 12.2118 10.5537C12.5434 10.8696 12.9604 11.2969 13.3738 11.7321C13.7855 12.1655 14.1872 12.5997 14.4863 12.9261C14.6358 13.0891 14.7594 13.2249 14.8455 13.3199L14.9451 13.4299L14.9797 13.4682L15.5 12.9999L16.0203 12.5317L15.984 12.4914L15.8824 12.3792C15.7949 12.2828 15.6697 12.1451 15.5184 11.9801C15.2159 11.6502 14.8082 11.2094 14.3888 10.7678C13.9709 10.3279 13.5347 9.88033 13.1773 9.53992C13.0001 9.37116 12.8313 9.21823 12.6882 9.10373C12.6179 9.04753 12.5393 8.98881 12.4598 8.94061C12.4201 8.91655 12.3671 8.88711 12.3054 8.86189C12.2529 8.84049 12.1419 8.79995 12 8.79995C11.8581 8.79995 11.7471 8.84049 11.6946 8.86189C11.6329 8.88711 11.5799 8.91655 11.5402 8.94061C11.4607 8.98881 11.3821 9.04753 11.3118 9.10373C11.1687 9.21823 10.9999 9.37116 10.8227 9.53992C10.4653 9.88033 10.0291 10.3279 9.61126 10.7678C9.19177 11.2094 8.78406 11.6502 8.48165 11.9801C8.33033 12.1451 8.20509 12.2828 8.11758 12.3792L8.01602 12.4914L7.98038 12.5309L8.49869 12.9988L7.9797 12.5317C7.72108 12.819 7.74437 13.2616 8.03173 13.5203C8.31909 13.7789 8.76169 13.7556 9.02031 13.4682L9.05491 13.4299L9.1545 13.3199C9.24063 13.2249 9.36422 13.0891 9.51367 12.9261C9.81282 12.5997 10.2145 12.1655 10.6263 11.7321C11.0396 11.2969 11.4566 10.8696 11.7882 10.5537C11.8661 10.4796 11.9369 10.4138 12 10.357Z" fill="#222628"/>
</svg>
