<svg width="24" height="24" viewBox="0 0 24 24" fill="none" xmlns="http://www.w3.org/2000/svg">
<path fill-rule="evenodd" clip-rule="evenodd" d="M12.0355 1.30005H11.9646C10.1253 1.30004 8.69728 1.30004 7.55702 1.40339C6.39981 1.50827 5.47046 1.72399 4.65001 2.19768C3.63148 2.78573 2.78569 3.63152 2.19764 4.65005C1.72396 5.4705 1.50823 6.39985 1.40335 7.55705C1.3 8.69733 1.30001 10.1254 1.30001 11.9647V12.0354C1.30001 13.8747 1.3 15.3028 1.40335 16.443C1.50823 17.6002 1.72396 18.5296 2.19764 19.35C2.78569 20.3686 3.63148 21.2144 4.65001 21.8024C5.47046 22.2761 6.39981 22.4918 7.55702 22.5967C8.6973 22.7001 10.1254 22.7001 11.9646 22.7001H12.0354C13.8747 22.7001 15.3027 22.7001 16.443 22.5967C17.6002 22.4918 18.5296 22.2761 19.35 21.8024C20.3685 21.2144 21.2143 20.3686 21.8024 19.35C22.2761 18.5296 22.4918 17.6002 22.5967 16.443C22.7 15.3028 22.7 13.8747 22.7 12.0355V11.9646C22.7 10.1254 22.7 8.69732 22.5967 7.55705C22.4918 6.39985 22.2761 5.4705 21.8024 4.65005C21.2143 3.63152 20.3685 2.78573 19.35 2.19768C18.5296 1.72399 17.6002 1.50827 16.443 1.40339C15.3027 1.30004 13.8747 1.30004 12.0355 1.30005ZM16.3166 2.79767C17.3767 2.89375 18.0782 3.07995 18.65 3.41011C19.4557 3.87529 20.1248 4.54435 20.5899 5.35005C20.9201 5.9219 21.1063 6.62332 21.2024 7.68342C21.2993 8.75315 21.3 10.1179 21.3 12C21.3 13.8822 21.2993 15.2469 21.2024 16.3167C21.1063 17.3768 20.9201 18.0782 20.5899 18.65C20.1248 19.4558 19.4557 20.1248 18.65 20.59C18.0782 20.9201 17.3767 21.1063 16.3166 21.2024C15.2469 21.2994 13.8821 21.3 12 21.3C10.1179 21.3 8.75311 21.2994 7.68339 21.2024C6.62328 21.1063 5.92187 20.9201 5.35001 20.59C4.54431 20.1248 3.87525 19.4558 3.41008 18.65C3.07992 18.0782 2.89371 17.3768 2.79763 16.3167C2.70068 15.2469 2.70001 13.8822 2.70001 12C2.70001 10.1179 2.70068 8.75315 2.79763 7.68342C2.89371 6.62332 3.07992 5.9219 3.41008 5.35005C3.87525 4.54435 4.54431 3.87529 5.35001 3.41011C5.92187 3.07995 6.62328 2.89375 7.68339 2.79767C8.75311 2.70072 10.1179 2.70005 12 2.70005C13.8821 2.70005 15.2469 2.70072 16.3166 2.79767Z" fill="#222628"/>
<path fill-rule="evenodd" clip-rule="evenodd" d="M13.5203 8.03178C13.2617 7.74442 12.8191 7.72113 12.5317 7.97975L13 8.50005L13.4683 9.02036C13.7556 8.76174 13.7789 8.31914 13.5203 8.03178ZM13 15.5001L13.4683 14.9797L13.4299 14.9451L13.3199 14.8456C13.225 14.7594 13.0892 14.6358 12.9261 14.4864C12.5998 14.1872 12.1656 13.7856 11.7321 13.3738C11.297 12.9604 10.8696 12.5435 10.5538 12.2118C10.4796 12.134 10.4139 12.0632 10.3571 12.0001C10.4139 11.9369 10.4796 11.8661 10.5538 11.7883C10.8696 11.4566 11.297 11.0397 11.7321 10.6263C12.1656 10.2145 12.5998 9.81287 12.9261 9.51372C13.0892 9.36427 13.225 9.24068 13.3199 9.15455L13.4299 9.05496L13.4683 9.02036L13 8.50005L12.5317 7.97975L12.4915 8.01607L12.3793 8.11763C12.2828 8.20514 12.1452 8.33038 11.9801 8.4817C11.6502 8.78411 11.2094 9.19182 10.7679 9.61131C10.328 10.0292 9.88039 10.4653 9.53998 10.8228C9.37122 11 9.21829 11.1688 9.10379 11.3119C9.04759 11.3821 8.98887 11.4607 8.94067 11.5403C8.91661 11.58 8.88717 11.6329 8.86195 11.6947C8.84055 11.7471 8.80001 11.8581 8.80001 12.0001C8.80001 12.142 8.84055 12.253 8.86195 12.3054C8.88717 12.3672 8.91661 12.4201 8.94067 12.4599C8.98887 12.5394 9.04759 12.618 9.10379 12.6882C9.21829 12.8313 9.37122 13.0001 9.53998 13.1773C9.88039 13.5348 10.328 13.9709 10.7679 14.3888C11.2094 14.8083 11.6502 15.216 11.9801 15.5184C12.1452 15.6697 12.2828 15.795 12.3793 15.8825L12.4915 15.984L12.531 16.0197L13 15.5001ZM13 15.5001L13.4683 14.9797C13.7556 15.2384 13.7789 15.681 13.5203 15.9683C13.2617 16.2557 12.8191 16.279 12.5317 16.0204L13 15.5001Z" fill="#222628"/>
</svg>
