<svg width="24" height="24" viewBox="0 0 24 24" fill="none" xmlns="http://www.w3.org/2000/svg">
<path fill-rule="evenodd" clip-rule="evenodd" d="M20.2 12C20.2 12.3866 19.8866 12.7 19.5 12.7L4.50001 12.7C4.11341 12.7 3.80001 12.3866 3.80001 12C3.80001 11.6134 4.11341 11.3 4.50001 11.3L19.5 11.3C19.8866 11.3 20.2 11.6134 20.2 12Z" fill="#222628"/>
<path fill-rule="evenodd" clip-rule="evenodd" d="M8.98025 17.5092C8.69898 17.7745 8.25596 17.7615 7.99073 17.4802L8.50001 16.9999L9.00929 16.5197C9.27452 16.801 9.26152 17.244 8.98025 17.5092ZM8.50001 6.99995L9.00925 7.48023L8.81675 7.68482C8.69401 7.81543 8.51859 8.00235 8.30806 8.22738C7.8869 8.67757 7.32574 9.27977 6.76491 9.88872C6.20331 10.4985 5.64514 11.1117 5.22865 11.585C5.08962 11.743 4.96876 11.8827 4.86996 11.9999C4.96876 12.1172 5.08962 12.2569 5.22865 12.4149C5.64514 12.8882 6.20331 13.5014 6.76491 14.1112C7.32574 14.7201 7.8869 15.3223 8.30806 15.7725C8.51859 15.9976 8.69401 16.1845 8.81675 16.3151L9.00929 16.5197L8.50001 16.9999L7.99073 17.4802L7.79655 17.2738C7.6732 17.1426 7.49706 16.9549 7.28571 16.729C6.86312 16.2773 6.29928 15.6722 5.73511 15.0596C5.17171 14.4479 4.60488 13.8253 4.17762 13.3398C3.96486 13.098 3.78133 12.8841 3.64888 12.7201C3.58377 12.6396 3.52298 12.5612 3.47556 12.4929C3.45271 12.46 3.42366 12.4162 3.39748 12.3679C3.3845 12.3439 3.3655 12.3066 3.34818 12.2606C3.33518 12.2261 3.30001 12.1284 3.30001 11.9999C3.30001 11.8715 3.33518 11.7738 3.34818 11.7393C3.3655 11.6933 3.3845 11.656 3.39748 11.632C3.42365 11.5837 3.45271 11.5399 3.47556 11.507C3.52298 11.4387 3.58377 11.3603 3.64888 11.2798C3.78133 11.1158 3.96486 10.9019 4.17762 10.6601C4.60488 10.1746 5.17171 9.55203 5.73511 8.94029C6.29928 8.32771 6.86312 7.72264 7.28571 7.27093C7.49706 7.04502 7.6732 6.85733 7.79655 6.72607L7.99066 6.51978L8.50001 6.99995ZM8.50001 6.99995L9.00925 7.48023C9.27448 7.19896 9.26152 6.7559 8.98025 6.49067C8.69898 6.22544 8.25589 6.23851 7.99066 6.51978L8.50001 6.99995Z" fill="#222628"/>
</svg>
