<svg width="24" height="24" viewBox="0 0 24 24" fill="none" xmlns="http://www.w3.org/2000/svg">
<path fill-rule="evenodd" clip-rule="evenodd" d="M16.995 14.4949C17.2684 14.2216 17.2684 13.7784 16.995 13.505L16.5616 13.9384C16.995 13.505 16.995 13.505 16.995 13.505L16.9489 13.459L16.8199 13.3309C16.7088 13.2207 16.5496 13.0635 16.357 12.8749C15.9723 12.498 15.4531 11.9945 14.9173 11.4902C14.3832 10.9876 13.8252 10.4771 13.365 10.0895C13.1363 9.89698 12.92 9.72475 12.7367 9.5972C12.646 9.53413 12.5492 9.472 12.454 9.42284C12.3888 9.38918 12.2132 9.29996 12 9.29996C11.7868 9.29996 11.6113 9.38918 11.546 9.42284C11.4508 9.472 11.354 9.53413 11.2634 9.5972C11.08 9.72475 10.8637 9.89698 10.6351 10.0895C10.1748 10.4771 9.61678 10.9876 9.08276 11.4902C8.54694 11.9945 8.02774 12.498 7.64298 12.8749C7.45046 13.0635 7.29127 13.2207 7.18009 13.3309L7.05111 13.459L7.00589 13.5041L7.00511 13.5049C7.00507 13.505 7.00504 13.505 7.50001 14L7.995 14.4949L8.039 14.451L8.16563 14.3253C8.27516 14.2167 8.43238 14.0614 8.62267 13.875C9.00354 13.5019 9.51558 13.0054 10.0423 12.5097C10.5707 12.0123 11.1065 11.5228 11.5368 11.1604C11.7207 11.0056 11.8768 10.8812 12 10.7913C12.1232 10.8812 12.2793 11.0056 12.4632 11.1604C12.8935 11.5228 13.4293 12.0123 13.9578 12.5097C14.4844 13.0054 14.9965 13.5019 15.3774 13.875C15.5676 14.0614 15.7249 14.2167 15.8344 14.3253L15.961 14.451L16.0044 14.4943C16.2778 14.7677 16.7216 14.7683 16.995 14.4949ZM11.8119 10.6669C11.7939 10.6597 11.793 10.6572 11.8119 10.6669C11.8121 10.667 11.8116 10.6668 11.8119 10.6669ZM7.00504 14.4949C7.27841 14.7683 7.72164 14.7683 7.995 14.4949L7.50001 14L7.00511 13.5049C6.73175 13.7783 6.73167 14.2216 7.00504 14.4949Z" fill="#222628"/>
</svg>
