<svg width="24" height="24" viewBox="0 0 24 24" fill="none" xmlns="http://www.w3.org/2000/svg">
<path fill-rule="evenodd" clip-rule="evenodd" d="M12 22.7C17.9095 22.7 22.7 17.9094 22.7 12C22.7 6.0905 17.9095 1.29995 12 1.29995C6.09056 1.29995 1.30001 6.0905 1.30001 12C1.30001 17.9094 6.09056 22.7 12 22.7ZM21.3 12C21.3 17.1362 17.1363 21.3 12 21.3C6.86376 21.3 2.70001 17.1362 2.70001 12C2.70001 6.8637 6.86376 2.69995 12 2.69995C17.1363 2.69995 21.3 6.8637 21.3 12Z" fill="#222628"/>
<path fill-rule="evenodd" clip-rule="evenodd" d="M15.9683 13.5203C16.2556 13.2616 16.2789 12.819 16.0203 12.5317L15.5 12.9999L14.9797 13.4682C15.2383 13.7556 15.6809 13.7789 15.9683 13.5203ZM8.50001 12.9999L9.02032 13.4682L9.05491 13.4299L9.1545 13.3199C9.24063 13.2249 9.36422 13.0891 9.51367 12.9261C9.81282 12.5997 10.2145 12.1655 10.6263 11.7321C11.0396 11.2969 11.4566 10.8696 11.7882 10.5537C11.8661 10.4796 11.9369 10.4138 12 10.357C12.0631 10.4138 12.1339 10.4796 12.2118 10.5537C12.5434 10.8696 12.9604 11.2969 13.3738 11.7321C13.7855 12.1655 14.1872 12.5997 14.4863 12.9261C14.6358 13.0891 14.7594 13.2249 14.8455 13.3199L14.9451 13.4299L14.9797 13.4682L15.5 12.9999L16.0203 12.5317L15.984 12.4914L15.8824 12.3792C15.7949 12.2828 15.6697 12.1451 15.5184 11.9801C15.2159 11.6502 14.8082 11.2094 14.3888 10.7678C13.9709 10.3279 13.5347 9.88033 13.1773 9.53992C13.0001 9.37116 12.8313 9.21823 12.6882 9.10373C12.6179 9.04753 12.5393 8.98881 12.4598 8.94061C12.4201 8.91655 12.3671 8.88711 12.3054 8.86189C12.2529 8.84049 12.1419 8.79995 12 8.79995C11.8581 8.79995 11.7471 8.84049 11.6946 8.86189C11.6329 8.88711 11.5799 8.91655 11.5402 8.94061C11.4607 8.98881 11.3821 9.04753 11.3118 9.10373C11.1687 9.21823 10.9999 9.37116 10.8227 9.53992C10.4653 9.88033 10.0291 10.3279 9.61126 10.7678C9.19177 11.2094 8.78406 11.6502 8.48165 11.9801C8.33033 12.1451 8.20509 12.2828 8.11758 12.3792L8.01602 12.4914L7.98038 12.5309L8.50001 12.9999ZM8.50001 12.9999L9.02032 13.4682C8.7617 13.7556 8.31909 13.7789 8.03173 13.5203C7.74437 13.2616 7.72108 12.819 7.9797 12.5317L8.50001 12.9999Z" fill="#222628"/>
</svg>
