<svg width="24" height="24" viewBox="0 0 24 24" fill="none" xmlns="http://www.w3.org/2000/svg">
<path fill-rule="evenodd" clip-rule="evenodd" d="M12 3.30005C11.6134 3.30005 11.3 3.61345 11.3 4.00005L11.3 13C11.3 13.3866 11.6134 13.7 12 13.7C12.3866 13.7 12.7 13.3866 12.7 13L12.7 4.00005C12.7 3.61345 12.3866 3.30005 12 3.30005Z" fill="#222628"/>
<path fill-rule="evenodd" clip-rule="evenodd" d="M13.64 16.48L13.04 17.28C12.5822 17.8904 12.3116 18.2473 12.092 18.478C12.0548 18.517 12.0243 18.5467 12 18.569C11.9757 18.5467 11.9452 18.517 11.9081 18.478C11.6884 18.2473 11.4178 17.8904 10.96 17.28L10.36 16.48C9.71516 15.6202 9.31093 15.0772 9.07318 14.666C9.03196 14.5947 9.00115 14.5362 8.97819 14.4891C9.02965 14.4792 9.09496 14.4687 9.17671 14.4589C9.64829 14.4024 10.3253 14.4 11.4 14.4L12.6 14.4C13.6748 14.4 14.3518 14.4024 14.8233 14.4589C14.9051 14.4687 14.9704 14.4792 15.0219 14.4891C14.9989 14.5362 14.9681 14.5947 14.9269 14.666C14.6891 15.0772 14.2849 15.6202 13.64 16.48ZM11.7234 19.9743C11.1501 19.8667 10.7134 19.2845 9.84002 18.12L9.24002 17.32C7.99546 15.6606 7.37317 14.8309 7.54381 14.1402C7.59714 13.9244 7.69779 13.7231 7.83847 13.5509C8.2886 13 9.32574 13 11.4 13L12.6 13C14.6743 13 15.7114 13 16.1616 13.5509C16.3023 13.7231 16.4029 13.9244 16.4562 14.1402C16.6269 14.8309 16.0046 15.6606 14.76 17.32L14.16 18.12C13.2867 19.2845 12.85 19.8667 12.2766 19.9743C12.0938 20.0086 11.9062 20.0086 11.7234 19.9743Z" fill="#222628"/>
</svg>
