<svg width="24" height="24" viewBox="0 0 24 24" fill="none" xmlns="http://www.w3.org/2000/svg">
<path fill-rule="evenodd" clip-rule="evenodd" d="M12 5.30005C11.6134 5.30005 11.3 5.61345 11.3 6.00005L11.3 12C11.3 12.3866 11.6134 12.7 12 12.7C12.3866 12.7 12.7 12.3866 12.7 12L12.7 6.00005C12.7 5.61345 12.3866 5.30005 12 5.30005Z" fill="#222628"/>
<path fill-rule="evenodd" clip-rule="evenodd" d="M10.3505 13.4317C10.7085 13.4013 11.2102 13.4001 12 13.4001C12.7897 13.4001 13.2914 13.4013 13.6494 13.4317C13.7592 13.441 13.834 13.4519 13.8818 13.4605C13.8578 13.5028 13.8183 13.5672 13.7552 13.6575C13.5493 13.952 13.2291 14.3382 12.7235 14.9449C12.4126 15.318 12.2328 15.5321 12.0905 15.6771C12.0525 15.7157 12.0251 15.7411 12.0072 15.7567C12.0024 15.7571 11.9975 15.7571 11.9927 15.7567C11.9748 15.7411 11.9474 15.7157 11.9094 15.6771C11.7672 15.5321 11.5873 15.318 11.2764 14.9449C10.7708 14.3382 10.4506 13.952 10.2447 13.6575C10.1816 13.5672 10.1421 13.5028 10.1182 13.4605C10.1659 13.4519 10.2407 13.441 10.3505 13.4317ZM11.4375 17.0475C11.0886 16.9064 10.7927 16.5513 10.2009 15.8412C9.22311 14.6678 8.73422 14.0812 8.70513 13.5885C8.67522 13.0819 8.90349 12.5945 9.31183 12.2931C9.70896 12.0001 10.4726 12.0001 12 12.0001L12 12.0001C13.5273 12.0001 14.291 12.0001 14.6881 12.2931C15.0964 12.5945 15.3247 13.0819 15.2948 13.5885C15.2657 14.0812 14.7768 14.6678 13.799 15.8412C13.2072 16.5513 12.9113 16.9064 12.5624 17.0475C12.2016 17.1935 11.7983 17.1935 11.4375 17.0475Z" fill="#222628"/>
<path fill-rule="evenodd" clip-rule="evenodd" d="M1.29999 11.9646L1.29999 12.0355C1.29998 13.8747 1.29998 15.3028 1.40333 16.443C1.50821 17.6002 1.72393 18.5296 2.19762 19.35C2.78567 20.3686 3.63146 21.2144 4.64999 21.8024C5.47044 22.2761 6.39979 22.4918 7.55699 22.5967C8.69727 22.7001 10.1253 22.7001 11.9646 22.7L12.0354 22.7C13.8746 22.7001 15.3027 22.7001 16.443 22.5967C17.6002 22.4918 18.5295 22.2761 19.35 21.8024C20.3685 21.2144 21.2143 20.3686 21.8024 19.35C22.276 18.5296 22.4918 17.6002 22.5966 16.443C22.7 15.3028 22.7 13.8747 22.7 12.0354L22.7 11.9647C22.7 10.1254 22.7 8.69733 22.5966 7.55705C22.4918 6.39985 22.276 5.4705 21.8024 4.65005C21.2143 3.63152 20.3685 2.78573 19.35 2.19768C18.5295 1.72399 17.6002 1.50827 16.443 1.40339C15.3027 1.30004 13.8747 1.30004 12.0354 1.30005L11.9645 1.30005C10.1253 1.30004 8.69726 1.30004 7.55699 1.40339C6.39979 1.50827 5.47044 1.72399 4.64999 2.19768C3.63146 2.78573 2.78567 3.63152 2.19762 4.65005C1.72393 5.4705 1.50821 6.39985 1.40333 7.55705C1.29998 8.69732 1.29998 10.1254 1.29999 11.9646ZM2.79761 7.68342C2.89369 6.62332 3.07989 5.9219 3.41005 5.35005C3.87523 4.54435 4.54429 3.87529 5.34999 3.41011C5.92184 3.07995 6.62326 2.89375 7.68336 2.79767C8.75309 2.70072 10.1179 2.70005 12 2.70005C13.8821 2.70005 15.2469 2.70072 16.3166 2.79767C17.3767 2.89375 18.0781 3.07995 18.65 3.41011C19.4557 3.87529 20.1248 4.54435 20.5899 5.35005C20.9201 5.9219 21.1063 6.62332 21.2024 7.68342C21.2993 8.75315 21.3 10.1179 21.3 12C21.3 13.8822 21.2993 15.2469 21.2024 16.3167C21.1063 17.3768 20.9201 18.0782 20.5899 18.65C20.1248 19.4558 19.4557 20.1248 18.65 20.59C18.0781 20.9201 17.3767 21.1063 16.3166 21.2024C15.2469 21.2994 13.8821 21.3 12 21.3C10.1179 21.3 8.75309 21.2994 7.68336 21.2024C6.62326 21.1063 5.92184 20.9201 5.34999 20.59C4.54429 20.1248 3.87523 19.4558 3.41005 18.65C3.07989 18.0782 2.89369 17.3768 2.79761 16.3167C2.70066 15.2469 2.69999 13.8822 2.69999 12C2.69999 10.1179 2.70066 8.75315 2.79761 7.68342Z" fill="#222628"/>
</svg>
