<svg width="24" height="24" viewBox="0 0 24 24" fill="none" xmlns="http://www.w3.org/2000/svg">
<path fill-rule="evenodd" clip-rule="evenodd" d="M12 6.30005C11.6134 6.30005 11.3 6.61345 11.3 7.00005L11.3 16C11.3 16.3866 11.6134 16.7 12 16.7C12.3866 16.7 12.7 16.3866 12.7 16L12.7 7.00005C12.7 6.61345 12.3866 6.30005 12 6.30005Z" fill="#222628"/>
<path fill-rule="evenodd" clip-rule="evenodd" d="M8.51882 13.6916C8.23804 13.9573 8.22584 14.4004 8.49158 14.6812L8.52249 14.7137L8.6084 14.8039C8.68239 14.8813 8.78828 14.9917 8.91638 15.1242C9.17228 15.3887 9.51815 15.7425 9.87597 16.0972C10.2319 16.45 10.6075 16.8114 10.9206 17.0875C11.0756 17.2242 11.2275 17.3509 11.3606 17.4471C11.4262 17.4944 11.5017 17.5451 11.5804 17.5869C11.6307 17.6135 11.7936 17.7 12 17.7C12.2064 17.7 12.3688 17.6138 12.4191 17.5871C12.4978 17.5453 12.5738 17.4944 12.6394 17.4471C12.7725 17.3509 12.9244 17.2242 13.0794 17.0875C13.3925 16.8114 13.768 16.45 14.124 16.0972C14.4818 15.7425 14.8277 15.3887 15.0836 15.1242C15.2117 14.9917 15.3176 14.8813 15.3916 14.8039L15.4775 14.7137L15.5078 14.6818C15.7735 14.401 15.7619 13.9573 15.4812 13.6916C15.2004 13.4259 14.7573 13.438 14.4916 13.7188L14.4628 13.7492L14.3793 13.8368C14.307 13.9124 14.2031 14.0208 14.0773 14.1508C13.8254 14.4113 13.4869 14.7575 13.1385 15.1028C12.7882 15.45 12.4356 15.7886 12.1534 16.0375C12.0976 16.0867 12.0464 16.1308 12 16.1696C11.9536 16.1308 11.9024 16.0867 11.8466 16.0375C11.5644 15.7886 11.2118 15.45 10.8615 15.1028C10.5131 14.7575 10.1746 14.4113 9.92266 14.1508C9.79686 14.0208 9.69298 13.9124 9.62068 13.8368L9.53718 13.7492L9.50875 13.7192C9.50875 13.7192 9.50875 13.7192 9.50875 13.7192M8.51882 13.6916C8.7996 13.4259 9.24301 13.4384 9.50875 13.7192L8.51882 13.6916Z" fill="#222628"/>
<path fill-rule="evenodd" clip-rule="evenodd" d="M1.29999 11.9646L1.29999 12.0355C1.29998 13.8747 1.29998 15.3028 1.40333 16.443C1.50821 17.6002 1.72393 18.5296 2.19762 19.35C2.78567 20.3686 3.63146 21.2144 4.64999 21.8024C5.47044 22.2761 6.39979 22.4918 7.55699 22.5967C8.69727 22.7001 10.1253 22.7001 11.9646 22.7L12.0354 22.7C13.8746 22.7001 15.3027 22.7001 16.443 22.5967C17.6002 22.4918 18.5295 22.2761 19.35 21.8024C20.3685 21.2144 21.2143 20.3686 21.8024 19.35C22.276 18.5296 22.4918 17.6002 22.5966 16.443C22.7 15.3028 22.7 13.8747 22.7 12.0354L22.7 11.9647C22.7 10.1254 22.7 8.69733 22.5966 7.55705C22.4918 6.39985 22.276 5.4705 21.8024 4.65005C21.2143 3.63152 20.3685 2.78573 19.35 2.19768C18.5295 1.72399 17.6002 1.50827 16.443 1.40339C15.3027 1.30004 13.8747 1.30004 12.0354 1.30005L11.9645 1.30005C10.1253 1.30004 8.69726 1.30004 7.55699 1.40339C6.39979 1.50827 5.47044 1.72399 4.64999 2.19768C3.63146 2.78573 2.78567 3.63152 2.19762 4.65005C1.72393 5.4705 1.50821 6.39985 1.40333 7.55705C1.29998 8.69732 1.29998 10.1254 1.29999 11.9646ZM2.79761 7.68342C2.89369 6.62332 3.07989 5.9219 3.41005 5.35005C3.87523 4.54435 4.54429 3.87529 5.34999 3.41011C5.92184 3.07995 6.62326 2.89375 7.68336 2.79767C8.75309 2.70072 10.1179 2.70005 12 2.70005C13.8821 2.70005 15.2469 2.70072 16.3166 2.79767C17.3767 2.89375 18.0781 3.07995 18.65 3.41011C19.4557 3.87529 20.1248 4.54435 20.5899 5.35005C20.9201 5.9219 21.1063 6.62332 21.2024 7.68342C21.2993 8.75315 21.3 10.1179 21.3 12C21.3 13.8822 21.2993 15.2469 21.2024 16.3167C21.1063 17.3768 20.9201 18.0782 20.5899 18.65C20.1248 19.4558 19.4557 20.1248 18.65 20.59C18.0781 20.9201 17.3767 21.1063 16.3166 21.2024C15.2469 21.2994 13.8821 21.3 12 21.3C10.1179 21.3 8.75309 21.2994 7.68336 21.2024C6.62326 21.1063 5.92184 20.9201 5.34999 20.59C4.54429 20.1248 3.87523 19.4558 3.41005 18.65C3.07989 18.0782 2.89369 17.3768 2.79761 16.3167C2.70066 15.2469 2.69999 13.8822 2.69999 12C2.69999 10.1179 2.70066 8.75315 2.79761 7.68342Z" fill="#222628"/>
</svg>
