<svg width="24" height="24" viewBox="0 0 24 24" fill="none" xmlns="http://www.w3.org/2000/svg">
<path fill-rule="evenodd" clip-rule="evenodd" d="M7.00501 9.50507C6.73165 9.77843 6.73165 10.2216 7.00501 10.495L7.43844 10.0616C7.00502 10.495 7.00497 10.495 7.00501 10.495L7.05109 10.541L7.18007 10.6691C7.29124 10.7793 7.45043 10.9365 7.64295 11.1251C8.02771 11.502 8.54692 12.0055 9.08273 12.5098C9.61675 13.0124 10.1748 13.5229 10.635 13.9105C10.8637 14.103 11.08 14.2753 11.2633 14.4028C11.354 14.4659 11.4508 14.528 11.546 14.5772C11.6112 14.6108 11.7868 14.7 12 14.7C12.2132 14.7 12.3887 14.6108 12.454 14.5772C12.5492 14.528 12.646 14.4659 12.7366 14.4028C12.92 14.2753 13.1363 14.103 13.3649 13.9105C13.8252 13.5229 14.3832 13.0124 14.9172 12.5098C15.4531 12.0055 15.9723 11.502 16.357 11.1251C16.5495 10.9365 16.7087 10.7793 16.8199 10.6691L16.9489 10.541L16.9941 10.4959L16.9949 10.4951C16.9949 10.495 16.995 10.495 16.5 10C16.005 9.50507 16.005 9.50507 16.005 9.50508L15.961 9.54896L15.8344 9.67475C15.7248 9.78331 15.5676 9.93858 15.3773 10.125C14.9965 10.4981 14.4844 10.9946 13.9577 11.4903C13.4293 11.9877 12.8935 12.4772 12.4632 12.8396C12.2793 12.9944 12.1232 13.1188 12 13.2087C11.8768 13.1188 11.7207 12.9944 11.5368 12.8396C11.1065 12.4772 10.5707 11.9877 10.0422 11.4903C9.51556 10.9946 9.00351 10.4981 8.62265 10.125C8.43236 9.93858 8.27514 9.78331 8.16561 9.67475L8.03898 9.54896L7.99557 9.50567C7.99556 9.50566 7.99496 9.50507 7.72496 9.77507L7.99557 9.50567C7.7222 9.23231 7.27838 9.2317 7.00501 9.50507ZM12.1881 13.3331C12.2061 13.3403 12.207 13.3428 12.1881 13.3331C12.1879 13.333 12.1884 13.3332 12.1881 13.3331ZM16.995 9.50507C16.7216 9.2317 16.2784 9.23172 16.005 9.50508L16.5 10L16.9949 10.4951C17.2683 10.2217 17.2683 9.77843 16.995 9.50507Z" fill="#222628"/>
</svg>
