<svg width="24" height="24" viewBox="0 0 24 24" fill="none" xmlns="http://www.w3.org/2000/svg">
<path fill-rule="evenodd" clip-rule="evenodd" d="M21.7 12C21.7 11.6134 21.3866 11.3 21 11.3H12C11.6134 11.3 11.3 11.6134 11.3 12C11.3 12.3866 11.6134 12.7 12 12.7H21C21.3866 12.7 21.7 12.3866 21.7 12Z" fill="#222628"/>
<path fill-rule="evenodd" clip-rule="evenodd" d="M8.52 13.6401L7.72 13.0401C7.10961 12.5823 6.75265 12.3117 6.52195 12.092C6.48298 12.0549 6.45331 12.0244 6.43099 12.0001C6.45331 11.9758 6.48298 11.9453 6.52195 11.9082C6.75265 11.6885 7.10961 11.4179 7.72 10.9601L8.52 10.3601C9.37982 9.71522 9.92284 9.31099 10.334 9.07324C10.4053 9.03202 10.4638 9.00121 10.5109 8.97825C10.5208 9.02971 10.5313 9.09502 10.5411 9.17678C10.5976 9.64835 10.6 10.3253 10.6 11.4001L10.6 12.6001C10.6 13.6749 10.5976 14.3518 10.5411 14.8234C10.5313 14.9051 10.5208 14.9705 10.5109 15.0219C10.4638 14.999 10.4053 14.9681 10.334 14.9269C9.92284 14.6892 9.37982 14.2849 8.52 13.6401ZM5.02572 11.7235C5.1333 11.1501 5.71553 10.7134 6.88 9.84008L7.68 9.24008C9.33942 7.99552 10.1691 7.37323 10.8598 7.54387C11.0756 7.5972 11.2769 7.69785 11.4491 7.83853C12 8.28867 12 9.3258 12 11.4001L12 12.6001C12 14.6744 12 15.7115 11.4491 16.1616C11.2769 16.3023 11.0756 16.403 10.8598 16.4563C10.1691 16.6269 9.33942 16.0046 7.68 14.7601L6.88 14.1601C5.71553 13.2867 5.1333 12.8501 5.02572 12.2767C4.99143 12.0939 4.99143 11.9063 5.02572 11.7235Z" fill="#222628"/>
</svg>
