<svg width="24" height="24" viewBox="0 0 24 24" fill="none" xmlns="http://www.w3.org/2000/svg">
<path fill-rule="evenodd" clip-rule="evenodd" d="M18.7 12C18.7 11.6134 18.3866 11.3 18 11.3H12C11.6134 11.3 11.3 11.6134 11.3 12C11.3 12.3866 11.6134 12.7 12 12.7H18C18.3866 12.7 18.7 12.3866 18.7 12Z" fill="#222628"/>
<path fill-rule="evenodd" clip-rule="evenodd" d="M10.5684 10.3506C10.5988 10.7087 10.6 11.2104 10.6 12.0001C10.6 12.7898 10.5988 13.2915 10.5684 13.6495C10.5591 13.7593 10.5481 13.8341 10.5395 13.8819C10.4973 13.8579 10.4328 13.8184 10.3425 13.7553C10.048 13.5495 9.66184 13.2292 9.05516 12.7237C8.68209 12.4128 8.46793 12.2329 8.32298 12.0906C8.28432 12.0527 8.25901 12.0253 8.24334 12.0073C8.24299 12.0025 8.24299 11.9977 8.24334 11.9928C8.25901 11.9749 8.28432 11.9475 8.32298 11.9096C8.46793 11.7673 8.68209 11.5874 9.05516 11.2765C9.66184 10.7709 10.048 10.4507 10.3425 10.2448C10.4328 10.1817 10.4973 10.1423 10.5395 10.1183C10.5481 10.1661 10.5591 10.2409 10.5684 10.3506ZM6.95253 11.4376C7.09366 11.0887 7.44874 10.7928 8.1589 10.201C9.33223 9.22323 9.91889 8.73434 10.4116 8.70525C10.9182 8.67534 11.4056 8.90362 11.7069 9.31195C12 9.70908 12 10.4727 12 12.0001L12 12.0001C12 13.5274 12 14.2911 11.7069 14.6882C11.4056 15.0965 10.9182 15.3248 10.4116 15.2949C9.91889 15.2658 9.33223 14.7769 8.1589 13.7992C7.44874 13.2074 7.09366 12.9115 6.95253 12.5625C6.8066 12.2018 6.8066 11.7984 6.95253 11.4376Z" fill="#222628"/>
<path fill-rule="evenodd" clip-rule="evenodd" d="M12.0355 1.30005H11.9646C10.1253 1.30004 8.69728 1.30004 7.55702 1.40339C6.39981 1.50827 5.47046 1.72399 4.65001 2.19768C3.63148 2.78573 2.78569 3.63152 2.19764 4.65005C1.72396 5.4705 1.50823 6.39985 1.40335 7.55705C1.3 8.69733 1.30001 10.1254 1.30001 11.9647V12.0354C1.30001 13.8747 1.3 15.3028 1.40335 16.443C1.50823 17.6002 1.72396 18.5296 2.19764 19.35C2.78569 20.3686 3.63148 21.2144 4.65001 21.8024C5.47046 22.2761 6.39981 22.4918 7.55702 22.5967C8.6973 22.7001 10.1254 22.7001 11.9646 22.7001H12.0354C13.8747 22.7001 15.3027 22.7001 16.443 22.5967C17.6002 22.4918 18.5296 22.2761 19.35 21.8024C20.3685 21.2144 21.2143 20.3686 21.8024 19.35C22.2761 18.5296 22.4918 17.6002 22.5967 16.443C22.7 15.3028 22.7 13.8747 22.7 12.0355V11.9646C22.7 10.1254 22.7 8.69732 22.5967 7.55705C22.4918 6.39985 22.2761 5.4705 21.8024 4.65005C21.2143 3.63152 20.3685 2.78573 19.35 2.19768C18.5296 1.72399 17.6002 1.50827 16.443 1.40339C15.3027 1.30004 13.8747 1.30004 12.0355 1.30005ZM16.3166 2.79767C17.3767 2.89375 18.0782 3.07995 18.65 3.41011C19.4557 3.87529 20.1248 4.54435 20.5899 5.35005C20.9201 5.9219 21.1063 6.62332 21.2024 7.68342C21.2993 8.75315 21.3 10.1179 21.3 12C21.3 13.8822 21.2993 15.2469 21.2024 16.3167C21.1063 17.3768 20.9201 18.0782 20.5899 18.65C20.1248 19.4558 19.4557 20.1248 18.65 20.59C18.0782 20.9201 17.3767 21.1063 16.3166 21.2024C15.2469 21.2994 13.8821 21.3 12 21.3C10.1179 21.3 8.75311 21.2994 7.68339 21.2024C6.62328 21.1063 5.92187 20.9201 5.35001 20.59C4.54431 20.1248 3.87525 19.4558 3.41008 18.65C3.07992 18.0782 2.89371 17.3768 2.79763 16.3167C2.70068 15.2469 2.70001 13.8822 2.70001 12C2.70001 10.1179 2.70068 8.75315 2.79763 7.68342C2.89371 6.62332 3.07992 5.9219 3.41008 5.35005C3.87525 4.54435 4.54431 3.87529 5.35001 3.41011C5.92187 3.07995 6.62328 2.89375 7.68339 2.79767C8.75311 2.70072 10.1179 2.70005 12 2.70005C13.8821 2.70005 15.2469 2.70072 16.3166 2.79767Z" fill="#222628"/>
</svg>
