<svg width="24" height="24" viewBox="0 0 24 24" fill="none" xmlns="http://www.w3.org/2000/svg">
<path fill-rule="evenodd" clip-rule="evenodd" d="M12 18.7C12.3866 18.7 12.7 18.3866 12.7 18L12.7 12C12.7 11.6134 12.3866 11.3 12 11.3C11.6134 11.3 11.3 11.6134 11.3 12L11.3 18C11.3 18.3866 11.6134 18.7 12 18.7Z" fill="#222628"/>
<path fill-rule="evenodd" clip-rule="evenodd" d="M13.6495 10.5683C13.2915 10.5987 12.7898 10.5999 12 10.5999C11.2103 10.5999 10.7086 10.5987 10.3506 10.5683C10.2408 10.559 10.166 10.5481 10.1182 10.5395C10.1422 10.4972 10.1817 10.4328 10.2448 10.3425C10.4507 10.048 10.7709 9.66178 11.2765 9.0551C11.5874 8.68203 11.7672 8.46787 11.9095 8.32291C11.9475 8.28426 11.9749 8.25895 11.9928 8.24328C11.9976 8.24293 12.0025 8.24293 12.0073 8.24328C12.0252 8.25895 12.0526 8.28426 12.0906 8.32291C12.2328 8.46787 12.4127 8.68203 12.7236 9.0551C13.2292 9.66178 13.5494 10.048 13.7553 10.3425C13.8184 10.4328 13.8579 10.4972 13.8818 10.5395C13.8341 10.5481 13.7593 10.559 13.6495 10.5683ZM12.5625 6.95247C12.9114 7.0936 13.2073 7.44868 13.7991 8.15884C14.7769 9.33217 15.2658 9.91883 15.2949 10.4115C15.3248 10.9181 15.0965 11.4055 14.6882 11.7069C14.291 11.9999 13.5274 11.9999 12 11.9999L12 11.9999C10.4727 11.9999 9.70904 11.9999 9.31191 11.7069C8.90358 11.4055 8.6753 10.9181 8.70521 10.4115C8.7343 9.91883 9.22319 9.33217 10.201 8.15884C10.7928 7.44868 11.0887 7.0936 11.4376 6.95247C11.7984 6.80654 12.2017 6.80654 12.5625 6.95247Z" fill="#222628"/>
<path fill-rule="evenodd" clip-rule="evenodd" d="M22.7 12.0354L22.7 11.9645C22.7 10.1253 22.7 8.69722 22.5967 7.55696C22.4918 6.39975 22.2761 5.4704 21.8024 4.64995C21.2143 3.63142 20.3685 2.78563 19.35 2.19758C18.5296 1.72389 17.6002 1.50817 16.443 1.40329C15.3027 1.29994 13.8747 1.29995 12.0354 1.29995L11.9646 1.29995C10.1254 1.29995 8.6973 1.29994 7.55702 1.40329C6.39981 1.50817 5.47046 1.72389 4.65001 2.19758C3.63148 2.78563 2.78569 3.63142 2.19764 4.64995C1.72395 5.4704 1.50823 6.39975 1.40335 7.55696C1.3 8.69724 1.30001 10.1253 1.30001 11.9646L1.30001 12.0353C1.30001 13.8746 1.3 15.3027 1.40335 16.4429C1.50823 17.6002 1.72395 18.5295 2.19764 19.35C2.78569 20.3685 3.63148 21.2143 4.65001 21.8023C5.47046 22.276 6.39981 22.4917 7.55702 22.5966C8.69728 22.7 10.1253 22.7 11.9646 22.7L12.0355 22.7C13.8747 22.7 15.3027 22.7 16.443 22.5966C17.6002 22.4917 18.5296 22.276 19.35 21.8023C20.3685 21.2143 21.2143 20.3685 21.8024 19.35C22.2761 18.5295 22.4918 17.6002 22.5967 16.4429C22.7 15.3027 22.7 13.8746 22.7 12.0354ZM21.2024 16.3166C21.1063 17.3767 20.9201 18.0781 20.5899 18.65C20.1248 19.4557 19.4557 20.1247 18.65 20.5899C18.0782 20.92 17.3767 21.1062 16.3166 21.2023C15.2469 21.2993 13.8821 21.3 12 21.3C10.1179 21.3 8.75311 21.2993 7.68339 21.2023C6.62328 21.1062 5.92187 20.92 5.35001 20.5899C4.54431 20.1247 3.87525 19.4557 3.41008 18.65C3.07992 18.0781 2.89371 17.3767 2.79763 16.3166C2.70068 15.2469 2.70001 13.8821 2.70001 12C2.70001 10.1178 2.70068 8.75305 2.79763 7.68333C2.89371 6.62322 3.07992 5.92181 3.41008 5.34995C3.87525 4.54425 4.54431 3.87519 5.35001 3.41002C5.92187 3.07986 6.62328 2.89365 7.68339 2.79757C8.75311 2.70062 10.1179 2.69995 12 2.69995C13.8821 2.69995 15.2469 2.70062 16.3166 2.79757C17.3767 2.89365 18.0782 3.07986 18.65 3.41002C19.4557 3.87519 20.1248 4.54425 20.5899 5.34995C20.9201 5.92181 21.1063 6.62322 21.2024 7.68333C21.2993 8.75305 21.3 10.1178 21.3 12C21.3 13.8821 21.2993 15.2469 21.2024 16.3166Z" fill="#222628"/>
</svg>
