<svg width="24" height="24" viewBox="0 0 24 24" fill="none" xmlns="http://www.w3.org/2000/svg">
<path fill-rule="evenodd" clip-rule="evenodd" d="M22.7 12C22.7 6.0906 17.9095 1.30005 12 1.30005C6.09056 1.30005 1.30001 6.0906 1.30001 12C1.30001 17.9095 6.09056 22.7001 12 22.7001C17.9095 22.7001 22.7 17.9095 22.7 12ZM12 2.70005C17.1363 2.70005 21.3 6.8638 21.3 12C21.3 17.1363 17.1363 21.3 12 21.3C6.86376 21.3 2.70001 17.1363 2.70001 12C2.70001 6.8638 6.86376 2.70005 12 2.70005Z" fill="#222628"/>
<path fill-rule="evenodd" clip-rule="evenodd" d="M13.5203 8.03178C13.2617 7.74442 12.8191 7.72113 12.5317 7.97975L13 8.50005L13.4683 9.02036C13.7556 8.76174 13.7789 8.31914 13.5203 8.03178ZM13 15.5001L13.4683 14.9797L13.4299 14.9451L13.3199 14.8456C13.225 14.7594 13.0892 14.6358 12.9261 14.4864C12.5998 14.1872 12.1656 13.7856 11.7321 13.3738C11.297 12.9604 10.8696 12.5435 10.5538 12.2118C10.4796 12.134 10.4139 12.0632 10.3571 12.0001C10.4139 11.9369 10.4796 11.8661 10.5538 11.7883C10.8696 11.4566 11.297 11.0397 11.7321 10.6263C12.1656 10.2145 12.5998 9.81287 12.9261 9.51372C13.0892 9.36427 13.225 9.24068 13.3199 9.15455L13.4299 9.05496L13.4683 9.02036L13 8.50005L12.5317 7.97975L12.4915 8.01607L12.3793 8.11763C12.2828 8.20514 12.1452 8.33038 11.9801 8.4817C11.6502 8.78411 11.2094 9.19182 10.7679 9.61131C10.328 10.0292 9.88039 10.4653 9.53998 10.8228C9.37122 11 9.21829 11.1688 9.10379 11.3119C9.04759 11.3821 8.98887 11.4607 8.94067 11.5403C8.91661 11.58 8.88717 11.6329 8.86195 11.6947C8.84055 11.7471 8.80001 11.8581 8.80001 12.0001C8.80001 12.142 8.84055 12.253 8.86195 12.3054C8.88717 12.3672 8.91661 12.4201 8.94067 12.4599C8.98887 12.5394 9.04759 12.618 9.10379 12.6882C9.21829 12.8313 9.37122 13.0001 9.53998 13.1773C9.88039 13.5348 10.328 13.9709 10.7679 14.3888C11.2094 14.8083 11.6502 15.216 11.9801 15.5184C12.1452 15.6697 12.2828 15.795 12.3793 15.8825L12.4915 15.984L12.531 16.0197L13 15.5001ZM13 15.5001L13.4683 14.9797C13.7556 15.2384 13.7789 15.681 13.5203 15.9683C13.2617 16.2557 12.8191 16.279 12.5317 16.0204L13 15.5001Z" fill="#222628"/>
</svg>
