<svg width="24" height="24" viewBox="0 0 24 24" fill="none" xmlns="http://www.w3.org/2000/svg">
<path fill-rule="evenodd" clip-rule="evenodd" d="M12 17.7C11.6134 17.7 11.3 17.3866 11.3 17L11.3 7.99995C11.3 7.61335 11.6134 7.29995 12 7.29995C12.3866 7.29995 12.7 7.61335 12.7 7.99995L12.7 17C12.7 17.3866 12.3866 17.7 12 17.7Z" fill="#222628"/>
<path fill-rule="evenodd" clip-rule="evenodd" d="M8.51882 10.3084C8.23804 10.0427 8.22584 9.59961 8.49158 9.31883L8.52249 9.28627L8.6084 9.19614C8.68239 9.11869 8.78828 9.00826 8.91638 8.87583C9.17228 8.61126 9.51815 8.25748 9.87597 7.90283C10.2319 7.55 10.6075 7.18863 10.9206 6.91249C11.0756 6.77577 11.2275 6.64911 11.3606 6.55293C11.4262 6.50556 11.5017 6.45491 11.5804 6.41315C11.6307 6.38646 11.7936 6.3 12 6.3C12.2064 6.3 12.3688 6.38623 12.4191 6.41292C12.4978 6.45469 12.5738 6.50556 12.6394 6.55293C12.7725 6.64912 12.9244 6.77578 13.0794 6.91249C13.3925 7.18863 13.768 7.55 14.124 7.90283C14.4818 8.25748 14.8277 8.61126 15.0836 8.87583C15.2117 9.00826 15.3176 9.11869 15.3916 9.19614L15.4775 9.28627L15.5078 9.31819C15.7735 9.59897 15.7619 10.0427 15.4812 10.3084C15.2004 10.5741 14.7573 10.562 14.4916 10.2812L14.4628 10.2508L14.3793 10.1632C14.307 10.0876 14.2031 9.97923 14.0773 9.84917C13.8254 9.58873 13.4869 9.24251 13.1385 8.89717C12.7882 8.55 12.4356 8.21136 12.1534 7.96251C12.0976 7.91328 12.0464 7.86922 12 7.8304C11.9536 7.86922 11.9024 7.91328 11.8466 7.96251C11.5644 8.21136 11.2118 8.55 10.8615 8.89717C10.5131 9.24251 10.1746 9.58873 9.92266 9.84917C9.79686 9.97923 9.69298 10.0876 9.62068 10.1632L9.53718 10.2508L9.50875 10.2808C9.50875 10.2808 9.50875 10.2808 9.50875 10.2808M8.51882 10.3084C8.7996 10.5741 9.24301 10.5616 9.50875 10.2808L8.51882 10.3084Z" fill="#222628"/>
<path fill-rule="evenodd" clip-rule="evenodd" d="M1.29999 12.0354L1.29999 11.9645C1.29998 10.1253 1.29998 8.69722 1.40333 7.55696C1.50821 6.39975 1.72393 5.4704 2.19762 4.64995C2.78567 3.63142 3.63146 2.78563 4.64999 2.19758C5.47044 1.72389 6.39979 1.50817 7.55699 1.40329C8.69727 1.29994 10.1253 1.29995 11.9646 1.29995L12.0354 1.29995C13.8746 1.29995 15.3027 1.29994 16.443 1.40329C17.6002 1.50817 18.5295 1.72389 19.35 2.19758C20.3685 2.78563 21.2143 3.63142 21.8024 4.64995C22.276 5.4704 22.4918 6.39975 22.5966 7.55696C22.7 8.69724 22.7 10.1253 22.7 11.9646L22.7 12.0353C22.7 13.8746 22.7 15.3027 22.5966 16.4429C22.4918 17.6002 22.276 18.5295 21.8024 19.35C21.2143 20.3685 20.3685 21.2143 19.35 21.8023C18.5295 22.276 17.6002 22.4917 16.443 22.5966C15.3027 22.7 13.8747 22.7 12.0354 22.7L11.9645 22.7C10.1253 22.7 8.69726 22.7 7.55699 22.5966C6.39979 22.4917 5.47044 22.276 4.64999 21.8023C3.63146 21.2143 2.78567 20.3685 2.19762 19.35C1.72393 18.5295 1.50821 17.6002 1.40333 16.4429C1.29998 15.3027 1.29998 13.8746 1.29999 12.0354ZM2.79761 16.3166C2.89369 17.3767 3.07989 18.0781 3.41005 18.65C3.87523 19.4557 4.54429 20.1247 5.34999 20.5899C5.92184 20.92 6.62326 21.1062 7.68336 21.2023C8.75309 21.2993 10.1179 21.3 12 21.3C13.8821 21.3 15.2469 21.2993 16.3166 21.2023C17.3767 21.1062 18.0781 20.92 18.65 20.5899C19.4557 20.1247 20.1248 19.4557 20.5899 18.65C20.9201 18.0781 21.1063 17.3767 21.2024 16.3166C21.2993 15.2469 21.3 13.8821 21.3 12C21.3 10.1178 21.2993 8.75305 21.2024 7.68333C21.1063 6.62322 20.9201 5.92181 20.5899 5.34995C20.1248 4.54425 19.4557 3.87519 18.65 3.41002C18.0781 3.07986 17.3767 2.89365 16.3166 2.79757C15.2469 2.70062 13.8821 2.69995 12 2.69995C10.1179 2.69995 8.75309 2.70062 7.68336 2.79757C6.62326 2.89365 5.92184 3.07986 5.34999 3.41002C4.54429 3.87519 3.87523 4.54425 3.41005 5.34995C3.07989 5.92181 2.89369 6.62322 2.79761 7.68333C2.70066 8.75305 2.69999 10.1178 2.69999 12C2.69999 13.8821 2.70066 15.2469 2.79761 16.3166Z" fill="#222628"/>
</svg>
