<svg width="24" height="24" viewBox="0 0 24 24" fill="none" xmlns="http://www.w3.org/2000/svg">
<path fill-rule="evenodd" clip-rule="evenodd" d="M17.7 12C17.7 11.6134 17.3866 11.3 17 11.3L8.00001 11.3C7.61341 11.3 7.30001 11.6135 7.30001 12C7.30001 12.3866 7.61341 12.7 8.00001 12.7L17 12.7C17.3866 12.7 17.7 12.3866 17.7 12Z" fill="#222628"/>
<path fill-rule="evenodd" clip-rule="evenodd" d="M10.3084 8.51888C10.0427 8.2381 9.59961 8.2259 9.31883 8.49165L9.28627 8.52255L9.19614 8.60846C9.11869 8.68245 9.00826 8.78834 8.87583 8.91644C8.61126 9.17234 8.25748 9.51821 7.90283 9.87603C7.55 10.232 7.18863 10.6075 6.91249 10.9206C6.77577 11.0757 6.64911 11.2276 6.55293 11.3607C6.50556 11.4262 6.45491 11.5018 6.41315 11.5805C6.38646 11.6308 6.3 11.7937 6.3 12.0001C6.3 12.2065 6.38623 12.3689 6.41292 12.4192C6.45469 12.4979 6.50556 12.5739 6.55293 12.6394C6.64911 12.7725 6.77578 12.9244 6.91249 13.0795C7.18863 13.3926 7.55 13.7681 7.90283 14.1241C8.25748 14.4819 8.61126 14.8278 8.87583 15.0837C9.00826 15.2118 9.11869 15.3177 9.19614 15.3916L9.28627 15.4776L9.31819 15.5078C9.59897 15.7736 10.0427 15.762 10.3084 15.4812C10.5741 15.2004 10.562 14.7574 10.2812 14.4916L10.2508 14.4629L10.1632 14.3794C10.0876 14.3071 9.97923 14.2032 9.84917 14.0774C9.58873 13.8255 9.24251 13.487 8.89717 13.1385C8.55 12.7883 8.21136 12.4356 7.96251 12.1535C7.91328 12.0976 7.86922 12.0464 7.8304 12.0001C7.86922 11.9537 7.91328 11.9025 7.96251 11.8466C8.21136 11.5645 8.55 11.2118 8.89717 10.8616C9.24251 10.5131 9.58873 10.1746 9.84917 9.92272C9.97923 9.79692 10.0876 9.69305 10.1632 9.62074L10.2508 9.53725L10.2808 9.50881C10.2808 9.50881 10.2808 9.50881 10.2808 9.50881M10.3084 8.51888C10.5741 8.79966 10.5616 9.24307 10.2808 9.50881L10.3084 8.51888Z" fill="#222628"/>
<path fill-rule="evenodd" clip-rule="evenodd" d="M12.0355 1.30005H11.9646C10.1253 1.30004 8.69728 1.30004 7.55702 1.40339C6.39981 1.50827 5.47046 1.72399 4.65001 2.19768C3.63148 2.78573 2.78569 3.63152 2.19764 4.65005C1.72396 5.4705 1.50823 6.39985 1.40335 7.55705C1.3 8.69733 1.30001 10.1254 1.30001 11.9647V12.0354C1.30001 13.8747 1.3 15.3028 1.40335 16.443C1.50823 17.6002 1.72396 18.5296 2.19764 19.35C2.78569 20.3686 3.63148 21.2144 4.65001 21.8024C5.47046 22.2761 6.39981 22.4918 7.55702 22.5967C8.6973 22.7001 10.1254 22.7001 11.9646 22.7001H12.0354C13.8747 22.7001 15.3027 22.7001 16.443 22.5967C17.6002 22.4918 18.5296 22.2761 19.35 21.8024C20.3685 21.2144 21.2143 20.3686 21.8024 19.35C22.2761 18.5296 22.4918 17.6002 22.5967 16.443C22.7 15.3028 22.7 13.8747 22.7 12.0355V11.9646C22.7 10.1254 22.7 8.69732 22.5967 7.55705C22.4918 6.39985 22.2761 5.4705 21.8024 4.65005C21.2143 3.63152 20.3685 2.78573 19.35 2.19768C18.5296 1.72399 17.6002 1.50827 16.443 1.40339C15.3027 1.30004 13.8747 1.30004 12.0355 1.30005ZM16.3166 2.79767C17.3767 2.89375 18.0782 3.07995 18.65 3.41011C19.4557 3.87529 20.1248 4.54435 20.5899 5.35005C20.9201 5.9219 21.1063 6.62332 21.2024 7.68342C21.2993 8.75315 21.3 10.1179 21.3 12C21.3 13.8822 21.2993 15.2469 21.2024 16.3167C21.1063 17.3768 20.9201 18.0782 20.5899 18.65C20.1248 19.4558 19.4557 20.1248 18.65 20.59C18.0782 20.9201 17.3767 21.1063 16.3166 21.2024C15.2469 21.2994 13.8821 21.3 12 21.3C10.1179 21.3 8.75311 21.2994 7.68339 21.2024C6.62328 21.1063 5.92187 20.9201 5.35001 20.59C4.54431 20.1248 3.87525 19.4558 3.41008 18.65C3.07992 18.0782 2.89371 17.3768 2.79763 16.3167C2.70068 15.2469 2.70001 13.8822 2.70001 12C2.70001 10.1179 2.70068 8.75315 2.79763 7.68342C2.89371 6.62332 3.07992 5.9219 3.41008 5.35005C3.87525 4.54435 4.54431 3.87529 5.35001 3.41011C5.92187 3.07995 6.62328 2.89375 7.68339 2.79767C8.75311 2.70072 10.1179 2.70005 12 2.70005C13.8821 2.70005 15.2469 2.70072 16.3166 2.79767Z" fill="#222628"/>
</svg>
