<svg width="24" height="24" viewBox="0 0 24 24" fill="none" xmlns="http://www.w3.org/2000/svg">
<path fill-rule="evenodd" clip-rule="evenodd" d="M12 21.7C11.6134 21.7 11.3 21.3866 11.3 21L11.3 12C11.3 11.6134 11.6134 11.3 12 11.3C12.3866 11.3 12.7 11.6134 12.7 12L12.7 21C12.7 21.3866 12.3866 21.7 12 21.7Z" fill="#222628"/>
<path fill-rule="evenodd" clip-rule="evenodd" d="M13.64 8.52L13.04 7.72C12.5822 7.10961 12.3116 6.75265 12.092 6.52195C12.0548 6.48298 12.0243 6.45331 12 6.43099C11.9757 6.45331 11.9452 6.48298 11.9081 6.52195C11.6884 6.75265 11.4178 7.10961 10.96 7.72L10.36 8.52C9.71516 9.37982 9.31093 9.92284 9.07318 10.334C9.03196 10.4053 9.00115 10.4638 8.97819 10.5109C9.02965 10.5208 9.09496 10.5313 9.17671 10.5411C9.64829 10.5976 10.3253 10.6 11.4 10.6L12.6 10.6C13.6748 10.6 14.3518 10.5976 14.8233 10.5411C14.9051 10.5313 14.9704 10.5208 15.0219 10.5109C14.9989 10.4638 14.9681 10.4053 14.9269 10.334C14.6891 9.92284 14.2849 9.37982 13.64 8.52ZM11.7234 5.02572C11.1501 5.1333 10.7134 5.71553 9.84002 6.88L9.24002 7.68C7.99546 9.33942 7.37317 10.1691 7.54381 10.8598C7.59714 11.0756 7.69779 11.2769 7.83847 11.4491C8.2886 12 9.32574 12 11.4 12L12.6 12C14.6743 12 15.7114 12 16.1616 11.4491C16.3023 11.2769 16.4029 11.0756 16.4562 10.8598C16.6269 10.1691 16.0046 9.33942 14.76 7.68L14.16 6.88C13.2867 5.71553 12.85 5.1333 12.2766 5.02572C12.0938 4.99143 11.9062 4.99143 11.7234 5.02572Z" fill="#222628"/>
</svg>
