<svg width="24" height="24" viewBox="0 0 24 24" fill="none" xmlns="http://www.w3.org/2000/svg">
<path fill-rule="evenodd" clip-rule="evenodd" d="M1.29999 11.9646L1.29999 12.0355C1.29998 13.8747 1.29998 15.3028 1.40333 16.443C1.50821 17.6002 1.72393 18.5296 2.19762 19.35C2.78567 20.3686 3.63146 21.2144 4.64999 21.8024C5.47044 22.2761 6.39979 22.4918 7.55699 22.5967C8.69727 22.7001 10.1253 22.7001 11.9646 22.7L12.0354 22.7C13.8746 22.7001 15.3027 22.7001 16.443 22.5967C17.6002 22.4918 18.5295 22.2761 19.35 21.8024C20.3685 21.2144 21.2143 20.3686 21.8024 19.35C22.276 18.5296 22.4918 17.6002 22.5966 16.443C22.7 15.3028 22.7 13.8747 22.7 12.0354L22.7 11.9647C22.7 10.1254 22.7 8.69733 22.5966 7.55705C22.4918 6.39985 22.276 5.4705 21.8024 4.65005C21.2143 3.63152 20.3685 2.78573 19.35 2.19768C18.5295 1.72399 17.6002 1.50827 16.443 1.40339C15.3027 1.30004 13.8747 1.30004 12.0354 1.30005L11.9645 1.30005C10.1253 1.30004 8.69726 1.30004 7.55699 1.40339C6.39979 1.50827 5.47044 1.72399 4.64999 2.19768C3.63146 2.78573 2.78567 3.63152 2.19762 4.65005C1.72393 5.4705 1.50821 6.39985 1.40333 7.55705C1.29998 8.69732 1.29998 10.1254 1.29999 11.9646ZM2.79761 7.68342C2.89369 6.62332 3.07989 5.9219 3.41005 5.35005C3.87523 4.54435 4.54429 3.87529 5.34999 3.41011C5.92184 3.07995 6.62326 2.89375 7.68336 2.79767C8.75309 2.70072 10.1179 2.70005 12 2.70005C13.8821 2.70005 15.2469 2.70072 16.3166 2.79767C17.3767 2.89375 18.0781 3.07995 18.65 3.41011C19.4557 3.87529 20.1248 4.54435 20.5899 5.35005C20.9201 5.9219 21.1063 6.62332 21.2024 7.68342C21.2993 8.75315 21.3 10.1179 21.3 12C21.3 13.8822 21.2993 15.2469 21.2024 16.3167C21.1063 17.3768 20.9201 18.0782 20.5899 18.65C20.1248 19.4558 19.4557 20.1248 18.65 20.59C18.0781 20.9201 17.3767 21.1063 16.3166 21.2024C15.2469 21.2994 13.8821 21.3 12 21.3C10.1179 21.3 8.75309 21.2994 7.68336 21.2024C6.62326 21.1063 5.92184 20.9201 5.34999 20.59C4.54429 20.1248 3.87523 19.4558 3.41005 18.65C3.07989 18.0782 2.89369 17.3768 2.79761 16.3167C2.70066 15.2469 2.69999 13.8822 2.69999 12C2.69999 10.1179 2.70066 8.75315 2.79761 7.68342Z" fill="#222628"/>
<path fill-rule="evenodd" clip-rule="evenodd" d="M8.03172 10.4797C7.74436 10.7384 7.72107 11.181 7.97969 11.4683L8.49999 11.0001L9.0203 10.5318C8.76168 10.2444 8.31908 10.2211 8.03172 10.4797ZM12 13.643C11.9369 13.5862 11.8661 13.5204 11.7882 13.4463C11.4566 13.1304 11.0396 12.7031 10.6262 12.2679C10.2145 11.8345 9.81281 11.4003 9.51366 11.0739C9.3642 10.9109 9.24062 10.7751 9.15449 10.6801L9.0549 10.5701L9.0203 10.5318L8.49999 11.0001L7.97969 11.4683L8.01601 11.5086L8.11757 11.6208C8.20507 11.7172 8.33031 11.8549 8.48164 12.0199C8.78405 12.3498 9.19176 12.7906 9.61124 13.2322C10.0291 13.6721 10.4653 14.1197 10.8227 14.4601C10.9999 14.6288 11.1687 14.7818 11.3118 14.8963C11.3821 14.9525 11.4607 15.0112 11.5402 15.0594C11.5799 15.0834 11.6329 15.1129 11.6946 15.1381C11.7471 15.1595 11.8581 15.2001 12 15.2001C12.1419 15.2001 12.2529 15.1595 12.3054 15.1381C12.3671 15.1129 12.4201 15.0834 12.4598 15.0594C12.5393 15.0112 12.6179 14.9525 12.6882 14.8963C12.8313 14.7818 13.0001 14.6288 13.1773 14.4601C13.5347 14.1197 13.9709 13.6721 14.3887 13.2322C14.8082 12.7906 15.2159 12.3498 15.5183 12.0199C15.6697 11.8549 15.7949 11.7172 15.8824 11.6208L15.984 11.5086L16.0196 11.4691L15.5013 11.0012L16.0203 11.4683C16.2789 11.181 16.2556 10.7384 15.9683 10.4797C15.6809 10.2211 15.2383 10.2444 14.9797 10.5318L14.9451 10.5701L14.8455 10.6801C14.7594 10.7751 14.6358 10.9109 14.4863 11.0739C14.1872 11.4003 13.7855 11.8345 13.3737 12.2679C12.9604 12.7031 12.5434 13.1304 12.2118 13.4463C12.1339 13.5204 12.0631 13.5862 12 13.643Z" fill="#222628"/>
</svg>
