<svg width="24" height="24" viewBox="0 0 24 24" fill="none" xmlns="http://www.w3.org/2000/svg">
<path fill-rule="evenodd" clip-rule="evenodd" d="M3.29999 12C3.29999 11.6134 3.61339 11.3 3.99999 11.3H13C13.3866 11.3 13.7 11.6134 13.7 12C13.7 12.3866 13.3866 12.7 13 12.7H3.99999C3.61339 12.7 3.29999 12.3866 3.29999 12Z" fill="#222628"/>
<path fill-rule="evenodd" clip-rule="evenodd" d="M16.48 13.6401L17.28 13.0401C17.8904 12.5823 18.2473 12.3117 18.478 12.092C18.517 12.0549 18.5467 12.0244 18.569 12.0001C18.5467 11.9758 18.517 11.9453 18.478 11.9082C18.2473 11.6885 17.8904 11.4179 17.28 10.9601L16.48 10.3601C15.6202 9.71522 15.0772 9.31099 14.666 9.07324C14.5947 9.03202 14.5362 9.00121 14.4891 8.97825C14.4792 9.02971 14.4687 9.09502 14.4589 9.17678C14.4024 9.64835 14.4 10.3253 14.4 11.4001L14.4 12.6001C14.4 13.6749 14.4024 14.3518 14.4589 14.8234C14.4687 14.9051 14.4792 14.9705 14.4891 15.0219C14.5362 14.999 14.5947 14.9681 14.666 14.9269C15.0772 14.6892 15.6202 14.2849 16.48 13.6401ZM19.9743 11.7235C19.8667 11.1501 19.2845 10.7134 18.12 9.84008L17.32 9.24008C15.6606 7.99552 14.8309 7.37323 14.1402 7.54387C13.9244 7.5972 13.7231 7.69785 13.5509 7.83853C13 8.28867 13 9.3258 13 11.4001L13 12.6001C13 14.6744 13 15.7115 13.5509 16.1616C13.7231 16.3023 13.9244 16.403 14.1402 16.4563C14.8309 16.6269 15.6606 16.0046 17.32 14.7601L18.12 14.1601C19.2845 13.2867 19.8667 12.8501 19.9743 12.2767C20.0086 12.0939 20.0086 11.9063 19.9743 11.7235Z" fill="#222628"/>
</svg>
