<svg width="24" height="24" viewBox="0 0 24 24" fill="none" xmlns="http://www.w3.org/2000/svg">
<path fill-rule="evenodd" clip-rule="evenodd" d="M9.52 10.3602L8.72 10.9602C8.10961 11.418 7.75265 11.6886 7.52195 11.9082C7.48298 11.9453 7.45331 11.9759 7.43099 12.0002C7.45331 12.0245 7.48298 12.055 7.52195 12.0921C7.75265 12.3118 8.10961 12.5824 8.72 13.0402L9.52 13.6402C10.3798 14.285 10.9228 14.6893 11.334 14.927C11.4053 14.9682 11.4638 14.999 11.5109 15.022C11.5208 14.9705 11.5313 14.9052 11.5411 14.8235C11.5976 14.3519 11.6 13.6749 11.6 12.6002L11.6 11.4002C11.6 10.3254 11.5976 9.64843 11.5411 9.17685C11.5313 9.09509 11.5208 9.02978 11.5109 8.97832C11.4638 9.00128 11.4053 9.0321 11.334 9.07331C10.9228 9.31107 10.3798 9.7153 9.52 10.3602ZM6.02572 12.2768C6.1333 12.8501 6.71553 13.2868 7.88 14.1602L8.68 14.7602C10.3394 16.0047 11.1691 16.627 11.8598 16.4564C12.0756 16.403 12.2769 16.3024 12.4491 16.1617C13 15.7116 13 14.6744 13 12.6002L13 11.4002C13 9.32588 13 8.28874 12.4491 7.83861C12.2769 7.69792 12.0756 7.59728 11.8598 7.54395C11.1691 7.37331 10.3394 7.99559 8.68 9.24016L7.88 9.84016C6.71553 10.7135 6.1333 11.1502 6.02572 11.7236C5.99143 11.9064 5.99143 12.094 6.02572 12.2768Z" fill="#222628"/>
<path fill-rule="evenodd" clip-rule="evenodd" d="M15.52 10.3602L14.72 10.9602C14.1096 11.418 13.7527 11.6886 13.522 11.9082C13.483 11.9453 13.4533 11.9759 13.431 12.0002C13.4533 12.0245 13.483 12.055 13.522 12.0921C13.7527 12.3118 14.1096 12.5824 14.72 13.0402L15.52 13.6402C16.3798 14.285 16.9228 14.6893 17.334 14.927C17.4053 14.9682 17.4638 14.999 17.5109 15.022C17.5208 14.9705 17.5313 14.9052 17.5411 14.8235C17.5976 14.3519 17.6 13.6749 17.6 12.6002L17.6 11.4002C17.6 10.3254 17.5976 9.64843 17.5411 9.17685C17.5313 9.09509 17.5208 9.02978 17.5109 8.97832C17.4638 9.00128 17.4053 9.0321 17.334 9.07331C16.9228 9.31107 16.3798 9.7153 15.52 10.3602ZM12.0257 12.2768C12.1333 12.8501 12.7155 13.2868 13.88 14.1602L14.68 14.7602C16.3394 16.0047 17.1691 16.627 17.8598 16.4564C18.0756 16.403 18.2769 16.3024 18.4491 16.1617C19 15.7116 19 14.6744 19 12.6002L19 11.4002C19 9.32588 19 8.28874 18.4491 7.83861C18.2769 7.69792 18.0756 7.59728 17.8598 7.54395C17.1691 7.37331 16.3394 7.99559 14.68 9.24016L13.88 9.84016C12.7155 10.7135 12.1333 11.1502 12.0257 11.7236C11.9914 11.9064 11.9914 12.094 12.0257 12.2768Z" fill="#222628"/>
</svg>
