<svg width="24" height="24" viewBox="0 0 24 24" fill="none" xmlns="http://www.w3.org/2000/svg">
<path fill-rule="evenodd" clip-rule="evenodd" d="M12.52 10.3599L11.72 10.9599C11.1096 11.4177 10.7527 11.6883 10.522 11.908C10.483 11.9451 10.4533 11.9756 10.431 11.9999C10.4533 12.0242 10.483 12.0547 10.522 12.0918C10.7527 12.3115 11.1096 12.5821 11.72 13.0399L12.52 13.6399C13.3798 14.2848 13.9228 14.689 14.334 14.9268C14.4053 14.968 14.4638 14.9988 14.5109 15.0218C14.5208 14.9703 14.5313 14.905 14.5411 14.8232C14.5976 14.3516 14.6 13.6747 14.6 12.5999L14.6 11.3999C14.6 10.3251 14.5976 9.64819 14.5411 9.17661C14.5313 9.09485 14.5208 9.02954 14.5109 8.97808C14.4638 9.00104 14.4053 9.03185 14.334 9.07307C13.9228 9.31082 13.3798 9.71505 12.52 10.3599ZM9.02572 12.2765C9.1333 12.8499 9.71553 13.2866 10.88 14.1599L11.68 14.7599C13.3394 16.0045 14.1691 16.6268 14.8598 16.4561C15.0756 16.4028 15.2769 16.3022 15.4491 16.1615C16 15.7113 16 14.6742 16 12.5999L16 11.3999C16 9.32564 16 8.2885 15.4491 7.83836C15.2769 7.69768 15.0756 7.59703 14.8598 7.5437C14.1691 7.37307 13.3394 7.99535 11.68 9.23992L10.88 9.83992C9.71553 10.7133 9.1333 11.1499 9.02572 11.7233C8.99143 11.9061 8.99143 12.0937 9.02572 12.2765Z" fill="#222628"/>
<path fill-rule="evenodd" clip-rule="evenodd" d="M9 17.7C8.6134 17.7 8.3 17.3866 8.3 17L8.3 6.99995C8.3 6.61335 8.6134 6.29995 9 6.29995C9.3866 6.29995 9.7 6.61335 9.7 6.99995L9.7 17C9.7 17.3866 9.3866 17.7 9 17.7Z" fill="#222628"/>
</svg>
