<svg width="24" height="24" viewBox="0 0 24 24" fill="none" xmlns="http://www.w3.org/2000/svg">
<path fill-rule="evenodd" clip-rule="evenodd" d="M7.4 12.4623L7.4 8.4C7.4 7.2439 7.40192 6.48927 7.46347 5.92115C7.52219 5.37924 7.62139 5.17541 7.70557 5.05954C7.80426 4.92371 7.92371 4.80426 8.05954 4.70557C8.17541 4.62139 8.37924 4.52219 8.92115 4.46347C9.48927 4.40192 10.2439 4.4 11.4 4.4H11.6C12.7561 4.4 13.5107 4.40192 14.0788 4.46347C14.6208 4.52219 14.8246 4.62139 14.9405 4.70557C15.0763 4.80426 15.1957 4.92371 15.2944 5.05954C15.3786 5.17541 15.4778 5.37924 15.5365 5.92115C15.5981 6.48927 15.6 7.24389 15.6 8.4V12.4623C15.5671 12.4415 15.5338 12.4214 15.5 12.4019C14.8038 12 13.8692 12 12 12H11C9.13077 12 8.19615 12 7.5 12.4019C7.46624 12.4214 7.4329 12.4415 7.4 12.4623ZM6.00001 16.7964C6 16.7319 6 16.6664 6 16.6V8.4C6 6.15016 6 5.02524 6.57295 4.23664C6.75799 3.98196 6.98196 3.75799 7.23664 3.57295C8.02524 3 9.15016 3 11.4 3H11.6C13.8498 3 14.9748 3 15.7634 3.57295C16.018 3.75799 16.242 3.98196 16.4271 4.23664C17 5.02524 17 6.15016 17 8.4V16.6C17 16.6707 17 16.7404 17 16.8089C17 16.8715 17 16.9352 17 17C17 18.8692 17 19.8038 16.5981 20.5C16.5461 20.59 16.4896 20.677 16.429 20.7607C16.4283 20.7616 16.4277 20.7625 16.4271 20.7634C16.242 21.018 16.018 21.242 15.7634 21.4271C15.6789 21.4884 15.591 21.5456 15.5 21.5981C14.8038 22 13.8692 22 12 22H11.6H11.4H11C9.13077 22 8.19615 22 7.5 21.5981C7.40904 21.5456 7.32115 21.4884 7.23665 21.4271C6.98196 21.242 6.75799 21.018 6.57295 20.7634C6.51155 20.6788 6.45444 20.591 6.40192 20.5C6 19.8038 6 18.8692 6 17C6 16.9309 5.99999 16.863 6.00001 16.7964Z" fill="#222628"/>
<path fill-rule="evenodd" clip-rule="evenodd" d="M11 4H12C12.1859 4 12.2788 4 12.3561 3.98463C12.6734 3.9215 12.9215 3.67342 12.9846 3.35607C13 3.27879 13 3.18586 13 3C13 2.81414 13 2.72121 12.9846 2.64393C12.9215 2.32658 12.6734 2.0785 12.3561 2.01537C12.2788 2 12.1859 2 12 2H11C10.8141 2 10.7212 2 10.6439 2.01537C10.3266 2.0785 10.0785 2.32658 10.0154 2.64393C10 2.72121 10 2.81414 10 3C10 3.18586 10 3.27879 10.0154 3.35607C10.0785 3.67342 10.3266 3.9215 10.6439 3.98463C10.7212 4 10.8141 4 11 4Z" fill="#222628"/>
</svg>
