<svg width="24" height="24" viewBox="0 0 24 24" fill="none" xmlns="http://www.w3.org/2000/svg">
<path fill-rule="evenodd" clip-rule="evenodd" d="M5.52641 6.39054C6.6639 4.16024 8.67303 2.30005 12 2.30005C15.3269 2.30005 17.3361 4.16024 18.4736 6.39054C19.5077 8.41818 19.8488 10.7847 19.8945 12.4715C19.8991 12.474 19.9037 12.4765 19.9083 12.479C19.9818 12.519 20.0656 12.5647 20.1707 12.6258C20.4074 12.7635 20.6843 12.9476 20.9331 13.2399C21.4413 13.8371 21.7 14.7235 21.7 16.1613C21.7 17.94 20.4849 19.0906 18.77 19.7609C17.0696 20.4256 14.7153 20.7001 12 20.7001C9.32014 20.7001 6.95909 20.5677 5.25542 19.9758C4.39157 19.6757 3.64285 19.24 3.11063 18.5946C2.56869 17.9375 2.29999 17.122 2.29999 16.1613C2.29999 15.0263 2.58424 14.197 3.02592 13.564C3.35616 13.0907 3.7557 12.7572 4.10464 12.5036C4.14683 10.8148 4.4857 8.43108 5.52641 6.39054ZM6.77357 7.02661C5.79225 8.9507 5.49999 11.2962 5.49999 12.871C5.49999 13.1019 5.38617 13.3179 5.19577 13.4484C4.79612 13.7223 4.44389 13.9784 4.17405 14.3651C3.91573 14.7353 3.69999 15.277 3.69999 16.1613C3.69999 16.8458 3.88468 17.3328 4.19071 17.7039C4.50648 18.0868 5.00035 18.4051 5.71488 18.6533C7.16798 19.1582 9.30693 19.3001 12 19.3001C14.6585 19.3001 16.8043 19.0261 18.2603 18.457C19.702 17.8934 20.3 17.1246 20.3 16.1613C20.3 14.8572 20.0587 14.3726 19.8669 14.1473C19.7656 14.0283 19.6426 13.9382 19.4668 13.836C19.4273 13.813 19.376 13.7848 19.3177 13.7527C19.1659 13.6693 18.9666 13.5597 18.8042 13.4484C18.6138 13.3179 18.5 13.1019 18.5 12.871C18.5 11.2962 18.2077 8.9507 17.2264 7.02661C16.2639 5.1394 14.673 3.70005 12 3.70005C9.32694 3.70005 7.73608 5.1394 6.77357 7.02661Z" fill="#222628"/>
<path fill-rule="evenodd" clip-rule="evenodd" d="M9.67744 19.8238C9.58098 19.4526 9.20312 19.2276 8.8302 19.3209C8.45514 19.4146 8.22711 19.7947 8.32087 20.1697L8.99997 20C8.32087 20.1697 8.32097 20.1701 8.32107 20.1705L8.32129 20.1714L8.32176 20.1732L8.32285 20.1775L8.32571 20.1883C8.32791 20.1964 8.33072 20.2065 8.3342 20.2184C8.34114 20.2422 8.35075 20.2734 8.36345 20.3108C8.38881 20.3855 8.42676 20.4862 8.48081 20.6041C8.5884 20.8389 8.7632 21.1495 9.03567 21.4609C9.59659 22.102 10.5341 22.7 12 22.7C13.4658 22.7 14.4033 22.102 14.9643 21.4609C15.2367 21.1495 15.4115 20.8389 15.5191 20.6041C15.5732 20.4862 15.6111 20.3855 15.6365 20.3108C15.6492 20.2734 15.6588 20.2422 15.6657 20.2184C15.6692 20.2065 15.672 20.1964 15.6742 20.1883L15.6771 20.1775L15.6782 20.1732L15.6787 20.1714L15.6789 20.1705C15.679 20.1701 15.6791 20.1697 15 20L15.6791 20.1697C15.7728 19.7947 15.5448 19.4146 15.1697 19.3209C14.7968 19.2276 14.419 19.4526 14.3225 19.8238C14.3223 19.8244 14.3221 19.8253 14.3217 19.8264C14.3201 19.8319 14.3166 19.8437 14.3107 19.861C14.299 19.8956 14.2783 19.9512 14.2464 20.0208C14.1822 20.1611 14.0757 20.3504 13.9107 20.539C13.5966 20.898 13.0341 21.3 12 21.3C10.9658 21.3 10.4033 20.898 10.0893 20.539C9.92424 20.3504 9.81779 20.1611 9.7535 20.0208C9.72162 19.9512 9.70098 19.8956 9.68922 19.861C9.68337 19.8437 9.6798 19.8319 9.6782 19.8264C9.67786 19.8253 9.67761 19.8244 9.67745 19.8238C9.67744 19.8238 9.67744 19.8238 9.67744 19.8238Z" fill="#222628"/>
<path fill-rule="evenodd" clip-rule="evenodd" d="M12 1.30005C12.3866 1.30005 12.7 1.61345 12.7 2.00005V3.00005C12.7 3.38665 12.3866 3.70005 12 3.70005C11.6134 3.70005 11.3 3.38665 11.3 3.00005V2.00005C11.3 1.61345 11.6134 1.30005 12 1.30005Z" fill="#222628"/>
</svg>
