<svg width="24" height="24" viewBox="0 0 24 24" fill="none" xmlns="http://www.w3.org/2000/svg">
<path fill-rule="evenodd" clip-rule="evenodd" d="M11.8465 2.30006C11.8971 2.30007 11.9482 2.30008 12 2.30008C12.0518 2.30008 12.103 2.30007 12.1535 2.30006C13.8679 2.29982 14.9016 2.29968 15.7614 2.57905C17.4967 3.14289 18.8572 4.50338 19.421 6.23868C19.7004 7.0985 19.7003 8.13214 19.7 9.84656C19.7 9.89714 19.7 9.9483 19.7 10.0001V13.9645C19.7 15.5921 19.7 16.8646 19.6141 17.7956C19.5706 18.267 19.5023 18.6891 19.3851 19.0454C19.2675 19.4031 19.0845 19.7445 18.7786 19.9937C18.2689 20.4087 17.6162 20.6063 16.9619 20.5437C16.5691 20.5061 16.2275 20.3235 15.9313 20.0912C15.6361 19.8597 15.3451 19.5464 15.0474 19.1783C14.4595 18.4513 13.7537 17.3925 12.8508 16.0382L12.8279 16.0039C12.5607 15.6031 12.3903 15.349 12.2475 15.177C12.1467 15.0554 12.0964 15.0217 12.0849 15.0151C12.0295 14.9988 11.9706 14.9988 11.9152 15.0151C11.9036 15.0217 11.8534 15.0554 11.7525 15.177C11.6098 15.349 11.4393 15.6031 11.1721 16.0039L11.1492 16.0382C10.2464 17.3925 9.54049 18.4513 8.9526 19.1783C8.65493 19.5464 8.36391 19.8597 8.06878 20.0912C7.77256 20.3235 7.43089 20.5061 7.03814 20.5437C6.38381 20.6063 5.73115 20.4087 5.22144 19.9937C4.9155 19.7445 4.73249 19.4031 4.61491 19.0454C4.49776 18.6891 4.4294 18.267 4.3859 17.7956C4.3 16.8646 4.30001 15.5921 4.30002 13.9645L4.30002 10.0001C4.30002 9.9483 4.30001 9.89714 4.3 9.84656C4.29976 8.13214 4.29962 7.0985 4.57899 6.23868C5.14283 4.50338 6.50332 3.14289 8.23862 2.57905C9.09844 2.29968 10.1321 2.29982 11.8465 2.30006ZM12.0822 15.0138C12.0822 15.0137 12.0828 15.0139 12.0838 15.0145L12.0822 15.0138ZM12 3.70008C10.0843 3.70008 9.29238 3.70871 8.67124 3.91053C7.36216 4.33588 6.33582 5.36222 5.91047 6.6713C5.70865 7.29244 5.70002 8.08431 5.70002 10.0001V13.9232C5.70002 15.6007 5.70075 16.8083 5.77998 17.667C5.81942 18.0944 5.87544 18.397 5.94488 18.6082C6.01389 18.8181 6.07967 18.8871 6.10544 18.9081C6.32971 19.0907 6.61688 19.1776 6.90479 19.1501C6.93788 19.1469 7.03085 19.126 7.20471 18.9897C7.37965 18.8524 7.59413 18.6317 7.86401 18.298C8.40626 17.6274 9.0767 16.6231 10.0072 15.2273L10.027 15.1976C10.2685 14.8353 10.4796 14.5187 10.675 14.2832C10.8776 14.0389 11.1344 13.791 11.4981 13.6786C11.8251 13.5776 12.175 13.5776 12.502 13.6786C12.8656 13.791 13.1224 14.0389 13.3251 14.2832C13.5204 14.5186 13.7315 14.8353 13.973 15.1976L13.9928 15.2273C14.9233 16.6231 15.5938 17.6274 16.136 18.298C16.4059 18.6317 16.6204 18.8524 16.7953 18.9897C16.9692 19.126 17.0622 19.1469 17.0952 19.1501C17.3831 19.1776 17.6703 19.0907 17.8946 18.9081C17.9204 18.8871 17.9861 18.8181 18.0551 18.6082C18.1246 18.397 18.1806 18.0944 18.22 17.667C18.2993 16.8083 18.3 15.6007 18.3 13.9232V10.0001C18.3 8.08431 18.2914 7.29244 18.0896 6.6713C17.6642 5.36222 16.6379 4.33588 15.3288 3.91053C14.7076 3.70871 13.9158 3.70008 12 3.70008Z" fill="#222628"/>
</svg>
