<svg width="24" height="24" viewBox="0 0 24 24" fill="none" xmlns="http://www.w3.org/2000/svg">
<path fill-rule="evenodd" clip-rule="evenodd" d="M10.9736 3.30005H13.0264C14.4019 3.30005 15.47 3.30004 16.3306 3.35876C17.203 3.41828 17.9132 3.54048 18.564 3.81006C20.2057 4.49007 21.51 5.79438 22.19 7.43607C22.4596 8.08689 22.5818 8.79708 22.6413 9.66946C22.7 10.5301 22.7 11.5982 22.7 12.9738V13.0263C22.7 14.4019 22.7 15.47 22.6413 16.3306C22.5818 17.203 22.4596 17.9132 22.19 18.564C21.51 20.2057 20.2057 21.51 18.564 22.19C17.9132 22.4596 17.203 22.5818 16.3306 22.6413C15.47 22.7001 14.4018 22.7001 13.0263 22.7001H10.9737C9.59816 22.7001 8.53004 22.7001 7.66942 22.6413C6.79704 22.5818 6.08685 22.4596 5.43602 22.19C3.79434 21.51 2.49002 20.2057 1.81001 18.564C1.54043 17.9132 1.41824 17.203 1.35872 16.3306C1.3 15.47 1.3 14.4019 1.3 13.0264V12.9737C1.3 11.5982 1.3 10.5301 1.35872 9.66946C1.41824 8.79708 1.54043 8.08689 1.81001 7.43607C2.49002 5.79438 3.79434 4.49007 5.43602 3.81006C6.08685 3.54048 6.79704 3.41828 7.66942 3.35876C8.53002 3.30004 9.59811 3.30005 10.9736 3.30005ZM7.76472 4.75552C6.96362 4.81017 6.42358 4.91634 5.97178 5.10349C4.67313 5.64141 3.64136 6.67318 3.10344 7.97183C2.9163 8.42363 2.81013 8.96366 2.75547 9.76476C2.70038 10.5722 2.7 11.5926 2.7 13C2.7 14.4075 2.70038 15.4279 2.75547 16.2353C2.81013 17.0364 2.9163 17.5765 3.10344 18.0283C3.64136 19.3269 4.67313 20.3587 5.97178 20.8966C6.42358 21.0838 6.96362 21.1899 7.76472 21.2446C8.57211 21.2997 9.5926 21.3 11 21.3H13C14.4074 21.3 15.4279 21.2997 16.2353 21.2446C17.0364 21.1899 17.5764 21.0838 18.0282 20.8966C19.3269 20.3587 20.3586 19.3269 20.8966 18.0283C21.0837 17.5765 21.1899 17.0364 21.2445 16.2353C21.2996 15.4279 21.3 14.4075 21.3 13C21.3 11.5926 21.2996 10.5722 21.2445 9.76476C21.1899 8.96366 21.0837 8.42363 20.8966 7.97183C20.3586 6.67318 19.3269 5.64141 18.0282 5.10349C17.5764 4.91634 17.0364 4.81017 16.2353 4.75552C15.4279 4.70043 14.4074 4.70005 13 4.70005H11C9.5926 4.70005 8.57211 4.70043 7.76472 4.75552Z" fill="#222628"/>
<path fill-rule="evenodd" clip-rule="evenodd" d="M16.7 2C17.0866 2 17.4 2.3134 17.4 2.7V5.3C17.4 5.6866 17.0866 6 16.7 6C16.3134 6 16 5.6866 16 5.3V2.7C16 2.3134 16.3134 2 16.7 2Z" fill="#222628"/>
<path fill-rule="evenodd" clip-rule="evenodd" d="M7.70001 2C8.08661 2 8.40001 2.3134 8.40001 2.7V5.3C8.40001 5.6866 8.08661 6 7.70001 6C7.31341 6 7.00001 5.6866 7.00001 5.3V2.7C7.00001 2.3134 7.31341 2 7.70001 2Z" fill="#222628"/>
<path d="M12.7 10C12.7 10.3866 12.3866 10.7 12 10.7C11.6134 10.7 11.3 10.3866 11.3 10C11.3 9.61345 11.6134 9.30005 12 9.30005C12.3866 9.30005 12.7 9.61345 12.7 10Z" fill="#222628"/>
<path d="M17.7 10C17.7 10.3866 17.3866 10.7 17 10.7C16.6134 10.7 16.3 10.3866 16.3 10C16.3 9.61345 16.6134 9.30005 17 9.30005C17.3866 9.30005 17.7 9.61345 17.7 10Z" fill="#222628"/>
<path d="M7.7 10C7.7 10.3866 7.3866 10.7 7 10.7C6.6134 10.7 6.3 10.3866 6.3 10C6.3 9.61345 6.6134 9.30005 7 9.30005C7.3866 9.30005 7.7 9.61345 7.7 10Z" fill="#222628"/>
<path d="M12.7 14C12.7 14.3866 12.3866 14.7 12 14.7C11.6134 14.7 11.3 14.3866 11.3 14C11.3 13.6134 11.6134 13.3 12 13.3C12.3866 13.3 12.7 13.6134 12.7 14Z" fill="#222628"/>
<path d="M7.7 14C7.7 14.3866 7.3866 14.7 7 14.7C6.6134 14.7 6.3 14.3866 6.3 14C6.3 13.6134 6.6134 13.3 7 13.3C7.3866 13.3 7.7 13.6134 7.7 14Z" fill="#222628"/>
<path d="M17.7 14C17.7 14.3866 17.3866 14.7 17 14.7C16.6134 14.7 16.3 14.3866 16.3 14C16.3 13.6134 16.6134 13.3 17 13.3C17.3866 13.3 17.7 13.6134 17.7 14Z" fill="#222628"/>
<path d="M17.7 18C17.7 18.3866 17.3866 18.7 17 18.7C16.6134 18.7 16.3 18.3866 16.3 18C16.3 17.6134 16.6134 17.3 17 17.3C17.3866 17.3 17.7 17.6134 17.7 18Z" fill="#222628"/>
<path d="M12.7 18C12.7 18.3866 12.3866 18.7 12 18.7C11.6134 18.7 11.3 18.3866 11.3 18C11.3 17.6134 11.6134 17.3 12 17.3C12.3866 17.3 12.7 17.6134 12.7 18Z" fill="#222628"/>
<path d="M7.7 18C7.7 18.3866 7.3866 18.7 7 18.7C6.6134 18.7 6.3 18.3866 6.3 18C6.3 17.6134 6.6134 17.3 7 17.3C7.3866 17.3 7.7 17.6134 7.7 18Z" fill="#222628"/>
</svg>
