<svg width="24" height="24" viewBox="0 0 24 24" fill="none" xmlns="http://www.w3.org/2000/svg">
<path fill-rule="evenodd" clip-rule="evenodd" d="M5.13365 2.77923C5.45981 2.54513 5.89125 2.30005 6.32889 2.30005C6.56157 2.30005 6.78294 2.37347 6.95546 2.44748C7.14003 2.52666 7.33135 2.63426 7.5199 2.75692C7.8977 3.0027 8.3095 3.33848 8.69939 3.72002C9.45251 4.45698 10.2517 5.49023 10.464 6.50334C10.5542 6.93353 10.4608 7.3717 10.225 7.72582C10.0805 7.94279 9.8954 8.17266 9.7215 8.38612C9.69821 8.4147 9.67501 8.44313 9.65191 8.47143C9.49471 8.66403 9.34221 8.85087 9.20108 9.04031C9.03916 9.25764 8.91072 9.45431 8.82501 9.63023C8.74778 9.78872 8.72205 9.8966 8.71782 9.96339C8.72292 9.97704 8.73895 10.0213 8.78422 10.1016C8.85256 10.2228 8.9516 10.3637 9.06311 10.5062C9.17257 10.646 9.28345 10.7739 9.36782 10.8676C9.40968 10.9141 9.44425 10.9513 9.46785 10.9763L9.49439 11.0043L9.50051 11.0107L9.50138 11.0116C9.77106 11.2885 9.76535 11.7317 9.48848 12.0014C9.21157 12.2712 8.76839 12.2654 8.49861 11.9885L9 11.5C8.49861 11.9885 8.49868 11.9886 8.49861 11.9885L8.49696 11.9868L8.4939 11.9837L8.48372 11.9731L8.44841 11.9359C8.41871 11.9043 8.37711 11.8595 8.32752 11.8045C8.22899 11.6951 8.09581 11.5417 7.96069 11.3691C7.8276 11.1991 7.68151 10.9963 7.56478 10.7893C7.46178 10.6067 7.32276 10.3214 7.31741 10.0122C7.31103 9.64381 7.42755 9.30208 7.56646 9.017C7.70717 8.72821 7.89369 8.45181 8.07841 8.20388C8.23956 7.98758 8.41344 7.77462 8.56901 7.58409C8.5918 7.55618 8.6142 7.52874 8.6361 7.50186C8.81536 7.28183 8.95826 7.10219 9.05975 6.9498C9.09527 6.89645 9.10409 6.83954 9.09383 6.79059C8.96902 6.19522 8.41961 5.40502 7.72023 4.72064C7.38388 4.3915 7.04345 4.11715 6.75647 3.93045C6.61263 3.83688 6.49342 3.77266 6.40349 3.73408C6.36614 3.71805 6.34017 3.7092 6.32445 3.70442C6.32441 3.70443 6.3245 3.7044 6.32445 3.70442C6.29092 3.71632 6.16839 3.75983 5.94999 3.91659C5.69497 4.09963 5.39372 4.37602 5.08921 4.72351C4.47409 5.42545 3.91768 6.33424 3.69471 7.19033C3.24029 8.93502 3.61933 10.3363 4.61484 12.1654C4.69921 12.3205 4.76667 12.4466 4.82334 12.5525C4.93537 12.762 5.00529 12.8928 5.08055 13.0124C5.17233 13.1582 5.267 13.2771 5.49497 13.5051C5.76834 13.7784 5.76834 14.2217 5.49497 14.495C5.22161 14.7684 4.77839 14.7684 4.50503 14.495C4.233 14.223 4.06178 14.022 3.89562 13.758C3.79311 13.5951 3.6885 13.3996 3.55896 13.1575C3.50576 13.0581 3.44836 12.9508 3.38516 12.8347C2.30343 10.8471 1.75971 9.06507 2.33991 6.83746C2.63424 5.70741 3.32783 4.60927 4.03629 3.80082C4.39356 3.39313 4.77249 3.03845 5.13365 2.77923ZM10.505 14.0051C10.7784 13.7317 11.2216 13.7317 11.495 14.0051C11.9605 14.4706 12.5436 14.9417 13.0696 15.2928C13.3326 15.4684 13.5689 15.6056 13.759 15.696C13.8542 15.7413 13.9217 15.7668 13.9648 15.7813C13.9764 15.7709 13.9902 15.7581 14.0061 15.7424C14.0651 15.6842 14.1301 15.6117 14.2191 15.5112L14.2311 15.4977C14.3127 15.4056 14.4104 15.2953 14.5184 15.1839C14.9939 14.6934 15.7089 14.1422 16.8862 14.1422C17.8064 14.1422 18.7464 14.628 19.4886 15.27C20.2423 15.9219 20.8923 16.8191 21.1875 17.7979C21.4383 18.6296 21.0301 19.3378 20.5479 19.827C20.0623 20.3196 19.3826 20.7254 18.7223 21.0387C17.6161 21.5636 16.397 21.758 15.2154 21.7188C13.4994 21.6618 11.4068 21.1477 8.07024 18.5526C7.76508 18.3152 7.7101 17.8755 7.94745 17.5703C8.1848 17.2651 8.62459 17.2102 8.92976 17.4475C12.085 19.9016 13.9007 20.2743 15.2618 20.3195C16.2643 20.3528 17.254 20.1858 18.1221 19.7739C18.7208 19.4898 19.232 19.1677 19.5509 18.8442C19.8732 18.5172 19.883 18.3211 19.8471 18.2022C19.6423 17.5231 19.1653 16.8414 18.5727 16.3288C17.9686 15.8063 17.343 15.5422 16.8862 15.5422C16.2274 15.5422 15.8517 15.8199 15.5236 16.1583C15.438 16.2467 15.3587 16.3361 15.2728 16.4331L15.2669 16.4397C15.1839 16.5334 15.0871 16.6426 14.9887 16.7396C14.8107 16.915 14.485 17.2 14.0173 17.2C13.7153 17.2 13.4005 17.0757 13.1579 16.9604C12.8879 16.832 12.5911 16.6567 12.2923 16.4572C11.6948 16.0584 11.0395 15.5295 10.505 14.995C10.2317 14.7217 10.2317 14.2784 10.505 14.0051Z" fill="#222628"/>
<path fill-rule="evenodd" clip-rule="evenodd" d="M19.4788 6.51081C19.7432 6.79285 19.7289 7.23583 19.4468 7.50024L4.4682 21.5427C4.18616 21.8071 3.74317 21.7928 3.47876 21.5108C3.21435 21.2288 3.22864 20.7858 3.51068 20.5214L18.4893 6.47889C18.7714 6.21448 19.2143 6.22877 19.4788 6.51081Z" fill="#222628"/>
</svg>
