<svg width="24" height="24" viewBox="0 0 24 24" fill="none" xmlns="http://www.w3.org/2000/svg">
<path fill-rule="evenodd" clip-rule="evenodd" d="M5.16126 2.61567C5.54611 2.42987 5.9585 2.30005 6.31157 2.30005C6.54425 2.30005 6.76562 2.37347 6.93814 2.44748C7.12271 2.52666 7.31403 2.63426 7.50258 2.75692C7.88038 3.0027 8.29218 3.33848 8.68207 3.72002C9.43519 4.45698 10.2343 5.49023 10.4467 6.50334C10.5369 6.93361 10.4433 7.37083 10.2096 7.7243C10.0662 7.94115 9.88278 8.17098 9.70988 8.38489C9.68502 8.41566 9.66024 8.44626 9.63557 8.47671C9.48114 8.66738 9.33113 8.8526 9.1917 9.04052C9.03005 9.25838 8.90073 9.45624 8.81336 9.63382C8.72406 9.81532 8.69998 9.93313 8.69998 10C8.69998 10.3143 8.89165 10.9357 9.31723 11.7099C9.72679 12.4549 10.2981 13.2418 10.9346 13.8704C11.6056 14.5331 12.1995 15.0254 12.7264 15.3488C13.218 15.6505 13.6117 15.7809 13.928 15.7981C13.9428 15.7857 13.9629 15.7678 13.9887 15.7424C14.0478 15.6842 14.1127 15.6117 14.2018 15.5112L14.2137 15.4977C14.2954 15.4056 14.3931 15.2953 14.5011 15.1839C14.9765 14.6934 15.6916 14.1422 16.8689 14.1422C17.7891 14.1422 18.729 14.628 19.4713 15.27C20.225 15.9219 20.875 16.8191 21.1702 17.7979C21.421 18.6296 21.0128 19.3378 20.5306 19.827C20.045 20.3196 19.3653 20.7254 18.705 21.0387C17.5936 21.5661 16.3585 21.751 15.1563 21.6354C13.0179 21.4296 10.0389 20.5801 6.51857 17.2451C6.50702 17.2341 6.49584 17.2228 6.48506 17.2111C4.48675 15.041 3.40024 13.205 2.8364 11.5259C2.27161 9.84393 2.25016 8.37239 2.30045 6.98848C2.35766 5.41411 3.08835 4.24419 3.91147 3.47812C4.32101 3.09696 4.75882 2.80996 5.16126 2.61567ZM4.86527 4.50294C4.26011 5.06616 3.74081 5.90316 3.69952 7.03932C3.65132 8.36594 3.67911 9.63747 4.16357 11.0802C4.6476 12.5216 5.60625 14.1864 7.49874 16.2451C10.7798 19.3471 13.4591 20.0656 15.2904 20.2418C16.2635 20.3354 17.2419 20.1834 18.1048 19.7739C18.7035 19.4898 19.2147 19.1677 19.5336 18.8442C19.8558 18.5172 19.8657 18.3211 19.8298 18.2022C19.625 17.5231 19.148 16.8414 18.5554 16.3288C17.9513 15.8063 17.3257 15.5422 16.8689 15.5422C16.2101 15.5422 15.8344 15.8199 15.5063 16.1583C15.4206 16.2467 15.3414 16.3361 15.2555 16.4331L15.2496 16.4397C15.1666 16.5334 15.0698 16.6426 14.9714 16.7396C14.7934 16.915 14.4677 17.2 14 17.2C13.3184 17.2 12.6457 16.942 11.9941 16.542C11.3398 16.1404 10.6599 15.5669 9.95079 14.8665C9.20723 14.1321 8.55717 13.2334 8.09039 12.3843C7.63964 11.5643 7.29998 10.683 7.29998 10C7.29998 9.6364 7.41801 9.29861 7.55716 9.01578C7.69824 8.72904 7.8837 8.45386 8.06738 8.2063C8.22603 7.99249 8.39685 7.78165 8.5501 7.59251C8.57422 7.56274 8.59792 7.53349 8.62106 7.50486C8.79881 7.28493 8.94081 7.10485 9.04183 6.95209C9.07812 6.89721 9.08675 6.83946 9.07651 6.79059C8.9517 6.19522 8.40229 5.40502 7.70291 4.72064C7.36656 4.3915 7.02613 4.11715 6.73915 3.93045C6.59531 3.83688 6.4761 3.77266 6.38617 3.73408C6.33622 3.71265 6.30664 3.70405 6.29469 3.70085C6.22466 3.70664 6.04092 3.7456 5.76994 3.87642C5.49077 4.01121 5.16987 4.21945 4.86527 4.50294Z" fill="#222628"/>
</svg>
