<svg width="24" height="24" viewBox="0 0 24 24" fill="none" xmlns="http://www.w3.org/2000/svg">
<path fill-rule="evenodd" clip-rule="evenodd" d="M5.16126 2.61542C5.54611 2.42962 5.9585 2.2998 6.31157 2.2998C6.54425 2.2998 6.76562 2.37322 6.93814 2.44724C7.12271 2.52642 7.31403 2.63402 7.50258 2.75668C7.88038 3.00245 8.29218 3.33824 8.68207 3.71977C9.43519 4.45673 10.2343 5.48998 10.4467 6.5031C10.5369 6.93336 10.4433 7.37059 10.2096 7.72405C10.0662 7.94091 9.88278 8.17073 9.70988 8.38465C9.68502 8.41542 9.66024 8.44601 9.63557 8.47647C9.48114 8.66714 9.33113 8.85236 9.1917 9.04028C9.03005 9.25814 8.90073 9.456 8.81336 9.63358C8.72406 9.81507 8.69998 9.93289 8.69998 9.9998C8.69998 10.3141 8.89165 10.9354 9.31723 11.7096C9.72679 12.4546 10.2981 13.2415 10.9346 13.8702C11.6056 14.5329 12.1995 15.0252 12.7264 15.3486C13.218 15.6503 13.6117 15.7807 13.928 15.7978C13.9428 15.7855 13.9629 15.7676 13.9887 15.7421C14.0478 15.684 14.1127 15.6115 14.2018 15.511L14.2137 15.4975C14.2954 15.4053 14.3931 15.295 14.5011 15.1836C14.9765 14.6932 15.6916 14.1419 16.8689 14.1419C17.7891 14.1419 18.729 14.6277 19.4713 15.2697C20.225 15.9217 20.875 16.8188 21.1702 17.7977C21.421 18.6294 21.0128 19.3376 20.5306 19.8268C20.045 20.3194 19.3653 20.7251 18.705 21.0385C17.5936 21.5659 16.3585 21.7508 15.1563 21.6351C13.0179 21.4294 10.0389 20.5799 6.51857 17.2448C6.50702 17.2339 6.49584 17.2225 6.48506 17.2108C4.48675 15.0408 3.40024 13.2047 2.8364 11.5256C2.27161 9.84369 2.25016 8.37214 2.30045 6.98824C2.35766 5.41387 3.08835 4.24394 3.91147 3.47787C4.32101 3.09672 4.75882 2.80972 5.16126 2.61542ZM4.86527 4.50269C4.26011 5.06591 3.74081 5.90292 3.69952 7.03907C3.65132 8.36569 3.67911 9.63722 4.16357 11.08C4.6476 12.5214 5.60625 14.1862 7.49874 16.2449C10.7798 19.3469 13.4591 20.0654 15.2904 20.2415C16.2635 20.3352 17.2419 20.1831 18.1048 19.7736C18.7035 19.4895 19.2147 19.1675 19.5336 18.8439C19.8558 18.517 19.8657 18.3208 19.8298 18.2019C19.625 17.5229 19.148 16.8411 18.5554 16.3286C17.9513 15.8061 17.3257 15.5419 16.8689 15.5419C16.2101 15.5419 15.8344 15.8196 15.5063 16.1581C15.4206 16.2464 15.3414 16.3359 15.2555 16.4328L15.2496 16.4395C15.1666 16.5331 15.0698 16.6424 14.9714 16.7394C14.7934 16.9148 14.4677 17.1998 14 17.1998C13.3184 17.1998 12.6457 16.9417 11.9941 16.5417C11.3398 16.1401 10.6599 15.5666 9.95079 14.8663C9.20723 14.1319 8.55717 13.2332 8.09039 12.384C7.63964 11.5641 7.29998 10.6828 7.29998 9.9998C7.29998 9.63616 7.41801 9.29836 7.55716 9.01553C7.69824 8.72879 7.8837 8.45362 8.06738 8.20606C8.22603 7.99224 8.39685 7.7814 8.5501 7.59227C8.57422 7.56249 8.59792 7.53325 8.62106 7.50462C8.79881 7.28469 8.94081 7.10461 9.04183 6.95185C9.07812 6.89696 9.08675 6.83922 9.07651 6.79034C8.9517 6.19498 8.40229 5.40477 7.70291 4.72039C7.36656 4.39126 7.02613 4.1169 6.73915 3.93021C6.59531 3.83663 6.4761 3.77241 6.38617 3.73383C6.33622 3.7124 6.30664 3.7038 6.29469 3.70061C6.22466 3.70639 6.04092 3.74536 5.76994 3.87618C5.49077 4.01096 5.16987 4.2192 4.86527 4.50269Z" fill="#222628"/>
<path fill-rule="evenodd" clip-rule="evenodd" d="M14.0947 6.69857C14.1004 6.69796 14.1114 6.69701 14.1288 6.69577C14.1637 6.69327 14.2207 6.69044 14.2961 6.69086C14.4473 6.69169 14.6692 6.70557 14.9333 6.75979C15.4584 6.86757 16.1489 7.13383 16.7964 7.78132C17.4439 8.42882 17.7102 9.11935 17.8179 9.6444C17.8722 9.90852 17.886 10.1304 17.8869 10.2817C17.8873 10.357 17.8845 10.414 17.882 10.4489C17.8807 10.4664 17.8796 10.4782 17.879 10.484C17.879 10.4836 17.8792 10.4824 18.5727 10.5777L17.8792 10.4824C17.879 10.4841 17.8788 10.4857 17.8786 10.4873C17.8786 10.4873 17.8786 10.4873 17.8786 10.4873C17.8289 10.8684 18.096 11.2188 18.4774 11.2712C18.8604 11.3239 19.2136 11.0561 19.2662 10.6731L18.5969 10.5811C19.2662 10.673 19.2662 10.6734 19.2662 10.6731L19.2666 10.6701L19.2671 10.6665L19.2682 10.6573L19.2712 10.6311C19.2734 10.6102 19.276 10.5826 19.2784 10.5487C19.2832 10.481 19.2875 10.3881 19.2868 10.2739C19.2856 10.0462 19.2649 9.73106 19.1893 9.36287C19.0375 8.62329 18.6631 7.66812 17.7864 6.79137C16.9096 5.91463 15.9544 5.54021 15.2149 5.38839C14.8467 5.3128 14.5315 5.29214 14.3038 5.29088C14.1897 5.29025 14.0967 5.29449 14.029 5.29933C13.9952 5.30175 13.9675 5.30432 13.9467 5.30653L13.9204 5.3095L13.9112 5.31065L13.9076 5.31113L13.9061 5.31134C13.9057 5.31138 13.9047 5.31153 14 6.00501L13.9047 5.31153C13.5217 5.36417 13.2539 5.71733 13.3065 6.10033C13.3589 6.48168 13.7093 6.74883 14.0904 6.69914" fill="#222628"/>
<path fill-rule="evenodd" clip-rule="evenodd" d="M14.0383 2.70387C13.6538 2.72498 13.3241 2.43129 13.3012 2.04645C13.2783 1.66053 13.5725 1.32909 13.9585 1.30615L14 2.00492C13.9585 1.30615 13.9581 1.30617 13.9585 1.30615L13.9599 1.30606L13.9617 1.30596L13.966 1.30573L13.9777 1.30518C13.9869 1.30478 13.9988 1.30433 14.0134 1.30393C14.0426 1.30314 14.0824 1.30254 14.1321 1.30289C14.2314 1.3036 14.3705 1.30814 14.5434 1.32265C14.8887 1.35164 15.3705 1.42059 15.9393 1.57933C17.0799 1.89763 18.5661 2.57602 19.995 4.00493C21.4239 5.43387 22.1013 6.9191 22.4186 8.05891C22.5768 8.62734 22.6452 9.10869 22.6737 9.45376C22.688 9.62642 22.6923 9.76542 22.6929 9.8647C22.6932 9.91436 22.6925 9.95415 22.6917 9.98331C22.6913 9.99789 22.6908 10.0098 22.6904 10.019L22.6898 10.0307L22.6896 10.035L22.6895 10.0368C22.6895 10.0371 22.6894 10.0383 21.9907 9.99563L22.6894 10.0383C22.6658 10.4242 22.3339 10.7179 21.9481 10.6943C21.5633 10.6708 21.2701 10.3407 21.2918 9.95626L21.2923 9.94303C21.2927 9.9294 21.2931 9.90574 21.2929 9.87276C21.2926 9.80675 21.2896 9.70368 21.2785 9.5692C21.2562 9.30002 21.2013 8.90685 21.0698 8.4343C20.8076 7.49214 20.2397 6.22951 19.005 4.99488C17.7704 3.76021 16.5065 3.19112 15.563 2.92781C15.0898 2.79575 14.696 2.74038 14.4263 2.71774C14.2915 2.70643 14.1882 2.70333 14.1221 2.70286C14.089 2.70262 14.0653 2.70304 14.0516 2.70341L14.0383 2.70387ZM14.0383 2.70387C14.0383 2.70387 14.0383 2.70387 14.0383 2.70387V2.70387Z" fill="#222628"/>
</svg>
