<svg width="24" height="24" viewBox="0 0 24 24" fill="none" xmlns="http://www.w3.org/2000/svg">
<path fill-rule="evenodd" clip-rule="evenodd" d="M11.5924 3.30005C11.6089 3.30006 11.6256 3.30006 11.6426 3.30006H12.3574C12.3743 3.30006 12.3911 3.30006 12.4076 3.30005C12.8113 3.29999 13.0854 3.29995 13.3533 3.33925C13.9175 3.42202 14.455 3.6341 14.9237 3.95891C15.1462 4.11313 15.3464 4.30031 15.6413 4.57606L15.98 4.89269C16.1703 5.07057 16.4211 5.16952 16.6816 5.16952C19.4532 5.16952 21.7 7.41633 21.7 10.1879V14.0299C21.7 15.171 21.7 16.0721 21.6383 16.7966C21.5753 17.5367 21.4441 18.1567 21.1439 18.7176C20.7061 19.5359 20.0358 20.2062 19.2176 20.644C18.6566 20.9442 18.0366 21.0754 17.2965 21.1384C16.572 21.2001 15.6709 21.2001 14.5299 21.2001H9.47012C8.32903 21.2001 7.42798 21.2001 6.70345 21.1384C5.96338 21.0754 5.34335 20.9442 4.78242 20.644C3.96419 20.2062 3.29389 19.5359 2.85603 18.7176C2.55586 18.1567 2.42467 17.5367 2.36166 16.7966C2.29998 16.0721 2.29998 15.171 2.29999 14.0299L2.29999 10.1879C2.29999 7.41633 4.5468 5.16952 7.31838 5.16952C7.57887 5.16952 7.82963 5.07057 8.01993 4.89269L8.32198 4.61035C8.33438 4.59877 8.3466 4.58734 8.35867 4.57605C8.65358 4.30031 8.85376 4.11313 9.0763 3.95891C9.54502 3.6341 10.0825 3.42202 10.6467 3.33925C10.9146 3.29995 11.1886 3.29999 11.5924 3.30005ZM11.6426 4.70006C11.1705 4.70006 11.0042 4.70178 10.8499 4.72442C10.4992 4.77588 10.1651 4.90771 9.87372 5.10962C9.74553 5.19845 9.62289 5.31074 9.27799 5.63312L8.97594 5.91546C8.52632 6.33573 7.93384 6.56952 7.31838 6.56952C5.32 6.56952 3.69999 8.18953 3.69999 10.1879V13.9976C3.69999 15.1781 3.70058 16.0196 3.75662 16.6778C3.81192 17.3273 3.91735 17.7337 4.0904 18.0571C4.39784 18.6316 4.86847 19.1022 5.44297 19.4096C5.76635 19.5827 6.17273 19.6881 6.82222 19.7434C7.48041 19.7995 8.32191 19.8001 9.50245 19.8001H14.4975C15.6781 19.8001 16.5196 19.7995 17.1778 19.7434C17.8272 19.6881 18.2336 19.5827 18.557 19.4096C19.1315 19.1022 19.6021 18.6316 19.9096 18.0571C20.0826 17.7337 20.1881 17.3273 20.2434 16.6778C20.2994 16.0196 20.3 15.1781 20.3 13.9976V10.1879C20.3 8.18953 18.68 6.56952 16.6816 6.56952C16.0661 6.56952 15.4737 6.33573 15.024 5.91546L14.722 5.63312C14.3771 5.31074 14.2544 5.19845 14.1263 5.10962C13.8349 4.90771 13.5008 4.77588 13.1501 4.72442C12.9958 4.70178 12.8295 4.70006 12.3574 4.70006H11.6426Z" fill="#222628"/>
<path fill-rule="evenodd" clip-rule="evenodd" d="M12 11.7C10.7297 11.7 9.69999 12.7298 9.69999 14C9.69999 15.2703 10.7297 16.3 12 16.3C13.2702 16.3 14.3 15.2703 14.3 14C14.3 12.7298 13.2702 11.7 12 11.7ZM8.29999 14C8.29999 11.9566 9.95653 10.3 12 10.3C14.0434 10.3 15.7 11.9566 15.7 14C15.7 16.0435 14.0434 17.7 12 17.7C9.95653 17.7 8.29999 16.0435 8.29999 14Z" fill="#222628"/>
<path fill-rule="evenodd" clip-rule="evenodd" d="M15.3 9.00005C15.3 8.61345 15.6134 8.30005 16 8.30005H17C17.3866 8.30005 17.7 8.61345 17.7 9.00005C17.7 9.38665 17.3866 9.70005 17 9.70005H16C15.6134 9.70005 15.3 9.38665 15.3 9.00005Z" fill="#222628"/>
</svg>
