<svg width="24" height="24" viewBox="0 0 24 24" fill="none" xmlns="http://www.w3.org/2000/svg">
<path fill-rule="evenodd" clip-rule="evenodd" d="M9.15823 3.30005H14.8417C16.3062 3.30004 17.4625 3.30003 18.3816 3.39961C19.3225 3.50156 20.0976 3.71456 20.7626 4.19767C21.1616 4.48756 21.5125 4.83845 21.8024 5.23746C22.2855 5.90241 22.4985 6.67752 22.6004 7.61846C22.7 8.53759 22.7 9.69382 22.7 11.1583V12.8418C22.7 14.3063 22.7 15.4625 22.6004 16.3816C22.4985 17.3226 22.2855 18.0977 21.8024 18.7626C21.5125 19.1616 21.1616 19.5125 20.7626 19.8024C20.0976 20.2855 19.3225 20.4985 18.3816 20.6005C17.4624 20.7001 16.3062 20.7001 14.8417 20.7001H9.15829C7.69376 20.7001 6.53753 20.7001 5.6184 20.6005C4.67746 20.4985 3.90234 20.2855 3.2374 19.8024C2.83839 19.5125 2.4875 19.1616 2.19761 18.7626C1.7145 18.0977 1.5015 17.3226 1.39955 16.3816C1.29997 15.4625 1.29998 14.3063 1.29999 12.8418V11.1583C1.29998 9.69379 1.29997 8.53758 1.39955 7.61846C1.5015 6.67752 1.7145 5.90241 2.19761 5.23746C2.4875 4.83845 2.83839 4.48756 3.2374 4.19767C3.90234 3.71456 4.67746 3.50156 5.6184 3.39961C6.53751 3.30003 7.69373 3.30004 9.15823 3.30005ZM5.7692 4.79147C4.94737 4.88051 4.44681 5.04947 4.0603 5.33029C3.78014 5.53384 3.53377 5.78021 3.33023 6.06036C3.04941 6.44687 2.88045 6.94744 2.79141 7.76926C2.70095 8.60418 2.69999 9.68456 2.69999 11.2V12.8C2.69999 14.3155 2.70095 15.3959 2.79141 16.2308C2.88045 17.0527 3.04941 17.5532 3.33023 17.9397C3.53377 18.2199 3.78014 18.4663 4.0603 18.6698C4.44681 18.9506 4.94737 19.1196 5.7692 19.2086C6.60412 19.2991 7.6845 19.3 9.19999 19.3H14.8C16.3155 19.3 17.3959 19.2991 18.2308 19.2086C19.0526 19.1196 19.5532 18.9506 19.9397 18.6698C20.2198 18.4663 20.4662 18.2199 20.6697 17.9397C20.9506 17.5532 21.1195 17.0527 21.2086 16.2308C21.299 15.3959 21.3 14.3155 21.3 12.8V11.2C21.3 9.68456 21.299 8.60418 21.2086 7.76926C21.1195 6.94744 20.9506 6.44687 20.6697 6.06036C20.4662 5.78021 20.2198 5.53384 19.9397 5.33029C19.5532 5.04947 19.0526 4.88051 18.2308 4.79147C17.3959 4.70101 16.3155 4.70005 14.8 4.70005H9.19999C7.6845 4.70005 6.60412 4.70101 5.7692 4.79147Z" fill="#222628"/>
<path fill-rule="evenodd" clip-rule="evenodd" d="M22 9.70015C22 10.0867 21.6866 10.4001 21.3 10.4001L2.7 10.4001C2.3134 10.4001 2 10.0867 2 9.70015C2 9.31355 2.3134 9.00015 2.7 9.00015L21.3 9.00015C21.6866 9.00015 22 9.31355 22 9.70015Z" fill="#222628"/>
<path fill-rule="evenodd" clip-rule="evenodd" d="M20 16.7001C20 17.0867 19.6866 17.4001 19.3 17.4001H16.7C16.3134 17.4001 16 17.0867 16 16.7001C16 16.3135 16.3134 16.0001 16.7 16.0001H19.3C19.6866 16.0001 20 16.3135 20 16.7001Z" fill="#222628"/>
</svg>
