<svg width="24" height="24" viewBox="0 0 24 24" fill="none" xmlns="http://www.w3.org/2000/svg">
<path fill-rule="evenodd" clip-rule="evenodd" d="M20.7 16C20.7 19.148 18.148 21.7 15 21.7L8.99998 21.6999C5.85196 21.6999 3.29998 19.148 3.29998 15.9999L3.29998 10.975L3.33739 10.4514C3.6252 6.4219 6.9781 3.29995 11.0178 3.29995L12.9821 3.29995C17.0219 3.29996 20.3748 6.4219 20.6626 10.4514L20.7 10.975L20.7 16ZM15 20.3C17.3748 20.3 19.3 18.3748 19.3 16L19.3 11.0249L19.2661 10.5511C19.0307 7.25427 16.2874 4.69996 12.9821 4.69996L11.0178 4.69996C7.71259 4.69996 4.96931 7.25427 4.73383 10.5511L4.69998 11.0249L4.69998 15.9999C4.69998 18.3748 6.62516 20.2999 8.99998 20.2999L15 20.3Z" fill="#222628"/>
<path fill-rule="evenodd" clip-rule="evenodd" d="M14.6334 9.99949C14.6337 9.61319 14.947 9.30015 15.3334 9.30016C15.72 9.30016 16.0334 9.61357 16.0334 10.0002L15.3334 10.0002C16.0334 10.0002 16.0334 10.0005 16.0334 10.0009L16.0334 10.0017L16.0333 10.0036L16.0333 10.0082L16.0332 10.021C16.033 10.0312 16.0327 10.0445 16.0321 10.0607C16.031 10.0932 16.029 10.1375 16.025 10.1921C16.0171 10.3009 16.0017 10.4517 15.9715 10.6308C15.9116 10.9858 15.7904 11.4695 15.5411 11.9616C15.2904 12.4567 14.9037 12.9716 14.3119 13.3611C13.7161 13.7532 12.954 13.9905 12 13.9905C11.046 13.9905 10.2839 13.7532 9.68813 13.3611C9.09629 12.9716 8.70964 12.4567 8.45889 11.9616C8.20962 11.4695 8.08846 10.9858 8.02852 10.6308C7.99828 10.4517 7.98288 10.3009 7.975 10.1921C7.97106 10.1375 7.96898 10.0932 7.96788 10.0607C7.96733 10.0445 7.96703 10.0312 7.96686 10.021L7.9667 10.0082L7.96667 10.0036L7.96667 10.0017L7.96667 10.0009C7.96667 10.0005 7.96667 10.0002 8.66667 10.0002L7.96667 10.0002C7.96666 9.61356 8.28006 9.30016 8.66666 9.30016C9.05227 9.30015 9.36506 9.61195 9.36666 9.99718C9.36666 9.99772 9.36666 9.99826 9.36667 9.9988C9.36667 9.99886 9.36667 9.99893 9.36667 9.99899C9.36667 9.99916 9.36667 9.99933 9.36667 9.9995C9.36667 9.9995 9.36667 9.9995 9.36667 9.99949L9.36667 9.99899L9.36667 9.99891L9.36667 9.9988L9.36666 9.99796L9.36666 9.99691C9.36666 9.9967 9.36666 9.9968 9.36666 9.99718C9.36666 9.9974 9.36667 9.99773 9.36668 9.99815L9.36708 10.0135C9.36761 10.0292 9.36879 10.0556 9.37135 10.091C9.3765 10.1621 9.38714 10.2684 9.40898 10.3977C9.45322 10.6597 9.5404 10.9985 9.7078 11.329C9.87372 11.6566 10.1121 11.9641 10.4577 12.1916C10.7995 12.4165 11.2873 12.5905 12 12.5905C12.7127 12.5905 13.2005 12.4165 13.5423 12.1916C13.8879 11.9641 14.1263 11.6566 14.2922 11.329C14.4596 10.9985 14.5468 10.6597 14.591 10.3977C14.6129 10.2684 14.6235 10.1621 14.6287 10.091C14.6312 10.0556 14.6324 10.0292 14.6329 10.0135L14.6333 9.99815L14.6334 9.99891L14.6334 9.99949ZM14.6333 9.99815L14.6334 9.99795L14.6334 9.9969L14.6334 9.99681C14.6334 9.99688 14.6334 9.99733 14.6333 9.99815Z" fill="#222628"/>
</svg>
