<svg width="24" height="24" viewBox="0 0 24 24" fill="none" xmlns="http://www.w3.org/2000/svg">
<path fill-rule="evenodd" clip-rule="evenodd" d="M18.1542 6.7676C17.5397 6.70101 16.7405 6.70005 15.6 6.70005H6.29346L6.98288 12.1861C7.10979 13.1959 7.19922 13.9008 7.32398 14.4405C7.44571 14.9672 7.58663 15.2658 7.77473 15.4876C7.91836 15.657 8.08576 15.8046 8.27172 15.926C8.51526 16.085 8.82908 16.1876 9.36683 16.2427C9.91794 16.2992 10.6284 16.3 11.6462 16.3H15.6C16.7405 16.3 17.5397 16.2991 18.1542 16.2325C18.7557 16.1673 19.0968 16.0461 19.3519 15.8608C19.5471 15.7189 19.7189 15.5472 19.8607 15.352C20.0461 15.0969 20.1673 14.7558 20.2324 14.1543C20.299 13.5397 20.3 12.7406 20.3 11.6V11.4C20.3 10.2595 20.299 9.46038 20.2324 8.8458C20.1673 8.24433 20.0461 7.90323 19.8607 7.64814C19.7189 7.45289 19.5471 7.28117 19.3519 7.13931C19.0968 6.95398 18.7557 6.83276 18.1542 6.7676ZM18.305 5.37574C19.0256 5.45381 19.6413 5.61907 20.1748 6.00669C20.4889 6.2349 20.7651 6.51113 20.9933 6.82524C21.381 7.35876 21.5462 7.97441 21.6243 8.69501C21.7 9.39384 21.7 10.269 21.7 11.3594V11.6407C21.7 12.7311 21.7 13.6063 21.6243 14.3051C21.5462 15.0257 21.381 15.6413 20.9933 16.1749C20.7651 16.489 20.4889 16.7652 20.1748 16.9934C19.6413 17.381 19.0256 17.5463 18.305 17.6244C17.6062 17.7001 16.7311 17.7001 15.6407 17.7H11.6084C10.6372 17.7001 9.85493 17.7001 9.2241 17.6354C8.57176 17.5686 8.01028 17.4272 7.50646 17.0984C7.20731 16.9031 6.93801 16.6655 6.70696 16.3931C6.31783 15.9342 6.10761 15.3947 5.95994 14.7558C5.81714 14.1379 5.7196 13.3617 5.59851 12.3981L4.70651 5.30005L15.6407 5.30005C16.7311 5.30004 17.6062 5.30003 18.305 5.37574Z" fill="#222628"/>
<path fill-rule="evenodd" clip-rule="evenodd" d="M1.29999 4.00005C1.29999 3.61345 1.61339 3.30005 1.99999 3.30005H3.9338C4.53094 3.30005 5.08431 3.61336 5.39154 4.12541L6.60023 6.1399L5.39974 6.8602L4.19105 4.8457C4.13683 4.75534 4.03918 4.70005 3.9338 4.70005H1.99999C1.61339 4.70005 1.29999 4.38665 1.29999 4.00005Z" fill="#222628"/>
<path d="M18.5 19.5C18.5 20.0523 18.0523 20.5 17.5 20.5C16.9477 20.5 16.5 20.0523 16.5 19.5C16.5 18.9477 16.9477 18.5 17.5 18.5C18.0523 18.5 18.5 18.9477 18.5 19.5Z" fill="#222628"/>
<path d="M11.5 19.5C11.5 20.0523 11.0523 20.5 10.5 20.5C9.94772 20.5 9.5 20.0523 9.5 19.5C9.5 18.9477 9.94772 18.5 10.5 18.5C11.0523 18.5 11.5 18.9477 11.5 19.5Z" fill="#222628"/>
<path fill-rule="evenodd" clip-rule="evenodd" d="M18 10.7001C18 11.0867 17.6866 11.4001 17.3 11.4001H14.7C14.3134 11.4001 14 11.0867 14 10.7001C14 10.3135 14.3134 10.0001 14.7 10.0001H17.3C17.6866 10.0001 18 10.3135 18 10.7001Z" fill="#222628"/>
</svg>
