<svg width="24" height="24" viewBox="0 0 24 24" fill="none" xmlns="http://www.w3.org/2000/svg">
<path fill-rule="evenodd" clip-rule="evenodd" d="M11.9645 1.30005H12.0355C13.8747 1.30004 15.3027 1.30004 16.443 1.40339C17.6002 1.50827 18.5296 1.72399 19.35 2.19768C20.3685 2.78573 21.2143 3.63152 21.8024 4.65005C22.2761 5.4705 22.4918 6.39985 22.5967 7.55705C22.7 8.69733 22.7 10.1254 22.7 11.9647V12.0354C22.7 13.8747 22.7 15.3028 22.5967 16.443C22.4918 17.6002 22.2761 18.5296 21.8024 19.35C21.2143 20.3686 20.3685 21.2144 19.35 21.8024C18.5296 22.2761 17.6002 22.4918 16.443 22.5967C15.3027 22.7001 13.8747 22.7001 12.0354 22.7001H11.9646C10.1253 22.7001 8.69728 22.7001 7.55701 22.5967C6.3998 22.4918 5.47045 22.2761 4.65 21.8024C3.63147 21.2144 2.78568 20.3686 2.19763 19.35C1.72394 18.5296 1.50822 17.6002 1.40334 16.443C1.29999 15.3028 1.3 13.8747 1.3 12.0355V11.9646C1.3 10.1254 1.29999 8.69732 1.40334 7.55705C1.50822 6.39985 1.72394 5.4705 2.19763 4.65005C2.78568 3.63152 3.63147 2.78573 4.65 2.19768C5.47045 1.72399 6.3998 1.50827 7.55701 1.40339C8.69727 1.30004 10.1253 1.30004 11.9645 1.30005ZM7.68337 2.79767C6.62327 2.89375 5.92185 3.07995 5.35 3.41011C4.5443 3.87529 3.87524 4.54435 3.41006 5.35005C3.0799 5.9219 2.8937 6.62332 2.79762 7.68342C2.70067 8.75315 2.7 10.1179 2.7 12C2.7 13.8822 2.70067 15.2469 2.79762 16.3167C2.8937 17.3768 3.0799 18.0782 3.41006 18.65C3.87524 19.4558 4.5443 20.1248 5.35 20.59C5.92185 20.9201 6.62327 21.1063 7.68337 21.2024C8.7531 21.2994 10.1179 21.3 12 21.3C13.8821 21.3 15.2469 21.2994 16.3166 21.2024C17.3767 21.1063 18.0781 20.9201 18.65 20.59C19.4557 20.1248 20.1248 19.4558 20.5899 18.65C20.9201 18.0782 21.1063 17.3768 21.2024 16.3167C21.2993 15.2469 21.3 13.8822 21.3 12C21.3 10.1179 21.2993 8.75315 21.2024 7.68342C21.1063 6.62332 20.9201 5.9219 20.5899 5.35005C20.1248 4.54435 19.4557 3.87529 18.65 3.41011C18.0781 3.07995 17.3767 2.89375 16.3166 2.79767C15.2469 2.70072 13.8821 2.70005 12 2.70005C10.1179 2.70005 8.7531 2.70072 7.68337 2.79767Z" fill="#222628"/>
<path fill-rule="evenodd" clip-rule="evenodd" d="M8 16.7C7.6134 16.7 7.3 16.3866 7.3 16V13C7.3 12.6134 7.6134 12.3 8 12.3C8.3866 12.3 8.7 12.6134 8.7 13V16C8.7 16.3866 8.3866 16.7 8 16.7Z" fill="#222628"/>
<path fill-rule="evenodd" clip-rule="evenodd" d="M12 16.7C11.6134 16.7 11.3 16.3866 11.3 16V6.99995C11.3 6.61335 11.6134 6.29995 12 6.29995C12.3866 6.29995 12.7 6.61335 12.7 6.99995V16C12.7 16.3866 12.3866 16.7 12 16.7Z" fill="#222628"/>
<path fill-rule="evenodd" clip-rule="evenodd" d="M16 16.7C15.6134 16.7 15.3 16.3866 15.3 16V9.99995C15.3 9.61335 15.6134 9.29995 16 9.29995C16.3866 9.29995 16.7 9.61335 16.7 9.99995V16C16.7 16.3866 16.3866 16.7 16 16.7Z" fill="#222628"/>
</svg>
