<svg width="24" height="24" viewBox="0 0 24 24" fill="none" xmlns="http://www.w3.org/2000/svg">
<path fill-rule="evenodd" clip-rule="evenodd" d="M11.9664 1.30005H12.0336C13.6398 1.30004 14.8907 1.30004 15.8922 1.38675C16.9097 1.47484 17.735 1.65639 18.4713 2.05844C19.5145 2.62806 20.372 3.48552 20.9416 4.5287C21.3437 5.265 21.5252 6.09037 21.6133 7.10782C21.7 8.10936 21.7 9.36032 21.7 10.9665V13.0336C21.7 14.6398 21.7 15.8907 21.6133 16.8923C21.5252 17.9097 21.3437 18.7351 20.9416 19.4714C20.372 20.5146 19.5145 21.372 18.4713 21.9417C17.735 22.3437 16.9097 22.5253 15.8922 22.6133C14.8907 22.7001 13.6397 22.7001 12.0336 22.7001H11.9665C10.3603 22.7001 9.10931 22.7001 8.10777 22.6133C7.09032 22.5253 6.26496 22.3437 5.52866 21.9417C4.48548 21.372 3.62801 20.5146 3.05839 19.4714C2.65634 18.7351 2.4748 17.9097 2.38671 16.8923C2.3 15.8908 2.3 14.6398 2.3 13.0337V10.9664C2.3 9.36028 2.3 8.10934 2.38671 7.10782C2.4748 6.09037 2.65634 5.265 3.05839 4.5287C3.62801 3.48552 4.48548 2.62806 5.52866 2.05844C6.26496 1.65639 7.09032 1.47484 8.10777 1.38675C9.1093 1.30004 10.3602 1.30004 11.9664 1.30005ZM8.22853 2.78154C7.30336 2.86164 6.69539 3.01647 6.19961 3.28719C5.39198 3.72819 4.72814 4.39203 4.28714 5.19965C4.01643 5.69543 3.86159 6.30341 3.78149 7.22858C3.70061 8.16269 3.7 9.35318 3.7 11V13C3.7 14.6469 3.70061 15.8374 3.78149 16.7715C3.86159 17.6967 4.01643 18.3047 4.28714 18.8004C4.72814 19.6081 5.39198 20.2719 6.19961 20.7129C6.69539 20.9836 7.30336 21.1385 8.22853 21.2186C9.16264 21.2994 10.3531 21.3 12 21.3C13.6469 21.3 14.8374 21.2994 15.7715 21.2186C16.6966 21.1385 17.3046 20.9836 17.8004 20.7129C18.608 20.2719 19.2719 19.6081 19.7129 18.8004C19.9836 18.3047 20.1384 17.6967 20.2185 16.7715C20.2994 15.8374 20.3 14.6469 20.3 13V11C20.3 9.35318 20.2994 8.16269 20.2185 7.22858C20.1384 6.30341 19.9836 5.69543 19.7129 5.19965C19.2719 4.39203 18.608 3.72819 17.8004 3.28719C17.3046 3.01647 16.6966 2.86164 15.7715 2.78154C14.8374 2.70066 13.6469 2.70005 12 2.70005C10.3531 2.70005 9.16264 2.70066 8.22853 2.78154Z" fill="#222628"/>
<path fill-rule="evenodd" clip-rule="evenodd" d="M9.48959 7.52101C9.75416 7.23912 10.1971 7.22507 10.479 7.48964C10.7609 7.75421 10.775 8.1972 10.5104 8.47909L10 8.00005L9.48959 7.52101ZM7.52629 8.53852L7.53507 8.54849L7.5619 8.57885C7.58527 8.60523 7.61899 8.64314 7.6599 8.68873C7.74203 8.78022 7.85177 8.90109 7.96432 9.02101C7.97718 9.03471 7.98997 9.0483 8.00268 9.06173C8.16491 8.90094 8.35392 8.70841 8.54346 8.51286C8.78343 8.26528 9.02006 8.01722 9.19698 7.83075C9.28536 7.7376 9.35866 7.66 9.40981 7.60576L9.48959 7.52101L10 8.00005L10.5104 8.47909L10.4284 8.56622C10.3764 8.62135 10.3021 8.7 10.2126 8.79435C10.0337 8.98288 9.79339 9.23483 9.54873 9.48724C9.30512 9.73857 9.05296 9.99478 8.85178 10.19C8.75239 10.2864 8.65783 10.3754 8.57973 10.4431C8.54219 10.4756 8.49656 10.5136 8.44968 10.5471C8.42728 10.5631 8.39001 10.5887 8.34377 10.6131C8.34317 10.6134 8.34239 10.6139 8.34144 10.6144C8.31734 10.6274 8.18242 10.7001 8 10.7001C7.80621 10.7001 7.66307 10.62 7.63084 10.602C7.62994 10.6015 7.62914 10.601 7.62841 10.6006C7.57335 10.57 7.52738 10.5367 7.49644 10.5131C7.43254 10.4642 7.36799 10.4062 7.31189 10.3533C7.19652 10.2446 7.06371 10.1072 6.9435 9.97909C6.82141 9.84901 6.7042 9.71988 6.61803 9.62388C6.5748 9.57571 6.53903 9.5355 6.51395 9.50719L6.48469 9.47407L6.47384 9.46174C6.21892 9.1711 6.24778 8.72871 6.53843 8.47379C6.82906 8.21888 7.27137 8.24789 7.52629 8.53852C7.52629 8.53851 7.5263 8.53852 7.52629 8.53852Z" fill="#222628"/>
<path fill-rule="evenodd" clip-rule="evenodd" d="M9.48959 14.521C9.75416 14.2391 10.1971 14.2251 10.479 14.4896C10.7609 14.7542 10.775 15.1972 10.5104 15.4791L10 15.0001L9.48959 14.521ZM7.52629 15.5385L7.53507 15.5485L7.5619 15.5789C7.58527 15.6052 7.61899 15.6431 7.6599 15.6887C7.74203 15.7802 7.85177 15.9011 7.96432 16.021C7.97718 16.0347 7.98997 16.0483 8.00268 16.0617C8.16491 15.9009 8.35392 15.7084 8.54346 15.5129C8.78343 15.2653 9.02006 15.0172 9.19698 14.8308C9.28536 14.7376 9.35866 14.66 9.40981 14.6058L9.48959 14.521L10 15.0001L10.5104 15.4791L10.4284 15.5662C10.3764 15.6213 10.3021 15.7 10.2126 15.7944C10.0337 15.9829 9.79339 16.2348 9.54873 16.4872C9.30512 16.7386 9.05296 16.9948 8.85178 17.19C8.75239 17.2864 8.65783 17.3754 8.57973 17.4431C8.54219 17.4756 8.49656 17.5136 8.44968 17.5471C8.42728 17.5631 8.39001 17.5887 8.34377 17.6131C8.34317 17.6134 8.34239 17.6139 8.34144 17.6144C8.31734 17.6274 8.18242 17.7001 8 17.7001C7.80621 17.7001 7.66307 17.62 7.63084 17.602C7.62994 17.6015 7.62914 17.601 7.62841 17.6006C7.57335 17.57 7.52738 17.5367 7.49644 17.5131C7.43254 17.4642 7.36799 17.4062 7.31189 17.3533C7.19652 17.2446 7.06371 17.1072 6.9435 16.9791C6.82141 16.849 6.7042 16.7199 6.61803 16.6239C6.5748 16.5757 6.53903 16.5355 6.51395 16.5072L6.48469 16.4741L6.47384 16.4617C6.21892 16.1711 6.24778 15.7287 6.53843 15.4738C6.82906 15.2189 7.27137 15.2479 7.52629 15.5385C7.52629 15.5385 7.5263 15.5385 7.52629 15.5385Z" fill="#222628"/>
<path fill-rule="evenodd" clip-rule="evenodd" d="M17.7 16.5C17.7 16.8866 17.3866 17.2 17 17.2L13 17.2C12.6134 17.2 12.3 16.8866 12.3 16.5C12.3 16.1134 12.6134 15.8 13 15.8L17 15.8C17.3866 15.8 17.7 16.1134 17.7 16.5Z" fill="#222628"/>
<path fill-rule="evenodd" clip-rule="evenodd" d="M17.7 9.49995C17.7 9.88655 17.3866 10.2 17 10.2L13 10.2C12.6134 10.2 12.3 9.88655 12.3 9.49995C12.3 9.11335 12.6134 8.79995 13 8.79995L17 8.79995C17.3866 8.79995 17.7 9.11335 17.7 9.49995Z" fill="#222628"/>
</svg>
