<svg width="24" height="24" viewBox="0 0 24 24" fill="none" xmlns="http://www.w3.org/2000/svg">
<path fill-rule="evenodd" clip-rule="evenodd" d="M12 14.3C12.3866 14.3 12.7 14.6135 12.7 15L12.7 21.3001C12.7 21.6866 12.3866 22 12 22C11.6134 22 11.3 21.6866 11.3 21.3L11.3 15C11.3 14.6134 11.6134 14.3 12 14.3Z" fill="#222628"/>
<path fill-rule="evenodd" clip-rule="evenodd" d="M11.5757 22.5759C11.3414 22.3416 11.3414 21.9617 11.5757 21.7273L13.7272 19.5759C13.9615 19.3416 14.3414 19.3416 14.5757 19.5759C14.8101 19.8102 14.8101 20.1901 14.5757 20.4244L12.4243 22.5759C12.19 22.8102 11.8101 22.8102 11.5757 22.5759Z" fill="#222628"/>
<path fill-rule="evenodd" clip-rule="evenodd" d="M12.4243 22.5759C12.6586 22.3416 12.6586 21.9617 12.4243 21.7273L10.2728 19.5759C10.0385 19.3416 9.65858 19.3416 9.42427 19.5759C9.18996 19.8102 9.18996 20.1901 9.42427 20.4244L11.5757 22.5759C11.8101 22.8102 12.19 22.8102 12.4243 22.5759Z" fill="#222628"/>
<path fill-rule="evenodd" clip-rule="evenodd" d="M5.70022 8.50848C5.69999 8.50847 5.7 8.50562 5.7 8.50005C5.7 8.70692 5.62328 8.86838 5.56219 8.96747C5.50021 9.06802 5.42626 9.14968 5.36607 9.20987C5.24812 9.32782 5.09596 9.44764 4.961 9.5526C4.93318 9.57424 4.90495 9.59611 4.87634 9.61828C4.60521 9.82837 4.30054 10.0644 3.99496 10.37C3.33864 11.0263 2.69999 11.9829 2.7 13.5C2.70002 15.6756 4.58618 16.7319 5.67127 17.1534C5.94224 17.2586 6.25517 17.3 6.61554 17.3H8C8.3866 17.3 8.7 17.6134 8.7 18C8.7 18.3866 8.3866 18.7 8 18.7H6.61554C6.15828 18.7 5.65554 18.6492 5.16436 18.4584C4.03026 18.0179 1.30003 16.642 1.3 13.5001C1.29998 11.5172 2.16133 10.2238 3.00502 9.38007C3.37676 9.00833 3.74942 8.72001 4.01776 8.51239C4.04695 8.48981 4.07491 8.46818 4.10149 8.4475C4.2016 8.36964 4.2717 8.31337 4.32077 8.27082C4.33675 8.1705 4.3606 8.06505 4.38738 7.96337C4.44089 7.76018 4.52216 7.51275 4.63712 7.23783C4.86684 6.68842 5.23802 6.01267 5.80887 5.35407C6.9671 4.01779 8.90807 2.80005 12 2.80005C15.0919 2.80005 17.0329 4.01779 18.1911 5.35407C18.762 6.01267 19.1332 6.68842 19.3629 7.23783C19.4778 7.51275 19.5591 7.76018 19.6126 7.96337C19.6394 8.06505 19.6633 8.1705 19.6792 8.27082C19.7283 8.31337 19.7984 8.36964 19.8985 8.4475C19.9251 8.46818 19.9531 8.48981 19.9822 8.5124C20.2506 8.72001 20.6232 9.00833 20.995 9.38007C21.8387 10.2238 22.7 11.5172 22.7 13.5C22.7 16.642 19.9697 18.0179 18.8356 18.4584C18.3445 18.6492 17.8417 18.7 17.3845 18.7H16C15.6134 18.7 15.3 18.3866 15.3 18C15.3 17.6134 15.6134 17.3 16 17.3H17.3845C17.7448 17.3 18.0578 17.2586 18.3287 17.1534C19.4138 16.7319 21.3 15.6756 21.3 13.5C21.3 11.9829 20.6614 11.0263 20.005 10.37C19.6995 10.0644 19.3948 9.82837 19.1237 9.61828C19.0951 9.59611 19.0668 9.57424 19.039 9.5526C18.904 9.44763 18.7519 9.32782 18.6339 9.20987C18.5737 9.14968 18.4998 9.06802 18.4378 8.96747C18.3767 8.86837 18.3 8.70691 18.3 8.50005C18.3 8.50562 18.3 8.50847 18.2998 8.50848C18.2988 8.50857 18.2929 8.44932 18.2588 8.31993C18.2223 8.18132 18.1621 7.99516 18.0713 7.77789C17.8894 7.34292 17.5917 6.79993 17.1332 6.27103C16.2329 5.23231 14.6739 4.20005 12 4.20005C9.32613 4.20005 7.7671 5.23231 6.86678 6.27103C6.40835 6.79993 6.11063 7.34292 5.92875 7.77789C5.83791 7.99516 5.77772 8.18132 5.74121 8.31993C5.70714 8.44932 5.70124 8.50857 5.70022 8.50848Z" fill="#222628"/>
</svg>
