<svg width="24" height="24" viewBox="0 0 24 24" fill="none" xmlns="http://www.w3.org/2000/svg">
<path fill-rule="evenodd" clip-rule="evenodd" d="M5.7002 9.50848C5.69998 9.50847 5.69999 9.50562 5.69999 9.50005C5.69999 9.70692 5.62326 9.86838 5.56217 9.96747C5.50019 10.068 5.42624 10.1497 5.36605 10.2099C5.2481 10.3278 5.09594 10.4476 4.96099 10.5526C4.93317 10.5742 4.90493 10.5961 4.87633 10.6183C4.60519 10.8284 4.30053 11.0644 3.99495 11.37C3.33862 12.0263 2.69997 12.9829 2.69999 14.5C2.70001 16.6756 4.58616 17.7319 5.67126 18.1534C5.94222 18.2586 6.25516 18.3 6.61552 18.3H17.3845C17.7448 18.3 18.0578 18.2586 18.3287 18.1534C19.4138 17.7319 21.3 16.6756 21.3 14.5C21.3 12.9829 20.6613 12.0263 20.005 11.37C19.6994 11.0644 19.3948 10.8284 19.1236 10.6183C19.095 10.5961 19.0668 10.5742 19.039 10.5526C18.904 10.4476 18.7519 10.3278 18.6339 10.2099C18.5737 10.1497 18.4998 10.068 18.4378 9.96747C18.3767 9.86837 18.3 9.70691 18.3 9.50005C18.3 9.50562 18.3 9.50847 18.2998 9.50848C18.2988 9.50857 18.2929 9.44932 18.2588 9.31993C18.2223 9.18132 18.1621 8.99516 18.0712 8.77789C17.8894 8.34292 17.5916 7.79993 17.1332 7.27103C16.2329 6.23231 14.6739 5.20005 12 5.20005C9.32611 5.20005 7.76708 6.23231 6.86677 7.27103C6.40834 7.79993 6.11061 8.34292 5.92874 8.77789C5.8379 8.99516 5.7777 9.18132 5.7412 9.31993C5.70712 9.44932 5.70122 9.50857 5.7002 9.50848ZM5.80885 6.35407C6.96708 5.01779 8.90806 3.80005 12 3.80005C15.0919 3.80005 17.0329 5.01779 18.1911 6.35407C18.762 7.01267 19.1332 7.68842 19.3629 8.23783C19.4778 8.51275 19.5591 8.76018 19.6126 8.96337C19.6394 9.06505 19.6632 9.1705 19.6792 9.27082C19.7283 9.31337 19.7984 9.36964 19.8985 9.4475C19.9251 9.46818 19.953 9.48981 19.9822 9.5124C20.2506 9.72001 20.6232 10.0083 20.995 10.3801C21.8386 11.2238 22.7 12.5172 22.7 14.5C22.7 17.642 19.9697 19.0179 18.8356 19.4584C18.3444 19.6492 17.8417 19.7 17.3845 19.7H6.61552C6.15826 19.7 5.65553 19.6492 5.16435 19.4584C4.03024 19.0179 1.30002 17.642 1.29999 14.5001C1.29997 12.5172 2.16132 11.2238 3.005 10.3801C3.37674 10.0083 3.7494 9.72001 4.01774 9.51239C4.04693 9.48981 4.07489 9.46818 4.10148 9.4475C4.20158 9.36964 4.27169 9.31337 4.32075 9.27082C4.33674 9.1705 4.36058 9.06505 4.38736 8.96337C4.44088 8.76018 4.52215 8.51275 4.6371 8.23783C4.86682 7.68842 5.23801 7.01267 5.80885 6.35407Z" fill="#222628"/>
</svg>
