<svg width="24" height="24" viewBox="0 0 24 24" fill="none" xmlns="http://www.w3.org/2000/svg">
<path fill-rule="evenodd" clip-rule="evenodd" d="M12.7 14.7L12.7 21C12.7 21.3865 12.3866 21.7 12 21.7C11.6134 21.7 11.3 21.3866 11.3 21L11.3 14.7C11.3 14.3134 11.6134 14 12 14C12.3866 14 12.7 14.3134 12.7 14.7Z" fill="#222628"/>
<path fill-rule="evenodd" clip-rule="evenodd" d="M12.4243 13.4241C12.6586 13.6584 12.6586 14.0383 12.4243 14.2727L10.2728 16.4241C10.0385 16.6584 9.65858 16.6584 9.42426 16.4241C9.18995 16.1898 9.18995 15.8099 9.42426 15.5756L11.5757 13.4241C11.81 13.1898 12.1899 13.1898 12.4243 13.4241Z" fill="#222628"/>
<path fill-rule="evenodd" clip-rule="evenodd" d="M11.5757 13.4241C11.3414 13.6584 11.3414 14.0383 11.5757 14.2727L13.7272 16.4241C13.9615 16.6584 14.3414 16.6584 14.5757 16.4241C14.81 16.1898 14.81 15.8099 14.5757 15.5756L12.4243 13.4241C12.1899 13.1898 11.81 13.1898 11.5757 13.4241Z" fill="#222628"/>
<path fill-rule="evenodd" clip-rule="evenodd" d="M5.7002 8.50848C5.69998 8.50847 5.69999 8.50562 5.69999 8.50005C5.69999 8.70692 5.62326 8.86838 5.56217 8.96747C5.50019 9.06802 5.42624 9.14968 5.36605 9.20987C5.2481 9.32782 5.09594 9.44764 4.96099 9.5526C4.93317 9.57424 4.90493 9.59611 4.87633 9.61828C4.60519 9.82837 4.30053 10.0644 3.99495 10.37C3.33862 11.0263 2.69997 11.9829 2.69999 13.5C2.70001 15.6756 4.58616 16.7319 5.67126 17.1534C5.94222 17.2586 6.25516 17.3 6.61552 17.3H7.99999C8.38659 17.3 8.69999 17.6134 8.69999 18C8.69999 18.3866 8.38659 18.7 7.99999 18.7H6.61552C6.15826 18.7 5.65553 18.6492 5.16435 18.4584C4.03024 18.0179 1.30002 16.642 1.29999 13.5001C1.29997 11.5172 2.16132 10.2238 3.005 9.38007C3.37674 9.00833 3.7494 8.72001 4.01774 8.51239C4.04693 8.48981 4.07489 8.46818 4.10148 8.4475C4.20158 8.36964 4.27169 8.31337 4.32075 8.27082C4.33674 8.1705 4.36058 8.06505 4.38736 7.96337C4.44088 7.76018 4.52215 7.51275 4.6371 7.23783C4.86682 6.68842 5.23801 6.01267 5.80885 5.35407C6.96708 4.01779 8.90806 2.80005 12 2.80005C15.0919 2.80005 17.0329 4.01779 18.1911 5.35407C18.762 6.01267 19.1332 6.68842 19.3629 7.23783C19.4778 7.51275 19.5591 7.76018 19.6126 7.96337C19.6394 8.06505 19.6632 8.1705 19.6792 8.27082C19.7283 8.31337 19.7984 8.36964 19.8985 8.4475C19.9251 8.46818 19.953 8.48981 19.9822 8.5124C20.2506 8.72001 20.6232 9.00833 20.995 9.38007C21.8386 10.2238 22.7 11.5172 22.7 13.5C22.7 16.642 19.9697 18.0179 18.8356 18.4584C18.3444 18.6492 17.8417 18.7 17.3845 18.7H16C15.6134 18.7 15.3 18.3866 15.3 18C15.3 17.6134 15.6134 17.3 16 17.3H17.3845C17.7448 17.3 18.0578 17.2586 18.3287 17.1534C19.4138 16.7319 21.3 15.6756 21.3 13.5C21.3 11.9829 20.6613 11.0263 20.005 10.37C19.6994 10.0644 19.3948 9.82837 19.1236 9.61828C19.095 9.59611 19.0668 9.57424 19.039 9.5526C18.904 9.44763 18.7519 9.32782 18.6339 9.20987C18.5737 9.14968 18.4998 9.06802 18.4378 8.96747C18.3767 8.86837 18.3 8.70691 18.3 8.50005C18.3 8.50562 18.3 8.50847 18.2998 8.50848C18.2988 8.50857 18.2929 8.44932 18.2588 8.31993C18.2223 8.18132 18.1621 7.99516 18.0712 7.77789C17.8894 7.34292 17.5916 6.79993 17.1332 6.27103C16.2329 5.23231 14.6739 4.20005 12 4.20005C9.32611 4.20005 7.76708 5.23231 6.86677 6.27103C6.40834 6.79993 6.11061 7.34292 5.92874 7.77789C5.8379 7.99516 5.7777 8.18132 5.7412 8.31993C5.70712 8.44932 5.70122 8.50857 5.7002 8.50848Z" fill="#222628"/>
</svg>
