<svg width="24" height="24" viewBox="0 0 24 24" fill="none" xmlns="http://www.w3.org/2000/svg">
<path fill-rule="evenodd" clip-rule="evenodd" d="M10.5503 2.27537C11.3951 1.58952 12.6049 1.58952 13.4497 2.27537L15.1713 3.6731C15.307 3.78325 15.4718 3.85151 15.6456 3.86956L17.8513 4.09859C18.9336 4.21097 19.7891 5.06644 19.9015 6.14875L20.1305 8.35446C20.1486 8.52828 20.2168 8.6931 20.327 8.82877L21.7247 10.5504C22.4106 11.3952 22.4106 12.605 21.7247 13.4498L20.327 15.1714C20.2168 15.307 20.1486 15.4719 20.1305 15.6457L19.9015 17.8514C19.7891 18.9337 18.9336 19.7892 17.8513 19.9016L15.6456 20.1306C15.4718 20.1486 15.307 20.2169 15.1713 20.327L13.4497 21.7248C12.6049 22.4106 11.3951 22.4106 10.5503 21.7248L8.82871 20.327C8.69304 20.2169 8.52822 20.1486 8.3544 20.1306L6.14869 19.9016C5.06637 19.7892 4.21091 18.9337 4.09853 17.8514L3.8695 15.6457C3.85145 15.4719 3.78319 15.307 3.67303 15.1714L2.27531 13.4498C1.58946 12.605 1.58946 11.3952 2.27531 10.5504L3.67303 8.82877C3.78319 8.6931 3.85145 8.52828 3.8695 8.35446L4.09853 6.14875C4.21091 5.06644 5.06638 4.21097 6.14869 4.09859L8.3544 3.86956C8.52822 3.85151 8.69304 3.78325 8.82871 3.6731L10.5503 2.27537ZM12.5673 3.36227C12.2367 3.09389 11.7633 3.09389 11.4327 3.36227L9.71113 4.75999C9.3644 5.04149 8.94321 5.21595 8.49898 5.26208L6.29328 5.4911C5.86976 5.53508 5.53502 5.86983 5.49104 6.29334L5.26202 8.49905C5.21589 8.94327 5.04143 9.36446 4.75993 9.71119L3.36221 11.4328C3.09383 11.7634 3.09383 12.2368 3.36221 12.5673L4.75993 14.289C5.04143 14.6357 5.21589 15.0569 5.26202 15.5011L5.49104 17.7068C5.53502 18.1303 5.86976 18.4651 6.29328 18.509L8.49898 18.7381C8.94321 18.7842 9.3644 18.9587 9.71113 19.2402L11.4327 20.6379C11.7633 20.9062 12.2367 20.9062 12.5673 20.6379L14.2889 19.2402C14.6356 18.9587 15.0568 18.7842 15.501 18.7381L17.7067 18.509C18.1303 18.4651 18.465 18.1303 18.509 17.7068L18.738 15.5011C18.7841 15.0569 18.9586 14.6357 19.2401 14.289L20.6378 12.5673C20.9062 12.2368 20.9062 11.7634 20.6378 11.4328L19.2401 9.71119C18.9586 9.36446 18.7841 8.94327 18.738 8.49905L18.509 6.29334C18.465 5.86983 18.1303 5.53508 17.7067 5.4911L15.501 5.26208C15.0568 5.21595 14.6356 5.04149 14.2889 4.75999L12.5673 3.36227Z" fill="#222628"/>
<path fill-rule="evenodd" clip-rule="evenodd" d="M15.3924 8.42046C15.7126 8.63719 15.7964 9.0724 15.5797 9.39254L15 9.00012L14.4204 8.6077C14.6371 8.28756 15.0723 8.20373 15.3924 8.42046ZM9.5303 12.0432L9.53466 12.0482L9.54851 12.0642L9.6023 12.1261C9.649 12.1797 9.71625 12.2565 9.79788 12.3488C9.96148 12.5337 10.1814 12.779 10.4087 13.0232C10.5883 13.2161 10.7673 13.4027 10.9242 13.5566C11.0012 13.4585 11.0876 13.3457 11.1823 13.2199C11.5632 12.7137 12.0492 12.0338 12.5308 11.3479C13.0115 10.6633 13.484 9.97815 13.8365 9.46376C14.0127 9.20667 14.1588 8.99246 14.2608 8.8426L14.4204 8.6077L15 9.00012L15.5797 9.39254L15.4182 9.63029C15.3155 9.78121 15.1685 9.9967 14.9913 10.2552C14.6371 10.7721 14.1614 11.4619 13.6766 12.1524C13.1928 12.8414 12.6961 13.5365 12.301 14.0616C12.1047 14.3226 11.9263 14.5511 11.7839 14.7181C11.7143 14.7996 11.6414 14.8806 11.5723 14.9462C11.539 14.9777 11.4905 15.0213 11.432 15.0614C11.4026 15.0816 11.357 15.1105 11.2986 15.1363C11.2465 15.1594 11.1399 15.2001 11 15.2001C10.8054 15.2001 10.6565 15.1237 10.6058 15.097C10.5336 15.059 10.4687 15.0144 10.4172 14.976C10.3124 14.8982 10.2002 14.7995 10.0927 14.6988C9.87436 14.4947 9.61999 14.2307 9.38393 13.9771C9.14582 13.7213 8.91755 13.4666 8.74936 13.2765C8.6651 13.1812 8.59555 13.1018 8.54691 13.046L8.49036 12.9809L8.47527 12.9635L8.47019 12.9576C8.21782 12.6647 8.2502 12.2222 8.54306 11.9698C8.83592 11.7175 9.27793 11.7503 9.5303 12.0432Z" fill="#222628"/>
</svg>
