<svg width="24" height="24" viewBox="0 0 24 24" fill="none" xmlns="http://www.w3.org/2000/svg">
<path fill-rule="evenodd" clip-rule="evenodd" d="M12.8671 1.30006C12.911 1.30006 12.9552 1.30006 13 1.30006H14C14.0448 1.30006 14.089 1.30006 14.1329 1.30006C15.8663 1.29991 16.8812 1.29983 17.7341 1.52836C20.0462 2.14789 21.8522 3.95386 22.4717 6.26597C22.7002 7.11887 22.7002 8.13376 22.7 9.8672C22.7 9.91103 22.7 9.95531 22.7 10.0001C22.7 10.0448 22.7 10.0891 22.7 10.1329C22.7002 11.8664 22.7002 12.8813 22.4717 13.7342C21.8522 16.0463 20.0462 17.8522 17.7341 18.4718C16.8812 18.7003 15.8663 18.7002 14.1329 18.7001C14.089 18.7001 14.0448 18.7001 14 18.7001H13C12.9552 18.7001 12.911 18.7001 12.8671 18.7001C11.1337 18.7002 10.1188 18.7003 9.26591 18.4718C6.9538 17.8522 5.14783 16.0463 4.5283 13.7342C4.29977 12.8813 4.29985 11.8664 4.29999 10.1329C4.3 10.0891 4.3 10.0448 4.3 10.0001C4.3 9.95531 4.3 9.91102 4.29999 9.86719C4.29985 8.13376 4.29977 7.11887 4.5283 6.26597C5.14783 3.95386 6.9538 2.14789 9.26591 1.52836C10.1188 1.29983 11.1337 1.29991 12.8671 1.30006ZM13 2.70006C11.095 2.70006 10.2798 2.70608 9.62826 2.88066C7.79927 3.37073 6.37067 4.79933 5.8806 6.62832C5.70601 7.27987 5.7 8.09505 5.7 10.0001C5.7 11.9051 5.70601 12.7203 5.8806 13.3718C6.37067 15.2008 7.79927 16.6294 9.62826 17.1195C10.2798 17.2941 11.095 17.3001 13 17.3001H14C15.905 17.3001 16.7202 17.2941 17.3717 17.1195C19.2007 16.6294 20.6293 15.2008 21.1194 13.3718C21.294 12.7203 21.3 11.9051 21.3 10.0001C21.3 8.09505 21.294 7.27987 21.1194 6.62832C20.6293 4.79933 19.2007 3.37073 17.3717 2.88066C16.7202 2.70608 15.905 2.70006 14 2.70006H13Z" fill="#222628"/>
<path fill-rule="evenodd" clip-rule="evenodd" d="M5.26683 10.3001C5.27773 10.3001 5.2888 10.3001 5.30002 10.3001V11.7001C5.00813 11.7001 4.90274 11.7006 4.81957 11.7071C3.6917 11.7959 2.79588 12.6917 2.70711 13.8196C2.70057 13.9028 2.70002 14.0082 2.70002 14.3001V16.5001C2.70002 17.9465 2.70762 18.5146 2.84212 18.958C3.16205 20.0127 3.9874 20.838 5.04208 21.158C5.48547 21.2925 6.05332 21.3001 7.49933 21.3001H9.15C10.8897 21.3001 12.3 19.8897 12.3 18.1501H13.7C13.7 20.663 11.6629 22.7001 9.15 22.7001H7.49933C7.45339 22.7001 7.40806 22.7001 7.36331 22.7001C6.09875 22.7003 5.30423 22.7005 4.63568 22.4977C3.13356 22.042 1.95807 20.8665 1.5024 19.3644C1.2996 18.6958 1.29976 17.9011 1.3 16.6361C1.30001 16.5914 1.30002 16.546 1.30002 16.5001V14.3001C1.30002 14.2888 1.30002 14.2778 1.30002 14.2669C1.3 14.0202 1.29998 13.8552 1.31143 13.7098C1.45422 11.8954 2.89533 10.4543 4.70972 10.3115C4.85513 10.3 5.02013 10.3 5.26683 10.3001Z" fill="#222628"/>
</svg>
