<svg width="24" height="24" viewBox="0 0 24 24" fill="none" xmlns="http://www.w3.org/2000/svg">
<path fill-rule="evenodd" clip-rule="evenodd" d="M21.3174 15.1431C21.842 18.5928 19.1717 21.7 15.6822 21.7L8.31777 21.6999C4.82833 21.6999 2.15797 18.5928 2.68254 15.1431L3.07501 12.5621L3.4567 10.6346C3.9853 7.96532 6.32697 6.0419 9.04812 6.0419L14.9519 6.04189C17.673 6.04189 20.0147 7.96531 20.5433 10.6346L20.925 12.5621L21.3174 15.1431ZM15.6822 20.3C18.3146 20.3 20.3291 17.956 19.9334 15.3535L19.5456 12.8034L19.17 10.9066C18.7712 8.8929 17.0047 7.44189 14.9519 7.44189L9.04812 7.4419C6.99532 7.4419 5.2288 8.8929 4.83003 10.9066L4.4544 12.8034L4.06663 15.3535C3.6709 17.956 5.68539 20.2999 8.31777 20.2999L15.6822 20.3Z" fill="#222628"/>
<path fill-rule="evenodd" clip-rule="evenodd" d="M14.7 15C14.7 15.3866 14.3866 15.7 14 15.7H10C9.61341 15.7 9.30001 15.3866 9.30001 15C9.30001 14.6134 9.61341 14.3 10 14.3H14C14.3866 14.3 14.7 14.6134 14.7 15Z" fill="#222628"/>
<path fill-rule="evenodd" clip-rule="evenodd" d="M9.36664 6.29104C9.36628 6.67734 9.05301 6.99038 8.66663 6.99037C8.28003 6.99037 7.96664 6.67696 7.96664 6.29036L8.66664 6.29037C7.96664 6.29036 7.96664 6.29 7.96664 6.28963L7.96665 6.28882L7.96665 6.28697L7.96668 6.28235L7.96684 6.26949C7.96701 6.25933 7.96731 6.24603 7.96786 6.22978C7.96895 6.19732 7.97104 6.15299 7.97498 6.09846C7.98286 5.98964 7.99826 5.83882 8.02851 5.65971C8.08844 5.30476 8.20961 4.82099 8.45888 4.32889C8.70963 3.83386 9.09629 3.31888 9.68812 2.92941C10.2839 2.53736 11.046 2.30005 12 2.30005C12.954 2.30005 13.7161 2.53736 14.3119 2.92942C14.9037 3.31888 15.2904 3.83387 15.5411 4.3289C15.7904 4.821 15.9115 5.30477 15.9715 5.65971C16.0017 5.83882 16.0171 5.98964 16.025 6.09846C16.0289 6.15299 16.031 6.19733 16.0321 6.22979C16.0327 6.24603 16.033 6.25933 16.0331 6.26949L16.0333 6.28235L16.0333 6.28698L16.0333 6.28883L16.0333 6.28964C16.0333 6.29001 16.0333 6.29037 15.3333 6.29037L16.0333 6.29037C16.0333 6.67697 15.7199 6.99037 15.3333 6.99037C14.9477 6.99037 14.6349 6.67858 14.6333 6.29335C14.6333 6.29281 14.6333 6.29227 14.6333 6.29173C14.6333 6.29166 14.6333 6.2916 14.6333 6.29154C14.6333 6.29137 14.6333 6.2912 14.6333 6.29103C14.6333 6.29103 14.6333 6.29103 14.6333 6.29103L14.6333 6.29154V6.29162L14.6333 6.29173L14.6333 6.29257L14.6333 6.29362C14.6333 6.29382 14.6333 6.29373 14.6333 6.29335C14.6333 6.29313 14.6333 6.2928 14.6333 6.29237L14.6329 6.27705C14.6324 6.26131 14.6312 6.23496 14.6286 6.19952C14.6235 6.1284 14.6129 6.02216 14.591 5.8928C14.5468 5.63081 14.4596 5.292 14.2922 4.96152C14.1263 4.63397 13.8879 4.32638 13.5423 4.09891C13.2005 3.87403 12.7127 3.70005 12 3.70005C11.2873 3.70005 10.7995 3.87403 10.4577 4.09891C10.1121 4.32638 9.87371 4.63398 9.70779 4.96153C9.54038 5.29201 9.4532 5.63082 9.40896 5.89281C9.38712 6.02217 9.37648 6.1284 9.37133 6.19952C9.36877 6.23496 9.36759 6.26132 9.36706 6.27705L9.36665 6.29238L9.36664 6.29162L9.36664 6.29104ZM9.36665 6.29238L9.36664 6.29257L9.36663 6.29363L9.36663 6.29372C9.36663 6.29365 9.36664 6.2932 9.36665 6.29238Z" fill="#222628"/>
</svg>
