<svg width="24" height="24" viewBox="0 0 24 24" fill="none" xmlns="http://www.w3.org/2000/svg">
<path fill-rule="evenodd" clip-rule="evenodd" d="M10.5503 2.27537C11.3951 1.58952 12.6049 1.58952 13.4497 2.27537L15.1713 3.6731C15.307 3.78325 15.4718 3.85151 15.6456 3.86956L17.8513 4.09859C18.9336 4.21097 19.7891 5.06644 19.9015 6.14875L20.1305 8.35446C20.1486 8.52828 20.2168 8.6931 20.327 8.82877L21.7247 10.5504C22.4105 11.3952 22.4105 12.605 21.7247 13.4498L20.327 15.1714C20.2168 15.307 20.1486 15.4719 20.1305 15.6457L19.9015 17.8514C19.7891 18.9337 18.9336 19.7892 17.8513 19.9016L15.6456 20.1306C15.4718 20.1486 15.307 20.2169 15.1713 20.327L13.4497 21.7248C12.6049 22.4106 11.3951 22.4106 10.5503 21.7248L8.8287 20.327C8.69302 20.2169 8.52821 20.1486 8.35438 20.1306L6.14867 19.9016C5.06636 19.7892 4.21089 18.9337 4.09851 17.8514L3.86949 15.6457C3.85144 15.4719 3.78317 15.307 3.67302 15.1714L2.2753 13.4498C1.58945 12.605 1.58945 11.3952 2.2753 10.5504L3.67302 8.82877C3.78317 8.6931 3.85144 8.52828 3.86949 8.35446L4.09851 6.14875C4.21089 5.06644 5.06636 4.21097 6.14867 4.09859L8.35438 3.86956C8.52821 3.85151 8.69302 3.78325 8.8287 3.6731L10.5503 2.27537ZM12.5673 3.36227C12.2367 3.09389 11.7633 3.09389 11.4327 3.36227L9.71111 4.75999C9.36438 5.04149 8.94319 5.21595 8.49897 5.26208L6.29326 5.4911C5.86975 5.53508 5.535 5.86983 5.49103 6.29334L5.262 8.49905C5.21588 8.94327 5.04141 9.36446 4.75992 9.71119L3.36219 11.4328C3.09382 11.7634 3.09382 12.2368 3.36219 12.5673L4.75991 14.289C5.04141 14.6357 5.21588 15.0569 5.262 15.5011L5.49103 17.7068C5.535 18.1303 5.86975 18.4651 6.29326 18.509L8.49897 18.7381C8.9432 18.7842 9.36438 18.9587 9.71111 19.2402L11.4327 20.6379C11.7633 20.9062 12.2367 20.9062 12.5673 20.6379L14.2889 19.2402C14.6356 18.9587 15.0568 18.7842 15.501 18.7381L17.7067 18.509C18.1302 18.4651 18.465 18.1303 18.509 17.7068L18.738 15.5011C18.7841 15.0569 18.9586 14.6357 19.2401 14.289L20.6378 12.5673C20.9062 12.2368 20.9062 11.7634 20.6378 11.4328L19.2401 9.71119C18.9586 9.36446 18.7841 8.94327 18.738 8.49905L18.509 6.29334C18.465 5.86983 18.1302 5.53508 17.7067 5.4911L15.501 5.26208C15.0568 5.21595 14.6356 5.04149 14.2889 4.75999L12.5673 3.36227Z" fill="#222628"/>
<path fill-rule="evenodd" clip-rule="evenodd" d="M15.495 8.50507C15.7683 8.77844 15.7683 9.22166 15.495 9.49502L9.49496 15.495C9.2216 15.7684 8.77838 15.7684 8.50501 15.495C8.23165 15.2217 8.23165 14.7784 8.50501 14.5051L14.505 8.50507C14.7784 8.23171 15.2216 8.23171 15.495 8.50507Z" fill="#222628"/>
<path fill-rule="evenodd" clip-rule="evenodd" d="M14.191 15C14.191 14.5581 14.5492 14.2 14.991 14.2H15.009C15.4509 14.2 15.809 14.5581 15.809 15C15.809 15.4418 15.4509 15.8 15.009 15.8H14.991C14.5492 15.8 14.191 15.4418 14.191 15Z" fill="#222628"/>
<path fill-rule="evenodd" clip-rule="evenodd" d="M8.19099 8.99995C8.19099 8.55812 8.54917 8.19995 8.99099 8.19995H9.00899C9.45082 8.19995 9.80899 8.55812 9.80899 8.99995C9.80899 9.44178 9.45082 9.79995 9.00899 9.79995H8.99099C8.54917 9.79995 8.19099 9.44178 8.19099 8.99995Z" fill="#222628"/>
</svg>
