<svg width="24" height="24" viewBox="0 0 24 24" fill="none" xmlns="http://www.w3.org/2000/svg">
<path fill-rule="evenodd" clip-rule="evenodd" d="M8.04488 19.5723L18.5009 7.12806C18.6904 6.90254 18.6613 6.63743 18.5341 6.48757C18.068 5.93861 17.5461 5.37335 17.1106 5.00747C16.6662 4.63402 15.9894 4.19704 15.3422 3.81435C15.1656 3.70995 14.8939 3.73 14.7041 3.95583L4.25694 16.3896C4.02218 16.669 3.89955 17.0043 3.89838 17.338C3.89581 18.0721 3.90782 19.0511 3.96873 19.8763C3.98622 20.1133 4.00686 20.3245 4.03001 20.5052C4.212 20.4968 4.42355 20.4808 4.66004 20.4571C5.48333 20.3749 6.4498 20.218 7.17244 20.089C7.50101 20.0303 7.81012 19.8517 8.04488 19.5723ZM16.0547 2.60925C15.2506 2.13382 14.2332 2.34005 13.6323 3.05522L3.18507 15.489C2.74959 16.0073 2.50075 16.6562 2.49839 17.3331C2.49318 18.8232 2.54569 21.4199 2.96523 21.7724C3.38477 22.1249 5.95171 21.7291 7.41854 21.4672C8.08496 21.3482 8.68126 20.9912 9.11675 20.4729L19.5727 8.02867C20.1696 7.31831 20.2018 6.28872 19.6013 5.58144C19.1231 5.01828 18.5397 4.37967 18.0112 3.9356C17.4743 3.48445 16.7149 2.9996 16.0547 2.60925Z" fill="#222628"/>
<path fill-rule="evenodd" clip-rule="evenodd" d="M13.0048 5.61791L13.0064 5.6203L13.0137 5.63145L13.045 5.67817C13.0729 5.71955 13.1145 5.7804 13.1676 5.85578C13.274 6.00693 13.425 6.21449 13.6033 6.43959C13.9747 6.90859 14.4102 7.38394 14.7783 7.62628C15.2346 7.92667 15.7515 8.24307 16.1575 8.48611C16.3598 8.60722 16.5332 8.70927 16.6558 8.78094C16.7171 8.81677 16.7657 8.84497 16.7987 8.86413L16.8364 8.8859L16.8482 8.89268C16.8482 8.89268 16.8482 8.89268 16.8482 8.89268C17.1834 9.08531 17.2996 9.51354 17.1069 9.84873C16.9143 10.1839 16.4864 10.2995 16.1512 10.1069L16.1369 10.0986L16.0971 10.0756C16.0625 10.0556 16.0124 10.0264 15.9493 9.98961C15.8233 9.91596 15.6457 9.8114 15.4385 9.68735C15.0254 9.44007 14.489 9.11197 14.0085 8.79561C13.4398 8.4212 12.8877 7.79105 12.5058 7.30875C12.3074 7.05819 12.1403 6.82864 12.0227 6.6616C11.9638 6.57789 11.9169 6.50937 11.8844 6.46116C11.8681 6.43704 11.8554 6.41796 11.8466 6.40456L11.8362 6.3888L11.8332 6.38425L11.8322 6.38283C11.8322 6.38275 11.8317 6.382 12.4183 5.99996L11.8322 6.38283C11.6213 6.05888 11.7123 5.6244 12.0362 5.4134C12.3601 5.20245 12.7938 5.29415 13.0048 5.61791Z" fill="#222628"/>
<path fill-rule="evenodd" clip-rule="evenodd" d="M14 21.3001C14 20.9135 14.3134 20.6001 14.7 20.6001H21.3C21.6866 20.6001 22 20.9135 22 21.3001C22 21.6867 21.6866 22.0001 21.3 22.0001H14.7C14.3134 22.0001 14 21.6867 14 21.3001Z" fill="#222628"/>
</svg>
