<svg width="24" height="24" viewBox="0 0 24 24" fill="none" xmlns="http://www.w3.org/2000/svg">
<path fill-rule="evenodd" clip-rule="evenodd" d="M9.62106 19.0825L19.776 6.99665C19.9661 6.77036 19.9368 6.50321 19.8074 6.35215C19.3406 5.80703 18.8185 5.24525 18.383 4.8793C17.9383 4.5057 17.265 4.06788 16.6214 3.68379C16.4434 3.57756 16.1698 3.59763 15.9793 3.82425L5.83312 15.8998C5.59416 16.1842 5.47146 16.5262 5.47444 16.8654C5.4808 17.5916 5.50463 18.5487 5.57448 19.3535C5.59476 19.5872 5.61785 19.7947 5.643 19.9716C5.8216 19.9659 6.02996 19.9528 6.26363 19.9325C7.06839 19.8627 8.01532 19.7212 8.73178 19.6023C9.06635 19.5468 9.3821 19.3669 9.62106 19.0825ZM17.3389 2.48161C16.5335 2.00096 15.5108 2.20557 14.9075 2.92363L4.76125 14.9992C4.31815 15.5266 4.06845 16.1889 4.07449 16.8776C4.08742 18.3524 4.17117 20.878 4.58751 21.2278C5.00385 21.5776 7.50605 21.2248 8.96096 20.9834C9.64048 20.8706 10.2498 20.5105 10.6929 19.9832L20.8478 7.89726C21.4472 7.18391 21.4768 6.14923 20.8708 5.44153C20.392 4.88241 19.8097 4.24951 19.2836 3.80743C18.7489 3.35815 17.9953 2.87336 17.3389 2.48161Z" fill="#222628"/>
<path fill-rule="evenodd" clip-rule="evenodd" d="M15.1695 4.61791L15.171 4.6203L15.1784 4.63145L15.2097 4.67817C15.2376 4.71955 15.2792 4.7804 15.3322 4.85578C15.4386 5.00693 15.5897 5.21449 15.768 5.43959C16.1394 5.90859 16.5749 6.38394 16.943 6.62628C17.3992 6.92667 17.9162 7.24307 18.3222 7.48611C18.5245 7.60722 18.6979 7.70927 18.8205 7.78094C18.8818 7.81677 18.9303 7.84497 18.9634 7.86413L19.0011 7.8859L19.0128 7.89268C19.0128 7.89268 19.0128 7.89268 19.0128 7.89268C19.348 8.08531 19.4642 8.51354 19.2716 8.84873C19.079 9.18392 18.6511 9.2995 18.3159 9.10688L18.3015 9.09861L18.2617 9.0756C18.2272 9.05559 18.177 9.02645 18.114 8.98961C17.988 8.91596 17.8104 8.8114 17.6031 8.68735C17.19 8.44007 16.6536 8.11197 16.1731 7.79561C15.6045 7.4212 15.0524 6.79105 14.6704 6.30875C14.472 6.05819 14.305 5.82864 14.1874 5.6616C14.1285 5.57789 14.0816 5.50937 14.0491 5.46116C14.0328 5.43704 14.0201 5.41796 14.0112 5.40456L14.0008 5.3888L13.9978 5.38425L13.9969 5.38283C13.9969 5.38275 13.9964 5.382 14.5829 4.99996L13.9969 5.38283C13.7859 5.05888 13.8769 4.6244 14.2009 4.4134C14.5248 4.20245 14.9584 4.29415 15.1695 4.61791Z" fill="#222628"/>
</svg>
