<svg width="24" height="24" viewBox="0 0 24 24" fill="none" xmlns="http://www.w3.org/2000/svg">
<path fill-rule="evenodd" clip-rule="evenodd" d="M12.505 11.5661C12.2317 11.2927 12.2317 10.8495 12.505 10.5761L19.5761 3.50503C19.8495 3.23167 20.2927 3.23167 20.566 3.50503C20.8394 3.7784 20.8394 4.22161 20.566 4.49498L13.495 11.566C13.2216 11.8394 12.7784 11.8394 12.505 11.5661Z" fill="#222628"/>
<path fill-rule="evenodd" clip-rule="evenodd" d="M20.6569 3.6C20.6569 3.93137 20.3882 4.2 20.0569 4.2L15.6 4.2C15.2686 4.2 15 3.93137 15 3.6C15 3.26863 15.2686 3 15.6 3L20.0569 3C20.3882 3 20.6569 3.26863 20.6569 3.6Z" fill="#222628"/>
<path fill-rule="evenodd" clip-rule="evenodd" d="M20.4 3C20.0686 3 19.8 3.26863 19.8 3.6V8.05685C19.8 8.38823 20.0686 8.65685 20.4 8.65685C20.7314 8.65685 21 8.38823 21 8.05685V3.6C21 3.26863 20.7314 3 20.4 3Z" fill="#222628"/>
<path fill-rule="evenodd" clip-rule="evenodd" d="M10.9685 4.3L13 4.3C13.3866 4.3 13.7 4.6134 13.7 5C13.7 5.3866 13.3866 5.7 13 5.7H11C9.58831 5.7 8.57165 5.70054 7.773 5.7658C6.98253 5.83038 6.46748 5.95485 6.04783 6.16867C5.23874 6.58093 4.58092 7.23874 4.16866 8.04784C3.97086 8.43606 3.83544 9.13704 3.76712 10.4172C3.70023 11.6704 3.69999 13.3619 3.69999 15.6556C3.69999 16.1843 3.70192 16.5073 3.75773 16.8278C3.81072 17.132 3.91831 17.4608 4.16866 17.9522C4.58092 18.7613 5.23874 19.4191 6.04783 19.8313C6.46748 20.0452 6.98253 20.1696 7.773 20.2342C8.57165 20.2995 9.58831 20.3 11 20.3C12.4117 20.3 13.4283 20.2995 14.227 20.2342C15.0175 20.1696 15.5325 20.0452 15.9522 19.8313C16.7612 19.4191 17.4191 18.7613 17.8313 17.9522C18.0451 17.5325 18.1696 17.0175 18.2342 16.227C18.2994 15.4283 18.3 14.4117 18.3 13V11C18.3 10.6134 18.6134 10.3 19 10.3C19.3866 10.3 19.7 10.6134 19.7 11V13.0314C19.7 14.4049 19.7 15.4787 19.6295 16.341C19.5579 17.218 19.4099 17.9378 19.0787 18.5877C18.5323 19.6603 17.6603 20.5323 16.5877 21.0787C15.9378 21.4099 15.218 21.5579 14.341 21.6296C13.4787 21.7 12.4049 21.7 11.0314 21.7H10.9686C9.59505 21.7 8.52131 21.7 7.659 21.6296C6.78195 21.5579 6.06215 21.4099 5.41225 21.0787C4.33972 20.5323 3.46773 19.6603 2.92125 18.5877C2.62664 18.0095 2.46175 17.5461 2.37849 17.068C2.29991 16.6167 2.29995 16.1773 2.29999 15.6899L2.29999 15.6318C2.29999 13.3665 2.29999 11.6376 2.36911 10.3426C2.43703 9.07005 2.5741 8.09359 2.92125 7.41225C3.46773 6.33973 4.33972 5.46774 5.41225 4.92126C6.06215 4.59012 6.78195 4.4421 7.659 4.37045C8.5213 4.29999 9.59503 4.3 10.9685 4.3Z" fill="#222628"/>
</svg>
