<svg width="24" height="24" viewBox="0 0 24 24" fill="none" xmlns="http://www.w3.org/2000/svg">
<path fill-rule="evenodd" clip-rule="evenodd" d="M4 12.7C4.3866 12.7 4.7 12.3866 4.7 12L4.7 6.49995C4.7 6.11335 4.3866 5.79995 4 5.79995C3.6134 5.79995 3.3 6.11335 3.3 6.49995L3.3 12C3.3 12.3866 3.6134 12.7 4 12.7Z" fill="#222628"/>
<path fill-rule="evenodd" clip-rule="evenodd" d="M11.81 18.0625C11.6893 18.1228 11.5768 18.0898 11.5187 18.028C9.97107 16.384 8.23319 13.6947 7.54953 12.5993C7.42987 12.4076 7.36663 12.1831 7.36663 11.9461L7.36663 7.53869C7.36663 7.11544 7.57267 6.71869 7.9189 6.47525L8.68498 5.9366C8.90393 5.78265 9.16506 5.70004 9.43271 5.70004L14.4681 5.70004C14.9703 5.70004 15.4276 5.98933 15.6428 6.44315L18.3517 12.1574C18.6033 12.6881 18.2162 13.3001 17.6288 13.3001L12.9716 13.3001C11.9956 13.3001 11.4278 14.4033 11.9951 15.1975L13.2502 16.9546C13.3573 17.1046 13.3051 17.3149 13.1402 17.3973L11.81 18.0625ZM10.4993 18.9876C11.015 19.5355 11.8079 19.6287 12.4361 19.3147L13.7663 18.6495C14.7007 18.1824 14.9966 16.9909 14.3894 16.1409L13.3602 14.7001L17.6288 14.7001C19.2442 14.7001 20.3087 13.0173 19.6168 11.5576L16.9078 5.84343C16.461 4.90088 15.5112 4.30004 14.4681 4.30004L9.43271 4.30004C8.87682 4.30004 8.33447 4.47162 7.87973 4.79136L7.11365 5.33001C6.39456 5.83562 5.96663 6.65964 5.96663 7.53869L5.96663 11.9461C5.96663 12.434 6.09766 12.9172 6.36186 13.3406C7.04124 14.4291 8.84473 17.23 10.4993 18.9876Z" fill="#222628"/>
</svg>
