<svg width="24" height="24" viewBox="0 0 24 24" fill="none" xmlns="http://www.w3.org/2000/svg">
<path fill-rule="evenodd" clip-rule="evenodd" d="M3.66003 4.70005C3.40628 4.70005 3.19999 4.90554 3.19999 5.1615C3.19999 6.1262 3.6188 7.04338 4.34781 7.67519L9.92272 12.5068C10.4164 12.9346 10.7 13.5557 10.7 14.209V19.7371L12.689 18.494C13.0691 18.2564 13.3 17.8398 13.3 17.3916V14.209C13.3 13.5557 13.5836 12.9346 14.0773 12.5068L19.6522 7.67519C20.3812 7.04338 20.8 6.1262 20.8 5.1615C20.8 4.90554 20.5937 4.70005 20.3399 4.70005H3.66003ZM1.79999 5.1615C1.79999 4.13455 2.63087 3.30005 3.66003 3.30005H20.3399C21.3691 3.30005 22.2 4.13455 22.2 5.1615C22.2 6.53222 21.6049 7.83543 20.5691 8.73315L14.9942 13.5647C14.8073 13.7267 14.7 13.9617 14.7 14.209V17.3916C14.7 18.3225 14.2204 19.1878 13.431 19.6811L11.136 21.1155C10.3367 21.6151 9.29999 21.0404 9.29999 20.0979V14.209C9.29999 13.9617 9.19265 13.7267 9.00582 13.5647L3.43091 8.73316C2.39507 7.83543 1.79999 6.53222 1.79999 5.1615Z" fill="#222628"/>
</svg>
