<svg width="24" height="24" viewBox="0 0 24 24" fill="none" xmlns="http://www.w3.org/2000/svg">
<path fill-rule="evenodd" clip-rule="evenodd" d="M4.99999 5.70005C3.72973 5.70005 2.69999 6.72979 2.69999 8.00005C2.69999 9.2703 3.72973 10.3 4.99999 10.3C6.27024 10.3 7.29999 9.2703 7.29999 8.00005C7.29999 6.72979 6.27024 5.70005 4.99999 5.70005ZM1.29999 8.00005C1.29999 5.9566 2.95653 4.30005 4.99999 4.30005C7.04344 4.30005 8.69999 5.9566 8.69999 8.00005C8.69999 10.0435 7.04344 11.7 4.99999 11.7C2.95653 11.7 1.29999 10.0435 1.29999 8.00005Z" fill="#222628"/>
<path fill-rule="evenodd" clip-rule="evenodd" d="M19 15.7C17.7297 15.7 16.7 16.7298 16.7 18C16.7 19.2703 17.7297 20.3 19 20.3C20.2702 20.3 21.3 19.2703 21.3 18C21.3 16.7298 20.2702 15.7 19 15.7ZM15.3 18C15.3 15.9566 16.9565 14.3 19 14.3C21.0434 14.3 22.7 15.9566 22.7 18C22.7 20.0435 21.0434 21.7 19 21.7C16.9565 21.7 15.3 20.0435 15.3 18Z" fill="#222628"/>
<path fill-rule="evenodd" clip-rule="evenodd" d="M22.7 7.99995C22.7 8.38655 22.3866 8.69995 22 8.69995L12 8.69995C11.6134 8.69995 11.3 8.38655 11.3 7.99995C11.3 7.61335 11.6134 7.29995 12 7.29995L22 7.29995C22.3866 7.29995 22.7 7.61335 22.7 7.99995Z" fill="#222628"/>
<path fill-rule="evenodd" clip-rule="evenodd" d="M12.7 18C12.7 18.3866 12.3866 18.7 12 18.7H2.00001C1.61341 18.7 1.30001 18.3866 1.30001 18C1.30001 17.6134 1.61341 17.3 2.00001 17.3H12C12.3866 17.3 12.7 17.6134 12.7 18Z" fill="#222628"/>
</svg>
