<svg width="24" height="24" viewBox="0 0 24 24" fill="none" xmlns="http://www.w3.org/2000/svg">
<path fill-rule="evenodd" clip-rule="evenodd" d="M13.5003 5.75964C13.6314 5.76716 13.8056 5.80265 14.1395 5.87444C15.0966 6.08022 16.0113 6.46539 16.8335 7.01473C18.1162 7.87181 19.1159 9.09 19.7063 10.5153C20.2966 11.9405 20.4511 13.5088 20.1501 15.0219C19.8492 16.535 19.1063 17.9248 18.0154 19.0156C16.9246 20.1065 15.5348 20.8494 14.0217 21.1503C12.5087 21.4513 10.9403 21.2968 9.51508 20.7065C8.08981 20.1161 6.87162 19.1163 6.01455 17.8336C5.4652 17.0115 5.08003 16.0968 4.87425 15.1397C4.80247 14.8058 4.76697 14.6316 4.75945 14.5005C4.75404 14.4061 4.76632 14.382 4.78036 14.3563C4.78036 14.3564 4.78282 14.3521 4.78844 14.3439C4.79462 14.3349 4.80258 14.3242 4.81173 14.3129C4.82088 14.3015 4.82969 14.2915 4.83719 14.2836C4.84505 14.2752 4.84871 14.2721 4.84738 14.2733C4.84768 14.273 4.84803 14.2727 4.84842 14.2723C4.85572 14.2656 4.88125 14.2422 5.01275 14.2242C5.17803 14.2017 5.40454 14.2002 5.80001 14.2002H8.93873C9.65573 14.2002 10.2499 14.2002 10.7285 14.1484C11.2288 14.0942 11.6849 13.9767 12.087 13.6845C12.3162 13.518 12.5178 13.3164 12.6844 13.0872C12.9765 12.6851 13.094 12.2289 13.1482 11.7287C13.2 11.2501 13.2 10.6559 13.2 9.93888L13.2 6.8002C13.2 6.40473 13.2015 6.17821 13.224 6.01294C13.242 5.88144 13.2654 5.85591 13.2722 5.84861C13.2725 5.84822 13.2728 5.84787 13.2731 5.84757C13.2719 5.8489 13.2751 5.84524 13.2834 5.83738C13.2913 5.82988 13.3013 5.82107 13.3127 5.81192C13.324 5.80276 13.3347 5.79481 13.3437 5.78863M13.5003 5.75964C13.4058 5.75422 13.3818 5.7665 13.3562 5.78055L13.5003 5.75964ZM14.3249 4.482C13.8105 4.36919 13.2448 4.24515 12.6831 4.55294C12.5179 4.64344 12.3374 4.78933 12.2142 4.93179C11.9756 5.20761 11.8789 5.51576 11.8369 5.82381C11.7999 6.09501 11.8 6.41866 11.8 6.76137C11.8 6.77429 11.8 6.78723 11.8 6.8002L11.8 9.9002C11.8 10.6657 11.799 11.1837 11.7563 11.5779C11.715 11.959 11.6416 12.1407 11.5517 12.2643C11.4715 12.3747 11.3745 12.4717 11.2641 12.5519C11.1405 12.6418 10.9588 12.7152 10.5777 12.7565C10.1835 12.7992 9.66555 12.8002 8.90001 12.8002L5.76115 12.8002C5.41845 12.8001 5.09481 12.8001 4.82362 12.8371C4.51557 12.8791 4.20742 12.9758 3.9316 13.2143C3.78914 13.3375 3.64326 13.5181 3.55275 13.6833C3.24496 14.245 3.36901 14.8107 3.48181 15.3251C3.48982 15.3616 3.49778 15.3979 3.50553 15.4339C3.74823 16.5628 4.20254 17.6417 4.85049 18.6114C5.8614 20.1244 7.29824 21.3036 8.97932 21.9999C10.6604 22.6962 12.5102 22.8784 14.2948 22.5234C16.0795 22.1684 17.7187 21.2922 19.0054 20.0056C20.292 18.7189 21.1682 17.0797 21.5232 15.295C21.8782 13.5104 21.696 11.6606 20.9997 9.97951C20.3034 8.29843 19.1242 6.86158 17.6113 5.85068C16.6415 5.20273 15.5626 4.74842 14.4338 4.50572C14.3977 4.49797 14.3614 4.49001 14.3249 4.482Z" fill="#222628"/>
<path fill-rule="evenodd" clip-rule="evenodd" d="M3.01444 10.2771C3.18048 10.2988 3.40755 10.3002 3.80001 10.3002L6.40001 10.3002C7.16554 10.3002 7.68347 10.2992 8.0777 10.2565C8.45883 10.2152 8.64048 10.1417 8.76413 10.0519C8.87449 9.97173 8.97154 9.87467 9.05173 9.76431C9.14156 9.64066 9.21504 9.45902 9.25633 9.07789C9.29904 8.68365 9.30001 8.16573 9.3 7.40019L9.3 4.80019C9.3 4.40773 9.29862 4.18066 9.27693 4.01462C9.25927 3.87956 9.23567 3.85391 9.23101 3.84884C9.23077 3.84859 9.23115 3.84901 9.23101 3.84884C9.23104 3.84888 9.23031 3.84804 9.2299 3.84759C9.22943 3.84705 9.22865 3.84617 9.22753 3.84496L9.21913 3.83632C9.21186 3.82913 9.2029 3.82088 9.19285 3.81238C9.1828 3.80388 9.17318 3.79641 9.16489 3.79042L9.15498 3.78358C9.15244 3.78191 9.15119 3.78118 9.15128 3.78123L9.14996 3.78046C9.13288 3.77044 9.10755 3.75558 9.0011 3.75803C8.86006 3.76127 8.67176 3.7912 8.32483 3.84944C7.78217 3.94053 7.28305 4.06797 6.91591 4.22004C6.08733 4.56325 5.33446 5.06631 4.70029 5.70048C4.06613 6.33465 3.56308 7.08752 3.21986 7.9161C3.06779 8.28323 2.94035 8.78236 2.84926 9.32502C2.79102 9.67194 2.76109 9.86025 2.75785 10.0013C2.7554 10.1077 2.77026 10.1331 2.78028 10.1501L2.78105 10.1515C2.781 10.1514 2.78173 10.1526 2.7834 10.1552L2.79024 10.1651C2.79623 10.1734 2.8037 10.183 2.8122 10.193C2.8207 10.2031 2.82895 10.212 2.83614 10.2193L2.84478 10.2277C2.84701 10.2298 2.84812 10.2307 2.84804 10.2306C2.8482 10.2308 2.84778 10.2304 2.84804 10.2306C2.8531 10.2353 2.87938 10.2595 3.01444 10.2771ZM2.83303 11.6653C2.53145 11.6259 2.22647 11.5351 1.95167 11.3061C1.80863 11.1868 1.66598 11.0182 1.57209 10.8574C1.39949 10.5619 1.3514 10.2656 1.35822 9.96909C1.36406 9.71508 1.41269 9.42576 1.46232 9.13046C1.4644 9.11807 1.46649 9.10567 1.46857 9.09325C1.56887 8.49573 1.71839 7.88262 1.92643 7.38034C2.34 6.3819 2.94617 5.4747 3.71034 4.71053C4.47452 3.94636 5.38172 3.34018 6.38016 2.92661C6.88243 2.71856 7.49555 2.56905 8.09307 2.46875C8.10548 2.46667 8.11789 2.46458 8.13028 2.4625C8.42557 2.41287 8.71489 2.36424 8.96891 2.3584C9.2654 2.35158 9.5617 2.39967 9.85726 2.57227C10.0181 2.66616 10.1866 2.80881 10.3059 2.95185C10.5349 3.22665 10.6257 3.53163 10.6651 3.83321C10.7001 4.10087 10.7001 4.42102 10.7 4.76242C10.7 4.77498 10.7 4.78757 10.7 4.80019L10.7 7.43889C10.7 8.15589 10.7 8.75012 10.6482 9.22868C10.594 9.72893 10.4765 10.1851 10.1844 10.5872C10.0178 10.8164 9.81624 11.018 9.58703 11.1845C9.18494 11.4767 8.72875 11.5942 8.2285 11.6484C7.74994 11.7002 7.15571 11.7002 6.4387 11.7002L3.80001 11.7002C3.78739 11.7002 3.7748 11.7002 3.76224 11.7002C3.42084 11.7002 3.10069 11.7003 2.83303 11.6653Z" fill="#222628"/>
</svg>
