<svg width="24" height="24" viewBox="0 0 24 24" fill="none" xmlns="http://www.w3.org/2000/svg">
<path fill-rule="evenodd" clip-rule="evenodd" d="M11.4625 4.94857C10.6628 3.99031 8.96638 3.19754 6.48891 3.95576C4.04635 4.70328 1.80158 7.68374 3.05424 11.3734L3.0545 11.3741C3.90178 13.8793 5.93787 16.1276 7.94539 17.7713C8.94117 18.5866 9.90879 19.2359 10.6801 19.6777C11.0664 19.899 11.3951 20.0635 11.6473 20.1702C11.7736 20.2237 11.8724 20.2591 11.944 20.2801C11.9688 20.2874 11.987 20.2919 11.9993 20.2947C12.0117 20.2919 12.0298 20.2873 12.0545 20.28C12.1265 20.2587 12.2258 20.2227 12.353 20.1684C12.6068 20.0601 12.9377 19.8935 13.3265 19.6697C14.1027 19.2229 15.0761 18.5677 16.0757 17.7483C18.0922 16.0953 20.1251 13.8485 20.9428 11.3784L20.9445 11.3732L20.9446 11.3732C22.2019 7.67296 20.1131 4.75534 17.5004 3.95576C15.0334 3.2008 13.3371 3.99034 12.5374 4.94859C12.4044 5.10796 12.2075 5.20008 11.9999 5.20008C11.7923 5.20007 11.5955 5.10794 11.4625 4.94857ZM12 3.50838C10.7118 2.40535 8.63992 1.83336 6.07921 2.61705L6.28222 3.2804L6.0792 2.61705C2.95368 3.57359 0.198707 7.316 1.72829 11.8227C2.69787 14.6895 4.96598 17.1412 7.05847 18.8545C8.11269 19.7177 9.14404 20.4112 9.9842 20.8925C10.4036 21.1328 10.7838 21.3249 11.1015 21.4595C11.2601 21.5266 11.4116 21.583 11.5503 21.6236C11.6784 21.6612 11.8385 21.6984 11.9999 21.6984C12.1626 21.6984 12.3237 21.6603 12.4521 21.6223C12.5912 21.5812 12.7432 21.5241 12.9024 21.4561C13.2215 21.32 13.6035 21.1256 14.025 20.883C14.8693 20.397 15.9057 19.6979 16.9632 18.831C19.0603 17.112 21.3304 14.6597 22.271 11.8209C23.797 7.32572 21.2279 3.63242 17.91 2.61705C15.3587 1.83624 13.2881 2.40604 12 3.50838Z" fill="#222628"/>
</svg>
