<svg width="24" height="24" viewBox="0 0 24 24" fill="none" xmlns="http://www.w3.org/2000/svg">
<path fill-rule="evenodd" clip-rule="evenodd" d="M3.41634 9.28669C2.23556 12.5439 2.46971 16.6456 3.0625 19.8736C3.13233 20.2539 2.88069 20.6187 2.50045 20.6885C2.12021 20.7584 1.75536 20.5067 1.68553 20.1265C1.0776 16.816 0.792179 12.4177 2.10015 8.80956C2.75957 6.99052 3.83272 5.34925 5.49215 4.16676C7.15288 2.98334 9.34386 2.30005 12.1674 2.30005C14.9905 2.30005 17.1617 2.98319 18.7904 4.17131C20.418 5.35862 21.4426 7.00546 22.0527 8.82567C23.2618 12.4332 22.8795 16.8298 22.2741 20.1265C22.2042 20.5067 21.8394 20.7584 21.4591 20.6885C21.0789 20.6187 20.8273 20.2539 20.8971 19.8736C21.4924 16.6319 21.8172 12.5285 20.7253 9.27058C20.1848 7.65809 19.3068 6.2809 17.9653 5.30235C16.625 4.32459 14.7606 3.70005 12.1674 3.70005C9.57474 3.70005 7.6833 4.32445 6.3046 5.3069C4.9246 6.29027 4.0013 7.67304 3.41634 9.28669Z" fill="#222628"/>
<path fill-rule="evenodd" clip-rule="evenodd" d="M2.29999 17C2.29999 14.9566 3.95654 13.3 5.99999 13.3C8.04345 13.3 9.69999 14.9566 9.69999 17V20C9.69999 22.0435 8.04345 23.7 5.99999 23.7C3.95654 23.7 2.29999 22.0435 2.29999 20V17ZM5.99999 14.7C4.72974 14.7 3.69999 15.7298 3.69999 17V20C3.69999 21.2703 4.72974 22.3 5.99999 22.3C7.27025 22.3 8.29999 21.2703 8.29999 20V17C8.29999 15.7298 7.27025 14.7 5.99999 14.7Z" fill="#222628"/>
<path fill-rule="evenodd" clip-rule="evenodd" d="M14.3 17C14.3 14.9566 15.9565 13.3 18 13.3C20.0434 13.3 21.7 14.9566 21.7 17V20C21.7 22.0435 20.0434 23.7 18 23.7C15.9565 23.7 14.3 22.0435 14.3 20V17ZM18 14.7C16.7297 14.7 15.7 15.7298 15.7 17V20C15.7 21.2703 16.7297 22.3 18 22.3C19.2702 22.3 20.3 21.2703 20.3 20V17C20.3 15.7298 19.2702 14.7 18 14.7Z" fill="#222628"/>
</svg>
