<svg width="24" height="24" viewBox="0 0 24 24" fill="none" xmlns="http://www.w3.org/2000/svg">
<path fill-rule="evenodd" clip-rule="evenodd" d="M12 2.59814L17.7817 7.29576C17.8175 7.32483 17.8528 7.35353 17.8878 7.3819C18.9456 8.24102 19.6181 8.78717 20.0479 9.51544C20.1894 9.75536 20.3094 10.0074 20.4063 10.2686C20.7006 11.0613 20.7004 11.9276 20.7 13.2905C20.7 13.3354 20.7 13.381 20.7 13.4271V14.8418C20.7 16.3063 20.7 17.4625 20.6005 18.3817C20.4985 19.3226 20.2855 20.0977 19.8024 20.7627C19.5125 21.1617 19.1616 21.5126 18.7626 21.8025C18.0977 22.2855 17.3227 22.4986 16.382 22.6005C15.4631 22.7001 14.3073 22.7001 12.8433 22.7001H11.1586C9.69397 22.7001 8.53768 22.7001 7.61851 22.6005C6.67753 22.4986 5.90239 22.2856 5.23744 21.8025C4.83843 21.5126 4.48754 21.1617 4.19765 20.7627C3.71454 20.0977 3.50154 19.3226 3.39959 18.3817C3.30001 17.4625 3.30002 16.3063 3.30003 14.8418L3.30003 13.4271C3.30003 13.381 3.30002 13.3354 3.30001 13.2904C3.29969 11.9276 3.2995 11.0613 3.59373 10.2686C3.69066 10.0074 3.81062 9.75536 3.95219 9.51544C4.38192 8.78717 5.05442 8.24102 6.1123 7.3819C6.14723 7.35353 6.18257 7.32483 6.21835 7.29576L12 2.59814ZM12 4.402L7.10118 8.38232C5.90093 9.35752 5.44414 9.74186 5.15793 10.2269C5.05853 10.3954 4.9743 10.5723 4.90625 10.7557C4.71028 11.2837 4.70003 11.8806 4.70003 13.4271V14.8001C4.70003 16.3156 4.70099 17.3959 4.79145 18.2309C4.88049 19.0527 5.04945 19.5532 5.33027 19.9398C5.53382 20.2199 5.78018 20.4663 6.06034 20.6698C6.44685 20.9506 6.94743 21.1196 7.7693 21.2087C8.60426 21.2991 9.68472 21.3001 11.2003 21.3001H12.8016C14.3165 21.3001 15.3965 21.2991 16.2312 21.2087C17.0527 21.1196 17.5532 20.9507 17.9397 20.6698C18.2199 20.4663 18.4662 20.2199 18.6698 19.9398C18.9506 19.5532 19.1196 19.0527 19.2086 18.2309C19.2991 17.3959 19.3 16.3156 19.3 14.8001V13.4271C19.3 11.8806 19.2898 11.2837 19.0938 10.7557C19.0258 10.5723 18.9415 10.3954 18.8421 10.2269C18.5559 9.74186 18.0991 9.35752 16.8989 8.38232L12 4.402Z" fill="#222628"/>
<path fill-rule="evenodd" clip-rule="evenodd" d="M12.6062 2.52212C12.9409 2.81045 12.9409 3.27793 12.6062 3.56625L2.81852 11.9958C2.48374 12.2841 1.94095 12.2841 1.60617 11.9958C1.27139 11.7075 1.27139 11.24 1.60617 10.9517L11.3938 2.52212C11.7286 2.2338 12.2714 2.2338 12.6062 2.52212Z" fill="#222628"/>
<path fill-rule="evenodd" clip-rule="evenodd" d="M11.3938 2.52212C11.0591 2.81045 11.0591 3.27793 11.3938 3.56625L21.1815 11.9958C21.5163 12.2841 22.0591 12.2841 22.3938 11.9958C22.7286 11.7075 22.7286 11.24 22.3938 10.9517L12.6062 2.52212C12.2714 2.2338 11.7286 2.2338 11.3938 2.52212Z" fill="#222628"/>
<path fill-rule="evenodd" clip-rule="evenodd" d="M9 18.1421C9 17.7555 9.3134 17.4421 9.7 17.4421H13.8C14.1866 17.4421 14.5 17.7555 14.5 18.1421C14.5 18.5287 14.1866 18.8421 13.8 18.8421H9.7C9.3134 18.8421 9 18.5287 9 18.1421Z" fill="#222628"/>
</svg>
