<svg width="24" height="24" viewBox="0 0 24 24" fill="none" xmlns="http://www.w3.org/2000/svg">
<path fill-rule="evenodd" clip-rule="evenodd" d="M12 6.30005C12.3866 6.30005 12.7 6.61345 12.7 7.00005V8.55276C12.7 8.93935 12.3866 9.25276 12 9.25276C11.6134 9.25276 11.3 8.93935 11.3 8.55276V7.00005C11.3 6.61345 11.6134 6.30005 12 6.30005Z" fill="#222628"/>
<path fill-rule="evenodd" clip-rule="evenodd" d="M12 14.8398C12.3866 14.8398 12.7 15.1532 12.7 15.5398V17.0926C12.7 17.4791 12.3866 17.7926 12 17.7926C11.6134 17.7926 11.3 17.4791 11.3 17.0926V15.5398C11.3 15.1532 11.6134 14.8398 12 14.8398Z" fill="#222628"/>
<path fill-rule="evenodd" clip-rule="evenodd" d="M16.2622 8.07563C16.5257 8.3585 16.51 8.80144 16.2272 9.06496L14.9772 10.2295C14.6943 10.493 14.2514 10.4773 13.9878 10.1945C13.7243 9.9116 13.74 9.46867 14.0229 9.20514L15.2729 8.04061C15.5557 7.77709 15.9987 7.79276 16.2622 8.07563Z" fill="#222628"/>
<path fill-rule="evenodd" clip-rule="evenodd" d="M13.9878 13.8983C14.2514 13.6154 14.6943 13.5998 14.9772 13.8633L16.2272 15.0278C16.51 15.2913 16.5257 15.7343 16.2622 16.0171C15.9987 16.3 15.5557 16.3157 15.2729 16.0522L14.0229 14.8876C13.74 14.6241 13.7243 14.1812 13.9878 13.8983Z" fill="#222628"/>
<path fill-rule="evenodd" clip-rule="evenodd" d="M7.73783 8.07555C8.00136 7.79268 8.44429 7.777 8.72716 8.04053L9.97716 9.20506C10.26 9.46858 10.2757 9.91152 10.0122 10.1944C9.74866 10.4773 9.30572 10.4929 9.02285 10.2294L7.77285 9.06488C7.48998 8.80135 7.47431 8.35842 7.73783 8.07555Z" fill="#222628"/>
<path fill-rule="evenodd" clip-rule="evenodd" d="M7.73782 16.0171C7.47429 15.7343 7.48997 15.2913 7.77284 15.0278L9.02284 13.8633C9.30571 13.5998 9.74864 13.6154 10.0122 13.8983C10.2757 14.1812 10.26 14.6241 9.97715 14.8876L8.72715 16.0522C8.44428 16.3157 8.00134 16.3 7.73782 16.0171Z" fill="#222628"/>
<path fill-rule="evenodd" clip-rule="evenodd" d="M14.6333 12.0464C14.6333 11.6598 14.9467 11.3464 15.3333 11.3464H17C17.3866 11.3464 17.7 11.6598 17.7 12.0464C17.7 12.433 17.3866 12.7464 17 12.7464H15.3333C14.9467 12.7464 14.6333 12.433 14.6333 12.0464Z" fill="#222628"/>
<path fill-rule="evenodd" clip-rule="evenodd" d="M6.3 12.0464C6.3 11.6598 6.6134 11.3464 7 11.3464H8.66667C9.05327 11.3464 9.36667 11.6598 9.36667 12.0464C9.36667 12.433 9.05327 12.7464 8.66667 12.7464H7C6.6134 12.7464 6.3 12.433 6.3 12.0464Z" fill="#222628"/>
<path fill-rule="evenodd" clip-rule="evenodd" d="M11.9645 1.30005H12.0355C13.8747 1.30004 15.3027 1.30004 16.443 1.40339C17.6002 1.50827 18.5296 1.72399 19.35 2.19768C20.3685 2.78573 21.2143 3.63152 21.8024 4.65005C22.2761 5.4705 22.4918 6.39985 22.5967 7.55705C22.7 8.69733 22.7 10.1254 22.7 11.9647V12.0354C22.7 13.8747 22.7 15.3028 22.5967 16.443C22.4918 17.6002 22.2761 18.5296 21.8024 19.35C21.2143 20.3686 20.3685 21.2144 19.35 21.8024C18.5296 22.2761 17.6002 22.4918 16.443 22.5967C15.3027 22.7001 13.8747 22.7001 12.0354 22.7001H11.9646C10.1253 22.7001 8.69729 22.7001 7.55701 22.5967C6.3998 22.4918 5.47045 22.2761 4.65 21.8024C3.63147 21.2144 2.78568 20.3686 2.19763 19.35C1.72395 18.5296 1.50822 17.6002 1.40334 16.443C1.3 15.3028 1.3 13.8747 1.3 12.0355V11.9646C1.3 10.1254 1.3 8.69732 1.40334 7.55705C1.50822 6.39985 1.72395 5.4705 2.19763 4.65005C2.78568 3.63152 3.63147 2.78573 4.65 2.19768C5.47045 1.72399 6.3998 1.50827 7.55701 1.40339C8.69727 1.30004 10.1253 1.30004 11.9645 1.30005ZM7.68338 2.79767C6.62327 2.89375 5.92186 3.07995 5.35 3.41011C4.5443 3.87529 3.87524 4.54435 3.41007 5.35005C3.07991 5.9219 2.89371 6.62332 2.79763 7.68342C2.70067 8.75315 2.7 10.1179 2.7 12C2.7 13.8822 2.70067 15.2469 2.79763 16.3167C2.89371 17.3768 3.07991 18.0782 3.41007 18.65C3.87524 19.4558 4.5443 20.1248 5.35 20.59C5.92186 20.9201 6.62327 21.1063 7.68338 21.2024C8.7531 21.2994 10.1179 21.3 12 21.3C13.8821 21.3 15.2469 21.2994 16.3166 21.2024C17.3767 21.1063 18.0781 20.9201 18.65 20.59C19.4557 20.1248 20.1248 19.4558 20.5899 18.65C20.9201 18.0782 21.1063 17.3768 21.2024 16.3167C21.2993 15.2469 21.3 13.8822 21.3 12C21.3 10.1179 21.2993 8.75315 21.2024 7.68342C21.1063 6.62332 20.9201 5.9219 20.5899 5.35005C20.1248 4.54435 19.4557 3.87529 18.65 3.41011C18.0781 3.07995 17.3767 2.89375 16.3166 2.79767C15.2469 2.70072 13.8821 2.70005 12 2.70005C10.1179 2.70005 8.7531 2.70072 7.68338 2.79767Z" fill="#222628"/>
</svg>
