<svg width="24" height="24" viewBox="0 0 24 24" fill="none" xmlns="http://www.w3.org/2000/svg">
<path fill-rule="evenodd" clip-rule="evenodd" d="M11.9645 1.30005H12.0355C13.8747 1.30004 15.3027 1.30004 16.443 1.40339C17.6002 1.50827 18.5296 1.72399 19.35 2.19768C20.3685 2.78573 21.2143 3.63152 21.8024 4.65005C22.2761 5.4705 22.4918 6.39985 22.5967 7.55705C22.7 8.69733 22.7 10.1254 22.7 11.9647V12.0354C22.7 13.8747 22.7 15.3028 22.5967 16.443C22.4918 17.6002 22.2761 18.5296 21.8024 19.35C21.2143 20.3686 20.3685 21.2144 19.35 21.8024C18.5296 22.2761 17.6002 22.4918 16.443 22.5967C15.3027 22.7001 13.8747 22.7001 12.0354 22.7001H11.9646C10.1253 22.7001 8.69729 22.7001 7.55701 22.5967C6.3998 22.4918 5.47045 22.2761 4.65 21.8024C3.63147 21.2144 2.78568 20.3686 2.19763 19.35C1.72395 18.5296 1.50822 17.6002 1.40334 16.443C1.3 15.3028 1.3 13.8747 1.3 12.0355V11.9646C1.3 10.1254 1.3 8.69732 1.40334 7.55705C1.50822 6.39985 1.72395 5.4705 2.19763 4.65005C2.78568 3.63152 3.63147 2.78573 4.65 2.19768C5.47045 1.72399 6.3998 1.50827 7.55701 1.40339C8.69727 1.30004 10.1253 1.30004 11.9645 1.30005ZM7.68338 2.79767C6.62327 2.89375 5.92186 3.07995 5.35 3.41011C4.5443 3.87529 3.87524 4.54435 3.41007 5.35005C3.07991 5.9219 2.89371 6.62332 2.79763 7.68342C2.70067 8.75315 2.7 10.1179 2.7 12C2.7 13.8822 2.70067 15.2469 2.79763 16.3167C2.89371 17.3768 3.07991 18.0782 3.41007 18.65C3.87524 19.4558 4.5443 20.1248 5.35 20.59C5.92186 20.9201 6.62327 21.1063 7.68338 21.2024C8.7531 21.2994 10.1179 21.3 12 21.3C13.8821 21.3 15.2469 21.2994 16.3166 21.2024C17.3767 21.1063 18.0781 20.9201 18.65 20.59C19.4557 20.1248 20.1248 19.4558 20.5899 18.65C20.9201 18.0782 21.1063 17.3768 21.2024 16.3167C21.2993 15.2469 21.3 13.8822 21.3 12C21.3 10.1179 21.2993 8.75315 21.2024 7.68342C21.1063 6.62332 20.9201 5.9219 20.5899 5.35005C20.1248 4.54435 19.4557 3.87529 18.65 3.41011C18.0781 3.07995 17.3767 2.89375 16.3166 2.79767C15.2469 2.70072 13.8821 2.70005 12 2.70005C10.1179 2.70005 8.7531 2.70072 7.68338 2.79767Z" fill="#222628"/>
<path fill-rule="evenodd" clip-rule="evenodd" d="M8.5 14.6C9.6598 14.6 10.6 13.6598 10.6 12.5C10.6 11.3402 9.6598 10.4 8.5 10.4C7.3402 10.4 6.4 11.3402 6.4 12.5C6.4 13.6598 7.3402 14.6 8.5 14.6ZM8.5 16C10.433 16 12 14.433 12 12.5C12 10.567 10.433 9 8.5 9C6.567 9 5 10.567 5 12.5C5 14.433 6.567 16 8.5 16Z" fill="#222628"/>
<path fill-rule="evenodd" clip-rule="evenodd" d="M15 15.7C14.6134 15.7 14.3 15.3866 14.3 15L14.3 13.3C14.3 12.4715 14.9716 11.8 15.8 11.8L16.7 11.8C17.5282 11.8 18.2 12.471 18.2 13.2997L18.2 14C18.2 14.3866 17.8866 14.7 17.5 14.7C17.1134 14.7 16.8 14.3866 16.8 14L16.8 13.2997C16.8 13.2448 16.7555 13.2 16.7 13.2L15.8 13.2C15.7448 13.2 15.7 13.2447 15.7 13.3L15.7 15C15.7 15.3866 15.3866 15.7 15 15.7Z" fill="#222628"/>
<path fill-rule="evenodd" clip-rule="evenodd" d="M18.5 13.2H11.5V11.8H18.5C18.8866 11.8 19.2 12.1134 19.2 12.5C19.2 12.8866 18.8866 13.2 18.5 13.2Z" fill="#222628"/>
</svg>
