<svg width="24" height="24" viewBox="0 0 24 24" fill="none" xmlns="http://www.w3.org/2000/svg">
<path fill-rule="evenodd" clip-rule="evenodd" d="M10.1582 4.30005H13.8418C15.3062 4.30004 16.4625 4.30003 17.3816 4.39961C18.3225 4.50156 19.0976 4.71456 19.7626 5.19767C20.1616 5.48756 20.5125 5.83845 20.8024 6.23746C21.2855 6.90241 21.4985 7.67752 21.6004 8.61846C21.7 9.53759 21.7 10.6938 21.7 12.1583V13.4387C21.7 14.1557 21.7 14.75 21.6482 15.2285C21.594 15.7288 21.4765 16.185 21.1843 16.5871C21.0178 16.8163 20.8162 17.0179 20.587 17.1844C20.1849 17.4765 19.7287 17.594 19.2285 17.6482C18.7499 17.7001 18.1557 17.7001 17.4387 17.7H6.56127C5.84427 17.7001 5.25005 17.7001 4.77149 17.6482C4.27125 17.594 3.81505 17.4765 3.41297 17.1844C3.18375 17.0179 2.98218 16.8163 2.81564 16.5871C2.52351 16.185 2.40601 15.7288 2.35181 15.2285C2.29996 14.75 2.29997 14.1558 2.29999 13.4387L2.29999 12.1583C2.29998 10.6938 2.29997 9.53758 2.39955 8.61846C2.5015 7.67752 2.7145 6.90241 3.19761 6.23746C3.4875 5.83845 3.83839 5.48756 4.2374 5.19767C4.90235 4.71456 5.67746 4.50156 6.6184 4.39961C7.53752 4.30003 8.69373 4.30004 10.1582 4.30005ZM6.7692 5.79147C5.94738 5.88051 5.44681 6.04947 5.0603 6.33029C4.78015 6.53384 4.53378 6.78021 4.33023 7.06036C4.04941 7.44687 3.88045 7.94744 3.79141 8.76926C3.70095 9.60418 3.69999 10.6846 3.69999 12.2V13.4C3.69999 14.1656 3.70095 14.6835 3.74366 15.0777C3.78496 15.4589 3.85843 15.6405 3.94827 15.7642C4.02845 15.8745 4.1255 15.9716 4.23587 16.0518C4.35952 16.1416 4.54116 16.2151 4.92229 16.2564C5.31652 16.2991 5.83445 16.3 6.59999 16.3H17.4C18.1655 16.3 18.6835 16.2991 19.0777 16.2564C19.4588 16.2151 19.6405 16.1416 19.7641 16.0518C19.8745 15.9716 19.9715 15.8745 20.0517 15.7642C20.1415 15.6405 20.215 15.4589 20.2563 15.0777C20.299 14.6835 20.3 14.1656 20.3 13.4V12.2C20.3 10.6846 20.299 9.60418 20.2086 8.76926C20.1195 7.94744 19.9506 7.44687 19.6697 7.06036C19.4662 6.78021 19.2198 6.53384 18.9397 6.33029C18.5532 6.04947 18.0526 5.88051 17.2308 5.79147C16.3959 5.70101 15.3155 5.70005 13.8 5.70005H10.2C8.6845 5.70005 7.60412 5.70101 6.7692 5.79147Z" fill="#222628"/>
<path fill-rule="evenodd" clip-rule="evenodd" d="M3.01839 17.3C2.62163 17.3 2.29999 17.6217 2.29999 18.0185C2.29999 18.9472 3.05286 19.7 3.98158 19.7H20.0192C20.9475 19.7 21.7 18.9475 21.7 18.0193C21.7 17.6221 21.378 17.3 20.9808 17.3H3.01839ZM11.5 17.8001C11.1134 17.8001 10.8 18.1135 10.8 18.5001C10.8 18.8867 11.1134 19.2001 11.5 19.2001H12.5C12.8866 19.2001 13.2 18.8867 13.2 18.5001C13.2 18.1135 12.8866 17.8001 12.5 17.8001H11.5Z" fill="#222628"/>
</svg>
