<svg width="24" height="24" viewBox="0 0 24 24" fill="none" xmlns="http://www.w3.org/2000/svg">
<path fill-rule="evenodd" clip-rule="evenodd" d="M6.12265 4.86575C4.65353 6.28645 3.7 8.45492 3.7 11.45C3.7 13.961 5.30584 16.6832 7.26729 18.8347C8.23533 19.8965 9.25856 20.784 10.1485 21.4003C10.5939 21.7088 10.9949 21.9416 11.33 22.0947C11.6805 22.2549 11.8996 22.3 12 22.3C12.1004 22.3 12.3195 22.2549 12.67 22.0947C13.0051 21.9416 13.4061 21.7088 13.8515 21.4003C14.7414 20.784 15.7647 19.8965 16.7327 18.8347C18.6942 16.6832 20.3 13.961 20.3 11.45C20.3 8.45492 19.3465 6.28645 17.8774 4.86575C16.4026 3.43961 14.3391 2.70005 12 2.70005C9.66093 2.70005 7.5974 3.43961 6.12265 4.86575ZM5.14943 3.85935C6.93204 2.13549 9.36851 1.30005 12 1.30005C14.6315 1.30005 17.068 2.13549 18.8506 3.85935C20.6388 5.58864 21.7 8.14518 21.7 11.45C21.7 14.4891 19.8058 17.5419 17.7673 19.7779C16.7353 20.9098 15.6336 21.8692 14.6485 22.5513C14.1564 22.8921 13.6824 23.1714 13.2518 23.3681C12.8368 23.5577 12.3996 23.7001 12 23.7001C11.6004 23.7001 11.1632 23.5577 10.7482 23.3681C10.3176 23.1714 9.84359 22.8921 9.35148 22.5513C8.36644 21.8692 7.26468 20.9098 6.23271 19.7779C4.19417 17.5419 2.3 14.4891 2.3 11.45C2.3 8.14518 3.3612 5.58864 5.14943 3.85935Z" fill="#222628"/>
<path fill-rule="evenodd" clip-rule="evenodd" d="M12 7.70005C10.5917 7.70005 9.45 8.84172 9.45 10.25C9.45 11.6584 10.5917 12.8 12 12.8C13.4083 12.8 14.55 11.6584 14.55 10.25C14.55 8.84172 13.4083 7.70005 12 7.70005ZM8.05 10.25C8.05 8.06852 9.81848 6.30005 12 6.30005C14.1815 6.30005 15.95 8.06852 15.95 10.25C15.95 12.4316 14.1815 14.2 12 14.2C9.81848 14.2 8.05 12.4316 8.05 10.25Z" fill="#222628"/>
</svg>
