<svg width="24" height="24" viewBox="0 0 24 24" fill="none" xmlns="http://www.w3.org/2000/svg">
<path fill-rule="evenodd" clip-rule="evenodd" d="M9.43734 8.30005C9.46483 8.30005 9.49266 8.30006 9.52081 8.30006L14.5627 8.30005C15.4841 8.29999 16.0378 8.29994 16.5045 8.37784C19.0787 8.80753 21.0323 10.9307 21.2467 13.5317C21.2856 14.0033 21.2396 14.555 21.163 15.4733L21.1502 15.6266C21.0843 16.4187 21.0445 16.8961 20.9468 17.3101C20.4112 19.5781 18.5489 21.2917 16.2442 21.6371C15.8235 21.7001 15.3444 21.7001 14.5496 21.7001H9.4504C8.6556 21.7001 8.17649 21.7001 7.75584 21.6371C5.45117 21.2917 3.58888 19.5781 3.05327 17.3101C2.95551 16.8961 2.91575 16.4187 2.8498 15.6266C2.84787 15.6035 2.84593 15.5801 2.84396 15.5565C2.84162 15.5284 2.8393 15.5007 2.83702 15.4733C2.76043 14.555 2.71441 14.0033 2.75328 13.5317C2.96771 10.9307 4.9213 8.80753 7.49556 8.37784C7.96224 8.29994 8.51589 8.29999 9.43734 8.30005ZM9.52081 9.70006C8.49097 9.70006 8.063 9.70249 7.72606 9.75874C5.78407 10.0829 4.31031 11.6846 4.14855 13.6468C4.12048 13.9872 4.1536 14.4139 4.23912 15.4402C4.31274 16.3236 4.34513 16.6891 4.41579 16.9883C4.81984 18.6993 6.22473 19.992 7.96334 20.2526C8.26738 20.2981 8.63436 20.3001 9.52081 20.3001H14.4792C15.3657 20.3001 15.7326 20.2981 16.0367 20.2526C17.7753 19.992 19.1802 18.6993 19.5842 16.9883C19.6549 16.6891 19.6873 16.3236 19.7609 15.4402C19.8464 14.4139 19.8795 13.9872 19.8515 13.6468C19.6897 11.6846 18.216 10.0829 16.274 9.75874C15.937 9.70249 15.5091 9.70006 14.4792 9.70006H9.52081Z" fill="#222628"/>
<path fill-rule="evenodd" clip-rule="evenodd" d="M8.19998 8.50221L8.20004 8.50055L8.20078 8.47492C8.20168 8.45018 8.20355 8.41069 8.20742 8.35855C8.21519 8.25405 8.23088 8.10019 8.26244 7.91373C8.32611 7.5375 8.45136 7.04647 8.6934 6.56387C8.93412 6.08393 9.28337 5.62543 9.79285 5.28542C10.2978 4.94843 11.0014 4.70005 12 4.70005C12.9986 4.70005 13.7011 4.94843 14.2047 5.28509C14.7127 5.62476 15.0604 6.08282 15.2996 6.56248C15.5402 7.04483 15.6641 7.53568 15.7267 7.91187C15.7577 8.0983 15.773 8.25213 15.7805 8.35663C15.7842 8.40876 15.786 8.44825 15.7868 8.47298L15.7875 8.49861L15.7875 8.50143L15.7875 8.5009C15.7875 8.50059 15.7875 8.50027 16.4875 8.50005L15.7875 8.50027C15.7875 8.50098 15.7875 8.50169 15.7875 8.50241C15.7888 8.88802 16.1019 9.20017 16.4877 9.20005C16.8743 9.19993 17.1876 8.88643 17.1875 8.49983L16.5177 8.50004C17.1875 8.49982 17.1875 8.49946 17.1875 8.49909L17.1875 8.49825L17.1875 8.49626L17.1875 8.49103L17.1873 8.47567C17.1871 8.46328 17.1867 8.44665 17.186 8.42604C17.1846 8.38485 17.182 8.32767 17.1769 8.25675C17.1668 8.11515 17.1469 7.91742 17.1077 7.68198C17.0299 7.21441 16.873 6.58026 16.5525 5.93761C16.2306 5.29228 15.7368 4.62534 14.9828 4.12126C14.2244 3.61417 13.2445 3.30005 12 3.30005C10.7555 3.30005 9.77506 3.61417 9.01571 4.12092C8.26087 4.62467 7.7655 5.29117 7.44198 5.93623C7.11979 6.57862 6.96119 7.2126 6.88207 7.68012C6.84223 7.91553 6.82179 8.11324 6.81127 8.25483C6.806 8.32574 6.8032 8.38292 6.8017 8.42411C6.80095 8.44471 6.80053 8.46135 6.80029 8.47373L6.80006 8.48909L6.80001 8.49432L6.8 8.49632L6.79999 8.49716C6.79999 8.49753 6.79999 8.49788 7.46978 8.49996L6.79999 8.49789C6.7988 8.88449 7.11123 9.19885 7.49783 9.20005C7.88422 9.20124 8.19845 8.88914 8.19998 8.50284L8.19998 8.50414L8.19998 8.50337L8.19998 8.50284L8.19998 8.50221Z" fill="#222628"/>
<path fill-rule="evenodd" clip-rule="evenodd" d="M12 17.7C11.6134 17.7 11.3 17.3866 11.3 17L11.3 15C11.3 14.6134 11.6134 14.3 12 14.3C12.3866 14.3 12.7 14.6134 12.7 15L12.7 17C12.7 17.3866 12.3866 17.7 12 17.7Z" fill="#222628"/>
</svg>
