<svg width="24" height="24" viewBox="0 0 24 24" fill="none" xmlns="http://www.w3.org/2000/svg">
<path fill-rule="evenodd" clip-rule="evenodd" d="M11.9645 1.30005H12.0355C13.8747 1.30004 15.3027 1.30004 16.443 1.40339C17.6002 1.50827 18.5296 1.72399 19.35 2.19768C20.3685 2.78573 21.2143 3.63152 21.8024 4.65005C22.2761 5.4705 22.4918 6.39985 22.5967 7.55705C22.7 8.69733 22.7 10.1254 22.7 11.9647V12.0354C22.7 13.8747 22.7 15.3028 22.5967 16.443C22.4918 17.6002 22.2761 18.5296 21.8024 19.35C21.2143 20.3686 20.3685 21.2144 19.35 21.8024C18.5296 22.2761 17.6002 22.4918 16.443 22.5967C15.3027 22.7001 13.8747 22.7001 12.0354 22.7001H11.9646C10.1253 22.7001 8.69729 22.7001 7.55701 22.5967C6.3998 22.4918 5.47045 22.2761 4.65 21.8024C3.63147 21.2144 2.78568 20.3686 2.19763 19.35C1.72395 18.5296 1.50822 17.6002 1.40334 16.443C1.3 15.3028 1.3 13.8747 1.3 12.0355V11.9646C1.3 10.1254 1.3 8.69732 1.40334 7.55705C1.50822 6.39985 1.72395 5.4705 2.19763 4.65005C2.78568 3.63152 3.63147 2.78573 4.65 2.19768C5.47045 1.72399 6.3998 1.50827 7.55701 1.40339C8.69727 1.30004 10.1253 1.30004 11.9645 1.30005ZM7.68338 2.79767C6.62327 2.89375 5.92186 3.07995 5.35 3.41011C4.5443 3.87529 3.87524 4.54435 3.41007 5.35005C3.07991 5.9219 2.89371 6.62332 2.79763 7.68342C2.70067 8.75315 2.7 10.1179 2.7 12C2.7 13.8822 2.70067 15.2469 2.79763 16.3167C2.89371 17.3768 3.07991 18.0782 3.41007 18.65C3.87524 19.4558 4.5443 20.1248 5.35 20.59C5.92186 20.9201 6.62327 21.1063 7.68338 21.2024C8.7531 21.2994 10.1179 21.3 12 21.3C13.8821 21.3 15.2469 21.2994 16.3166 21.2024C17.3767 21.1063 18.0781 20.9201 18.65 20.59C19.4557 20.1248 20.1248 19.4558 20.5899 18.65C20.9201 18.0782 21.1063 17.3768 21.2024 16.3167C21.2993 15.2469 21.3 13.8822 21.3 12C21.3 10.1179 21.2993 8.75315 21.2024 7.68342C21.1063 6.62332 20.9201 5.9219 20.5899 5.35005C20.1248 4.54435 19.4557 3.87529 18.65 3.41011C18.0781 3.07995 17.3767 2.89375 16.3166 2.79767C15.2469 2.70072 13.8821 2.70005 12 2.70005C10.1179 2.70005 8.7531 2.70072 7.68338 2.79767Z" fill="#222628"/>
<path fill-rule="evenodd" clip-rule="evenodd" d="M10.6835 9.15127C10.393 9.41672 10.2 9.81099 10.2 10.3462V10.3462C10.2 10.8467 10.2833 11.1433 10.3937 11.3458C10.5033 11.5468 10.6749 11.7205 10.9705 11.9182C11.1649 12.0482 11.2815 12.2667 11.2813 12.5006L11.2798 14.5483C11.2797 14.7032 11.2527 14.8586 11.2383 14.9417C11.2362 14.9536 11.2344 14.9641 11.233 14.9728C11.2013 15.1658 11.3598 15.3677 11.5813 15.3677H12.6166C12.6144 15.3677 12.6132 15.3677 12.6132 15.3675C12.613 15.366 12.6736 15.3545 12.7491 15.2624C12.8274 15.1667 12.8565 15.0586 12.8459 14.9743C12.8447 14.9642 12.8428 14.9512 12.8406 14.9357C12.8274 14.8421 12.8015 14.6582 12.8108 14.483L12.9185 12.4628C12.9302 12.2426 13.045 12.0408 13.2283 11.9182C13.5244 11.7202 13.6967 11.5462 13.8069 11.3449C13.9177 11.1423 14.0014 10.846 14.0014 10.3462C14.0014 9.41936 13.1852 8.70005 11.9999 8.70005C11.4284 8.70005 10.9806 8.87985 10.6835 9.15127ZM9.73919 8.11772C10.333 7.57516 11.1352 7.30005 11.9999 7.30005C13.6873 7.30005 15.4014 8.40037 15.4014 10.3462C15.4014 11.0003 15.2918 11.5476 15.035 12.0169C14.8416 12.3705 14.5848 12.6425 14.2988 12.8697L14.2088 14.5575C14.2073 14.5873 14.2103 14.6105 14.2204 14.687C14.2242 14.7159 14.229 14.7523 14.235 14.7997C14.301 15.3248 14.1126 15.8071 13.8322 16.1494C13.5601 16.4816 13.1274 16.7677 12.6175 16.7677H11.5813C10.4969 16.7677 9.67968 15.7922 9.8515 14.746C9.85475 14.7262 9.85765 14.7086 9.86024 14.693C9.87558 14.6002 9.87976 14.5749 9.87978 14.5473L9.88103 12.8545C9.6026 12.63 9.35321 12.362 9.16453 12.016C8.90864 11.5467 8.79997 10.9996 8.8 10.3462M9.73919 8.11772C9.13883 8.66626 8.80001 9.44503 8.8 10.3461L9.73919 8.11772Z" fill="#222628"/>
</svg>
