<svg width="24" height="24" viewBox="0 0 24 24" fill="none" xmlns="http://www.w3.org/2000/svg">
<path fill-rule="evenodd" clip-rule="evenodd" d="M3.29999 12C3.29999 11.6134 3.61339 11.3 3.99999 11.3L14 11.3C14.3866 11.3 14.7 11.6134 14.7 12C14.7 12.3866 14.3866 12.7 14 12.7L3.99999 12.7C3.61339 12.7 3.29999 12.3866 3.29999 12Z" fill="#222628"/>
<path fill-rule="evenodd" clip-rule="evenodd" d="M15.2424 12.4244C15.0081 12.6587 14.6282 12.6587 14.3939 12.4244L11.2424 9.2729C11.0081 9.03858 11.0081 8.65868 11.2424 8.42437C11.4768 8.19005 11.8567 8.19005 12.091 8.42437L15.2424 11.5758C15.4768 11.8102 15.4768 12.1901 15.2424 12.4244Z" fill="#222628"/>
<path fill-rule="evenodd" clip-rule="evenodd" d="M15.2424 11.5759C15.0081 11.3416 14.6282 11.3416 14.3939 11.5759L11.2424 14.7273C11.0081 14.9617 11.0081 15.3416 11.2424 15.5759C11.4768 15.8102 11.8567 15.8102 12.091 15.5759L15.2424 12.4244C15.4768 12.1901 15.4768 11.8102 15.2424 11.5759Z" fill="#222628"/>
<path fill-rule="evenodd" clip-rule="evenodd" d="M11.8 21C11.8 20.6134 12.1134 20.3 12.5 20.3L16.6773 20.3C17.8428 20.3 18.8089 19.4338 18.919 18.2921C19.1005 16.4096 19.3 13.9032 19.3 12C19.3 10.0967 19.1005 7.59031 18.919 5.70778C18.8089 4.56615 17.8428 3.69995 16.6773 3.69995L12.5 3.69995C12.1134 3.69995 11.8 3.38655 11.8 2.99995C11.8 2.61335 12.1134 2.29995 12.5 2.29995L16.6773 2.29995C18.5453 2.29995 20.1315 3.69554 20.3126 5.57342C20.4946 7.46137 20.7 10.0248 20.7 12C20.7 13.9751 20.4946 16.5385 20.3126 18.4265C20.1315 20.3044 18.5453 21.7 16.6773 21.7L12.5 21.7C12.1134 21.7 11.8 21.3866 11.8 21Z" fill="#222628"/>
</svg>
