<svg width="24" height="24" viewBox="0 0 24 24" fill="none" xmlns="http://www.w3.org/2000/svg">
<path fill-rule="evenodd" clip-rule="evenodd" d="M7.6333 12C7.6333 11.6134 7.9467 11.3 8.3333 11.3L18.3333 11.3C18.7199 11.3 19.0333 11.6134 19.0333 12C19.0333 12.3866 18.7199 12.7 18.3333 12.7L8.3333 12.7C7.9467 12.7 7.6333 12.3866 7.6333 12Z" fill="#222628"/>
<path fill-rule="evenodd" clip-rule="evenodd" d="M19.5757 12.4241C19.3414 12.6584 18.9615 12.6584 18.7272 12.4241L15.5757 9.27265C15.3414 9.03834 15.3414 8.65844 15.5757 8.42413C15.81 8.18981 16.1899 8.18981 16.4243 8.42412L19.5757 11.5756C19.81 11.8099 19.81 12.1898 19.5757 12.4241Z" fill="#222628"/>
<path fill-rule="evenodd" clip-rule="evenodd" d="M19.5757 11.5756C19.3414 11.3413 18.9615 11.3413 18.7272 11.5756L15.5757 14.7271C15.3414 14.9614 15.3414 15.3413 15.5757 15.5756C15.81 15.8099 16.1899 15.8099 16.4243 15.5756L19.5757 12.4242C19.81 12.1898 19.81 11.8099 19.5757 11.5756Z" fill="#222628"/>
<path fill-rule="evenodd" clip-rule="evenodd" d="M12.2 3.00005C12.2 3.38665 11.8866 3.70005 11.5 3.70005L7.32272 3.70005C6.15721 3.70005 5.19106 4.56625 5.08099 5.70788C4.89948 7.59041 4.70001 10.0968 4.70001 12C4.70001 13.9033 4.89948 16.4097 5.08099 18.2922C5.19106 19.4338 6.15721 20.3 7.32272 20.3L11.5 20.3C11.8866 20.3 12.2 20.6135 12.2 21C12.2 21.3866 11.8866 21.7001 11.5 21.7001L7.32272 21.7001C5.45471 21.7001 3.86851 20.3045 3.68745 18.4266C3.50542 16.5386 3.30001 13.9752 3.30001 12C3.30001 10.0249 3.50542 7.46147 3.68745 5.57352C3.86851 3.69564 5.45471 2.30005 7.32272 2.30005L11.5 2.30005C11.8866 2.30005 12.2 2.61345 12.2 3.00005Z" fill="#222628"/>
</svg>
