<svg width="24" height="24" viewBox="0 0 24 24" fill="none" xmlns="http://www.w3.org/2000/svg">
<path fill-rule="evenodd" clip-rule="evenodd" d="M15.5234 2.35602C14.6274 2.64443 13.8002 3.118 13.0962 3.74778L6.67556 9.49209L7.82058 13.7653L8.70194 13.8619L16.2751 14.7175C17.2306 14.8255 18.1965 14.7628 19.1281 14.5335L15.5234 2.35602ZM6.41104 13.9141L5.39302 10.1148L2.52744 10.8826C2.3674 10.9255 2.27243 11.09 2.31531 11.25L3.17804 14.4698C3.22092 14.6298 3.38542 14.7248 3.54546 14.6819L6.41104 13.9141ZM5.54563 8.62448L12.1628 2.70441C13.1476 1.82331 14.3323 1.19536 15.6143 0.874884C16.0988 0.753769 16.5927 1.03591 16.7344 1.51477L20.5934 14.5513C20.7458 15.066 20.4537 15.6071 19.9399 15.7623C18.7026 16.1359 17.4022 16.2538 16.1179 16.1087L9.70669 15.3843L11.1591 19.0265C11.5362 19.9721 11.0033 21.0348 10.02 21.2983L8.71894 21.6469C7.90612 21.8647 7.05627 21.455 6.72031 20.6835L4.61342 15.8451L3.90781 16.0342C3.00092 16.2772 2.06874 15.739 1.82574 14.8321L0.963014 11.6124C0.720013 10.7055 1.2582 9.77329 2.16509 9.53029L5.54563 8.62448ZM5.98085 15.4787L8.00389 20.1246C8.06318 20.2607 8.21316 20.333 8.35659 20.2946L9.65768 19.946C9.8312 19.8995 9.92524 19.7119 9.8587 19.5451L8.12897 15.2075L7.32269 15.1192L5.98085 15.4787Z" fill="#222628"/>
<path fill-rule="evenodd" clip-rule="evenodd" d="M17.1862 6.79532C17.1082 6.41669 17.3518 6.04645 17.7304 5.96835L17.8718 6.65393C17.7304 5.96835 17.7307 5.96829 17.7311 5.96822L17.7318 5.96808L17.7333 5.96777L17.7369 5.96703L17.7465 5.96518L17.7744 5.9601C17.7968 5.9562 17.8268 5.95136 17.8634 5.9463C17.9365 5.93621 18.0372 5.92509 18.1582 5.91895C18.3971 5.90683 18.7312 5.91326 19.0934 5.99517C19.8482 6.16585 20.7237 6.6752 21.0543 7.90875C21.3848 9.1423 20.8812 10.0212 20.3129 10.5464C20.0401 10.7984 19.754 10.9711 19.5411 11.08C19.4333 11.1352 19.3405 11.1759 19.2721 11.2037C19.2379 11.2176 19.2095 11.2284 19.1882 11.2363L19.1614 11.2458L19.1522 11.249L19.1487 11.2502L19.1472 11.2507L19.1466 11.2509C19.1462 11.251 19.1459 11.2511 18.9256 10.5867L19.1459 11.2511C18.779 11.3728 18.3829 11.174 18.2612 10.807C18.1399 10.4414 18.3368 10.0469 18.7012 9.92364L18.7018 9.92344L18.7065 9.92171C18.7135 9.91916 18.7265 9.91427 18.7445 9.90692C18.7809 9.89215 18.8364 9.86795 18.9035 9.83364C19.0404 9.7636 19.2104 9.659 19.3627 9.5182C19.6446 9.25768 19.8673 8.88819 19.702 8.2711C19.5366 7.65401 19.159 7.44536 18.7846 7.3607C18.5823 7.31494 18.3827 7.30936 18.2292 7.31715C18.1539 7.32097 18.0937 7.32778 18.0549 7.33315C18.0356 7.33581 18.0219 7.33807 18.0146 7.33934" fill="#222628"/>
</svg>
