<svg width="24" height="24" viewBox="0 0 24 24" fill="none" xmlns="http://www.w3.org/2000/svg">
<path fill-rule="evenodd" clip-rule="evenodd" d="M17.9502 1.30005C17.9665 1.30005 17.9832 1.30006 18 1.30006C18.0168 1.30006 18.0334 1.30005 18.0498 1.30005C18.4665 1.30001 18.7353 1.29999 18.9702 1.32646C20.9174 1.54586 22.4542 3.0826 22.6736 5.0298C22.7001 5.26479 22.7 5.53354 22.7 5.9502C22.7 5.96659 22.7 5.9832 22.7 6.00005C22.7 6.01691 22.7 6.03352 22.7 6.04991C22.7 6.46657 22.7001 6.73532 22.6736 6.97031C22.4542 8.91751 20.9174 10.4542 18.9702 10.6736C18.7353 10.7001 18.4665 10.7001 18.0498 10.7001C18.0335 10.7001 18.0168 10.7001 18 10.7001C17.9831 10.7001 17.9665 10.7001 17.9501 10.7001C17.5335 10.7001 17.2647 10.7001 17.0297 10.6736C15.0825 10.4542 13.5458 8.91751 13.3264 6.97031C13.2999 6.73531 13.3 6.46656 13.3 6.04989C13.3 6.03351 13.3 6.0169 13.3 6.00005C13.3 5.98321 13.3 5.9666 13.3 5.95022C13.3 5.53355 13.2999 5.2648 13.3264 5.0298C13.5458 3.0826 15.0825 1.54586 17.0297 1.32646C17.2647 1.29999 17.5335 1.30001 17.9502 1.30005ZM18 2.70006C17.5166 2.70006 17.3329 2.70116 17.1865 2.71766C15.8884 2.86393 14.8639 3.88842 14.7176 5.18655C14.7011 5.33296 14.7 5.51663 14.7 6.00005C14.7 6.48348 14.7011 6.66715 14.7176 6.81356C14.8639 8.11169 15.8884 9.13618 17.1865 9.28245C17.3329 9.29895 17.5166 9.30006 18 9.30006C18.4834 9.30006 18.6671 9.29895 18.8135 9.28245C20.1116 9.13618 21.1361 8.11169 21.2824 6.81356C21.2989 6.66715 21.3 6.48348 21.3 6.00005C21.3 5.51663 21.2989 5.33296 21.2824 5.18655C21.1361 3.88842 20.1116 2.86393 18.8135 2.71766C18.6671 2.70116 18.4834 2.70006 18 2.70006Z" fill="#222628"/>
<path fill-rule="evenodd" clip-rule="evenodd" d="M17.9502 12.3001C17.9665 12.3001 17.9832 12.3001 18 12.3001C18.0168 12.3001 18.0334 12.3001 18.0498 12.3001C18.4665 12.3 18.7353 12.3 18.9702 12.3265C20.9174 12.5459 22.4542 14.0826 22.6736 16.0298C22.7001 16.2648 22.7 16.5335 22.7 16.9502C22.7 16.9666 22.7 16.9832 22.7 17.0001C22.7 17.0169 22.7 17.0335 22.7 17.0499C22.7 17.4666 22.7001 17.7353 22.6736 17.9703C22.4542 19.9175 20.9174 21.4542 18.9702 21.6736C18.7353 21.7001 18.4665 21.7001 18.0498 21.7001C18.0335 21.7001 18.0168 21.7001 18 21.7001C17.9831 21.7001 17.9665 21.7001 17.9501 21.7001C17.5335 21.7001 17.2647 21.7001 17.0297 21.6736C15.0825 21.4542 13.5458 19.9175 13.3264 17.9703C13.2999 17.7353 13.3 17.4666 13.3 17.0499C13.3 17.0335 13.3 17.0169 13.3 17.0001C13.3 16.9832 13.3 16.9666 13.3 16.9502C13.3 16.5336 13.2999 16.2648 13.3264 16.0298C13.5458 14.0826 15.0825 12.5459 17.0297 12.3265C17.2647 12.3 17.5335 12.3 17.9502 12.3001ZM18 13.7001C17.5166 13.7001 17.3329 13.7012 17.1865 13.7177C15.8884 13.8639 14.8639 14.8884 14.7176 16.1866C14.7011 16.333 14.7 16.5166 14.7 17.0001C14.7 17.4835 14.7011 17.6671 14.7176 17.8136C14.8639 19.1117 15.8884 20.1362 17.1865 20.2824C17.3329 20.2989 17.5166 20.3001 18 20.3001C18.4834 20.3001 18.6671 20.2989 18.8135 20.2824C20.1116 20.1362 21.1361 19.1117 21.2824 17.8136C21.2989 17.6671 21.3 17.4835 21.3 17.0001C21.3 16.5166 21.2989 16.333 21.2824 16.1866C21.1361 14.8884 20.1116 13.8639 18.8135 13.7177C18.6671 13.7012 18.4834 13.7001 18 13.7001Z" fill="#222628"/>
<path fill-rule="evenodd" clip-rule="evenodd" d="M5.95016 1.30005C5.96654 1.30005 5.98315 1.30006 5.99999 1.30006C6.01684 1.30006 6.03344 1.30005 6.04982 1.30005C6.4665 1.30001 6.73525 1.29999 6.97024 1.32646C8.91745 1.54586 10.4542 3.0826 10.6736 5.0298C10.7001 5.26479 10.7 5.53354 10.7 5.9502C10.7 5.96659 10.7 5.9832 10.7 6.00005C10.7 6.01691 10.7 6.03352 10.7 6.04991C10.7 6.46657 10.7001 6.73532 10.6736 6.97031C10.4542 8.91751 8.91745 10.4542 6.97024 10.6736C6.73526 10.7001 6.46651 10.7001 6.04985 10.7001C6.03346 10.7001 6.01685 10.7001 5.99999 10.7001C5.98314 10.7001 5.96653 10.7001 5.95014 10.7001C5.53348 10.7001 5.26473 10.7001 5.02974 10.6736C3.08254 10.4542 1.5458 8.91751 1.3264 6.97031C1.29993 6.73531 1.29995 6.46656 1.29999 6.04989C1.29999 6.03351 1.29999 6.0169 1.29999 6.00005C1.29999 5.98321 1.29999 5.9666 1.29999 5.95022C1.29995 5.53355 1.29993 5.2648 1.3264 5.0298C1.5458 3.0826 3.08254 1.54586 5.02974 1.32646C5.26474 1.29999 5.53349 1.30001 5.95016 1.30005ZM5.99999 2.70006C5.51657 2.70006 5.3329 2.70116 5.18649 2.71766C3.88836 2.86393 2.86386 3.88842 2.7176 5.18655C2.7011 5.33296 2.69999 5.51663 2.69999 6.00005C2.69999 6.48348 2.7011 6.66715 2.7176 6.81356C2.86386 8.11169 3.88836 9.13618 5.18649 9.28245C5.3329 9.29895 5.51657 9.30006 5.99999 9.30006C6.48341 9.30006 6.66709 9.29895 6.81349 9.28245C8.11163 9.13618 9.13612 8.11169 9.28239 6.81356C9.29888 6.66715 9.29999 6.48348 9.29999 6.00005C9.29999 5.51663 9.29888 5.33296 9.28239 5.18655C9.13612 3.88842 8.11163 2.86393 6.81349 2.71766C6.66709 2.70116 6.48341 2.70006 5.99999 2.70006Z" fill="#222628"/>
<path fill-rule="evenodd" clip-rule="evenodd" d="M5.95016 12.3001C5.96654 12.3001 5.98315 12.3001 5.99999 12.3001C6.01684 12.3001 6.03344 12.3001 6.04982 12.3001C6.4665 12.3 6.73525 12.3 6.97024 12.3265C8.91745 12.5459 10.4542 14.0826 10.6736 16.0298C10.7001 16.2648 10.7 16.5335 10.7 16.9502C10.7 16.9666 10.7 16.9832 10.7 17.0001C10.7 17.0169 10.7 17.0335 10.7 17.0499C10.7 17.4666 10.7001 17.7353 10.6736 17.9703C10.4542 19.9175 8.91745 21.4542 6.97024 21.6736C6.73526 21.7001 6.46651 21.7001 6.04985 21.7001C6.03346 21.7001 6.01685 21.7001 5.99999 21.7001C5.98314 21.7001 5.96653 21.7001 5.95014 21.7001C5.53348 21.7001 5.26473 21.7001 5.02974 21.6736C3.08254 21.4542 1.5458 19.9175 1.3264 17.9703C1.29993 17.7353 1.29995 17.4666 1.29999 17.0499C1.29999 17.0335 1.29999 17.0169 1.29999 17.0001C1.29999 16.9832 1.29999 16.9666 1.29999 16.9502C1.29995 16.5336 1.29993 16.2648 1.3264 16.0298C1.5458 14.0826 3.08254 12.5459 5.02974 12.3265C5.26474 12.3 5.53349 12.3 5.95016 12.3001ZM5.99999 13.7001C5.51657 13.7001 5.3329 13.7012 5.18649 13.7177C3.88836 13.8639 2.86386 14.8884 2.7176 16.1866C2.7011 16.333 2.69999 16.5166 2.69999 17.0001C2.69999 17.4835 2.7011 17.6671 2.7176 17.8136C2.86386 19.1117 3.88836 20.1362 5.18649 20.2824C5.3329 20.2989 5.51657 20.3001 5.99999 20.3001C6.48341 20.3001 6.66709 20.2989 6.81349 20.2824C8.11163 20.1362 9.13612 19.1117 9.28239 17.8136C9.29888 17.6671 9.29999 17.4835 9.29999 17.0001C9.29999 16.5166 9.29888 16.333 9.28239 16.1866C9.13612 14.8884 8.11163 13.8639 6.81349 13.7177C6.66709 13.7012 6.48341 13.7001 5.99999 13.7001Z" fill="#222628"/>
</svg>
