<svg width="24" height="24" viewBox="0 0 24 24" fill="none" xmlns="http://www.w3.org/2000/svg">
<path fill-rule="evenodd" clip-rule="evenodd" d="M5 5.3001C5 4.9135 5.3134 4.6001 5.7 4.6001H18.3C18.6866 4.6001 19 4.9135 19 5.3001C19 5.6867 18.6866 6.0001 18.3 6.0001H5.7C5.3134 6.0001 5 5.6867 5 5.3001Z" fill="#222628"/>
<path fill-rule="evenodd" clip-rule="evenodd" d="M5 11.3001C5 10.9135 5.3134 10.6001 5.7 10.6001H18.3C18.6866 10.6001 19 10.9135 19 11.3001C19 11.6867 18.6866 12.0001 18.3 12.0001H5.7C5.3134 12.0001 5 11.6867 5 11.3001Z" fill="#222628"/>
<path fill-rule="evenodd" clip-rule="evenodd" d="M5 17.3001C5 16.9135 5.3134 16.6001 5.7 16.6001H18.3C18.6866 16.6001 19 16.9135 19 17.3001C19 17.6867 18.6866 18.0001 18.3 18.0001H5.7C5.3134 18.0001 5 17.6867 5 17.3001Z" fill="#222628"/>
</svg>
