<svg width="24" height="24" viewBox="0 0 24 24" fill="none" xmlns="http://www.w3.org/2000/svg">
<path fill-rule="evenodd" clip-rule="evenodd" d="M9.96853 3.30005H14.0314C15.405 3.30004 16.4787 3.30004 17.341 3.37049C18.218 3.44215 18.9378 3.59017 19.5877 3.92131C20.6603 4.46779 21.5322 5.33978 22.0787 6.4123C22.4099 7.06221 22.5579 7.78201 22.6295 8.65906C22.7 9.52137 22.7 10.5951 22.7 11.9686V12.0315C22.7 13.405 22.7 14.4787 22.6295 15.341C22.5579 16.2181 22.4099 16.9379 22.0787 17.5878C21.5322 18.6603 20.6603 19.5323 19.5877 20.0788C18.9378 20.4099 18.218 20.5579 17.341 20.6296C16.4787 20.7001 15.4049 20.7001 14.0314 20.7001H9.96857C8.59505 20.7001 7.52131 20.7001 6.659 20.6296C5.78195 20.5579 5.06215 20.4099 4.41224 20.0788C3.33972 19.5323 2.46773 18.6603 1.92125 17.5878C1.59011 16.9379 1.44209 16.2181 1.37043 15.341C1.29998 14.4787 1.29998 13.405 1.29999 12.0315V11.9686C1.29998 10.5951 1.29998 9.52136 1.37043 8.65906C1.44209 7.78201 1.59011 7.06221 1.92125 6.4123C2.46773 5.33978 3.33972 4.46779 4.41224 3.92131C5.06215 3.59017 5.78195 3.44215 6.659 3.37049C7.5213 3.30004 8.59503 3.30004 9.96853 3.30005ZM6.773 4.76585C5.98253 4.83043 5.46748 4.9549 5.04783 5.16872C4.23873 5.58098 3.58092 6.23879 3.16866 7.04789C2.95484 7.46754 2.83037 7.98259 2.76578 8.77306C2.70053 9.5717 2.69999 10.5884 2.69999 12C2.69999 13.4117 2.70053 14.4284 2.76578 15.227C2.83037 16.0175 2.95484 16.5326 3.16866 16.9522C3.58092 17.7613 4.23873 18.4191 5.04783 18.8314C5.46748 19.0452 5.98253 19.1697 6.773 19.2343C7.57164 19.2995 8.58831 19.3 9.99999 19.3H14C15.4117 19.3 16.4283 19.2995 17.227 19.2343C18.0174 19.1697 18.5325 19.0452 18.9521 18.8314C19.7612 18.4191 20.4191 17.7613 20.8313 16.9522C21.0451 16.5326 21.1696 16.0175 21.2342 15.227C21.2994 14.4284 21.3 13.4117 21.3 12C21.3 10.5884 21.2994 9.5717 21.2342 8.77306C21.1696 7.98259 21.0451 7.46754 20.8313 7.04789C20.4191 6.23879 19.7612 5.58098 18.9521 5.16872C18.5325 4.9549 18.0174 4.83043 17.227 4.76585C16.4283 4.70059 15.4117 4.70005 14 4.70005H9.99999C8.58831 4.70005 7.57164 4.70059 6.773 4.76585Z" fill="#222628"/>
<path fill-rule="evenodd" clip-rule="evenodd" d="M7.46852 9.54451C7.72012 9.25098 8.16203 9.21699 8.45555 9.46858L8 10.0001L7.54445 10.5315C7.25092 10.2799 7.21693 9.83804 7.46852 9.54451ZM12 12.2449C11.8883 12.1789 11.7426 12.0828 11.5677 11.9594C11.1866 11.6904 10.7151 11.3257 10.2498 10.9535C9.78647 10.5828 9.33762 10.2114 9.00404 9.93208C8.83742 9.79258 8.69994 9.6764 8.60425 9.59521L8.49373 9.50121L8.45555 9.46858L8 10.0001C7.54445 10.5315 7.5444 10.5315 7.54445 10.5315L7.58512 10.5663L7.69848 10.6627C7.79616 10.7456 7.93602 10.8638 8.10533 11.0055C8.44363 11.2888 8.90103 11.6673 9.37521 12.0467C9.84743 12.4244 10.3447 12.8098 10.7604 13.1032C10.9669 13.2489 11.1655 13.3807 11.3373 13.4789C11.4226 13.5277 11.5141 13.5756 11.605 13.6132C11.6772 13.643 11.8256 13.7001 12 13.7001C12.1744 13.7001 12.3228 13.643 12.395 13.6132C12.4859 13.5756 12.5774 13.5277 12.6627 13.4789C12.8345 13.3807 13.0331 13.2489 13.2396 13.1032C13.6553 12.8098 14.1526 12.4244 14.6248 12.0467C15.099 11.6673 15.5564 11.2888 15.8947 11.0055C16.064 10.8638 16.2038 10.7456 16.3015 10.6627L16.4149 10.5663L16.4548 10.5322C16.4548 10.5322 16.4556 10.5315 16 10.0001L16.4556 10.5315C16.7491 10.2799 16.7831 9.83804 16.5315 9.54451C16.2799 9.25098 15.838 9.21699 15.5444 9.46858L15.5063 9.50121L15.3957 9.59521C15.3001 9.6764 15.1626 9.79258 14.996 9.93208C14.6624 10.2114 14.2135 10.5828 13.7502 10.9535C13.2849 11.3257 12.8134 11.6904 12.4323 11.9594C12.2574 12.0828 12.1117 12.1789 12 12.2449ZM12.1403 12.3196C12.1403 12.3196 12.1403 12.3196 12.1403 12.3196V12.3196Z" fill="#222628"/>
</svg>
