<svg width="24" height="24" viewBox="0 0 24 24" fill="none" xmlns="http://www.w3.org/2000/svg">
<path fill-rule="evenodd" clip-rule="evenodd" d="M11.9415 1.30005H12.0585C12.9319 1.30003 13.4321 1.30001 13.8621 1.34847C17.432 1.7507 20.2494 4.56805 20.6516 8.13792C20.7 8.56797 20.7 9.06822 20.7 9.94161V14.0585C20.7 14.9319 20.7 15.4321 20.6516 15.8622C20.2494 19.432 17.432 22.2494 13.8621 22.6516C13.4321 22.7001 12.9318 22.7001 12.0584 22.7001H11.9416C11.0682 22.7001 10.5679 22.7001 10.1379 22.6516C6.56801 22.2494 3.75065 19.432 3.34842 15.8622C3.29997 15.4321 3.29998 14.9319 3.3 14.0586V9.94154C3.29998 9.06819 3.29997 8.56796 3.34842 8.13792C3.75065 4.56805 6.56801 1.7507 10.1379 1.34847C10.5679 1.30001 11.0681 1.30003 11.9415 1.30005ZM12 2.70005C11.0522 2.70005 10.6364 2.70116 10.2946 2.73966C7.37382 3.06876 5.06871 5.37387 4.73962 8.29467C4.70111 8.6364 4.70001 9.05226 4.70001 10.0001V14.0001C4.70001 14.9478 4.70111 15.3637 4.73962 15.7054C5.06871 18.6262 7.37382 20.9313 10.2946 21.2604C10.6364 21.2989 11.0522 21.3001 12 21.3001C12.9478 21.3001 13.3637 21.2989 13.7054 21.2604C16.6262 20.9313 18.9313 18.6262 19.2604 15.7054C19.2989 15.3637 19.3 14.9478 19.3 14.0001V10.0001C19.3 9.05226 19.2989 8.6364 19.2604 8.29467C18.9313 5.37387 16.6262 3.06876 13.7054 2.73966C13.3637 2.70116 12.9478 2.70005 12 2.70005Z" fill="#222628"/>
<path fill-rule="evenodd" clip-rule="evenodd" d="M12 5.30005C12.3866 5.30005 12.7 5.61345 12.7 6.00005V9.00005C12.7 9.38665 12.3866 9.70005 12 9.70005C11.6134 9.70005 11.3 9.38665 11.3 9.00005V6.00005C11.3 5.61345 11.6134 5.30005 12 5.30005Z" fill="#222628"/>
</svg>
