<svg width="24" height="24" viewBox="0 0 24 24" fill="none" xmlns="http://www.w3.org/2000/svg">
<path fill-rule="evenodd" clip-rule="evenodd" d="M14.48 13.6398L15.28 13.0398C15.8904 12.582 16.2473 12.3114 16.478 12.0918C16.517 12.0547 16.5467 12.0241 16.569 11.9998C16.5467 11.9755 16.517 11.945 16.478 11.9079C16.2473 11.6882 15.8904 11.4176 15.28 10.9598L14.48 10.3598C13.6202 9.71498 13.0772 9.31075 12.666 9.07299C12.5947 9.03178 12.5362 9.00096 12.4891 8.97801C12.4792 9.02946 12.4687 9.09477 12.4589 9.17653C12.4024 9.64811 12.4 10.3251 12.4 11.3998L12.4 12.5998C12.4 13.6746 12.4024 14.3516 12.4589 14.8231C12.4687 14.9049 12.4792 14.9702 12.4891 15.0217C12.5362 14.9987 12.5947 14.9679 12.666 14.9267C13.0772 14.6889 13.6202 14.2847 14.48 13.6398ZM17.9743 11.7232C17.8667 11.1499 17.2845 10.7132 16.12 9.83984L15.32 9.23984C13.6606 7.99527 12.8309 7.37299 12.1402 7.54363C11.9244 7.59696 11.7231 7.6976 11.5509 7.83828C11 8.28842 11 9.32556 11 11.3998L11 12.5998C11 14.6741 11 15.7113 11.5509 16.1614C11.7231 16.3021 11.9244 16.4027 12.1402 16.4561C12.8309 16.6267 13.6606 16.0044 15.32 14.7598L16.12 14.1598C17.2845 13.2865 17.8667 12.8498 17.9743 12.2764C18.0086 12.0936 18.0086 11.906 17.9743 11.7232Z" fill="#222628"/>
<path fill-rule="evenodd" clip-rule="evenodd" d="M8.48 13.6398L9.28 13.0398C9.89039 12.582 10.2473 12.3114 10.478 12.0918C10.517 12.0547 10.5467 12.0241 10.569 11.9998C10.5467 11.9755 10.517 11.945 10.478 11.9079C10.2473 11.6882 9.89039 11.4176 9.28 10.9598L8.48 10.3598C7.62018 9.71498 7.07716 9.31075 6.666 9.07299C6.59472 9.03178 6.53618 9.00096 6.48908 8.97801C6.47919 9.02946 6.46872 9.09477 6.45892 9.17653C6.40243 9.64811 6.4 10.3251 6.4 11.3998L6.4 12.5998C6.4 13.6746 6.40243 14.3516 6.45892 14.8231C6.46872 14.9049 6.47919 14.9702 6.48908 15.0217C6.53619 14.9987 6.59472 14.9679 6.666 14.9267C7.07716 14.6889 7.62018 14.2847 8.48 13.6398ZM11.9743 11.7232C11.8667 11.1499 11.2845 10.7132 10.12 9.83984L9.32 9.23984C7.66058 7.99527 6.83087 7.37299 6.14021 7.54363C5.92437 7.59696 5.72307 7.6976 5.5509 7.83828C5 8.28842 5 9.32556 5 11.3998L5 12.5998C5 14.6741 5 15.7113 5.5509 16.1614C5.72307 16.3021 5.92437 16.4027 6.14022 16.4561C6.83087 16.6267 7.66058 16.0044 9.32 14.7598L10.12 14.1598C11.2845 13.2865 11.8667 12.8498 11.9743 12.2764C12.0086 12.0936 12.0086 11.906 11.9743 11.7232Z" fill="#222628"/>
</svg>
