<svg width="24" height="24" viewBox="0 0 24 24" fill="none" xmlns="http://www.w3.org/2000/svg">
<path d="M15.0101 6.3967C15.1191 5.86354 15.8809 5.86353 15.9899 6.3967L16.1975 7.41269C16.2376 7.60895 16.391 7.76233 16.5873 7.80244L17.6033 8.0101C18.1364 8.11907 18.1364 8.88087 17.6033 8.98984L16.5873 9.1975C16.391 9.23762 16.2376 9.39099 16.1975 9.58725L15.9899 10.6032C15.8809 11.1364 15.1191 11.1364 15.0101 10.6032L14.8025 9.58725C14.7624 9.39099 14.609 9.23762 14.4127 9.1975L13.3967 8.98984C12.8636 8.88087 12.8636 8.11907 13.3967 8.0101L14.4127 7.80244C14.609 7.76233 14.7624 7.60895 14.8025 7.41269L15.0101 6.3967Z" fill="#222628"/>
<path d="M18 4.96046C17.6381 4.70506 17.8981 4.13803 18.3278 4.24562L18.6829 4.33454C18.8382 4.37341 19.0017 4.31601 19.0985 4.18861L19.4008 3.79109C19.6593 3.45102 20.1994 3.69867 20.1104 4.1165L20.0064 4.60491C19.9731 4.76144 20.0362 4.92277 20.167 5.01504L20.4661 5.22612C20.828 5.48153 20.568 6.04855 20.1383 5.94096L19.7832 5.85204C19.6279 5.81317 19.4645 5.87057 19.3676 5.99797L19.0654 6.39549C18.8068 6.73556 18.2667 6.48791 18.3557 6.07009L18.4597 5.58168C18.4931 5.42515 18.4299 5.26382 18.2991 5.17154L18 4.96046Z" fill="#222628"/>
<path fill-rule="evenodd" clip-rule="evenodd" d="M10.5734 3.90161C10.5735 3.90147 10.5736 3.90132 10.5737 3.90118C10.5738 3.90109 10.5739 3.901 10.5739 3.90092C10.7326 3.67382 10.7424 3.37447 10.5988 3.13744C10.455 2.89995 10.1844 2.76992 9.90909 2.806L10.0001 3.50007C9.90909 2.806 9.90875 2.80605 9.9084 2.8061L9.90762 2.8062L9.90579 2.80644L9.90109 2.80709L9.88753 2.80902C9.87666 2.81062 9.86216 2.81283 9.84421 2.81575C9.8083 2.8216 9.75851 2.8303 9.69623 2.84262C9.57172 2.86724 9.39687 2.90637 9.18276 2.96612C8.7551 3.08547 8.16726 3.28809 7.50968 3.624C6.19157 4.29733 4.58972 5.50898 3.45088 7.64982C1.5805 11.1659 1.80328 14.9587 3.78562 17.739C5.77285 20.5262 9.43768 22.1741 14.2049 21.6038L14.2088 21.6033C16.7714 21.2821 18.6213 20.0762 19.823 18.9599C20.4236 18.402 20.866 17.8635 21.16 17.4616C21.3072 17.2603 21.4178 17.0925 21.493 16.9723C21.5307 16.9122 21.5595 16.864 21.5797 16.8294C21.5898 16.8121 21.5978 16.7982 21.6036 16.7879L21.6106 16.7752L21.613 16.771L21.6139 16.7694L21.6142 16.7687C21.6144 16.7684 21.6145 16.7682 21.0001 16.4329L21.6145 16.7682C21.7458 16.5277 21.7246 16.2327 21.5604 16.0134C21.3963 15.7942 21.1195 15.6908 20.8518 15.7488L20.8515 15.7488L20.8496 15.7492L20.8375 15.7518C20.8261 15.7541 20.8081 15.7578 20.7837 15.7626C20.735 15.7721 20.6612 15.786 20.565 15.8026C20.3724 15.8357 20.0908 15.8794 19.7418 15.9199C19.042 16.0013 18.0802 16.069 17.0271 16.0173C14.8866 15.9122 12.5433 15.3236 11.1388 13.5635C9.1721 11.0986 9.0446 8.69259 9.39464 6.89312C9.5713 5.9849 9.87126 5.22797 10.1271 4.69893C10.2546 4.43511 10.3702 4.23006 10.452 4.09358C10.4929 4.0254 10.5253 3.97452 10.5464 3.94217C10.557 3.926 10.5647 3.91449 10.5692 3.90777L10.5736 3.90133L10.5734 3.90161ZM19.4387 17.3587C18.746 17.4217 17.8875 17.4613 16.9584 17.4156C14.6926 17.3044 11.8317 16.6765 10.0445 14.4367C7.77565 11.5932 7.60734 8.74925 8.02039 6.6258C8.16902 5.86175 8.39207 5.19268 8.616 4.64988C8.46609 4.71452 8.30895 4.7878 8.14656 4.87075C7.02818 5.44205 5.66445 6.46965 4.68688 8.30732C3.03965 11.4039 3.28245 14.6218 4.92554 16.9262C6.56349 19.2235 9.68328 20.7342 14.0368 20.2139C16.235 19.9379 17.8237 18.9062 18.8702 17.9341C19.0824 17.737 19.2718 17.5428 19.4387 17.3587Z" fill="#222628"/>
</svg>
