<svg width="24" height="24" viewBox="0 0 24 24" fill="none" xmlns="http://www.w3.org/2000/svg">
<path fill-rule="evenodd" clip-rule="evenodd" d="M3 8.29995L4.23529 8.29995C5.65433 8.29995 6.66591 8.2991 7.4506 8.21928C8.2236 8.14065 8.69842 7.9912 9.06868 7.7438C9.429 7.50304 9.73838 7.19366 9.97914 6.83333C10.2265 6.46307 10.376 5.98825 10.4546 5.21526C10.5344 4.43057 10.5353 3.41898 10.5353 1.99995L11.9353 1.99995L11.9353 2.03901C11.9353 3.41038 11.9353 4.49314 11.8474 5.35695C11.7575 6.24064 11.5699 6.9725 11.1432 7.61113C10.8003 8.12432 10.3597 8.56495 9.84647 8.90786C9.20784 9.33458 8.47598 9.5222 7.59229 9.61209C6.72848 9.69997 5.64571 9.69996 4.27433 9.69995L3 9.69995L3 8.29995Z" fill="#222628"/>
<path fill-rule="evenodd" clip-rule="evenodd" d="M12.7182 1.30006C12.751 1.30007 12.7841 1.30007 12.8177 1.30007L13.8418 1.30007C15.3063 1.30006 16.4625 1.30006 17.3816 1.39964C18.3226 1.50158 19.0977 1.71458 19.7626 2.19769C20.1616 2.48759 20.5125 2.83848 20.8024 3.23748C21.2855 3.90243 21.4985 4.67754 21.6005 5.61848C21.7 6.53759 21.7 7.6938 21.7 9.15829V14.8419C21.7 16.3063 21.7 17.4625 21.6005 18.3817C21.4985 19.3226 21.2855 20.0977 20.8024 20.7627C20.5125 21.1617 20.1616 21.5126 19.7626 21.8025C19.0977 22.2856 18.3226 22.4986 17.3816 22.6005C16.4625 22.7001 15.3063 22.7001 13.8417 22.7001H10.1583C8.6938 22.7001 7.53757 22.7001 6.61844 22.6005C5.6775 22.4986 4.90239 22.2856 4.23744 21.8025C3.83843 21.5126 3.48754 21.1617 3.19765 20.7627C2.71454 20.0977 2.50154 19.3226 2.39959 18.3817C2.30001 17.4625 2.30002 16.3063 2.30003 14.8418L2.30003 11.2725C2.30003 11.2257 2.30002 11.1794 2.30001 11.1336C2.29969 9.74952 2.29948 8.86965 2.60206 8.06687C2.70171 7.80248 2.825 7.54762 2.97043 7.30538C3.412 6.56985 4.10197 6.02384 5.18736 5.16493C5.22322 5.13655 5.25952 5.10782 5.29626 5.07874L7.91392 3.00628C7.94023 2.98544 7.96623 2.96485 7.99192 2.9445C8.78083 2.31969 9.28233 1.9225 9.86621 1.67439C10.0594 1.5923 10.2579 1.52325 10.4603 1.46769C11.0721 1.29978 11.7118 1.29989 12.7182 1.30006ZM12.8177 2.70007C11.6787 2.70007 11.2386 2.70584 10.8308 2.81776C10.6887 2.85677 10.5494 2.90525 10.4137 2.96289C10.0245 3.12827 9.67594 3.39691 8.78294 4.10391L6.16528 6.17637C4.93361 7.15151 4.46482 7.53612 4.17073 8.02598C4.06863 8.19606 3.98206 8.37501 3.91209 8.56064C3.71058 9.09528 3.70003 9.70157 3.70003 11.2725V14.8001C3.70003 16.3156 3.70099 17.3959 3.79145 18.2309C3.88049 19.0527 4.04945 19.5532 4.33027 19.9398C4.53382 20.2199 4.78019 20.4663 5.06034 20.6698C5.44685 20.9506 5.94742 21.1196 6.76924 21.2087C7.60416 21.2991 8.68454 21.3001 10.2 21.3001H13.8C15.3155 21.3001 16.3959 21.2991 17.2308 21.2087C18.0526 21.1196 18.5532 20.9506 18.9397 20.6698C19.2199 20.4663 19.4662 20.2199 19.6698 19.9398C19.9506 19.5532 20.1196 19.0527 20.2086 18.2309C20.2991 17.3959 20.3 16.3156 20.3 14.8001V9.20007C20.3 7.68459 20.2991 6.6042 20.2086 5.76928C20.1196 4.94746 19.9506 4.4469 19.6698 4.06038C19.4662 3.78023 19.2199 3.53386 18.9397 3.33032C18.5532 3.0495 18.0526 2.88053 17.2308 2.79149C16.3959 2.70103 15.3155 2.70007 13.8 2.70007H12.8177Z" fill="#222628"/>
<path fill-rule="evenodd" clip-rule="evenodd" d="M12 19C11.6134 19 11.3 18.6866 11.3 18.3L11.3 12.7C11.3 12.3134 11.6134 12 12 12C12.3866 12 12.7 12.3134 12.7 12.7L12.7 18.3C12.7 18.6866 12.3866 19 12 19Z" fill="#222628"/>
<path fill-rule="evenodd" clip-rule="evenodd" d="M12.4242 11.4244C12.6586 11.6587 12.6586 12.0386 12.4242 12.2729L10.2728 14.4244C10.0385 14.6587 9.65856 14.6587 9.42425 14.4244C9.18993 14.1901 9.18993 13.8102 9.42425 13.5758L11.5757 11.4244C11.81 11.1901 12.1899 11.1901 12.4242 11.4244Z" fill="#222628"/>
<path fill-rule="evenodd" clip-rule="evenodd" d="M11.5758 11.4244C11.3414 11.6587 11.3414 12.0386 11.5758 12.2729L13.7272 14.4244C13.9615 14.6587 14.3414 14.6587 14.5758 14.4244C14.8101 14.1901 14.8101 13.8102 14.5758 13.5758L12.4243 11.4244C12.19 11.1901 11.8101 11.1901 11.5758 11.4244Z" fill="#222628"/>
</svg>
