<svg width="24" height="24" viewBox="0 0 24 24" fill="none" xmlns="http://www.w3.org/2000/svg">
<path fill-rule="evenodd" clip-rule="evenodd" d="M3 8.29995L4.23529 8.29995C5.65433 8.29995 6.66591 8.2991 7.4506 8.21928C8.2236 8.14065 8.69842 7.9912 9.06868 7.7438C9.429 7.50304 9.73838 7.19366 9.97914 6.83333C10.2265 6.46307 10.376 5.98825 10.4546 5.21526C10.5344 4.43057 10.5353 3.41898 10.5353 1.99995L11.9353 1.99995L11.9353 2.03901C11.9353 3.41038 11.9353 4.49314 11.8474 5.35695C11.7575 6.24064 11.5699 6.9725 11.1432 7.61113C10.8003 8.12432 10.3597 8.56495 9.84647 8.90786C9.20784 9.33458 8.47598 9.5222 7.59229 9.61209C6.72848 9.69997 5.64571 9.69996 4.27433 9.69995L3 9.69995L3 8.29995Z" fill="#222628"/>
<path fill-rule="evenodd" clip-rule="evenodd" d="M12.5684 1.30006C12.6019 1.30007 12.6358 1.30007 12.6702 1.30007L13.3418 1.30007C14.8063 1.30006 15.9625 1.30006 16.8816 1.39964C17.8225 1.50158 18.5976 1.71458 19.2626 2.19769C19.6616 2.48759 20.0125 2.83848 20.3024 3.23748C20.7855 3.90243 20.9985 4.67754 21.1004 5.61848C21.2 6.53759 21.2 7.6938 21.2 9.15829V14.8419C21.2 16.3063 21.2 17.4625 21.1004 18.3817C20.9985 19.3226 20.7855 20.0977 20.3024 20.7627C20.0125 21.1617 19.6616 21.5126 19.2626 21.8025C18.5976 22.2856 17.8225 22.4986 16.8816 22.6005C15.9625 22.7001 14.8062 22.7001 13.3417 22.7001H10.1583C8.69377 22.7001 7.53754 22.7001 6.61841 22.6005C5.67747 22.4986 4.90236 22.2856 4.23741 21.8025C3.8384 21.5126 3.48751 21.1617 3.19762 20.7627C2.71451 20.0977 2.50151 19.3226 2.39956 18.3817C2.29998 17.4625 2.29999 16.3063 2.3 14.8418L2.3 11.2116C2.3 11.1656 2.29999 11.1201 2.29998 11.0752C2.29967 9.71428 2.29947 8.84914 2.59298 8.05726C2.68967 7.79638 2.80934 7.5446 2.95057 7.30488C3.37927 6.57726 4.05024 6.03112 5.10572 5.172C5.14057 5.14363 5.17583 5.11493 5.21152 5.08587L7.68168 3.0743C7.7083 3.05263 7.73459 3.03121 7.76057 3.01005C8.55769 2.36068 9.06443 1.94788 9.65833 1.68971C9.8548 1.60431 10.0569 1.53244 10.2631 1.4746C10.8867 1.29976 11.5403 1.29988 12.5684 1.30006ZM12.6702 2.70007C11.5063 2.70007 11.0567 2.70608 10.6411 2.82261C10.4963 2.86322 10.3544 2.91368 10.2165 2.97365C9.8206 3.14572 9.46816 3.42498 8.56572 4.15988L6.09555 6.17145C4.89805 7.14663 4.44231 7.53093 4.15679 8.01556C4.05762 8.18386 3.9736 8.36065 3.90571 8.54382C3.71022 9.07124 3.7 9.66729 3.7 11.2116V14.8001C3.7 16.3156 3.70096 17.3959 3.79142 18.2309C3.88046 19.0527 4.04942 19.5532 4.33024 19.9398C4.53379 20.2199 4.78016 20.4663 5.06031 20.6698C5.44682 20.9506 5.94739 21.1196 6.76921 21.2087C7.60413 21.2991 8.68451 21.3001 10.2 21.3001H13.3C14.8155 21.3001 15.8959 21.2991 16.7308 21.2087C17.5526 21.1196 18.0532 20.9506 18.4397 20.6698C18.7198 20.4663 18.9662 20.2199 19.1698 19.9398C19.4506 19.5532 19.6195 19.0527 19.7086 18.2309C19.799 17.3959 19.8 16.3156 19.8 14.8001V9.20007C19.8 7.68459 19.799 6.6042 19.7086 5.76928C19.6195 4.94746 19.4506 4.4469 19.1698 4.06038C18.9662 3.78023 18.7198 3.53386 18.4397 3.33032C18.0532 3.0495 17.5526 2.88053 16.7308 2.79149C15.8959 2.70103 14.8155 2.70007 13.3 2.70007H12.6702Z" fill="#222628"/>
<path fill-rule="evenodd" clip-rule="evenodd" d="M17 17.7001C17 18.0867 16.6866 18.4001 16.3 18.4001L7.7 18.4001C7.3134 18.4001 7 18.0867 7 17.7001C7 17.3135 7.3134 17.0001 7.7 17.0001L16.3 17.0001C16.6866 17.0001 17 17.3135 17 17.7001Z" fill="#222628"/>
<path fill-rule="evenodd" clip-rule="evenodd" d="M14 13.7001C14 14.0867 13.6866 14.4001 13.3 14.4001L7.7 14.4001C7.3134 14.4001 7 14.0867 7 13.7001C7 13.3135 7.3134 13.0001 7.7 13.0001L13.3 13.0001C13.6866 13.0001 14 13.3135 14 13.7001Z" fill="#222628"/>
</svg>
