<svg width="24" height="24" viewBox="0 0 24 24" fill="none" xmlns="http://www.w3.org/2000/svg">
<path fill-rule="evenodd" clip-rule="evenodd" d="M3 8.29995L4.23529 8.29995C5.65433 8.29995 6.66591 8.2991 7.4506 8.21928C8.2236 8.14065 8.69842 7.9912 9.06868 7.7438C9.429 7.50304 9.73838 7.19366 9.97914 6.83333C10.2265 6.46307 10.376 5.98825 10.4546 5.21526C10.5344 4.43057 10.5353 3.41898 10.5353 1.99995L11.9353 1.99995L11.9353 2.03901C11.9353 3.41038 11.9353 4.49314 11.8474 5.35695C11.7575 6.24064 11.5699 6.9725 11.1432 7.61113C10.8003 8.12432 10.3597 8.56495 9.84647 8.90786C9.20784 9.33458 8.47598 9.5222 7.59229 9.61209C6.72848 9.69997 5.64571 9.69996 4.27433 9.69995L3 9.69995L3 8.29995Z" fill="#222628"/>
<path fill-rule="evenodd" clip-rule="evenodd" d="M12.7181 1.30006C12.7509 1.30007 12.7841 1.30007 12.8177 1.30007L13.8418 1.30007C15.3063 1.30006 16.4625 1.30006 17.3816 1.39964C18.3225 1.50158 19.0976 1.71458 19.7626 2.19769C20.1616 2.48759 20.5125 2.83848 20.8024 3.23748C21.2855 3.90243 21.4985 4.67754 21.6004 5.61848C21.7 6.53759 21.7 7.6938 21.7 9.15829V14.8419C21.7 16.3063 21.7 17.4625 21.6004 18.3817C21.4985 19.3226 21.2855 20.0977 20.8024 20.7627C20.5125 21.1617 20.1616 21.5126 19.7626 21.8025C19.0976 22.2856 18.3225 22.4986 17.3816 22.6005C16.4625 22.7001 15.3062 22.7001 13.8417 22.7001H10.1583C8.69377 22.7001 7.53754 22.7001 6.61841 22.6005C5.67747 22.4986 4.90236 22.2856 4.23741 21.8025C3.8384 21.5126 3.48751 21.1617 3.19762 20.7627C2.71451 20.0977 2.50151 19.3226 2.39956 18.3817C2.29998 17.4625 2.29999 16.3063 2.3 14.8418L2.3 11.2725C2.3 11.2257 2.29999 11.1794 2.29998 11.1336C2.29966 9.74952 2.29945 8.86965 2.60203 8.06687C2.70168 7.80248 2.82497 7.54762 2.9704 7.30538C3.41197 6.56985 4.10194 6.02384 5.18732 5.16493C5.22319 5.13655 5.25949 5.10782 5.29623 5.07874L7.91389 3.00628C7.9402 2.98544 7.9662 2.96485 7.99189 2.9445C8.7808 2.31969 9.2823 1.9225 9.86618 1.67439C10.0594 1.5923 10.2578 1.52325 10.4603 1.46769C11.072 1.29978 11.7118 1.29989 12.7181 1.30006ZM12.8177 2.70007C11.6787 2.70007 11.2386 2.70584 10.8308 2.81776C10.6887 2.85677 10.5493 2.90525 10.4137 2.96289C10.0245 3.12827 9.6759 3.39691 8.78291 4.10391L6.16525 6.17637C4.93358 7.15151 4.46479 7.53612 4.1707 8.02598C4.06859 8.19606 3.98203 8.37501 3.91206 8.56064C3.71055 9.09528 3.7 9.70157 3.7 11.2725V14.8001C3.7 16.3156 3.70096 17.3959 3.79142 18.2309C3.88046 19.0527 4.04942 19.5532 4.33024 19.9398C4.53379 20.2199 4.78016 20.4663 5.06031 20.6698C5.44682 20.9506 5.94739 21.1196 6.76921 21.2087C7.60413 21.2991 8.68451 21.3001 10.2 21.3001H13.8C15.3155 21.3001 16.3959 21.2991 17.2308 21.2087C18.0526 21.1196 18.5532 20.9506 18.9397 20.6698C19.2198 20.4663 19.4662 20.2199 19.6698 19.9398C19.9506 19.5532 20.1195 19.0527 20.2086 18.2309C20.299 17.3959 20.3 16.3156 20.3 14.8001V9.20007C20.3 7.68459 20.299 6.6042 20.2086 5.76928C20.1195 4.94746 19.9506 4.4469 19.6698 4.06038C19.4662 3.78023 19.2198 3.53386 18.9397 3.33032C18.5532 3.0495 18.0526 2.88053 17.2308 2.79149C16.3959 2.70103 15.3155 2.70007 13.8 2.70007H12.8177Z" fill="#222628"/>
<path fill-rule="evenodd" clip-rule="evenodd" d="M14.9184 12.4389C15.2283 12.67 15.2923 13.1086 15.0612 13.4185L14.9318 13.5916C14.8496 13.7014 14.732 13.8582 14.5903 14.0463C14.307 14.4223 13.927 14.9242 13.5408 15.4267C13.1555 15.928 12.7606 16.4343 12.4486 16.8172C12.2937 17.0074 12.1527 17.1751 12.0409 17.2985C11.9865 17.3584 11.928 17.4201 11.8722 17.4713C11.8457 17.4955 11.8045 17.5317 11.7542 17.5661C11.7292 17.5833 11.6877 17.6099 11.6339 17.6343C11.5896 17.6545 11.4802 17.7001 11.3333 17.7001C11.1296 17.7001 10.9798 17.614 10.9397 17.591C10.8758 17.5543 10.8212 17.5129 10.7823 17.4814C10.7026 17.4168 10.621 17.338 10.5473 17.2628C10.3966 17.109 10.2233 16.9126 10.065 16.7272C9.90481 16.5394 9.75148 16.3528 9.63874 16.2138C9.58221 16.1441 9.53553 16.0859 9.50285 16.045L9.46478 15.9972L9.45455 15.9843L9.45105 15.9799C9.21141 15.6765 9.26274 15.2359 9.56611 14.9963C9.86947 14.7566 10.3096 14.8083 10.5493 15.1116C10.5493 15.1116 10.5493 15.1116 10.5493 15.1116L10.5521 15.1151L10.5611 15.1266L10.5966 15.1711C10.6275 15.2098 10.672 15.2652 10.7261 15.3319C10.8345 15.4656 10.98 15.6426 11.13 15.8185C11.1871 15.8853 11.2436 15.9506 11.2982 16.0124C11.3192 15.9868 11.3409 15.9603 11.3632 15.933C11.6623 15.5659 12.0475 15.0722 12.4308 14.5735C12.8132 14.076 13.1903 13.5779 13.472 13.2039C13.6128 13.017 13.7296 12.8613 13.8112 12.7524L13.9383 12.5824C14.1694 12.2724 14.6085 12.2078 14.9184 12.4389Z" fill="#222628"/>
</svg>
