<svg width="24" height="24" viewBox="0 0 24 24" fill="none" xmlns="http://www.w3.org/2000/svg">
<path fill-rule="evenodd" clip-rule="evenodd" d="M7.74656 20.5052C8.77736 20.5987 10.105 20.6 12 20.6C13.895 20.6 15.2226 20.5987 16.2534 20.5052C17.265 20.4136 17.8524 20.2421 18.3 19.9837C18.9993 19.58 19.58 18.9993 19.9837 18.3C20.2421 17.8524 20.4136 17.265 20.5052 16.2534C20.5987 15.2226 20.6 13.895 20.6 12C20.6 10.105 20.5987 8.77736 20.5052 7.74656C20.4136 6.73501 20.2421 6.14756 19.9837 5.7C19.58 5.00071 18.9993 4.42002 18.3 4.01628C17.8524 3.75788 17.265 3.58645 16.2534 3.49477C15.2226 3.40134 13.895 3.4 12 3.4C10.105 3.4 8.77736 3.40134 7.74656 3.49477C6.73501 3.58645 6.14756 3.75788 5.7 4.01628C5.00071 4.42002 4.42002 5.00071 4.01628 5.7C3.75788 6.14756 3.58645 6.73501 3.49477 7.74656C3.40134 8.77736 3.4 10.105 3.4 12C3.4 13.895 3.40134 15.2226 3.49477 16.2534C3.58645 17.265 3.75788 17.8524 4.01628 18.3C4.42002 18.9993 5.00071 19.58 5.7 19.9837C6.14756 20.2421 6.73501 20.4136 7.74656 20.5052ZM2.80385 5C2 6.3923 2 8.26154 2 12C2 15.7385 2 17.6077 2.80385 19C3.33046 19.9121 4.08788 20.6695 5 21.1962C6.3923 22 8.26154 22 12 22C15.7385 22 17.6077 22 19 21.1962C19.9121 20.6695 20.6695 19.9121 21.1962 19C22 17.6077 22 15.7385 22 12C22 8.26154 22 6.3923 21.1962 5C20.6695 4.08788 19.9121 3.33046 19 2.80385C17.6077 2 15.7385 2 12 2C8.26154 2 6.3923 2 5 2.80385C4.08788 3.33046 3.33046 4.08788 2.80385 5Z" fill="#222628"/>
<path fill-rule="evenodd" clip-rule="evenodd" d="M12.389 13.2309L12.5946 13.1023C13.3503 12.63 13.8069 12.3418 14.104 12.1023C14.1545 12.0615 14.1935 12.0275 14.2232 11.9999C14.1935 11.9724 14.1545 11.9383 14.104 11.8976C13.8069 11.6581 13.3503 11.3698 12.5946 10.8975L12.389 10.769C11.5529 10.2465 11.0342 9.92517 10.6454 9.74283C10.5787 9.71154 10.5243 9.68863 10.4809 9.67189C10.4721 9.71756 10.4627 9.7758 10.4539 9.84896C10.4024 10.2753 10.4 10.8854 10.4 11.8714L10.4 12.1285C10.4 13.1144 10.4024 13.7245 10.4539 14.1509C10.4627 14.2241 10.4721 14.2823 10.4809 14.328C10.5243 14.3112 10.5787 14.2883 10.6454 14.257C11.0342 14.0747 11.5529 13.7534 12.389 13.2309ZM15.6392 11.6983C15.5099 11.0686 14.7855 10.6159 13.3366 9.71034L13.131 9.58181C11.5223 8.57638 10.718 8.07366 10.0665 8.2703C9.8619 8.33207 9.67283 8.43686 9.512 8.57765C8.99999 9.02584 8.99999 9.97436 8.99999 11.8714L8.99999 12.1285C8.99999 14.0255 8.99999 14.974 9.512 15.4222C9.67283 15.563 9.8619 15.6678 10.0665 15.7296C10.718 15.9262 11.5223 15.4235 13.131 14.4181L13.3366 14.2895C14.7855 13.384 15.5099 12.9312 15.6392 12.3015C15.68 12.1025 15.68 11.8973 15.6392 11.6983Z" fill="#222628"/>
</svg>
