<svg width="24" height="24" viewBox="0 0 24 24" fill="none" xmlns="http://www.w3.org/2000/svg">
<path fill-rule="evenodd" clip-rule="evenodd" d="M8.49326 8.59451C8.40238 9.35794 8.39999 10.4174 8.39999 11.9999C8.39999 13.5825 8.40238 14.6419 8.49326 15.4054C8.58484 16.1746 8.73656 16.3188 8.76284 16.3425C8.88573 16.4534 9.03209 16.5352 9.19099 16.5817C9.22497 16.5917 9.42723 16.6454 10.1304 16.3202C10.8282 15.9975 11.7318 15.4442 13.0795 14.6148C14.3209 13.8509 15.1427 13.3424 15.6956 12.9043C16.2452 12.4688 16.295 12.2784 16.3043 12.2356C16.3384 12.0803 16.3384 11.9195 16.3043 11.7643C16.295 11.7215 16.2452 11.531 15.6956 11.0955C15.1427 10.6575 14.3209 10.1489 13.0795 9.38503C11.7318 8.55563 10.8282 8.0024 10.1304 7.67969C9.42723 7.3545 9.22497 7.40819 9.19099 7.41814C9.03209 7.46465 8.88573 7.54643 8.76284 7.65739C8.73656 7.68111 8.58484 7.82523 8.49326 8.59451ZM17.6718 11.4643C17.4444 10.4272 16.234 9.6824 13.8133 8.19271C11.1804 6.57251 9.86401 5.76241 8.79771 6.07451C8.43657 6.18022 8.10395 6.36608 7.82465 6.61826C7 7.36281 7 8.90852 6.99999 11.9999C6.99999 15.0914 6.99999 16.6371 7.82465 17.3816C8.10395 17.6338 8.43657 17.8196 8.79771 17.9254C9.86401 18.2375 11.1804 17.4274 13.8133 15.8072C16.234 14.3175 17.4444 13.5726 17.6718 12.5355C17.7492 12.1827 17.7492 11.8172 17.6718 11.4643Z" fill="#222628"/>
</svg>
