<svg width="24" height="24" viewBox="0 0 24 24" fill="none" xmlns="http://www.w3.org/2000/svg">
<path fill-rule="evenodd" clip-rule="evenodd" d="M11.9645 1.30005H12.0354C13.8747 1.30004 15.3027 1.30004 16.443 1.40339C17.6002 1.50827 18.5295 1.72399 19.35 2.19768C20.3685 2.78573 21.2143 3.63152 21.8024 4.65005C22.276 5.4705 22.4918 6.39985 22.5966 7.55705C22.7 8.69733 22.7 10.1254 22.7 11.9647V12.0354C22.7 13.8747 22.7 15.3028 22.5966 16.443C22.4918 17.6002 22.276 18.5296 21.8024 19.35C21.2143 20.3686 20.3685 21.2144 19.35 21.8024C18.5295 22.2761 17.6002 22.4918 16.443 22.5967C15.3027 22.7001 13.8746 22.7001 12.0354 22.7001H11.9646C10.1253 22.7001 8.69727 22.7001 7.55699 22.5967C6.39979 22.4918 5.47044 22.2761 4.64999 21.8024C3.63146 21.2144 2.78567 20.3686 2.19762 19.35C1.72393 18.5296 1.50821 17.6002 1.40333 16.443C1.29998 15.3028 1.29998 13.8747 1.29999 12.0355V11.9646C1.29998 10.1254 1.29998 8.69732 1.40333 7.55705C1.50821 6.39985 1.72393 5.4705 2.19762 4.65005C2.78567 3.63152 3.63146 2.78573 4.64999 2.19768C5.47044 1.72399 6.39979 1.50827 7.55699 1.40339C8.69726 1.30004 10.1253 1.30004 11.9645 1.30005ZM7.68336 2.79767C6.62326 2.89375 5.92184 3.07995 5.34999 3.41011C4.54429 3.87529 3.87523 4.54435 3.41005 5.35005C3.07989 5.9219 2.89369 6.62332 2.79761 7.68342C2.70066 8.75315 2.69999 10.1179 2.69999 12C2.69999 13.8822 2.70066 15.2469 2.79761 16.3167C2.89369 17.3768 3.07989 18.0782 3.41005 18.65C3.87523 19.4558 4.54429 20.1248 5.34999 20.59C5.92184 20.9201 6.62326 21.1063 7.68336 21.2024C8.75309 21.2994 10.1179 21.3 12 21.3C13.8821 21.3 15.2469 21.2994 16.3166 21.2024C17.3767 21.1063 18.0781 20.9201 18.65 20.59C19.4557 20.1248 20.1248 19.4558 20.5899 18.65C20.9201 18.0782 21.1063 17.3768 21.2024 16.3167C21.2993 15.2469 21.3 13.8822 21.3 12C21.3 10.1179 21.2993 8.75315 21.2024 7.68342C21.1063 6.62332 20.9201 5.9219 20.5899 5.35005C20.1248 4.54435 19.4557 3.87529 18.65 3.41011C18.0781 3.07995 17.3767 2.89375 16.3166 2.79767C15.2469 2.70072 13.8821 2.70005 12 2.70005C10.1179 2.70005 8.75309 2.70072 7.68336 2.79767Z" fill="#222628"/>
<path fill-rule="evenodd" clip-rule="evenodd" d="M8.79999 10.25C8.79999 8.61492 10.1413 7.30005 11.7646 7.30005C13.3719 7.30005 14.7 8.60191 14.7 10.221C14.7 10.8842 14.4743 11.5278 14.0599 12.0457L12.5466 13.9373C12.3051 14.2392 11.8646 14.2882 11.5627 14.0467C11.2608 13.8052 11.2119 13.3646 11.4534 13.0628L12.9667 11.1711C13.1824 10.9014 13.3 10.5663 13.3 10.221C13.3 9.38688 12.6105 8.70005 11.7646 8.70005C10.9027 8.70005 10.2 9.39989 10.2 10.25V10.5C10.2 10.8866 9.88659 11.2 9.49999 11.2C9.11339 11.2 8.79999 10.8866 8.79999 10.5V10.25Z" fill="#222628"/>
<path d="M11.2167 16.1056C11.2167 15.673 11.5674 15.3222 12 15.3222C12.4326 15.3222 12.7833 15.673 12.7833 16.1056C12.7833 16.5382 12.4326 16.8889 12 16.8889C11.5674 16.8889 11.2167 16.5382 11.2167 16.1056Z" fill="#222628"/>
</svg>
