<svg width="24" height="24" viewBox="0 0 24 24" fill="none" xmlns="http://www.w3.org/2000/svg">
<path fill-rule="evenodd" clip-rule="evenodd" d="M9.34947 11.8307C10.1897 11.4804 11.0903 11.3 12 11.3C12.9097 11.3 13.8103 11.4804 14.6505 11.8307C15.4907 12.181 16.2538 12.6943 16.8964 13.3411C17.5389 13.9879 18.0484 14.7555 18.3959 15.6C18.4948 15.8404 18.5741 16.1319 18.6443 16.4025C18.6621 16.4713 18.6796 16.5398 18.697 16.6082C18.7525 16.8254 18.8076 17.0407 18.8715 17.2584C19.0477 17.8583 19.24 18.2743 19.4683 18.4797C19.7556 18.7384 19.7789 19.181 19.5203 19.4683C19.2617 19.7557 18.8191 19.779 18.5317 19.5204C17.9822 19.0258 17.7051 18.2549 17.5283 17.653C17.4566 17.4089 17.393 17.1602 17.3365 16.9387C17.3201 16.8745 17.3043 16.8126 17.2891 16.7538C17.2168 16.475 17.1587 16.2723 17.1012 16.1328C16.8234 15.4575 16.4162 14.8442 15.9032 14.3278C15.3902 13.8115 14.7814 13.4021 14.1118 13.1229C13.4421 12.8437 12.7245 12.7 12 12.7C11.2754 12.7 10.5579 12.8437 9.88823 13.1229C9.21858 13.4021 8.60981 13.8115 8.09681 14.3278C7.58381 14.8442 7.17663 15.4575 6.89874 16.1328C6.84133 16.2723 6.7832 16.475 6.71093 16.7538C6.69569 16.8127 6.67988 16.8745 6.66349 16.9387C6.60694 17.1602 6.54343 17.4089 6.47172 17.653C6.29488 18.2549 6.01779 19.0258 5.46827 19.5204C5.18091 19.779 4.73831 19.7557 4.47969 19.4683C4.22107 19.181 4.24436 18.7384 4.53172 18.4797C4.75998 18.2743 4.95225 17.8583 5.12849 17.2584C5.19244 17.0407 5.24745 16.8254 5.30294 16.6082C5.32039 16.5398 5.33789 16.4713 5.35573 16.4025C5.42589 16.1319 5.50514 15.8404 5.60408 15.6C5.95158 14.7555 6.46106 13.9879 7.10362 13.3411C7.7462 12.6943 8.5093 12.181 9.34947 11.8307Z" fill="#222628"/>
<path fill-rule="evenodd" clip-rule="evenodd" d="M1.29999 19C1.29999 18.6134 1.61339 18.3 1.99999 18.3H22C22.3866 18.3 22.7 18.6134 22.7 19C22.7 19.3866 22.3866 19.7 22 19.7H1.99999C1.61339 19.7 1.29999 19.3866 1.29999 19Z" fill="#222628"/>
<path fill-rule="evenodd" clip-rule="evenodd" d="M12 8.30005C12.3866 8.30005 12.7 8.61345 12.7 9.00005V11.5C12.7 11.8866 12.3866 12.2 12 12.2C11.6134 12.2 11.3 11.8866 11.3 11.5V9.00005C11.3 8.61345 11.6134 8.30005 12 8.30005Z" fill="#222628"/>
<path fill-rule="evenodd" clip-rule="evenodd" d="M10.3 9.00005C10.3 8.61345 10.6134 8.30005 11 8.30005H13C13.3866 8.30005 13.7 8.61345 13.7 9.00005C13.7 9.38665 13.3866 9.70005 13 9.70005H11C10.6134 9.70005 10.3 9.38665 10.3 9.00005Z" fill="#222628"/>
<path fill-rule="evenodd" clip-rule="evenodd" d="M12.0711 5L12.036 5.00007C11.4838 5.00221 11.0343 4.55624 11.0322 4.00396C11.03 3.45168 11.476 3.00223 12.0283 3.00008L12.0711 3L12.1139 3.00008C12.6662 3.00223 13.1121 3.45168 13.11 4.00396C13.1078 4.55624 12.6584 5.00221 12.1061 5.00007L12.0711 5ZM5.73743 6.19711C6.12643 6.58915 6.12397 7.22231 5.73193 7.61131L5.70711 7.63604C5.31658 8.02656 4.68342 8.02656 4.29289 7.63604C3.90237 7.24551 3.90237 6.61235 4.29289 6.22182L4.32322 6.19161C4.71526 5.80261 5.34842 5.80507 5.73743 6.19711ZM18.4047 6.19711C18.7937 5.80507 19.4269 5.80261 19.8189 6.19161L19.8492 6.22183C20.2398 6.61235 20.2398 7.24551 19.8492 7.63604C19.4587 8.02656 18.8256 8.02656 18.435 7.63604L18.4102 7.61131C18.0182 7.22231 18.0157 6.58915 18.4047 6.19711Z" fill="#222628"/>
</svg>
