<svg width="24" height="24" viewBox="0 0 24 24" fill="none" xmlns="http://www.w3.org/2000/svg">
<path fill-rule="evenodd" clip-rule="evenodd" d="M17.3358 1.092C17.3358 1.092 17.3358 1.092 17.3358 1.092L17.3506 1.13192L17.3934 1.24765C17.4303 1.34779 17.4829 1.49149 17.5456 1.66501C17.671 2.0125 17.8358 2.47766 17.9948 2.95134C18.1547 3.42768 18.3048 3.90156 18.4034 4.27021C18.4189 4.32801 18.4326 4.3816 18.4447 4.43088C18.3964 4.44646 18.3436 4.46287 18.2862 4.48002C17.9207 4.58945 17.4384 4.71016 16.949 4.82389C16.4623 4.93698 15.9798 5.04059 15.6182 5.11606C15.4376 5.15375 15.2877 5.18433 15.183 5.20544L15.0621 5.2297L15.0208 5.23788C14.6415 5.31246 14.3939 5.68053 14.4685 6.05987C14.543 6.43921 14.911 6.68626 15.2904 6.61168L15.3354 6.60277L15.46 6.57777C15.5672 6.55614 15.7202 6.52494 15.9042 6.48653C16.2719 6.4098 16.7654 6.30385 17.2659 6.18755C17.7637 6.07188 18.2797 5.94336 18.6877 5.82123C18.8896 5.76081 19.0819 5.69698 19.2378 5.63194C19.3145 5.59993 19.4004 5.56022 19.4803 5.51189C19.5322 5.48051 19.6974 5.38014 19.8037 5.18988C19.91 4.99962 19.9087 4.80628 19.9083 4.74566C19.9075 4.65229 19.8962 4.55829 19.8832 4.47619C19.8569 4.30938 19.8103 4.11212 19.7559 3.90855C19.6459 3.4971 19.4846 2.99036 19.3221 2.5059C19.1586 2.0188 18.9899 1.543 18.8624 1.18973C18.7986 1.01289 18.7449 0.866256 18.7071 0.763663L18.663 0.644431L18.6473 0.602291C18.5119 0.240202 18.1082 0.0556334 17.7461 0.191098C17.384 0.326562 17.2003 0.729911 17.3358 1.092Z" fill="#222628"/>
<path fill-rule="evenodd" clip-rule="evenodd" d="M6.47148 4.62219C8.91156 2.86565 12.6312 2.2189 17.6991 4.63215C18.0481 4.79836 18.4658 4.65015 18.632 4.3011C18.7982 3.95206 18.65 3.53436 18.301 3.36814C12.8688 0.781392 8.58846 1.37322 5.65355 3.48597C2.76555 5.56495 1.30001 9.03639 1.30001 12.0001C1.30001 17.9096 6.09056 22.7001 12 22.7001C17.9095 22.7001 22.7 17.9096 22.7 12.0001C22.7 11.6135 22.3866 11.3001 22 11.3001C21.6134 11.3001 21.3 11.6135 21.3 12.0001C21.3 17.1364 17.1363 21.3001 12 21.3001C6.86376 21.3001 2.70001 17.1364 2.70001 12.0001C2.70001 9.44106 3.98447 6.4125 6.47148 4.62219Z" fill="#222628"/>
</svg>
