<svg width="24" height="24" viewBox="0 0 24 24" fill="none" xmlns="http://www.w3.org/2000/svg">
<path fill-rule="evenodd" clip-rule="evenodd" d="M6.66424 1.092C6.66424 1.092 6.66424 1.092 6.66424 1.092L6.64938 1.13192L6.60658 1.24765C6.56969 1.34779 6.51707 1.49149 6.45444 1.66501C6.32903 2.0125 6.16416 2.47766 6.00519 2.95134C5.84532 3.42768 5.69517 3.90156 5.59659 4.27021C5.58113 4.32801 5.56739 4.3816 5.55533 4.43088C5.60361 4.44646 5.65645 4.46287 5.71377 4.48002C6.07934 4.58945 6.56157 4.71016 7.05098 4.82389C7.53766 4.93698 8.02017 5.04059 8.3818 5.11606C8.5624 5.15375 8.71234 5.18433 8.81695 5.20544L8.93793 5.2297L8.9792 5.23788C9.35854 5.31246 9.60611 5.68053 9.53153 6.05987C9.45695 6.43921 9.08898 6.68626 8.70964 6.61168L8.66464 6.60277L8.54 6.57777C8.43282 6.55614 8.27982 6.52494 8.09577 6.48653C7.72812 6.4098 7.23456 6.30385 6.73409 6.18755C6.23634 6.07188 5.72034 5.94336 5.31232 5.82123C5.11044 5.76081 4.91808 5.69698 4.76222 5.63194C4.68551 5.59993 4.59957 5.56022 4.51968 5.51189C4.46781 5.48051 4.30255 5.38014 4.1963 5.18988C4.09004 4.99962 4.09126 4.80628 4.09175 4.74566C4.0925 4.65229 4.10377 4.55829 4.11675 4.47619C4.14312 4.30938 4.18967 4.11212 4.24411 3.90855C4.35414 3.4971 4.51535 2.99036 4.67794 2.5059C4.84142 2.0188 5.01008 1.543 5.13759 1.18973C5.20141 1.01289 5.2551 0.866256 5.2929 0.763663L5.33699 0.644431L5.35268 0.602291C5.48815 0.240202 5.89182 0.0556334 6.2539 0.191098C6.61599 0.326562 6.79971 0.729911 6.66424 1.092Z" fill="#222628"/>
<path fill-rule="evenodd" clip-rule="evenodd" d="M17.5285 4.62219C15.0884 2.86565 11.3688 2.2189 6.30094 4.63215C5.9519 4.79836 5.5342 4.65015 5.36799 4.3011C5.20177 3.95206 5.34999 3.53436 5.69903 3.36814C11.1312 0.781392 15.4115 1.37322 18.3465 3.48597C21.2345 5.56495 22.7 9.03639 22.7 12.0001C22.7 17.9096 17.9094 22.7001 12 22.7001C6.09054 22.7001 1.29999 17.9096 1.29999 12.0001C1.29999 11.6135 1.61339 11.3001 1.99999 11.3001C2.38659 11.3001 2.69999 11.6135 2.69999 12.0001C2.69999 17.1364 6.86374 21.3001 12 21.3001C17.1362 21.3001 21.3 17.1364 21.3 12.0001C21.3 9.44106 20.0155 6.4125 17.5285 4.62219Z" fill="#222628"/>
</svg>
