<svg width="24" height="24" viewBox="0 0 24 24" fill="none" xmlns="http://www.w3.org/2000/svg">
<path fill-rule="evenodd" clip-rule="evenodd" d="M22 15.3C22.3866 15.3 22.7 15.6134 22.7 16C22.7 19.7004 19.7003 22.7 16 22.7C15.6134 22.7 15.3 22.3866 15.3 22C15.3 21.6134 15.6134 21.3 16 21.3C18.9271 21.3 21.3 18.9272 21.3 16C21.3 15.6134 21.6134 15.3 22 15.3Z" fill="#222628"/>
<path fill-rule="evenodd" clip-rule="evenodd" d="M15.3 1.99995C15.3 1.61335 15.6134 1.29995 16 1.29995C19.7003 1.29995 22.7 4.29964 22.7 7.99995C22.7 8.38655 22.3866 8.69995 22 8.69995C21.6134 8.69995 21.3 8.38655 21.3 7.99995C21.3 5.07284 18.9271 2.69995 16 2.69995C15.6134 2.69995 15.3 2.38655 15.3 1.99995Z" fill="#222628"/>
<path fill-rule="evenodd" clip-rule="evenodd" d="M2.00001 8.69995C1.61341 8.69995 1.30001 8.38655 1.30001 7.99995C1.30001 4.29964 4.2997 1.29995 8.00001 1.29995C8.38661 1.29995 8.70001 1.61335 8.70001 1.99995C8.70001 2.38655 8.38661 2.69995 8.00001 2.69995C5.0729 2.69995 2.70001 5.07284 2.70001 7.99995C2.70001 8.38655 2.38661 8.69995 2.00001 8.69995Z" fill="#222628"/>
<path fill-rule="evenodd" clip-rule="evenodd" d="M8.70001 22C8.70001 22.3866 8.38661 22.7 8.00001 22.7C4.2997 22.7 1.30001 19.7004 1.30001 16C1.30001 15.6134 1.61341 15.3 2.00001 15.3C2.38661 15.3 2.70001 15.6134 2.70001 16C2.70001 18.9272 5.0729 21.3 8.00001 21.3C8.38661 21.3 8.70001 21.6134 8.70001 22Z" fill="#222628"/>
<path fill-rule="evenodd" clip-rule="evenodd" d="M4.29999 14C4.29999 14.3866 4.61339 14.7 4.99999 14.7L19 14.7C19.3866 14.7 19.7 14.3866 19.7 14C19.7 13.6134 19.3866 13.3 19 13.3L4.99999 13.3C4.61339 13.3 4.29999 13.6134 4.29999 14Z" fill="#222628"/>
</svg>
