<svg width="24" height="24" viewBox="0 0 24 24" fill="none" xmlns="http://www.w3.org/2000/svg">
<path fill-rule="evenodd" clip-rule="evenodd" d="M11.4763 1.30005H11.5236C11.9656 1.30005 12.2115 1.30004 12.4231 1.30928C17.4478 1.52867 21.4714 5.55223 21.6908 10.5769C21.7 10.7885 21.7 11.0345 21.7 11.4764V11.5237C21.7 11.9656 21.7 12.2116 21.6908 12.4232C21.4714 17.4479 17.4478 21.4714 12.4231 21.6908C12.2115 21.7001 11.9656 21.7001 11.5236 21.7001H11.4764C11.0344 21.7001 10.7884 21.7001 10.5769 21.6908C5.55217 21.4714 1.5286 17.4479 1.30922 12.4232C1.29998 12.2116 1.29999 11.9656 1.29999 11.5237V11.4764C1.29999 11.0345 1.29998 10.7885 1.30922 10.5769C1.5286 5.55223 5.55217 1.52867 10.5769 1.30928C10.7884 1.30004 11.0344 1.30005 11.4763 1.30005ZM11.5 2.70005C11.0283 2.70005 10.815 2.70022 10.6379 2.70795C6.33845 2.89567 2.89561 6.33851 2.70789 10.638C2.70016 10.8151 2.69999 11.0284 2.69999 11.5C2.69999 11.9717 2.70016 12.185 2.70789 12.3621C2.89561 16.6616 6.33845 20.1044 10.6379 20.2922C10.815 20.2999 11.0283 20.3 11.5 20.3C11.9716 20.3 12.1849 20.2999 12.362 20.2922C16.6615 20.1044 20.1044 16.6616 20.2921 12.3621C20.2998 12.185 20.3 11.9717 20.3 11.5C20.3 11.0284 20.2998 10.8151 20.2921 10.638C20.1044 6.33851 16.6615 2.89567 12.362 2.70795C12.1849 2.70022 11.9716 2.70005 11.5 2.70005Z" fill="#222628"/>
<path fill-rule="evenodd" clip-rule="evenodd" d="M17.495 18.505C17.7683 18.2316 18.2115 18.2316 18.4849 18.505L21.0305 21.0506C21.3039 21.3239 21.3039 21.7672 21.0305 22.0405C20.7571 22.3139 20.3139 22.3139 20.0405 22.0405L17.495 19.4949C17.2216 19.2216 17.2216 18.7784 17.495 18.505Z" fill="#222628"/>
</svg>
