<svg width="24" height="24" viewBox="0 0 24 24" fill="none" xmlns="http://www.w3.org/2000/svg">
<path fill-rule="evenodd" clip-rule="evenodd" d="M11.4788 2.64974C11.8213 2.57672 12.1786 2.57672 12.5212 2.64974C13.1664 2.78727 13.6294 3.23502 14.0313 3.7724C14.427 4.30141 14.8519 5.04245 15.3749 5.9545L15.3989 5.99624C16.5292 7.96723 17.7658 10.137 18.6119 11.6599C19.2254 12.7643 19.8946 14.0567 20.5241 15.31L20.5464 15.3544C21.0403 16.3376 21.441 17.1355 21.6708 17.7837C21.9041 18.4418 22.0208 19.1014 21.7494 19.7331C21.607 20.0646 21.3874 20.3699 21.1184 20.6102C20.6042 21.0699 19.9356 21.167 19.2324 21.1539C18.5376 21.141 17.6426 21.0131 16.5376 20.8552L12.3592 20.2583C12.1411 20.2272 12.0846 20.2201 12.0312 20.2186C12.0104 20.218 11.9896 20.218 11.9688 20.2186C11.9153 20.2201 11.8589 20.2272 11.6408 20.2583L7.46231 20.8552C6.3574 21.0131 5.46237 21.141 4.76753 21.1539C4.06434 21.167 3.39578 21.0699 2.88155 20.6102C2.61258 20.3699 2.39298 20.0646 2.25057 19.7331C1.97916 19.1014 2.09588 18.4418 2.32915 17.7837C2.55892 17.1355 2.95967 16.3376 3.45348 15.3545L3.47585 15.31C4.10532 14.0567 4.77451 12.7643 5.38807 11.6599C6.23415 10.137 7.47075 7.96723 8.60108 5.99624L8.62501 5.95452C9.14804 5.04246 9.573 4.30141 9.96863 3.7724C10.3705 3.23502 10.8336 2.78727 11.4788 2.64974ZM12.2293 4.01897C12.0792 3.98697 11.9208 3.98697 11.7707 4.01897C11.6296 4.04904 11.4278 4.15884 11.0898 4.61087C10.7515 5.06322 10.3683 5.7289 9.81555 6.69272C8.68539 8.6634 7.45294 10.826 6.61189 12.3398C6.01172 13.4201 5.3523 14.6932 4.72691 15.9383C4.20539 16.9767 3.84559 17.696 3.64871 18.2514C3.45186 18.8067 3.47755 19.0424 3.53687 19.1805C3.59871 19.3244 3.69771 19.462 3.8145 19.5664C3.92495 19.6651 4.14199 19.7653 4.74151 19.7541C5.33914 19.743 6.14772 19.6288 7.31332 19.4623L11.4428 18.8724C11.453 18.8709 11.463 18.8695 11.473 18.8681C11.6471 18.8431 11.7862 18.8232 11.929 18.8192C11.9763 18.8178 12.0236 18.8178 12.0709 18.8192C12.2138 18.8232 12.3529 18.8431 12.527 18.8681C12.5369 18.8695 12.547 18.8709 12.5572 18.8724L16.6866 19.4623C17.8522 19.6288 18.6608 19.743 19.2584 19.7541C19.858 19.7653 20.075 19.6651 20.1855 19.5664C20.3022 19.462 20.4012 19.3244 20.4631 19.1805C20.5224 19.0424 20.5481 18.8067 20.3513 18.2514C20.1544 17.696 19.7946 16.9767 19.273 15.9383C18.6477 14.6932 17.9882 13.4201 17.3881 12.3398C16.547 10.826 15.3146 8.6634 14.1844 6.69272C13.6317 5.7289 13.2485 5.06322 12.9102 4.61087C12.5721 4.15884 12.3703 4.04904 12.2293 4.01897Z" fill="#222628"/>
<path fill-rule="evenodd" clip-rule="evenodd" d="M12 12.2998C12.3866 12.2998 12.7 12.6132 12.7 12.9998V18.9998C12.7 19.3864 12.3866 19.6998 12 19.6998C11.6134 19.6998 11.3 19.3864 11.3 18.9998V12.9998C11.3 12.6132 11.6134 12.2998 12 12.2998Z" fill="#222628"/>
</svg>
