<svg width="24" height="24" viewBox="0 0 24 24" fill="none" xmlns="http://www.w3.org/2000/svg">
<path fill-rule="evenodd" clip-rule="evenodd" d="M14.5764 9.06118C14.8498 9.33454 14.8498 9.77776 14.5764 10.0511L10.3338 14.2938C10.0604 14.5671 9.61721 14.5671 9.34385 14.2938C9.07048 14.0204 9.07048 13.5772 9.34385 13.3038L13.5865 9.06118C13.8599 8.78781 14.3031 8.78781 14.5764 9.06118Z" fill="#222628"/>
<path fill-rule="evenodd" clip-rule="evenodd" d="M21.0316 1.86903C21.3254 2.05962 21.5781 2.31227 21.7687 2.60612C22.1276 3.15961 22.1385 3.80363 22.0427 4.4678C21.9483 5.12162 21.7248 5.9461 21.4498 6.96085L21.4372 7.0073C20.8427 9.20026 20.1829 11.6089 19.7043 13.2841C19.3572 14.4989 18.9166 15.8859 18.4755 17.2172L18.4598 17.2644C18.1138 18.3088 17.833 19.1564 17.5371 19.7772C17.2367 20.4075 16.8528 20.9565 16.2142 21.2112C15.8791 21.3449 15.508 21.4055 15.1478 21.3853C14.4592 21.3467 13.9178 20.9426 13.4298 20.4361C12.9476 19.9357 12.4052 19.2123 11.7355 18.3194L9.20297 14.9427C9.07077 14.7665 9.03583 14.7216 8.99912 14.6827C8.98483 14.6676 8.97011 14.6529 8.95498 14.6386C8.91612 14.6019 8.87125 14.5669 8.69497 14.4347L5.31827 11.9022C4.42535 11.2325 3.70205 10.6901 3.20159 10.2079C2.69512 9.71989 2.29104 9.17848 2.25242 8.48988C2.23221 8.1297 2.29279 7.75856 2.42646 7.4235C2.68122 6.7849 3.23022 6.40097 3.86051 6.10058C4.48132 5.8047 5.32887 5.5239 6.37321 5.17791L6.42052 5.16223C7.75182 4.72114 9.13884 4.28051 10.3536 3.93343C12.0288 3.45481 14.4374 2.79497 16.6304 2.20053L16.6768 2.18795C17.6916 1.91287 18.5161 1.68936 19.1699 1.59504C19.8341 1.49924 20.4781 1.51005 21.0316 1.86903ZM20.5941 3.36793C20.5106 3.23915 20.3986 3.12714 20.2698 3.04362C20.1488 2.96514 19.9285 2.90011 19.3698 2.9807C18.8107 3.06135 18.069 3.26109 16.9967 3.55177C14.804 4.14611 12.4034 4.80379 10.7382 5.27956C9.54996 5.61907 8.1835 6.05296 6.86084 6.49119C5.75785 6.85663 4.99482 7.11084 4.46283 7.36438C3.93097 7.61786 3.78248 7.80269 3.7268 7.94226C3.66875 8.08775 3.64145 8.25508 3.65022 8.41147C3.65852 8.55937 3.74117 8.78366 4.17297 9.1997C4.60341 9.61443 5.25592 10.1054 6.19786 10.8119L9.53497 13.3147C9.54321 13.3209 9.55135 13.327 9.5594 13.333C9.70011 13.4385 9.81255 13.5228 9.91644 13.6209C9.95082 13.6534 9.98428 13.6869 10.0168 13.7213C10.1149 13.8251 10.1992 13.9376 10.3047 14.0783C10.3107 14.0863 10.3168 14.0945 10.323 14.1027L12.8258 17.4398C13.5323 18.3818 14.0233 19.0343 14.438 19.4647C14.854 19.8965 15.0783 19.9792 15.2262 19.9875C15.3826 19.9963 15.5499 19.9689 15.6954 19.9109C15.835 19.8552 16.0198 19.7067 16.2733 19.1749C16.5269 18.6429 16.7811 17.8799 17.1465 16.7769C17.5847 15.4542 18.0186 14.0877 18.3581 12.8995C18.8339 11.2343 19.4916 8.83365 20.0859 6.64103C20.3766 5.56866 20.5763 4.82699 20.657 4.26792C20.7376 3.70925 20.6726 3.48892 20.5941 3.36793Z" fill="#222628"/>
</svg>
