<svg width="24" height="24" viewBox="0 0 24 24" fill="none" xmlns="http://www.w3.org/2000/svg">
<path fill-rule="evenodd" clip-rule="evenodd" d="M20.3837 11.46C20.4562 11.8007 20.4562 12.1614 20.3835 12.5021C20.2465 13.1446 19.8061 13.6049 19.2746 14.004C18.7535 14.3953 18.0246 14.8134 17.1297 15.3267L17.0876 15.3508C15.0945 16.4941 12.8845 17.7539 11.3399 18.612C10.2355 19.2256 8.94319 19.8948 7.68992 20.5242L7.64534 20.5466C6.66224 21.0404 5.8644 21.4412 5.21621 21.6709C4.55812 21.9042 3.89844 22.0209 3.26674 21.7495C2.93529 21.6071 2.63003 21.3875 2.38963 21.1185C1.93003 20.6043 1.83292 19.9357 1.84599 19.2326C1.8589 18.5377 1.98678 17.6427 2.14464 16.5378L2.74157 12.3593C2.77273 12.1412 2.77975 12.0848 2.78127 12.0313C2.78186 12.0105 2.78186 11.9897 2.78127 11.9689C2.77975 11.9155 2.77273 11.859 2.74157 11.6409L2.11515 7.25599C1.96527 6.20698 1.84297 5.35103 1.83461 4.68127C1.82605 3.99506 1.93144 3.34732 2.38819 2.83877C2.62701 2.57287 2.94073 2.34863 3.26961 2.20874C3.89515 1.94267 4.53388 2.04627 5.17327 2.27202C5.79385 2.49113 6.54784 2.8756 7.46869 3.34515L7.51451 3.36851C8.64016 3.94245 9.9221 4.6148 11.3352 5.38558C13.4105 6.51756 15.4139 7.64907 17.1053 8.6199L17.1475 8.64411C18.0366 9.1544 18.7614 9.57042 19.2797 9.96043C19.8092 10.3588 20.247 10.8184 20.3837 11.46ZM19.0143 12.2101C19.0459 12.0618 19.046 11.8999 19.0144 11.7516C18.9836 11.6071 18.8753 11.4082 18.438 11.0791C17.9977 10.7479 17.3499 10.3745 16.4084 9.8341C14.7232 8.86681 12.7289 7.74049 10.6648 6.61463C9.2637 5.8504 7.99327 5.1841 6.87858 4.61574C5.90059 4.11709 5.22953 3.77659 4.70717 3.59216C4.19337 3.41075 3.96547 3.43414 3.81759 3.49704C3.67705 3.55682 3.53182 3.66063 3.42977 3.77425C3.32491 3.891 3.22749 4.10184 3.2345 4.6638C3.24159 5.23153 3.34946 5.99668 3.50828 7.10837L4.12749 11.4429C4.12895 11.4531 4.13039 11.4632 4.13182 11.4731C4.15674 11.6472 4.17665 11.7863 4.18071 11.9292C4.18205 11.9764 4.18205 12.0238 4.18071 12.071C4.17665 12.2139 4.15674 12.353 4.13182 12.5271C4.13039 12.537 4.12895 12.5471 4.12749 12.5573L3.53757 16.6868C3.37106 17.8524 3.25685 18.6609 3.24575 19.2586C3.2346 19.8581 3.33476 20.0751 3.43347 20.1856C3.53785 20.3024 3.67548 20.4014 3.8194 20.4632C3.95746 20.5225 4.19315 20.5482 4.74847 20.3514C5.30392 20.1545 6.02322 19.7947 7.06156 19.2732C8.3067 18.6478 9.57974 17.9884 10.66 17.3882C12.1955 16.5352 14.3981 15.2795 16.3911 14.1364C17.3382 13.5931 17.9906 13.2175 18.4339 12.8845C18.875 12.5533 18.9837 12.3537 19.0143 12.2101Z" fill="#222628"/>
<path fill-rule="evenodd" clip-rule="evenodd" d="M10.7 12.0002C10.7 12.3868 10.3866 12.7002 10 12.7002L4.00001 12.7002C3.61341 12.7002 3.30001 12.3868 3.30001 12.0002C3.30001 11.6136 3.61341 11.3002 4.00001 11.3002L10 11.3002C10.3866 11.3002 10.7 11.6136 10.7 12.0002Z" fill="#222628"/>
</svg>
