<svg width="24" height="24" viewBox="0 0 24 24" fill="none" xmlns="http://www.w3.org/2000/svg">
<path fill-rule="evenodd" clip-rule="evenodd" d="M10.161 3.24648C9.81937 3.54878 9.62188 3.97334 9.52729 4.47107C9.46114 4.81911 9.25347 5.10204 9.05957 5.30254C8.85533 5.51374 8.60477 5.69725 8.34847 5.84173C8.09207 5.98626 7.80563 6.10544 7.51989 6.17145C7.24861 6.23411 6.90144 6.26652 6.5712 6.14841C6.12063 5.98726 5.68527 5.94907 5.27998 6.08593C4.88053 6.22082 4.40792 6.56029 3.94396 7.35348C3.39467 8.29254 3.35351 8.94519 3.469 9.39099C3.58777 9.84947 3.90786 10.2278 4.34499 10.5392C4.61522 10.7318 4.78168 11.007 4.88211 11.2547C4.98539 11.5095 5.04105 11.7887 5.05685 12.0571C5.07264 12.3254 5.0502 12.6098 4.97599 12.8758C4.90376 13.1346 4.76695 13.4293 4.51286 13.6504C4.10976 14.0011 3.79816 14.4116 3.66714 14.8796C3.54272 15.3241 3.55816 15.9008 3.94819 16.653C4.41331 17.3977 4.90048 17.6967 5.32751 17.8032C5.7778 17.9154 6.26932 17.8401 6.76479 17.6452C7.08311 17.52 7.41387 17.5375 7.6796 17.5946C7.95374 17.6536 8.22148 17.7675 8.4569 17.9083C8.69231 18.0491 8.91944 18.2311 9.10103 18.4449C9.27707 18.6521 9.44893 18.9356 9.4887 19.2757C9.55402 19.8344 9.73357 20.3249 10.0766 20.6735C10.406 21.0084 10.9726 21.3 12 21.3C13.0274 21.3 13.594 21.0084 13.9234 20.6735C14.2664 20.3249 14.446 19.8344 14.5113 19.2757C14.5511 18.9356 14.7229 18.6521 14.899 18.4449C15.0806 18.2311 15.3077 18.0491 15.5431 17.9083C15.7785 17.7675 16.0463 17.6536 16.3204 17.5946C16.5861 17.5375 16.9169 17.52 17.2352 17.6452C17.7307 17.8401 18.2222 17.9154 18.6725 17.8032C19.0995 17.6967 19.5867 17.3977 20.0518 16.653C20.4888 15.8102 20.4591 15.1822 20.2747 14.7049C20.0762 14.1909 19.6597 13.7543 19.1758 13.4037C18.6895 13.0513 18.5363 12.4529 18.5363 12C18.5363 11.5472 18.6895 10.9488 19.1758 10.5964C19.6597 10.2458 20.0762 9.80925 20.2747 9.29521C20.4591 8.81787 20.4888 8.18994 20.0518 7.34713C19.5867 6.6024 19.0995 6.30335 18.6725 6.19693C18.2222 6.08471 17.7307 6.16 17.2352 6.35488C16.9169 6.48009 16.5861 6.46258 16.3204 6.40546C16.0463 6.34654 15.7785 6.23255 15.5431 6.09175C15.3077 5.95097 15.0806 5.76899 14.899 5.55522C14.7229 5.34798 14.5511 5.06452 14.5113 4.72436C14.446 4.16568 14.2664 3.6752 13.9234 3.32656C13.594 2.99171 13.0274 2.70005 12 2.70005C11.0502 2.70005 10.4962 2.94989 10.161 3.24648ZM9.23325 2.19802C9.88298 1.62309 10.7957 1.30005 12 1.30005C13.3085 1.30005 14.2694 1.68199 14.9214 2.3447C15.5598 2.99362 15.8156 3.82465 15.9018 4.56178C15.9009 4.55424 15.9 4.55053 15.9001 4.55048C15.9006 4.55034 15.9114 4.58457 15.966 4.64885C16.0329 4.72759 16.1355 4.8148 16.2617 4.89024C16.3878 4.96567 16.5133 5.01496 16.6146 5.03673C16.6899 5.05291 16.7261 5.04885 16.7323 5.04831C17.3872 4.79221 18.186 4.63286 19.011 4.83848C19.8594 5.04993 20.6318 5.62124 21.2559 6.63239L21.2686 6.65296L21.2799 6.67435C21.8955 7.84562 21.9276 8.90127 21.5807 9.79957C21.2474 10.6627 20.5975 11.2942 20.0023 11.7264C19.9989 11.7305 19.9875 11.7456 19.9741 11.7792C19.9525 11.8334 19.9363 11.9109 19.9363 12C19.9363 12.0892 19.9525 12.1667 19.9741 12.2209C19.9875 12.2545 19.9989 12.2696 20.0023 12.2737C20.5975 12.7059 21.2474 13.3374 21.5807 14.2005C21.9276 15.0988 21.8955 16.1545 21.2799 17.3257L21.2686 17.3471L21.2559 17.3677C20.6318 18.3789 19.8594 18.9502 19.011 19.1616C18.186 19.3672 17.3872 19.2079 16.7323 18.9518C16.7261 18.9513 16.6899 18.9472 16.6146 18.9634C16.5133 18.9851 16.3878 19.0344 16.2617 19.1099C16.1355 19.1853 16.0329 19.2725 15.966 19.3512C15.9114 19.4155 15.9006 19.4498 15.9001 19.4496C15.9 19.4496 15.9009 19.4459 15.9018 19.4383C15.8156 20.1754 15.5598 21.0065 14.9214 21.6554C14.2694 22.3181 13.3085 22.7001 12 22.7001C10.6915 22.7001 9.7306 22.3181 9.0786 21.6554C8.44017 21.0065 8.18436 20.1754 8.09818 19.4383C8.09906 19.4459 8.10001 19.4496 8.09986 19.4496C8.0994 19.4498 8.08863 19.4155 8.03403 19.3513C7.96714 19.2725 7.86446 19.1853 7.73832 19.1099C7.61219 19.0344 7.48665 18.9851 7.38538 18.9634C7.3101 18.9472 7.27388 18.9513 7.26772 18.9518C6.61284 19.2079 5.81401 19.3672 4.98895 19.1616C4.14055 18.9502 3.36817 18.3789 2.74406 17.3677L2.73137 17.3471L2.72012 17.3257C2.17615 16.2909 2.08432 15.3405 2.31897 14.5022C2.54712 13.6872 3.06101 13.0596 3.58649 12.6007C3.59 12.5953 3.60864 12.5671 3.62752 12.4994C3.65364 12.4059 3.6675 12.2792 3.65927 12.1394C3.65105 11.9997 3.62235 11.8737 3.58465 11.7807C3.55405 11.7052 3.5288 11.678 3.5267 11.6752C2.9334 11.2512 2.3428 10.6263 2.11374 9.74208C1.88064 8.84226 2.05615 7.80805 2.73551 6.64662C3.32384 5.64082 4.0356 5.02847 4.83207 4.75952C5.61934 4.49367 6.38823 4.59757 7.03442 4.82724C7.03441 4.82723 7.0344 4.82722 7.0344 4.8272C7.03459 4.82622 7.0855 4.83492 7.20479 4.80737C7.33805 4.77658 7.49962 4.71311 7.66098 4.62215C7.82244 4.53114 7.9594 4.42629 8.05319 4.32931C8.13333 4.24643 8.15232 4.20062 8.15394 4.19903C8.28746 3.50525 8.59326 2.76434 9.23325 2.19802Z" fill="#222628"/>
<path fill-rule="evenodd" clip-rule="evenodd" d="M12 13.6C12.8837 13.6 13.6 12.8837 13.6 12C13.6 11.1163 12.8837 10.4 12 10.4C11.1163 10.4 10.4 11.1163 10.4 12C10.4 12.8837 11.1163 13.6 12 13.6ZM12 15C13.6569 15 15 13.6569 15 12C15 10.3431 13.6569 9 12 9C10.3431 9 9 10.3431 9 12C9 13.6569 10.3431 15 12 15Z" fill="#222628"/>
</svg>
