<svg width="24" height="24" viewBox="0 0 24 24" fill="none" xmlns="http://www.w3.org/2000/svg">
<path fill-rule="evenodd" clip-rule="evenodd" d="M5.2 6.77942L5.20001 14.1892C5.20001 14.9452 5.54132 15.7058 6.14862 16.4543C6.75475 17.2013 7.58634 17.8862 8.4621 18.4724C9.33405 19.0561 10.2242 19.5251 10.9245 19.8472C11.2744 20.0082 11.5713 20.1299 11.7893 20.2097C11.8865 20.2453 11.9631 20.2707 12.0185 20.2872C12.0749 20.272 12.1526 20.2486 12.2511 20.2155C12.4683 20.1427 12.7638 20.0311 13.1116 19.8817C13.8078 19.5828 14.6918 19.1423 15.557 18.579C16.4259 18.0133 17.2499 17.3406 17.8507 16.5851C18.4495 15.832 18.8 15.0319 18.8 14.1892V6.77932C17.8296 6.1589 16.3162 5.4264 14.9109 4.81813C14.14 4.48447 13.4189 4.19557 12.8645 3.99137C12.5865 3.88898 12.3567 3.81017 12.1864 3.75799C12.1115 3.73503 12.0536 3.7189 12.0115 3.70848C11.9691 3.71893 11.9107 3.73512 11.8352 3.75819C11.6643 3.81041 11.4334 3.88926 11.1543 3.99167C10.5977 4.19591 9.87364 4.48484 9.09989 4.81851C7.68909 5.42688 6.17089 6.1593 5.2 6.77942ZM11.7094 2.34124C11.7778 2.32524 11.894 2.30005 12.0117 2.30005C12.1294 2.30005 12.2456 2.32529 12.3141 2.34134C12.3989 2.36124 12.495 2.38828 12.5968 2.41947C12.8012 2.48215 13.0577 2.57058 13.3484 2.67765C13.9314 2.89236 14.6768 3.1913 15.467 3.53332C17.0304 4.21 18.8387 5.08519 19.9025 5.83272C20.089 5.96379 20.2 6.17748 20.2 6.40546V14.1892C20.2 15.4412 19.6755 16.5397 18.9465 17.4564C18.2195 18.3706 17.2631 19.1388 16.3209 19.7522C15.3751 20.3679 14.4175 20.8446 13.6639 21.1682C13.2867 21.3301 12.9552 21.456 12.6962 21.5429C12.5673 21.5861 12.4506 21.6216 12.3517 21.6472C12.2783 21.6663 12.1424 21.7001 12.0117 21.7001C11.8704 21.7001 11.7261 21.6598 11.6548 21.6395C11.5547 21.6109 11.4371 21.5716 11.308 21.5244C11.0485 21.4293 10.7166 21.2926 10.3394 21.1191C9.58549 20.7723 8.62824 20.2683 7.68332 19.6358C6.74221 19.0058 5.78745 18.2312 5.06145 17.3364C4.33661 16.443 3.80001 15.3792 3.80001 14.1892L3.8 6.40545C3.80001 6.17748 3.91102 5.96379 4.09754 5.83272C5.16185 5.08482 6.97657 4.20951 8.54552 3.53294C9.33863 3.19093 10.087 2.89202 10.6721 2.67735C10.9638 2.5703 11.2212 2.48191 11.4262 2.41927C11.5282 2.3881 11.6244 2.36111 11.7094 2.34124Z" fill="#222628"/>
<path fill-rule="evenodd" clip-rule="evenodd" d="M14.9184 9.43891C15.2283 9.66999 15.2923 10.1086 15.0612 10.4185L14.9318 10.5916C14.8496 10.7014 14.732 10.8582 14.5903 11.0463C14.307 11.4223 13.927 11.9242 13.5408 12.4267C13.1555 12.928 12.7606 13.4343 12.4486 13.8172C12.2937 14.0074 12.1527 14.1751 12.0409 14.2985C11.9865 14.3584 11.928 14.4201 11.8722 14.4713C11.8457 14.4955 11.8045 14.5317 11.7542 14.5661C11.7292 14.5833 11.6877 14.6099 11.6339 14.6343C11.5896 14.6545 11.4802 14.7001 11.3333 14.7001C11.1296 14.7001 10.9798 14.614 10.9397 14.591C10.8758 14.5543 10.8212 14.5129 10.7823 14.4814C10.7026 14.4168 10.621 14.338 10.5473 14.2628C10.3966 14.109 10.2233 13.9126 10.065 13.7272C9.90481 13.5394 9.75148 13.3528 9.63874 13.2138C9.58221 13.1441 9.53553 13.0859 9.50285 13.045L9.46478 12.9972L9.45455 12.9843L9.45105 12.9799C9.21141 12.6765 9.26274 12.2359 9.56611 11.9963C9.86947 11.7566 10.3096 11.8083 10.5493 12.1116C10.5493 12.1116 10.5493 12.1116 10.5493 12.1116L10.5521 12.1151L10.5611 12.1266L10.5966 12.1711C10.6275 12.2098 10.672 12.2652 10.7261 12.3319C10.8345 12.4656 10.98 12.6426 11.13 12.8185C11.1871 12.8853 11.2436 12.9506 11.2982 13.0124C11.3192 12.9868 11.3409 12.9603 11.3632 12.933C11.6623 12.5659 12.0475 12.0722 12.4308 11.5735C12.8132 11.076 13.1903 10.5779 13.472 10.2039C13.6128 10.017 13.7296 9.86131 13.8112 9.75238L13.9383 9.58235C14.1694 9.27242 14.6085 9.20783 14.9184 9.43891Z" fill="#222628"/>
</svg>
