<svg width="24" height="24" viewBox="0 0 24 24" fill="none" xmlns="http://www.w3.org/2000/svg">
<path fill-rule="evenodd" clip-rule="evenodd" d="M4.29999 5.00005C4.29999 2.95659 5.95653 1.30005 7.99999 1.30005H16C18.0434 1.30005 19.7 2.9566 19.7 5.00005V19C19.7 21.0435 18.0434 22.7001 16 22.7001H7.99999C5.95653 22.7001 4.29999 21.0435 4.29999 19V5.00005ZM7.99999 2.70005C6.72973 2.70005 5.69999 3.72979 5.69999 5.00005V19C5.69999 20.2703 6.72973 21.3 7.99999 21.3H16C17.2702 21.3 18.3 20.2703 18.3 19V5.00005C18.3 3.72979 17.2702 2.70005 16 2.70005H7.99999Z" fill="#222628"/>
<path fill-rule="evenodd" clip-rule="evenodd" d="M12 13.7C10.7297 13.7 9.69999 14.7298 9.69999 16C9.69999 17.2703 10.7297 18.3 12 18.3C13.2702 18.3 14.3 17.2703 14.3 16C14.3 14.7298 13.2702 13.7 12 13.7ZM8.29999 16C8.29999 13.9566 9.95653 12.3 12 12.3C14.0434 12.3 15.7 13.9566 15.7 16C15.7 18.0435 14.0434 19.7 12 19.7C9.95653 19.7 8.29999 18.0435 8.29999 16Z" fill="#222628"/>
<path d="M13 8C13 8.55228 12.5523 9 12 9C11.4477 9 11 8.55228 11 8C11 7.44772 11.4477 7 12 7C12.5523 7 13 7.44772 13 8Z" fill="#222628"/>
</svg>
