<svg width="24" height="24" viewBox="0 0 24 24" fill="none" xmlns="http://www.w3.org/2000/svg">
<path fill-rule="evenodd" clip-rule="evenodd" d="M9.72825 4.24158C10.7909 2.58712 13.2091 2.58712 14.2718 4.24158L15.577 6.27371C15.753 6.54779 16.0256 6.74579 16.3406 6.82853L18.6766 7.44192C20.5785 7.94132 21.3258 10.2411 20.0807 11.7631L18.5513 13.6324C18.3451 13.8845 18.241 14.2049 18.2597 14.5301L18.3982 16.9413C18.5109 18.9044 16.5546 20.3258 14.7224 19.6119L12.472 18.7351C12.1684 18.6168 11.8316 18.6168 11.528 18.7351L9.27762 19.6119C7.44544 20.3258 5.4891 18.9044 5.60185 16.9413L5.74034 14.5301C5.75902 14.2049 5.65492 13.8845 5.44866 13.6324L3.91933 11.7631C2.67422 10.2411 3.42149 7.94132 5.32335 7.44192L7.65936 6.82853C7.97443 6.74579 8.24696 6.54779 8.423 6.27371L9.72825 4.24158ZM13.0938 4.99818C12.5822 4.20158 11.4178 4.20158 10.9062 4.99818L9.60095 7.03031C9.23532 7.59956 8.6693 8.01079 8.01493 8.18262L5.67891 8.79602C4.7632 9.03647 4.40341 10.1438 5.0029 10.8766L6.53223 12.7459C6.96063 13.2695 7.17683 13.9349 7.13804 14.6104L6.99955 17.0216C6.94526 17.9668 7.8872 18.6512 8.76936 18.3074L11.0198 17.4306C11.6502 17.185 12.3498 17.185 12.9802 17.4306L15.2306 18.3074C16.1128 18.6512 17.0547 17.9668 17.0005 17.0216L16.862 14.6104C16.8232 13.9349 17.0394 13.2695 17.4678 12.7459L18.9971 10.8766C19.5966 10.1438 19.2368 9.03647 18.3211 8.79602L15.9851 8.18262C15.3307 8.01079 14.7647 7.59956 14.3991 7.03031L13.0938 4.99818Z" fill="#222628"/>
</svg>
