<svg width="24" height="24" viewBox="0 0 24 24" fill="none" xmlns="http://www.w3.org/2000/svg">
<path fill-rule="evenodd" clip-rule="evenodd" d="M12.0175 6.20005C8.81425 6.20005 6.2175 8.7968 6.2175 12C6.2175 15.2033 8.81425 17.8 12.0175 17.8C15.2207 17.8 17.8175 15.2033 17.8175 12C17.8175 8.7968 15.2207 6.20005 12.0175 6.20005ZM4.8175 12C4.8175 8.0236 8.04105 4.80005 12.0175 4.80005C15.9939 4.80005 19.2175 8.0236 19.2175 12C19.2175 15.9765 15.9939 19.2 12.0175 19.2C8.04105 19.2 4.8175 15.9765 4.8175 12Z" fill="#222628"/>
<path fill-rule="evenodd" clip-rule="evenodd" d="M11.9571 1.00008L12 1L12.0429 1.00008C12.5952 1.0022 13.0412 1.45162 13.0391 2.0039C13.037 2.55618 12.5875 3.00218 12.0353 3.00007L12 3L11.9647 3.00007C11.4125 3.00218 10.963 2.55618 10.9609 2.0039C10.9588 1.45162 11.4048 1.0022 11.9571 1.00008ZM18.3337 4.19712C18.7227 3.80509 19.3559 3.80264 19.7479 4.19166C19.7681 4.21173 19.7883 4.23188 19.8083 4.25211C20.1974 4.64414 20.1949 5.2773 19.8029 5.66631C19.4108 6.05533 18.7777 6.05288 18.3887 5.66085L18.3391 5.61132C17.9471 5.22231 17.9447 4.58915 18.3337 4.19712ZM5.66631 4.19712C6.05533 4.58915 6.05288 5.22231 5.66085 5.61132L5.61132 5.66085C5.22231 6.05288 4.58915 6.05533 4.19712 5.66631C3.80509 5.2773 3.80264 4.64414 4.19166 4.25211C4.21173 4.23188 4.23188 4.21173 4.25211 4.19166C4.64414 3.80264 5.2773 3.80509 5.66631 4.19712ZM2.0039 10.9609C2.55618 10.963 3.00218 11.4125 3.00007 11.9647L3 12L3.00007 12.0353C3.00218 12.5875 2.55618 13.037 2.0039 13.0391C1.45162 13.0412 1.0022 12.5952 1.00008 12.0429L1 12L1.00008 11.9571C1.0022 11.4048 1.45162 10.9588 2.0039 10.9609ZM21.9961 10.9609C22.5484 10.9588 22.9978 11.4048 22.9999 11.9571L23 12L22.9999 12.0429C22.9978 12.5952 22.5484 13.0412 21.9961 13.0391C21.4438 13.037 20.9978 12.5875 20.9999 12.0353L21 12L20.9999 11.9647C20.9978 11.4125 21.4438 10.963 21.9961 10.9609ZM4.19712 18.3337C4.58915 17.9447 5.22231 17.9471 5.61132 18.3392L5.66085 18.3887C6.05288 18.7777 6.05533 19.4108 5.66631 19.8029C5.2773 20.1949 4.64414 20.1974 4.25211 19.8083C4.23188 19.7883 4.21173 19.7681 4.19166 19.7479C3.80264 19.3559 3.80509 18.7227 4.19712 18.3337ZM19.8029 18.3337C20.1949 18.7227 20.1974 19.3559 19.8083 19.7479C19.7883 19.7681 19.7681 19.7883 19.7479 19.8083C19.3559 20.1974 18.7227 20.1949 18.3337 19.8029C17.9447 19.4108 17.9471 18.7777 18.3392 18.3887L18.3887 18.3391C18.7777 17.9471 19.4108 17.9447 19.8029 18.3337ZM10.9609 21.9961C10.963 21.4438 11.4125 20.9978 11.9647 20.9999L12 21L12.0353 20.9999C12.5875 20.9978 13.037 21.4438 13.0391 21.9961C13.0412 22.5484 12.5952 22.9978 12.0429 22.9999L12 23L11.9571 22.9999C11.4048 22.9978 10.9588 22.5484 10.9609 21.9961Z" fill="#222628"/>
</svg>
