<svg width="25" height="25" viewBox="0 0 25 25" fill="none" xmlns="http://www.w3.org/2000/svg">
<path fill-rule="evenodd" clip-rule="evenodd" d="M21.3842 3.21254C21.6491 3.49415 21.6491 3.95073 21.3842 4.23233L19.9666 5.73954C19.7017 6.02115 19.2723 6.02115 19.0074 5.73954C18.7425 5.45793 18.7425 5.00135 19.0074 4.71974L20.425 3.21254C20.6899 2.93093 21.1193 2.93093 21.3842 3.21254Z" fill="#222628"/>
<path fill-rule="evenodd" clip-rule="evenodd" d="M23.5885 8.89515C23.5753 9.29316 23.2611 9.60439 22.8867 9.5903L20.6823 9.50733C20.3079 9.49325 20.0152 9.15918 20.0285 8.76117C20.0417 8.36316 20.3559 8.05194 20.7303 8.06602L22.9347 8.14899C23.309 8.16308 23.6018 8.49715 23.5885 8.89515Z" fill="#222628"/>
<path fill-rule="evenodd" clip-rule="evenodd" d="M16.0393 0.868669C16.4136 0.85458 16.7278 1.16581 16.7411 1.56381L16.8191 3.90758C16.8324 4.30559 16.5396 4.63966 16.1653 4.65375C15.7909 4.66784 15.4767 4.35661 15.4635 3.9586L15.3855 1.61483C15.3722 1.21683 15.6649 0.882758 16.0393 0.868669Z" fill="#222628"/>
<path fill-rule="evenodd" clip-rule="evenodd" d="M9.47261 6.26503C9.59614 5.67646 9.88836 5.1366 10.3136 4.71135C10.821 4.20399 11.6436 4.20399 12.1509 4.71135L19.7888 12.3492C20.2962 12.8566 20.2962 13.6792 19.7888 14.1866C19.3636 14.6118 18.8237 14.9041 18.2352 15.0276L16.2273 15.449C15.7902 15.5407 15.3892 15.7578 15.0734 16.0736L11.0201 20.1268C9.5752 21.5718 7.2325 21.5718 5.78756 20.1268L4.37334 18.7126C2.9284 17.2677 2.9284 14.925 4.37334 13.48L8.4266 9.42679C8.74243 9.11096 8.95947 8.71 9.05121 8.27287L9.47261 6.26503ZM11.2344 5.7747C11.0388 5.99507 10.9035 6.26308 10.8428 6.55259L10.4214 8.56043C10.2738 9.26364 9.92463 9.90866 9.41655 10.4167L5.36329 14.47C4.46509 15.3682 4.46509 16.8245 5.36329 17.7227L6.7775 19.1369C7.67571 20.0351 9.13199 20.0351 10.0302 19.1369L14.0835 15.0836C14.5915 14.5756 15.2366 14.2264 15.9398 14.0788L17.9476 13.6574C18.2371 13.5967 18.5051 13.4614 18.7255 13.2658L11.2344 5.7747Z" fill="#222628"/>
<path fill-rule="evenodd" clip-rule="evenodd" d="M9.60594 14.8941C9.8793 15.1675 9.8793 15.6107 9.60594 15.8841L8.89883 16.5912C8.62546 16.8646 8.18225 16.8646 7.90888 16.5912C7.63551 16.3178 7.63551 15.8746 7.90888 15.6013L8.61599 14.8941C8.88935 14.6208 9.33257 14.6208 9.60594 14.8941Z" fill="#222628"/>
</svg>
