<svg width="24" height="24" viewBox="0 0 24 24" fill="none" xmlns="http://www.w3.org/2000/svg">
<path fill-rule="evenodd" clip-rule="evenodd" d="M5.47309 7.30058C5.85941 7.28572 6.18462 7.58684 6.19948 7.97316L6.55155 17.1269C6.6197 18.8989 8.07532 20.3001 9.84834 20.3001H14.1509C15.9241 20.3001 17.3803 18.8988 17.4484 17.1269L17.8005 7.97316C17.8154 7.58684 18.1406 7.28572 18.5269 7.30058C18.9132 7.31543 19.2143 7.64065 19.1995 8.02696L18.8474 17.1807C18.7504 19.7043 16.6763 21.7001 14.1509 21.7001H9.84834C7.32272 21.7001 5.24964 19.7041 5.15258 17.1807L4.80051 8.02696C4.78566 7.64065 5.08678 7.31543 5.47309 7.30058Z" fill="#222628"/>
<path fill-rule="evenodd" clip-rule="evenodd" d="M15.7 4.91489C15.7 5.30149 15.3866 5.61489 15 5.61489L13.4278 5.61489L13.3149 5.0583C13.3147 5.05776 13.3146 5.05707 13.3144 5.05622C13.3132 5.05119 13.3107 5.04082 13.3066 5.02588C13.2984 4.99583 13.2843 4.94834 13.2627 4.88935C13.2188 4.76924 13.1486 4.61339 13.0443 4.46213C12.8453 4.17353 12.5396 3.91457 12 3.91457C11.4604 3.91457 11.1547 4.17354 10.9557 4.46213C10.8514 4.61339 10.7812 4.76924 10.7373 4.88934C10.7158 4.94833 10.7016 4.99583 10.6934 5.02587C10.6894 5.04081 10.6868 5.05118 10.6857 5.05621C10.6855 5.05706 10.6853 5.05776 10.6852 5.05829L10.5722 5.61488L9.00001 5.61488C8.61341 5.61488 8.30001 5.30148 8.30001 4.91488C8.30001 4.52828 8.61341 4.21488 9.00001 4.21488L9.50004 4.21488C9.57204 4.04988 9.6705 3.85973 9.80319 3.66732C10.1905 3.10576 10.8848 2.51457 12 2.51457C13.1152 2.51456 13.8096 3.10576 14.1968 3.66732C14.3295 3.85974 14.428 4.04988 14.5 4.21489L15 4.21489C15.3866 4.21489 15.7 4.52829 15.7 4.91489Z" fill="#222628"/>
<path fill-rule="evenodd" clip-rule="evenodd" d="M14 13.3C14.3866 13.3 14.7 13.6134 14.7 14V16C14.7 16.3866 14.3866 16.7 14 16.7C13.6134 16.7 13.3 16.3866 13.3 16V14C13.3 13.6134 13.6134 13.3 14 13.3Z" fill="#222628"/>
<path fill-rule="evenodd" clip-rule="evenodd" d="M10 13.3C10.3866 13.3 10.7 13.6134 10.7 14V16C10.7 16.3866 10.3866 16.7 10 16.7C9.61341 16.7 9.30001 16.3866 9.30001 16V14C9.30001 13.6134 9.61341 13.3 10 13.3Z" fill="#222628"/>
<path fill-rule="evenodd" clip-rule="evenodd" d="M20.6973 5.76112C20.6636 6.14625 20.3241 6.43114 19.939 6.39744L18.2151 6.2466C14.0796 5.88474 9.9204 5.88474 5.78489 6.2466L4.06102 6.39744C3.67589 6.43114 3.33636 6.14625 3.30266 5.76112C3.26896 5.37599 3.55385 5.03647 3.93898 5.00277L5.66285 4.85193C9.87956 4.48296 14.1204 4.48296 18.3371 4.85193L20.061 5.00277C20.4461 5.03647 20.731 5.37599 20.6973 5.76112Z" fill="#222628"/>
</svg>
