<svg width="24" height="24" viewBox="0 0 24 24" fill="none" xmlns="http://www.w3.org/2000/svg">
<path fill-rule="evenodd" clip-rule="evenodd" d="M12 20.3C16.478 20.3 20.7059 16.4554 20.2685 11.5623C20.1421 10.1492 19.8287 9.02439 19.3055 8.07613C18.7838 7.13055 18.0322 6.32196 16.9742 5.57071C16.6589 5.3469 16.5848 4.90993 16.8086 4.5947C17.0325 4.27948 17.4694 4.20537 17.7847 4.42919C18.9808 5.2785 19.8898 6.237 20.5314 7.39981C21.1714 8.55996 21.5241 9.88483 21.6629 11.4376C22.1838 17.2644 17.1808 21.7 12 21.7C6.81918 21.7 1.81616 17.2644 2.33711 11.4376C2.47594 9.88483 2.82856 8.55996 3.46865 7.39981C4.11021 6.237 5.01916 5.2785 6.21535 4.42919C6.53058 4.20537 6.96755 4.27948 7.19137 4.5947C7.41518 4.90993 7.34108 5.3469 7.02585 5.57071C5.96778 6.32196 5.21616 7.13055 4.69445 8.07613C4.17127 9.02439 3.85789 10.1492 3.73155 11.5623C3.29408 16.4554 7.52202 20.3 12 20.3Z" fill="#222628"/>
<path fill-rule="evenodd" clip-rule="evenodd" d="M12 1.30005C12.3866 1.30005 12.7 1.61345 12.7 2.00005V8.50005C12.7 8.88665 12.3866 9.20005 12 9.20005C11.6134 9.20005 11.3 8.88665 11.3 8.50005V2.00005C11.3 1.61345 11.6134 1.30005 12 1.30005Z" fill="#222628"/>
</svg>
