<svg width="24" height="24" viewBox="0 0 24 24" fill="none" xmlns="http://www.w3.org/2000/svg">
<path fill-rule="evenodd" clip-rule="evenodd" d="M8.2587 4.30005H15.7413C17.0187 4.30004 18.0344 4.30003 18.8433 4.38768C19.6741 4.47768 20.3695 4.66681 20.9687 5.10218C21.3253 5.36123 21.6388 5.67479 21.8979 6.03135C22.3332 6.63058 22.5224 7.32597 22.6124 8.15673C22.7 8.96571 22.7 9.9814 22.7 11.2588V11.7413C22.7 13.0187 22.7 14.0344 22.6124 14.8434C22.5224 15.6741 22.3332 16.3695 21.8979 16.9687C21.6388 17.3253 21.3253 17.6389 20.9687 17.8979C20.3695 18.3333 19.6741 18.5224 18.8433 18.6124C18.0344 18.7001 17.0187 18.7001 15.7413 18.7H8.25868C6.98131 18.7001 5.96565 18.7001 5.15669 18.6124C4.32592 18.5224 3.63054 18.3333 3.03131 17.8979C2.67475 17.6389 2.36119 17.3253 2.10213 16.9687C1.66677 16.3695 1.47764 15.6741 1.38763 14.8434C1.29999 14.0344 1.29999 13.0187 1.3 11.7413V11.2587C1.29999 9.98137 1.29999 8.9657 1.38763 8.15673C1.47764 7.32597 1.66677 6.63058 2.10213 6.03135C2.36119 5.67479 2.67475 5.36123 3.03131 5.10218C3.63054 4.66681 4.32592 4.47768 5.15669 4.38768C5.96565 4.30003 6.98132 4.30004 8.2587 4.30005ZM5.30748 5.77953C4.59584 5.85663 4.175 6.00173 3.8542 6.2348C3.6165 6.4075 3.40746 6.61655 3.23476 6.85425C3.00168 7.17505 2.85659 7.59588 2.77949 8.30753C2.70096 9.03228 2.7 9.97205 2.7 11.3V11.7C2.7 13.028 2.70096 13.9678 2.77949 14.6926C2.85659 15.4042 3.00168 15.825 3.23476 16.1458C3.40746 16.3836 3.6165 16.5926 3.8542 16.7653C4.175 16.9984 4.59584 17.1435 5.30748 17.2206C6.03223 17.2991 6.972 17.3 8.3 17.3H15.7C17.028 17.3 17.9678 17.2991 18.6925 17.2206C19.4042 17.1435 19.825 16.9984 20.1458 16.7653C20.3835 16.5926 20.5925 16.3836 20.7653 16.1458C20.9983 15.825 21.1434 15.4042 21.2205 14.6926C21.299 13.9678 21.3 13.028 21.3 11.7V11.3C21.3 9.97205 21.299 9.03228 21.2205 8.30753C21.1434 7.59588 20.9983 7.17505 20.7653 6.85425C20.5925 6.61655 20.3835 6.4075 20.1458 6.2348C19.825 6.00173 19.4042 5.85663 18.6925 5.77953C17.9678 5.70101 17.028 5.70005 15.7 5.70005H8.3C6.972 5.70005 6.03223 5.70101 5.30748 5.77953Z" fill="#222628"/>
<path fill-rule="evenodd" clip-rule="evenodd" d="M16.495 17.505C16.7684 17.2316 17.2116 17.2316 17.4849 17.505L19.495 19.515C19.7684 19.7884 19.7684 20.2316 19.495 20.505C19.2216 20.7784 18.7784 20.7784 18.505 20.505L16.495 18.4949C16.2216 18.2216 16.2216 17.7784 16.495 17.505Z" fill="#222628"/>
<path fill-rule="evenodd" clip-rule="evenodd" d="M14.495 2.49502C14.7684 2.76838 14.7684 3.2116 14.495 3.48496L12.4849 5.49502C12.2116 5.76838 11.7684 5.76838 11.495 5.49502C11.2216 5.22165 11.2216 4.77843 11.495 4.50507L13.505 2.49502C13.7784 2.22165 14.2216 2.22165 14.495 2.49502Z" fill="#222628"/>
<path fill-rule="evenodd" clip-rule="evenodd" d="M4.50503 20.505C4.23166 20.2316 4.23166 19.7884 4.50503 19.515L6.51508 17.505C6.78845 17.2316 7.23166 17.2316 7.50503 17.505C7.7784 17.7784 7.7784 18.2216 7.50503 18.4949L5.49498 20.505C5.22161 20.7784 4.7784 20.7784 4.50503 20.505Z" fill="#222628"/>
<path fill-rule="evenodd" clip-rule="evenodd" d="M12.505 5.49502C12.2317 5.76838 11.7884 5.76838 11.5151 5.49502L9.50503 3.48497C9.23166 3.2116 9.23166 2.76838 9.50503 2.49502C9.7784 2.22165 10.2216 2.22165 10.495 2.49502L12.505 4.50507C12.7784 4.77843 12.7784 5.22165 12.505 5.49502Z" fill="#222628"/>
</svg>
