<svg width="24" height="24" viewBox="0 0 24 24" fill="none" xmlns="http://www.w3.org/2000/svg">
<path fill-rule="evenodd" clip-rule="evenodd" d="M18.2209 15.6642C17.8543 15.7861 17.4581 15.5879 17.3359 15.2213C17.2137 14.8546 17.4119 14.4581 17.7787 14.3359L18 15C17.7787 14.3359 17.779 14.3358 17.7792 14.3357L17.7799 14.3355L17.7814 14.335L17.7853 14.3337L17.7964 14.3301C17.8052 14.3273 17.8169 14.3237 17.8313 14.3193C17.8601 14.3106 17.8997 14.2991 17.9488 14.2861C18.0466 14.26 18.1834 14.2273 18.3468 14.1984C18.667 14.1418 19.1207 14.0939 19.5942 14.1582C20.0698 14.2228 20.6172 14.4087 21.0436 14.8668C21.4689 15.3236 21.6923 15.963 21.6998 16.7725C21.8279 17.89 21.7004 18.772 21.3743 19.4571C21.0397 20.16 20.5241 20.5965 19.9955 20.8554C19.4784 21.1088 18.9568 21.1897 18.5795 21.2115C18.388 21.2226 18.2258 21.2189 18.1089 21.2121C18.0502 21.2087 18.0023 21.2045 17.9671 21.2008C17.9496 21.199 17.9351 21.1973 17.924 21.196L17.9099 21.1941L17.9048 21.1935L17.9028 21.1932L17.9019 21.193C17.9014 21.193 17.901 21.1929 18 20.5L17.901 21.1929C17.5183 21.1382 17.2524 20.7837 17.3071 20.401C17.3616 20.0194 17.7141 19.754 18.0954 19.8065C18.0949 19.8064 18.0948 19.8064 18.0952 19.8065M18.0955 19.8065C18.0956 19.8065 18.0958 19.8065 18.0961 19.8066L18.1113 19.8083C18.1271 19.8099 18.154 19.8123 18.19 19.8144C18.2625 19.8186 18.3698 19.8213 18.4987 19.8139C18.762 19.7986 19.0841 19.743 19.3795 19.5982C19.6635 19.4591 19.9291 19.2358 20.1102 18.8554C20.2957 18.4656 20.4192 17.8537 20.305 16.898C20.3017 16.8704 20.3 16.8427 20.3 16.815C20.3 16.2371 20.1487 15.9602 20.0189 15.8208C19.8829 15.6746 19.6803 15.5828 19.4058 15.5455C19.1293 15.5079 18.8331 15.5341 18.5907 15.577C18.4729 15.5978 18.3754 15.6213 18.3091 15.6389C18.2761 15.6477 18.2513 15.6549 18.2361 15.6595L18.2209 15.6642C18.2207 15.6643 18.2206 15.6643 18.2204 15.6644L18.2204 15.6644L18.2209 15.6642M18.2204 15.6644L18.2197 15.6646L18.2191 15.6648C18.219 15.6648 18.2193 15.6647 18.2197 15.6646C18.2199 15.6645 18.2201 15.6644 18.2204 15.6644Z" fill="#222628"/>
<path fill-rule="evenodd" clip-rule="evenodd" d="M15.1302 4.0946C15.1222 3.70808 15.4291 3.38828 15.8156 3.38029L15.83 4.08014C15.8156 3.38029 15.816 3.38028 15.8164 3.38027L15.8172 3.38026L15.8191 3.38022L15.8234 3.38016L15.8346 3.38009C15.8431 3.38007 15.8536 3.38012 15.8662 3.38034C15.8914 3.38077 15.9246 3.38185 15.9648 3.38426C16.0449 3.38908 16.1542 3.39931 16.2836 3.42085C16.5399 3.46352 16.8899 3.55296 17.2524 3.74377C18.0174 4.14654 18.7457 4.95713 18.8477 6.4293C18.95 7.9043 18.3352 8.7915 17.6138 9.27146C17.2751 9.49682 16.9358 9.61816 16.6858 9.68384C16.5594 9.71705 16.4516 9.7371 16.3724 9.74912C16.3326 9.75515 16.2996 9.7592 16.2746 9.76189C16.2621 9.76324 16.2515 9.76425 16.2431 9.76499L16.232 9.76591L16.2276 9.76625L16.2258 9.76638L16.2249 9.76644C16.2245 9.76647 16.2241 9.7665 16.1757 9.06817L16.2241 9.7665C15.8385 9.79323 15.5041 9.50224 15.4774 9.11657C15.4508 8.73289 15.7387 8.40003 16.1214 8.37029C16.1229 8.37017 16.1244 8.37006 16.1259 8.36995L16.1246 8.37004L16.1226 8.3702L16.1207 8.37035C16.1205 8.37037 16.1207 8.37035 16.1214 8.37029C16.1221 8.37022 16.1232 8.3701 16.1249 8.36992C16.1312 8.36925 16.1441 8.36773 16.1626 8.36492C16.1998 8.35928 16.2582 8.34866 16.3301 8.32978C16.4765 8.29131 16.6624 8.2229 16.8383 8.10588C17.146 7.9011 17.5181 7.49306 17.4511 6.52608C17.3839 5.55628 16.9525 5.16809 16.6002 4.98257C16.4039 4.87925 16.2058 4.82717 16.0537 4.80186C15.9789 4.7894 15.9188 4.78403 15.8808 4.78174C15.8618 4.7806 15.8487 4.78024 15.8422 4.78013C15.8405 4.78011 15.8393 4.78009 15.8386 4.78009C15.8406 4.78006 15.8425 4.78003 15.8445 4.77999M15.1302 4.0946C15.1381 4.47914 15.4547 4.78483 15.8386 4.78009L15.1302 4.0946ZM16.126 8.36994L16.1266 8.3699C16.1266 8.3699 16.1266 8.3699 16.1266 8.3699C16.1264 8.36992 16.1262 8.36993 16.126 8.36994Z" fill="#222628"/>
<path fill-rule="evenodd" clip-rule="evenodd" d="M12.7304 15.0074C12.652 15.0074 12.4924 15.0186 12.0805 15.0492C11.1754 15.1162 10.2012 15.1666 9.31225 15.1666C8.52949 15.1666 7.7117 15.1276 6.94595 15.0725C6.51902 15.0417 6.34977 15.03 6.2787 15.0298C5.04943 15.025 4.1628 15.793 3.9921 17.0104C3.98218 17.0811 3.97231 17.2128 3.94766 17.5579C3.92846 17.8266 3.92196 17.924 3.92194 17.9994C3.92165 19.2065 4.85458 20.2085 6.05863 20.2942C6.13386 20.2995 6.23145 20.3 6.50081 20.3H12.4719C12.7677 20.3 12.8748 20.2994 12.9573 20.293C14.1485 20.1999 15.07 19.2102 15.078 18.0154C15.0786 17.9326 15.0715 17.8257 15.0504 17.5307C15.0255 17.1818 15.0156 17.0506 15.0041 16.9727C14.8295 15.7854 13.9304 15.0083 12.7304 15.0074ZM12.0303 13.649C12.3741 13.6235 12.5925 13.6073 12.7314 13.6074C14.6256 13.6089 16.1135 14.8949 16.3892 16.7689C16.4094 16.9063 16.423 17.096 16.4438 17.3879L16.4493 17.4648C16.4671 17.7138 16.479 17.8799 16.478 18.0248C16.4651 19.9468 14.9827 21.5389 13.0664 21.6887C12.922 21.7 12.7554 21.7 12.5059 21.7H6.46991C6.24257 21.7 6.09086 21.7 5.95922 21.6906C4.02227 21.5528 2.52147 19.9409 2.52194 17.9991C2.52197 17.8671 2.5328 17.7158 2.54901 17.489C2.54974 17.4789 2.55047 17.4686 2.55121 17.4582C2.55227 17.4434 2.55331 17.4288 2.55433 17.4145C2.5749 17.1263 2.58811 16.9411 2.60566 16.816C2.87358 14.9052 4.3547 13.6223 6.2841 13.6298C6.41053 13.6303 6.63295 13.6463 6.98963 13.672C7.00821 13.6733 7.02716 13.6747 7.04647 13.6761C7.79064 13.7296 8.57314 13.7666 9.31225 13.7666C10.1536 13.7666 11.0902 13.7187 11.977 13.653L12.0303 13.649Z" fill="#222628"/>
<path fill-rule="evenodd" clip-rule="evenodd" d="M5.30002 7.50005C5.30002 5.18045 7.18042 3.30005 9.50002 3.30005C11.8196 3.30005 13.7 5.18045 13.7 7.50005V8.00005C13.7 10.0435 12.0435 11.7 10 11.7H9.00002C6.95656 11.7 5.30002 10.0435 5.30002 8.00005V7.50005ZM9.50002 4.70005C7.95362 4.70005 6.70002 5.95365 6.70002 7.50005V8.00005C6.70002 9.2703 7.72976 10.3 9.00002 10.3H10C11.2703 10.3 12.3 9.2703 12.3 8.00005V7.50005C12.3 5.95365 11.0464 4.70005 9.50002 4.70005Z" fill="#222628"/>
</svg>
