<svg width="24" height="24" viewBox="0 0 24 24" fill="none" xmlns="http://www.w3.org/2000/svg">
<path fill-rule="evenodd" clip-rule="evenodd" d="M9.43734 8.30005C9.46483 8.30005 9.49266 8.30006 9.52081 8.30006L14.5627 8.30005C15.4841 8.29999 16.0378 8.29994 16.5045 8.37784C19.0787 8.80753 21.0323 10.9307 21.2467 13.5317C21.2856 14.0033 21.2396 14.555 21.163 15.4733L21.1502 15.6266C21.0843 16.4187 21.0445 16.8961 20.9468 17.3101C20.4112 19.5781 18.5489 21.2917 16.2442 21.6371C15.8235 21.7001 15.3444 21.7001 14.5496 21.7001H9.4504C8.6556 21.7001 8.17649 21.7001 7.75584 21.6371C5.45117 21.2917 3.58888 19.5781 3.05327 17.3101C2.95551 16.8961 2.91575 16.4187 2.8498 15.6266C2.84787 15.6035 2.84593 15.5801 2.84396 15.5565C2.84162 15.5284 2.8393 15.5007 2.83702 15.4733C2.76043 14.555 2.71441 14.0033 2.75328 13.5317C2.96771 10.9307 4.9213 8.80753 7.49556 8.37784C7.96224 8.29994 8.51589 8.29999 9.43734 8.30005ZM9.52081 9.70006C8.49097 9.70006 8.063 9.70249 7.72606 9.75874C5.78407 10.0829 4.31031 11.6846 4.14855 13.6468C4.12048 13.9872 4.1536 14.4139 4.23912 15.4402C4.31274 16.3236 4.34513 16.6891 4.41579 16.9883C4.81984 18.6993 6.22473 19.992 7.96334 20.2526C8.26738 20.2981 8.63436 20.3001 9.52081 20.3001H14.4792C15.3657 20.3001 15.7326 20.2981 16.0367 20.2526C17.7753 19.992 19.1802 18.6993 19.5842 16.9883C19.6549 16.6891 19.6873 16.3236 19.7609 15.4402C19.8464 14.4139 19.8795 13.9872 19.8515 13.6468C19.6897 11.6846 18.216 10.0829 16.274 9.75874C15.937 9.70249 15.5091 9.70006 14.4792 9.70006H9.52081Z" fill="#222628"/>
<path fill-rule="evenodd" clip-rule="evenodd" d="M9.67555 8.81681C9.77636 9.1882 9.55831 9.57171 9.187 9.67466C8.81446 9.77796 8.42872 9.55969 8.32542 9.18715L8.99997 9.00011C8.32542 9.18715 8.32553 9.18752 8.32542 9.18715L8.32499 9.18559L8.32449 9.18377L8.32329 9.17933L8.32014 9.16736C8.31772 9.15801 8.31469 9.14593 8.31118 9.13125C8.30416 9.10189 8.29521 9.06204 8.28545 9.01266C8.26597 8.91405 8.24312 8.77661 8.2261 8.60828C8.19221 8.27301 8.18058 7.8066 8.26991 7.27621C8.45181 6.19617 9.05034 4.88176 10.6321 3.90458C10.6499 3.89357 10.6682 3.88337 10.687 3.87401C12.4185 3.00823 13.9033 3.2941 14.9381 3.81151C15.4453 4.06514 15.8405 4.37106 16.1089 4.61262C16.2438 4.73404 16.3488 4.8411 16.422 4.92019C16.4586 4.95979 16.4875 4.99257 16.5083 5.01685C16.5187 5.02899 16.5271 5.03903 16.5335 5.04676L16.5416 5.0566L16.5445 5.06017L16.5457 5.06161C16.5459 5.06191 16.5466 5.06282 16.0021 5.49844L16.5466 5.06283C16.7881 5.36471 16.7392 5.80521 16.4373 6.04672C16.1362 6.28758 15.6973 6.23954 15.4554 5.93982C15.4554 5.93982 15.4554 5.93982 15.4554 5.93982C15.4549 5.93919 15.4543 5.93856 15.4538 5.93793C15.4538 5.93792 15.4538 5.93793 15.4538 5.93793M15.4538 5.93793C15.4543 5.93856 15.4549 5.93919 15.4554 5.93982L15.4453 5.92796C15.4354 5.91635 15.4183 5.89688 15.3944 5.87105C15.3465 5.81928 15.2718 5.74274 15.1724 5.65323C14.972 5.47291 14.6797 5.24758 14.312 5.06371C13.6021 4.70876 12.5965 4.49516 11.3412 5.11228C10.1709 5.84548 9.77445 6.77259 9.65047 7.50872C9.58639 7.88922 9.59465 8.22663 9.619 8.46746C9.63111 8.58718 9.64696 8.68086 9.65891 8.74136C9.66487 8.77154 9.66982 8.79324 9.67276 8.80554" fill="#222628"/>
<path fill-rule="evenodd" clip-rule="evenodd" d="M12 17.7002C11.6134 17.7002 11.3 17.3868 11.3 17.0002L11.3 15.0002C11.3 14.6136 11.6134 14.3002 12 14.3002C12.3866 14.3002 12.7 14.6136 12.7 15.0002L12.7 17.0002C12.7 17.3868 12.3866 17.7002 12 17.7002Z" fill="#222628"/>
</svg>
