<svg width="24" height="24" viewBox="0 0 24 24" fill="none" xmlns="http://www.w3.org/2000/svg">
<path fill-rule="evenodd" clip-rule="evenodd" d="M11.7291 3.82324C12.3745 3.2347 13.2796 2.80005 14.5 2.80005C15.7641 2.80005 16.5775 3.42388 17.0525 4.03458C17.2851 4.33355 17.438 4.62931 17.5332 4.84962C17.5812 4.96064 17.6155 5.05497 17.6387 5.12439C17.6503 5.15917 17.6591 5.18792 17.6655 5.20962L17.6733 5.23686L17.6758 5.24634L17.6768 5.25001L17.6772 5.25157C17.6773 5.25191 17.6776 5.25295 17 5.42862L17.6776 5.25295C17.7746 5.62717 17.5499 6.0092 17.1757 6.10622C16.803 6.20284 16.4226 5.98038 16.3236 5.60894L16.3223 5.6043C16.3204 5.59775 16.3165 5.58506 16.3105 5.56711C16.2985 5.53106 16.2782 5.47472 16.248 5.40494C16.187 5.26364 16.0899 5.07727 15.9474 4.89409C15.6724 4.5405 15.2359 4.20005 14.5 4.20005C13.6441 4.20005 13.0716 4.4937 12.6724 4.8577C12.5943 4.92898 12.5139 5.00302 12.4315 5.07894C11.9661 5.50762 11.4356 5.99632 10.8684 6.38791C10.1915 6.85518 9.38638 7.24085 8.45299 7.24085H7.49999C6.50588 7.24085 5.69999 8.04673 5.69999 9.04085V11.5C5.69999 12.4942 6.50588 13.3 7.49999 13.3H9.54614C9.93274 13.3 10.2461 13.6134 10.2461 14C10.2461 14.3866 9.93274 14.7 9.54614 14.7H7.49999C5.73268 14.7 4.29999 13.2674 4.29999 11.5V9.04085C4.29999 7.27354 5.73268 5.84085 7.49999 5.84085H8.45299C8.98859 5.84085 9.51465 5.62123 10.073 5.23577C10.5522 4.90502 10.9993 4.49381 11.4674 4.06324C11.5538 3.98377 11.6409 3.90364 11.7291 3.82324Z" fill="#222628"/>
<path fill-rule="evenodd" clip-rule="evenodd" d="M19.5315 2.45558C19.825 2.70717 19.859 3.14908 19.6074 3.44261L8.51851 16.3797C8.26692 16.6732 7.82501 16.7072 7.53148 16.4556C7.23795 16.204 7.20396 15.7621 7.45555 15.4685L18.5444 2.5315C18.796 2.23798 19.238 2.20398 19.5315 2.45558Z" fill="#222628"/>
<path fill-rule="evenodd" clip-rule="evenodd" d="M17 9.30005C17.3866 9.30005 17.7 9.61345 17.7 10V14.0978C17.7 17.6866 13.1668 19.2544 10.9496 16.4325C10.7107 16.1285 10.7635 15.6885 11.0675 15.4496C11.3715 15.2108 11.8116 15.2636 12.0504 15.5676C13.4462 17.344 16.3 16.357 16.3 14.0978V10C16.3 9.61345 16.6134 9.30005 17 9.30005Z" fill="#222628"/>
</svg>
