<svg width="24" height="24" viewBox="0 0 24 24" fill="none" xmlns="http://www.w3.org/2000/svg">
<path fill-rule="evenodd" clip-rule="evenodd" d="M14.3 8.46622C14.3 6.22838 11.5097 5.20582 10.0637 6.91374C9.34119 7.76712 8.2797 8.25926 7.16154 8.25926H5.68998C4.59094 8.25926 3.69999 9.15021 3.69999 10.2492V13.6958C3.69999 14.7907 4.58762 15.6784 5.68257 15.6784H7.15583C8.27815 15.6784 9.34302 16.1747 10.0647 17.0342C11.5044 18.7487 14.3 17.7306 14.3 15.4918V8.46622ZM8.99522 6.00912C11.2838 3.30599 15.7 4.92439 15.7 8.46622V15.4918C15.7 19.0374 11.2727 20.6497 8.99261 17.9345C8.53689 17.3918 7.8645 17.0784 7.15583 17.0784H5.68257C3.81442 17.0784 2.29999 15.5639 2.29999 13.6958V10.2492C2.29999 8.37701 3.81774 6.85926 5.68998 6.85926H7.16154C7.86803 6.85926 8.53871 6.54831 8.99522 6.00912Z" fill="#222628"/>
<path fill-rule="evenodd" clip-rule="evenodd" d="M17.0826 10.562C16.7762 10.3346 16.7081 9.90261 16.9315 9.59166C17.1571 9.2777 17.5945 9.20604 17.9084 9.43161L17.5 10.0001C17.9084 9.43161 17.9087 9.43185 17.9091 9.43209L17.9098 9.43259L17.9112 9.43363L17.9144 9.43595L17.9218 9.44146L17.941 9.45608C17.9556 9.46742 17.9738 9.48202 17.995 9.49997C18.0374 9.53584 18.0922 9.58525 18.155 9.64902C18.2805 9.77649 18.439 9.96222 18.5945 10.2126C18.9089 10.7184 19.2 11.4704 19.2 12.5001C19.2 13.5298 18.9089 14.2818 18.5945 14.7876C18.439 15.038 18.2805 15.2237 18.155 15.3512C18.0922 15.415 18.0374 15.4644 17.995 15.5002C17.9738 15.5182 17.9556 15.5328 17.941 15.5441L17.9218 15.5587L17.9144 15.5643L17.9112 15.5666L17.9098 15.5676L17.9091 15.5681C17.9087 15.5684 17.9084 15.5686 17.5 15.0001L17.9084 15.5686C17.5945 15.7942 17.1571 15.7225 16.9315 15.4085C16.7081 15.0976 16.7762 14.6656 17.0826 14.4382C17.084 14.437 17.0868 14.4347 17.0909 14.4313C17.1032 14.4209 17.1265 14.4002 17.1575 14.3688C17.2195 14.3059 17.311 14.2007 17.4054 14.0487C17.5911 13.75 17.8 13.2519 17.8 12.5001C17.8 11.7483 17.5911 11.2502 17.4054 10.9515C17.311 10.7995 17.2195 10.6943 17.1575 10.6314C17.1265 10.6 17.1032 10.5793 17.0909 10.5689C17.0868 10.5655 17.084 10.5632 17.0826 10.562Z" fill="#222628"/>
</svg>
