<svg width="24" height="24" viewBox="0 0 24 24" fill="none" xmlns="http://www.w3.org/2000/svg">
<path fill-rule="evenodd" clip-rule="evenodd" d="M17.3 8.25731C17.3 6.02379 14.5363 4.97785 13.0575 6.65171C12.3315 7.47356 11.2876 7.94425 10.1909 7.94425H8.72893C7.60838 7.94425 6.7 8.85263 6.7 9.97317V13.0883C6.7 14.1419 7.55405 14.9959 8.60757 14.9959H10.0956C11.2614 14.9959 12.3612 15.5368 13.0728 16.4602C14.4471 18.2433 17.3 17.2715 17.3 15.0202V8.25731ZM12.0083 5.72478C14.3408 3.0846 18.7 4.73437 18.7 8.25731V15.0202C18.7 18.6076 14.1538 20.1562 11.9639 17.3148C11.5173 16.7353 10.8272 16.3959 10.0956 16.3959H8.60757C6.78085 16.3959 5.3 14.9151 5.3 13.0883V9.97317C5.3 8.07943 6.83518 6.54425 8.72893 6.54425H10.1909C10.8862 6.54425 11.548 6.24583 12.0083 5.72478Z" fill="#222628"/>
</svg>
