<svg width="24" height="24" viewBox="0 0 24 24" fill="none" xmlns="http://www.w3.org/2000/svg">
<path fill-rule="evenodd" clip-rule="evenodd" d="M14.3 8.25731C14.3 6.02379 11.5363 4.97785 10.0575 6.65171C9.33145 7.47356 8.28755 7.94425 7.19091 7.94425H5.72891C4.60837 7.94425 3.69999 8.85263 3.69999 9.97317V13.0883C3.69999 14.1419 4.55404 14.9959 5.60756 14.9959H7.09557C8.26135 14.9959 9.36115 15.5368 10.0728 16.4602C11.4471 18.2433 14.3 17.2715 14.3 15.0202V8.25731ZM9.00832 5.72478C11.3408 3.0846 15.7 4.73437 15.7 8.25731V15.0202C15.7 18.6076 11.1538 20.1562 8.96391 17.3148C8.51732 16.7353 7.82715 16.3959 7.09557 16.3959H5.60756C3.78084 16.3959 2.29999 14.9151 2.29999 13.0883V9.97317C2.29999 8.07943 3.83517 6.54425 5.72891 6.54425H7.19091C7.88617 6.54425 8.548 6.24583 9.00832 5.72478Z" fill="#222628"/>
<path fill-rule="evenodd" clip-rule="evenodd" d="M17.0662 10.0495C16.766 9.81257 16.7112 9.37767 16.9449 9.07357C17.1805 8.76702 17.62 8.70947 17.9265 8.94503L17.5 9.50001C17.9265 8.94503 17.9268 8.94526 17.9271 8.94549L17.9277 8.94598L17.929 8.947L17.932 8.94928L17.9389 8.95476L17.957 8.96948C17.9709 8.98096 17.9884 8.99583 18.0089 9.01413C18.05 9.05072 18.1033 9.10122 18.1647 9.16614C18.2874 9.29582 18.4434 9.48428 18.5971 9.73538C18.907 10.2418 19.2 10.9919 19.2 12.0001C19.2 13.0083 18.907 13.7583 18.5971 14.2648C18.4434 14.5159 18.2874 14.7043 18.1647 14.834C18.1033 14.8989 18.05 14.9494 18.0089 14.986C17.9884 15.0043 17.9709 15.0192 17.957 15.0307L17.9389 15.0454L17.932 15.0509L17.929 15.0532L17.9277 15.0542L17.9271 15.0547C17.9268 15.0549 17.9265 15.0551 17.5 14.5001L17.9265 15.0551C17.62 15.2907 17.1805 15.2331 16.9449 14.9266C16.7112 14.6225 16.766 14.1876 17.0662 13.9507C17.0684 13.949 17.0705 13.9473 17.0727 13.9456C17.0728 13.9455 17.0728 13.9455 17.0729 13.9455C17.0729 13.9455 17.0729 13.9455 17.0729 13.9455L17.0727 13.9456L17.0723 13.9459L17.0713 13.9467L17.0694 13.9481L17.0668 13.9502C17.0655 13.9513 17.065 13.9517 17.0654 13.9514C17.0655 13.9513 17.0658 13.951 17.0662 13.9507C17.0678 13.9494 17.0715 13.9462 17.077 13.9413C17.0906 13.9291 17.1154 13.9061 17.1477 13.8719C17.2125 13.8034 17.3065 13.6915 17.4029 13.5341C17.593 13.2234 17.8 12.7235 17.8 12.0001C17.8 11.2767 17.593 10.7767 17.4029 10.4661C17.3065 10.3087 17.2125 10.1968 17.1477 10.1283C17.1154 10.0941 17.0906 10.071 17.077 10.0588C17.0715 10.0539 17.0678 10.0508 17.0662 10.0495Z" fill="#222628"/>
<path fill-rule="evenodd" clip-rule="evenodd" d="M19.5557 8.54098C19.5543 8.53987 19.553 8.53876 19.5516 8.53764C19.5521 8.53807 19.5529 8.53877 19.554 8.53973C19.5585 8.54372 19.5681 8.55225 19.5819 8.56541C19.6096 8.59174 19.6543 8.63642 19.7107 8.69995C19.8234 8.82709 19.9818 9.02884 20.1428 9.30945C20.4625 9.86673 20.8 10.7477 20.8 12.0001C20.8 13.2525 20.4625 14.1334 20.1428 14.6907C19.9818 14.9713 19.8234 15.173 19.7107 15.3002C19.6543 15.3637 19.6096 15.4084 19.5819 15.4347C19.5681 15.4479 19.5585 15.4564 19.554 15.4604C19.5529 15.4614 19.5521 15.4621 19.5516 15.4625C19.5529 15.4614 19.5543 15.4603 19.5556 15.4592C19.5556 15.4592 19.5556 15.4592 19.5557 15.4592C19.5557 15.4592 19.5557 15.4592 19.5557 15.4592L19.5556 15.4592L19.5551 15.4596L19.5542 15.4604L19.5526 15.4617L19.5511 15.463L19.551 15.463C19.551 15.463 19.5512 15.4628 19.5516 15.4625C19.2568 15.7083 19.2148 16.1464 19.4586 16.4438C19.7037 16.7428 20.1447 16.7865 20.4437 16.5414L20 16.0001C20.4437 16.5414 20.444 16.5412 20.4443 16.541L20.445 16.5404L20.4463 16.5393L20.4495 16.5367L20.4575 16.53L20.4796 16.5108C20.4971 16.4954 20.5198 16.4748 20.547 16.4489C20.6013 16.3972 20.6738 16.3242 20.7581 16.2292C20.9265 16.0392 21.1431 15.7604 21.3572 15.3873C21.7875 14.6373 22.2 13.5182 22.2 12.0001C22.2 10.482 21.7875 9.36289 21.3572 8.6128C21.1431 8.23972 20.9265 7.96094 20.7581 7.77098C20.6738 7.67596 20.6013 7.60294 20.547 7.55121C20.5198 7.52534 20.4971 7.50475 20.4796 7.48937L20.4575 7.47018L20.4495 7.46348L20.4463 7.46084L20.445 7.45971L20.4443 7.45918C20.444 7.45893 20.4437 7.45869 20 8.00007L20.4437 7.45869C20.1447 7.21362 19.7037 7.25733 19.4586 7.55633C19.2148 7.85378 19.2568 8.29182 19.5516 8.53764C19.5511 8.53719 19.5509 8.53704 19.5511 8.53718L19.5526 8.53847L19.5542 8.53975L19.5551 8.54054L19.5557 8.54098Z" fill="#222628"/>
</svg>
