<svg width="24" height="24" viewBox="0 0 24 24" fill="none" xmlns="http://www.w3.org/2000/svg">
<path fill-rule="evenodd" clip-rule="evenodd" d="M14 7.4H10C8.04992 7.4 7.34952 7.41202 6.80943 7.55674C5.22201 7.98209 3.98209 9.22201 3.55674 10.8094C3.41202 11.3495 3.4 12.0499 3.4 14C3.4 15.9501 3.41202 16.6505 3.55674 17.1906C3.98209 18.778 5.22201 20.0179 6.80943 20.4433C7.34952 20.588 8.04992 20.6 10 20.6H14C15.9501 20.6 16.6505 20.588 17.1906 20.4433C18.778 20.0179 20.0179 18.778 20.4433 17.1906C20.588 16.6505 20.6 15.9501 20.6 14C20.6 12.0499 20.588 11.3495 20.4433 10.8094C20.0179 9.22201 18.778 7.98209 17.1906 7.55674C16.6505 7.41202 15.9501 7.4 14 7.4ZM2.20445 10.4471C2 11.2101 2 12.1401 2 14C2 15.8599 2 16.7899 2.20445 17.5529C2.75925 19.6235 4.37653 21.2408 6.44709 21.7956C7.21008 22 8.14006 22 10 22H14C15.8599 22 16.7899 22 17.5529 21.7956C19.6235 21.2408 21.2408 19.6235 21.7956 17.5529C22 16.7899 22 15.8599 22 14C22 12.1401 22 11.2101 21.7956 10.4471C21.2408 8.37653 19.6235 6.75925 17.5529 6.20445C16.7899 6 15.8599 6 14 6H10C8.14006 6 7.21008 6 6.44709 6.20445C4.37653 6.75925 2.75925 8.37653 2.20445 10.4471Z" fill="#222628"/>
<path fill-rule="evenodd" clip-rule="evenodd" d="M21 11.0002L21.1262 11.6887C21.5065 11.619 21.7583 11.2542 21.6885 10.874C21.6188 10.4937 21.254 10.242 20.8738 10.3117M20.8738 10.3117L20.8593 10.3143L20.8142 10.3224C20.7743 10.3296 20.715 10.3402 20.6379 10.3537C20.4838 10.3807 20.2591 10.4194 19.9782 10.4658C19.416 10.5588 18.6297 10.6828 17.7338 10.8068C15.9329 11.056 13.7224 11.3002 12 11.3002C10.2776 11.3002 8.06713 11.056 6.26627 10.8068C5.37032 10.6828 4.584 10.5588 4.02187 10.4658C3.74091 10.4194 3.5162 10.3807 3.3621 10.3537C3.28506 10.3402 3.22569 10.3296 3.18577 10.3224L3.14074 10.3143L3.12693 10.3118C3.12694 10.3118 3.12693 10.3118 3.12693 10.3118C2.74668 10.2421 2.38121 10.4937 2.31149 10.874C2.24177 11.2542 2.49351 11.619 2.87377 11.6887L3.00001 11.0002C2.87377 11.6887 2.87369 11.6887 2.87377 11.6887L2.89079 11.6918L2.93848 11.7004C2.9802 11.7079 3.04147 11.7188 3.12049 11.7327C3.27852 11.7603 3.50762 11.7998 3.79339 11.8471C4.36473 11.9416 5.16356 12.0676 6.07438 12.1936C7.88707 12.4444 10.1766 12.7002 12 12.7002C13.8234 12.7002 16.113 12.4444 17.9256 12.1936C18.8365 12.0676 19.6353 11.9416 20.2066 11.8471C20.4924 11.7998 20.7215 11.7603 20.8795 11.7327C20.9586 11.7188 21.0198 11.7079 21.0615 11.7004L21.1092 11.6918L21.1262 11.6887C21.1263 11.6887 21.1262 11.6887 21 11.0002" fill="#222628"/>
<path fill-rule="evenodd" clip-rule="evenodd" d="M17 13.7002C16.6134 13.7002 16.3 13.3868 16.3 13.0002L16.3 10.0002C16.3 9.6136 16.6134 9.3002 17 9.3002C17.3866 9.3002 17.7 9.6136 17.7 10.0002L17.7 13.0002C17.7 13.3868 17.3866 13.7002 17 13.7002Z" fill="#222628"/>
<path fill-rule="evenodd" clip-rule="evenodd" d="M13.7 16.5002C13.7 16.8868 13.3866 17.2002 13 17.2002L11 17.2002C10.6134 17.2002 10.3 16.8868 10.3 16.5002C10.3 16.1136 10.6134 15.8002 11 15.8002L13 15.8002C13.3866 15.8002 13.7 16.1136 13.7 16.5002Z" fill="#222628"/>
<path fill-rule="evenodd" clip-rule="evenodd" d="M6.99999 13.7002C6.61339 13.7002 6.29999 13.3868 6.29999 13.0002L6.29999 10.0002C6.29999 9.6136 6.61339 9.3002 6.99999 9.3002C7.38659 9.3002 7.69999 9.6136 7.69999 10.0002L7.69999 13.0002C7.69999 13.3868 7.38659 13.7002 6.99999 13.7002Z" fill="#222628"/>
<path fill-rule="evenodd" clip-rule="evenodd" d="M9.19999 6.50081C9.19999 6.50176 9.19998 6.50272 9.19998 6.50367C9.19997 6.50398 9.19997 6.50413 9.19997 6.50413L9.19997 6.50385L9.19999 6.50326C9.19998 6.50342 9.19998 6.50355 9.19998 6.50367C9.19805 6.88862 8.88539 7.2001 8.49999 7.20009C8.11339 7.20009 7.79999 6.88669 7.79999 6.50009L8.49999 6.50009C7.79999 6.50009 7.79999 6.4997 7.79999 6.49931L7.79999 6.49844L7.8 6.49649L7.80003 6.4917L7.8002 6.47856C7.80039 6.46827 7.80071 6.45489 7.80131 6.43865C7.80249 6.40619 7.80473 6.36211 7.80895 6.30807C7.81738 6.20023 7.83382 6.05125 7.86603 5.87456C7.9299 5.52417 8.05885 5.04785 8.32333 4.56423C8.58994 4.07671 8.99724 3.57723 9.61223 3.20238C10.2287 2.82661 11.0147 2.6001 12 2.6001C12.9853 2.6001 13.7712 2.82661 14.3877 3.20238C15.0027 3.57723 15.41 4.07671 15.6766 4.56423C15.9411 5.04785 16.0701 5.52417 16.134 5.87456C16.1662 6.05125 16.1826 6.20023 16.191 6.30807C16.1952 6.36211 16.1975 6.40619 16.1987 6.43865C16.1993 6.45489 16.1996 6.46827 16.1998 6.47856L16.2 6.4917L16.2 6.49649L16.2 6.49844L16.2 6.49931C16.2 6.4997 16.2 6.50009 15.5 6.50009L16.2 6.50009C16.2 6.88669 15.8866 7.20009 15.5 7.20009C15.1146 7.2001 14.8019 6.88864 14.8 6.5037C14.8 6.50286 14.8 6.50202 14.8 6.50118C14.8 6.50106 14.8 6.50093 14.8 6.5008C14.8 6.50081 14.8 6.50081 14.8 6.50081L14.8 6.50118L14.8 6.50145L14.8 6.50253L14.8 6.50385C14.8 6.50428 14.8 6.50422 14.8 6.5037C14.8 6.50358 14.8 6.50343 14.8 6.50327L14.7996 6.48966C14.7991 6.47525 14.7979 6.45058 14.7953 6.41712C14.79 6.34996 14.7791 6.24894 14.7566 6.12563C14.7111 5.87602 14.6213 5.55234 14.4483 5.23597C14.2774 4.92348 14.0285 4.62296 13.6591 4.39782C13.2912 4.17359 12.7647 4.0001 12 4.0001C11.2353 4.0001 10.7088 4.17359 10.3409 4.39782C9.9715 4.62296 9.72254 4.92348 9.55165 5.23597C9.37863 5.55234 9.28883 5.87602 9.24333 6.12563C9.22085 6.24894 9.20994 6.34996 9.2047 6.41712C9.20208 6.45058 9.2009 6.47525 9.20038 6.48966L9.19999 6.50326L9.19998 6.50253L9.19999 6.50145L9.19999 6.50081Z" fill="#222628"/>
</svg>
