<svg width="24" height="24" viewBox="0 0 24 24" fill="none" xmlns="http://www.w3.org/2000/svg">
<path d="M5.77218 17.1898C5.80845 16.682 5.82659 16.4281 5.86621 16.249C6.11714 15.115 6.9796 14.3733 8.1384 14.2948C8.32138 14.2825 8.60685 14.305 9.17778 14.3502C10.0233 14.417 10.9433 14.4666 11.8123 14.4666C12.7807 14.4666 13.8622 14.405 14.8467 14.3266C15.4049 14.2821 15.684 14.2599 15.8753 14.274C17.0091 14.3576 17.8756 15.1024 18.1286 16.2108C18.1713 16.3978 18.1895 16.6528 18.2259 17.1628C18.267 17.7376 18.2875 18.025 18.2665 18.2635C18.1458 19.6323 17.1106 20.7441 15.7539 20.962C15.5175 20.9999 15.2294 20.9999 14.6531 20.9999H11.8123H9.31988C8.7686 20.9999 8.49296 20.9999 8.26661 20.9652C6.89318 20.7543 5.84433 19.6278 5.73181 18.2429C5.71327 18.0146 5.7329 17.7397 5.77218 17.1898Z" fill="#222628"/>
<path d="M8.5 7.5C8.5 5.567 10.067 4 12 4C13.933 4 15.5 5.567 15.5 7.5V8C15.5 9.65685 14.1569 11 12.5 11H11.5C9.84315 11 8.5 9.65685 8.5 8V7.5Z" fill="#222628"/>
<path fill-rule="evenodd" clip-rule="evenodd" d="M3.86394 14.4788C3.74169 14.1121 3.34527 13.9139 2.97851 14.0361L3.19987 14.7002C2.97851 14.0361 2.97811 14.0362 2.97771 14.0364L2.97688 14.0367L2.9751 14.0373L2.97112 14.0386L2.96148 14.042C2.9543 14.0445 2.94566 14.0477 2.93564 14.0515C2.91561 14.059 2.89002 14.0692 2.85967 14.0822C2.79907 14.1082 2.71882 14.1458 2.62554 14.1977C2.43972 14.3009 2.19694 14.4632 1.95489 14.7052C1.45745 15.2027 0.999865 16.0024 0.999865 17.2002C0.999865 18.398 1.45745 19.1977 1.95489 19.6952C2.19694 19.9372 2.43972 20.0995 2.62554 20.2027C2.71882 20.2545 2.79907 20.2922 2.85967 20.3182C2.89002 20.3312 2.91561 20.3414 2.93564 20.3489C2.94566 20.3527 2.9543 20.3558 2.96148 20.3584L2.97112 20.3618L2.9751 20.3631L2.97688 20.3637L2.97771 20.364C2.97811 20.3641 2.97851 20.3643 3.19987 19.7002L2.97851 20.3643C3.34527 20.4865 3.74169 20.2883 3.86394 19.9215C3.98523 19.5577 3.79109 19.1646 3.42988 19.0391C3.42743 19.0381 3.42101 19.0356 3.41116 19.0314C3.38972 19.0222 3.35279 19.0052 3.30544 18.9789C3.21001 18.9259 3.07779 18.8382 2.94484 18.7052C2.69228 18.4527 2.39987 18.0024 2.39987 17.2002C2.39987 16.398 2.69228 15.9477 2.94484 15.6952C3.07779 15.5622 3.21001 15.4745 3.30544 15.4215C3.35279 15.3952 3.38972 15.3782 3.41116 15.369C3.42101 15.3648 3.42742 15.3623 3.42987 15.3613C3.79109 15.2358 3.98523 14.8427 3.86394 14.4788Z" fill="#222628"/>
<path fill-rule="evenodd" clip-rule="evenodd" d="M20.036 14.4788C20.1583 14.1121 20.5547 13.9139 20.9215 14.0361L20.7001 14.7002C20.9215 14.0361 20.9219 14.0362 20.9223 14.0364L20.9231 14.0367L20.9249 14.0373L20.9288 14.0386L20.9385 14.042C20.9457 14.0445 20.9543 14.0477 20.9643 14.0515C20.9844 14.059 21.0099 14.0692 21.0403 14.0822C21.1009 14.1082 21.1811 14.1458 21.2744 14.1977C21.4602 14.3009 21.703 14.4632 21.9451 14.7052C22.4425 15.2027 22.9001 16.0024 22.9001 17.2002C22.9001 18.398 22.4425 19.1977 21.9451 19.6952C21.703 19.9372 21.4602 20.0995 21.2744 20.2027C21.1811 20.2545 21.1009 20.2922 21.0403 20.3182C21.0099 20.3312 20.9844 20.3414 20.9643 20.3489C20.9543 20.3527 20.9457 20.3558 20.9385 20.3584L20.9288 20.3618L20.9249 20.3631L20.9231 20.3637L20.9223 20.364C20.9219 20.3641 20.9215 20.3643 20.7001 19.7002L20.9215 20.3643C20.5547 20.4865 20.1583 20.2883 20.036 19.9215C19.9147 19.5577 20.1089 19.1646 20.4701 19.0391C20.4725 19.0381 20.479 19.0356 20.4888 19.0314C20.5102 19.0222 20.5472 19.0052 20.5945 18.9789C20.6899 18.9259 20.8222 18.8382 20.9551 18.7052C21.2077 18.4527 21.5001 18.0024 21.5001 17.2002C21.5001 16.398 21.2077 15.9477 20.9551 15.6952C20.8222 15.5622 20.6899 15.4745 20.5945 15.4215C20.5472 15.3952 20.5102 15.3782 20.4888 15.369C20.479 15.3648 20.4725 15.3623 20.4701 15.3613C20.1089 15.2358 19.9147 14.8427 20.036 14.4788Z" fill="#222628"/>
<path fill-rule="evenodd" clip-rule="evenodd" d="M17.016 4.57396C17.0495 4.18882 17.3888 3.90373 17.774 3.9372L17.7134 4.63457C17.774 3.9372 17.7743 3.93723 17.7747 3.93726L17.7755 3.93733L17.7771 3.93748L17.781 3.93784L17.791 3.93884L17.8199 3.94208C17.843 3.94485 17.8736 3.94894 17.9107 3.95482C17.9848 3.96654 18.0859 3.98553 18.2059 4.0157C18.4439 4.07555 18.7673 4.18223 19.1044 4.37164C19.7974 4.76114 20.5344 5.49938 20.6883 6.80025C20.8421 8.10112 20.2976 8.99088 19.7144 9.53128C19.4308 9.79407 19.1412 9.97323 18.9237 10.0869C18.8141 10.1443 18.7202 10.1863 18.6509 10.215C18.6162 10.2293 18.5874 10.2405 18.5656 10.2485L18.5382 10.2584L18.5287 10.2617L18.525 10.263L18.5234 10.2635L18.5227 10.2638C18.5224 10.2639 18.522 10.264 18.3005 9.59999L18.522 10.264C18.1553 10.3864 17.7588 10.1883 17.6365 9.82156C17.5146 9.45641 17.7105 9.06176 18.0742 8.93757L18.0788 8.9359C18.0852 8.9335 18.0978 8.9287 18.1156 8.92134C18.1513 8.90658 18.2069 8.88193 18.275 8.84628C18.4132 8.77404 18.5926 8.66213 18.7628 8.50442C19.0872 8.2038 19.389 7.73478 19.2979 6.96464C19.2069 6.19449 18.804 5.80879 18.4185 5.59211C18.2162 5.47843 18.0156 5.41145 17.8644 5.37342C17.7898 5.35466 17.73 5.34365 17.6919 5.33761C17.6729 5.33461 17.6595 5.33288 17.6527 5.33205L17.6478 5.33149C17.2652 5.29555 16.9827 4.95745 17.016 4.57396Z" fill="#222628"/>
<path d="M6.11719 3.87397C6.50177 3.83448 6.68664 4.1008 6.65504 4.59975C6.62343 5.09869 6.19204 5.27033 6.19204 5.27033C6.15556 5.27684 6.09803 5.28868 6.02632 5.30862C5.88089 5.34907 5.68909 5.41953 5.49817 5.53743C5.14049 5.7583 4.75268 6.1592 4.70063 6.98091C4.64859 7.80261 4.98271 8.24923 5.30968 8.51347C5.4842 8.65452 5.66557 8.74862 5.80474 8.80709C5.87336 8.83593 5.92893 8.85493 5.9643 8.86599C5.9819 8.87149 5.99422 8.87494 6.00035 8.87659L6.00402 8.87757C6.37748 8.96752 6.60905 9.3421 6.52176 9.71688C6.43406 10.0934 6.05773 10.3275 5.68121 10.2398L5.63538 10.2282C5.61264 10.222 5.58267 10.2135 5.54653 10.2022C5.47444 10.1797 5.37679 10.1458 5.26241 10.0978C5.03556 10.0025 4.73177 9.84647 4.42969 9.60234C3.80344 9.09622 3.21858 8.23214 3.30343 6.89241C3.38829 5.55268 4.0775 4.76929 4.7626 4.34624C5.09308 4.14217 5.41412 4.02575 5.65118 3.95982C5.77071 3.92657 5.87185 3.90535 5.94621 3.89208L6.08303 3.8719L6.11719 3.87397Z" fill="#222628"/>
</svg>
