<svg width="24" height="24" viewBox="0 0 24 24" fill="none" xmlns="http://www.w3.org/2000/svg">
<path fill-rule="evenodd" clip-rule="evenodd" d="M2.80385 5C2 6.3923 2 8.26154 2 12C2 15.7385 2 17.6077 2.80385 19C3.33046 19.9121 4.08788 20.6695 5 21.1962C6.3923 22 8.26154 22 12 22C15.7385 22 17.6077 22 19 21.1962C19.9121 20.6695 20.6695 19.9121 21.1962 19C22 17.6077 22 15.7385 22 12C22 8.26154 22 6.3923 21.1962 5C20.6695 4.08788 19.9121 3.33046 19 2.80385C17.6077 2 15.7385 2 12 2C8.26154 2 6.3923 2 5 2.80385C4.08788 3.33046 3.33046 4.08788 2.80385 5ZM15.5797 9.39242C15.7964 9.07229 15.7126 8.63707 15.3924 8.42034C15.0723 8.20361 14.6371 8.28744 14.4203 8.60758L15 9L14.4203 8.60762L14.4202 8.60779L14.4197 8.6085L14.4177 8.61141L14.4099 8.62303L14.3789 8.66868L14.2608 8.84248C14.1588 8.99234 14.0127 9.20655 13.8365 9.46364C13.4839 9.97803 13.0115 10.6632 12.5308 11.3478C12.0492 12.0337 11.5632 12.7136 11.1823 13.2198C11.0876 13.3456 11.0012 13.4584 10.9242 13.5565C10.7673 13.4026 10.5883 13.216 10.4087 13.0231C10.1813 12.7788 9.96147 12.5336 9.79787 12.3487C9.71623 12.2564 9.64899 12.1796 9.60229 12.126L9.54849 12.0641L9.53465 12.0481L9.53124 12.0442L9.53045 12.0432L9.53029 12.0431L9.53028 12.043L9.53027 12.043L9.53026 12.043C9.27789 11.7502 8.83591 11.7174 8.54305 11.9697C8.25018 12.2221 8.21735 12.6641 8.46972 12.957L9 12.5L8.46978 12.957L8.46987 12.9571L8.47018 12.9575L8.47126 12.9587L8.47526 12.9634L8.49035 12.9808L8.5469 13.0459C8.59553 13.1017 8.66509 13.1811 8.74935 13.2763C8.91753 13.4664 9.14581 13.7212 9.38392 13.9769C9.61997 14.2305 9.87434 14.4945 10.0927 14.6987C10.2002 14.7993 10.3124 14.8981 10.4171 14.9759C10.4687 15.0142 10.5336 15.0589 10.6058 15.0969C10.6564 15.1236 10.8054 15.2 11 15.2C11.1399 15.2 11.2465 15.1592 11.2986 15.1362C11.357 15.1104 11.4026 15.0815 11.432 15.0613C11.4905 15.0211 11.539 14.9776 11.5723 14.9461C11.6414 14.8805 11.7143 14.7995 11.7839 14.7179C11.9263 14.551 12.1046 14.3225 12.301 14.0615C12.6961 13.5364 13.1928 12.8413 13.6766 12.1522C14.1614 11.4618 14.6371 10.772 14.9913 10.2551C15.1685 9.99658 15.3154 9.7811 15.4182 9.63017L15.5373 9.45486L15.5688 9.40852L15.5769 9.39657L15.5789 9.3935L15.5795 9.39271L15.5796 9.39251L15 9L15.5797 9.39242Z" fill="#222628"/>
</svg>
