<svg width="24" height="24" viewBox="0 0 24 24" fill="none" xmlns="http://www.w3.org/2000/svg">
<path d="M2.37393 17.363C2.40751 17.0365 2.42429 16.8732 2.44502 16.7591C2.71332 15.2825 3.90222 14.2923 5.40301 14.2954C5.51899 14.2957 5.70692 14.3106 6.08278 14.3405C7.19542 14.429 8.4236 14.5001 9.5 14.5001C10.5223 14.5001 11.6169 14.436 12.601 14.3537C12.9764 14.3223 13.1641 14.3066 13.2701 14.3053C14.7252 14.2867 15.8685 15.1688 16.2197 16.581C16.2453 16.6839 16.2723 16.8386 16.3264 17.1479C16.3798 17.4535 16.4066 17.6063 16.4178 17.7306C16.5673 19.3887 15.3382 20.8514 13.6791 20.9897C13.5547 21.0001 13.3996 21.0001 13.0894 21.0001L9.29882 21.0001H5.65622C5.35131 21.0001 5.19885 21.0001 5.0739 20.9896C3.4978 20.8576 2.29489 19.5247 2.32479 17.9433C2.32716 17.818 2.34275 17.6663 2.37393 17.363Z" fill="#222628"/>
<path fill-rule="evenodd" clip-rule="evenodd" d="M19 4.30005C19.3866 4.30005 19.7 4.61345 19.7 5.00005V6.30005H21C21.3866 6.30005 21.7 6.61345 21.7 7.00005C21.7 7.38665 21.3866 7.70005 21 7.70005H19.7V9.00005C19.7 9.38665 19.3866 9.70005 19 9.70005C18.6134 9.70005 18.3 9.38665 18.3 9.00005V7.70005H17C16.6134 7.70005 16.3 7.38665 16.3 7.00005C16.3 6.61345 16.6134 6.30005 17 6.30005H18.3V5.00005C18.3 4.61345 18.6134 4.30005 19 4.30005Z" fill="#222628"/>
<path d="M6 6.5C6 4.567 7.567 3 9.5 3C11.433 3 13 4.567 13 6.5V7C13 8.65685 11.6569 10 10 10H9C7.34314 10 6 8.65685 6 7V6.5Z" fill="#222628"/>
</svg>
