<svg width="24" height="24" viewBox="0 0 24 24" fill="none" xmlns="http://www.w3.org/2000/svg">
<path fill-rule="evenodd" clip-rule="evenodd" d="M2 12C2 8.26154 2 6.3923 2.80385 5C3.33046 4.08788 4.08788 3.33046 5 2.80385C6.3923 2 8.26154 2 12 2C15.7385 2 17.6077 2 19 2.80385C19.9121 3.33046 20.6695 4.08788 21.1962 5C22 6.3923 22 8.26154 22 12C22 15.7385 22 17.6077 21.1962 19C20.6695 19.9121 19.9121 20.6695 19 21.1962C17.6077 22 15.7385 22 12 22C8.26154 22 6.3923 22 5 21.1962C4.08788 20.6695 3.33046 19.9121 2.80385 19C2 17.6077 2 15.7385 2 12ZM16.2 12C16.2 12.3866 15.8866 12.7 15.5 12.7H12.7V15.5C12.7 15.8866 12.3865 16.2 12 16.2C11.6134 16.2 11.3 15.8866 11.3 15.5V12.7H8.49995C8.11335 12.7 7.79995 12.3866 7.79995 12C7.79995 11.6134 8.11335 11.3 8.49995 11.3H11.3V8.50005C11.3 8.11345 11.6134 7.80005 12 7.80005C12.3865 7.80005 12.7 8.11345 12.7 8.50005V11.3H15.5C15.8866 11.3 16.2 11.6134 16.2 12Z" fill="#222628"/>
</svg>
