<svg width="24" height="24" viewBox="0 0 24 24" fill="none" xmlns="http://www.w3.org/2000/svg">
<path fill-rule="evenodd" clip-rule="evenodd" d="M13.5 20.5V8.17575C13.5 7.06075 13.5541 5.90108 14.194 4.98797C14.8989 3.9821 16.0997 3 17.6923 3C19.1394 3 20.7062 4.04978 21.4911 4.65666C21.8243 4.91431 22 5.31685 22 5.73805V8.73302C22 9.05987 21.9225 9.38275 21.735 9.65048C21.089 10.5731 19.2911 12.5746 16.6667 11V20.5008C16.6667 20.7769 16.4428 21 16.1667 21H14C13.7239 21 13.5 20.7761 13.5 20.5ZM20.2778 6.5C20.2778 6.22386 20.054 6 19.7778 6C19.5017 6 19.2778 6.22386 19.2778 6.5V8C19.2778 8.27614 19.5017 8.5 19.7778 8.5C20.054 8.5 20.2778 8.27614 20.2778 8V6.5Z" fill="#222628"/>
<path fill-rule="evenodd" clip-rule="evenodd" d="M10.5 20.5V8.17575C10.5 7.06075 10.4459 5.90108 9.80602 4.98797C9.10112 3.9821 7.90029 3 6.30769 3C4.86056 3 3.29378 4.04978 2.50894 4.65666C2.17573 4.91431 2 5.31685 2 5.73805V8.73302C2 9.05987 2.0775 9.38275 2.26498 9.65048C2.91102 10.5731 4.70893 12.5746 7.33333 11V20.5008C7.33333 20.7769 7.55719 21 7.83333 21H10C10.2761 21 10.5 20.7761 10.5 20.5ZM3.72217 6.5C3.72217 6.22386 3.94603 6 4.22217 6C4.49831 6 4.72217 6.22386 4.72217 6.5V8C4.72217 8.27614 4.49831 8.5 4.22217 8.5C3.94603 8.5 3.72217 8.27614 3.72217 8V6.5Z" fill="#222628"/>
</svg>
