<svg width="24" height="24" viewBox="0 0 24 24" fill="none" xmlns="http://www.w3.org/2000/svg">
<path fill-rule="evenodd" clip-rule="evenodd" d="M11.65 20.3499C11.2634 20.3499 10.95 20.0365 10.95 19.6499L10.95 10.6499C10.95 10.2633 11.2634 9.94985 11.65 9.94985C12.0366 9.94985 12.35 10.2633 12.35 10.6499L12.35 19.6499C12.35 20.0365 12.0366 20.3499 11.65 20.3499Z" fill="#222628"/>
<path d="M9.48992 5.5299C10.3633 4.36543 10.8 3.7832 11.3733 3.67562C11.5561 3.64133 11.7437 3.64133 11.9265 3.67562C12.4999 3.7832 12.9366 4.36543 13.8099 5.5299L14.4099 6.3299C15.6545 7.98933 16.2768 8.81904 16.1061 9.50969C16.0528 9.72553 15.9522 9.92683 15.8115 10.099C15.3613 10.6499 14.3242 10.6499 12.2499 10.6499H11.0499C8.97565 10.6499 7.93851 10.6499 7.48837 10.099C7.34769 9.92683 7.24704 9.72553 7.19371 9.50969C7.02307 8.81904 7.64536 7.98932 8.88993 6.3299L9.48992 5.5299Z" fill="#222628"/>
</svg>
