<svg width="24" height="24" viewBox="0 0 24 24" fill="none" xmlns="http://www.w3.org/2000/svg">
<path fill-rule="evenodd" clip-rule="evenodd" d="M5 21.1962C6.3923 22 8.26154 22 12 22C15.7385 22 17.6077 22 19 21.1962C19.9121 20.6695 20.6695 19.9121 21.1962 19C22 17.6077 22 15.7385 22 12C22 8.26154 22 6.3923 21.1962 5C20.6695 4.08788 19.9121 3.33046 19 2.80385C17.6077 2 15.7385 2 12 2C8.26154 2 6.3923 2 5 2.80385C4.08788 3.33046 3.33046 4.08788 2.80385 5C2 6.3923 2 8.26154 2 12C2 15.7385 2 17.6077 2.80385 19C3.33046 19.9121 4.08788 20.6695 5 21.1962ZM8.49159 9.31882C8.22585 9.5996 8.23805 10.0426 8.51883 10.3084C8.79961 10.5741 9.24266 10.5619 9.5084 10.2812L9.50846 10.2811L9.50876 10.2808L9.51008 10.2794L9.51551 10.2737L9.53719 10.2508L9.62069 10.1632C9.69299 10.0875 9.79687 9.97922 9.92267 9.84916C10.1746 9.58872 10.5131 9.2425 10.8615 8.89716C11.0091 8.75091 11.1571 8.60617 11.3 8.46902L11.3 17C11.3 17.3866 11.6134 17.7 12 17.7C12.3866 17.7 12.7 17.3866 12.7 17L12.7 8.46902C12.8429 8.60617 12.9909 8.7509 13.1385 8.89716C13.4869 9.2425 13.8254 9.58872 14.0773 9.84916C14.2031 9.97922 14.307 10.0875 14.3793 10.1632L14.4628 10.2508L14.4845 10.2737L14.4899 10.2794L14.4912 10.2808L14.4915 10.2811L14.4916 10.2812C14.7573 10.5619 15.2004 10.5741 15.4812 10.3084C15.762 10.0427 15.7741 9.5996 15.5084 9.31882L15 9.79999L15.5083 9.31875L15.5082 9.31862L15.5078 9.31818L15.5062 9.31652L15.5003 9.31025L15.4775 9.28626L15.3916 9.19613C15.3176 9.11868 15.2117 9.00825 15.0836 8.87582C14.8277 8.61125 14.4818 8.25747 14.124 7.90282C13.768 7.54999 13.3925 7.18862 13.0794 6.91248C12.9244 6.77576 12.7725 6.6491 12.6394 6.55292C12.5738 6.50555 12.4982 6.4549 12.4196 6.41314L12.4191 6.41292C12.3689 6.38622 12.2064 6.29999 12 6.29999C11.7936 6.29999 11.6311 6.38622 11.5809 6.41292L11.5804 6.41314C11.5018 6.4549 11.4262 6.50555 11.3606 6.55292C11.2275 6.6491 11.0756 6.77576 10.9206 6.91248C10.6075 7.18862 10.232 7.54999 9.87598 7.90282C9.51816 8.25747 9.17229 8.61125 8.91639 8.87582C8.78829 9.00825 8.6824 9.11868 8.60841 9.19613L8.5225 9.28626L8.49972 9.31025L8.49377 9.31652L8.4922 9.31818L8.49178 9.31862L8.49166 9.31875L9 9.79999L8.49159 9.31882Z" fill="#222628"/>
</svg>
