<svg width="24" height="24" viewBox="0 0 24 24" fill="none" xmlns="http://www.w3.org/2000/svg">
<path fill-rule="evenodd" clip-rule="evenodd" d="M2.80385 5C2 6.3923 2 8.26154 2 12C2 15.7385 2 17.6077 2.80385 19C3.33046 19.9121 4.08788 20.6695 5 21.1962C6.3923 22 8.26154 22 12 22C15.7385 22 17.6077 22 19 21.1962C19.9121 20.6695 20.6695 19.9121 21.1962 19C22 17.6077 22 15.7385 22 12C22 8.26154 22 6.3923 21.1962 5C20.6695 4.08788 19.9121 3.33046 19 2.80385C17.6077 2 15.7385 2 12 2C8.26154 2 6.3923 2 5 2.80385C4.08788 3.33046 3.33046 4.08788 2.80385 5ZM14.6812 8.49159C14.4004 8.22585 13.9573 8.23805 13.6916 8.51883C13.4259 8.79961 13.4381 9.24266 13.7188 9.50841L13.7189 9.50846L13.7192 9.50876L13.7206 9.51008L13.7263 9.51551L13.7492 9.53719L13.8368 9.62069C13.9125 9.69299 14.0208 9.79687 14.1508 9.92267C14.4113 10.1746 14.7575 10.5131 15.1028 10.8615C15.2491 11.0091 15.3938 11.1571 15.531 11.3H7C6.6134 11.3 6.3 11.6134 6.3 12C6.3 12.3866 6.6134 12.7 7 12.7L15.531 12.7C15.3938 12.8429 15.2491 12.9909 15.1028 13.1385C14.7575 13.4869 14.4113 13.8254 14.1508 14.0773C14.0208 14.2031 13.9125 14.307 13.8368 14.3793L13.7492 14.4628L13.7263 14.4845L13.7206 14.4899L13.7192 14.4912L13.7189 14.4915L13.7188 14.4916C13.4381 14.7573 13.4259 15.2004 13.6916 15.4812C13.9573 15.762 14.4004 15.7741 14.6812 15.5084L14.2 15L14.6812 15.5083L14.6814 15.5082L14.6818 15.5078L14.6835 15.5062L14.6898 15.5003L14.7137 15.4775L14.8039 15.3916C14.8813 15.3176 14.9917 15.2117 15.1242 15.0836C15.3887 14.8277 15.7425 14.4818 16.0972 14.124C16.45 13.768 16.8114 13.3925 17.0875 13.0794C17.2242 12.9244 17.3509 12.7725 17.4471 12.6394C17.4944 12.5738 17.5451 12.4982 17.5869 12.4196L17.5871 12.4191C17.6138 12.3689 17.7 12.2064 17.7 12C17.7 11.7936 17.6138 11.6311 17.5871 11.5809L17.5869 11.5804C17.5451 11.5018 17.4944 11.4262 17.4471 11.3606C17.3509 11.2275 17.2242 11.0756 17.0875 10.9206C16.8114 10.6075 16.45 10.232 16.0972 9.87598C15.7425 9.51816 15.3887 9.17229 15.1242 8.91639C14.9917 8.78829 14.8813 8.6824 14.8039 8.60841L14.7137 8.5225L14.6898 8.49972L14.6835 8.49377L14.6818 8.4922L14.6814 8.49178L14.6812 8.49166L14.2 9L14.6812 8.49159Z" fill="#222628"/>
</svg>
