<svg width="24" height="24" viewBox="0 0 24 24" fill="none" xmlns="http://www.w3.org/2000/svg">
<path fill-rule="evenodd" clip-rule="evenodd" d="M11.65 3.6499C12.0366 3.6499 12.35 3.9633 12.35 4.3499L12.35 13.3499C12.35 13.7365 12.0366 14.0499 11.65 14.0499C11.2634 14.0499 10.95 13.7365 10.95 13.3499L10.95 4.3499C10.95 3.9633 11.2634 3.6499 11.65 3.6499Z" fill="#222628"/>
<path d="M13.81 18.4699C12.9366 19.6343 12.5 20.2166 11.9266 20.3241C11.7438 20.3584 11.5562 20.3584 11.3734 20.3241C10.8 20.2166 10.3634 19.6343 9.49 18.4699L8.89 17.6699C7.64544 16.0104 7.02315 15.1807 7.19379 14.4901C7.24712 14.2742 7.34777 14.0729 7.48845 13.9008C7.93858 13.3499 8.97572 13.3499 11.05 13.3499L12.25 13.3499C14.3243 13.3499 15.3614 13.3499 15.8116 13.9008C15.9522 14.0729 16.0529 14.2742 16.1062 14.4901C16.2769 15.1807 15.6546 16.0104 14.41 17.6699L13.81 18.4699Z" fill="#222628"/>
</svg>
