<svg width="24" height="24" viewBox="0 0 24 24" fill="none" xmlns="http://www.w3.org/2000/svg">
<path fill-rule="evenodd" clip-rule="evenodd" d="M16.995 9.50507C17.2684 9.77843 17.2684 10.2216 16.995 10.495L16.5616 10.0616C16.995 10.495 16.9951 10.495 16.995 10.495L16.949 10.541L16.82 10.6691C16.7088 10.7793 16.5496 10.9365 16.3571 11.1251C15.9723 11.502 15.4531 12.0055 14.9173 12.5098C14.3833 13.0124 13.8253 13.5229 13.365 13.9105C13.1364 14.103 12.9201 14.2753 12.7367 14.4028C12.6461 14.4659 12.5493 14.528 12.4541 14.5772C12.3888 14.6108 12.2133 14.7 12.0001 14.7C11.7869 14.7 11.6113 14.6108 11.5461 14.5772C11.4509 14.528 11.3541 14.4659 11.2634 14.4028C11.0801 14.2753 10.8638 14.103 10.6351 13.9105C10.1748 13.5229 9.61684 13.0124 9.08282 12.5098C8.547 12.0055 8.0278 11.502 7.64304 11.1251C7.45052 10.9365 7.29133 10.7793 7.18015 10.6691L7.05117 10.541L7.00595 10.4959L7.00517 10.4951C7.00513 10.495 7.0051 10.495 7.50007 10L7.99506 9.50508L8.03906 9.54896L8.1657 9.67475C8.27522 9.78331 8.43244 9.93858 8.62273 10.125C9.0036 10.4981 9.51564 10.9946 10.0423 11.4903C10.5708 11.9877 11.1066 12.4772 11.5369 12.8396C11.7207 12.9944 11.8769 13.1188 12.0001 13.2087C12.1233 13.1188 12.2794 12.9944 12.4632 12.8396C12.8936 12.4772 13.4293 11.9877 13.9578 11.4903C14.4845 10.9946 14.9965 10.4981 15.3774 10.125C15.5677 9.93858 15.7249 9.78331 15.8345 9.67475L15.9611 9.54896L16.0045 9.50567C16.2779 9.23231 16.7217 9.2317 16.995 9.50507ZM11.812 13.3331C11.7939 13.3403 11.7931 13.3428 11.812 13.3331C11.8122 13.333 11.8117 13.3332 11.812 13.3331ZM7.0051 9.50507C7.27847 9.2317 7.7217 9.23172 7.99506 9.50508L7.50007 10L7.00517 10.4951C6.73181 10.2217 6.73173 9.77843 7.0051 9.50507Z" fill="#222628"/>
</svg>
