<svg width="24" height="24" viewBox="0 0 24 24" fill="none" xmlns="http://www.w3.org/2000/svg">
<path fill-rule="evenodd" clip-rule="evenodd" d="M12 22C17.5228 22 22 17.5228 22 12C22 6.47715 17.5228 2 12 2C6.47715 2 2 6.47715 2 12C2 17.5228 6.47715 22 12 22ZM12.5317 16.0203C12.8191 16.2789 13.2617 16.2556 13.5203 15.9683C13.7789 15.6809 13.7556 15.2383 13.4683 14.9797L13 15.5L13.4683 14.9797L13.4682 14.9796L13.4677 14.9792L13.466 14.9776L13.4587 14.9711L13.4299 14.9451L13.3199 14.8455C13.225 14.7594 13.0892 14.6358 12.9261 14.4863C12.5998 14.1872 12.1656 13.7855 11.7321 13.3738C11.297 12.9604 10.8696 12.5434 10.5538 12.2118C10.4796 12.1339 10.4139 12.0631 10.3571 12C10.4139 11.9369 10.4796 11.8661 10.5538 11.7882C10.8696 11.4566 11.297 11.0396 11.7321 10.6263C12.1656 10.2145 12.5998 9.81282 12.9261 9.51367C13.0892 9.36421 13.225 9.24062 13.3199 9.1545L13.4299 9.05491L13.4587 9.02894L13.466 9.02239L13.4677 9.02078L13.4682 9.0204L13.4683 9.02032L13 8.5L13.4683 9.02031C13.7556 8.76169 13.7789 8.31908 13.5203 8.03173C13.2617 7.74437 12.8191 7.72107 12.5317 7.9797L13 8.5L12.5317 7.97976L12.5315 7.97989L12.531 7.98037L12.529 7.98218L12.5212 7.98916L12.4915 8.01602L12.3793 8.11758C12.2828 8.20508 12.1452 8.33032 11.9801 8.48165C11.6502 8.78406 11.2094 9.19177 10.7679 9.61125C10.328 10.0291 9.88038 10.4653 9.53998 10.8227C9.37121 10.9999 9.21828 11.1687 9.10378 11.3118C9.04758 11.3821 8.98886 11.4607 8.94067 11.5402C8.91661 11.5799 8.88716 11.6329 8.86195 11.6946C8.84054 11.7471 8.8 11.8581 8.8 12C8.8 12.1419 8.84054 12.2529 8.86195 12.3054C8.88716 12.3671 8.91661 12.4201 8.94067 12.4598C8.98886 12.5393 9.04758 12.6179 9.10378 12.6882C9.21828 12.8313 9.37122 13.0001 9.53998 13.1773C9.88038 13.5347 10.328 13.9709 10.7679 14.3888C11.2094 14.8082 11.6502 15.2159 11.9801 15.5184C12.1452 15.6697 12.2828 15.7949 12.3793 15.8824L12.4915 15.984L12.5212 16.0108L12.529 16.0178L12.531 16.0196L12.5315 16.0201L12.5317 16.0202L13 15.5L12.5317 16.0203Z" fill="#222628"/>
</svg>
