<svg width="24" height="24" viewBox="0 0 24 24" fill="none" xmlns="http://www.w3.org/2000/svg">
<path fill-rule="evenodd" clip-rule="evenodd" d="M11.75 3.5498C12.1366 3.5498 12.45 3.86321 12.45 4.2498L12.45 19.2498C12.45 19.6364 12.1366 19.9498 11.75 19.9498C11.3634 19.9498 11.05 19.6364 11.05 19.2498L11.05 4.2498C11.05 3.86321 11.3634 3.5498 11.75 3.5498Z" fill="#222628"/>
<path fill-rule="evenodd" clip-rule="evenodd" d="M17.2593 14.7696C17.5245 15.0508 17.5115 15.4939 17.2303 15.7591L16.75 15.2498L16.2698 14.7405C16.551 14.4753 16.9941 14.4883 17.2593 14.7696ZM6.75001 15.2498L7.23029 14.7406L7.43488 14.9331C7.56549 15.0558 7.75241 15.2312 7.97744 15.4418C8.42763 15.8629 9.02983 16.4241 9.63878 16.9849C10.2486 17.5465 10.8617 18.1047 11.3351 18.5212C11.493 18.6602 11.6328 18.7811 11.75 18.8799C11.8673 18.7811 12.007 18.6602 12.165 18.5212C12.6383 18.1047 13.2515 17.5465 13.8612 16.9849C14.4702 16.4241 15.0724 15.8629 15.5226 15.4418C15.7476 15.2312 15.9345 15.0558 16.0651 14.9331L16.2698 14.7405L16.75 15.2498L17.2303 15.7591L17.0239 15.9533C16.8926 16.0766 16.7049 16.2528 16.479 16.4641C16.0273 16.8867 15.4222 17.4505 14.8097 18.0147C14.1979 18.5781 13.5754 19.1449 13.0898 19.5722C12.848 19.785 12.6341 19.9685 12.4702 20.1009C12.3896 20.166 12.3112 20.2268 12.2429 20.2743C12.21 20.2971 12.1662 20.3262 12.1179 20.3523C12.094 20.3653 12.0567 20.3843 12.0107 20.4016C11.9762 20.4146 11.8785 20.4498 11.75 20.4498C11.6215 20.4498 11.5239 20.4146 11.4893 20.4016C11.4433 20.3843 11.4061 20.3653 11.3821 20.3523C11.3338 20.3262 11.29 20.2971 11.2571 20.2743C11.1888 20.2268 11.1104 20.166 11.0298 20.1009C10.8659 19.9685 10.652 19.785 10.4102 19.5722C9.92466 19.1449 9.30209 18.5781 8.69035 18.0147C8.07777 17.4505 7.4727 16.8867 7.021 16.4641C6.79508 16.2528 6.60739 16.0766 6.47613 15.9533L6.26984 15.7592L6.75001 15.2498ZM6.75001 15.2498L7.23029 14.7406C6.94902 14.4753 6.50596 14.4883 6.24073 14.7696C5.9755 15.0508 5.98857 15.4939 6.26984 15.7592L6.75001 15.2498Z" fill="#222628"/>
</svg>
