<svg width="24" height="24" viewBox="0 0 24 24" fill="none" xmlns="http://www.w3.org/2000/svg">
<path fill-rule="evenodd" clip-rule="evenodd" d="M21.1962 19C22 17.6077 22 15.7385 22 12C22 8.26154 22 6.3923 21.1962 5C20.6695 4.08789 19.9121 3.33046 19 2.80385C17.6077 2 15.7385 2 12 2C8.26153 2 6.3923 2 5 2.80385C4.08788 3.33046 3.33046 4.08789 2.80385 5C2 6.39231 2 8.26154 2 12C2 15.7385 2 17.6077 2.80385 19C3.33046 19.9121 4.08788 20.6695 5 21.1962C6.3923 22 8.26154 22 12 22C15.7385 22 17.6077 22 19 21.1962C19.9121 20.6695 20.6695 19.9121 21.1962 19ZM9.31882 15.5084C9.5996 15.7741 10.0426 15.762 10.3084 15.4812C10.5741 15.2004 10.5619 14.7573 10.2812 14.4916L10.2811 14.4915L10.2808 14.4912L10.2794 14.4899L10.2737 14.4845L10.2508 14.4628L10.1632 14.3793C10.0875 14.307 9.97922 14.2031 9.84916 14.0773C9.58872 13.8254 9.2425 13.4869 8.89716 13.1385C8.75091 12.9909 8.60617 12.8429 8.46902 12.7L17 12.7C17.3866 12.7 17.7 12.3866 17.7 12C17.7 11.6134 17.3866 11.3 17 11.3L8.46902 11.3C8.60617 11.1571 8.7509 11.0091 8.89716 10.8615C9.2425 10.5131 9.58872 10.1746 9.84916 9.92267C9.97922 9.79687 10.0875 9.693 10.1632 9.6207L10.2508 9.5372L10.2737 9.51551L10.2794 9.51008L10.2808 9.50877L10.2811 9.50847L10.2812 9.50841C10.5619 9.24266 10.5741 8.79962 10.3084 8.51883C10.0426 8.23805 9.5996 8.22585 9.31882 8.4916L9.79999 9L9.31875 8.49166L9.31862 8.49178L9.31818 8.4922L9.31652 8.49377L9.31025 8.49972L9.28626 8.5225L9.19613 8.60841C9.11868 8.6824 9.00825 8.78829 8.87582 8.91639C8.61125 9.17229 8.25747 9.51816 7.90282 9.87598C7.54999 10.232 7.18862 10.6075 6.91248 10.9206C6.77576 11.0756 6.6491 11.2275 6.55292 11.3606C6.50555 11.4262 6.4549 11.5018 6.41314 11.5804L6.41292 11.5809C6.38622 11.6311 6.29999 11.7936 6.29999 12C6.29999 12.2064 6.38622 12.3689 6.41292 12.4191L6.41314 12.4196C6.4549 12.4982 6.50555 12.5738 6.55292 12.6394C6.6491 12.7725 6.77576 12.9244 6.91248 13.0794C7.18862 13.3925 7.54999 13.768 7.90282 14.124C8.25747 14.4818 8.61125 14.8277 8.87582 15.0836C9.00825 15.2117 9.11868 15.3176 9.19613 15.3916L9.28626 15.4775L9.31024 15.5003L9.31652 15.5062L9.31818 15.5078L9.31862 15.5082L9.31875 15.5083L9.79999 15L9.31882 15.5084Z" fill="#222628"/>
</svg>
