<svg width="24" height="24" viewBox="0 0 24 24" fill="none" xmlns="http://www.w3.org/2000/svg">
<path fill-rule="evenodd" clip-rule="evenodd" d="M3.29999 12C3.29999 11.6134 3.61339 11.3 3.99999 11.3H13C13.3866 11.3 13.7 11.6134 13.7 12C13.7 12.3866 13.3866 12.7 13 12.7H3.99999C3.61339 12.7 3.29999 12.3866 3.29999 12Z" fill="#222628"/>
<path d="M18.12 9.84008C19.2845 10.7134 19.8667 11.1501 19.9743 11.7235C20.0086 11.9063 20.0086 12.0939 19.9743 12.2767C19.8667 12.8501 19.2845 13.2867 18.12 14.1601L17.32 14.7601C15.6606 16.0046 14.8309 16.6269 14.1402 16.4563C13.9244 16.403 13.7231 16.3023 13.5509 16.1616C13 15.7115 13 14.6744 13 12.6001L13 11.4001C13 9.3258 13 8.28867 13.5509 7.83853C13.7231 7.69785 13.9244 7.5972 14.1402 7.54387C14.8309 7.37323 15.6606 7.99552 17.32 9.24008L18.12 9.84008Z" fill="#222628"/>
</svg>
