<svg width="24" height="24" viewBox="0 0 24 24" fill="none" xmlns="http://www.w3.org/2000/svg">
<path fill-rule="evenodd" clip-rule="evenodd" d="M19 2.80385C17.6077 2 15.7385 2 12 2C8.26154 2 6.3923 2 5 2.80385C4.08788 3.33046 3.33046 4.08788 2.80385 5C2 6.3923 2 8.26154 2 12C2 15.7385 2 17.6077 2.80385 19C3.33046 19.9121 4.08788 20.6695 5 21.1962C6.3923 22 8.26154 22 12 22C15.7385 22 17.6077 22 19 21.1962C19.9121 20.6695 20.6695 19.9121 21.1962 19C22 17.6077 22 15.7385 22 12C22 8.26154 22 6.3923 21.1962 5C20.6695 4.08788 19.9121 3.33046 19 2.80385ZM15.5084 14.6812C15.7741 14.4004 15.762 13.9573 15.4812 13.6916C15.2004 13.4259 14.7573 13.4381 14.4916 13.7188L14.4915 13.7189L14.4912 13.7192L14.4899 13.7206L14.4845 13.7263L14.4628 13.7492L14.3793 13.8368C14.307 13.9125 14.2031 14.0208 14.0773 14.1508C13.8254 14.4113 13.4869 14.7575 13.1385 15.1028C12.9909 15.2491 12.8429 15.3938 12.7 15.531L12.7 7C12.7 6.6134 12.3866 6.3 12 6.3C11.6134 6.3 11.3 6.6134 11.3 7L11.3 15.531C11.157 15.3938 11.0091 15.2491 10.8615 15.1028C10.5131 14.7575 10.1746 14.4113 9.92267 14.1508C9.79687 14.0208 9.69299 13.9125 9.62069 13.8368L9.53719 13.7492L9.51551 13.7263L9.51008 13.7206L9.50876 13.7192L9.50846 13.7189L9.5084 13.7188C9.24266 13.4381 8.79962 13.4259 8.51883 13.6916C8.23805 13.9573 8.22585 14.4004 8.49159 14.6812L9 14.2L8.49165 14.6812L8.49178 14.6814L8.4922 14.6818L8.49377 14.6835L8.49972 14.6898L8.5225 14.7137L8.60841 14.8039C8.6824 14.8813 8.78829 14.9917 8.91639 15.1242C9.17229 15.3887 9.51816 15.7425 9.87598 16.0972C10.232 16.45 10.6075 16.8114 10.9206 17.0875C11.0756 17.2242 11.2275 17.3509 11.3606 17.4471C11.4262 17.4944 11.5018 17.5451 11.5804 17.5869L11.5809 17.5871C11.6311 17.6138 11.7936 17.7 12 17.7C12.2064 17.7 12.3689 17.6138 12.4191 17.5871L12.4196 17.5869C12.4982 17.5451 12.5738 17.4944 12.6394 17.4471C12.7725 17.3509 12.9244 17.2242 13.0794 17.0875C13.3925 16.8114 13.768 16.45 14.124 16.0972C14.4818 15.7425 14.8277 15.3887 15.0836 15.1242C15.2117 14.9917 15.3176 14.8813 15.3916 14.8039L15.4775 14.7137L15.5003 14.6898L15.5062 14.6835L15.5078 14.6818L15.5082 14.6814L15.5083 14.6812L15 14.2L15.5084 14.6812Z" fill="#222628"/>
</svg>
