<svg width="24" height="24" viewBox="0 0 24 24" fill="none" xmlns="http://www.w3.org/2000/svg">
<path fill-rule="evenodd" clip-rule="evenodd" d="M19 2.80385C17.6077 2 15.7385 2 12 2C8.26154 2 6.3923 2 5 2.80385C4.08788 3.33046 3.33046 4.08788 2.80385 5C2 6.3923 2 8.26154 2 12C2 15.7385 2 17.6077 2.80385 19C3.33046 19.9121 4.08788 20.6695 5 21.1962C6.3923 22 8.26154 22 12 22C15.7385 22 17.6077 22 19 21.1962C19.9121 20.6695 20.6695 19.9121 21.1962 19C22 17.6077 22 15.7385 22 12C22 8.26154 22 6.3923 21.1962 5C20.6695 4.08788 19.9121 3.33046 19 2.80385ZM16.0203 11.4683C16.2789 11.1809 16.2556 10.7383 15.9683 10.4797C15.6809 10.2211 15.2383 10.2444 14.9797 10.5317L15.5 11L14.9797 10.5317L14.9796 10.5318L14.9792 10.5322L14.9776 10.534L14.9711 10.5413L14.9451 10.5701L14.8455 10.6801C14.7594 10.775 14.6358 10.9108 14.4863 11.0739C14.1872 11.4002 13.7855 11.8344 13.3738 12.2679C12.9604 12.703 12.5434 13.1304 12.2118 13.4462C12.1339 13.5204 12.0631 13.5861 12 13.6429C11.9369 13.5861 11.8661 13.5204 11.7882 13.4462C11.4566 13.1304 11.0396 12.703 10.6262 12.2679C10.2145 11.8344 9.81282 11.4002 9.51366 11.0739C9.36421 10.9108 9.24062 10.775 9.15449 10.6801L9.0549 10.5701L9.02894 10.5413L9.02238 10.534L9.02078 10.5322L9.0204 10.5318L9.02032 10.5317L8.5 11L9.02031 10.5317C8.76168 10.2444 8.31908 10.2211 8.03172 10.4797C7.74437 10.7383 7.72107 11.1809 7.97969 11.4683L8.5 11L7.97975 11.4683L7.97989 11.4685L7.98037 11.469L7.98218 11.471L7.98916 11.4788L8.01602 11.5085L8.11757 11.6207C8.20508 11.7172 8.33032 11.8548 8.48165 12.0199C8.78406 12.3498 9.19177 12.7906 9.61125 13.2321C10.0291 13.672 10.4653 14.1196 10.8227 14.46C10.9999 14.6288 11.1687 14.7817 11.3118 14.8962C11.3821 14.9524 11.4607 15.0111 11.5402 15.0593C11.5799 15.0834 11.6329 15.1128 11.6946 15.1381C11.7471 15.1595 11.8581 15.2 12 15.2C12.1419 15.2 12.2529 15.1595 12.3054 15.1381C12.3671 15.1128 12.4201 15.0834 12.4598 15.0593C12.5393 15.0111 12.6179 14.9524 12.6882 14.8962C12.8313 14.7817 13.0001 14.6288 13.1773 14.46C13.5347 14.1196 13.9709 13.672 14.3887 13.2321C14.8082 12.7906 15.2159 12.3498 15.5184 12.0199C15.6697 11.8548 15.7949 11.7172 15.8824 11.6207L15.984 11.5085L16.0108 11.4788L16.0178 11.471L16.0196 11.469L16.0201 11.4685L16.0202 11.4683L15.5 11L16.0203 11.4683Z" fill="#222628"/>
</svg>
