<svg width="24" height="24" viewBox="0 0 24 24" fill="none" xmlns="http://www.w3.org/2000/svg">
<path fill-rule="evenodd" clip-rule="evenodd" d="M7.00514 14.4949C6.73177 14.2216 6.73177 13.7784 7.00513 13.505L7.43856 13.9384C7.00514 13.505 7.00509 13.505 7.00513 13.505L7.05121 13.459L7.18019 13.3309C7.29137 13.2207 7.45055 13.0635 7.64308 12.8749C8.02783 12.498 8.54704 11.9945 9.08285 11.4902C9.61687 10.9876 10.1749 10.4771 10.6352 10.0895C10.8638 9.89698 11.0801 9.72474 11.2634 9.5972C11.3541 9.53412 11.4509 9.472 11.5461 9.42284C11.6113 9.38918 11.7869 9.29996 12.0001 9.29996C12.2133 9.29996 12.3889 9.38918 12.4541 9.42284C12.5493 9.472 12.6461 9.53412 12.7368 9.5972C12.9201 9.72474 13.1364 9.89698 13.3651 10.0895C13.8253 10.4771 14.3833 10.9876 14.9174 11.4902C15.4532 11.9945 15.9724 12.498 16.3571 12.8749C16.5497 13.0635 16.7089 13.2207 16.82 13.3309L16.949 13.459L16.9942 13.5041L16.995 13.5049C16.9951 13.505 16.9951 13.505 16.5001 14L16.0051 14.4949L15.9611 14.451L15.8345 14.3253C15.725 14.2167 15.5677 14.0614 15.3775 13.875C14.9966 13.5019 14.4845 13.0054 13.9579 12.5097C13.4294 12.0123 12.8936 11.5228 12.4633 11.1604C12.2794 11.0056 12.1233 10.8812 12.0001 10.7913C11.8769 10.8812 11.7208 11.0056 11.5369 11.1604C11.1066 11.5228 10.5708 12.0123 10.0424 12.5097C9.51568 13.0054 9.00364 13.5019 8.62277 13.875C8.43248 14.0614 8.27526 14.2167 8.16573 14.3253L8.0391 14.451L7.99569 14.4943C7.72232 14.7677 7.2785 14.7683 7.00514 14.4949ZM12.1882 10.6669C12.2062 10.6597 12.2071 10.6572 12.1882 10.6669C12.188 10.667 12.1885 10.6668 12.1882 10.6669ZM16.9951 14.4949C16.7217 14.7683 16.2785 14.7683 16.0051 14.4949L16.5001 14L16.995 13.5049C17.2684 13.7783 17.2685 14.2216 16.9951 14.4949Z" fill="#222628"/>
</svg>
