<svg width="24" height="24" viewBox="0 0 24 24" fill="none" xmlns="http://www.w3.org/2000/svg">
<path fill-rule="evenodd" clip-rule="evenodd" d="M12 2C6.47715 2 2 6.47715 2 12C2 17.5228 6.47715 22 12 22C17.5228 22 22 17.5228 22 12C22 6.47715 17.5228 2 12 2ZM11.4683 7.97969C11.1809 7.72107 10.7383 7.74437 10.4797 8.03172C10.2211 8.31908 10.2444 8.76168 10.5317 9.02031L11 8.5L10.5317 9.02032L10.5318 9.0204L10.5322 9.02078L10.534 9.02239L10.5413 9.02894L10.5701 9.05491L10.6801 9.1545C10.775 9.24062 10.9108 9.36421 11.0739 9.51366C11.4002 9.81282 11.8344 10.2145 12.2679 10.6262C12.703 11.0396 13.1304 11.4566 13.4462 11.7882C13.5204 11.8661 13.5861 11.9369 13.6429 12C13.5861 12.0631 13.5204 12.1339 13.4462 12.2118C13.1304 12.5434 12.703 12.9604 12.2679 13.3738C11.8344 13.7855 11.4002 14.1872 11.0739 14.4863C10.9108 14.6358 10.775 14.7594 10.6801 14.8455L10.5701 14.9451L10.5413 14.9711L10.534 14.9776L10.5322 14.9792L10.5318 14.9796L10.5317 14.9797L11 15.5L10.5317 14.9797C10.2444 15.2383 10.2211 15.6809 10.4797 15.9683C10.7383 16.2556 11.1809 16.2789 11.4683 16.0203L11 15.5L11.4683 16.0202L11.4685 16.0201L11.469 16.0196L11.471 16.0178L11.4788 16.0108L11.5085 15.984L11.6207 15.8824C11.7172 15.7949 11.8548 15.6697 12.0199 15.5184C12.3498 15.2159 12.7906 14.8082 13.2321 14.3888C13.672 13.9709 14.1196 13.5347 14.46 13.1773C14.6288 13.0001 14.7817 12.8313 14.8962 12.6882C14.9524 12.6179 15.0111 12.5393 15.0593 12.4598C15.0834 12.4201 15.1128 12.3671 15.1381 12.3054C15.1595 12.2529 15.2 12.1419 15.2 12C15.2 11.8581 15.1595 11.7471 15.1381 11.6946C15.1128 11.6329 15.0834 11.5799 15.0593 11.5402C15.0111 11.4607 14.9524 11.3821 14.8962 11.3118C14.7817 11.1687 14.6288 10.9999 14.46 10.8227C14.1196 10.4653 13.672 10.0291 13.2321 9.61125C12.7906 9.19177 12.3498 8.78406 12.0199 8.48165C11.8548 8.33032 11.7172 8.20508 11.6207 8.11757L11.5085 8.01602L11.4788 7.98916L11.471 7.98218L11.469 7.98037L11.4685 7.97989L11.4683 7.97976L11 8.5L11.4683 7.97969Z" fill="#222628"/>
</svg>
