<svg width="24" height="24" viewBox="0 0 24 24" fill="none" xmlns="http://www.w3.org/2000/svg">
<path fill-rule="evenodd" clip-rule="evenodd" d="M12 22C8.26154 22 6.3923 22 5 21.1962C4.08788 20.6695 3.33046 19.9121 2.80385 19C2 17.6077 2 15.7385 2 12C2 8.26154 2 6.3923 2.80385 5C3.33046 4.08788 4.08788 3.33046 5 2.80385C6.3923 2 8.26154 2 12 2C15.7385 2 17.6077 2 19 2.80385C19.9121 3.33046 20.6695 4.08788 21.1962 5C22 6.3923 22 8.26154 22 12C22 15.7385 22 17.6077 21.1962 19C20.6695 19.9121 19.9121 20.6695 19 21.1962C17.6077 22 15.7385 22 12 22ZM12 18.7C11.6134 18.7 11.3 18.3866 11.3 18L11.3 12C11.3 11.9996 11.3 11.9991 11.3 11.9987C10.229 11.9919 9.643 11.9513 9.31187 11.7069C8.90353 11.4056 8.67526 10.9182 8.70517 10.4116C8.73426 9.91889 9.22315 9.33223 10.2009 8.1589C10.7927 7.44874 11.0886 7.09366 11.4375 6.95252C11.7983 6.80659 12.2017 6.80659 12.5625 6.95252C12.9114 7.09366 13.2073 7.44874 13.7991 8.15889C14.7769 9.33223 15.2657 9.91889 15.2948 10.4116C15.3247 10.9182 15.0965 11.4056 14.6881 11.7069C14.357 11.9513 13.771 11.9919 12.7 11.9987C12.7 11.9991 12.7 11.9996 12.7 12L12.7 18C12.7 18.3866 12.3866 18.7 12 18.7ZM12 10.6C11.2103 10.6 10.7086 10.5988 10.3505 10.5684C10.2408 10.5591 10.166 10.5481 10.1182 10.5395C10.1422 10.4973 10.1817 10.4328 10.2448 10.3425C10.4506 10.048 10.7709 9.66184 11.2764 9.05515C11.5873 8.68209 11.7672 8.46793 11.9095 8.32297C11.9474 8.28432 11.9748 8.259 11.9927 8.24334C11.9976 8.24299 12.0024 8.24299 12.0073 8.24334C12.0252 8.259 12.0526 8.28432 12.0905 8.32297C12.2328 8.46793 12.4127 8.68209 12.7236 9.05515C13.2291 9.66184 13.5494 10.048 13.7552 10.3425C13.8183 10.4328 13.8578 10.4973 13.8818 10.5395C13.834 10.5481 13.7592 10.5591 13.6494 10.5684C13.2914 10.5988 12.7897 10.6 12 10.6Z" fill="#222628"/>
</svg>
