<svg width="24" height="24" viewBox="0 0 24 24" fill="none" xmlns="http://www.w3.org/2000/svg">
<path fill-rule="evenodd" clip-rule="evenodd" d="M9.50501 7.00507C9.77837 6.73171 10.2216 6.73171 10.495 7.00507L10.0615 7.4385C10.495 7.00508 10.4949 7.00503 10.495 7.00507L10.5409 7.05115L10.669 7.18013C10.7792 7.2913 10.9364 7.45049 11.125 7.64302C11.5019 8.02777 12.0054 8.54698 12.5097 9.08279C13.0123 9.61681 13.5228 10.1748 13.9104 10.6351C14.103 10.8637 14.2752 11.08 14.4027 11.2634C14.4658 11.3541 14.5279 11.4508 14.5771 11.5461C14.6108 11.6113 14.7 11.7868 14.7 12C14.7 12.2133 14.6108 12.3888 14.5771 12.454C14.5279 12.5493 14.4658 12.646 14.4027 12.7367C14.2752 12.9201 14.103 13.1364 13.9104 13.365C13.5228 13.8253 13.0123 14.3833 12.5097 14.9173C12.0054 15.4531 11.5019 15.9723 11.125 16.3571C10.9364 16.5496 10.7792 16.7088 10.669 16.82L10.5409 16.9489L10.4958 16.9942L10.495 16.9949C10.495 16.995 10.495 16.995 9.99998 16.5L9.50502 16.0051L9.5489 15.9611L9.67469 15.8344C9.78325 15.7249 9.93852 15.5677 10.1249 15.3774C10.498 14.9965 10.9945 14.4845 11.4902 13.9578C11.9876 13.4293 12.4771 12.8936 12.8395 12.4632C12.9944 12.2794 13.1188 12.1232 13.2086 12C13.1188 11.8769 12.9944 11.7207 12.8395 11.5369C12.4771 11.1065 11.9876 10.5708 11.4902 10.0423C10.9945 9.51562 10.498 9.00357 10.1249 8.62271C9.93852 8.43242 9.78325 8.2752 9.67469 8.16567L9.5489 8.03904L9.50561 7.99563C9.23225 7.72226 9.23164 7.27844 9.50501 7.00507ZM13.333 12.1882C13.3402 12.2062 13.3428 12.2071 13.333 12.1882C13.3329 12.1879 13.3332 12.1884 13.333 12.1882ZM9.50501 16.995C9.23164 16.7217 9.23165 16.2784 9.50502 16.0051L9.99998 16.5L10.495 16.9949C10.2217 17.2683 9.77837 17.2684 9.50501 16.995Z" fill="#222628"/>
</svg>
