<svg width="24" height="24" viewBox="0 0 24 24" fill="none" xmlns="http://www.w3.org/2000/svg">
<path fill-rule="evenodd" clip-rule="evenodd" d="M2 12C2 17.5228 6.47715 22 12 22C17.5228 22 22 17.5228 22 12C22 6.47715 17.5228 2 12 2C6.47715 2 2 6.47715 2 12ZM7.97969 12.5317C7.72107 12.8191 7.74437 13.2617 8.03172 13.5203C8.31908 13.7789 8.76168 13.7556 9.02031 13.4683L8.5 13L9.02032 13.4683L9.0204 13.4682L9.02078 13.4678L9.02238 13.466L9.02894 13.4587L9.05491 13.4299L9.1545 13.3199C9.24062 13.225 9.36421 13.0892 9.51366 12.9261C9.81282 12.5998 10.2145 12.1656 10.6262 11.7321C11.0396 11.297 11.4566 10.8696 11.7882 10.5538C11.8661 10.4796 11.9369 10.4139 12 10.3571C12.0631 10.4139 12.1339 10.4796 12.2118 10.5538C12.5434 10.8696 12.9604 11.297 13.3738 11.7321C13.7855 12.1656 14.1872 12.5998 14.4863 12.9261C14.6358 13.0892 14.7594 13.225 14.8455 13.3199L14.9451 13.4299L14.9711 13.4587L14.9776 13.466L14.9792 13.4677L14.9796 13.4682L14.9797 13.4683L15.5 13L14.9797 13.4683C15.2383 13.7556 15.6809 13.7789 15.9683 13.5203C16.2556 13.2617 16.2789 12.8191 16.0203 12.5317L15.5 13L16.0202 12.5317L16.0201 12.5315L16.0196 12.531L16.0178 12.529L16.0108 12.5212L15.984 12.4915L15.8824 12.3793C15.7949 12.2828 15.6697 12.1452 15.5184 11.9801C15.2159 11.6502 14.8082 11.2094 14.3887 10.7679C13.9709 10.328 13.5347 9.88038 13.1773 9.53998C13.0001 9.37122 12.8313 9.21828 12.6882 9.10378C12.6179 9.04758 12.5393 8.98886 12.4598 8.94067C12.4201 8.91661 12.3671 8.88716 12.3054 8.86195C12.2529 8.84054 12.1419 8.8 12 8.8C11.8581 8.8 11.7471 8.84054 11.6946 8.86195C11.6329 8.88716 11.5799 8.91661 11.5402 8.94067C11.4607 8.98886 11.3821 9.04758 11.3118 9.10378C11.1687 9.21828 10.9999 9.37122 10.8227 9.53998C10.4653 9.88038 10.0291 10.328 9.61125 10.7679C9.19177 11.2094 8.78406 11.6502 8.48165 11.9801C8.33032 12.1452 8.20508 12.2828 8.11757 12.3793L8.01602 12.4915L7.98916 12.5212L7.98218 12.529L7.98037 12.531L7.97989 12.5315L7.97975 12.5317L8.5 13L7.97969 12.5317Z" fill="#222628"/>
</svg>
