<svg width="24" height="24" viewBox="0 0 24 24" fill="none" xmlns="http://www.w3.org/2000/svg">
<path fill-rule="evenodd" clip-rule="evenodd" d="M22 12C22 15.7385 22 17.6077 21.1962 19C20.6695 19.9121 19.9121 20.6695 19 21.1962C17.6077 22 15.7385 22 12 22C8.26154 22 6.3923 22 5 21.1962C4.08788 20.6695 3.33046 19.9121 2.80385 19C2 17.6077 2 15.7385 2 12C2 8.26154 2 6.39231 2.80385 5C3.33046 4.08789 4.08788 3.33046 5 2.80385C6.3923 2 8.26153 2 12 2C15.7385 2 17.6077 2 19 2.80385C19.9121 3.33046 20.6695 4.08789 21.1962 5C22 6.3923 22 8.26154 22 12ZM18.7 12C18.7 12.3866 18.3866 12.7 18 12.7L12 12.7C11.9996 12.7 11.9991 12.7 11.9987 12.7C11.9919 13.771 11.9513 14.357 11.7069 14.6881C11.4056 15.0965 10.9182 15.3247 10.4116 15.2948C9.91889 15.2657 9.33223 14.7769 8.15889 13.7991C7.44874 13.2073 7.09366 12.9114 6.95252 12.5625C6.80659 12.2017 6.80659 11.7983 6.95252 11.4375C7.09366 11.0886 7.44874 10.7927 8.15889 10.2009C9.33223 9.22315 9.91889 8.73426 10.4116 8.70517C10.9182 8.67526 11.4056 8.90354 11.7069 9.31187C11.9513 9.64301 11.9919 10.229 11.9987 11.3C11.9991 11.3 11.9996 11.3 12 11.3L18 11.3C18.3866 11.3 18.7 11.6134 18.7 12ZM10.6 12C10.6 12.7897 10.5988 13.2914 10.5684 13.6495C10.5591 13.7592 10.5481 13.834 10.5395 13.8818C10.4973 13.8578 10.4328 13.8183 10.3425 13.7552C10.048 13.5494 9.66184 13.2291 9.05515 12.7236C8.68209 12.4127 8.46793 12.2328 8.32297 12.0905C8.28432 12.0526 8.259 12.0252 8.24334 12.0073C8.24299 12.0024 8.24299 11.9976 8.24334 11.9927C8.259 11.9748 8.28432 11.9474 8.32297 11.9095C8.46793 11.7672 8.68209 11.5873 9.05515 11.2764C9.66184 10.7709 10.048 10.4506 10.3425 10.2448C10.4328 10.1817 10.4973 10.1422 10.5395 10.1182C10.5481 10.166 10.5591 10.2408 10.5684 10.3506C10.5988 10.7086 10.6 11.2103 10.6 12Z" fill="#222628"/>
</svg>
