<svg width="24" height="24" viewBox="0 0 24 24" fill="none" xmlns="http://www.w3.org/2000/svg">
<path fill-rule="evenodd" clip-rule="evenodd" d="M3.29999 12C3.29999 11.6134 3.61339 11.3 3.99999 11.3L19 11.3C19.3866 11.3 19.7 11.6135 19.7 12C19.7 12.3866 19.3866 12.7 19 12.7L3.99999 12.7C3.61339 12.7 3.29999 12.3866 3.29999 12Z" fill="#222628"/>
<path fill-rule="evenodd" clip-rule="evenodd" d="M14.5197 6.49077C14.801 6.22554 15.244 6.23854 15.5093 6.51981L15 7.00005L14.4907 7.48029C14.2255 7.19902 14.2385 6.756 14.5197 6.49077ZM15 17.0001L14.4907 16.5198L14.6833 16.3152C14.806 16.1846 14.9814 15.9977 15.1919 15.7726C15.6131 15.3224 16.1743 14.7202 16.7351 14.1113C17.2967 13.5015 17.8549 12.8883 18.2714 12.415C18.4104 12.257 18.5312 12.1173 18.63 12.0001C18.5312 11.8828 18.4104 11.7431 18.2714 11.5851C17.8549 11.1118 17.2967 10.4986 16.7351 9.88882C16.1743 9.27987 15.6131 8.67767 15.1919 8.22748C14.9814 8.00245 14.806 7.81553 14.6833 7.68492L14.4907 7.48029L15 7.00005L15.5093 6.51981L15.7034 6.72617C15.8268 6.85743 16.0029 7.04512 16.2143 7.27104C16.6369 7.72274 17.2007 8.32781 17.7649 8.94039C18.3283 9.55213 18.8951 10.1747 19.3224 10.6602C19.5351 10.902 19.7187 11.1159 19.8511 11.2799C19.9162 11.3605 19.977 11.4388 20.0244 11.5071C20.0473 11.54 20.0763 11.5838 20.1025 11.6321C20.1155 11.6561 20.1345 11.6934 20.1518 11.7394C20.1648 11.7739 20.2 11.8716 20.2 12.0001C20.2 12.1285 20.1648 12.2262 20.1518 12.2607C20.1345 12.3067 20.1155 12.344 20.1025 12.368C20.0763 12.4163 20.0473 12.4601 20.0244 12.493C19.977 12.5613 19.9162 12.6397 19.8511 12.7202C19.7187 12.8842 19.5351 13.0981 19.3224 13.3399C18.8951 13.8254 18.3283 14.448 17.7649 15.0597C17.2007 15.6723 16.6369 16.2774 16.2143 16.7291C16.0029 16.955 15.8268 17.1427 15.7034 17.2739L15.5093 17.4802L15 17.0001ZM15 17.0001L14.4907 16.5198C14.2255 16.801 14.2385 17.2441 14.5197 17.5093C14.801 17.7746 15.2441 17.7615 15.5093 17.4802L15 17.0001Z" fill="#222628"/>
</svg>
