<svg width="24" height="24" viewBox="0 0 24 24" fill="none" xmlns="http://www.w3.org/2000/svg">
<path fill-rule="evenodd" clip-rule="evenodd" d="M20.0001 12C20.0001 12.3866 19.6867 12.7 19.3001 12.7L10.3001 12.7C9.91346 12.7 9.60006 12.3866 9.60006 12C9.60006 11.6134 9.91346 11.3 10.3001 11.3L19.3001 11.3C19.6867 11.3 20.0001 11.6134 20.0001 12Z" fill="#222628"/>
<path d="M5.18005 14.1599C4.01558 13.2866 3.43334 12.8499 3.32577 12.2765C3.29147 12.0937 3.29147 11.9061 3.32577 11.7233C3.43334 11.1499 4.01558 10.7133 5.18005 9.83992L5.98005 9.23992C7.63947 7.99535 8.46918 7.37307 9.15983 7.5437C9.37568 7.59703 9.57697 7.69768 9.74915 7.83836C10.3 8.2885 10.3 9.32564 10.3 11.3999L10.3 12.5999C10.3 14.6742 10.3 15.7113 9.74915 16.1615C9.57698 16.3022 9.37568 16.4028 9.15983 16.4561C8.46918 16.6268 7.63947 16.0045 5.98005 14.7599L5.18005 14.1599Z" fill="#222628"/>
</svg>
