<svg width="24" height="24" viewBox="0 0 24 24" fill="none" xmlns="http://www.w3.org/2000/svg">
<path fill-rule="evenodd" clip-rule="evenodd" d="M11.75 20.4497C11.3634 20.4497 11.05 20.1363 11.05 19.7497L11.05 4.74971C11.05 4.36311 11.3634 4.04971 11.75 4.04971C12.1366 4.04971 12.45 4.36311 12.45 4.74971L12.45 19.7497C12.45 20.1363 12.1366 20.4497 11.75 20.4497Z" fill="#222628"/>
<path fill-rule="evenodd" clip-rule="evenodd" d="M6.24077 9.22995C5.97554 8.94868 5.98854 8.50565 6.26981 8.24042L6.75005 8.74971L7.23029 9.25899C6.94902 9.52422 6.506 9.51121 6.24077 9.22995ZM16.7501 8.7497L16.2698 9.25895L16.0652 9.06644C15.9346 8.9437 15.7477 8.76828 15.5226 8.55776C15.0724 8.13659 14.4702 7.57543 13.8613 7.0146C13.2515 6.45301 12.6383 5.89484 12.165 5.47834C12.007 5.33932 11.8673 5.21846 11.7501 5.11966C11.6328 5.21846 11.4931 5.33932 11.3351 5.47834C10.8618 5.89484 10.2486 6.45301 9.63882 7.0146C9.02987 7.57543 8.42767 8.13659 7.97748 8.55776C7.75245 8.76828 7.56553 8.9437 7.43492 9.06644L7.23029 9.25899L6.75005 8.74971L6.26981 8.24042L6.47617 8.04625C6.60743 7.9229 6.79512 7.74675 7.02103 7.5354C7.47274 7.11282 8.07781 6.54898 8.69039 5.98481C9.30213 5.4214 9.9247 4.85457 10.4102 4.42732C10.652 4.21456 10.8659 4.03103 11.0299 3.89857C11.1105 3.83346 11.1888 3.77267 11.2571 3.72525C11.29 3.70241 11.3338 3.67335 11.3821 3.64717C11.4061 3.6342 11.4434 3.6152 11.4894 3.59788C11.5239 3.58488 11.6216 3.54971 11.7501 3.54971C11.8785 3.54971 11.9762 3.58488 12.0107 3.59788C12.0567 3.6152 12.094 3.6342 12.118 3.64717C12.1663 3.67335 12.2101 3.70241 12.243 3.72525C12.3113 3.77267 12.3897 3.83346 12.4702 3.89857C12.6342 4.03103 12.8481 4.21456 13.0899 4.42732C13.5754 4.85457 14.198 5.4214 14.8097 5.98481C15.4223 6.54898 16.0274 7.11282 16.4791 7.5354C16.705 7.74675 16.8927 7.9229 17.0239 8.04625L17.2302 8.24036L16.7501 8.7497ZM16.7501 8.7497L16.2698 9.25895C16.551 9.52418 16.9941 9.51121 17.2593 9.22995C17.5246 8.94868 17.5115 8.50559 17.2302 8.24036L16.7501 8.7497Z" fill="#222628"/>
</svg>
