<svg width="24" height="24" viewBox="0 0 24 24" fill="none" xmlns="http://www.w3.org/2000/svg">
<path fill-rule="evenodd" clip-rule="evenodd" d="M2 12C2 8.26154 2 6.3923 2.80385 5C3.33046 4.08788 4.08788 3.33046 5 2.80385C6.3923 2 8.26154 2 12 2C15.7385 2 17.6077 2 19 2.80385C19.9121 3.33046 20.6695 4.08788 21.1962 5C22 6.3923 22 8.26154 22 12C22 15.7385 22 17.6077 21.1962 19C20.6695 19.9121 19.9121 20.6695 19 21.1962C17.6077 22 15.7385 22 12 22C8.26154 22 6.3923 22 5 21.1962C4.08788 20.6695 3.33046 19.9121 2.80385 19C2 17.6077 2 15.7385 2 12ZM5.3 12C5.3 11.6134 5.6134 11.3 6 11.3H12C12.0004 11.3 12.0009 11.3 12.0013 11.3C12.0081 10.229 12.0487 9.643 12.2931 9.31187C12.5944 8.90353 13.0818 8.67526 13.5884 8.70517C14.0811 8.73426 14.6678 9.22315 15.8411 10.2009C16.5513 10.7927 16.9063 11.0886 17.0475 11.4375C17.1934 11.7983 17.1934 12.2017 17.0475 12.5625C16.9063 12.9114 16.5513 13.2073 15.8411 13.7991C14.6678 14.7769 14.0811 15.2657 13.5884 15.2948C13.0818 15.3247 12.5944 15.0965 12.2931 14.6881C12.0487 14.357 12.0081 13.771 12.0013 12.7C12.0009 12.7 12.0004 12.7 12 12.7H6C5.6134 12.7 5.3 12.3866 5.3 12ZM13.4 12C13.4 11.2103 13.4012 10.7086 13.4316 10.3505C13.4409 10.2408 13.4519 10.166 13.4605 10.1182C13.5027 10.1422 13.5672 10.1817 13.6575 10.2448C13.952 10.4506 14.3382 10.7709 14.9448 11.2764C15.3179 11.5873 15.5321 11.7672 15.677 11.9095C15.7157 11.9474 15.741 11.9748 15.7567 11.9927C15.757 11.9976 15.757 12.0024 15.7567 12.0073C15.741 12.0252 15.7157 12.0526 15.677 12.0905C15.5321 12.2328 15.3179 12.4127 14.9448 12.7236C14.3382 13.2291 13.952 13.5494 13.6575 13.7552C13.5672 13.8183 13.5027 13.8578 13.4605 13.8818C13.4519 13.834 13.4409 13.7592 13.4316 13.6495C13.4012 13.2914 13.4 12.7897 13.4 12Z" fill="#222628"/>
</svg>
