<svg width="24" height="24" viewBox="0 0 24 24" fill="none" xmlns="http://www.w3.org/2000/svg">
<path fill-rule="evenodd" clip-rule="evenodd" d="M12 2C15.7385 2 17.6077 2 19 2.80385C19.9121 3.33046 20.6695 4.08788 21.1962 5C22 6.3923 22 8.26154 22 12C22 15.7385 22 17.6077 21.1962 19C20.6695 19.9121 19.9121 20.6695 19 21.1962C17.6077 22 15.7385 22 12 22C8.26154 22 6.3923 22 5 21.1962C4.08788 20.6695 3.33046 19.9121 2.80385 19C2 17.6077 2 15.7385 2 12C2 8.26154 2 6.3923 2.80385 5C3.33046 4.08788 4.08788 3.33046 5 2.80385C6.3923 2 8.26154 2 12 2ZM12 5.3C12.3866 5.3 12.7 5.6134 12.7 6L12.7 12C12.7 12.0004 12.7 12.0009 12.7 12.0013C13.771 12.0081 14.357 12.0487 14.6881 12.2931C15.0965 12.5944 15.3247 13.0818 15.2948 13.5884C15.2657 14.0811 14.7769 14.6678 13.7991 15.8411C13.2073 16.5513 12.9114 16.9063 12.5625 17.0475C12.2017 17.1934 11.7983 17.1934 11.4375 17.0475C11.0886 16.9063 10.7927 16.5513 10.2009 15.8411C9.22314 14.6678 8.73426 14.0811 8.70517 13.5884C8.67526 13.0818 8.90353 12.5944 9.31187 12.2931C9.643 12.0487 10.229 12.0081 11.3 12.0013C11.3 12.0009 11.3 12.0004 11.3 12L11.3 6C11.3 5.6134 11.6134 5.3 12 5.3ZM12 13.4C12.7897 13.4 13.2914 13.4012 13.6495 13.4316C13.7592 13.4409 13.834 13.4519 13.8818 13.4605C13.8578 13.5027 13.8183 13.5672 13.7552 13.6575C13.5494 13.952 13.2291 14.3382 12.7236 14.9448C12.4127 15.3179 12.2328 15.5321 12.0905 15.677C12.0526 15.7157 12.0252 15.741 12.0073 15.7567C12.0024 15.757 11.9976 15.757 11.9927 15.7567C11.9748 15.741 11.9474 15.7157 11.9095 15.677C11.7672 15.5321 11.5873 15.3179 11.2764 14.9448C10.7709 14.3382 10.4506 13.952 10.2448 13.6575C10.1817 13.5672 10.1422 13.5027 10.1182 13.4605C10.166 13.4519 10.2408 13.4409 10.3505 13.4316C10.7086 13.4012 11.2103 13.4 12 13.4Z" fill="#222628"/>
</svg>
