<svg width="24" height="24" viewBox="0 0 24 24" fill="none" xmlns="http://www.w3.org/2000/svg">
<path fill-rule="evenodd" clip-rule="evenodd" d="M6.29999 13C6.29999 12.6134 6.61339 12.3 6.99999 12.3H17C17.3866 12.3 17.7 12.6134 17.7 13L17.7 19.7105C17.7 20.1358 17.7001 20.5167 17.6636 20.8187C17.6257 21.1328 17.5346 21.5083 17.2301 21.796C17.0817 21.9362 16.9063 22.0446 16.7145 22.1146C16.321 22.2583 15.9445 22.1719 15.6466 22.0653C15.3602 21.9629 15.0195 21.7925 14.6391 21.6022L13.2969 20.9311C12.5469 20.5561 12.3325 20.4614 12.1204 20.4417C12.0403 20.4343 11.9597 20.4343 11.8796 20.4417C11.6675 20.4614 11.4531 20.5561 10.7031 20.9311L9.3609 21.6022C8.98046 21.7925 8.63978 21.9629 8.35338 22.0653C8.05552 22.1719 7.67895 22.2583 7.28546 22.1146C7.0937 22.0446 6.91825 21.9362 6.76986 21.796C6.46536 21.5083 6.37425 21.1328 6.33636 20.8187C6.29992 20.5167 6.29995 20.1358 6.29999 19.7104L6.29999 13ZM7.69999 13.7V19.6701C7.69999 20.1486 7.70121 20.4433 7.72628 20.6511C7.73445 20.7188 7.74366 20.7613 7.75038 20.7859C7.7754 20.7809 7.81748 20.7701 7.88177 20.7471C8.07881 20.6767 8.3429 20.546 8.77093 20.332L10.077 19.6789C10.111 19.6619 10.1445 19.6451 10.1776 19.6286C10.7794 19.327 11.2428 19.0949 11.75 19.0477C11.9163 19.0322 12.0837 19.0322 12.25 19.0477C12.7572 19.0949 13.2206 19.327 13.8224 19.6286C13.8555 19.6451 13.889 19.6619 13.923 19.6789L15.2291 20.332C15.6571 20.546 15.9212 20.6767 16.1182 20.7471C16.1825 20.7701 16.2246 20.7809 16.2496 20.7859C16.2563 20.7613 16.2655 20.7188 16.2737 20.6511C16.2988 20.4433 16.3 20.1486 16.3 19.6701V13.7H7.69999ZM16.24 20.8146C16.24 20.8146 16.2402 20.8142 16.2406 20.8134L16.24 20.8146ZM7.75997 20.8146C7.75996 20.8147 7.75976 20.8143 7.75939 20.8134L7.75997 20.8146Z" fill="#222628"/>
<path fill-rule="evenodd" clip-rule="evenodd" d="M12 16C15.866 16 19 12.866 19 9C19 5.13401 15.866 2 12 2C8.13401 2 5 5.13401 5 9C5 12.866 8.13401 16 12 16ZM13.5567 6.85743L12.8673 5.97374C12.4269 5.40919 11.5731 5.40919 11.1327 5.97374L10.4433 6.85743L9.38987 7.23997C8.71686 7.48436 8.45301 8.29639 8.85384 8.8897L9.48126 9.81839L9.51954 10.9385C9.544 11.6541 10.2348 12.156 10.9229 11.9581L12 11.6484L13.0771 11.9581C13.7652 12.156 14.456 11.6541 14.4805 10.9385L14.5187 9.81839L15.1462 8.8897C15.547 8.29639 15.2831 7.48436 14.6101 7.23997L13.5567 6.85743ZM11.4941 7.78655L12 7.13807L12.5059 7.78655C12.633 7.94951 12.8035 8.07336 12.9977 8.14391L13.7708 8.42463L13.3104 9.10614C13.1947 9.2774 13.1296 9.47779 13.1225 9.68435L13.0944 10.5063L12.304 10.279C12.1054 10.2219 11.8946 10.2219 11.696 10.279L10.9056 10.5063L10.8775 9.68435C10.8704 9.47779 10.8053 9.2774 10.6896 9.10614L10.2292 8.42463L11.0023 8.14391C11.1965 8.07336 11.367 7.94951 11.4941 7.78655Z" fill="#222628"/>
</svg>
