<svg width="24" height="24" viewBox="0 0 24 24" fill="none" xmlns="http://www.w3.org/2000/svg">
<path d="M6.88 14.1602C5.71553 13.2868 5.1333 12.8501 5.02572 12.2768C4.99143 12.094 4.99143 11.9064 5.02572 11.7236C5.1333 11.1502 5.71553 10.7135 6.88 9.84016L7.68 9.24016C9.33942 7.99559 10.1691 7.37331 10.8598 7.54395C11.0756 7.59728 11.2769 7.69792 11.4491 7.83861C12 8.28874 12 9.32588 12 11.4002L12 12.6002C12 14.6744 12 15.7116 11.4491 16.1617C11.2769 16.3024 11.0756 16.403 10.8598 16.4564C10.1691 16.627 9.33942 16.0047 7.68 14.7602L6.88 14.1602Z" fill="#222628"/>
<path d="M12.88 14.1602C11.7155 13.2868 11.1333 12.8501 11.0257 12.2768C10.9914 12.094 10.9914 11.9064 11.0257 11.7236C11.1333 11.1502 11.7155 10.7135 12.88 9.84016L13.68 9.24016C15.3394 7.99559 16.1691 7.37331 16.8598 7.54395C17.0756 7.59728 17.2769 7.69792 17.4491 7.83861C18 8.28874 18 9.32588 18 11.4002L18 12.6002C18 14.6744 18 15.7116 17.4491 16.1617C17.2769 16.3024 17.0756 16.403 16.8598 16.4564C16.1691 16.627 15.3394 16.0047 13.68 14.7602L12.88 14.1602Z" fill="#222628"/>
</svg>
