<svg width="24" height="24" viewBox="0 0 24 24" fill="none" xmlns="http://www.w3.org/2000/svg">
<path d="M10.58 14.1599C9.41553 13.2866 8.8333 12.8499 8.72572 12.2765C8.69143 12.0937 8.69143 11.9061 8.72572 11.7233C8.8333 11.1499 9.41553 10.7133 10.58 9.83992L11.38 9.23992C13.0394 7.99535 13.8691 7.37307 14.5598 7.5437C14.7756 7.59703 14.9769 7.69768 15.1491 7.83836C15.7 8.2885 15.7 9.32564 15.7 11.3999L15.7 12.5999C15.7 14.6742 15.7 15.7113 15.1491 16.1615C14.9769 16.3022 14.7756 16.4028 14.5598 16.4561C13.8691 16.6268 13.0394 16.0045 11.38 14.7599L10.58 14.1599Z" fill="#222628"/>
<path fill-rule="evenodd" clip-rule="evenodd" d="M8.7 17.7C8.3134 17.7 8 17.3866 8 17L8 6.99995C8 6.61335 8.3134 6.29995 8.7 6.29995C9.0866 6.29995 9.4 6.61335 9.4 6.99995L9.4 17C9.4 17.3866 9.0866 17.7 8.7 17.7Z" fill="#222628"/>
</svg>
