<svg width="24" height="24" viewBox="0 0 24 24" fill="none" xmlns="http://www.w3.org/2000/svg">
<path fill-rule="evenodd" clip-rule="evenodd" d="M9.36667 7.29104C9.36631 7.67734 9.05304 7.99038 8.66666 7.99037C8.28007 7.99037 7.96667 7.67696 7.96667 7.29036L8.66667 7.29037C7.96667 7.29036 7.96667 7.29073 7.96667 7.29036L7.96668 7.28882L7.96668 7.28697L7.96671 7.28235L7.96687 7.26949C7.96704 7.25933 7.96734 7.24603 7.96789 7.22978C7.96898 7.19732 7.97107 7.15299 7.97501 7.09846C7.98289 6.98964 7.99829 6.83882 8.02854 6.65971C8.08847 6.30476 8.20964 5.82099 8.45891 5.32889C8.70966 4.83386 9.09632 4.31888 9.68816 3.92941C10.2839 3.53736 11.0461 3.30005 12 3.30005C12.954 3.30005 13.7161 3.53736 14.3119 3.92942C14.9037 4.31888 15.2904 4.83387 15.5411 5.3289C15.7904 5.821 15.9116 6.30477 15.9715 6.65971C16.0018 6.83882 16.0172 6.98964 16.025 7.09846C16.029 7.15299 16.0311 7.19733 16.0322 7.22979C16.0327 7.24603 16.033 7.25933 16.0332 7.26949L16.0333 7.28235L16.0334 7.28698L16.0334 7.28883C16.0334 7.2892 16.0334 7.29037 15.3334 7.29037L16.0334 7.29037C16.0334 7.67697 15.72 7.99037 15.3334 7.99037C14.9478 7.99037 14.635 7.67858 14.6334 7.29335C14.6334 7.29281 14.6334 7.29227 14.6334 7.29173C14.6334 7.29166 14.6334 7.29179 14.6334 7.29173C14.6334 7.29227 14.6334 7.29281 14.6334 7.29335C14.6334 7.29355 14.6334 7.29373 14.6334 7.29335C14.6334 7.29281 14.6334 7.29227 14.6334 7.29173L14.6329 7.27705C14.6324 7.26131 14.6312 7.23496 14.6287 7.19952C14.6235 7.1284 14.6129 7.02216 14.591 6.8928C14.5468 6.63081 14.4596 6.292 14.2922 5.96152C14.1263 5.63397 13.888 5.32638 13.5423 5.09891C13.2006 4.87403 12.7127 4.70005 12 4.70005C11.2873 4.70005 10.7995 4.87403 10.4578 5.09891C10.1121 5.32638 9.87374 5.63398 9.70782 5.96153C9.54041 6.29201 9.45323 6.63082 9.40899 6.89281C9.38715 7.02217 9.37651 7.1284 9.37136 7.19952C9.3688 7.23496 9.36762 7.26132 9.36709 7.27705L9.36668 7.29238L9.36667 7.29104Z" fill="#222628"/>
<path fill-rule="evenodd" clip-rule="evenodd" d="M20.6254 15.2483C21.0856 18.2745 18.7431 21 15.6822 21L12 21L8.31776 21C5.25686 21 2.91443 18.2745 3.37458 15.2483L3.7647 12.6828L4.14336 10.7707C4.60705 8.42916 6.66114 6.74195 9.04811 6.74195L12 6.74195L14.9519 6.74194C17.3388 6.74194 19.3929 8.42916 19.8566 10.7707L20.2353 12.6828L20.6254 15.2483ZM10.3907 12.8143C10.1155 13.0859 9.66947 13.0859 9.39433 12.8143L9.27957 12.7011C9.00444 12.4295 9.00444 11.9892 9.27957 11.7176C9.55471 11.446 10.0008 11.446 10.2759 11.7176L10.3907 11.8308C10.6658 12.1024 10.6658 12.5428 10.3907 12.8143ZM14.6057 11.8308C14.3305 11.5592 13.8844 11.5592 13.6093 11.8308C13.3342 12.1024 13.3342 12.5427 13.6093 12.8143L13.724 12.9276C13.9992 13.1992 14.4453 13.1992 14.7204 12.9276C14.9955 12.656 14.9955 12.2157 14.7204 11.9441L14.6057 11.8308Z" fill="#222628"/>
</svg>
