<svg width="24" height="24" viewBox="0 0 24 24" fill="none" xmlns="http://www.w3.org/2000/svg">
<path fill-rule="evenodd" clip-rule="evenodd" d="M12 20C17.971 20 20 18 20 16C20 14 19 14 19 12C19 9.01681 18.5 2 12 2C5.5 2 5 9.01681 5 12C4.73217 14.2643 4 14.1091 4 16C4 17.8909 6.03011 20 12 20Z" fill="#222628"/>
<path fill-rule="evenodd" clip-rule="evenodd" d="M9.69604 19.4259C9.65535 19.0437 9.31365 18.7654 8.93055 18.8036C8.54585 18.8419 8.26508 19.1848 8.30343 19.5695L8.99998 19.5001C8.30343 19.5695 8.30347 19.5699 8.30351 19.5703L8.30359 19.5711L8.30378 19.573L8.30425 19.5774L8.30555 19.5889C8.3066 19.5978 8.30801 19.6092 8.30987 19.6228C8.31357 19.6499 8.31905 19.6862 8.32692 19.7304C8.34263 19.8185 8.36807 19.939 8.40836 20.0814C8.48831 20.3638 8.63046 20.7453 8.88148 21.1315C9.40385 21.9354 10.3649 22.7001 12 22.7001C13.6351 22.7001 14.5961 21.9354 15.1185 21.1315C15.3695 20.7453 15.5116 20.3638 15.5916 20.0814C15.6319 19.939 15.6573 19.8185 15.673 19.7304C15.6809 19.6862 15.6864 19.6499 15.6901 19.6228C15.6919 19.6092 15.6934 19.5978 15.6944 19.5889L15.6957 19.5774L15.6962 19.573L15.6964 19.5711L15.6964 19.5703C15.6965 19.5699 15.6965 19.5695 15 19.5001L15.6965 19.5695C15.7349 19.1848 15.4541 18.8419 15.0694 18.8036C14.6863 18.7654 14.3446 19.0437 14.3039 19.4259L14.3029 19.4336C14.3016 19.4431 14.2991 19.4605 14.2948 19.4847C14.2861 19.5333 14.2706 19.608 14.2445 19.7001C14.1918 19.8864 14.0997 20.1299 13.9446 20.3687C13.6547 20.8148 13.1157 21.3001 12 21.3001C10.8843 21.3001 10.3453 20.8148 10.0554 20.3687C9.90025 20.1299 9.80817 19.8864 9.75543 19.7001C9.72938 19.608 9.71386 19.5333 9.70519 19.4847C9.70088 19.4605 9.69832 19.4431 9.69703 19.4336L9.69604 19.4259Z" fill="#222628"/>
</svg>
