<svg width="24" height="24" viewBox="0 0 24 24" fill="none" xmlns="http://www.w3.org/2000/svg">
<path fill-rule="evenodd" clip-rule="evenodd" d="M12 19C17.3739 19 21 17.9032 21 15.1613C21 12.4194 20 12.4194 19.2 11.871C19.2 8.59908 18 2 12 2C6 2 4.8 8.59908 4.8 11.871C4 12.4194 3 13.1419 3 15.1613C3 18.4516 6.6271 19 12 19Z" fill="#222628"/>
<path d="M12 22C13.1732 22 13.906 21.5595 14.3533 21.092C14.803 20.622 14.3698 20 13.7192 20H10.2808C9.6302 20 9.19694 20.622 9.6467 21.092C10.094 21.5595 10.8268 22 12 22Z" fill="#222628"/>
<path fill-rule="evenodd" clip-rule="evenodd" d="M12 0.300049C12.3866 0.300049 12.7 0.613449 12.7 1.00005V2.00005C12.7 2.38665 12.3866 2.70005 12 2.70005C11.6134 2.70005 11.3 2.38665 11.3 2.00005V1.00005C11.3 0.613449 11.6134 0.300049 12 0.300049Z" fill="#222628"/>
</svg>
