<svg width="24" height="24" viewBox="0 0 24 24" fill="none" xmlns="http://www.w3.org/2000/svg">
<path fill-rule="evenodd" clip-rule="evenodd" d="M2.05826 9.7C2 10.5395 2 11.5927 2 13C2 15.7956 2 17.1935 2.45672 18.2961C3.06569 19.7663 4.23373 20.9343 5.7039 21.5433C6.80653 22 8.20435 22 11 22H13C13.899 22 14.6534 22 15.3 21.9848V21.9743V21.9743C15.3 21.0642 15.3 20.3454 15.3397 19.7637C15.3802 19.1703 15.4643 18.6684 15.6578 18.2014C16.1348 17.0498 17.0498 16.1348 18.2014 15.6578C18.6684 15.4643 19.1703 15.3802 19.7637 15.3397C20.3454 15.3 21.0642 15.3 21.9743 15.3H21.9848C22 14.6534 22 13.899 22 13C22 11.5927 22 10.5395 21.9417 9.7H2.05826ZM2.26045 8.3H21.7396C21.6859 8.08904 21.6213 7.89216 21.5433 7.7039C20.9343 6.23373 19.7663 5.06569 18.2961 4.45672C17.1935 4 15.7956 4 13 4H11C8.20435 4 6.80653 4 5.7039 4.45672C4.23373 5.06569 3.06569 6.23373 2.45672 7.7039C2.37874 7.89216 2.31407 8.08904 2.26045 8.3ZM18.2961 21.5433C17.8404 21.732 17.3343 21.8428 16.7 21.9077C16.7001 21.0144 16.7016 20.3701 16.7364 19.859C16.7721 19.3368 16.8402 19.0052 16.9512 18.7371C17.2861 17.9286 17.9286 17.2861 18.7371 16.9512C19.0052 16.8402 19.3368 16.7721 19.859 16.7364C20.3701 16.7016 21.0144 16.7001 21.9077 16.7C21.8428 17.3343 21.732 17.8404 21.5433 18.2961C20.9343 19.7663 19.7663 20.9343 18.2961 21.5433ZM6 12.3C5.6134 12.3 5.3 12.6134 5.3 13C5.3 13.3866 5.6134 13.7 6 13.7H6.5C6.8866 13.7 7.2 13.3866 7.2 13C7.2 12.6134 6.8866 12.3 6.5 12.3H6ZM10.8 13C10.8 12.6134 11.1134 12.3 11.5 12.3H12C12.3866 12.3 12.7 12.6134 12.7 13C12.7 13.3866 12.3866 13.7 12 13.7H11.5C11.1134 13.7 10.8 13.3866 10.8 13ZM17 12.3C16.6134 12.3 16.3 12.6134 16.3 13C16.3 13.3866 16.6134 13.7 17 13.7H17.5C17.8866 13.7 18.2 13.3866 18.2 13C18.2 12.6134 17.8866 12.3 17.5 12.3H17ZM5.3 18C5.3 17.6134 5.6134 17.3 6 17.3H6.5C6.8866 17.3 7.2 17.6134 7.2 18C7.2 18.3866 6.8866 18.7 6.5 18.7H6C5.6134 18.7 5.3 18.3866 5.3 18ZM11.5 17.3C11.1134 17.3 10.8 17.6134 10.8 18C10.8 18.3866 11.1134 18.7 11.5 18.7H12C12.3866 18.7 12.7 18.3866 12.7 18C12.7 17.6134 12.3866 17.3 12 17.3H11.5Z" fill="#222628"/>
<path fill-rule="evenodd" clip-rule="evenodd" d="M16.7 2C17.0866 2 17.4 2.3134 17.4 2.7V5.3C17.4 5.6866 17.0866 6 16.7 6C16.3134 6 16 5.6866 16 5.3V2.7C16 2.3134 16.3134 2 16.7 2Z" fill="#222628"/>
<path fill-rule="evenodd" clip-rule="evenodd" d="M7.70002 2C8.08662 2 8.40002 2.3134 8.40002 2.7V5.3C8.40002 5.6866 8.08662 6 7.70002 6C7.31343 6 7.00002 5.6866 7.00002 5.3V2.7C7.00002 2.3134 7.31343 2 7.70002 2Z" fill="#222628"/>
</svg>
