<svg width="24" height="24" viewBox="0 0 24 24" fill="none" xmlns="http://www.w3.org/2000/svg">
<path fill-rule="evenodd" clip-rule="evenodd" d="M16.7 2C17.0866 2 17.4 2.3134 17.4 2.7V5.3C17.4 5.6866 17.0866 6 16.7 6C16.3134 6 16 5.6866 16 5.3V2.7C16 2.3134 16.3134 2 16.7 2Z" fill="#222628"/>
<path fill-rule="evenodd" clip-rule="evenodd" d="M7.69999 2C8.08659 2 8.39999 2.3134 8.39999 2.7V5.3C8.39999 5.6866 8.08659 6 7.69999 6C7.31339 6 6.99999 5.6866 6.99999 5.3V2.7C6.99999 2.3134 7.31339 2 7.69999 2Z" fill="#222628"/>
<path fill-rule="evenodd" clip-rule="evenodd" d="M2.45672 7.7039C2 8.80653 2 10.2044 2 13C2 15.7956 2 17.1935 2.45672 18.2961C3.06569 19.7663 4.23373 20.9343 5.7039 21.5433C6.80653 22 8.20435 22 11 22H13C15.7956 22 17.1935 22 18.2961 21.5433C19.7663 20.9343 20.9343 19.7663 21.5433 18.2961C22 17.1935 22 15.7956 22 13C22 10.2044 22 8.80653 21.5433 7.7039C20.9343 6.23373 19.7663 5.06569 18.2961 4.45672C17.1935 4 15.7956 4 13 4H11C8.20435 4 6.80653 4 5.7039 4.45672C4.23373 5.06569 3.06569 6.23373 2.45672 7.7039ZM12 10.7C12.3866 10.7 12.7 10.3866 12.7 10C12.7 9.61345 12.3866 9.30005 12 9.30005C11.6134 9.30005 11.3 9.61345 11.3 10C11.3 10.3866 11.6134 10.7 12 10.7ZM17.7 10C17.7 10.3866 17.3866 10.7 17 10.7C16.6134 10.7 16.3 10.3866 16.3 10C16.3 9.61345 16.6134 9.30005 17 9.30005C17.3866 9.30005 17.7 9.61345 17.7 10ZM7.00005 10.7C7.38665 10.7 7.70005 10.3866 7.70005 10C7.70005 9.61345 7.38665 9.30005 7.00005 9.30005C6.61345 9.30005 6.30005 9.61345 6.30005 10C6.30005 10.3866 6.61345 10.7 7.00005 10.7ZM12.7 14C12.7 14.3866 12.3866 14.7 12 14.7C11.6134 14.7 11.3 14.3866 11.3 14C11.3 13.6134 11.6134 13.3 12 13.3C12.3866 13.3 12.7 13.6134 12.7 14ZM7.00005 14.7C7.38665 14.7 7.70005 14.3866 7.70005 14C7.70005 13.6134 7.38665 13.3 7.00005 13.3C6.61345 13.3 6.30005 13.6134 6.30005 14C6.30005 14.3866 6.61345 14.7 7.00005 14.7ZM17.7 14C17.7 14.3866 17.3866 14.7 17 14.7C16.6134 14.7 16.3 14.3866 16.3 14C16.3 13.6134 16.6134 13.3 17 13.3C17.3866 13.3 17.7 13.6134 17.7 14ZM17 18.7C17.3866 18.7 17.7 18.3866 17.7 18C17.7 17.6134 17.3866 17.3 17 17.3C16.6134 17.3 16.3 17.6134 16.3 18C16.3 18.3866 16.6134 18.7 17 18.7ZM12.7 18C12.7 18.3866 12.3866 18.7 12 18.7C11.6134 18.7 11.3 18.3866 11.3 18C11.3 17.6134 11.6134 17.3 12 17.3C12.3866 17.3 12.7 17.6134 12.7 18ZM7.00005 18.7C7.38665 18.7 7.70005 18.3866 7.70005 18C7.70005 17.6134 7.38665 17.3 7.00005 17.3C6.61345 17.3 6.30005 17.6134 6.30005 18C6.30005 18.3866 6.61345 18.7 7.00005 18.7Z" fill="#222628"/>
</svg>
