<svg width="24" height="24" viewBox="0 0 24 24" fill="none" xmlns="http://www.w3.org/2000/svg">
<path d="M9.64243 7.33776C9.15045 8.07649 8.00242 9.13638 8.01736 10C8.02188 10.2612 8.28954 10.6585 8.54434 10.9786C8.77803 11.2723 8.75892 11.7066 8.474 11.9509L5.86948 14.1833C5.66382 14.3596 5.35608 14.3399 5.18148 14.1328C4.83868 13.7263 4.30211 13.055 4.00006 12.5C2.96144 10.5916 2.50005 9 3.01736 7.01385C3.53467 5.0277 5.51737 3 6.32895 3C7.08188 3 9.4418 5.03844 9.77899 6.64692C9.82922 6.88649 9.77811 7.13403 9.64243 7.33776Z" fill="#222628"/>
<path d="M15.2386 21.0191C13.79 20.971 11.9729 20.5751 9.05603 18.4216C8.68375 18.1468 8.33875 17.8329 8.01736 17.5L11.0001 14.5C12.0001 15.5 13.4769 16.5 14.0174 16.5C14.7048 16.5 15.0502 14.8421 16.8863 14.8421C18.2633 14.8421 20.0174 16.3421 20.5174 18C20.8041 18.9506 19.6813 19.8088 18.4222 20.4062C17.4351 20.8747 16.3307 21.0554 15.2386 21.0191Z" fill="#222628"/>
<path fill-rule="evenodd" clip-rule="evenodd" d="M19.4788 6.51056C19.7432 6.7926 19.7289 7.23559 19.4469 7.5L4.46825 21.5425C4.18621 21.8069 3.74323 21.7926 3.47881 21.5106C3.2144 21.2285 3.22869 20.7855 3.51073 20.5211L18.4894 6.47865C18.7714 6.21424 19.2144 6.22853 19.4788 6.51056Z" fill="#222628"/>
</svg>
