<svg width="24" height="24" viewBox="0 0 24 24" fill="none" xmlns="http://www.w3.org/2000/svg">
<path d="M9.6257 7.33815C9.13688 8.07738 7.99997 9.13887 7.99997 10C7.99997 10.9972 9.06261 13.0054 10.4427 14.3684C11.8227 15.7315 12.9903 16.5 14 16.5C14.6874 16.5 15.0328 14.8421 16.8689 14.8421C18.2459 14.8421 20 16.3421 20.5 18C20.7867 18.9506 19.6639 19.8088 18.4048 20.4062C17.4177 20.8747 16.311 21.0432 15.2234 20.9385C13.2369 20.7474 10.4046 19.9623 6.99998 16.7368C3.09846 12.5 2.90148 9.72438 2.99997 7.01385C3.09847 4.30332 5.49998 3 6.31156 3C7.06449 3 9.42441 5.03844 9.7616 6.64692C9.81183 6.88649 9.76071 7.13397 9.6257 7.33815Z" fill="#222628"/>
<path fill-rule="evenodd" clip-rule="evenodd" d="M14.0947 6.69857C14.1004 6.69796 14.1113 6.69701 14.1288 6.69577C14.1637 6.69327 14.2207 6.69044 14.2961 6.69086C14.4473 6.69169 14.6692 6.70557 14.9333 6.75979C15.4584 6.86757 16.1489 7.13383 16.7964 7.78132C17.4439 8.42882 17.7101 9.11935 17.8179 9.6444C17.8722 9.90852 17.886 10.1304 17.8869 10.2817C17.8873 10.357 17.8844 10.414 17.882 10.4489C17.8807 10.4664 17.8796 10.4782 17.8789 10.484C17.879 10.4836 17.8792 10.4824 18.5727 10.5777L17.8792 10.4824C17.879 10.4841 17.8788 10.4857 17.8786 10.4873C17.8786 10.4873 17.8786 10.4873 17.8786 10.4873C17.8289 10.8684 18.096 11.2188 18.4774 11.2712C18.8604 11.3239 19.2135 11.0561 19.2662 10.6731L18.5969 10.5811C19.2662 10.673 19.2661 10.6734 19.2662 10.6731L19.2666 10.6701L19.2671 10.6665L19.2682 10.6573L19.2712 10.6311C19.2734 10.6102 19.276 10.5826 19.2784 10.5487C19.2832 10.481 19.2875 10.3881 19.2868 10.2739C19.2856 10.0462 19.2649 9.73106 19.1893 9.36287C19.0375 8.62329 18.6631 7.66812 17.7863 6.79137C16.9096 5.91463 15.9544 5.54021 15.2149 5.38839C14.8467 5.3128 14.5315 5.29214 14.3038 5.29088C14.1897 5.29025 14.0967 5.29449 14.029 5.29933C13.9951 5.30175 13.9675 5.30432 13.9466 5.30653L13.9204 5.3095L13.9112 5.31065L13.9076 5.31113L13.9061 5.31134C13.9057 5.31138 13.9047 5.31153 14 6.00501L13.9047 5.31153C13.5217 5.36417 13.2539 5.71733 13.3065 6.10033C13.3589 6.48168 13.7093 6.74883 14.0904 6.69914" fill="#222628"/>
<path fill-rule="evenodd" clip-rule="evenodd" d="M14.0383 2.70387C13.6537 2.72498 13.3241 2.43129 13.3012 2.04645C13.2783 1.66053 13.5725 1.32909 13.9584 1.30615L14 2.00492C13.9584 1.30615 13.9581 1.30617 13.9584 1.30615L13.9599 1.30606L13.9617 1.30596L13.966 1.30573L13.9777 1.30518C13.9869 1.30478 13.9988 1.30433 14.0134 1.30393C14.0426 1.30314 14.0824 1.30254 14.1321 1.30289C14.2314 1.3036 14.3705 1.30814 14.5433 1.32265C14.8887 1.35164 15.3705 1.42059 15.9393 1.57933C17.0799 1.89763 18.5661 2.57602 19.995 4.00493C21.4239 5.43387 22.1013 6.9191 22.4185 8.05891C22.5767 8.62734 22.6451 9.10869 22.6737 9.45376C22.688 9.62642 22.6923 9.76542 22.6929 9.8647C22.6932 9.91436 22.6925 9.95415 22.6917 9.98331C22.6913 9.99789 22.6908 10.0098 22.6904 10.019L22.6898 10.0307L22.6896 10.035L22.6895 10.0368C22.6895 10.0371 22.6894 10.0383 21.9907 9.99563L22.6894 10.0383C22.6658 10.4242 22.3339 10.7179 21.948 10.6943C21.5633 10.6708 21.2701 10.3407 21.2918 9.95626L21.2923 9.94303C21.2927 9.9294 21.2931 9.90574 21.2929 9.87276C21.2925 9.80675 21.2896 9.70368 21.2785 9.5692C21.2562 9.30002 21.2013 8.90685 21.0698 8.4343C20.8076 7.49214 20.2396 6.22951 19.005 4.99488C17.7703 3.76021 16.5065 3.19112 15.563 2.92781C15.0898 2.79575 14.6959 2.74038 14.4262 2.71774C14.2915 2.70643 14.1882 2.70333 14.122 2.70286C14.089 2.70262 14.0652 2.70304 14.0516 2.70341L14.0383 2.70387ZM14.0383 2.70387C14.0383 2.70387 14.0383 2.70387 14.0383 2.70387V2.70387Z" fill="#222628"/>
</svg>
