<svg width="24" height="24" viewBox="0 0 24 24" fill="none" xmlns="http://www.w3.org/2000/svg">
<path fill-rule="evenodd" clip-rule="evenodd" d="M3 10.1878C3 7.80287 4.93341 5.86946 7.3184 5.86946C7.75637 5.86946 8.17799 5.70309 8.49794 5.40402L8.8 5.12167C9.13007 4.81315 9.29511 4.65889 9.47502 4.53421C9.85506 4.27084 10.2908 4.09889 10.7483 4.03177C10.9649 4 11.1908 4 11.6426 4H12H12.3574C12.8092 4 13.0351 4 13.2517 4.03177C13.7092 4.09889 14.1449 4.27084 14.525 4.53421C14.7049 4.65888 14.8699 4.81314 15.2 5.12164L15.2 5.12167L15.2 5.12168L15.5021 5.40402C15.822 5.70309 16.2436 5.86946 16.6816 5.86946C19.0666 5.86946 21 7.80287 21 10.1879V13.9975C21 16.3345 21 17.503 20.5268 18.3873C20.1541 19.0837 19.5837 19.6541 18.8873 20.0268C18.003 20.5 16.8345 20.5 14.4975 20.5H9.50246C7.1655 20.5 5.99702 20.5 5.11271 20.0268C4.41634 19.6541 3.84588 19.0837 3.47323 18.3873C3 17.503 3 16.3345 3 13.9975V10.1878ZM12 11.7C10.7297 11.7 9.7 12.7297 9.7 14C9.7 15.2703 10.7297 16.3 12 16.3C13.2703 16.3 14.3 15.2703 14.3 14C14.3 12.7297 13.2703 11.7 12 11.7ZM8.3 14C8.3 11.9565 9.95655 10.3 12 10.3C14.0435 10.3 15.7 11.9565 15.7 14C15.7 16.0435 14.0435 17.7 12 17.7C9.95655 17.7 8.3 16.0435 8.3 14ZM16 8.3C15.6134 8.3 15.3 8.6134 15.3 9C15.3 9.3866 15.6134 9.7 16 9.7H17C17.3866 9.7 17.7 9.3866 17.7 9C17.7 8.6134 17.3866 8.3 17 8.3H16Z" fill="#222628"/>
</svg>
