<svg width="24" height="24" viewBox="0 0 24 24" fill="none" xmlns="http://www.w3.org/2000/svg">
<path fill-rule="evenodd" clip-rule="evenodd" d="M2 11.2C2 10.9206 2 10.6542 2.00062 10.4H21.9994C22 10.6542 22 10.9206 22 11.2V12.8C22 15.7998 22 17.2997 21.2361 18.3511C20.9893 18.6907 20.6907 18.9893 20.3511 19.2361C19.2997 20 17.7998 20 14.8 20H9.2C6.20021 20 4.70032 20 3.64886 19.2361C3.30928 18.9893 3.01065 18.6907 2.76393 18.3511C2 17.2997 2 15.7998 2 12.8V11.2ZM21.983 9H2.01704C2.06052 7.39139 2.21502 6.40437 2.76393 5.64886C3.01065 5.30928 3.30928 5.01065 3.64886 4.76393C4.70032 4 6.20021 4 9.2 4H14.8C17.7998 4 19.2997 4 20.3511 4.76393C20.6907 5.01065 20.9893 5.30928 21.2361 5.64886C21.785 6.40437 21.9395 7.39139 21.983 9ZM19.3 17.4C19.6866 17.4 20 17.0866 20 16.7C20 16.3134 19.6866 16 19.3 16H16.7C16.3134 16 16 16.3134 16 16.7C16 17.0866 16.3134 17.4 16.7 17.4H19.3Z" fill="#222628"/>
</svg>
