<svg width="23" height="23" viewBox="0 0 23 23" fill="none" xmlns="http://www.w3.org/2000/svg">
<path fill-rule="evenodd" clip-rule="evenodd" d="M1.5 4C1.5 3.72386 1.72386 3.5 2 3.5H3.93381C4.4607 3.5 4.94896 3.77645 5.22005 4.22826L6.42875 6.24275L5.57125 6.75725L4.36256 4.74275C4.27219 4.59215 4.10944 4.5 3.93381 4.5H2C1.72386 4.5 1.5 4.27614 1.5 4Z" fill="#222628"/>
<path d="M18.5 19.5C18.5 20.0523 18.0523 20.5 17.5 20.5C16.9477 20.5 16.5 20.0523 16.5 19.5C16.5 18.9477 16.9477 18.5 17.5 18.5C18.0523 18.5 18.5 18.9477 18.5 19.5Z" fill="#222628"/>
<path d="M11.5 19.5C11.5 20.0523 11.0523 20.5 10.5 20.5C9.94771 20.5 9.5 20.0523 9.5 19.5C9.5 18.9477 9.94771 18.5 10.5 18.5C11.0523 18.5 11.5 18.9477 11.5 19.5Z" fill="#222628"/>
<path fill-rule="evenodd" clip-rule="evenodd" d="M15.6 6H5.5L6.28836 12.2733C6.53854 14.2642 6.66364 15.2596 7.24086 15.9403C7.4282 16.1612 7.64655 16.3538 7.88911 16.5122C8.63646 17 9.63971 17 11.6462 17H15.6C17.8498 17 18.9748 17 19.7634 16.4271C20.018 16.242 20.242 16.018 20.4271 15.7634C21 14.9748 21 13.8498 21 11.6V11.4C21 9.15016 21 8.02524 20.4271 7.23664C20.242 6.98196 20.018 6.75799 19.7634 6.57295C18.9748 6 17.8498 6 15.6 6ZM17.5 11C17.7761 11 18 10.7761 18 10.5C18 10.2239 17.7761 10 17.5 10H14.5C14.2239 10 14 10.2239 14 10.5C14 10.7761 14.2239 11 14.5 11H17.5Z" fill="#222628"/>
</svg>
