<svg width="24" height="24" viewBox="0 0 24 24" fill="none" xmlns="http://www.w3.org/2000/svg">
<path fill-rule="evenodd" clip-rule="evenodd" d="M15 21C17.7614 21 20 18.7614 20 16V11L19.9644 10.5013C19.7027 6.83813 16.6546 4 12.9822 4H11.0178C7.34536 4 4.29728 6.83813 4.03562 10.5013L4 11V16C4 18.7614 6.23858 21 9 21L15 21ZM14.6334 9.99773C14.6334 9.99806 14.6334 9.9984 14.6334 9.99874L14.633 10.0133C14.6324 10.0291 14.6313 10.0554 14.6287 10.0908C14.6236 10.162 14.6129 10.2682 14.5911 10.3976C14.5468 10.6596 14.4596 10.9984 14.2922 11.3288C14.1263 11.6564 13.888 11.964 13.5423 12.1915C13.2006 12.4163 12.7127 12.5903 12 12.5903C11.2873 12.5903 10.7995 12.4163 10.4578 12.1915C10.1121 11.964 9.87375 11.6564 9.70783 11.3288C9.54043 10.9984 9.45325 10.6596 9.40901 10.3976C9.38717 10.2682 9.37653 10.162 9.37138 10.0909C9.36882 10.0554 9.36764 10.0291 9.36711 10.0133L9.36671 9.998C9.3651 9.61276 9.0523 9.3 8.66669 9.3C8.28009 9.3 7.96669 9.6134 7.9667 10L8.6667 10C7.9667 10 7.9667 9.99963 7.9667 10L7.9667 10.0015L7.9667 10.0034L7.96673 10.008L7.96689 10.0209C7.96706 10.031 7.96736 10.0443 7.96791 10.0606C7.96901 10.093 7.97109 10.1374 7.97503 10.1919C7.98291 10.3007 7.99831 10.4515 8.02855 10.6307C8.08849 10.9856 8.20965 11.4694 8.45892 11.9615C8.70967 12.4565 9.09632 12.9715 9.68816 13.361C10.2839 13.753 11.0461 13.9903 12 13.9903C12.954 13.9903 13.7161 13.753 14.3119 13.361C14.9037 12.9715 15.2904 12.4565 15.5412 11.9615C15.7904 11.4694 15.9116 10.9856 15.9715 10.6307C16.0018 10.4516 16.0172 10.3007 16.025 10.1919C16.029 10.1374 16.0311 10.093 16.0322 10.0606C16.0327 10.0443 16.033 10.031 16.0332 10.0209L16.0333 10.008L16.0334 10.0034L16.0334 10.0015C16.0334 10.0012 16.0334 10 15.3334 10L16.0334 10C16.0334 9.61341 15.72 9.3 15.3334 9.3C14.9478 9.29999 14.635 9.61252 14.6334 9.99773C14.6334 9.99798 14.6334 9.99747 14.6334 9.99773ZM14.6334 9.99874C14.6334 9.99854 14.6334 9.99893 14.6334 9.99874V9.99874Z" fill="#222628"/>
</svg>
