<svg width="24" height="24" viewBox="0 0 24 24" fill="none" xmlns="http://www.w3.org/2000/svg">
<path fill-rule="evenodd" clip-rule="evenodd" d="M2.80385 5C2 6.3923 2 8.26154 2 12C2 15.7385 2 17.6077 2.80385 19C3.33046 19.9121 4.08788 20.6695 5 21.1962C6.3923 22 8.26154 22 12 22C15.7385 22 17.6077 22 19 21.1962C19.9121 20.6695 20.6695 19.9121 21.1962 19C22 17.6077 22 15.7385 22 12C22 8.26154 22 6.3923 21.1962 5C20.6695 4.08788 19.9121 3.33046 19 2.80385C17.6077 2 15.7385 2 12 2C8.26154 2 6.3923 2 5 2.80385C4.08788 3.33046 3.33046 4.08788 2.80385 5ZM7.5 16C7.5 16.2761 7.72386 16.5 8 16.5C8.27614 16.5 8.5 16.2761 8.5 16V13C8.5 12.7239 8.27614 12.5 8 12.5C7.72386 12.5 7.5 12.7239 7.5 13V16ZM12 16.5C11.7239 16.5 11.5 16.2761 11.5 16V7C11.5 6.72386 11.7239 6.5 12 6.5C12.2761 6.5 12.5 6.72386 12.5 7V16C12.5 16.2761 12.2761 16.5 12 16.5ZM15.5 16C15.5 16.2761 15.7239 16.5 16 16.5C16.2761 16.5 16.5 16.2761 16.5 16V10C16.5 9.72386 16.2761 9.5 16 9.5C15.7239 9.5 15.5 9.72386 15.5 10V16Z" fill="#222628"/>
</svg>
