<svg width="24" height="24" viewBox="0 0 24 24" fill="none" xmlns="http://www.w3.org/2000/svg">
<path fill-rule="evenodd" clip-rule="evenodd" d="M10.339 3H14.3806C18.0364 3 21 5.96359 21 9.61936L21 13.45C21 17.1227 18.0227 20.1 14.35 20.1H11.025L7.7373 20.0441C6.3877 20.0212 5.04148 20.1865 3.73752 20.5352L3.27189 20.6598C2.72654 20.8057 2.23783 20.2865 2.41634 19.751C2.80256 18.5923 2.98624 17.3758 2.95934 16.1548L2.83484 10.5042C2.83484 6.35974 6.19458 3 10.339 3ZM8 13C8.55228 13 9 12.5523 9 12C9 11.4477 8.55228 11 8 11C7.44772 11 7 11.4477 7 12C7 12.5523 7.44772 13 8 13ZM13 12C13 12.5523 12.5523 13 12 13C11.4477 13 11 12.5523 11 12C11 11.4477 11.4477 11 12 11C12.5523 11 13 11.4477 13 12ZM16 13C16.5523 13 17 12.5523 17 12C17 11.4477 16.5523 11 16 11C15.4477 11 15 11.4477 15 12C15 12.5523 15.4477 13 16 13Z" fill="#222628"/>
</svg>
