<svg width="24" height="24" viewBox="0 0 24 24" fill="none" xmlns="http://www.w3.org/2000/svg">
<path fill-rule="evenodd" clip-rule="evenodd" d="M3 11C3 7.73081 3 6.09621 3.67277 4.86413C4.17807 3.93873 4.93873 3.17807 5.86413 2.67277C7.09621 2 8.73081 2 12 2C15.2692 2 16.9038 2 18.1359 2.67277C19.0613 3.17807 19.8219 3.93873 20.3272 4.86413C21 6.09621 21 7.73081 21 11V13C21 16.2692 21 17.9038 20.3272 19.1359C19.8219 20.0613 19.0613 20.8219 18.1359 21.3272C16.9038 22 15.2692 22 12 22C8.73081 22 7.09621 22 5.86413 21.3272C4.93873 20.8219 4.17807 20.0613 3.67277 19.1359C3 17.9038 3 16.2692 3 13V11ZM9.48959 7.52096C9.75416 7.23907 10.1971 7.22502 10.479 7.48959C10.7609 7.75416 10.775 8.19715 10.5104 8.47904L10 8L9.48959 7.52096ZM10 8L10.5104 8.47908L10.5103 8.47917L10.51 8.47947L10.5089 8.48062L10.5048 8.48505L10.4888 8.50206L10.4284 8.56617C10.3764 8.6213 10.3021 8.69995 10.2126 8.7943C10.0337 8.98283 9.79339 9.23477 9.54873 9.48719C9.30512 9.73852 9.05296 9.99473 8.85178 10.1899C8.75239 10.2863 8.65783 10.3753 8.57972 10.443C8.54219 10.4755 8.49656 10.5136 8.44968 10.5471C8.42728 10.5631 8.39001 10.5886 8.34377 10.6131L8.34144 10.6143C8.31734 10.6273 8.18242 10.7 8 10.7C7.80621 10.7 7.66307 10.62 7.63084 10.6019L7.62841 10.6006C7.57335 10.57 7.52738 10.5367 7.49644 10.513C7.43254 10.4641 7.36799 10.4061 7.31189 10.3533C7.19652 10.2446 7.06371 10.1071 6.9435 9.97904C6.82141 9.84896 6.7042 9.71983 6.61803 9.62383C6.5748 9.57566 6.53903 9.53545 6.51395 9.50714L6.48469 9.47402L6.47678 9.46503L6.47463 9.46259L6.47403 9.4619L6.47384 9.46169L6.47378 9.46162L7 9L6.47374 9.46157C6.21882 9.17093 6.24778 8.72866 6.53843 8.47374C6.82906 8.21883 7.27132 8.24778 7.52624 8.5384L7.52626 8.53843L7.52629 8.53846L7.52664 8.53886L7.52826 8.54071L7.53507 8.54844L7.5619 8.5788C7.58527 8.60518 7.61899 8.64309 7.6599 8.68867C7.74203 8.78017 7.85177 8.90104 7.96432 9.02096L8.00268 9.06168C8.16491 8.90089 8.35392 8.70836 8.54346 8.51281C8.78343 8.26523 9.02006 8.01717 9.19698 7.8307C9.28536 7.73755 9.35866 7.65995 9.40981 7.60571L9.469 7.54286L9.48445 7.52643L9.48835 7.52228L9.48931 7.52126L9.48953 7.52102L9.48958 7.52096L10 8ZM10 15L10.5104 15.479C10.775 15.1971 10.7609 14.7542 10.479 14.4896C10.1971 14.225 9.75416 14.2391 9.48959 14.521L10 15ZM10 15L10.5104 15.4791L10.5103 15.4792L10.51 15.4795L10.5089 15.4806L10.5048 15.485L10.4888 15.5021L10.4284 15.5662C10.3764 15.6213 10.3021 15.7 10.2126 15.7943C10.0337 15.9828 9.79339 16.2348 9.54873 16.4872C9.30512 16.7385 9.05296 16.9947 8.85178 17.1899C8.75239 17.2863 8.65783 17.3753 8.57972 17.443C8.54219 17.4755 8.49656 17.5136 8.44968 17.5471C8.42728 17.5631 8.39001 17.5886 8.34377 17.6131L8.34144 17.6143C8.31734 17.6273 8.18242 17.7 8 17.7C7.80621 17.7 7.66307 17.62 7.63084 17.6019L7.62841 17.6006C7.57335 17.57 7.52738 17.5367 7.49644 17.513C7.43254 17.4641 7.36799 17.4061 7.31189 17.3533C7.19652 17.2446 7.06371 17.1071 6.9435 16.979C6.82141 16.849 6.7042 16.7198 6.61803 16.6238C6.5748 16.5757 6.53903 16.5354 6.51395 16.5071L6.48469 16.474L6.47678 16.465L6.47463 16.4626L6.47403 16.4619L6.47384 16.4617L6.47378 16.4616L7 16L6.47374 16.4616C6.21882 16.1709 6.24778 15.7287 6.53843 15.4737C6.82906 15.2188 7.27132 15.2478 7.52624 15.5384L7.52626 15.5384L7.52629 15.5385L7.52664 15.5389L7.52826 15.5407L7.53507 15.5484L7.5619 15.5788C7.58527 15.6052 7.61899 15.6431 7.6599 15.6887C7.74203 15.7802 7.85177 15.901 7.96432 16.021L8.00268 16.0617C8.16491 15.9009 8.35392 15.7084 8.54346 15.5128C8.78343 15.2652 9.02006 15.0172 9.19698 14.8307C9.28536 14.7375 9.35866 14.66 9.40981 14.6057L9.469 14.5429L9.48445 14.5264L9.48835 14.5223L9.48931 14.5213L9.48953 14.521L9.48958 14.521L10 15ZM17.7 16.5C17.7 16.8866 17.3866 17.2 17 17.2H13C12.6134 17.2 12.3 16.8866 12.3 16.5C12.3 16.1134 12.6134 15.8 13 15.8H17C17.3866 15.8 17.7 16.1134 17.7 16.5ZM17 10.2C17.3866 10.2 17.7 9.8866 17.7 9.5C17.7 9.1134 17.3866 8.8 17 8.8H13C12.6134 8.8 12.3 9.1134 12.3 9.5C12.3 9.8866 12.6134 10.2 13 10.2H17Z" fill="#222628"/>
</svg>
