<svg width="24" height="24" viewBox="0 0 24 24" fill="none" xmlns="http://www.w3.org/2000/svg">
<path fill-rule="evenodd" clip-rule="evenodd" d="M12 3C7.02944 3 3 7.02944 3 12C3 16.9706 7.02944 21 12 21C16.9706 21 21 16.9706 21 12C21 7.02944 16.9706 3 12 3ZM12.7 8C12.7 7.6134 12.3866 7.3 12 7.3C11.6134 7.3 11.3 7.6134 11.3 8V13C11.3 13.2512 11.4346 13.4831 11.6527 13.6078L15.1527 15.6078C15.4884 15.7996 15.916 15.683 16.1078 15.3473C16.2996 15.0116 16.183 14.584 15.8473 14.3922L12.7 12.5938V8Z" fill="#222628"/>
</svg>
