<svg width="24" height="24" viewBox="0 0 24 24" fill="none" xmlns="http://www.w3.org/2000/svg">
<path fill-rule="evenodd" clip-rule="evenodd" d="M2 12C2 8.26154 2 6.3923 2.80385 5C3.33046 4.08788 4.08788 3.33046 5 2.80385C6.3923 2 8.26154 2 12 2C15.7385 2 17.6077 2 19 2.80385C19.9121 3.33046 20.6695 4.08788 21.1962 5C22 6.3923 22 8.26154 22 12C22 15.7385 22 17.6077 21.1962 19C20.6695 19.9121 19.9121 20.6695 19 21.1962C17.6077 22 15.7385 22 12 22C8.26154 22 6.3923 22 5 21.1962C4.08788 20.6695 3.33046 19.9121 2.80385 19C2 17.6077 2 15.7385 2 12ZM14.995 9.00503C15.2683 9.27839 15.2683 9.72161 14.995 9.99497L12.9899 12L14.995 14.005C15.2683 14.2784 15.2683 14.7216 14.995 14.995C14.7216 15.2683 14.2784 15.2683 14.005 14.995L12 12.9899L9.99497 14.995C9.72161 15.2683 9.27839 15.2683 9.00503 14.995C8.73166 14.7216 8.73166 14.2784 9.00503 14.005L11.0101 12L9.00503 9.99497C8.73166 9.72161 8.73166 9.27839 9.00503 9.00503C9.27839 8.73166 9.72161 8.73166 9.99497 9.00503L12 11.0101L14.005 9.00503C14.2784 8.73166 14.7216 8.73166 14.995 9.00503Z" fill="#222628"/>
</svg>
