<svg width="24" height="24" viewBox="0 0 24 24" fill="none" xmlns="http://www.w3.org/2000/svg">
<path fill-rule="evenodd" clip-rule="evenodd" d="M11.3 22L11.3 17.9954L12.7 17.9954L12.7 22L11.3 22Z" fill="#222628"/>
<path fill-rule="evenodd" clip-rule="evenodd" d="M12 3.5C17.7658 3.5 19 8 19 8.5C19 8.63715 19.2257 8.81191 19.5533 9.06557C20.42 9.73667 22 10.96 22 13.5C22 16.1587 19.6918 17.3748 18.5822 17.8059C18.2011 17.9539 17.7933 18 17.3845 18H12.7L12.7 13C12.7 12.6134 12.3866 12.3 12 12.3C11.6134 12.3 11.3 12.6134 11.3 13L11.3 18H8H6.61553C6.20672 18 5.79889 17.9539 5.41781 17.8058C4.30821 17.3748 2.00003 16.1587 2 13.5C1.99998 10.96 3.57995 9.73667 4.44669 9.06556C4.77429 8.81191 5 8.63715 5 8.5C5 8 6.23419 3.5 12 3.5Z" fill="#222628"/>
<path fill-rule="evenodd" clip-rule="evenodd" d="M11.5757 22.5756C11.3414 22.3413 11.3414 21.9614 11.5757 21.7271L13.7272 19.5756C13.9615 19.3413 14.3414 19.3413 14.5757 19.5756C14.8101 19.8099 14.8101 20.1898 14.5757 20.4242L12.4243 22.5756C12.19 22.8099 11.8101 22.8099 11.5757 22.5756Z" fill="#222628"/>
<path fill-rule="evenodd" clip-rule="evenodd" d="M12.4243 22.5756C12.6586 22.3413 12.6586 21.9614 12.4243 21.7271L10.2728 19.5756C10.0385 19.3413 9.65858 19.3413 9.42426 19.5756C9.18995 19.8099 9.18995 20.1898 9.42426 20.4242L11.5757 22.5756C11.81 22.8099 12.1899 22.8099 12.4243 22.5756Z" fill="#222628"/>
</svg>
