<svg width="24" height="24" viewBox="0 0 24 24" fill="none" xmlns="http://www.w3.org/2000/svg">
<path fill-rule="evenodd" clip-rule="evenodd" d="M12 3.5C17.7658 3.5 19 8 19 8.5C19 8.63715 19.2257 8.81191 19.5533 9.06557C20.42 9.73667 22 10.96 22 13.5C22 16.1587 19.6918 17.3748 18.5822 17.8059C18.2011 17.9539 17.7933 18 17.3845 18H12.1163L13.1002 16.3601C13.2991 16.0286 13.1917 15.5987 12.8601 15.3998C12.5286 15.2009 12.0987 15.3083 11.8998 15.6399L10.4837 18H8H6.61553C6.20672 18 5.79889 17.9539 5.41781 17.8058C4.30821 17.3748 2.00003 16.1587 2 13.5C1.99998 10.96 3.57995 9.73667 4.44669 9.06556C4.77429 8.81191 5 8.63715 5 8.5C5 8 6.23419 3.5 12 3.5Z" fill="#222628"/>
<path fill-rule="evenodd" clip-rule="evenodd" d="M14.1309 18.1967C14.0144 17.9542 13.7691 17.7999 13.5 17.7999L11 17.7999C10.6134 17.7999 10.3 18.1133 10.3 18.4999C10.3 18.8865 10.6134 19.1999 11 19.1999L12.0436 19.1999L10.9534 20.5626C10.7119 20.8645 10.7608 21.305 11.0627 21.5465C11.3646 21.788 11.8051 21.7391 12.0466 21.4372L14.0466 18.9372C14.2147 18.7271 14.2475 18.4392 14.1309 18.1967Z" fill="#222628"/>
</svg>
