<svg width="24" height="24" viewBox="0 0 24 24" fill="none" xmlns="http://www.w3.org/2000/svg">
<path fill-rule="evenodd" clip-rule="evenodd" d="M12 21.7C11.6134 21.7 11.3 21.3866 11.3 21V17.9944H12.7V21C12.7 21.3866 12.3866 21.7 12 21.7Z" fill="#222628"/>
<path fill-rule="evenodd" clip-rule="evenodd" d="M13.6565 16.495L12.7 15.5385L12.7 18L17.3845 18C17.7933 18 18.2011 17.9539 18.5822 17.8059C19.6918 17.3748 22 16.1587 22 13.5C22 10.96 20.42 9.73667 19.5533 9.06557C19.2257 8.81191 19 8.63715 19 8.5C19 8 17.7658 3.5 12 3.5C6.23419 3.5 5 8 5 8.5C5 8.63715 4.77429 8.81191 4.44669 9.06556C3.57995 9.73667 1.99998 10.96 2 13.5C2.00003 16.1587 4.30821 17.3748 5.41781 17.8058C5.79889 17.9539 6.20672 18 6.61553 18L8 18L11.3 18L11.3 15.5385L10.3435 16.495C10.0701 16.7684 9.6269 16.7684 9.35354 16.495C9.08017 16.2216 9.08017 15.7784 9.35354 15.5051L11.1515 13.7071C11.6201 13.2385 12.3799 13.2385 12.8485 13.7071L14.6464 15.5051C14.9198 15.7784 14.9198 16.2216 14.6464 16.495C14.3731 16.7684 13.9298 16.7684 13.6565 16.495Z" fill="#222628"/>
</svg>
