<svg width="24" height="24" viewBox="0 0 24 24" fill="none" xmlns="http://www.w3.org/2000/svg">
<path fill-rule="evenodd" clip-rule="evenodd" d="M13.0085 2.81877C12.4208 2.34166 11.5792 2.34166 10.9915 2.81877L9.2699 4.21649C9.0287 4.41232 8.7357 4.53368 8.42667 4.56577L6.22097 4.7948C5.46805 4.87298 4.87294 5.46808 4.79477 6.221L4.56574 8.4267C4.53365 8.73573 4.41229 9.02873 4.21646 9.26993L2.81874 10.9915C2.34163 11.5792 2.34163 12.4208 2.81874 13.0085L4.21646 14.7301C4.41229 14.9713 4.53365 15.2643 4.56574 15.5733L4.79477 17.779C4.87294 18.532 5.46805 19.1271 6.22097 19.2052L8.42667 19.4343C8.7357 19.4664 9.0287 19.5877 9.2699 19.7836L10.9915 21.1813C11.5792 21.6584 12.4208 21.6584 13.0085 21.1813L14.7301 19.7836C14.9713 19.5877 15.2643 19.4664 15.5733 19.4343L17.779 19.2052C18.5319 19.1271 19.127 18.532 19.2052 17.779L19.4342 15.5733C19.4663 15.2643 19.5877 14.9713 19.7835 14.7301L21.1812 13.0085C21.6584 12.4208 21.6584 11.5792 21.1812 10.9915L19.7835 9.26993C19.5877 9.02873 19.4663 8.73573 19.4342 8.4267L19.2052 6.221C19.127 5.46808 18.5319 4.87298 17.779 4.7948L15.5733 4.56577C15.2643 4.53368 14.9713 4.41232 14.7301 4.21649L13.0085 2.81877ZM15.5797 9.39245C15.7964 9.07231 15.7126 8.63709 15.3924 8.42036C15.0723 8.20363 14.6371 8.28746 14.4203 8.6076L15 9.00002L14.4203 8.60764L14.4202 8.60781L14.4197 8.60852L14.4177 8.61143L14.4099 8.62306L14.3789 8.6687L14.2608 8.8425C14.1588 8.99236 14.0127 9.20657 13.8365 9.46366C13.4839 9.97805 13.0115 10.6632 12.5308 11.3478C12.0492 12.0337 11.5632 12.7136 11.1823 13.2198C11.0876 13.3456 11.0012 13.4584 10.9241 13.5565C10.7673 13.4026 10.5883 13.216 10.4087 13.0231C10.1813 12.7789 9.96146 12.5336 9.79786 12.3487C9.71622 12.2564 9.64898 12.1796 9.60228 12.126L9.54849 12.0641L9.53464 12.0481L9.53123 12.0442L9.53044 12.0433L9.53028 12.0431L9.53027 12.0431L9.53026 12.0431L9.53025 12.0431C9.27788 11.7502 8.8359 11.7174 8.54304 11.9697C8.25018 12.2221 8.21735 12.6641 8.46971 12.957L8.99999 12.5L8.46977 12.957L8.46986 12.9571L8.47017 12.9575L8.47125 12.9588L8.47525 12.9634L8.49034 12.9808L8.54689 13.0459C8.59552 13.1017 8.66508 13.1811 8.74934 13.2764C8.91753 13.4665 9.1458 13.7212 9.38391 13.977C9.61996 14.2306 9.87434 14.4946 10.0926 14.6988C10.2002 14.7994 10.3124 14.8981 10.4171 14.9759C10.4687 15.0143 10.5336 15.0589 10.6058 15.0969C10.6564 15.1236 10.8054 15.2 11 15.2C11.1399 15.2 11.2465 15.1593 11.2986 15.1362C11.357 15.1104 11.4026 15.0815 11.432 15.0613C11.4905 15.0212 11.539 14.9776 11.5723 14.9461C11.6414 14.8805 11.7143 14.7995 11.7838 14.718C11.9263 14.551 12.1046 14.3225 12.301 14.0615C12.6961 13.5364 13.1928 12.8413 13.6766 12.1523C14.1614 11.4618 14.637 10.772 14.9913 10.2551C15.1685 9.9966 15.3154 9.78112 15.4182 9.6302L15.5373 9.45488L15.5687 9.40854L15.5768 9.39659L15.5789 9.39353L15.5795 9.39274L15.5796 9.39253L15 9.00002L15.5797 9.39245Z" fill="#222628"/>
</svg>
