<svg width="24" height="24" viewBox="0 0 24 24" fill="none" xmlns="http://www.w3.org/2000/svg">
<path d="M5 10.5C5 9.10603 5 8.40905 5.11529 7.82946C5.58873 5.44931 7.44931 3.58873 9.82946 3.11529C10.4091 3 11.106 3 12.5 3H13.5C14.894 3 15.5909 3 16.1705 3.11529C18.5507 3.58873 20.4113 5.44931 20.8847 7.82946C21 8.40905 21 9.10603 21 10.5C21 11.894 21 12.5909 20.8847 13.1705C20.4113 15.5507 18.5507 17.4113 16.1705 17.8847C15.5909 18 14.894 18 13.5 18H12.5C11.106 18 10.4091 18 9.82946 17.8847C7.44931 17.4113 5.58873 15.5507 5.11529 13.1705C5 12.5909 5 11.894 5 10.5Z" fill="#222628"/>
<path fill-rule="evenodd" clip-rule="evenodd" d="M5.26683 10.3001C5.27773 10.3001 5.2888 10.3001 5.30002 10.3001V11.7001C5.00813 11.7001 4.90274 11.7006 4.81957 11.7071C3.6917 11.7959 2.79588 12.6917 2.70711 13.8196C2.70057 13.9028 2.70002 14.0082 2.70002 14.3001V16.5001C2.70002 17.9465 2.70762 18.5146 2.84212 18.958C3.16205 20.0127 3.9874 20.838 5.04208 21.158C5.48547 21.2925 6.05332 21.3001 7.49933 21.3001H8.49988C8.98097 21.3001 9.17077 21.2992 9.32348 21.2842C10.8902 21.1298 12.1298 19.8903 12.2841 18.3235C12.2992 18.1708 12.3 17.981 12.3 17.5001H13.7L13.7 17.5454C13.7001 17.9665 13.7001 18.2305 13.6774 18.4607C13.4576 20.6922 11.6922 22.4576 9.4607 22.6774C9.23044 22.7001 8.96639 22.7001 8.5452 22.7001L7.49933 22.7001C7.45339 22.7001 7.40806 22.7001 7.36331 22.7001C6.09875 22.7003 5.30423 22.7005 4.63568 22.4977C3.13356 22.042 1.95807 20.8665 1.5024 19.3644C1.2996 18.6958 1.29976 17.9011 1.3 16.6361C1.30001 16.5914 1.30002 16.546 1.30002 16.5001V14.3001C1.30002 14.2888 1.30002 14.2778 1.30002 14.2669C1.3 14.0202 1.29998 13.8552 1.31143 13.7098C1.45422 11.8954 2.89533 10.4543 4.70972 10.3115C4.85513 10.3 5.02013 10.3 5.26683 10.3001Z" fill="#222628"/>
</svg>
