<svg width="24" height="24" viewBox="0 0 24 24" fill="none" xmlns="http://www.w3.org/2000/svg">
<path fill-rule="evenodd" clip-rule="evenodd" d="M9.2354 6.52389C10.3257 4.73976 10.8708 3.8477 11.6346 3.68934C11.8757 3.63936 12.1244 3.63936 12.3655 3.68934C13.1292 3.8477 13.6744 4.73976 14.7647 6.52389L19.9876 15.0704C21.1625 16.9931 21.75 17.9544 21.5106 18.7305C21.4353 18.9744 21.3091 19.1996 21.1401 19.391C20.6027 19.9999 19.4761 19.9999 17.2229 19.9999H6.77714C4.52394 19.9999 3.39734 19.9999 2.85992 19.391C2.69101 19.1996 2.56474 18.9744 2.4895 18.7305C2.25011 17.9544 2.83757 16.9931 4.0125 15.0704L9.2354 6.52389ZM12 9.30005C12.3866 9.30005 12.7 9.61345 12.7 10V14C12.7 14.3866 12.3866 14.7 12 14.7C11.6134 14.7 11.3 14.3866 11.3 14V10C11.3 9.61345 11.6134 9.30005 12 9.30005ZM12 17C12.3866 17 12.7 16.6866 12.7 16.3C12.7 15.9134 12.3866 15.6 12 15.6C11.6134 15.6 11.3 15.9134 11.3 16.3C11.3 16.6866 11.6134 17 12 17Z" fill="#222628"/>
</svg>
