<svg width="24" height="24" viewBox="0 0 24 24" fill="none" xmlns="http://www.w3.org/2000/svg">
<path fill-rule="evenodd" clip-rule="evenodd" d="M15.6822 21C18.7431 21 21.0856 18.2745 20.6254 15.2483L20.2353 12.6828L19.8566 10.7707C19.3929 8.42916 17.3388 6.74194 14.9519 6.74194L12 6.74195L9.04811 6.74195C6.66114 6.74195 4.60705 8.42916 4.14336 10.7707L3.7647 12.6828L3.37458 15.2483C2.91443 18.2745 5.25686 21 8.31776 21L12 21L15.6822 21ZM14 15.7C14.3866 15.7 14.7 15.3866 14.7 15C14.7 14.6134 14.3866 14.3 14 14.3H12.2667H9.99999C9.61339 14.3 9.29999 14.6134 9.29999 15C9.29999 15.3866 9.61339 15.7 9.99999 15.7H12.2667H14Z" fill="#222628"/>
<path fill-rule="evenodd" clip-rule="evenodd" d="M9.36661 7.29104C9.36625 7.67734 9.05298 7.99038 8.6666 7.99037C8.28 7.99037 7.96661 7.67696 7.96661 7.29036L8.66661 7.29037C7.96661 7.29036 7.96661 7.29 7.96661 7.28963L7.96662 7.28882L7.96662 7.28697L7.96665 7.28235L7.96681 7.26949C7.96698 7.25933 7.96728 7.24603 7.96783 7.22978C7.96892 7.19732 7.97101 7.15299 7.97495 7.09846C7.98283 6.98964 7.99823 6.83882 8.02848 6.65971C8.08841 6.30476 8.20958 5.82099 8.45885 5.32889C8.7096 4.83386 9.09626 4.31888 9.68809 3.92941C10.2839 3.53736 11.046 3.30005 12 3.30005C12.9539 3.30005 13.7161 3.53736 14.3118 3.92942C14.9037 4.31888 15.2903 4.83387 15.5411 5.3289C15.7904 5.821 15.9115 6.30477 15.9714 6.65971C16.0017 6.83882 16.0171 6.98964 16.025 7.09846C16.0289 7.15299 16.031 7.19733 16.0321 7.22979C16.0326 7.24603 16.0329 7.25933 16.0331 7.26949L16.0333 7.28235L16.0333 7.28698L16.0333 7.28883L16.0333 7.28964C16.0333 7.29001 16.0333 7.29037 15.3333 7.29037L16.0333 7.29037C16.0333 7.67697 15.7199 7.99037 15.3333 7.99037C14.9477 7.99037 14.6349 7.67858 14.6333 7.29335C14.6333 7.29281 14.6333 7.29227 14.6333 7.29173C14.6333 7.29166 14.6333 7.2916 14.6333 7.29154C14.6333 7.29137 14.6333 7.2912 14.6333 7.29103C14.6333 7.29103 14.6333 7.29103 14.6333 7.29103L14.6333 7.29154V7.29162L14.6333 7.29173L14.6333 7.29257L14.6333 7.29362C14.6333 7.29382 14.6333 7.29373 14.6333 7.29335C14.6333 7.29313 14.6333 7.2928 14.6333 7.29237L14.6329 7.27705C14.6324 7.26131 14.6312 7.23496 14.6286 7.19952C14.6235 7.1284 14.6128 7.02216 14.591 6.8928C14.5467 6.63081 14.4596 6.292 14.2922 5.96152C14.1263 5.63397 13.8879 5.32638 13.5422 5.09891C13.2005 4.87403 12.7127 4.70005 12 4.70005C11.2873 4.70005 10.7994 4.87403 10.4577 5.09891C10.112 5.32638 9.87368 5.63398 9.70776 5.96153C9.54035 6.29201 9.45317 6.63082 9.40893 6.89281C9.38709 7.02217 9.37645 7.1284 9.3713 7.19952C9.36874 7.23496 9.36756 7.26132 9.36703 7.27705L9.36662 7.29238L9.36661 7.29162L9.36661 7.29104ZM9.36662 7.29238L9.36661 7.29257L9.3666 7.29363L9.3666 7.29372C9.3666 7.29365 9.36661 7.2932 9.36662 7.29238Z" fill="#222628"/>
</svg>
