<svg width="24" height="24" viewBox="0 0 24 24" fill="none" xmlns="http://www.w3.org/2000/svg">
<path fill-rule="evenodd" clip-rule="evenodd" d="M2.80385 5C2 6.3923 2 8.26154 2 12C2 15.7385 2 17.6077 2.80385 19C3.33046 19.9121 4.08788 20.6695 5 21.1962C6.3923 22 8.26154 22 12 22C15.7385 22 17.6077 22 19 21.1962C19.9121 20.6695 20.6695 19.9121 21.1962 19C22 17.6077 22 15.7385 22 12C22 8.26154 22 6.3923 21.1962 5C20.6695 4.08788 19.9121 3.33046 19 2.80385C17.6077 2 15.7385 2 12 2C8.26154 2 6.3923 2 5 2.80385C4.08788 3.33046 3.33046 4.08788 2.80385 5ZM8.49497 16.495L16.495 8.49497C16.7683 8.22161 16.7683 7.77839 16.495 7.50503C16.2216 7.23166 15.7784 7.23166 15.505 7.50503L7.50503 15.505C7.23166 15.7784 7.23166 16.2216 7.50503 16.495C7.77839 16.7683 8.22161 16.7683 8.49497 16.495ZM15.091 16C15.091 15.5029 15.494 15.1 15.991 15.1H16.009C16.5061 15.1 16.909 15.5029 16.909 16C16.909 16.4971 16.5061 16.9 16.009 16.9H15.991C15.494 16.9 15.091 16.4971 15.091 16ZM7.991 7.1C7.49394 7.1 7.091 7.50294 7.091 8C7.091 8.49706 7.49394 8.9 7.991 8.9H8.009C8.50606 8.9 8.909 8.49706 8.909 8C8.909 7.50294 8.50606 7.1 8.009 7.1H7.991Z" fill="#222628"/>
</svg>
