<svg width="24" height="24" viewBox="0 0 24 24" fill="none" xmlns="http://www.w3.org/2000/svg">
<path fill-rule="evenodd" clip-rule="evenodd" d="M2.80385 5C2 6.3923 2 8.26154 2 12C2 15.7385 2 17.6077 2.80385 19C3.33046 19.9121 4.08788 20.6695 5 21.1962C6.3923 22 8.26154 22 12 22C15.7385 22 17.6077 22 19 21.1962C19.9121 20.6695 20.6695 19.9121 21.1962 19C22 17.6077 22 15.7385 22 12C22 8.26154 22 6.3923 21.1962 5C20.6695 4.08788 19.9121 3.33046 19 2.80385C17.6077 2 15.7385 2 12 2C8.26154 2 6.3923 2 5 2.80385C4.08788 3.33046 3.33046 4.08788 2.80385 5ZM8.97091 7.48701C8.74276 7.59399 8.54124 7.75035 8.38094 7.94477C8.04939 8.3469 8.02732 8.84624 8.06023 9.27273C8.09317 9.69963 8.20108 10.2424 8.32843 10.8828L8.3372 10.927L8.76775 13.0928L8.7824 13.1671C8.84279 13.4749 8.90539 13.794 9.07927 14.0669C9.13577 14.1556 9.20038 14.2389 9.27227 14.3157C9.4935 14.5519 9.787 14.6918 10.0701 14.8268L10.1385 14.8594L12.1295 15.8145L12.1701 15.8339C12.7588 16.1164 13.2577 16.3558 13.6631 16.4937C14.068 16.6315 14.5572 16.7342 15.0291 16.5129C15.2572 16.4059 15.4587 16.2496 15.619 16.0552C15.9506 15.653 15.9727 15.1537 15.9397 14.7272C15.9068 14.3003 15.7989 13.7576 15.6715 13.1171L15.6715 13.1171L15.6628 13.073L15.2322 10.9071L15.2176 10.8328C15.1572 10.525 15.0946 10.206 14.9207 9.93299C14.8642 9.84429 14.7996 9.76102 14.7277 9.68425C14.5065 9.44802 14.213 9.30812 13.9299 9.17317L13.8615 9.1405L11.8705 8.18544L11.8299 8.16599L11.8299 8.16598C11.2411 7.88353 10.7422 7.64418 10.3369 7.50623C9.93196 7.36841 9.4428 7.26575 8.97091 7.48701ZM9.45608 9.16503C9.43831 8.93473 9.46012 8.84876 9.46736 8.82807C9.49246 8.79953 9.52276 8.77602 9.55664 8.75879C9.57849 8.75692 9.66717 8.75715 9.88585 8.83158C10.202 8.93918 10.6246 9.14055 11.265 9.44773L13.256 10.4028C13.6588 10.596 13.6885 10.6227 13.7058 10.6412C13.7185 10.6548 13.7299 10.6695 13.7399 10.6851C13.7536 10.7066 13.772 10.7419 13.8591 11.1801L14.2896 13.3459C14.4281 14.0425 14.5182 14.5019 14.5439 14.8349C14.5617 15.0652 14.5399 15.1512 14.5326 15.1719C14.5075 15.2004 14.4772 15.2239 14.4433 15.2411C14.4215 15.243 14.3328 15.2428 14.1141 15.1684C13.798 15.0608 13.3754 14.8594 12.735 14.5522L10.744 13.5971C10.3412 13.4039 10.3115 13.3773 10.2941 13.3587C10.2815 13.3452 10.2701 13.3305 10.2601 13.3148C10.2464 13.2934 10.228 13.258 10.1409 12.8198L9.71033 10.654C9.57185 9.95738 9.48177 9.49801 9.45608 9.16503ZM9.55098 8.75959C9.55095 8.75956 9.55158 8.7594 9.55294 8.7592L9.55098 8.75959ZM14.5304 15.1771L14.5313 15.1753C14.5308 15.1766 14.5305 15.1772 14.5304 15.1771ZM14.449 15.2403C14.449 15.2404 14.4484 15.2405 14.447 15.2407L14.449 15.2403ZM9.46868 8.82458C9.46921 8.82332 9.46952 8.82275 9.46954 8.82278L9.46868 8.82458Z" fill="#222628"/>
</svg>
