<svg width="24" height="24" viewBox="0 0 24 24" fill="none" xmlns="http://www.w3.org/2000/svg">
<path fill-rule="evenodd" clip-rule="evenodd" d="M3.67277 4.86413C3 6.09621 3 7.73081 3 11V13C3 16.2692 3 17.9038 3.67277 19.1359C4.17807 20.0613 4.93873 20.8219 5.86413 21.3272C7.09621 22 8.73081 22 12 22C15.2692 22 16.9038 22 18.1359 21.3272C19.0613 20.8219 19.8219 20.0613 20.3272 19.1359C21 17.9038 21 16.2692 21 13V11C21 7.73081 21 6.09621 20.3272 4.86413C19.8219 3.93873 19.0613 3.17807 18.1359 2.67277C16.9038 2 15.2692 2 12 2C8.73081 2 7.09621 2 5.86413 2.67277C4.93873 3.17807 4.17807 3.93873 3.67277 4.86413ZM15.3 17.4C15.6866 17.4 16 17.0866 16 16.7C16 16.3134 15.6866 16 15.3 16L7.7 16C7.3134 16 7 16.3134 7 16.7C7 17.0866 7.3134 17.4 7.7 17.4L15.3 17.4ZM16 12.7C16 13.0866 15.6866 13.4 15.3 13.4L7.7 13.4C7.3134 13.4 7 13.0866 7 12.7C7 12.3134 7.3134 12 7.7 12L15.3 12C15.6866 12 16 12.3134 16 12.7ZM11.3 9.40002C11.6866 9.40002 12 9.08662 12 8.70002C12 8.31343 11.6866 8.00002 11.3 8.00002L7.7 8.00002C7.3134 8.00002 7 8.31343 7 8.70003C7 9.08662 7.3134 9.40002 7.7 9.40002L11.3 9.40002Z" fill="#222628"/>
</svg>
