<svg width="24" height="24" viewBox="0 0 24 24" fill="none" xmlns="http://www.w3.org/2000/svg">
<path fill-rule="evenodd" clip-rule="evenodd" d="M2 12C2 6.47715 6.47715 2 12 2C17.5228 2 22 6.47715 22 12C22 17.5228 17.5228 22 12 22C6.47715 22 2 17.5228 2 12ZM12.7 8.37382V8C12.7 7.6134 12.3866 7.3 12 7.3C11.6134 7.3 11.3 7.6134 11.3 8V8.37382C10.8318 8.4767 10.4103 8.6871 10.0712 9.00495C9.56594 9.47867 9.3 10.1393 9.3 10.875C9.3 11.243 9.40133 11.577 9.60708 11.858C9.80587 12.1295 10.0694 12.307 10.3243 12.4282C10.6218 12.5698 10.9688 12.6605 11.3 12.7282V14.0948C11.2406 14.065 11.1812 14.0318 11.1231 13.9952C10.7756 13.7763 10.7 13.585 10.7 13.5C10.7 13.1134 10.3866 12.8 10 12.8C9.6134 12.8 9.3 13.1134 9.3 13.5C9.3 14.315 9.89107 14.8737 10.3769 15.1798C10.6603 15.3583 10.9836 15.501 11.3 15.5914V16C11.3 16.3866 11.6134 16.7 12 16.7C12.3866 16.7 12.7 16.3866 12.7 16V15.6178C12.9941 15.552 13.3058 15.4437 13.5932 15.282C14.1479 14.9699 14.7 14.3975 14.7 13.5C14.7 13.1268 14.6039 12.7873 14.4064 12.4978C14.2135 12.2151 13.954 12.0241 13.6953 11.8909C13.3908 11.7342 13.0374 11.6349 12.7 11.5626V9.84294C12.8074 9.89451 12.8975 9.95721 12.9712 10.0263C13.1659 10.2088 13.3 10.4857 13.3 10.875C13.3 11.2616 13.6134 11.575 14 11.575C14.3866 11.575 14.7 11.2616 14.7 10.875C14.7 10.1393 14.4341 9.47867 13.9288 9.00495C13.5897 8.6871 13.1682 8.4767 12.7 8.37382ZM11.3 9.84294C11.1926 9.89451 11.1025 9.95721 11.0288 10.0263C10.8341 10.2088 10.7 10.4857 10.7 10.875C10.7 10.9758 10.7237 11.0132 10.7367 11.0309C10.7566 11.0582 10.8056 11.1069 10.9257 11.164C11.0313 11.2142 11.1555 11.2555 11.3 11.2927V9.84294ZM12.7 13.003V14.1589C12.7713 14.131 12.8411 14.0987 12.9068 14.0618C13.1854 13.9051 13.3 13.7275 13.3 13.5C13.3 13.3754 13.2711 13.318 13.2499 13.2869C13.224 13.249 13.171 13.1956 13.0547 13.1358C12.9549 13.0844 12.837 13.0415 12.7 13.003Z" fill="#222628"/>
</svg>
