<svg width="24" height="24" viewBox="0 0 24 24" fill="none" xmlns="http://www.w3.org/2000/svg">
<path fill-rule="evenodd" clip-rule="evenodd" d="M17.3389 2.4815C16.5336 2.00085 15.5109 2.20546 14.9075 2.92352L13.7011 4.35941C13.7984 4.4023 13.8874 4.46809 13.9594 4.55593L13.9594 4.55598L13.9595 4.55601L13.96 4.55667L13.9629 4.56014L13.9754 4.57522C13.9866 4.58881 14.0037 4.60932 14.0262 4.636C14.0711 4.68938 14.1373 4.76735 14.2211 4.86393C14.3888 5.05735 14.6259 5.32408 14.9025 5.61661C15.4667 6.21352 16.1543 6.87378 16.7388 7.25861C17.3865 7.68504 18.1131 8.13922 18.68 8.48808C18.963 8.66221 19.2051 8.80949 19.3765 8.91315C19.4621 8.96498 19.53 9.00588 19.5764 9.03377L19.6293 9.06556L19.6428 9.07364L19.6461 9.07563L19.6469 9.07611L19.6471 9.07622L19.6471 9.07624C19.6944 9.10448 19.7371 9.1374 19.775 9.17407L20.8479 7.89715C21.4473 7.1838 21.4769 6.14912 20.8708 5.44142C20.392 4.8823 19.8098 4.2494 19.2836 3.80732C18.7489 3.35804 17.9953 2.87325 17.3389 2.4815ZM19.1287 9.94328L19.286 9.68012L19.1286 9.94338L19.1287 9.94328ZM18.8748 10.2455L18.8549 10.2336C18.8075 10.2051 18.7385 10.1635 18.6516 10.1109C18.4779 10.0058 18.2327 9.85668 17.9463 9.68041C17.3744 9.32846 16.634 8.86576 15.9689 8.42793C15.2407 7.94849 14.4605 7.18705 13.8851 6.57833C13.5918 6.26806 13.3411 5.98599 13.1635 5.78131C13.0746 5.67884 13.0038 5.59545 12.9548 5.53721C12.9303 5.50809 12.9113 5.48523 12.8981 5.46941L12.8829 5.45103L12.8787 5.44596L12.8775 5.4445L12.8771 5.44403L12.877 5.44387C12.877 5.4438 12.8769 5.44375 13.4182 4.99988L12.8769 5.44375C12.8623 5.42592 12.8487 5.40758 12.8361 5.38882L4.76131 14.9991C4.3182 15.5265 4.06851 16.1887 4.07455 16.8775C4.08748 18.3523 4.17123 20.8778 4.58756 21.2277C5.0039 21.5775 7.50611 21.2247 8.96102 20.9833C9.64054 20.8705 10.2499 20.5104 10.693 19.983L18.8748 10.2455Z" fill="#222628"/>
</svg>
