<svg width="24" height="24" viewBox="0 0 24 24" fill="none" xmlns="http://www.w3.org/2000/svg">
<path fill-rule="evenodd" clip-rule="evenodd" d="M16.0547 2.60933C15.2506 2.13391 14.2331 2.34014 13.6322 3.05531L12.0599 4.92665C12.1258 4.96613 12.1863 5.01722 12.2382 5.07963L12.2382 5.07969L12.2382 5.07971L12.2388 5.08041L12.2418 5.08397L12.2547 5.09939C12.2664 5.11325 12.2841 5.13416 12.3073 5.16135C12.3536 5.21575 12.422 5.29519 12.5085 5.39359C12.6816 5.59063 12.9261 5.86242 13.2112 6.16073C13.7923 6.7688 14.5016 7.44434 15.1043 7.84109C15.7685 8.27843 16.5133 8.74457 17.0942 9.10262C17.3842 9.28136 17.6323 9.43256 17.8078 9.53901C17.8956 9.59222 17.9652 9.63423 18.0127 9.66287L18.0669 9.69553L18.0808 9.70383L18.0842 9.70589L18.085 9.70638L18.0852 9.70649L18.0852 9.70651C18.1025 9.71689 18.1192 9.72789 18.1353 9.73947L19.5727 8.02876C20.1696 7.3184 20.2018 6.28881 19.6012 5.58153C19.1231 5.01837 18.5397 4.37975 18.0112 3.93569C17.4743 3.48454 16.7149 2.99969 16.0547 2.60933ZM17.2251 10.8228C17.185 10.7985 17.1369 10.7695 17.0819 10.7361C16.904 10.6282 16.6529 10.4752 16.3596 10.2944C15.7738 9.93333 15.0156 9.45888 14.3344 9.01041C13.5916 8.52134 12.7913 7.74766 12.1991 7.12797C11.8975 6.81239 11.6395 6.52567 11.4567 6.31766C11.3653 6.21353 11.2923 6.12881 11.2419 6.06968C11.2167 6.04011 11.1971 6.01691 11.1836 6.00087L11.1704 5.9852L3.18503 15.4891C2.74955 16.0074 2.50071 16.6563 2.49834 17.3332C2.49314 18.8232 2.54564 21.42 2.96519 21.7725C3.38473 22.125 5.95167 21.7292 7.4185 21.4673C8.08492 21.3483 8.68122 20.9913 9.1167 20.473L17.2251 10.8228ZM11.2189 5.92752C11.2824 5.8747 11.4165 5.76311 11.7 5.52731L11.2191 5.92731L11.2189 5.92752Z" fill="#222628"/>
<path fill-rule="evenodd" clip-rule="evenodd" d="M14 21.3001C14 20.9135 14.3134 20.6001 14.7 20.6001H21.3C21.6866 20.6001 22 20.9135 22 21.3001C22 21.6867 21.6866 22.0001 21.3 22.0001H14.7C14.3134 22.0001 14 21.6867 14 21.3001Z" fill="#222628"/>
</svg>
