<svg width="24" height="24" viewBox="0 0 24 24" fill="none" xmlns="http://www.w3.org/2000/svg">
<path fill-rule="evenodd" clip-rule="evenodd" d="M2 12C2 8.26154 2 6.3923 2.80385 5C3.33046 4.08788 4.08788 3.33046 5 2.80385C6.3923 2 8.26154 2 12 2C15.7385 2 17.6077 2 19 2.80385C19.9121 3.33046 20.6695 4.08788 21.1962 5C22 6.3923 22 8.26154 22 12C22 15.7385 22 17.6077 21.1962 19C20.6695 19.9121 19.9121 20.6695 19 21.1962C17.6077 22 15.7385 22 12 22C8.26154 22 6.3923 22 5 21.1962C4.08788 20.6695 3.33046 19.9121 2.80385 19C2 17.6077 2 15.7385 2 12ZM16.0113 9.49817L16.2691 9.19138C16.4701 8.95217 16.4201 8.69016 16.3018 8.56381C16.0498 8.2947 15.806 8.05425 15.6029 7.88359C15.3925 7.70679 15.0968 7.4964 14.7693 7.28189C14.6155 7.18117 14.3428 7.18166 14.1422 7.42039L13.9093 7.6976C13.9228 7.71886 13.9397 7.74517 13.9597 7.77558C14.0183 7.86501 14.1018 7.98756 14.2004 8.11964C14.4137 8.40534 14.6401 8.6562 14.809 8.76738C15.0743 8.94209 15.3776 9.12647 15.6181 9.26905C15.7375 9.33988 15.8399 9.39949 15.9123 9.44128L15.9964 9.48964L16.0113 9.49817ZM15.0968 10.5866L10.5057 16.0507C10.2435 16.3627 9.89516 16.5439 9.54153 16.5763C9.08765 16.6179 8.59467 16.6524 8.18844 16.6575C8.12339 16.2564 8.07244 15.7649 8.03518 15.3106C8.00616 14.9567 8.12456 14.5823 8.38674 14.2703L12.9728 8.81214C13.0059 8.85865 13.0413 8.90726 13.0786 8.95718C13.3015 9.25577 13.6506 9.68093 14.0391 9.9367C14.3311 10.1289 14.6558 10.3261 14.904 10.4732C14.9748 10.5152 15.0398 10.5534 15.0968 10.5866ZM15.5364 6.11078C14.7368 5.58701 13.6852 5.78795 13.0703 6.51978L7.31487 13.3697C6.83246 13.9438 6.57857 14.6777 6.63987 15.4251C6.72073 16.4111 6.87383 17.6992 7.13134 17.9156C7.38884 18.1319 8.68405 18.0607 9.66929 17.9705C10.4161 17.902 11.0952 17.5255 11.5776 16.9513L17.341 10.092C17.9523 9.3644 17.9733 8.30064 17.3238 7.60694C17.0552 7.32008 16.7681 7.03401 16.5035 6.81172C16.2309 6.5827 15.8822 6.33729 15.5364 6.11078Z" fill="#222628"/>
</svg>
