<svg width="24" height="24" viewBox="0 0 24 24" fill="none" xmlns="http://www.w3.org/2000/svg">
<path fill-rule="evenodd" clip-rule="evenodd" d="M2 12C4.5 8 7.5 5 11.5 5C13.3677 5 15.5174 5.89546 17 7L14.5864 9.35413C14.2492 9.02447 13.8519 8.76222 13.416 8.58165C12.9671 8.3957 12.4859 8.3 12 8.3C11.5141 8.3 11.033 8.3957 10.5841 8.58165C10.1352 8.76759 9.72732 9.04013 9.38374 9.38371C9.04016 9.72728 8.76762 10.1352 8.58168 10.5841C8.39574 11.033 8.30003 11.5141 8.30003 12C8.30003 12.4859 8.39574 12.967 8.58168 13.4159C8.75047 13.8234 8.99063 14.1971 9.2905 14.5196L6.5 17.2414C4.80743 15.9804 3.33267 14.1323 2 12ZM12.8802 9.87508C12.9394 9.8996 12.9975 9.92655 13.0543 9.95583L11.5051 11.505L9.95587 13.0542C9.92659 12.9974 9.89964 12.9394 9.87511 12.8802C9.75953 12.6011 9.70004 12.302 9.70004 12C9.70004 11.698 9.75953 11.3989 9.87511 11.1198C9.9907 10.8408 10.1601 10.5872 10.3737 10.3737C10.5873 10.1601 10.8408 9.99066 11.1199 9.87508C11.3989 9.75949 11.698 9.7 12 9.7C12.3021 9.7 12.6012 9.75949 12.8802 9.87508Z" fill="#222628"/>
<path fill-rule="evenodd" clip-rule="evenodd" d="M19.495 4.49502C19.7683 4.76838 19.7683 5.2116 19.495 5.48496L5.4849 19.495C5.21154 19.7684 4.76832 19.7684 4.49495 19.495C4.22159 19.2216 4.22159 18.7784 4.49496 18.5051L18.505 4.49502C18.7784 4.22165 19.2216 4.22165 19.495 4.49502Z" fill="#222628"/>
<path fill-rule="evenodd" clip-rule="evenodd" d="M21.5 12C19 16 14.5 19 9 18.5L12.1589 15.1748C12.3893 15.1981 12.6449 15.2065 12.9121 15.1852C13.5274 15.1361 14.2431 14.9249 14.8299 14.338C15.4168 13.7511 15.628 13.0355 15.6771 12.4202C15.7036 12.0877 15.6842 11.7733 15.6471 11.503L18.5 8.5C18.5 8.5 20.1673 9.86769 21.5 12Z" fill="#222628"/>
</svg>
