<svg width="24" height="24" viewBox="0 0 24 24" fill="none" xmlns="http://www.w3.org/2000/svg">
<path fill-rule="evenodd" clip-rule="evenodd" d="M12 5C8 5 5 8 2.5 12C5 16 8 19 12 19C16 19 19 16 21.5 12C19 8 16 5 12 5ZM8.3 12C8.3 9.95655 9.95655 8.3 12 8.3C14.0435 8.3 15.7 9.95655 15.7 12C15.7 14.0435 14.0435 15.7 12 15.7C9.95655 15.7 8.3 14.0435 8.3 12Z" fill="#222628"/>
<path fill-rule="evenodd" clip-rule="evenodd" d="M12 14.5C13.3807 14.5 14.5 13.3807 14.5 12C14.5 11.9558 14.4989 11.9118 14.4966 11.8682C14.3503 11.952 14.1807 12 14 12C13.4477 12 13 11.5523 13 11C13 10.5886 13.2484 10.2353 13.6033 10.0818C13.1693 9.7186 12.6102 9.5 12 9.5C10.6193 9.5 9.5 10.6193 9.5 12C9.5 13.3807 10.6193 14.5 12 14.5Z" fill="#222628"/>
</svg>
