<svg width="24" height="24" viewBox="0 0 24 24" fill="none" xmlns="http://www.w3.org/2000/svg">
<path fill-rule="evenodd" clip-rule="evenodd" d="M5 12.906C5.3866 12.906 5.7 12.5926 5.7 12.206V6.70601C5.7 6.31941 5.3866 6.00601 5 6.00601C4.6134 6.00601 4.3 6.31941 4.3 6.70601V12.206C4.3 12.5926 4.6134 12.906 5 12.906Z" fill="#222628"/>
<path d="M11.0424 18.7138C9.44128 17.013 7.6706 14.2679 6.98908 13.1759C6.79715 12.8684 6.70001 12.5146 6.70001 12.1521V7.74469C6.70001 7.09354 7.017 6.48315 7.54966 6.10863L8.31574 5.56998C8.65258 5.33314 9.05432 5.20604 9.46609 5.20604H14.5015C15.2741 5.20604 15.9777 5.65111 16.3087 6.34929L19.0176 12.0635C19.4894 13.0587 18.7636 14.2061 17.6622 14.2061H13.005C12.5983 14.2061 12.3617 14.6657 12.5981 14.9967L13.173 15.8015C13.8873 16.8015 13.5391 18.2032 12.4399 18.7528L12.1564 18.8946C11.782 19.0818 11.3293 19.0186 11.0424 18.7138Z" fill="#222628"/>
</svg>
