<svg width="24" height="24" viewBox="0 0 24 24" fill="none" xmlns="http://www.w3.org/2000/svg">
<path fill-rule="evenodd" clip-rule="evenodd" d="M5 11.3C5.3866 11.3 5.7 11.6134 5.7 12V17.5C5.7 17.8866 5.3866 18.2 5 18.2C4.6134 18.2 4.3 17.8866 4.3 17.5V12C4.3 11.6134 4.6134 11.3 5 11.3Z" fill="#222628"/>
<path d="M11.0424 5.49224C9.44128 7.19308 7.67059 9.93814 6.98907 11.0301C6.79714 11.3376 6.7 11.6915 6.7 12.054V16.4614C6.7 17.1125 7.01699 17.7229 7.54965 18.0974L8.31573 18.6361C8.65257 18.8729 9.05431 19 9.46609 19H14.5015C15.2741 19 15.9777 18.5549 16.3087 17.8568L19.0176 12.1426C19.4894 11.1473 18.7636 10 17.6622 10H13.005C12.5983 10 12.3617 9.54031 12.5981 9.20938L13.173 8.40459C13.8873 7.40454 13.5391 6.00287 12.4399 5.45326L12.1564 5.3115C11.782 5.1243 11.3293 5.18745 11.0424 5.49224Z" fill="#222628"/>
</svg>
