<svg width="24" height="24" viewBox="0 0 24 24" fill="none" xmlns="http://www.w3.org/2000/svg">
<path d="M8 8C8 9.65685 6.65685 11 5 11C3.34315 11 2 9.65685 2 8C2 6.34315 3.34315 5 5 5C6.65685 5 8 6.34315 8 8Z" fill="#222628"/>
<path d="M22 18C22 19.6569 20.6569 21 19 21C17.3431 21 16 19.6569 16 18C16 16.3431 17.3431 15 19 15C20.6569 15 22 16.3431 22 18Z" fill="#222628"/>
<path fill-rule="evenodd" clip-rule="evenodd" d="M22.7 7.99995C22.7 8.38655 22.3866 8.69995 22 8.69995L12 8.69995C11.6134 8.69995 11.3 8.38655 11.3 7.99995C11.3 7.61335 11.6134 7.29995 12 7.29995L22 7.29995C22.3866 7.29995 22.7 7.61335 22.7 7.99995Z" fill="#222628"/>
<path fill-rule="evenodd" clip-rule="evenodd" d="M12.7 18C12.7 18.3866 12.3866 18.7 12 18.7H2.00001C1.61341 18.7 1.30001 18.3866 1.30001 18C1.30001 17.6134 1.61341 17.3 2.00001 17.3H12C12.3866 17.3 12.7 17.6134 12.7 18Z" fill="#222628"/>
</svg>
