<svg width="24" height="24" viewBox="0 0 24 24" fill="none" xmlns="http://www.w3.org/2000/svg">
<path fill-rule="evenodd" clip-rule="evenodd" d="M2.30169 4.68884C2 5.30971 2 6.11572 2 7.72773V13.8C2 16.7998 2 18.2997 2.76393 19.3511C3.01065 19.6907 3.30928 19.9893 3.64886 20.2361C4.70032 21 6.20021 21 9.2 21H14.8C17.7998 21 19.2997 21 20.3511 20.2361C20.6907 19.9893 20.9893 19.6907 21.2361 19.3511C22 18.2997 22 16.7998 22 13.8V12.7C22 9.70021 22 8.20032 21.2361 7.14886C20.9893 6.80928 20.6907 6.51065 20.3511 6.26393C19.2997 5.5 17.7998 5.5 14.8 5.5H12.6008C12.4455 5.5 12.3678 5.5 12.2938 5.49634C11.4868 5.45646 10.7299 5.09271 10.1946 4.48742C10.1455 4.43193 10.097 4.37129 10 4.25L9.99998 4.24997C9.90296 4.1287 9.85445 4.06806 9.80538 4.01258C9.27008 3.40729 8.51324 3.04354 7.70619 3.00366C7.63221 3 7.55454 3 7.39922 3H6.72773C5.11572 3 4.30971 3 3.68884 3.30169C3.08407 3.59556 2.59556 4.08407 2.30169 4.68884ZM14.7 16.6C14.3134 16.6 14 16.9134 14 17.3C14 17.6866 14.3134 18 14.7 18H18.3C18.6866 18 19 17.6866 19 17.3C19 16.9134 18.6866 16.6 18.3 16.6H14.7Z" fill="#222628"/>
</svg>
