<svg width="24" height="24" viewBox="0 0 24 24" fill="none" xmlns="http://www.w3.org/2000/svg">
<path fill-rule="evenodd" clip-rule="evenodd" d="M10.2565 1.30005L10.2565 2.00005C10.2565 2.23461 10.1799 2.4386 10.1204 2.57284C10.0632 2.70195 9.99018 2.83341 9.93297 2.93635C9.92857 2.94426 9.92427 2.95199 9.92008 2.95955C9.7788 3.21416 9.71559 3.34967 9.70191 3.4518C9.70162 3.45398 9.70116 3.45623 9.70068 3.4586C9.69627 3.48033 9.68972 3.51255 9.78803 3.59922C9.94646 3.73888 10.315 3.94309 11.102 4.14568C11.7307 4.30754 12.1427 4.70794 12.3835 5.17887C12.6118 5.62532 12.6837 6.12506 12.6974 6.54704C12.7114 6.97692 12.6662 7.38165 12.6199 7.67281C12.5965 7.82008 12.5722 7.94238 12.5533 8.02937C12.5438 8.07294 12.5357 8.10789 12.5297 8.13294L12.5223 8.163L12.5199 8.17221L12.5191 8.17532L12.5188 8.17649C12.5188 8.17671 12.5186 8.1774 11.8414 8.00005L12.5188 8.17649C12.4209 8.55047 12.038 8.77516 11.6641 8.67721C11.2905 8.57936 11.0668 8.19747 11.164 7.82385L11.1646 7.82126L11.1686 7.80507C11.1723 7.78955 11.1781 7.76489 11.1852 7.7323C11.1994 7.66695 11.2186 7.57069 11.2373 7.45307C11.2752 7.21444 11.3083 6.904 11.2982 6.5924C11.2878 6.27289 11.2335 6.00483 11.137 5.81622C11.0531 5.65209 10.942 5.55016 10.7529 5.50147C9.89474 5.28054 9.26933 5.00828 8.86224 4.64941C8.40576 4.24701 8.24872 3.75556 8.3143 3.26594C8.36714 2.87147 8.56475 2.51614 8.68269 2.30406C8.68723 2.29591 8.69164 2.28797 8.69592 2.28025C8.76567 2.15457 8.80993 2.07463 8.84044 2.00575C8.8484 1.98779 8.85343 1.9748 8.85649 1.96626L8.85649 1.30005L10.2565 1.30005Z" fill="#222628"/>
<path fill-rule="evenodd" clip-rule="evenodd" d="M1.50371 11.1906C1.71329 9.31679 3.34675 8 5.23227 8H18.7677C20.6532 8 22.2867 9.31679 22.4963 11.1906C22.9336 15.1005 22.982 21.1896 19 21C17.6982 20.938 16.3963 19.8975 15.6461 19.1786C15.217 18.7675 14.6563 18.5 14.0621 18.5H10.0502C9.39261 18.5 8.78084 18.8289 8.31958 19.2975C7.6252 20.0029 6.4459 20.9311 4.99999 21C1.01803 21.1896 1.06641 15.1005 1.50371 11.1906ZM9.2 13C9.2 13.3866 8.8866 13.7 8.5 13.7H7.7L7.7 14.5C7.7 14.8866 7.3866 15.2 7 15.2C6.6134 15.2 6.3 14.8866 6.3 14.5V13.7H5.5C5.1134 13.7 4.8 13.3866 4.8 13C4.8 12.6134 5.1134 12.3 5.5 12.3H6.3L6.3 11.5C6.3 11.1134 6.6134 10.8 7 10.8C7.3866 10.8 7.7 11.1134 7.7 11.5L7.7 12.3H8.5C8.8866 12.3 9.2 12.6134 9.2 13ZM14.9 12.25C14.9 11.8358 15.2358 11.5 15.65 11.5H15.75C16.1642 11.5 16.5 11.8358 16.5 12.25C16.5 12.6642 16.1642 13 15.75 13H15.65C15.2358 13 14.9 12.6642 14.9 12.25ZM18.65 13.5C18.2358 13.5 17.9 13.8358 17.9 14.25C17.9 14.6642 18.2358 15 18.65 15H18.75C19.1642 15 19.5 14.6642 19.5 14.25C19.5 13.8358 19.1642 13.5 18.75 13.5H18.65Z" fill="#222628"/>
</svg>
