<svg width="24" height="24" viewBox="0 0 24 24" fill="none" xmlns="http://www.w3.org/2000/svg">
<path d="M5.8 13.5001C5.04745 13.5001 4.67118 13.5001 4.38948 13.7438C4.31011 13.8124 4.21705 13.9276 4.16663 14.0196C3.98767 14.3462 4.05507 14.6597 4.18988 15.2868C4.41412 16.3297 4.83386 17.3266 5.43251 18.2225C6.3665 19.6203 7.69402 20.7098 9.24719 21.3531C10.8004 21.9965 12.5094 22.1648 14.1583 21.8368C15.8071 21.5088 17.3217 20.6993 18.5104 19.5106C19.6992 18.3218 20.5087 16.8073 20.8367 15.1584C21.1646 13.5096 20.9963 11.8005 20.353 10.2473C19.7096 8.69417 18.6202 7.36665 17.2223 6.43266C16.3264 5.83401 15.3296 5.41427 14.2866 5.19003C13.6596 5.05522 13.3461 4.98782 13.0195 5.16678C12.9274 5.2172 12.8123 5.31026 12.7436 5.38963C12.5 5.67133 12.5 6.0476 12.5 6.80015L12.5 9.90015C12.5 11.4 12.5 12.15 12.118 12.6757C11.9947 12.8455 11.8454 12.9948 11.6756 13.1182C11.1498 13.5001 10.3999 13.5001 8.9 13.5001H5.8Z" fill="#222628"/>
<path d="M3.8 11C3.052 11 2.678 11 2.39985 10.7682C2.31924 10.701 2.22948 10.5949 2.17656 10.5043C1.99396 10.1916 2.04895 9.86403 2.15891 9.20895C2.25461 8.63886 2.39308 8.08274 2.57314 7.64803C2.95153 6.73452 3.50614 5.90448 4.20531 5.20531C4.90448 4.50614 5.73452 3.95153 6.64803 3.57314C7.08274 3.39308 7.63885 3.2546 8.20895 3.15891C8.86403 3.04894 9.19157 2.99396 9.50427 3.17656C9.59488 3.22948 9.70097 3.31924 9.76815 3.39984C10 3.678 10 4.052 10 4.8L10 7.4C10 8.89989 10 9.64984 9.61803 10.1756C9.49467 10.3454 9.34536 10.4947 9.17557 10.618C8.64984 11 7.89989 11 6.4 11L3.8 11Z" fill="#222628"/>
</svg>
