<svg width="24" height="24" viewBox="0 0 24 24" fill="none" xmlns="http://www.w3.org/2000/svg">
<path fill-rule="evenodd" clip-rule="evenodd" d="M2 12C2 11.5391 2 11.1067 2.00151 10.7L11.6 10.7L11.6 22C8.12639 21.9989 6.34174 21.9708 5 21.1962C4.08788 20.6695 3.33046 19.9121 2.80385 19C2 17.6077 2 15.7385 2 12ZM13 21.9993C16.0836 21.993 17.7378 21.9249 19 21.1962C19.9121 20.6695 20.6695 19.9121 21.1962 19C22 17.6077 22 15.7385 22 12C22 8.26154 22 6.3923 21.1962 5C20.6695 4.08788 19.9121 3.33046 19 2.80385C17.7378 2.0751 16.0836 2.00702 13 2.00066V10.7L13 21.9993ZM11.6 9.3V2.00004C8.12639 2.00106 6.34174 2.02919 5 2.80385C4.08788 3.33046 3.33046 4.08788 2.80385 5C2.22209 6.00763 2.06136 7.26505 2.01695 9.30001L11.6 9.3ZM11.9031 2L12.0964 2C12.0644 2 12.0323 2 12 2C11.9676 2 11.9353 2 11.9031 2Z" fill="#222628"/>
</svg>
