<svg width="24" height="24" viewBox="0 0 24 24" fill="none" xmlns="http://www.w3.org/2000/svg">
<path fill-rule="evenodd" clip-rule="evenodd" d="M3.41631 9.28669C2.23553 12.5439 2.46968 16.6456 3.06247 19.8736C3.1323 20.2539 2.88066 20.6187 2.50042 20.6885C2.12018 20.7584 1.75533 20.5067 1.6855 20.1265C1.07757 16.816 0.792149 12.4177 2.10012 8.80956C2.75954 6.99052 3.83269 5.34925 5.49212 4.16676C7.15285 2.98334 9.34383 2.30005 12.1674 2.30005C14.9905 2.30005 17.1616 2.98319 18.7904 4.17131C20.418 5.35862 21.4426 7.00546 22.0527 8.82567C23.2618 12.4332 22.8794 16.8298 22.274 20.1265C22.2042 20.5067 21.8393 20.7584 21.4591 20.6885C21.0789 20.6187 20.8272 20.2539 20.897 19.8736C21.4924 16.6319 21.8172 12.5285 20.7252 9.27058C20.1848 7.65809 19.3067 6.2809 17.9653 5.30235C16.6249 4.32459 14.7606 3.70005 12.1674 3.70005C9.57471 3.70005 7.68327 4.32445 6.30457 5.3069C4.92457 6.29027 4.00127 7.67304 3.41631 9.28669Z" fill="#222628"/>
<path d="M2.99997 17C2.99997 15.3431 4.34312 14 5.99997 14C7.65682 14 8.99997 15.3431 8.99997 17V20C8.99997 21.6569 7.65682 23 5.99997 23C4.34312 23 2.99997 21.6569 2.99997 20V17Z" fill="#222628"/>
<path fill-rule="evenodd" clip-rule="evenodd" d="M2.49997 17C2.49997 15.067 4.06697 13.5 5.99997 13.5C7.93297 13.5 9.49997 15.067 9.49997 17V20C9.49997 21.933 7.93297 23.5 5.99997 23.5C4.06697 23.5 2.49997 21.933 2.49997 20V17ZM5.99997 14.5C4.61926 14.5 3.49997 15.6193 3.49997 17V20C3.49997 21.3807 4.61926 22.5 5.99997 22.5C7.38068 22.5 8.49997 21.3807 8.49997 20V17C8.49997 15.6193 7.38068 14.5 5.99997 14.5Z" fill="#222628"/>
<path d="M15 17C15 15.3431 16.3431 14 18 14C19.6568 14 21 15.3431 21 17V20C21 21.6569 19.6568 23 18 23C16.3431 23 15 21.6569 15 20V17Z" fill="#222628"/>
<path fill-rule="evenodd" clip-rule="evenodd" d="M14.5 17C14.5 15.067 16.067 13.5 18 13.5C19.933 13.5 21.5 15.067 21.5 17V20C21.5 21.933 19.933 23.5 18 23.5C16.067 23.5 14.5 21.933 14.5 20V17ZM18 14.5C16.6193 14.5 15.5 15.6193 15.5 17V20C15.5 21.3807 16.6193 22.5 18 22.5C19.3807 22.5 20.5 21.3807 20.5 20V17C20.5 15.6193 19.3807 14.5 18 14.5Z" fill="#222628"/>
</svg>
