<svg width="24" height="24" viewBox="0 0 24 24" fill="none" xmlns="http://www.w3.org/2000/svg">
<path fill-rule="evenodd" clip-rule="evenodd" d="M2.90671 10.4477C2.5 11.3935 2.5 12.4636 2.5 14.6037V16C2.5 18.8284 2.5 20.2426 3.37868 21.1213C4.2364 21.979 5.60441 21.9995 8.3 22C8.36587 22 8.43253 22 8.5 22H15.5C15.5675 22 15.6341 22 15.7 22C18.3956 21.9995 19.7636 21.979 20.6213 21.1213C21.5 20.2426 21.5 18.8284 21.5 16V14.6037C21.5 12.4636 21.5 11.3935 21.0933 10.4477C21.0339 10.3095 20.9682 10.1741 20.8966 10.0418C20.4063 9.13651 19.5664 8.47344 17.8866 7.14732C15.2163 5.03916 13.8811 3.98508 12.3339 3.88152C12.1115 3.86664 11.8885 3.86664 11.6661 3.88152C10.1189 3.98508 8.78372 5.03916 6.11338 7.14732C4.43362 8.47344 3.59373 9.13651 3.10344 10.0418C3.03179 10.1741 2.96615 10.3095 2.90671 10.4477ZM15.7 22C15.7 21.5141 15.6043 21.0329 15.4184 20.584C15.2324 20.1351 14.9599 19.7273 14.6163 19.3837C14.2727 19.0401 13.8648 18.7676 13.4159 18.5816C12.967 18.3957 12.4859 18.3 12 18.3C11.5141 18.3 11.033 18.3957 10.5841 18.5816C10.1352 18.7676 9.72728 19.0401 9.3837 19.3837C9.04013 19.7273 8.76759 20.1351 8.58165 20.584C8.3957 21.0329 8.3 21.5141 8.3 22H9.7C9.7 21.6979 9.75949 21.3988 9.87508 21.1198C9.99066 20.8407 10.1601 20.5872 10.3737 20.3736C10.5872 20.16 10.8408 19.9906 11.1198 19.875C11.3989 19.7595 11.698 19.7 12 19.7C12.302 19.7 12.6011 19.7595 12.8802 19.875C13.1592 19.9906 13.4128 20.16 13.6263 20.3736C13.8399 20.5872 14.0093 20.8407 14.1249 21.1198C14.2405 21.3988 14.3 21.6979 14.3 22H15.7Z" fill="#222628"/>
</svg>
