<svg width="24" height="24" viewBox="0 0 24 24" fill="none" xmlns="http://www.w3.org/2000/svg">
<path fill-rule="evenodd" clip-rule="evenodd" d="M2 12C2 8.26154 2 6.3923 2.80385 5C3.33046 4.08788 4.08788 3.33046 5 2.80385C6.3923 2 8.26154 2 12 2C15.7385 2 17.6077 2 19 2.80385C19.9121 3.33046 20.6695 4.08788 21.1962 5C22 6.3923 22 8.26154 22 12C22 15.7385 22 17.6077 21.1962 19C20.6695 19.9121 19.9121 20.6695 19 21.1962C17.6077 22 15.7385 22 12 22C8.26154 22 6.3923 22 5 21.1962C4.08788 20.6695 3.33046 19.9121 2.80385 19C2 17.6077 2 15.7385 2 12ZM16 6.70001C15.282 6.70001 14.7 7.28204 14.7 8.00001C14.7 8.71798 15.282 9.30001 16 9.30001C16.718 9.30001 17.3 8.71798 17.3 8.00001C17.3 7.28204 16.718 6.70001 16 6.70001ZM13.3 8.00001C13.3 6.50885 14.5088 5.30001 16 5.30001C17.4912 5.30001 18.7 6.50884 18.7 8.00001C18.7 9.49118 17.4912 10.7 16 10.7C14.5088 10.7 13.3 9.49118 13.3 8.00001ZM7.85609 13.7589C9.1332 12.269 11.4382 12.269 12.7153 13.7589L13.7748 14.9949C14.5592 15.9101 16.0038 15.8107 16.6556 14.7969L17.4112 13.6215C17.6202 13.2963 18.0533 13.2021 18.3785 13.4112C18.7037 13.6202 18.7979 14.0533 18.5888 14.3785L17.8332 15.5539C16.6745 17.3564 14.1063 17.5329 12.7118 15.9061L11.6524 14.6701C10.934 13.832 9.63742 13.832 8.91905 14.6701L6.53148 17.4556C6.27988 17.7491 5.83797 17.7831 5.54445 17.5315C5.25092 17.2799 5.21692 16.838 5.46852 16.5444L7.85609 13.7589Z" fill="#222628"/>
</svg>
