<svg width="24" height="24" viewBox="0 0 24 24" fill="none" xmlns="http://www.w3.org/2000/svg">
<path fill-rule="evenodd" clip-rule="evenodd" d="M2 12C2 8.26154 2 6.3923 2.80385 5C3.33046 4.08788 4.08788 3.33046 5 2.80385C6.3923 2 8.26154 2 12 2C15.7385 2 17.6077 2 19 2.80385C19.9121 3.33046 20.6695 4.08788 21.1962 5C22 6.3923 22 8.26154 22 12C22 14.9921 22 16.7868 21.5879 18.0979L19.4113 15.9213C18.0868 14.5969 15.9207 14.6605 14.6764 16.0605C13.8688 16.969 12.4202 16.8684 11.746 15.857L10.952 14.6661C9.46846 12.4407 6.34953 12.0633 4.37802 13.8706L2.06972 15.9865C2 14.9434 2 13.6548 2 12ZM18.4213 16.9113L20.9299 19.4199C20.4267 20.1454 19.7682 20.7526 19 21.1962C17.6077 22 15.7385 22 12 22C8.26154 22 6.3923 22 5 21.1962C4.08788 20.6695 3.33046 19.9121 2.80385 19C2.57127 18.5972 2.40598 18.1544 2.28852 17.638C2.35442 17.6082 2.41678 17.5675 2.47301 17.516L5.32403 14.9026C6.6625 13.6756 8.77995 13.9319 9.78713 15.4426L10.5811 16.6336C11.7642 18.4082 14.3057 18.5847 15.7227 16.9906C16.4319 16.1927 17.6665 16.1564 18.4213 16.9113ZM14.2404 8.5C14.2404 7.78203 14.8224 7.2 15.5404 7.2C16.2584 7.2 16.8404 7.78203 16.8404 8.5C16.8404 9.21797 16.2584 9.8 15.5404 9.8C14.8224 9.8 14.2404 9.21797 14.2404 8.5ZM15.5404 5.8C14.0492 5.8 12.8404 7.00883 12.8404 8.5C12.8404 9.99117 14.0492 11.2 15.5404 11.2C17.0316 11.2 18.2404 9.99117 18.2404 8.5C18.2404 7.00883 17.0316 5.8 15.5404 5.8Z" fill="#222628"/>
</svg>
