<svg width="24" height="24" viewBox="0 0 24 24" fill="none" xmlns="http://www.w3.org/2000/svg">
<path fill-rule="evenodd" clip-rule="evenodd" d="M2.80385 5C2 6.3923 2 8.26154 2 12C2 13.1622 2 14.1437 2.02415 14.9864C2.06628 14.9474 2.11392 14.913 2.16671 14.8844L5.77209 12.9324C7.72913 11.8727 10.1611 12.331 11.5983 14.0301L12.5941 15.2074C12.6204 15.1887 12.6483 15.1716 12.6778 15.1563L14.1729 14.3811C15.595 13.6437 17.3301 13.9052 18.4717 15.029L21.4911 18.0011C21.5262 18.0358 21.5569 18.0732 21.5832 18.1127C22 16.8002 22 15.0033 22 12C22 8.26154 22 6.3923 21.1962 5C20.6695 4.08788 19.9121 3.33046 19 2.80385C17.6077 2 15.7385 2 12 2C8.26154 2 6.3923 2 5 2.80385C4.08788 3.33046 3.33046 4.08788 2.80385 5ZM17.5344 21.0479L13.5169 16.2983L14.8174 15.6239C15.7014 15.1656 16.7799 15.3281 17.4896 16.0267L20.5089 18.9989C20.6654 19.1528 20.8758 19.2183 21.0782 19.1956C20.5591 20.0206 19.8461 20.7077 19 21.1962C18.6054 21.424 18.1725 21.5872 17.6696 21.7042C17.7364 21.4844 17.6938 21.2363 17.5344 21.0479ZM16.4181 21.896L10.5294 14.9342C9.52029 13.7412 7.81276 13.4195 6.43867 14.1635L2.83329 16.1156C2.58305 16.2511 2.28683 16.2183 2.0745 16.056C2.16462 17.3326 2.36377 18.2378 2.80385 19C3.33046 19.9121 4.08788 20.6695 5 21.1962C6.3923 22 8.26154 22 12 22C13.8908 22 15.3035 22 16.4181 21.896ZM14.2404 8.5C14.2404 7.78203 14.8224 7.2 15.5404 7.2C16.2584 7.2 16.8404 7.78203 16.8404 8.5C16.8404 9.21797 16.2584 9.8 15.5404 9.8C14.8224 9.8 14.2404 9.21797 14.2404 8.5ZM15.5404 5.8C14.0492 5.8 12.8404 7.00883 12.8404 8.5C12.8404 9.99117 14.0492 11.2 15.5404 11.2C17.0316 11.2 18.2404 9.99117 18.2404 8.5C18.2404 7.00883 17.0316 5.8 15.5404 5.8Z" fill="#222628"/>
</svg>
