<svg width="24" height="24" viewBox="0 0 24 24" fill="none" xmlns="http://www.w3.org/2000/svg">
<path fill-rule="evenodd" clip-rule="evenodd" d="M2 12C2 8.26154 2 6.3923 2.80385 5C3.33046 4.08788 4.08788 3.33046 5 2.80385C6.3923 2 8.26154 2 12 2C15.7385 2 17.6077 2 19 2.80385C19.9121 3.33046 20.6695 4.08788 21.1962 5C22 6.3923 22 8.26154 22 12C22 14.7037 22 16.4297 21.6959 17.7047L17.3449 13.3344C16.0541 12.0379 14.0095 11.8794 12.5343 12.9616L8.68714 15.7839C7.97573 16.3058 7.02846 16.3747 6.24899 15.9613L2.328 13.8816C2.22463 13.8268 2.11374 13.8005 2.00432 13.7999C2 13.2523 2 12.6548 2 12ZM2.03495 15.3109C2.0994 16.9941 2.28266 18.0973 2.80385 19C3.33046 19.9121 4.08788 20.6695 5 21.1962C6.3923 22 8.26154 22 12 22C15.7385 22 17.6077 22 19 21.1962C19.8789 20.6887 20.6141 19.967 21.1377 19.0991C21.09 19.0702 21.045 19.0352 21.0039 18.9939L16.3528 14.3222C15.5504 13.5162 14.2794 13.4177 13.3624 14.0905L9.51525 16.9127C8.37079 17.7523 6.84693 17.8631 5.593 17.1981L2.03495 15.3109ZM8 6.70001C7.28203 6.70001 6.7 7.28204 6.7 8.00001C6.7 8.71798 7.28203 9.30001 8 9.30001C8.71797 9.30001 9.3 8.71798 9.3 8.00001C9.3 7.28204 8.71797 6.70001 8 6.70001ZM5.3 8.00001C5.3 6.50885 6.50883 5.30001 8 5.30001C9.49117 5.30001 10.7 6.50884 10.7 8.00001C10.7 9.49118 9.49117 10.7 8 10.7C6.50883 10.7 5.3 9.49118 5.3 8.00001Z" fill="#222628"/>
</svg>
