<svg width="24" height="24" viewBox="0 0 24 24" fill="none" xmlns="http://www.w3.org/2000/svg">
<path fill-rule="evenodd" clip-rule="evenodd" d="M2 12C2 8.26154 2 6.3923 2.80385 5C3.33046 4.08788 4.08788 3.33046 5 2.80385C6.3923 2 8.26154 2 12 2C15.7385 2 17.6077 2 19 2.80385C19.9121 3.33046 20.6695 4.08788 21.1962 5C22 6.3923 22 8.26154 22 12C22 15.7385 22 17.6077 21.1962 19C20.6695 19.9121 19.9121 20.6695 19 21.1962C17.6077 22 15.7385 22 12 22C8.26154 22 6.3923 22 5 21.1962C4.08788 20.6695 3.33046 19.9121 2.80385 19C2 17.6077 2 15.7385 2 12ZM12 6.3C12.3866 6.3 12.7 6.6134 12.7 7V8.55271C12.7 8.93931 12.3866 9.25271 12 9.25271C11.6134 9.25271 11.3 8.93931 11.3 8.55271V7C11.3 6.6134 11.6134 6.3 12 6.3ZM12.7 15.5399C12.7 15.1533 12.3866 14.8399 12 14.8399C11.6134 14.8399 11.3 15.1533 11.3 15.5399V17.0926C11.3 17.4792 11.6134 17.7926 12 17.7926C12.3866 17.7926 12.7 17.4792 12.7 17.0926V15.5399ZM16.2622 8.07558C16.5257 8.35845 16.51 8.80138 16.2272 9.06491L14.9772 10.2294C14.6943 10.493 14.2514 10.4773 13.9878 10.1944C13.7243 9.91155 13.74 9.46861 14.0228 9.20509L15.2728 8.04056C15.5557 7.77703 15.9986 7.79271 16.2622 8.07558ZM14.9772 13.8632C14.6943 13.5997 14.2514 13.6154 13.9878 13.8982C13.7243 14.1811 13.74 14.624 14.0228 14.8876L15.2728 16.0521C15.5557 16.3156 15.9986 16.2999 16.2622 16.0171C16.5257 15.7342 16.51 15.2913 16.2272 15.0277L14.9772 13.8632ZM7.73782 8.0756C8.00135 7.79273 8.44429 7.77705 8.72715 8.04058L9.97715 9.20511C10.26 9.46864 10.2757 9.91157 10.0122 10.1944C9.74865 10.4773 9.30571 10.493 9.02285 10.2295L7.77285 9.06493C7.48998 8.8014 7.4743 8.35847 7.73782 8.0756ZM7.77285 15.0277C7.48998 15.2913 7.4743 15.7342 7.73782 16.0171C8.00135 16.2999 8.44429 16.3156 8.72715 16.0521L9.97715 14.8876C10.26 14.624 10.2757 14.1811 10.0122 13.8982C9.74865 13.6154 9.30571 13.5997 9.02285 13.8632L7.77285 15.0277ZM14.6334 12.0463C14.6334 11.6597 14.9468 11.3463 15.3334 11.3463H17C17.3866 11.3463 17.7 11.6597 17.7 12.0463C17.7 12.4329 17.3866 12.7463 17 12.7463H15.3334C14.9468 12.7463 14.6334 12.4329 14.6334 12.0463ZM7 11.3463C6.6134 11.3463 6.3 11.6597 6.3 12.0463C6.3 12.4329 6.6134 12.7463 7 12.7463H8.66667C9.05327 12.7463 9.36667 12.4329 9.36667 12.0463C9.36667 11.6597 9.05327 11.3463 8.66667 11.3463H7Z" fill="#222628"/>
</svg>
