<svg width="24" height="24" viewBox="0 0 24 24" fill="none" xmlns="http://www.w3.org/2000/svg">
<path fill-rule="evenodd" clip-rule="evenodd" d="M2 12C2 8.26154 2 6.3923 2.80385 5C3.33046 4.08788 4.08788 3.33046 5 2.80385C6.3923 2 8.26154 2 12 2C15.7385 2 17.6077 2 19 2.80385C19.9121 3.33046 20.6695 4.08788 21.1962 5C22 6.3923 22 8.26154 22 12C22 15.7385 22 17.6077 21.1962 19C20.6695 19.9121 19.9121 20.6695 19 21.1962C17.6077 22 15.7385 22 12 22C8.26154 22 6.3923 22 5 21.1962C4.08788 20.6695 3.33046 19.9121 2.80385 19C2 17.6077 2 15.7385 2 12ZM12.7833 7.32777C12.7833 7.76039 12.4326 8.1111 12 8.1111C11.5674 8.1111 11.2167 7.76039 11.2167 7.32777C11.2167 6.89514 11.5674 6.54443 12 6.54443C12.4326 6.54443 12.7833 6.89514 12.7833 7.32777ZM12.7 10.3333C12.7 9.9467 12.3866 9.6333 12 9.6333C11.6134 9.6333 11.3 9.9467 11.3 10.3333V15.8889C11.3 16.2755 11.6134 16.5889 12 16.5889C12.3866 16.5889 12.7 16.2755 12.7 15.8889V10.3333Z" fill="#222628"/>
</svg>
