<svg width="24" height="24" viewBox="0 0 24 24" fill="none" xmlns="http://www.w3.org/2000/svg">
<path fill-rule="evenodd" clip-rule="evenodd" d="M22 12C22 17.5228 17.5228 22 12 22C6.47715 22 2 17.5228 2 12C2 6.47715 6.47715 2 12 2C17.5228 2 22 6.47715 22 12ZM12.7 7.7C12.7 8.0866 12.3866 8.4 12 8.4C11.6134 8.4 11.3 8.0866 11.3 7.7C11.3 7.3134 11.6134 7 12 7C12.3866 7 12.7 7.3134 12.7 7.7ZM12.7 11C12.7 10.6134 12.3866 10.3 12 10.3C11.6134 10.3 11.3 10.6134 11.3 11V17C11.3 17.3866 11.6134 17.7 12 17.7C12.3866 17.7 12.7 17.3866 12.7 17V11Z" fill="#222628"/>
</svg>
