<svg width="24" height="24" viewBox="0 0 24 24" fill="none" xmlns="http://www.w3.org/2000/svg">
<path fill-rule="evenodd" clip-rule="evenodd" d="M2 12C2 8.26154 2 6.3923 2.80385 5C3.33046 4.08788 4.08788 3.33046 5 2.80385C6.3923 2 8.26154 2 12 2C15.7385 2 17.6077 2 19 2.80385C19.9121 3.33046 20.6695 4.08788 21.1962 5C22 6.3923 22 8.26154 22 12C22 15.7385 22 17.6077 21.1962 19C20.6695 19.9121 19.9121 20.6695 19 21.1962C17.6077 22 15.7385 22 12 22C8.26154 22 6.3923 22 5 21.1962C4.08788 20.6695 3.33046 19.9121 2.80385 19C2 17.6077 2 15.7385 2 12ZM12 8.7C10.1775 8.7 8.7 10.1775 8.7 12C8.7 13.8225 10.1775 15.3 12 15.3C13.8225 15.3 15.3 13.8225 15.3 12C15.3 10.1775 13.8225 8.7 12 8.7ZM7.3 12C7.3 9.40426 9.40426 7.3 12 7.3C14.5957 7.3 16.7 9.40426 16.7 12C16.7 14.5957 14.5957 16.7 12 16.7C9.40426 16.7 7.3 14.5957 7.3 12ZM17 6.75C17.4142 6.75 17.75 6.41421 17.75 6C17.75 5.58579 17.4142 5.25 17 5.25C16.5858 5.25 16.25 5.58579 16.25 6C16.25 6.41421 16.5858 6.75 17 6.75Z" fill="#222628"/>
</svg>
