<svg width="24" height="24" viewBox="0 0 24 24" fill="none" xmlns="http://www.w3.org/2000/svg">
<path fill-rule="evenodd" clip-rule="evenodd" d="M2.80385 5C2 6.3923 2 8.26154 2 12C2 15.7385 2 17.6077 2.80385 19C3.33046 19.9121 4.08788 20.6695 5 21.1962C6.3923 22 8.26154 22 12 22C15.7385 22 17.6077 22 19 21.1962C19.9121 20.6695 20.6695 19.9121 21.1962 19C22 17.6077 22 15.7385 22 12C22 8.26154 22 6.3923 21.1962 5C20.6695 4.08788 19.9121 3.33046 19 2.80385C17.6077 2 15.7385 2 12 2C8.26154 2 6.3923 2 5 2.80385C4.08788 3.33046 3.33046 4.08788 2.80385 5ZM10.6 12.5C10.6 13.6598 9.6598 14.6 8.5 14.6C7.3402 14.6 6.4 13.6598 6.4 12.5C6.4 11.3402 7.3402 10.4 8.5 10.4C9.6598 10.4 10.6 11.3402 10.6 12.5ZM11.93 13.2C11.6057 14.7976 10.1933 16 8.5 16C6.567 16 5 14.433 5 12.5C5 10.567 6.567 9 8.5 9C10.1933 9 11.6057 10.2024 11.93 11.8H15.8H16.7H18.5C18.8866 11.8 19.2 12.1134 19.2 12.5C19.2 12.8866 18.8866 13.2 18.5 13.2H18.1967C18.1989 13.233 18.2 13.2662 18.2 13.2998V14C18.2 14.3866 17.8866 14.7 17.5 14.7C17.1134 14.7 16.8 14.3866 16.8 14V13.2998C16.8 13.2448 16.7555 13.2 16.7 13.2H15.8C15.7448 13.2 15.7 13.2448 15.7 13.3V15C15.7 15.3866 15.3866 15.7 15 15.7C14.6134 15.7 14.3 15.3866 14.3 15L14.3 13.3C14.3 13.2664 14.3011 13.2331 14.3033 13.2H11.93Z" fill="#222628"/>
</svg>
