<svg width="24" height="24" viewBox="0 0 24 24" fill="none" xmlns="http://www.w3.org/2000/svg">
<path d="M3 12.2C3 9.20021 3 7.70032 3.76393 6.64886C4.01065 6.30928 4.30928 6.01065 4.64886 5.76393C5.70032 5 7.20021 5 10.2 5H13.8C16.7998 5 18.2997 5 19.3511 5.76393C19.6907 6.01065 19.9894 6.30928 20.2361 6.64886C21 7.70032 21 9.20021 21 12.2V13.4C21 14.8999 21 15.6498 20.618 16.1756C20.4947 16.3454 20.3454 16.4947 20.1756 16.618C19.6498 17 18.8999 17 17.4 17H6.6C5.10011 17 4.35016 17 3.82443 16.618C3.65464 16.4947 3.50533 16.3454 3.38197 16.1756C3 15.6498 3 14.8999 3 13.4V12.2Z" fill="#222628"/>
<path fill-rule="evenodd" clip-rule="evenodd" d="M10.1695 4.5H13.8305C15.3046 4.5 16.4517 4.49999 17.36 4.5984C18.284 4.6985 19.0199 4.90521 19.645 5.35942C20.0271 5.63698 20.363 5.97294 20.6406 6.35497C21.0948 6.98014 21.3015 7.71603 21.4016 8.63995C21.5 9.54825 21.5 10.6954 21.5 12.1695V13.4289C21.5 14.1543 21.5 14.7393 21.4493 15.207C21.397 15.6902 21.2858 16.1072 21.0225 16.4695C20.8683 16.6817 20.6817 16.8683 20.4695 17.0225C20.1072 17.2858 19.6902 17.397 19.207 17.4493C18.7393 17.5 18.1543 17.5 17.4289 17.5H6.57113C5.84569 17.5 5.26073 17.5 4.79305 17.4493C4.30982 17.397 3.89284 17.2858 3.53054 17.0225C3.3183 16.8683 3.13166 16.6817 2.97746 16.4695C2.71423 16.1072 2.60301 15.6902 2.55066 15.207C2.49998 14.7393 2.49999 14.1543 2.5 13.4289L2.5 12.1695C2.5 10.6954 2.49999 9.54826 2.5984 8.63995C2.6985 7.71603 2.90521 6.98014 3.35942 6.35497C3.63698 5.97294 3.97294 5.63698 4.35497 5.35942C4.98014 4.90521 5.71603 4.6985 6.63995 4.5984C7.54826 4.49999 8.69543 4.5 10.1695 4.5ZM6.74766 5.59258C5.90883 5.68347 5.36904 5.85872 4.94275 6.16844C4.64562 6.38432 4.38432 6.64562 4.16844 6.94275C3.85872 7.36904 3.68347 7.90883 3.59258 8.74766C3.50069 9.59586 3.5 10.689 3.5 12.2V13.4C3.5 14.1611 3.50069 14.6917 3.54484 15.0992C3.58797 15.4974 3.66774 15.7183 3.78647 15.8817C3.87899 16.009 3.99098 16.121 4.11832 16.2135C4.28175 16.3323 4.50261 16.412 4.90076 16.4552C5.30827 16.4993 5.83892 16.5 6.6 16.5H17.4C18.1611 16.5 18.6917 16.4993 19.0992 16.4552C19.4974 16.412 19.7183 16.3323 19.8817 16.2135C20.009 16.121 20.121 16.009 20.2135 15.8817C20.3323 15.7183 20.412 15.4974 20.4552 15.0992C20.4993 14.6917 20.5 14.1611 20.5 13.4V12.2C20.5 10.689 20.4993 9.59586 20.4074 8.74766C20.3165 7.90883 20.1413 7.36904 19.8316 6.94275C19.6157 6.64562 19.3544 6.38432 19.0572 6.16844C18.631 5.85872 18.0912 5.68347 17.2523 5.59258C16.4041 5.50069 15.311 5.5 13.8 5.5H10.2C8.68897 5.5 7.59586 5.50069 6.74766 5.59258Z" fill="#222628"/>
<path fill-rule="evenodd" clip-rule="evenodd" d="M3.01839 17.3C2.62163 17.3 2.29999 17.6217 2.29999 18.0185C2.29999 18.9472 3.05286 19.7 3.98158 19.7H20.0192C20.9475 19.7 21.7 18.9475 21.7 18.0193C21.7 17.6221 21.378 17.3 20.9808 17.3H3.01839ZM11.5 17.5999C11.1134 17.5999 10.8 17.9133 10.8 18.2999C10.8 18.6865 11.1134 18.9999 11.5 18.9999H12.5C12.8866 18.9999 13.2 18.6865 13.2 18.2999C13.2 17.9133 12.8866 17.5999 12.5 17.5999H11.5Z" fill="#222628"/>
</svg>
