<svg width="24" height="24" viewBox="0 0 24 24" fill="none" xmlns="http://www.w3.org/2000/svg">
<path fill-rule="evenodd" clip-rule="evenodd" d="M12 23C14 23 21 17.75 21 11.45C21 5.15 16.9706 2 12 2C7.02944 2 3 5.15 3 11.45C3 17.75 10 23 12 23ZM9.45005 10.25C9.45005 8.84172 10.5917 7.70005 12 7.70005C13.4084 7.70005 14.55 8.84172 14.55 10.25C14.55 11.6584 13.4084 12.8 12 12.8C10.5917 12.8 9.45005 11.6584 9.45005 10.25ZM12 6.30005C9.81852 6.30005 8.05005 8.06852 8.05005 10.25C8.05005 12.4316 9.81852 14.2 12 14.2C14.1816 14.2 15.95 12.4316 15.95 10.25C15.95 8.06852 14.1816 6.30005 12 6.30005Z" fill="#222628"/>
</svg>
