<svg width="24" height="24" viewBox="0 0 24 24" fill="none" xmlns="http://www.w3.org/2000/svg">
<path fill-rule="evenodd" clip-rule="evenodd" d="M2.80385 5C2 6.3923 2 8.26154 2 12C2 15.7385 2 17.6077 2.80385 19C3.33046 19.9121 4.08788 20.6695 5 21.1962C6.3923 22 8.26154 22 12 22C15.7385 22 17.6077 22 19 21.1962C19.9121 20.6695 20.6695 19.9121 21.1962 19C22 17.6077 22 15.7385 22 12C22 8.26154 22 6.3923 21.1962 5C20.6695 4.08788 19.9121 3.33046 19 2.80385C17.6077 2 15.7385 2 12 2C8.26154 2 6.3923 2 5 2.80385C4.08788 3.33046 3.33046 4.08788 2.80385 5ZM9.5 10.3461C9.5 8.90982 10.5636 8 11.9999 8C13.4363 8 14.7014 8.90982 14.7014 10.3461C14.7014 11.5 14.3149 12.0335 13.6175 12.5L13.5098 14.5202C13.5045 14.6201 13.518 14.7198 13.5315 14.8192C13.5346 14.8418 13.5376 14.8644 13.5405 14.887C13.6171 15.4964 13.1053 16.0676 12.6175 16.0676H11.5813C10.9283 16.0676 10.4405 15.479 10.5422 14.8593C10.5447 14.8444 10.5472 14.8295 10.5498 14.8145C10.5647 14.7261 10.5797 14.6373 10.5798 14.5477L10.5813 12.5C9.88392 12.0335 9.49994 11.5 9.5 10.3461Z" fill="#222628"/>
</svg>
