<svg width="24" height="24" viewBox="0 0 24 24" fill="none" xmlns="http://www.w3.org/2000/svg">
<path fill-rule="evenodd" clip-rule="evenodd" d="M8.19998 9.50221L8.20004 9.50055L8.20078 9.47492C8.20168 9.45018 8.20355 9.41069 8.20742 9.35855C8.21519 9.25405 8.23088 9.10019 8.26244 8.91373C8.32611 8.5375 8.45136 8.04647 8.6934 7.56387C8.93412 7.08393 9.28337 6.62543 9.79285 6.28542C10.2978 5.94843 11.0014 5.70005 12 5.70005C12.9986 5.70005 13.7011 5.94843 14.2047 6.28509C14.7127 6.62476 15.0604 7.08282 15.2996 7.56248C15.5402 8.04483 15.6641 8.53568 15.7267 8.91187C15.7577 9.0983 15.773 9.25213 15.7805 9.35663C15.7842 9.40876 15.786 9.44825 15.7868 9.47298L15.7875 9.49861L15.7875 9.50143L15.7875 9.5009C15.7875 9.50059 15.7875 9.50027 16.4875 9.50005L15.7875 9.50027C15.7875 9.50098 15.7875 9.50169 15.7875 9.50241C15.7888 9.88802 16.1019 10.2002 16.4877 10.2C16.8743 10.1999 17.1876 9.88643 17.1875 9.49983L16.5177 9.50004C17.1875 9.49982 17.1875 9.49946 17.1875 9.49909L17.1875 9.49825L17.1875 9.49626L17.1875 9.49103L17.1873 9.47567C17.1871 9.46328 17.1867 9.44665 17.186 9.42604C17.1846 9.38485 17.182 9.32767 17.1769 9.25675C17.1668 9.11515 17.1469 8.91742 17.1077 8.68198C17.0299 8.21441 16.873 7.58026 16.5525 6.93761C16.2306 6.29228 15.7368 5.62534 14.9828 5.12126C14.2244 4.61417 13.2445 4.30005 12 4.30005C10.7555 4.30005 9.77506 4.61417 9.01571 5.12092C8.26087 5.62467 7.7655 6.29117 7.44198 6.93623C7.11979 7.57862 6.96119 8.2126 6.88207 8.68012C6.84223 8.91553 6.82179 9.11324 6.81127 9.25483C6.806 9.32574 6.8032 9.38292 6.8017 9.42411C6.80095 9.44471 6.80053 9.46135 6.80029 9.47373L6.80006 9.48909L6.80001 9.49432L6.8 9.49632L6.79999 9.49716C6.79999 9.49753 6.79999 9.49788 7.46978 9.49996L6.79999 9.49789C6.7988 9.88449 7.11123 10.1989 7.49783 10.2C7.88422 10.2012 8.19845 9.88914 8.19998 9.50284L8.19998 9.50414L8.19998 9.50337L8.19998 9.50284L8.19998 9.50221Z" fill="#222628"/>
<path fill-rule="evenodd" clip-rule="evenodd" d="M3.45089 13.5892C3.41684 14.0022 3.45839 14.5009 3.54151 15.4983C3.61308 16.3571 3.64886 16.7865 3.7345 17.1492C4.20433 19.1387 5.83792 20.6418 7.85956 20.9448C8.22805 21 8.65896 21 9.52078 21H14.4792C15.341 21 15.7719 21 16.1404 20.9448C18.1621 20.6418 19.7956 19.1387 20.2655 17.1492C20.3511 16.7866 20.3869 16.3571 20.4585 15.4984L20.4585 15.4983L20.4585 15.4981C20.5416 14.5009 20.5831 14.0022 20.5491 13.5892C20.361 11.3076 18.6473 9.44516 16.3892 9.06823C15.9804 9 15.48 9 14.4792 9H9.52078C8.51996 9 8.01955 9 7.61078 9.06823C5.35265 9.44516 3.63898 11.3076 3.45089 13.5892ZM11.2999 17.0001C11.2999 17.3867 11.6133 17.7001 11.9999 17.7001C12.3865 17.7001 12.6999 17.3867 12.6999 17.0001V15.0001C12.6999 14.6135 12.3865 14.3001 11.9999 14.3001C11.6133 14.3001 11.2999 14.6135 11.2999 15.0001V17.0001Z" fill="#222628"/>
</svg>
