<svg width="24" height="24" viewBox="0 0 24 24" fill="none" xmlns="http://www.w3.org/2000/svg">
<path fill-rule="evenodd" clip-rule="evenodd" d="M4.15002 12.1501C4.15002 11.7635 4.46343 11.4501 4.85002 11.4501H12.85V12.8501H4.85002C4.46343 12.8501 4.15002 12.5367 4.15002 12.1501Z" fill="#222628"/>
<path fill-rule="evenodd" clip-rule="evenodd" d="M13.3501 3.15015H16.5273C18.0441 3.15015 19.3203 4.28104 19.4658 5.7908C19.6476 7.67604 19.85 10.2109 19.85 12.1501C19.85 14.0893 19.6476 16.6243 19.4658 18.5095C19.3203 20.0193 18.0441 21.1501 16.5273 21.1501H13.3501C12.7978 21.1501 12.35 20.7024 12.35 20.1501V15.8781C12.5531 15.9366 12.781 15.8859 12.941 15.7259L16.0925 12.5744C16.3268 12.3401 16.3268 11.9602 16.0925 11.7259L12.941 8.57441C12.781 8.41439 12.5531 8.36365 12.35 8.4222V4.15015C12.35 3.59786 12.7978 3.15015 13.3501 3.15015ZM14.1197 12.8501H12.35V14.6198L14.1197 12.8501ZM12.35 9.68045L14.1197 11.4501H12.35V9.68045Z" fill="#222628"/>
</svg>
