<svg width="24" height="24" viewBox="0 0 24 24" fill="none" xmlns="http://www.w3.org/2000/svg">
<path fill-rule="evenodd" clip-rule="evenodd" d="M18.8257 12.6744C18.5914 12.9087 18.2115 12.9087 17.9772 12.6744L14.8257 9.5229C14.5914 9.28858 14.5914 8.90868 14.8257 8.67437C15.06 8.44005 15.4399 8.44005 15.6743 8.67437L18.8257 11.8258C19.06 12.0602 19.06 12.4401 18.8257 12.6744Z" fill="#222628"/>
<path fill-rule="evenodd" clip-rule="evenodd" d="M18.8256 11.8256C18.5913 11.5913 18.2114 11.5913 17.9771 11.8256L14.8256 14.9771C14.5913 15.2114 14.5913 15.5913 14.8256 15.8256C15.0599 16.0599 15.4398 16.0599 15.6742 15.8256L18.8256 12.6742C19.0599 12.4398 19.0599 12.0599 18.8256 11.8256Z" fill="#222628"/>
<path fill-rule="evenodd" clip-rule="evenodd" d="M17.95 12.95L11.55 12.95L11.55 11.55L17.95 11.55L17.95 12.95Z" fill="#222628"/>
<path fill-rule="evenodd" clip-rule="evenodd" d="M11.2499 21.25L8.07271 21.25C6.55595 21.25 5.27977 20.1191 5.13421 18.6093C4.95244 16.7241 4.75 14.1892 4.75 12.25C4.75 10.3108 4.95244 7.77589 5.13421 5.89065C5.27977 4.38089 6.55595 3.25 8.07271 3.25L11.2499 3.25C11.8022 3.25 12.25 3.69772 12.25 4.25L12.25 11.55L9.25 11.55C8.8634 11.55 8.55 11.8634 8.55 12.25C8.55 12.6366 8.8634 12.95 9.25 12.95L12.25 12.95L12.25 20.25C12.25 20.8023 11.8022 21.25 11.2499 21.25Z" fill="#222628"/>
</svg>
