<svg width="24" height="24" viewBox="0 0 24 24" fill="none" xmlns="http://www.w3.org/2000/svg">
<path fill-rule="evenodd" clip-rule="evenodd" d="M22.495 14.0051C22.7683 14.2784 22.7683 14.7217 22.495 14.995L19.495 17.995C19.2216 18.2684 18.7784 18.2684 18.505 17.995C18.2316 17.7217 18.2316 17.2784 18.505 17.0051L21.505 14.0051C21.7784 13.7317 22.2216 13.7317 22.495 14.0051Z" fill="#222628"/>
<path fill-rule="evenodd" clip-rule="evenodd" d="M1.50501 14.0051C1.23164 14.2784 1.23164 14.7217 1.50501 14.995L4.50501 17.995C4.77837 18.2684 5.22159 18.2684 5.49496 17.995C5.76832 17.7217 5.76832 17.2784 5.49496 17.0051L2.49496 14.0051C2.22159 13.7317 1.77837 13.7317 1.50501 14.0051Z" fill="#222628"/>
<path fill-rule="evenodd" clip-rule="evenodd" d="M22.495 8.50507C22.7683 8.77844 22.7683 9.22166 22.495 9.49502L19.495 12.495C19.2216 12.7684 18.7784 12.7684 18.505 12.495C18.2316 12.2217 18.2316 11.7784 18.505 11.5051L21.505 8.50507C21.7784 8.23171 22.2216 8.23171 22.495 8.50507Z" fill="#222628"/>
<path fill-rule="evenodd" clip-rule="evenodd" d="M1.50501 8.50507C1.23164 8.77844 1.23164 9.22166 1.50501 9.49502L4.50501 12.495C4.77837 12.7684 5.22159 12.7684 5.49496 12.495C5.76832 12.2217 5.76832 11.7784 5.49496 11.5051L2.49496 8.50507C2.22159 8.23171 1.77837 8.23171 1.50501 8.50507Z" fill="#222628"/>
<path fill-rule="evenodd" clip-rule="evenodd" d="M12.1665 7.02811L18.1665 8.0411C18.6477 8.12235 19 8.5391 19 9.02715V17.1512C19 17.4576 18.86 17.7465 18.605 17.9164C17.6659 18.5423 15.1413 20 12 20C8.85868 20 6.33411 18.5423 5.39497 17.9164C5.14001 17.7465 5 17.4576 5 17.1512V9.02715C5 8.5391 5.35229 8.12235 5.83352 8.0411L11.8335 7.02811C11.9437 7.00951 12.0563 7.00951 12.1665 7.02811ZM10 16.3C9.6134 16.3 9.3 16.6134 9.3 17C9.3 17.3866 9.6134 17.7 10 17.7H14C14.3866 17.7 14.7 17.3866 14.7 17C14.7 16.6134 14.3866 16.3 14 16.3H10Z" fill="#222628"/>
<path fill-rule="evenodd" clip-rule="evenodd" d="M11.7503 6.53509C11.9156 6.50718 12.0844 6.50718 12.2497 6.53509L18.2497 7.54808C18.9716 7.66995 19.5 8.29508 19.5 9.02715V17.1512C19.5 17.6079 19.2899 18.0608 18.8823 18.3324C17.9107 18.98 15.2863 20.5 12 20.5C8.7137 20.5 6.08933 18.98 5.11768 18.3324C4.71012 18.0608 4.5 17.6079 4.5 17.1512V9.02715C4.5 8.29508 5.02844 7.66995 5.75029 7.54808L11.7503 6.53509ZM12.0832 7.52114C12.0281 7.51183 11.9719 7.51183 11.9168 7.52114L5.91676 8.53412C5.67615 8.57475 5.5 8.78313 5.5 9.02715V17.1512C5.5 17.3072 5.56989 17.4321 5.67225 17.5003C6.57889 18.1045 9.00367 19.5 12 19.5C14.9963 19.5 17.4211 18.1045 18.3278 17.5003C18.4301 17.4321 18.5 17.3072 18.5 17.1512V9.02715C18.5 8.78313 18.3239 8.57475 18.0832 8.53412L12.0832 7.52114Z" fill="#222628"/>
</svg>
