<svg width="24" height="24" viewBox="0 0 24 24" fill="none" xmlns="http://www.w3.org/2000/svg">
<path d="M16.0632 1.71336L19.9222 14.7499C19.9652 14.8953 19.8827 15.0482 19.7375 15.0921C18.5912 15.4382 17.3864 15.5474 16.1965 15.413L8.62336 14.5573L10.5089 19.2857C10.7307 19.8419 10.4173 20.467 9.83887 20.622L8.53778 20.9706C8.05965 21.0988 7.55973 20.8578 7.36211 20.404L5.01455 15.0128L3.72665 15.3579C3.19318 15.5009 2.64484 15.1843 2.5019 14.6508L1.63917 11.4311C1.49623 10.8976 1.81281 10.3493 2.34628 10.2063L5.88801 9.25733L12.6295 3.22599C13.5296 2.4207 14.6123 1.84679 15.784 1.55389C15.9048 1.5237 16.0279 1.59402 16.0632 1.71336Z" fill="#222628"/>
<path d="M20.5065 7.96681C20.215 6.87934 19.5292 6.54099 18.9486 6.46328C18.418 6.39229 18.1093 6.9383 18.2479 7.45531L18.8062 9.53908C18.9447 10.0561 19.4851 10.3746 19.909 10.0479C20.3731 9.69023 20.7979 9.0543 20.5065 7.96681Z" fill="#222628"/>
</svg>
