<svg width="24" height="24" viewBox="0 0 24 24" fill="none" xmlns="http://www.w3.org/2000/svg">
<path d="M14 6C14 5.53563 14 5.30344 14.022 5.10812C14.2048 3.48545 15.4855 2.20484 17.1081 2.02201C17.3034 2 17.5356 2 18 2C18.4644 2 18.6966 2 18.8919 2.02201C20.5145 2.20484 21.7952 3.48545 21.978 5.10812C22 5.30344 22 5.53563 22 6C22 6.46437 22 6.69656 21.978 6.89188C21.7952 8.51455 20.5145 9.79516 18.8919 9.97799C18.6966 10 18.4644 10 18 10C17.5356 10 17.3034 10 17.1081 9.97799C15.4855 9.79516 14.2048 8.51455 14.022 6.89188C14 6.69656 14 6.46437 14 6Z" fill="#222628"/>
<path d="M14 17C14 16.5356 14 16.3034 14.022 16.1081C14.2048 14.4855 15.4855 13.2048 17.1081 13.022C17.3034 13 17.5356 13 18 13C18.4644 13 18.6966 13 18.8919 13.022C20.5145 13.2048 21.7952 14.4855 21.978 16.1081C22 16.3034 22 16.5356 22 17C22 17.4644 22 17.6966 21.978 17.8919C21.7952 19.5145 20.5145 20.7952 18.8919 20.978C18.6966 21 18.4644 21 18 21C17.5356 21 17.3034 21 17.1081 20.978C15.4855 20.7952 14.2048 19.5145 14.022 17.8919C14 17.6966 14 17.4644 14 17Z" fill="#222628"/>
<path d="M2 6C2 5.53563 2 5.30344 2.02201 5.10812C2.20484 3.48545 3.48545 2.20484 5.10812 2.02201C5.30344 2 5.53563 2 6 2C6.46437 2 6.69656 2 6.89188 2.02201C8.51455 2.20484 9.79516 3.48545 9.97799 5.10812C10 5.30344 10 5.53563 10 6C10 6.46437 10 6.69656 9.97799 6.89188C9.79516 8.51455 8.51455 9.79516 6.89188 9.97799C6.69656 10 6.46437 10 6 10C5.53563 10 5.30344 10 5.10812 9.97799C3.48545 9.79516 2.20484 8.51455 2.02201 6.89188C2 6.69656 2 6.46437 2 6Z" fill="#222628"/>
<path d="M2 17C2 16.5356 2 16.3034 2.02201 16.1081C2.20484 14.4855 3.48545 13.2048 5.10812 13.022C5.30344 13 5.53563 13 6 13C6.46437 13 6.69656 13 6.89188 13.022C8.51455 13.2048 9.79516 14.4855 9.97799 16.1081C10 16.3034 10 16.5356 10 17C10 17.4644 10 17.6966 9.97799 17.8919C9.79516 19.5145 8.51455 20.7952 6.89188 20.978C6.69656 21 6.46437 21 6 21C5.53563 21 5.30344 21 5.10812 20.978C3.48545 20.7952 2.20484 19.5145 2.02201 17.8919C2 17.6966 2 17.4644 2 17Z" fill="#222628"/>
</svg>
