<svg width="24" height="24" viewBox="0 0 24 24" fill="none" xmlns="http://www.w3.org/2000/svg">
<path fill-rule="evenodd" clip-rule="evenodd" d="M2.54497 6.73005C2 7.79961 2 9.19974 2 12C2 14.8003 2 16.2004 2.54497 17.27C3.02433 18.2108 3.78924 18.9757 4.73005 19.455C5.79961 20 7.19974 20 10 20H14C16.8003 20 18.2004 20 19.27 19.455C20.2108 18.9757 20.9757 18.2108 21.455 17.27C22 16.2004 22 14.8003 22 12C22 9.19974 22 7.79961 21.455 6.73005C20.9757 5.78924 20.2108 5.02433 19.27 4.54497C18.2004 4 16.8003 4 14 4H10C7.19974 4 5.79961 4 4.73005 4.54497C3.78924 5.02433 3.02433 5.78924 2.54497 6.73005ZM8.3254 9.62038C8.11574 9.44067 7.80009 9.46495 7.62038 9.67461C7.44067 9.88428 7.46495 10.1999 7.67461 10.3796L7.71493 10.4141L7.82789 10.5102C7.92528 10.5928 8.0648 10.7107 8.23373 10.8521C8.57135 11.1348 9.02753 11.5123 9.50016 11.8904C9.97139 12.2674 10.465 12.6498 10.8757 12.9397C11.0801 13.084 11.2728 13.2117 11.4365 13.3052C11.518 13.3518 11.6014 13.3952 11.6815 13.4283C11.7482 13.4559 11.8665 13.5 12 13.5C12.1335 13.5 12.2518 13.4559 12.3185 13.4283C12.3986 13.3952 12.4821 13.3518 12.5635 13.3052C12.7273 13.2117 12.9199 13.084 13.1243 12.9397C13.5351 12.6498 14.0286 12.2674 14.4999 11.8904C14.9725 11.5123 15.4287 11.1348 15.7663 10.8521C15.9352 10.7107 16.0747 10.5928 16.1721 10.5102L16.2851 10.4141L16.3247 10.3803C16.5343 10.2006 16.5593 9.88428 16.3796 9.67461C16.1999 9.46495 15.8843 9.44067 15.6746 9.62038L15.6361 9.65331L15.5252 9.74766C15.4292 9.82909 15.2914 9.94556 15.1244 10.0854C14.7901 10.3652 14.34 10.7377 13.8752 11.1096C13.4089 11.4826 12.9337 11.8502 12.5476 12.1228C12.3536 12.2597 12.1907 12.3665 12.0674 12.437C12.0417 12.4516 12.0193 12.4638 12 12.4739C11.9807 12.4638 11.9583 12.4516 11.9326 12.437C11.8093 12.3665 11.6464 12.2597 11.4524 12.1228C11.0663 11.8502 10.5911 11.4826 10.1249 11.1096C9.65999 10.7377 9.20992 10.3652 8.87566 10.0854C8.70866 9.94556 8.57083 9.82909 8.47486 9.74766L8.36394 9.65331L8.3254 9.62038Z" fill="#222628"/>
</svg>
