<svg width="24" height="24" viewBox="0 0 24 24" fill="none" xmlns="http://www.w3.org/2000/svg">
<path fill-rule="evenodd" clip-rule="evenodd" d="M12.6999 18.3V22C12.6999 22.3866 12.3865 22.7 11.9999 22.7C11.6133 22.7 11.2999 22.3866 11.2999 22V18.3H12.6999Z" fill="#222628"/>
<path d="M5.6585 14.2C6.28591 13.8896 6.6273 14.6895 6.6273 14.6895L6.63749 14.7089C6.64751 14.7276 6.66418 14.7579 6.68767 14.7983C6.73469 14.8791 6.80874 14.9994 6.91116 15.1462C7.11658 15.4405 7.43259 15.8358 7.8691 16.231C8.73677 17.0166 10.0759 17.8 11.9999 17.8C13.9239 17.8 15.263 17.0166 16.1307 16.231C16.5672 15.8358 16.8832 15.4405 17.0886 15.1462C17.1911 14.9994 17.2651 14.8791 17.3121 14.7983C17.3356 14.7579 17.3523 14.7276 17.3623 14.7089L17.3723 14.6898C17.544 14.3437 17.964 14.2012 18.3103 14.3726C18.6568 14.544 18.7987 14.9639 18.6273 15.3104L18.6266 15.3118L18.6258 15.3134L18.6236 15.3178L18.6173 15.3302C18.6121 15.3402 18.6052 15.3534 18.5965 15.3697C18.5791 15.4022 18.5544 15.4471 18.5222 15.5024C18.4578 15.613 18.3632 15.7661 18.2366 15.9475C17.984 16.3095 17.6003 16.7891 17.0703 17.2689C16.005 18.2333 14.3442 19.2 11.9999 19.2C9.65558 19.2 7.99474 18.2333 6.92948 17.2689C6.39953 16.7891 6.01583 16.3095 5.76317 15.9475C5.63656 15.7661 5.54197 15.613 5.47761 15.5024C5.44541 15.4471 5.4207 15.4022 5.40327 15.3697C5.39456 15.3534 5.38765 15.3402 5.38253 15.3302L5.37618 15.3178L5.37401 15.3134L5.37317 15.3118C5.37317 15.3118 5.37295 15.3112 5.37253 15.3102C5.35647 15.2715 5.04698 14.5026 5.6585 14.2Z" fill="#222628"/>
<path d="M7.99988 7C7.99988 4.79086 9.79074 3 11.9999 3C14.209 3 15.9999 4.79086 15.9999 7V11C15.9999 13.2091 14.209 15 11.9999 15C9.79074 15 7.99988 13.2091 7.99988 11V7Z" fill="#222628"/>
</svg>
