<svg width="24" height="24" viewBox="0 0 24 24" fill="none" xmlns="http://www.w3.org/2000/svg">
<path fill-rule="evenodd" clip-rule="evenodd" d="M5.67412 3.77772C5 4.78661 5 6.19108 5 9V15C5 17.8089 5 19.2134 5.67412 20.2223C5.96596 20.659 6.34096 21.034 6.77772 21.3259C7.78661 22 9.19108 22 12 22C14.8089 22 16.2134 22 17.2223 21.3259C17.659 21.034 18.034 20.659 18.3259 20.2223C19 19.2134 19 17.8089 19 15V9C19 6.19108 19 4.78661 18.3259 3.77772C18.034 3.34096 17.659 2.96596 17.2223 2.67412C16.2134 2 14.8089 2 12 2C9.19108 2 7.78661 2 6.77772 2.67412C6.34096 2.96596 5.96596 3.34096 5.67412 3.77772ZM11.7 18.6C11.3134 18.6 11 18.9134 11 19.3C11 19.6866 11.3134 20 11.7 20H12.3C12.6866 20 13 19.6866 13 19.3C13 18.9134 12.6866 18.6 12.3 18.6H11.7Z" fill="#222628"/>
</svg>
