<svg width="24" height="24" viewBox="0 0 24 24" fill="none" xmlns="http://www.w3.org/2000/svg">
<path d="M2 10C2 7.19974 2 5.79961 2.54497 4.73005C3.02433 3.78924 3.78924 3.02433 4.73005 2.54497C5.79961 2 7.19974 2 10 2H14C16.8003 2 18.2004 2 19.27 2.54497C20.2108 3.02433 20.9757 3.78924 21.455 4.73005C22 5.79961 22 7.19974 22 10C22 12.8003 22 14.2004 21.455 15.27C20.9757 16.2108 20.2108 16.9757 19.27 17.455C18.2004 18 16.8003 18 14 18H10C7.19974 18 5.79961 18 4.73005 17.455C3.78924 16.9757 3.02433 16.2108 2.54497 15.27C2 14.2004 2 12.8003 2 10Z" fill="#222628"/>
<path fill-rule="evenodd" clip-rule="evenodd" d="M12 17.3C12.3866 17.3 12.7 17.6134 12.7 18V20.0149L16.2458 21.3446C16.5627 21.4634 16.7491 21.792 16.6888 22.1249C16.6284 22.4579 16.3384 22.7 16 22.7H7.99999C7.66157 22.7 7.37161 22.4579 7.31123 22.1249C7.25084 21.792 7.43733 21.4634 7.75421 21.3446L11.3 20.0149V18C11.3 17.6134 11.6134 17.3 12 17.3Z" fill="#222628"/>
</svg>
