<svg width="24" height="24" viewBox="0 0 24 24" fill="none" xmlns="http://www.w3.org/2000/svg">
<path fill-rule="evenodd" clip-rule="evenodd" d="M2.80385 5C2 6.3923 2 8.26154 2 12C2 15.7385 2 17.6077 2.80385 19C3.33046 19.9121 4.08788 20.6695 5 21.1962C6.3923 22 8.26154 22 12 22C15.7385 22 17.6077 22 19 21.1962C19.9121 20.6695 20.6695 19.9121 21.1962 19C22 17.6077 22 15.7385 22 12C22 8.26154 22 6.3923 21.1962 5C20.6695 4.08788 19.9121 3.33046 19 2.80385C17.6077 2 15.7385 2 12 2C8.26154 2 6.3923 2 5 2.80385C4.08788 3.33046 3.33046 4.08788 2.80385 5ZM7.55557 13.1111C8.16922 13.1111 8.66668 12.6137 8.66668 12C8.66668 11.3864 8.16922 10.8889 7.55557 10.8889C6.94192 10.8889 6.44446 11.3864 6.44446 12C6.44446 12.6137 6.94192 13.1111 7.55557 13.1111ZM13.1111 12C13.1111 12.6137 12.6137 13.1111 12 13.1111C11.3864 13.1111 10.8889 12.6137 10.8889 12C10.8889 11.3864 11.3864 10.8889 12 10.8889C12.6137 10.8889 13.1111 11.3864 13.1111 12ZM16.4445 13.1111C17.0581 13.1111 17.5556 12.6137 17.5556 12C17.5556 11.3864 17.0581 10.8889 16.4445 10.8889C15.8308 10.8889 15.3334 11.3864 15.3334 12C15.3334 12.6137 15.8308 13.1111 16.4445 13.1111Z" fill="#222628"/>
</svg>
