<svg width="24" height="24" viewBox="0 0 24 24" fill="none" xmlns="http://www.w3.org/2000/svg">
<path fill-rule="evenodd" clip-rule="evenodd" d="M4.04401 8.21625C4 8.60689 4 9.07126 4 10V14C4 14.9287 4 15.3931 4.04401 15.7838C4.40968 19.0291 6.97091 21.5903 10.2162 21.956C10.6069 22 11.0713 22 12 22C12.9287 22 13.3931 22 13.7838 21.956C17.0291 21.5903 19.5903 19.0291 19.956 15.7838C20 15.3931 20 14.9287 20 14V10C20 9.07126 20 8.60689 19.956 8.21625C19.5903 4.97091 17.0291 2.40968 13.7838 2.04401C13.3931 2 12.9287 2 12 2C11.0713 2 10.6069 2 10.2162 2.04401C6.97091 2.40968 4.40968 4.97091 4.04401 8.21625ZM12.7 6C12.7 5.6134 12.3866 5.3 12 5.3C11.6134 5.3 11.3 5.6134 11.3 6V9C11.3 9.3866 11.6134 9.7 12 9.7C12.3866 9.7 12.7 9.3866 12.7 9V6Z" fill="#222628"/>
</svg>
