<svg width="24" height="24" viewBox="0 0 24 24" fill="none" xmlns="http://www.w3.org/2000/svg">
<path d="M16.12 9.83984C17.2845 10.7132 17.8667 11.1499 17.9743 11.7232C18.0086 11.906 18.0086 12.0936 17.9743 12.2764C17.8667 12.8498 17.2845 13.2865 16.12 14.1598L15.32 14.7598C13.6606 16.0044 12.8309 16.6267 12.1402 16.4561C11.9244 16.4027 11.7231 16.3021 11.5509 16.1614C11 15.7113 11 14.6741 11 12.5998L11 11.3998C11 9.32556 11 8.28842 11.5509 7.83829C11.7231 7.6976 11.9244 7.59696 12.1402 7.54363C12.8309 7.37299 13.6606 7.99527 15.32 9.23984L16.12 9.83984Z" fill="#222628"/>
<path d="M10.12 9.83984C11.2845 10.7132 11.8667 11.1499 11.9743 11.7232C12.0086 11.906 12.0086 12.0936 11.9743 12.2764C11.8667 12.8498 11.2845 13.2865 10.12 14.1598L9.32 14.7598C7.66058 16.0044 6.83087 16.6267 6.14022 16.4561C5.92437 16.4027 5.72307 16.3021 5.5509 16.1614C5 15.7113 5 14.6741 5 12.5998L5 11.3998C5 9.32556 5 8.28842 5.5509 7.83829C5.72307 7.6976 5.92437 7.59696 6.14021 7.54363C6.83087 7.37299 7.66058 7.99527 9.32 9.23984L10.12 9.83984Z" fill="#222628"/>
</svg>
