<svg width="24" height="24" viewBox="0 0 24 24" fill="none" xmlns="http://www.w3.org/2000/svg">
<path d="M13.12 9.84008C14.2845 10.7134 14.8667 11.1501 14.9743 11.7235C15.0086 11.9063 15.0086 12.0939 14.9743 12.2767C14.8667 12.8501 14.2845 13.2867 13.12 14.1601L12.32 14.7601C10.6606 16.0046 9.83087 16.6269 9.14022 16.4563C8.92437 16.403 8.72307 16.3023 8.5509 16.1616C8 15.7115 8 14.6744 8 12.6001L8 11.4001C8 9.3258 8 8.28867 8.5509 7.83853C8.72307 7.69785 8.92437 7.5972 9.14022 7.54387C9.83087 7.37323 10.6606 7.99552 12.32 9.24008L13.12 9.84008Z" fill="#222628"/>
<path fill-rule="evenodd" clip-rule="evenodd" d="M15 6.30005C15.3866 6.30005 15.7 6.61345 15.7 7.00005V17C15.7 17.3866 15.3866 17.7 15 17.7C14.6134 17.7 14.3 17.3866 14.3 17V7.00005C14.3 6.61345 14.6134 6.30005 15 6.30005Z" fill="#222628"/>
</svg>
