<svg width="24" height="24" viewBox="0 0 24 24" fill="none" xmlns="http://www.w3.org/2000/svg">
<path d="M15.0101 6.3967C15.1191 5.86354 15.8809 5.86353 15.9899 6.3967L16.1975 7.41269C16.2376 7.60895 16.391 7.76233 16.5873 7.80244L17.6033 8.0101C18.1364 8.11907 18.1364 8.88087 17.6033 8.98984L16.5873 9.1975C16.391 9.23762 16.2376 9.39099 16.1975 9.58725L15.9899 10.6032C15.8809 11.1364 15.1191 11.1364 15.0101 10.6032L14.8025 9.58725C14.7624 9.39099 14.609 9.23762 14.4127 9.1975L13.3967 8.98984C12.8636 8.88087 12.8636 8.11907 13.3967 8.0101L14.4127 7.80244C14.609 7.76233 14.7624 7.60895 14.8025 7.41269L15.0101 6.3967Z" fill="#222628"/>
<path d="M18 4.96046C17.6381 4.70506 17.8981 4.13803 18.3278 4.24562L18.6829 4.33454C18.8382 4.37341 19.0017 4.31601 19.0985 4.18861L19.4008 3.79109C19.6593 3.45102 20.1994 3.69867 20.1104 4.1165L20.0064 4.60491C19.9731 4.76144 20.0362 4.92277 20.167 5.01504L20.4661 5.22612C20.828 5.48153 20.568 6.04855 20.1383 5.94096L19.7832 5.85204C19.6279 5.81317 19.4645 5.87057 19.3676 5.99797L19.0654 6.39549C18.8068 6.73556 18.2667 6.48791 18.3557 6.07009L18.4597 5.58168C18.4931 5.42515 18.4299 5.26382 18.2991 5.17154L18 4.96046Z" fill="#222628"/>
<path d="M10.5917 14C6.35607 8.6917 10.0001 3.5 10.0001 3.5C10.0001 3.5 6.18528 3.99999 4.06888 7.9785C0.551264 14.5911 5.00005 22 14.1218 20.9086C18.8837 20.3119 21.0001 16.4328 21.0001 16.4328C21.0001 16.4328 13.7834 18 10.5917 14Z" fill="#222628"/>
</svg>
