<svg width="24" height="24" viewBox="0 0 24 24" fill="none" xmlns="http://www.w3.org/2000/svg">
<path fill-rule="evenodd" clip-rule="evenodd" d="M3 11.2725C3 10.6293 3 10.1225 3.01955 9.69995L4.27433 9.69995H4.27433H4.27434C5.64572 9.69996 6.72848 9.69997 7.59229 9.61209C8.47598 9.5222 9.20784 9.33458 9.84647 8.90786C10.3597 8.56495 10.8003 8.12432 11.1432 7.61113C11.5699 6.9725 11.7575 6.24064 11.8474 5.35695C11.9353 4.49315 11.9353 3.4104 11.9353 2.03904V2.03901V2.00427C12.1867 2 12.4756 2 12.8177 2H13.8C16.7998 2 18.2997 2 19.3511 2.76393C19.6907 3.01065 19.9894 3.30928 20.2361 3.64886C21 4.70032 21 6.20021 21 9.2V14.8C21 17.7998 21 19.2997 20.2361 20.3511C19.9894 20.6907 19.6907 20.9893 19.3511 21.2361C18.2997 22 16.7998 22 13.8 22H10.2C7.20021 22 5.70032 22 4.64886 21.2361C4.30928 20.9893 4.01065 20.6907 3.76393 20.3511C3 19.2997 3 17.7998 3 14.8V11.2725ZM10.1399 2.31857C10.2691 2.26368 10.4011 2.21563 10.5353 2.17462C10.5351 3.5026 10.5311 4.46315 10.4546 5.21526C10.376 5.98825 10.2265 6.46307 9.97914 6.83333C9.73838 7.19366 9.429 7.50304 9.06868 7.7438C8.69842 7.9912 8.2236 8.14065 7.4506 8.21928C6.66591 8.2991 5.65433 8.29995 4.23529 8.29995H3.26225C3.34614 8.07985 3.4493 7.86757 3.57055 7.66561C3.94568 7.04076 4.5407 6.56967 5.73074 5.62749L5.73074 5.62748L5.73074 5.62748L8.3484 3.55503L8.3484 3.55502C9.21206 2.87124 9.64389 2.52935 10.1399 2.31857ZM15.0612 13.4184C15.2923 13.1084 15.2283 12.6699 14.9184 12.4388C14.6085 12.2077 14.1694 12.2723 13.9383 12.5822L13.8112 12.7523C13.7296 12.8612 13.6128 13.0169 13.472 13.2038C13.1903 13.5778 12.8132 14.0758 12.4308 14.5734C12.0475 15.0721 11.6623 15.5657 11.3632 15.9328L11.2982 16.0123C11.2436 15.9505 11.1871 15.8852 11.13 15.8183C10.9799 15.6425 10.8345 15.4655 10.7261 15.3318C10.672 15.2651 10.6275 15.2096 10.5966 15.171L10.5611 15.1264L10.552 15.115L10.5493 15.1115C10.3096 14.8082 9.86945 14.7565 9.56609 14.9961C9.26272 15.2358 9.21139 15.6764 9.45103 15.9798L9.45454 15.9842L9.46476 15.9971L9.50283 16.0449C9.53551 16.0858 9.5822 16.1439 9.63873 16.2136C9.75146 16.3526 9.9048 16.5393 10.065 16.7271C10.2233 16.9125 10.3965 17.1089 10.5473 17.2627C10.621 17.3379 10.7026 17.4167 10.7823 17.4812C10.8212 17.5128 10.8758 17.5542 10.9397 17.5909C10.9798 17.6139 11.1296 17.7 11.3333 17.7C11.4801 17.7 11.5896 17.6544 11.6339 17.6342C11.6877 17.6097 11.7291 17.5832 11.7542 17.566C11.8045 17.5316 11.8457 17.4954 11.8722 17.4711C11.928 17.42 11.9865 17.3583 12.0408 17.2983C12.1527 17.175 12.2937 17.0073 12.4486 16.8171C12.7605 16.4342 13.1555 15.9279 13.5408 15.4266C13.927 14.9241 14.307 14.4222 14.5903 14.0461C14.7319 13.858 14.8496 13.7013 14.9318 13.5914L15.0612 13.4184Z" fill="#222628"/>
</svg>
