<svg width="24" height="24" viewBox="0 0 24 24" fill="none" xmlns="http://www.w3.org/2000/svg">
<path fill-rule="evenodd" clip-rule="evenodd" d="M3.01955 9.69995C3 10.1225 3 10.6293 3 11.2725V14.8C3 17.7998 3 19.2997 3.76393 20.3511C4.01065 20.6907 4.30928 20.9893 4.64886 21.2361C5.70032 22 7.20021 22 10.2 22H13.8C16.7998 22 18.2997 22 19.3511 21.2361C19.6907 20.9893 19.9894 20.6907 20.2361 20.3511C21 19.2997 21 17.7998 21 14.8V9.2C21 6.20021 21 4.70032 20.2361 3.64886C19.9894 3.30928 19.6907 3.01065 19.3511 2.76393C18.2997 2 16.7998 2 13.8 2H12.8177C12.4756 2 12.1867 2 11.9353 2.00427V2.03901V2.03904C11.9353 3.4104 11.9353 4.49315 11.8474 5.35695C11.7575 6.24064 11.5699 6.9725 11.1432 7.61113C10.8003 8.12432 10.3597 8.56495 9.84647 8.90786C9.20784 9.33458 8.47598 9.5222 7.59229 9.61209C6.72848 9.69997 5.64572 9.69996 4.27435 9.69995H4.27434H4.27433H4.27433L3.01955 9.69995ZM10.5353 2.17462C10.4011 2.21563 10.2691 2.26368 10.1399 2.31857C9.64389 2.52935 9.21206 2.87124 8.3484 3.55502L8.3484 3.55503L5.73074 5.62748L5.73074 5.62748L5.73074 5.62749C4.5407 6.56967 3.94568 7.04076 3.57055 7.66561C3.4493 7.86757 3.34614 8.07985 3.26225 8.29995H4.23529C5.65433 8.29995 6.66591 8.2991 7.4506 8.21928C8.2236 8.14065 8.69842 7.9912 9.06868 7.7438C9.429 7.50304 9.73838 7.19366 9.97914 6.83333C10.2265 6.46307 10.376 5.98825 10.4546 5.21526C10.5311 4.46315 10.5351 3.5026 10.5353 2.17462ZM14.3234 13.505C14.5968 13.7784 14.5968 14.2216 14.3234 14.495L13.4042 15.4142L14.3234 16.3334C14.5968 16.6068 14.5968 17.05 14.3234 17.3234C14.05 17.5967 13.6068 17.5967 13.3335 17.3234L12.4142 16.4041L11.495 17.3234C11.2216 17.5968 10.7784 17.5968 10.505 17.3234C10.2316 17.05 10.2316 16.6068 10.505 16.3335L11.4243 15.4142L10.505 14.4949C10.2317 14.2216 10.2317 13.7784 10.505 13.505C10.7784 13.2316 11.2216 13.2316 11.495 13.505L12.4142 14.4242L13.3334 13.505C13.6068 13.2317 14.05 13.2317 14.3234 13.505Z" fill="#222628"/>
</svg>
