<svg width="24" height="24" viewBox="0 0 24 24" fill="none" xmlns="http://www.w3.org/2000/svg">
<path fill-rule="evenodd" clip-rule="evenodd" d="M3 11.2725C3 10.6293 3 10.1225 3.01955 9.69995L4.27433 9.69995H4.27433H4.27434H4.27435H4.27436C5.64573 9.69996 6.72848 9.69997 7.59229 9.61209C8.47598 9.5222 9.20784 9.33458 9.84647 8.90786C10.3597 8.56495 10.8003 8.12432 11.1432 7.61113C11.5699 6.9725 11.7575 6.24064 11.8474 5.35695C11.9353 4.49315 11.9353 3.4104 11.9353 2.03904V2.03901V2.00427C12.1867 2 12.4756 2 12.8177 2H13.8C16.7998 2 18.2997 2 19.3511 2.76393C19.6907 3.01065 19.9894 3.30928 20.2361 3.64886C21 4.70032 21 6.20021 21 9.2V14.8C21 17.7998 21 19.2997 20.2361 20.3511C19.9894 20.6907 19.6907 20.9893 19.3511 21.2361C18.2997 22 16.7998 22 13.8 22H10.2C7.20021 22 5.70032 22 4.64886 21.2361C4.30928 20.9893 4.01065 20.6907 3.76393 20.3511C3 19.2997 3 17.7998 3 14.8V11.2725ZM10.1399 2.31857C10.2691 2.26368 10.4011 2.21563 10.5353 2.17462C10.5351 3.5026 10.5311 4.46315 10.4546 5.21526C10.376 5.98825 10.2265 6.46307 9.97914 6.83333C9.73838 7.19366 9.429 7.50304 9.06868 7.7438C8.69842 7.9912 8.2236 8.14065 7.4506 8.21928C6.66591 8.2991 5.65433 8.29995 4.23529 8.29995H3.26225C3.34614 8.07985 3.4493 7.86757 3.57055 7.66561C3.94568 7.04076 4.5407 6.56967 5.73074 5.62749L5.73074 5.62748L5.73074 5.62748L8.3484 3.55503L8.3484 3.55502C9.21206 2.87124 9.64389 2.52935 10.1399 2.31857ZM11.3 18.3C11.3 18.6866 11.6134 19 12 19C12.3866 19 12.7 18.6866 12.7 18.3V13.3971L13.7272 14.4242C13.9615 14.6586 14.3414 14.6586 14.5758 14.4242C14.8101 14.1899 14.8101 13.81 14.5758 13.5757L12.4243 11.4242C12.3364 11.3364 12.2281 11.2815 12.1146 11.2595C12.0381 11.2447 11.9594 11.2449 11.883 11.26C11.7704 11.2822 11.663 11.337 11.5757 11.4242L9.42425 13.5757C9.18993 13.81 9.18993 14.1899 9.42425 14.4242C9.65856 14.6586 10.0385 14.6586 10.2728 14.4242L11.3 13.397L11.3 18.3Z" fill="#222628"/>
</svg>
