<svg width="24" height="24" viewBox="0 0 24 24" fill="none" xmlns="http://www.w3.org/2000/svg">
<path fill-rule="evenodd" clip-rule="evenodd" d="M8.3484 3.55503L5.73074 5.62748L5.73074 5.62748L5.73074 5.62749C4.5407 6.56967 3.94568 7.04076 3.57055 7.66561C3.44929 7.86759 3.34612 8.07988 3.26223 8.3H4.23529C5.65433 8.3 6.66591 8.29915 7.4506 8.21933C8.2236 8.14069 8.69842 7.99125 9.06868 7.74385C9.429 7.50309 9.73838 7.19371 9.97914 6.83338C10.2265 6.46312 10.376 5.9883 10.4546 5.21531C10.5311 4.46319 10.5351 3.50262 10.5353 2.17462C10.4011 2.21563 10.2691 2.26368 10.1399 2.31857C9.64389 2.52935 9.21206 2.87124 8.3484 3.55502L8.3484 3.55503ZM3 11.2725C3 10.6294 3 10.1225 3.01955 9.7H4.23529L4.27433 9.7H4.27433H4.27434C5.64572 9.70001 6.72848 9.70001 7.59229 9.61214C8.47598 9.52224 9.20784 9.33463 9.84647 8.90791C10.3597 8.565 10.8003 8.12437 11.1432 7.61118C11.5699 6.97255 11.7575 6.24069 11.8474 5.357C11.9353 4.49319 11.9353 3.41045 11.9353 2.03909V2.03906V2.00427C12.1867 2 12.4756 2 12.8177 2H13.8C16.7998 2 18.2997 2 19.3511 2.76393C19.6907 3.01065 19.9894 3.30928 20.2361 3.64886C21 4.70032 21 6.20021 21 9.2V14.8C21 17.7998 21 19.2997 20.2361 20.3511C19.9894 20.6907 19.6907 20.9893 19.3511 21.2361C18.2997 22 16.7998 22 13.8 22H10.2C7.20021 22 5.70032 22 4.64886 21.2361C4.30928 20.9893 4.01065 20.6907 3.76393 20.3511C3 19.2997 3 17.7998 3 14.8V11.2725ZM9.7 15.6C9.3134 15.6 9 15.9134 9 16.3C9 16.6866 9.3134 17 9.7 17H14.3C14.6866 17 15 16.6866 15 16.3C15 15.9134 14.6866 15.6 14.3 15.6H9.7Z" fill="#222628"/>
</svg>
