<svg width="24" height="24" viewBox="0 0 24 24" fill="none" xmlns="http://www.w3.org/2000/svg">
<path fill-rule="evenodd" clip-rule="evenodd" d="M3 11.2725C3 10.6293 3 10.1225 3.01955 9.69995L4.27433 9.69995H4.27433H4.27434H4.27435H4.27436C5.64573 9.69996 6.72848 9.69997 7.59229 9.61209C8.47598 9.5222 9.20784 9.33458 9.84647 8.90786C10.3597 8.56495 10.8003 8.12432 11.1432 7.61113C11.5699 6.9725 11.7575 6.24064 11.8474 5.35695C11.9353 4.49315 11.9353 3.4104 11.9353 2.03904V2.03901V2.00427C12.1867 2 12.4756 2 12.8177 2H13.8C16.7998 2 18.2997 2 19.3511 2.76393C19.6907 3.01065 19.9894 3.30928 20.2361 3.64886C21 4.70032 21 6.20021 21 9.2V14.8C21 17.7998 21 19.2997 20.2361 20.3511C19.9894 20.6907 19.6907 20.9893 19.3511 21.2361C18.2997 22 16.7998 22 13.8 22H10.2C7.20021 22 5.70032 22 4.64886 21.2361C4.30928 20.9893 4.01065 20.6907 3.76393 20.3511C3 19.2997 3 17.7998 3 14.8V11.2725ZM10.1399 2.31857C10.2691 2.26368 10.4011 2.21563 10.5353 2.17462C10.5351 3.5026 10.5311 4.46315 10.4546 5.21526C10.376 5.98825 10.2265 6.46307 9.97914 6.83333C9.73838 7.19366 9.429 7.50304 9.06868 7.7438C8.69842 7.9912 8.2236 8.14065 7.4506 8.21928C6.66591 8.2991 5.65433 8.29995 4.23529 8.29995H3.26225C3.34614 8.07985 3.4493 7.86757 3.57055 7.66561C3.94568 7.04076 4.5407 6.56967 5.73074 5.62749L5.73074 5.62748L5.73074 5.62748L8.3484 3.55503L8.3484 3.55502C9.21206 2.87124 9.64389 2.52935 10.1399 2.31857ZM12.7 11.7C12.7 11.3134 12.3866 11 12 11C11.6134 11 11.3 11.3134 11.3 11.7V16.603L10.2728 15.5758C10.0385 15.3414 9.65856 15.3414 9.42425 15.5758C9.18993 15.8101 9.18993 16.19 9.42425 16.4243L11.5757 18.5758C11.6343 18.6343 11.702 18.6783 11.7742 18.7076C11.93 18.7707 12.1069 18.7658 12.2594 18.6927C12.319 18.6641 12.3749 18.6252 12.4243 18.5758L14.5758 16.4243C14.8101 16.19 14.8101 15.8101 14.5758 15.5758C14.3414 15.3414 13.9615 15.3414 13.7272 15.5758L12.7 16.603V11.7Z" fill="#222628"/>
</svg>
