<svg width="24" height="24" viewBox="0 0 24 24" fill="none" xmlns="http://www.w3.org/2000/svg">
<path fill-rule="evenodd" clip-rule="evenodd" d="M3.01955 9.69995C3 10.1225 3 10.6293 3 11.2725V14.8C3 17.7998 3 19.2997 3.76393 20.3511C4.01065 20.6907 4.30928 20.9893 4.64886 21.2361C5.70032 22 7.20021 22 10.2 22H13.8C16.7998 22 18.2997 22 19.3511 21.2361C19.6907 20.9893 19.9894 20.6907 20.2361 20.3511C21 19.2997 21 17.7998 21 14.8V9.2C21 6.20021 21 4.70032 20.2361 3.64886C19.9894 3.30928 19.6907 3.01065 19.3511 2.76393C18.2997 2 16.7998 2 13.8 2H12.8177C12.4756 2 12.1867 2 11.9353 2.00427V2.03901V2.03904C11.9353 3.4104 11.9353 4.49315 11.8474 5.35695C11.7575 6.24064 11.5699 6.9725 11.1432 7.61113C10.8003 8.12432 10.3597 8.56495 9.84647 8.90786C9.20784 9.33458 8.47598 9.5222 7.59229 9.61209C6.72848 9.69997 5.64572 9.69996 4.27435 9.69995H4.27434H4.27433H4.27433L3.01955 9.69995ZM10.5353 2.17462C10.4011 2.21563 10.2691 2.26368 10.1399 2.31857C9.64389 2.52935 9.21206 2.87124 8.3484 3.55502L8.3484 3.55503L5.73074 5.62748L5.73074 5.62748L5.73074 5.62749C4.5407 6.56967 3.94568 7.04076 3.57055 7.66561C3.4493 7.86757 3.34614 8.07985 3.26225 8.29995H4.23529C5.65433 8.29995 6.66591 8.2991 7.4506 8.21928C8.2236 8.14065 8.69842 7.9912 9.06868 7.7438C9.429 7.50304 9.73838 7.19366 9.97914 6.83333C10.2265 6.46307 10.376 5.98825 10.4546 5.21526C10.5311 4.46315 10.5351 3.5026 10.5353 2.17462ZM14.7 15C14.7 15.3866 14.3866 15.7 14 15.7H12.7V17C12.7 17.3866 12.3866 17.7 12 17.7C11.6134 17.7 11.3 17.3866 11.3 17V15.7H9.99995C9.61335 15.7 9.29995 15.3866 9.29995 15C9.29995 14.6134 9.61335 14.3 9.99995 14.3H11.3V13C11.3 12.6134 11.6134 12.3 12 12.3C12.3865 12.3 12.7 12.6134 12.7 13V14.3H14C14.3866 14.3 14.7 14.6134 14.7 15Z" fill="#222628"/>
</svg>
