<svg width="24" height="24" viewBox="0 0 24 24" fill="none" xmlns="http://www.w3.org/2000/svg">
<path fill-rule="evenodd" clip-rule="evenodd" d="M3.01744 9.69995C3 10.1085 3 10.5967 3 11.2116V14.8C3 17.7998 3 19.2997 3.76393 20.3511C4.01065 20.6907 4.30928 20.9893 4.64886 21.2361C5.70032 22 7.20021 22 10.2 22H13.3C16.2998 22 17.7997 22 18.8511 21.2361C19.1907 20.9893 19.4893 20.6907 19.7361 20.3511C20.5 19.2997 20.5 17.7998 20.5 14.8V9.2C20.5 6.20021 20.5 4.70032 19.7361 3.64886C19.4893 3.30928 19.1907 3.01065 18.8511 2.76393C17.7997 2 16.2998 2 13.3 2H12.6702C12.3939 2 12.1516 2 11.9353 2.0022V2.03901V2.03904C11.9353 3.4104 11.9353 4.49315 11.8474 5.35695C11.7575 6.24064 11.5699 6.9725 11.1432 7.61113C10.8003 8.12432 10.3597 8.56495 9.84647 8.90786C9.20784 9.33458 8.47598 9.5222 7.59229 9.61209C6.72848 9.69997 5.64572 9.69996 4.27435 9.69995H4.27434H4.27433H4.27433L3.01744 9.69995ZM10.5353 2.1265C10.5074 2.13346 10.4797 2.14079 10.4521 2.14853C10.2766 2.19776 10.1046 2.25892 9.9374 2.33161C9.43283 2.55094 8.99646 2.9063 8.1237 3.61702L5.65354 5.62858C4.49643 6.57087 3.91787 7.04201 3.55368 7.66015C3.43357 7.864 3.33179 8.07811 3.24953 8.29995H4.23529C5.65433 8.29995 6.66591 8.2991 7.4506 8.21928C8.2236 8.14065 8.69842 7.9912 9.06868 7.7438C9.429 7.50304 9.73838 7.19366 9.97914 6.83333C10.2265 6.46307 10.376 5.98825 10.4546 5.21526C10.5321 4.45409 10.5352 3.47944 10.5353 2.1265ZM17 17.7C17 18.0866 16.6866 18.4 16.3 18.4H7.7C7.3134 18.4 7 18.0866 7 17.7C7 17.3134 7.3134 17 7.7 17H16.3C16.6866 17 17 17.3134 17 17.7ZM13.3 14.4C13.6866 14.4 14 14.0866 14 13.7C14 13.3134 13.6866 13 13.3 13H7.7C7.3134 13 7 13.3134 7 13.7C7 14.0866 7.3134 14.4 7.7 14.4L13.3 14.4Z" fill="#222628"/>
</svg>
