<svg width="24" height="24" viewBox="0 0 24 24" fill="none" xmlns="http://www.w3.org/2000/svg">
<path fill-rule="evenodd" clip-rule="evenodd" d="M2.80385 5C2 6.3923 2 8.26154 2 12C2 15.7385 2 17.6077 2.80385 19C3.33046 19.9121 4.08788 20.6695 5 21.1962C6.3923 22 8.26154 22 12 22C15.7385 22 17.6077 22 19 21.1962C19.9121 20.6695 20.6695 19.9121 21.1962 19C22 17.6077 22 15.7385 22 12C22 8.26154 22 6.3923 21.1962 5C20.6695 4.08788 19.9121 3.33046 19 2.80385C17.6077 2 15.7385 2 12 2C8.26154 2 6.3923 2 5 2.80385C4.08788 3.33046 3.33046 4.08788 2.80385 5ZM12.5946 13.1024L12.389 13.2309C11.5529 13.7535 11.0342 14.0748 10.6454 14.2571C10.5787 14.2884 10.5243 14.3113 10.4809 14.328C10.4721 14.2824 10.4627 14.2241 10.4539 14.151C10.4025 13.7246 10.4 13.1145 10.4 12.1285V11.8715C10.4 10.8855 10.4025 10.2754 10.4539 9.84902C10.4627 9.77587 10.4721 9.71763 10.4809 9.67196C10.5243 9.6887 10.5787 9.71161 10.6454 9.7429C11.0342 9.92524 11.5529 10.2465 12.389 10.7691L12.5946 10.8976C13.3503 11.3699 13.8069 11.6581 14.104 11.8977C14.1545 11.9384 14.1935 11.9724 14.2232 12C14.1935 12.0276 14.1545 12.0616 14.104 12.1023C13.8069 12.3419 13.3503 12.6301 12.5946 13.1024ZM13.3366 9.7104C14.7855 10.6159 15.5099 11.0687 15.6392 11.6984C15.68 11.8974 15.68 12.1026 15.6392 12.3016C15.5099 12.9313 14.7855 13.3841 13.3366 14.2896L13.131 14.4181C11.5223 15.4236 10.718 15.9263 10.0665 15.7296C9.8619 15.6679 9.67284 15.5631 9.51201 15.4223C9 14.9741 9 14.0256 9 12.1285V11.8715C9 9.97443 9 9.02591 9.51201 8.57771C9.67284 8.43692 9.86191 8.33214 10.0665 8.27037C10.718 8.07373 11.5223 8.57644 13.131 9.58187L13.3366 9.7104Z" fill="#222628"/>
</svg>
