<svg width="24" height="24" viewBox="0 0 24 24" fill="none" xmlns="http://www.w3.org/2000/svg">
<path d="M4.40333 17.3222C4.43998 16.9879 4.45831 16.8208 4.48126 16.7015C4.75982 15.2543 5.93041 14.2799 7.40421 14.2686C7.52564 14.2677 7.71525 14.2816 8.09445 14.3095C9.27225 14.3959 10.599 14.4667 11.7854 14.4667C13.0237 14.4667 14.3969 14.3896 15.5906 14.298C15.9564 14.27 16.1392 14.256 16.2581 14.2563C17.6544 14.2601 18.7824 15.1264 19.1463 16.4745C19.1773 16.5893 19.2069 16.748 19.2661 17.0653C19.3314 17.4153 19.364 17.5902 19.3767 17.7324C19.5239 19.3759 18.3162 20.8298 16.6735 20.9865C16.5314 21 16.3534 21 15.9975 21L7.69987 21C7.37598 21 7.21404 21 7.08162 20.9882C5.50996 20.8487 4.31502 19.5155 4.34762 17.938C4.35036 17.8051 4.36802 17.6441 4.40333 17.3222Z" fill="#222628"/>
<path fill-rule="evenodd" clip-rule="evenodd" d="M16.2568 14.7563C16.1632 14.756 16.0073 14.7676 15.6289 14.7966C14.4292 14.8885 13.0418 14.9667 11.7854 14.9667C10.5816 14.9667 9.24129 14.895 8.05785 14.8081C7.66552 14.7793 7.5035 14.7679 7.40803 14.7686C6.17249 14.7781 5.20577 15.5827 4.97224 16.7961C4.95415 16.89 4.93827 17.0307 4.90034 17.3767C4.86381 17.7097 4.84967 17.8433 4.8475 17.9483C4.82033 19.2629 5.81612 20.3739 7.12583 20.4902C7.23053 20.4995 7.36482 20.5 7.69986 20.5L15.9975 20.5C16.3657 20.5 16.5138 20.4994 16.626 20.4887C17.9949 20.3582 19.0014 19.1466 18.8787 17.777C18.8687 17.6647 18.8421 17.5191 18.7746 17.157C18.7133 16.8286 18.688 16.6953 18.6636 16.6048C18.3585 15.4744 17.4276 14.7595 16.2568 14.7563ZM15.5904 13.7966C15.9206 13.7712 16.1204 13.7559 16.2595 13.7563C17.8812 13.7607 19.2064 14.7785 19.629 16.3442C19.6653 16.4784 19.6981 16.6546 19.7517 16.942L19.7639 17.0073C19.8232 17.3252 19.8598 17.5216 19.8747 17.6878C20.0465 19.6052 18.6374 21.3014 16.7209 21.4842C16.5549 21.5 16.3551 21.5 16.0318 21.5L7.66896 21.5C7.3745 21.5 7.19218 21.5 7.03738 21.4863C5.20378 21.3235 3.80968 19.7681 3.84771 17.9277C3.85092 17.7723 3.87081 17.5911 3.90293 17.2984C3.90403 17.2883 3.90516 17.278 3.9063 17.2677C3.90754 17.2563 3.90877 17.2451 3.90998 17.2341C3.94314 16.9315 3.96343 16.7465 3.99026 16.607C4.31385 14.9258 5.68832 13.7818 7.40037 13.7687C7.54238 13.7676 7.74917 13.7828 8.09147 13.8079L8.13104 13.8108C9.3032 13.8968 10.6163 13.9667 11.7854 13.9667C13.0055 13.9667 14.3645 13.8906 15.5524 13.7995L15.5904 13.7966Z" fill="#222628"/>
<path d="M7.99998 7C7.99998 4.79086 9.79084 3 12 3C14.2091 3 16 4.79086 16 7V7.57143C16 9.46498 14.465 11 12.5714 11H11.4285C9.535 11 7.99998 9.46498 7.99998 7.57143V7Z" fill="#222628"/>
</svg>
