<svg width="24" height="24" viewBox="0 0 24 24" fill="none" xmlns="http://www.w3.org/2000/svg">
<path fill-rule="evenodd" clip-rule="evenodd" d="M2 12C2 8.26154 2 6.3923 2.80385 5C3.33046 4.08788 4.08788 3.33046 5 2.80385C6.3923 2 8.26154 2 12 2C15.7385 2 17.6077 2 19 2.80385C19.9121 3.33046 20.6695 4.08788 21.1962 5C22 6.3923 22 8.26154 22 12C22 15.7385 22 17.6077 21.1962 19C20.6695 19.9121 19.9121 20.6695 19 21.1962C17.6077 22 15.7385 22 12 22C8.26154 22 6.3923 22 5 21.1962C4.08788 20.6695 3.33046 19.9121 2.80385 19C2 17.6077 2 15.7385 2 12ZM7.50501 9.50507C7.77838 9.23171 8.2216 9.23171 8.49496 9.50507L10.495 11.5051C10.7683 11.7784 10.7683 12.2217 10.495 12.495L8.49496 14.495C8.2216 14.7684 7.77838 14.7684 7.50501 14.495C7.23165 14.2217 7.23165 13.7784 7.50501 13.5051L9.01004 12L7.50501 10.495C7.23165 10.2217 7.23165 9.77844 7.50501 9.50507ZM17 14.7C17.3866 14.7 17.7 14.3866 17.7 14C17.7 13.6134 17.3866 13.3 17 13.3H13C12.6134 13.3 12.3 13.6134 12.3 14C12.3 14.3866 12.6134 14.7 13 14.7H17Z" fill="#222628"/>
</svg>
