<svg width="24" height="24" viewBox="0 0 24 24" fill="none" xmlns="http://www.w3.org/2000/svg">
<path fill-rule="evenodd" clip-rule="evenodd" d="M2 12C2 8.26154 2 6.3923 2.80385 5C3.33046 4.08788 4.08788 3.33046 5 2.80385C6.3923 2 8.26154 2 12 2C15.7385 2 17.6077 2 19 2.80385C19.9121 3.33046 20.6695 4.08788 21.1962 5C22 6.3923 22 8.26154 22 12C22 15.7385 22 17.6077 21.1962 19C20.6695 19.9121 19.9121 20.6695 19 21.1962C17.6077 22 15.7385 22 12 22C8.26154 22 6.3923 22 5 21.1962C4.08788 20.6695 3.33046 19.9121 2.80385 19C2 17.6077 2 15.7385 2 12ZM8.8 10.25C8.8 8.61487 10.1413 7.3 11.7646 7.3C13.3719 7.3 14.7 8.60186 14.7 10.2209C14.7 10.8842 14.4743 11.5277 14.0599 12.0456L12.5466 13.9373C12.3051 14.2392 11.8646 14.2881 11.5627 14.0466C11.2608 13.8051 11.2119 13.3646 11.4534 13.0627L12.9667 11.1711C13.1825 10.9014 13.3 10.5663 13.3 10.2209C13.3 9.38683 12.6105 8.7 11.7646 8.7C10.9027 8.7 10.2 9.39985 10.2 10.25V10.5C10.2 10.8866 9.8866 11.2 9.5 11.2C9.1134 11.2 8.8 10.8866 8.8 10.5V10.25ZM12 15.3222C11.5674 15.3222 11.2167 15.673 11.2167 16.1056C11.2167 16.5382 11.5674 16.8889 12 16.8889C12.4326 16.8889 12.7833 16.5382 12.7833 16.1056C12.7833 15.673 12.4326 15.3222 12 15.3222Z" fill="#222628"/>
</svg>
