<svg width="24" height="24" viewBox="0 0 24 24" fill="none" xmlns="http://www.w3.org/2000/svg">
<path fill-rule="evenodd" clip-rule="evenodd" d="M12 4.30005C12.3866 4.30005 12.7 4.61345 12.7 5.00005V13H11.3V5.00005C11.3 4.61345 11.6134 4.30005 12 4.30005Z" fill="#222628"/>
<path fill-rule="evenodd" clip-rule="evenodd" d="M21 13.5001L21 16.6773C21 18.1941 19.8691 19.4702 18.3593 19.6158C16.4741 19.7976 13.9392 20 12 20C10.0608 20 7.52589 19.7976 5.64065 19.6158C4.13089 19.4702 3 18.1941 3 16.6773L3 13.5001C3 12.9478 3.44772 12.5 4 12.5L8.27205 12.5C8.21351 12.7031 8.26425 12.931 8.42426 13.091L11.5757 16.2425C11.8101 16.4768 12.1899 16.4768 12.4243 16.2425L15.5757 13.091C15.7358 12.931 15.7865 12.7031 15.728 12.5L20 12.5C20.5523 12.5 21 12.9478 21 13.5001ZM11.3 14.2697L11.3 12.5L9.53031 12.5L11.3 14.2697ZM14.4697 12.5L12.7 14.2697L12.7 12.5L14.4697 12.5Z" fill="#222628"/>
</svg>
