<svg width="24" height="24" viewBox="0 0 24 24" fill="none" xmlns="http://www.w3.org/2000/svg">
<path d="M17.7486 15.8664C18.0613 16.6262 18.2222 18.3 19 19H5C5.77778 18.3 5.93872 16.6262 6.25142 15.8664C6.56411 15.1065 7.02244 14.416 7.60022 13.8344C8.17801 13.2528 8.86394 12.7915 9.61886 12.4768C10.3738 12.162 11.1829 12 12 12C12.8171 12 13.6262 12.162 14.3811 12.4768C15.1361 12.7915 15.822 13.2528 16.3998 13.8344C16.9776 14.416 17.4359 15.1065 17.7486 15.8664Z" fill="#222628"/>
<path fill-rule="evenodd" clip-rule="evenodd" d="M9.42644 12.0153C10.2423 11.6751 11.1168 11.5 12 11.5C12.8832 11.5 13.7577 11.6751 14.5736 12.0153C15.3894 12.3554 16.1304 12.8539 16.7545 13.482C17.3785 14.1102 17.8734 14.8558 18.211 15.6761C18.304 15.9021 18.3802 16.1808 18.4507 16.4527C18.4681 16.52 18.4854 16.5875 18.5027 16.6553C18.5584 16.8733 18.6146 17.0933 18.6796 17.3147C18.8559 17.9149 19.0603 18.3816 19.3345 18.6284L20.303 19.5H3.69702L4.66552 18.6284C4.93967 18.3816 5.14406 17.9149 5.32039 17.3147C5.38543 17.0933 5.44164 16.8733 5.49732 16.6553C5.51463 16.5875 5.53188 16.52 5.54934 16.4527C5.6198 16.1808 5.69603 15.9021 5.78904 15.6761C6.1266 14.8558 6.62146 14.1102 7.24551 13.482C7.86958 12.8539 8.61063 12.3554 9.42644 12.0153ZM12 12.5C11.249 12.5 10.5053 12.6489 9.81127 12.9382C9.11726 13.2276 8.48644 13.6518 7.95494 14.1868C7.42342 14.7218 7.00163 15.3572 6.7138 16.0566C6.65045 16.2106 6.58931 16.426 6.51734 16.7036C6.50174 16.7638 6.48569 16.8266 6.46915 16.8914C6.41271 17.1124 6.35043 17.3563 6.27984 17.5966C6.19521 17.8846 6.09035 18.1999 5.94875 18.5H18.0512C17.9097 18.1999 17.8048 17.8846 17.7202 17.5966C17.6496 17.3563 17.5873 17.1124 17.5308 16.8914C17.5143 16.8266 17.4983 16.7638 17.4827 16.7036C17.4107 16.426 17.3495 16.2106 17.2862 16.0566C16.9984 15.3572 16.5766 14.7218 16.0451 14.1868C15.5136 13.6518 14.8827 13.2276 14.1887 12.9382C13.4947 12.6489 12.751 12.5 12 12.5Z" fill="#222628"/>
<path fill-rule="evenodd" clip-rule="evenodd" d="M1.29999 19C1.29999 18.6134 1.61339 18.3 1.99999 18.3H22C22.3866 18.3 22.7 18.6134 22.7 19C22.7 19.3866 22.3866 19.7 22 19.7H1.99999C1.61339 19.7 1.29999 19.3866 1.29999 19Z" fill="#222628"/>
<path fill-rule="evenodd" clip-rule="evenodd" d="M12 8.30005C12.3866 8.30005 12.7 8.61345 12.7 9.00005V11.5C12.7 11.8866 12.3866 12.2 12 12.2C11.6134 12.2 11.3 11.8866 11.3 11.5V9.00005C11.3 8.61345 11.6134 8.30005 12 8.30005Z" fill="#222628"/>
<path fill-rule="evenodd" clip-rule="evenodd" d="M10.3 9.00005C10.3 8.61345 10.6134 8.30005 11 8.30005H13C13.3866 8.30005 13.7 8.61345 13.7 9.00005C13.7 9.38665 13.3866 9.70005 13 9.70005H11C10.6134 9.70005 10.3 9.38665 10.3 9.00005Z" fill="#222628"/>
<path fill-rule="evenodd" clip-rule="evenodd" d="M12.0711 5L12.036 5.00007C11.4838 5.00221 11.0343 4.55624 11.0322 4.00396C11.03 3.45168 11.476 3.00223 12.0283 3.00008L12.0711 3L12.1139 3.00008C12.6662 3.00223 13.1121 3.45168 13.11 4.00396C13.1078 4.55624 12.6584 5.00221 12.1061 5.00007L12.0711 5ZM5.73743 6.19711C6.12643 6.58915 6.12397 7.22231 5.73193 7.61131L5.70711 7.63604C5.31658 8.02656 4.68342 8.02656 4.29289 7.63604C3.90237 7.24551 3.90237 6.61235 4.29289 6.22182L4.32322 6.19161C4.71526 5.80261 5.34842 5.80507 5.73743 6.19711ZM18.4047 6.19711C18.7937 5.80507 19.4269 5.80261 19.8189 6.19161L19.8492 6.22183C20.2398 6.61235 20.2398 7.24551 19.8492 7.63604C19.4587 8.02656 18.8256 8.02656 18.435 7.63604L18.4102 7.61131C18.0182 7.22231 18.0157 6.58915 18.4047 6.19711Z" fill="#222628"/>
</svg>
