<svg width="24" height="24" viewBox="0 0 24 24" fill="none" xmlns="http://www.w3.org/2000/svg">
<path fill-rule="evenodd" clip-rule="evenodd" d="M22 15.3C22.3866 15.3 22.7 15.6134 22.7 16C22.7 19.7004 19.7003 22.7 16 22.7C15.6134 22.7 15.3 22.3866 15.3 22C15.3 21.6134 15.6134 21.3 16 21.3C18.9271 21.3 21.3 18.9272 21.3 16C21.3 15.6134 21.6134 15.3 22 15.3Z" fill="#222628"/>
<path fill-rule="evenodd" clip-rule="evenodd" d="M15.3 1.99995C15.3 1.61335 15.6134 1.29995 16 1.29995C19.7003 1.29995 22.7 4.29964 22.7 7.99995C22.7 8.38655 22.3866 8.69995 22 8.69995C21.6134 8.69995 21.3 8.38655 21.3 7.99995C21.3 5.07284 18.9271 2.69995 16 2.69995C15.6134 2.69995 15.3 2.38655 15.3 1.99995Z" fill="#222628"/>
<path fill-rule="evenodd" clip-rule="evenodd" d="M2.00001 8.69995C1.61341 8.69995 1.30001 8.38655 1.30001 7.99995C1.30001 4.29964 4.2997 1.29995 8.00001 1.29995C8.38661 1.29995 8.70001 1.61335 8.70001 1.99995C8.70001 2.38655 8.38661 2.69995 8.00001 2.69995C5.0729 2.69995 2.70001 5.07284 2.70001 7.99995C2.70001 8.38655 2.38661 8.69995 2.00001 8.69995Z" fill="#222628"/>
<path fill-rule="evenodd" clip-rule="evenodd" d="M8.70001 22C8.70001 22.3866 8.38661 22.7 8.00001 22.7C4.2997 22.7 1.30001 19.7004 1.30001 16C1.30001 15.6134 1.61341 15.3 2.00001 15.3C2.38661 15.3 2.70001 15.6134 2.70001 16C2.70001 18.9272 5.0729 21.3 8.00001 21.3C8.38661 21.3 8.70001 21.6134 8.70001 22Z" fill="#222628"/>
<path d="M5 10.4C5 8.15016 5 7.02524 5.57295 6.23664C5.75799 5.98196 5.98196 5.75799 6.23664 5.57295C7.02524 5 8.15016 5 10.4 5H13.6C15.8498 5 16.9748 5 17.7634 5.57295C18.018 5.75799 18.242 5.98196 18.4271 6.23664C19 7.02524 19 8.15016 19 10.4V11H5V10.4Z" fill="#222628"/>
<path d="M18.9999 14.3714C18.9999 16.2999 18.9999 17.2641 18.427 17.94C18.242 18.1583 18.018 18.3503 17.7633 18.5089C16.9747 19 15.8498 19 13.5999 19H10.3999C8.1501 19 7.02518 19 6.23658 18.5089C5.9819 18.3503 5.75793 18.1583 5.57289 17.94C4.99994 17.2641 4.99994 16.2999 4.99994 14.3714V13H18.9999V14.3714Z" fill="#222628"/>
<path fill-rule="evenodd" clip-rule="evenodd" d="M3.30005 13C3.30005 13.3866 3.65415 13.7 4.09096 13.7L19.9091 13.7C20.3459 13.7 20.7 13.3866 20.7 13C20.7 12.6134 20.3459 12.3 19.9091 12.3L4.09096 12.3C3.65415 12.3 3.30005 12.6134 3.30005 13Z" fill="#222628"/>
</svg>
