<svg width="24" height="24" viewBox="0 0 24 24" fill="none" xmlns="http://www.w3.org/2000/svg">
<path d="M2 11.5C2 11.0357 2 10.8036 2.00857 10.6074C2.21212 5.94532 5.94532 2.21212 10.6074 2.00857C10.8036 2 11.0357 2 11.5 2C11.9643 2 12.1964 2 12.3926 2.00857C17.0547 2.21212 20.7879 5.94532 20.9914 10.6074C21 10.8036 21 11.0357 21 11.5C21 11.9643 21 12.1964 20.9914 12.3926C20.7879 17.0547 17.0547 20.7879 12.3926 20.9914C12.1964 21 11.9643 21 11.5 21C11.0357 21 10.8036 21 10.6074 20.9914C5.94532 20.7879 2.21212 17.0547 2.00857 12.3926C2 12.1964 2 11.9643 2 11.5Z" fill="#222628"/>
<path fill-rule="evenodd" clip-rule="evenodd" d="M18.5012 19.0038C18.7753 18.7311 19.2185 18.7322 19.4912 19.0062L21.5267 21.0518C21.7994 21.3258 21.7983 21.7691 21.5243 22.0417C21.2503 22.3144 20.8071 22.3133 20.5344 22.0393L18.4988 19.9937C18.2261 19.7197 18.2272 19.2765 18.5012 19.0038Z" fill="#222628"/>
</svg>
