<svg width="24" height="24" viewBox="0 0 24 24" fill="none" xmlns="http://www.w3.org/2000/svg">
<path fill-rule="evenodd" clip-rule="evenodd" d="M11.3 19.6001V13.0001C11.3 12.6135 11.6134 12.3001 12 12.3001C12.3866 12.3001 12.7 12.6135 12.7 13.0001V19.6001L16.5877 20.1555C18.8807 20.483 20.0273 20.6468 20.6519 20.0885C20.8448 19.9161 21.0041 19.6947 21.1062 19.457C21.437 18.6872 20.9242 17.6663 19.8986 15.6243C19.2712 14.3751 18.6068 13.0924 18 12.0001C17.1564 10.4817 15.9219 8.31551 14.7916 6.34468C13.7049 4.44966 13.1615 3.50215 12.3752 3.33455C12.1289 3.28204 11.8711 3.28204 11.6247 3.33455C10.8385 3.50215 10.2951 4.44966 9.20832 6.34467L9.20832 6.34468C8.07808 8.31551 6.84355 10.4817 5.99998 12.0001C5.39312 13.0924 4.72881 14.3751 4.10138 15.6243C3.07579 17.6663 2.56299 18.6872 2.89373 19.457C2.99585 19.6947 3.15515 19.9161 3.34803 20.0885C3.9727 20.6468 5.11924 20.483 7.41231 20.1555L11.3 19.6001Z" fill="#222628"/>
</svg>
