<svg width="24" height="24" viewBox="0 0 24 24" fill="none" xmlns="http://www.w3.org/2000/svg">
<path fill-rule="evenodd" clip-rule="evenodd" d="M9.9096 14.7184L12.2658 17.86C13.6556 19.7131 14.3505 20.6396 15.187 20.6866C15.4453 20.701 15.7145 20.6571 15.9548 20.5612C16.733 20.2508 17.0923 19.1663 17.811 16.9972C18.2506 15.6702 18.6879 14.2935 19.0312 13.092C19.5084 11.4218 20.1672 9.01713 20.7615 6.82434C21.3331 4.7159 21.6188 3.66168 21.1814 2.9872C21.0443 2.77588 20.862 2.59356 20.6507 2.4565C19.9762 2.01905 18.922 2.30481 16.8135 2.87633C14.6207 3.47072 12.2161 4.12948 10.5459 4.60667C9.34439 4.94996 7.96766 5.38722 6.64068 5.82689C4.47161 6.54555 3.38707 6.90488 3.07662 7.68306C2.98077 7.92333 2.93683 8.19256 2.95132 8.45085C2.99824 9.28735 3.92478 9.98225 5.77786 11.3721L8.91968 13.7284L13.5866 9.06154C13.8599 8.78818 14.3032 8.78818 14.5765 9.06154C14.8499 9.33491 14.8499 9.77813 14.5765 10.0515L9.9096 14.7184Z" fill="#222628"/>
</svg>
