<svg width="24" height="24" viewBox="0 0 24 24" fill="none" xmlns="http://www.w3.org/2000/svg">
<path fill-rule="evenodd" clip-rule="evenodd" d="M3.40101 12.693L2.84464 16.5876C2.51706 18.8807 2.35327 20.0273 2.91158 20.6519C3.08397 20.8448 3.30542 21.0041 3.5431 21.1062C4.31287 21.437 5.33384 20.9242 7.37578 19.8986C8.62498 19.2711 9.90767 18.6068 11 18C12.54 17.1444 14.7463 15.8867 16.7394 14.7435C18.6007 13.6759 19.5313 13.1421 19.6989 12.356C19.7511 12.1115 19.7511 11.8502 19.6991 11.6056C19.5316 10.8196 18.6067 10.2887 16.7569 9.22687C15.0686 8.25782 13.0697 7.1289 11 5.99998C9.59293 5.23247 8.31675 4.56315 7.19658 3.992C5.2769 3.01319 4.31705 2.52379 3.54364 2.85276C3.30892 2.9526 3.07945 3.11662 2.90901 3.30639C2.34741 3.93168 2.50339 5.02353 2.81534 7.20724L3.40101 11.3069C3.43336 11.3023 3.46641 11.3 3.50002 11.3H10C10.3866 11.3 10.7 11.6134 10.7 12C10.7 12.3866 10.3866 12.7 10 12.7H3.50002C3.46641 12.7 3.43336 12.6976 3.40101 12.693Z" fill="#222628"/>
</svg>
