<svg width="24" height="24" viewBox="0 0 24 24" fill="none" xmlns="http://www.w3.org/2000/svg">
<path fill-rule="evenodd" clip-rule="evenodd" d="M11.5882 1.61915C10.7557 1.70531 9.98704 2.141 8.44968 3.01238L7.215 3.71219L5.9916 4.43155C4.46829 5.32725 3.70664 5.7751 3.21577 6.45298C3.05433 6.67593 2.91634 6.91494 2.80398 7.16622C2.46235 7.93027 2.45533 8.81381 2.44128 10.5809L2.43 12.0001L2.44128 13.4192C2.45533 15.1863 2.46235 16.0698 2.80398 16.8339C2.91634 17.0852 3.05433 17.3242 3.21577 17.5471C3.70664 18.225 4.46829 18.6729 5.9916 19.5686L7.215 20.2879L8.44968 20.9877C9.98704 21.8591 10.7557 22.2948 11.5882 22.381C11.862 22.4093 12.138 22.4093 12.4118 22.381C13.2443 22.2948 14.013 21.8591 15.5503 20.9877L16.785 20.2879L18.0084 19.5686L18.0084 19.5686C19.5317 18.6729 20.2934 18.225 20.7842 17.5471C20.9457 17.3242 21.0837 17.0852 21.196 16.8339C21.5376 16.0698 21.5447 15.1863 21.5587 13.4192L21.57 12.0001L21.5587 10.5809C21.5447 8.8138 21.5376 7.93027 21.196 7.16622C21.0837 6.91494 20.9457 6.67593 20.7842 6.45298C20.2934 5.7751 19.5317 5.32725 18.0084 4.43155L16.785 3.71219L15.5503 3.01238C14.013 2.141 13.2443 1.70531 12.4118 1.61915C12.138 1.59082 11.862 1.59082 11.5882 1.61915ZM10.96 10.1988C11.6061 9.83702 12.3939 9.83702 13.04 10.1988C13.6763 10.5774 14.0702 11.2596 14.0799 12.0001C14.0702 12.7405 13.6763 13.4227 13.04 13.8013C12.3939 14.1631 11.6061 14.1631 10.96 13.8013C10.3237 13.4227 9.92981 12.7405 9.92007 12.0001C9.92981 11.2596 10.3237 10.5774 10.96 10.1988ZM10.26 15.0138C9.19052 14.385 8.52986 13.2407 8.52 12.0001C8.52986 10.7594 9.19052 9.61514 10.26 8.98629C11.3393 8.37452 12.6607 8.37452 13.74 8.98629C14.8095 9.61514 15.4701 10.7594 15.48 12.0001C15.4701 13.2407 14.8095 14.385 13.74 15.0138C12.6607 15.6256 11.3393 15.6256 10.26 15.0138Z" fill="#222628"/>
</svg>
