<svg width="24" height="24" viewBox="0 0 24 24" fill="none" xmlns="http://www.w3.org/2000/svg">
<path fill-rule="evenodd" clip-rule="evenodd" d="M12.0117 3C12.5 3 17.5 5 19.5 6.40541V14.1892C19.5 18.3784 12.5 21 12.0117 21C11.5233 21 4.50001 18.0811 4.50001 14.1892L4.5 6.40541C6.49999 5 11.5233 3 12.0117 3ZM15.0612 10.4184C15.2923 10.1084 15.2283 9.66987 14.9184 9.43879C14.6085 9.2077 14.1694 9.27229 13.9383 9.58223L13.8112 9.75226C13.7296 9.86119 13.6128 10.0169 13.472 10.2038C13.1903 10.5778 12.8132 11.0758 12.4308 11.5734C12.0475 12.0721 11.6623 12.5657 11.3632 12.9328L11.2982 13.0123C11.2436 12.9505 11.1871 12.8852 11.13 12.8183C10.9799 12.6425 10.8345 12.4655 10.7261 12.3318C10.672 12.2651 10.6275 12.2096 10.5966 12.171L10.5611 12.1264L10.552 12.115L10.5493 12.1115C10.3096 11.8082 9.86945 11.7565 9.56609 11.9961C9.26272 12.2358 9.21139 12.6764 9.45103 12.9798L9.45454 12.9842L9.46476 12.9971L9.50283 13.0449C9.53551 13.0858 9.5822 13.1439 9.63873 13.2136C9.75146 13.3526 9.9048 13.5393 10.065 13.7271C10.2233 13.9125 10.3965 14.1089 10.5473 14.2627C10.621 14.3379 10.7026 14.4167 10.7823 14.4812C10.8212 14.5128 10.8758 14.5542 10.9397 14.5909C10.9798 14.6139 11.1296 14.7 11.3333 14.7C11.4801 14.7 11.5896 14.6544 11.6339 14.6342C11.6877 14.6097 11.7291 14.5832 11.7542 14.566C11.8045 14.5316 11.8457 14.4954 11.8722 14.4711C11.928 14.42 11.9865 14.3583 12.0408 14.2983C12.1527 14.175 12.2937 14.0073 12.4486 13.8171C12.7605 13.4342 13.1555 12.9279 13.5408 12.4266C13.927 11.9241 14.307 11.4222 14.5903 11.0461C14.7319 10.858 14.8496 10.7013 14.9318 10.5914L15.0612 10.4184Z" fill="#222628"/>
</svg>
