<svg width="24" height="24" viewBox="0 0 24 24" fill="none" xmlns="http://www.w3.org/2000/svg">
<path fill-rule="evenodd" clip-rule="evenodd" d="M19.5 6.40541C17.5 5 12.5 3 12.0117 3C11.5233 3 6.49999 5 4.5 6.40541L4.50001 14.1892C4.50001 18.0811 11.5233 21 12.0117 21C12.5 21 19.5 18.3784 19.5 14.1892V6.40541ZM13.995 10.005C14.2684 10.2784 14.2684 10.7216 13.995 10.995L12.99 12L13.995 13.005C14.2683 13.2784 14.2683 13.7216 13.995 13.9949C13.7216 14.2683 13.2784 14.2683 13.005 13.9949L12 12.9899L10.995 13.995C10.7216 14.2683 10.2784 14.2683 10.0051 13.995C9.7317 13.7216 9.7317 13.2784 10.0051 13.005L11.0101 12L10.005 10.9949C9.73166 10.7216 9.73166 10.2784 10.005 10.005C10.2784 9.73162 10.7216 9.73162 10.995 10.005L12 11.0101L13.0051 10.005C13.2784 9.73166 13.7216 9.73166 13.995 10.005Z" fill="#222628"/>
</svg>
