<svg width="24" height="24" viewBox="0 0 24 24" fill="none" xmlns="http://www.w3.org/2000/svg">
<path fill-rule="evenodd" clip-rule="evenodd" d="M14 8.30005C14.3866 8.30005 14.7 8.61345 14.7 9.00005L14.7 17C14.7 17.3866 14.3866 17.7 14 17.7C13.6134 17.7 13.3 17.3866 13.3 17L13.3 9.00005C13.3 8.61345 13.6134 8.30005 14 8.30005Z" fill="#222628"/>
<path fill-rule="evenodd" clip-rule="evenodd" d="M19 5.30005C19.3866 5.30005 19.7 5.61345 19.7 6.00005L19.7 17C19.7 17.3866 19.3866 17.7 19 17.7C18.6134 17.7 18.3 17.3866 18.3 17L18.3 6.00005C18.3 5.61345 18.6134 5.30005 19 5.30005Z" fill="#222628"/>
<path fill-rule="evenodd" clip-rule="evenodd" d="M9.00001 11.3C9.38661 11.3 9.70001 11.6134 9.70001 12L9.70001 17C9.70001 17.3866 9.38661 17.7 9.00001 17.7C8.61341 17.7 8.30001 17.3866 8.30001 17L8.30001 12C8.30001 11.6134 8.61341 11.3 9.00001 11.3Z" fill="#222628"/>
<path fill-rule="evenodd" clip-rule="evenodd" d="M4.00001 14.3C4.38661 14.3 4.70001 14.6134 4.70001 15L4.70001 17C4.70001 17.3866 4.38661 17.7 4.00001 17.7C3.61341 17.7 3.30001 17.3866 3.30001 17L3.30001 15C3.30001 14.6134 3.61341 14.3 4.00001 14.3Z" fill="#222628"/>
</svg>
