<svg width="24" height="24" viewBox="0 0 24 24" fill="none" xmlns="http://www.w3.org/2000/svg">
<path fill-rule="evenodd" clip-rule="evenodd" d="M5 5C5 3.34315 6.34315 2 8 2H16C17.6569 2 19 3.34315 19 5V19C19 20.6569 17.6569 22 16 22H8C6.34315 22 5 20.6569 5 19V5ZM12 13.7C10.7297 13.7 9.7 14.7297 9.7 16C9.7 17.2703 10.7297 18.3 12 18.3C13.2703 18.3 14.3 17.2703 14.3 16C14.3 14.7297 13.2703 13.7 12 13.7ZM8.3 16C8.3 13.9565 9.95655 12.3 12 12.3C14.0435 12.3 15.7 13.9565 15.7 16C15.7 18.0435 14.0435 19.7 12 19.7C9.95655 19.7 8.3 18.0435 8.3 16ZM12 9C12.5523 9 13 8.55228 13 8C13 7.44772 12.5523 7 12 7C11.4477 7 11 7.44772 11 8C11 8.55228 11.4477 9 12 9Z" fill="#222628"/>
</svg>
