<svg width="24" height="24" viewBox="0 0 24 24" fill="none" xmlns="http://www.w3.org/2000/svg">
<path d="M10.3172 4.61983C11.1044 3.3943 12.8956 3.3943 13.6828 4.61983L14.988 6.65196C15.2589 7.07362 15.6781 7.37824 16.1629 7.50552L18.4989 8.11892C19.9077 8.48885 20.4612 10.1924 19.5389 11.3198L18.0096 13.1891C17.6922 13.577 17.5321 14.0699 17.5608 14.5702L17.6993 16.9814C17.7828 18.4356 16.3337 19.4884 14.9765 18.9596L12.7261 18.0828C12.2591 17.9009 11.7409 17.9009 11.2739 18.0828L9.02349 18.9596C7.66632 19.4884 6.21718 18.4356 6.3007 16.9814L6.43919 14.5702C6.46793 14.0699 6.30778 13.577 5.99044 13.1891L4.46111 11.3198C3.53881 10.1924 4.09234 8.48885 5.50113 8.11892L7.83714 7.50552C8.32186 7.37824 8.74114 7.07362 9.01198 6.65196L10.3172 4.61983Z" fill="#222628"/>
</svg>
