<svg width="24" height="24" viewBox="0 0 24 24" fill="none" xmlns="http://www.w3.org/2000/svg">
<path fill-rule="evenodd" clip-rule="evenodd" d="M12 17.3C12.3866 17.3 12.7 17.6134 12.7 18V20.0149L16.2458 21.3446C16.5627 21.4634 16.7491 21.792 16.6888 22.1249C16.6284 22.4579 16.3384 22.7 16 22.7H7.99999C7.66157 22.7 7.37161 22.4579 7.31123 22.1249C7.25084 21.792 7.43733 21.4634 7.75421 21.3446L11.3 20.0149V18C11.3 17.6134 11.6134 17.3 12 17.3Z" fill="#222628"/>
<path fill-rule="evenodd" clip-rule="evenodd" d="M2.54497 4.73005C2 5.79961 2 7.19974 2 10C2 12.8003 2 14.2004 2.54497 15.27C3.02433 16.2108 3.78924 16.9757 4.73005 17.455C5.79961 18 7.19974 18 10 18H14C16.8003 18 18.2004 18 19.27 17.455C20.2108 16.9757 20.9757 16.2108 21.455 15.27C22 14.2004 22 12.8003 22 10C22 7.19974 22 5.79961 21.455 4.73005C20.9757 3.78924 20.2108 3.02433 19.27 2.54497C18.2004 2 16.8003 2 14 2H10C7.19974 2 5.79961 2 4.73005 2.54497C3.78924 3.02433 3.02433 3.78924 2.54497 4.73005ZM10.9481 8.46224C10.67 8.23047 10.261 8.24902 10.005 8.50503L7.50503 11.005C7.23166 11.2784 7.23166 11.7216 7.50503 11.995C7.77839 12.2683 8.22161 12.2683 8.49497 11.995L10.543 9.94699L13.0519 12.0378C13.33 12.2695 13.739 12.251 13.995 11.995L16.495 9.49497C16.7683 9.22161 16.7683 8.77839 16.495 8.50503C16.2216 8.23166 15.7784 8.23166 15.505 8.50503L13.457 10.553L10.9481 8.46224Z" fill="#222628"/>
</svg>
