<svg width="24" height="24" viewBox="0 0 24 24" fill="none" xmlns="http://www.w3.org/2000/svg">
<path fill-rule="evenodd" clip-rule="evenodd" d="M2.80385 5C2 6.3923 2 8.26154 2 12C2 15.7385 2 17.6077 2.80385 19C3.33046 19.9121 4.08788 20.6695 5 21.1962C6.3923 22 8.26154 22 12 22C15.7385 22 17.6077 22 19 21.1962C19.9121 20.6695 20.6695 19.9121 21.1962 19C22 17.6077 22 15.7385 22 12C22 8.26154 22 6.3923 21.1962 5C20.6695 4.08788 19.9121 3.33046 19 2.80385C17.6077 2 15.7385 2 12 2C8.26154 2 6.3923 2 5 2.80385C4.08788 3.33046 3.33046 4.08788 2.80385 5ZM10.9481 10.4622C10.67 10.2305 10.261 10.249 10.005 10.505L7.50503 13.005C7.23166 13.2784 7.23166 13.7216 7.50503 13.995C7.77839 14.2683 8.22161 14.2683 8.49497 13.995L10.543 11.947L13.0519 14.0378C13.33 14.2695 13.739 14.251 13.995 13.995L16.495 11.495C16.7683 11.2216 16.7683 10.7784 16.495 10.505C16.2216 10.2317 15.7784 10.2317 15.505 10.505L13.457 12.553L10.9481 10.4622Z" fill="#222628"/>
</svg>
