<svg width="24" height="24" viewBox="0 0 24 24" fill="none" xmlns="http://www.w3.org/2000/svg">
<path fill-rule="evenodd" clip-rule="evenodd" d="M12.4243 5.42437C12.6586 5.65868 12.6586 6.03858 12.4243 6.2729L9.27281 9.42437C9.03849 9.65868 8.65859 9.65868 8.42428 9.42437C8.18996 9.19005 8.18996 8.81016 8.42428 8.57584L11.5757 5.42437C11.8101 5.19005 12.19 5.19005 12.4243 5.42437Z" fill="#222628"/>
<path fill-rule="evenodd" clip-rule="evenodd" d="M11.5757 5.42437C11.3414 5.65868 11.3414 6.03858 11.5757 6.2729L14.7272 9.42437C14.9615 9.65868 15.3414 9.65868 15.5757 9.42437C15.81 9.19005 15.81 8.81016 15.5757 8.57584L12.4243 5.42437C12.1899 5.19005 11.81 5.19005 11.5757 5.42437Z" fill="#222628"/>
<path fill-rule="evenodd" clip-rule="evenodd" d="M12.7 6.30005V12.7H11.3V6.30005H12.7Z" fill="#222628"/>
<path fill-rule="evenodd" clip-rule="evenodd" d="M21 13.0001L21 16.1773C21 17.6941 19.8691 18.9702 18.3593 19.1158C16.4741 19.2976 13.9392 19.5 12 19.5C10.0608 19.5 7.52589 19.2976 5.64065 19.1158C4.13089 18.9702 3 17.6941 3 16.1773L3 13.0001C3 12.4478 3.44772 12 4 12L11.3 12L11.3 15C11.3 15.3866 11.6134 15.7 12 15.7C12.3866 15.7 12.7 15.3866 12.7 15L12.7 12L20 12C20.5523 12 21 12.4478 21 13.0001Z" fill="#222628"/>
</svg>
