<svg width="24" height="24" viewBox="0 0 24 24" fill="none" xmlns="http://www.w3.org/2000/svg">
<path d="M12.0175 7.5C8.42765 7.5 5.5175 10.4101 5.5175 14H18.5175C18.5175 10.4101 15.6074 7.5 12.0175 7.5Z" fill="#222628"/>
<path fill-rule="evenodd" clip-rule="evenodd" d="M12 5L11.965 5.00007C11.4127 5.00221 10.9632 4.55624 10.9611 4.00396C10.9589 3.45168 11.4049 3.00223 11.9572 3.00008L12 3L12.0428 3.00008C12.5951 3.00223 13.0411 3.45168 13.0389 4.00396C13.0368 4.55624 12.5873 5.00221 12.035 5.00007L12 5ZM5.66637 6.19711C6.05537 6.58915 6.05291 7.22231 5.66087 7.61131L5.63605 7.63604C5.24552 8.02656 4.61236 8.02656 4.22183 7.63604C3.83131 7.24551 3.83131 6.61235 4.22183 6.22182L4.25216 6.19161C4.6442 5.80261 5.27736 5.80507 5.66637 6.19711ZM18.3336 6.19711C18.7227 5.80507 19.3558 5.80261 19.7479 6.19161L19.7782 6.22183C20.1687 6.61235 20.1687 7.24551 19.7782 7.63604C19.3877 8.02656 18.7545 8.02656 18.364 7.63604L18.3391 7.61131C17.9471 7.22231 17.9446 6.58915 18.3336 6.19711Z" fill="#222628"/>
<path fill-rule="evenodd" clip-rule="evenodd" d="M2 14.3001C2 13.9135 2.3134 13.6001 2.7 13.6001H21.3C21.6866 13.6001 22 13.9135 22 14.3001C22 14.6867 21.6866 15.0001 21.3 15.0001H2.7C2.3134 15.0001 2 14.6867 2 14.3001Z" fill="#222628"/>
<path fill-rule="evenodd" clip-rule="evenodd" d="M5 17.3001C5 16.9135 5.3134 16.6001 5.7 16.6001L18.3 16.6001C18.6866 16.6001 19 16.9135 19 17.3001C19 17.6867 18.6866 18.0001 18.3 18.0001L5.7 18.0001C5.3134 18.0001 5 17.6867 5 17.3001Z" fill="#222628"/>
</svg>
