<svg width="24" height="24" viewBox="0 0 24 24" fill="none" xmlns="http://www.w3.org/2000/svg">
<path fill-rule="evenodd" clip-rule="evenodd" d="M2.80385 5C2 6.3923 2 8.26154 2 12C2 15.7385 2 17.6077 2.80385 19C3.33046 19.9121 4.08788 20.6695 5 21.1962C6.3923 22 8.26154 22 12 22C15.7385 22 17.6077 22 19 21.1962C19.9121 20.6695 20.6695 19.9121 21.1962 19C22 17.6077 22 15.7385 22 12C22 8.26154 22 6.3923 21.1962 5C20.6695 4.08788 19.9121 3.33046 19 2.80385C17.6077 2 15.7385 2 12 2C8.26154 2 6.3923 2 5 2.80385C4.08788 3.33046 3.33046 4.08788 2.80385 5ZM7.5 7.8C7.1134 7.8 6.8 8.1134 6.8 8.5C6.8 8.8866 7.1134 9.2 7.5 9.2H11.3V16.5C11.3 16.8866 11.6134 17.2 12 17.2C12.3866 17.2 12.7 16.8866 12.7 16.5V9.2H16.5C16.8866 9.2 17.2 8.8866 17.2 8.5C17.2 8.1134 16.8866 7.8 16.5 7.8H12H7.5Z" fill="#222628"/>
</svg>
