<svg width="24" height="24" viewBox="0 0 24 24" fill="none" xmlns="http://www.w3.org/2000/svg">
<path fill-rule="evenodd" clip-rule="evenodd" d="M20.3842 3.21229C20.6491 3.4939 20.6491 3.95048 20.3842 4.23209L18.9666 5.73929C18.7017 6.0209 18.2723 6.0209 18.0074 5.73929C17.7425 5.45768 17.7425 5.00111 18.0074 4.7195L19.425 3.21229C19.6899 2.93068 20.1193 2.93068 20.3842 3.21229Z" fill="#222628"/>
<path fill-rule="evenodd" clip-rule="evenodd" d="M22.5885 8.89515C22.5753 9.29316 22.2611 9.60439 21.8867 9.5903L19.6823 9.50733C19.3079 9.49325 19.0152 9.15918 19.0285 8.76117C19.0417 8.36316 19.3559 8.05194 19.7303 8.06602L21.9347 8.14899C22.309 8.16308 22.6018 8.49715 22.5885 8.89515Z" fill="#222628"/>
<path fill-rule="evenodd" clip-rule="evenodd" d="M15.0392 0.868669C15.4136 0.85458 15.7278 1.16581 15.741 1.56381L15.8191 3.90758C15.8323 4.30559 15.5396 4.63966 15.1652 4.65375C14.7909 4.66784 14.4767 4.35661 14.4634 3.9586L14.3854 1.61483C14.3721 1.21683 14.6649 0.882758 15.0392 0.868669Z" fill="#222628"/>
<path fill-rule="evenodd" clip-rule="evenodd" d="M3.86828 13.9749C2.6967 15.1464 2.6967 17.0459 3.86828 18.2175L5.28249 19.6317C6.45406 20.8033 8.35356 20.8033 9.52513 19.6317L13.5784 15.5785C13.9903 15.1665 14.5133 14.8834 15.0835 14.7637L17.0913 14.3423C17.5469 14.2467 17.9647 14.0206 18.2938 13.6914C18.5278 13.4574 18.5278 13.0781 18.2938 12.8441L14.4749 9.02511L10.6559 5.20617C10.4219 4.97217 10.0425 4.97217 9.80854 5.20617C9.47942 5.53529 9.25325 5.95312 9.15765 6.40864L8.73625 8.41648C8.61658 8.98665 8.33349 9.50965 7.92153 9.9216L3.86828 13.9749ZM8.60592 15.8841C8.87928 15.6107 8.87928 15.1675 8.60592 14.8941C8.33255 14.6208 7.88933 14.6208 7.61597 14.8941L6.90886 15.6013C6.63549 15.8746 6.63549 16.3178 6.90886 16.5912C7.18223 16.8646 7.62544 16.8646 7.89881 16.5912L8.60592 15.8841Z" fill="#222628"/>
</svg>
