<svg width="24" height="24" viewBox="0 0 24 24" fill="none" xmlns="http://www.w3.org/2000/svg">
<path d="M9.60953 22H14.3905C15.961 22 17.2687 20.4015 17.3965 18.3254L17.9987 8.54068C18.0166 8.24947 17.8433 8 17.623 8H6.37702C6.15671 8 5.98334 8.24947 6.00127 8.54068L6.60353 18.3254C6.73131 20.4015 8.03899 22 9.60953 22Z" fill="#222628"/>
<path fill-rule="evenodd" clip-rule="evenodd" d="M5.68922 7.87579C5.82647 7.6783 6.06393 7.5 6.37702 7.5H17.623C17.9361 7.5 18.1735 7.6783 18.3108 7.87579C18.4484 8.07383 18.5131 8.32213 18.4978 8.5714L17.8955 18.3562C17.7593 20.5688 16.336 22.5 14.3905 22.5H9.60953C7.66398 22.5 6.24067 20.5688 6.10447 18.3562L5.50221 8.5714C5.48687 8.32214 5.55159 8.07383 5.68922 7.87579ZM6.49999 8.5C6.5 8.50318 6.50011 8.50651 6.50032 8.50996L7.10259 18.2947C7.22196 20.2342 8.41399 21.5 9.60953 21.5H14.3905C15.586 21.5 16.778 20.2342 16.8974 18.2947L17.4997 8.50996C17.4999 8.50651 17.5 8.50319 17.5 8.5H6.49999Z" fill="#222628"/>
<path fill-rule="evenodd" clip-rule="evenodd" d="M3 5.29985C3 4.91325 3.3134 4.59985 3.7 4.59985L20.3 4.59985C20.6866 4.59985 21 4.91325 21 5.29985C21 5.68645 20.6866 5.99985 20.3 5.99985L3.7 5.99985C3.3134 5.99985 3 5.68645 3 5.29985Z" fill="#222628"/>
<path fill-rule="evenodd" clip-rule="evenodd" d="M15.7 4.70029C15.7 5.08689 15.3866 5.40029 15 5.40029L13.4278 5.40029L13.3148 4.8437C13.3147 4.84317 13.3145 4.84247 13.3143 4.84162C13.3132 4.83659 13.3106 4.82622 13.3066 4.81128C13.2984 4.78123 13.2842 4.73374 13.2627 4.67475C13.2188 4.55464 13.1486 4.39879 13.0443 4.24753C12.8453 3.95893 12.5396 3.69997 12 3.69997C11.4603 3.69997 11.1547 3.95894 10.9557 4.24753C10.8514 4.39879 10.7812 4.55464 10.7373 4.67474C10.7157 4.73373 10.7016 4.78123 10.6934 4.81127C10.6893 4.82621 10.6868 4.83658 10.6856 4.84161C10.6854 4.84246 10.6853 4.84316 10.6851 4.84369L10.5722 5.40028L8.99998 5.40028C8.61338 5.40028 8.29998 5.08688 8.29998 4.70028C8.29998 4.31368 8.61338 4.00028 8.99998 4.00028L9.50001 4.00028C9.57201 3.83528 9.67047 3.64513 9.80316 3.45272C10.1904 2.89116 10.8848 2.29997 12 2.29997C13.1152 2.29996 13.8095 2.89116 14.1968 3.45272C14.3295 3.64514 14.428 3.83528 14.5 4.00029L15 4.00029C15.3866 4.00029 15.7 4.31369 15.7 4.70029Z" fill="#222628"/>
</svg>
