<svg width="24" height="24" viewBox="0 0 24 24" fill="none" xmlns="http://www.w3.org/2000/svg">
<path fill-rule="evenodd" clip-rule="evenodd" d="M15.7 4.91489C15.7 5.30149 15.3866 5.61489 15 5.61489L13.4278 5.61489L13.3149 5.0583L13.3144 5.05622C13.3132 5.05119 13.3107 5.04082 13.3066 5.02588C13.2984 4.99583 13.2843 4.94834 13.2627 4.88935C13.2188 4.76924 13.1043 5.15126 13 5C12.801 4.7114 12.5397 5 12 5C11.4604 5 11.1991 4.60075 11 4.88934C10.8957 5.0406 10.7812 4.76924 10.7373 4.88934C10.7158 4.94833 10.7016 4.99583 10.6934 5.02587C10.6894 5.04081 10.6868 5.05118 10.6857 5.05621L10.6852 5.05829L10.5722 5.61488L9.00001 5.61488C8.61341 5.61488 8.30001 5.30148 8.30001 4.91488C8.30001 4.52828 8.61341 4.21488 9.00001 4.21488L9.50004 4.21488C9.57204 4.04988 9.6705 3.85973 9.80319 3.66732C10.1905 3.10576 10.8848 2.51457 12 2.51457C13.1152 2.51456 13.8096 3.10576 14.1968 3.66732C14.3295 3.85974 14.428 4.04988 14.5 4.21489L15 4.21489C15.3866 4.21489 15.7 4.52829 15.7 4.91489Z" fill="#222628"/>
<path fill-rule="evenodd" clip-rule="evenodd" d="M9.84841 22H14.151C16.3003 22 18.0654 20.1708 18.148 17.8579L18.4801 8.55916C18.491 8.25388 18.2641 8 17.9805 8H6.01966C5.73598 8 5.50913 8.25388 5.52003 8.55916L5.85213 17.8579C5.93473 20.1708 7.69908 22 9.84841 22ZM14 13.7077C14.3866 13.7077 14.7 14.0453 14.7 14.4616V16.6154C14.7 17.0318 14.3866 17.3693 14 17.3693C13.6134 17.3693 13.3 17.0318 13.3 16.6154V14.4616C13.3 14.0453 13.6134 13.7077 14 13.7077ZM10.7 14.4616C10.7 14.0453 10.3866 13.7077 9.99995 13.7077C9.61335 13.7077 9.29995 14.0453 9.29995 14.4616V16.6154C9.29995 17.0318 9.61335 17.3693 9.99995 17.3693C10.3866 17.3693 10.7 17.0318 10.7 16.6154V14.4616Z" fill="#222628"/>
<path fill-rule="evenodd" clip-rule="evenodd" d="M20.6973 5.76112C20.6636 6.14625 20.3241 6.43114 19.939 6.39744L18.2151 6.2466C14.0796 5.88474 9.9204 5.88474 5.78489 6.2466L4.06102 6.39744C3.67589 6.43114 3.33636 6.14625 3.30266 5.76112C3.26896 5.37599 3.55385 5.03647 3.93898 5.00277L5.66285 4.85193C9.87956 4.48296 14.1204 4.48296 18.3371 4.85193L20.061 5.00277C20.4461 5.03647 20.731 5.37599 20.6973 5.76112Z" fill="#222628"/>
</svg>
