<svg width="24" height="24" viewBox="0 0 24 24" fill="none" xmlns="http://www.w3.org/2000/svg">
<path d="M2 11.3C2 8.67519 2 7.36278 2.66844 6.44275C2.88432 6.14562 3.14562 5.88432 3.44275 5.66844C4.36278 5 5.67519 5 8.3 5H15.7C18.3248 5 19.6372 5 20.5572 5.66844C20.8544 5.88432 21.1157 6.14562 21.3316 6.44275C22 7.36278 22 8.67519 22 11.3V11.7C22 14.3248 22 15.6372 21.3316 16.5572C21.1157 16.8544 20.8544 17.1157 20.5572 17.3316C19.6372 18 18.3248 18 15.7 18H8.3C5.67519 18 4.36278 18 3.44275 17.3316C3.14562 17.1157 2.88432 16.8544 2.66844 16.5572C2 15.6372 2 14.3248 2 11.7V11.3Z" fill="#222628"/>
<path fill-rule="evenodd" clip-rule="evenodd" d="M8.26973 4.5H15.7303C17.017 4.49999 18.0236 4.49999 18.8218 4.58646C19.6355 4.67463 20.2917 4.85746 20.8511 5.26393C21.1907 5.51065 21.4893 5.80928 21.7361 6.14886C22.1425 6.70831 22.3254 7.36448 22.4135 8.17823C22.5 8.97637 22.5 9.98295 22.5 11.2697V11.7303C22.5 13.017 22.5 14.0236 22.4135 14.8218C22.3254 15.6355 22.1425 16.2917 21.7361 16.8511C21.4893 17.1907 21.1907 17.4893 20.8511 17.7361C20.2917 18.1425 19.6355 18.3254 18.8218 18.4135C18.0236 18.5 17.017 18.5 15.7303 18.5H8.26972C6.98295 18.5 5.97637 18.5 5.17823 18.4135C4.36448 18.3254 3.70831 18.1425 3.14886 17.7361C2.80928 17.4893 2.51065 17.1907 2.26393 16.8511C1.85746 16.2917 1.67463 15.6355 1.58646 14.8218C1.49999 14.0236 1.49999 13.017 1.5 11.7303V11.2697C1.49999 9.98296 1.49999 8.97637 1.58646 8.17823C1.67463 7.36448 1.85746 6.70831 2.26393 6.14886C2.51065 5.80928 2.80928 5.51065 3.14886 5.26393C3.70831 4.85746 4.36448 4.67463 5.17823 4.58646C5.97637 4.49999 6.98296 4.49999 8.26973 4.5ZM5.28594 5.58065C4.55727 5.65959 4.09722 5.81098 3.73664 6.07295C3.48196 6.25799 3.25799 6.48196 3.07295 6.73664C2.81098 7.09722 2.65959 7.55727 2.58065 8.28594C2.50069 9.02396 2.5 9.97646 2.5 11.3V11.7C2.5 13.0235 2.50069 13.976 2.58065 14.7141C2.65959 15.4427 2.81098 15.9028 3.07295 16.2634C3.25799 16.518 3.48196 16.742 3.73664 16.9271C4.09722 17.189 4.55727 17.3404 5.28594 17.4194C6.02396 17.4993 6.97646 17.5 8.3 17.5H15.7C17.0235 17.5 17.976 17.4993 18.7141 17.4194C19.4427 17.3404 19.9028 17.189 20.2634 16.9271C20.518 16.742 20.742 16.518 20.9271 16.2634C21.189 15.9028 21.3404 15.4427 21.4194 14.7141C21.4993 13.976 21.5 13.0235 21.5 11.7V11.3C21.5 9.97646 21.4993 9.02396 21.4194 8.28594C21.3404 7.55727 21.189 7.09722 20.9271 6.73664C20.742 6.48196 20.518 6.25799 20.2634 6.07295C19.9028 5.81098 19.4427 5.65959 18.7141 5.58065C17.976 5.50069 17.0235 5.5 15.7 5.5H8.3C6.97646 5.5 6.02396 5.50069 5.28594 5.58065Z" fill="#222628"/>
<path fill-rule="evenodd" clip-rule="evenodd" d="M16.495 17.505C16.7683 17.2316 17.2116 17.2316 17.4849 17.505L19.495 19.515C19.7683 19.7884 19.7683 20.2316 19.495 20.505C19.2216 20.7784 18.7784 20.7784 18.505 20.505L16.495 18.4949C16.2216 18.2216 16.2216 17.7784 16.495 17.505Z" fill="#222628"/>
<path fill-rule="evenodd" clip-rule="evenodd" d="M14.495 2.49502C14.7683 2.76838 14.7683 3.2116 14.495 3.48496L12.4849 5.49502C12.2116 5.76838 11.7683 5.76838 11.495 5.49502C11.2216 5.22165 11.2216 4.77843 11.495 4.50507L13.505 2.49502C13.7784 2.22165 14.2216 2.22165 14.495 2.49502Z" fill="#222628"/>
<path fill-rule="evenodd" clip-rule="evenodd" d="M4.50503 20.505C4.23166 20.2316 4.23166 19.7884 4.50503 19.515L6.51508 17.505C6.78845 17.2316 7.23166 17.2316 7.50503 17.505C7.7784 17.7784 7.7784 18.2216 7.50503 18.4949L5.49498 20.505C5.22161 20.7784 4.7784 20.7784 4.50503 20.505Z" fill="#222628"/>
<path fill-rule="evenodd" clip-rule="evenodd" d="M12.505 5.49502C12.2317 5.76838 11.7884 5.76838 11.5151 5.49502L9.50503 3.48497C9.23166 3.2116 9.23166 2.76838 9.50503 2.49502C9.7784 2.22165 10.2216 2.22165 10.495 2.49502L12.505 4.50507C12.7784 4.77843 12.7784 5.22165 12.505 5.49502Z" fill="#222628"/>
</svg>
