<svg width="24" height="24" viewBox="0 0 24 24" fill="none" xmlns="http://www.w3.org/2000/svg">
<path fill-rule="evenodd" clip-rule="evenodd" d="M15.0038 4.20195C14.9751 3.81642 15.2643 3.48058 15.6498 3.45182L15.7019 4.14988C15.6498 3.45182 15.6502 3.45179 15.6506 3.45176L15.6515 3.4517L15.6534 3.45157L15.6577 3.45127L15.6688 3.4506C15.6773 3.45013 15.6878 3.44961 15.7004 3.44915C15.7256 3.44823 15.7588 3.44752 15.799 3.44777C15.8793 3.44827 15.989 3.45262 16.1193 3.46717C16.3776 3.49599 16.7319 3.56648 17.1041 3.73754C17.8897 4.09859 18.6605 4.86885 18.8415 6.33341C19.0229 7.80078 18.4567 8.71975 17.7622 9.2378C17.4361 9.48105 17.1038 9.62045 16.8576 9.69948C16.7332 9.73943 16.6267 9.76525 16.5482 9.78151C16.5088 9.78966 16.4761 9.79549 16.4513 9.79952C16.4389 9.80154 16.4284 9.80311 16.42 9.80431L16.4089 9.80583L16.4046 9.80639L16.4028 9.80663L16.4019 9.80673C16.4015 9.80678 16.4011 9.80683 16.3153 9.11212L16.4011 9.80683C16.0174 9.85426 15.668 9.58166 15.6205 9.19799C15.5734 8.81629 15.8429 8.46844 16.2234 8.41816C16.2249 8.41797 16.2264 8.41778 16.2279 8.41759L16.2267 8.41775L16.2247 8.41801L16.2227 8.41827C16.2226 8.41829 16.2228 8.41826 16.2234 8.41816C16.2241 8.41806 16.2253 8.41788 16.2269 8.41761C16.2332 8.4166 16.246 8.41439 16.2643 8.41059C16.3012 8.40295 16.3589 8.38921 16.4297 8.3665C16.5739 8.32021 16.7558 8.2419 16.9251 8.1156C17.2214 7.89457 17.571 7.46712 17.4521 6.50514C17.3329 5.54035 16.8813 5.17591 16.5194 5.00961C16.3179 4.91699 16.1173 4.87563 15.9641 4.85853C15.8887 4.85012 15.8284 4.84798 15.7903 4.84774C15.7713 4.84762 15.7581 4.84797 15.7517 4.84821C15.75 4.84827 15.7488 4.84833 15.7481 4.84836C15.75 4.84823 15.752 4.84809 15.754 4.84794M15.0038 4.20195C15.0325 4.5855 15.365 4.87374 15.7481 4.84836L15.0038 4.20195ZM16.228 8.41758L16.2286 8.4175C16.2286 8.4175 16.2286 8.4175 16.2286 8.4175C16.2284 8.41752 16.2282 8.41755 16.228 8.41758Z" fill="#222628"/>
<path d="M3.24942 17.508C3.27293 17.1788 3.28469 17.0142 3.29886 16.9131C3.51817 15.3491 4.70204 14.3236 6.28138 14.3297C6.38342 14.3301 6.58768 14.3448 6.9962 14.3742C7.75115 14.4286 8.5513 14.4666 9.31223 14.4666C10.1774 14.4666 11.1328 14.4174 12.0287 14.351C12.422 14.3219 12.6187 14.3073 12.7309 14.3074C14.278 14.3086 15.4715 15.3401 15.6967 16.8707C15.713 16.9817 15.7249 17.1481 15.7486 17.4808C15.7687 17.7623 15.7788 17.903 15.778 18.02C15.7675 19.5785 14.5656 20.8693 13.0119 20.9908C12.8951 20.9999 12.7541 20.9999 12.4719 20.9999H9.31223H6.50079C6.24379 20.9999 6.11528 20.9999 6.00891 20.9924C4.43841 20.8806 3.22154 19.5737 3.22192 17.9992C3.22195 17.8926 3.23111 17.7644 3.24942 17.508Z" fill="#222628"/>
<path fill-rule="evenodd" clip-rule="evenodd" d="M17.921 15.5368C17.5544 15.6587 17.1583 15.4605 17.0361 15.0939C16.9139 14.7271 17.1121 14.3307 17.4788 14.2084L17.7002 14.8725C17.4788 14.2084 17.4791 14.2083 17.4794 14.2082L17.4801 14.208L17.4816 14.2075L17.4855 14.2063L17.4965 14.2027C17.5054 14.1999 17.5171 14.1962 17.5315 14.1919C17.5602 14.1832 17.5999 14.1717 17.649 14.1586C17.7467 14.1326 17.8835 14.0999 18.047 14.071C18.3671 14.0143 18.8209 13.9664 19.2944 14.0308C19.7699 14.0954 20.3173 14.2813 20.7438 14.7394C21.1691 15.1962 21.3925 15.8356 21.4 16.645C21.528 17.7626 21.4006 18.6445 21.0744 19.3297C20.7399 20.0326 20.2242 20.469 19.6957 20.728C19.1786 20.9814 18.6569 21.0623 18.2796 21.0841C18.0882 21.0951 17.926 21.0914 17.809 21.0846C17.7504 21.0812 17.7025 21.077 17.6673 21.0734C17.6497 21.0716 17.6353 21.0699 17.6242 21.0685L17.6101 21.0667L17.605 21.066L17.6029 21.0657L17.602 21.0656C17.6016 21.0655 17.6012 21.0655 17.7002 20.3725L17.6012 21.0655C17.2185 21.0108 16.9526 20.6562 17.0072 20.2735C17.0617 19.892 17.4143 19.6265 17.7956 19.679C17.7951 19.679 17.795 19.679 17.7954 19.679M17.7956 19.679C17.7958 19.6791 17.796 19.6791 17.7963 19.6791L17.8114 19.6808C17.8273 19.6825 17.8541 19.6849 17.8902 19.687C17.9627 19.6912 18.07 19.6939 18.1989 19.6864C18.4622 19.6712 18.7843 19.6155 19.0797 19.4708C19.3637 19.3317 19.6293 19.1084 19.8103 18.728C19.9959 18.3382 20.1193 17.7263 20.0051 16.7706C20.0018 16.743 20.0002 16.7153 20.0002 16.6875C20.0002 16.1096 19.8489 15.8328 19.7191 15.6933C19.5831 15.5472 19.3805 15.4553 19.106 15.418C18.8295 15.3805 18.5333 15.4067 18.2909 15.4495C18.1731 15.4704 18.0755 15.4938 18.0092 15.5115C17.9762 15.5203 17.9515 15.5275 17.9363 15.5321L17.921 15.5368C17.9209 15.5368 17.9207 15.5369 17.9206 15.5369L17.9206 15.5369L17.921 15.5368M17.9206 15.5369L17.9199 15.5372L17.9193 15.5374C17.9192 15.5374 17.9194 15.5373 17.9199 15.5372C17.9201 15.5371 17.9203 15.537 17.9206 15.5369Z" fill="#222628"/>
<path d="M6 7.5C6 5.567 7.567 4 9.5 4C11.433 4 13 5.567 13 7.5V8C13 9.65685 11.6569 11 10 11H9C7.34315 11 6 9.65685 6 8V7.5Z" fill="#222628"/>
</svg>
