<svg width="24" height="24" viewBox="0 0 24 24" fill="none" xmlns="http://www.w3.org/2000/svg">
<path d="M9.67555 8.81681C9.77636 9.1882 9.55831 9.57171 9.187 9.67466C8.81446 9.77796 8.42872 9.55969 8.32542 9.18715L8.32499 9.18559L8.32449 9.18377L8.32329 9.17933L8.32014 9.16736C8.31772 9.15801 8.31469 9.14593 8.31118 9.13125C8.30416 9.10189 8.29521 9.06204 8.28545 9.01266C8.26597 8.91405 8.24312 8.77661 8.2261 8.60828C8.19221 8.27301 8.18058 7.8066 8.26991 7.27621C8.45181 6.19617 9.05034 4.88176 10.6321 3.90458C10.6499 3.89357 10.6682 3.88337 10.687 3.87401C12.4185 3.00823 13.9033 3.2941 14.9381 3.81151C15.4453 4.06514 15.8405 4.37106 16.1089 4.61262C16.2438 4.73404 16.3488 4.8411 16.422 4.92019C16.4586 4.95979 16.4875 4.99257 16.5083 5.01685C16.5187 5.02899 16.5271 5.03903 16.5335 5.04676L16.5416 5.0566L16.5445 5.06017L16.5457 5.06161L16.5466 5.06283C16.7881 5.36471 16.7392 5.80521 16.4373 6.04672C16.1362 6.28758 15.6873 6.22768 15.4453 5.92796C15.4354 5.91635 15.4183 5.89688 15.3944 5.87105C15.3465 5.81928 15.2718 5.74274 15.1724 5.65323C14.972 5.47291 14.6797 5.24758 14.312 5.06371C13.6021 4.70876 12.5965 4.49516 11.3412 5.11228C10.1709 5.84548 9.77445 6.77259 9.65047 7.50872C9.58639 7.88922 9.59465 8.22663 9.619 8.46746C9.63111 8.58718 9.64696 8.68086 9.65891 8.74136C9.66487 8.77154 9.66982 8.79324 9.67276 8.80554L9.67555 8.81681Z" fill="#222628"/>
<path fill-rule="evenodd" clip-rule="evenodd" d="M3.45089 13.5892C3.41684 14.0022 3.45839 14.5009 3.54151 15.4983C3.61308 16.3571 3.64886 16.7865 3.7345 17.1492C4.20433 19.1387 5.83792 20.6418 7.85956 20.9448C8.22805 21 8.65896 21 9.52078 21H12H14.4792C15.341 21 15.7719 21 16.1404 20.9448C18.162 20.6418 19.7956 19.1387 20.2655 17.1492C20.3511 16.7865 20.3869 16.3571 20.4585 15.4983C20.5416 14.5009 20.5831 14.0022 20.5491 13.5892C20.361 11.3076 18.6473 9.44516 16.3892 9.06823C15.9804 9 15.48 9 14.4792 9H9.52078C8.51996 9 8.01955 9 7.61078 9.06823C5.35265 9.44516 3.63898 11.3076 3.45089 13.5892ZM11.3 17C11.3 17.3866 11.6134 17.7 12 17.7C12.3866 17.7 12.7 17.3866 12.7 17V15C12.7 14.6134 12.3866 14.3 12 14.3C11.6134 14.3 11.3 14.6134 11.3 15V17Z" fill="#222628"/>
</svg>
