<svg width="24" height="24" viewBox="0 0 24 24" fill="none" xmlns="http://www.w3.org/2000/svg">
<path d="M3 12.5C3 10.1654 3 8.99805 3.47231 8.11441C3.84525 7.4167 4.4167 6.84525 5.11441 6.47231C5.99805 6 7.16537 6 9.5 6C11.8346 6 13.0019 6 13.8856 6.47231C14.5833 6.84525 15.1548 7.4167 15.5277 8.11441C16 8.99805 16 10.1654 16 12.5C16 14.8346 16 16.0019 15.5277 16.8856C15.1548 17.5833 14.5833 18.1548 13.8856 18.5277C13.0019 19 11.8346 19 9.5 19C7.16537 19 5.99805 19 5.11441 18.5277C4.4167 18.1548 3.84525 17.5833 3.47231 16.8856C3 16.0019 3 14.8346 3 12.5Z" fill="#222628"/>
<path d="M18.7037 7.91359L15.5037 10.5803C15.1846 10.8463 15 11.2403 15 11.6558V14.2508C15 14.7189 15.2339 15.156 15.6234 15.4157L18.8234 17.549C19.7538 18.1692 21 17.5023 21 16.3841V8.9891C21 7.80213 19.6156 7.15371 18.7037 7.91359Z" fill="#222628"/>
</svg>
