<svg width="24" height="24" viewBox="0 0 24 24" fill="none" xmlns="http://www.w3.org/2000/svg">
<path d="M6.09558 15.6959H4.60757C3.16745 15.6959 2 14.5285 2 13.0883V12V9.97318C2 8.46604 3.22178 7.24426 4.72892 7.24426H6.19092C7.08688 7.24426 7.93973 6.85971 8.53293 6.18825C10.4386 4.03123 14 5.37909 14 8.25732V12V15.0202C14 17.9396 10.3004 19.1998 8.51837 16.8875C7.93925 16.1361 7.04426 15.6959 6.09558 15.6959Z" fill="#222628"/>
<path fill-rule="evenodd" clip-rule="evenodd" d="M16.0661 10.0492C15.766 9.81233 15.7112 9.37742 15.9449 9.07332C16.1805 8.76678 16.6199 8.70923 16.9265 8.94479L16.5 9.49977C16.9265 8.94479 16.9268 8.94502 16.9271 8.94525L16.9277 8.94573L16.929 8.94675L16.9319 8.94903L16.9389 8.95452L16.957 8.96923C16.9709 8.98072 16.9884 8.99558 17.0089 9.01389C17.0499 9.05047 17.1033 9.10098 17.1647 9.16589C17.2874 9.29558 17.4434 9.48404 17.597 9.73513C17.907 10.2416 18.2 10.9917 18.2 11.9998C18.2 13.008 17.907 13.7581 17.597 14.2645C17.4434 14.5156 17.2874 14.7041 17.1647 14.8338C17.1033 14.8987 17.0499 14.9492 17.0089 14.9858C16.9884 15.0041 16.9709 15.019 16.957 15.0304L16.9389 15.0452L16.9319 15.0506L16.929 15.0529L16.9277 15.0539L16.9271 15.0544C16.9268 15.0547 16.9265 15.0549 16.5 14.4998L16.9265 15.0549C16.6199 15.2905 16.1805 15.2329 15.9449 14.9264C15.7112 14.6223 15.766 14.1873 16.0661 13.9505C16.0683 13.9487 16.0705 13.947 16.0727 13.9453C16.0728 13.9453 16.0728 13.9453 16.0729 13.9452C16.0729 13.9452 16.0729 13.9452 16.0729 13.9452L16.0727 13.9453L16.0723 13.9457L16.0712 13.9465L16.0694 13.9479L16.0668 13.95C16.0654 13.9511 16.065 13.9514 16.0653 13.9511C16.0655 13.951 16.0658 13.9508 16.0661 13.9505C16.0678 13.9491 16.0714 13.946 16.0769 13.9411C16.0906 13.9289 16.1154 13.9058 16.1477 13.8716C16.2125 13.8031 16.3065 13.6913 16.4029 13.5338C16.593 13.2232 16.8 12.7232 16.8 11.9998C16.8 11.2764 16.593 10.7765 16.4029 10.4659C16.3065 10.3084 16.2125 10.1965 16.1477 10.128C16.1154 10.0939 16.0906 10.0708 16.0769 10.0586C16.0714 10.0537 16.0678 10.0506 16.0661 10.0492Z" fill="#222628"/>
<path fill-rule="evenodd" clip-rule="evenodd" d="M18.5556 8.54074C18.5543 8.53963 18.5529 8.53852 18.5516 8.5374C18.5521 8.53783 18.5529 8.53852 18.554 8.53949C18.5585 8.54347 18.568 8.55201 18.5819 8.56516C18.6095 8.59149 18.6543 8.63617 18.7106 8.6997C18.8234 8.82685 18.9818 9.0286 19.1428 9.3092C19.4625 9.86649 19.8 10.7474 19.8 11.9998C19.8 13.2522 19.4625 14.1332 19.1428 14.6904C18.9818 14.9711 18.8234 15.1728 18.7106 15.2999C18.6543 15.3635 18.6095 15.4082 18.5819 15.4345C18.568 15.4476 18.5585 15.4562 18.554 15.4602C18.5529 15.4611 18.5521 15.4618 18.5516 15.4623C18.5529 15.4612 18.5542 15.4601 18.5556 15.459C18.5556 15.459 18.5556 15.4589 18.5556 15.4589C18.5556 15.4589 18.5556 15.4589 18.5556 15.4589L18.5556 15.459L18.5551 15.4594L18.5541 15.4601L18.5526 15.4614L18.5511 15.4627L18.551 15.4628C18.551 15.4628 18.5512 15.4626 18.5516 15.4623C18.2568 15.7081 18.2148 16.1461 18.4586 16.4436C18.7036 16.7426 19.1447 16.7863 19.4437 16.5412L19 15.9998C19.4437 16.5412 19.444 16.541 19.4443 16.5407L19.4449 16.5402L19.4463 16.5391L19.4495 16.5364L19.4574 16.5297L19.4796 16.5105C19.4971 16.4951 19.5198 16.4746 19.547 16.4487C19.6013 16.397 19.6737 16.3239 19.758 16.2289C19.9265 16.039 20.1431 15.7602 20.3571 15.3871C20.7874 14.637 21.2 13.5179 21.2 11.9998C21.2 10.4817 20.7874 9.36264 20.3571 8.61256C20.1431 8.23948 19.9265 7.9607 19.758 7.77074C19.6737 7.67572 19.6013 7.6027 19.547 7.55097C19.5198 7.52509 19.4971 7.50451 19.4796 7.48913L19.4574 7.46993L19.4495 7.46323L19.4463 7.4606L19.4449 7.45946L19.4443 7.45894C19.444 7.45869 19.4437 7.45845 19 7.99983L19.4437 7.45845C19.1447 7.21337 18.7036 7.25709 18.4586 7.55608C18.2148 7.85353 18.2568 8.29158 18.5516 8.53739C18.5511 8.53694 18.5509 8.53679 18.5511 8.53694L18.5526 8.53822L18.5541 8.5395L18.5551 8.5403L18.5556 8.54074Z" fill="#222628"/>
</svg>
