<svg width="24" height="24" viewBox="0 0 24 24" fill="none" xmlns="http://www.w3.org/2000/svg">
<path d="M7.15584 16.3784H5.68259C4.20103 16.3784 3 15.1774 3 13.6958V12.5218V10.2493C3 8.76362 4.20435 7.55927 5.68999 7.55927H7.16155C8.07388 7.55927 8.93996 7.15773 9.52947 6.46145C11.3968 4.25592 15 5.5764 15 8.46624V12.5218V15.4918C15 18.384 11.3886 19.6992 9.52869 17.4843C8.93997 16.7832 8.07134 16.3784 7.15584 16.3784Z" fill="#222628"/>
<path fill-rule="evenodd" clip-rule="evenodd" d="M17.0826 10.562C16.7763 10.3346 16.7081 9.90261 16.9315 9.59166C17.1571 9.2777 17.5945 9.20604 17.9085 9.43161L17.5 10.0001C17.9085 9.43161 17.9088 9.43185 17.9091 9.43209L17.9098 9.43259L17.9112 9.43363L17.9144 9.43595L17.9219 9.44146L17.941 9.45608C17.9556 9.46742 17.9738 9.48202 17.995 9.49997C18.0374 9.53584 18.0922 9.58525 18.155 9.64902C18.2805 9.77649 18.439 9.96222 18.5946 10.2126C18.9089 10.7184 19.2 11.4704 19.2 12.5001C19.2 13.5298 18.9089 14.2818 18.5946 14.7876C18.439 15.038 18.2805 15.2237 18.155 15.3512C18.0922 15.415 18.0374 15.4644 17.995 15.5002C17.9738 15.5182 17.9556 15.5328 17.941 15.5441L17.9219 15.5587L17.9144 15.5643L17.9112 15.5666L17.9098 15.5676L17.9091 15.5681C17.9088 15.5684 17.9085 15.5686 17.5 15.0001L17.9085 15.5686C17.5945 15.7942 17.1571 15.7225 16.9315 15.4085C16.7081 15.0976 16.7763 14.6656 17.0826 14.4382C17.084 14.437 17.0869 14.4347 17.091 14.4313C17.1032 14.4209 17.1266 14.4002 17.1575 14.3688C17.2195 14.3059 17.311 14.2007 17.4055 14.0487C17.5911 13.75 17.8 13.2519 17.8 12.5001C17.8 11.7483 17.5911 11.2502 17.4055 10.9515C17.311 10.7995 17.2195 10.6943 17.1575 10.6314C17.1266 10.6 17.1032 10.5793 17.091 10.5689C17.0869 10.5655 17.084 10.5632 17.0826 10.562Z" fill="#222628"/>
</svg>
