<svg width="24" height="24" viewBox="0 0 24 24" fill="none" xmlns="http://www.w3.org/2000/svg">
<path d="M7.09558 15.6959H5.60757C4.16745 15.6959 3 14.5285 3 13.0883V12V9.97318C3 8.46604 4.22178 7.24426 5.72892 7.24426H7.19092C8.08688 7.24426 8.93973 6.85971 9.53293 6.18825C11.4386 4.03123 15 5.37909 15 8.25732V12V15.0202C15 17.9396 11.3004 19.1998 9.51837 16.8875C8.93925 16.1361 8.04426 15.6959 7.09558 15.6959Z" fill="#222628"/>
<path fill-rule="evenodd" clip-rule="evenodd" d="M21.182 9.64645C21.3772 9.84171 21.3772 10.1583 21.182 10.3536L18.3535 13.182C18.1583 13.3772 17.8417 13.3772 17.6464 13.182C17.4512 12.9867 17.4512 12.6701 17.6464 12.4749L20.4749 9.64645C20.6701 9.45118 20.9867 9.45118 21.182 9.64645Z" fill="#222628"/>
<path fill-rule="evenodd" clip-rule="evenodd" d="M20.4749 13.1821L17.6464 10.3536C17.4512 10.1584 17.4512 9.84178 17.6464 9.64652C17.8417 9.45126 18.1583 9.45126 18.3536 9.64652L21.182 12.4749C21.3772 12.6702 21.3772 12.9868 21.182 13.1821C20.9867 13.3773 20.6701 13.3773 20.4749 13.1821Z" fill="#222628"/>
</svg>
