<svg width="24" height="24" viewBox="0 0 24 24" fill="none" xmlns="http://www.w3.org/2000/svg">
<path d="M9.54615 14H7.5C6.11929 14 5 12.8807 5 11.5V10.7381V9.0408C5 7.66009 6.11929 6.5408 7.5 6.5408H8.45301C9.92199 6.5408 11.1153 5.33024 12.2008 4.34042C12.723 3.86415 13.4618 3.5 14.5 3.5C16.5 3.5 17 5.42857 17 5.42857L9.54615 14Z" fill="#222628"/>
<path fill-rule="evenodd" clip-rule="evenodd" d="M19.5315 2.45558C19.825 2.70717 19.859 3.14908 19.6074 3.44261L8.51851 16.3797C8.26692 16.6732 7.82501 16.7072 7.53148 16.4556C7.23795 16.204 7.20396 15.7621 7.45555 15.4685L18.5444 2.5315C18.796 2.23798 19.238 2.20398 19.5315 2.45558Z" fill="#222628"/>
<path d="M17 9.78615V13.2205C17 16.1042 13.3575 17.364 11.5759 15.0965C11.5316 15.0402 11.5328 14.9605 11.5787 14.9055L16.116 9.46588C16.4155 9.10685 17 9.31862 17 9.78615Z" fill="#222628"/>
</svg>
