<svg width="24" height="24" viewBox="0 0 24 24" fill="none" xmlns="http://www.w3.org/2000/svg">
<path fill-rule="evenodd" clip-rule="evenodd" d="M2 12C2 8.25027 2 6.3754 2.95492 5.06107C3.26331 4.6366 3.6366 4.26331 4.06107 3.95492C5.3754 3 7.25027 3 11 3H13C16.7497 3 18.6246 3 19.9389 3.95492C20.3634 4.26331 20.7367 4.6366 21.0451 5.06107C21.6159 5.84679 21.8455 6.83284 21.9379 8.3H19.5C17.7327 8.3 16.3 9.73269 16.3 11.5C16.3 13.2673 17.7327 14.7 19.5 14.7H21.98C21.9275 16.7403 21.7369 17.9867 21.0451 18.9389C20.7367 19.3634 20.3634 19.7367 19.9389 20.0451C18.6246 21 16.7497 21 13 21H11C7.25027 21 5.3754 21 4.06107 20.0451C3.6366 19.7367 3.26331 19.3634 2.95492 18.9389C2 17.6246 2 15.7497 2 12ZM19.5 9.7H21.9885C22 10.3786 22 11.14 22 12C22 12.4608 22 12.8934 21.9982 13.3H19.5C18.5059 13.3 17.7 12.4941 17.7 11.5C17.7 10.5059 18.5059 9.7 19.5 9.7ZM6.7 15.6C6.3134 15.6 6 15.9134 6 16.3C6 16.6866 6.3134 17 6.7 17H9.3C9.6866 17 10 16.6866 10 16.3C10 15.9134 9.6866 15.6 9.3 15.6H6.7Z" fill="#222628"/>
</svg>
