<svg width="24" height="24" viewBox="0 0 24 24" fill="none" xmlns="http://www.w3.org/2000/svg">
<path fill-rule="evenodd" clip-rule="evenodd" d="M6.38197 6.82443C6 7.35016 6 8.10011 6 9.6V14.4C6 15.8999 6 16.6498 6.38197 17.1756C6.50533 17.3454 6.65464 17.4947 6.82443 17.618C7.35016 18 8.10011 18 9.6 18H14.4C15.8999 18 16.6498 18 17.1756 17.618C17.3454 17.4947 17.4947 17.3454 17.618 17.1756C18 16.6498 18 15.8999 18 14.4V9.6C18 8.10011 18 7.35016 17.618 6.82443C17.4947 6.65464 17.3454 6.50533 17.1756 6.38197C16.6498 6 15.8999 6 14.4 6H9.6C8.10011 6 7.35016 6 6.82443 6.38197C6.65464 6.50533 6.50533 6.65464 6.38197 6.82443ZM12.7 9C12.7 8.6134 12.3866 8.3 12 8.3C11.6134 8.3 11.3 8.6134 11.3 9V12.5714C11.3 12.8226 11.4346 13.0546 11.6527 13.1792L14.1527 14.6078C14.4884 14.7996 14.916 14.683 15.1078 14.3473C15.2996 14.0116 15.183 13.584 14.8473 13.3922L12.7 12.1652V9Z" fill="#222628"/>
<path fill-rule="evenodd" clip-rule="evenodd" d="M9.29999 4.00005C9.29999 3.61345 9.61339 3.30005 9.99999 3.30005H14C14.3866 3.30005 14.7 3.61345 14.7 4.00005C14.7 4.38665 14.3866 4.70005 14 4.70005H9.99999C9.61339 4.70005 9.29999 4.38665 9.29999 4.00005Z" fill="#222628"/>
<path fill-rule="evenodd" clip-rule="evenodd" d="M9.29999 20C9.29999 19.6134 9.61339 19.3 9.99999 19.3H14C14.3866 19.3 14.7 19.6134 14.7 20C14.7 20.3866 14.3866 20.7 14 20.7H9.99999C9.61339 20.7 9.29999 20.3866 9.29999 20Z" fill="#222628"/>
</svg>
