<svg width="24" height="24" viewBox="0 0 24 24" fill="none" xmlns="http://www.w3.org/2000/svg">
<path fill-rule="evenodd" clip-rule="evenodd" d="M2 11.5C2 10.9567 2 10.4587 2.00285 10L21.9972 10C22 10.4587 22 10.9567 22 11.5C22 14.766 22 16.399 21.3812 17.6537C20.7971 18.8383 19.8383 19.7971 18.6537 20.3812C17.399 21 15.766 21 12.5 21H11.5C8.234 21 6.601 21 5.34627 20.3812C4.16167 19.7971 3.20294 18.8383 2.61876 17.6537C2 16.399 2 14.766 2 11.5ZM21.9729 8.6L2.0271 8.6C2.07688 7.12974 2.21811 6.15871 2.61876 5.34627C3.20294 4.16167 4.16167 3.20294 5.34627 2.61876C6.601 2 8.234 2 11.5 2H12.5C15.766 2 17.399 2 18.6537 2.61876C19.8383 3.20294 20.7971 4.16167 21.3812 5.34627C21.7819 6.15871 21.9231 7.12975 21.9729 8.6ZM15 5.3C14.6134 5.3 14.3 5.6134 14.3 6C14.3 6.3866 14.6134 6.7 15 6.7H18C18.3866 6.7 18.7 6.3866 18.7 6C18.7 5.6134 18.3866 5.3 18 5.3H15ZM8.99998 6.00005C8.99998 6.38665 8.68657 6.70005 8.29998 6.70005C7.91338 6.70005 7.59998 6.38665 7.59998 6.00005C7.59998 5.61345 7.91338 5.30005 8.29998 5.30005C8.68657 5.30005 8.99998 5.61345 8.99998 6.00005ZM6.29998 6.70005C6.68657 6.70005 6.99998 6.38665 6.99998 6.00005C6.99998 5.61345 6.68657 5.30005 6.29998 5.30005C5.91338 5.30005 5.59998 5.61345 5.59998 6.00005C5.59998 6.38665 5.91338 6.70005 6.29998 6.70005Z" fill="#222628"/>
</svg>
