<svg width="24" height="24" viewBox="0 0 24 24" fill="none" xmlns="http://www.w3.org/2000/svg">
<path fill-rule="evenodd" clip-rule="evenodd" d="M2 14C2 13.0142 2 12.2896 2.03044 11.7127C2.0719 11.719 2.12229 11.7266 2.18103 11.7353C2.36588 11.7629 2.63347 11.8022 2.9655 11.8493C3.62937 11.9435 4.55173 12.0692 5.58585 12.1949C5.81836 12.2231 6.05698 12.2515 6.3 12.2795V13C6.3 13.3866 6.6134 13.7 7 13.7C7.3866 13.7 7.7 13.3866 7.7 13V12.4311C9.21488 12.5837 10.7712 12.7 12 12.7C13.2288 12.7 14.7851 12.5837 16.3 12.4311V13C16.3 13.3866 16.6134 13.7 17 13.7C17.3866 13.7 17.7 13.3866 17.7 13V12.2795C17.943 12.2515 18.1816 12.2231 18.4141 12.1949C19.4483 12.0692 20.3706 11.9435 21.0345 11.8493C21.3665 11.8022 21.6341 11.7629 21.819 11.7353C21.8777 11.7266 21.9281 11.719 21.9696 11.7127C22 12.2896 22 13.0142 22 14C22 15.8599 22 16.7899 21.7956 17.5529C21.2408 19.6235 19.6235 21.2408 17.5529 21.7956C16.7899 22 15.8599 22 14 22H10C8.14006 22 7.21008 22 6.44709 21.7956C4.37653 21.2408 2.75925 19.6235 2.20445 17.5529C2 16.7899 2 15.8599 2 14ZM21.7624 10.3281C21.7214 10.3343 21.6713 10.3419 21.6125 10.3506C21.4306 10.3777 21.1662 10.4166 20.8378 10.4632C20.1807 10.5565 19.2679 10.6808 18.2452 10.8051C18.0663 10.8269 17.8843 10.8486 17.7 10.8701V10C17.7 9.6134 17.3866 9.3 17 9.3C16.6134 9.3 16.3 9.6134 16.3 10V11.0238C14.7671 11.1808 13.2044 11.3 12 11.3C10.7956 11.3 9.23288 11.1808 7.7 11.0238V10C7.7 9.6134 7.3866 9.3 7 9.3C6.6134 9.3 6.3 9.6134 6.3 10V10.8701C6.11568 10.8486 5.93369 10.8269 5.75478 10.8051C4.73213 10.6808 3.81933 10.5565 3.16224 10.4632C2.83378 10.4166 2.56944 10.3777 2.38747 10.3506C2.32873 10.3419 2.27857 10.3343 2.23763 10.3281C2.82162 8.31472 4.41635 6.74858 6.44709 6.20445C7.21008 6 8.14006 6 10 6H14C15.8599 6 16.7899 6 17.5529 6.20445C19.5836 6.74858 21.1784 8.31472 21.7624 10.3281ZM13.7 16.5C13.7 16.8866 13.3866 17.2 13 17.2H12H11C10.6134 17.2 10.3 16.8866 10.3 16.5C10.3 16.1134 10.6134 15.8 11 15.8H12H13C13.3866 15.8 13.7 16.1134 13.7 16.5Z" fill="#222628"/>
<path fill-rule="evenodd" clip-rule="evenodd" d="M9.19999 6.50081C9.19999 6.50176 9.19998 6.50272 9.19998 6.50367C9.19997 6.50398 9.19997 6.50413 9.19997 6.50413L9.19997 6.50385L9.19999 6.50326C9.19998 6.50342 9.19998 6.50355 9.19998 6.50367C9.19805 6.88862 8.88539 7.2001 8.49999 7.20009C8.11339 7.20009 7.79999 6.88669 7.79999 6.50009L8.49999 6.50009C7.79999 6.50009 7.79999 6.4997 7.79999 6.49931L7.79999 6.49844L7.8 6.49649L7.80003 6.4917L7.8002 6.47856C7.80039 6.46827 7.80071 6.45489 7.80131 6.43865C7.80249 6.40619 7.80473 6.36211 7.80895 6.30807C7.81738 6.20023 7.83382 6.05125 7.86603 5.87456C7.9299 5.52417 8.05885 5.04785 8.32333 4.56423C8.58994 4.07671 8.99724 3.57723 9.61223 3.20238C10.2287 2.82661 11.0147 2.6001 12 2.6001C12.9853 2.6001 13.7712 2.82661 14.3877 3.20238C15.0027 3.57723 15.41 4.07671 15.6766 4.56423C15.9411 5.04785 16.0701 5.52417 16.134 5.87456C16.1662 6.05125 16.1826 6.20023 16.191 6.30807C16.1952 6.36211 16.1975 6.40619 16.1987 6.43865C16.1993 6.45489 16.1996 6.46827 16.1998 6.47856L16.2 6.4917L16.2 6.49649L16.2 6.49844L16.2 6.49931C16.2 6.4997 16.2 6.50009 15.5 6.50009L16.2 6.50009C16.2 6.88669 15.8866 7.20009 15.5 7.20009C15.1146 7.2001 14.8019 6.88864 14.8 6.5037C14.8 6.50286 14.8 6.50202 14.8 6.50118C14.8 6.50106 14.8 6.50093 14.8 6.5008C14.8 6.50081 14.8 6.50081 14.8 6.50081L14.8 6.50118L14.8 6.50145L14.8 6.50253L14.8 6.50385C14.8 6.50428 14.8 6.50422 14.8 6.5037C14.8 6.50358 14.8 6.50343 14.8 6.50327L14.7996 6.48966C14.7991 6.47525 14.7979 6.45058 14.7953 6.41712C14.79 6.34996 14.7791 6.24894 14.7566 6.12563C14.7111 5.87602 14.6213 5.55234 14.4483 5.23597C14.2774 4.92348 14.0285 4.62296 13.6591 4.39782C13.2912 4.17359 12.7647 4.0001 12 4.0001C11.2353 4.0001 10.7088 4.17359 10.3409 4.39782C9.9715 4.62296 9.72254 4.92348 9.55165 5.23597C9.37863 5.55234 9.28883 5.87602 9.24333 6.12563C9.22085 6.24894 9.20994 6.34996 9.2047 6.41712C9.20208 6.45058 9.2009 6.47525 9.20038 6.48966L9.19999 6.50326L9.19998 6.50253L9.19999 6.50145L9.19999 6.50081Z" fill="#222628"/>
</svg>
