<svg width="24" height="24" viewBox="0 0 24 24" fill="none" xmlns="http://www.w3.org/2000/svg">
<path fill-rule="evenodd" clip-rule="evenodd" d="M14.4204 8.60757C14.6371 8.28744 15.0723 8.20361 15.3924 8.42034C15.7126 8.63707 15.7964 9.07228 15.5797 9.39242L15 9L14.4204 8.60757ZM9.5303 12.0431L9.53466 12.0481L9.54851 12.0641L9.6023 12.126C9.649 12.1796 9.71625 12.2564 9.79788 12.3487C9.96148 12.5336 10.1814 12.7788 10.4087 13.0231C10.5883 13.216 10.7673 13.4026 10.9242 13.5565C11.0012 13.4584 11.0876 13.3456 11.1823 13.2198C11.5632 12.7136 12.0492 12.0337 12.5308 11.3478C13.0115 10.6632 13.484 9.97802 13.8365 9.46364C14.0127 9.20654 14.1588 8.99234 14.2608 8.84248L14.4204 8.60757C14.4204 8.60754 14.4204 8.60757 15 9L15.5797 9.39242L15.4182 9.63017C15.3155 9.78109 15.1685 9.99657 14.9913 10.2551C14.6371 10.772 14.1614 11.4618 13.6766 12.1522C13.1928 12.8413 12.6961 13.5364 12.301 14.0615C12.1047 14.3225 11.9263 14.551 11.7839 14.7179C11.7143 14.7995 11.6414 14.8805 11.5723 14.9461C11.539 14.9776 11.4905 15.0211 11.432 15.0613C11.4026 15.0815 11.357 15.1104 11.2986 15.1362C11.2465 15.1592 11.1399 15.2 11 15.2C10.8054 15.2 10.6565 15.1236 10.6058 15.0969C10.5336 15.0589 10.4687 15.0142 10.4172 14.9759C10.3124 14.8981 10.2002 14.7993 10.0927 14.6987C9.87436 14.4945 9.61999 14.2305 9.38393 13.9769C9.14582 13.7211 8.91755 13.4664 8.74936 13.2763C8.6651 13.1811 8.59555 13.1017 8.54691 13.0459L8.49036 12.9808L8.47527 12.9634L8.47019 12.9575C8.47016 12.9574 8.46973 12.9569 9.00001 12.5L8.47019 12.9575C8.21782 12.6646 8.2502 12.2221 8.54306 11.9697C8.83592 11.7174 9.27793 11.7502 9.5303 12.0431Z" fill="#8E44F4"/>
<path fill-rule="evenodd" clip-rule="evenodd" d="M7.74656 20.5052C8.77736 20.5987 10.105 20.6 12 20.6C13.895 20.6 15.2226 20.5987 16.2534 20.5052C17.265 20.4136 17.8524 20.2421 18.3 19.9837C18.9993 19.58 19.58 18.9993 19.9837 18.3C20.2421 17.8524 20.4136 17.265 20.5052 16.2534C20.5987 15.2226 20.6 13.895 20.6 12C20.6 10.105 20.5987 8.77736 20.5052 7.74656C20.4136 6.73501 20.2421 6.14756 19.9837 5.7C19.58 5.00071 18.9993 4.42002 18.3 4.01628C17.8524 3.75788 17.265 3.58645 16.2534 3.49477C15.2226 3.40134 13.895 3.4 12 3.4C10.105 3.4 8.77736 3.40134 7.74656 3.49477C6.73501 3.58645 6.14756 3.75788 5.7 4.01628C5.00071 4.42002 4.42002 5.00071 4.01628 5.7C3.75788 6.14756 3.58645 6.73501 3.49477 7.74656C3.40134 8.77736 3.4 10.105 3.4 12C3.4 13.895 3.40134 15.2226 3.49477 16.2534C3.58645 17.265 3.75788 17.8524 4.01628 18.3C4.42002 18.9993 5.00071 19.58 5.7 19.9837C6.14756 20.2421 6.73501 20.4136 7.74656 20.5052ZM2.80385 5C2 6.3923 2 8.26154 2 12C2 15.7385 2 17.6077 2.80385 19C3.33046 19.9121 4.08788 20.6695 5 21.1962C6.3923 22 8.26154 22 12 22C15.7385 22 17.6077 22 19 21.1962C19.9121 20.6695 20.6695 19.9121 21.1962 19C22 17.6077 22 15.7385 22 12C22 8.26154 22 6.3923 21.1962 5C20.6695 4.08788 19.9121 3.33046 19 2.80385C17.6077 2 15.7385 2 12 2C8.26154 2 6.3923 2 5 2.80385C4.08788 3.33046 3.33046 4.08788 2.80385 5Z" fill="#222628"/>
</svg>
