<svg width="24" height="24" viewBox="0 0 24 24" fill="none" xmlns="http://www.w3.org/2000/svg">
<path fill-rule="evenodd" clip-rule="evenodd" d="M5.40154 14.9955C4.23964 14.993 3.34147 15.7411 3.13375 16.8843C3.11918 16.9645 3.10548 17.0921 3.07027 17.4346C3.03758 17.7526 3.02634 17.868 3.02467 17.9566C3.00175 19.169 3.92397 20.1909 5.13232 20.2921C5.22066 20.2995 5.33663 20.3001 5.65623 20.3001L13.0894 20.3001C13.4146 20.3001 13.5331 20.2995 13.621 20.2922C14.8929 20.1861 15.8352 19.0647 15.7206 17.7935C15.7127 17.7057 15.6929 17.5889 15.6369 17.2685C15.5801 16.9441 15.5583 16.8222 15.5404 16.75C15.2676 15.6531 14.4093 14.9909 13.279 15.0053C13.205 15.0062 13.0524 15.0185 12.6594 15.0513C11.6644 15.1345 10.5488 15.2001 9.5 15.2001C8.39698 15.2001 7.14801 15.1275 6.02727 15.0384C5.63333 15.007 5.48272 14.9956 5.40154 14.9955ZM1.75631 16.634C2.08518 14.824 3.56481 13.5916 5.40449 13.5955C5.54813 13.5958 5.75935 13.6126 6.08834 13.6388C6.1047 13.6401 6.12135 13.6414 6.1383 13.6428C7.24283 13.7306 8.45022 13.8001 9.5 13.8001C10.4958 13.8001 11.5694 13.7376 12.5427 13.6562L12.5937 13.6519C12.9218 13.6245 13.1299 13.6071 13.2611 13.6054C15.0411 13.5827 16.4694 14.6847 16.899 16.4121C16.9307 16.5395 16.9615 16.716 17.0089 16.9873L17.0224 17.0645C17.0697 17.3344 17.1011 17.5139 17.1149 17.6678C17.2994 19.7127 15.7834 21.5167 13.7373 21.6873C13.5833 21.7001 13.4011 21.7001 13.1271 21.7001L5.61944 21.7001C5.34985 21.7001 5.17013 21.7001 5.01548 21.6872C3.07163 21.5244 1.58804 19.8805 1.62492 17.9302C1.62785 17.775 1.64625 17.5962 1.67385 17.328C1.67508 17.316 1.67634 17.3038 1.67761 17.2915C1.67906 17.2773 1.68049 17.2634 1.68189 17.2498C1.71136 16.9629 1.73064 16.7753 1.75631 16.634Z" fill="#222628"/>
<path fill-rule="evenodd" clip-rule="evenodd" d="M19 4.30005C19.3866 4.30005 19.7 4.61345 19.7 5.00005V6.30005H21C21.3866 6.30005 21.7 6.61345 21.7 7.00005C21.7 7.38665 21.3866 7.70005 21 7.70005H19.7V9.00005C19.7 9.38665 19.3866 9.70005 19 9.70005C18.6134 9.70005 18.3 9.38665 18.3 9.00005V7.70005H17C16.6134 7.70005 16.3 7.38665 16.3 7.00005C16.3 6.61345 16.6134 6.30005 17 6.30005H18.3V5.00005C18.3 4.61345 18.6134 4.30005 19 4.30005Z" fill="#8E44F4"/>
<path fill-rule="evenodd" clip-rule="evenodd" d="M5.3 6.50005C5.3 4.18045 7.18041 2.30005 9.5 2.30005C11.8196 2.30005 13.7 4.18045 13.7 6.50005V7.00005C13.7 9.0435 12.0435 10.7 10 10.7H9C6.95655 10.7 5.3 9.0435 5.3 7.00005V6.50005ZM9.5 3.70005C7.95361 3.70005 6.7 4.95365 6.7 6.50005V7.00005C6.7 8.2703 7.72975 9.30005 9 9.30005H10C11.2703 9.30005 12.3 8.2703 12.3 7.00005V6.50005C12.3 4.95365 11.0464 3.70005 9.5 3.70005Z" fill="#222628"/>
</svg>
