<svg width="24" height="24" viewBox="0 0 24 24" fill="none" xmlns="http://www.w3.org/2000/svg">
<path fill-rule="evenodd" clip-rule="evenodd" d="M17.6923 3.70005C16.4091 3.70005 15.3958 4.49282 14.7673 5.38974C14.2693 6.10028 14.2 7.04429 14.2 8.1758V20.3H15.9667V11.001C15.9667 10.7488 16.1023 10.5152 16.3218 10.3909C16.5413 10.2667 16.8106 10.2701 17.0268 10.3998C18.1288 11.061 18.9829 10.9513 19.6357 10.6327C20.3378 10.29 20.8659 9.67141 21.1616 9.24901C21.2476 9.12619 21.3 8.95353 21.3 8.73307V5.73809C21.3 5.50804 21.2054 5.32066 21.0629 5.21047C20.6909 4.92281 20.1418 4.53701 19.5248 4.22579C18.8987 3.90998 18.2593 3.70005 17.6923 3.70005ZM17.3667 12.0887C18.4601 12.4406 19.44 12.2861 20.2498 11.8908C21.2643 11.3957 21.9582 10.5522 22.3084 10.052C22.5974 9.6394 22.7 9.1663 22.7 8.73307V5.73809C22.7 5.12575 22.4432 4.50805 21.9193 4.10294C21.5064 3.78372 20.8797 3.34119 20.1553 2.9758C19.44 2.615 18.5725 2.30005 17.6923 2.30005C15.7904 2.30005 14.402 3.47147 13.6207 4.58629C12.8389 5.70198 12.8 7.07731 12.8 8.1758V20.5C12.8 21.1628 13.3373 21.7001 14 21.7001H16.1667C16.828 21.7001 17.3667 21.165 17.3667 20.5008V12.0887Z" fill="#222628"/>
<path fill-rule="evenodd" clip-rule="evenodd" d="M19.7778 5.80005C20.1644 5.80005 20.4778 6.11345 20.4778 6.50005V8.00005C20.4778 8.38665 20.1644 8.70005 19.7778 8.70005C19.3912 8.70005 19.0778 8.38665 19.0778 8.00005V6.50005C19.0778 6.11345 19.3912 5.80005 19.7778 5.80005Z" fill="#8E44F4"/>
<path fill-rule="evenodd" clip-rule="evenodd" d="M6.3077 3.70005C7.59098 3.70005 8.60423 4.49282 9.23278 5.38974C9.73071 6.10028 9.80001 7.04429 9.80001 8.1758V20.3H8.03335V11.001C8.03335 10.7488 7.89769 10.5152 7.67823 10.3909C7.45878 10.2667 7.18945 10.2701 6.9732 10.3998C5.87125 11.061 5.01718 10.9513 4.3643 10.6327C3.66223 10.29 3.13417 9.67141 2.83839 9.24901C2.75238 9.12619 2.70001 8.95353 2.70001 8.73307V5.73809C2.70001 5.50804 2.79463 5.32066 2.93714 5.21047C3.30915 4.92281 3.85822 4.53701 4.47522 4.22579C5.10131 3.90998 5.74073 3.70005 6.3077 3.70005ZM6.63335 12.0887C5.53992 12.4406 4.56007 12.2861 3.75026 11.8908C2.73577 11.3957 2.04186 10.5522 1.69159 10.052C1.40264 9.6394 1.30001 9.1663 1.30001 8.73307V5.73809C1.30001 5.12575 1.55686 4.50805 2.08076 4.10294C2.4936 3.78372 3.12033 3.34119 3.84472 2.9758C4.56001 2.615 5.42755 2.30005 6.3077 2.30005C8.20963 2.30005 9.59803 3.47147 10.3793 4.58629C11.1611 5.70198 11.2 7.07731 11.2 8.1758V20.5C11.2 21.1628 10.6628 21.7001 10 21.7001H7.83335C7.17201 21.7001 6.63335 21.165 6.63335 20.5008V12.0887Z" fill="#222628"/>
<path fill-rule="evenodd" clip-rule="evenodd" d="M4.22225 5.80005C3.83565 5.80005 3.52225 6.11345 3.52225 6.50005V8.00005C3.52225 8.38665 3.83565 8.70005 4.22225 8.70005C4.60885 8.70005 4.92225 8.38665 4.92225 8.00005V6.50005C4.92225 6.11345 4.60885 5.80005 4.22225 5.80005Z" fill="#8E44F4"/>
</svg>
