<svg width="24" height="24" viewBox="0 0 24 24" fill="none" xmlns="http://www.w3.org/2000/svg">
<path fill-rule="evenodd" clip-rule="evenodd" d="M5.29999 6.00005C5.29999 5.61345 5.61339 5.30005 5.99999 5.30005H18C18.3866 5.30005 18.7 5.61345 18.7 6.00005C18.7 6.38665 18.3866 6.70005 18 6.70005H5.99999C5.61339 6.70005 5.29999 6.38665 5.29999 6.00005Z" fill="#222628"/>
<path fill-rule="evenodd" clip-rule="evenodd" d="M7.29999 12C7.29999 11.6134 7.61339 11.3 7.99999 11.3H16C16.3866 11.3 16.7 11.6134 16.7 12C16.7 12.3866 16.3866 12.7 16 12.7H7.99999C7.61339 12.7 7.29999 12.3866 7.29999 12Z" fill="#8E44F4"/>
<path fill-rule="evenodd" clip-rule="evenodd" d="M9.29999 18C9.29999 17.6134 9.61339 17.3 9.99999 17.3H14C14.3866 17.3 14.7 17.6134 14.7 18C14.7 18.3866 14.3866 18.7 14 18.7H9.99999C9.61339 18.7 9.29999 18.3866 9.29999 18Z" fill="#222628"/>
</svg>
