<svg width="24" height="24" viewBox="0 0 24 24" fill="none" xmlns="http://www.w3.org/2000/svg">
<path fill-rule="evenodd" clip-rule="evenodd" d="M12.0355 22.7L11.9646 22.7C10.1253 22.7 8.69728 22.7 7.55702 22.5966C6.39981 22.4917 5.47046 22.276 4.65001 21.8023C3.63148 21.2143 2.78569 20.3685 2.19764 19.3499C1.72396 18.5295 1.50823 17.6001 1.40335 16.4429C1.3 15.3027 1.30001 13.8746 1.30001 12.0353L1.30001 11.9646C1.30001 10.1253 1.3 8.69723 1.40335 7.55696C1.50823 6.39975 1.72396 5.4704 2.19764 4.64995C2.78569 3.63142 3.63148 2.78563 4.65001 2.19758C5.47046 1.72389 6.39981 1.50817 7.55702 1.40329C8.6973 1.29994 10.1254 1.29994 11.9646 1.29995L12.0354 1.29995C13.8747 1.29995 15.3027 1.29994 16.443 1.40329C17.6002 1.50817 18.5296 1.72389 19.35 2.19758C20.3685 2.78563 21.2143 3.63142 21.8024 4.64995C22.2761 5.4704 22.4918 6.39975 22.5967 7.55696C22.7 8.69722 22.7 10.1253 22.7 11.9645L22.7 12.0354C22.7 13.8746 22.7 15.3027 22.5967 16.4429C22.4918 17.6002 22.2761 18.5295 21.8024 19.35C21.2143 20.3685 20.3685 21.2143 19.35 21.8023C18.5296 22.276 17.6002 22.4917 16.443 22.5966C15.3027 22.7 13.8747 22.7 12.0355 22.7ZM16.3166 21.2023C17.3767 21.1062 18.0782 20.92 18.65 20.5899C19.4557 20.1247 20.1248 19.4557 20.5899 18.65C20.9201 18.0781 21.1063 17.3767 21.2024 16.3166C21.2993 15.2468 21.3 13.8821 21.3 12C21.3 10.1178 21.2993 8.75305 21.2024 7.68333C21.1063 6.62322 20.9201 5.92181 20.5899 5.34995C20.1248 4.54425 19.4557 3.87519 18.65 3.41001C18.0782 3.07985 17.3767 2.89365 16.3166 2.79757C15.2469 2.70062 13.8821 2.69995 12 2.69995C10.1179 2.69995 8.75312 2.70062 7.68339 2.79757C6.62329 2.89365 5.92187 3.07985 5.35001 3.41001C4.54431 3.87519 3.87525 4.54425 3.41008 5.34995C3.07992 5.9218 2.89372 6.62322 2.79764 7.68332C2.70068 8.75305 2.70001 10.1178 2.70001 11.9999C2.70001 13.8821 2.70068 15.2468 2.79763 16.3166C2.89372 17.3767 3.07992 18.0781 3.41008 18.65C3.87525 19.4557 4.54431 20.1247 5.35001 20.5899C5.92187 20.92 6.62328 21.1062 7.68339 21.2023C8.75311 21.2993 10.1179 21.3 12 21.3C13.8821 21.3 15.2469 21.2993 16.3166 21.2023Z" fill="#222628"/>
<path fill-rule="evenodd" clip-rule="evenodd" d="M13.5203 15.9682C13.2617 16.2556 12.8191 16.2789 12.5317 16.0203L12.4915 15.9839L12.3793 15.8824C12.2828 15.7949 12.1452 15.6696 11.9801 15.5183C11.6502 15.2159 11.2094 14.8082 10.7679 14.3887C10.328 13.9708 9.88039 13.5347 9.53998 13.1772C9.37122 13 9.21829 12.8312 9.10379 12.6881C9.04759 12.6179 8.98887 12.5393 8.94067 12.4597C8.91661 12.42 8.88717 12.3671 8.86195 12.3053C8.84055 12.2529 8.80001 12.1419 8.80001 11.9999C8.80001 11.858 8.84055 11.747 8.86195 11.6946C8.88717 11.6328 8.91661 11.5798 8.94067 11.5401C8.98887 11.4606 9.04759 11.382 9.10379 11.3118C9.21829 11.1687 9.37122 10.9999 9.53999 10.8227C9.88039 10.4652 10.328 10.0291 10.7679 9.6112C11.2094 9.19171 11.6502 8.784 11.9801 8.48159C12.1452 8.33027 12.2828 8.20502 12.3793 8.11752L12.4915 8.01596L12.531 7.98032C12.531 7.98028 12.5317 7.97964 13 8.49995L12.5317 7.97964C12.8191 7.72102 13.2617 7.74431 13.5203 8.03167C13.7789 8.31903 13.7556 8.76163 13.4683 9.02025L13.2112 8.73462C13.4683 9.02025 13.4683 9.02024 13.4683 9.02025L13.4299 9.05485L13.3199 9.15444C13.225 9.24057 13.0892 9.36416 12.9261 9.51361C12.5998 9.81276 12.1656 10.2144 11.7321 10.6262C11.297 11.0396 10.8696 11.4565 10.5538 11.7882C10.4796 11.866 10.4139 11.9368 10.3571 11.9999C10.4139 12.0631 10.4796 12.1339 10.5538 12.2117C10.8696 12.5434 11.297 12.9603 11.7321 13.3737C12.1656 13.7855 12.5998 14.1871 12.9261 14.4863C13.0892 14.6357 13.225 14.7593 13.3199 14.8454L13.4299 14.945L13.4678 14.9792C13.4678 14.9792 13.4683 14.9796 13.1791 15.301L13.4678 14.9792C13.7551 15.2378 13.7789 15.6809 13.5203 15.9682Z" fill="#8E44F4"/>
</svg>
