<svg width="24" height="24" viewBox="0 0 24 24" fill="none" xmlns="http://www.w3.org/2000/svg">
<path fill-rule="evenodd" clip-rule="evenodd" d="M21.7 12.0001C21.7 12.3867 21.3866 12.7001 21 12.7001L12 12.7001C11.6134 12.7001 11.3 12.3867 11.3 12.0001C11.3 11.6135 11.6134 11.3001 12 11.3001L21 11.3001C21.3866 11.3001 21.7 11.6135 21.7 12.0001Z" fill="#222628"/>
<path fill-rule="evenodd" clip-rule="evenodd" d="M8.52 10.36L7.72 10.96C7.10961 11.4178 6.75265 11.6884 6.52195 11.9081C6.48298 11.9452 6.45331 11.9757 6.43099 12C6.45331 12.0243 6.48298 12.0549 6.52195 12.092C6.75265 12.3116 7.10961 12.5822 7.72 13.04L8.52 13.64C9.37982 14.2849 9.92284 14.6891 10.334 14.9269C10.4053 14.9681 10.4638 14.9989 10.5109 15.0219C10.5208 14.9704 10.5313 14.9051 10.5411 14.8233C10.5976 14.3518 10.6 13.6748 10.6 12.6L10.6 11.4C10.6 10.3253 10.5976 9.64831 10.5411 9.17673C10.5313 9.09497 10.5208 9.02966 10.5109 8.9782C10.4638 9.00116 10.4053 9.03197 10.334 9.07319C9.92284 9.31095 9.37982 9.71518 8.52 10.36ZM5.02572 12.2766C5.1333 12.85 5.71553 13.2867 6.88 14.16L7.68 14.76C9.33942 16.0046 10.1691 16.6269 10.8598 16.4563C11.0756 16.4029 11.2769 16.3023 11.4491 16.1616C12 15.7115 12 14.6743 12 12.6L12 11.4C12 9.32576 12 8.28862 11.4491 7.83848C11.2769 7.6978 11.0756 7.59716 10.8598 7.54383C10.1691 7.37319 9.33942 7.99547 7.68 9.24004L6.88 9.84004C5.71553 10.7134 5.1333 11.1501 5.02572 11.7234C4.99143 11.9062 4.99143 12.0938 5.02572 12.2766Z" fill="#8E44F4"/>
</svg>
