<svg width="24" height="24" viewBox="0 0 24 24" fill="none" xmlns="http://www.w3.org/2000/svg">
<path fill-rule="evenodd" clip-rule="evenodd" d="M12 22.7C6.09054 22.7 1.29999 17.9094 1.29999 12C1.29999 6.0905 6.09054 1.29995 12 1.29995C17.9094 1.29995 22.7 6.0905 22.7 12C22.7 17.9094 17.9094 22.7 12 22.7ZM2.69999 12C2.69999 17.1362 6.86374 21.3 12 21.3C17.1362 21.3 21.3 17.1362 21.3 12C21.3 6.8637 17.1362 2.69995 12 2.69995C6.86374 2.69995 2.69999 6.8637 2.69999 12Z" fill="#222628"/>
<path fill-rule="evenodd" clip-rule="evenodd" d="M8.03172 13.5203C7.74436 13.2616 7.72107 12.819 7.97969 12.5317L8.01601 12.4914L8.11757 12.3792C8.20507 12.2828 8.33031 12.1451 8.48164 11.9801C8.78405 11.6502 9.19176 11.2094 9.61124 10.7678C10.0291 10.3279 10.4653 9.88033 10.8227 9.53992C10.9999 9.37116 11.1687 9.21823 11.3118 9.10373C11.3821 9.04753 11.4607 8.98881 11.5402 8.94061C11.5799 8.91655 11.6329 8.88711 11.6946 8.86189C11.7471 8.84049 11.8581 8.79995 12 8.79995C12.1419 8.79995 12.2529 8.84049 12.3054 8.86189C12.3671 8.88711 12.4201 8.91655 12.4598 8.94061C12.5393 8.98881 12.6179 9.04753 12.6882 9.10373C12.8313 9.21823 13.0001 9.37116 13.1773 9.53992C13.5347 9.88033 13.9709 10.3279 14.3887 10.7678C14.8082 11.2094 15.2159 11.6502 15.5183 11.9801C15.6697 12.1451 15.7949 12.2828 15.8824 12.3792L15.984 12.4914L16.0196 12.5309C16.0197 12.531 16.0203 12.5317 15.5 12.9999L16.0203 12.5317C16.2789 12.819 16.2556 13.2616 15.9683 13.5203C15.6809 13.7789 15.2383 13.7556 14.9797 13.4682L15.2653 13.2112C14.9797 13.4682 14.9797 13.4682 14.9797 13.4682L14.9451 13.4299L14.8455 13.3199C14.7594 13.2249 14.6358 13.0891 14.4863 12.9261C14.1872 12.5997 13.7855 12.1655 13.3737 11.7321C12.9604 11.2969 12.5434 10.8696 12.2118 10.5537C12.1339 10.4796 12.0631 10.4138 12 10.357C11.9369 10.4138 11.8661 10.4796 11.7882 10.5537C11.4566 10.8696 11.0396 11.2969 10.6262 11.7321C10.2145 12.1655 9.81281 12.5997 9.51366 12.9261C9.3642 13.0891 9.24062 13.2249 9.15449 13.3199L9.0549 13.4299L9.02077 13.4677C9.02076 13.4677 9.0203 13.4682 8.69897 13.179L9.02077 13.4677C8.76215 13.7551 8.31908 13.7789 8.03172 13.5203Z" fill="#8E44F4"/>
</svg>
