<svg width="24" height="24" viewBox="0 0 24 24" fill="none" xmlns="http://www.w3.org/2000/svg">
<path fill-rule="evenodd" clip-rule="evenodd" d="M1.29999 12.0354L1.29999 11.9645C1.29998 10.1253 1.29998 8.69722 1.40333 7.55696C1.50821 6.39975 1.72393 5.4704 2.19762 4.64995C2.78566 3.63142 3.63146 2.78563 4.64999 2.19758C5.47044 1.72389 6.39979 1.50817 7.55699 1.40329C8.69727 1.29994 10.1253 1.29995 11.9646 1.29995L12.0354 1.29995C13.8746 1.29995 15.3027 1.29994 16.443 1.40329C17.6002 1.50817 18.5295 1.72389 19.35 2.19758C20.3685 2.78563 21.2143 3.63142 21.8024 4.64995C22.276 5.4704 22.4918 6.39975 22.5966 7.55696C22.7 8.69723 22.7 10.1253 22.7 11.9646L22.7 12.0353C22.7 13.8746 22.7 15.3027 22.5966 16.4429C22.4918 17.6001 22.276 18.5295 21.8024 19.35C21.2143 20.3685 20.3685 21.2143 19.35 21.8023C18.5295 22.276 17.6002 22.4917 16.443 22.5966C15.3027 22.7 13.8747 22.7 12.0354 22.7L11.9645 22.7C10.1253 22.7 8.69726 22.7 7.55699 22.5966C6.39979 22.4917 5.47044 22.276 4.64999 21.8023C3.63146 21.2143 2.78567 20.3685 2.19762 19.35C1.72393 18.5295 1.50821 17.6002 1.40333 16.4429C1.29998 15.3027 1.29998 13.8746 1.29999 12.0354ZM2.79761 16.3166C2.89369 17.3767 3.07989 18.0781 3.41005 18.65C3.87523 19.4557 4.54429 20.1247 5.34999 20.5899C5.92184 20.92 6.62326 21.1062 7.68336 21.2023C8.75309 21.2993 10.1179 21.3 12 21.3C13.8821 21.3 15.2469 21.2993 16.3166 21.2023C17.3767 21.1062 18.0781 20.92 18.65 20.5899C19.4557 20.1247 20.1247 19.4557 20.5899 18.65C20.9201 18.0781 21.1063 17.3767 21.2024 16.3166C21.2993 15.2468 21.3 13.8821 21.3 12C21.3 10.1178 21.2993 8.75305 21.2024 7.68332C21.1063 6.62322 20.9201 5.92181 20.5899 5.34995C20.1247 4.54425 19.4557 3.87519 18.65 3.41001C18.0781 3.07985 17.3767 2.89365 16.3166 2.79757C15.2469 2.70062 13.8821 2.69995 12 2.69995C10.1179 2.69995 8.75309 2.70062 7.68336 2.79757C6.62326 2.89365 5.92184 3.07985 5.34999 3.41001C4.54428 3.87519 3.87522 4.54425 3.41005 5.34995C3.07989 5.92181 2.89369 6.62322 2.79761 7.68333C2.70066 8.75305 2.69999 10.1178 2.69999 12C2.69999 13.8821 2.70066 15.2468 2.79761 16.3166Z" fill="#222628"/>
<path fill-rule="evenodd" clip-rule="evenodd" d="M8.03172 13.5203C7.74436 13.2616 7.72107 12.819 7.97969 12.5317L8.01601 12.4914L8.11757 12.3792C8.20507 12.2828 8.33031 12.1451 8.48164 11.9801C8.78405 11.6502 9.19176 11.2094 9.61124 10.7678C10.0291 10.3279 10.4653 9.88033 10.8227 9.53992C10.9999 9.37116 11.1687 9.21823 11.3118 9.10373C11.3821 9.04753 11.4607 8.98881 11.5402 8.94061C11.5799 8.91655 11.6329 8.88711 11.6946 8.86189C11.7471 8.84049 11.8581 8.79995 12 8.79995C12.1419 8.79995 12.2529 8.84049 12.3054 8.86189C12.3671 8.88711 12.4201 8.91655 12.4598 8.94061C12.5393 8.98881 12.6179 9.04753 12.6882 9.10373C12.8313 9.21823 13.0001 9.37116 13.1773 9.53992C13.5347 9.88033 13.9709 10.3279 14.3887 10.7678C14.8082 11.2094 15.2159 11.6502 15.5183 11.9801C15.6697 12.1451 15.7949 12.2828 15.8824 12.3792L15.984 12.4914L16.0196 12.5309C16.0197 12.531 16.0203 12.5317 15.5 12.9999L16.0203 12.5317C16.2789 12.819 16.2556 13.2616 15.9683 13.5203C15.6809 13.7789 15.2383 13.7556 14.9797 13.4682L15.2653 13.2112C14.9797 13.4682 14.9797 13.4682 14.9797 13.4682L14.9451 13.4299L14.8455 13.3199C14.7594 13.2249 14.6358 13.0891 14.4863 12.9261C14.1872 12.5997 13.7855 12.1655 13.3737 11.7321C12.9604 11.2969 12.5434 10.8696 12.2118 10.5537C12.1339 10.4796 12.0631 10.4138 12 10.357C11.9369 10.4138 11.8661 10.4796 11.7882 10.5537C11.4566 10.8696 11.0396 11.2969 10.6262 11.7321C10.2145 12.1655 9.81281 12.5997 9.51366 12.9261C9.3642 13.0891 9.24062 13.2249 9.15449 13.3199L9.0549 13.4299L9.02077 13.4677C9.02076 13.4677 9.0203 13.4682 8.69897 13.179L9.02077 13.4677C8.76215 13.7551 8.31908 13.7789 8.03172 13.5203Z" fill="#8E44F4"/>
</svg>
