<svg width="24" height="24" viewBox="0 0 24 24" fill="none" xmlns="http://www.w3.org/2000/svg">
<path fill-rule="evenodd" clip-rule="evenodd" d="M12 1.30005C17.9095 1.30005 22.7 6.0906 22.7 12C22.7 17.9095 17.9095 22.7001 12 22.7C6.09056 22.7 1.30001 17.9095 1.30001 12C1.30001 6.0906 6.09056 1.30005 12 1.30005ZM21.3 12C21.3 6.8638 17.1363 2.70005 12 2.70005C6.86376 2.70005 2.70001 6.8638 2.70001 12C2.70001 17.1363 6.86376 21.3 12 21.3C17.1363 21.3 21.3 17.1363 21.3 12Z" fill="#222628"/>
<path fill-rule="evenodd" clip-rule="evenodd" d="M15.9683 10.4797C16.2556 10.7384 16.2789 11.181 16.0203 11.4683L15.984 11.5086L15.8824 11.6208C15.7949 11.7172 15.6697 11.8549 15.5184 12.0199C15.2159 12.3498 14.8082 12.7906 14.3888 13.2322C13.9709 13.6721 13.5347 14.1197 13.1773 14.4601C13.0001 14.6288 12.8313 14.7818 12.6882 14.8963C12.6179 14.9525 12.5393 15.0112 12.4598 15.0594C12.4201 15.0834 12.3671 15.1129 12.3054 15.1381C12.2529 15.1595 12.1419 15.2001 12 15.2001C11.8581 15.2001 11.7471 15.1595 11.6946 15.1381C11.6329 15.1129 11.5799 15.0834 11.5402 15.0594C11.4607 15.0112 11.3821 14.9525 11.3118 14.8963C11.1687 14.7818 10.9999 14.6288 10.8227 14.4601C10.4653 14.1197 10.0291 13.6721 9.61126 13.2322C9.19177 12.7906 8.78406 12.3498 8.48165 12.0199C8.33033 11.8549 8.20509 11.7172 8.11758 11.6208L8.01602 11.5086L7.98038 11.4691C7.98034 11.469 7.9797 11.4683 8.50001 11.0001L7.9797 11.4683C7.72108 11.181 7.74437 10.7384 8.03173 10.4797C8.31909 10.2211 8.76169 10.2444 9.02031 10.5318L8.73468 10.7888C9.02031 10.5318 9.0203 10.5318 9.02031 10.5318L9.05491 10.5701L9.1545 10.6801C9.24063 10.7751 9.36422 10.9109 9.51367 11.0739C9.81282 11.4003 10.2145 11.8345 10.6263 12.2679C11.0396 12.7031 11.4566 13.1304 11.7882 13.4463C11.8661 13.5204 11.9369 13.5862 12 13.643C12.0631 13.5862 12.1339 13.5204 12.2118 13.4463C12.5434 13.1304 12.9604 12.7031 13.3738 12.2679C13.7855 11.8345 14.1872 11.4003 14.4863 11.0739C14.6358 10.9109 14.7594 10.7751 14.8455 10.6801L14.9451 10.5701L14.9792 10.5323C14.9792 10.5323 14.9797 10.5318 15.301 10.821L14.9792 10.5323C15.2378 10.2449 15.6809 10.2211 15.9683 10.4797Z" fill="#8E44F4"/>
</svg>
