<svg width="24" height="24" viewBox="0 0 24 24" fill="none" xmlns="http://www.w3.org/2000/svg">
<path fill-rule="evenodd" clip-rule="evenodd" d="M11.9645 1.30005H12.0354C13.8747 1.30004 15.3027 1.30004 16.443 1.40339C17.6002 1.50827 18.5295 1.72399 19.35 2.19768C20.3685 2.78573 21.2143 3.63152 21.8024 4.65005C22.276 5.4705 22.4918 6.39985 22.5966 7.55705C22.7 8.69733 22.7 10.1254 22.7 11.9647V12.0354C22.7 13.8747 22.7 15.3028 22.5966 16.443C22.4918 17.6002 22.276 18.5296 21.8024 19.35C21.2143 20.3686 20.3685 21.2144 19.35 21.8024C18.5295 22.2761 17.6002 22.4918 16.443 22.5967C15.3027 22.7001 13.8746 22.7001 12.0354 22.7001H11.9646C10.1253 22.7001 8.69727 22.7001 7.55699 22.5967C6.39979 22.4918 5.47044 22.2761 4.64999 21.8024C3.63146 21.2144 2.78567 20.3686 2.19762 19.35C1.72393 18.5296 1.50821 17.6002 1.40333 16.443C1.29998 15.3028 1.29998 13.8747 1.29999 12.0355V11.9646C1.29998 10.1254 1.29998 8.69732 1.40333 7.55705C1.50821 6.39985 1.72393 5.4705 2.19762 4.65005C2.78567 3.63152 3.63146 2.78573 4.64999 2.19768C5.47044 1.72399 6.39979 1.50827 7.55699 1.40339C8.69726 1.30004 10.1253 1.30004 11.9645 1.30005ZM7.68336 2.79767C6.62326 2.89375 5.92184 3.07995 5.34999 3.41011C4.54429 3.87529 3.87523 4.54435 3.41005 5.35005C3.07989 5.9219 2.89369 6.62332 2.79761 7.68342C2.70066 8.75315 2.69999 10.1179 2.69999 12C2.69999 13.8822 2.70066 15.2469 2.79761 16.3167C2.89369 17.3768 3.07989 18.0782 3.41005 18.65C3.87523 19.4558 4.54429 20.1248 5.34999 20.59C5.92184 20.9201 6.62326 21.1063 7.68336 21.2024C8.75309 21.2994 10.1179 21.3 12 21.3C13.8821 21.3 15.2469 21.2994 16.3166 21.2024C17.3767 21.1063 18.0781 20.9201 18.65 20.59C19.4557 20.1248 20.1248 19.4558 20.5899 18.65C20.9201 18.0782 21.1063 17.3768 21.2024 16.3167C21.2993 15.2469 21.3 13.8822 21.3 12C21.3 10.1179 21.2993 8.75315 21.2024 7.68342C21.1063 6.62332 20.9201 5.9219 20.5899 5.35005C20.1248 4.54435 19.4557 3.87529 18.65 3.41011C18.0781 3.07995 17.3767 2.89375 16.3166 2.79767C15.2469 2.70072 13.8821 2.70005 12 2.70005C10.1179 2.70005 8.75309 2.70072 7.68336 2.79767Z" fill="#222628"/>
<path fill-rule="evenodd" clip-rule="evenodd" d="M10.4797 8.03178C10.7383 7.74442 11.1809 7.72113 11.4683 7.97975L11.5085 8.01607L11.6207 8.11763C11.7172 8.20514 11.8548 8.33038 12.0199 8.4817C12.3498 8.78411 12.7906 9.19182 13.2321 9.61131C13.672 10.0292 14.1196 10.4653 14.46 10.8228C14.6288 11 14.7817 11.1688 14.8962 11.3119C14.9524 11.3821 15.0111 11.4607 15.0593 11.5403C15.0834 11.58 15.1128 11.6329 15.138 11.6947C15.1595 11.7471 15.2 11.8581 15.2 12.0001C15.2 12.142 15.1595 12.253 15.138 12.3054C15.1128 12.3672 15.0834 12.4201 15.0593 12.4599C15.0111 12.5394 14.9524 12.618 14.8962 12.6882C14.7817 12.8313 14.6288 13.0001 14.46 13.1773C14.1196 13.5348 13.672 13.9709 13.2321 14.3888C12.7906 14.8083 12.3498 15.216 12.0199 15.5184C11.8548 15.6697 11.7172 15.795 11.6207 15.8825L11.5085 15.984L11.469 16.0197C11.469 16.0197 11.4683 16.0204 11 15.5001L11.4683 16.0204C11.1809 16.279 10.7383 16.2557 10.4797 15.9683C10.2211 15.681 10.2444 15.2384 10.5317 14.9797L10.7888 15.2654C10.5317 14.9797 10.5317 14.9798 10.5317 14.9797L10.5701 14.9451L10.6801 14.8456C10.775 14.7594 10.9108 14.6358 11.0739 14.4864C11.4002 14.1872 11.8344 13.7856 12.2679 13.3738C12.703 12.9604 13.1304 12.5435 13.4462 12.2118C13.5204 12.134 13.5861 12.0632 13.6429 12.0001C13.5861 11.9369 13.5204 11.8661 13.4462 11.7883C13.1304 11.4566 12.703 11.0397 12.2679 10.6263C11.8344 10.2145 11.4002 9.81287 11.0739 9.51372C10.9108 9.36427 10.775 9.24068 10.6801 9.15455L10.5701 9.05496L10.5322 9.02083C10.5322 9.02082 10.5317 9.02036 10.8209 8.69903L10.5322 9.02083C10.2449 8.76221 10.2211 8.31914 10.4797 8.03178Z" fill="#8E44F4"/>
</svg>
