<svg width="24" height="24" viewBox="0 0 24 24" fill="none" xmlns="http://www.w3.org/2000/svg">
<path fill-rule="evenodd" clip-rule="evenodd" d="M22.7 12C22.7 17.9094 17.9095 22.7 12 22.7C6.09056 22.7 1.30001 17.9094 1.30001 12C1.30001 6.09051 6.09056 1.29995 12 1.29995C17.9095 1.29995 22.7 6.0905 22.7 12ZM12 21.3C17.1363 21.3 21.3 17.1362 21.3 12C21.3 6.8637 17.1363 2.69995 12 2.69995C6.86376 2.69995 2.70001 6.86371 2.70001 12C2.70001 17.1362 6.86376 21.3 12 21.3Z" fill="#222628"/>
<path fill-rule="evenodd" clip-rule="evenodd" d="M13.5203 15.9682C13.2617 16.2556 12.8191 16.2789 12.5317 16.0203L12.4915 15.9839L12.3793 15.8824C12.2828 15.7949 12.1452 15.6696 11.9801 15.5183C11.6502 15.2159 11.2094 14.8082 10.7679 14.3887C10.328 13.9708 9.88039 13.5347 9.53998 13.1772C9.37122 13 9.21829 12.8312 9.10379 12.6881C9.04759 12.6179 8.98887 12.5393 8.94067 12.4597C8.91661 12.42 8.88717 12.3671 8.86195 12.3053C8.84055 12.2529 8.80001 12.1419 8.80001 11.9999C8.80001 11.858 8.84055 11.747 8.86195 11.6946C8.88717 11.6328 8.91661 11.5799 8.94067 11.5401C8.98887 11.4606 9.04759 11.382 9.10379 11.3118C9.21829 11.1687 9.37122 10.9999 9.53998 10.8227C9.88039 10.4652 10.328 10.0291 10.7679 9.6112C11.2094 9.19171 11.6502 8.784 11.9801 8.48159C12.1452 8.33027 12.2828 8.20502 12.3793 8.11752L12.4915 8.01596L12.531 7.98032C12.531 7.98028 12.5317 7.97964 13 8.49995L12.5317 7.97964C12.8191 7.72102 13.2617 7.74431 13.5203 8.03167C13.7789 8.31903 13.7556 8.76163 13.4683 9.02025L13.2112 8.73462C13.4683 9.02025 13.4683 9.02024 13.4683 9.02025L13.4299 9.05485L13.3199 9.15444C13.225 9.24057 13.0892 9.36416 12.9261 9.51361C12.5998 9.81276 12.1656 10.2144 11.7321 10.6262C11.297 11.0396 10.8696 11.4565 10.5538 11.7882C10.4796 11.866 10.4139 11.9368 10.3571 11.9999C10.4139 12.0631 10.4796 12.1339 10.5538 12.2117C10.8696 12.5434 11.297 12.9603 11.7321 13.3737C12.1656 13.7855 12.5998 14.1871 12.9261 14.4863C13.0892 14.6357 13.225 14.7593 13.3199 14.8454L13.4299 14.945L13.4678 14.9792C13.4678 14.9792 13.4683 14.9796 13.1791 15.301L13.4678 14.9792C13.7551 15.2378 13.7789 15.6809 13.5203 15.9682Z" fill="#8E44F4"/>
</svg>
