<svg width="24" height="24" viewBox="0 0 24 24" fill="none" xmlns="http://www.w3.org/2000/svg">
<path fill-rule="evenodd" clip-rule="evenodd" d="M1.29999 12C1.29999 6.0906 6.09054 1.30005 12 1.30005C17.9094 1.30005 22.7 6.0906 22.7 12C22.7 17.9095 17.9094 22.7001 12 22.7001C6.09054 22.7001 1.29999 17.9095 1.29999 12ZM12 2.70005C6.86374 2.70005 2.69999 6.8638 2.69999 12C2.69999 17.1363 6.86374 21.3 12 21.3C17.1362 21.3 21.3 17.1363 21.3 12C21.3 6.8638 17.1362 2.70005 12 2.70005Z" fill="#222628"/>
<path fill-rule="evenodd" clip-rule="evenodd" d="M10.4797 8.03178C10.7383 7.74442 11.1809 7.72113 11.4683 7.97975L11.5085 8.01607L11.6207 8.11763C11.7172 8.20514 11.8548 8.33038 12.0199 8.4817C12.3498 8.78411 12.7906 9.19182 13.2321 9.61131C13.672 10.0292 14.1196 10.4653 14.46 10.8228C14.6288 11 14.7817 11.1688 14.8962 11.3119C14.9524 11.3821 15.0111 11.4607 15.0593 11.5403C15.0834 11.58 15.1128 11.6329 15.138 11.6947C15.1595 11.7471 15.2 11.8581 15.2 12.0001C15.2 12.142 15.1595 12.253 15.138 12.3054C15.1128 12.3672 15.0834 12.4201 15.0593 12.4599C15.0111 12.5394 14.9524 12.618 14.8962 12.6882C14.7817 12.8313 14.6288 13.0001 14.46 13.1773C14.1196 13.5348 13.672 13.9709 13.2321 14.3888C12.7906 14.8083 12.3498 15.216 12.0199 15.5184C11.8548 15.6697 11.7172 15.795 11.6207 15.8825L11.5085 15.984L11.469 16.0197C11.469 16.0197 11.4683 16.0204 11 15.5001L11.4683 16.0204C11.1809 16.279 10.7383 16.2557 10.4797 15.9683C10.2211 15.681 10.2444 15.2384 10.5317 14.9797L10.7888 15.2654C10.5317 14.9797 10.5317 14.9798 10.5317 14.9797L10.5701 14.9451L10.6801 14.8456C10.775 14.7594 10.9108 14.6358 11.0739 14.4864C11.4002 14.1872 11.8344 13.7856 12.2679 13.3738C12.703 12.9604 13.1304 12.5435 13.4462 12.2118C13.5204 12.134 13.5861 12.0632 13.6429 12.0001C13.5861 11.9369 13.5204 11.8661 13.4462 11.7883C13.1304 11.4566 12.703 11.0397 12.2679 10.6263C11.8344 10.2145 11.4002 9.81287 11.0739 9.51372C10.9108 9.36427 10.775 9.24068 10.6801 9.15455L10.5701 9.05496L10.5322 9.02083C10.5322 9.02082 10.5317 9.02036 10.8209 8.69903L10.5322 9.02083C10.2449 8.76221 10.2211 8.31914 10.4797 8.03178Z" fill="#8E44F4"/>
</svg>
