<svg width="24" height="24" viewBox="0 0 24 24" fill="none" xmlns="http://www.w3.org/2000/svg">
<path fill-rule="evenodd" clip-rule="evenodd" d="M3.29999 11.9999C3.29999 11.6133 3.61339 11.2999 3.99999 11.2999H13C13.3866 11.2999 13.7 11.6133 13.7 11.9999C13.7 12.3865 13.3866 12.6999 13 12.6999H3.99999C3.61339 12.6999 3.29999 12.3865 3.29999 11.9999Z" fill="#222628"/>
<path fill-rule="evenodd" clip-rule="evenodd" d="M16.48 13.64L17.28 13.04C17.8904 12.5822 18.2473 12.3116 18.478 12.0919C18.517 12.0548 18.5467 12.0243 18.569 12C18.5467 11.9757 18.517 11.9451 18.478 11.908C18.2473 11.6884 17.8904 11.4178 17.28 10.96L16.48 10.36C15.6202 9.7151 15.0772 9.31087 14.666 9.07312C14.5947 9.0319 14.5362 9.00109 14.4891 8.97813C14.4792 9.02958 14.4687 9.0949 14.4589 9.17665C14.4024 9.64823 14.4 10.3252 14.4 11.4L14.4 12.6C14.4 13.6747 14.4024 14.3517 14.4589 14.8233C14.4687 14.905 14.4792 14.9703 14.4891 15.0218C14.5362 14.9988 14.5947 14.968 14.666 14.9268C15.0772 14.6891 15.6202 14.2848 16.48 13.64ZM19.9743 11.7234C19.8667 11.15 19.2845 10.7133 18.12 9.83996L17.32 9.23996C15.6606 7.99539 14.8309 7.37311 14.1402 7.54375C13.9244 7.59708 13.7231 7.69772 13.5509 7.83841C13 8.28854 13 9.32568 13 11.4L13 12.6C13 14.6742 13 15.7114 13.5509 16.1615C13.7231 16.3022 13.9244 16.4028 14.1402 16.4562C14.8309 16.6268 15.6606 16.0045 17.32 14.76L18.12 14.16C19.2845 13.2866 19.8667 12.8499 19.9743 12.2766C20.0086 12.0938 20.0086 11.9062 19.9743 11.7234Z" fill="#8E44F4"/>
</svg>
