<svg width="24" height="24" viewBox="0 0 24 24" fill="none" xmlns="http://www.w3.org/2000/svg">
<path fill-rule="evenodd" clip-rule="evenodd" d="M6.29999 12C6.29999 11.6134 6.61339 11.3 6.99999 11.3L16 11.3C16.3866 11.3 16.7 11.6135 16.7 12C16.7 12.3866 16.3866 12.7 16 12.7L6.99999 12.7C6.61339 12.7 6.29999 12.3866 6.29999 12Z" fill="#8E44F4"/>
<path fill-rule="evenodd" clip-rule="evenodd" d="M13.6916 8.51888C13.9573 8.2381 14.4004 8.2259 14.6812 8.49165L14.7137 8.52255L14.8039 8.60846C14.8813 8.68245 14.9917 8.78834 15.1242 8.91644C15.3887 9.17234 15.7425 9.51821 16.0972 9.87603C16.45 10.232 16.8114 10.6075 17.0875 10.9206C17.2242 11.0757 17.3509 11.2276 17.4471 11.3607C17.4944 11.4262 17.5451 11.5018 17.5869 11.5805C17.6135 11.6308 17.7 11.7937 17.7 12.0001C17.7 12.2065 17.6138 12.3689 17.5871 12.4192C17.5453 12.4979 17.4944 12.5739 17.4471 12.6394C17.3509 12.7725 17.2242 12.9244 17.0875 13.0795C16.8114 13.3926 16.45 13.7681 16.0972 14.1241C15.7425 14.4819 15.3887 14.8278 15.1242 15.0837C14.9917 15.2118 14.8813 15.3177 14.8039 15.3916L14.7137 15.4776L14.6818 15.5078C14.6818 15.5079 14.6812 15.5085 14.2 15.0001L14.6818 15.5078C14.401 15.7736 13.9573 15.762 13.6916 15.4812C13.4259 15.2004 13.438 14.7574 13.7188 14.4916L13.7492 14.4629L13.8368 14.3794C13.9124 14.3071 14.0208 14.2032 14.1508 14.0774C14.4113 13.8255 14.7575 13.487 15.1028 13.1385C15.45 12.7883 15.7886 12.4356 16.0375 12.1535C16.0867 12.0976 16.1308 12.0464 16.1696 12.0001C16.1308 11.9537 16.0867 11.9025 16.0375 11.8466C15.7886 11.5645 15.45 11.2118 15.1028 10.8616C14.7575 10.5131 14.4113 10.1746 14.1508 9.92272C14.0208 9.79692 13.9124 9.69305 13.8368 9.62074L13.7492 9.53725L13.7192 9.50881C13.7192 9.50881 13.7192 9.50881 13.7192 9.50881M13.6916 8.51888C13.4259 8.79966 13.4384 9.24307 13.7192 9.50881L13.6916 8.51888Z" fill="#8E44F4"/>
<path fill-rule="evenodd" clip-rule="evenodd" d="M11.9645 1.30005H12.0354C13.8747 1.30004 15.3027 1.30004 16.443 1.40339C17.6002 1.50827 18.5295 1.72399 19.35 2.19768C20.3685 2.78573 21.2143 3.63152 21.8024 4.65005C22.276 5.4705 22.4918 6.39985 22.5966 7.55705C22.7 8.69733 22.7 10.1254 22.7 11.9647V12.0354C22.7 13.8747 22.7 15.3028 22.5966 16.443C22.4918 17.6002 22.276 18.5296 21.8024 19.35C21.2143 20.3686 20.3685 21.2144 19.35 21.8024C18.5295 22.2761 17.6002 22.4918 16.443 22.5967C15.3027 22.7001 13.8746 22.7001 12.0354 22.7001H11.9646C10.1253 22.7001 8.69727 22.7001 7.55699 22.5967C6.39979 22.4918 5.47044 22.2761 4.64999 21.8024C3.63146 21.2144 2.78567 20.3686 2.19762 19.35C1.72393 18.5296 1.50821 17.6002 1.40333 16.443C1.29998 15.3028 1.29998 13.8747 1.29999 12.0355V11.9646C1.29998 10.1254 1.29998 8.69732 1.40333 7.55705C1.50821 6.39985 1.72393 5.4705 2.19762 4.65005C2.78567 3.63152 3.63146 2.78573 4.64999 2.19768C5.47044 1.72399 6.39979 1.50827 7.55699 1.40339C8.69726 1.30004 10.1253 1.30004 11.9645 1.30005ZM7.68336 2.79767C6.62326 2.89375 5.92184 3.07995 5.34999 3.41011C4.54429 3.87529 3.87523 4.54435 3.41005 5.35005C3.07989 5.9219 2.89369 6.62332 2.79761 7.68342C2.70066 8.75315 2.69999 10.1179 2.69999 12C2.69999 13.8822 2.70066 15.2469 2.79761 16.3167C2.89369 17.3768 3.07989 18.0782 3.41005 18.65C3.87523 19.4558 4.54429 20.1248 5.34999 20.59C5.92184 20.9201 6.62326 21.1063 7.68336 21.2024C8.75309 21.2994 10.1179 21.3 12 21.3C13.8821 21.3 15.2469 21.2994 16.3166 21.2024C17.3767 21.1063 18.0781 20.9201 18.65 20.59C19.4557 20.1248 20.1248 19.4558 20.5899 18.65C20.9201 18.0782 21.1063 17.3768 21.2024 16.3167C21.2993 15.2469 21.3 13.8822 21.3 12C21.3 10.1179 21.2993 8.75315 21.2024 7.68342C21.1063 6.62332 20.9201 5.9219 20.5899 5.35005C20.1248 4.54435 19.4557 3.87529 18.65 3.41011C18.0781 3.07995 17.3767 2.89375 16.3166 2.79767C15.2469 2.70072 13.8821 2.70005 12 2.70005C10.1179 2.70005 8.75309 2.70072 7.68336 2.79767Z" fill="#222628"/>
</svg>
