<svg width="24" height="24" viewBox="0 0 24 24" fill="none" xmlns="http://www.w3.org/2000/svg">
<path fill-rule="evenodd" clip-rule="evenodd" d="M17.7 12C17.7 12.3866 17.3866 12.7 17 12.7L8.00001 12.7C7.61341 12.7 7.30001 12.3866 7.30001 12C7.30001 11.6134 7.61341 11.3 8.00001 11.3L17 11.3C17.3866 11.3 17.7 11.6134 17.7 12Z" fill="#8E44F4"/>
<path fill-rule="evenodd" clip-rule="evenodd" d="M10.3084 15.4811C10.0427 15.7619 9.59961 15.7741 9.31883 15.5084L9.28627 15.4775L9.19614 15.3915C9.11869 15.3176 9.00826 15.2117 8.87583 15.0836C8.61126 14.8277 8.25748 14.4818 7.90283 14.124C7.55 13.768 7.18863 13.3925 6.91249 13.0794C6.77577 12.9243 6.64911 12.7724 6.55293 12.6393C6.50556 12.5738 6.45491 12.4982 6.41315 12.4195C6.38646 12.3692 6.3 12.2063 6.3 11.9999C6.3 11.7935 6.38623 11.6311 6.41292 11.5808C6.45469 11.5021 6.50556 11.4261 6.55293 11.3606C6.64911 11.2275 6.77577 11.0756 6.91249 10.9205C7.18863 10.6074 7.55 10.2319 7.90283 9.87593C8.25748 9.51811 8.61126 9.17224 8.87583 8.91634C9.00826 8.78824 9.11869 8.68235 9.19614 8.60836L9.28627 8.52245L9.31819 8.49215C9.31822 8.49212 9.31883 8.49154 9.8 8.99995L9.31819 8.49215C9.59897 8.22641 10.0427 8.238 10.3084 8.51878C10.5741 8.79956 10.562 9.24261 10.2812 9.50835L10.2508 9.53714L10.1632 9.62064C10.0876 9.69294 9.97923 9.79682 9.84917 9.92262C9.58873 10.1745 9.24251 10.513 8.89717 10.8615C8.55 11.2117 8.21136 11.5644 7.9625 11.8465C7.91328 11.9024 7.86922 11.9536 7.8304 11.9999C7.86922 12.0463 7.91328 12.0975 7.96251 12.1534C8.21136 12.4355 8.55 12.7882 8.89717 13.1384C9.24251 13.4869 9.58873 13.8254 9.84917 14.0773C9.97923 14.2031 10.0876 14.307 10.1632 14.3793L10.2508 14.4628L10.2808 14.4912C10.2808 14.4912 10.2808 14.4912 10.2808 14.4912M10.3084 15.4811C10.5741 15.2003 10.5616 14.7569 10.2808 14.4912L10.3084 15.4811Z" fill="#8E44F4"/>
<path fill-rule="evenodd" clip-rule="evenodd" d="M12.0355 22.7L11.9646 22.7C10.1253 22.7 8.69728 22.7 7.55702 22.5966C6.39981 22.4917 5.47046 22.276 4.65001 21.8023C3.63148 21.2143 2.78569 20.3685 2.19764 19.35C1.72395 18.5295 1.50823 17.6002 1.40335 16.4429C1.3 15.3027 1.30001 13.8746 1.30001 12.0353L1.30001 11.9646C1.30001 10.1253 1.3 8.69724 1.40335 7.55696C1.50823 6.39975 1.72395 5.4704 2.19764 4.64995C2.78569 3.63142 3.63148 2.78563 4.65001 2.19758C5.47046 1.7239 6.39981 1.50817 7.55702 1.40329C8.69729 1.29994 10.1254 1.29995 11.9646 1.29995L12.0354 1.29995C13.8747 1.29995 15.3027 1.29994 16.443 1.40329C17.6002 1.50817 18.5296 1.72389 19.35 2.19758C20.3685 2.78563 21.2143 3.63142 21.8024 4.64995C22.2761 5.4704 22.4918 6.39975 22.5967 7.55696C22.7 8.69722 22.7 10.1253 22.7 11.9645L22.7 12.0354C22.7 13.8746 22.7 15.3027 22.5967 16.4429C22.4918 17.6002 22.2761 18.5295 21.8024 19.35C21.2143 20.3685 20.3685 21.2143 19.35 21.8023C18.5296 22.276 17.6002 22.4917 16.443 22.5966C15.3027 22.7 13.8747 22.7 12.0355 22.7ZM16.3166 21.2023C17.3767 21.1062 18.0782 20.92 18.65 20.5899C19.4557 20.1247 20.1248 19.4557 20.5899 18.65C20.9201 18.0781 21.1063 17.3767 21.2024 16.3166C21.2993 15.2469 21.3 13.8821 21.3 12C21.3 10.1178 21.2993 8.75305 21.2024 7.68333C21.1063 6.62322 20.9201 5.92181 20.5899 5.34995C20.1248 4.54425 19.4557 3.87519 18.65 3.41002C18.0782 3.07986 17.3767 2.89365 16.3166 2.79757C15.2469 2.70062 13.8821 2.69995 12 2.69995C10.1179 2.69995 8.75311 2.70062 7.68339 2.79757C6.62328 2.89366 5.92187 3.07986 5.35001 3.41002C4.54431 3.87519 3.87525 4.54425 3.41007 5.34995C3.07991 5.92181 2.89371 6.62322 2.79763 7.68333C2.70068 8.75305 2.70001 10.1178 2.70001 12C2.70001 13.8821 2.70068 15.2469 2.79763 16.3166C2.89371 17.3767 3.07992 18.0781 3.41008 18.65C3.87525 19.4557 4.54431 20.1247 5.35001 20.5899C5.92187 20.92 6.62328 21.1062 7.68339 21.2023C8.75311 21.2993 10.1179 21.3 12 21.3C13.8821 21.3 15.2469 21.2993 16.3166 21.2023Z" fill="#222628"/>
</svg>
