<svg width="24" height="24" viewBox="0 0 24 24" fill="none" xmlns="http://www.w3.org/2000/svg">
<path fill-rule="evenodd" clip-rule="evenodd" d="M12 18.7C11.6134 18.7 11.3 18.3866 11.3 18L11.3 12C11.3 11.6134 11.6134 11.3 12 11.3C12.3866 11.3 12.7 11.6134 12.7 12L12.7 18C12.7 18.3866 12.3866 18.7 12 18.7Z" fill="#8E44F4"/>
<path fill-rule="evenodd" clip-rule="evenodd" d="M10.3505 10.5683C10.7085 10.5987 11.2102 10.5999 12 10.5999C12.7897 10.5999 13.2914 10.5987 13.6494 10.5683C13.7592 10.559 13.834 10.5481 13.8818 10.5395C13.8578 10.4972 13.8183 10.4328 13.7552 10.3425C13.5493 10.048 13.2291 9.66178 12.7235 9.0551C12.4126 8.68203 12.2328 8.46787 12.0905 8.32291C12.0525 8.28426 12.0251 8.25895 12.0072 8.24328C12.0024 8.24293 11.9975 8.24293 11.9927 8.24328C11.9748 8.25895 11.9474 8.28426 11.9094 8.32291C11.7672 8.46787 11.5873 8.68203 11.2764 9.0551C10.7708 9.66178 10.4506 10.048 10.2447 10.3425C10.1816 10.4328 10.1421 10.4972 10.1182 10.5395C10.1659 10.5481 10.2407 10.559 10.3505 10.5683ZM11.4375 6.95247C11.0886 7.0936 10.7927 7.44868 10.2009 8.15884C9.22311 9.33217 8.73422 9.91883 8.70513 10.4115C8.67522 10.9181 8.90349 11.4055 9.31183 11.7069C9.70896 11.9999 10.4726 11.9999 12 11.9999H12C13.5273 11.9999 14.291 11.9999 14.6881 11.7069C15.0964 11.4055 15.3247 10.9181 15.2948 10.4115C15.2657 9.91883 14.7768 9.33217 13.799 8.15884C13.2072 7.44868 12.9113 7.0936 12.5624 6.95247C12.2016 6.80653 11.7983 6.80654 11.4375 6.95247Z" fill="#8E44F4"/>
<path fill-rule="evenodd" clip-rule="evenodd" d="M1.29999 12.0354L1.29999 11.9645C1.29998 10.1253 1.29998 8.69722 1.40333 7.55696C1.50821 6.39975 1.72393 5.4704 2.19762 4.64995C2.78566 3.63142 3.63146 2.78563 4.64999 2.19758C5.47044 1.72389 6.39979 1.50817 7.55699 1.40329C8.69727 1.29994 10.1253 1.29995 11.9646 1.29995L12.0354 1.29995C13.8746 1.29995 15.3027 1.29994 16.443 1.40329C17.6002 1.50817 18.5295 1.72389 19.35 2.19758C20.3685 2.78563 21.2143 3.63142 21.8024 4.64995C22.276 5.4704 22.4918 6.39975 22.5966 7.55696C22.7 8.69723 22.7 10.1253 22.7 11.9646L22.7 12.0353C22.7 13.8746 22.7 15.3027 22.5966 16.4429C22.4918 17.6001 22.276 18.5295 21.8024 19.35C21.2143 20.3685 20.3685 21.2143 19.35 21.8023C18.5295 22.276 17.6002 22.4917 16.443 22.5966C15.3027 22.7 13.8747 22.7 12.0354 22.7L11.9645 22.7C10.1253 22.7 8.69726 22.7 7.55699 22.5966C6.39979 22.4917 5.47044 22.276 4.64999 21.8023C3.63146 21.2143 2.78567 20.3685 2.19762 19.35C1.72393 18.5295 1.50821 17.6002 1.40333 16.4429C1.29998 15.3027 1.29998 13.8746 1.29999 12.0354ZM2.79761 16.3166C2.89369 17.3767 3.07989 18.0781 3.41005 18.65C3.87523 19.4557 4.54429 20.1247 5.34999 20.5899C5.92184 20.92 6.62326 21.1062 7.68336 21.2023C8.75309 21.2993 10.1179 21.3 12 21.3C13.8821 21.3 15.2469 21.2993 16.3166 21.2023C17.3767 21.1062 18.0781 20.92 18.65 20.5899C19.4557 20.1247 20.1247 19.4557 20.5899 18.65C20.9201 18.0781 21.1063 17.3767 21.2024 16.3166C21.2993 15.2468 21.3 13.8821 21.3 12C21.3 10.1178 21.2993 8.75305 21.2024 7.68332C21.1063 6.62322 20.9201 5.92181 20.5899 5.34995C20.1247 4.54425 19.4557 3.87519 18.65 3.41001C18.0781 3.07985 17.3767 2.89365 16.3166 2.79757C15.2469 2.70062 13.8821 2.69995 12 2.69995C10.1179 2.69995 8.75309 2.70062 7.68336 2.79757C6.62326 2.89365 5.92184 3.07985 5.34999 3.41001C4.54428 3.87519 3.87522 4.54425 3.41005 5.34995C3.07989 5.92181 2.89369 6.62322 2.79761 7.68333C2.70066 8.75305 2.69999 10.1178 2.69999 12C2.69999 13.8821 2.70066 15.2468 2.79761 16.3166Z" fill="#222628"/>
</svg>
