<svg width="24" height="24" viewBox="0 0 24 24" fill="none" xmlns="http://www.w3.org/2000/svg">
<path fill-rule="evenodd" clip-rule="evenodd" d="M22.7 11.9646L22.7 12.0355C22.7 13.8747 22.7 15.3028 22.5967 16.443C22.4918 17.6002 22.2761 18.5296 21.8024 19.35C21.2143 20.3686 20.3685 21.2144 19.35 21.8024C18.5296 22.2761 17.6002 22.4918 16.443 22.5967C15.3027 22.7001 13.8747 22.7001 12.0354 22.7001L11.9646 22.7001C10.1254 22.7001 8.6973 22.7001 7.55702 22.5967C6.39981 22.4918 5.47046 22.2761 4.65001 21.8024C3.63148 21.2144 2.78569 20.3686 2.19764 19.3501C1.72396 18.5296 1.50823 17.6002 1.40335 16.443C1.3 15.3028 1.30001 13.8747 1.30001 12.0354L1.30001 11.9647C1.30001 10.1254 1.3 8.69733 1.40335 7.55705C1.50823 6.39985 1.72396 5.4705 2.19764 4.65005C2.78569 3.63152 3.63148 2.78573 4.65001 2.19768C5.47046 1.72399 6.39981 1.50827 7.55702 1.40339C8.69728 1.30004 10.1253 1.30004 11.9646 1.30005L12.0355 1.30005C13.8747 1.30004 15.3027 1.30004 16.443 1.40339C17.6002 1.50827 18.5296 1.72399 19.35 2.19768C20.3685 2.78573 21.2143 3.63152 21.8024 4.65005C22.2761 5.4705 22.4918 6.39985 22.5967 7.55705C22.7 8.69732 22.7 10.1254 22.7 11.9646ZM21.2024 7.68342C21.1063 6.62332 20.9201 5.9219 20.5899 5.35005C20.1248 4.54435 19.4557 3.87529 18.65 3.41011C18.0782 3.07995 17.3767 2.89375 16.3166 2.79767C15.2469 2.70072 13.8821 2.70005 12 2.70005C10.1179 2.70005 8.75311 2.70072 7.68339 2.79767C6.62328 2.89375 5.92187 3.07995 5.35001 3.41011C4.54431 3.87529 3.87525 4.54435 3.41008 5.35005C3.07992 5.9219 2.89371 6.62332 2.79763 7.68342C2.70068 8.75315 2.70001 10.1179 2.70001 12C2.70001 13.8822 2.70068 15.2469 2.79763 16.3167C2.89372 17.3768 3.07992 18.0782 3.41008 18.65C3.87525 19.4558 4.54431 20.1248 5.35001 20.59C5.92187 20.9201 6.62328 21.1063 7.68339 21.2024C8.75311 21.2994 10.1179 21.3 12 21.3C13.8821 21.3 15.2469 21.2994 16.3166 21.2024C17.3767 21.1063 18.0782 20.9201 18.65 20.59C19.4557 20.1248 20.1248 19.4558 20.5899 18.65C20.9201 18.0782 21.1063 17.3768 21.2024 16.3167C21.2993 15.2469 21.3 13.8822 21.3 12C21.3 10.1179 21.2993 8.75315 21.2024 7.68342Z" fill="#222628"/>
<path fill-rule="evenodd" clip-rule="evenodd" d="M15.9683 10.4797C16.2556 10.7384 16.2789 11.181 16.0203 11.4683L15.984 11.5086L15.8824 11.6208C15.7949 11.7172 15.6697 11.8549 15.5184 12.0199C15.2159 12.3498 14.8082 12.7906 14.3888 13.2322C13.9709 13.6721 13.5347 14.1197 13.1773 14.4601C13.0001 14.6288 12.8313 14.7818 12.6882 14.8963C12.6179 14.9525 12.5393 15.0112 12.4598 15.0594C12.4201 15.0834 12.3671 15.1129 12.3054 15.1381C12.2529 15.1595 12.1419 15.2001 12 15.2001C11.8581 15.2001 11.7471 15.1595 11.6946 15.1381C11.6329 15.1129 11.5799 15.0834 11.5402 15.0594C11.4607 15.0112 11.3821 14.9525 11.3118 14.8963C11.1687 14.7818 10.9999 14.6288 10.8227 14.4601C10.4653 14.1197 10.0291 13.6721 9.61126 13.2322C9.19177 12.7906 8.78406 12.3498 8.48165 12.0199C8.33033 11.8549 8.20509 11.7172 8.11758 11.6208L8.01602 11.5086L7.98038 11.4691C7.98034 11.469 7.9797 11.4683 8.50001 11.0001L7.9797 11.4683C7.72108 11.181 7.74437 10.7384 8.03173 10.4797C8.31909 10.2211 8.76169 10.2444 9.02031 10.5318L8.73468 10.7888C9.02031 10.5318 9.0203 10.5318 9.02031 10.5318L9.05491 10.5701L9.1545 10.6801C9.24063 10.7751 9.36422 10.9109 9.51367 11.0739C9.81282 11.4003 10.2145 11.8345 10.6263 12.2679C11.0396 12.7031 11.4566 13.1304 11.7882 13.4463C11.8661 13.5204 11.9369 13.5862 12 13.643C12.0631 13.5862 12.1339 13.5204 12.2118 13.4463C12.5434 13.1304 12.9604 12.7031 13.3738 12.2679C13.7855 11.8345 14.1872 11.4003 14.4863 11.0739C14.6358 10.9109 14.7594 10.7751 14.8455 10.6801L14.9451 10.5701L14.9792 10.5323C14.9792 10.5323 14.9797 10.5318 15.301 10.821L14.9792 10.5323C15.2378 10.2449 15.6809 10.2211 15.9683 10.4797Z" fill="#8E44F4"/>
</svg>
