<svg width="24" height="24" viewBox="0 0 24 24" fill="none" xmlns="http://www.w3.org/2000/svg">
<path fill-rule="evenodd" clip-rule="evenodd" d="M5.29999 12C5.29999 11.6134 5.61339 11.3 5.99999 11.3H12C12.3866 11.3 12.7 11.6134 12.7 12C12.7 12.3866 12.3866 12.7 12 12.7H5.99999C5.61339 12.7 5.29999 12.3866 5.29999 12Z" fill="#8E44F4"/>
<path fill-rule="evenodd" clip-rule="evenodd" d="M13.4316 10.3506C13.4012 10.7087 13.4 11.2104 13.4 12.0001C13.4 12.7898 13.4012 13.2915 13.4316 13.6495C13.4409 13.7593 13.4519 13.8341 13.4605 13.8819C13.5027 13.8579 13.5672 13.8184 13.6575 13.7553C13.952 13.5495 14.3382 13.2292 14.9448 12.7237C15.3179 12.4128 15.5321 12.2329 15.677 12.0906C15.7157 12.0527 15.741 12.0253 15.7567 12.0073C15.757 12.0025 15.757 11.9977 15.7567 11.9928C15.741 11.9749 15.7157 11.9475 15.677 11.9096C15.5321 11.7673 15.3179 11.5874 14.9448 11.2765C14.3382 10.7709 13.952 10.4507 13.6575 10.2448C13.5672 10.1817 13.5027 10.1423 13.4605 10.1183C13.4519 10.1661 13.4409 10.2409 13.4316 10.3506ZM17.0475 11.4376C16.9063 11.0887 16.5513 10.7928 15.8411 10.201C14.6678 9.22323 14.0811 8.73434 13.5884 8.70525C13.0818 8.67534 12.5944 8.90362 12.2931 9.31195C12 9.70908 12 10.4727 12 12.0001L12 12.0001C12 13.5274 12 14.2911 12.2931 14.6882C12.5944 15.0965 13.0818 15.3248 13.5884 15.2949C14.0811 15.2658 14.6678 14.7769 15.8411 13.7992C16.5513 13.2074 16.9063 12.9115 17.0475 12.5625C17.1934 12.2018 17.1934 11.7984 17.0475 11.4376Z" fill="#8E44F4"/>
<path fill-rule="evenodd" clip-rule="evenodd" d="M11.9645 1.30005H12.0354C13.8747 1.30004 15.3027 1.30004 16.443 1.40339C17.6002 1.50827 18.5295 1.72399 19.35 2.19768C20.3685 2.78573 21.2143 3.63152 21.8024 4.65005C22.276 5.4705 22.4918 6.39985 22.5966 7.55705C22.7 8.69733 22.7 10.1254 22.7 11.9647V12.0354C22.7 13.8747 22.7 15.3028 22.5966 16.443C22.4918 17.6002 22.276 18.5296 21.8024 19.35C21.2143 20.3686 20.3685 21.2144 19.35 21.8024C18.5295 22.2761 17.6002 22.4918 16.443 22.5967C15.3027 22.7001 13.8746 22.7001 12.0354 22.7001H11.9646C10.1253 22.7001 8.69727 22.7001 7.55699 22.5967C6.39979 22.4918 5.47044 22.2761 4.64999 21.8024C3.63146 21.2144 2.78567 20.3686 2.19762 19.35C1.72393 18.5296 1.50821 17.6002 1.40333 16.443C1.29998 15.3028 1.29998 13.8747 1.29999 12.0355V11.9646C1.29998 10.1254 1.29998 8.69732 1.40333 7.55705C1.50821 6.39985 1.72393 5.4705 2.19762 4.65005C2.78567 3.63152 3.63146 2.78573 4.64999 2.19768C5.47044 1.72399 6.39979 1.50827 7.55699 1.40339C8.69726 1.30004 10.1253 1.30004 11.9645 1.30005ZM7.68336 2.79767C6.62326 2.89375 5.92184 3.07995 5.34999 3.41011C4.54429 3.87529 3.87523 4.54435 3.41005 5.35005C3.07989 5.9219 2.89369 6.62332 2.79761 7.68342C2.70066 8.75315 2.69999 10.1179 2.69999 12C2.69999 13.8822 2.70066 15.2469 2.79761 16.3167C2.89369 17.3768 3.07989 18.0782 3.41005 18.65C3.87523 19.4558 4.54429 20.1248 5.34999 20.59C5.92184 20.9201 6.62326 21.1063 7.68336 21.2024C8.75309 21.2994 10.1179 21.3 12 21.3C13.8821 21.3 15.2469 21.2994 16.3166 21.2024C17.3767 21.1063 18.0781 20.9201 18.65 20.59C19.4557 20.1248 20.1248 19.4558 20.5899 18.65C20.9201 18.0782 21.1063 17.3768 21.2024 16.3167C21.2993 15.2469 21.3 13.8822 21.3 12C21.3 10.1179 21.2993 8.75315 21.2024 7.68342C21.1063 6.62332 20.9201 5.9219 20.5899 5.35005C20.1248 4.54435 19.4557 3.87529 18.65 3.41011C18.0781 3.07995 17.3767 2.89375 16.3166 2.79767C15.2469 2.70072 13.8821 2.70005 12 2.70005C10.1179 2.70005 8.75309 2.70072 7.68336 2.79767Z" fill="#222628"/>
</svg>
