<svg width="24" height="24" viewBox="0 0 24 24" fill="none" xmlns="http://www.w3.org/2000/svg">
<path fill-rule="evenodd" clip-rule="evenodd" d="M12 5.30005C12.3866 5.30005 12.7 5.61345 12.7 6.00005L12.7 12C12.7 12.3866 12.3866 12.7 12 12.7C11.6134 12.7 11.3 12.3866 11.3 12L11.3 6.00005C11.3 5.61345 11.6134 5.30005 12 5.30005Z" fill="#8E44F4"/>
<path fill-rule="evenodd" clip-rule="evenodd" d="M13.6495 13.4317C13.2915 13.4013 12.7898 13.4001 12 13.4001C11.2103 13.4001 10.7086 13.4013 10.3506 13.4317C10.2408 13.441 10.166 13.4519 10.1182 13.4605C10.1422 13.5028 10.1817 13.5672 10.2448 13.6575C10.4507 13.952 10.7709 14.3382 11.2765 14.9449C11.5874 15.318 11.7672 15.5321 11.9095 15.6771C11.9475 15.7157 11.9749 15.7411 11.9928 15.7567C11.9976 15.7571 12.0025 15.7571 12.0073 15.7567C12.0252 15.7411 12.0526 15.7157 12.0906 15.6771C12.2328 15.5321 12.4127 15.318 12.7236 14.9449C13.2292 14.3382 13.5494 13.952 13.7553 13.6575C13.8184 13.5672 13.8579 13.5028 13.8818 13.4605C13.8341 13.4519 13.7593 13.441 13.6495 13.4317ZM12.5625 17.0475C12.9114 16.9064 13.2073 16.5513 13.7991 15.8412C14.7769 14.6678 15.2658 14.0812 15.2949 13.5885C15.3248 13.0819 15.0965 12.5945 14.6882 12.2931C14.291 12.0001 13.5274 12.0001 12 12.0001L12 12.0001C10.4727 12.0001 9.70904 12.0001 9.31191 12.2931C8.90358 12.5945 8.6753 13.0819 8.70521 13.5885C8.7343 14.0812 9.22319 14.6678 10.201 15.8412C10.7928 16.5513 11.0887 16.9064 11.4376 17.0475C11.7984 17.1935 12.2017 17.1935 12.5625 17.0475Z" fill="#8E44F4"/>
<path fill-rule="evenodd" clip-rule="evenodd" d="M22.7 11.9646L22.7 12.0355C22.7 13.8747 22.7 15.3028 22.5967 16.443C22.4918 17.6002 22.2761 18.5296 21.8024 19.35C21.2143 20.3686 20.3685 21.2144 19.35 21.8024C18.5296 22.2761 17.6002 22.4918 16.443 22.5967C15.3027 22.7001 13.8747 22.7001 12.0354 22.7L11.9646 22.7C10.1254 22.7001 8.6973 22.7001 7.55702 22.5967C6.39981 22.4918 5.47046 22.2761 4.65001 21.8024C3.63148 21.2144 2.78569 20.3686 2.19764 19.35C1.72395 18.5296 1.50823 17.6002 1.40335 16.443C1.3 15.3028 1.30001 13.8747 1.30001 12.0354L1.30001 11.9647C1.30001 10.1254 1.3 8.69733 1.40335 7.55705C1.50823 6.39985 1.72395 5.4705 2.19764 4.65005C2.78569 3.63152 3.63148 2.78573 4.65001 2.19768C5.47046 1.72399 6.39981 1.50827 7.55702 1.40339C8.69728 1.30004 10.1253 1.30004 11.9646 1.30005L12.0355 1.30005C13.8747 1.30004 15.3027 1.30004 16.443 1.40339C17.6002 1.50827 18.5296 1.72399 19.35 2.19768C20.3685 2.78573 21.2143 3.63152 21.8024 4.65005C22.2761 5.4705 22.4918 6.39985 22.5967 7.55705C22.7 8.69732 22.7 10.1254 22.7 11.9646ZM21.2024 7.68342C21.1063 6.62332 20.9201 5.9219 20.5899 5.35005C20.1248 4.54435 19.4557 3.87529 18.65 3.41011C18.0782 3.07995 17.3767 2.89375 16.3166 2.79767C15.2469 2.70072 13.8821 2.70005 12 2.70005C10.1179 2.70005 8.75311 2.70072 7.68339 2.79767C6.62328 2.89375 5.92187 3.07995 5.35001 3.41011C4.54431 3.87529 3.87525 4.54435 3.41008 5.35005C3.07992 5.9219 2.89371 6.62332 2.79763 7.68342C2.70068 8.75315 2.70001 10.1179 2.70001 12C2.70001 13.8822 2.70068 15.2469 2.79763 16.3167C2.89371 17.3768 3.07992 18.0782 3.41008 18.65C3.87525 19.4558 4.54431 20.1248 5.35001 20.59C5.92187 20.9201 6.62328 21.1063 7.68339 21.2024C8.75311 21.2994 10.1179 21.3 12 21.3C13.8821 21.3 15.2469 21.2994 16.3166 21.2024C17.3767 21.1063 18.0782 20.9201 18.65 20.59C19.4557 20.1248 20.1248 19.4558 20.5899 18.65C20.9201 18.0782 21.1063 17.3768 21.2024 16.3167C21.2993 15.2469 21.3 13.8822 21.3 12C21.3 10.1179 21.2993 8.75315 21.2024 7.68342Z" fill="#222628"/>
</svg>
