<svg width="24" height="24" viewBox="0 0 24 24" fill="none" xmlns="http://www.w3.org/2000/svg">
<path fill-rule="evenodd" clip-rule="evenodd" d="M18.7 12C18.7 12.3866 18.3866 12.7 18 12.7L12 12.7C11.6134 12.7 11.3 12.3866 11.3 12C11.3 11.6134 11.6134 11.3 12 11.3L18 11.3C18.3866 11.3 18.7 11.6134 18.7 12Z" fill="#8E44F4"/>
<path fill-rule="evenodd" clip-rule="evenodd" d="M10.5684 13.6494C10.5988 13.2913 10.6 12.7896 10.6 11.9999C10.6 11.2102 10.5988 10.7085 10.5684 10.3505C10.5591 10.2407 10.5481 10.1659 10.5395 10.1181C10.4973 10.1421 10.4328 10.1816 10.3425 10.2447C10.048 10.4505 9.66184 10.7708 9.05516 11.2763C8.68209 11.5872 8.46793 11.7671 8.32298 11.9094C8.28432 11.9473 8.25901 11.9747 8.24334 11.9927C8.24299 11.9975 8.24299 12.0023 8.24334 12.0072C8.25901 12.0251 8.28432 12.0525 8.32298 12.0904C8.46793 12.2327 8.68209 12.4126 9.05516 12.7235C9.66184 13.2291 10.048 13.5493 10.3425 13.7552C10.4328 13.8183 10.4973 13.8577 10.5395 13.8817C10.5481 13.8339 10.5591 13.7591 10.5684 13.6494ZM6.95253 12.5624C7.09366 12.9113 7.44874 13.2072 8.1589 13.799C9.33223 14.7768 9.91889 15.2657 10.4116 15.2947C10.9182 15.3247 11.4056 15.0964 11.7069 14.688C12 14.2909 12 13.5273 12 11.9999L12 11.9999C12 10.4726 12 9.70892 11.7069 9.31179C11.4056 8.90345 10.9182 8.67518 10.4116 8.70509C9.91889 8.73418 9.33223 9.22306 8.1589 10.2008C7.44874 10.7926 7.09366 11.0885 6.95253 11.4375C6.8066 11.7982 6.8066 12.2016 6.95253 12.5624Z" fill="#8E44F4"/>
<path fill-rule="evenodd" clip-rule="evenodd" d="M12.0355 22.7L11.9646 22.7C10.1253 22.7 8.69728 22.7 7.55702 22.5966C6.39981 22.4917 5.47046 22.276 4.65001 21.8023C3.63148 21.2143 2.78569 20.3685 2.19764 19.35C1.72395 18.5295 1.50823 17.6002 1.40335 16.4429C1.3 15.3027 1.30001 13.8746 1.30001 12.0353L1.30001 11.9646C1.30001 10.1253 1.3 8.69724 1.40335 7.55696C1.50823 6.39975 1.72395 5.4704 2.19764 4.64995C2.78569 3.63142 3.63148 2.78563 4.65001 2.19758C5.47046 1.7239 6.39981 1.50817 7.55702 1.40329C8.69729 1.29994 10.1254 1.29995 11.9646 1.29995L12.0354 1.29995C13.8747 1.29995 15.3027 1.29994 16.443 1.40329C17.6002 1.50817 18.5296 1.72389 19.35 2.19758C20.3685 2.78563 21.2143 3.63142 21.8024 4.64995C22.2761 5.4704 22.4918 6.39975 22.5967 7.55696C22.7 8.69722 22.7 10.1253 22.7 11.9645L22.7 12.0354C22.7 13.8746 22.7 15.3027 22.5967 16.4429C22.4918 17.6002 22.2761 18.5295 21.8024 19.35C21.2143 20.3685 20.3685 21.2143 19.35 21.8023C18.5296 22.276 17.6002 22.4917 16.443 22.5966C15.3027 22.7 13.8747 22.7 12.0355 22.7ZM16.3166 21.2023C17.3767 21.1062 18.0782 20.92 18.65 20.5899C19.4557 20.1247 20.1248 19.4557 20.5899 18.65C20.9201 18.0781 21.1063 17.3767 21.2024 16.3166C21.2993 15.2469 21.3 13.8821 21.3 12C21.3 10.1178 21.2993 8.75305 21.2024 7.68333C21.1063 6.62322 20.9201 5.92181 20.5899 5.34995C20.1248 4.54425 19.4557 3.87519 18.65 3.41002C18.0782 3.07986 17.3767 2.89365 16.3166 2.79757C15.2469 2.70062 13.8821 2.69995 12 2.69995C10.1179 2.69995 8.75311 2.70062 7.68339 2.79757C6.62328 2.89366 5.92187 3.07986 5.35001 3.41002C4.54431 3.87519 3.87525 4.54425 3.41007 5.34995C3.07991 5.92181 2.89371 6.62322 2.79763 7.68333C2.70068 8.75305 2.70001 10.1178 2.70001 12C2.70001 13.8821 2.70068 15.2469 2.79763 16.3166C2.89371 17.3767 3.07992 18.0781 3.41008 18.65C3.87525 19.4557 4.54431 20.1247 5.35001 20.5899C5.92187 20.92 6.62328 21.1062 7.68339 21.2023C8.75311 21.2993 10.1179 21.3 12 21.3C13.8821 21.3 15.2469 21.2993 16.3166 21.2023Z" fill="#222628"/>
</svg>
