<svg width="24" height="24" viewBox="0 0 24 24" fill="none" xmlns="http://www.w3.org/2000/svg">
<path fill-rule="evenodd" clip-rule="evenodd" d="M7.00501 14.4949C6.73165 14.2216 6.73165 13.7784 7.00501 13.505L7.43844 13.9384C7.00502 13.505 7.00497 13.505 7.00501 13.505L7.05109 13.459L7.18007 13.3309C7.29124 13.2207 7.45043 13.0635 7.64295 12.8749C8.02771 12.498 8.54692 11.9945 9.08273 11.4902C9.61675 10.9876 10.1748 10.4771 10.635 10.0895C10.8637 9.89698 11.08 9.72474 11.2633 9.5972C11.354 9.53412 11.4508 9.472 11.546 9.42284C11.6112 9.38918 11.7868 9.29996 12 9.29996C12.2132 9.29996 12.3887 9.38918 12.454 9.42284C12.5492 9.472 12.646 9.53412 12.7366 9.5972C12.92 9.72474 13.1363 9.89698 13.3649 10.0895C13.8252 10.4771 14.3832 10.9876 14.9172 11.4902C15.4531 11.9945 15.9723 12.498 16.357 12.8749C16.5495 13.0635 16.7087 13.2207 16.8199 13.3309L16.9489 13.459L16.9941 13.5041L16.9949 13.5049C16.9949 13.505 16.995 13.505 16.5 14C16.005 14.4949 16.005 14.4949 16.005 14.4949L15.961 14.451L15.8344 14.3253C15.7248 14.2167 15.5676 14.0614 15.3773 13.875C14.9965 13.5019 14.4844 13.0054 13.9577 12.5097C13.4293 12.0123 12.8935 11.5228 12.4632 11.1604C12.2793 11.0056 12.1232 10.8812 12 10.7913C11.8768 10.8812 11.7207 11.0056 11.5368 11.1604C11.1065 11.5228 10.5707 12.0123 10.0422 12.5097C9.51556 13.0054 9.00351 13.5019 8.62265 13.875C8.43236 14.0614 8.27514 14.2167 8.16561 14.3253L8.03898 14.451L7.99557 14.4943C7.99556 14.4943 7.99496 14.4949 7.72496 14.2249L7.99557 14.4943C7.7222 14.7677 7.27838 14.7683 7.00501 14.4949ZM12.1881 10.6669C12.2061 10.6597 12.207 10.6572 12.1881 10.6669C12.1879 10.667 12.1884 10.6668 12.1881 10.6669ZM16.995 14.4949C16.7216 14.7683 16.2784 14.7683 16.005 14.4949L16.5 14L16.9949 13.5049C17.2683 13.7783 17.2683 14.2216 16.995 14.4949Z" fill="#222628"/>
<path fill-rule="evenodd" clip-rule="evenodd" d="M11.3 9.99996C11.3 9.61336 11.6134 9.29996 12 9.29996C12.2132 9.29996 12.3887 9.38918 12.454 9.42284C12.5492 9.472 12.646 9.53413 12.7366 9.5972C12.92 9.72475 13.1363 9.89698 13.3649 10.0895C13.8252 10.4771 14.3832 10.9876 14.9172 11.4902C15.4531 11.9945 15.9723 12.498 16.357 12.8749C16.5495 13.0635 16.7087 13.2207 16.8199 13.3309L16.9489 13.459L16.9949 13.5049C16.9949 13.505 16.995 13.505 16.5 14C16.005 14.4949 16.005 14.4949 16.005 14.4949L15.961 14.451L15.8344 14.3253C15.7248 14.2167 15.5676 14.0614 15.3773 13.875C14.9965 13.5019 14.4844 13.0054 13.9577 12.5097C13.4293 12.0123 12.8935 11.5228 12.4632 11.1604C12.2465 10.9779 12.0683 10.8377 11.9372 10.7465C11.892 10.7151 11.8589 10.694 11.8366 10.6808C11.5288 10.6072 11.3 10.3303 11.3 9.99996ZM16.995 14.4949C16.7216 14.7683 16.2784 14.7683 16.005 14.4949L16.5 14L16.9949 13.5049C17.2683 13.7783 17.2683 14.2216 16.995 14.4949Z" fill="#8E44F4"/>
</svg>
