<svg width="24" height="24" viewBox="0 0 24 24" fill="none" xmlns="http://www.w3.org/2000/svg">
<path fill-rule="evenodd" clip-rule="evenodd" d="M12 6.30005C12.3866 6.30005 12.7 6.61345 12.7 7.00005L12.7 16C12.7 16.3866 12.3866 16.7 12 16.7C11.6134 16.7 11.3 16.3866 11.3 16L11.3 7.00005C11.3 6.61345 11.6134 6.30005 12 6.30005Z" fill="#8E44F4"/>
<path fill-rule="evenodd" clip-rule="evenodd" d="M15.4812 13.6916C15.762 13.9573 15.7742 14.4004 15.5084 14.6812L15.4775 14.7137L15.3916 14.8039C15.3176 14.8813 15.2117 14.9917 15.0836 15.1242C14.8277 15.3887 14.4819 15.7425 14.124 16.0972C13.7681 16.45 13.3925 16.8114 13.0794 17.0875C12.9244 17.2242 12.7725 17.3509 12.6394 17.4471C12.5738 17.4944 12.4983 17.5451 12.4196 17.5869C12.3693 17.6135 12.2064 17.7 12 17.7C11.7936 17.7 11.6312 17.6138 11.5809 17.5871C11.5022 17.5453 11.4262 17.4944 11.3606 17.4471C11.2275 17.3509 11.0756 17.2242 10.9206 17.0875C10.6075 16.8114 10.232 16.45 9.87599 16.0972C9.51817 15.7425 9.1723 15.3887 8.9164 15.1242C8.7883 14.9917 8.68241 14.8813 8.60842 14.8039L8.52251 14.7137L8.49221 14.6818C8.49218 14.6818 8.4916 14.6812 9.00001 14.2L8.49221 14.6818C8.22647 14.401 8.23806 13.9573 8.51884 13.6916C8.79963 13.4259 9.24267 13.438 9.50842 13.7188L9.53721 13.7492L9.62071 13.8368C9.69301 13.9124 9.79688 14.0208 9.92268 14.1508C10.1746 14.4113 10.5131 14.7575 10.8615 15.1028C11.2118 15.45 11.5644 15.7886 11.8466 16.0375C11.9024 16.0867 11.9536 16.1308 12 16.1696C12.0464 16.1308 12.0976 16.0867 12.1534 16.0375C12.4356 15.7886 12.7882 15.45 13.1385 15.1028C13.4869 14.7575 13.8254 14.4113 14.0773 14.1508C14.2031 14.0208 14.307 13.9124 14.3793 13.8368L14.4628 13.7492L14.4912 13.7192C14.4912 13.7192 14.4912 13.7192 14.4912 13.7192M15.4812 13.6916C15.2004 13.4259 14.757 13.4384 14.4912 13.7192L15.4812 13.6916Z" fill="#8E44F4"/>
<path fill-rule="evenodd" clip-rule="evenodd" d="M22.7 11.9646L22.7 12.0355C22.7 13.8747 22.7 15.3028 22.5967 16.443C22.4918 17.6002 22.2761 18.5296 21.8024 19.35C21.2143 20.3686 20.3685 21.2144 19.35 21.8024C18.5296 22.2761 17.6002 22.4918 16.443 22.5967C15.3027 22.7001 13.8747 22.7001 12.0354 22.7L11.9646 22.7C10.1254 22.7001 8.6973 22.7001 7.55702 22.5967C6.39981 22.4918 5.47046 22.2761 4.65001 21.8024C3.63148 21.2144 2.78569 20.3686 2.19764 19.35C1.72395 18.5296 1.50823 17.6002 1.40335 16.443C1.3 15.3028 1.30001 13.8747 1.30001 12.0354L1.30001 11.9647C1.30001 10.1254 1.3 8.69733 1.40335 7.55705C1.50823 6.39985 1.72395 5.4705 2.19764 4.65005C2.78569 3.63152 3.63148 2.78573 4.65001 2.19768C5.47046 1.72399 6.39981 1.50827 7.55702 1.40339C8.69728 1.30004 10.1253 1.30004 11.9646 1.30005L12.0355 1.30005C13.8747 1.30004 15.3027 1.30004 16.443 1.40339C17.6002 1.50827 18.5296 1.72399 19.35 2.19768C20.3685 2.78573 21.2143 3.63152 21.8024 4.65005C22.2761 5.4705 22.4918 6.39985 22.5967 7.55705C22.7 8.69732 22.7 10.1254 22.7 11.9646ZM21.2024 7.68342C21.1063 6.62332 20.9201 5.9219 20.5899 5.35005C20.1248 4.54435 19.4557 3.87529 18.65 3.41011C18.0782 3.07995 17.3767 2.89375 16.3166 2.79767C15.2469 2.70072 13.8821 2.70005 12 2.70005C10.1179 2.70005 8.75311 2.70072 7.68339 2.79767C6.62328 2.89375 5.92187 3.07995 5.35001 3.41011C4.54431 3.87529 3.87525 4.54435 3.41008 5.35005C3.07992 5.9219 2.89371 6.62332 2.79763 7.68342C2.70068 8.75315 2.70001 10.1179 2.70001 12C2.70001 13.8822 2.70068 15.2469 2.79763 16.3167C2.89371 17.3768 3.07992 18.0782 3.41008 18.65C3.87525 19.4558 4.54431 20.1248 5.35001 20.59C5.92187 20.9201 6.62328 21.1063 7.68339 21.2024C8.75311 21.2994 10.1179 21.3 12 21.3C13.8821 21.3 15.2469 21.2994 16.3166 21.2024C17.3767 21.1063 18.0782 20.9201 18.65 20.59C19.4557 20.1248 20.1248 19.4558 20.5899 18.65C20.9201 18.0782 21.1063 17.3768 21.2024 16.3167C21.2993 15.2469 21.3 13.8822 21.3 12C21.3 10.1179 21.2993 8.75315 21.2024 7.68342Z" fill="#222628"/>
</svg>
