<svg width="24" height="24" viewBox="0 0 24 24" fill="none" xmlns="http://www.w3.org/2000/svg">
<path fill-rule="evenodd" clip-rule="evenodd" d="M16.995 9.50507C17.2684 9.77843 17.2684 10.2216 16.995 10.495L16.5616 10.0616C16.995 10.495 16.995 10.495 16.995 10.495L16.9489 10.541L16.8199 10.6691C16.7088 10.7793 16.5496 10.9365 16.357 11.1251C15.9723 11.502 15.4531 12.0055 14.9173 12.5098C14.3832 13.0124 13.8252 13.5229 13.365 13.9105C13.1363 14.103 12.92 14.2753 12.7367 14.4028C12.646 14.4659 12.5492 14.528 12.454 14.5772C12.3888 14.6108 12.2132 14.7 12 14.7C11.7868 14.7 11.6113 14.6108 11.546 14.5772C11.4508 14.528 11.354 14.4659 11.2634 14.4028C11.08 14.2753 10.8637 14.103 10.6351 13.9105C10.1748 13.5229 9.61678 13.0124 9.08276 12.5098C8.54694 12.0055 8.02774 11.502 7.64298 11.1251C7.45046 10.9365 7.29127 10.7793 7.18009 10.6691L7.05111 10.541L7.00589 10.4959L7.00511 10.4951C7.00507 10.495 7.00504 10.495 7.50001 10C7.99499 9.50507 7.99499 9.50507 7.995 9.50508L8.039 9.54896L8.16563 9.67475C8.27516 9.78331 8.43238 9.93858 8.62267 10.125C9.00354 10.4981 9.51558 10.9946 10.0423 11.4903C10.5707 11.9877 11.1065 12.4772 11.5368 12.8396C11.7207 12.9944 11.8768 13.1188 12 13.2087C12.1232 13.1188 12.2793 12.9944 12.4632 12.8396C12.8935 12.4772 13.4293 11.9877 13.9578 11.4903C14.4844 10.9946 14.9965 10.4981 15.3774 10.125C15.5676 9.93858 15.7249 9.78331 15.8344 9.67475L15.961 9.54896L16.0044 9.50567C16.0044 9.50566 16.005 9.50507 16.275 9.77507L16.0044 9.50567C16.2778 9.23231 16.7216 9.2317 16.995 9.50507ZM11.8119 13.3331C11.7939 13.3403 11.793 13.3428 11.8119 13.3331C11.8121 13.333 11.8116 13.3332 11.8119 13.3331ZM7.00504 9.50507C7.27841 9.2317 7.72164 9.23172 7.995 9.50508L7.50001 10L7.00511 10.4951C6.73175 10.2217 6.73167 9.77843 7.00504 9.50507Z" fill="#222628"/>
<path fill-rule="evenodd" clip-rule="evenodd" d="M12.7 14C12.7 14.3866 12.3866 14.7 12 14.7C11.7868 14.7 11.6113 14.6108 11.546 14.5772C11.4508 14.528 11.354 14.4659 11.2634 14.4028C11.08 14.2753 10.8637 14.103 10.6351 13.9105C10.1748 13.5229 9.61678 13.0124 9.08276 12.5098C8.54694 12.0055 8.02774 11.502 7.64298 11.1251C7.45046 10.9365 7.29127 10.7793 7.18009 10.6691L7.05111 10.541L7.00511 10.4951C7.00507 10.495 7.00504 10.495 7.50001 10C7.99499 9.50507 7.99499 9.50507 7.995 9.50508L8.039 9.54896L8.16563 9.67475C8.27516 9.78331 8.43238 9.93858 8.62267 10.125C9.00354 10.4981 9.51558 10.9946 10.0423 11.4903C10.5707 11.9877 11.1065 12.4772 11.5368 12.8396C11.7535 13.0221 11.9317 13.1623 12.0628 13.2535C12.108 13.2849 12.1411 13.306 12.1634 13.3192C12.4712 13.3928 12.7 13.6697 12.7 14ZM7.00504 9.50507C7.2784 9.2317 7.72164 9.23172 7.995 9.50508L7.50001 10L7.00511 10.4951C6.73175 10.2217 6.73167 9.77843 7.00504 9.50507Z" fill="#8E44F4"/>
</svg>
