<svg width="24" height="24" viewBox="0 0 24 24" fill="none" xmlns="http://www.w3.org/2000/svg">
<path fill-rule="evenodd" clip-rule="evenodd" d="M14.495 16.9949C14.2216 17.2683 13.7784 17.2683 13.505 16.9949L13.9385 16.5615C13.505 16.9949 13.5051 16.995 13.505 16.9949L13.4591 16.9489L13.331 16.8199C13.2208 16.7087 13.0636 16.5495 12.875 16.357C12.4981 15.9722 11.9946 15.453 11.4903 14.9172C10.9877 14.3832 10.4772 13.8252 10.0896 13.3649C9.89705 13.1363 9.72481 12.92 9.59726 12.7366C9.53419 12.6459 9.47206 12.5492 9.42291 12.4539C9.38924 12.3887 9.30002 12.2132 9.30002 12C9.30002 11.7867 9.38924 11.6112 9.4229 11.546C9.47206 11.4507 9.53419 11.354 9.59726 11.2633C9.72481 11.0799 9.89704 10.8636 10.0896 10.635C10.4772 10.1747 10.9877 9.61672 11.4903 9.0827C11.9946 8.54688 12.4981 8.02768 12.875 7.64292C13.0636 7.45039 13.2208 7.29121 13.331 7.18003L13.4591 7.05105L13.5042 7.00583L13.505 7.00505C13.505 7.00501 13.505 7.00498 14 7.49995C14.495 7.99493 14.495 7.99493 14.495 7.99494L14.4511 8.03894L14.3253 8.16557C14.2168 8.2751 14.0615 8.43232 13.8751 8.62261C13.502 9.00348 13.0055 9.51552 12.5098 10.0422C12.0124 10.5707 11.5229 11.1064 11.1605 11.5368C11.0056 11.7206 10.8812 11.8768 10.7914 12C10.8812 12.1231 11.0056 12.2793 11.1605 12.4631C11.5229 12.8935 12.0124 13.4292 12.5098 13.9577C13.0055 14.4844 13.502 14.9964 13.8751 15.3773C14.0615 15.5676 14.2168 15.7248 14.3253 15.8343L14.4511 15.961L14.4944 16.0044C14.4944 16.0044 14.495 16.005 14.225 16.275L14.4944 16.0044C14.7678 16.2777 14.7684 16.7216 14.495 16.9949ZM10.667 11.8118C10.6598 11.7938 10.6572 11.7929 10.667 11.8118C10.6671 11.8121 10.6668 11.8116 10.667 11.8118ZM14.495 7.00498C14.7684 7.27834 14.7683 7.72157 14.495 7.99494L14 7.49995L13.505 7.00505C13.7783 6.73169 14.2216 6.73161 14.495 7.00498Z" fill="#222628"/>
<path fill-rule="evenodd" clip-rule="evenodd" d="M10 12.7C9.61342 12.7 9.30002 12.3866 9.30002 12C9.30002 11.7867 9.38924 11.6112 9.42291 11.546C9.47206 11.4507 9.53419 11.354 9.59726 11.2633C9.72481 11.0799 9.89705 10.8636 10.0896 10.635C10.4772 10.1747 10.9877 9.61672 11.4903 9.0827C11.9946 8.54688 12.4981 8.02768 12.875 7.64292C13.0636 7.4504 13.2208 7.29121 13.331 7.18003L13.4591 7.05105L13.505 7.00505C13.505 7.00501 13.505 7.00498 14 7.49995C14.495 7.99493 14.495 7.99493 14.495 7.99494L14.4511 8.03894L14.3253 8.16557C14.2168 8.2751 14.0615 8.43232 13.8751 8.62261C13.502 9.00348 13.0055 9.51552 12.5098 10.0422C12.0124 10.5707 11.5229 11.1064 11.1605 11.5368C10.978 11.7535 10.8377 11.9317 10.7465 12.0628C10.7151 12.1079 10.6941 12.141 10.6808 12.1634C10.6072 12.4711 10.3303 12.7 10 12.7ZM14.495 7.00498C14.7684 7.27834 14.7683 7.72157 14.495 7.99494L14 7.49995L13.505 7.00505C13.7783 6.73169 14.2216 6.73161 14.495 7.00498Z" fill="#8E44F4"/>
</svg>
