<svg width="24" height="24" viewBox="0 0 24 24" fill="none" xmlns="http://www.w3.org/2000/svg">
<path fill-rule="evenodd" clip-rule="evenodd" d="M12 2.80005C12.3866 2.80005 12.7 3.11345 12.7 3.50005L12.7 12.5C12.7 12.8866 12.3866 13.2 12 13.2C11.6134 13.2 11.3 12.8866 11.3 12.5L11.3 3.50005C11.3 3.11345 11.6134 2.80005 12 2.80005Z" fill="#222628"/>
<path fill-rule="evenodd" clip-rule="evenodd" d="M9.97182 15.5561L11.0216 16.7559C11.4613 17.2584 11.7145 17.5445 11.9164 17.7285C11.9506 17.7596 11.9782 17.783 12 17.8004C12.0217 17.783 12.0494 17.7596 12.0835 17.7285C12.2855 17.5445 12.5387 17.2584 12.9783 16.7559L14.0282 15.5561C14.7957 14.679 15.2852 14.1159 15.5804 13.6856C15.6322 13.61 15.6715 13.5476 15.7011 13.497C15.6435 13.486 15.5706 13.4744 15.4797 13.4637C14.9614 13.4024 14.2153 13.4001 13.0498 13.4001L10.9502 13.4001C9.78468 13.4001 9.03859 13.4024 8.5203 13.4637C8.42936 13.4744 8.3565 13.486 8.29887 13.497C8.32854 13.5476 8.36782 13.61 8.41962 13.6856C8.71482 14.1159 9.20434 14.679 9.97182 15.5561ZM11.937 17.8456C11.937 17.8456 11.9375 17.8453 11.9385 17.8447L11.937 17.8456ZM12.2544 19.2004C12.7786 19.1102 13.1964 18.6328 14.032 17.6778L15.0818 16.478C16.5673 14.7803 17.31 13.9314 17.1653 13.2064C17.1203 12.9809 17.024 12.7688 16.884 12.5864C16.4336 12.0001 15.3057 12.0001 13.0498 12.0001L10.9502 12.0001C8.69429 12.0001 7.56635 12.0001 7.11603 12.5864C6.97595 12.7688 6.87969 12.9809 6.83467 13.2064C6.68995 13.9314 7.43271 14.7803 8.91822 16.478L9.96804 17.6778C10.8036 18.6328 11.2214 19.1102 11.7456 19.2004C11.914 19.2294 12.086 19.2294 12.2544 19.2004Z" fill="#8E44F4"/>
</svg>
