<svg width="24" height="24" viewBox="0 0 24 24" fill="none" xmlns="http://www.w3.org/2000/svg">
<path fill-rule="evenodd" clip-rule="evenodd" d="M7.69999 13V19.67C7.69999 20.1486 7.70121 20.4432 7.72628 20.651C7.73445 20.7188 7.74366 20.7612 7.75038 20.7858C7.7754 20.7808 7.81748 20.7701 7.88177 20.7471C8.07881 20.6766 8.3429 20.5459 8.77093 20.3319L10.077 19.6789C10.111 19.6619 10.1445 19.6451 10.1776 19.6285C10.7794 19.327 11.2428 19.0948 11.75 19.0477C11.9163 19.0322 12.0837 19.0322 12.25 19.0477C12.7572 19.0948 13.2206 19.327 13.8224 19.6285C13.8555 19.6451 13.889 19.6619 13.923 19.6789L15.2291 20.3319C15.6571 20.5459 15.9212 20.6766 16.1182 20.7471C16.1825 20.7701 16.2246 20.7808 16.2496 20.7858C16.2563 20.7612 16.2655 20.7188 16.2737 20.651C16.2988 20.4432 16.3 20.1486 16.3 19.67V13H17.7L17.7 19.7104C17.7 20.1358 17.7001 20.5167 17.6636 20.8187C17.6257 21.1328 17.5346 21.5082 17.2301 21.7959C17.0817 21.9361 16.9063 22.0445 16.7145 22.1146C16.321 22.2583 15.9445 22.1718 15.6466 22.0653C15.3602 21.9628 15.0195 21.7924 14.6391 21.6022L13.2969 20.9311C12.5469 20.5561 12.3325 20.4614 12.1204 20.4417C12.0403 20.4342 11.9597 20.4342 11.8796 20.4417C11.6675 20.4614 11.4531 20.5561 10.7031 20.9311L9.3609 21.6022C8.98046 21.7924 8.63978 21.9628 8.35338 22.0653C8.05552 22.1718 7.67895 22.2583 7.28546 22.1146C7.0937 22.0445 6.91825 21.9361 6.76986 21.7959C6.46536 21.5082 6.37425 21.1328 6.33636 20.8187C6.29992 20.5167 6.29995 20.1358 6.29999 19.7104L6.29999 13H7.69999ZM16.24 20.8146C16.24 20.8146 16.2402 20.8141 16.2406 20.8133L16.24 20.8146ZM7.75997 20.8146C7.75996 20.8146 7.75976 20.8142 7.75939 20.8133L7.75997 20.8146Z" fill="#222628"/>
<path fill-rule="evenodd" clip-rule="evenodd" d="M12 14.6C15.0928 14.6 17.6 12.0928 17.6 9C17.6 5.90721 15.0928 3.4 12 3.4C8.90721 3.4 6.4 5.90721 6.4 9C6.4 12.0928 8.90721 14.6 12 14.6ZM12 16C15.866 16 19 12.866 19 9C19 5.13401 15.866 2 12 2C8.13401 2 5 5.13401 5 9C5 12.866 8.13401 16 12 16Z" fill="#222628"/>
<path fill-rule="evenodd" clip-rule="evenodd" d="M11.1327 5.97371C11.5731 5.40916 12.4269 5.40915 12.8673 5.97371L13.5567 6.8574L14.6101 7.23994C15.2831 7.48433 15.547 8.29636 15.1462 8.88967L14.5187 9.81836L14.4805 10.9385C14.456 11.6541 13.7652 12.1559 13.0771 11.9581L12 11.6483L10.9229 11.9581C10.2347 12.1559 9.54399 11.6541 9.51954 10.9385L9.48125 9.81836L8.85384 8.88967C8.45301 8.29636 8.71685 7.48433 9.38987 7.23994L10.4433 6.85739L11.1327 5.97371ZM12 7.13804L11.4941 7.78652C11.367 7.94948 11.1965 8.07333 11.0023 8.14388L10.2292 8.4246L10.6896 9.10611C10.8053 9.27737 10.8704 9.47776 10.8775 9.68432L10.9056 10.5063L11.696 10.279C11.8946 10.2219 12.1054 10.2219 12.304 10.279L13.0944 10.5063L13.1225 9.68432C13.1296 9.47776 13.1947 9.27737 13.3104 9.10611L13.7708 8.4246L12.9977 8.14388C12.8035 8.07333 12.633 7.94948 12.5059 7.78652L12 7.13804Z" fill="#8E44F4"/>
</svg>
