<svg width="24" height="24" viewBox="0 0 24 24" fill="none" xmlns="http://www.w3.org/2000/svg">
<path fill-rule="evenodd" clip-rule="evenodd" d="M15.52 10.3599L14.72 10.9599C14.1096 11.4177 13.7527 11.6883 13.522 11.908C13.483 11.9451 13.4533 11.9756 13.431 11.9999C13.4533 12.0242 13.483 12.0547 13.522 12.0918C13.7527 12.3115 14.1096 12.5821 14.72 13.0399L15.52 13.6399C16.3798 14.2848 16.9228 14.689 17.334 14.9268C17.4053 14.968 17.4638 14.9988 17.5109 15.0218C17.5208 14.9703 17.5313 14.905 17.5411 14.8232C17.5976 14.3516 17.6 13.6747 17.6 12.5999L17.6 11.3999C17.6 10.3251 17.5976 9.64819 17.5411 9.17661C17.5313 9.09485 17.5208 9.02954 17.5109 8.97808C17.4638 9.00104 17.4053 9.03185 17.334 9.07307C16.9228 9.31082 16.3798 9.71505 15.52 10.3599ZM12.0257 12.2765C12.1333 12.8499 12.7155 13.2866 13.88 14.1599L14.68 14.7599C16.3394 16.0045 17.1691 16.6268 17.8598 16.4561C18.0756 16.4028 18.2769 16.3022 18.4491 16.1615C19 15.7113 19 14.6742 19 12.5999L19 11.3999C19 9.32564 19 8.2885 18.4491 7.83836C18.2769 7.69768 18.0756 7.59703 17.8598 7.5437C17.1691 7.37307 16.3394 7.99535 14.68 9.23992L13.88 9.83992C12.7155 10.7133 12.1333 11.1499 12.0257 11.7233C11.9914 11.9061 11.9914 12.0937 12.0257 12.2765Z" fill="#222628"/>
<path fill-rule="evenodd" clip-rule="evenodd" d="M9.52 10.3599L8.72 10.9599C8.10961 11.4177 7.75265 11.6883 7.52195 11.908C7.48298 11.9451 7.45331 11.9756 7.43099 11.9999C7.45331 12.0242 7.48298 12.0547 7.52195 12.0918C7.75265 12.3115 8.10961 12.5821 8.72 13.0399L9.52 13.6399C10.3798 14.2848 10.9228 14.689 11.334 14.9268C11.4053 14.968 11.4638 14.9988 11.5109 15.0218C11.5208 14.9703 11.5313 14.905 11.5411 14.8232C11.5976 14.3516 11.6 13.6747 11.6 12.5999L11.6 11.3999C11.6 10.3251 11.5976 9.64819 11.5411 9.17661C11.5313 9.09485 11.5208 9.02954 11.5109 8.97808C11.4638 9.00104 11.4053 9.03185 11.334 9.07307C10.9228 9.31082 10.3798 9.71505 9.52 10.3599ZM6.02572 12.2765C6.1333 12.8499 6.71553 13.2866 7.88 14.1599L8.68 14.7599C10.3394 16.0045 11.1691 16.6268 11.8598 16.4561C12.0756 16.4028 12.2769 16.3022 12.4491 16.1615C13 15.7113 13 14.6742 13 12.5999L13 11.3999C13 9.32564 13 8.2885 12.4491 7.83836C12.2769 7.69768 12.0756 7.59703 11.8598 7.5437C11.1691 7.37307 10.3394 7.99535 8.68 9.23992L7.88 9.83992C6.71553 10.7133 6.1333 11.1499 6.02572 11.7233C5.99143 11.9061 5.99143 12.0937 6.02572 12.2765Z" fill="#8E44F4"/>
</svg>
