<svg width="24" height="24" viewBox="0 0 24 24" fill="none" xmlns="http://www.w3.org/2000/svg">
<path fill-rule="evenodd" clip-rule="evenodd" d="M9.36667 6.29104C9.36631 6.67734 9.05304 6.99038 8.66666 6.99037C8.28007 6.99037 7.96667 6.67696 7.96667 6.29036L8.66667 6.29037C7.96667 6.29036 7.96667 6.29 7.96668 6.28963L7.96668 6.28882L7.96668 6.28697L7.96671 6.28235L7.96687 6.26949C7.96704 6.25933 7.96734 6.24603 7.96789 6.22978C7.96898 6.19732 7.97107 6.15299 7.97501 6.09846C7.98289 5.98964 7.99829 5.83882 8.02854 5.65971C8.08847 5.30476 8.20964 4.82099 8.45891 4.32889C8.70966 3.83386 9.09632 3.31888 9.68816 2.92941C10.2839 2.53736 11.0461 2.30005 12 2.30005C12.954 2.30005 13.7161 2.53736 14.3119 2.92942C14.9037 3.31888 15.2904 3.83387 15.5411 4.3289C15.7904 4.821 15.9116 5.30477 15.9715 5.65971C16.0018 5.83882 16.0172 5.98964 16.025 6.09846C16.029 6.15299 16.0311 6.19733 16.0322 6.22979C16.0327 6.24603 16.033 6.25933 16.0332 6.26949L16.0333 6.28235L16.0334 6.28698L16.0334 6.28883L16.0334 6.28964C16.0334 6.29001 16.0334 6.29037 15.3334 6.29037L16.0334 6.29037C16.0334 6.67697 15.72 6.99037 15.3334 6.99037C14.9478 6.99037 14.635 6.67858 14.6334 6.29335C14.6334 6.29281 14.6334 6.29227 14.6334 6.29173C14.6334 6.29166 14.6334 6.2916 14.6334 6.29154C14.6334 6.29137 14.6334 6.2912 14.6334 6.29103C14.6334 6.29103 14.6334 6.29103 14.6334 6.29103L14.6334 6.29154V6.29162L14.6334 6.29173L14.6334 6.29257L14.6334 6.29362C14.6334 6.29382 14.6334 6.29373 14.6334 6.29335C14.6334 6.29313 14.6334 6.2928 14.6334 6.29237L14.6329 6.27705C14.6324 6.26131 14.6312 6.23496 14.6287 6.19952C14.6235 6.1284 14.6129 6.02216 14.591 5.8928C14.5468 5.63081 14.4596 5.292 14.2922 4.96152C14.1263 4.63397 13.888 4.32638 13.5423 4.09891C13.2006 3.87403 12.7127 3.70005 12 3.70005C11.2873 3.70005 10.7995 3.87403 10.4578 4.09891C10.1121 4.32638 9.87374 4.63398 9.70782 4.96153C9.54041 5.29201 9.45323 5.63082 9.40899 5.89281C9.38715 6.02217 9.37651 6.1284 9.37136 6.19952C9.3688 6.23496 9.36762 6.26132 9.36709 6.27705L9.36668 6.29238L9.36667 6.29162L9.36667 6.29104ZM9.36668 6.29238L9.36667 6.29257L9.36666 6.29363L9.36666 6.29372C9.36666 6.29365 9.36667 6.2932 9.36668 6.29238Z" fill="#8E44F4"/>
<path fill-rule="evenodd" clip-rule="evenodd" d="M21.3174 15.1432C21.842 18.593 19.1717 21.7001 15.6822 21.7001L8.31777 21.7001C4.82833 21.7001 2.15797 18.593 2.68254 15.1432L3.07501 12.5622L3.4567 10.6347C3.9853 7.96544 6.32697 6.04202 9.04812 6.04202L14.9519 6.04202C17.673 6.04201 20.0147 7.96544 20.5433 10.6347L20.925 12.5622L21.3174 15.1432ZM15.6822 20.3001C18.3146 20.3001 20.3291 17.9561 19.9334 15.3537L19.5456 12.8035L19.17 10.9067C18.7712 8.89302 17.0047 7.44201 14.9519 7.44202L9.04812 7.44202C6.99532 7.44202 5.2288 8.89302 4.83003 10.9067L4.4544 12.8035L4.06663 15.3536C3.6709 17.9561 5.68539 20.3001 8.31777 20.3001L15.6822 20.3001Z" fill="#222628"/>
<path fill-rule="evenodd" clip-rule="evenodd" d="M10.3907 12.8144C10.1156 13.086 9.66951 13.086 9.39437 12.8144L9.27961 12.7011C9.00448 12.4295 9.00448 11.9892 9.27961 11.7176C9.55475 11.446 10.0008 11.446 10.276 11.7176L10.3907 11.8309C10.6659 12.1025 10.6659 12.5428 10.3907 12.8144Z" fill="#8E44F4"/>
<path fill-rule="evenodd" clip-rule="evenodd" d="M13.6093 11.8309C13.8844 11.5593 14.3305 11.5593 14.6056 11.8309L14.7204 11.9441C14.9955 12.2157 14.9955 12.656 14.7204 12.9276C14.4452 13.1992 13.9992 13.1992 13.724 12.9276L13.6093 12.8144C13.3341 12.5428 13.3341 12.1024 13.6093 11.8309Z" fill="#8E44F4"/>
</svg>
