<svg width="24" height="24" viewBox="0 0 24 24" fill="none" xmlns="http://www.w3.org/2000/svg">
<path d="M11 22C9.13077 22 8.19615 22 7.5 21.5981C7.04394 21.3348 6.66523 20.9561 6.40192 20.5C6 19.8038 6 18.8692 6 17C6 15.1308 6 14.1962 6.40192 13.5C6.66523 13.0439 7.04394 12.6652 7.5 12.4019C8.19615 12 9.13077 12 11 12L12 12C13.8692 12 14.8038 12 15.5 12.4019C15.9561 12.6652 16.3348 13.0439 16.5981 13.5C17 14.1962 17 15.1308 17 17C17 18.8692 17 19.8038 16.5981 20.5C16.3348 20.9561 15.9561 21.3348 15.5 21.5981C14.8038 22 13.8692 22 12 22L11 22Z" fill="#8E44F4"/>
<path fill-rule="evenodd" clip-rule="evenodd" d="M7.4 8.4L7.4 16.6C7.4 17.7561 7.40192 18.5107 7.46347 19.0788C7.52219 19.6208 7.62139 19.8246 7.70557 19.9405C7.80426 20.0763 7.92371 20.1957 8.05954 20.2944C8.17541 20.3786 8.37924 20.4778 8.92115 20.5365C9.48927 20.5981 10.2439 20.6 11.4 20.6L11.6 20.6C12.7561 20.6 13.5107 20.5981 14.0788 20.5365C14.6208 20.4778 14.8246 20.3786 14.9405 20.2944C15.0763 20.1957 15.1957 20.0763 15.2944 19.9405C15.3786 19.8246 15.4778 19.6208 15.5365 19.0788C15.5981 18.5107 15.6 17.7561 15.6 16.6L15.6 8.4C15.6 7.24389 15.5981 6.48927 15.5365 5.92115C15.4778 5.37924 15.3786 5.17541 15.2944 5.05954C15.1957 4.92371 15.0763 4.80426 14.9405 4.70557C14.8246 4.62139 14.6208 4.52219 14.0788 4.46347C13.5107 4.40192 12.7561 4.4 11.6 4.4L11.4 4.4C10.2439 4.4 9.48927 4.40192 8.92115 4.46347C8.37924 4.52219 8.17541 4.62139 8.05954 4.70557C7.92371 4.80426 7.80426 4.92371 7.70557 5.05954C7.62139 5.17541 7.52219 5.37924 7.46347 5.92115C7.40192 6.48927 7.4 7.24389 7.4 8.4ZM7.23664 21.4271C8.02524 22 9.15016 22 11.4 22L11.6 22C13.8498 22 14.9748 22 15.7634 21.4271C16.018 21.242 16.242 21.018 16.4271 20.7634C17 19.9748 17 18.8498 17 16.6L17 8.4C17 6.15016 17 5.02524 16.4271 4.23664C16.242 3.98196 16.018 3.75799 15.7634 3.57295C14.9748 3 13.8498 3 11.6 3L11.4 3C9.15016 3 8.02524 3 7.23664 3.57295C6.98196 3.75799 6.75799 3.98196 6.57295 4.23664C6 5.02524 6 6.15016 6 8.4L6 16.6C6 18.8498 6 19.9748 6.57295 20.7634C6.75799 21.018 6.98196 21.242 7.23664 21.4271Z" fill="#222628"/>
<path fill-rule="evenodd" clip-rule="evenodd" d="M10.6439 3.98463C10.7212 4 10.8141 4 11 4L12 4C12.1859 4 12.2788 4 12.3561 3.98463C12.6734 3.9215 12.9215 3.67342 12.9846 3.35607C13 3.27879 13 3.18586 13 3C13 2.81414 13 2.72121 12.9846 2.64393C12.9215 2.32658 12.6734 2.0785 12.3561 2.01537C12.2788 2 12.1859 2 12 2L11 2C10.8141 2 10.7212 2 10.6439 2.01537C10.3266 2.0785 10.0785 2.32658 10.0154 2.64393C10 2.72121 10 2.81414 10 3C10 3.18586 10 3.27879 10.0154 3.35607C10.0785 3.67342 10.3266 3.9215 10.6439 3.98463Z" fill="#222628"/>
</svg>
