<svg width="24" height="24" viewBox="0 0 24 24" fill="none" xmlns="http://www.w3.org/2000/svg">
<path fill-rule="evenodd" clip-rule="evenodd" d="M9.67744 18.8239C9.58098 18.4527 9.20312 18.2278 8.8302 18.321C8.45514 18.4148 8.22711 18.7948 8.32087 19.1699L8.99997 19.0001C8.32087 19.1699 8.32097 19.1703 8.32107 19.1707L8.32129 19.1715L8.32176 19.1734L8.32285 19.1776L8.32571 19.1884C8.32791 19.1965 8.33072 19.2066 8.3342 19.2186C8.34114 19.2424 8.35075 19.2735 8.36345 19.3109C8.38881 19.3857 8.42676 19.4863 8.48081 19.6043C8.5884 19.839 8.7632 20.1497 9.03567 20.461C9.59659 21.1021 10.5341 21.7001 12 21.7001C13.4658 21.7001 14.4033 21.1021 14.9643 20.461C15.2367 20.1497 15.4115 19.839 15.5191 19.6043C15.5732 19.4863 15.6111 19.3857 15.6365 19.3109C15.6492 19.2735 15.6588 19.2424 15.6657 19.2186C15.6692 19.2066 15.672 19.1965 15.6742 19.1884L15.6771 19.1776L15.6782 19.1734L15.6787 19.1715L15.6789 19.1707C15.679 19.1703 15.6791 19.1699 15 19.0001L15.6791 19.1699C15.7728 18.7948 15.5448 18.4148 15.1697 18.321C14.7968 18.2278 14.419 18.4527 14.3225 18.8239C14.3223 18.8245 14.3221 18.8254 14.3217 18.8266C14.3201 18.832 14.3166 18.8439 14.3107 18.8611C14.299 18.8958 14.2783 18.9514 14.2464 19.0209C14.1822 19.1612 14.0757 19.3505 13.9107 19.5391C13.5966 19.8981 13.0341 20.3001 12 20.3001C10.9658 20.3001 10.4033 19.8981 10.0893 19.5391C9.92424 19.3505 9.81779 19.1612 9.7535 19.0209C9.72162 18.9514 9.70098 18.8958 9.68922 18.8611C9.68337 18.8439 9.6798 18.832 9.6782 18.8266C9.67786 18.8254 9.67761 18.8245 9.67745 18.8239C9.67744 18.8239 9.67744 18.8239 9.67744 18.8239Z" fill="#8E44F4"/>
<path fill-rule="evenodd" clip-rule="evenodd" d="M12 0.300049C12.3866 0.300049 12.7 0.613449 12.7 1.00005V2.00005C12.7 2.38665 12.3866 2.70005 12 2.70005C11.6134 2.70005 11.3 2.38665 11.3 2.00005V1.00005C11.3 0.613449 11.6134 0.300049 12 0.300049Z" fill="#8E44F4"/>
<path fill-rule="evenodd" clip-rule="evenodd" d="M5.52641 5.39054C6.6639 3.16024 8.67303 1.30005 12 1.30005C15.3269 1.30005 17.3361 3.16024 18.4736 5.39054C19.5077 7.41818 19.8488 9.78468 19.8945 11.4715C19.8991 11.474 19.9037 11.4765 19.9083 11.479C19.9818 11.519 20.0656 11.5647 20.1707 11.6258C20.4074 11.7635 20.6843 11.9476 20.9331 12.2399C21.4413 12.8371 21.7 13.7235 21.7 15.1613C21.7 16.94 20.4849 18.0906 18.77 18.7609C17.0696 19.4256 14.7153 19.7001 12 19.7001C9.32014 19.7001 6.95909 19.5677 5.25542 18.9758C4.39157 18.6757 3.64285 18.24 3.11063 17.5946C2.56869 16.9375 2.29999 16.122 2.29999 15.1613C2.29999 14.0263 2.58424 13.197 3.02592 12.564C3.35616 12.0907 3.7557 11.7572 4.10464 11.5036C4.14683 9.81479 4.4857 7.43108 5.52641 5.39054ZM6.77357 6.02661C5.79225 7.9507 5.49999 10.2962 5.49999 11.871C5.49999 12.1019 5.38617 12.3179 5.19577 12.4484C4.79612 12.7223 4.44389 12.9784 4.17405 13.3651C3.91573 13.7353 3.69999 14.277 3.69999 15.1613C3.69999 15.8458 3.88468 16.3328 4.19071 16.7039C4.50648 17.0868 5.00035 17.4051 5.71488 17.6533C7.16798 18.1582 9.30693 18.3001 12 18.3001C14.6585 18.3001 16.8043 18.0261 18.2603 17.457C19.702 16.8934 20.3 16.1246 20.3 15.1613C20.3 13.8572 20.0587 13.3726 19.8669 13.1473C19.7656 13.0283 19.6426 12.9382 19.4668 12.836C19.4273 12.813 19.376 12.7848 19.3177 12.7527C19.1659 12.6693 18.9666 12.5597 18.8042 12.4484C18.6138 12.3179 18.5 12.1019 18.5 11.871C18.5 10.2962 18.2077 7.9507 17.2264 6.02661C16.2639 4.1394 14.673 2.70005 12 2.70005C9.32694 2.70005 7.73608 4.1394 6.77357 6.02661Z" fill="#222628"/>
</svg>
