<svg width="24" height="24" viewBox="0 0 24 24" fill="none" xmlns="http://www.w3.org/2000/svg">
<path fill-rule="evenodd" clip-rule="evenodd" d="M9.69344 19.9044C9.6413 19.5255 9.29405 19.2579 8.91345 19.3054C8.52982 19.3532 8.25757 19.7029 8.30537 20.0866L9 20C8.30537 20.0866 8.30543 20.087 8.30549 20.0875L8.30562 20.0885L8.30589 20.0906L8.30653 20.0955L8.30822 20.1074C8.30953 20.1164 8.31124 20.1273 8.31342 20.1401C8.31778 20.1656 8.32404 20.1987 8.33284 20.2382C8.35041 20.317 8.37834 20.4226 8.42201 20.546C8.50901 20.7919 8.66131 21.1166 8.92512 21.4413C9.47416 22.1173 10.4301 22.7 12 22.7C13.5699 22.7 14.5258 22.1173 15.0749 21.4413C15.3387 21.1166 15.491 20.7919 15.578 20.546C15.6217 20.4226 15.6496 20.317 15.6672 20.2382C15.676 20.1987 15.6822 20.1656 15.6866 20.1401C15.6888 20.1273 15.6905 20.1164 15.6918 20.1074L15.6935 20.0955L15.6941 20.0906L15.6944 20.0885L15.6945 20.0875C15.6946 20.087 15.6946 20.0866 15 20L15.6946 20.0866C15.7424 19.7029 15.4702 19.3532 15.0866 19.3054C14.7059 19.2579 14.3587 19.5255 14.3066 19.9044C14.3065 19.9045 14.3065 19.9047 14.3065 19.9048C14.3058 19.9086 14.3041 19.9185 14.3007 19.9337C14.2939 19.9642 14.2808 20.0149 14.2582 20.079C14.2125 20.2081 14.1306 20.3834 13.9882 20.5587C13.725 20.8827 13.1809 21.3 12 21.3C10.8191 21.3 10.275 20.8827 10.0118 20.5587C9.86944 20.3834 9.78752 20.2081 9.74183 20.079C9.71915 20.0149 9.70613 19.9642 9.69932 19.9337C9.69594 19.9185 9.69416 19.9086 9.69352 19.9048" fill="#8E44F4"/>
<path fill-rule="evenodd" clip-rule="evenodd" d="M7.75019 2.57848C8.84263 1.77764 10.241 1.30005 12 1.30005C13.759 1.30005 15.1573 1.77764 16.2498 2.57848C17.3349 3.37396 18.0741 4.45568 18.578 5.59904C19.5773 7.86636 19.7 10.4899 19.7 12C19.7 12.8349 19.8929 13.2206 20.1207 13.6763L20.1261 13.687C20.3959 14.2266 20.7 14.8414 20.7 16C20.7 17.2757 20.0368 18.4902 18.5985 19.3508C17.1916 20.1924 15.0473 20.7001 12 20.7001C8.94664 20.7001 6.80255 20.163 5.39715 19.307C3.96985 18.4376 3.29999 17.2281 3.29999 16C3.29999 14.9231 3.51988 14.3885 3.76133 13.8525C3.76904 13.8354 3.77677 13.8183 3.78452 13.8011C3.97882 13.371 4.18204 12.9211 4.30002 11.9578C4.30234 10.4413 4.4319 7.84536 5.42194 5.59904C5.92587 4.45568 6.66506 3.37396 7.75019 2.57848ZM6.70303 6.16367C5.82734 8.15054 5.69999 10.527 5.69999 12C5.69999 12.0275 5.69837 12.055 5.69514 12.0823C5.55278 13.2858 5.28105 13.8882 5.05509 14.3892C5.04928 14.4021 5.04351 14.4149 5.03777 14.4276C4.84618 14.8529 4.69999 15.1861 4.69999 16C4.69999 16.6629 5.04519 17.4534 6.12541 18.1113C7.22754 18.7826 9.08344 19.3 12 19.3C14.9236 19.3 16.7793 18.8077 17.8797 18.1493C18.9486 17.5099 19.3 16.7244 19.3 16C19.3 15.1652 19.1071 14.7795 18.8793 14.3238L18.8739 14.3131C18.6041 13.7735 18.3 13.1587 18.3 12C18.3 10.527 18.1726 8.15054 17.2969 6.16367C16.8634 5.17992 16.2588 4.32099 15.4221 3.70759C14.5926 3.09956 13.491 2.70005 12 2.70005C10.509 2.70005 9.40734 3.09956 8.57791 3.70759C7.74116 4.32099 7.13661 5.17992 6.70303 6.16367Z" fill="#222628"/>
</svg>
