<svg width="24" height="24" viewBox="0 0 24 24" fill="none" xmlns="http://www.w3.org/2000/svg">
<path fill-rule="evenodd" clip-rule="evenodd" d="M11.8465 2.29994C11.8971 2.29995 11.9482 2.29995 12 2.29995C12.0518 2.29995 12.103 2.29995 12.1535 2.29994C13.8679 2.2997 14.9016 2.29956 15.7614 2.57893C17.4967 3.14276 18.8572 4.50326 19.421 6.23856C19.7004 7.09838 19.7003 8.13202 19.7 9.84644C19.7 9.89701 19.7 9.94818 19.7 9.99995V13.9644C19.7 15.592 19.7 16.8645 19.6141 17.7955C19.5706 18.2669 19.5023 18.689 19.3851 19.0453C19.2675 19.403 19.0845 19.7444 18.7786 19.9935C18.2689 20.4086 17.6162 20.6062 16.9619 20.5436C16.5691 20.506 16.2275 20.3234 15.9313 20.0911C15.6361 19.8596 15.3451 19.5463 15.0474 19.1782C14.4595 18.4512 13.7537 17.3924 12.8508 16.0381L12.8279 16.0038C12.5607 15.603 12.3903 15.3489 12.2475 15.1769C12.1467 15.0552 12.0964 15.0216 12.0849 15.015C12.0295 14.9986 11.9706 14.9986 11.9152 15.015C11.9036 15.0216 11.8534 15.0552 11.7525 15.1769C11.6098 15.3489 11.4393 15.603 11.1721 16.0038L11.1492 16.0381C10.2464 17.3924 9.54049 18.4512 8.9526 19.1782C8.65493 19.5463 8.36391 19.8596 8.06878 20.0911C7.77256 20.3234 7.43089 20.506 7.03814 20.5436C6.38381 20.6062 5.73115 20.4086 5.22144 19.9935C4.9155 19.7444 4.73249 19.403 4.61491 19.0453C4.49776 18.689 4.4294 18.2669 4.3859 17.7955C4.3 16.8645 4.30001 15.592 4.30002 13.9643L4.30002 9.99995C4.30002 9.94818 4.30001 9.89702 4.3 9.84644C4.29976 8.13202 4.29962 7.09838 4.57899 6.23856C5.14283 4.50326 6.50332 3.14276 8.23862 2.57893C9.09844 2.29956 10.1321 2.2997 11.8465 2.29994ZM12.0822 15.0136C12.0822 15.0136 12.0828 15.0138 12.0838 15.0144L12.0822 15.0136ZM12 3.69995C10.0843 3.69995 9.29238 3.70859 8.67124 3.91041C7.36216 4.33576 6.33582 5.3621 5.91047 6.67118C5.70865 7.29232 5.70002 8.08419 5.70002 9.99995V13.9231C5.70002 15.6006 5.70075 16.8082 5.77998 17.6669C5.81942 18.0942 5.87544 18.3969 5.94488 18.6081C6.01389 18.818 6.07967 18.8869 6.10544 18.9079C6.32971 19.0906 6.61688 19.1775 6.90479 19.15C6.93788 19.1468 7.03085 19.1259 7.20471 18.9895C7.37965 18.8523 7.59413 18.6316 7.86401 18.2979C8.40626 17.6273 9.0767 16.623 10.0072 15.2272L10.027 15.1975C10.2685 14.8352 10.4796 14.5185 10.675 14.283C10.8776 14.0388 11.1344 13.7909 11.4981 13.6785C11.8251 13.5775 12.175 13.5775 12.502 13.6785C12.8656 13.7909 13.1224 14.0388 13.3251 14.283C13.5204 14.5185 13.7315 14.8352 13.973 15.1975L13.9928 15.2272C14.9233 16.623 15.5938 17.6273 16.136 18.2979C16.4059 18.6316 16.6204 18.8523 16.7953 18.9895C16.9692 19.1259 17.0622 19.1468 17.0952 19.15C17.3831 19.1775 17.6703 19.0906 17.8946 18.9079C17.9204 18.8869 17.9861 18.818 18.0551 18.6081C18.1246 18.3969 18.1806 18.0942 18.22 17.6669C18.2993 16.8082 18.3 15.6006 18.3 13.9231V9.99995C18.3 8.08419 18.2914 7.29232 18.0896 6.67118C17.6642 5.3621 16.6379 4.33576 15.3288 3.91041C14.7076 3.70859 13.9158 3.69995 12 3.69995Z" fill="#222628"/>
<path fill-rule="evenodd" clip-rule="evenodd" d="M9.29999 2.99993C9.29999 2.61333 9.61339 2.29993 9.99999 2.29993H14C14.3866 2.29993 14.7 2.61333 14.7 2.99993C14.7 3.38653 14.3866 3.69993 14 3.69993H9.99999C9.61339 3.69993 9.29999 3.38653 9.29999 2.99993Z" fill="#8E44F4"/>
</svg>
