<svg width="24" height="24" viewBox="0 0 24 24" fill="none" xmlns="http://www.w3.org/2000/svg">
<path fill-rule="evenodd" clip-rule="evenodd" d="M10.9736 3.30005H13.0264C14.4019 3.30005 15.47 3.30004 16.3306 3.35876C17.203 3.41828 17.9131 3.54048 18.564 3.81006C20.2057 4.49007 21.51 5.79438 22.19 7.43607C22.4596 8.08689 22.5818 8.79708 22.6413 9.66946C22.7 10.5301 22.7 11.5982 22.7 12.9738V13.0263C22.7 14.4019 22.7 15.47 22.6413 16.3306C22.5818 17.203 22.4596 17.9132 22.19 18.564C21.51 20.2057 20.2057 21.51 18.564 22.19C17.9131 22.4596 17.203 22.5818 16.3306 22.6413C15.47 22.7001 14.4018 22.7001 13.0263 22.7001H10.9737C9.59815 22.7001 8.53002 22.7001 7.6694 22.6413C6.79702 22.5818 6.08683 22.4596 5.43601 22.19C3.79432 21.51 2.49 20.2057 1.81 18.564C1.54042 17.9132 1.41822 17.203 1.3587 16.3306C1.29998 15.47 1.29999 14.4019 1.29999 13.0264V12.9737C1.29999 11.5982 1.29998 10.5301 1.3587 9.66946C1.41822 8.79708 1.54042 8.08689 1.81 7.43607C2.49 5.79438 3.79432 4.49007 5.43601 3.81006C6.08683 3.54048 6.79702 3.41828 7.6694 3.35876C8.53 3.30004 9.5981 3.30005 10.9736 3.30005ZM7.7647 4.75552C6.9636 4.81017 6.42357 4.91634 5.97177 5.10349C4.67312 5.64141 3.64134 6.67318 3.10343 7.97183C2.91628 8.42363 2.81011 8.96366 2.75545 9.76476C2.70037 10.5722 2.69999 11.5926 2.69999 13C2.69999 14.4075 2.70037 15.4279 2.75545 16.2353C2.81011 17.0364 2.91628 17.5765 3.10343 18.0283C3.64134 19.3269 4.67312 20.3587 5.97177 20.8966C6.42357 21.0838 6.9636 21.1899 7.7647 21.2446C8.57209 21.2997 9.59258 21.3 11 21.3H13C14.4074 21.3 15.4279 21.2997 16.2353 21.2446C17.0364 21.1899 17.5764 21.0838 18.0282 20.8966C19.3269 20.3587 20.3586 19.3269 20.8965 18.0283C21.0837 17.5765 21.1899 17.0364 21.2445 16.2353C21.2996 15.4279 21.3 14.4075 21.3 13C21.3 11.5926 21.2996 10.5722 21.2445 9.76476C21.1899 8.96366 21.0837 8.42363 20.8965 7.97183C20.3586 6.67318 19.3269 5.64141 18.0282 5.10349C17.5764 4.91634 17.0364 4.81017 16.2353 4.75552C15.4279 4.70043 14.4074 4.70005 13 4.70005H11C9.59258 4.70005 8.57209 4.70043 7.7647 4.75552Z" fill="#222628"/>
<path fill-rule="evenodd" clip-rule="evenodd" d="M5.29999 13C5.29999 12.6134 5.61339 12.3 5.99999 12.3H6.49999C6.88659 12.3 7.19999 12.6134 7.19999 13C7.19999 13.3866 6.88659 13.7 6.49999 13.7H5.99999C5.61339 13.7 5.29999 13.3866 5.29999 13Z" fill="#8E44F4"/>
<path fill-rule="evenodd" clip-rule="evenodd" d="M10.8 13C10.8 12.6134 11.1134 12.3 11.5 12.3H12C12.3866 12.3 12.7 12.6134 12.7 13C12.7 13.3866 12.3866 13.7 12 13.7H11.5C11.1134 13.7 10.8 13.3866 10.8 13Z" fill="#8E44F4"/>
<path fill-rule="evenodd" clip-rule="evenodd" d="M16.3 13C16.3 12.6134 16.6134 12.3 17 12.3H17.5C17.8866 12.3 18.2 12.6134 18.2 13C18.2 13.3866 17.8866 13.7 17.5 13.7H17C16.6134 13.7 16.3 13.3866 16.3 13Z" fill="#8E44F4"/>
<path fill-rule="evenodd" clip-rule="evenodd" d="M5.29999 18C5.29999 17.6134 5.61339 17.3 5.99999 17.3H6.49999C6.88659 17.3 7.19999 17.6134 7.19999 18C7.19999 18.3866 6.88659 18.7 6.49999 18.7H5.99999C5.61339 18.7 5.29999 18.3866 5.29999 18Z" fill="#8E44F4"/>
<path fill-rule="evenodd" clip-rule="evenodd" d="M10.8 18C10.8 17.6134 11.1134 17.3 11.5 17.3H12C12.3866 17.3 12.7 17.6134 12.7 18C12.7 18.3866 12.3866 18.7 12 18.7H11.5C11.1134 18.7 10.8 18.3866 10.8 18Z" fill="#8E44F4"/>
<path fill-rule="evenodd" clip-rule="evenodd" d="M21.9743 15.3L22 15.3L22 16.7C21.0585 16.7 20.3875 16.7004 19.859 16.7365C19.3368 16.7721 19.0052 16.8402 18.7371 16.9512C17.9286 17.2862 17.2861 17.9286 16.9512 18.7372C16.8402 19.0052 16.7721 19.3369 16.7364 19.8591C16.7004 20.3875 16.7 21.0586 16.7 22L15.3 22L15.3 21.9744C15.3 21.0642 15.3 20.3455 15.3397 19.7638C15.3802 19.1703 15.4643 18.6685 15.6578 18.2014C16.1348 17.0498 17.0498 16.1348 18.2014 15.6578C18.6684 15.4644 19.1703 15.3802 19.7637 15.3397C20.3454 15.3 21.0642 15.3 21.9743 15.3Z" fill="#222628"/>
<path fill-rule="evenodd" clip-rule="evenodd" d="M2.29999 9.00005C2.29999 8.61345 2.61339 8.30005 2.99999 8.30005L21 8.30005C21.3866 8.30005 21.7 8.61345 21.7 9.00005C21.7 9.38665 21.3866 9.70005 21 9.70005L2.99999 9.70005C2.61339 9.70005 2.29999 9.38665 2.29999 9.00005Z" fill="#222628"/>
<path fill-rule="evenodd" clip-rule="evenodd" d="M16.7 2C17.0866 2 17.4 2.3134 17.4 2.7V5.3C17.4 5.6866 17.0866 6 16.7 6C16.3134 6 16 5.6866 16 5.3V2.7C16 2.3134 16.3134 2 16.7 2Z" fill="#222628"/>
<path fill-rule="evenodd" clip-rule="evenodd" d="M7.69996 2C8.08656 2 8.39996 2.3134 8.39996 2.7V5.3C8.39996 5.6866 8.08656 6 7.69996 6C7.31336 6 6.99996 5.6866 6.99996 5.3V2.7C6.99996 2.3134 7.31336 2 7.69996 2Z" fill="#222628"/>
</svg>
