<svg width="24" height="24" viewBox="0 0 24 24" fill="none" xmlns="http://www.w3.org/2000/svg">
<path fill-rule="evenodd" clip-rule="evenodd" d="M5.16125 2.61567C5.54609 2.42987 5.95849 2.30005 6.31156 2.30005C6.54424 2.30005 6.76561 2.37347 6.93813 2.44748C7.12269 2.52666 7.31401 2.63426 7.50257 2.75692C7.88037 3.0027 8.29216 3.33848 8.68206 3.72002C9.43517 4.45698 10.2343 5.49023 10.4467 6.50334C10.5369 6.93361 10.4433 7.37083 10.2096 7.7243C10.0662 7.94115 9.88276 8.17098 9.70987 8.38489C9.685 8.41566 9.66022 8.44626 9.63555 8.47671C9.48113 8.66738 9.33111 8.8526 9.19168 9.04052C9.03003 9.25838 8.90071 9.45624 8.81334 9.63382C8.72405 9.81532 8.69997 9.93313 8.69997 10C8.69997 10.3143 8.89163 10.9357 9.31722 11.7099C9.72678 12.4549 10.2981 13.2418 10.9346 13.8704C11.6055 14.5331 12.1995 15.0254 12.7264 15.3488C13.2179 15.6505 13.6116 15.7809 13.928 15.7981C13.9428 15.7857 13.9629 15.7678 13.9887 15.7424C14.0478 15.6842 14.1127 15.6117 14.2018 15.5112L14.2137 15.4977C14.2954 15.4056 14.3931 15.2953 14.5011 15.1839C14.9765 14.6934 15.6916 14.1422 16.8689 14.1422C17.7891 14.1422 18.729 14.628 19.4712 15.27C20.225 15.9219 20.875 16.8191 21.1702 17.7979C21.421 18.6296 21.0128 19.3378 20.5306 19.827C20.045 20.3196 19.3653 20.7254 18.7049 21.0387C17.5936 21.5661 16.3585 21.751 15.1563 21.6354C13.0179 21.4296 10.0389 20.5801 6.51856 17.2451C6.507 17.2341 6.49582 17.2228 6.48504 17.2111C4.48674 15.041 3.40022 13.205 2.83638 11.5259C2.2716 9.84393 2.25014 8.37239 2.30043 6.98848C2.35764 5.41411 3.08834 4.24419 3.91145 3.47812C4.32099 3.09696 4.7588 2.80996 5.16125 2.61567ZM4.86526 4.50294C4.2601 5.06616 3.74079 5.90316 3.69951 7.03932C3.6513 8.36594 3.67909 9.63747 4.16356 11.0802C4.64758 12.5216 5.60623 14.1864 7.49872 16.2451C10.7798 19.3471 13.4591 20.0656 15.2904 20.2418C16.2635 20.3354 17.2418 20.1834 18.1047 19.7739C18.7035 19.4898 19.2146 19.1677 19.5335 18.8442C19.8558 18.5172 19.8657 18.3211 19.8298 18.2022C19.625 17.5231 19.1479 16.8414 18.5554 16.3288C17.9513 15.8063 17.3256 15.5422 16.8689 15.5422C16.2101 15.5422 15.8344 15.8199 15.5063 16.1583C15.4206 16.2467 15.3414 16.3361 15.2555 16.4331L15.2496 16.4397C15.1666 16.5334 15.0698 16.6426 14.9713 16.7396C14.7934 16.915 14.4677 17.2 14 17.2C13.3184 17.2 12.6457 16.942 11.994 16.542C11.3397 16.1404 10.6599 15.5669 9.95078 14.8665C9.20721 14.1321 8.55715 13.2334 8.09037 12.3843C7.63962 11.5643 7.29997 10.683 7.29997 10C7.29997 9.6364 7.418 9.29861 7.55715 9.01578C7.69822 8.72904 7.88368 8.45386 8.06737 8.2063C8.22601 7.99249 8.39684 7.78165 8.55008 7.59251C8.57421 7.56274 8.5979 7.53349 8.62104 7.50486C8.7988 7.28493 8.9408 7.10485 9.04181 6.95209C9.0781 6.89721 9.08674 6.83946 9.07649 6.79059C8.95168 6.19522 8.40227 5.40502 7.7029 4.72064C7.36655 4.3915 7.02612 4.11715 6.73913 3.93045C6.5953 3.83688 6.47608 3.77266 6.38616 3.73408C6.33621 3.71265 6.30663 3.70405 6.29467 3.70085C6.22464 3.70664 6.0409 3.7456 5.76993 3.87642C5.49075 4.01121 5.16986 4.21945 4.86526 4.50294Z" fill="#222628"/>
<path fill-rule="evenodd" clip-rule="evenodd" d="M14.0947 6.69857C14.1004 6.69796 14.1113 6.69701 14.1288 6.69577C14.1637 6.69327 14.2207 6.69044 14.2961 6.69086C14.4473 6.69169 14.6692 6.70557 14.9333 6.75979C15.4584 6.86757 16.1489 7.13383 16.7964 7.78132C17.4439 8.42882 17.7101 9.11935 17.8179 9.6444C17.8721 9.90852 17.886 10.1304 17.8869 10.2817C17.8873 10.357 17.8844 10.414 17.8819 10.4489C17.8807 10.4664 17.8795 10.4782 17.8789 10.484C17.879 10.4836 17.8792 10.4824 18.5727 10.5777L17.8792 10.4824C17.879 10.4841 17.8788 10.4857 17.8786 10.4873C17.8786 10.4873 17.8786 10.4873 17.8786 10.4873C17.8289 10.8684 18.096 11.2188 18.4774 11.2712C18.8604 11.3239 19.2135 11.0561 19.2662 10.6731L18.5969 10.5811C19.2662 10.673 19.2661 10.6734 19.2662 10.6731L19.2666 10.6701L19.2671 10.6665L19.2682 10.6573L19.2712 10.6311C19.2734 10.6102 19.276 10.5826 19.2784 10.5487C19.2832 10.481 19.2875 10.3881 19.2868 10.2739C19.2856 10.0462 19.2649 9.73106 19.1893 9.36287C19.0375 8.62329 18.6631 7.66812 17.7863 6.79137C16.9096 5.91463 15.9544 5.54021 15.2148 5.38839C14.8467 5.3128 14.5315 5.29214 14.3038 5.29088C14.1897 5.29025 14.0967 5.29449 14.029 5.29933C13.9951 5.30175 13.9675 5.30432 13.9466 5.30653L13.9204 5.3095L13.9112 5.31065L13.9076 5.31113L13.906 5.31134C13.9057 5.31138 13.9047 5.31153 14 6.00501L13.9047 5.31153C13.5217 5.36417 13.2539 5.71733 13.3065 6.10033C13.3589 6.48168 13.7093 6.74883 14.0904 6.69914" fill="#8E44F4"/>
<path fill-rule="evenodd" clip-rule="evenodd" d="M14.0383 2.70399C13.6537 2.7251 13.3241 2.43141 13.3012 2.04657C13.2783 1.66065 13.5725 1.32921 13.9584 1.30627L14 2.00504C13.9584 1.30627 13.9581 1.30629 13.9584 1.30627L13.9599 1.30618L13.9617 1.30609L13.966 1.30586L13.9777 1.3053C13.9869 1.3049 13.9988 1.30445 14.0134 1.30406C14.0426 1.30326 14.0824 1.30266 14.1321 1.30301C14.2314 1.30373 14.3705 1.30826 14.5433 1.32277C14.8887 1.35176 15.3705 1.42071 15.9393 1.57945C17.0799 1.89775 18.5661 2.57615 19.995 4.00505C21.4239 5.43399 22.1013 6.91923 22.4185 8.05903C22.5767 8.62746 22.6451 9.10881 22.6737 9.45389C22.688 9.62655 22.6923 9.76554 22.6929 9.86482C22.6932 9.91449 22.6925 9.95427 22.6917 9.98343C22.6913 9.99802 22.6908 10.0099 22.6904 10.0191L22.6898 10.0309L22.6896 10.0352L22.6895 10.0369C22.6895 10.0373 22.6894 10.0384 21.9907 9.99575L22.6894 10.0384C22.6658 10.4243 22.3339 10.718 21.948 10.6944C21.5633 10.671 21.2701 10.3409 21.2918 9.95638L21.2923 9.94315C21.2927 9.92952 21.2931 9.90586 21.2929 9.87288C21.2925 9.80688 21.2896 9.7038 21.2785 9.56933C21.2562 9.30014 21.2013 8.90697 21.0698 8.43442C20.8076 7.49226 20.2396 6.22963 19.005 4.995C17.7703 3.76034 16.5065 3.19124 15.563 2.92793C15.0898 2.79587 14.6959 2.7405 14.4262 2.71786C14.2915 2.70655 14.1882 2.70345 14.122 2.70298C14.089 2.70274 14.0652 2.70316 14.0516 2.70353L14.0383 2.70399ZM14.0383 2.70399C14.0383 2.70399 14.0383 2.70399 14.0383 2.70399V2.70399Z" fill="#8E44F4"/>
</svg>
