<svg width="24" height="24" viewBox="0 0 24 24" fill="none" xmlns="http://www.w3.org/2000/svg">
<path fill-rule="evenodd" clip-rule="evenodd" d="M5.16125 2.61554C5.54609 2.42975 5.95849 2.29993 6.31156 2.29993C6.54424 2.29993 6.76561 2.37335 6.93813 2.44736C7.1227 2.52654 7.31401 2.63414 7.50257 2.7568C7.88037 3.00258 8.29216 3.33836 8.68206 3.71989C9.43518 4.45686 10.2343 5.49011 10.4467 6.50322C10.5369 6.93349 10.4433 7.37071 10.2096 7.72417C10.0662 7.94103 9.88277 8.17085 9.70987 8.38477C9.685 8.41554 9.66022 8.44614 9.63556 8.47659C9.48113 8.66726 9.33111 8.85248 9.19168 9.0404C9.03004 9.25826 8.90072 9.45612 8.81335 9.6337C8.72405 9.81519 8.69997 9.93301 8.69997 9.99993C8.69997 10.3142 8.89164 10.9356 9.31722 11.7097C9.72678 12.4548 10.2981 13.2417 10.9346 13.8703C11.6055 14.533 12.1995 15.0253 12.7264 15.3487C13.2179 15.6504 13.6116 15.7808 13.928 15.798C13.9428 15.7856 13.9629 15.7677 13.9887 15.7423C14.0478 15.6841 14.1127 15.6116 14.2018 15.5111L14.2137 15.4976C14.2954 15.4055 14.3931 15.2951 14.5011 15.1838C14.9765 14.6933 15.6916 14.142 16.8689 14.142C17.7891 14.142 18.729 14.6279 19.4712 15.2698C20.225 15.9218 20.875 16.819 21.1702 17.7978C21.421 18.6295 21.0128 19.3377 20.5306 19.8269C20.045 20.3195 19.3653 20.7252 18.7049 21.0386C17.5936 21.566 16.3585 21.7509 15.1563 21.6352C13.0179 21.4295 10.0389 20.58 6.51856 17.2449C6.507 17.234 6.49583 17.2227 6.48505 17.2109C4.48674 15.0409 3.40023 13.2049 2.83639 11.5257C2.2716 9.84381 2.25015 8.37227 2.30043 6.98836C2.35764 5.41399 3.08834 4.24407 3.91146 3.47799C4.32099 3.09684 4.7588 2.80984 5.16125 2.61554ZM4.86526 4.50282C4.2601 5.06604 3.7408 5.90304 3.69951 7.0392C3.65131 8.36581 3.6791 9.63735 4.16356 11.0801C4.64758 12.5215 5.60623 14.1863 7.49873 16.245C10.7798 19.347 13.4591 20.0655 15.2904 20.2417C16.2635 20.3353 17.2419 20.1832 18.1047 19.7738C18.7035 19.4897 19.2146 19.1676 19.5335 18.8441C19.8558 18.5171 19.8657 18.3209 19.8298 18.202C19.625 17.523 19.1479 16.8412 18.5554 16.3287C17.9513 15.8062 17.3256 15.542 16.8689 15.542C16.2101 15.542 15.8344 15.8197 15.5063 16.1582C15.4206 16.2466 15.3414 16.336 15.2555 16.433L15.2496 16.4396C15.1666 16.5333 15.0698 16.6425 14.9713 16.7395C14.7934 16.9149 14.4677 17.1999 14 17.1999C13.3184 17.1999 12.6457 16.9419 11.994 16.5419C11.3397 16.1403 10.6599 15.5667 9.95078 14.8664C9.20722 14.132 8.55715 13.2333 8.09038 12.3842C7.63962 11.5642 7.29997 10.6829 7.29997 9.99993C7.29997 9.63628 7.418 9.29849 7.55715 9.01566C7.69823 8.72892 7.88369 8.45374 8.06737 8.20618C8.22602 7.99236 8.39684 7.78153 8.55008 7.59239C8.57421 7.56261 8.5979 7.53337 8.62104 7.50474C8.7988 7.28481 8.9408 7.10473 9.04181 6.95197C9.07811 6.89709 9.08674 6.83934 9.07649 6.79047C8.95169 6.1951 8.40228 5.40489 7.7029 4.72052C7.36655 4.39138 7.02612 4.11703 6.73913 3.93033C6.5953 3.83676 6.47609 3.77253 6.38616 3.73396C6.33621 3.71253 6.30663 3.70393 6.29467 3.70073C6.22464 3.70651 6.0409 3.74548 5.76993 3.8763C5.49076 4.01108 5.16986 4.21933 4.86526 4.50282Z" fill="#222628"/>
<path fill-rule="evenodd" clip-rule="evenodd" d="M21.495 2.50503C21.7683 2.77839 21.7683 3.22161 21.495 3.49497L17.495 7.49497C17.2216 7.76834 16.7784 7.76834 16.505 7.49497C16.2316 7.22161 16.2316 6.77839 16.505 6.50503L20.505 2.50503C20.7784 2.23166 21.2216 2.23166 21.495 2.50503Z" fill="#8E44F4"/>
<path fill-rule="evenodd" clip-rule="evenodd" d="M16.505 2.50498C16.7784 2.23162 17.2216 2.23162 17.495 2.50498L21.495 6.50498C21.7683 6.77835 21.7683 7.22157 21.495 7.49493C21.2216 7.7683 20.7784 7.7683 20.505 7.49493L16.505 3.49493C16.2316 3.22157 16.2316 2.77835 16.505 2.50498Z" fill="#8E44F4"/>
</svg>
