<svg width="24" height="24" viewBox="0 0 24 24" fill="none" xmlns="http://www.w3.org/2000/svg">
<path fill-rule="evenodd" clip-rule="evenodd" d="M5.13371 2.77923C5.45987 2.54513 5.89131 2.30005 6.32895 2.30005C6.56163 2.30005 6.783 2.37347 6.95552 2.44748C7.14009 2.52666 7.3314 2.63426 7.51996 2.75692C7.89776 3.0027 8.30955 3.33848 8.69945 3.72002C9.45257 4.45698 10.2517 5.49023 10.4641 6.50334C10.5543 6.93353 10.4609 7.3717 10.225 7.72582C10.0805 7.94279 9.89545 8.17266 9.72155 8.38612C9.69827 8.4147 9.67507 8.44313 9.65196 8.47143C9.49477 8.66403 9.34227 8.85087 9.20114 9.04031C9.03921 9.25764 8.91078 9.45431 8.82506 9.63023C8.74784 9.78872 8.72211 9.8966 8.71787 9.96339C8.72298 9.97704 8.73901 10.0213 8.78427 10.1016C8.85261 10.2228 8.95166 10.3637 9.06317 10.5062C9.17263 10.646 9.2835 10.7739 9.36788 10.8676C9.40974 10.9141 9.44431 10.9513 9.46791 10.9763L9.49445 11.0043L9.50057 11.0107L9.50144 11.0116C9.77111 11.2885 9.76541 11.7317 9.48854 12.0014C9.21163 12.2712 8.76845 12.2654 8.49867 11.9885L9.00006 11.5C8.49867 11.9885 8.49874 11.9886 8.49867 11.9885L8.49702 11.9868L8.49395 11.9837L8.48378 11.9731L8.44846 11.9359C8.41876 11.9043 8.37717 11.8595 8.32758 11.8045C8.22905 11.6951 8.09587 11.5417 7.96074 11.3691C7.82766 11.1991 7.68157 10.9963 7.56484 10.7893C7.46184 10.6067 7.32281 10.3214 7.31746 10.0122C7.31109 9.64381 7.42761 9.30208 7.56651 9.017C7.70723 8.72821 7.89375 8.45181 8.07846 8.20388C8.23961 7.98758 8.4135 7.77462 8.56907 7.58409C8.59186 7.55618 8.61425 7.52874 8.63616 7.50186C8.81542 7.28183 8.95832 7.10219 9.05981 6.9498C9.09533 6.89645 9.10415 6.83954 9.09388 6.79059C8.96908 6.19522 8.41967 5.40502 7.72029 4.72064C7.38394 4.3915 7.04351 4.11715 6.75653 3.93045C6.61269 3.83688 6.49348 3.77266 6.40355 3.73408C6.36619 3.71805 6.34023 3.7092 6.32451 3.70442C6.32447 3.70443 6.32456 3.7044 6.32451 3.70442C6.29098 3.71632 6.16845 3.75983 5.95004 3.91659C5.69503 4.09963 5.39378 4.37602 5.08927 4.72351C4.47415 5.42545 3.91774 6.33424 3.69476 7.19033C3.24035 8.93502 3.61939 10.3363 4.6149 12.1654C4.69927 12.3205 4.76672 12.4466 4.8234 12.5525C4.93543 12.762 5.00535 12.8928 5.08061 13.0124C5.17239 13.1582 5.26706 13.2771 5.49503 13.5051C5.7684 13.7784 5.7684 14.2217 5.49503 14.495C5.22166 14.7684 4.77845 14.7684 4.50508 14.495C4.23306 14.223 4.06184 14.022 3.89568 13.758C3.79317 13.5951 3.68856 13.3996 3.55902 13.1575C3.50582 13.0581 3.44841 12.9508 3.38522 12.8347C2.30349 10.8471 1.75976 9.06507 2.33996 6.83746C2.6343 5.70741 3.32789 4.60927 4.03634 3.80082C4.39361 3.39313 4.77254 3.03845 5.13371 2.77923ZM10.5051 14.0051C10.7784 13.7317 11.2217 13.7317 11.495 14.0051C11.9605 14.4706 12.5437 14.9417 13.0697 15.2928C13.3327 15.4684 13.5689 15.6056 13.759 15.696C13.8543 15.7413 13.9218 15.7668 13.9648 15.7813C13.9765 15.7709 13.9902 15.7581 14.0061 15.7424C14.0652 15.6842 14.1301 15.6117 14.2192 15.5112L14.2311 15.4977C14.3128 15.4056 14.4105 15.2953 14.5185 15.1839C14.9939 14.6934 15.709 14.1422 16.8863 14.1422C17.8065 14.1422 18.7464 14.628 19.4886 15.27C20.2424 15.9219 20.8924 16.8191 21.1876 17.7979C21.4384 18.6296 21.0302 19.3378 20.548 19.827C20.0624 20.3196 19.3827 20.7254 18.7223 21.0387C17.6161 21.5636 16.397 21.758 15.2154 21.7188C13.4995 21.6618 11.4068 21.1477 8.0703 18.5526C7.76514 18.3152 7.71016 17.8755 7.94751 17.5703C8.18486 17.2651 8.62465 17.2102 8.92982 17.4475C12.0851 19.9016 13.9008 20.2743 15.2619 20.3195C16.2643 20.3528 17.2541 20.1858 18.1221 19.7739C18.7209 19.4898 19.232 19.1677 19.5509 18.8442C19.8732 18.5172 19.883 18.3211 19.8472 18.2022C19.6424 17.5231 19.1653 16.8414 18.5728 16.3288C17.9687 15.8063 17.343 15.5422 16.8863 15.5422C16.2275 15.5422 15.8518 15.8199 15.5237 16.1583C15.438 16.2467 15.3588 16.3361 15.2728 16.4331L15.267 16.4397C15.184 16.5334 15.0872 16.6426 14.9887 16.7396C14.8107 16.915 14.4851 17.2 14.0174 17.2C13.7153 17.2 13.4006 17.0757 13.158 16.9604C12.8879 16.832 12.5911 16.6567 12.2924 16.4572C11.6948 16.0584 11.0396 15.5295 10.5051 14.995C10.2317 14.7217 10.2317 14.2784 10.5051 14.0051Z" fill="#222628"/>
<path fill-rule="evenodd" clip-rule="evenodd" d="M19.4788 6.51069C19.7432 6.79272 19.7289 7.23571 19.4469 7.50012L4.46825 21.5426C4.18621 21.807 3.74323 21.7927 3.47881 21.5107C3.2144 21.2286 3.22869 20.7857 3.51073 20.5213L18.4894 6.47877C18.7714 6.21436 19.2144 6.22865 19.4788 6.51069Z" fill="#8E44F4"/>
</svg>
