<svg width="24" height="24" viewBox="0 0 24 24" fill="none" xmlns="http://www.w3.org/2000/svg">
<path fill-rule="evenodd" clip-rule="evenodd" d="M18.1542 8.7676C17.5397 8.70101 16.7405 8.70005 15.6 8.70005H6.29346L6.98288 14.1861C7.10979 15.1959 7.19922 15.9008 7.32398 16.4405C7.44571 16.9672 7.58663 17.2658 7.77473 17.4876C7.91836 17.657 8.08576 17.8046 8.27172 17.926C8.51526 18.085 8.82908 18.1876 9.36683 18.2427C9.91794 18.2992 10.6284 18.3 11.6462 18.3H15.6C16.7405 18.3 17.5397 18.2991 18.1542 18.2325C18.7557 18.1673 19.0968 18.0461 19.3519 17.8608C19.5471 17.7189 19.7189 17.5472 19.8607 17.352C20.0461 17.0969 20.1673 16.7558 20.2324 16.1543C20.299 15.5397 20.3 14.7406 20.3 13.6V13.4C20.3 12.2595 20.299 11.4604 20.2324 10.8458C20.1673 10.2443 20.0461 9.90323 19.8607 9.64814C19.7189 9.45289 19.5471 9.28117 19.3519 9.13931C19.0968 8.95398 18.7557 8.83276 18.1542 8.7676ZM18.305 7.37574C19.0256 7.45381 19.6413 7.61907 20.1748 8.00669C20.4889 8.2349 20.7651 8.51113 20.9933 8.82524C21.381 9.35876 21.5462 9.97441 21.6243 10.695C21.7 11.3938 21.7 12.269 21.7 13.3594V13.6407C21.7 14.7311 21.7 15.6063 21.6243 16.3051C21.5462 17.0257 21.381 17.6413 20.9933 18.1749C20.7651 18.489 20.4889 18.7652 20.1748 18.9934C19.6413 19.381 19.0256 19.5463 18.305 19.6244C17.6062 19.7001 16.7311 19.7001 15.6407 19.7H11.6084C10.6372 19.7001 9.85493 19.7001 9.2241 19.6354C8.57176 19.5686 8.01028 19.4272 7.50646 19.0984C7.20731 18.9031 6.93801 18.6655 6.70696 18.3931C6.31783 17.9342 6.10761 17.3947 5.95994 16.7558C5.81714 16.1379 5.7196 15.3617 5.59851 14.3981L4.70651 7.30005L15.6407 7.30005C16.7311 7.30004 17.6062 7.30003 18.305 7.37574Z" fill="#222628"/>
<path fill-rule="evenodd" clip-rule="evenodd" d="M1.29999 6.00005C1.29999 5.61345 1.61339 5.30005 1.99999 5.30005H3.9338C4.53094 5.30005 5.08431 5.61336 5.39154 6.12541L6.60023 8.1399L5.39974 8.8602L4.19105 6.8457C4.13683 6.75534 4.03918 6.70005 3.9338 6.70005H1.99999C1.61339 6.70005 1.29999 6.38665 1.29999 6.00005Z" fill="#222628"/>
<path d="M18.5 21.5C18.5 22.0523 18.0523 22.5 17.5 22.5C16.9477 22.5 16.5 22.0523 16.5 21.5C16.5 20.9477 16.9477 20.5 17.5 20.5C18.0523 20.5 18.5 20.9477 18.5 21.5Z" fill="#8E44F4"/>
<path d="M11.5 21.5C11.5 22.0523 11.0523 22.5 10.5 22.5C9.94772 22.5 9.5 22.0523 9.5 21.5C9.5 20.9477 9.94772 20.5 10.5 20.5C11.0523 20.5 11.5 20.9477 11.5 21.5Z" fill="#8E44F4"/>
<path fill-rule="evenodd" clip-rule="evenodd" d="M18 12.7C18 13.0866 17.6866 13.4 17.3 13.4H14.7C14.3134 13.4 14 13.0866 14 12.7C14 12.3134 14.3134 12 14.7 12H17.3C17.6866 12 18 12.3134 18 12.7Z" fill="#8E44F4"/>
</svg>
