<svg width="24" height="24" viewBox="0 0 24 24" fill="none" xmlns="http://www.w3.org/2000/svg">
<path fill-rule="evenodd" clip-rule="evenodd" d="M20.7 16.0001C20.7 19.1481 18.148 21.7001 15 21.7001L8.99998 21.7001C5.85196 21.7001 3.29998 19.1481 3.29998 16.0001L3.29998 10.9751L3.33739 10.4515C3.6252 6.42202 6.9781 3.30008 11.0178 3.30008L12.9821 3.30008C17.0219 3.30008 20.3748 6.42202 20.6626 10.4515L20.7 10.9751L20.7 16.0001ZM15 20.3001C17.3748 20.3001 19.3 18.3749 19.3 16.0001L19.3 11.025L19.2661 10.5512C19.0307 7.2544 16.2874 4.70008 12.9821 4.70008L11.0178 4.70008C7.71259 4.70008 4.96931 7.2544 4.73383 10.5512L4.69998 11.025L4.69998 16.0001C4.69998 18.3749 6.62516 20.3001 8.99998 20.3001L15 20.3001Z" fill="#222628"/>
<path fill-rule="evenodd" clip-rule="evenodd" d="M14.6334 9.99937C14.6337 9.61307 14.947 9.30003 15.3334 9.30003C15.72 9.30004 16.0334 9.61344 16.0334 10L15.3334 10C16.0334 10 16.0334 10.0004 16.0334 10.0008L16.0334 10.0016L16.0333 10.0034L16.0333 10.0081L16.0332 10.0209C16.033 10.0311 16.0327 10.0444 16.0321 10.0606C16.031 10.0931 16.029 10.1374 16.025 10.1919C16.0171 10.3008 16.0017 10.4516 15.9715 10.6307C15.9116 10.9856 15.7904 11.4694 15.5411 11.9615C15.2904 12.4565 14.9037 12.9715 14.3119 13.361C13.7161 13.753 12.954 13.9904 12 13.9904C11.046 13.9904 10.2839 13.753 9.68813 13.361C9.09629 12.9715 8.70964 12.4565 8.45889 11.9615C8.20962 11.4694 8.08846 10.9856 8.02852 10.6307C7.99828 10.4516 7.98288 10.3008 7.975 10.1919C7.97106 10.1374 7.96898 10.0931 7.96788 10.0606C7.96733 10.0444 7.96703 10.0311 7.96686 10.0209L7.9667 10.0081L7.96667 10.0034L7.96667 10.0016L7.96667 10.0008C7.96667 10.0004 7.96667 10 8.66667 10L7.96667 10C7.96666 9.61344 8.28006 9.30004 8.66666 9.30003C9.05227 9.30003 9.36506 9.61182 9.36666 9.99706C9.36666 9.9976 9.36666 9.99814 9.36667 9.99868C9.36667 9.99874 9.36667 9.9988 9.36667 9.99887C9.36667 9.99904 9.36667 9.99921 9.36667 9.99938C9.36667 9.99938 9.36667 9.99938 9.36667 9.99937L9.36667 9.99887L9.36667 9.99879L9.36667 9.99868L9.36666 9.99784L9.36666 9.99679C9.36666 9.99658 9.36666 9.99667 9.36666 9.99706C9.36666 9.99728 9.36667 9.99761 9.36668 9.99803L9.36708 10.0134C9.36761 10.0291 9.36879 10.0554 9.37135 10.0909C9.3765 10.162 9.38714 10.2682 9.40898 10.3976C9.45322 10.6596 9.5404 10.9984 9.7078 11.3289C9.87372 11.6564 10.1121 11.964 10.4577 12.1915C10.7995 12.4164 11.2873 12.5904 12 12.5904C12.7127 12.5904 13.2005 12.4164 13.5423 12.1915C13.8879 11.964 14.1263 11.6564 14.2922 11.3289C14.4596 10.9984 14.5468 10.6596 14.591 10.3976C14.6129 10.2682 14.6235 10.162 14.6287 10.0909C14.6312 10.0554 14.6324 10.0291 14.6329 10.0134L14.6333 9.99803L14.6334 9.99878L14.6334 9.99937ZM14.6333 9.99803L14.6334 9.99783L14.6334 9.99678L14.6334 9.99669C14.6334 9.99676 14.6334 9.99721 14.6333 9.99803Z" fill="#8E44F4"/>
</svg>
