<svg width="24" height="24" viewBox="0 0 24 24" fill="none" xmlns="http://www.w3.org/2000/svg">
<path fill-rule="evenodd" clip-rule="evenodd" d="M2.13484 10.5042C2.13484 5.97319 5.80799 2.30005 10.339 2.30005H14.3806C18.423 2.30005 21.7 5.57704 21.7 9.6194V13.4501C21.7 17.5093 18.4093 20.8001 14.35 20.8001H11.0131L7.7254 20.7441C6.44085 20.7222 5.15952 20.8796 3.9184 21.2115L3.45277 21.3361C2.36881 21.626 1.39744 20.5941 1.75227 19.5297C2.11305 18.4473 2.28465 17.3109 2.25951 16.1702L2.13501 10.5197L2.83484 10.5042H2.13484ZM3.53485 10.4967L3.65917 16.1394C3.68785 17.4408 3.49207 18.7374 3.08042 19.9724C3.07975 19.9744 3.07937 19.9759 3.07916 19.9769C3.07969 19.9778 3.08067 19.9794 3.08236 19.9812C3.08405 19.983 3.0855 19.984 3.08644 19.9846C3.08746 19.9845 3.08897 19.9842 3.09101 19.9836L3.55665 19.8591C4.92346 19.4935 6.33455 19.3202 7.7492 19.3443L11.031 19.4H14.35C17.6361 19.4 20.3 16.7361 20.3 13.4501V9.6194C20.3 6.35023 17.6498 3.70005 14.3806 3.70005H10.339C6.5837 3.70005 3.53891 6.74232 3.53485 10.4967Z" fill="#222628"/>
<path d="M9 12C9 12.5523 8.55228 13 8 13C7.44772 13 7 12.5523 7 12C7 11.4477 7.44772 11 8 11C8.55228 11 9 11.4477 9 12Z" fill="#8E44F4"/>
<path d="M13 12C13 12.5523 12.5523 13 12 13C11.4477 13 11 12.5523 11 12C11 11.4477 11.4477 11 12 11C12.5523 11 13 11.4477 13 12Z" fill="#8E44F4"/>
<path d="M17 12C17 12.5523 16.5523 13 16 13C15.4477 13 15 12.5523 15 12C15 11.4477 15.4477 11 16 11C16.5523 11 17 11.4477 17 12Z" fill="#8E44F4"/>
</svg>
