<svg width="24" height="24" viewBox="0 0 24 24" fill="none" xmlns="http://www.w3.org/2000/svg">
<path fill-rule="evenodd" clip-rule="evenodd" d="M2.3 12C2.3 6.64289 6.64284 2.30005 12 2.30005C17.3572 2.30005 21.7 6.64289 21.7 12C21.7 17.3572 17.3572 21.7001 12 21.7001C6.64284 21.7001 2.3 17.3572 2.3 12ZM12 3.70005C7.41604 3.70005 3.7 7.41609 3.7 12C3.7 16.584 7.41604 20.3 12 20.3C16.584 20.3 20.3 16.584 20.3 12C20.3 7.41609 16.584 3.70005 12 3.70005Z" fill="#222628"/>
<path fill-rule="evenodd" clip-rule="evenodd" d="M12 7.30005C12.3866 7.30005 12.7 7.61345 12.7 8.00005V12.5938L15.8473 14.3923C16.183 14.5841 16.2996 15.0117 16.1078 15.3473C15.916 15.683 15.4884 15.7996 15.1527 15.6078L11.6527 13.6078C11.4346 13.4832 11.3 13.2512 11.3 13V8.00005C11.3 7.61345 11.6134 7.30005 12 7.30005Z" fill="#8E44F4"/>
</svg>
