<svg width="24" height="24" viewBox="0 0 24 24" fill="none" xmlns="http://www.w3.org/2000/svg">
<path fill-rule="evenodd" clip-rule="evenodd" d="M11.2222 13.7777C11.6518 13.3482 12.3482 13.3482 12.7778 13.7777L14.5757 15.5757C14.81 15.81 14.81 16.1899 14.5757 16.4242C14.3414 16.6585 13.9615 16.6585 13.7272 16.4242L12.6 15.297L12.6 20.9999C12.6 21.3313 12.3314 21.5999 12 21.5999C11.6686 21.5999 11.4 21.3313 11.4 20.9999L11.4 15.297L10.2728 16.4242C10.0385 16.6585 9.65857 16.6585 9.42426 16.4242C9.18994 16.1899 9.18994 15.81 9.42426 15.5757L11.2222 13.7777Z" fill="#8E44F4"/>
<path fill-rule="evenodd" clip-rule="evenodd" d="M5.7002 8.50836C5.69998 8.50834 5.69999 8.50549 5.69999 8.49993C5.69999 8.70679 5.62326 8.86826 5.56217 8.96735C5.50019 9.0679 5.42624 9.14956 5.36605 9.20975C5.2481 9.3277 5.09594 9.44751 4.96099 9.55247C4.93317 9.57411 4.90493 9.59599 4.87633 9.61816C4.60519 9.82825 4.30053 10.0643 3.99495 10.3699C3.33862 11.0262 2.69997 11.9827 2.69999 13.4999C2.70001 15.6755 4.58616 16.7318 5.67126 17.1533C5.94222 17.2585 6.25516 17.2999 6.61552 17.2999H7.99999C8.38659 17.2999 8.69999 17.6133 8.69999 17.9999C8.69999 18.3865 8.38659 18.6999 7.99999 18.6999H6.61552C6.15826 18.6999 5.65553 18.6491 5.16435 18.4583C4.03024 18.0178 1.30002 16.6418 1.29999 13.4999C1.29997 11.5171 2.16132 10.2236 3.005 9.37995C3.37674 9.00821 3.7494 8.71989 4.01774 8.51227C4.04693 8.48969 4.07489 8.46806 4.10148 8.44738C4.20158 8.36952 4.27169 8.31324 4.32075 8.2707C4.33674 8.17037 4.36058 8.06493 4.38736 7.96325C4.44088 7.76006 4.52215 7.51263 4.6371 7.23771C4.86682 6.6883 5.23801 6.01254 5.80885 5.35395C6.96708 4.01767 8.90806 2.79993 12 2.79993C15.0919 2.79993 17.0329 4.01767 18.1911 5.35395C18.762 6.01254 19.1332 6.6883 19.3629 7.23771C19.4778 7.51263 19.5591 7.76006 19.6126 7.96325C19.6394 8.06493 19.6632 8.17037 19.6792 8.2707C19.7283 8.31324 19.7984 8.36952 19.8985 8.44738C19.9251 8.46806 19.953 8.48969 19.9822 8.51228C20.2506 8.71989 20.6232 9.00821 20.995 9.37995C21.8386 10.2236 22.7 11.5171 22.7 13.4999C22.7 16.6418 19.9697 18.0178 18.8356 18.4583C18.3444 18.6491 17.8417 18.6999 17.3845 18.6999H16C15.6134 18.6999 15.3 18.3865 15.3 17.9999C15.3 17.6133 15.6134 17.2999 16 17.2999H17.3845C17.7448 17.2999 18.0578 17.2585 18.3287 17.1533C19.4138 16.7318 21.3 15.6755 21.3 13.4999C21.3 11.9827 20.6613 11.0262 20.005 10.3699C19.6994 10.0643 19.3948 9.82825 19.1236 9.61816C19.095 9.59599 19.0668 9.57411 19.039 9.55247C18.904 9.44751 18.7519 9.3277 18.6339 9.20974C18.5737 9.14956 18.4998 9.06789 18.4378 8.96735C18.3767 8.86825 18.3 8.70679 18.3 8.49993C18.3 8.50549 18.3 8.50834 18.2998 8.50836C18.2988 8.50845 18.2929 8.4492 18.2588 8.3198C18.2223 8.1812 18.1621 7.99503 18.0712 7.77777C17.8894 7.3428 17.5916 6.79981 17.1332 6.27091C16.2329 5.23219 14.6739 4.19993 12 4.19993C9.32611 4.19993 7.76708 5.23219 6.86677 6.27091C6.40834 6.79981 6.11061 7.3428 5.92874 7.77777C5.8379 7.99503 5.7777 8.1812 5.7412 8.3198C5.70712 8.4492 5.70122 8.50845 5.7002 8.50836Z" fill="#222628"/>
</svg>
