<svg width="24" height="24" viewBox="0 0 24 24" fill="none" xmlns="http://www.w3.org/2000/svg">
<path fill-rule="evenodd" clip-rule="evenodd" d="M5.26683 10.2999C5.27773 10.2999 5.2888 10.2999 5.30002 10.2999V11.6999C5.00813 11.6999 4.90274 11.7005 4.81957 11.707C3.6917 11.7958 2.79588 12.6916 2.70711 13.8195C2.70057 13.9027 2.70002 14.008 2.70002 14.2999V16.4999C2.70002 17.9464 2.70762 18.5145 2.84212 18.9579C3.16205 20.0126 3.9874 20.8379 5.04208 21.1578C5.48547 21.2923 6.05332 21.2999 7.49933 21.2999H9.15C10.8897 21.2999 12.3 19.8896 12.3 18.1499H13.7C13.7 20.6628 11.6629 22.6999 9.15 22.6999H7.49933C7.45339 22.6999 7.40806 22.6999 7.36331 22.6999C6.09875 22.7002 5.30423 22.7004 4.63568 22.4976C3.13356 22.0419 1.95807 20.8664 1.5024 19.3643C1.2996 18.6957 1.29976 17.901 1.3 16.636C1.30001 16.5912 1.30002 16.5459 1.30002 16.4999V14.2999C1.30002 14.2887 1.30002 14.2776 1.30002 14.2667C1.3 14.02 1.29998 13.855 1.31143 13.7096C1.45422 11.8952 2.89533 10.4541 4.70972 10.3113C4.85513 10.2999 5.02013 10.2999 5.26683 10.2999Z" fill="#8E44F4"/>
<path fill-rule="evenodd" clip-rule="evenodd" d="M12.8671 1.29993C12.911 1.29994 12.9552 1.29994 13 1.29994H14C14.0448 1.29994 14.089 1.29994 14.1329 1.29993C15.8663 1.29979 16.8812 1.29971 17.7341 1.52824C20.0462 2.14777 21.8522 3.95374 22.4717 6.26585C22.7002 7.11874 22.7002 8.13364 22.7 9.86708C22.7 9.9109 22.7 9.95519 22.7 9.99994C22.7 10.0447 22.7 10.089 22.7 10.1328C22.7002 11.8662 22.7002 12.8811 22.4717 13.734C21.8522 16.0461 20.0462 17.8521 17.7341 18.4716C16.8812 18.7002 15.8663 18.7001 14.1329 18.6999C14.089 18.6999 14.0448 18.6999 14 18.6999H13C12.9552 18.6999 12.911 18.6999 12.8671 18.6999C11.1337 18.7001 10.1188 18.7002 9.26591 18.4716C6.9538 17.8521 5.14783 16.0461 4.5283 13.734C4.29977 12.8811 4.29985 11.8662 4.29999 10.1328C4.3 10.089 4.3 10.0447 4.3 9.99994C4.3 9.95518 4.3 9.9109 4.29999 9.86707C4.29985 8.13364 4.29977 7.11874 4.5283 6.26585C5.14783 3.95374 6.9538 2.14777 9.26591 1.52824C10.1188 1.29971 11.1337 1.29979 12.8671 1.29993ZM13 2.69994C11.095 2.69994 10.2798 2.70595 9.62826 2.88053C7.79927 3.37061 6.37067 4.79921 5.8806 6.6282C5.70601 7.27974 5.7 8.09493 5.7 9.99994C5.7 11.905 5.70601 12.7201 5.8806 13.3717C6.37067 15.2007 7.79927 16.6293 9.62826 17.1193C10.2798 17.2939 11.095 17.2999 13 17.2999H14C15.905 17.2999 16.7202 17.2939 17.3717 17.1193C19.2007 16.6293 20.6293 15.2007 21.1194 13.3717C21.294 12.7201 21.3 11.905 21.3 9.99994C21.3 8.09493 21.294 7.27974 21.1194 6.6282C20.6293 4.79921 19.2007 3.37061 17.3717 2.88053C16.7202 2.70595 15.905 2.69994 14 2.69994H13Z" fill="#222628"/>
</svg>
