<svg width="24" height="24" viewBox="0 0 24 24" fill="none" xmlns="http://www.w3.org/2000/svg">
<path fill-rule="evenodd" clip-rule="evenodd" d="M18.7929 15.8005L13.57 7.25392C13.0056 6.33031 12.6473 5.74865 12.3441 5.36487C12.182 5.15975 12.0879 5.08092 12.0519 5.05524C12.0175 5.05073 11.9826 5.05073 11.9481 5.05524C11.9121 5.08092 11.818 5.15974 11.6559 5.36487C11.3527 5.74865 10.9944 6.33031 10.43 7.25392L5.20707 15.8005C4.6001 16.7937 4.21441 17.4295 3.99409 17.912C3.87549 18.1717 3.84606 18.3026 3.83903 18.3508C3.85157 18.3816 3.86789 18.4107 3.88762 18.4374C3.93238 18.4565 4.05946 18.4997 4.34289 18.5339C4.86944 18.5975 5.61311 18.5999 6.77711 18.5999H17.2229C18.3869 18.5999 19.1306 18.5975 19.6571 18.5339C19.9406 18.4997 20.0676 18.4565 20.1124 18.4374C20.1321 18.4107 20.1484 18.3816 20.161 18.3508C20.1539 18.3026 20.1245 18.1717 20.0059 17.912C19.7856 17.4295 19.3999 16.7937 18.7929 15.8005ZM20.163 18.3731C20.163 18.373 20.1629 18.3716 20.163 18.3688C20.1631 18.3718 20.1631 18.3731 20.163 18.3731ZM20.1325 18.4275C20.1326 18.4276 20.1314 18.4283 20.1288 18.4297C20.1311 18.4282 20.1324 18.4275 20.1325 18.4275ZM3.86751 18.4275C3.86758 18.4275 3.86889 18.4282 3.8712 18.4297C3.86859 18.4283 3.86743 18.4276 3.86751 18.4275ZM3.83698 18.3731C3.83691 18.3731 3.83686 18.3718 3.83704 18.3688C3.83713 18.3716 3.83705 18.373 3.83698 18.3731ZM11.9651 5.0445C11.9651 5.04463 11.9634 5.04567 11.9601 5.04723C11.9634 5.04515 11.9651 5.04438 11.9651 5.0445ZM12.0349 5.0445C12.0349 5.04438 12.0366 5.04515 12.04 5.04722C12.0366 5.04567 12.035 5.04463 12.0349 5.0445ZM11.6346 3.68934C10.8708 3.8477 10.3257 4.73976 9.23537 6.52389L4.01247 15.0704C2.83754 16.9931 2.25008 17.9544 2.48947 18.7305C2.56471 18.9744 2.69098 19.1996 2.85989 19.391C3.39731 19.9999 4.52391 19.9999 6.77711 19.9999H17.2229C19.4761 19.9999 20.6027 19.9999 21.1401 19.391C21.309 19.1996 21.4353 18.9744 21.5105 18.7305C21.7499 17.9544 21.1625 16.9931 19.9875 15.0704L14.7646 6.52389C13.6743 4.73976 13.1292 3.8477 12.3655 3.68934C12.1244 3.63936 11.8756 3.63936 11.6346 3.68934Z" fill="#222628"/>
<path fill-rule="evenodd" clip-rule="evenodd" d="M12 9.29993C12.3866 9.29993 12.7 9.61333 12.7 9.99993V13.9999C12.7 14.3865 12.3866 14.6999 12 14.6999C11.6134 14.6999 11.3 14.3865 11.3 13.9999V9.99993C11.3 9.61333 11.6134 9.29993 12 9.29993Z" fill="#8E44F4"/>
<path d="M12.7 16.3C12.7 16.6866 12.3866 17 12 17C11.6134 17 11.3 16.6866 11.3 16.3C11.3 15.9134 11.6134 15.6 12 15.6C12.3866 15.6 12.7 15.9134 12.7 16.3Z" fill="#8E44F4"/>
</svg>
