<svg width="24" height="24" viewBox="0 0 24 24" fill="none" xmlns="http://www.w3.org/2000/svg">
<path fill-rule="evenodd" clip-rule="evenodd" d="M11.9645 1.30005H12.0354C13.8747 1.30004 15.3027 1.30004 16.443 1.40339C17.6002 1.50827 18.5295 1.72399 19.35 2.19768C20.3685 2.78573 21.2143 3.63152 21.8024 4.65005C22.276 5.4705 22.4918 6.39985 22.5966 7.55705C22.7 8.69733 22.7 10.1254 22.7 11.9647V12.0354C22.7 13.8747 22.7 15.3028 22.5966 16.443C22.4918 17.6002 22.276 18.5296 21.8024 19.35C21.2143 20.3686 20.3685 21.2144 19.35 21.8024C18.5295 22.2761 17.6002 22.4918 16.443 22.5967C15.3027 22.7001 13.8746 22.7001 12.0354 22.7001H11.9646C10.1253 22.7001 8.69727 22.7001 7.55699 22.5967C6.39979 22.4918 5.47044 22.2761 4.64999 21.8024C3.63146 21.2144 2.78567 20.3686 2.19762 19.35C1.72393 18.5296 1.50821 17.6002 1.40333 16.443C1.29998 15.3028 1.29998 13.8747 1.29999 12.0355V11.9646C1.29998 10.1254 1.29998 8.69732 1.40333 7.55705C1.50821 6.39985 1.72393 5.4705 2.19762 4.65005C2.78567 3.63152 3.63146 2.78573 4.64999 2.19768C5.47044 1.72399 6.39979 1.50827 7.55699 1.40339C8.69726 1.30004 10.1253 1.30004 11.9645 1.30005ZM7.68336 2.79767C6.62326 2.89375 5.92184 3.07995 5.34999 3.41011C4.54429 3.87529 3.87523 4.54435 3.41005 5.35005C3.07989 5.9219 2.89369 6.62332 2.79761 7.68342C2.70066 8.75315 2.69999 10.1179 2.69999 12C2.69999 13.8822 2.70066 15.2469 2.79761 16.3167C2.89369 17.3768 3.07989 18.0782 3.41005 18.65C3.87523 19.4558 4.54429 20.1248 5.34999 20.59C5.92184 20.9201 6.62326 21.1063 7.68336 21.2024C8.75309 21.2994 10.1179 21.3 12 21.3C13.8821 21.3 15.2469 21.2994 16.3166 21.2024C17.3767 21.1063 18.0781 20.9201 18.65 20.59C19.4557 20.1248 20.1248 19.4558 20.5899 18.65C20.9201 18.0782 21.1063 17.3768 21.2024 16.3167C21.2993 15.2469 21.3 13.8822 21.3 12C21.3 10.1179 21.2993 8.75315 21.2024 7.68342C21.1063 6.62332 20.9201 5.9219 20.5899 5.35005C20.1248 4.54435 19.4557 3.87529 18.65 3.41011C18.0781 3.07995 17.3767 2.89375 16.3166 2.79767C15.2469 2.70072 13.8821 2.70005 12 2.70005C10.1179 2.70005 8.75309 2.70072 7.68336 2.79767Z" fill="#222628"/>
<path fill-rule="evenodd" clip-rule="evenodd" d="M8.38092 7.94488C8.54122 7.75045 8.74273 7.5941 8.97088 7.48712C9.44277 7.26586 9.93194 7.36852 10.3369 7.50634C10.7422 7.64429 11.2411 7.88364 11.8299 8.1661L13.8614 9.14061C13.8841 9.1515 13.907 9.16238 13.9298 9.17328C14.213 9.30823 14.5065 9.44813 14.7277 9.68436C14.7996 9.76113 14.8642 9.84439 14.9207 9.9331C15.0946 10.2061 15.1572 10.5251 15.2176 10.8329C15.2224 10.8578 15.2273 10.8826 15.2322 10.9073L15.6715 13.1172C15.7989 13.7577 15.9068 14.3004 15.9397 14.7273C15.9726 15.1538 15.9506 15.6531 15.619 16.0553C15.4587 16.2497 15.2572 16.4061 15.029 16.513C14.5572 16.7343 14.068 16.6316 13.663 16.4938C13.2577 16.3559 12.7588 16.1165 12.17 15.8341L10.1385 14.8595C10.1158 14.8486 10.093 14.8378 10.0701 14.8269C9.78697 14.6919 9.49347 14.552 9.27224 14.3158C9.20035 14.239 9.13574 14.1558 9.07924 14.0671C8.90537 13.7941 8.84277 13.475 8.78238 13.1673C8.7775 13.1424 8.77263 13.1176 8.76772 13.0929L8.33718 10.9271C8.33424 10.9123 8.33132 10.8976 8.3284 10.8829C8.20106 10.2425 8.09315 9.69974 8.06021 9.27284C8.0273 8.84635 8.04937 8.34701 8.38092 7.94488ZM9.46733 8.82818C9.46009 8.84887 9.43829 8.93484 9.45606 9.16514C9.48175 9.49812 9.57183 9.95749 9.71031 10.6541L10.1409 12.8199C10.228 13.2581 10.2464 13.2935 10.2601 13.3149C10.27 13.3306 10.2814 13.3453 10.2941 13.3588C10.3115 13.3774 10.3412 13.404 10.744 13.5973L12.735 14.5523C13.3753 14.8595 13.7979 15.0609 14.1141 15.1685C14.3328 15.2429 14.4215 15.2431 14.4433 15.2412C14.4772 15.224 14.5075 15.2005 14.5326 15.172C14.5398 15.1513 14.5616 15.0653 14.5439 14.835C14.5182 14.502 14.4281 14.0427 14.2896 13.346L13.8591 11.1802C13.772 10.742 13.7535 10.7067 13.7399 10.6852C13.7299 10.6696 13.7185 10.6549 13.7058 10.6413C13.6884 10.6228 13.6588 10.5961 13.2559 10.4029L11.265 9.44784C10.6246 9.14065 10.202 8.93929 9.88582 8.83168C9.66715 8.75726 9.57846 8.75703 9.55662 8.7589C9.52274 8.77613 9.49244 8.79964 9.46733 8.82818Z" fill="#8E44F4"/>
</svg>
