<svg width="24" height="24" viewBox="0 0 24 24" fill="none" xmlns="http://www.w3.org/2000/svg">
<path fill-rule="evenodd" clip-rule="evenodd" d="M11.9664 1.30005H12.0336C13.6398 1.30004 14.8907 1.30004 15.8922 1.38675C16.9097 1.47484 17.735 1.65639 18.4713 2.05844C19.5145 2.62806 20.372 3.48552 20.9416 4.5287C21.3437 5.265 21.5252 6.09037 21.6133 7.10782C21.7 8.10936 21.7 9.36032 21.7 10.9665V13.0336C21.7 14.6398 21.7 15.8907 21.6133 16.8923C21.5252 17.9097 21.3437 18.7351 20.9416 19.4714C20.372 20.5146 19.5145 21.372 18.4713 21.9417C17.735 22.3437 16.9097 22.5253 15.8922 22.6133C14.8907 22.7001 13.6397 22.7001 12.0336 22.7001H11.9665C10.3603 22.7001 9.10931 22.7001 8.10777 22.6133C7.09032 22.5253 6.26496 22.3437 5.52866 21.9417C4.48548 21.372 3.62801 20.5146 3.05839 19.4714C2.65634 18.7351 2.4748 17.9097 2.38671 16.8923C2.3 15.8908 2.3 14.6398 2.3 13.0337V10.9664C2.3 9.36028 2.3 8.10934 2.38671 7.10782C2.4748 6.09037 2.65634 5.265 3.05839 4.5287C3.62801 3.48552 4.48548 2.62806 5.52866 2.05844C6.26496 1.65639 7.09032 1.47484 8.10777 1.38675C9.1093 1.30004 10.3602 1.30004 11.9664 1.30005ZM8.22853 2.78154C7.30336 2.86164 6.69539 3.01647 6.19961 3.28719C5.39198 3.72819 4.72814 4.39203 4.28714 5.19965C4.01643 5.69543 3.86159 6.30341 3.78149 7.22858C3.70061 8.16269 3.7 9.35318 3.7 11V13C3.7 14.6469 3.70061 15.8374 3.78149 16.7715C3.86159 17.6967 4.01643 18.3047 4.28714 18.8004C4.72814 19.6081 5.39198 20.2719 6.19961 20.7129C6.69539 20.9836 7.30336 21.1385 8.22853 21.2186C9.16264 21.2994 10.3531 21.3 12 21.3C13.6469 21.3 14.8374 21.2994 15.7715 21.2186C16.6966 21.1385 17.3046 20.9836 17.8004 20.7129C18.608 20.2719 19.2719 19.6081 19.7129 18.8004C19.9836 18.3047 20.1384 17.6967 20.2185 16.7715C20.2994 15.8374 20.3 14.6469 20.3 13V11C20.3 9.35318 20.2994 8.16269 20.2185 7.22858C20.1384 6.30341 19.9836 5.69543 19.7129 5.19965C19.2719 4.39203 18.608 3.72819 17.8004 3.28719C17.3046 3.01647 16.6966 2.86164 15.7715 2.78154C14.8374 2.70066 13.6469 2.70005 12 2.70005C10.3531 2.70005 9.16264 2.70066 8.22853 2.78154Z" fill="#222628"/>
<path fill-rule="evenodd" clip-rule="evenodd" d="M16 16.7C16 17.0866 15.6866 17.4 15.3 17.4L7.7 17.4C7.3134 17.4 7 17.0866 7 16.7C7 16.3134 7.3134 16 7.7 16L15.3 16C15.6866 16 16 16.3134 16 16.7Z" fill="#8E44F4"/>
<path fill-rule="evenodd" clip-rule="evenodd" d="M16 12.7C16 13.0866 15.6866 13.4 15.3 13.4L7.7 13.4C7.3134 13.4 7 13.0866 7 12.7C7 12.3134 7.3134 12 7.7 12L15.3 12C15.6866 12 16 12.3134 16 12.7Z" fill="#222628"/>
<path fill-rule="evenodd" clip-rule="evenodd" d="M12 8.70002C12 9.08662 11.6866 9.40002 11.3 9.40002L7.7 9.40002C7.3134 9.40002 7 9.08662 7 8.70002C7 8.31343 7.3134 8.00002 7.7 8.00002L11.3 8.00002C11.6866 8.00002 12 8.31343 12 8.70002Z" fill="#8E44F4"/>
</svg>
