<svg width="24" height="24" viewBox="0 0 24 24" fill="none" xmlns="http://www.w3.org/2000/svg">
<path fill-rule="evenodd" clip-rule="evenodd" d="M7.74656 20.5052C8.77736 20.5987 10.105 20.6 12 20.6C13.895 20.6 15.2226 20.5987 16.2534 20.5052C17.265 20.4136 17.8524 20.2421 18.3 19.9837C18.9993 19.58 19.58 18.9993 19.9837 18.3C20.2421 17.8524 20.4136 17.265 20.5052 16.2534C20.5987 15.2226 20.6 13.895 20.6 12C20.6 10.105 20.5987 8.77736 20.5052 7.74656C20.4136 6.73501 20.2421 6.14756 19.9837 5.7C19.58 5.00071 18.9993 4.42002 18.3 4.01628C17.8524 3.75788 17.265 3.58645 16.2534 3.49477C15.2226 3.40134 13.895 3.4 12 3.4C10.105 3.4 8.77736 3.40134 7.74656 3.49477C6.73501 3.58645 6.14756 3.75788 5.7 4.01628C5.00071 4.42002 4.42002 5.00071 4.01628 5.7C3.75788 6.14756 3.58645 6.73501 3.49477 7.74656C3.40134 8.77736 3.4 10.105 3.4 12C3.4 13.895 3.40134 15.2226 3.49477 16.2534C3.58645 17.265 3.75788 17.8524 4.01628 18.3C4.42002 18.9993 5.00071 19.58 5.7 19.9837C6.14756 20.2421 6.73501 20.4136 7.74656 20.5052ZM2.80385 5C2 6.3923 2 8.26154 2 12C2 15.7385 2 17.6077 2.80385 19C3.33046 19.9121 4.08788 20.6695 5 21.1962C6.3923 22 8.26154 22 12 22C15.7385 22 17.6077 22 19 21.1962C19.9121 20.6695 20.6695 19.9121 21.1962 19C22 17.6077 22 15.7385 22 12C22 8.26154 22 6.3923 21.1962 5C20.6695 4.08788 19.9121 3.33046 19 2.80385C17.6077 2 15.7385 2 12 2C8.26154 2 6.3923 2 5 2.80385C4.08788 3.33046 3.33046 4.08788 2.80385 5Z" fill="#222628"/>
<path fill-rule="evenodd" clip-rule="evenodd" d="M13.2729 7.99995C12.6734 8.3613 12.6734 8.36138 12.6735 8.36146L12.6745 8.3632L12.6765 8.36654L12.6832 8.37736L12.7063 8.41463C12.7259 8.446 12.754 8.49009 12.7891 8.54368C12.8592 8.65042 12.959 8.79708 13.0785 8.95713C13.3014 9.25572 13.6506 9.68088 14.0391 9.93665C14.331 10.1289 14.6557 10.326 14.9039 10.4732C15.0288 10.5472 15.1359 10.6096 15.212 10.6535L15.3014 10.7049L15.3257 10.7188L15.334 10.7235C15.334 10.7235 15.3347 10.7239 15.68 10.115L15.334 10.7235C15.6703 10.9142 16.0983 10.7965 16.2889 10.4602C16.4796 10.1239 16.3615 9.69669 16.0252 9.50603M16.0252 9.50603L16.0183 9.50212L15.9963 9.48959L15.9122 9.44123C15.8399 9.39944 15.7375 9.33983 15.618 9.269C15.3776 9.12642 15.0743 8.94204 14.8089 8.76733C14.64 8.65615 14.4136 8.40529 14.2003 8.11959C14.1017 7.98751 14.0183 7.86496 13.9596 7.77553C13.9304 7.73103 13.9077 7.6953 13.8927 7.67136L13.8762 7.64485L13.8727 7.63904C13.8726 7.63894 13.8722 7.63825 13.8721 7.63815C13.6724 7.3074 13.2425 7.20095 12.9115 7.40043C12.5804 7.6 12.4739 8.03035 12.6735 8.36146L13.2729 7.99995" fill="#222628"/>
<path fill-rule="evenodd" clip-rule="evenodd" d="M10.5058 16.0507L16.2691 9.19138C16.4701 8.95217 16.4201 8.69016 16.3018 8.56381C16.0499 8.2947 15.8061 8.05425 15.6029 7.88359C15.3925 7.70679 15.0968 7.4964 14.7693 7.28189C14.6156 7.18117 14.3428 7.18166 14.1422 7.42039L8.38677 14.2703C8.12459 14.5823 8.00619 14.9567 8.03521 15.3106C8.07247 15.7649 8.12342 16.2564 8.18847 16.6575C8.5947 16.6524 9.08768 16.6179 9.54156 16.5763C9.89519 16.5439 10.2436 16.3627 10.5058 16.0507ZM15.5365 6.11078C14.7369 5.58701 13.6853 5.78795 13.0704 6.51978L7.3149 13.3697C6.83249 13.9438 6.5786 14.6777 6.6399 15.4251C6.72076 16.4111 6.87386 17.6992 7.13137 17.9156C7.38887 18.1319 8.68408 18.0607 9.66932 17.9705C10.4161 17.902 11.0952 17.5255 11.5776 16.9513L17.341 10.092C17.9523 9.3644 17.9733 8.30064 17.3238 7.60694C17.0552 7.32008 16.7681 7.03401 16.5035 6.81172C16.231 6.5827 15.8822 6.33729 15.5365 6.11078Z" fill="#8E44F4"/>
</svg>
