<svg width="24" height="24" viewBox="0 0 24 24" fill="none" xmlns="http://www.w3.org/2000/svg">
<path fill-rule="evenodd" clip-rule="evenodd" d="M15.6 3L20.0568 3C20.1164 3 20.174 3.0087 20.2284 3.02489C20.2828 3.0087 20.3403 3 20.4 3C20.7313 3 21 3.26863 21 3.6V8.05685C21 8.38823 20.7313 8.65685 20.4 8.65685C20.0686 8.65685 19.8 8.38823 19.8 8.05685V5.1196L13.4242 11.4953C13.1899 11.7297 12.81 11.7297 12.5757 11.4953C12.3414 11.261 12.3414 10.8811 12.5757 10.6468L19.0225 4.2L15.6 4.2C15.2686 4.2 15 3.93137 15 3.6C15 3.26863 15.2686 3 15.6 3Z" fill="#8E44F4"/>
<path fill-rule="evenodd" clip-rule="evenodd" d="M10.9685 4.30005L13 4.30005C13.3866 4.30005 13.7 4.61345 13.7 5.00005C13.7 5.38665 13.3866 5.70005 13 5.70005H11C9.58831 5.70005 8.57165 5.70059 7.773 5.76585C6.98253 5.83043 6.46748 5.9549 6.04783 6.16872C5.23874 6.58098 4.58092 7.23879 4.16866 8.04789C3.97086 8.43611 3.83544 9.13709 3.76712 10.4173C3.70023 11.6704 3.69999 13.3619 3.69999 15.6556C3.69999 16.1843 3.70192 16.5073 3.75773 16.8278C3.81072 17.1321 3.91831 17.4609 4.16866 17.9522C4.58092 18.7613 5.23874 19.4191 6.04783 19.8314C6.46748 20.0452 6.98253 20.1697 7.773 20.2343C8.57165 20.2995 9.58831 20.3 11 20.3C12.4117 20.3 13.4283 20.2995 14.227 20.2343C15.0175 20.1697 15.5325 20.0452 15.9522 19.8314C16.7612 19.4191 17.4191 18.7613 17.8313 17.9522C18.0451 17.5326 18.1696 17.0175 18.2342 16.227C18.2994 15.4284 18.3 14.4117 18.3 13V11C18.3 10.6134 18.6134 10.3 19 10.3C19.3866 10.3 19.7 10.6134 19.7 11V13.0315C19.7 14.405 19.7 15.4787 19.6295 16.341C19.5579 17.2181 19.4099 17.9379 19.0787 18.5878C18.5323 19.6603 17.6603 20.5323 16.5877 21.0788C15.9378 21.4099 15.218 21.5579 14.341 21.6296C13.4787 21.7001 12.4049 21.7001 11.0314 21.7001H10.9686C9.59505 21.7001 8.52131 21.7001 7.659 21.6296C6.78195 21.5579 6.06215 21.4099 5.41225 21.0788C4.33972 20.5323 3.46773 19.6603 2.92125 18.5878C2.62664 18.0096 2.46175 17.5461 2.37849 17.068C2.29991 16.6168 2.29995 16.1774 2.29999 15.6899L2.29999 15.6319C2.29999 13.3666 2.29999 11.6377 2.36911 10.3426C2.43703 9.0701 2.5741 8.09364 2.92125 7.4123C3.46773 6.33978 4.33972 5.46779 5.41225 4.92131C6.06215 4.59017 6.78195 4.44215 7.659 4.37049C8.5213 4.30004 9.59503 4.30004 10.9685 4.30005Z" fill="#222628"/>
</svg>
