<svg width="24" height="24" viewBox="0 0 24 24" fill="none" xmlns="http://www.w3.org/2000/svg">
<path fill-rule="evenodd" clip-rule="evenodd" d="M2.82887 12C5.25321 8.23338 8.00664 5.70005 11.5 5.70005C13.1907 5.70005 14.6971 6.28841 16.0818 7.32001C16.3918 7.55098 16.8304 7.48689 17.0613 7.17687C17.2923 6.86685 17.2282 6.42829 16.9182 6.19733C15.3377 5.01983 13.5447 4.30005 11.5 4.30005C7.10684 4.30005 3.9249 7.59943 1.40639 11.629C1.26452 11.856 1.26452 12.1441 1.40639 12.371C2.76029 14.5373 4.28968 16.4676 6.08178 17.8028C6.3918 18.0337 6.83036 17.9697 7.06133 17.6596C7.2923 17.3496 7.22821 16.9111 6.91819 16.6801C5.41994 15.5639 4.07465 13.9355 2.82887 12Z" fill="#222628"/>
<path fill-rule="evenodd" clip-rule="evenodd" d="M20.6684 12.001C18.2264 15.7308 14.5188 18.7534 9.56339 18.3029C9.17838 18.2679 8.83789 18.5516 8.80289 18.9366C8.76789 19.3216 9.05163 19.6621 9.43664 19.6971C15.3175 20.2317 19.53 16.4728 22.0936 12.371C22.2355 12.144 22.2355 11.856 22.0936 11.629C21.4011 10.5209 20.7469 9.73413 20.2582 9.21876C20.0139 8.96113 19.8112 8.77147 19.6658 8.64348C19.5931 8.57948 19.5347 8.5309 19.4927 8.49696C19.4717 8.47999 19.4548 8.46667 19.4422 8.45691L19.4265 8.44493L19.4212 8.44092L19.4192 8.4394L19.4184 8.43877C19.4182 8.43863 19.4176 8.43821 19 9.00001L19.4184 8.43877C19.1081 8.20813 18.6689 8.27214 18.4382 8.58241C18.2081 8.89199 18.2719 9.32922 18.5804 9.56026M18.5804 9.56026L18.5847 9.56363C18.5899 9.56763 18.5993 9.57503 18.6129 9.58595C18.6399 9.60779 18.6831 9.64366 18.7407 9.69433C18.8558 9.79567 19.0282 9.9562 19.2423 10.182C19.6169 10.5771 20.1198 11.1724 20.6684 12.001M18.5804 9.56026L18.5821 9.56155L18.5804 9.56026Z" fill="#222628"/>
<path fill-rule="evenodd" clip-rule="evenodd" d="M15.1112 9.87866L9.87862 15.1113L9.38364 14.6163C9.04006 14.2727 8.76752 13.8648 8.58158 13.4159C8.39564 12.967 8.29994 12.4859 8.29994 12C8.29994 11.5141 8.39564 11.033 8.58158 10.5841C8.76752 10.1351 9.04006 9.72726 9.38364 9.38369C9.72722 9.04011 10.1351 8.76757 10.584 8.58163C11.0329 8.39569 11.514 8.29998 11.9999 8.29998C12.4858 8.29998 12.967 8.39569 13.4159 8.58163C13.8648 8.76757 14.2727 9.04011 14.6162 9.38369L15.1112 9.87866ZM13.0542 9.95581C12.9974 9.92653 12.9393 9.89958 12.8801 9.87506C12.6011 9.75947 12.302 9.69998 11.9999 9.69998C11.6979 9.69998 11.3988 9.75947 11.1198 9.87506C10.8407 9.99065 10.5872 10.1601 10.3736 10.3736C10.16 10.5872 9.9906 10.8408 9.87501 11.1198C9.75943 11.3989 9.69994 11.6979 9.69994 12C9.69994 12.302 9.75943 12.6011 9.87501 12.8802C9.89954 12.9394 9.92649 12.9974 9.95577 13.0542L13.0542 9.95581Z" fill="#8E44F4"/>
<path fill-rule="evenodd" clip-rule="evenodd" d="M19.495 4.49502C19.7683 4.76838 19.7683 5.2116 19.495 5.48496L5.4849 19.495C5.21154 19.7684 4.76832 19.7684 4.49495 19.495C4.22159 19.2216 4.22159 18.7784 4.49496 18.5051L18.505 4.49502C18.7784 4.22165 19.2216 4.22165 19.495 4.49502Z" fill="#222628"/>
<path fill-rule="evenodd" clip-rule="evenodd" d="M14.6641 12.6736C14.6439 12.2923 14.9337 11.9643 15.3159 11.9384C15.7016 11.9124 16.0355 12.2039 16.0615 12.5896L15.3631 12.6368C16.0615 12.5896 16.0616 12.59 16.0616 12.5903L16.0616 12.591L16.0617 12.5925L16.0619 12.5958L16.0624 12.6034L16.0632 12.6228C16.0637 12.6376 16.0641 12.6562 16.0641 12.6781C16.0642 12.7221 16.0627 12.78 16.0574 12.8499C16.0468 12.9893 16.0209 13.178 15.9611 13.398C15.8407 13.8409 15.5834 14.4065 15.0481 14.9419C14.5127 15.4772 13.9471 15.7345 13.5042 15.8549C13.2842 15.9147 13.0955 15.9406 12.9561 15.9512C12.8862 15.9565 12.8283 15.958 12.7843 15.958C12.7624 15.9579 12.7438 15.9575 12.729 15.957L12.7096 15.9562L12.702 15.9557L12.6987 15.9555L12.6972 15.9554L12.6965 15.9554C12.6962 15.9554 12.6958 15.9553 12.743 15.2569L12.6958 15.9553C12.3101 15.9293 12.0186 15.5955 12.0446 15.2097C12.0705 14.8275 12.3985 14.5377 12.7798 14.5579C12.7786 14.5579 12.7782 14.5579 12.7785 14.5579M12.7798 14.5579C12.781 14.5579 12.7829 14.558 12.7856 14.558C12.7963 14.558 12.8184 14.5576 12.85 14.5552C12.9135 14.5504 13.0135 14.5375 13.1369 14.5039C13.3807 14.4377 13.7201 14.2899 14.0581 13.9519C14.3961 13.6139 14.5439 13.2745 14.6101 13.0307C14.6437 12.9074 14.6566 12.8073 14.6614 12.7438C14.6638 12.7122 14.6642 12.6902 14.6641 12.6795C14.6641 12.6768 14.6641 12.6748 14.6641 12.6736" fill="#8E44F4"/>
</svg>
