<svg width="24" height="24" viewBox="0 0 24 24" fill="none" xmlns="http://www.w3.org/2000/svg">
<path fill-rule="evenodd" clip-rule="evenodd" d="M4 11.2999C4.3866 11.2999 4.7 11.6133 4.7 11.9999V17.4999C4.7 17.8865 4.3866 18.1999 4 18.1999C3.6134 18.1999 3.3 17.8865 3.3 17.4999V11.9999C3.3 11.6133 3.6134 11.2999 4 11.2999Z" fill="#8E44F4"/>
<path fill-rule="evenodd" clip-rule="evenodd" d="M11.81 5.93754C11.6893 5.87721 11.5768 5.91025 11.5187 5.97199C9.97111 7.61602 8.23323 10.3053 7.54956 11.4007C7.42991 11.5924 7.36667 11.8169 7.36667 12.0539V16.4613C7.36667 16.8846 7.57271 17.2813 7.91894 17.5248L8.68502 18.0634C8.90397 18.2173 9.1651 18.3 9.43275 18.3H14.4681C14.9703 18.3 15.4277 18.0107 15.6428 17.5568L18.3517 11.8426C18.6034 11.3119 18.2163 10.6999 17.6289 10.6999H12.9716C11.9956 10.6999 11.4278 9.5967 11.9952 8.80245L12.57 7.99767C13.0343 7.34764 12.808 6.43655 12.0935 6.07931L11.81 5.93754ZM10.4993 5.01239C11.015 4.46455 11.808 4.37128 12.4361 4.68534L12.7196 4.82711C14.2036 5.56908 14.6736 7.46134 13.7092 8.8114L13.3603 9.29994H17.6289C19.2442 9.29994 20.3088 10.9827 19.6168 12.4424L16.9078 18.1566C16.461 19.0991 15.5112 19.7 14.4681 19.7H9.43275C8.87685 19.7 8.33451 19.5284 7.87977 19.2086L7.11369 18.67C6.3946 18.1644 5.96667 17.3404 5.96667 16.4613V12.0539C5.96667 11.566 6.0977 11.0828 6.3619 10.6594C7.04128 9.57089 8.84477 6.77002 10.4993 5.01239Z" fill="#222628"/>
</svg>
