<svg width="24" height="24" viewBox="0 0 24 24" fill="none" xmlns="http://www.w3.org/2000/svg">
<path fill-rule="evenodd" clip-rule="evenodd" d="M4 12.7001C4.3866 12.7001 4.7 12.3867 4.7 12.0001V6.50007C4.7 6.11347 4.3866 5.80007 4 5.80007C3.6134 5.80007 3.3 6.11347 3.3 6.50007V12.0001C3.3 12.3867 3.6134 12.7001 4 12.7001Z" fill="#8E44F4"/>
<path fill-rule="evenodd" clip-rule="evenodd" d="M11.81 18.0625C11.6893 18.1228 11.5768 18.0898 11.5187 18.028C9.97111 16.384 8.23324 13.6947 7.54957 12.5993C7.42992 12.4076 7.36667 12.1831 7.36667 11.9461V7.53869C7.36667 7.11544 7.57272 6.71869 7.91894 6.47525L8.68503 5.9366C8.90397 5.78265 9.1651 5.70004 9.43276 5.70004H14.4681C14.9704 5.70004 15.4277 5.98933 15.6428 6.44315L18.3518 12.1574C18.6034 12.6881 18.2163 13.3001 17.6289 13.3001H12.9716C11.9956 13.3001 11.4278 14.4033 11.9952 15.1975L12.57 16.0023C13.0343 16.6524 12.808 17.5634 12.0935 17.9207L11.81 18.0625ZM10.4993 18.9876C11.015 19.5355 11.808 19.6287 12.4361 19.3147L12.7196 19.1729C14.2036 18.4309 14.6736 16.5387 13.7092 15.1886L13.3603 14.7001H17.6289C19.2442 14.7001 20.3088 13.0173 19.6168 11.5576L16.9078 5.84343C16.461 4.90088 15.5112 4.30004 14.4681 4.30004H9.43276C8.87686 4.30004 8.33452 4.47162 7.87978 4.79136L7.1137 5.33001C6.39461 5.83562 5.96667 6.65964 5.96667 7.53869V11.9461C5.96667 12.434 6.09771 12.9172 6.3619 13.3406C7.04129 14.4291 8.84478 17.23 10.4993 18.9876Z" fill="#222628"/>
</svg>
