<svg width="24" height="24" viewBox="0 0 24 24" fill="none" xmlns="http://www.w3.org/2000/svg">
<path fill-rule="evenodd" clip-rule="evenodd" d="M7.67163 3.70285C7.61896 3.70025 7.56154 3.70005 7.39921 3.70005H6.72772C5.91064 3.70005 5.33823 3.70055 4.89135 3.73562C4.45216 3.77008 4.19364 3.83471 3.99477 3.93135C3.53111 4.15665 3.15658 4.53117 2.93129 4.99483C2.83465 5.1937 2.77002 5.45222 2.73555 5.89142C2.70049 6.33829 2.69999 6.9107 2.69999 7.72778V13.8C2.69999 15.3155 2.70095 16.3959 2.79141 17.2308C2.88045 18.0527 3.04941 18.5532 3.33023 18.9397C3.53377 19.2199 3.78014 19.4663 4.0603 19.6698C4.44681 19.9506 4.94737 20.1196 5.7692 20.2086C6.60412 20.2991 7.6845 20.3 9.19999 20.3H14.8C16.3155 20.3 17.3959 20.2991 18.2308 20.2086C19.0526 20.1196 19.5532 19.9506 19.9397 19.6698C20.2198 19.4663 20.4662 19.2199 20.6697 18.9397C20.9506 18.5532 21.1195 18.0527 21.2086 17.2308C21.299 16.3959 21.3 15.3155 21.3 13.8V12.7C21.3 11.1846 21.299 10.1042 21.2086 9.26926C21.1195 8.44744 20.9506 7.94687 20.6697 7.56036C20.4662 7.28021 20.2198 7.03384 19.9397 6.83029C19.5532 6.54947 19.0526 6.38051 18.2308 6.29147C17.3959 6.20101 16.3155 6.20005 14.8 6.20005L12.5834 6.20005C12.4447 6.20006 12.3508 6.20006 12.2592 6.19554C11.2639 6.14635 10.3305 5.69772 9.67025 4.95121C9.60954 4.88256 9.55087 4.80922 9.46426 4.70094L9.45338 4.68734C9.35197 4.56058 9.31595 4.51587 9.28101 4.47636C8.87061 4.01231 8.29037 3.73343 7.67163 3.70285ZM7.41662 2.30005C7.55528 2.30004 7.64921 2.30004 7.74073 2.30456C8.73609 2.35375 9.66952 2.80238 10.3297 3.54889C10.3904 3.61754 10.4491 3.6909 10.5357 3.7992L10.5466 3.81276C10.648 3.93953 10.684 3.98423 10.719 4.02374C11.1294 4.48779 11.7096 4.76667 12.3283 4.79725C12.381 4.79985 12.4384 4.80005 12.6008 4.80005L14.8418 4.80005C16.3062 4.80004 17.4625 4.80003 18.3816 4.89961C19.3225 5.00156 20.0976 5.21456 20.7626 5.69767C21.1616 5.98756 21.5125 6.33845 21.8024 6.73746C22.2855 7.40241 22.4985 8.17752 22.6004 9.11846C22.7 10.0376 22.7 11.1938 22.7 12.6583V13.8418C22.7 15.3063 22.7 16.4625 22.6004 17.3816C22.4985 18.3226 22.2855 19.0977 21.8024 19.7626C21.5125 20.1616 21.1616 20.5125 20.7626 20.8024C20.0976 21.2855 19.3225 21.4985 18.3816 21.6005C17.4624 21.7001 16.3062 21.7001 14.8417 21.7001H9.15829C7.69376 21.7001 6.53753 21.7001 5.6184 21.6005C4.67746 21.4985 3.90234 21.2855 3.2374 20.8024C2.83839 20.5125 2.4875 20.1616 2.19761 19.7626C1.7145 19.0977 1.5015 18.3226 1.39955 17.3816C1.29997 16.4625 1.29998 15.3063 1.29999 13.8418V7.69884C1.29998 6.91738 1.29998 6.28999 1.33984 5.7819C1.38081 5.25987 1.46702 4.80495 1.67208 4.38295C2.03451 3.63707 2.63701 3.03457 3.38289 2.67214C3.80489 2.46708 4.2598 2.38087 4.78184 2.33991C5.28993 2.30004 5.91732 2.30004 6.69878 2.30005L7.41662 2.30005Z" fill="#222628"/>
<path fill-rule="evenodd" clip-rule="evenodd" d="M14 17.3001C14 16.9135 14.3134 16.6001 14.7 16.6001H18.3C18.6866 16.6001 19 16.9135 19 17.3001C19 17.6867 18.6866 18.0001 18.3 18.0001H14.7C14.3134 18.0001 14 17.6867 14 17.3001Z" fill="#8E44F4"/>
</svg>
