<svg width="24" height="24" viewBox="0 0 24 24" fill="none" xmlns="http://www.w3.org/2000/svg">
<path fill-rule="evenodd" clip-rule="evenodd" d="M10.2565 1.30005L10.2565 2.00005C10.2565 2.23461 10.1799 2.4386 10.1204 2.57284C10.0632 2.70195 9.99018 2.83341 9.93297 2.93635C9.92857 2.94426 9.92427 2.95199 9.92008 2.95955C9.7788 3.21416 9.71559 3.34967 9.70191 3.4518C9.70162 3.45398 9.70116 3.45623 9.70068 3.4586C9.69626 3.48033 9.68972 3.51255 9.78803 3.59922C9.94646 3.73888 10.315 3.94309 11.102 4.14568C11.7307 4.30754 12.1427 4.70794 12.3835 5.17887C12.6118 5.62532 12.6837 6.12506 12.6974 6.54704C12.7114 6.97692 12.6662 7.38165 12.6199 7.67281C12.5965 7.82008 12.5722 7.94238 12.5533 8.02937C12.5438 8.07294 12.5357 8.10789 12.5297 8.13294L12.5223 8.163L12.5199 8.17221L12.5191 8.17532L12.5188 8.17649C12.5188 8.17671 12.5186 8.1774 11.8414 8.00005L12.5188 8.17649C12.4209 8.55047 12.038 8.77516 11.6641 8.67721C11.2905 8.57936 11.0668 8.19747 11.1639 7.82385L11.1646 7.82126L11.1686 7.80507C11.1723 7.78955 11.1781 7.76489 11.1852 7.7323C11.1994 7.66695 11.2186 7.57069 11.2373 7.45307C11.2752 7.21444 11.3083 6.904 11.2982 6.5924C11.2878 6.27289 11.2335 6.00483 11.137 5.81622C11.0531 5.65209 10.942 5.55016 10.7529 5.50147C9.89474 5.28054 9.26933 5.00828 8.86224 4.64941C8.40576 4.24701 8.24872 3.75556 8.3143 3.26594C8.36714 2.87147 8.56475 2.51614 8.68269 2.30406C8.68722 2.29591 8.69164 2.28797 8.69592 2.28025C8.76566 2.15457 8.80992 2.07463 8.84044 2.00575C8.8484 1.98779 8.85343 1.9748 8.85649 1.96626L8.85649 1.30005L10.2565 1.30005Z" fill="#222628"/>
<path fill-rule="evenodd" clip-rule="evenodd" d="M0.80805 11.1129C1.06145 8.84723 3.02933 7.30005 5.23227 7.30005H18.7677C20.9707 7.30005 22.9385 8.84723 23.1919 11.1129C23.4124 13.0836 23.5456 15.6775 23.0895 17.781C22.8613 18.8329 22.4713 19.8336 21.8063 20.5672C21.1152 21.3298 20.1682 21.7565 18.9667 21.6993C18.15 21.6604 17.3815 21.3205 16.7496 20.932C16.1106 20.5392 15.5577 20.0635 15.1618 19.6841C14.8378 19.3736 14.4436 19.2 14.0621 19.2H10.0502C9.62913 19.2 9.18698 19.4142 8.81845 19.7886C8.08744 20.5312 6.74853 21.6176 5.03329 21.6993C3.83183 21.7565 2.88476 21.3298 2.19365 20.5672C1.52868 19.8336 1.13864 18.8329 0.910529 17.781C0.454333 15.6775 0.58763 13.0836 0.80805 11.1129ZM5.23227 8.70005C3.66416 8.70005 2.36513 9.78645 2.19937 11.2685C1.98249 13.2076 1.87295 15.6132 2.27872 17.4843C2.4816 18.4198 2.79875 19.1502 3.23098 19.6271C3.63705 20.0751 4.17717 20.3384 4.9667 20.3008C6.14327 20.2448 7.16296 19.4747 7.82071 18.8065C8.3747 18.2437 9.15609 17.8 10.0502 17.8H14.0621C14.869 17.8 15.5963 18.1614 16.1304 18.6732C16.4847 19.0127 16.9579 19.4167 17.4828 19.7393C18.0148 20.0664 18.5482 20.2777 19.0333 20.3008C19.8228 20.3384 20.3629 20.0751 20.769 19.6271C21.2012 19.1502 21.5184 18.4198 21.7213 17.4843C22.127 15.6132 22.0175 13.2076 21.8006 11.2685C21.6348 9.78645 20.3358 8.70005 18.7677 8.70005H5.23227Z" fill="#222628"/>
<path fill-rule="evenodd" clip-rule="evenodd" d="M6.99999 10.75C7.41421 10.75 7.74999 11.0858 7.74999 11.5V12.25H8.49999C8.91421 12.25 9.24999 12.5858 9.24999 13C9.24999 13.4142 8.91421 13.75 8.49999 13.75H7.74999V14.5C7.74999 14.9142 7.41421 15.25 6.99999 15.25C6.58578 15.25 6.24999 14.9142 6.24999 14.5V13.75H5.49999C5.08578 13.75 4.74999 13.4142 4.74999 13C4.74999 12.5858 5.08578 12.25 5.49999 12.25H6.24999V11.5C6.24999 11.0858 6.58578 10.75 6.99999 10.75ZM14.9 12.25C14.9 11.8358 15.2358 11.5 15.65 11.5H15.75C16.1642 11.5 16.5 11.8358 16.5 12.25C16.5 12.6642 16.1642 13 15.75 13H15.65C15.2358 13 14.9 12.6642 14.9 12.25ZM17.9 14.25C17.9 13.8358 18.2358 13.5 18.65 13.5H18.75C19.1642 13.5 19.5 13.8358 19.5 14.25C19.5 14.6642 19.1642 15 18.75 15H18.65C18.2358 15 17.9 14.6642 17.9 14.25Z" fill="#8E44F4"/>
</svg>
