<svg width="24" height="24" viewBox="0 0 24 24" fill="none" xmlns="http://www.w3.org/2000/svg">
<path fill-rule="evenodd" clip-rule="evenodd" d="M12 5.20005C8.24442 5.20005 5.19996 8.24451 5.19996 12C5.19996 15.7556 8.24442 18.8 12 18.8C15.7555 18.8 18.8 15.7556 18.8 12C18.8 8.24451 15.7555 5.20005 12 5.20005ZM3.79996 12C3.79996 7.47131 7.47123 3.80005 12 3.80005C16.5287 3.80005 20.2 7.47131 20.2 12C20.2 16.5288 16.5287 20.2 12 20.2C7.47123 20.2 3.79996 16.5288 3.79996 12Z" fill="#222628"/>
<path fill-rule="evenodd" clip-rule="evenodd" d="M12 18.8C12.3866 18.8 12.7 19.1134 12.7 19.5V22C12.7 22.3866 12.3866 22.7 12 22.7C11.6134 22.7 11.3 22.3866 11.3 22V19.5C11.3 19.1134 11.6134 18.8 12 18.8Z" fill="#222628"/>
<path fill-rule="evenodd" clip-rule="evenodd" d="M12 1.30005C12.3866 1.30005 12.7 1.61345 12.7 2.00005V4.50005C12.7 4.88665 12.3866 5.20005 12 5.20005C11.6134 5.20005 11.3 4.88665 11.3 4.50005V2.00005C11.3 1.61345 11.6134 1.30005 12 1.30005Z" fill="#222628"/>
<path fill-rule="evenodd" clip-rule="evenodd" d="M18.8 12C18.8 11.6134 19.1134 11.3 19.5 11.3H22C22.3866 11.3 22.7 11.6134 22.7 12C22.7 12.3866 22.3866 12.7 22 12.7H19.5C19.1134 12.7 18.8 12.3866 18.8 12Z" fill="#222628"/>
<path fill-rule="evenodd" clip-rule="evenodd" d="M1.3 12C1.3 11.6134 1.6134 11.3 2 11.3H4.5C4.8866 11.3 5.2 11.6134 5.2 12C5.2 12.3866 4.8866 12.7 4.5 12.7H2C1.6134 12.7 1.3 12.3866 1.3 12Z" fill="#222628"/>
<path d="M15.5 12C15.5 13.933 13.933 15.5 12 15.5C10.067 15.5 8.5 13.933 8.5 12C8.5 10.067 10.067 8.5 12 8.5C13.933 8.5 15.5 10.067 15.5 12Z" fill="#8E44F4"/>
</svg>
