<svg width="24" height="24" viewBox="0 0 24 24" fill="none" xmlns="http://www.w3.org/2000/svg">
<path fill-rule="evenodd" clip-rule="evenodd" d="M13.5003 5.7594C13.6314 5.76692 13.8056 5.80241 14.1395 5.87419C15.0966 6.07997 16.0113 6.46515 16.8335 7.01449C18.1162 7.87156 19.1159 9.08976 19.7063 10.515C20.2966 11.9403 20.4511 13.5086 20.1501 15.0217C19.8492 16.5347 19.1063 17.9245 18.0154 19.0154C16.9246 20.1062 15.5348 20.8491 14.0217 21.1501C12.5087 21.451 10.9403 21.2966 9.51508 20.7062C8.08981 20.1158 6.87162 19.1161 6.01455 17.8334C5.4652 17.0113 5.08003 16.0965 4.87425 15.1394C4.80247 14.8055 4.76697 14.6314 4.75945 14.5003C4.75404 14.4058 4.76632 14.3817 4.78036 14.3561C4.78036 14.3561 4.78282 14.3518 4.78844 14.3437C4.79462 14.3347 4.80258 14.3239 4.81173 14.3126C4.82088 14.3013 4.82969 14.2913 4.83719 14.2833C4.84505 14.275 4.84871 14.2719 4.84738 14.273C4.84768 14.2728 4.84803 14.2725 4.84842 14.2721C4.85572 14.2654 4.88125 14.2419 5.01275 14.224C5.17803 14.2015 5.40454 14.2 5.80001 14.2H8.93873C9.65573 14.2 10.2499 14.2 10.7285 14.1481C11.2288 14.0939 11.6849 13.9764 12.087 13.6843C12.3162 13.5178 12.5178 13.3162 12.6844 13.087C12.9765 12.6849 13.094 12.2287 13.1482 11.7284C13.2 11.2499 13.2 10.6556 13.2 9.93863L13.2 6.79995C13.2 6.40448 13.2015 6.17797 13.224 6.01269C13.242 5.88119 13.2654 5.85567 13.2722 5.84837C13.2725 5.84797 13.2728 5.84763 13.2731 5.84733C13.2719 5.84866 13.2751 5.845 13.2834 5.83713C13.2913 5.82964 13.3013 5.82082 13.3127 5.81167C13.324 5.80252 13.3347 5.79457 13.3437 5.78838M13.5003 5.7594C13.4058 5.75398 13.3818 5.76626 13.3562 5.7803L13.5003 5.7594ZM14.3249 4.48175C13.8105 4.36895 13.2448 4.24491 12.6831 4.5527C12.5179 4.6432 12.3374 4.78909 12.2142 4.93155C11.9756 5.20737 11.8789 5.51551 11.8369 5.82356C11.7999 6.09476 11.8 6.41841 11.8 6.76113C11.8 6.77404 11.8 6.78699 11.8 6.79995L11.8 9.89995C11.8 10.6655 11.799 11.1834 11.7563 11.5776C11.715 11.9588 11.6416 12.1404 11.5517 12.2641C11.4715 12.3744 11.3745 12.4715 11.2641 12.5517C11.1405 12.6415 10.9588 12.715 10.5777 12.7563C10.1835 12.799 9.66555 12.8 8.90001 12.8L5.76115 12.7999C5.41845 12.7999 5.09481 12.7998 4.82362 12.8368C4.51557 12.8788 4.20742 12.9756 3.9316 13.2141C3.78914 13.3373 3.64326 13.5179 3.55275 13.6831C3.24496 14.2448 3.36901 14.8104 3.48181 15.3248C3.48982 15.3614 3.49778 15.3977 3.50553 15.4337C3.74823 16.5626 4.20254 17.6415 4.85049 18.6112C5.8614 20.1241 7.29824 21.3033 8.97932 21.9996C10.6604 22.696 12.5102 22.8782 14.2948 22.5232C16.0795 22.1682 17.7187 21.292 19.0054 20.0053C20.292 18.7187 21.1682 17.0794 21.5232 15.2948C21.8782 13.5102 21.696 11.6603 20.9997 9.97926C20.3034 8.29818 19.1242 6.86134 17.6113 5.85043C16.6415 5.20248 15.5626 4.74818 14.4338 4.50547C14.3977 4.49773 14.3614 4.48977 14.3249 4.48175Z" fill="#222628"/>
<path fill-rule="evenodd" clip-rule="evenodd" d="M3.01444 10.2769C3.18048 10.2986 3.40755 10.2999 3.80001 10.2999L6.40001 10.2999C7.16554 10.2999 7.68347 10.299 8.0777 10.2563C8.45883 10.215 8.64048 10.1415 8.76413 10.0517C8.87449 9.97148 8.97154 9.87443 9.05173 9.76407C9.14156 9.64042 9.21504 9.45877 9.25633 9.07764C9.29904 8.68341 9.30001 8.16548 9.3 7.39994L9.3 4.79994C9.3 4.40749 9.29862 4.18042 9.27693 4.01438C9.25927 3.87931 9.23567 3.85366 9.23101 3.8486C9.23077 3.84834 9.23115 3.84876 9.23101 3.8486C9.23104 3.84864 9.23031 3.8478 9.2299 3.84734C9.22943 3.8468 9.22865 3.84592 9.22753 3.84471L9.21913 3.83608C9.21186 3.82889 9.2029 3.82064 9.19285 3.81214C9.1828 3.80364 9.17318 3.79616 9.16489 3.79018L9.15498 3.78333C9.15244 3.78166 9.15119 3.78093 9.15128 3.78099L9.14996 3.78022C9.13288 3.77019 9.10755 3.75533 9.0011 3.75778C8.86006 3.76103 8.67176 3.79096 8.32483 3.84919C7.78217 3.94028 7.28305 4.06773 6.91591 4.2198C6.08733 4.56301 5.33446 5.06606 4.70029 5.70023C4.06613 6.3344 3.56308 7.08727 3.21986 7.91585C3.06779 8.28299 2.94035 8.78211 2.84926 9.32477C2.79102 9.6717 2.76109 9.86 2.75785 10.001C2.7554 10.1075 2.77026 10.1328 2.78028 10.1499L2.78105 10.1512C2.781 10.1511 2.78173 10.1524 2.7834 10.1549L2.79024 10.1648C2.79623 10.1731 2.8037 10.1827 2.8122 10.1928C2.8207 10.2028 2.82895 10.2118 2.83614 10.2191L2.84478 10.2275C2.84701 10.2295 2.84812 10.2305 2.84804 10.2304C2.8482 10.2305 2.84778 10.2302 2.84804 10.2304C2.8531 10.2351 2.87938 10.2592 3.01444 10.2769ZM2.83303 11.6651C2.53145 11.6257 2.22647 11.5349 1.95167 11.3058C1.80863 11.1866 1.66598 11.018 1.57209 10.8572C1.39949 10.5616 1.3514 10.2653 1.35822 9.96885C1.36406 9.71483 1.41269 9.42551 1.46232 9.13022C1.4644 9.11783 1.46649 9.10542 1.46857 9.09301C1.56887 8.49549 1.71839 7.88237 1.92643 7.3801C2.34 6.38166 2.94617 5.47446 3.71034 4.71028C4.47452 3.94611 5.38172 3.33994 6.38016 2.92637C6.88243 2.71832 7.49555 2.56881 8.09307 2.46851C8.10548 2.46643 8.11789 2.46434 8.13028 2.46226C8.42557 2.41262 8.71489 2.36399 8.96891 2.35815C9.2654 2.35133 9.5617 2.39943 9.85726 2.57202C10.0181 2.66592 10.1866 2.80857 10.3059 2.9516C10.5349 3.2264 10.6257 3.53138 10.6651 3.83297C10.7001 4.10063 10.7001 4.42077 10.7 4.76218C10.7 4.77474 10.7 4.78733 10.7 4.79994L10.7 7.43864C10.7 8.15565 10.7 8.74988 10.6482 9.22844C10.594 9.72869 10.4765 10.1849 10.1844 10.587C10.0178 10.8162 9.81624 11.0178 9.58703 11.1843C9.18494 11.4764 8.72875 11.5939 8.2285 11.6481C7.74994 11.7 7.15571 11.7 6.4387 11.6999L3.80001 11.6999C3.78739 11.6999 3.7748 11.6999 3.76224 11.6999C3.42084 11.7 3.10069 11.7 2.83303 11.6651Z" fill="#8E44F4"/>
</svg>
