<svg width="24" height="24" viewBox="0 0 24 24" fill="none" xmlns="http://www.w3.org/2000/svg">
<path d="M11.2003 22H12.8015C15.8003 22 17.2997 22 18.3511 21.2361C18.6907 20.9893 18.9893 20.6907 19.2361 20.3511C20 19.2997 20 17.7998 20 14.8V13.427C20 11.9327 20 11.1855 19.75 10.5121C19.6675 10.2898 19.5655 10.0753 19.445 9.8711C19.0799 9.25242 18.5 8.78127 17.3403 7.83897L12 3.5L6.65973 7.83897C5.49998 8.78127 4.9201 9.25242 4.55503 9.8711C4.43455 10.0753 4.33245 10.2898 4.24996 10.5121C4 11.1855 4 11.9327 4 13.427V14.8C4 17.7998 4 19.2997 4.76393 20.3511C5.01065 20.6907 5.30928 20.9893 5.64886 21.2361C6.70032 22 8.2003 22 11.2003 22Z" stroke="#222628" stroke-width="1.4" stroke-linecap="round"/>
<line x1="0.8" y1="-0.8" x2="13.7173" y2="-0.8" transform="matrix(-0.757719 0.652581 -0.757719 -0.652581 12 2)" stroke="#222628" stroke-width="1.6" stroke-linecap="round"/>
<line x1="0.8" y1="-0.8" x2="13.7173" y2="-0.8" transform="matrix(0.757719 0.652581 0.757719 -0.652581 12 2)" stroke="#222628" stroke-width="1.6" stroke-linecap="round"/>
<line x1="9.7" y1="18.1422" x2="13.8" y2="18.1422" stroke="#8E44F4" stroke-width="1.4" stroke-linecap="round"/>
</svg>
