<svg width="24" height="24" viewBox="0 0 24 24" fill="none" xmlns="http://www.w3.org/2000/svg">
<path fill-rule="evenodd" clip-rule="evenodd" d="M10.5841 18.5817C11.033 18.3958 11.5142 18.3 12 18.3C12.4859 18.3 12.9671 18.3958 13.416 18.5817C13.8649 18.7676 14.2728 19.0402 14.6163 19.3838C14.9599 19.7273 15.2325 20.1352 15.4184 20.5841C15.6043 21.033 15.7 21.5142 15.7 22V22.7L8.30005 22.7L8.30005 22C8.30005 21.5142 8.39575 21.033 8.58169 20.5841C8.76764 20.1352 9.04018 19.7273 9.38375 19.3838C9.72733 19.0402 10.1352 18.7676 10.5841 18.5817ZM12 19.7C11.698 19.7 11.3989 19.7595 11.1199 19.8751C10.8408 19.9907 10.5873 20.1601 10.3737 20.3737C10.1601 20.5873 9.99071 20.8408 9.87513 21.1199C9.8506 21.1791 9.8286 21.2392 9.80916 21.3L14.1909 21.3C14.1715 21.2392 14.1495 21.1791 14.125 21.1199C14.0094 20.8408 13.84 20.5873 13.6264 20.3737C13.4128 20.1601 13.1593 19.9907 12.8802 19.8751C12.6012 19.7595 12.3021 19.7 12 19.7Z" fill="#8E44F4"/>
<path fill-rule="evenodd" clip-rule="evenodd" d="M12.2872 4.58001C12.096 4.56721 11.9041 4.56721 11.7129 4.58001C11.0981 4.62116 10.4908 4.84905 9.68286 5.35576C8.86148 5.8709 7.89437 6.63319 6.54716 7.69678C4.81996 9.06035 4.12454 9.62639 3.71898 10.3752C3.65736 10.489 3.60091 10.6054 3.5498 10.7243C3.21338 11.5066 3.20003 12.4032 3.20003 14.6038V16C3.20003 17.434 3.20151 18.4391 3.30362 19.1986C3.40302 19.9379 3.58608 20.3388 3.87368 20.6264C4.16128 20.914 4.56216 21.097 5.30148 21.1964C6.06094 21.2985 7.06602 21.3 8.50003 21.3H15.5C16.934 21.3 17.9391 21.2985 18.6986 21.1964C19.4379 21.097 19.8388 20.914 20.1264 20.6264C20.414 20.3388 20.597 19.9379 20.6964 19.1986C20.7985 18.4391 20.8 17.434 20.8 16V14.6038C20.8 12.4032 20.7867 11.5066 20.4503 10.7243C20.3991 10.6054 20.3427 10.489 20.2811 10.3752C19.8755 9.62639 19.1801 9.06035 17.4529 7.69678C16.1057 6.63319 15.1386 5.8709 14.3172 5.35576C13.5093 4.84905 12.902 4.62116 12.2872 4.58001ZM11.6194 3.18313C11.8729 3.16617 12.1272 3.16617 12.3807 3.18313C13.3131 3.24554 14.147 3.59646 15.061 4.16972C15.9542 4.7299 16.9802 5.53993 18.2878 6.57222L18.3204 6.59795C18.3641 6.63247 18.4074 6.66661 18.4502 6.70039C20.0052 7.92757 20.9525 8.67517 21.5121 9.70845C21.5938 9.85926 21.6686 10.0137 21.7364 10.1712C22.2006 11.2507 22.2004 12.4575 22.2 14.4384C22.2 14.4929 22.2 14.548 22.2 14.6038V16.0516C22.2 17.422 22.2001 18.5215 22.0839 19.3851C21.9637 20.2797 21.7074 21.0252 21.1163 21.6163C20.5252 22.2074 19.7797 22.4637 18.8851 22.584C18.0215 22.7001 16.922 22.7001 15.5516 22.7H8.44846C7.07805 22.7001 5.97856 22.7001 5.11494 22.584C4.22037 22.4637 3.47481 22.2074 2.88373 21.6163C2.29265 21.0252 2.03637 20.2797 1.9161 19.3851C1.79999 18.5215 1.80001 17.422 1.80002 16.0516L1.80003 14.6038C1.80003 14.548 1.80002 14.4929 1.80001 14.4384C1.79966 12.4575 1.79945 11.2507 2.26368 10.1712C2.33143 10.0137 2.40626 9.85926 2.48794 9.70845C3.04757 8.67517 3.99487 7.92758 5.54985 6.7004C5.59266 6.66662 5.63592 6.63247 5.67965 6.59795L5.71224 6.57222C7.0198 5.53993 8.04582 4.7299 8.93901 4.16972C9.85306 3.59646 10.687 3.24554 11.6194 3.18313Z" fill="#222628"/>
</svg>
