<svg width="24" height="24" viewBox="0 0 24 24" fill="none" xmlns="http://www.w3.org/2000/svg">
<path fill-rule="evenodd" clip-rule="evenodd" d="M17.4896 16.0267C16.7799 15.3281 15.7014 15.1656 14.8174 15.624L13.3222 16.3992C12.979 16.5772 12.5565 16.4432 12.3786 16.1C12.2006 15.7568 12.3346 15.3343 12.6778 15.1564L14.1729 14.3811C15.595 13.6437 17.3301 13.9052 18.4717 15.029L21.4911 18.0012C21.7666 18.2724 21.7701 18.7156 21.4989 18.9911C21.2277 19.2666 20.7844 19.2701 20.5089 18.9989L17.4896 16.0267Z" fill="#222628"/>
<path fill-rule="evenodd" clip-rule="evenodd" d="M10.5294 14.9343C9.52029 13.7413 7.81276 13.4196 6.43867 14.1635L2.83329 16.1156C2.49332 16.2997 2.06851 16.1733 1.88444 15.8333C1.70037 15.4934 1.82674 15.0686 2.16671 14.8845L5.77209 12.9324C7.72913 11.8728 10.1611 12.331 11.5983 14.0302L17.5344 21.048C17.7841 21.3432 17.7472 21.7848 17.4521 22.0345C17.1569 22.2842 16.7152 22.2473 16.4656 21.9521L10.5294 14.9343Z" fill="#8E44F4"/>
<path fill-rule="evenodd" clip-rule="evenodd" d="M15.5404 7.20005C14.8224 7.20005 14.2404 7.78208 14.2404 8.50005C14.2404 9.21802 14.8224 9.80005 15.5404 9.80005C16.2584 9.80005 16.8404 9.21802 16.8404 8.50005C16.8404 7.78208 16.2584 7.20005 15.5404 7.20005ZM12.8404 8.50005C12.8404 7.00888 14.0492 5.80005 15.5404 5.80005C17.0316 5.80005 18.2404 7.00888 18.2404 8.50005C18.2404 9.99122 17.0316 11.2 15.5404 11.2C14.0492 11.2 12.8404 9.99122 12.8404 8.50005Z" fill="#8E44F4"/>
<path fill-rule="evenodd" clip-rule="evenodd" d="M11.9645 1.30005H12.0355C13.8747 1.30004 15.3027 1.30004 16.443 1.40339C17.6002 1.50827 18.5296 1.72399 19.35 2.19768C20.3685 2.78573 21.2143 3.63152 21.8024 4.65005C22.2761 5.4705 22.4918 6.39985 22.5967 7.55705C22.7 8.69733 22.7 10.1254 22.7 11.9647V12.0354C22.7 13.8747 22.7 15.3028 22.5967 16.443C22.4918 17.6002 22.2761 18.5296 21.8024 19.35C21.2143 20.3686 20.3685 21.2144 19.35 21.8024C18.5296 22.2761 17.6002 22.4918 16.443 22.5967C15.3027 22.7001 13.8747 22.7001 12.0354 22.7001H11.9646C10.1253 22.7001 8.69728 22.7001 7.55701 22.5967C6.3998 22.4918 5.47045 22.2761 4.65 21.8024C3.63147 21.2144 2.78568 20.3686 2.19763 19.35C1.72394 18.5296 1.50822 17.6002 1.40334 16.443C1.29999 15.3028 1.3 13.8747 1.3 12.0355V11.9646C1.3 10.1254 1.29999 8.69732 1.40334 7.55705C1.50822 6.39985 1.72394 5.4705 2.19763 4.65005C2.78568 3.63152 3.63147 2.78573 4.65 2.19768C5.47045 1.72399 6.3998 1.50827 7.55701 1.40339C8.69727 1.30004 10.1253 1.30004 11.9645 1.30005ZM7.68337 2.79767C6.62327 2.89375 5.92186 3.07995 5.35 3.41011C4.5443 3.87529 3.87524 4.54435 3.41007 5.35005C3.0799 5.9219 2.8937 6.62332 2.79762 7.68342C2.70067 8.75315 2.7 10.1179 2.7 12C2.7 13.8822 2.70067 15.2469 2.79762 16.3167C2.8937 17.3768 3.0799 18.0782 3.41007 18.65C3.87524 19.4558 4.5443 20.1248 5.35 20.59C5.92186 20.9201 6.62327 21.1063 7.68337 21.2024C8.7531 21.2994 10.1179 21.3 12 21.3C13.8821 21.3 15.2469 21.2994 16.3166 21.2024C17.3767 21.1063 18.0781 20.9201 18.65 20.59C19.4557 20.1248 20.1248 19.4558 20.5899 18.65C20.9201 18.0782 21.1063 17.3768 21.2024 16.3167C21.2993 15.2469 21.3 13.8822 21.3 12C21.3 10.1179 21.2993 8.75315 21.2024 7.68342C21.1063 6.62332 20.9201 5.9219 20.5899 5.35005C20.1248 4.54435 19.4557 3.87529 18.65 3.41011C18.0781 3.07995 17.3767 2.89375 16.3166 2.79767C15.2469 2.70072 13.8821 2.70005 12 2.70005C10.1179 2.70005 8.7531 2.70072 7.68337 2.79767Z" fill="#222628"/>
</svg>
