<svg width="24" height="24" viewBox="0 0 24 24" fill="none" xmlns="http://www.w3.org/2000/svg">
<path fill-rule="evenodd" clip-rule="evenodd" d="M8 6.70005C7.28203 6.70005 6.7 7.28208 6.7 8.00005C6.7 8.71802 7.28203 9.30005 8 9.30005C8.71797 9.30005 9.3 8.71802 9.3 8.00005C9.3 7.28208 8.71797 6.70005 8 6.70005ZM5.3 8.00005C5.3 6.50888 6.50883 5.30005 8 5.30005C9.49117 5.30005 10.7 6.50888 10.7 8.00005C10.7 9.49122 9.49117 10.7 8 10.7C6.50883 10.7 5.3 9.49122 5.3 8.00005Z" fill="#222628"/>
<path fill-rule="evenodd" clip-rule="evenodd" d="M12.5339 12.962C14.0093 11.8796 16.0542 12.0383 17.345 13.3352L21.4962 17.5063C21.7689 17.7803 21.7678 18.2235 21.4938 18.4962C21.2198 18.7689 20.7766 18.7679 20.5038 18.4938L16.3527 14.3228C15.5503 13.5166 14.2791 13.418 13.362 14.0908L9.51525 16.9128C8.37079 17.7523 6.84693 17.8632 5.59301 17.1981L1.67201 15.1185C1.33047 14.9373 1.20045 14.5136 1.3816 14.1721C1.56275 13.8305 1.98646 13.7005 2.328 13.8816L6.24899 15.9613C7.02846 16.3747 7.97573 16.3058 8.68715 15.7839L12.5339 12.962Z" fill="#8E44F4"/>
<path fill-rule="evenodd" clip-rule="evenodd" d="M11.9645 1.30005H12.0355C13.8747 1.30004 15.3027 1.30004 16.443 1.40339C17.6002 1.50827 18.5296 1.72399 19.35 2.19768C20.3685 2.78573 21.2143 3.63152 21.8024 4.65005C22.2761 5.4705 22.4918 6.39985 22.5967 7.55705C22.7 8.69733 22.7 10.1254 22.7 11.9647V12.0354C22.7 13.8747 22.7 15.3028 22.5967 16.443C22.4918 17.6002 22.2761 18.5296 21.8024 19.35C21.2143 20.3686 20.3685 21.2144 19.35 21.8024C18.5296 22.2761 17.6002 22.4918 16.443 22.5967C15.3027 22.7001 13.8747 22.7001 12.0354 22.7001H11.9646C10.1253 22.7001 8.69729 22.7001 7.55701 22.5967C6.3998 22.4918 5.47045 22.2761 4.65 21.8024C3.63147 21.2144 2.78568 20.3686 2.19763 19.35C1.72395 18.5296 1.50822 17.6002 1.40334 16.443C1.3 15.3028 1.3 13.8747 1.3 12.0355V11.9646C1.3 10.1254 1.3 8.69732 1.40334 7.55705C1.50822 6.39985 1.72395 5.4705 2.19763 4.65005C2.78568 3.63152 3.63147 2.78573 4.65 2.19768C5.47045 1.72399 6.3998 1.50827 7.55701 1.40339C8.69727 1.30004 10.1253 1.30004 11.9645 1.30005ZM7.68338 2.79767C6.62327 2.89375 5.92186 3.07995 5.35 3.41011C4.5443 3.87529 3.87524 4.54435 3.41007 5.35005C3.07991 5.9219 2.89371 6.62332 2.79763 7.68342C2.70067 8.75315 2.7 10.1179 2.7 12C2.7 13.8822 2.70067 15.2469 2.79763 16.3167C2.89371 17.3768 3.07991 18.0782 3.41007 18.65C3.87524 19.4558 4.5443 20.1248 5.35 20.59C5.92186 20.9201 6.62327 21.1063 7.68338 21.2024C8.7531 21.2994 10.1179 21.3 12 21.3C13.8821 21.3 15.2469 21.2994 16.3166 21.2024C17.3767 21.1063 18.0781 20.9201 18.65 20.59C19.4557 20.1248 20.1248 19.4558 20.5899 18.65C20.9201 18.0782 21.1063 17.3768 21.2024 16.3167C21.2993 15.2469 21.3 13.8822 21.3 12C21.3 10.1179 21.2993 8.75315 21.2024 7.68342C21.1063 6.62332 20.9201 5.9219 20.5899 5.35005C20.1248 4.54435 19.4557 3.87529 18.65 3.41011C18.0781 3.07995 17.3767 2.89375 16.3166 2.79767C15.2469 2.70072 13.8821 2.70005 12 2.70005C10.1179 2.70005 8.7531 2.70072 7.68338 2.79767Z" fill="#222628"/>
</svg>
