<svg width="24" height="24" viewBox="0 0 24 24" fill="none" xmlns="http://www.w3.org/2000/svg">
<path fill-rule="evenodd" clip-rule="evenodd" d="M12 3.30005C12.3866 3.30005 12.7 3.61345 12.7 4.00005V6.48438C12.7 6.87098 12.3866 7.18438 12 7.18438C11.6134 7.18438 11.3 6.87098 11.3 6.48438V4.00005C11.3 3.61345 11.6134 3.30005 12 3.30005Z" fill="#222628"/>
<path fill-rule="evenodd" clip-rule="evenodd" d="M12 16.9639C12.3866 16.9639 12.7 17.2773 12.7 17.6639V20.1482C12.7 20.5348 12.3866 20.8482 12 20.8482C11.6134 20.8482 11.3 20.5348 11.3 20.1482V17.6639C11.3 17.2773 11.6134 16.9639 12 16.9639Z" fill="#222628"/>
<path fill-rule="evenodd" clip-rule="evenodd" d="M18.5122 6.00727C18.7757 6.29014 18.76 6.73308 18.4772 6.9966L16.4772 8.85985C16.1943 9.12337 15.7514 9.1077 15.4878 8.82483C15.2243 8.54196 15.24 8.09902 15.5229 7.8355L17.5229 5.97225C17.8057 5.70873 18.2487 5.72441 18.5122 6.00727Z" fill="#8E44F4"/>
<path fill-rule="evenodd" clip-rule="evenodd" d="M15.4878 15.3235C15.7514 15.0406 16.1943 15.0249 16.4772 15.2885L18.4772 17.1517C18.76 17.4152 18.7757 17.8582 18.5122 18.141C18.2487 18.4239 17.8057 18.4396 17.5229 18.1761L15.5229 16.3128C15.24 16.0493 15.2243 15.6064 15.4878 15.3235Z" fill="#8E44F4"/>
<path fill-rule="evenodd" clip-rule="evenodd" d="M5.48783 6.0072C5.75136 5.72434 6.19429 5.70866 6.47716 5.97218L8.47716 7.83543C8.76003 8.09895 8.77571 8.54189 8.51218 8.82476C8.24865 9.10763 7.80572 9.12331 7.52285 8.85978L5.52285 6.99653C5.23998 6.73301 5.22431 6.29007 5.48783 6.0072Z" fill="#8E44F4"/>
<path fill-rule="evenodd" clip-rule="evenodd" d="M5.48783 18.141C5.2243 17.8582 5.23998 17.4152 5.52285 17.1517L7.52285 15.2885C7.80571 15.0249 8.24865 15.0406 8.51218 15.3235C8.7757 15.6064 8.76002 16.0493 8.47716 16.3128L6.47716 18.1761C6.19429 18.4396 5.75135 18.4239 5.48783 18.141Z" fill="#8E44F4"/>
<path fill-rule="evenodd" clip-rule="evenodd" d="M16.6333 12.0741C16.6333 11.6875 16.9467 11.3741 17.3333 11.3741H20C20.3866 11.3741 20.7 11.6875 20.7 12.0741C20.7 12.4607 20.3866 12.7741 20 12.7741H17.3333C16.9467 12.7741 16.6333 12.4607 16.6333 12.0741Z" fill="#222628"/>
<path fill-rule="evenodd" clip-rule="evenodd" d="M3.3 12.0741C3.3 11.6875 3.6134 11.3741 4 11.3741H6.66667C7.05327 11.3741 7.36667 11.6875 7.36667 12.0741C7.36667 12.4607 7.05327 12.7741 6.66667 12.7741H4C3.6134 12.7741 3.3 12.4607 3.3 12.0741Z" fill="#222628"/>
</svg>
