<svg width="24" height="24" viewBox="0 0 24 24" fill="none" xmlns="http://www.w3.org/2000/svg">
<path fill-rule="evenodd" clip-rule="evenodd" d="M12 2.70005C6.86374 2.70005 2.69999 6.8638 2.69999 12C2.69999 17.1363 6.86374 21.3 12 21.3C17.1362 21.3 21.3 17.1363 21.3 12C21.3 6.8638 17.1362 2.70005 12 2.70005ZM1.29999 12C1.29999 6.0906 6.09054 1.30005 12 1.30005C17.9094 1.30005 22.7 6.0906 22.7 12C22.7 17.9095 17.9094 22.7001 12 22.7001C6.09054 22.7001 1.29999 17.9095 1.29999 12Z" fill="#222628"/>
<path d="M12.7 7.7C12.7 8.0866 12.3866 8.4 12 8.4C11.6134 8.4 11.3 8.0866 11.3 7.7C11.3 7.3134 11.6134 7 12 7C12.3866 7 12.7 7.3134 12.7 7.7Z" fill="#8E44F4"/>
<path fill-rule="evenodd" clip-rule="evenodd" d="M12 10.3C12.3866 10.3 12.7 10.6134 12.7 11V17C12.7 17.3866 12.3866 17.7 12 17.7C11.6134 17.7 11.3 17.3866 11.3 17V11C11.3 10.6134 11.6134 10.3 12 10.3Z" fill="#8E44F4"/>
</svg>
