<svg width="24" height="24" viewBox="0 0 24 24" fill="none" xmlns="http://www.w3.org/2000/svg">
<path fill-rule="evenodd" clip-rule="evenodd" d="M6.12265 4.86575C4.65353 6.28645 3.7 8.45492 3.7 11.45C3.7 14.3462 5.31806 17.069 7.2569 19.1048C8.21906 20.1151 9.23703 20.9308 10.1231 21.489C10.5664 21.7683 10.967 21.977 11.303 22.1138C11.6516 22.2558 11.8819 22.3 12 22.3C12.1181 22.3 12.3484 22.2558 12.697 22.1138C13.033 21.977 13.4336 21.7683 13.8769 21.489C14.763 20.9308 15.7809 20.1151 16.7431 19.1048C18.6819 17.069 20.3 14.3462 20.3 11.45C20.3 8.45492 19.3465 6.28645 17.8774 4.86575C16.4026 3.43961 14.3391 2.70005 12 2.70005C9.66093 2.70005 7.5974 3.43961 6.12265 4.86575ZM5.14943 3.85935C6.93204 2.13549 9.36851 1.30005 12 1.30005C14.6315 1.30005 17.068 2.13549 18.8506 3.85935C20.6388 5.58864 21.7 8.14518 21.7 11.45C21.7 14.8539 19.8181 17.9061 17.7569 20.0703C16.7191 21.16 15.612 22.0506 14.6231 22.6736C14.1289 22.9849 13.6545 23.2356 13.2249 23.4105C12.8079 23.5803 12.3819 23.7001 12 23.7001C11.6181 23.7001 11.1922 23.5803 10.7751 23.4105C10.3455 23.2356 9.87114 22.9849 9.37688 22.6736C8.38798 22.0506 7.28095 21.16 6.24311 20.0703C4.18195 17.9061 2.3 14.8539 2.3 11.45C2.3 8.14518 3.3612 5.58864 5.14943 3.85935Z" fill="#222628"/>
<path fill-rule="evenodd" clip-rule="evenodd" d="M12 7.70005C10.5917 7.70005 9.45 8.84172 9.45 10.25C9.45 11.6584 10.5917 12.8 12 12.8C13.4083 12.8 14.55 11.6584 14.55 10.25C14.55 8.84172 13.4083 7.70005 12 7.70005ZM8.05 10.25C8.05 8.06852 9.81848 6.30005 12 6.30005C14.1815 6.30005 15.95 8.06852 15.95 10.25C15.95 12.4316 14.1815 14.2 12 14.2C9.81848 14.2 8.05 12.4316 8.05 10.25Z" fill="#8E44F4"/>
</svg>
