<svg width="24" height="24" viewBox="0 0 24 24" fill="none" xmlns="http://www.w3.org/2000/svg">
<path d="M4 12L14 12" stroke="#8E44F4" stroke-width="1.4" stroke-linecap="round"/>
<line x1="14.8182" y1="12" x2="11.6667" y2="8.84853" stroke="#8E44F4" stroke-width="1.2" stroke-linecap="round"/>
<line x1="0.6" y1="-0.6" x2="5.05685" y2="-0.6" transform="matrix(-0.707107 0.707107 0.707107 0.707107 15.6667 12)" stroke="#8E44F4" stroke-width="1.2" stroke-linecap="round"/>
<path d="M12.5 20.3C12.1134 20.3 11.8 20.6134 11.8 21C11.8 21.3866 12.1134 21.7 12.5 21.7L12.5 20.3ZM12.5 2.3C12.1134 2.3 11.8 2.6134 11.8 3C11.8 3.3866 12.1134 3.7 12.5 3.7L12.5 2.3ZM19.6158 18.3593L20.3126 18.4265L19.6158 18.3593ZM19.6158 5.64065L18.919 5.70783L19.6158 5.64065ZM12.5 3.7C12.503 3.7 12.506 3.7 12.509 3.7C12.5121 3.7 12.5151 3.7 12.5181 3.7C12.5211 3.7 12.5241 3.7 12.5271 3.7C12.5301 3.7 12.5331 3.7 12.5362 3.7C12.5392 3.7 12.5422 3.7 12.5452 3.7C12.5482 3.7 12.5512 3.7 12.5542 3.7C12.5572 3.7 12.5602 3.7 12.5633 3.7C12.5663 3.7 12.5693 3.7 12.5723 3.7C12.5753 3.7 12.5783 3.7 12.5813 3.7C12.5843 3.7 12.5873 3.7 12.5903 3.7C12.5933 3.7 12.5964 3.7 12.5994 3.7C12.6024 3.7 12.6054 3.7 12.6084 3.7C12.6114 3.7 12.6144 3.7 12.6174 3.7C12.6204 3.7 12.6234 3.7 12.6264 3.7C12.6294 3.7 12.6324 3.7 12.6354 3.7C12.6384 3.7 12.6414 3.7 12.6444 3.7C12.6475 3.7 12.6505 3.7 12.6535 3.7C12.6565 3.7 12.6595 3.7 12.6625 3.7C12.6655 3.7 12.6685 3.7 12.6715 3.7C12.6745 3.7 12.6775 3.7 12.6805 3.7C12.6835 3.7 12.6865 3.7 12.6895 3.7C12.6925 3.7 12.6955 3.7 12.6985 3.7C12.7015 3.7 12.7045 3.7 12.7075 3.7C12.7105 3.7 12.7135 3.7 12.7165 3.7C12.7195 3.7 12.7225 3.7 12.7255 3.7C12.7285 3.7 12.7315 3.7 12.7345 3.7C12.7375 3.7 12.7405 3.7 12.7435 3.7C12.7465 3.7 12.7495 3.7 12.7524 3.7C12.7554 3.7 12.7584 3.7 12.7614 3.7C12.7644 3.7 12.7674 3.7 12.7704 3.7C12.7734 3.7 12.7764 3.7 12.7794 3.7C12.7824 3.7 12.7854 3.7 12.7884 3.7C12.7914 3.7 12.7944 3.7 12.7974 3.7C12.8004 3.7 12.8033 3.7 12.8063 3.7C12.8093 3.7 12.8123 3.7 12.8153 3.7C12.8183 3.7 12.8213 3.7 12.8243 3.7C12.8273 3.7 12.8303 3.7 12.8332 3.7C12.8362 3.7 12.8392 3.7 12.8422 3.7C12.8452 3.7 12.8482 3.7 12.8512 3.7C12.8542 3.7 12.8572 3.7 12.8601 3.7C12.8631 3.7 12.8661 3.7 12.8691 3.7C12.8721 3.7 12.8751 3.7 12.8781 3.7C12.881 3.7 12.884 3.7 12.887 3.7C12.89 3.7 12.893 3.7 12.896 3.7C12.899 3.7 12.9019 3.7 12.9049 3.7C12.9079 3.7 12.9109 3.7 12.9139 3.7C12.9169 3.7 12.9198 3.7 12.9228 3.7C12.9258 3.7 12.9288 3.7 12.9318 3.7C12.9347 3.7 12.9377 3.7 12.9407 3.7C12.9437 3.7 12.9467 3.7 12.9496 3.7C12.9526 3.7 12.9556 3.7 12.9586 3.7C12.9616 3.7 12.9645 3.7 12.9675 3.7C12.9705 3.7 12.9735 3.7 12.9764 3.7C12.9794 3.7 12.9824 3.7 12.9854 3.7C12.9883 3.7 12.9913 3.7 12.9943 3.7C12.9973 3.7 13.0003 3.7 13.0032 3.7C13.0062 3.7 13.0092 3.7 13.0121 3.7C13.0151 3.7 13.0181 3.7 13.0211 3.7C13.024 3.7 13.027 3.7 13.03 3.7C13.033 3.7 13.0359 3.7 13.0389 3.7C13.0419 3.7 13.0448 3.7 13.0478 3.7C13.0508 3.7 13.0538 3.7 13.0567 3.7C13.0597 3.7 13.0627 3.7 13.0656 3.7C13.0686 3.7 13.0716 3.7 13.0745 3.7C13.0775 3.7 13.0805 3.7 13.0834 3.7C13.0864 3.7 13.0894 3.7 13.0923 3.7C13.0953 3.7 13.0983 3.7 13.1012 3.7C13.1042 3.7 13.1072 3.7 13.1101 3.7C13.1131 3.7 13.1161 3.7 13.119 3.7C13.122 3.7 13.125 3.7 13.1279 3.7C13.1309 3.7 13.1338 3.7 13.1368 3.7C13.1398 3.7 13.1427 3.7 13.1457 3.7C13.1487 3.7 13.1516 3.7 13.1546 3.7C13.1575 3.7 13.1605 3.7 13.1635 3.7C13.1664 3.7 13.1694 3.7 13.1723 3.7C13.1753 3.7 13.1783 3.7 13.1812 3.7C13.1842 3.7 13.1871 3.7 13.1901 3.7C13.193 3.7 13.196 3.7 13.199 3.7C13.2019 3.7 13.2049 3.7 13.2078 3.7C13.2108 3.7 13.2137 3.7 13.2167 3.7C13.2196 3.7 13.2226 3.7 13.2256 3.7C13.2285 3.7 13.2315 3.7 13.2344 3.7C13.2374 3.7 13.2403 3.7 13.2433 3.7C13.2462 3.7 13.2492 3.7 13.2521 3.7C13.2551 3.7 13.258 3.7 13.261 3.7C13.2639 3.7 13.2669 3.7 13.2698 3.7C13.2728 3.7 13.2757 3.7 13.2787 3.7C13.2816 3.7 13.2846 3.7 13.2875 3.7C13.2905 3.7 13.2934 3.7 13.2964 3.7C13.2993 3.7 13.3023 3.7 13.3052 3.7C13.3081 3.7 13.3111 3.7 13.314 3.7C13.317 3.7 13.3199 3.7 13.3229 3.7C13.3258 3.7 13.3288 3.7 13.3317 3.7C13.3346 3.7 13.3376 3.7 13.3405 3.7C13.3435 3.7 13.3464 3.7 13.3494 3.7C13.3523 3.7 13.3552 3.7 13.3582 3.7C13.3611 3.7 13.3641 3.7 13.367 3.7C13.3699 3.7 13.3729 3.7 13.3758 3.7C13.3787 3.7 13.3817 3.7 13.3846 3.7C13.3876 3.7 13.3905 3.7 13.3934 3.7C13.3964 3.7 13.3993 3.7 13.4022 3.7C13.4052 3.7 13.4081 3.7 13.411 3.7C13.414 3.7 13.4169 3.7 13.4199 3.7C13.4228 3.7 13.4257 3.7 13.4287 3.7C13.4316 3.7 13.4345 3.7 13.4374 3.7C13.4404 3.7 13.4433 3.7 13.4462 3.7C13.4492 3.7 13.4521 3.7 13.455 3.7C13.458 3.7 13.4609 3.7 13.4638 3.7C13.4668 3.7 13.4697 3.7 13.4726 3.7C13.4755 3.7 13.4785 3.7 13.4814 3.7C13.4843 3.7 13.4872 3.7 13.4902 3.7C13.4931 3.7 13.496 3.7 13.4989 3.7C13.5019 3.7 13.5048 3.7 13.5077 3.7C13.5106 3.7 13.5136 3.7 13.5165 3.7C13.5194 3.7 13.5223 3.7 13.5253 3.7C13.5282 3.7 13.5311 3.7 13.534 3.7C13.5369 3.7 13.5399 3.7 13.5428 3.7C13.5457 3.7 13.5486 3.7 13.5515 3.7C13.5545 3.7 13.5574 3.7 13.5603 3.7C13.5632 3.7 13.5661 3.7 13.5691 3.7C13.572 3.7 13.5749 3.7 13.5778 3.7C13.5807 3.7 13.5836 3.7 13.5866 3.7C13.5895 3.7 13.5924 3.7 13.5953 3.7C13.5982 3.7 13.6011 3.7 13.604 3.7C13.607 3.7 13.6099 3.7 13.6128 3.7C13.6157 3.7 13.6186 3.7 13.6215 3.7C13.6244 3.7 13.6273 3.7 13.6302 3.7C13.6332 3.7 13.6361 3.7 13.639 3.7C13.6419 3.7 13.6448 3.7 13.6477 3.7C13.6506 3.7 13.6535 3.7 13.6564 3.7C13.6593 3.7 13.6622 3.7 13.6651 3.7C13.6681 3.7 13.671 3.7 13.6739 3.7C13.6768 3.7 13.6797 3.7 13.6826 3.7C13.6855 3.7 13.6884 3.7 13.6913 3.7C13.6942 3.7 13.6971 3.7 13.7 3.7C13.7029 3.7 13.7058 3.7 13.7087 3.7C13.7116 3.7 13.7145 3.7 13.7174 3.7C13.7203 3.7 13.7232 3.7 13.7261 3.7C13.729 3.7 13.7319 3.7 13.7348 3.7C13.7377 3.7 13.7406 3.7 13.7435 3.7C13.7464 3.7 13.7493 3.7 13.7522 3.7C13.7551 3.7 13.758 3.7 13.7609 3.7C13.7638 3.7 13.7667 3.7 13.7695 3.7C13.7724 3.7 13.7753 3.7 13.7782 3.7C13.7811 3.7 13.784 3.7 13.7869 3.7C13.7898 3.7 13.7927 3.7 13.7956 3.7C13.7985 3.7 13.8014 3.7 13.8042 3.7C13.8071 3.7 13.81 3.7 13.8129 3.7C13.8158 3.7 13.8187 3.7 13.8216 3.7C13.8245 3.7 13.8273 3.7 13.8302 3.7C13.8331 3.7 13.836 3.7 13.8389 3.7C13.8418 3.7 13.8447 3.7 13.8475 3.7C13.8504 3.7 13.8533 3.7 13.8562 3.7C13.8591 3.7 13.862 3.7 13.8648 3.7C13.8677 3.7 13.8706 3.7 13.8735 3.7C13.8764 3.7 13.8792 3.7 13.8821 3.7C13.885 3.7 13.8879 3.7 13.8908 3.7C13.8936 3.7 13.8965 3.7 13.8994 3.7C13.9023 3.7 13.9051 3.7 13.908 3.7C13.9109 3.7 13.9138 3.7 13.9166 3.7C13.9195 3.7 13.9224 3.7 13.9253 3.7C13.9281 3.7 13.931 3.7 13.9339 3.7C13.9368 3.7 13.9396 3.7 13.9425 3.7C13.9454 3.7 13.9483 3.7 13.9511 3.7C13.954 3.7 13.9569 3.7 13.9597 3.7C13.9626 3.7 13.9655 3.7 13.9683 3.7C13.9712 3.7 13.9741 3.7 13.9769 3.7C13.9798 3.7 13.9827 3.7 13.9855 3.7C13.9884 3.7 13.9913 3.7 13.9941 3.7C13.997 3.7 13.9999 3.7 14.0027 3.7C14.0056 3.7 14.0085 3.7 14.0113 3.7C14.0142 3.7 14.017 3.7 14.0199 3.7C14.0228 3.7 14.0256 3.7 14.0285 3.7C14.0313 3.7 14.0342 3.7 14.0371 3.7C14.0399 3.7 14.0428 3.7 14.0456 3.7C14.0485 3.7 14.0514 3.7 14.0542 3.7C14.0571 3.7 14.0599 3.7 14.0628 3.7C14.0656 3.7 14.0685 3.7 14.0713 3.7C14.0742 3.7 14.0771 3.7 14.0799 3.7C14.0828 3.7 14.0856 3.7 14.0885 3.7C14.0913 3.7 14.0942 3.7 14.097 3.7C14.0999 3.7 14.1027 3.7 14.1056 3.7C14.1084 3.7 14.1113 3.7 14.1141 3.7C14.117 3.7 14.1198 3.7 14.1227 3.7C14.1255 3.7 14.1284 3.7 14.1312 3.7C14.134 3.7 14.1369 3.7 14.1397 3.7C14.1426 3.7 14.1454 3.7 14.1483 3.7C14.1511 3.7 14.154 3.7 14.1568 3.7C14.1596 3.7 14.1625 3.7 14.1653 3.7C14.1682 3.7 14.171 3.7 14.1738 3.7C14.1767 3.7 14.1795 3.7 14.1824 3.7C14.1852 3.7 14.188 3.7 14.1909 3.7C14.1937 3.7 14.1966 3.7 14.1994 3.7C14.2022 3.7 14.2051 3.7 14.2079 3.7C14.2107 3.7 14.2136 3.7 14.2164 3.7C14.2192 3.7 14.2221 3.7 14.2249 3.7C14.2277 3.7 14.2306 3.7 14.2334 3.7C14.2362 3.7 14.2391 3.7 14.2419 3.7C14.2447 3.7 14.2476 3.7 14.2504 3.7C14.2532 3.7 14.256 3.7 14.2589 3.7C14.2617 3.7 14.2645 3.7 14.2673 3.7C14.2702 3.7 14.273 3.7 14.2758 3.7C14.2787 3.7 14.2815 3.7 14.2843 3.7C14.2871 3.7 14.2899 3.7 14.2928 3.7C14.2956 3.7 14.2984 3.7 14.3012 3.7C14.3041 3.7 14.3069 3.7 14.3097 3.7C14.3125 3.7 14.3153 3.7 14.3182 3.7C14.321 3.7 14.3238 3.7 14.3266 3.7C14.3294 3.7 14.3322 3.7 14.3351 3.7C14.3379 3.7 14.3407 3.7 14.3435 3.7C14.3463 3.7 14.3491 3.7 14.352 3.7C14.3548 3.7 14.3576 3.7 14.3604 3.7C14.3632 3.7 14.366 3.7 14.3688 3.7C14.3716 3.7 14.3745 3.7 14.3773 3.7C14.3801 3.7 14.3829 3.7 14.3857 3.7C14.3885 3.7 14.3913 3.7 14.3941 3.7C14.3969 3.7 14.3997 3.7 14.4025 3.7C14.4053 3.7 14.4081 3.7 14.411 3.7C14.4138 3.7 14.4166 3.7 14.4194 3.7C14.4222 3.7 14.425 3.7 14.4278 3.7C14.4306 3.7 14.4334 3.7 14.4362 3.7C14.439 3.7 14.4418 3.7 14.4446 3.7C14.4474 3.7 14.4502 3.7 14.453 3.7C14.4558 3.7 14.4586 3.7 14.4614 3.7C14.4642 3.7 14.467 3.7 14.4698 3.7C14.4726 3.7 14.4754 3.7 14.4781 3.7C14.4809 3.7 14.4837 3.7 14.4865 3.7C14.4893 3.7 14.4921 3.7 14.4949 3.7C14.4977 3.7 14.5005 3.7 14.5033 3.7C14.5061 3.7 14.5089 3.7 14.5116 3.7C14.5144 3.7 14.5172 3.7 14.52 3.7C14.5228 3.7 14.5256 3.7 14.5284 3.7C14.5312 3.7 14.5339 3.7 14.5367 3.7C14.5395 3.7 14.5423 3.7 14.5451 3.7C14.5479 3.7 14.5507 3.7 14.5534 3.7C14.5562 3.7 14.559 3.7 14.5618 3.7C14.5646 3.7 14.5673 3.7 14.5701 3.7C14.5729 3.7 14.5757 3.7 14.5785 3.7C14.5812 3.7 14.584 3.7 14.5868 3.7C14.5896 3.7 14.5923 3.7 14.5951 3.7C14.5979 3.7 14.6007 3.7 14.6034 3.7C14.6062 3.7 14.609 3.7 14.6118 3.7C14.6145 3.7 14.6173 3.7 14.6201 3.7C14.6229 3.7 14.6256 3.7 14.6284 3.7C14.6312 3.7 14.6339 3.7 14.6367 3.7C14.6395 3.7 14.6422 3.7 14.645 3.7C14.6478 3.7 14.6505 3.7 14.6533 3.7C14.6561 3.7 14.6588 3.7 14.6616 3.7C14.6644 3.7 14.6671 3.7 14.6699 3.7C14.6727 3.7 14.6754 3.7 14.6782 3.7C14.6809 3.7 14.6837 3.7 14.6865 3.7C14.6892 3.7 14.692 3.7 14.6947 3.7C14.6975 3.7 14.7003 3.7 14.703 3.7C14.7058 3.7 14.7085 3.7 14.7113 3.7C14.714 3.7 14.7168 3.7 14.7196 3.7C14.7223 3.7 14.7251 3.7 14.7278 3.7C14.7306 3.7 14.7333 3.7 14.7361 3.7C14.7388 3.7 14.7416 3.7 14.7443 3.7C14.7471 3.7 14.7498 3.7 14.7526 3.7C14.7553 3.7 14.7581 3.7 14.7608 3.7C14.7636 3.7 14.7663 3.7 14.7691 3.7C14.7718 3.7 14.7746 3.7 14.7773 3.7C14.78 3.7 14.7828 3.7 14.7855 3.7C14.7883 3.7 14.791 3.7 14.7938 3.7C14.7965 3.7 14.7992 3.7 14.802 3.7C14.8047 3.7 14.8075 3.7 14.8102 3.7C14.8129 3.7 14.8157 3.7 14.8184 3.7C14.8212 3.7 14.8239 3.7 14.8266 3.7C14.8294 3.7 14.8321 3.7 14.8348 3.7C14.8376 3.7 14.8403 3.7 14.843 3.7C14.8458 3.7 14.8485 3.7 14.8512 3.7C14.854 3.7 14.8567 3.7 14.8594 3.7C14.8622 3.7 14.8649 3.7 14.8676 3.7C14.8703 3.7 14.8731 3.7 14.8758 3.7C14.8785 3.7 14.8813 3.7 14.884 3.7C14.8867 3.7 14.8894 3.7 14.8922 3.7C14.8949 3.7 14.8976 3.7 14.9003 3.7C14.9031 3.7 14.9058 3.7 14.9085 3.7C14.9112 3.7 14.9139 3.7 14.9167 3.7C14.9194 3.7 14.9221 3.7 14.9248 3.7C14.9275 3.7 14.9303 3.7 14.933 3.7C14.9357 3.7 14.9384 3.7 14.9411 3.7C14.9438 3.7 14.9465 3.7 14.9493 3.7C14.952 3.7 14.9547 3.7 14.9574 3.7C14.9601 3.7 14.9628 3.7 14.9655 3.7C14.9682 3.7 14.971 3.7 14.9737 3.7C14.9764 3.7 14.9791 3.7 14.9818 3.7C14.9845 3.7 14.9872 3.7 14.9899 3.7C14.9926 3.7 14.9953 3.7 14.998 3.7C15.0007 3.7 15.0034 3.7 15.0061 3.7C15.0088 3.7 15.0115 3.7 15.0143 3.7C15.017 3.7 15.0197 3.7 15.0224 3.7C15.0251 3.7 15.0278 3.7 15.0305 3.7C15.0332 3.7 15.0359 3.7 15.0385 3.7C15.0412 3.7 15.0439 3.7 15.0466 3.7C15.0493 3.7 15.052 3.7 15.0547 3.7C15.0574 3.7 15.0601 3.7 15.0628 3.7C15.0655 3.7 15.0682 3.7 15.0709 3.7C15.0736 3.7 15.0763 3.7 15.079 3.7C15.0816 3.7 15.0843 3.7 15.087 3.7C15.0897 3.7 15.0924 3.7 15.0951 3.7C15.0978 3.7 15.1005 3.7 15.1031 3.7C15.1058 3.7 15.1085 3.7 15.1112 3.7C15.1139 3.7 15.1166 3.7 15.1192 3.7C15.1219 3.7 15.1246 3.7 15.1273 3.7C15.13 3.7 15.1326 3.7 15.1353 3.7C15.138 3.7 15.1407 3.7 15.1434 3.7C15.146 3.7 15.1487 3.7 15.1514 3.7C15.1541 3.7 15.1567 3.7 15.1594 3.7C15.1621 3.7 15.1648 3.7 15.1674 3.7C15.1701 3.7 15.1728 3.7 15.1754 3.7C15.1781 3.7 15.1808 3.7 15.1834 3.7C15.1861 3.7 15.1888 3.7 15.1915 3.7C15.1941 3.7 15.1968 3.7 15.1995 3.7C15.2021 3.7 15.2048 3.7 15.2075 3.7C15.2101 3.7 15.2128 3.7 15.2154 3.7C15.2181 3.7 15.2208 3.7 15.2234 3.7C15.2261 3.7 15.2288 3.7 15.2314 3.7C15.2341 3.7 15.2367 3.7 15.2394 3.7C15.242 3.7 15.2447 3.7 15.2474 3.7C15.25 3.7 15.2527 3.7 15.2553 3.7C15.258 3.7 15.2606 3.7 15.2633 3.7C15.2659 3.7 15.2686 3.7 15.2712 3.7C15.2739 3.7 15.2765 3.7 15.2792 3.7C15.2818 3.7 15.2845 3.7 15.2871 3.7C15.2898 3.7 15.2924 3.7 15.2951 3.7C15.2977 3.7 15.3004 3.7 15.303 3.7C15.3057 3.7 15.3083 3.7 15.311 3.7C15.3136 3.7 15.3162 3.7 15.3189 3.7C15.3215 3.7 15.3242 3.7 15.3268 3.7C15.3294 3.7 15.3321 3.7 15.3347 3.7C15.3374 3.7 15.34 3.7 15.3426 3.7C15.3453 3.7 15.3479 3.7 15.3505 3.7C15.3532 3.7 15.3558 3.7 15.3584 3.7C15.3611 3.7 15.3637 3.7 15.3663 3.7C15.369 3.7 15.3716 3.7 15.3742 3.7C15.3769 3.7 15.3795 3.7 15.3821 3.7C15.3848 3.7 15.3874 3.7 15.39 3.7C15.3926 3.7 15.3953 3.7 15.3979 3.7C15.4005 3.7 15.4031 3.7 15.4058 3.7C15.4084 3.7 15.411 3.7 15.4136 3.7C15.4163 3.7 15.4189 3.7 15.4215 3.7C15.4241 3.7 15.4267 3.7 15.4294 3.7C15.432 3.7 15.4346 3.7 15.4372 3.7C15.4398 3.7 15.4424 3.7 15.4451 3.7C15.4477 3.7 15.4503 3.7 15.4529 3.7C15.4555 3.7 15.4581 3.7 15.4607 3.7C15.4633 3.7 15.466 3.7 15.4686 3.7C15.4712 3.7 15.4738 3.7 15.4764 3.7C15.479 3.7 15.4816 3.7 15.4842 3.7C15.4868 3.7 15.4894 3.7 15.492 3.7C15.4946 3.7 15.4972 3.7 15.4998 3.7C15.5024 3.7 15.5051 3.7 15.5077 3.7C15.5103 3.7 15.5129 3.7 15.5155 3.7C15.5181 3.7 15.5207 3.7 15.5233 3.7C15.5258 3.7 15.5284 3.7 15.531 3.7C15.5336 3.7 15.5362 3.7 15.5388 3.7C15.5414 3.7 15.544 3.7 15.5466 3.7C15.5492 3.7 15.5518 3.7 15.5544 3.7C15.557 3.7 15.5596 3.7 15.5622 3.7C15.5647 3.7 15.5673 3.7 15.5699 3.7C15.5725 3.7 15.5751 3.7 15.5777 3.7C15.5803 3.7 15.5829 3.7 15.5854 3.7C15.588 3.7 15.5906 3.7 15.5932 3.7C15.5958 3.7 15.5984 3.7 15.6009 3.7C15.6035 3.7 15.6061 3.7 15.6087 3.7C15.6113 3.7 15.6138 3.7 15.6164 3.7C15.619 3.7 15.6216 3.7 15.6241 3.7C15.6267 3.7 15.6293 3.7 15.6319 3.7C15.6344 3.7 15.637 3.7 15.6396 3.7C15.6421 3.7 15.6447 3.7 15.6473 3.7C15.6499 3.7 15.6524 3.7 15.655 3.7C15.6576 3.7 15.6601 3.7 15.6627 3.7C15.6653 3.7 15.6678 3.7 15.6704 3.7C15.673 3.7 15.6755 3.7 15.6781 3.7C15.6807 3.7 15.6832 3.7 15.6858 3.7C15.6883 3.7 15.6909 3.7 15.6935 3.7C15.696 3.7 15.6986 3.7 15.7011 3.7C15.7037 3.7 15.7062 3.7 15.7088 3.7C15.7114 3.7 15.7139 3.7 15.7165 3.7C15.719 3.7 15.7216 3.7 15.7241 3.7C15.7267 3.7 15.7292 3.7 15.7318 3.7C15.7343 3.7 15.7369 3.7 15.7394 3.7C15.742 3.7 15.7445 3.7 15.7471 3.7C15.7496 3.7 15.7522 3.7 15.7547 3.7C15.7573 3.7 15.7598 3.7 15.7623 3.7C15.7649 3.7 15.7674 3.7 15.77 3.7C15.7725 3.7 15.775 3.7 15.7776 3.7C15.7801 3.7 15.7827 3.7 15.7852 3.7C15.7877 3.7 15.7903 3.7 15.7928 3.7C15.7954 3.7 15.7979 3.7 15.8004 3.7C15.803 3.7 15.8055 3.7 15.808 3.7C15.8106 3.7 15.8131 3.7 15.8156 3.7C15.8181 3.7 15.8207 3.7 15.8232 3.7C15.8257 3.7 15.8283 3.7 15.8308 3.7C15.8333 3.7 15.8358 3.7 15.8384 3.7C15.8409 3.7 15.8434 3.7 15.8459 3.7C15.8485 3.7 15.851 3.7 15.8535 3.7C15.856 3.7 15.8585 3.7 15.8611 3.7C15.8636 3.7 15.8661 3.7 15.8686 3.7C15.8711 3.7 15.8737 3.7 15.8762 3.7C15.8787 3.7 15.8812 3.7 15.8837 3.7C15.8862 3.7 15.8887 3.7 15.8912 3.7C15.8938 3.7 15.8963 3.7 15.8988 3.7C15.9013 3.7 15.9038 3.7 15.9063 3.7C15.9088 3.7 15.9113 3.7 15.9138 3.7C15.9163 3.7 15.9188 3.7 15.9213 3.7C15.9238 3.7 15.9264 3.7 15.9289 3.7C15.9314 3.7 15.9339 3.7 15.9364 3.7C15.9389 3.7 15.9414 3.7 15.9439 3.7C15.9464 3.7 15.9489 3.7 15.9514 3.7C15.9538 3.7 15.9563 3.7 15.9588 3.7C15.9613 3.7 15.9638 3.7 15.9663 3.7C15.9688 3.7 15.9713 3.7 15.9738 3.7C15.9763 3.7 15.9788 3.7 15.9813 3.7C15.9838 3.7 15.9862 3.7 15.9887 3.7C15.9912 3.7 15.9937 3.7 15.9962 3.7C15.9987 3.7 16.0012 3.7 16.0036 3.7C16.0061 3.7 16.0086 3.7 16.0111 3.7C16.0136 3.7 16.0161 3.7 16.0185 3.7C16.021 3.7 16.0235 3.7 16.026 3.7C16.0284 3.7 16.0309 3.7 16.0334 3.7C16.0359 3.7 16.0384 3.7 16.0408 3.7C16.0433 3.7 16.0458 3.7 16.0482 3.7C16.0507 3.7 16.0532 3.7 16.0557 3.7C16.0581 3.7 16.0606 3.7 16.0631 3.7C16.0655 3.7 16.068 3.7 16.0705 3.7C16.0729 3.7 16.0754 3.7 16.0779 3.7C16.0803 3.7 16.0828 3.7 16.0852 3.7C16.0877 3.7 16.0902 3.7 16.0926 3.7C16.0951 3.7 16.0976 3.7 16.1 3.7C16.1025 3.7 16.1049 3.7 16.1074 3.7C16.1098 3.7 16.1123 3.7 16.1147 3.7C16.1172 3.7 16.1197 3.7 16.1221 3.7C16.1246 3.7 16.127 3.7 16.1295 3.7C16.1319 3.7 16.1344 3.7 16.1368 3.7C16.1393 3.7 16.1417 3.7 16.1442 3.7C16.1466 3.7 16.149 3.7 16.1515 3.7C16.1539 3.7 16.1564 3.7 16.1588 3.7C16.1613 3.7 16.1637 3.7 16.1661 3.7C16.1686 3.7 16.171 3.7 16.1735 3.7C16.1759 3.7 16.1783 3.7 16.1808 3.7C16.1832 3.7 16.1856 3.7 16.1881 3.7C16.1905 3.7 16.193 3.7 16.1954 3.7C16.1978 3.7 16.2002 3.7 16.2027 3.7C16.2051 3.7 16.2075 3.7 16.21 3.7C16.2124 3.7 16.2148 3.7 16.2172 3.7C16.2197 3.7 16.2221 3.7 16.2245 3.7C16.227 3.7 16.2294 3.7 16.2318 3.7C16.2342 3.7 16.2366 3.7 16.2391 3.7C16.2415 3.7 16.2439 3.7 16.2463 3.7C16.2487 3.7 16.2512 3.7 16.2536 3.7C16.256 3.7 16.2584 3.7 16.2608 3.7C16.2632 3.7 16.2656 3.7 16.2681 3.7C16.2705 3.7 16.2729 3.7 16.2753 3.7C16.2777 3.7 16.2801 3.7 16.2825 3.7C16.2849 3.7 16.2873 3.7 16.2897 3.7C16.2922 3.7 16.2946 3.7 16.297 3.7C16.2994 3.7 16.3018 3.7 16.3042 3.7C16.3066 3.7 16.309 3.7 16.3114 3.7C16.3138 3.7 16.3162 3.7 16.3186 3.7C16.321 3.7 16.3234 3.7 16.3258 3.7C16.3282 3.7 16.3306 3.7 16.3329 3.7C16.3353 3.7 16.3377 3.7 16.3401 3.7C16.3425 3.7 16.3449 3.7 16.3473 3.7C16.3497 3.7 16.3521 3.7 16.3545 3.7C16.3569 3.7 16.3592 3.7 16.3616 3.7C16.364 3.7 16.3664 3.7 16.3688 3.7C16.3712 3.7 16.3735 3.7 16.3759 3.7C16.3783 3.7 16.3807 3.7 16.3831 3.7C16.3855 3.7 16.3878 3.7 16.3902 3.7C16.3926 3.7 16.395 3.7 16.3973 3.7C16.3997 3.7 16.4021 3.7 16.4045 3.7C16.4068 3.7 16.4092 3.7 16.4116 3.7C16.4139 3.7 16.4163 3.7 16.4187 3.7C16.4211 3.7 16.4234 3.7 16.4258 3.7C16.4282 3.7 16.4305 3.7 16.4329 3.7C16.4353 3.7 16.4376 3.7 16.44 3.7C16.4423 3.7 16.4447 3.7 16.4471 3.7C16.4494 3.7 16.4518 3.7 16.4541 3.7C16.4565 3.7 16.4589 3.7 16.4612 3.7C16.4636 3.7 16.4659 3.7 16.4683 3.7C16.4706 3.7 16.473 3.7 16.4753 3.7C16.4777 3.7 16.4801 3.7 16.4824 3.7C16.4848 3.7 16.4871 3.7 16.4894 3.7C16.4918 3.7 16.4941 3.7 16.4965 3.7C16.4988 3.7 16.5012 3.7 16.5035 3.7C16.5059 3.7 16.5082 3.7 16.5106 3.7C16.5129 3.7 16.5152 3.7 16.5176 3.7C16.5199 3.7 16.5223 3.7 16.5246 3.7C16.5269 3.7 16.5293 3.7 16.5316 3.7C16.5339 3.7 16.5363 3.7 16.5386 3.7C16.5409 3.7 16.5433 3.7 16.5456 3.7C16.5479 3.7 16.5503 3.7 16.5526 3.7C16.5549 3.7 16.5572 3.7 16.5596 3.7C16.5619 3.7 16.5642 3.7 16.5665 3.7C16.5689 3.7 16.5712 3.7 16.5735 3.7C16.5758 3.7 16.5782 3.7 16.5805 3.7C16.5828 3.7 16.5851 3.7 16.5874 3.7C16.5898 3.7 16.5921 3.7 16.5944 3.7C16.5967 3.7 16.599 3.7 16.6013 3.7C16.6036 3.7 16.606 3.7 16.6083 3.7C16.6106 3.7 16.6129 3.7 16.6152 3.7C16.6175 3.7 16.6198 3.7 16.6221 3.7C16.6244 3.7 16.6267 3.7 16.629 3.7C16.6314 3.7 16.6337 3.7 16.636 3.7C16.6383 3.7 16.6406 3.7 16.6429 3.7C16.6452 3.7 16.6475 3.7 16.6498 3.7C16.6521 3.7 16.6544 3.7 16.6567 3.7C16.659 3.7 16.6612 3.7 16.6635 3.7C16.6658 3.7 16.6681 3.7 16.6704 3.7C16.6727 3.7 16.675 3.7 16.6773 3.7L16.6773 2.3C16.675 2.3 16.6727 2.3 16.6704 2.3C16.6681 2.3 16.6658 2.3 16.6635 2.3C16.6612 2.3 16.659 2.3 16.6567 2.3C16.6544 2.3 16.6521 2.3 16.6498 2.3C16.6475 2.3 16.6452 2.3 16.6429 2.3C16.6406 2.3 16.6383 2.3 16.636 2.3C16.6337 2.3 16.6314 2.3 16.629 2.3C16.6267 2.3 16.6244 2.3 16.6221 2.3C16.6198 2.3 16.6175 2.3 16.6152 2.3C16.6129 2.3 16.6106 2.3 16.6083 2.3C16.606 2.3 16.6036 2.3 16.6013 2.3C16.599 2.3 16.5967 2.3 16.5944 2.3C16.5921 2.3 16.5898 2.3 16.5874 2.3C16.5851 2.3 16.5828 2.3 16.5805 2.3C16.5782 2.3 16.5758 2.3 16.5735 2.3C16.5712 2.3 16.5689 2.3 16.5665 2.3C16.5642 2.3 16.5619 2.3 16.5596 2.3C16.5572 2.3 16.5549 2.3 16.5526 2.3C16.5503 2.3 16.5479 2.3 16.5456 2.3C16.5433 2.3 16.5409 2.3 16.5386 2.3C16.5363 2.3 16.5339 2.3 16.5316 2.3C16.5293 2.3 16.5269 2.3 16.5246 2.3C16.5223 2.3 16.5199 2.3 16.5176 2.3C16.5152 2.3 16.5129 2.3 16.5106 2.3C16.5082 2.3 16.5059 2.3 16.5035 2.3C16.5012 2.3 16.4988 2.3 16.4965 2.3C16.4941 2.3 16.4918 2.3 16.4894 2.3C16.4871 2.3 16.4848 2.3 16.4824 2.3C16.4801 2.3 16.4777 2.3 16.4753 2.3C16.473 2.3 16.4706 2.3 16.4683 2.3C16.4659 2.3 16.4636 2.3 16.4612 2.3C16.4589 2.3 16.4565 2.3 16.4541 2.3C16.4518 2.3 16.4494 2.3 16.4471 2.3C16.4447 2.3 16.4423 2.3 16.44 2.3C16.4376 2.3 16.4353 2.3 16.4329 2.3C16.4305 2.3 16.4282 2.3 16.4258 2.3C16.4234 2.3 16.4211 2.3 16.4187 2.3C16.4163 2.3 16.4139 2.3 16.4116 2.3C16.4092 2.3 16.4068 2.3 16.4045 2.3C16.4021 2.3 16.3997 2.3 16.3973 2.3C16.395 2.3 16.3926 2.3 16.3902 2.3C16.3878 2.3 16.3855 2.3 16.3831 2.3C16.3807 2.3 16.3783 2.3 16.3759 2.3C16.3735 2.3 16.3712 2.3 16.3688 2.3C16.3664 2.3 16.364 2.3 16.3616 2.3C16.3592 2.3 16.3569 2.3 16.3545 2.3C16.3521 2.3 16.3497 2.3 16.3473 2.3C16.3449 2.3 16.3425 2.3 16.3401 2.3C16.3377 2.3 16.3353 2.3 16.3329 2.3C16.3306 2.3 16.3282 2.3 16.3258 2.3C16.3234 2.3 16.321 2.3 16.3186 2.3C16.3162 2.3 16.3138 2.3 16.3114 2.3C16.309 2.3 16.3066 2.3 16.3042 2.3C16.3018 2.3 16.2994 2.3 16.297 2.3C16.2946 2.3 16.2922 2.3 16.2897 2.3C16.2873 2.3 16.2849 2.3 16.2825 2.3C16.2801 2.3 16.2777 2.3 16.2753 2.3C16.2729 2.3 16.2705 2.3 16.2681 2.3C16.2656 2.3 16.2632 2.3 16.2608 2.3C16.2584 2.3 16.256 2.3 16.2536 2.3C16.2512 2.3 16.2487 2.3 16.2463 2.3C16.2439 2.3 16.2415 2.3 16.2391 2.3C16.2366 2.3 16.2342 2.3 16.2318 2.3C16.2294 2.3 16.227 2.3 16.2245 2.3C16.2221 2.3 16.2197 2.3 16.2172 2.3C16.2148 2.3 16.2124 2.3 16.21 2.3C16.2075 2.3 16.2051 2.3 16.2027 2.3C16.2002 2.3 16.1978 2.3 16.1954 2.3C16.193 2.3 16.1905 2.3 16.1881 2.3C16.1856 2.3 16.1832 2.3 16.1808 2.3C16.1783 2.3 16.1759 2.3 16.1735 2.3C16.171 2.3 16.1686 2.3 16.1661 2.3C16.1637 2.3 16.1613 2.3 16.1588 2.3C16.1564 2.3 16.1539 2.3 16.1515 2.3C16.149 2.3 16.1466 2.3 16.1442 2.3C16.1417 2.3 16.1393 2.3 16.1368 2.3C16.1344 2.3 16.1319 2.3 16.1295 2.3C16.127 2.3 16.1246 2.3 16.1221 2.3C16.1197 2.3 16.1172 2.3 16.1147 2.3C16.1123 2.3 16.1098 2.3 16.1074 2.3C16.1049 2.3 16.1025 2.3 16.1 2.3C16.0976 2.3 16.0951 2.3 16.0926 2.3C16.0902 2.3 16.0877 2.3 16.0852 2.3C16.0828 2.3 16.0803 2.3 16.0779 2.3C16.0754 2.3 16.0729 2.3 16.0705 2.3C16.068 2.3 16.0655 2.3 16.0631 2.3C16.0606 2.3 16.0581 2.3 16.0557 2.3C16.0532 2.3 16.0507 2.3 16.0482 2.3C16.0458 2.3 16.0433 2.3 16.0408 2.3C16.0384 2.3 16.0359 2.3 16.0334 2.3C16.0309 2.3 16.0284 2.3 16.026 2.3C16.0235 2.3 16.021 2.3 16.0185 2.3C16.0161 2.3 16.0136 2.3 16.0111 2.3C16.0086 2.3 16.0061 2.3 16.0036 2.3C16.0012 2.3 15.9987 2.3 15.9962 2.3C15.9937 2.3 15.9912 2.3 15.9887 2.3C15.9862 2.3 15.9838 2.3 15.9813 2.3C15.9788 2.3 15.9763 2.3 15.9738 2.3C15.9713 2.3 15.9688 2.3 15.9663 2.3C15.9638 2.3 15.9613 2.3 15.9588 2.3C15.9563 2.3 15.9538 2.3 15.9514 2.3C15.9489 2.3 15.9464 2.3 15.9439 2.3C15.9414 2.3 15.9389 2.3 15.9364 2.3C15.9339 2.3 15.9314 2.3 15.9289 2.3C15.9264 2.3 15.9238 2.3 15.9213 2.3C15.9188 2.3 15.9163 2.3 15.9138 2.3C15.9113 2.3 15.9088 2.3 15.9063 2.3C15.9038 2.3 15.9013 2.3 15.8988 2.3C15.8963 2.3 15.8938 2.3 15.8912 2.3C15.8887 2.3 15.8862 2.3 15.8837 2.3C15.8812 2.3 15.8787 2.3 15.8762 2.3C15.8737 2.3 15.8711 2.3 15.8686 2.3C15.8661 2.3 15.8636 2.3 15.8611 2.3C15.8585 2.3 15.856 2.3 15.8535 2.3C15.851 2.3 15.8485 2.3 15.8459 2.3C15.8434 2.3 15.8409 2.3 15.8384 2.3C15.8358 2.3 15.8333 2.3 15.8308 2.3C15.8283 2.3 15.8257 2.3 15.8232 2.3C15.8207 2.3 15.8181 2.3 15.8156 2.3C15.8131 2.3 15.8106 2.3 15.808 2.3C15.8055 2.3 15.803 2.3 15.8004 2.3C15.7979 2.3 15.7954 2.3 15.7928 2.3C15.7903 2.3 15.7877 2.3 15.7852 2.3C15.7827 2.3 15.7801 2.3 15.7776 2.3C15.775 2.3 15.7725 2.3 15.77 2.3C15.7674 2.3 15.7649 2.3 15.7623 2.3C15.7598 2.3 15.7573 2.3 15.7547 2.3C15.7522 2.3 15.7496 2.3 15.7471 2.3C15.7445 2.3 15.742 2.3 15.7394 2.3C15.7369 2.3 15.7343 2.3 15.7318 2.3C15.7292 2.3 15.7267 2.3 15.7241 2.3C15.7216 2.3 15.719 2.3 15.7165 2.3C15.7139 2.3 15.7114 2.3 15.7088 2.3C15.7062 2.3 15.7037 2.3 15.7011 2.3C15.6986 2.3 15.696 2.3 15.6935 2.3C15.6909 2.3 15.6883 2.3 15.6858 2.3C15.6832 2.3 15.6807 2.3 15.6781 2.3C15.6755 2.3 15.673 2.3 15.6704 2.3C15.6678 2.3 15.6653 2.3 15.6627 2.3C15.6601 2.3 15.6576 2.3 15.655 2.3C15.6524 2.3 15.6499 2.3 15.6473 2.3C15.6447 2.3 15.6421 2.3 15.6396 2.3C15.637 2.3 15.6344 2.3 15.6319 2.3C15.6293 2.3 15.6267 2.3 15.6241 2.3C15.6216 2.3 15.619 2.3 15.6164 2.3C15.6138 2.3 15.6113 2.3 15.6087 2.3C15.6061 2.3 15.6035 2.3 15.6009 2.3C15.5984 2.3 15.5958 2.3 15.5932 2.3C15.5906 2.3 15.588 2.3 15.5854 2.3C15.5829 2.3 15.5803 2.3 15.5777 2.3C15.5751 2.3 15.5725 2.3 15.5699 2.3C15.5673 2.3 15.5647 2.3 15.5622 2.3C15.5596 2.3 15.557 2.3 15.5544 2.3C15.5518 2.3 15.5492 2.3 15.5466 2.3C15.544 2.3 15.5414 2.3 15.5388 2.3C15.5362 2.3 15.5336 2.3 15.531 2.3C15.5284 2.3 15.5258 2.3 15.5233 2.3C15.5207 2.3 15.5181 2.3 15.5155 2.3C15.5129 2.3 15.5103 2.3 15.5077 2.3C15.5051 2.3 15.5024 2.3 15.4998 2.3C15.4972 2.3 15.4946 2.3 15.492 2.3C15.4894 2.3 15.4868 2.3 15.4842 2.3C15.4816 2.3 15.479 2.3 15.4764 2.3C15.4738 2.3 15.4712 2.3 15.4686 2.3C15.466 2.3 15.4633 2.3 15.4607 2.3C15.4581 2.3 15.4555 2.3 15.4529 2.3C15.4503 2.3 15.4477 2.3 15.4451 2.3C15.4424 2.3 15.4398 2.3 15.4372 2.3C15.4346 2.3 15.432 2.3 15.4294 2.3C15.4267 2.3 15.4241 2.3 15.4215 2.3C15.4189 2.3 15.4163 2.3 15.4136 2.3C15.411 2.3 15.4084 2.3 15.4058 2.3C15.4031 2.3 15.4005 2.3 15.3979 2.3C15.3953 2.3 15.3926 2.3 15.39 2.3C15.3874 2.3 15.3848 2.3 15.3821 2.3C15.3795 2.3 15.3769 2.3 15.3742 2.3C15.3716 2.3 15.369 2.3 15.3663 2.3C15.3637 2.3 15.3611 2.3 15.3584 2.3C15.3558 2.3 15.3532 2.3 15.3505 2.3C15.3479 2.3 15.3453 2.3 15.3426 2.3C15.34 2.3 15.3374 2.3 15.3347 2.3C15.3321 2.3 15.3294 2.3 15.3268 2.3C15.3242 2.3 15.3215 2.3 15.3189 2.3C15.3162 2.3 15.3136 2.3 15.311 2.3C15.3083 2.3 15.3057 2.3 15.303 2.3C15.3004 2.3 15.2977 2.3 15.2951 2.3C15.2924 2.3 15.2898 2.3 15.2871 2.3C15.2845 2.3 15.2818 2.3 15.2792 2.3C15.2765 2.3 15.2739 2.3 15.2712 2.3C15.2686 2.3 15.2659 2.3 15.2633 2.3C15.2606 2.3 15.258 2.3 15.2553 2.3C15.2527 2.3 15.25 2.3 15.2474 2.3C15.2447 2.3 15.242 2.3 15.2394 2.3C15.2367 2.3 15.2341 2.3 15.2314 2.3C15.2288 2.3 15.2261 2.3 15.2234 2.3C15.2208 2.3 15.2181 2.3 15.2154 2.3C15.2128 2.3 15.2101 2.3 15.2075 2.3C15.2048 2.3 15.2021 2.3 15.1995 2.3C15.1968 2.3 15.1941 2.3 15.1915 2.3C15.1888 2.3 15.1861 2.3 15.1834 2.3C15.1808 2.3 15.1781 2.3 15.1754 2.3C15.1728 2.3 15.1701 2.3 15.1674 2.3C15.1648 2.3 15.1621 2.3 15.1594 2.3C15.1567 2.3 15.1541 2.3 15.1514 2.3C15.1487 2.3 15.146 2.3 15.1434 2.3C15.1407 2.3 15.138 2.3 15.1353 2.3C15.1326 2.3 15.13 2.3 15.1273 2.3C15.1246 2.3 15.1219 2.3 15.1192 2.3C15.1166 2.3 15.1139 2.3 15.1112 2.3C15.1085 2.3 15.1058 2.3 15.1031 2.3C15.1005 2.3 15.0978 2.3 15.0951 2.3C15.0924 2.3 15.0897 2.3 15.087 2.3C15.0843 2.3 15.0816 2.3 15.079 2.3C15.0763 2.3 15.0736 2.3 15.0709 2.3C15.0682 2.3 15.0655 2.3 15.0628 2.3C15.0601 2.3 15.0574 2.3 15.0547 2.3C15.052 2.3 15.0493 2.3 15.0466 2.3C15.0439 2.3 15.0412 2.3 15.0385 2.3C15.0359 2.3 15.0332 2.3 15.0305 2.3C15.0278 2.3 15.0251 2.3 15.0224 2.3C15.0197 2.3 15.017 2.3 15.0143 2.3C15.0115 2.3 15.0088 2.3 15.0061 2.3C15.0034 2.3 15.0007 2.3 14.998 2.3C14.9953 2.3 14.9926 2.3 14.9899 2.3C14.9872 2.3 14.9845 2.3 14.9818 2.3C14.9791 2.3 14.9764 2.3 14.9737 2.3C14.971 2.3 14.9682 2.3 14.9655 2.3C14.9628 2.3 14.9601 2.3 14.9574 2.3C14.9547 2.3 14.952 2.3 14.9493 2.3C14.9465 2.3 14.9438 2.3 14.9411 2.3C14.9384 2.3 14.9357 2.3 14.933 2.3C14.9303 2.3 14.9275 2.3 14.9248 2.3C14.9221 2.3 14.9194 2.3 14.9167 2.3C14.9139 2.3 14.9112 2.3 14.9085 2.3C14.9058 2.3 14.9031 2.3 14.9003 2.3C14.8976 2.3 14.8949 2.3 14.8922 2.3C14.8894 2.3 14.8867 2.3 14.884 2.3C14.8813 2.3 14.8785 2.3 14.8758 2.3C14.8731 2.3 14.8703 2.3 14.8676 2.3C14.8649 2.3 14.8622 2.3 14.8594 2.3C14.8567 2.3 14.854 2.3 14.8512 2.3C14.8485 2.3 14.8458 2.3 14.843 2.3C14.8403 2.3 14.8376 2.3 14.8348 2.3C14.8321 2.3 14.8294 2.3 14.8266 2.3C14.8239 2.3 14.8212 2.3 14.8184 2.3C14.8157 2.3 14.8129 2.3 14.8102 2.3C14.8075 2.3 14.8047 2.3 14.802 2.3C14.7992 2.3 14.7965 2.3 14.7938 2.3C14.791 2.3 14.7883 2.3 14.7855 2.3C14.7828 2.3 14.78 2.3 14.7773 2.3C14.7746 2.3 14.7718 2.3 14.7691 2.3C14.7663 2.3 14.7636 2.3 14.7608 2.3C14.7581 2.3 14.7553 2.3 14.7526 2.3C14.7498 2.3 14.7471 2.3 14.7443 2.3C14.7416 2.3 14.7388 2.3 14.7361 2.3C14.7333 2.3 14.7306 2.3 14.7278 2.3C14.7251 2.3 14.7223 2.3 14.7196 2.3C14.7168 2.3 14.714 2.3 14.7113 2.3C14.7085 2.3 14.7058 2.3 14.703 2.3C14.7003 2.3 14.6975 2.3 14.6947 2.3C14.692 2.3 14.6892 2.3 14.6865 2.3C14.6837 2.3 14.6809 2.3 14.6782 2.3C14.6754 2.3 14.6727 2.3 14.6699 2.3C14.6671 2.3 14.6644 2.3 14.6616 2.3C14.6588 2.3 14.6561 2.3 14.6533 2.3C14.6505 2.3 14.6478 2.3 14.645 2.3C14.6422 2.3 14.6395 2.3 14.6367 2.3C14.6339 2.3 14.6312 2.3 14.6284 2.3C14.6256 2.3 14.6229 2.3 14.6201 2.3C14.6173 2.3 14.6145 2.3 14.6118 2.3C14.609 2.3 14.6062 2.3 14.6034 2.3C14.6007 2.3 14.5979 2.3 14.5951 2.3C14.5923 2.3 14.5896 2.3 14.5868 2.3C14.584 2.3 14.5812 2.3 14.5785 2.3C14.5757 2.3 14.5729 2.3 14.5701 2.3C14.5673 2.3 14.5646 2.3 14.5618 2.3C14.559 2.3 14.5562 2.3 14.5534 2.3C14.5507 2.3 14.5479 2.3 14.5451 2.3C14.5423 2.3 14.5395 2.3 14.5367 2.3C14.5339 2.3 14.5312 2.3 14.5284 2.3C14.5256 2.3 14.5228 2.3 14.52 2.3C14.5172 2.3 14.5144 2.3 14.5116 2.3C14.5089 2.3 14.5061 2.3 14.5033 2.3C14.5005 2.3 14.4977 2.3 14.4949 2.3C14.4921 2.3 14.4893 2.3 14.4865 2.3C14.4837 2.3 14.4809 2.3 14.4781 2.3C14.4754 2.3 14.4726 2.3 14.4698 2.3C14.467 2.3 14.4642 2.3 14.4614 2.3C14.4586 2.3 14.4558 2.3 14.453 2.3C14.4502 2.3 14.4474 2.3 14.4446 2.3C14.4418 2.3 14.439 2.3 14.4362 2.3C14.4334 2.3 14.4306 2.3 14.4278 2.3C14.425 2.3 14.4222 2.3 14.4194 2.3C14.4166 2.3 14.4138 2.3 14.411 2.3C14.4081 2.3 14.4053 2.3 14.4025 2.3C14.3997 2.3 14.3969 2.3 14.3941 2.3C14.3913 2.3 14.3885 2.3 14.3857 2.3C14.3829 2.3 14.3801 2.3 14.3773 2.3C14.3745 2.3 14.3716 2.3 14.3688 2.3C14.366 2.3 14.3632 2.3 14.3604 2.3C14.3576 2.3 14.3548 2.3 14.352 2.3C14.3491 2.3 14.3463 2.3 14.3435 2.3C14.3407 2.3 14.3379 2.3 14.3351 2.3C14.3322 2.3 14.3294 2.3 14.3266 2.3C14.3238 2.3 14.321 2.3 14.3182 2.3C14.3153 2.3 14.3125 2.3 14.3097 2.3C14.3069 2.3 14.3041 2.3 14.3012 2.3C14.2984 2.3 14.2956 2.3 14.2928 2.3C14.2899 2.3 14.2871 2.3 14.2843 2.3C14.2815 2.3 14.2787 2.3 14.2758 2.3C14.273 2.3 14.2702 2.3 14.2673 2.3C14.2645 2.3 14.2617 2.3 14.2589 2.3C14.256 2.3 14.2532 2.3 14.2504 2.3C14.2476 2.3 14.2447 2.3 14.2419 2.3C14.2391 2.3 14.2362 2.3 14.2334 2.3C14.2306 2.3 14.2277 2.3 14.2249 2.3C14.2221 2.3 14.2192 2.3 14.2164 2.3C14.2136 2.3 14.2107 2.3 14.2079 2.3C14.2051 2.3 14.2022 2.3 14.1994 2.3C14.1966 2.3 14.1937 2.3 14.1909 2.3C14.188 2.3 14.1852 2.3 14.1824 2.3C14.1795 2.3 14.1767 2.3 14.1738 2.3C14.171 2.3 14.1682 2.3 14.1653 2.3C14.1625 2.3 14.1596 2.3 14.1568 2.3C14.154 2.3 14.1511 2.3 14.1483 2.3C14.1454 2.3 14.1426 2.3 14.1397 2.3C14.1369 2.3 14.134 2.3 14.1312 2.3C14.1284 2.3 14.1255 2.3 14.1227 2.3C14.1198 2.3 14.117 2.3 14.1141 2.3C14.1113 2.3 14.1084 2.3 14.1056 2.3C14.1027 2.3 14.0999 2.3 14.097 2.3C14.0942 2.3 14.0913 2.3 14.0885 2.3C14.0856 2.3 14.0828 2.3 14.0799 2.3C14.0771 2.3 14.0742 2.3 14.0713 2.3C14.0685 2.3 14.0656 2.3 14.0628 2.3C14.0599 2.3 14.0571 2.3 14.0542 2.3C14.0514 2.3 14.0485 2.3 14.0456 2.3C14.0428 2.3 14.0399 2.3 14.0371 2.3C14.0342 2.3 14.0313 2.3 14.0285 2.3C14.0256 2.3 14.0228 2.3 14.0199 2.3C14.017 2.3 14.0142 2.3 14.0113 2.3C14.0085 2.3 14.0056 2.3 14.0027 2.3C13.9999 2.3 13.997 2.3 13.9941 2.3C13.9913 2.3 13.9884 2.3 13.9855 2.3C13.9827 2.3 13.9798 2.3 13.9769 2.3C13.9741 2.3 13.9712 2.3 13.9683 2.3C13.9655 2.3 13.9626 2.3 13.9597 2.3C13.9569 2.3 13.954 2.3 13.9511 2.3C13.9483 2.3 13.9454 2.3 13.9425 2.3C13.9396 2.3 13.9368 2.3 13.9339 2.3C13.931 2.3 13.9281 2.3 13.9253 2.3C13.9224 2.3 13.9195 2.3 13.9166 2.3C13.9138 2.3 13.9109 2.3 13.908 2.3C13.9051 2.3 13.9023 2.3 13.8994 2.3C13.8965 2.3 13.8936 2.3 13.8908 2.3C13.8879 2.3 13.885 2.3 13.8821 2.3C13.8792 2.3 13.8764 2.3 13.8735 2.3C13.8706 2.3 13.8677 2.3 13.8648 2.3C13.862 2.3 13.8591 2.3 13.8562 2.3C13.8533 2.3 13.8504 2.3 13.8475 2.3C13.8447 2.3 13.8418 2.3 13.8389 2.3C13.836 2.3 13.8331 2.3 13.8302 2.3C13.8273 2.3 13.8245 2.3 13.8216 2.3C13.8187 2.3 13.8158 2.3 13.8129 2.3C13.81 2.3 13.8071 2.3 13.8042 2.3C13.8014 2.3 13.7985 2.3 13.7956 2.3C13.7927 2.3 13.7898 2.3 13.7869 2.3C13.784 2.3 13.7811 2.3 13.7782 2.3C13.7753 2.3 13.7724 2.3 13.7695 2.3C13.7667 2.3 13.7638 2.3 13.7609 2.3C13.758 2.3 13.7551 2.3 13.7522 2.3C13.7493 2.3 13.7464 2.3 13.7435 2.3C13.7406 2.3 13.7377 2.3 13.7348 2.3C13.7319 2.3 13.729 2.3 13.7261 2.3C13.7232 2.3 13.7203 2.3 13.7174 2.3C13.7145 2.3 13.7116 2.3 13.7087 2.3C13.7058 2.3 13.7029 2.3 13.7 2.3C13.6971 2.3 13.6942 2.3 13.6913 2.3C13.6884 2.3 13.6855 2.3 13.6826 2.3C13.6797 2.3 13.6768 2.3 13.6739 2.3C13.671 2.3 13.6681 2.3 13.6651 2.3C13.6622 2.3 13.6593 2.3 13.6564 2.3C13.6535 2.3 13.6506 2.3 13.6477 2.3C13.6448 2.3 13.6419 2.3 13.639 2.3C13.6361 2.3 13.6332 2.3 13.6302 2.3C13.6273 2.3 13.6244 2.3 13.6215 2.3C13.6186 2.3 13.6157 2.3 13.6128 2.3C13.6099 2.3 13.607 2.3 13.604 2.3C13.6011 2.3 13.5982 2.3 13.5953 2.3C13.5924 2.3 13.5895 2.3 13.5866 2.3C13.5836 2.3 13.5807 2.3 13.5778 2.3C13.5749 2.3 13.572 2.3 13.5691 2.3C13.5661 2.3 13.5632 2.3 13.5603 2.3C13.5574 2.3 13.5545 2.3 13.5515 2.3C13.5486 2.3 13.5457 2.3 13.5428 2.3C13.5399 2.3 13.5369 2.3 13.534 2.3C13.5311 2.3 13.5282 2.3 13.5253 2.3C13.5223 2.3 13.5194 2.3 13.5165 2.3C13.5136 2.3 13.5106 2.3 13.5077 2.3C13.5048 2.3 13.5019 2.3 13.4989 2.3C13.496 2.3 13.4931 2.3 13.4902 2.3C13.4872 2.3 13.4843 2.3 13.4814 2.3C13.4785 2.3 13.4755 2.3 13.4726 2.3C13.4697 2.3 13.4668 2.3 13.4638 2.3C13.4609 2.3 13.458 2.3 13.455 2.3C13.4521 2.3 13.4492 2.3 13.4462 2.3C13.4433 2.3 13.4404 2.3 13.4374 2.3C13.4345 2.3 13.4316 2.3 13.4287 2.3C13.4257 2.3 13.4228 2.3 13.4199 2.3C13.4169 2.3 13.414 2.3 13.411 2.3C13.4081 2.3 13.4052 2.3 13.4022 2.3C13.3993 2.3 13.3964 2.3 13.3934 2.3C13.3905 2.3 13.3876 2.3 13.3846 2.3C13.3817 2.3 13.3787 2.3 13.3758 2.3C13.3729 2.3 13.3699 2.3 13.367 2.3C13.3641 2.3 13.3611 2.3 13.3582 2.3C13.3552 2.3 13.3523 2.3 13.3494 2.3C13.3464 2.3 13.3435 2.3 13.3405 2.3C13.3376 2.3 13.3346 2.3 13.3317 2.3C13.3288 2.3 13.3258 2.3 13.3229 2.3C13.3199 2.3 13.317 2.3 13.314 2.3C13.3111 2.3 13.3081 2.3 13.3052 2.3C13.3023 2.3 13.2993 2.3 13.2964 2.3C13.2934 2.3 13.2905 2.3 13.2875 2.3C13.2846 2.3 13.2816 2.3 13.2787 2.3C13.2757 2.3 13.2728 2.3 13.2698 2.3C13.2669 2.3 13.2639 2.3 13.261 2.3C13.258 2.3 13.2551 2.3 13.2521 2.3C13.2492 2.3 13.2462 2.3 13.2433 2.3C13.2403 2.3 13.2374 2.3 13.2344 2.3C13.2315 2.3 13.2285 2.3 13.2256 2.3C13.2226 2.3 13.2196 2.3 13.2167 2.3C13.2137 2.3 13.2108 2.3 13.2078 2.3C13.2049 2.3 13.2019 2.3 13.199 2.3C13.196 2.3 13.193 2.3 13.1901 2.3C13.1871 2.3 13.1842 2.3 13.1812 2.3C13.1783 2.3 13.1753 2.3 13.1723 2.3C13.1694 2.3 13.1664 2.3 13.1635 2.3C13.1605 2.3 13.1575 2.3 13.1546 2.3C13.1516 2.3 13.1487 2.3 13.1457 2.3C13.1427 2.3 13.1398 2.3 13.1368 2.3C13.1338 2.3 13.1309 2.3 13.1279 2.3C13.125 2.3 13.122 2.3 13.119 2.3C13.1161 2.3 13.1131 2.3 13.1101 2.3C13.1072 2.3 13.1042 2.3 13.1012 2.3C13.0983 2.3 13.0953 2.3 13.0923 2.3C13.0894 2.3 13.0864 2.3 13.0834 2.3C13.0805 2.3 13.0775 2.3 13.0745 2.3C13.0716 2.3 13.0686 2.3 13.0656 2.3C13.0627 2.3 13.0597 2.3 13.0567 2.3C13.0538 2.3 13.0508 2.3 13.0478 2.3C13.0448 2.3 13.0419 2.3 13.0389 2.3C13.0359 2.3 13.033 2.3 13.03 2.3C13.027 2.3 13.024 2.3 13.0211 2.3C13.0181 2.3 13.0151 2.3 13.0121 2.3C13.0092 2.3 13.0062 2.3 13.0032 2.3C13.0003 2.3 12.9973 2.3 12.9943 2.3C12.9913 2.3 12.9883 2.3 12.9854 2.3C12.9824 2.3 12.9794 2.3 12.9764 2.3C12.9735 2.3 12.9705 2.3 12.9675 2.3C12.9645 2.3 12.9616 2.3 12.9586 2.3C12.9556 2.3 12.9526 2.3 12.9496 2.3C12.9467 2.3 12.9437 2.3 12.9407 2.3C12.9377 2.3 12.9347 2.3 12.9318 2.3C12.9288 2.3 12.9258 2.3 12.9228 2.3C12.9198 2.3 12.9169 2.3 12.9139 2.3C12.9109 2.3 12.9079 2.3 12.9049 2.3C12.9019 2.3 12.899 2.3 12.896 2.3C12.893 2.3 12.89 2.3 12.887 2.3C12.884 2.3 12.881 2.3 12.8781 2.3C12.8751 2.3 12.8721 2.3 12.8691 2.3C12.8661 2.3 12.8631 2.3 12.8601 2.3C12.8572 2.3 12.8542 2.3 12.8512 2.3C12.8482 2.3 12.8452 2.3 12.8422 2.3C12.8392 2.3 12.8362 2.3 12.8332 2.3C12.8303 2.3 12.8273 2.3 12.8243 2.3C12.8213 2.3 12.8183 2.3 12.8153 2.3C12.8123 2.3 12.8093 2.3 12.8063 2.3C12.8033 2.3 12.8004 2.3 12.7974 2.3C12.7944 2.3 12.7914 2.3 12.7884 2.3C12.7854 2.3 12.7824 2.3 12.7794 2.3C12.7764 2.3 12.7734 2.3 12.7704 2.3C12.7674 2.3 12.7644 2.3 12.7614 2.3C12.7584 2.3 12.7554 2.3 12.7524 2.3C12.7495 2.3 12.7465 2.3 12.7435 2.3C12.7405 2.3 12.7375 2.3 12.7345 2.3C12.7315 2.3 12.7285 2.3 12.7255 2.3C12.7225 2.3 12.7195 2.3 12.7165 2.3C12.7135 2.3 12.7105 2.3 12.7075 2.3C12.7045 2.3 12.7015 2.3 12.6985 2.3C12.6955 2.3 12.6925 2.3 12.6895 2.3C12.6865 2.3 12.6835 2.3 12.6805 2.3C12.6775 2.3 12.6745 2.3 12.6715 2.3C12.6685 2.3 12.6655 2.3 12.6625 2.3C12.6595 2.3 12.6565 2.3 12.6535 2.3C12.6505 2.3 12.6475 2.3 12.6444 2.3C12.6414 2.3 12.6384 2.3 12.6354 2.3C12.6324 2.3 12.6294 2.3 12.6264 2.3C12.6234 2.3 12.6204 2.3 12.6174 2.3C12.6144 2.3 12.6114 2.3 12.6084 2.3C12.6054 2.3 12.6024 2.3 12.5994 2.3C12.5964 2.3 12.5933 2.3 12.5903 2.3C12.5873 2.3 12.5843 2.3 12.5813 2.3C12.5783 2.3 12.5753 2.3 12.5723 2.3C12.5693 2.3 12.5663 2.3 12.5633 2.3C12.5602 2.3 12.5572 2.3 12.5542 2.3C12.5512 2.3 12.5482 2.3 12.5452 2.3C12.5422 2.3 12.5392 2.3 12.5362 2.3C12.5331 2.3 12.5301 2.3 12.5271 2.3C12.5241 2.3 12.5211 2.3 12.5181 2.3C12.5151 2.3 12.5121 2.3 12.509 2.3C12.506 2.3 12.503 2.3 12.5 2.3L12.5 3.7ZM16.6773 20.3C15.505 20.3 14.0434 20.3 12.5 20.3L12.5 21.7C14.0434 21.7 15.505 21.7 16.6773 21.7L16.6773 20.3ZM18.919 5.70783C19.1005 7.59036 19.3 10.0968 19.3 12L20.7 12C20.7 10.0248 20.4946 7.46142 20.3126 5.57347L18.919 5.70783ZM19.3 12C19.3 13.9032 19.1005 16.4096 18.919 18.2922L20.3126 18.4265C20.4946 16.5386 20.7 13.9752 20.7 12L19.3 12ZM16.6773 21.7C18.5453 21.7 20.1315 20.3044 20.3126 18.4265L18.919 18.2922C18.809 19.4338 17.8428 20.3 16.6773 20.3L16.6773 21.7ZM16.6773 3.7C17.8428 3.7 18.809 4.5662 18.919 5.70783L20.3126 5.57347C20.1315 3.69559 18.5453 2.3 16.6773 2.3L16.6773 3.7Z" fill="#222628"/>
</svg>
