<svg width="24" height="24" viewBox="0 0 24 24" fill="none" xmlns="http://www.w3.org/2000/svg">
<path d="M8.33331 12L18.3333 12" stroke="#8E44F4" stroke-width="1.4" stroke-linecap="round"/>
<line x1="19.1515" y1="12" x2="16" y2="8.84853" stroke="#8E44F4" stroke-width="1.2" stroke-linecap="round"/>
<line x1="0.6" y1="-0.6" x2="5.05685" y2="-0.6" transform="matrix(-0.707107 0.707107 0.707107 0.707107 20 12)" stroke="#8E44F4" stroke-width="1.2" stroke-linecap="round"/>
<path d="M11.5 3.7C11.8866 3.7 12.2 3.3866 12.2 3C12.2 2.6134 11.8866 2.3 11.5 2.3L11.5 3.7ZM11.5 21.7C11.8866 21.7 12.2 21.3866 12.2 21C12.2 20.6134 11.8866 20.3 11.5 20.3L11.5 21.7ZM4.38421 5.64065L3.68744 5.57347L4.38421 5.64065ZM4.3842 18.3593L5.08097 18.2922L4.3842 18.3593ZM11.5 20.3C11.497 20.3 11.494 20.3 11.491 20.3C11.4879 20.3 11.4849 20.3 11.4819 20.3C11.4789 20.3 11.4759 20.3 11.4729 20.3C11.4699 20.3 11.4669 20.3 11.4638 20.3C11.4608 20.3 11.4578 20.3 11.4548 20.3C11.4518 20.3 11.4488 20.3 11.4458 20.3C11.4428 20.3 11.4398 20.3 11.4367 20.3C11.4337 20.3 11.4307 20.3 11.4277 20.3C11.4247 20.3 11.4217 20.3 11.4187 20.3C11.4157 20.3 11.4127 20.3 11.4097 20.3C11.4067 20.3 11.4036 20.3 11.4006 20.3C11.3976 20.3 11.3946 20.3 11.3916 20.3C11.3886 20.3 11.3856 20.3 11.3826 20.3C11.3796 20.3 11.3766 20.3 11.3736 20.3C11.3706 20.3 11.3676 20.3 11.3646 20.3C11.3616 20.3 11.3586 20.3 11.3555 20.3C11.3525 20.3 11.3495 20.3 11.3465 20.3C11.3435 20.3 11.3405 20.3 11.3375 20.3C11.3345 20.3 11.3315 20.3 11.3285 20.3C11.3255 20.3 11.3225 20.3 11.3195 20.3C11.3165 20.3 11.3135 20.3 11.3105 20.3C11.3075 20.3 11.3045 20.3 11.3015 20.3C11.2985 20.3 11.2955 20.3 11.2925 20.3C11.2895 20.3 11.2865 20.3 11.2835 20.3C11.2805 20.3 11.2775 20.3 11.2745 20.3C11.2715 20.3 11.2685 20.3 11.2655 20.3C11.2625 20.3 11.2595 20.3 11.2565 20.3C11.2535 20.3 11.2505 20.3 11.2475 20.3C11.2446 20.3 11.2416 20.3 11.2386 20.3C11.2356 20.3 11.2326 20.3 11.2296 20.3C11.2266 20.3 11.2236 20.3 11.2206 20.3C11.2176 20.3 11.2146 20.3 11.2116 20.3C11.2086 20.3 11.2056 20.3 11.2026 20.3C11.1996 20.3 11.1967 20.3 11.1937 20.3C11.1907 20.3 11.1877 20.3 11.1847 20.3C11.1817 20.3 11.1787 20.3 11.1757 20.3C11.1727 20.3 11.1697 20.3 11.1668 20.3C11.1638 20.3 11.1608 20.3 11.1578 20.3C11.1548 20.3 11.1518 20.3 11.1488 20.3C11.1458 20.3 11.1428 20.3 11.1399 20.3C11.1369 20.3 11.1339 20.3 11.1309 20.3C11.1279 20.3 11.1249 20.3 11.1219 20.3C11.119 20.3 11.116 20.3 11.113 20.3C11.11 20.3 11.107 20.3 11.104 20.3C11.101 20.3 11.0981 20.3 11.0951 20.3C11.0921 20.3 11.0891 20.3 11.0861 20.3C11.0831 20.3 11.0802 20.3 11.0772 20.3C11.0742 20.3 11.0712 20.3 11.0682 20.3C11.0653 20.3 11.0623 20.3 11.0593 20.3C11.0563 20.3 11.0533 20.3 11.0504 20.3C11.0474 20.3 11.0444 20.3 11.0414 20.3C11.0384 20.3 11.0355 20.3 11.0325 20.3C11.0295 20.3 11.0265 20.3 11.0236 20.3C11.0206 20.3 11.0176 20.3 11.0146 20.3C11.0116 20.3 11.0087 20.3 11.0057 20.3C11.0027 20.3 10.9997 20.3 10.9968 20.3C10.9938 20.3 10.9908 20.3 10.9878 20.3C10.9849 20.3 10.9819 20.3 10.9789 20.3C10.976 20.3 10.973 20.3 10.97 20.3C10.967 20.3 10.9641 20.3 10.9611 20.3C10.9581 20.3 10.9552 20.3 10.9522 20.3C10.9492 20.3 10.9462 20.3 10.9433 20.3C10.9403 20.3 10.9373 20.3 10.9344 20.3C10.9314 20.3 10.9284 20.3 10.9255 20.3C10.9225 20.3 10.9195 20.3 10.9166 20.3C10.9136 20.3 10.9106 20.3 10.9077 20.3C10.9047 20.3 10.9017 20.3 10.8988 20.3C10.8958 20.3 10.8928 20.3 10.8899 20.3C10.8869 20.3 10.8839 20.3 10.881 20.3C10.878 20.3 10.875 20.3 10.8721 20.3C10.8691 20.3 10.8661 20.3 10.8632 20.3C10.8602 20.3 10.8573 20.3 10.8543 20.3C10.8513 20.3 10.8484 20.3 10.8454 20.3C10.8425 20.3 10.8395 20.3 10.8365 20.3C10.8336 20.3 10.8306 20.3 10.8277 20.3C10.8247 20.3 10.8217 20.3 10.8188 20.3C10.8158 20.3 10.8129 20.3 10.8099 20.3C10.807 20.3 10.804 20.3 10.801 20.3C10.7981 20.3 10.7951 20.3 10.7922 20.3C10.7892 20.3 10.7863 20.3 10.7833 20.3C10.7804 20.3 10.7774 20.3 10.7744 20.3C10.7715 20.3 10.7685 20.3 10.7656 20.3C10.7626 20.3 10.7597 20.3 10.7567 20.3C10.7538 20.3 10.7508 20.3 10.7479 20.3C10.7449 20.3 10.742 20.3 10.739 20.3C10.7361 20.3 10.7331 20.3 10.7302 20.3C10.7272 20.3 10.7243 20.3 10.7213 20.3C10.7184 20.3 10.7154 20.3 10.7125 20.3C10.7095 20.3 10.7066 20.3 10.7036 20.3C10.7007 20.3 10.6977 20.3 10.6948 20.3C10.6919 20.3 10.6889 20.3 10.686 20.3C10.683 20.3 10.6801 20.3 10.6771 20.3C10.6742 20.3 10.6712 20.3 10.6683 20.3C10.6654 20.3 10.6624 20.3 10.6595 20.3C10.6565 20.3 10.6536 20.3 10.6506 20.3C10.6477 20.3 10.6448 20.3 10.6418 20.3C10.6389 20.3 10.6359 20.3 10.633 20.3C10.6301 20.3 10.6271 20.3 10.6242 20.3C10.6212 20.3 10.6183 20.3 10.6154 20.3C10.6124 20.3 10.6095 20.3 10.6066 20.3C10.6036 20.3 10.6007 20.3 10.5978 20.3C10.5948 20.3 10.5919 20.3 10.5889 20.3C10.586 20.3 10.5831 20.3 10.5801 20.3C10.5772 20.3 10.5743 20.3 10.5713 20.3C10.5684 20.3 10.5655 20.3 10.5625 20.3C10.5596 20.3 10.5567 20.3 10.5538 20.3C10.5508 20.3 10.5479 20.3 10.545 20.3C10.542 20.3 10.5391 20.3 10.5362 20.3C10.5332 20.3 10.5303 20.3 10.5274 20.3C10.5245 20.3 10.5215 20.3 10.5186 20.3C10.5157 20.3 10.5128 20.3 10.5098 20.3C10.5069 20.3 10.504 20.3 10.501 20.3C10.4981 20.3 10.4952 20.3 10.4923 20.3C10.4894 20.3 10.4864 20.3 10.4835 20.3C10.4806 20.3 10.4777 20.3 10.4747 20.3C10.4718 20.3 10.4689 20.3 10.466 20.3C10.463 20.3 10.4601 20.3 10.4572 20.3C10.4543 20.3 10.4514 20.3 10.4484 20.3C10.4455 20.3 10.4426 20.3 10.4397 20.3C10.4368 20.3 10.4339 20.3 10.4309 20.3C10.428 20.3 10.4251 20.3 10.4222 20.3C10.4193 20.3 10.4164 20.3 10.4134 20.3C10.4105 20.3 10.4076 20.3 10.4047 20.3C10.4018 20.3 10.3989 20.3 10.396 20.3C10.393 20.3 10.3901 20.3 10.3872 20.3C10.3843 20.3 10.3814 20.3 10.3785 20.3C10.3756 20.3 10.3727 20.3 10.3697 20.3C10.3668 20.3 10.3639 20.3 10.361 20.3C10.3581 20.3 10.3552 20.3 10.3523 20.3C10.3494 20.3 10.3465 20.3 10.3436 20.3C10.3407 20.3 10.3378 20.3 10.3349 20.3C10.3319 20.3 10.329 20.3 10.3261 20.3C10.3232 20.3 10.3203 20.3 10.3174 20.3C10.3145 20.3 10.3116 20.3 10.3087 20.3C10.3058 20.3 10.3029 20.3 10.3 20.3C10.2971 20.3 10.2942 20.3 10.2913 20.3C10.2884 20.3 10.2855 20.3 10.2826 20.3C10.2797 20.3 10.2768 20.3 10.2739 20.3C10.271 20.3 10.2681 20.3 10.2652 20.3C10.2623 20.3 10.2594 20.3 10.2565 20.3C10.2536 20.3 10.2507 20.3 10.2478 20.3C10.2449 20.3 10.242 20.3 10.2391 20.3C10.2362 20.3 10.2333 20.3 10.2305 20.3C10.2276 20.3 10.2247 20.3 10.2218 20.3C10.2189 20.3 10.216 20.3 10.2131 20.3C10.2102 20.3 10.2073 20.3 10.2044 20.3C10.2015 20.3 10.1986 20.3 10.1958 20.3C10.1929 20.3 10.19 20.3 10.1871 20.3C10.1842 20.3 10.1813 20.3 10.1784 20.3C10.1755 20.3 10.1727 20.3 10.1698 20.3C10.1669 20.3 10.164 20.3 10.1611 20.3C10.1582 20.3 10.1553 20.3 10.1525 20.3C10.1496 20.3 10.1467 20.3 10.1438 20.3C10.1409 20.3 10.138 20.3 10.1352 20.3C10.1323 20.3 10.1294 20.3 10.1265 20.3C10.1236 20.3 10.1208 20.3 10.1179 20.3C10.115 20.3 10.1121 20.3 10.1092 20.3C10.1064 20.3 10.1035 20.3 10.1006 20.3C10.0977 20.3 10.0949 20.3 10.092 20.3C10.0891 20.3 10.0862 20.3 10.0834 20.3C10.0805 20.3 10.0776 20.3 10.0747 20.3C10.0719 20.3 10.069 20.3 10.0661 20.3C10.0632 20.3 10.0604 20.3 10.0575 20.3C10.0546 20.3 10.0517 20.3 10.0489 20.3C10.046 20.3 10.0431 20.3 10.0403 20.3C10.0374 20.3 10.0345 20.3 10.0317 20.3C10.0288 20.3 10.0259 20.3 10.0231 20.3C10.0202 20.3 10.0173 20.3 10.0145 20.3C10.0116 20.3 10.0087 20.3 10.0059 20.3C10.003 20.3 10.0001 20.3 9.99727 20.3C9.99441 20.3 9.99154 20.3 9.98868 20.3C9.98582 20.3 9.98296 20.3 9.98009 20.3C9.97723 20.3 9.97437 20.3 9.97151 20.3C9.96865 20.3 9.96579 20.3 9.96293 20.3C9.96007 20.3 9.95722 20.3 9.95436 20.3C9.9515 20.3 9.94864 20.3 9.94579 20.3C9.94293 20.3 9.94007 20.3 9.93722 20.3C9.93436 20.3 9.93151 20.3 9.92865 20.3C9.9258 20.3 9.92294 20.3 9.92009 20.3C9.91724 20.3 9.91438 20.3 9.91153 20.3C9.90868 20.3 9.90583 20.3 9.90298 20.3C9.90013 20.3 9.89728 20.3 9.89443 20.3C9.89158 20.3 9.88873 20.3 9.88588 20.3C9.88303 20.3 9.88018 20.3 9.87734 20.3C9.87449 20.3 9.87164 20.3 9.8688 20.3C9.86595 20.3 9.86311 20.3 9.86026 20.3C9.85742 20.3 9.85457 20.3 9.85173 20.3C9.84888 20.3 9.84604 20.3 9.8432 20.3C9.84036 20.3 9.83751 20.3 9.83467 20.3C9.83183 20.3 9.82899 20.3 9.82615 20.3C9.82331 20.3 9.82047 20.3 9.81763 20.3C9.81479 20.3 9.81196 20.3 9.80912 20.3C9.80628 20.3 9.80344 20.3 9.80061 20.3C9.79777 20.3 9.79493 20.3 9.7921 20.3C9.78926 20.3 9.78643 20.3 9.7836 20.3C9.78076 20.3 9.77793 20.3 9.7751 20.3C9.77226 20.3 9.76943 20.3 9.7666 20.3C9.76377 20.3 9.76094 20.3 9.75811 20.3C9.75528 20.3 9.75245 20.3 9.74962 20.3C9.74679 20.3 9.74396 20.3 9.74113 20.3C9.7383 20.3 9.73548 20.3 9.73265 20.3C9.72982 20.3 9.727 20.3 9.72417 20.3C9.72135 20.3 9.71852 20.3 9.7157 20.3C9.71288 20.3 9.71005 20.3 9.70723 20.3C9.70441 20.3 9.70158 20.3 9.69876 20.3C9.69594 20.3 9.69312 20.3 9.6903 20.3C9.68748 20.3 9.68466 20.3 9.68184 20.3C9.67902 20.3 9.6762 20.3 9.67339 20.3C9.67057 20.3 9.66775 20.3 9.66493 20.3C9.66212 20.3 9.6593 20.3 9.65649 20.3C9.65367 20.3 9.65086 20.3 9.64804 20.3C9.64523 20.3 9.64242 20.3 9.6396 20.3C9.63679 20.3 9.63398 20.3 9.63117 20.3C9.62836 20.3 9.62555 20.3 9.62273 20.3C9.61992 20.3 9.61712 20.3 9.61431 20.3C9.6115 20.3 9.60869 20.3 9.60588 20.3C9.60307 20.3 9.60027 20.3 9.59746 20.3C9.59466 20.3 9.59185 20.3 9.58904 20.3C9.58624 20.3 9.58344 20.3 9.58063 20.3C9.57783 20.3 9.57503 20.3 9.57222 20.3C9.56942 20.3 9.56662 20.3 9.56382 20.3C9.56102 20.3 9.55822 20.3 9.55542 20.3C9.55262 20.3 9.54982 20.3 9.54702 20.3C9.54422 20.3 9.54142 20.3 9.53863 20.3C9.53583 20.3 9.53303 20.3 9.53024 20.3C9.52744 20.3 9.52465 20.3 9.52185 20.3C9.51906 20.3 9.51626 20.3 9.51347 20.3C9.51068 20.3 9.50789 20.3 9.50509 20.3C9.5023 20.3 9.49951 20.3 9.49672 20.3C9.49393 20.3 9.49114 20.3 9.48835 20.3C9.48556 20.3 9.48277 20.3 9.47999 20.3C9.4772 20.3 9.47441 20.3 9.47162 20.3C9.46884 20.3 9.46605 20.3 9.46327 20.3C9.46048 20.3 9.4577 20.3 9.45491 20.3C9.45213 20.3 9.44935 20.3 9.44656 20.3C9.44378 20.3 9.441 20.3 9.43822 20.3C9.43544 20.3 9.43266 20.3 9.42988 20.3C9.4271 20.3 9.42432 20.3 9.42154 20.3C9.41876 20.3 9.41599 20.3 9.41321 20.3C9.41043 20.3 9.40765 20.3 9.40488 20.3C9.4021 20.3 9.39933 20.3 9.39655 20.3C9.39378 20.3 9.39101 20.3 9.38823 20.3C9.38546 20.3 9.38269 20.3 9.37992 20.3C9.37715 20.3 9.37438 20.3 9.3716 20.3C9.36883 20.3 9.36607 20.3 9.3633 20.3C9.36053 20.3 9.35776 20.3 9.35499 20.3C9.35223 20.3 9.34946 20.3 9.34669 20.3C9.34393 20.3 9.34116 20.3 9.3384 20.3C9.33563 20.3 9.33287 20.3 9.33011 20.3C9.32734 20.3 9.32458 20.3 9.32182 20.3C9.31906 20.3 9.31629 20.3 9.31353 20.3C9.31077 20.3 9.30801 20.3 9.30526 20.3C9.3025 20.3 9.29974 20.3 9.29698 20.3C9.29422 20.3 9.29147 20.3 9.28871 20.3C9.28595 20.3 9.2832 20.3 9.28044 20.3C9.27769 20.3 9.27493 20.3 9.27218 20.3C9.26943 20.3 9.26667 20.3 9.26392 20.3C9.26117 20.3 9.25842 20.3 9.25567 20.3C9.25292 20.3 9.25017 20.3 9.24742 20.3C9.24467 20.3 9.24192 20.3 9.23917 20.3C9.23643 20.3 9.23368 20.3 9.23093 20.3C9.22819 20.3 9.22544 20.3 9.2227 20.3C9.21995 20.3 9.21721 20.3 9.21447 20.3C9.21172 20.3 9.20898 20.3 9.20624 20.3C9.2035 20.3 9.20075 20.3 9.19801 20.3C9.19527 20.3 9.19253 20.3 9.18979 20.3C9.18706 20.3 9.18432 20.3 9.18158 20.3C9.17884 20.3 9.1761 20.3 9.17337 20.3C9.17063 20.3 9.1679 20.3 9.16516 20.3C9.16243 20.3 9.15969 20.3 9.15696 20.3C9.15423 20.3 9.15149 20.3 9.14876 20.3C9.14603 20.3 9.1433 20.3 9.14057 20.3C9.13784 20.3 9.13511 20.3 9.13238 20.3C9.12965 20.3 9.12692 20.3 9.1242 20.3C9.12147 20.3 9.11874 20.3 9.11602 20.3C9.11329 20.3 9.11057 20.3 9.10784 20.3C9.10512 20.3 9.10239 20.3 9.09967 20.3C9.09695 20.3 9.09423 20.3 9.0915 20.3C9.08878 20.3 9.08606 20.3 9.08334 20.3C9.08062 20.3 9.0779 20.3 9.07518 20.3C9.07247 20.3 9.06975 20.3 9.06703 20.3C9.06431 20.3 9.0616 20.3 9.05888 20.3C9.05617 20.3 9.05345 20.3 9.05074 20.3C9.04802 20.3 9.04531 20.3 9.0426 20.3C9.03989 20.3 9.03717 20.3 9.03446 20.3C9.03175 20.3 9.02904 20.3 9.02633 20.3C9.02362 20.3 9.02091 20.3 9.01821 20.3C9.0155 20.3 9.01279 20.3 9.01008 20.3C9.00738 20.3 9.00467 20.3 9.00197 20.3C8.99926 20.3 8.99656 20.3 8.99385 20.3C8.99115 20.3 8.98845 20.3 8.98575 20.3C8.98304 20.3 8.98034 20.3 8.97764 20.3C8.97494 20.3 8.97224 20.3 8.96954 20.3C8.96685 20.3 8.96415 20.3 8.96145 20.3C8.95875 20.3 8.95606 20.3 8.95336 20.3C8.95066 20.3 8.94797 20.3 8.94528 20.3C8.94258 20.3 8.93989 20.3 8.93719 20.3C8.9345 20.3 8.93181 20.3 8.92912 20.3C8.92643 20.3 8.92374 20.3 8.92105 20.3C8.91836 20.3 8.91567 20.3 8.91298 20.3C8.91029 20.3 8.90761 20.3 8.90492 20.3C8.90223 20.3 8.89955 20.3 8.89686 20.3C8.89418 20.3 8.89149 20.3 8.88881 20.3C8.88613 20.3 8.88344 20.3 8.88076 20.3C8.87808 20.3 8.8754 20.3 8.87272 20.3C8.87004 20.3 8.86736 20.3 8.86468 20.3C8.862 20.3 8.85932 20.3 8.85665 20.3C8.85397 20.3 8.85129 20.3 8.84862 20.3C8.84594 20.3 8.84327 20.3 8.84059 20.3C8.83792 20.3 8.83525 20.3 8.83257 20.3C8.8299 20.3 8.82723 20.3 8.82456 20.3C8.82189 20.3 8.81922 20.3 8.81655 20.3C8.81388 20.3 8.81121 20.3 8.80854 20.3C8.80588 20.3 8.80321 20.3 8.80054 20.3C8.79788 20.3 8.79521 20.3 8.79255 20.3C8.78988 20.3 8.78722 20.3 8.78456 20.3C8.78189 20.3 8.77923 20.3 8.77657 20.3C8.77391 20.3 8.77125 20.3 8.76859 20.3C8.76593 20.3 8.76327 20.3 8.76061 20.3C8.75795 20.3 8.7553 20.3 8.75264 20.3C8.74998 20.3 8.74733 20.3 8.74467 20.3C8.74202 20.3 8.73937 20.3 8.73671 20.3C8.73406 20.3 8.73141 20.3 8.72875 20.3C8.7261 20.3 8.72345 20.3 8.7208 20.3C8.71815 20.3 8.7155 20.3 8.71286 20.3C8.71021 20.3 8.70756 20.3 8.70491 20.3C8.70227 20.3 8.69962 20.3 8.69697 20.3C8.69433 20.3 8.69169 20.3 8.68904 20.3C8.6864 20.3 8.68376 20.3 8.68111 20.3C8.67847 20.3 8.67583 20.3 8.67319 20.3C8.67055 20.3 8.66791 20.3 8.66527 20.3C8.66264 20.3 8.66 20.3 8.65736 20.3C8.65472 20.3 8.65209 20.3 8.64945 20.3C8.64682 20.3 8.64418 20.3 8.64155 20.3C8.63892 20.3 8.63628 20.3 8.63365 20.3C8.63102 20.3 8.62839 20.3 8.62576 20.3C8.62313 20.3 8.6205 20.3 8.61787 20.3C8.61524 20.3 8.61261 20.3 8.60999 20.3C8.60736 20.3 8.60473 20.3 8.60211 20.3C8.59948 20.3 8.59686 20.3 8.59424 20.3C8.59161 20.3 8.58899 20.3 8.58637 20.3C8.58375 20.3 8.58113 20.3 8.5785 20.3C8.57588 20.3 8.57327 20.3 8.57065 20.3C8.56803 20.3 8.56541 20.3 8.56279 20.3C8.56018 20.3 8.55756 20.3 8.55495 20.3C8.55233 20.3 8.54972 20.3 8.5471 20.3C8.54449 20.3 8.54188 20.3 8.53927 20.3C8.53665 20.3 8.53404 20.3 8.53143 20.3C8.52882 20.3 8.52621 20.3 8.52361 20.3C8.521 20.3 8.51839 20.3 8.51578 20.3C8.51318 20.3 8.51057 20.3 8.50797 20.3C8.50536 20.3 8.50276 20.3 8.50015 20.3C8.49755 20.3 8.49495 20.3 8.49235 20.3C8.48975 20.3 8.48714 20.3 8.48454 20.3C8.48194 20.3 8.47935 20.3 8.47675 20.3C8.47415 20.3 8.47155 20.3 8.46896 20.3C8.46636 20.3 8.46376 20.3 8.46117 20.3C8.45858 20.3 8.45598 20.3 8.45339 20.3C8.4508 20.3 8.4482 20.3 8.44561 20.3C8.44302 20.3 8.44043 20.3 8.43784 20.3C8.43525 20.3 8.43266 20.3 8.43008 20.3C8.42749 20.3 8.4249 20.3 8.42232 20.3C8.41973 20.3 8.41715 20.3 8.41456 20.3C8.41198 20.3 8.40939 20.3 8.40681 20.3C8.40423 20.3 8.40165 20.3 8.39907 20.3C8.39649 20.3 8.39391 20.3 8.39133 20.3C8.38875 20.3 8.38617 20.3 8.38359 20.3C8.38102 20.3 8.37844 20.3 8.37586 20.3C8.37329 20.3 8.37071 20.3 8.36814 20.3C8.36557 20.3 8.36299 20.3 8.36042 20.3C8.35785 20.3 8.35528 20.3 8.35271 20.3C8.35014 20.3 8.34757 20.3 8.345 20.3C8.34243 20.3 8.33987 20.3 8.3373 20.3C8.33473 20.3 8.33217 20.3 8.3296 20.3C8.32704 20.3 8.32447 20.3 8.32191 20.3C8.31935 20.3 8.31679 20.3 8.31422 20.3C8.31166 20.3 8.3091 20.3 8.30654 20.3C8.30398 20.3 8.30143 20.3 8.29887 20.3C8.29631 20.3 8.29375 20.3 8.2912 20.3C8.28864 20.3 8.28609 20.3 8.28353 20.3C8.28098 20.3 8.27843 20.3 8.27587 20.3C8.27332 20.3 8.27077 20.3 8.26822 20.3C8.26567 20.3 8.26312 20.3 8.26057 20.3C8.25802 20.3 8.25547 20.3 8.25293 20.3C8.25038 20.3 8.24783 20.3 8.24529 20.3C8.24274 20.3 8.2402 20.3 8.23766 20.3C8.23511 20.3 8.23257 20.3 8.23003 20.3C8.22749 20.3 8.22495 20.3 8.22241 20.3C8.21987 20.3 8.21733 20.3 8.21479 20.3C8.21226 20.3 8.20972 20.3 8.20718 20.3C8.20465 20.3 8.20211 20.3 8.19958 20.3C8.19704 20.3 8.19451 20.3 8.19198 20.3C8.18945 20.3 8.18691 20.3 8.18438 20.3C8.18185 20.3 8.17932 20.3 8.1768 20.3C8.17427 20.3 8.17174 20.3 8.16921 20.3C8.16669 20.3 8.16416 20.3 8.16164 20.3C8.15911 20.3 8.15659 20.3 8.15406 20.3C8.15154 20.3 8.14902 20.3 8.1465 20.3C8.14398 20.3 8.14146 20.3 8.13894 20.3C8.13642 20.3 8.1339 20.3 8.13138 20.3C8.12886 20.3 8.12635 20.3 8.12383 20.3C8.12132 20.3 8.1188 20.3 8.11629 20.3C8.11377 20.3 8.11126 20.3 8.10875 20.3C8.10624 20.3 8.10373 20.3 8.10122 20.3C8.09871 20.3 8.0962 20.3 8.09369 20.3C8.09118 20.3 8.08868 20.3 8.08617 20.3C8.08366 20.3 8.08116 20.3 8.07865 20.3C8.07615 20.3 8.07365 20.3 8.07114 20.3C8.06864 20.3 8.06614 20.3 8.06364 20.3C8.06114 20.3 8.05864 20.3 8.05614 20.3C8.05364 20.3 8.05114 20.3 8.04865 20.3C8.04615 20.3 8.04365 20.3 8.04116 20.3C8.03866 20.3 8.03617 20.3 8.03368 20.3C8.03118 20.3 8.02869 20.3 8.0262 20.3C8.02371 20.3 8.02122 20.3 8.01873 20.3C8.01624 20.3 8.01375 20.3 8.01127 20.3C8.00878 20.3 8.00629 20.3 8.00381 20.3C8.00132 20.3 7.99884 20.3 7.99635 20.3C7.99387 20.3 7.99139 20.3 7.98891 20.3C7.98642 20.3 7.98394 20.3 7.98146 20.3C7.97898 20.3 7.97651 20.3 7.97403 20.3C7.97155 20.3 7.96907 20.3 7.9666 20.3C7.96412 20.3 7.96165 20.3 7.95917 20.3C7.9567 20.3 7.95423 20.3 7.95176 20.3C7.94928 20.3 7.94681 20.3 7.94434 20.3C7.94187 20.3 7.9394 20.3 7.93694 20.3C7.93447 20.3 7.932 20.3 7.92953 20.3C7.92707 20.3 7.9246 20.3 7.92214 20.3C7.91968 20.3 7.91721 20.3 7.91475 20.3C7.91229 20.3 7.90983 20.3 7.90737 20.3C7.90491 20.3 7.90245 20.3 7.89999 20.3C7.89753 20.3 7.89507 20.3 7.89262 20.3C7.89016 20.3 7.88771 20.3 7.88525 20.3C7.8828 20.3 7.88034 20.3 7.87789 20.3C7.87544 20.3 7.87299 20.3 7.87054 20.3C7.86809 20.3 7.86564 20.3 7.86319 20.3C7.86074 20.3 7.85829 20.3 7.85585 20.3C7.8534 20.3 7.85095 20.3 7.84851 20.3C7.84606 20.3 7.84362 20.3 7.84118 20.3C7.83874 20.3 7.83629 20.3 7.83385 20.3C7.83141 20.3 7.82897 20.3 7.82654 20.3C7.8241 20.3 7.82166 20.3 7.81922 20.3C7.81679 20.3 7.81435 20.3 7.81192 20.3C7.80948 20.3 7.80705 20.3 7.80462 20.3C7.80218 20.3 7.79975 20.3 7.79732 20.3C7.79489 20.3 7.79246 20.3 7.79003 20.3C7.7876 20.3 7.78518 20.3 7.78275 20.3C7.78032 20.3 7.7779 20.3 7.77547 20.3C7.77305 20.3 7.77062 20.3 7.7682 20.3C7.76578 20.3 7.76336 20.3 7.76094 20.3C7.75852 20.3 7.7561 20.3 7.75368 20.3C7.75126 20.3 7.74884 20.3 7.74643 20.3C7.74401 20.3 7.74159 20.3 7.73918 20.3C7.73677 20.3 7.73435 20.3 7.73194 20.3C7.72953 20.3 7.72712 20.3 7.7247 20.3C7.72229 20.3 7.71989 20.3 7.71748 20.3C7.71507 20.3 7.71266 20.3 7.71025 20.3C7.70785 20.3 7.70544 20.3 7.70304 20.3C7.70063 20.3 7.69823 20.3 7.69583 20.3C7.69343 20.3 7.69103 20.3 7.68863 20.3C7.68622 20.3 7.68383 20.3 7.68143 20.3C7.67903 20.3 7.67663 20.3 7.67424 20.3C7.67184 20.3 7.66944 20.3 7.66705 20.3C7.66466 20.3 7.66226 20.3 7.65987 20.3C7.65748 20.3 7.65509 20.3 7.6527 20.3C7.65031 20.3 7.64792 20.3 7.64553 20.3C7.64314 20.3 7.64076 20.3 7.63837 20.3C7.63599 20.3 7.6336 20.3 7.63122 20.3C7.62883 20.3 7.62645 20.3 7.62407 20.3C7.62169 20.3 7.61931 20.3 7.61693 20.3C7.61455 20.3 7.61217 20.3 7.60979 20.3C7.60741 20.3 7.60504 20.3 7.60266 20.3C7.60029 20.3 7.59791 20.3 7.59554 20.3C7.59316 20.3 7.59079 20.3 7.58842 20.3C7.58605 20.3 7.58368 20.3 7.58131 20.3C7.57894 20.3 7.57657 20.3 7.57421 20.3C7.57184 20.3 7.56947 20.3 7.56711 20.3C7.56474 20.3 7.56238 20.3 7.56002 20.3C7.55765 20.3 7.55529 20.3 7.55293 20.3C7.55057 20.3 7.54821 20.3 7.54585 20.3C7.54349 20.3 7.54114 20.3 7.53878 20.3C7.53642 20.3 7.53407 20.3 7.53171 20.3C7.52936 20.3 7.527 20.3 7.52465 20.3C7.5223 20.3 7.51995 20.3 7.5176 20.3C7.51525 20.3 7.5129 20.3 7.51055 20.3C7.5082 20.3 7.50586 20.3 7.50351 20.3C7.50116 20.3 7.49882 20.3 7.49647 20.3C7.49413 20.3 7.49179 20.3 7.48945 20.3C7.4871 20.3 7.48476 20.3 7.48242 20.3C7.48008 20.3 7.47775 20.3 7.47541 20.3C7.47307 20.3 7.47073 20.3 7.4684 20.3C7.46606 20.3 7.46373 20.3 7.4614 20.3C7.45906 20.3 7.45673 20.3 7.4544 20.3C7.45207 20.3 7.44974 20.3 7.44741 20.3C7.44508 20.3 7.44275 20.3 7.44043 20.3C7.4381 20.3 7.43578 20.3 7.43345 20.3C7.43113 20.3 7.4288 20.3 7.42648 20.3C7.42416 20.3 7.42184 20.3 7.41952 20.3C7.4172 20.3 7.41488 20.3 7.41256 20.3C7.41024 20.3 7.40792 20.3 7.40561 20.3C7.40329 20.3 7.40098 20.3 7.39866 20.3C7.39635 20.3 7.39404 20.3 7.39173 20.3C7.38941 20.3 7.3871 20.3 7.38479 20.3C7.38248 20.3 7.38018 20.3 7.37787 20.3C7.37556 20.3 7.37326 20.3 7.37095 20.3C7.36865 20.3 7.36634 20.3 7.36404 20.3C7.36174 20.3 7.35943 20.3 7.35713 20.3C7.35483 20.3 7.35253 20.3 7.35024 20.3C7.34794 20.3 7.34564 20.3 7.34334 20.3C7.34105 20.3 7.33875 20.3 7.33646 20.3C7.33416 20.3 7.33187 20.3 7.32958 20.3C7.32729 20.3 7.325 20.3 7.32271 20.3L7.32271 21.7C7.325 21.7 7.32729 21.7 7.32958 21.7C7.33187 21.7 7.33416 21.7 7.33646 21.7C7.33875 21.7 7.34105 21.7 7.34334 21.7C7.34564 21.7 7.34794 21.7 7.35024 21.7C7.35253 21.7 7.35483 21.7 7.35713 21.7C7.35943 21.7 7.36174 21.7 7.36404 21.7C7.36634 21.7 7.36865 21.7 7.37095 21.7C7.37326 21.7 7.37556 21.7 7.37787 21.7C7.38018 21.7 7.38248 21.7 7.38479 21.7C7.3871 21.7 7.38941 21.7 7.39173 21.7C7.39404 21.7 7.39635 21.7 7.39866 21.7C7.40098 21.7 7.40329 21.7 7.40561 21.7C7.40792 21.7 7.41024 21.7 7.41256 21.7C7.41488 21.7 7.4172 21.7 7.41952 21.7C7.42184 21.7 7.42416 21.7 7.42648 21.7C7.4288 21.7 7.43113 21.7 7.43345 21.7C7.43577 21.7 7.4381 21.7 7.44043 21.7C7.44275 21.7 7.44508 21.7 7.44741 21.7C7.44974 21.7 7.45207 21.7 7.4544 21.7C7.45673 21.7 7.45906 21.7 7.4614 21.7C7.46373 21.7 7.46606 21.7 7.4684 21.7C7.47073 21.7 7.47307 21.7 7.47541 21.7C7.47775 21.7 7.48008 21.7 7.48242 21.7C7.48476 21.7 7.4871 21.7 7.48945 21.7C7.49179 21.7 7.49413 21.7 7.49647 21.7C7.49882 21.7 7.50116 21.7 7.50351 21.7C7.50586 21.7 7.5082 21.7 7.51055 21.7C7.5129 21.7 7.51525 21.7 7.5176 21.7C7.51995 21.7 7.5223 21.7 7.52465 21.7C7.527 21.7 7.52936 21.7 7.53171 21.7C7.53407 21.7 7.53642 21.7 7.53878 21.7C7.54113 21.7 7.54349 21.7 7.54585 21.7C7.54821 21.7 7.55057 21.7 7.55293 21.7C7.55529 21.7 7.55765 21.7 7.56002 21.7C7.56238 21.7 7.56474 21.7 7.56711 21.7C7.56947 21.7 7.57184 21.7 7.57421 21.7C7.57657 21.7 7.57894 21.7 7.58131 21.7C7.58368 21.7 7.58605 21.7 7.58842 21.7C7.59079 21.7 7.59316 21.7 7.59554 21.7C7.59791 21.7 7.60029 21.7 7.60266 21.7C7.60504 21.7 7.60741 21.7 7.60979 21.7C7.61217 21.7 7.61455 21.7 7.61693 21.7C7.61931 21.7 7.62169 21.7 7.62407 21.7C7.62645 21.7 7.62883 21.7 7.63122 21.7C7.6336 21.7 7.63599 21.7 7.63837 21.7C7.64076 21.7 7.64314 21.7 7.64553 21.7C7.64792 21.7 7.65031 21.7 7.6527 21.7C7.65509 21.7 7.65748 21.7 7.65987 21.7C7.66226 21.7 7.66466 21.7 7.66705 21.7C7.66944 21.7 7.67184 21.7 7.67424 21.7C7.67663 21.7 7.67903 21.7 7.68143 21.7C7.68383 21.7 7.68622 21.7 7.68862 21.7C7.69103 21.7 7.69343 21.7 7.69583 21.7C7.69823 21.7 7.70063 21.7 7.70304 21.7C7.70544 21.7 7.70785 21.7 7.71025 21.7C7.71266 21.7 7.71507 21.7 7.71748 21.7C7.71989 21.7 7.72229 21.7 7.7247 21.7C7.72712 21.7 7.72953 21.7 7.73194 21.7C7.73435 21.7 7.73677 21.7 7.73918 21.7C7.74159 21.7 7.74401 21.7 7.74643 21.7C7.74884 21.7 7.75126 21.7 7.75368 21.7C7.7561 21.7 7.75852 21.7 7.76094 21.7C7.76336 21.7 7.76578 21.7 7.7682 21.7C7.77062 21.7 7.77305 21.7 7.77547 21.7C7.7779 21.7 7.78032 21.7 7.78275 21.7C7.78518 21.7 7.7876 21.7 7.79003 21.7C7.79246 21.7 7.79489 21.7 7.79732 21.7C7.79975 21.7 7.80218 21.7 7.80462 21.7C7.80705 21.7 7.80948 21.7 7.81192 21.7C7.81435 21.7 7.81679 21.7 7.81922 21.7C7.82166 21.7 7.8241 21.7 7.82654 21.7C7.82897 21.7 7.83141 21.7 7.83385 21.7C7.83629 21.7 7.83874 21.7 7.84118 21.7C7.84362 21.7 7.84606 21.7 7.84851 21.7C7.85095 21.7 7.8534 21.7 7.85585 21.7C7.85829 21.7 7.86074 21.7 7.86319 21.7C7.86564 21.7 7.86809 21.7 7.87054 21.7C7.87299 21.7 7.87544 21.7 7.87789 21.7C7.88034 21.7 7.8828 21.7 7.88525 21.7C7.8877 21.7 7.89016 21.7 7.89262 21.7C7.89507 21.7 7.89753 21.7 7.89999 21.7C7.90245 21.7 7.90491 21.7 7.90737 21.7C7.90983 21.7 7.91229 21.7 7.91475 21.7C7.91721 21.7 7.91968 21.7 7.92214 21.7C7.9246 21.7 7.92707 21.7 7.92953 21.7C7.932 21.7 7.93447 21.7 7.93694 21.7C7.9394 21.7 7.94187 21.7 7.94434 21.7C7.94681 21.7 7.94928 21.7 7.95176 21.7C7.95423 21.7 7.9567 21.7 7.95917 21.7C7.96165 21.7 7.96412 21.7 7.9666 21.7C7.96907 21.7 7.97155 21.7 7.97403 21.7C7.97651 21.7 7.97898 21.7 7.98146 21.7C7.98394 21.7 7.98642 21.7 7.98891 21.7C7.99139 21.7 7.99387 21.7 7.99635 21.7C7.99884 21.7 8.00132 21.7 8.00381 21.7C8.00629 21.7 8.00878 21.7 8.01127 21.7C8.01375 21.7 8.01624 21.7 8.01873 21.7C8.02122 21.7 8.02371 21.7 8.0262 21.7C8.02869 21.7 8.03118 21.7 8.03368 21.7C8.03617 21.7 8.03866 21.7 8.04116 21.7C8.04365 21.7 8.04615 21.7 8.04865 21.7C8.05114 21.7 8.05364 21.7 8.05614 21.7C8.05864 21.7 8.06114 21.7 8.06364 21.7C8.06614 21.7 8.06864 21.7 8.07114 21.7C8.07365 21.7 8.07615 21.7 8.07865 21.7C8.08116 21.7 8.08366 21.7 8.08617 21.7C8.08868 21.7 8.09118 21.7 8.09369 21.7C8.0962 21.7 8.09871 21.7 8.10122 21.7C8.10373 21.7 8.10624 21.7 8.10875 21.7C8.11126 21.7 8.11377 21.7 8.11629 21.7C8.1188 21.7 8.12132 21.7 8.12383 21.7C8.12635 21.7 8.12886 21.7 8.13138 21.7C8.1339 21.7 8.13642 21.7 8.13894 21.7C8.14146 21.7 8.14398 21.7 8.1465 21.7C8.14902 21.7 8.15154 21.7 8.15406 21.7C8.15659 21.7 8.15911 21.7 8.16164 21.7C8.16416 21.7 8.16669 21.7 8.16921 21.7C8.17174 21.7 8.17427 21.7 8.1768 21.7C8.17932 21.7 8.18185 21.7 8.18438 21.7C8.18691 21.7 8.18945 21.7 8.19198 21.7C8.19451 21.7 8.19704 21.7 8.19958 21.7C8.20211 21.7 8.20465 21.7 8.20718 21.7C8.20972 21.7 8.21226 21.7 8.21479 21.7C8.21733 21.7 8.21987 21.7 8.22241 21.7C8.22495 21.7 8.22749 21.7 8.23003 21.7C8.23257 21.7 8.23511 21.7 8.23766 21.7C8.2402 21.7 8.24274 21.7 8.24529 21.7C8.24783 21.7 8.25038 21.7 8.25293 21.7C8.25547 21.7 8.25802 21.7 8.26057 21.7C8.26312 21.7 8.26567 21.7 8.26822 21.7C8.27077 21.7 8.27332 21.7 8.27587 21.7C8.27843 21.7 8.28098 21.7 8.28353 21.7C8.28609 21.7 8.28864 21.7 8.2912 21.7C8.29375 21.7 8.29631 21.7 8.29887 21.7C8.30143 21.7 8.30398 21.7 8.30654 21.7C8.3091 21.7 8.31166 21.7 8.31422 21.7C8.31679 21.7 8.31935 21.7 8.32191 21.7C8.32447 21.7 8.32704 21.7 8.3296 21.7C8.33217 21.7 8.33473 21.7 8.3373 21.7C8.33987 21.7 8.34243 21.7 8.345 21.7C8.34757 21.7 8.35014 21.7 8.35271 21.7C8.35528 21.7 8.35785 21.7 8.36042 21.7C8.36299 21.7 8.36557 21.7 8.36814 21.7C8.37071 21.7 8.37329 21.7 8.37586 21.7C8.37844 21.7 8.38102 21.7 8.38359 21.7C8.38617 21.7 8.38875 21.7 8.39133 21.7C8.39391 21.7 8.39649 21.7 8.39907 21.7C8.40165 21.7 8.40423 21.7 8.40681 21.7C8.40939 21.7 8.41198 21.7 8.41456 21.7C8.41715 21.7 8.41973 21.7 8.42232 21.7C8.4249 21.7 8.42749 21.7 8.43008 21.7C8.43266 21.7 8.43525 21.7 8.43784 21.7C8.44043 21.7 8.44302 21.7 8.44561 21.7C8.4482 21.7 8.4508 21.7 8.45339 21.7C8.45598 21.7 8.45858 21.7 8.46117 21.7C8.46376 21.7 8.46636 21.7 8.46896 21.7C8.47155 21.7 8.47415 21.7 8.47675 21.7C8.47935 21.7 8.48194 21.7 8.48454 21.7C8.48714 21.7 8.48975 21.7 8.49235 21.7C8.49495 21.7 8.49755 21.7 8.50015 21.7C8.50276 21.7 8.50536 21.7 8.50797 21.7C8.51057 21.7 8.51318 21.7 8.51578 21.7C8.51839 21.7 8.521 21.7 8.52361 21.7C8.52621 21.7 8.52882 21.7 8.53143 21.7C8.53404 21.7 8.53665 21.7 8.53927 21.7C8.54188 21.7 8.54449 21.7 8.5471 21.7C8.54972 21.7 8.55233 21.7 8.55495 21.7C8.55756 21.7 8.56018 21.7 8.56279 21.7C8.56541 21.7 8.56803 21.7 8.57065 21.7C8.57327 21.7 8.57588 21.7 8.5785 21.7C8.58113 21.7 8.58375 21.7 8.58637 21.7C8.58899 21.7 8.59161 21.7 8.59424 21.7C8.59686 21.7 8.59948 21.7 8.60211 21.7C8.60473 21.7 8.60736 21.7 8.60999 21.7C8.61261 21.7 8.61524 21.7 8.61787 21.7C8.6205 21.7 8.62313 21.7 8.62576 21.7C8.62839 21.7 8.63102 21.7 8.63365 21.7C8.63628 21.7 8.63892 21.7 8.64155 21.7C8.64418 21.7 8.64682 21.7 8.64945 21.7C8.65209 21.7 8.65472 21.7 8.65736 21.7C8.66 21.7 8.66264 21.7 8.66527 21.7C8.66791 21.7 8.67055 21.7 8.67319 21.7C8.67583 21.7 8.67847 21.7 8.68111 21.7C8.68376 21.7 8.6864 21.7 8.68904 21.7C8.69169 21.7 8.69433 21.7 8.69697 21.7C8.69962 21.7 8.70227 21.7 8.70491 21.7C8.70756 21.7 8.71021 21.7 8.71285 21.7C8.7155 21.7 8.71815 21.7 8.7208 21.7C8.72345 21.7 8.7261 21.7 8.72875 21.7C8.73141 21.7 8.73406 21.7 8.73671 21.7C8.73936 21.7 8.74202 21.7 8.74467 21.7C8.74733 21.7 8.74998 21.7 8.75264 21.7C8.7553 21.7 8.75795 21.7 8.76061 21.7C8.76327 21.7 8.76593 21.7 8.76859 21.7C8.77125 21.7 8.77391 21.7 8.77657 21.7C8.77923 21.7 8.78189 21.7 8.78456 21.7C8.78722 21.7 8.78988 21.7 8.79255 21.7C8.79521 21.7 8.79788 21.7 8.80054 21.7C8.80321 21.7 8.80588 21.7 8.80854 21.7C8.81121 21.7 8.81388 21.7 8.81655 21.7C8.81922 21.7 8.82189 21.7 8.82456 21.7C8.82723 21.7 8.8299 21.7 8.83257 21.7C8.83525 21.7 8.83792 21.7 8.84059 21.7C8.84327 21.7 8.84594 21.7 8.84862 21.7C8.85129 21.7 8.85397 21.7 8.85665 21.7C8.85932 21.7 8.862 21.7 8.86468 21.7C8.86736 21.7 8.87004 21.7 8.87272 21.7C8.8754 21.7 8.87808 21.7 8.88076 21.7C8.88344 21.7 8.88613 21.7 8.88881 21.7C8.89149 21.7 8.89418 21.7 8.89686 21.7C8.89955 21.7 8.90223 21.7 8.90492 21.7C8.90761 21.7 8.91029 21.7 8.91298 21.7C8.91567 21.7 8.91836 21.7 8.92105 21.7C8.92374 21.7 8.92643 21.7 8.92912 21.7C8.93181 21.7 8.9345 21.7 8.93719 21.7C8.93989 21.7 8.94258 21.7 8.94528 21.7C8.94797 21.7 8.95066 21.7 8.95336 21.7C8.95606 21.7 8.95875 21.7 8.96145 21.7C8.96415 21.7 8.96685 21.7 8.96954 21.7C8.97224 21.7 8.97494 21.7 8.97764 21.7C8.98034 21.7 8.98304 21.7 8.98575 21.7C8.98845 21.7 8.99115 21.7 8.99385 21.7C8.99656 21.7 8.99926 21.7 9.00197 21.7C9.00467 21.7 9.00738 21.7 9.01008 21.7C9.01279 21.7 9.0155 21.7 9.01821 21.7C9.02091 21.7 9.02362 21.7 9.02633 21.7C9.02904 21.7 9.03175 21.7 9.03446 21.7C9.03717 21.7 9.03989 21.7 9.0426 21.7C9.04531 21.7 9.04802 21.7 9.05074 21.7C9.05345 21.7 9.05617 21.7 9.05888 21.7C9.0616 21.7 9.06431 21.7 9.06703 21.7C9.06975 21.7 9.07247 21.7 9.07518 21.7C9.0779 21.7 9.08062 21.7 9.08334 21.7C9.08606 21.7 9.08878 21.7 9.0915 21.7C9.09423 21.7 9.09695 21.7 9.09967 21.7C9.10239 21.7 9.10512 21.7 9.10784 21.7C9.11057 21.7 9.11329 21.7 9.11602 21.7C9.11874 21.7 9.12147 21.7 9.1242 21.7C9.12692 21.7 9.12965 21.7 9.13238 21.7C9.13511 21.7 9.13784 21.7 9.14057 21.7C9.1433 21.7 9.14603 21.7 9.14876 21.7C9.15149 21.7 9.15423 21.7 9.15696 21.7C9.15969 21.7 9.16243 21.7 9.16516 21.7C9.1679 21.7 9.17063 21.7 9.17337 21.7C9.1761 21.7 9.17884 21.7 9.18158 21.7C9.18432 21.7 9.18706 21.7 9.18979 21.7C9.19253 21.7 9.19527 21.7 9.19801 21.7C9.20075 21.7 9.2035 21.7 9.20624 21.7C9.20898 21.7 9.21172 21.7 9.21447 21.7C9.21721 21.7 9.21995 21.7 9.2227 21.7C9.22544 21.7 9.22819 21.7 9.23093 21.7C9.23368 21.7 9.23643 21.7 9.23917 21.7C9.24192 21.7 9.24467 21.7 9.24742 21.7C9.25017 21.7 9.25292 21.7 9.25567 21.7C9.25842 21.7 9.26117 21.7 9.26392 21.7C9.26667 21.7 9.26943 21.7 9.27218 21.7C9.27493 21.7 9.27769 21.7 9.28044 21.7C9.2832 21.7 9.28595 21.7 9.28871 21.7C9.29147 21.7 9.29422 21.7 9.29698 21.7C9.29974 21.7 9.3025 21.7 9.30526 21.7C9.30801 21.7 9.31077 21.7 9.31353 21.7C9.31629 21.7 9.31906 21.7 9.32182 21.7C9.32458 21.7 9.32734 21.7 9.3301 21.7C9.33287 21.7 9.33563 21.7 9.3384 21.7C9.34116 21.7 9.34393 21.7 9.34669 21.7C9.34946 21.7 9.35222 21.7 9.35499 21.7C9.35776 21.7 9.36053 21.7 9.3633 21.7C9.36607 21.7 9.36883 21.7 9.3716 21.7C9.37438 21.7 9.37715 21.7 9.37992 21.7C9.38269 21.7 9.38546 21.7 9.38823 21.7C9.39101 21.7 9.39378 21.7 9.39655 21.7C9.39933 21.7 9.4021 21.7 9.40488 21.7C9.40765 21.7 9.41043 21.7 9.41321 21.7C9.41599 21.7 9.41876 21.7 9.42154 21.7C9.42432 21.7 9.4271 21.7 9.42988 21.7C9.43266 21.7 9.43544 21.7 9.43822 21.7C9.441 21.7 9.44378 21.7 9.44656 21.7C9.44935 21.7 9.45213 21.7 9.45491 21.7C9.4577 21.7 9.46048 21.7 9.46327 21.7C9.46605 21.7 9.46884 21.7 9.47162 21.7C9.47441 21.7 9.4772 21.7 9.47999 21.7C9.48277 21.7 9.48556 21.7 9.48835 21.7C9.49114 21.7 9.49393 21.7 9.49672 21.7C9.49951 21.7 9.5023 21.7 9.50509 21.7C9.50789 21.7 9.51068 21.7 9.51347 21.7C9.51626 21.7 9.51906 21.7 9.52185 21.7C9.52465 21.7 9.52744 21.7 9.53024 21.7C9.53303 21.7 9.53583 21.7 9.53863 21.7C9.54142 21.7 9.54422 21.7 9.54702 21.7C9.54982 21.7 9.55262 21.7 9.55542 21.7C9.55822 21.7 9.56102 21.7 9.56382 21.7C9.56662 21.7 9.56942 21.7 9.57222 21.7C9.57503 21.7 9.57783 21.7 9.58063 21.7C9.58344 21.7 9.58624 21.7 9.58904 21.7C9.59185 21.7 9.59466 21.7 9.59746 21.7C9.60027 21.7 9.60307 21.7 9.60588 21.7C9.60869 21.7 9.6115 21.7 9.61431 21.7C9.61712 21.7 9.61992 21.7 9.62273 21.7C9.62555 21.7 9.62836 21.7 9.63117 21.7C9.63398 21.7 9.63679 21.7 9.6396 21.7C9.64242 21.7 9.64523 21.7 9.64804 21.7C9.65086 21.7 9.65367 21.7 9.65649 21.7C9.6593 21.7 9.66212 21.7 9.66493 21.7C9.66775 21.7 9.67057 21.7 9.67339 21.7C9.6762 21.7 9.67902 21.7 9.68184 21.7C9.68466 21.7 9.68748 21.7 9.6903 21.7C9.69312 21.7 9.69594 21.7 9.69876 21.7C9.70158 21.7 9.70441 21.7 9.70723 21.7C9.71005 21.7 9.71288 21.7 9.7157 21.7C9.71852 21.7 9.72135 21.7 9.72417 21.7C9.727 21.7 9.72982 21.7 9.73265 21.7C9.73548 21.7 9.7383 21.7 9.74113 21.7C9.74396 21.7 9.74679 21.7 9.74962 21.7C9.75245 21.7 9.75528 21.7 9.75811 21.7C9.76094 21.7 9.76377 21.7 9.7666 21.7C9.76943 21.7 9.77226 21.7 9.7751 21.7C9.77793 21.7 9.78076 21.7 9.7836 21.7C9.78643 21.7 9.78926 21.7 9.7921 21.7C9.79493 21.7 9.79777 21.7 9.80061 21.7C9.80344 21.7 9.80628 21.7 9.80912 21.7C9.81196 21.7 9.81479 21.7 9.81763 21.7C9.82047 21.7 9.82331 21.7 9.82615 21.7C9.82899 21.7 9.83183 21.7 9.83467 21.7C9.83751 21.7 9.84036 21.7 9.8432 21.7C9.84604 21.7 9.84888 21.7 9.85173 21.7C9.85457 21.7 9.85742 21.7 9.86026 21.7C9.86311 21.7 9.86595 21.7 9.8688 21.7C9.87164 21.7 9.87449 21.7 9.87734 21.7C9.88018 21.7 9.88303 21.7 9.88588 21.7C9.88873 21.7 9.89158 21.7 9.89443 21.7C9.89728 21.7 9.90013 21.7 9.90298 21.7C9.90583 21.7 9.90868 21.7 9.91153 21.7C9.91438 21.7 9.91724 21.7 9.92009 21.7C9.92294 21.7 9.9258 21.7 9.92865 21.7C9.93151 21.7 9.93436 21.7 9.93722 21.7C9.94007 21.7 9.94293 21.7 9.94579 21.7C9.94864 21.7 9.9515 21.7 9.95436 21.7C9.95722 21.7 9.96007 21.7 9.96293 21.7C9.96579 21.7 9.96865 21.7 9.97151 21.7C9.97437 21.7 9.97723 21.7 9.98009 21.7C9.98296 21.7 9.98582 21.7 9.98868 21.7C9.99154 21.7 9.99441 21.7 9.99727 21.7C10.0001 21.7 10.003 21.7 10.0059 21.7C10.0087 21.7 10.0116 21.7 10.0145 21.7C10.0173 21.7 10.0202 21.7 10.0231 21.7C10.0259 21.7 10.0288 21.7 10.0317 21.7C10.0345 21.7 10.0374 21.7 10.0403 21.7C10.0431 21.7 10.046 21.7 10.0489 21.7C10.0517 21.7 10.0546 21.7 10.0575 21.7C10.0604 21.7 10.0632 21.7 10.0661 21.7C10.069 21.7 10.0719 21.7 10.0747 21.7C10.0776 21.7 10.0805 21.7 10.0834 21.7C10.0862 21.7 10.0891 21.7 10.092 21.7C10.0949 21.7 10.0977 21.7 10.1006 21.7C10.1035 21.7 10.1064 21.7 10.1092 21.7C10.1121 21.7 10.115 21.7 10.1179 21.7C10.1208 21.7 10.1236 21.7 10.1265 21.7C10.1294 21.7 10.1323 21.7 10.1352 21.7C10.138 21.7 10.1409 21.7 10.1438 21.7C10.1467 21.7 10.1496 21.7 10.1525 21.7C10.1553 21.7 10.1582 21.7 10.1611 21.7C10.164 21.7 10.1669 21.7 10.1698 21.7C10.1727 21.7 10.1755 21.7 10.1784 21.7C10.1813 21.7 10.1842 21.7 10.1871 21.7C10.19 21.7 10.1929 21.7 10.1958 21.7C10.1986 21.7 10.2015 21.7 10.2044 21.7C10.2073 21.7 10.2102 21.7 10.2131 21.7C10.216 21.7 10.2189 21.7 10.2218 21.7C10.2247 21.7 10.2276 21.7 10.2305 21.7C10.2333 21.7 10.2362 21.7 10.2391 21.7C10.242 21.7 10.2449 21.7 10.2478 21.7C10.2507 21.7 10.2536 21.7 10.2565 21.7C10.2594 21.7 10.2623 21.7 10.2652 21.7C10.2681 21.7 10.271 21.7 10.2739 21.7C10.2768 21.7 10.2797 21.7 10.2826 21.7C10.2855 21.7 10.2884 21.7 10.2913 21.7C10.2942 21.7 10.2971 21.7 10.3 21.7C10.3029 21.7 10.3058 21.7 10.3087 21.7C10.3116 21.7 10.3145 21.7 10.3174 21.7C10.3203 21.7 10.3232 21.7 10.3261 21.7C10.329 21.7 10.3319 21.7 10.3349 21.7C10.3378 21.7 10.3407 21.7 10.3436 21.7C10.3465 21.7 10.3494 21.7 10.3523 21.7C10.3552 21.7 10.3581 21.7 10.361 21.7C10.3639 21.7 10.3668 21.7 10.3697 21.7C10.3727 21.7 10.3756 21.7 10.3785 21.7C10.3814 21.7 10.3843 21.7 10.3872 21.7C10.3901 21.7 10.393 21.7 10.396 21.7C10.3989 21.7 10.4018 21.7 10.4047 21.7C10.4076 21.7 10.4105 21.7 10.4134 21.7C10.4164 21.7 10.4193 21.7 10.4222 21.7C10.4251 21.7 10.428 21.7 10.4309 21.7C10.4339 21.7 10.4368 21.7 10.4397 21.7C10.4426 21.7 10.4455 21.7 10.4484 21.7C10.4514 21.7 10.4543 21.7 10.4572 21.7C10.4601 21.7 10.463 21.7 10.466 21.7C10.4689 21.7 10.4718 21.7 10.4747 21.7C10.4777 21.7 10.4806 21.7 10.4835 21.7C10.4864 21.7 10.4894 21.7 10.4923 21.7C10.4952 21.7 10.4981 21.7 10.501 21.7C10.504 21.7 10.5069 21.7 10.5098 21.7C10.5128 21.7 10.5157 21.7 10.5186 21.7C10.5215 21.7 10.5245 21.7 10.5274 21.7C10.5303 21.7 10.5332 21.7 10.5362 21.7C10.5391 21.7 10.542 21.7 10.545 21.7C10.5479 21.7 10.5508 21.7 10.5538 21.7C10.5567 21.7 10.5596 21.7 10.5625 21.7C10.5655 21.7 10.5684 21.7 10.5713 21.7C10.5743 21.7 10.5772 21.7 10.5801 21.7C10.5831 21.7 10.586 21.7 10.5889 21.7C10.5919 21.7 10.5948 21.7 10.5978 21.7C10.6007 21.7 10.6036 21.7 10.6066 21.7C10.6095 21.7 10.6124 21.7 10.6154 21.7C10.6183 21.7 10.6212 21.7 10.6242 21.7C10.6271 21.7 10.6301 21.7 10.633 21.7C10.6359 21.7 10.6389 21.7 10.6418 21.7C10.6448 21.7 10.6477 21.7 10.6506 21.7C10.6536 21.7 10.6565 21.7 10.6595 21.7C10.6624 21.7 10.6654 21.7 10.6683 21.7C10.6712 21.7 10.6742 21.7 10.6771 21.7C10.6801 21.7 10.683 21.7 10.686 21.7C10.6889 21.7 10.6919 21.7 10.6948 21.7C10.6977 21.7 10.7007 21.7 10.7036 21.7C10.7066 21.7 10.7095 21.7 10.7125 21.7C10.7154 21.7 10.7184 21.7 10.7213 21.7C10.7243 21.7 10.7272 21.7 10.7302 21.7C10.7331 21.7 10.7361 21.7 10.739 21.7C10.742 21.7 10.7449 21.7 10.7479 21.7C10.7508 21.7 10.7538 21.7 10.7567 21.7C10.7597 21.7 10.7626 21.7 10.7656 21.7C10.7685 21.7 10.7715 21.7 10.7744 21.7C10.7774 21.7 10.7804 21.7 10.7833 21.7C10.7863 21.7 10.7892 21.7 10.7922 21.7C10.7951 21.7 10.7981 21.7 10.801 21.7C10.804 21.7 10.807 21.7 10.8099 21.7C10.8129 21.7 10.8158 21.7 10.8188 21.7C10.8217 21.7 10.8247 21.7 10.8277 21.7C10.8306 21.7 10.8336 21.7 10.8365 21.7C10.8395 21.7 10.8425 21.7 10.8454 21.7C10.8484 21.7 10.8513 21.7 10.8543 21.7C10.8573 21.7 10.8602 21.7 10.8632 21.7C10.8661 21.7 10.8691 21.7 10.8721 21.7C10.875 21.7 10.878 21.7 10.881 21.7C10.8839 21.7 10.8869 21.7 10.8899 21.7C10.8928 21.7 10.8958 21.7 10.8988 21.7C10.9017 21.7 10.9047 21.7 10.9077 21.7C10.9106 21.7 10.9136 21.7 10.9166 21.7C10.9195 21.7 10.9225 21.7 10.9255 21.7C10.9284 21.7 10.9314 21.7 10.9344 21.7C10.9373 21.7 10.9403 21.7 10.9433 21.7C10.9462 21.7 10.9492 21.7 10.9522 21.7C10.9552 21.7 10.9581 21.7 10.9611 21.7C10.9641 21.7 10.967 21.7 10.97 21.7C10.973 21.7 10.976 21.7 10.9789 21.7C10.9819 21.7 10.9849 21.7 10.9878 21.7C10.9908 21.7 10.9938 21.7 10.9968 21.7C10.9997 21.7 11.0027 21.7 11.0057 21.7C11.0087 21.7 11.0116 21.7 11.0146 21.7C11.0176 21.7 11.0206 21.7 11.0236 21.7C11.0265 21.7 11.0295 21.7 11.0325 21.7C11.0355 21.7 11.0384 21.7 11.0414 21.7C11.0444 21.7 11.0474 21.7 11.0504 21.7C11.0533 21.7 11.0563 21.7 11.0593 21.7C11.0623 21.7 11.0653 21.7 11.0682 21.7C11.0712 21.7 11.0742 21.7 11.0772 21.7C11.0802 21.7 11.0831 21.7 11.0861 21.7C11.0891 21.7 11.0921 21.7 11.0951 21.7C11.0981 21.7 11.101 21.7 11.104 21.7C11.107 21.7 11.11 21.7 11.113 21.7C11.116 21.7 11.119 21.7 11.1219 21.7C11.1249 21.7 11.1279 21.7 11.1309 21.7C11.1339 21.7 11.1369 21.7 11.1399 21.7C11.1428 21.7 11.1458 21.7 11.1488 21.7C11.1518 21.7 11.1548 21.7 11.1578 21.7C11.1608 21.7 11.1638 21.7 11.1668 21.7C11.1697 21.7 11.1727 21.7 11.1757 21.7C11.1787 21.7 11.1817 21.7 11.1847 21.7C11.1877 21.7 11.1907 21.7 11.1937 21.7C11.1967 21.7 11.1996 21.7 11.2026 21.7C11.2056 21.7 11.2086 21.7 11.2116 21.7C11.2146 21.7 11.2176 21.7 11.2206 21.7C11.2236 21.7 11.2266 21.7 11.2296 21.7C11.2326 21.7 11.2356 21.7 11.2386 21.7C11.2416 21.7 11.2446 21.7 11.2475 21.7C11.2505 21.7 11.2535 21.7 11.2565 21.7C11.2595 21.7 11.2625 21.7 11.2655 21.7C11.2685 21.7 11.2715 21.7 11.2745 21.7C11.2775 21.7 11.2805 21.7 11.2835 21.7C11.2865 21.7 11.2895 21.7 11.2925 21.7C11.2955 21.7 11.2985 21.7 11.3015 21.7C11.3045 21.7 11.3075 21.7 11.3105 21.7C11.3135 21.7 11.3165 21.7 11.3195 21.7C11.3225 21.7 11.3255 21.7 11.3285 21.7C11.3315 21.7 11.3345 21.7 11.3375 21.7C11.3405 21.7 11.3435 21.7 11.3465 21.7C11.3495 21.7 11.3525 21.7 11.3555 21.7C11.3586 21.7 11.3616 21.7 11.3646 21.7C11.3676 21.7 11.3706 21.7 11.3736 21.7C11.3766 21.7 11.3796 21.7 11.3826 21.7C11.3856 21.7 11.3886 21.7 11.3916 21.7C11.3946 21.7 11.3976 21.7 11.4006 21.7C11.4036 21.7 11.4067 21.7 11.4097 21.7C11.4127 21.7 11.4157 21.7 11.4187 21.7C11.4217 21.7 11.4247 21.7 11.4277 21.7C11.4307 21.7 11.4337 21.7 11.4367 21.7C11.4398 21.7 11.4428 21.7 11.4458 21.7C11.4488 21.7 11.4518 21.7 11.4548 21.7C11.4578 21.7 11.4608 21.7 11.4638 21.7C11.4669 21.7 11.4699 21.7 11.4729 21.7C11.4759 21.7 11.4789 21.7 11.4819 21.7C11.4849 21.7 11.4879 21.7 11.491 21.7C11.494 21.7 11.497 21.7 11.5 21.7L11.5 20.3ZM7.32271 3.7C8.495 3.7 9.95658 3.7 11.5 3.7L11.5 2.3C9.95658 2.3 8.495 2.3 7.32271 2.3L7.32271 3.7ZM5.08097 18.2922C4.89947 16.4096 4.7 13.9032 4.7 12L3.3 12C3.3 13.9752 3.50541 16.5386 3.68744 18.4265L5.08097 18.2922ZM4.7 12C4.7 10.0968 4.89947 7.59036 5.08097 5.70783L3.68744 5.57347C3.50541 7.46142 3.3 10.0248 3.3 12L4.7 12ZM7.32271 2.3C5.4547 2.3 3.8685 3.69559 3.68744 5.57347L5.08097 5.70783C5.19105 4.5662 6.15719 3.7 7.32271 3.7L7.32271 2.3ZM7.32271 20.3C6.15719 20.3 5.19105 19.4338 5.08097 18.2922L3.68744 18.4265C3.86849 20.3044 5.4547 21.7 7.32271 21.7L7.32271 20.3Z" fill="#222628"/>
</svg>
