<svg width="24" height="24" viewBox="0 0 24 24" fill="none" xmlns="http://www.w3.org/2000/svg">
<path fill-rule="evenodd" clip-rule="evenodd" d="M11.717 6.33793C11.9043 6.3063 12.0956 6.3063 12.283 6.33793L18.283 7.35092C19.1011 7.48904 19.7 8.19752 19.7 9.0272V17.1512C19.7 17.6681 19.4618 18.1866 18.9932 18.4989C18.0086 19.1551 15.3443 20.7001 12 20.7001C8.65569 20.7001 5.9914 19.1551 5.00676 18.4989C4.53815 18.1866 4.29999 17.6681 4.29999 17.1512V9.02719C4.29999 8.19752 4.89888 7.48904 5.71698 7.35092L11.717 6.33793ZM12.0499 7.7184C12.0169 7.71281 11.9831 7.71281 11.95 7.7184L5.95005 8.73138C5.80567 8.75576 5.69999 8.88078 5.69999 9.02719V17.1512C5.69999 17.2471 5.74183 17.3064 5.78315 17.3339C6.67679 17.9295 9.06165 19.3001 12 19.3001C14.9383 19.3001 17.3232 17.9295 18.2168 17.3339C18.2581 17.3064 18.3 17.2471 18.3 17.1512V9.0272C18.3 8.88078 18.1943 8.75576 18.0499 8.73138L12.0499 7.7184Z" fill="#222628"/>
<path fill-rule="evenodd" clip-rule="evenodd" d="M22.495 14.0051C22.7683 14.2784 22.7683 14.7217 22.495 14.995L19.495 17.995C19.2216 18.2684 18.7784 18.2684 18.505 17.995C18.2316 17.7217 18.2316 17.2784 18.505 17.0051L21.505 14.0051C21.7784 13.7317 22.2216 13.7317 22.495 14.0051Z" fill="#222628"/>
<path fill-rule="evenodd" clip-rule="evenodd" d="M1.50501 14.0051C1.23164 14.2784 1.23164 14.7217 1.50501 14.995L4.50501 17.995C4.77837 18.2684 5.22159 18.2684 5.49496 17.995C5.76832 17.7217 5.76832 17.2784 5.49496 17.0051L2.49496 14.0051C2.22159 13.7317 1.77837 13.7317 1.50501 14.0051Z" fill="#222628"/>
<path fill-rule="evenodd" clip-rule="evenodd" d="M22.495 8.50507C22.7683 8.77844 22.7683 9.22166 22.495 9.49502L19.495 12.495C19.2216 12.7684 18.7784 12.7684 18.505 12.495C18.2316 12.2217 18.2316 11.7784 18.505 11.5051L21.505 8.50507C21.7784 8.23171 22.2216 8.23171 22.495 8.50507Z" fill="#222628"/>
<path fill-rule="evenodd" clip-rule="evenodd" d="M1.50501 8.50507C1.23164 8.77844 1.23164 9.22166 1.50501 9.49502L4.50501 12.495C4.77837 12.7684 5.22159 12.7684 5.49496 12.495C5.76832 12.2217 5.76832 11.7784 5.49496 11.5051L2.49496 8.50507C2.22159 8.23171 1.77837 8.23171 1.50501 8.50507Z" fill="#222628"/>
<path fill-rule="evenodd" clip-rule="evenodd" d="M9.29999 17C9.29999 16.6134 9.61339 16.3 9.99999 16.3H14C14.3866 16.3 14.7 16.6134 14.7 17C14.7 17.3866 14.3866 17.7 14 17.7H9.99999C9.61339 17.7 9.29999 17.3866 9.29999 17Z" fill="#8E44F4"/>
</svg>
