<svg width="24" height="24" viewBox="0 0 24 24" fill="none" xmlns="http://www.w3.org/2000/svg">
<path fill-rule="evenodd" clip-rule="evenodd" d="M4.72055 14.4797C5.075 14.3254 5.48746 14.4876 5.64181 14.842L7.98937 20.2331C8.04866 20.3693 8.19863 20.4416 8.34207 20.4032L9.64316 20.0545C9.81668 20.008 9.91072 19.8205 9.84418 19.6536L7.95863 14.9253C7.81543 14.5662 7.99045 14.159 8.34955 14.0158C8.70865 13.8726 9.11584 14.0476 9.25904 14.4067L11.1446 19.1351C11.5217 20.0806 10.9888 21.1434 10.0055 21.4068L8.70442 21.7554C7.8916 21.9732 7.04175 21.5636 6.70579 20.7921L4.35822 15.401C4.20388 15.0465 4.3661 14.6341 4.72055 14.4797Z" fill="#8E44F4"/>
<path fill-rule="evenodd" clip-rule="evenodd" d="M15.5234 2.35602C14.6274 2.64443 13.8002 3.118 13.0962 3.74778L6.67556 9.49209L7.82058 13.7653L8.70194 13.8619L16.2751 14.7175C17.2306 14.8255 18.1965 14.7628 19.1281 14.5335L15.5234 2.35602ZM6.41104 13.9141L5.39302 10.1148L2.52744 10.8826C2.3674 10.9255 2.27243 11.09 2.31531 11.25L3.17804 14.4698C3.22092 14.6298 3.38542 14.7248 3.54546 14.6819L6.41104 13.9141ZM5.54563 8.62448L12.1628 2.70441C13.1476 1.82331 14.3323 1.19536 15.6143 0.874884C16.0988 0.753769 16.5927 1.03591 16.7344 1.51477L20.5934 14.5513C20.7458 15.066 20.4537 15.6071 19.9399 15.7623C18.7026 16.1359 17.4022 16.2538 16.1179 16.1087L8.54714 15.2533L8.54477 15.253L7.32269 15.1192L3.90781 16.0342C3.00092 16.2772 2.06874 15.739 1.82574 14.8321L0.963014 11.6124C0.720013 10.7055 1.2582 9.77329 2.16509 9.53029L5.54563 8.62448Z" fill="#222628"/>
<path fill-rule="evenodd" clip-rule="evenodd" d="M17.3144 6.67179C17.2363 6.29316 17.48 5.92291 17.8586 5.84482L18 6.53039C17.8586 5.84482 17.8589 5.84475 17.8592 5.84469L17.8599 5.84454L17.8615 5.84423L17.8651 5.8435L17.8747 5.84164L17.9026 5.83656C17.925 5.83266 17.955 5.82782 17.9916 5.82277C18.0647 5.81268 18.1654 5.80156 18.2864 5.79542C18.5253 5.7833 18.8593 5.78972 19.2216 5.87164C19.9763 6.04231 20.8519 6.55166 21.1824 7.78522C21.513 9.01877 21.0094 9.89766 20.4411 10.4229C20.1683 10.6749 19.8822 10.8475 19.6693 10.9565C19.5614 11.0116 19.4686 11.0524 19.4003 11.0802C19.3661 11.0941 19.3377 11.1049 19.3163 11.1127L19.2896 11.1223L19.2804 11.1254L19.2769 11.1266L19.2754 11.1271L19.2747 11.1274C19.2744 11.1275 19.2741 11.1276 19.0538 10.4632L19.2741 11.1276C18.9071 11.2493 18.511 11.0504 18.3893 10.6835C18.2681 10.3179 18.465 9.92337 18.8293 9.80011L18.8299 9.7999L18.8347 9.79817C18.8417 9.79563 18.8547 9.79073 18.8727 9.78338C18.909 9.76861 18.9646 9.74442 19.0316 9.7101C19.1685 9.64006 19.3385 9.53547 19.4909 9.39467C19.7728 9.13414 19.9955 8.76465 19.8301 8.14756C19.6648 7.53047 19.2872 7.32183 18.9128 7.23716C18.7104 7.1914 18.5109 7.18583 18.3573 7.19362C18.2821 7.19744 18.2219 7.20425 18.1831 7.20961C18.1638 7.21228 18.1501 7.21454 18.1428 7.21581" fill="#222628"/>
</svg>
