<svg width="24" height="24" viewBox="0 0 24 24" fill="none" xmlns="http://www.w3.org/2000/svg">
<path fill-rule="evenodd" clip-rule="evenodd" d="M12.6999 18.3V22C12.6999 22.3866 12.3865 22.7 11.9999 22.7C11.6133 22.7 11.2999 22.3866 11.2999 22V18.3H12.6999Z" fill="#222628"/>
<path d="M5.6585 14.2001C6.28591 13.8897 6.6273 14.6897 6.6273 14.6897L6.63749 14.709C6.64751 14.7277 6.66418 14.7581 6.68767 14.7984C6.73469 14.8792 6.80874 14.9996 6.91116 15.1463C7.11658 15.4406 7.43259 15.836 7.8691 16.2312C8.73677 17.0167 10.0759 17.8001 11.9999 17.8001C13.9239 17.8001 15.263 17.0167 16.1307 16.2312C16.5672 15.836 16.8832 15.4406 17.0886 15.1463C17.1911 14.9996 17.2651 14.8792 17.3121 14.7984C17.3356 14.7581 17.3523 14.7277 17.3623 14.709L17.3723 14.6899C17.544 14.3438 17.964 14.2013 18.3103 14.3727C18.6568 14.5441 18.7987 14.964 18.6273 15.3105L18.6266 15.3119L18.6258 15.3136L18.6236 15.3179L18.6173 15.3304C18.6121 15.3403 18.6052 15.3535 18.5965 15.3698C18.5791 15.4024 18.5544 15.4472 18.5222 15.5025C18.4578 15.6131 18.3632 15.7662 18.2366 15.9476C17.984 16.3096 17.6003 16.7892 17.0703 17.269C16.005 18.2335 14.3442 19.2001 11.9999 19.2001C9.65558 19.2001 7.99474 18.2335 6.92948 17.269C6.39953 16.7892 6.01583 16.3096 5.76317 15.9476C5.63656 15.7662 5.54197 15.6131 5.47761 15.5025C5.44541 15.4472 5.4207 15.4024 5.40327 15.3698C5.39456 15.3535 5.38765 15.3403 5.38253 15.3304L5.37618 15.3179L5.37401 15.3136L5.37317 15.3119C5.37317 15.3119 5.37295 15.3114 5.37253 15.3104C5.35647 15.2716 5.04698 14.5027 5.6585 14.2001Z" fill="#8E44F4"/>
<path fill-rule="evenodd" clip-rule="evenodd" d="M7.29987 7.00005C7.29987 4.40431 9.40413 2.30005 11.9999 2.30005C14.5956 2.30005 16.6999 4.40431 16.6999 7.00005V11C16.6999 13.5958 14.5956 15.7 11.9999 15.7C9.40413 15.7 7.29987 13.5958 7.29987 11V7.00005ZM11.9999 3.70005C10.1773 3.70005 8.69987 5.17751 8.69987 7.00005V11C8.69987 12.8226 10.1773 14.3 11.9999 14.3C13.8224 14.3 15.2999 12.8226 15.2999 11V7.00005C15.2999 5.17751 13.8224 3.70005 11.9999 3.70005Z" fill="#222628"/>
</svg>
