<svg width="24" height="24" viewBox="0 0 24 24" fill="none" xmlns="http://www.w3.org/2000/svg">
<path fill-rule="evenodd" clip-rule="evenodd" d="M11.961 1.30005H12.039C13.4104 1.30004 14.4932 1.30003 15.357 1.38791C16.2407 1.4778 16.9725 1.66542 17.6112 2.09214C18.1244 2.43505 18.565 2.87568 18.9079 3.38887C19.3346 4.0275 19.5222 4.75936 19.6121 5.64305C19.7 6.50687 19.7 7.58964 19.7 8.96103V15.0391C19.7 16.4105 19.7 17.4932 19.6121 18.357C19.5222 19.2407 19.3346 19.9726 18.9079 20.6112C18.565 21.1244 18.1244 21.5651 17.6112 21.908C16.9725 22.3347 16.2407 22.5223 15.357 22.6122C14.4932 22.7001 13.4104 22.7001 12.039 22.7001H11.961C10.5896 22.7001 9.50682 22.7001 8.64299 22.6122C7.7593 22.5223 7.02744 22.3347 6.38881 21.908C5.87561 21.5651 5.43499 21.1244 5.09208 20.6112C4.66536 19.9726 4.47774 19.2407 4.38785 18.357C4.29997 17.4932 4.29998 16.4105 4.29999 15.0391V8.96102C4.29998 7.58963 4.29997 6.50687 4.38785 5.64305C4.47774 4.75936 4.66536 4.0275 5.09208 3.38887C5.43499 2.87568 5.87561 2.43505 6.38881 2.09214C7.02744 1.66542 7.7593 1.4778 8.64299 1.38791C9.50681 1.30003 10.5896 1.30004 11.961 1.30005ZM8.78468 2.78072C8.01168 2.85935 7.53687 3.0088 7.16661 3.2562C6.80628 3.49696 6.4969 3.80634 6.25614 4.16667C6.00874 4.53693 5.85929 5.01175 5.78066 5.78474C5.70083 6.56944 5.69999 7.58102 5.69999 9.00005V15C5.69999 16.4191 5.70083 17.4307 5.78066 18.2154C5.85929 18.9884 6.00874 19.4632 6.25614 19.8334C6.4969 20.1938 6.80628 20.5031 7.16661 20.7439C7.53687 20.9913 8.01168 21.1407 8.78468 21.2194C9.56937 21.2992 10.581 21.3 12 21.3C13.419 21.3 14.4306 21.2992 15.2153 21.2194C15.9883 21.1407 16.4631 20.9913 16.8334 20.7439C17.1937 20.5031 17.5031 20.1938 17.7438 19.8334C17.9912 19.4632 18.1407 18.9884 18.2193 18.2154C18.2991 17.4307 18.3 16.4191 18.3 15V9.00005C18.3 7.58102 18.2991 6.56943 18.2193 5.78474C18.1407 5.01175 17.9912 4.53693 17.7438 4.16667C17.5031 3.80634 17.1937 3.49696 16.8334 3.2562C16.4631 3.0088 15.9883 2.85935 15.2153 2.78072C14.4306 2.7009 13.419 2.70005 12 2.70005C10.581 2.70005 9.56937 2.7009 8.78468 2.78072Z" fill="#222628"/>
<path fill-rule="evenodd" clip-rule="evenodd" d="M11 19.3001C11 18.9135 11.3134 18.6001 11.7 18.6001H12.3C12.6866 18.6001 13 18.9135 13 19.3001C13 19.6867 12.6866 20.0001 12.3 20.0001H11.7C11.3134 20.0001 11 19.6867 11 19.3001Z" fill="#8E44F4"/>
</svg>
