<svg width="24" height="24" viewBox="0 0 24 24" fill="none" xmlns="http://www.w3.org/2000/svg">
<path fill-rule="evenodd" clip-rule="evenodd" d="M11.48 13.6401L12.28 13.0401C12.8904 12.5823 13.2473 12.3117 13.478 12.092C13.517 12.0549 13.5467 12.0244 13.569 12.0001C13.5467 11.9758 13.517 11.9453 13.478 11.9082C13.2473 11.6885 12.8904 11.4179 12.28 10.9601L11.48 10.3601C10.6202 9.71522 10.0772 9.31099 9.666 9.07324C9.59472 9.03202 9.53618 9.00121 9.48908 8.97825C9.47919 9.02971 9.46872 9.09502 9.45892 9.17677C9.40243 9.64835 9.4 10.3253 9.4 11.4001L9.4 12.6001C9.4 13.6749 9.40243 14.3518 9.45892 14.8234C9.46872 14.9051 9.47919 14.9705 9.48908 15.0219C9.53619 14.999 9.59472 14.9681 9.666 14.9269C10.0772 14.6892 10.6202 14.2849 11.48 13.6401ZM14.9743 11.7235C14.8667 11.1501 14.2845 10.7134 13.12 9.84008L12.32 9.24008C10.6606 7.99552 9.83087 7.37323 9.14022 7.54387C8.92437 7.5972 8.72307 7.69785 8.5509 7.83853C8 8.28867 8 9.3258 8 11.4001L8 12.6001C8 14.6744 8 15.7115 8.5509 16.1616C8.72307 16.3023 8.92437 16.403 9.14022 16.4563C9.83087 16.6269 10.6606 16.0046 12.32 14.7601L13.12 14.1601C14.2845 13.2867 14.8667 12.8501 14.9743 12.2767C15.0086 12.0939 15.0086 11.9063 14.9743 11.7235Z" fill="#222628"/>
<path fill-rule="evenodd" clip-rule="evenodd" d="M15 6.30005C15.3866 6.30005 15.7 6.61345 15.7 7.00005V17C15.7 17.3866 15.3866 17.7 15 17.7C14.6134 17.7 14.3 17.3866 14.3 17V7.00005C14.3 6.61345 14.6134 6.30005 15 6.30005Z" fill="#8E44F4"/>
</svg>
