<svg width="24" height="24" viewBox="0 0 24 24" fill="none" xmlns="http://www.w3.org/2000/svg">
<path fill-rule="evenodd" clip-rule="evenodd" d="M8.48 13.6401L9.28 13.0401C9.89039 12.5823 10.2473 12.3117 10.478 12.092C10.517 12.0549 10.5467 12.0244 10.569 12.0001C10.5467 11.9758 10.517 11.9453 10.478 11.9082C10.2473 11.6885 9.89039 11.4179 9.28 10.9601L8.48 10.3601C7.62018 9.71522 7.07716 9.31099 6.666 9.07324C6.59472 9.03202 6.53618 9.00121 6.48908 8.97825C6.47919 9.02971 6.46872 9.09502 6.45892 9.17678C6.40243 9.64835 6.4 10.3253 6.4 11.4001L6.4 12.6001C6.4 13.6749 6.40243 14.3518 6.45892 14.8234C6.46872 14.9052 6.47919 14.9705 6.48908 15.0219C6.53619 14.999 6.59472 14.9681 6.666 14.9269C7.07716 14.6892 7.62018 14.2849 8.48 13.6401ZM11.9743 11.7235C11.8667 11.1501 11.2845 10.7134 10.12 9.84008L9.32 9.24008C7.66058 7.99552 6.83086 7.37323 6.14021 7.54387C5.92437 7.5972 5.72307 7.69785 5.5509 7.83853C5 8.28867 5 9.32581 5 11.4001L5 12.6001C5 14.6744 5 15.7115 5.5509 16.1616C5.72307 16.3023 5.92437 16.403 6.14022 16.4563C6.83087 16.6269 7.66058 16.0047 9.32 14.7601L10.12 14.1601C11.2845 13.2867 11.8667 12.8501 11.9743 12.2767C12.0086 12.0939 12.0086 11.9063 11.9743 11.7235Z" fill="#222628"/>
<path fill-rule="evenodd" clip-rule="evenodd" d="M14.48 13.6401L15.28 13.0401C15.8904 12.5823 16.2473 12.3117 16.478 12.092C16.517 12.0549 16.5467 12.0244 16.569 12.0001C16.5467 11.9758 16.517 11.9453 16.478 11.9082C16.2473 11.6885 15.8904 11.4179 15.28 10.9601L14.48 10.3601C13.6202 9.71522 13.0772 9.31099 12.666 9.07324C12.5947 9.03202 12.5362 9.00121 12.4891 8.97825C12.4792 9.02971 12.4687 9.09502 12.4589 9.17678C12.4024 9.64835 12.4 10.3253 12.4 11.4001L12.4 12.6001C12.4 13.6749 12.4024 14.3518 12.4589 14.8234C12.4687 14.9052 12.4792 14.9705 12.4891 15.0219C12.5362 14.999 12.5947 14.9681 12.666 14.9269C13.0772 14.6892 13.6202 14.2849 14.48 13.6401ZM17.9743 11.7235C17.8667 11.1501 17.2845 10.7134 16.12 9.84008L15.32 9.24008C13.6606 7.99552 12.8309 7.37323 12.1402 7.54387C11.9244 7.5972 11.7231 7.69785 11.5509 7.83853C11 8.28867 11 9.32581 11 11.4001L11 12.6001C11 14.6744 11 15.7115 11.5509 16.1616C11.7231 16.3023 11.9244 16.403 12.1402 16.4563C12.8309 16.6269 13.6606 16.0047 15.32 14.7601L16.12 14.1601C17.2845 13.2867 17.8667 12.8501 17.9743 12.2767C18.0086 12.0939 18.0086 11.9063 17.9743 11.7235Z" fill="#8E44F4"/>
</svg>
