<svg width="24" height="24" viewBox="0 0 24 24" fill="none" xmlns="http://www.w3.org/2000/svg">
<path d="M15.0101 6.3967C15.1191 5.86354 15.8809 5.86353 15.9899 6.3967L16.1975 7.41269C16.2376 7.60895 16.391 7.76233 16.5873 7.80244L17.6033 8.0101C18.1364 8.11907 18.1364 8.88087 17.6033 8.98984L16.5873 9.1975C16.391 9.23762 16.2376 9.39099 16.1975 9.58725L15.9899 10.6032C15.8809 11.1364 15.1191 11.1364 15.0101 10.6032L14.8025 9.58725C14.7624 9.39099 14.609 9.23762 14.4127 9.1975L13.3967 8.98984C12.8636 8.88087 12.8636 8.11907 13.3967 8.0101L14.4127 7.80244C14.609 7.76233 14.7624 7.60895 14.8025 7.41269L15.0101 6.3967Z" fill="#8E44F4"/>
<path d="M18 4.96046C17.6381 4.70506 17.8981 4.13803 18.3278 4.24562L18.6829 4.33454C18.8382 4.37341 19.0017 4.31601 19.0985 4.18861L19.4008 3.79109C19.6593 3.45102 20.1994 3.69867 20.1104 4.1165L20.0064 4.60491C19.9731 4.76144 20.0362 4.92277 20.167 5.01504L20.4661 5.22612C20.828 5.48153 20.568 6.04855 20.1383 5.94096L19.7832 5.85204C19.6279 5.81317 19.4645 5.87057 19.3676 5.99797L19.0654 6.39549C18.8068 6.73556 18.2667 6.48791 18.3557 6.07009L18.4597 5.58168C18.4931 5.42515 18.4299 5.26382 18.2991 5.17154L18 4.96046Z" fill="#8E44F4"/>
<path fill-rule="evenodd" clip-rule="evenodd" d="M10.5734 3.90149C10.5735 3.90134 10.5736 3.9012 10.5737 3.90106C10.5738 3.90097 10.5739 3.90088 10.5739 3.90079C10.7326 3.6737 10.7424 3.37434 10.5988 3.13731C10.455 2.89983 10.1844 2.7698 9.90909 2.80588L10.0001 3.49995C9.90909 2.80588 9.90875 2.80593 9.9084 2.80597L9.90762 2.80608L9.90579 2.80632L9.90109 2.80696L9.88753 2.8089C9.87666 2.8105 9.86216 2.81271 9.84421 2.81563C9.8083 2.82148 9.75851 2.83018 9.69623 2.8425C9.57172 2.86711 9.39687 2.90624 9.18276 2.966C8.7551 3.08535 8.16726 3.28797 7.50968 3.62388C6.19157 4.29721 4.58972 5.50886 3.45088 7.6497C1.5805 11.1657 1.80328 14.9586 3.78562 17.7389C5.77285 20.526 9.43768 22.174 14.2049 21.6036L14.2088 21.6032C16.7714 21.282 18.6213 20.0761 19.823 18.9598C20.4236 18.4019 20.866 17.8634 21.16 17.4615C21.3072 17.2602 21.4178 17.0923 21.493 16.9722C21.5307 16.9121 21.5595 16.8639 21.5797 16.8293C21.5898 16.812 21.5978 16.7981 21.6036 16.7878L21.6106 16.7751L21.613 16.7709L21.6139 16.7693L21.6142 16.7686C21.6144 16.7683 21.6145 16.768 21.0001 16.4328L21.6145 16.768C21.7458 16.5275 21.7246 16.2326 21.5604 16.0133C21.3963 15.7941 21.1195 15.6907 20.8518 15.7486L20.8515 15.7487L20.8496 15.7491L20.8375 15.7516C20.8261 15.754 20.8081 15.7577 20.7837 15.7624C20.735 15.772 20.6612 15.7859 20.565 15.8024C20.3724 15.8356 20.0908 15.8793 19.7418 15.9198C19.042 16.0011 18.0802 16.0689 17.0271 16.0172C14.8866 15.9121 12.5433 15.3235 11.1388 13.5634C9.1721 11.0985 9.0446 8.69246 9.39464 6.89299C9.5713 5.98478 9.87126 5.22784 10.1271 4.6988C10.2546 4.43499 10.3702 4.22994 10.452 4.09346C10.4929 4.02528 10.5253 3.9744 10.5464 3.94205C10.557 3.92588 10.5647 3.91436 10.5692 3.90765L10.5736 3.9012L10.5734 3.90149ZM19.4387 17.3586C18.746 17.4216 17.8875 17.4612 16.9584 17.4155C14.6926 17.3042 11.8317 16.6764 10.0445 14.4365C7.77565 11.5931 7.60734 8.74913 8.02039 6.62567C8.16902 5.86163 8.39207 5.19255 8.616 4.64976C8.46609 4.7144 8.30895 4.78768 8.14656 4.87063C7.02818 5.44193 5.66445 6.46952 4.68688 8.3072C3.03965 11.4037 3.28245 14.6216 4.92554 16.9261C6.56349 19.2234 9.68328 20.7341 14.0368 20.2138C16.235 19.9378 17.8237 18.9061 18.8702 17.934C19.0824 17.7369 19.2718 17.5427 19.4387 17.3586Z" fill="#222628"/>
</svg>
