<svg width="24" height="24" viewBox="0 0 24 24" fill="none" xmlns="http://www.w3.org/2000/svg">
<path fill-rule="evenodd" clip-rule="evenodd" d="M3 8.29995L4.23529 8.29995C5.65433 8.29995 6.66591 8.2991 7.4506 8.21928C8.2236 8.14065 8.69842 7.9912 9.06868 7.7438C9.429 7.50304 9.73838 7.19366 9.97914 6.83333C10.2265 6.46307 10.376 5.98825 10.4546 5.21526C10.5344 4.43057 10.5353 3.41898 10.5353 1.99995L11.9353 1.99995L11.9353 2.03901C11.9353 3.41038 11.9353 4.49314 11.8474 5.35695C11.7575 6.24064 11.5699 6.9725 11.1432 7.61113C10.8003 8.12432 10.3597 8.56495 9.84647 8.90786C9.20784 9.33458 8.47598 9.5222 7.59229 9.61209C6.72848 9.69997 5.64571 9.69996 4.27433 9.69995L3 9.69995L3 8.29995Z" fill="#222628"/>
<path fill-rule="evenodd" clip-rule="evenodd" d="M12.7182 1.29994C12.751 1.29994 12.7841 1.29995 12.8177 1.29995L13.8418 1.29995C15.3063 1.29994 16.4625 1.29993 17.3816 1.39951C18.3226 1.50146 19.0977 1.71446 19.7626 2.19757C20.1616 2.48746 20.5125 2.83835 20.8024 3.23736C21.2855 3.90231 21.4985 4.67742 21.6005 5.61836C21.7 6.53747 21.7 7.69368 21.7 9.15817V14.8417C21.7 16.3062 21.7 17.4624 21.6005 18.3815C21.4985 19.3225 21.2855 20.0976 20.8024 20.7625C20.5125 21.1615 20.1616 21.5124 19.7626 21.8023C19.0977 22.2854 18.3226 22.4984 17.3816 22.6004C16.4625 22.7 15.3063 22.7 13.8417 22.6999H10.1583C8.6938 22.7 7.53757 22.7 6.61844 22.6004C5.6775 22.4984 4.90239 22.2854 4.23744 21.8023C3.83843 21.5124 3.48754 21.1615 3.19765 20.7625C2.71454 20.0976 2.50154 19.3225 2.39959 18.3815C2.30001 17.4624 2.30002 16.3062 2.30003 14.8417L2.30003 11.2724C2.30003 11.2255 2.30002 11.1793 2.30001 11.1335C2.29969 9.7494 2.29948 8.86952 2.60206 8.06675C2.70171 7.80236 2.825 7.5475 2.97043 7.30526C3.412 6.56972 4.10197 6.02372 5.18736 5.16481C5.22322 5.13643 5.25952 5.1077 5.29626 5.07861L7.91392 3.00616C7.94023 2.98532 7.96623 2.96473 7.99192 2.94438C8.78083 2.31957 9.28233 1.92237 9.86621 1.67427C10.0594 1.59218 10.2579 1.52312 10.4603 1.46757C11.0721 1.29965 11.7118 1.29976 12.7182 1.29994ZM12.8177 2.69995C11.6787 2.69995 11.2386 2.70571 10.8308 2.81764C10.6887 2.85665 10.5494 2.90513 10.4137 2.96277C10.0245 3.12815 9.67594 3.39679 8.78294 4.10379L6.16528 6.17625C4.93361 7.15139 4.46482 7.536 4.17073 8.02586C4.06863 8.19594 3.98206 8.37489 3.91209 8.56052C3.71058 9.09516 3.70003 9.70145 3.70003 11.2724V14.7999C3.70003 16.3154 3.70099 17.3958 3.79145 18.2307C3.88049 19.0526 4.04945 19.5531 4.33027 19.9396C4.53382 20.2198 4.78019 20.4662 5.06034 20.6697C5.44685 20.9505 5.94742 21.1195 6.76924 21.2085C7.60416 21.299 8.68454 21.2999 10.2 21.2999H13.8C15.3155 21.2999 16.3959 21.299 17.2308 21.2085C18.0526 21.1195 18.5532 20.9505 18.9397 20.6697C19.2199 20.4662 19.4662 20.2198 19.6698 19.9396C19.9506 19.5531 20.1196 19.0526 20.2086 18.2307C20.2991 17.3958 20.3 16.3154 20.3 14.7999V9.19995C20.3 7.68446 20.2991 6.60408 20.2086 5.76916C20.1196 4.94734 19.9506 4.44677 19.6698 4.06026C19.4662 3.78011 19.2199 3.53374 18.9397 3.33019C18.5532 3.04937 18.0526 2.88041 17.2308 2.79137C16.3959 2.70091 15.3155 2.69995 13.8 2.69995H12.8177Z" fill="#222628"/>
<path fill-rule="evenodd" clip-rule="evenodd" d="M11.2223 11.7779C11.6518 11.3483 12.3483 11.3483 12.7779 11.7779L14.5758 13.5758C14.8101 13.8101 14.8101 14.19 14.5758 14.4243C14.3415 14.6586 13.9616 14.6586 13.7273 14.4243L12.6001 13.2971L12.6001 18.3001C12.6001 18.6314 12.3315 18.9001 12.0001 18.9001C11.6687 18.9001 11.4001 18.6314 11.4001 18.3001L11.4001 13.2971L10.2729 14.4243C10.0385 14.6586 9.65865 14.6586 9.42433 14.4243C9.19002 14.19 9.19002 13.8101 9.42433 13.5758L11.2223 11.7779Z" fill="#8E44F4"/>
</svg>
