<svg width="24" height="24" viewBox="0 0 24 24" fill="none" xmlns="http://www.w3.org/2000/svg">
<path fill-rule="evenodd" clip-rule="evenodd" d="M3 8.29995L4.23529 8.29995C5.65433 8.29995 6.66591 8.2991 7.4506 8.21928C8.2236 8.14065 8.69842 7.9912 9.06868 7.7438C9.429 7.50304 9.73838 7.19366 9.97914 6.83333C10.2265 6.46307 10.376 5.98825 10.4546 5.21526C10.5344 4.43057 10.5353 3.41898 10.5353 1.99995L11.9353 1.99995L11.9353 2.03901C11.9353 3.41038 11.9353 4.49314 11.8474 5.35695C11.7575 6.24064 11.5699 6.9725 11.1432 7.61113C10.8003 8.12432 10.3597 8.56495 9.84647 8.90786C9.20784 9.33458 8.47598 9.5222 7.59229 9.61209C6.72848 9.69997 5.64571 9.69996 4.27433 9.69995L3 9.69995L3 8.29995Z" fill="#222628"/>
<path fill-rule="evenodd" clip-rule="evenodd" d="M12.7181 1.29994C12.7509 1.29994 12.7841 1.29995 12.8177 1.29995L13.8418 1.29995C15.3063 1.29994 16.4625 1.29993 17.3816 1.39951C18.3225 1.50146 19.0976 1.71446 19.7626 2.19757C20.1616 2.48746 20.5125 2.83835 20.8024 3.23736C21.2855 3.90231 21.4985 4.67742 21.6004 5.61836C21.7 6.53747 21.7 7.69368 21.7 9.15817V14.8417C21.7 16.3062 21.7 17.4624 21.6004 18.3815C21.4985 19.3225 21.2855 20.0976 20.8024 20.7625C20.5125 21.1615 20.1616 21.5124 19.7626 21.8023C19.0976 22.2854 18.3225 22.4984 17.3816 22.6004C16.4625 22.7 15.3062 22.7 13.8417 22.6999H10.1583C8.69377 22.7 7.53754 22.7 6.61841 22.6004C5.67747 22.4984 4.90236 22.2854 4.23741 21.8023C3.8384 21.5124 3.48751 21.1615 3.19762 20.7625C2.71451 20.0976 2.50151 19.3225 2.39956 18.3815C2.29998 17.4624 2.29999 16.3062 2.3 14.8417L2.3 11.2724C2.3 11.2255 2.29999 11.1793 2.29998 11.1335C2.29966 9.7494 2.29945 8.86952 2.60203 8.06675C2.70168 7.80236 2.82497 7.5475 2.9704 7.30526C3.41197 6.56972 4.10194 6.02372 5.18732 5.16481C5.22319 5.13643 5.25949 5.1077 5.29623 5.07861L7.91389 3.00616C7.9402 2.98532 7.9662 2.96473 7.99189 2.94438C8.7808 2.31957 9.2823 1.92237 9.86618 1.67427C10.0594 1.59218 10.2578 1.52312 10.4603 1.46757C11.072 1.29965 11.7118 1.29976 12.7181 1.29994ZM12.8177 2.69995C11.6787 2.69995 11.2386 2.70571 10.8308 2.81764C10.6887 2.85665 10.5493 2.90513 10.4137 2.96277C10.0245 3.12815 9.6759 3.39679 8.78291 4.10379L6.16525 6.17625C4.93358 7.15139 4.46479 7.536 4.1707 8.02586C4.06859 8.19594 3.98203 8.37489 3.91206 8.56052C3.71055 9.09516 3.7 9.70145 3.7 11.2724V14.7999C3.7 16.3154 3.70096 17.3958 3.79142 18.2307C3.88046 19.0526 4.04942 19.5531 4.33024 19.9396C4.53379 20.2198 4.78016 20.4662 5.06031 20.6697C5.44682 20.9505 5.94739 21.1195 6.76921 21.2085C7.60413 21.299 8.68451 21.2999 10.2 21.2999H13.8C15.3155 21.2999 16.3959 21.299 17.2308 21.2085C18.0526 21.1195 18.5532 20.9505 18.9397 20.6697C19.2198 20.4662 19.4662 20.2198 19.6698 19.9396C19.9506 19.5531 20.1195 19.0526 20.2086 18.2307C20.299 17.3958 20.3 16.3154 20.3 14.7999V9.19995C20.3 7.68446 20.299 6.60408 20.2086 5.76916C20.1195 4.94734 19.9506 4.44677 19.6698 4.06026C19.4662 3.78011 19.2198 3.53374 18.9397 3.33019C18.5532 3.04937 18.0526 2.88041 17.2308 2.79137C16.3959 2.70091 15.3155 2.69995 13.8 2.69995H12.8177Z" fill="#222628"/>
<path fill-rule="evenodd" clip-rule="evenodd" d="M12 11.1C12.3314 11.1 12.6 11.3686 12.6 11.7V16.7029L13.7272 15.5757C13.9615 15.3414 14.3414 15.3414 14.5757 15.5757C14.8101 15.81 14.8101 16.1899 14.5757 16.4242L12.7778 18.2222C12.3482 18.6517 11.6518 18.6517 11.2222 18.2222L9.42427 16.4242C9.18996 16.1899 9.18996 15.81 9.42427 15.5757C9.65859 15.3414 10.0385 15.3414 10.2728 15.5757L11.4 16.7029V11.7C11.4 11.3686 11.6686 11.1 12 11.1Z" fill="#8E44F4"/>
</svg>
