<svg width="24" height="24" viewBox="0 0 24 24" fill="none" xmlns="http://www.w3.org/2000/svg">
<path fill-rule="evenodd" clip-rule="evenodd" d="M3 8.29995L4.23529 8.29995C5.65433 8.29995 6.66591 8.2991 7.4506 8.21928C8.2236 8.14065 8.69842 7.9912 9.06868 7.7438C9.429 7.50304 9.73838 7.19366 9.97914 6.83333C10.2265 6.46307 10.376 5.98825 10.4546 5.21526C10.5344 4.43057 10.5353 3.41898 10.5353 1.99995L11.9353 1.99995L11.9353 2.03901C11.9353 3.41038 11.9353 4.49314 11.8474 5.35695C11.7575 6.24064 11.5699 6.9725 11.1432 7.61113C10.8003 8.12432 10.3597 8.56495 9.84647 8.90786C9.20784 9.33458 8.47598 9.5222 7.59229 9.61209C6.72848 9.69997 5.64571 9.69996 4.27433 9.69995L3 9.69995L3 8.29995Z" fill="#222628"/>
<path fill-rule="evenodd" clip-rule="evenodd" d="M12.5684 1.29994C12.6019 1.29994 12.6358 1.29995 12.6702 1.29995L13.3418 1.29995C14.8063 1.29994 15.9625 1.29993 16.8816 1.39951C17.8225 1.50146 18.5976 1.71446 19.2626 2.19757C19.6616 2.48746 20.0125 2.83835 20.3024 3.23736C20.7855 3.90231 20.9985 4.67742 21.1004 5.61836C21.2 6.53747 21.2 7.69368 21.2 9.15817V14.8417C21.2 16.3062 21.2 17.4624 21.1004 18.3815C20.9985 19.3225 20.7855 20.0976 20.3024 20.7625C20.0125 21.1615 19.6616 21.5124 19.2626 21.8023C18.5976 22.2854 17.8225 22.4984 16.8816 22.6004C15.9625 22.7 14.8062 22.7 13.3417 22.7H10.1583C8.69377 22.7 7.53754 22.7 6.61841 22.6004C5.67747 22.4984 4.90236 22.2854 4.23741 21.8023C3.8384 21.5124 3.48751 21.1615 3.19762 20.7625C2.71451 20.0976 2.50151 19.3225 2.39956 18.3815C2.29998 17.4624 2.29999 16.3062 2.3 14.8417L2.3 11.2115C2.3 11.1655 2.29999 11.12 2.29998 11.0751C2.29967 9.71416 2.29947 8.84902 2.59298 8.05714C2.68967 7.79626 2.80934 7.54448 2.95057 7.30476C3.37927 6.57713 4.05024 6.031 5.10572 5.17187C5.14057 5.14351 5.17583 5.11481 5.21152 5.08574L7.68168 3.07418C7.7083 3.05251 7.73459 3.03109 7.76057 3.00992C8.55769 2.36056 9.06443 1.94776 9.65833 1.68959C9.8548 1.60418 10.0569 1.53231 10.2631 1.47448C10.8867 1.29964 11.5403 1.29976 12.5684 1.29994ZM12.6702 2.69995C11.5063 2.69995 11.0567 2.70596 10.6411 2.82249C10.4963 2.8631 10.3544 2.91356 10.2165 2.97352C9.8206 3.1456 9.46816 3.42486 8.56572 4.15976L6.09555 6.17132C4.89805 7.14651 4.44231 7.53081 4.15679 8.01543C4.05762 8.18374 3.9736 8.36052 3.90571 8.5437C3.71022 9.07112 3.7 9.66717 3.7 11.2115V14.8C3.7 16.3154 3.70096 17.3958 3.79142 18.2307C3.88046 19.0526 4.04942 19.5531 4.33024 19.9396C4.53379 20.2198 4.78016 20.4662 5.06031 20.6697C5.44682 20.9505 5.94739 21.1195 6.76921 21.2085C7.60413 21.299 8.68451 21.2999 10.2 21.2999H13.3C14.8155 21.2999 15.8959 21.299 16.7308 21.2085C17.5526 21.1195 18.0532 20.9505 18.4397 20.6697C18.7198 20.4662 18.9662 20.2198 19.1698 19.9396C19.4506 19.5531 19.6195 19.0526 19.7086 18.2307C19.799 17.3958 19.8 16.3154 19.8 14.7999V9.19995C19.8 7.68446 19.799 6.60408 19.7086 5.76916C19.6195 4.94734 19.4506 4.44677 19.1698 4.06026C18.9662 3.78011 18.7198 3.53374 18.4397 3.33019C18.0532 3.04937 17.5526 2.88041 16.7308 2.79137C15.8959 2.70091 14.8155 2.69995 13.3 2.69995H12.6702Z" fill="#222628"/>
<path fill-rule="evenodd" clip-rule="evenodd" d="M17 17.6999C17 18.0865 16.6866 18.3999 16.3 18.3999L7.7 18.3999C7.3134 18.3999 7 18.0865 7 17.6999C7 17.3133 7.3134 16.9999 7.7 16.9999L16.3 16.9999C16.6866 16.9999 17 17.3133 17 17.6999Z" fill="#8E44F4"/>
<path fill-rule="evenodd" clip-rule="evenodd" d="M14 13.6999C14 14.0865 13.6866 14.3999 13.3 14.3999L7.7 14.3999C7.3134 14.3999 7 14.0865 7 13.6999C7 13.3133 7.3134 12.9999 7.7 12.9999L13.3 12.9999C13.6866 12.9999 14 13.3133 14 13.6999Z" fill="#8E44F4"/>
</svg>
