<svg width="24" height="24" viewBox="0 0 24 24" fill="none" xmlns="http://www.w3.org/2000/svg">
<path fill-rule="evenodd" clip-rule="evenodd" d="M7.74656 20.5052C8.77736 20.5987 10.105 20.6 12 20.6C13.895 20.6 15.2226 20.5987 16.2534 20.5052C17.265 20.4136 17.8524 20.2421 18.3 19.9837C18.9993 19.58 19.58 18.9993 19.9837 18.3C20.2421 17.8524 20.4136 17.265 20.5052 16.2534C20.5987 15.2226 20.6 13.895 20.6 12C20.6 10.105 20.5987 8.77736 20.5052 7.74656C20.4136 6.73501 20.2421 6.14756 19.9837 5.7C19.58 5.00071 18.9993 4.42002 18.3 4.01628C17.8524 3.75788 17.265 3.58645 16.2534 3.49477C15.2226 3.40134 13.895 3.4 12 3.4C10.105 3.4 8.77736 3.40134 7.74656 3.49477C6.73501 3.58645 6.14756 3.75788 5.7 4.01628C5.00071 4.42002 4.42002 5.00071 4.01628 5.7C3.75788 6.14756 3.58645 6.73501 3.49477 7.74656C3.40134 8.77736 3.4 10.105 3.4 12C3.4 13.895 3.40134 15.2226 3.49477 16.2534C3.58645 17.265 3.75788 17.8524 4.01628 18.3C4.42002 18.9993 5.00071 19.58 5.7 19.9837C6.14756 20.2421 6.73501 20.4136 7.74656 20.5052ZM2.80385 5C2 6.3923 2 8.26154 2 12C2 15.7385 2 17.6077 2.80385 19C3.33046 19.9121 4.08788 20.6695 5 21.1962C6.3923 22 8.26154 22 12 22C15.7385 22 17.6077 22 19 21.1962C19.9121 20.6695 20.6695 19.9121 21.1962 19C22 17.6077 22 15.7385 22 12C22 8.26154 22 6.3923 21.1962 5C20.6695 4.08788 19.9121 3.33046 19 2.80385C17.6077 2 15.7385 2 12 2C8.26154 2 6.3923 2 5 2.80385C4.08788 3.33046 3.33046 4.08788 2.80385 5Z" fill="#222628"/>
<path fill-rule="evenodd" clip-rule="evenodd" d="M12.389 13.231L12.5946 13.1025C13.3503 12.6302 13.8069 12.3419 14.104 12.1024C14.1545 12.0616 14.1935 12.0276 14.2232 12.0001C14.1935 11.9725 14.1545 11.9385 14.104 11.8977C13.8069 11.6582 13.3503 11.3699 12.5946 10.8977L12.389 10.7691C11.5529 10.2466 11.0342 9.92529 10.6454 9.74295C10.5787 9.71167 10.5243 9.68876 10.4809 9.67201C10.4721 9.71768 10.4627 9.77592 10.4539 9.84908C10.4024 10.2755 10.4 10.8856 10.4 11.8715L10.4 12.1286C10.4 13.1145 10.4024 13.7247 10.4539 14.151C10.4627 14.2242 10.4721 14.2824 10.4809 14.3281C10.5243 14.3114 10.5787 14.2884 10.6454 14.2572C11.0342 14.0748 11.5529 13.7535 12.389 13.231ZM15.6392 11.6985C15.5099 11.0688 14.7855 10.616 13.3366 9.71046L13.131 9.58193C11.5223 8.5765 10.718 8.07378 10.0665 8.27042C9.8619 8.33219 9.67283 8.43698 9.512 8.57777C8.99999 9.02596 8.99999 9.97448 8.99999 11.8715L8.99999 12.1286C8.99999 14.0256 8.99999 14.9741 9.512 15.4223C9.67283 15.5631 9.8619 15.6679 10.0665 15.7297C10.718 15.9263 11.5223 15.4236 13.131 14.4182L13.3366 14.2897C14.7855 13.3841 15.5099 12.9314 15.6392 12.3016C15.68 12.1027 15.68 11.8975 15.6392 11.6985Z" fill="#8E44F4"/>
</svg>
