<svg width="24" height="24" viewBox="0 0 24 24" fill="none" xmlns="http://www.w3.org/2000/svg">
<path fill-rule="evenodd" clip-rule="evenodd" d="M17.3556 11.3144C17.4546 11.7661 17.4546 12.2339 17.3556 12.6855C17.1897 13.442 16.6754 14.015 15.9997 14.5503C15.3334 15.0783 14.3967 15.6547 13.221 16.3782L13.1384 16.429C11.8573 17.2174 10.8412 17.8427 10.0118 18.2263C9.17618 18.6127 8.38379 18.8263 7.60106 18.5972C7.13879 18.4619 6.71304 18.224 6.35553 17.9012C5.75018 17.3547 5.5168 16.5679 5.40797 15.6536C5.29995 14.7463 5.29996 13.5532 5.29998 12.049L5.29998 11.951C5.29996 10.4468 5.29995 9.25365 5.40797 8.34631C5.5168 7.43206 5.75018 6.64528 6.35553 6.09873C6.71304 5.77595 7.13879 5.53804 7.60106 5.40273C8.38379 5.17363 9.17618 5.38722 10.0118 5.77368C10.8412 6.15723 11.8573 6.78256 13.1384 7.57091L13.221 7.62173C14.3967 8.34524 15.3334 8.92168 15.9997 9.44964C16.6754 9.98498 17.1897 10.558 17.3556 11.3144ZM15.9881 12.3856C16.0438 12.1315 16.0438 11.8684 15.9881 11.6143C15.9265 11.3337 15.7219 11.0157 15.1303 10.5469C14.5371 10.0769 13.6722 9.54328 12.4464 8.78891C11.1143 7.96916 10.1688 7.38875 9.4242 7.04438C8.67687 6.69877 8.2779 6.66336 7.99434 6.74636C7.73431 6.82247 7.49482 6.95629 7.29373 7.13786C7.07442 7.33586 6.89548 7.6942 6.79815 8.5118C6.70117 9.32648 6.69998 10.4358 6.69998 12C6.69998 13.5641 6.70117 14.6735 6.79815 15.4881C6.89548 16.3057 7.07442 16.6641 7.29373 16.8621C7.49482 17.0436 7.73431 17.1775 7.99433 17.2536C8.2779 17.3366 8.67687 17.3012 9.42419 16.9556C10.1688 16.6112 11.1143 16.0308 12.4464 15.211C13.6722 14.4567 14.5371 13.9231 15.1303 13.453C15.7219 12.9842 15.9265 12.6662 15.9881 12.3856Z" fill="#222628"/>
<path fill-rule="evenodd" clip-rule="evenodd" d="M15.9926 12.3644C16.0423 12.124 16.0423 11.876 15.9926 11.6357C15.9334 11.3492 15.7285 11.0258 15.1294 10.5495C14.5284 10.0717 13.6502 9.52978 12.4054 8.76372L12.1331 8.59619C11.8039 8.39357 11.7012 7.96241 11.9038 7.63316C12.1064 7.30391 12.5376 7.20125 12.8668 7.40386L13.1806 7.59696C14.3745 8.33165 15.3257 8.91699 16.0007 9.45366C16.6853 9.99801 17.2043 10.5815 17.3636 11.3523C17.452 11.7796 17.452 12.2205 17.3636 12.6478C17.2043 13.4185 16.6853 14.002 16.0007 14.5464C15.3257 15.0831 14.3745 15.6684 13.1806 16.4031L12.8668 16.5962C12.5376 16.7988 12.1064 16.6961 11.9038 16.3669C11.7012 16.0376 11.8039 15.6065 12.1331 15.4039L12.4054 15.2363C13.6502 14.4703 14.5284 13.9284 15.1294 13.4506C15.7285 12.9742 15.9334 12.6509 15.9926 12.3644Z" fill="#8E44F4"/>
</svg>
