<svg width="24" height="24" viewBox="0 0 24 24" fill="none" xmlns="http://www.w3.org/2000/svg">
<path fill-rule="evenodd" clip-rule="evenodd" d="M18.7 12.0001C18.7 12.3867 18.3866 12.7001 18 12.7001L6 12.7001C5.6134 12.7001 5.3 12.3867 5.3 12.0001C5.3 11.6135 5.6134 11.3001 6 11.3001L18 11.3001C18.3866 11.3001 18.7 11.6135 18.7 12.0001Z" fill="#8E44F4"/>
<path fill-rule="evenodd" clip-rule="evenodd" d="M12 5.30005C12.3866 5.30005 12.7 5.61345 12.7 6.00005V18C12.7 18.3866 12.3866 18.7 12 18.7C11.6134 18.7 11.3 18.3866 11.3 18V6.00005C11.3 5.61345 11.6134 5.30005 12 5.30005Z" fill="#8E44F4"/>
</svg>
