<svg width="24" height="24" viewBox="0 0 24 24" fill="none" xmlns="http://www.w3.org/2000/svg">
<path fill-rule="evenodd" clip-rule="evenodd" d="M16.2562 14.9564C16.1729 14.9562 16.0276 14.9667 15.6442 14.9961C14.4421 15.0883 13.0491 15.1668 11.7854 15.1668C10.5747 15.1668 9.22892 15.0947 8.04323 15.0077C7.64565 14.9785 7.49467 14.9681 7.40958 14.9687C6.26934 14.9775 5.38417 15.7142 5.16866 16.834C5.15251 16.9178 5.13761 17.048 5.09916 17.3986C5.06215 17.7361 5.04942 17.8586 5.04748 17.9526C5.02248 19.162 5.9386 20.1841 7.14354 20.2911C7.23715 20.2994 7.36038 20.3001 7.69988 20.3001L15.9975 20.3001C16.3707 20.3001 16.5067 20.2993 16.607 20.2897C17.8664 20.1696 18.7924 19.055 18.6795 17.7949C18.6705 17.6945 18.6464 17.5607 18.578 17.1938C18.5159 16.8609 18.4923 16.7378 18.4705 16.657C18.1889 15.6137 17.3369 14.9593 16.2562 14.9564ZM15.5851 13.5965C15.9055 13.5719 16.1128 13.556 16.26 13.5564C17.972 13.5611 19.376 14.6394 19.8221 16.2922C19.8605 16.4343 19.8947 16.6179 19.9468 16.8971L19.9622 16.9798C20.0199 17.2888 20.0582 17.4941 20.074 17.67C20.2555 19.6971 18.7659 21.4902 16.7399 21.6834C16.5641 21.7002 16.3552 21.7001 16.0409 21.7001L7.69988 21.7001C7.68665 21.7001 7.67361 21.7001 7.66076 21.7001C7.37443 21.7001 7.18359 21.7002 7.01971 21.6856C5.08133 21.5135 3.60757 19.8693 3.64778 17.9237C3.65118 17.7592 3.672 17.5695 3.70324 17.2848C3.70464 17.2721 3.70607 17.2591 3.70751 17.246C3.70908 17.2316 3.71063 17.2175 3.71215 17.2036C3.74435 16.9097 3.76547 16.717 3.79389 16.5694C4.13549 14.7945 5.5915 13.5826 7.39886 13.5688C7.54924 13.5676 7.76361 13.5834 8.0958 13.6078C8.11215 13.609 8.12878 13.6102 8.1457 13.6114C9.31561 13.6973 10.6233 13.7668 11.7854 13.7668C12.9983 13.7668 14.3516 13.6911 15.5371 13.6002L15.5851 13.5965Z" fill="#222628"/>
<path fill-rule="evenodd" clip-rule="evenodd" d="M7.29999 7.00005C7.29999 4.40431 9.40425 2.30005 12 2.30005C14.5957 2.30005 16.7 4.40431 16.7 7.00005V7.57148C16.7 9.85162 14.8516 11.7 12.5714 11.7H11.4286C9.14841 11.7 7.29999 9.85162 7.29999 7.57148V7.00005ZM12 3.70005C10.1774 3.70005 8.69999 5.17751 8.69999 7.00005V7.57148C8.69999 9.07843 9.92161 10.3 11.4286 10.3H12.5714C14.0784 10.3 15.3 9.07843 15.3 7.57148V7.00005C15.3 5.17751 13.8225 3.70005 12 3.70005Z" fill="#8E44F4"/>
</svg>
