<svg width="24" height="24" viewBox="0 0 24 24" fill="none" xmlns="http://www.w3.org/2000/svg">
<path fill-rule="evenodd" clip-rule="evenodd" d="M6.47148 4.62207C8.91156 2.86552 12.6312 2.21878 17.6991 4.63203C18.0481 4.79824 18.4658 4.65002 18.632 4.30098C18.7982 3.95193 18.65 3.53423 18.301 3.36802C12.8688 0.78127 8.58846 1.3731 5.65355 3.48585C2.76555 5.56482 1.30001 9.03627 1.30001 12C1.30001 17.9095 6.09056 22.7 12 22.7C17.9095 22.7 22.7 17.9095 22.7 12C22.7 11.6134 22.3866 11.3 22 11.3C21.6134 11.3 21.3 11.6134 21.3 12C21.3 17.1363 17.1363 21.3 12 21.3C6.86376 21.3 2.70001 17.1363 2.70001 12C2.70001 9.44094 3.98447 6.41238 6.47148 4.62207Z" fill="#222628"/>
<path fill-rule="evenodd" clip-rule="evenodd" d="M17.3358 1.09188C17.3358 1.09188 17.3358 1.09188 17.3358 1.09188L17.3506 1.13179L17.3934 1.24752C17.4303 1.34766 17.4829 1.49136 17.5456 1.66489C17.671 2.01238 17.8358 2.47754 17.9948 2.95122C18.1547 3.42756 18.3048 3.90144 18.4034 4.27009C18.4189 4.32789 18.4326 4.38148 18.4447 4.43076C18.3964 4.44634 18.3436 4.46275 18.2862 4.4799C17.9207 4.58933 17.4384 4.71003 16.949 4.82376C16.4623 4.93686 15.9798 5.04046 15.6182 5.11594C15.4376 5.15363 15.2877 5.1842 15.183 5.20532L15.0621 5.22958L15.0208 5.23776C14.6415 5.31234 14.3939 5.68041 14.4685 6.05975C14.543 6.43909 14.911 6.68614 15.2904 6.61156L15.3354 6.60264L15.46 6.57765C15.5672 6.55602 15.7202 6.52482 15.9042 6.48641C16.2719 6.40968 16.7654 6.30373 17.2659 6.18743C17.7637 6.07176 18.2797 5.94324 18.6877 5.82111C18.8896 5.76068 19.0819 5.69686 19.2378 5.63182C19.3145 5.5998 19.4004 5.5601 19.4803 5.51177C19.5322 5.48039 19.6974 5.38002 19.8037 5.18976C19.91 4.9995 19.9087 4.80616 19.9083 4.74554C19.9075 4.65216 19.8962 4.55817 19.8832 4.47607C19.8569 4.30926 19.8103 4.112 19.7559 3.90843C19.6459 3.49697 19.4846 2.99023 19.3221 2.50578C19.1586 2.01867 18.9899 1.54288 18.8624 1.18961C18.7986 1.01276 18.7449 0.866134 18.7071 0.763541L18.663 0.644309L18.6473 0.602169C18.6473 0.602118 18.647 0.601315 17.9914 0.846596L18.6473 0.602169C18.5119 0.24008 18.1082 0.0555113 17.7461 0.190976C17.384 0.32644 17.2003 0.729788 17.3358 1.09188Z" fill="#8E44F4"/>
</svg>
