<svg width="24" height="24" viewBox="0 0 24 24" fill="none" xmlns="http://www.w3.org/2000/svg">
<path fill-rule="evenodd" clip-rule="evenodd" d="M17.5285 4.62207C15.0884 2.86552 11.3688 2.21878 6.30094 4.63203C5.9519 4.79824 5.5342 4.65002 5.36799 4.30098C5.20177 3.95193 5.34999 3.53423 5.69903 3.36802C11.1312 0.78127 15.4115 1.3731 18.3465 3.48585C21.2345 5.56482 22.7 9.03627 22.7 12C22.7 17.9095 17.9094 22.7 12 22.7C6.09054 22.7 1.29999 17.9095 1.29999 12C1.29999 11.6134 1.61339 11.3 1.99999 11.3C2.38659 11.3 2.69999 11.6134 2.69999 12C2.69999 17.1363 6.86374 21.3 12 21.3C17.1362 21.3 21.3 17.1363 21.3 12C21.3 9.44094 20.0155 6.41238 17.5285 4.62207Z" fill="#222628"/>
<path fill-rule="evenodd" clip-rule="evenodd" d="M6.6643 1.09188C6.6643 1.09188 6.66431 1.09188 6.6643 1.09188L6.64944 1.13179L6.60664 1.24752C6.56975 1.34766 6.51713 1.49136 6.4545 1.66489C6.32909 2.01238 6.16422 2.47754 6.00525 2.95122C5.84538 3.42756 5.69523 3.90144 5.59665 4.27009C5.58119 4.32789 5.56745 4.38148 5.55539 4.43076C5.60367 4.44634 5.65651 4.46275 5.71383 4.4799C6.0794 4.58933 6.56163 4.71003 7.05104 4.82376C7.53772 4.93686 8.02023 5.04046 8.38186 5.11594C8.56246 5.15363 8.7124 5.1842 8.81701 5.20532L8.93799 5.22958L8.97926 5.23776C9.3586 5.31234 9.60617 5.68041 9.53159 6.05975C9.45701 6.43909 9.08904 6.68614 8.7097 6.61156L8.6647 6.60264L8.54006 6.57765C8.43288 6.55602 8.27988 6.52482 8.09583 6.48641C7.72818 6.40968 7.23462 6.30373 6.73415 6.18743C6.2364 6.07176 5.7204 5.94324 5.31238 5.82111C5.1105 5.76068 4.91814 5.69686 4.76228 5.63182C4.68557 5.5998 4.59963 5.5601 4.51974 5.51177C4.46787 5.48039 4.30261 5.38002 4.19636 5.18976C4.0901 4.9995 4.09132 4.80616 4.09181 4.74554C4.09256 4.65216 4.10383 4.55817 4.11681 4.47607C4.14318 4.30926 4.18973 4.112 4.24417 3.90843C4.3542 3.49697 4.51541 2.99023 4.678 2.50578C4.84148 2.01867 5.01015 1.54288 5.13765 1.18961C5.20147 1.01276 5.25516 0.866134 5.29296 0.763541L5.33705 0.644309L5.35275 0.602169C5.35276 0.602118 5.35306 0.601315 6.00868 0.846596L5.35275 0.602169C5.48821 0.24008 5.89188 0.0555113 6.25397 0.190976C6.61605 0.32644 6.79977 0.729788 6.6643 1.09188Z" fill="#8E44F4"/>
</svg>
