<svg width="24" height="24" viewBox="0 0 24 24" fill="none" xmlns="http://www.w3.org/2000/svg">
<path fill-rule="evenodd" clip-rule="evenodd" d="M22 15.3C22.3866 15.3 22.7 15.6134 22.7 16C22.7 19.7004 19.7003 22.7 16 22.7C15.6134 22.7 15.3 22.3866 15.3 22C15.3 21.6134 15.6134 21.3 16 21.3C18.9271 21.3 21.3 18.9272 21.3 16C21.3 15.6134 21.6134 15.3 22 15.3Z" fill="#222628"/>
<path fill-rule="evenodd" clip-rule="evenodd" d="M15.3 2.00007C15.3 1.61347 15.6134 1.30007 16 1.30007C19.7003 1.30007 22.7 4.29977 22.7 8.00007C22.7 8.38667 22.3866 8.70007 22 8.70007C21.6134 8.70007 21.3 8.38667 21.3 8.00007C21.3 5.07296 18.9271 2.70007 16 2.70007C15.6134 2.70007 15.3 2.38667 15.3 2.00007Z" fill="#222628"/>
<path fill-rule="evenodd" clip-rule="evenodd" d="M2.00001 8.70007C1.61341 8.70007 1.30001 8.38667 1.30001 8.00007C1.30001 4.29977 4.2997 1.30007 8.00001 1.30007C8.38661 1.30007 8.70001 1.61347 8.70001 2.00007C8.70001 2.38667 8.38661 2.70007 8.00001 2.70007C5.0729 2.70007 2.70001 5.07296 2.70001 8.00007C2.70001 8.38667 2.38661 8.70007 2.00001 8.70007Z" fill="#222628"/>
<path fill-rule="evenodd" clip-rule="evenodd" d="M8.70001 22C8.70001 22.3866 8.38661 22.7 8.00001 22.7C4.2997 22.7 1.30001 19.7004 1.30001 16C1.30001 15.6134 1.61341 15.3 2.00001 15.3C2.38661 15.3 2.70001 15.6134 2.70001 16C2.70001 18.9272 5.0729 21.3 8.00001 21.3C8.38661 21.3 8.70001 21.6134 8.70001 22Z" fill="#222628"/>
<path fill-rule="evenodd" clip-rule="evenodd" d="M3.29999 14.0001C3.29999 14.3867 3.61339 14.7001 3.99999 14.7001L20 14.7001C20.3866 14.7001 20.7 14.3867 20.7 14.0001C20.7 13.6135 20.3866 13.3001 20 13.3001L3.99999 13.3001C3.61339 13.3001 3.29999 13.6135 3.29999 14.0001Z" fill="#8E44F4"/>
</svg>
