<svg width="24" height="24" viewBox="0 0 24 24" fill="none" xmlns="http://www.w3.org/2000/svg">
<path fill-rule="evenodd" clip-rule="evenodd" d="M12 12.3C12.3866 12.3 12.7 12.6134 12.7 13V19C12.7 19.3866 12.3866 19.7 12 19.7C11.6134 19.7 11.3 19.3866 11.3 19V13C11.3 12.6134 11.6134 12.3 12 12.3Z" fill="#8E44F4"/>
<path fill-rule="evenodd" clip-rule="evenodd" d="M11.4788 2.64986C11.8213 2.57684 12.1786 2.57684 12.5212 2.64986C13.1664 2.78739 13.6294 3.23514 14.0313 3.77252C14.427 4.30153 14.8519 5.04257 15.3749 5.95462L15.3989 5.99637C16.5292 7.96735 17.7658 10.1371 18.6119 11.6601C19.2254 12.7645 19.8946 14.0568 20.5241 15.3101L20.5464 15.3545C21.0403 16.3377 21.441 17.1356 21.6708 17.7838C21.9041 18.4419 22.0208 19.1016 21.7494 19.7333C21.607 20.0647 21.3874 20.37 21.1184 20.6104C20.6042 21.07 19.9356 21.1671 19.2324 21.154C18.5376 21.1411 17.6426 21.0132 16.5376 20.8554L12.3592 20.2584C12.1411 20.2273 12.0846 20.2202 12.0312 20.2187C12.0104 20.2181 11.9896 20.2181 11.9688 20.2187C11.9153 20.2202 11.8589 20.2273 11.6408 20.2584L7.46231 20.8554C6.3574 21.0132 5.46237 21.1411 4.76753 21.154C4.06434 21.1671 3.39578 21.07 2.88155 20.6104C2.61258 20.37 2.39298 20.0647 2.25057 19.7333C1.97916 19.1016 2.09588 18.4419 2.32915 17.7838C2.55892 17.1356 2.95967 16.3377 3.45348 15.3546L3.47585 15.3101C4.10532 14.0568 4.77451 12.7645 5.38807 11.6601C6.23415 10.1371 7.47075 7.96735 8.60108 5.99636L8.62501 5.95464C9.14804 5.04258 9.573 4.30153 9.96863 3.77252C10.3705 3.23514 10.8336 2.78739 11.4788 2.64986ZM12.2293 4.01909C12.0792 3.98709 11.9208 3.98709 11.7707 4.01909C11.6296 4.04916 11.4278 4.15897 11.0898 4.61099C10.7515 5.06335 10.3683 5.72902 9.81555 6.69284C8.68539 8.66352 7.45294 10.8261 6.61189 12.34C6.01172 13.4203 5.3523 14.6933 4.72691 15.9384C4.20539 16.9768 3.84559 17.6961 3.64871 18.2515C3.45186 18.8068 3.47755 19.0425 3.53687 19.1806C3.59871 19.3245 3.69771 19.4621 3.8145 19.5665C3.92495 19.6652 4.14199 19.7654 4.74151 19.7543C5.33914 19.7431 6.14772 19.6289 7.31332 19.4624L11.4428 18.8725C11.453 18.8711 11.463 18.8696 11.473 18.8682C11.6471 18.8433 11.7862 18.8233 11.929 18.8193C11.9763 18.818 12.0236 18.818 12.0709 18.8193C12.2138 18.8233 12.3529 18.8433 12.527 18.8682C12.5369 18.8696 12.547 18.8711 12.5572 18.8725L16.6866 19.4624C17.8522 19.6289 18.6608 19.7431 19.2584 19.7543C19.858 19.7654 20.075 19.6652 20.1855 19.5665C20.3022 19.4621 20.4012 19.3245 20.4631 19.1806C20.5224 19.0425 20.5481 18.8068 20.3513 18.2515C20.1544 17.6961 19.7946 16.9768 19.273 15.9384C18.6477 14.6933 17.9882 13.4203 17.3881 12.34C16.547 10.8261 15.3146 8.66352 14.1844 6.69284C13.6317 5.72902 13.2485 5.06335 12.9102 4.61099C12.5721 4.15897 12.3703 4.04916 12.2293 4.01909Z" fill="#222628"/>
</svg>
