<svg width="24" height="24" viewBox="0 0 24 24" fill="none" xmlns="http://www.w3.org/2000/svg">
<path fill-rule="evenodd" clip-rule="evenodd" d="M14.5764 9.06142C14.8498 9.33479 14.8498 9.778 14.5764 10.0514L10.3338 14.294C10.0604 14.5674 9.61721 14.5674 9.34385 14.294C9.07048 14.0206 9.07048 13.5774 9.34385 13.3041L13.5865 9.06142C13.8599 8.78805 14.3031 8.78805 14.5764 9.06142Z" fill="#8E44F4"/>
<path fill-rule="evenodd" clip-rule="evenodd" d="M21.0316 1.86916C21.3254 2.05974 21.5781 2.31239 21.7687 2.60624C22.1276 3.15973 22.1385 3.80376 22.0427 4.46792C21.9483 5.12174 21.7248 5.94622 21.4498 6.96097L21.4372 7.00742C20.8427 9.20038 20.1829 11.609 19.7043 13.2842C19.3572 14.499 18.9166 15.886 18.4755 17.2173L18.4598 17.2645C18.1138 18.3089 17.833 19.1565 17.5371 19.7773C17.2367 20.4076 16.8528 20.9566 16.2142 21.2114C15.8791 21.345 15.508 21.4056 15.1478 21.3854C14.4592 21.3468 13.9178 20.9427 13.4298 20.4362C12.9476 19.9358 12.4052 19.2125 11.7355 18.3195L9.20297 14.9428C9.07077 14.7666 9.03583 14.7217 8.99912 14.6828C8.98483 14.6677 8.97011 14.653 8.95498 14.6387C8.91612 14.602 8.87125 14.567 8.69497 14.4348L5.31827 11.9023C4.42535 11.2327 3.70205 10.6902 3.20159 10.208C2.69512 9.72001 2.29104 9.1786 2.25242 8.49C2.23221 8.12982 2.29279 7.75868 2.42646 7.42362C2.68122 6.78502 3.23022 6.40109 3.86051 6.1007C4.48132 5.80482 5.32887 5.52402 6.37321 5.17803L6.42052 5.16235C7.75182 4.72126 9.13884 4.28063 10.3536 3.93355C12.0288 3.45493 14.4374 2.79509 16.6304 2.20066L16.6768 2.18807C17.6916 1.91299 18.5161 1.68948 19.1699 1.59517C19.8341 1.49936 20.4781 1.51017 21.0316 1.86916ZM20.5941 3.36806C20.5106 3.23927 20.3986 3.12727 20.2698 3.04374C20.1488 2.96527 19.9285 2.90023 19.3698 2.98082C18.8107 3.06147 18.069 3.26121 16.9967 3.55189C14.804 4.14624 12.4034 4.80392 10.7382 5.27968C9.54996 5.61919 8.1835 6.05308 6.86084 6.49131C5.75785 6.85676 4.99482 7.11096 4.46283 7.3645C3.93097 7.61799 3.78248 7.80281 3.7268 7.94238C3.66875 8.08787 3.64145 8.2552 3.65022 8.41159C3.65852 8.55949 3.74117 8.78378 4.17297 9.19982C4.60341 9.61456 5.25592 10.1056 6.19786 10.812L9.53497 13.3148C9.54321 13.321 9.55135 13.3271 9.5594 13.3332C9.70011 13.4386 9.81255 13.5229 9.91644 13.6211C9.95082 13.6535 9.98428 13.687 10.0168 13.7214C10.1149 13.8253 10.1992 13.9377 10.3047 14.0784C10.3107 14.0865 10.3168 14.0946 10.323 14.1028L12.8258 17.44C13.5323 18.3819 14.0233 19.0344 14.438 19.4648C14.854 19.8966 15.0783 19.9793 15.2262 19.9876C15.3826 19.9964 15.5499 19.9691 15.6954 19.911C15.835 19.8553 16.0198 19.7068 16.2733 19.175C16.5269 18.643 16.7811 17.88 17.1465 16.777C17.5847 15.4543 18.0186 14.0879 18.3581 12.8996C18.8339 11.2344 19.4916 8.83377 20.0859 6.64115C20.3766 5.56878 20.5763 4.82712 20.657 4.26804C20.7376 3.70937 20.6726 3.48905 20.5941 3.36806Z" fill="#222628"/>
</svg>
