<svg width="24" height="24" viewBox="0 0 24 24" fill="none" xmlns="http://www.w3.org/2000/svg">
<path fill-rule="evenodd" clip-rule="evenodd" d="M16.085 4.92465L14.86 4.23034C13.213 3.29681 12.7397 3.06057 12.2677 3.01171C12.0897 2.9933 11.9103 2.9933 11.7323 3.01171C11.2603 3.06057 10.787 3.29681 9.14002 4.23034L7.91501 4.92467L6.70122 5.63838C5.06926 6.59797 4.62804 6.8897 4.3497 7.27408C4.24477 7.419 4.15507 7.57435 4.08204 7.73769C3.88832 8.17093 3.85629 8.6989 3.84124 10.592L3.83004 12.0001L3.84124 13.4081C3.85629 15.3012 3.88832 15.8292 4.08204 16.2624C4.15507 16.4258 4.24477 16.5811 4.3497 16.726C4.62804 17.1104 5.06926 17.4021 6.70122 18.3617L7.91497 19.0754L9.14002 19.7698C10.787 20.7033 11.2603 20.9395 11.7323 20.9884C11.9103 21.0068 12.0897 21.0068 12.2677 20.9884C12.7397 20.9395 13.213 20.7033 14.86 19.7698L16.085 19.0754L17.2988 18.3617C18.9307 17.4021 19.372 17.1104 19.6503 16.726C19.7552 16.5811 19.8449 16.4258 19.918 16.2624C20.1117 15.8292 20.1437 15.3012 20.1588 13.4081L20.17 12.0001L20.1588 10.592C20.1437 8.6989 20.1117 8.17093 19.918 7.73769C19.8449 7.57435 19.7552 7.419 19.6503 7.27408C19.372 6.8897 18.9307 6.59797 17.2988 5.63838L16.085 4.92465ZM16.785 3.71219L15.5503 3.01238C14.013 2.141 13.2443 1.70531 12.4118 1.61915C12.138 1.59082 11.862 1.59082 11.5882 1.61915C10.7557 1.70531 9.98704 2.141 8.44968 3.01238L7.215 3.71219L5.9916 4.43155C4.46829 5.32725 3.70664 5.7751 3.21577 6.45298C3.05433 6.67593 2.91634 6.91494 2.80398 7.16622C2.46235 7.93027 2.45533 8.81381 2.44128 10.5809L2.43 12.0001L2.44128 13.4192C2.45533 15.1863 2.46235 16.0698 2.80398 16.8339C2.91634 17.0852 3.05433 17.3242 3.21577 17.5471C3.70664 18.225 4.46829 18.6729 5.9916 19.5686L7.215 20.2879L8.44968 20.9877C9.98704 21.8591 10.7557 22.2948 11.5882 22.381C11.862 22.4093 12.138 22.4093 12.4118 22.381C13.2443 22.2948 14.013 21.8591 15.5503 20.9877L16.785 20.2879L18.0084 19.5686C19.5317 18.6729 20.2934 18.225 20.7842 17.5471C20.9457 17.3242 21.0837 17.0852 21.196 16.8339C21.5376 16.0698 21.5447 15.1863 21.5587 13.4192L21.57 12.0001L21.5587 10.5809C21.5447 8.8138 21.5376 7.93027 21.196 7.16622C21.0837 6.91494 20.9457 6.67593 20.7842 6.45298C20.2934 5.7751 19.5317 5.32725 18.0084 4.43155L16.785 3.71219Z" fill="#222628"/>
<path fill-rule="evenodd" clip-rule="evenodd" d="M13.04 10.1988C12.3939 9.83702 11.6061 9.83702 10.96 10.1988C10.3237 10.5774 9.92981 11.2597 9.92007 12.0001C9.92981 12.7405 10.3237 13.4227 10.96 13.8013C11.6061 14.1631 12.3939 14.1631 13.04 13.8013C13.6763 13.4227 14.0702 12.7405 14.0799 12.0001C14.0702 11.2597 13.6763 10.5774 13.04 10.1988ZM8.52 12.0001C8.52986 13.2407 9.19052 14.385 10.26 15.0138C11.3393 15.6256 12.6607 15.6256 13.74 15.0138C14.8095 14.385 15.4701 13.2407 15.48 12.0001C15.4701 10.7594 14.8095 9.61514 13.74 8.98629C12.6607 8.37452 11.3393 8.37452 10.26 8.98629C9.19052 9.61514 8.52986 10.7594 8.52 12.0001Z" fill="#8E44F4"/>
</svg>
