<svg width="24" height="24" viewBox="0 0 24 24" fill="none" xmlns="http://www.w3.org/2000/svg">
<path fill-rule="evenodd" clip-rule="evenodd" d="M5.2 6.77942L5.20001 14.1892C5.20001 14.9452 5.54132 15.7058 6.14862 16.4543C6.75475 17.2013 7.58634 17.8862 8.4621 18.4724C9.33405 19.0561 10.2242 19.5251 10.9245 19.8472C11.2744 20.0082 11.5713 20.1299 11.7893 20.2097C11.8865 20.2453 11.9631 20.2707 12.0185 20.2872C12.0749 20.272 12.1526 20.2486 12.2511 20.2155C12.4683 20.1427 12.7638 20.0311 13.1116 19.8817C13.8078 19.5828 14.6918 19.1423 15.557 18.579C16.4259 18.0133 17.2499 17.3406 17.8507 16.5851C18.4495 15.832 18.8 15.0319 18.8 14.1892V6.77932C17.8296 6.1589 16.3162 5.4264 14.9109 4.81813C14.14 4.48447 13.4189 4.19557 12.8645 3.99137C12.5865 3.88898 12.3567 3.81017 12.1864 3.75799C12.1115 3.73503 12.0536 3.7189 12.0115 3.70848C11.9691 3.71893 11.9107 3.73512 11.8352 3.75819C11.6643 3.81041 11.4334 3.88926 11.1543 3.99167C10.5977 4.19591 9.87364 4.48484 9.09989 4.81851C7.68909 5.42688 6.17089 6.1593 5.2 6.77942ZM11.7094 2.34124C11.7778 2.32524 11.894 2.30005 12.0117 2.30005C12.1294 2.30005 12.2456 2.32529 12.3141 2.34134C12.3989 2.36124 12.495 2.38828 12.5968 2.41947C12.8012 2.48215 13.0577 2.57058 13.3484 2.67765C13.9314 2.89236 14.6768 3.1913 15.467 3.53332C17.0304 4.21 18.8387 5.08519 19.9025 5.83272C20.089 5.96379 20.2 6.17748 20.2 6.40546V14.1892C20.2 15.4412 19.6755 16.5397 18.9465 17.4564C18.2195 18.3706 17.2631 19.1388 16.3209 19.7522C15.3751 20.3679 14.4175 20.8446 13.6639 21.1682C13.2867 21.3301 12.9552 21.456 12.6962 21.5429C12.5673 21.5861 12.4506 21.6216 12.3517 21.6472C12.2783 21.6663 12.1424 21.7001 12.0117 21.7001C11.8704 21.7001 11.7261 21.6598 11.6548 21.6395C11.5547 21.6109 11.4371 21.5716 11.308 21.5244C11.0485 21.4293 10.7166 21.2926 10.3394 21.1191C9.58549 20.7723 8.62824 20.2683 7.68332 19.6358C6.74221 19.0058 5.78745 18.2312 5.06145 17.3364C4.33661 16.443 3.80001 15.3792 3.80001 14.1892L3.8 6.40545C3.80001 6.17748 3.91102 5.96379 4.09754 5.83272C5.16185 5.08482 6.97657 4.20951 8.54552 3.53294C9.33863 3.19093 10.087 2.89202 10.6721 2.67735C10.9638 2.5703 11.2212 2.48191 11.4262 2.41927C11.5282 2.3881 11.6244 2.36111 11.7094 2.34124Z" fill="#222628"/>
<path fill-rule="evenodd" clip-rule="evenodd" d="M10.005 10.0051C10.2784 9.73171 10.7216 9.73171 10.995 10.0051L12 11.0101L13.005 10.0051C13.2784 9.73171 13.7216 9.73171 13.995 10.0051C14.2683 10.2784 14.2683 10.7217 13.995 10.995L12.99 12L13.995 13.0051C14.2683 13.2784 14.2683 13.7217 13.995 13.995C13.7216 14.2684 13.2784 14.2684 13.005 13.995L12 12.99L10.995 13.995C10.7216 14.2684 10.2784 14.2684 10.005 13.995C9.73166 13.7217 9.73166 13.2784 10.005 13.0051L11.0101 12L10.005 10.995C9.73166 10.7217 9.73166 10.2784 10.005 10.0051Z" fill="#8E44F4"/>
</svg>
