<svg width="24" height="24" viewBox="0 0 24 24" fill="none" xmlns="http://www.w3.org/2000/svg">
<path fill-rule="evenodd" clip-rule="evenodd" d="M9.96853 1.30005H14.0314C15.405 1.30004 16.4787 1.30004 17.341 1.37049C18.218 1.44215 18.9378 1.59017 19.5877 1.92131C20.6603 2.46779 21.5322 3.33978 22.0787 4.4123C22.4099 5.06221 22.5579 5.78201 22.6295 6.65906C22.7 7.52137 22.7 8.59511 22.7 9.96863V10.0315C22.7 11.405 22.7 12.4787 22.6295 13.341C22.5579 14.2181 22.4099 14.9379 22.0787 15.5878C21.5322 16.6603 20.6603 17.5323 19.5877 18.0788C18.9378 18.4099 18.218 18.5579 17.341 18.6296C16.4787 18.7001 15.4049 18.7001 14.0314 18.7001H9.96857C8.59505 18.7001 7.52131 18.7001 6.659 18.6296C5.78195 18.5579 5.06215 18.4099 4.41224 18.0788C3.33972 17.5323 2.46773 16.6603 1.92125 15.5878C1.59011 14.9379 1.44209 14.2181 1.37043 13.341C1.29998 12.4787 1.29998 11.405 1.29999 10.0315V9.96859C1.29998 8.59509 1.29998 7.52136 1.37043 6.65906C1.44209 5.78201 1.59011 5.06221 1.92125 4.4123C2.46773 3.33978 3.33972 2.46779 4.41224 1.92131C5.06215 1.59017 5.78195 1.44215 6.659 1.37049C7.5213 1.30004 8.59503 1.30004 9.96853 1.30005ZM6.773 2.76585C5.98253 2.83043 5.46748 2.9549 5.04783 3.16872C4.23873 3.58098 3.58092 4.23879 3.16866 5.04789C2.95484 5.46754 2.83037 5.98259 2.76578 6.77306C2.70053 7.5717 2.69999 8.58837 2.69999 10C2.69999 11.4117 2.70053 12.4284 2.76578 13.227C2.83037 14.0175 2.95484 14.5326 3.16866 14.9522C3.58092 15.7613 4.23873 16.4191 5.04783 16.8314C5.46748 17.0452 5.98253 17.1697 6.773 17.2343C7.57164 17.2995 8.58831 17.3 9.99999 17.3H14C15.4117 17.3 16.4283 17.2995 17.227 17.2343C18.0174 17.1697 18.5325 17.0452 18.9521 16.8314C19.7612 16.4191 20.4191 15.7613 20.8313 14.9522C21.0451 14.5326 21.1696 14.0175 21.2342 13.227C21.2994 12.4284 21.3 11.4117 21.3 10C21.3 8.58837 21.2994 7.5717 21.2342 6.77306C21.1696 5.98259 21.0451 5.46754 20.8313 5.04789C20.4191 4.23879 19.7612 3.58098 18.9521 3.16872C18.5325 2.9549 18.0174 2.83043 17.227 2.76585C16.4283 2.70059 15.4117 2.70005 14 2.70005H9.99999C8.58831 2.70005 7.57164 2.70059 6.773 2.76585Z" fill="#222628"/>
<path fill-rule="evenodd" clip-rule="evenodd" d="M12 17.3C12.3866 17.3 12.7 17.6134 12.7 18V20.0149L16.2458 21.3446C16.5627 21.4634 16.7491 21.792 16.6888 22.1249C16.6284 22.4579 16.3384 22.7 16 22.7H7.99999C7.66157 22.7 7.37161 22.4579 7.31123 22.1249C7.25084 21.792 7.43733 21.4634 7.75421 21.3446L11.3 20.0149V18C11.3 17.6134 11.6134 17.3 12 17.3Z" fill="#222628"/>
<path fill-rule="evenodd" clip-rule="evenodd" d="M10.005 8.50508C10.261 8.24908 10.67 8.23052 10.9481 8.4623L13.457 10.5531L15.505 8.50508C15.7784 8.23171 16.2216 8.23171 16.495 8.50508C16.7683 8.77844 16.7683 9.22166 16.495 9.49503L13.995 11.995C13.739 12.251 13.33 12.2696 13.0519 12.0378L10.5429 9.94705L8.49496 11.995C8.2216 12.2684 7.77838 12.2684 7.50501 11.995C7.23165 11.7217 7.23165 11.2784 7.50501 11.0051L10.005 8.50508Z" fill="#8E44F4"/>
</svg>
