<svg width="24" height="24" viewBox="0 0 24 24" fill="none" xmlns="http://www.w3.org/2000/svg">
<path fill-rule="evenodd" clip-rule="evenodd" d="M12.0175 8.20005C8.81425 8.20005 6.2175 10.7968 6.2175 14C6.2175 14.3866 5.9041 14.7 5.5175 14.7C5.1309 14.7 4.8175 14.3866 4.8175 14C4.8175 10.0236 8.04105 6.80005 12.0175 6.80005C15.994 6.80005 19.2175 10.0236 19.2175 14C19.2175 14.3866 18.9041 14.7 18.5175 14.7C18.1309 14.7 17.8175 14.3866 17.8175 14C17.8175 10.7968 15.2208 8.20005 12.0175 8.20005Z" fill="#222628"/>
<path fill-rule="evenodd" clip-rule="evenodd" d="M12 5L11.965 5.00007C11.4127 5.00221 10.9632 4.55624 10.9611 4.00396C10.9589 3.45168 11.4049 3.00223 11.9572 3.00008L12 3L12.0428 3.00008C12.5951 3.00223 13.0411 3.45168 13.0389 4.00396C13.0368 4.55624 12.5873 5.00221 12.035 5.00007L12 5ZM5.66637 6.19711C6.05537 6.58915 6.05291 7.22231 5.66087 7.61131L5.63605 7.63604C5.24552 8.02656 4.61236 8.02656 4.22183 7.63604C3.83131 7.24551 3.83131 6.61235 4.22183 6.22182L4.25216 6.19161C4.6442 5.80261 5.27736 5.80507 5.66637 6.19711ZM18.3336 6.19711C18.7227 5.80507 19.3558 5.80261 19.7479 6.19161L19.7782 6.22183C20.1687 6.61235 20.1687 7.24551 19.7782 7.63604C19.3877 8.02656 18.7545 8.02656 18.364 7.63604L18.3391 7.61131C17.9471 7.22231 17.9446 6.58915 18.3336 6.19711Z" fill="#8E44F4"/>
<path fill-rule="evenodd" clip-rule="evenodd" d="M2 14.3C2 13.9134 2.3134 13.6 2.7 13.6H21.3C21.6866 13.6 22 13.9134 22 14.3C22 14.6866 21.6866 15 21.3 15H2.7C2.3134 15 2 14.6866 2 14.3Z" fill="#222628"/>
<path fill-rule="evenodd" clip-rule="evenodd" d="M5 17.3C5 16.9134 5.3134 16.6 5.7 16.6L18.3 16.6C18.6866 16.6 19 16.9134 19 17.3C19 17.6866 18.6866 18 18.3 18L5.7 18C5.3134 18 5 17.6866 5 17.3Z" fill="#222628"/>
</svg>
