<svg width="24" height="24" viewBox="0 0 24 24" fill="none" xmlns="http://www.w3.org/2000/svg">
<path fill-rule="evenodd" clip-rule="evenodd" d="M6.29999 14.0909C6.29999 13.7043 6.61339 13.3909 6.99999 13.3909L16.8644 13.3909C17.251 13.3909 17.5644 13.7043 17.5644 14.0909C17.5644 14.4775 17.251 14.7909 16.8644 14.7909L6.99999 14.7909C6.61339 14.7909 6.29999 14.4775 6.29999 14.0909Z" fill="#8E44F4"/>
<path fill-rule="evenodd" clip-rule="evenodd" d="M13.158 17.7233C13.4236 18.0042 13.8666 18.0166 14.1476 17.751L17.4809 14.5995C17.7618 14.334 17.7742 13.8909 17.5086 13.61C17.243 13.3291 16.8 13.3166 16.5191 13.5822L13.1858 16.7337C12.9048 16.9993 12.8924 17.4423 13.158 17.7233Z" fill="#8E44F4"/>
<path fill-rule="evenodd" clip-rule="evenodd" d="M17.3667 10.0001C17.3667 10.3867 17.0533 10.7001 16.6667 10.7001L6.00003 10.7001C5.61343 10.7001 5.30003 10.3867 5.30003 10.0001C5.30003 9.61347 5.61343 9.30007 6.00003 9.30007L16.6667 9.30007C17.0533 9.30007 17.3667 9.61347 17.3667 10.0001Z" fill="#222628"/>
<path fill-rule="evenodd" clip-rule="evenodd" d="M5.49495 10.495C5.76832 10.7684 6.21154 10.7684 6.4849 10.495L9.49495 7.48496C9.76832 7.2116 9.76832 6.76838 9.49495 6.49502C9.22159 6.22165 8.77837 6.22165 8.505 6.49502L5.49495 9.50507C5.22159 9.77843 5.22159 10.2216 5.49495 10.495Z" fill="#222628"/>
</svg>
