<svg width="25" height="25" viewBox="0 0 25 25" fill="none" xmlns="http://www.w3.org/2000/svg">
<path fill-rule="evenodd" clip-rule="evenodd" d="M21.3842 3.21241C21.6491 3.49402 21.6491 3.9506 21.3842 4.23221L19.9666 5.73942C19.7017 6.02103 19.2723 6.02103 19.0074 5.73942C18.7425 5.45781 18.7425 5.00123 19.0074 4.71962L20.425 3.21241C20.6899 2.9308 21.1193 2.9308 21.3842 3.21241Z" fill="#8E44F4"/>
<path fill-rule="evenodd" clip-rule="evenodd" d="M23.5885 8.89515C23.5753 9.29316 23.2611 9.60439 22.8867 9.5903L20.6823 9.50733C20.3079 9.49325 20.0152 9.15918 20.0285 8.76117C20.0417 8.36316 20.3559 8.05194 20.7303 8.06602L22.9347 8.14899C23.309 8.16308 23.6018 8.49715 23.5885 8.89515Z" fill="#8E44F4"/>
<path fill-rule="evenodd" clip-rule="evenodd" d="M16.0393 0.868791C16.4136 0.854702 16.7278 1.16593 16.7411 1.56394L16.8191 3.90771C16.8324 4.30571 16.5396 4.63978 16.1653 4.65387C15.7909 4.66796 15.4767 4.35673 15.4635 3.95873L15.3855 1.61496C15.3722 1.21695 15.6649 0.88288 16.0393 0.868791Z" fill="#8E44F4"/>
<path fill-rule="evenodd" clip-rule="evenodd" d="M9.47261 6.2649C9.59614 5.67634 9.88836 5.13648 10.3136 4.71123C10.821 4.20387 11.6436 4.20386 12.1509 4.71123L19.7888 12.3491C20.2962 12.8565 20.2962 13.6791 19.7888 14.1865C19.3636 14.6117 18.8237 14.9039 18.2352 15.0275L16.2273 15.4489C15.7902 15.5406 15.3892 15.7576 15.0734 16.0735L11.0201 20.1267C9.5752 21.5717 7.2325 21.5717 5.78756 20.1267L4.37334 18.7125C2.9284 17.2676 2.9284 14.9249 4.37334 13.4799L8.4266 9.42667C8.74243 9.11083 8.95947 8.70987 9.05121 8.27274L9.47261 6.2649ZM11.2344 5.77458C11.0388 5.99495 10.9035 6.26295 10.8428 6.55247L10.4214 8.56031C10.2738 9.26352 9.92463 9.90854 9.41655 10.4166L5.36329 14.4699C4.46509 15.3681 4.46509 16.8244 5.36329 17.7226L6.7775 19.1368C7.67571 20.035 9.13199 20.035 10.0302 19.1368L14.0835 15.0835C14.5915 14.5754 15.2366 14.2263 15.9398 14.0787L17.9476 13.6573C18.2371 13.5966 18.5051 13.4613 18.7255 13.2657L11.2344 5.77458Z" fill="#222628"/>
<path fill-rule="evenodd" clip-rule="evenodd" d="M9.60594 14.8941C9.8793 15.1675 9.8793 15.6107 9.60594 15.8841L8.89883 16.5912C8.62546 16.8646 8.18225 16.8646 7.90888 16.5912C7.63551 16.3178 7.63551 15.8746 7.90888 15.6013L8.61599 14.8941C8.88935 14.6208 9.33257 14.6208 9.60594 14.8941Z" fill="#222628"/>
</svg>
