<svg width="24" height="24" viewBox="0 0 24 24" fill="none" xmlns="http://www.w3.org/2000/svg">
<path fill-rule="evenodd" clip-rule="evenodd" d="M4.94633 7.30202C5.33179 7.27237 5.66831 7.56081 5.69796 7.94627L6.41387 17.2531C6.54612 18.9724 7.97978 20.3 9.70415 20.3H14.2959C16.0203 20.3 17.4539 18.9724 17.5862 17.2531L18.3021 7.94627C18.3317 7.56081 18.6682 7.27237 19.0537 7.30202C19.4392 7.33167 19.7276 7.66819 19.698 8.05365L18.9821 17.3604C18.7937 19.8091 16.7518 21.7 14.2959 21.7H9.70415C7.24823 21.7 5.20635 19.8091 5.01799 17.3604L4.30208 8.05365C4.27243 7.66819 4.56087 7.33167 4.94633 7.30202Z" fill="#222628"/>
<path fill-rule="evenodd" clip-rule="evenodd" d="M15.7 4.70029C15.7 5.08689 15.3866 5.40029 15 5.40029L13.4278 5.40029L13.3148 4.8437C13.3147 4.84317 13.3145 4.84247 13.3143 4.84162C13.3132 4.83659 13.3106 4.82622 13.3066 4.81128C13.2984 4.78123 13.2842 4.73374 13.2627 4.67475C13.2188 4.55464 13.1486 4.39879 13.0443 4.24753C12.8453 3.95893 12.5396 3.69997 12 3.69997C11.4603 3.69997 11.1547 3.95894 10.9557 4.24753C10.8514 4.39879 10.7812 4.55464 10.7373 4.67474C10.7157 4.73373 10.7016 4.78123 10.6934 4.81127C10.6893 4.82621 10.6868 4.83658 10.6856 4.84161C10.6854 4.84246 10.6853 4.84316 10.6851 4.84369L10.5722 5.40028L8.99998 5.40028C8.61338 5.40028 8.29998 5.08688 8.29998 4.70028C8.29998 4.31368 8.61338 4.00028 8.99998 4.00028L9.50001 4.00028C9.57201 3.83528 9.67047 3.64513 9.80316 3.45272C10.1904 2.89116 10.8848 2.29997 12 2.29997C13.1152 2.29996 13.8095 2.89116 14.1968 3.45272C14.3295 3.64514 14.428 3.83528 14.5 4.00029L15 4.00029C15.3866 4.00029 15.7 4.31369 15.7 4.70029Z" fill="#8E44F4"/>
<path fill-rule="evenodd" clip-rule="evenodd" d="M3 5.29998C3 4.91338 3.3134 4.59998 3.7 4.59998L20.3 4.59998C20.6866 4.59998 21 4.91338 21 5.29998C21 5.68657 20.6866 5.99998 20.3 5.99998L3.7 5.99998C3.3134 5.99998 3 5.68657 3 5.29998Z" fill="#222628"/>
</svg>
