<svg width="24" height="24" viewBox="0 0 24 24" fill="none" xmlns="http://www.w3.org/2000/svg">
<path fill-rule="evenodd" clip-rule="evenodd" d="M12 20.3001C16.478 20.3001 20.7059 16.4555 20.2685 11.5624C20.1421 10.1494 19.8287 9.02451 19.3055 8.07625C18.7838 7.13067 18.0322 6.32208 16.9742 5.57084C16.6589 5.34702 16.5848 4.91005 16.8086 4.59482C17.0325 4.2796 17.4694 4.20549 17.7847 4.42931C18.9808 5.27862 19.8898 6.23712 20.5314 7.39994C21.1714 8.56008 21.5241 9.88495 21.6629 11.4377C22.1838 17.2646 17.1808 21.7001 12 21.7001C6.81918 21.7001 1.81616 17.2646 2.33711 11.4377C2.47594 9.88495 2.82856 8.56008 3.46865 7.39993C4.11021 6.23712 5.01916 5.27862 6.21535 4.42931C6.53058 4.20549 6.96755 4.2796 7.19137 4.59482C7.41518 4.91005 7.34108 5.34702 7.02585 5.57084C5.96778 6.32208 5.21616 7.13067 4.69445 8.07625C4.17127 9.02451 3.85789 10.1494 3.73155 11.5624C3.29408 16.4555 7.52202 20.3001 12 20.3001Z" fill="#222628"/>
<path fill-rule="evenodd" clip-rule="evenodd" d="M12 1.30005C12.3866 1.30005 12.7 1.61345 12.7 2.00005V8.50005C12.7 8.88665 12.3866 9.20005 12 9.20005C11.6134 9.20005 11.3 8.88665 11.3 8.50005V2.00005C11.3 1.61345 11.6134 1.30005 12 1.30005Z" fill="#8E44F4"/>
</svg>
