<svg width="24" height="24" viewBox="0 0 24 24" fill="none" xmlns="http://www.w3.org/2000/svg">
<path fill-rule="evenodd" clip-rule="evenodd" d="M7.50503 17.505C7.7784 17.7783 7.7784 18.2215 7.50503 18.4949L5.49498 20.505C5.22161 20.7783 4.7784 20.7783 4.50503 20.505C4.23166 20.2316 4.23166 19.7884 4.50503 19.515L6.51508 17.505C6.78845 17.2316 7.23166 17.2316 7.50503 17.505ZM16.495 17.505C16.7683 17.2316 17.2116 17.2316 17.4849 17.505L19.495 19.515C19.7683 19.7884 19.7683 20.2316 19.495 20.505C19.2216 20.7783 18.7784 20.7783 18.505 20.505L16.495 18.4949C16.2216 18.2215 16.2216 17.7783 16.495 17.505Z" fill="#8E44F4"/>
<path fill-rule="evenodd" clip-rule="evenodd" d="M14.495 2.49494C14.7683 2.76831 14.7683 3.21152 14.495 3.48489L12.5947 5.38516C12.5691 5.42397 12.5392 5.46078 12.505 5.49494C12.3658 5.63418 12.1825 5.7025 12 5.6999C11.8175 5.7025 11.6342 5.63418 11.495 5.49494C11.4608 5.46078 11.4309 5.42397 11.4053 5.38517L9.50503 3.48489C9.23166 3.21152 9.23166 2.76831 9.50503 2.49494C9.7784 2.22158 10.2216 2.22158 10.495 2.49494L12 3.99997L13.505 2.49494C13.7784 2.22158 14.2216 2.22158 14.495 2.49494Z" fill="#8E44F4"/>
<path fill-rule="evenodd" clip-rule="evenodd" d="M8.2587 4.29993H15.7413C17.0187 4.29992 18.0344 4.29991 18.8433 4.38755C19.6741 4.47756 20.3695 4.66669 20.9687 5.10206C21.3253 5.36111 21.6388 5.67467 21.8979 6.03123C22.3332 6.63046 22.5224 7.32584 22.6124 8.15661C22.7 8.96559 22.7 9.98128 22.7 11.2587V11.7412C22.7 13.0186 22.7 14.0343 22.6124 14.8432C22.5224 15.674 22.3332 16.3694 21.8979 16.9686C21.6388 17.3252 21.3253 17.6387 20.9687 17.8978C20.3695 18.3332 19.6741 18.5223 18.8433 18.6123C18.0344 18.6999 17.0187 18.6999 15.7413 18.6999H8.25868C6.98131 18.6999 5.96565 18.6999 5.15669 18.6123C4.32592 18.5223 3.63054 18.3332 3.03131 17.8978C2.67475 17.6387 2.36119 17.3252 2.10213 16.9686C1.66677 16.3694 1.47764 15.674 1.38763 14.8432C1.29999 14.0343 1.29999 13.0186 1.3 11.7412V11.2586C1.29999 9.98125 1.29999 8.96558 1.38763 8.15661C1.47764 7.32584 1.66677 6.63046 2.10213 6.03123C2.36119 5.67467 2.67475 5.36111 3.03131 5.10206C3.63054 4.66669 4.32592 4.47756 5.15669 4.38755C5.96565 4.29991 6.98132 4.29992 8.2587 4.29993ZM5.30748 5.77941C4.59584 5.85651 4.175 6.00161 3.8542 6.23468C3.6165 6.40738 3.40746 6.61642 3.23476 6.85413C3.00168 7.17493 2.85659 7.59576 2.77949 8.30741C2.70096 9.03216 2.7 9.97193 2.7 11.2999V11.6999C2.7 13.0279 2.70096 13.9677 2.77949 14.6924C2.85659 15.4041 3.00168 15.8249 3.23476 16.1457C3.40746 16.3834 3.6165 16.5925 3.8542 16.7652C4.175 16.9982 4.59584 17.1433 5.30748 17.2204C6.03223 17.299 6.972 17.2999 8.3 17.2999H15.7C17.028 17.2999 17.9678 17.299 18.6925 17.2204C19.4042 17.1433 19.825 16.9982 20.1458 16.7652C20.3835 16.5925 20.5925 16.3834 20.7653 16.1457C20.9983 15.8249 21.1434 15.4041 21.2205 14.6924C21.299 13.9677 21.3 13.0279 21.3 11.6999V11.2999C21.3 9.97193 21.299 9.03216 21.2205 8.30741C21.1434 7.59576 20.9983 7.17493 20.7653 6.85413C20.5925 6.61642 20.3835 6.40738 20.1458 6.23468C19.825 6.00161 19.4042 5.85651 18.6925 5.77941C17.9678 5.70089 17.028 5.69993 15.7 5.69993H8.3C6.972 5.69993 6.03223 5.70089 5.30748 5.77941Z" fill="#222628"/>
</svg>
