<svg width="24" height="24" viewBox="0 0 24 24" fill="none" xmlns="http://www.w3.org/2000/svg">
<path fill-rule="evenodd" clip-rule="evenodd" d="M18 14.9999L17.8849 14.3094C17.5036 14.373 17.246 14.7337 17.3095 15.115C17.3731 15.4962 17.7334 15.7537 18.1146 15.6905L18.1133 15.6907L18.1136 15.6906L18.1142 15.6905L18.1146 15.6905L18.1153 15.6904L18.1314 15.688C18.1472 15.6858 18.1727 15.6824 18.2065 15.6786C18.2744 15.6711 18.3744 15.6621 18.4954 15.6575C18.7422 15.6481 19.0531 15.658 19.3501 15.7231C19.6512 15.789 19.8852 15.9 20.0386 16.0519C20.1737 16.1858 20.3 16.4031 20.3 16.8149C20.3 16.8427 20.3017 16.8704 20.3049 16.898C20.4191 17.8537 20.2957 18.4656 20.1101 18.8554C19.9291 19.2358 19.6635 19.4591 19.3795 19.5982C19.0841 19.7429 18.762 19.7986 18.4987 19.8138C18.3698 19.8213 18.2625 19.8186 18.19 19.8144C18.1539 19.8123 18.1271 19.8099 18.1113 19.8082L18.0961 19.8065C18.0958 19.8065 18.0956 19.8065 18.0954 19.8065C18.0954 19.8065 18.0954 19.8065 18.0954 19.8065C18.0949 19.8064 18.0948 19.8064 18.0952 19.8064L18.0965 19.8066L18.0976 19.8068L18.0983 19.8068C18.0986 19.8069 18.099 19.807 18 20.4999" fill="#8E44F4"/>
<path fill-rule="evenodd" clip-rule="evenodd" d="M15.0133 4.19369C14.9861 3.80804 15.2767 3.47339 15.6623 3.44622L15.7115 4.14448C15.6623 3.44622 15.6627 3.44619 15.6631 3.44616L15.664 3.4461L15.6659 3.44598L15.6702 3.4457L15.6813 3.44507C15.6898 3.44463 15.7003 3.44416 15.7129 3.44375C15.7381 3.44293 15.7713 3.44236 15.8115 3.44277C15.8918 3.44361 16.0015 3.4484 16.1318 3.46349C16.3899 3.49337 16.7439 3.56531 17.1154 3.73789C17.8995 4.10216 18.6672 4.87557 18.8422 6.34086C19.0175 7.80896 18.4476 8.7256 17.7509 9.2408C17.4238 9.48271 17.091 9.62075 16.8445 9.69877C16.7199 9.73821 16.6133 9.76359 16.5348 9.77953C16.4954 9.78752 16.4626 9.79321 16.4378 9.79714C16.4253 9.79911 16.4148 9.80064 16.4064 9.8018L16.3954 9.80328L16.3911 9.80382L16.3892 9.80405L16.3884 9.80415C16.388 9.8042 16.3876 9.80425 16.3045 9.10919L16.3876 9.80425C16.0037 9.8501 15.6553 9.57608 15.6095 9.19221C15.5639 8.81032 15.8348 8.46358 16.2156 8.41487C16.2171 8.41468 16.2186 8.41449 16.2201 8.41431L16.2188 8.41446L16.2168 8.41472L16.2149 8.41497C16.2147 8.41499 16.215 8.41496 16.2156 8.41487C16.2163 8.41476 16.2175 8.41459 16.2191 8.41433C16.2253 8.41334 16.2382 8.41118 16.2565 8.40746C16.2934 8.39998 16.3512 8.38647 16.422 8.36405C16.5664 8.31835 16.7486 8.24079 16.9185 8.11518C17.2157 7.89537 17.567 7.46935 17.4521 6.50689C17.3368 5.54162 16.8867 5.17534 16.5255 5.00755C16.3244 4.91411 16.124 4.87193 15.9708 4.8542C15.8954 4.84548 15.8352 4.84309 15.797 4.8427C15.7781 4.8425 15.7649 4.8428 15.7585 4.84301C15.7568 4.84307 15.7556 4.84311 15.7548 4.84314C15.7568 4.84302 15.7588 4.84289 15.7607 4.84275M15.0133 4.19369C15.0403 4.57736 15.3717 4.86695 15.7548 4.84315L15.0133 4.19369ZM16.2202 8.4143L16.2208 8.41422C16.2208 8.41422 16.2208 8.41422 16.2208 8.41422C16.2206 8.41425 16.2204 8.41427 16.2202 8.4143Z" fill="#8E44F4"/>
<path fill-rule="evenodd" clip-rule="evenodd" d="M12.7304 15.0074C12.652 15.0074 12.4924 15.0186 12.0805 15.0492C11.1754 15.1162 10.2012 15.1666 9.31225 15.1666C8.52949 15.1666 7.7117 15.1276 6.94595 15.0725C6.51902 15.0417 6.34977 15.03 6.2787 15.0298C5.04943 15.025 4.1628 15.793 3.9921 17.0104C3.98218 17.0811 3.97231 17.2128 3.94766 17.5579C3.92846 17.8266 3.92196 17.924 3.92194 17.9994C3.92165 19.2065 4.85458 20.2085 6.05863 20.2942C6.13386 20.2995 6.23145 20.3 6.50081 20.3H12.4719C12.7677 20.3 12.8748 20.2994 12.9573 20.293C14.1485 20.1999 15.07 19.2102 15.078 18.0154C15.0786 17.9326 15.0715 17.8257 15.0504 17.5307C15.0255 17.1818 15.0156 17.0506 15.0041 16.9727C14.8295 15.7854 13.9304 15.0083 12.7304 15.0074ZM12.0303 13.649C12.3741 13.6235 12.5925 13.6073 12.7314 13.6074C14.6256 13.6089 16.1135 14.8949 16.3892 16.7689C16.4094 16.9063 16.423 17.096 16.4438 17.3879L16.4493 17.4648C16.4671 17.7138 16.479 17.8799 16.478 18.0248C16.4651 19.9468 14.9827 21.5389 13.0664 21.6887C12.922 21.7 12.7554 21.7 12.5059 21.7H6.46991C6.24257 21.7 6.09086 21.7 5.95922 21.6906C4.02227 21.5528 2.52147 19.9409 2.52194 17.9991C2.52197 17.8671 2.5328 17.7158 2.54901 17.489C2.54974 17.4789 2.55047 17.4686 2.55121 17.4582C2.55227 17.4434 2.55331 17.4288 2.55433 17.4145C2.5749 17.1263 2.58811 16.9411 2.60566 16.816C2.87358 14.9052 4.3547 13.6223 6.2841 13.6298C6.41053 13.6303 6.63295 13.6463 6.98963 13.672C7.00821 13.6733 7.02716 13.6747 7.04647 13.6761C7.79064 13.7296 8.57314 13.7666 9.31225 13.7666C10.1536 13.7666 11.0902 13.7187 11.977 13.653L12.0303 13.649Z" fill="#222628"/>
<path fill-rule="evenodd" clip-rule="evenodd" d="M5.30002 7.49993C5.30002 5.18033 7.18042 3.29993 9.50002 3.29993C11.8196 3.29993 13.7 5.18033 13.7 7.49993V7.99993C13.7 10.0434 12.0435 11.6999 10 11.6999H9.00002C6.95656 11.6999 5.30002 10.0434 5.30002 7.99993V7.49993ZM9.50002 4.69993C7.95362 4.69993 6.70002 5.95353 6.70002 7.49993V7.99993C6.70002 9.27018 7.72976 10.2999 9.00002 10.2999H10C11.2703 10.2999 12.3 9.27018 12.3 7.99993V7.49993C12.3 5.95353 11.0464 4.69993 9.50002 4.69993Z" fill="#222628"/>
</svg>
