<svg width="24" height="24" viewBox="0 0 24 24" fill="none" xmlns="http://www.w3.org/2000/svg">
<path fill-rule="evenodd" clip-rule="evenodd" d="M9.67555 8.81669C9.77636 9.18807 9.55831 9.57159 9.187 9.67454C8.81446 9.77784 8.42872 9.55957 8.32542 9.18702L8.99997 8.99999C8.32542 9.18702 8.32553 9.1874 8.32542 9.18702L8.32499 9.18547L8.32449 9.18364L8.32329 9.17921L8.32014 9.16724C8.31772 9.15789 8.31469 9.14581 8.31118 9.13112C8.30416 9.10177 8.29521 9.06192 8.28545 9.01254C8.26597 8.91393 8.24312 8.77649 8.2261 8.60816C8.19221 8.27289 8.18058 7.80648 8.26991 7.27609C8.45181 6.19605 9.05034 4.88164 10.6321 3.90446C10.6499 3.89345 10.6682 3.88325 10.687 3.87388C12.4185 3.00811 13.9033 3.29398 14.9381 3.81139C15.4453 4.06502 15.8405 4.37094 16.1089 4.6125C16.2438 4.73392 16.3488 4.84098 16.422 4.92006C16.4586 4.95967 16.4875 4.99244 16.5083 5.01673C16.5187 5.02887 16.5271 5.03891 16.5335 5.04664L16.5416 5.05648L16.5445 5.06005L16.5457 5.06149C16.5459 5.06179 16.5466 5.0627 16.0021 5.49832L16.5466 5.0627C16.7881 5.36459 16.7392 5.80509 16.4373 6.0466C16.1362 6.28746 15.6973 6.23942 15.4554 5.9397C15.4554 5.9397 15.4554 5.9397 15.4554 5.9397C15.4549 5.93907 15.4543 5.93844 15.4538 5.9378C15.4538 5.9378 15.4538 5.93781 15.4538 5.9378M15.4538 5.9378C15.4543 5.93844 15.4549 5.93907 15.4554 5.9397L15.4453 5.92783C15.4354 5.91623 15.4183 5.89675 15.3944 5.87093C15.3465 5.81916 15.2718 5.74262 15.1724 5.65311C14.972 5.47279 14.6797 5.24746 14.312 5.06359C13.6021 4.70864 12.5965 4.49504 11.3412 5.11215C10.1709 5.84536 9.77445 6.77246 9.65047 7.5086C9.58639 7.8891 9.59465 8.22651 9.619 8.46734C9.63111 8.58706 9.64696 8.68074 9.65891 8.74124C9.66487 8.77142 9.66982 8.79311 9.67276 8.80542" fill="#8E44F4"/>
<path fill-rule="evenodd" clip-rule="evenodd" d="M12 17.7C11.6134 17.7 11.3 17.3866 11.3 17L11.3 15C11.3 14.6134 11.6134 14.3 12 14.3C12.3866 14.3 12.7 14.6134 12.7 15L12.7 17C12.7 17.3866 12.3866 17.7 12 17.7Z" fill="#8E44F4"/>
<path fill-rule="evenodd" clip-rule="evenodd" d="M9.43734 8.29993C9.46483 8.29993 9.49266 8.29993 9.52081 8.29993L14.5627 8.29993C15.4841 8.29986 16.0378 8.29982 16.5045 8.37772C19.0787 8.80741 21.0323 10.9306 21.2467 13.5316C21.2856 14.0032 21.2396 14.5549 21.163 15.4732L21.1502 15.6265C21.0843 16.4186 21.0445 16.896 20.9468 17.31C20.4112 19.578 18.5489 21.2916 16.2442 21.637C15.8235 21.7 15.3444 21.7 14.5496 21.6999H9.4504C8.6556 21.7 8.17649 21.7 7.75584 21.637C5.45117 21.2916 3.58888 19.578 3.05327 17.31C2.95551 16.896 2.91575 16.4186 2.8498 15.6265C2.84787 15.6034 2.84593 15.58 2.84396 15.5563C2.84162 15.5283 2.8393 15.5006 2.83702 15.4732C2.76043 14.5549 2.71441 14.0032 2.75328 13.5316C2.96771 10.9306 4.9213 8.80741 7.49556 8.37772C7.96224 8.29982 8.51589 8.29986 9.43734 8.29993ZM9.52081 9.69993C8.49097 9.69993 8.063 9.70237 7.72606 9.75861C5.78407 10.0828 4.31031 11.6844 4.14855 13.6466C4.12048 13.9871 4.1536 14.4138 4.23912 15.4401C4.31274 16.3235 4.34513 16.689 4.41579 16.9882C4.81984 18.6992 6.22473 19.9919 7.96334 20.2524C8.26738 20.298 8.63436 20.2999 9.52081 20.2999H14.4792C15.3657 20.2999 15.7326 20.298 16.0367 20.2524C17.7753 19.9919 19.1802 18.6992 19.5842 16.9882C19.6549 16.689 19.6873 16.3235 19.7609 15.4401C19.8464 14.4138 19.8795 13.9871 19.8515 13.6466C19.6897 11.6844 18.216 10.0828 16.274 9.75861C15.937 9.70237 15.5091 9.69993 14.4792 9.69993H9.52081Z" fill="#222628"/>
</svg>
