<svg width="24" height="24" viewBox="0 0 24 24" fill="none" xmlns="http://www.w3.org/2000/svg">
<path fill-rule="evenodd" clip-rule="evenodd" d="M20.3 8.98915C20.3 8.39566 19.6078 8.07145 19.1519 8.45139L15.4481 11.5378C15.1511 11.7853 14.7097 11.7452 14.4622 11.4482C14.2148 11.1512 14.2549 10.7098 14.5519 10.4623L18.2556 7.37588C19.6234 6.23606 21.7 7.20869 21.7 8.98915V16.3842C21.7 18.0614 19.8307 19.0618 18.4351 18.1315L14.6117 15.5825C14.29 15.3681 14.2031 14.9335 14.4176 14.6118C14.632 14.2901 15.0666 14.2032 15.3883 14.4177L19.2117 16.9666C19.6769 17.2767 20.3 16.9433 20.3 16.3842V8.98915Z" fill="#8E44F4"/>
<path fill-rule="evenodd" clip-rule="evenodd" d="M8.46768 5.30005H8.53229C9.67224 5.30004 10.5724 5.30004 11.2962 5.36161C12.0356 5.42449 12.655 5.55542 13.2156 5.85502C14.0354 6.29322 14.7068 6.96467 15.145 7.78448C15.4446 8.34499 15.5755 8.96445 15.6384 9.70381C15.7 10.4276 15.7 11.3278 15.7 12.4677V12.5324C15.7 13.6723 15.7 14.5725 15.6384 15.2963C15.5755 16.0356 15.4446 16.6551 15.145 17.2156C14.7068 18.0354 14.0354 18.7069 13.2156 19.1451C12.655 19.4447 12.0356 19.5756 11.2962 19.6385C10.5724 19.7001 9.67225 19.7001 8.53229 19.7H8.46768C7.32773 19.7001 6.42758 19.7001 5.70375 19.6385C4.96439 19.5756 4.34493 19.4447 3.78442 19.1451C2.96461 18.7069 2.29316 18.0354 1.85496 17.2156C1.55536 16.6551 1.42443 16.0356 1.36155 15.2963C1.29998 14.5725 1.29998 13.6723 1.29999 12.5324V12.4677C1.29998 11.3278 1.29998 10.4276 1.36155 9.70381C1.42443 8.96445 1.55536 8.34499 1.85496 7.78448C2.29316 6.96467 2.96461 6.29322 3.78442 5.85502C4.34493 5.55542 4.96439 5.42449 5.70375 5.36161C6.42758 5.30004 7.32773 5.30004 8.46768 5.30005ZM5.8224 6.75657C5.17353 6.81176 4.76751 6.91699 4.44438 7.08971C3.86877 7.39738 3.39732 7.86883 3.08965 8.44444C2.91693 8.76757 2.8117 9.17359 2.75651 9.82246C2.70058 10.48 2.69999 11.3207 2.69999 12.5C2.69999 13.6794 2.70058 14.5201 2.75651 15.1776C2.8117 15.8265 2.91693 16.2325 3.08965 16.5557C3.39732 17.1313 3.86877 17.6027 4.44438 17.9104C4.76751 18.0831 5.17353 18.1883 5.8224 18.2435C6.47996 18.2995 7.32062 18.3 8.49999 18.3C9.67935 18.3 10.52 18.2995 11.1776 18.2435C11.8264 18.1883 12.2325 18.0831 12.5556 17.9104C13.1312 17.6027 13.6027 17.1313 13.9103 16.5557C14.083 16.2325 14.1883 15.8265 14.2435 15.1776C14.2994 14.5201 14.3 13.6794 14.3 12.5C14.3 11.3207 14.2994 10.48 14.2435 9.82246C14.1883 9.17359 14.083 8.76757 13.9103 8.44444C13.6027 7.86883 13.1312 7.39738 12.5556 7.08971C12.2325 6.91699 11.8264 6.81176 11.1776 6.75657C10.52 6.70064 9.67935 6.70005 8.49999 6.70005C7.32062 6.70005 6.47996 6.70064 5.8224 6.75657Z" fill="#222628"/>
</svg>
