<svg width="24" height="24" viewBox="0 0 24 24" fill="none" xmlns="http://www.w3.org/2000/svg">
<path fill-rule="evenodd" clip-rule="evenodd" d="M14.3 8.25731C14.3 6.02379 11.5363 4.97785 10.0575 6.65171C9.33145 7.47356 8.28755 7.94425 7.19091 7.94425H5.72891C4.60837 7.94425 3.69999 8.85263 3.69999 9.97317V13.0883C3.69999 14.1419 4.55404 14.9959 5.60756 14.9959H7.09557C8.26135 14.9959 9.36115 15.5368 10.0728 16.4602C11.4471 18.2433 14.3 17.2715 14.3 15.0202V8.25731ZM9.00832 5.72478C11.3408 3.0846 15.7 4.73437 15.7 8.25731V15.0202C15.7 18.6076 11.1538 20.1562 8.96391 17.3148C8.51732 16.7353 7.82715 16.3959 7.09557 16.3959H5.60756C3.78084 16.3959 2.29999 14.9151 2.29999 13.0883V9.97317C2.29999 8.07943 3.83517 6.54425 5.72891 6.54425H7.19091C7.88617 6.54425 8.548 6.24583 9.00832 5.72478Z" fill="#222628"/>
<path fill-rule="evenodd" clip-rule="evenodd" d="M17.505 9.50495C17.7784 9.23159 18.2216 9.23159 18.495 9.50495L19.4142 10.4242L20.3334 9.50495C20.6068 9.23159 21.05 9.23159 21.3234 9.50495C21.5968 9.77832 21.5968 10.2215 21.3234 10.4949L20.4042 11.4141L21.3234 12.3334C21.5968 12.6067 21.5968 13.05 21.3234 13.3233C21.05 13.5967 20.6068 13.5967 20.3334 13.3233L19.4142 12.4041L18.495 13.3233C18.2216 13.5967 17.7784 13.5967 17.505 13.3233C17.2316 13.05 17.2316 12.6067 17.505 12.3334L18.4243 11.4141L17.505 10.4949C17.2316 10.2215 17.2316 9.77832 17.505 9.50495Z" fill="#8E44F4"/>
</svg>
