<svg width="24" height="24" viewBox="0 0 24 24" fill="none" xmlns="http://www.w3.org/2000/svg">
<path fill-rule="evenodd" clip-rule="evenodd" d="M11.7291 5.82324C12.3745 5.2347 13.2796 4.80005 14.5 4.80005C15.7641 4.80005 16.5775 5.42388 17.0525 6.03458C17.2851 6.33355 17.438 6.62931 17.5332 6.84962C17.5812 6.96064 17.6155 7.05497 17.6387 7.12439C17.6503 7.15917 17.6591 7.18792 17.6655 7.20962L17.6733 7.23686L17.6758 7.24634L17.6768 7.25001L17.6772 7.25157C17.6773 7.25191 17.6776 7.25295 17 7.42862L17.6776 7.25295C17.7746 7.62717 17.5499 8.0092 17.1757 8.10622C16.803 8.20284 16.4226 7.98038 16.3236 7.60894L16.3223 7.6043C16.3204 7.59775 16.3165 7.58506 16.3105 7.56711C16.2985 7.53106 16.2782 7.47472 16.248 7.40494C16.187 7.26364 16.0899 7.07727 15.9474 6.89409C15.6724 6.5405 15.2359 6.20005 14.5 6.20005C13.6441 6.20005 13.0716 6.4937 12.6724 6.8577C12.5943 6.92898 12.5139 7.00302 12.4315 7.07894C11.9661 7.50762 11.4356 7.99632 10.8684 8.38791C10.1915 8.85518 9.38638 9.24085 8.45299 9.24085H7.49999C6.50588 9.24085 5.69999 10.0467 5.69999 11.0408V13.5C5.69999 14.4942 6.50588 15.3 7.49999 15.3H9.54614C9.93274 15.3 10.2461 15.6134 10.2461 16C10.2461 16.3866 9.93274 16.7 9.54614 16.7H7.49999C5.73268 16.7 4.29999 15.2674 4.29999 13.5V11.0408C4.29999 9.27354 5.73268 7.84085 7.49999 7.84085H8.45299C8.98859 7.84085 9.51465 7.62123 10.073 7.23577C10.5522 6.90502 10.9993 6.49381 11.4674 6.06324C11.5538 5.98377 11.6409 5.90364 11.7291 5.82324Z" fill="#222628"/>
<path fill-rule="evenodd" clip-rule="evenodd" d="M19.5315 4.45558C19.825 4.70717 19.859 5.14908 19.6074 5.44261L8.51851 18.3797C8.26692 18.6732 7.82501 18.7072 7.53148 18.4556C7.23795 18.204 7.20396 17.7621 7.45555 17.4685L18.5444 4.5315C18.796 4.23798 19.238 4.20398 19.5315 4.45558Z" fill="#222628"/>
<path fill-rule="evenodd" clip-rule="evenodd" d="M17 11.3C17.3866 11.3 17.7 11.6134 17.7 12V16.0978C17.7 19.6866 13.1668 21.2544 10.9496 18.4325C10.7107 18.1285 10.7635 17.6885 11.0675 17.4496C11.3715 17.2108 11.8116 17.2636 12.0504 17.5676C13.4462 19.344 16.3 18.357 16.3 16.0978V12C16.3 11.6134 16.6134 11.3 17 11.3Z" fill="#8E44F4"/>
</svg>
