<svg width="24" height="24" viewBox="0 0 24 24" fill="none" xmlns="http://www.w3.org/2000/svg">
<path fill-rule="evenodd" clip-rule="evenodd" d="M14.3 8.46622C14.3 6.22838 11.5097 5.20582 10.0637 6.91374C9.34119 7.76712 8.2797 8.25926 7.16154 8.25926H5.68998C4.59094 8.25926 3.69999 9.15021 3.69999 10.2492V13.6958C3.69999 14.7907 4.58762 15.6784 5.68257 15.6784H7.15583C8.27815 15.6784 9.34302 16.1747 10.0647 17.0342C11.5044 18.7487 14.3 17.7306 14.3 15.4918V8.46622ZM8.99522 6.00912C11.2838 3.30599 15.7 4.92439 15.7 8.46622V15.4918C15.7 19.0374 11.2727 20.6497 8.99261 17.9345C8.53689 17.3918 7.8645 17.0784 7.15583 17.0784H5.68257C3.81442 17.0784 2.29999 15.5639 2.29999 13.6958V10.2492C2.29999 8.37701 3.81774 6.85926 5.68998 6.85926H7.16154C7.86803 6.85926 8.53871 6.54831 8.99522 6.00912Z" fill="#222628"/>
<path fill-rule="evenodd" clip-rule="evenodd" d="M17.0826 10.5619C16.7762 10.3345 16.7081 9.90249 16.9315 9.59154C17.1571 9.27757 17.5945 9.20592 17.9084 9.43149L17.5 9.99998C17.9084 9.43149 17.9087 9.43173 17.9091 9.43197L17.9098 9.43247L17.9112 9.43351L17.9144 9.43583L17.9218 9.44134L17.941 9.45596C17.9556 9.4673 17.9738 9.4819 17.995 9.49984C18.0374 9.53571 18.0922 9.58512 18.155 9.64889C18.2805 9.77636 18.439 9.9621 18.5945 10.2124C18.9089 10.7183 19.2 11.4702 19.2 12.5C19.2 13.5297 18.9089 14.2817 18.5945 14.7875C18.439 15.0379 18.2805 15.2236 18.155 15.3511C18.0922 15.4148 18.0374 15.4642 17.995 15.5001C17.9738 15.5181 17.9556 15.5327 17.941 15.544L17.9218 15.5586L17.9144 15.5641L17.9112 15.5664L17.9098 15.5675L17.9091 15.568C17.9087 15.5682 17.9084 15.5685 17.5 15L17.9084 15.5685C17.5945 15.794 17.1571 15.7224 16.9315 15.4084C16.7081 15.0975 16.7762 14.6655 17.0826 14.4381C17.084 14.4369 17.0868 14.4346 17.0909 14.4311C17.1032 14.4208 17.1265 14.4001 17.1575 14.3687C17.2195 14.3058 17.311 14.2006 17.4054 14.0486C17.5911 13.7498 17.8 13.2518 17.8 12.5C17.8 11.7482 17.5911 11.2501 17.4054 10.9514C17.311 10.7994 17.2195 10.6942 17.1575 10.6313C17.1265 10.5998 17.1032 10.5792 17.0909 10.5688C17.0868 10.5654 17.084 10.5631 17.0826 10.5619Z" fill="#8E44F4"/>
</svg>
