<svg width="24" height="24" viewBox="0 0 24 24" fill="none" xmlns="http://www.w3.org/2000/svg">
<path fill-rule="evenodd" clip-rule="evenodd" d="M14.3 8.25731C14.3 6.02379 11.5363 4.97785 10.0575 6.65171C9.33145 7.47356 8.28755 7.94425 7.19091 7.94425H5.72891C4.60837 7.94425 3.69999 8.85263 3.69999 9.97317V13.0883C3.69999 14.1419 4.55404 14.9959 5.60756 14.9959H7.09557C8.26135 14.9959 9.36115 15.5368 10.0728 16.4602C11.4471 18.2433 14.3 17.2715 14.3 15.0202V8.25731ZM9.00832 5.72478C11.3408 3.0846 15.7 4.73437 15.7 8.25731V15.0202C15.7 18.6076 11.1538 20.1562 8.96391 17.3148C8.51732 16.7353 7.82715 16.3959 7.09557 16.3959H5.60756C3.78084 16.3959 2.29999 14.9151 2.29999 13.0883V9.97317C2.29999 8.07943 3.83517 6.54425 5.72891 6.54425H7.19091C7.88617 6.54425 8.548 6.24583 9.00832 5.72478Z" fill="#222628"/>
<path fill-rule="evenodd" clip-rule="evenodd" d="M17.0662 10.0493C16.766 9.81245 16.7112 9.37755 16.9449 9.07345C17.1805 8.7669 17.62 8.70935 17.9265 8.94491L17.5 9.49989C17.9265 8.94491 17.9268 8.94514 17.9271 8.94537L17.9277 8.94585L17.929 8.94688L17.932 8.94915L17.9389 8.95464L17.957 8.96936C17.9709 8.98084 17.9884 8.99571 18.0089 9.01401C18.05 9.0506 18.1033 9.1011 18.1647 9.16601C18.2874 9.2957 18.4434 9.48416 18.5971 9.73526C18.907 10.2417 19.2 10.9918 19.2 12C19.2 13.0081 18.907 13.7582 18.5971 14.2647C18.4434 14.5158 18.2874 14.7042 18.1647 14.8339C18.1033 14.8988 18.05 14.9493 18.0089 14.9859C17.9884 15.0042 17.9709 15.0191 17.957 15.0306L17.9389 15.0453L17.932 15.0508L17.929 15.053L17.9277 15.0541L17.9271 15.0546C17.9268 15.0548 17.9265 15.055 17.5 14.5L17.9265 15.055C17.62 15.2906 17.1805 15.233 16.9449 14.9265C16.7112 14.6224 16.766 14.1875 17.0662 13.9506C17.0684 13.9489 17.0705 13.9472 17.0727 13.9455C17.0728 13.9454 17.0728 13.9454 17.0729 13.9454C17.0729 13.9454 17.0729 13.9454 17.0729 13.9454L17.0727 13.9455L17.0723 13.9458L17.0713 13.9466L17.0694 13.948L17.0668 13.9501C17.0655 13.9512 17.065 13.9516 17.0654 13.9513C17.0655 13.9511 17.0658 13.9509 17.0662 13.9506C17.0678 13.9492 17.0715 13.9461 17.077 13.9412C17.0906 13.929 17.1154 13.906 17.1477 13.8718C17.2125 13.8033 17.3065 13.6914 17.4029 13.5339C17.593 13.2233 17.8 12.7234 17.8 12C17.8 11.2766 17.593 10.7766 17.4029 10.466C17.3065 10.3085 17.2125 10.1967 17.1477 10.1282C17.1154 10.094 17.0906 10.0709 17.077 10.0587C17.0715 10.0538 17.0678 10.0507 17.0662 10.0493Z" fill="#8E44F4"/>
<path fill-rule="evenodd" clip-rule="evenodd" d="M19.5557 8.54086C19.5543 8.53975 19.553 8.53864 19.5516 8.53752C19.5521 8.53795 19.5529 8.53865 19.554 8.53961C19.5585 8.5436 19.5681 8.55213 19.5819 8.56529C19.6096 8.59162 19.6543 8.63629 19.7107 8.69982C19.8234 8.82697 19.9818 9.02872 20.1428 9.30933C20.4625 9.86661 20.8 10.7475 20.8 11.9999C20.8 13.2524 20.4625 14.1333 20.1428 14.6906C19.9818 14.9712 19.8234 15.1729 19.7107 15.3001C19.6543 15.3636 19.6096 15.4083 19.5819 15.4346C19.5681 15.4478 19.5585 15.4563 19.554 15.4603C19.5529 15.4613 19.5521 15.462 19.5516 15.4624C19.5529 15.4613 19.5543 15.4602 19.5556 15.4591C19.5556 15.4591 19.5556 15.4591 19.5557 15.459C19.5557 15.459 19.5557 15.459 19.5557 15.459L19.5556 15.4591L19.5551 15.4595L19.5542 15.4603L19.5526 15.4615L19.5511 15.4628L19.551 15.4629C19.551 15.4629 19.5512 15.4627 19.5516 15.4624C19.2568 15.7082 19.2148 16.1462 19.4586 16.4437C19.7037 16.7427 20.1447 16.7864 20.4437 16.5413L20 15.9999C20.4437 16.5413 20.444 16.5411 20.4443 16.5408L20.445 16.5403L20.4463 16.5392L20.4495 16.5365L20.4575 16.5298L20.4796 16.5106C20.4971 16.4953 20.5198 16.4747 20.547 16.4488C20.6013 16.3971 20.6738 16.3241 20.7581 16.229C20.9265 16.0391 21.1431 15.7603 21.3572 15.3872C21.7875 14.6371 22.2 13.5181 22.2 11.9999C22.2 10.4818 21.7875 9.36277 21.3572 8.61268C21.1431 8.2396 20.9265 7.96082 20.7581 7.77086C20.6738 7.67584 20.6013 7.60282 20.547 7.55109C20.5198 7.52521 20.4971 7.50463 20.4796 7.48925L20.4575 7.47006L20.4495 7.46335L20.4463 7.46072L20.445 7.45959L20.4443 7.45906C20.444 7.45881 20.4437 7.45857 20 7.99995L20.4437 7.45857C20.1447 7.2135 19.7037 7.25721 19.4586 7.5562C19.2148 7.85366 19.2568 8.2917 19.5516 8.53751C19.5511 8.53707 19.5509 8.53692 19.5511 8.53706L19.5526 8.53835L19.5542 8.53962L19.5551 8.54042L19.5557 8.54086Z" fill="#8E44F4"/>
</svg>
