<svg width="24" height="24" viewBox="0 0 24 24" fill="none" xmlns="http://www.w3.org/2000/svg">
<path fill-rule="evenodd" clip-rule="evenodd" d="M16.3 11.5C16.3 9.73274 17.7327 8.30005 19.5 8.30005H21.5283C22.1754 8.30005 22.7 8.82464 22.7 9.47175V13.898C22.7 14.341 22.3409 14.7 21.8979 14.7H19.5C17.7327 14.7 16.3 13.2674 16.3 11.5ZM19.5 9.70005C18.5059 9.70005 17.7 10.5059 17.7 11.5C17.7 12.4942 18.5059 13.3 19.5 13.3H21.3V9.70005H19.5Z" fill="#8E44F4"/>
<path fill-rule="evenodd" clip-rule="evenodd" d="M10.9576 2.30005H13.0424C14.8813 2.30004 16.3187 2.30004 17.4581 2.42349C18.6194 2.5493 19.554 2.81005 20.3504 3.38865C20.8343 3.74023 21.2598 4.16577 21.6114 4.64967C22.19 5.44605 22.4507 6.38063 22.5766 7.54191C22.7 8.68136 22.7 10.1187 22.7 11.9577V12.0424C22.7 13.8814 22.7 15.3187 22.5766 16.4582C22.4507 17.6195 22.19 18.554 21.6114 19.3504C21.2598 19.8343 20.8343 20.2599 20.3504 20.6114C19.554 21.1901 18.6194 21.4508 17.4581 21.5766C16.3187 21.7001 14.8813 21.7001 13.0424 21.7001H10.9576C9.11866 21.7001 7.6813 21.7001 6.54185 21.5766C5.38057 21.4508 4.44599 21.1901 3.64961 20.6114C3.16571 20.2599 2.74016 19.8343 2.38859 19.3504C1.80999 18.554 1.54924 17.6195 1.42342 16.4582C1.29997 15.3188 1.29998 13.8814 1.29999 12.0425V11.9576C1.29998 10.1187 1.29997 8.68134 1.42342 7.54191C1.54924 6.38063 1.80999 5.44605 2.38859 4.64967C2.74016 4.16577 3.16571 3.74023 3.64961 3.38865C4.44599 2.81005 5.38057 2.5493 6.54185 2.42349C7.68128 2.30004 9.11863 2.30004 10.9576 2.30005ZM6.69265 3.81534C5.65048 3.92825 4.99046 4.14496 4.47251 4.52128C4.10746 4.7865 3.78644 5.10753 3.52121 5.47257C3.1449 5.99052 2.92819 6.65054 2.81528 7.69271C2.70095 8.74797 2.69999 10.1096 2.69999 12C2.69999 13.8905 2.70095 15.2521 2.81528 16.3074C2.92819 17.3496 3.1449 18.0096 3.52121 18.5275C3.78644 18.8926 4.10746 19.2136 4.47251 19.4788C4.99046 19.8551 5.65048 20.0718 6.69265 20.1848C7.74791 20.2991 9.10953 20.3 11 20.3H13C14.8904 20.3 16.2521 20.2991 17.3073 20.1848C18.3495 20.0718 19.0095 19.8551 19.5275 19.4788C19.8925 19.2136 20.2135 18.8926 20.4788 18.5275C20.8551 18.0096 21.0718 17.3496 21.1847 16.3074C21.299 15.2521 21.3 13.8905 21.3 12C21.3 10.1096 21.299 8.74797 21.1847 7.69271C21.0718 6.65054 20.8551 5.99052 20.4788 5.47257C20.2135 5.10753 19.8925 4.7865 19.5275 4.52128C19.0095 4.14496 18.3495 3.92825 17.3073 3.81534C16.2521 3.70101 14.8904 3.70005 13 3.70005H11C9.10953 3.70005 7.74791 3.70101 6.69265 3.81534Z" fill="#222628"/>
<path fill-rule="evenodd" clip-rule="evenodd" d="M6 16.3001C6 15.9135 6.3134 15.6001 6.7 15.6001H9.3C9.6866 15.6001 10 15.9135 10 16.3001C10 16.6867 9.6866 17.0001 9.3 17.0001H6.7C6.3134 17.0001 6 16.6867 6 16.3001Z" fill="#8E44F4"/>
</svg>
