<svg width="24" height="24" viewBox="0 0 24 24" fill="none" xmlns="http://www.w3.org/2000/svg">
<path fill-rule="evenodd" clip-rule="evenodd" d="M9.56129 5.30005H14.4387C15.1557 5.30003 15.7499 5.30002 16.2285 5.35187C16.7287 5.40607 17.1849 5.52357 17.587 5.8157C17.8162 5.98224 18.0178 6.18381 18.1843 6.41303C18.4765 6.81511 18.594 7.27131 18.6482 7.77155C18.7 8.25012 18.7 8.84433 18.7 9.56133V14.4388C18.7 15.1558 18.7 15.75 18.6482 16.2285C18.594 16.7288 18.4765 17.185 18.1843 17.5871C18.0178 17.8163 17.8162 18.0179 17.587 18.1844C17.1849 18.4765 16.7287 18.594 16.2285 18.6482C15.7499 18.7001 15.1557 18.7001 14.4387 18.7H9.56127C8.84427 18.7001 8.25005 18.7001 7.77149 18.6482C7.27125 18.594 6.81505 18.4765 6.41297 18.1844C6.18375 18.0179 5.98218 17.8163 5.81564 17.5871C5.52351 17.185 5.40601 16.7288 5.35181 16.2285C5.29996 15.75 5.29997 15.1558 5.29999 14.4387V9.56135C5.29997 8.84434 5.29996 8.25012 5.35181 7.77155C5.40601 7.27131 5.52351 6.81511 5.81564 6.41303C5.98218 6.18381 6.18375 5.98224 6.41297 5.8157C6.81505 5.52357 7.27125 5.40607 7.77149 5.35187C8.25006 5.30002 8.84428 5.30003 9.56129 5.30005ZM7.92229 6.74372C7.54116 6.78502 7.35952 6.85849 7.23587 6.94833C7.1255 7.02851 7.02845 7.12557 6.94827 7.23593C6.85843 7.35958 6.78496 7.54122 6.74366 7.92235C6.70095 8.31658 6.69999 8.83451 6.69999 9.60005V14.4001C6.69999 15.1656 6.70095 15.6835 6.74366 16.0777C6.78496 16.4589 6.85843 16.6405 6.94827 16.7642C7.02845 16.8745 7.1255 16.9716 7.23587 17.0518C7.35952 17.1416 7.54116 17.2151 7.92229 17.2564C8.31652 17.2991 8.83445 17.3 9.59999 17.3H14.4C15.1655 17.3 15.6835 17.2991 16.0777 17.2564C16.4588 17.2151 16.6405 17.1416 16.7641 17.0518C16.8745 16.9716 16.9715 16.8745 17.0517 16.7642C17.1415 16.6405 17.215 16.4589 17.2563 16.0777C17.299 15.6835 17.3 15.1656 17.3 14.4V9.60005C17.3 8.83451 17.299 8.31658 17.2563 7.92235C17.215 7.54122 17.1415 7.35958 17.0517 7.23593C16.9715 7.12557 16.8745 7.02851 16.7641 6.94833C16.6405 6.85849 16.4588 6.78502 16.0777 6.74372C15.6835 6.70101 15.1655 6.70005 14.4 6.70005H9.59999C8.83445 6.70005 8.31652 6.70101 7.92229 6.74372Z" fill="#222628"/>
<path fill-rule="evenodd" clip-rule="evenodd" d="M12 8.30005C12.3866 8.30005 12.7 8.61345 12.7 9.00005V12.1653L14.8473 13.3923C15.1829 13.5841 15.2996 14.0117 15.1078 14.3473C14.916 14.683 14.4884 14.7996 14.1527 14.6078L11.6527 13.1792C11.4346 13.0546 11.3 12.8227 11.3 12.5715V9.00005C11.3 8.61345 11.6134 8.30005 12 8.30005Z" fill="#8E44F4"/>
<path fill-rule="evenodd" clip-rule="evenodd" d="M9.29999 4.00005C9.29999 3.61345 9.61339 3.30005 9.99999 3.30005H14C14.3866 3.30005 14.7 3.61345 14.7 4.00005C14.7 4.38665 14.3866 4.70005 14 4.70005H9.99999C9.61339 4.70005 9.29999 4.38665 9.29999 4.00005Z" fill="#222628"/>
<path fill-rule="evenodd" clip-rule="evenodd" d="M9.29999 20C9.29999 19.6134 9.61339 19.3 9.99999 19.3H14C14.3866 19.3 14.7 19.6134 14.7 20C14.7 20.3866 14.3866 20.7 14 20.7H9.99999C9.61339 20.7 9.29999 20.3866 9.29999 20Z" fill="#222628"/>
</svg>
