<svg width="24" height="24" viewBox="0 0 24 24" fill="none" xmlns="http://www.w3.org/2000/svg">
<path fill-rule="evenodd" clip-rule="evenodd" d="M22 11.0001L2 11.0001L2 9.6001L22 9.6001V11.0001Z" fill="#8E44F4"/>
<path fill-rule="evenodd" clip-rule="evenodd" d="M14.3 7.00005C14.3 6.61345 14.6134 6.30005 15 6.30005L18 6.30005C18.3866 6.30005 18.7 6.61345 18.7 7.00005C18.7 7.38665 18.3866 7.70005 18 7.70005L15 7.70005C14.6134 7.70005 14.3 7.38665 14.3 7.00005Z" fill="#222628"/>
<path fill-rule="evenodd" clip-rule="evenodd" d="M11.4691 2.30005H12.5309C14.1377 2.30005 15.3854 2.30004 16.3865 2.37959C17.4019 2.46028 18.2233 2.62606 18.9633 2.991C20.2861 3.64333 21.3567 4.71392 22.009 6.03671C22.374 6.77675 22.5398 7.59817 22.6204 8.6135C22.7 9.6146 22.7 10.8623 22.7 12.4692V12.5309C22.7 14.1378 22.7 15.3855 22.6204 16.3866C22.5398 17.4019 22.374 18.2233 22.009 18.9634C21.3567 20.2862 20.2861 21.3568 18.9633 22.0091C18.2233 22.374 17.4019 22.5398 16.3865 22.6205C15.3854 22.7001 14.1377 22.7001 12.5309 22.7001H11.4691C9.86222 22.7001 8.61454 22.7001 7.61344 22.6205C6.59811 22.5398 5.77669 22.374 5.03665 22.0091C3.71386 21.3568 2.64327 20.2862 1.99094 18.9634C1.62599 18.2233 1.46022 17.4019 1.37953 16.3866C1.29998 15.3855 1.29998 14.1378 1.29999 12.5309V12.4692C1.29998 10.8623 1.29998 9.6146 1.37953 8.6135C1.46022 7.59817 1.62599 6.77675 1.99094 6.03671C2.64327 4.71392 3.71386 3.64333 5.03665 2.991C5.77669 2.62606 6.59811 2.46028 7.61344 2.37959C8.61454 2.30004 9.86223 2.30005 11.4691 2.30005ZM7.72434 3.77519C6.793 3.8492 6.17055 3.99281 5.65586 4.24662C4.60947 4.76265 3.76259 5.60953 3.24656 6.65592C2.99274 7.17061 2.84914 7.79306 2.77513 8.7244C2.7005 9.66359 2.69999 10.8558 2.69999 12.5C2.69999 14.1443 2.7005 15.3365 2.77513 16.2757C2.84914 17.207 2.99274 17.8295 3.24656 18.3442C3.76259 19.3906 4.60947 20.2375 5.65586 20.7535C6.17055 21.0073 6.793 21.1509 7.72434 21.2249C8.66353 21.2995 9.85577 21.3 11.5 21.3H12.5C14.1442 21.3 15.3364 21.2995 16.2756 21.2249C17.207 21.1509 17.8294 21.0073 18.3441 20.7535C19.3905 20.2375 20.2374 19.3906 20.7534 18.3442C21.0072 17.8295 21.1508 17.207 21.2248 16.2757C21.2995 15.3365 21.3 14.1443 21.3 12.5C21.3 10.8558 21.2995 9.66359 21.2248 8.7244C21.1508 7.79306 21.0072 7.17061 20.7534 6.65592C20.2374 5.60953 19.3905 4.76265 18.3441 4.24662C17.8294 3.99281 17.207 3.8492 16.2756 3.77519C15.3364 3.70056 14.1442 3.70005 12.5 3.70005H11.5C9.85577 3.70005 8.66353 3.70056 7.72434 3.77519Z" fill="#222628"/>
<path d="M8.99998 7.00005C8.99998 7.38665 8.68657 7.70005 8.29998 7.70005C7.91338 7.70005 7.59998 7.38665 7.59998 7.00005C7.59998 6.61345 7.91338 6.30005 8.29998 6.30005C8.68657 6.30005 8.99998 6.61345 8.99998 7.00005Z" fill="#8E44F4"/>
<path d="M6.99998 7.00005C6.99998 7.38665 6.68657 7.70005 6.29998 7.70005C5.91338 7.70005 5.59998 7.38665 5.59998 7.00005C5.59998 6.61345 5.91338 6.30005 6.29998 6.30005C6.68657 6.30005 6.99998 6.61345 6.99998 7.00005Z" fill="#8E44F4"/>
</svg>
