<svg width="24" height="24" viewBox="0 0 24 24" fill="none" xmlns="http://www.w3.org/2000/svg">
<path fill-rule="evenodd" clip-rule="evenodd" d="M10.8 18C10.8 17.6134 11.1134 17.3 11.5 17.3H12.5C12.8866 17.3 13.2 17.6134 13.2 18C13.2 18.3866 12.8866 18.7 12.5 18.7H11.5C11.1134 18.7 10.8 18.3866 10.8 18Z" fill="#222628"/>
<path fill-rule="evenodd" clip-rule="evenodd" d="M8.14964 14.2608C8.14907 14.2622 8.14849 14.2636 8.14791 14.265C8.14781 14.2653 8.14755 14.2659 8.14791 14.265L8.14888 14.2626L8.14964 14.2608ZM15.8521 14.265L15.8488 14.2575C15.8445 14.248 15.8364 14.2303 15.8241 14.2057C15.7994 14.1563 15.7581 14.0794 15.6977 13.984C15.5765 13.7926 15.381 13.5311 15.0916 13.268C14.5243 12.7522 13.5644 12.2 12 12.2C10.4356 12.2 9.47574 12.7522 8.90838 13.268C8.619 13.5311 8.42349 13.7926 8.30232 13.984C8.2419 14.0794 8.2006 14.1563 8.17591 14.2057C8.16358 14.2303 8.15547 14.248 8.15123 14.2575L8.14791 14.265C8.00256 14.6206 7.5973 14.7929 7.24003 14.65C6.88108 14.5064 6.70649 14.099 6.85007 13.7401L7.50001 14C6.85007 13.7401 6.84991 13.7405 6.85007 13.7401L6.85073 13.7384L6.8515 13.7365L6.85332 13.7321L6.85819 13.7204C6.86198 13.7114 6.86689 13.7001 6.87295 13.6865C6.88507 13.6594 6.90186 13.6233 6.92371 13.5796C6.96738 13.4922 7.03155 13.3739 7.11957 13.2349C7.29528 12.9575 7.56851 12.594 7.96664 12.2321C8.77427 11.4979 10.0644 10.8 12 10.8C13.9356 10.8 15.2257 11.4979 16.0334 12.2321C16.4315 12.594 16.7047 12.9575 16.8804 13.2349C16.9685 13.3739 17.0326 13.4922 17.0763 13.5796C17.0982 13.6233 17.1149 13.6594 17.1271 13.6865C17.1331 13.7001 17.138 13.7114 17.1418 13.7204L17.1467 13.7321L17.1485 13.7365L17.1493 13.7384C17.1494 13.7388 17.1499 13.7401 16.5 14L17.1499 13.7401C17.2935 14.099 17.1189 14.5064 16.76 14.65C16.4027 14.7929 15.9974 14.6206 15.8521 14.265ZM15.8504 14.2608C15.8504 14.2608 15.8504 14.2608 15.8504 14.2608V14.2608Z" fill="#8E44F4"/>
<path fill-rule="evenodd" clip-rule="evenodd" d="M4.12622 10.8129L4.12648 10.8123L4.12893 10.8076C4.13214 10.8014 4.13774 10.7907 4.14577 10.7758C4.16184 10.746 4.18758 10.6994 4.22322 10.6384C4.29456 10.5163 4.40527 10.3371 4.55712 10.1197C4.86141 9.68425 5.32732 9.10088 5.96822 8.51785C7.24529 7.35607 9.20922 6.20005 12 6.20005C14.7908 6.20005 16.7547 7.35607 18.0318 8.51785C18.6727 9.10088 19.1386 9.68425 19.4429 10.1197C19.5947 10.3371 19.7054 10.5163 19.7768 10.6384C19.8124 10.6994 19.8382 10.746 19.8542 10.7758C19.8623 10.7907 19.8679 10.8014 19.8711 10.8076L19.8735 10.8123L19.8738 10.8129C19.8739 10.8132 19.8741 10.8134 19.8742 10.8137C20.0471 11.1587 20.4668 11.2988 20.8123 11.1265C21.1583 10.9541 21.299 10.5338 21.1265 10.1878L20.5 10.5C21.1265 10.1878 21.1263 10.1874 21.1262 10.1871L21.1258 10.1863L21.1248 10.1845L21.1223 10.1794L21.1143 10.1638C21.1077 10.1511 21.0985 10.1337 21.0869 10.112C21.0635 10.0686 21.0298 10.0078 20.9856 9.93205C20.8971 9.78071 20.7662 9.56929 20.5905 9.31786C20.2397 8.81585 19.707 8.14921 18.9739 7.48225C17.5029 6.14403 15.2168 4.80005 12 4.80005C8.78322 4.80005 6.49715 6.14403 5.02612 7.48225C4.29297 8.14921 3.76029 8.81585 3.40951 9.31786C3.23383 9.56929 3.10288 9.78071 3.01445 9.93205C2.97021 10.0078 2.93653 10.0686 2.91315 10.112C2.90146 10.1337 2.89234 10.1511 2.88574 10.1638L2.87775 10.1794L2.87517 10.1845L2.87423 10.1863L2.87385 10.1871C2.87368 10.1874 2.87353 10.1878 3.5 10.5L2.87353 10.1878C2.70105 10.5338 2.84172 10.9541 3.18771 11.1265C3.53353 11.2989 3.95358 11.1585 4.12622 10.8129Z" fill="#222628"/>
</svg>
