<svg width="24" height="24" viewBox="0 0 24 24" fill="none" xmlns="http://www.w3.org/2000/svg">
<path opacity="0.4" d="M5.77215 17.1899C5.80842 16.6821 5.82656 16.4281 5.86618 16.2491C6.11711 15.1151 6.97957 14.3733 8.13837 14.2949C8.32135 14.2825 8.60682 14.3051 9.17774 14.3502C10.0233 14.4171 10.9433 14.4667 11.8122 14.4667C12.7806 14.4667 13.8621 14.4051 14.8467 14.3266C15.4049 14.2822 15.684 14.2599 15.8752 14.2741C17.0091 14.3577 17.8755 15.1025 18.1286 16.2109C18.1713 16.3979 18.1895 16.6529 18.2259 17.1629C18.267 17.7377 18.2875 18.0251 18.2665 18.2635C18.1458 19.6323 17.1105 20.7441 15.7538 20.962C15.5175 21 15.2293 21 14.6531 21H11.8122H9.31985C8.76857 21 8.49293 21 8.26658 20.9653C6.89315 20.7543 5.8443 19.6279 5.73178 18.2429C5.71323 18.0147 5.73287 17.7397 5.77215 17.1899Z" fill="#C4C4C4"/>
<path opacity="0.4" d="M8.5 7.5C8.5 5.567 10.067 4 12 4C13.933 4 15.5 5.567 15.5 7.5V8C15.5 9.65685 14.1569 11 12.5 11H11.5C9.84315 11 8.5 9.65685 8.5 8V7.5Z" fill="#C4C4C4"/>
<path fill-rule="evenodd" clip-rule="evenodd" d="M15.8237 14.9722C15.7008 14.9631 15.4933 14.9774 14.9023 15.0244C13.9088 15.1036 12.8068 15.1667 11.8122 15.1667C10.9188 15.1667 9.97909 15.1158 9.12257 15.0481C8.51835 15.0003 8.30289 14.9854 8.18562 14.9933C7.33683 15.0507 6.73345 15.5697 6.54965 16.4003C6.52413 16.5156 6.50878 16.702 6.47037 17.2397C6.4292 17.8161 6.41636 18.0248 6.42948 18.1863C6.51574 19.2481 7.31986 20.1117 8.37282 20.2734C8.53291 20.2979 8.74197 20.3 9.31985 20.3H14.6531C15.2572 20.3 15.4756 20.2978 15.6428 20.2709C16.683 20.1038 17.4766 19.2515 17.5692 18.202C17.584 18.0334 17.5707 17.8153 17.5277 17.2128C17.4891 16.6727 17.4737 16.4873 17.4461 16.3667C17.2615 15.558 16.651 15.0332 15.8237 14.9722ZM14.8718 13.6224C15.3527 13.584 15.6806 13.5578 15.9267 13.576C17.3671 13.6822 18.4896 14.647 18.811 16.0551C18.8659 16.2956 18.8876 16.6004 18.919 17.0415C18.9207 17.0649 18.9224 17.0888 18.9241 17.113C18.9258 17.1364 18.9275 17.1594 18.9291 17.1821C18.9655 17.6904 18.9898 18.0299 18.9638 18.325C18.8149 20.0132 17.5381 21.3844 15.8648 21.6532C15.5723 21.7002 15.232 21.7001 14.7223 21.7C14.6996 21.7 14.6765 21.7 14.6531 21.7H9.31985C9.29744 21.7 9.27536 21.7 9.2536 21.7C8.76601 21.7001 8.44044 21.7002 8.16033 21.6571C6.46643 21.397 5.17284 20.0077 5.03407 18.2996C5.01113 18.0172 5.03438 17.6924 5.0692 17.2061C5.07075 17.1844 5.07233 17.1623 5.07393 17.14C5.07568 17.1155 5.07739 17.0914 5.07907 17.0678C5.11029 16.6294 5.13173 16.3282 5.18271 16.0978C5.50077 14.6605 6.6223 13.6959 8.09111 13.5965C8.32661 13.5806 8.65783 13.6068 9.14881 13.6458C9.17634 13.6479 9.20437 13.6502 9.23291 13.6524C10.0674 13.7184 10.9679 13.7667 11.8122 13.7667C12.7545 13.7667 13.8155 13.7066 14.7911 13.6289C14.8185 13.6267 14.8453 13.6245 14.8718 13.6224Z" fill="#222628"/>
<path fill-rule="evenodd" clip-rule="evenodd" d="M7.79999 7.49999C7.79999 5.18039 9.68039 3.29999 12 3.29999C14.3196 3.29999 16.2 5.18039 16.2 7.49999V7.99999C16.2 10.0434 14.5434 11.7 12.5 11.7H11.5C9.45653 11.7 7.79999 10.0434 7.79999 7.99999V7.49999ZM12 4.69999C10.4536 4.69999 9.19999 5.95359 9.19999 7.49999V7.99999C9.19999 9.27024 10.2297 10.3 11.5 10.3H12.5C13.7702 10.3 14.8 9.27024 14.8 7.99999V7.49999C14.8 5.95359 13.5464 4.69999 12 4.69999Z" fill="#222628"/>
<path fill-rule="evenodd" clip-rule="evenodd" d="M19.8527 13.7335C19.9999 13.376 20.409 13.2055 20.7665 13.3527L20.5 14C20.7665 13.3527 20.7668 13.3529 20.7672 13.353L20.7679 13.3533L20.7695 13.354L20.7731 13.3554L20.7819 13.3592L20.806 13.3699C20.8248 13.3784 20.8492 13.3899 20.8782 13.4045C20.9362 13.4335 21.0135 13.4752 21.1036 13.5312C21.2831 13.6426 21.5187 13.8138 21.7544 14.0587C22.2347 14.5579 22.7 15.3506 22.7 16.5C22.7 17.6493 22.2347 18.4421 21.7544 18.9412C21.5187 19.1861 21.2831 19.3573 21.1036 19.4688C21.0135 19.5247 20.9362 19.5665 20.8782 19.5955C20.8492 19.6101 20.8248 19.6215 20.806 19.6301L20.7819 19.6408L20.7731 19.6445L20.7695 19.646L20.7679 19.6467L20.7672 19.647C20.7668 19.6471 20.7665 19.6473 20.5 19L20.7665 19.6473C20.409 19.7945 19.9999 19.624 19.8527 19.2665C19.7064 18.9112 19.8739 18.5048 20.227 18.3554C20.226 18.3558 20.2259 18.3559 20.2267 18.3556L20.2277 18.3551L20.2291 18.3545L20.231 18.3537L20.2321 18.3533M20.2325 18.3531C20.2323 18.3532 20.2322 18.3532 20.2321 18.3533L20.2322 18.3532L20.2325 18.3531ZM20.2325 18.3531C20.2326 18.3531 20.2327 18.353 20.2328 18.353C20.2328 18.353 20.2328 18.353 20.2328 18.353L20.2325 18.3531ZM20.227 18.3554C20.2272 18.3553 20.2274 18.3552 20.2277 18.3551C20.2308 18.3537 20.2387 18.35 20.2507 18.344C20.2748 18.332 20.3146 18.3107 20.3651 18.2794C20.4669 18.2162 20.6062 18.1153 20.7456 17.9705C21.0153 17.6902 21.3 17.233 21.3 16.5C21.3 15.767 21.0153 15.3097 20.7456 15.0295C20.6062 14.8846 20.4669 14.7838 20.3651 14.7206C20.3146 14.6893 20.2748 14.668 20.2507 14.656C20.2387 14.6499 20.2308 14.6463 20.2277 14.6449M19.8527 13.7335C19.7064 14.0888 19.8739 14.4951 20.227 14.6446L19.8527 13.7335ZM20.227 14.6446C20.2265 14.6444 20.2263 14.6442 20.2262 14.6442C20.2261 14.6442 20.2263 14.6442 20.2267 14.6444L20.2291 14.6454L20.231 14.6463L20.2322 14.6467L20.2328 14.647" fill="#222628"/>
<path fill-rule="evenodd" clip-rule="evenodd" d="M4.16405 13.7786C4.0418 13.4119 3.64538 13.2137 3.27862 13.3359L3.49997 14C3.27862 13.3359 3.27822 13.336 3.27782 13.3362L3.27699 13.3365L3.27521 13.3371L3.27123 13.3384L3.26159 13.3418C3.25441 13.3443 3.24577 13.3475 3.23575 13.3513C3.21572 13.3588 3.19013 13.369 3.15978 13.382C3.09918 13.408 3.01893 13.4456 2.92565 13.4975C2.73983 13.6007 2.49705 13.763 2.255 14.005C1.75756 14.5025 1.29997 15.3022 1.29997 16.5C1.29997 17.6978 1.75756 18.4975 2.255 18.995C2.49705 19.237 2.73983 19.3993 2.92565 19.5025C3.01893 19.5544 3.09918 19.592 3.15978 19.618C3.19013 19.631 3.21572 19.6412 3.23575 19.6487C3.24577 19.6525 3.25441 19.6557 3.26159 19.6582L3.27123 19.6616L3.27521 19.6629L3.27699 19.6635L3.27782 19.6638C3.27822 19.6639 3.27862 19.6641 3.49997 19L3.27862 19.6641C3.64538 19.7863 4.0418 19.5881 4.16405 19.2214C4.28534 18.8575 4.0912 18.4644 3.72999 18.3389C3.72754 18.3379 3.72112 18.3354 3.71127 18.3312C3.68983 18.322 3.6529 18.305 3.60555 18.2787C3.51012 18.2257 3.3779 18.138 3.24495 18.005C2.99239 17.7525 2.69997 17.3022 2.69997 16.5C2.69997 15.6978 2.99239 15.2475 3.24495 14.995C3.3779 14.862 3.51012 14.7743 3.60555 14.7213C3.6529 14.695 3.68983 14.678 3.71127 14.6688C3.72112 14.6646 3.72753 14.6621 3.72998 14.6611C4.0912 14.5356 4.28534 14.1425 4.16405 13.7786Z" fill="#222628"/>
<path fill-rule="evenodd" clip-rule="evenodd" d="M17.3145 4.35793C17.393 3.97938 17.7635 3.73611 18.142 3.81458L18 4.50001C18.142 3.81458 18.1424 3.81465 18.1427 3.81472L18.1435 3.81487L18.1451 3.81522L18.1489 3.81603L18.1588 3.8182L18.1871 3.82481C18.2097 3.83028 18.2396 3.83793 18.2758 3.84813C18.3479 3.86847 18.4461 3.89919 18.5617 3.94325C18.791 4.03063 19.0997 4.17454 19.4122 4.40222C20.0548 4.87041 20.7 5.69007 20.7 7.00001C20.7 8.30994 20.0548 9.1296 19.4122 9.5978C19.0997 9.82547 18.791 9.96939 18.5617 10.0568C18.4461 10.1008 18.3479 10.1315 18.2758 10.1519C18.2396 10.1621 18.2097 10.1697 18.1871 10.1752L18.1588 10.1818L18.1489 10.184L18.1451 10.1848L18.1435 10.1851L18.1427 10.1853C18.1424 10.1854 18.142 10.1854 18 9.50001L18.142 10.1854C17.7635 10.2639 17.393 10.0206 17.3145 9.64208C17.2364 9.26516 17.4773 8.89623 17.853 8.8156L17.8578 8.81449C17.8645 8.81286 17.8776 8.80957 17.8961 8.80435C17.9333 8.79388 17.9913 8.77592 18.0632 8.74853C18.2089 8.69301 18.4002 8.60294 18.5878 8.4663C18.9452 8.20585 19.3 7.77552 19.3 7.00001C19.3 6.22449 18.9452 5.79416 18.5878 5.53371C18.4002 5.39707 18.2089 5.307 18.0632 5.25148C17.9913 5.22409 17.9333 5.20613 17.8961 5.19566C17.8776 5.19044 17.8645 5.18715 17.8578 5.18553L17.853 5.18441C17.4773 5.10378 17.2364 4.73486 17.3145 4.35793Z" fill="#222628"/>
<path fill-rule="evenodd" clip-rule="evenodd" d="M6.69042 4.38459C6.6267 4.00328 6.26592 3.74583 5.88461 3.80955L5.99999 4.49998C5.88461 3.80955 5.88425 3.80961 5.88388 3.80967L5.8831 3.80981L5.88139 3.8101L5.8774 3.81079L5.8672 3.81263L5.83813 3.81828C5.81505 3.82297 5.7846 3.8296 5.74783 3.83859C5.67445 3.85653 5.57486 3.88411 5.45766 3.92484C5.22525 4.00563 4.91221 4.1421 4.5953 4.36666C3.93831 4.83217 3.29999 5.65756 3.29999 6.99997C3.29999 8.34239 3.93831 9.16777 4.5953 9.63329C4.91221 9.85784 5.22525 9.99432 5.45766 10.0751C5.57486 10.1158 5.67445 10.1434 5.74782 10.1614C5.7846 10.1703 5.81505 10.177 5.83813 10.1817L5.86719 10.1873L5.8774 10.1892L5.88139 10.1899L5.88309 10.1901L5.88388 10.1903C5.88425 10.1903 5.88461 10.1904 5.99999 9.49997L5.88461 10.1904C6.26592 10.2541 6.62669 9.99667 6.69042 9.61536C6.75385 9.23581 6.49907 8.87662 6.12066 8.81045C6.12066 8.81045 6.12066 8.81045 6.12065 8.81045C6.11995 8.81032 6.1187 8.81007 6.11693 8.80971C6.11072 8.80845 6.0982 8.80579 6.08029 8.80141C6.04429 8.79261 5.98763 8.77715 5.91733 8.75272C5.77474 8.70315 5.58778 8.62071 5.40469 8.49098C5.06168 8.24794 4.69999 7.82332 4.69999 6.99997C4.69999 6.17662 5.06168 5.75201 5.40469 5.50897C5.58778 5.37924 5.77474 5.2968 5.91732 5.24723C5.98763 5.2228 6.04429 5.20734 6.08029 5.19854C6.0982 5.19416 6.11072 5.1915 6.11693 5.19024M6.12065 5.1895C6.12065 5.1895 6.12066 5.1895 6.12066 5.1895C6.12119 5.1894 6.12141 5.18935 6.12132 5.18937L6.11969 5.18966L6.11787 5.18998L6.11671 5.19018" fill="#222628"/>
</svg>
