<svg width="24" height="24" viewBox="0 0 24 24" fill="none" xmlns="http://www.w3.org/2000/svg">
<path opacity="0.4" d="M2.37394 17.3629C2.40751 17.0364 2.4243 16.8732 2.44503 16.759C2.71333 15.2824 3.90223 14.2922 5.40302 14.2954C5.519 14.2956 5.70693 14.3106 6.08279 14.3405C7.19543 14.429 8.4236 14.5 9.5 14.5C10.5223 14.5 11.6169 14.4359 12.6011 14.3537C12.9764 14.3223 13.1641 14.3066 13.2701 14.3052C14.7252 14.2867 15.8685 15.1688 16.2197 16.581C16.2453 16.6838 16.2723 16.8385 16.3264 17.1478C16.3798 17.4534 16.4066 17.6062 16.4178 17.7305C16.5673 19.3886 15.3382 20.8513 13.6791 20.9896C13.5547 21 13.3996 21 13.0894 21L9.29883 21H5.65623C5.35132 21 5.19886 21 5.0739 20.9895C3.4978 20.8575 2.2949 19.5246 2.32479 17.9433C2.32717 17.8179 2.34276 17.6663 2.37394 17.3629Z" fill="#C4C4C4"/>
<path opacity="0.4" d="M6 6.5C6 4.567 7.567 3 9.5 3C11.433 3 13 4.567 13 6.5V7C13 8.65685 11.6569 10 10 10H9C7.34315 10 6 8.65685 6 7V6.5Z" fill="#C4C4C4"/>
<path fill-rule="evenodd" clip-rule="evenodd" d="M5.40154 14.9953C4.23964 14.9929 3.34147 15.741 3.13375 16.8842C3.11918 16.9644 3.10548 17.092 3.07027 17.4345C3.03758 17.7524 3.02634 17.8679 3.02467 17.9565C3.00175 19.1689 3.92397 20.1908 5.13232 20.292C5.22066 20.2994 5.33663 20.3 5.65623 20.3L13.0894 20.3C13.4146 20.3 13.5331 20.2994 13.621 20.292C14.8929 20.186 15.8352 19.0646 15.7206 17.7934C15.7127 17.7056 15.6929 17.5888 15.6369 17.2684C15.5801 16.944 15.5583 16.8221 15.5404 16.7499C15.2676 15.6529 14.4093 14.9907 13.279 15.0052C13.205 15.0061 13.0524 15.0184 12.6594 15.0512C11.6644 15.1344 10.5488 15.2 9.5 15.2C8.39698 15.2 7.14801 15.1274 6.02727 15.0382C5.63333 15.0069 5.48272 14.9955 5.40154 14.9953ZM1.75631 16.6339C2.08518 14.8238 3.56481 13.5915 5.40449 13.5953C5.54813 13.5956 5.75935 13.6125 6.08834 13.6387C6.1047 13.64 6.12135 13.6413 6.1383 13.6426C7.24283 13.7305 8.45022 13.8 9.5 13.8C10.4958 13.8 11.5694 13.7374 12.5427 13.6561L12.5937 13.6518C12.9218 13.6244 13.1299 13.607 13.2611 13.6053C15.0411 13.5826 16.4694 14.6845 16.899 16.412C16.9307 16.5394 16.9615 16.7158 17.0089 16.9872L17.0224 17.0644C17.0697 17.3343 17.1011 17.5138 17.1149 17.6676C17.2994 19.7126 15.7834 21.5166 13.7373 21.6872C13.5833 21.7 13.4011 21.7 13.1271 21.7L5.61944 21.7C5.34985 21.7 5.17013 21.7 5.01548 21.6871C3.07163 21.5243 1.58804 19.8803 1.62492 17.93C1.62785 17.7749 1.64625 17.5961 1.67385 17.3279C1.67508 17.3159 1.67634 17.3037 1.67761 17.2913C1.67906 17.2772 1.68049 17.2633 1.68189 17.2496C1.71136 16.9628 1.73064 16.7752 1.75631 16.6339Z" fill="#222628"/>
<path fill-rule="evenodd" clip-rule="evenodd" d="M21.7 7.00001C21.7 7.38661 21.3866 7.70001 21 7.70001L17 7.70001C16.6134 7.70001 16.3 7.38661 16.3 7.00001C16.3 6.61341 16.6134 6.30001 17 6.30001L21 6.30001C21.3866 6.30001 21.7 6.61341 21.7 7.00001Z" fill="#222628"/>
<path fill-rule="evenodd" clip-rule="evenodd" d="M18.3 8.99999L18.3 4.99999C18.3 4.61339 18.6134 4.29999 19 4.29999C19.3866 4.29999 19.7 4.61339 19.7 4.99999L19.7 8.99999C19.7 9.38659 19.3866 9.69999 19 9.69999C18.6134 9.69999 18.3 9.38659 18.3 8.99999Z" fill="#222628"/>
<path fill-rule="evenodd" clip-rule="evenodd" d="M5.3 6.49999C5.3 4.18039 7.18041 2.29999 9.5 2.29999C11.8196 2.29999 13.7 4.18039 13.7 6.49999V6.99999C13.7 9.04344 12.0435 10.7 10 10.7H9C6.95655 10.7 5.3 9.04344 5.3 6.99999V6.49999ZM9.5 3.69999C7.95361 3.69999 6.7 4.95359 6.7 6.49999V6.99999C6.7 8.27024 7.72975 9.29999 9 9.29999H10C11.2703 9.29999 12.3 8.27024 12.3 6.99999V6.49999C12.3 4.95359 11.0464 3.69999 9.5 3.69999Z" fill="#222628"/>
</svg>
