<svg width="24" height="24" viewBox="0 0 24 24" fill="none" xmlns="http://www.w3.org/2000/svg">
<path opacity="0.4" d="M13.5 8.17575V20.5C13.5 20.7761 13.7239 21 14 21H16.1667C16.4428 21 16.6667 20.7769 16.6667 20.5008V11C19.2911 12.5746 21.089 10.5731 21.735 9.65048C21.9225 9.38275 22 9.05987 22 8.73302V5.73805C22 5.31685 21.8243 4.91431 21.4911 4.65666C20.7062 4.04978 19.1394 3 17.6923 3C16.0997 3 14.8989 3.9821 14.194 4.98797C13.5541 5.90108 13.5 7.06075 13.5 8.17575Z" fill="#C4C4C4"/>
<path opacity="0.4" d="M10.5 8.17575V20.5C10.5 20.7761 10.2761 21 10 21H7.83333C7.55719 21 7.33333 20.7769 7.33333 20.5008V11C4.70893 12.5746 2.91102 10.5731 2.26498 9.65048C2.0775 9.38275 2 9.05987 2 8.73302V5.73805C2 5.31685 2.17573 4.91431 2.50894 4.65666C3.29378 4.04978 4.86056 3 6.30769 3C7.90029 3 9.10112 3.9821 9.80602 4.98797C10.4459 5.90108 10.5 7.06075 10.5 8.17575Z" fill="#C4C4C4"/>
<path fill-rule="evenodd" clip-rule="evenodd" d="M17.6923 3.69999C16.4091 3.69999 15.3958 4.49276 14.7673 5.38968C14.2693 6.10022 14.2 7.04423 14.2 8.17574V20.3H15.9667V11.001C15.9667 10.7488 16.1023 10.5151 16.3218 10.3908C16.5413 10.2666 16.8106 10.27 17.0268 10.3997C18.1288 11.0609 18.9829 10.9513 19.6357 10.6326C20.3378 10.29 20.8659 9.67135 21.1616 9.24895C21.2476 9.12613 21.3 8.95347 21.3 8.73301V5.73803C21.3 5.50798 21.2054 5.3206 21.0629 5.2104C20.6909 4.92275 20.1418 4.53695 19.5248 4.22573C18.8987 3.90992 18.2593 3.69999 17.6923 3.69999ZM17.3667 12.0886C18.4601 12.4405 19.44 12.286 20.2498 11.8908C21.2643 11.3956 21.9582 10.5522 22.3084 10.052C22.5974 9.63934 22.7 9.16624 22.7 8.73301V5.73803C22.7 5.12569 22.4432 4.50799 21.9193 4.10288C21.5064 3.78366 20.8797 3.34113 20.1553 2.97574C19.44 2.61494 18.5725 2.29999 17.6923 2.29999C15.7904 2.29999 14.402 3.47141 13.6207 4.58623C12.8389 5.70192 12.8 7.07724 12.8 8.17574V20.5C12.8 21.1627 13.3373 21.7 14 21.7H16.1667C16.828 21.7 17.3667 21.1649 17.3667 20.5008V12.0886Z" fill="#222628"/>
<path fill-rule="evenodd" clip-rule="evenodd" d="M19.7778 5.79999C20.1644 5.79999 20.4778 6.11339 20.4778 6.49999V7.99999C20.4778 8.38659 20.1644 8.69999 19.7778 8.69999C19.3912 8.69999 19.0778 8.38659 19.0778 7.99999V6.49999C19.0778 6.11339 19.3912 5.79999 19.7778 5.79999Z" fill="#222628"/>
<path fill-rule="evenodd" clip-rule="evenodd" d="M6.3077 3.69999C7.59098 3.69999 8.60423 4.49276 9.23278 5.38968C9.73071 6.10022 9.80001 7.04423 9.80001 8.17574V20.3H8.03335V11.001C8.03335 10.7488 7.89769 10.5151 7.67823 10.3908C7.45878 10.2666 7.18945 10.27 6.9732 10.3997C5.87125 11.0609 5.01718 10.9513 4.3643 10.6326C3.66223 10.29 3.13417 9.67135 2.83839 9.24895C2.75238 9.12613 2.70001 8.95347 2.70001 8.73301V5.73803C2.70001 5.50798 2.79463 5.3206 2.93714 5.2104C3.30915 4.92275 3.85822 4.53695 4.47522 4.22573C5.10131 3.90992 5.74073 3.69999 6.3077 3.69999ZM6.63335 12.0886C5.53992 12.4405 4.56007 12.286 3.75026 11.8908C2.73577 11.3956 2.04186 10.5522 1.69159 10.052C1.40264 9.63934 1.30001 9.16624 1.30001 8.73301V5.73803C1.30001 5.12569 1.55686 4.50799 2.08076 4.10288C2.4936 3.78366 3.12033 3.34113 3.84472 2.97574C4.56001 2.61494 5.42755 2.29999 6.3077 2.29999C8.20963 2.29999 9.59803 3.47141 10.3793 4.58623C11.1611 5.70192 11.2 7.07724 11.2 8.17574V20.5C11.2 21.1627 10.6628 21.7 10 21.7H7.83335C7.17201 21.7 6.63335 21.1649 6.63335 20.5008V12.0886Z" fill="#222628"/>
<path fill-rule="evenodd" clip-rule="evenodd" d="M4.22225 5.79999C3.83565 5.79999 3.52225 6.11339 3.52225 6.49999V7.99999C3.52225 8.38659 3.83565 8.69999 4.22225 8.69999C4.60885 8.69999 4.92225 8.38659 4.92225 7.99999V6.49999C4.92225 6.11339 4.60885 5.79999 4.22225 5.79999Z" fill="#222628"/>
</svg>
