<svg width="24" height="24" viewBox="0 0 24 24" fill="none" xmlns="http://www.w3.org/2000/svg">
<path fill-rule="evenodd" clip-rule="evenodd" d="M5.29999 5.99999C5.29999 5.61339 5.61339 5.29999 5.99999 5.29999H18C18.3866 5.29999 18.7 5.61339 18.7 5.99999C18.7 6.38659 18.3866 6.69999 18 6.69999H5.99999C5.61339 6.69999 5.29999 6.38659 5.29999 5.99999Z" fill="#222628"/>
<path fill-rule="evenodd" clip-rule="evenodd" d="M5.29999 12C5.29999 11.6134 5.61339 11.3 5.99999 11.3H14C14.3866 11.3 14.7 11.6134 14.7 12C14.7 12.3866 14.3866 12.7 14 12.7H5.99999C5.61339 12.7 5.29999 12.3866 5.29999 12Z" fill="#222628"/>
<path fill-rule="evenodd" clip-rule="evenodd" d="M5.29999 18C5.29999 17.6134 5.61339 17.3 5.99999 17.3H9.99999C10.3866 17.3 10.7 17.6134 10.7 18C10.7 18.3866 10.3866 18.7 9.99999 18.7H5.99999C5.61339 18.7 5.29999 18.3866 5.29999 18Z" fill="#222628"/>
</svg>
