<svg width="24" height="24" viewBox="0 0 24 24" fill="none" xmlns="http://www.w3.org/2000/svg">
<path opacity="0.4" d="M12 2C15.7385 2 17.6077 2 19 2.80385C19.9121 3.33046 20.6695 4.08788 21.1962 5C22 6.3923 22 8.26154 22 12C22 15.7385 22 17.6077 21.1962 19C20.6695 19.9121 19.9121 20.6695 19 21.1962C17.6077 22 15.7385 22 12 22C8.26154 22 6.3923 22 5 21.1962C4.08788 20.6695 3.33046 19.9121 2.80385 19C2 17.6077 2 15.7385 2 12C2 8.26154 2 6.3923 2.80385 5C3.33046 4.08788 4.08788 3.33046 5 2.80385C6.39231 2 8.26154 2 12 2Z" fill="#C4C4C4"/>
<path fill-rule="evenodd" clip-rule="evenodd" d="M12 6.29999C12.3866 6.29999 12.7 6.61339 12.7 6.99999L12.7 16C12.7 16.3866 12.3866 16.7 12 16.7C11.6134 16.7 11.3 16.3866 11.3 16L11.3 6.99999C11.3 6.61339 11.6134 6.29999 12 6.29999Z" fill="#222628"/>
<path fill-rule="evenodd" clip-rule="evenodd" d="M15.4812 13.6916C15.762 13.9573 15.7742 14.4004 15.5084 14.6812L15.4775 14.7137L15.3916 14.8039C15.3176 14.8813 15.2117 14.9917 15.0836 15.1242C14.8277 15.3887 14.4819 15.7425 14.124 16.0972C13.7681 16.45 13.3925 16.8114 13.0794 17.0875C12.9244 17.2242 12.7725 17.3509 12.6394 17.4471C12.5738 17.4944 12.4983 17.5451 12.4196 17.5869C12.3693 17.6135 12.2064 17.7 12 17.7C11.7936 17.7 11.6312 17.6138 11.5809 17.5871C11.5022 17.5453 11.4262 17.4944 11.3606 17.4471C11.2275 17.3509 11.0756 17.2242 10.9206 17.0875C10.6075 16.8114 10.232 16.45 9.87599 16.0972C9.51817 15.7425 9.1723 15.3887 8.9164 15.1242C8.7883 14.9917 8.68241 14.8813 8.60842 14.8039L8.52251 14.7137L8.49221 14.6818C8.22647 14.401 8.23806 13.9573 8.51884 13.6916C8.79963 13.4259 9.24267 13.438 9.50842 13.7188L9.53721 13.7492L9.62071 13.8368C9.69301 13.9124 9.79688 14.0208 9.92268 14.1508C10.1746 14.4113 10.5131 14.7575 10.8615 15.1028C11.2118 15.45 11.5644 15.7886 11.8466 16.0375C11.9024 16.0867 11.9536 16.1308 12 16.1696C12.0464 16.1308 12.0976 16.0867 12.1534 16.0375C12.4356 15.7886 12.7882 15.45 13.1385 15.1028C13.4869 14.7575 13.8254 14.4113 14.0773 14.1508C14.2031 14.0208 14.307 13.9124 14.3793 13.8368L14.4628 13.7492L14.4912 13.7192C14.4912 13.7192 14.4912 13.7192 14.4912 13.7192M15.4812 13.6916C15.2004 13.4259 14.757 13.4384 14.4912 13.7192L15.4812 13.6916Z" fill="#222628"/>
<path fill-rule="evenodd" clip-rule="evenodd" d="M22.7 11.9645L22.7 12.0354C22.7 13.8747 22.7 15.3027 22.5967 16.443C22.4918 17.6002 22.2761 18.5295 21.8024 19.35C21.2143 20.3685 20.3685 21.2143 19.35 21.8024C18.5296 22.276 17.6002 22.4918 16.443 22.5966C15.3027 22.7 13.8747 22.7 12.0354 22.7L11.9646 22.7C10.1254 22.7 8.6973 22.7 7.55702 22.5966C6.39981 22.4918 5.47046 22.276 4.65001 21.8024C3.63148 21.2143 2.78569 20.3685 2.19764 19.35C1.72395 18.5295 1.50823 17.6002 1.40335 16.443C1.3 15.3027 1.30001 13.8746 1.30001 12.0354L1.30001 11.9646C1.30001 10.1253 1.3 8.69727 1.40335 7.55699C1.50823 6.39979 1.72395 5.47044 2.19764 4.64999C2.78569 3.63146 3.63148 2.78566 4.65001 2.19762C5.47046 1.72393 6.39981 1.50821 7.55702 1.40333C8.69728 1.29998 10.1253 1.29998 11.9646 1.29999L12.0355 1.29999C13.8747 1.29998 15.3027 1.29998 16.443 1.40333C17.6002 1.50821 18.5296 1.72393 19.35 2.19762C20.3685 2.78567 21.2143 3.63146 21.8024 4.64999C22.2761 5.47044 22.4918 6.39979 22.5967 7.55699C22.7 8.69726 22.7 10.1253 22.7 11.9645ZM21.2024 7.68336C21.1063 6.62326 20.9201 5.92184 20.5899 5.34999C20.1248 4.54429 19.4557 3.87523 18.65 3.41005C18.0782 3.07989 17.3767 2.89369 16.3166 2.79761C15.2469 2.70066 13.8821 2.69999 12 2.69999C10.1179 2.69999 8.75311 2.70066 7.68339 2.79761C6.62328 2.89369 5.92187 3.07989 5.35001 3.41005C4.54431 3.87522 3.87525 4.54428 3.41008 5.34999C3.07992 5.92184 2.89371 6.62326 2.79763 7.68336C2.70068 8.75309 2.70001 10.1179 2.70001 12C2.70001 13.8821 2.70068 15.2469 2.79763 16.3166C2.89371 17.3767 3.07992 18.0781 3.41008 18.65C3.87525 19.4557 4.54431 20.1247 5.35001 20.5899C5.92187 20.9201 6.62328 21.1063 7.68339 21.2024C8.75311 21.2993 10.1179 21.3 12 21.3C13.8821 21.3 15.2469 21.2993 16.3166 21.2024C17.3767 21.1063 18.0782 20.9201 18.65 20.5899C19.4557 20.1247 20.1248 19.4557 20.5899 18.65C20.9201 18.0781 21.1063 17.3767 21.2024 16.3166C21.2993 15.2469 21.3 13.8821 21.3 12C21.3 10.1179 21.2993 8.75309 21.2024 7.68336Z" fill="#222628"/>
</svg>
