<svg width="24" height="24" viewBox="0 0 24 24" fill="none" xmlns="http://www.w3.org/2000/svg">
<path fill-rule="evenodd" clip-rule="evenodd" d="M12.5 21.2C12.1134 21.2 11.8 20.8866 11.8 20.5L11.8 11.5C11.8 11.1134 12.1134 10.8 12.5 10.8C12.8866 10.8 13.2 11.1134 13.2 11.5L13.2 20.5C13.2 20.8866 12.8866 21.2 12.5 21.2Z" fill="#222628"/>
<path opacity="0.4" d="M10.34 6.38C11.2134 5.21553 11.6501 4.6333 12.2234 4.52572C12.4062 4.49143 12.5938 4.49143 12.7766 4.52572C13.35 4.6333 13.7867 5.21553 14.66 6.38L15.26 7.18C16.5046 8.83942 17.1269 9.66913 16.9562 10.3598C16.9029 10.5756 16.8023 10.7769 16.6616 10.9491C16.2114 11.5 15.1743 11.5 13.1 11.5H11.9C9.82574 11.5 8.7886 11.5 8.33847 10.9491C8.19779 10.7769 8.09714 10.5756 8.04381 10.3598C7.87317 9.66913 8.49546 8.83942 9.74002 7.18L10.34 6.38Z" fill="#C4C4C4"/>
<path fill-rule="evenodd" clip-rule="evenodd" d="M14.14 8.02L13.54 7.22C13.0822 6.60961 12.8116 6.25265 12.592 6.02195C12.5548 5.98298 12.5243 5.95331 12.5 5.93099C12.4757 5.95331 12.4452 5.98298 12.4081 6.02195C12.1884 6.25265 11.9178 6.60961 11.46 7.22L10.86 8.02C10.2152 8.87982 9.81093 9.42284 9.57318 9.834C9.53196 9.90528 9.50115 9.96382 9.47819 10.0109C9.52965 10.0208 9.59496 10.0313 9.67671 10.0411C10.1483 10.0976 10.8253 10.1 11.9 10.1H13.1C14.1748 10.1 14.8518 10.0976 15.3233 10.0411C15.4051 10.0313 15.4704 10.0208 15.5219 10.0109C15.4989 9.96381 15.4681 9.90528 15.4269 9.834C15.1891 9.42284 14.7849 8.87982 14.14 8.02ZM12.2234 4.52572C11.6501 4.6333 11.2134 5.21553 10.34 6.38L9.74002 7.18C8.49546 8.83942 7.87317 9.66913 8.04381 10.3598C8.09714 10.5756 8.19779 10.7769 8.33847 10.9491C8.7886 11.5 9.82574 11.5 11.9 11.5H13.1C15.1743 11.5 16.2114 11.5 16.6616 10.9491C16.8023 10.7769 16.9029 10.5756 16.9562 10.3598C17.1269 9.66913 16.5046 8.83942 15.26 7.18L14.66 6.38C13.7867 5.21553 13.35 4.6333 12.7766 4.52572C12.5938 4.49143 12.4062 4.49143 12.2234 4.52572Z" fill="#222628"/>
</svg>
