<svg width="24" height="24" viewBox="0 0 24 24" fill="none" xmlns="http://www.w3.org/2000/svg">
<path opacity="0.4" d="M12 2C15.7385 2 17.6077 2 19 2.80385C19.9121 3.33046 20.6695 4.08788 21.1962 5C22 6.3923 22 8.26154 22 12C22 15.7385 22 17.6077 21.1962 19C20.6695 19.9121 19.9121 20.6695 19 21.1962C17.6077 22 15.7385 22 12 22C8.26154 22 6.3923 22 5 21.1962C4.08788 20.6695 3.33046 19.9121 2.80385 19C2 17.6077 2 15.7385 2 12C2 8.26154 2 6.3923 2.80385 5C3.33046 4.08788 4.08788 3.33046 5 2.80385C6.39231 2 8.26154 2 12 2Z" fill="#C4C4C4"/>
<path fill-rule="evenodd" clip-rule="evenodd" d="M22.7 11.9645L22.7 12.0354C22.7 13.8747 22.7 15.3027 22.5967 16.443C22.4918 17.6002 22.2761 18.5295 21.8024 19.35C21.2143 20.3685 20.3685 21.2143 19.35 21.8024C18.5296 22.276 17.6002 22.4918 16.443 22.5966C15.3027 22.7 13.8747 22.7 12.0354 22.7L11.9646 22.7C10.1254 22.7 8.6973 22.7 7.55702 22.5966C6.39981 22.4918 5.47046 22.276 4.65001 21.8024C3.63148 21.2143 2.78569 20.3685 2.19764 19.35C1.72395 18.5295 1.50823 17.6002 1.40335 16.443C1.3 15.3027 1.30001 13.8746 1.30001 12.0354L1.30001 11.9646C1.30001 10.1253 1.3 8.69727 1.40335 7.55699C1.50823 6.39979 1.72395 5.47044 2.19764 4.64999C2.78569 3.63146 3.63148 2.78566 4.65001 2.19762C5.47046 1.72393 6.39981 1.50821 7.55702 1.40333C8.69728 1.29998 10.1253 1.29998 11.9646 1.29999L12.0355 1.29999C13.8747 1.29998 15.3027 1.29998 16.443 1.40333C17.6002 1.50821 18.5296 1.72393 19.35 2.19762C20.3685 2.78567 21.2143 3.63146 21.8024 4.64999C22.2761 5.47044 22.4918 6.39979 22.5967 7.55699C22.7 8.69726 22.7 10.1253 22.7 11.9645ZM21.2024 7.68336C21.1063 6.62326 20.9201 5.92184 20.5899 5.34999C20.1248 4.54429 19.4557 3.87523 18.65 3.41005C18.0782 3.07989 17.3767 2.89369 16.3166 2.79761C15.2469 2.70066 13.8821 2.69999 12 2.69999C10.1179 2.69999 8.75311 2.70066 7.68339 2.79761C6.62328 2.89369 5.92187 3.07989 5.35001 3.41005C4.54431 3.87522 3.87525 4.54428 3.41008 5.34999C3.07992 5.92184 2.89371 6.62326 2.79763 7.68336C2.70068 8.75309 2.70001 10.1179 2.70001 12C2.70001 13.8821 2.70068 15.2469 2.79763 16.3166C2.89371 17.3767 3.07992 18.0781 3.41008 18.65C3.87525 19.4557 4.54431 20.1247 5.35001 20.5899C5.92187 20.9201 6.62328 21.1063 7.68339 21.2024C8.75311 21.2993 10.1179 21.3 12 21.3C13.8821 21.3 15.2469 21.2993 16.3166 21.2024C17.3767 21.1063 18.0782 20.9201 18.65 20.5899C19.4557 20.1247 20.1248 19.4557 20.5899 18.65C20.9201 18.0781 21.1063 17.3767 21.2024 16.3166C21.2993 15.2469 21.3 13.8821 21.3 12C21.3 10.1179 21.2993 8.75309 21.2024 7.68336Z" fill="#222628"/>
<path fill-rule="evenodd" clip-rule="evenodd" d="M15.9683 10.4797C16.2556 10.7383 16.2789 11.1809 16.0203 11.4683L15.5 11L14.9797 10.5317C15.2383 10.2444 15.6809 10.2211 15.9683 10.4797ZM8.50001 11L9.02032 10.5317L9.05491 10.5701L9.1545 10.6801C9.24063 10.775 9.36422 10.9108 9.51367 11.0739C9.81282 11.4002 10.2145 11.8344 10.6263 12.2679C11.0396 12.703 11.4566 13.1304 11.7882 13.4462C11.8661 13.5204 11.9369 13.5861 12 13.6429C12.0631 13.5861 12.1339 13.5204 12.2118 13.4462C12.5434 13.1304 12.9604 12.703 13.3738 12.2679C13.7855 11.8344 14.1872 11.4002 14.4863 11.0739C14.6358 10.9108 14.7594 10.775 14.8455 10.6801L14.9451 10.5701L14.9797 10.5317L15.5 11L16.0203 11.4683L15.984 11.5085L15.8824 11.6207C15.7949 11.7172 15.6697 11.8548 15.5184 12.0199C15.2159 12.3498 14.8082 12.7906 14.3888 13.2321C13.9709 13.672 13.5347 14.1196 13.1773 14.46C13.0001 14.6288 12.8313 14.7817 12.6882 14.8962C12.6179 14.9524 12.5393 15.0111 12.4598 15.0593C12.4201 15.0834 12.3671 15.1128 12.3054 15.138C12.2529 15.1595 12.1419 15.2 12 15.2C11.8581 15.2 11.7471 15.1595 11.6946 15.138C11.6329 15.1128 11.5799 15.0834 11.5402 15.0593C11.4607 15.0111 11.3821 14.9524 11.3118 14.8962C11.1687 14.7817 10.9999 14.6288 10.8227 14.46C10.4653 14.1196 10.0291 13.672 9.61126 13.2321C9.19177 12.7906 8.78406 12.3498 8.48165 12.0199C8.33033 11.8548 8.20509 11.7172 8.11758 11.6207L8.01602 11.5085L7.98038 11.469L8.50001 11ZM8.50001 11L9.02032 10.5317C8.7617 10.2444 8.31909 10.2211 8.03173 10.4797C7.74437 10.7383 7.72108 11.1809 7.9797 11.4683L8.50001 11Z" fill="#222628"/>
</svg>
