<svg width="24" height="24" viewBox="0 0 24 24" fill="none" xmlns="http://www.w3.org/2000/svg">
<path fill-rule="evenodd" clip-rule="evenodd" d="M3.29999 12C3.29999 11.6134 3.61339 11.3 3.99999 11.3L19 11.3C19.3866 11.3 19.7 11.6134 19.7 12C19.7 12.3866 19.3866 12.7 19 12.7L3.99999 12.7C3.61339 12.7 3.29999 12.3866 3.29999 12Z" fill="#222628"/>
<path fill-rule="evenodd" clip-rule="evenodd" d="M14.5197 6.49071C14.801 6.22548 15.244 6.23848 15.5093 6.51975L15 6.99999L14.4907 7.48023C14.2255 7.19896 14.2385 6.75594 14.5197 6.49071ZM15 17L14.4907 16.5197L14.6833 16.3151C14.806 16.1845 14.9814 15.9976 15.1919 15.7726C15.6131 15.3224 16.1743 14.7202 16.7351 14.1112C17.2967 13.5014 17.8549 12.8883 18.2714 12.4149C18.4104 12.257 18.5312 12.1172 18.63 12C18.5312 11.8827 18.4104 11.743 18.2714 11.585C17.8549 11.1117 17.2967 10.4985 16.7351 9.88876C16.1743 9.27981 15.6131 8.67761 15.1919 8.22742C14.9814 8.00238 14.806 7.81547 14.6833 7.68486L14.4907 7.48023L15 6.99999L15.5093 6.51975L15.7034 6.72611C15.8268 6.85737 16.0029 7.04506 16.2143 7.27097C16.6369 7.72268 17.2007 8.32775 17.7649 8.94033C18.3283 9.55206 18.8951 10.1746 19.3224 10.6602C19.5351 10.902 19.7187 11.1159 19.8511 11.2798C19.9162 11.3604 19.977 11.4388 20.0244 11.5071C20.0473 11.54 20.0763 11.5838 20.1025 11.6321C20.1155 11.656 20.1345 11.6933 20.1518 11.7393C20.1648 11.7738 20.2 11.8715 20.2 12C20.2 12.1285 20.1648 12.2261 20.1518 12.2607C20.1345 12.3067 20.1155 12.3439 20.1025 12.3679C20.0763 12.4162 20.0473 12.46 20.0244 12.4929C19.977 12.5612 19.9162 12.6396 19.8511 12.7202C19.7187 12.8841 19.5351 13.098 19.3224 13.3398C18.8951 13.8253 18.3283 14.4479 17.7649 15.0597C17.2007 15.6722 16.6369 16.2773 16.2143 16.729C16.0029 16.9549 15.8268 17.1426 15.7034 17.2739L15.5093 17.4802L15 17ZM15 17L14.4907 16.5197C14.2255 16.801 14.2385 17.244 14.5197 17.5093C14.801 17.7745 15.2441 17.7614 15.5093 17.4802L15 17Z" fill="#222628"/>
</svg>
