<svg width="24" height="24" viewBox="0 0 24 24" fill="none" xmlns="http://www.w3.org/2000/svg">
<path fill-rule="evenodd" clip-rule="evenodd" d="M9.50501 7.00501C9.77837 6.73165 10.2216 6.73165 10.495 7.00501L10.0615 7.43844C10.495 7.00502 10.4949 7.00497 10.495 7.00501L10.5409 7.05109L10.669 7.18007C10.7792 7.29124 10.9364 7.45043 11.125 7.64295C11.5019 8.02771 12.0054 8.54692 12.5097 9.08273C13.0123 9.61675 13.5228 10.1748 13.9104 10.635C14.103 10.8637 14.2752 11.08 14.4027 11.2633C14.4658 11.354 14.5279 11.4508 14.5771 11.546C14.6108 11.6112 14.7 11.7868 14.7 12C14.7 12.2132 14.6108 12.3887 14.5771 12.454C14.5279 12.5492 14.4658 12.646 14.4027 12.7366C14.2752 12.92 14.103 13.1363 13.9104 13.3649C13.5228 13.8252 13.0123 14.3832 12.5097 14.9172C12.0054 15.4531 11.5019 15.9723 11.125 16.357C10.9364 16.5495 10.7792 16.7087 10.669 16.8199L10.5409 16.9489L10.4958 16.9941L10.495 16.9949C10.495 16.9949 10.495 16.995 9.99998 16.5L9.50502 16.005L9.5489 15.961L9.67469 15.8344C9.78325 15.7248 9.93852 15.5676 10.1249 15.3773C10.498 14.9965 10.9945 14.4844 11.4902 13.9577C11.9876 13.4293 12.4771 12.8935 12.8395 12.4632C12.9944 12.2793 13.1188 12.1232 13.2086 12C13.1188 11.8768 12.9944 11.7207 12.8395 11.5368C12.4771 11.1065 11.9876 10.5707 11.4902 10.0422C10.9945 9.51556 10.498 9.00351 10.1249 8.62265C9.93852 8.43236 9.78325 8.27514 9.67469 8.16561L9.5489 8.03898L9.50561 7.99557C9.23225 7.7222 9.23164 7.27838 9.50501 7.00501ZM13.333 12.1881C13.3402 12.2061 13.3428 12.207 13.333 12.1881C13.3329 12.1879 13.3332 12.1884 13.333 12.1881ZM9.50501 16.995C9.23164 16.7216 9.23165 16.2784 9.50502 16.005L9.99998 16.5L10.495 16.9949C10.2217 17.2683 9.77837 17.2683 9.50501 16.995Z" fill="#222628"/>
</svg>
