<svg width="24" height="24" viewBox="0 0 24 24" fill="none" xmlns="http://www.w3.org/2000/svg">
<path fill-rule="evenodd" clip-rule="evenodd" d="M3.29999 12C3.29999 11.6134 3.61339 11.3 3.99999 11.3H13C13.3866 11.3 13.7 11.6134 13.7 12C13.7 12.3866 13.3866 12.7 13 12.7H3.99999C3.61339 12.7 3.29999 12.3866 3.29999 12Z" fill="#222628"/>
<path opacity="0.4" d="M18.12 9.84002C19.2845 10.7134 19.8667 11.1501 19.9743 11.7234C20.0086 11.9062 20.0086 12.0938 19.9743 12.2766C19.8667 12.85 19.2845 13.2867 18.12 14.16L17.32 14.76C15.6606 16.0046 14.8309 16.6269 14.1402 16.4562C13.9244 16.4029 13.7231 16.3023 13.5509 16.1616C13 15.7114 13 14.6743 13 12.6L13 11.4C13 9.32574 13 8.2886 13.5509 7.83847C13.7231 7.69779 13.9244 7.59714 14.1402 7.54381C14.8309 7.37317 15.6606 7.99546 17.32 9.24002L18.12 9.84002Z" fill="#C4C4C4"/>
<path fill-rule="evenodd" clip-rule="evenodd" d="M16.48 13.64L17.28 13.04C17.8904 12.5822 18.2473 12.3116 18.478 12.092C18.517 12.0548 18.5467 12.0243 18.569 12C18.5467 11.9757 18.517 11.9452 18.478 11.9081C18.2473 11.6884 17.8904 11.4178 17.28 10.96L16.48 10.36C15.6202 9.71516 15.0772 9.31093 14.666 9.07318C14.5947 9.03196 14.5362 9.00115 14.4891 8.97819C14.4792 9.02964 14.4687 9.09496 14.4589 9.17671C14.4024 9.64829 14.4 10.3253 14.4 11.4L14.4 12.6C14.4 13.6748 14.4024 14.3518 14.4589 14.8233C14.4687 14.9051 14.4792 14.9704 14.4891 15.0219C14.5362 14.9989 14.5947 14.9681 14.666 14.9269C15.0772 14.6891 15.6202 14.2849 16.48 13.64ZM19.9743 11.7234C19.8667 11.1501 19.2845 10.7134 18.12 9.84002L17.32 9.24002C15.6606 7.99546 14.8309 7.37317 14.1402 7.54381C13.9244 7.59714 13.7231 7.69779 13.5509 7.83847C13 8.2886 13 9.32574 13 11.4L13 12.6C13 14.6743 13 15.7114 13.5509 16.1616C13.7231 16.3023 13.9244 16.4029 14.1402 16.4562C14.8309 16.6269 15.6606 16.0046 17.32 14.76L18.12 14.16C19.2845 13.2867 19.8667 12.85 19.9743 12.2766C20.0086 12.0938 20.0086 11.9062 19.9743 11.7234Z" fill="#222628"/>
</svg>
