<svg width="24" height="24" viewBox="0 0 24 24" fill="none" xmlns="http://www.w3.org/2000/svg">
<path opacity="0.4" d="M22 12C22 17.5228 17.5228 22 12 22C6.47715 22 2 17.5228 2 12C2 6.47715 6.47715 2 12 2C17.5228 2 22 6.47715 22 12Z" fill="#C4C4C4"/>
<path fill-rule="evenodd" clip-rule="evenodd" d="M22.7 12C22.7 17.9095 17.9095 22.7 12 22.7C6.09056 22.7 1.30001 17.9095 1.30001 12C1.30001 6.09057 6.09056 1.30001 12 1.30001C17.9095 1.30001 22.7 6.09056 22.7 12ZM12 21.3C17.1363 21.3 21.3 17.1363 21.3 12C21.3 6.86376 17.1363 2.70001 12 2.70001C6.86376 2.70001 2.70001 6.86377 2.70001 12C2.70001 17.1363 6.86376 21.3 12 21.3Z" fill="#222628"/>
<path fill-rule="evenodd" clip-rule="evenodd" d="M13.5203 15.9683C13.2617 16.2556 12.8191 16.2789 12.5317 16.0203L13 15.5L13.4683 14.9797C13.7556 15.2383 13.7789 15.6809 13.5203 15.9683ZM13 8.50001L13.4683 9.02032L13.4299 9.05491L13.3199 9.1545C13.225 9.24063 13.0892 9.36422 12.9261 9.51367C12.5998 9.81282 12.1656 10.2145 11.7321 10.6263C11.297 11.0396 10.8696 11.4566 10.5538 11.7882C10.4796 11.8661 10.4139 11.9369 10.3571 12C10.4139 12.0631 10.4796 12.1339 10.5538 12.2118C10.8696 12.5434 11.297 12.9604 11.7321 13.3738C12.1656 13.7855 12.5998 14.1872 12.9261 14.4863C13.0892 14.6358 13.225 14.7594 13.3199 14.8455L13.4299 14.9451L13.4683 14.9797L13 15.5L12.5317 16.0203L12.4915 15.984L12.3793 15.8824C12.2828 15.7949 12.1452 15.6697 11.9801 15.5184C11.6502 15.216 11.2094 14.8082 10.7679 14.3888C10.328 13.9709 9.88039 13.5347 9.53998 13.1773C9.37122 13.0001 9.21829 12.8313 9.10379 12.6882C9.04759 12.6179 8.98887 12.5393 8.94067 12.4598C8.91661 12.4201 8.88717 12.3672 8.86195 12.3054C8.84055 12.2529 8.80001 12.1419 8.80001 12C8.80001 11.8581 8.84055 11.7471 8.86195 11.6946C8.88717 11.6329 8.91661 11.5799 8.94067 11.5402C8.98887 11.4607 9.04759 11.3821 9.10379 11.3118C9.21829 11.1687 9.37122 10.9999 9.53998 10.8227C9.88039 10.4653 10.328 10.0291 10.7679 9.61126C11.2094 9.19177 11.6502 8.78406 11.9801 8.48165C12.1452 8.33033 12.2828 8.20509 12.3793 8.11758L12.4915 8.01602L12.531 7.98038L13 8.50001ZM13 8.50001L13.4683 9.02032C13.7556 8.7617 13.7789 8.31909 13.5203 8.03173C13.2617 7.74437 12.8191 7.72108 12.5317 7.9797L13 8.50001Z" fill="#222628"/>
</svg>
