<svg width="24" height="24" viewBox="0 0 24 24" fill="none" xmlns="http://www.w3.org/2000/svg">
<path opacity="0.4" d="M2 12C2 8.26154 2 6.3923 2.80385 5C3.33046 4.08788 4.08788 3.33046 5 2.80385C6.3923 2 8.26154 2 12 2C15.7385 2 17.6077 2 19 2.80385C19.9121 3.33046 20.6695 4.08788 21.1962 5C22 6.3923 22 8.26154 22 12C22 15.7385 22 17.6077 21.1962 19C20.6695 19.9121 19.9121 20.6695 19 21.1962C17.6077 22 15.7385 22 12 22C8.26154 22 6.3923 22 5 21.1962C4.08788 20.6695 3.33046 19.9121 2.80385 19C2 17.6077 2 15.7385 2 12Z" fill="#C4C4C4"/>
<path fill-rule="evenodd" clip-rule="evenodd" d="M11.9645 1.29999H12.0354C13.8747 1.29998 15.3027 1.29998 16.443 1.40333C17.6002 1.50821 18.5295 1.72393 19.35 2.19762C20.3685 2.78567 21.2143 3.63146 21.8024 4.64999C22.276 5.47044 22.4918 6.39979 22.5966 7.55699C22.7 8.69727 22.7 10.1253 22.7 11.9646V12.0354C22.7 13.8746 22.7 15.3027 22.5966 16.443C22.4918 17.6002 22.276 18.5295 21.8024 19.35C21.2143 20.3685 20.3685 21.2143 19.35 21.8024C18.5295 22.276 17.6002 22.4918 16.443 22.5966C15.3027 22.7 13.8746 22.7 12.0354 22.7H11.9646C10.1253 22.7 8.69727 22.7 7.55699 22.5966C6.39979 22.4918 5.47044 22.276 4.64999 21.8024C3.63146 21.2143 2.78567 20.3685 2.19762 19.35C1.72393 18.5295 1.50821 17.6002 1.40333 16.443C1.29998 15.3027 1.29998 13.8747 1.29999 12.0354V11.9645C1.29998 10.1253 1.29998 8.69726 1.40333 7.55699C1.50821 6.39979 1.72393 5.47044 2.19762 4.64999C2.78567 3.63146 3.63146 2.78567 4.64999 2.19762C5.47044 1.72393 6.39979 1.50821 7.55699 1.40333C8.69726 1.29998 10.1253 1.29998 11.9645 1.29999ZM7.68336 2.79761C6.62326 2.89369 5.92184 3.07989 5.34999 3.41005C4.54429 3.87523 3.87523 4.54429 3.41005 5.34999C3.07989 5.92184 2.89369 6.62326 2.79761 7.68336C2.70066 8.75309 2.69999 10.1179 2.69999 12C2.69999 13.8821 2.70066 15.2469 2.79761 16.3166C2.89369 17.3767 3.07989 18.0781 3.41005 18.65C3.87523 19.4557 4.54429 20.1248 5.34999 20.5899C5.92184 20.9201 6.62326 21.1063 7.68336 21.2024C8.75309 21.2993 10.1179 21.3 12 21.3C13.8821 21.3 15.2469 21.2993 16.3166 21.2024C17.3767 21.1063 18.0781 20.9201 18.65 20.5899C19.4557 20.1248 20.1248 19.4557 20.5899 18.65C20.9201 18.0781 21.1063 17.3767 21.2024 16.3166C21.2993 15.2469 21.3 13.8821 21.3 12C21.3 10.1179 21.2993 8.75309 21.2024 7.68336C21.1063 6.62326 20.9201 5.92184 20.5899 5.34999C20.1248 4.54429 19.4557 3.87523 18.65 3.41005C18.0781 3.07989 17.3767 2.89369 16.3166 2.79761C15.2469 2.70066 13.8821 2.69999 12 2.69999C10.1179 2.69999 8.75309 2.70066 7.68336 2.79761Z" fill="#222628"/>
<path fill-rule="evenodd" clip-rule="evenodd" d="M10.4797 8.03172C10.7383 7.74436 11.1809 7.72107 11.4683 7.97969L11 8.49999L10.5317 9.0203C10.2444 8.76168 10.2211 8.31908 10.4797 8.03172ZM11 15.5L10.5317 14.9797L10.5701 14.9451L10.6801 14.8455C10.775 14.7594 10.9108 14.6358 11.0739 14.4863C11.4002 14.1872 11.8344 13.7855 12.2679 13.3737C12.703 12.9604 13.1304 12.5434 13.4462 12.2118C13.5204 12.1339 13.5861 12.0631 13.6429 12C13.5861 11.9369 13.5204 11.8661 13.4462 11.7882C13.1304 11.4566 12.703 11.0396 12.2679 10.6262C11.8344 10.2145 11.4002 9.81281 11.0739 9.51366C10.9108 9.3642 10.775 9.24062 10.6801 9.15449L10.5701 9.0549L10.5317 9.0203L11 8.49999L11.4683 7.97969L11.5085 8.01601L11.6207 8.11757C11.7172 8.20507 11.8548 8.33031 12.0199 8.48164C12.3498 8.78405 12.7906 9.19176 13.2321 9.61124C13.672 10.0291 14.1196 10.4653 14.46 10.8227C14.6288 10.9999 14.7817 11.1687 14.8962 11.3118C14.9524 11.3821 15.0111 11.4607 15.0593 11.5402C15.0834 11.5799 15.1128 11.6329 15.138 11.6946C15.1595 11.7471 15.2 11.8581 15.2 12C15.2 12.1419 15.1595 12.2529 15.138 12.3054C15.1128 12.3671 15.0834 12.4201 15.0593 12.4598C15.0111 12.5393 14.9524 12.6179 14.8962 12.6882C14.7817 12.8313 14.6288 13.0001 14.46 13.1773C14.1196 13.5347 13.672 13.9709 13.2321 14.3887C12.7906 14.8082 12.3498 15.2159 12.0199 15.5183C11.8548 15.6697 11.7172 15.7949 11.6207 15.8824L11.5085 15.984L11.469 16.0196L11 15.5ZM11 15.5L10.5317 14.9797C10.2444 15.2383 10.2211 15.6809 10.4797 15.9683C10.7383 16.2556 11.1809 16.2789 11.4683 16.0203L11 15.5Z" fill="#222628"/>
</svg>
