<svg width="24" height="24" viewBox="0 0 24 24" fill="none" xmlns="http://www.w3.org/2000/svg">
<path fill-rule="evenodd" clip-rule="evenodd" d="M16.995 9.50501C17.2684 9.77837 17.2684 10.2216 16.995 10.495L16.5616 10.0615C16.995 10.495 16.995 10.4949 16.995 10.495L16.9489 10.5409L16.8199 10.669C16.7088 10.7792 16.5496 10.9364 16.357 11.125C15.9723 11.5019 15.4531 12.0054 14.9173 12.5097C14.3832 13.0123 13.8252 13.5228 13.365 13.9104C13.1363 14.103 12.92 14.2752 12.7367 14.4027C12.646 14.4658 12.5492 14.5279 12.454 14.5771C12.3888 14.6108 12.2132 14.7 12 14.7C11.7868 14.7 11.6113 14.6108 11.546 14.5771C11.4508 14.5279 11.354 14.4658 11.2634 14.4027C11.08 14.2752 10.8637 14.103 10.6351 13.9104C10.1748 13.5228 9.61678 13.0123 9.08276 12.5097C8.54694 12.0054 8.02774 11.5019 7.64298 11.125C7.45046 10.9364 7.29127 10.7792 7.18009 10.669L7.05111 10.5409L7.00589 10.4958L7.00511 10.495C7.00507 10.495 7.00504 10.495 7.50001 9.99998L7.995 9.50502L8.039 9.5489L8.16563 9.67469C8.27516 9.78325 8.43238 9.93852 8.62267 10.1249C9.00354 10.498 9.51558 10.9945 10.0423 11.4902C10.5707 11.9876 11.1065 12.4771 11.5368 12.8395C11.7207 12.9944 11.8768 13.1188 12 13.2086C12.1232 13.1188 12.2793 12.9944 12.4632 12.8395C12.8935 12.4771 13.4293 11.9876 13.9578 11.4902C14.4844 10.9945 14.9965 10.498 15.3774 10.1249C15.5676 9.93852 15.7249 9.78325 15.8344 9.67469L15.961 9.5489L16.0044 9.50561C16.2778 9.23225 16.7216 9.23164 16.995 9.50501ZM11.8119 13.333C11.7939 13.3402 11.793 13.3428 11.8119 13.333C11.8121 13.3329 11.8116 13.3332 11.8119 13.333ZM7.00504 9.50501C7.27841 9.23164 7.72164 9.23165 7.995 9.50502L7.50001 9.99998L7.00511 10.495C6.73175 10.2217 6.73167 9.77837 7.00504 9.50501Z" fill="#222628"/>
</svg>
