<svg width="24" height="24" viewBox="0 0 24 24" fill="none" xmlns="http://www.w3.org/2000/svg">
<path fill-rule="evenodd" clip-rule="evenodd" d="M11.75 3.54999C12.1366 3.54999 12.45 3.86339 12.45 4.24999L12.45 19.25C12.45 19.6366 12.1366 19.95 11.75 19.95C11.3634 19.95 11.05 19.6366 11.05 19.25L11.05 4.24999C11.05 3.86339 11.3634 3.54999 11.75 3.54999Z" fill="#222628"/>
<path fill-rule="evenodd" clip-rule="evenodd" d="M17.2593 14.7697C17.5245 15.051 17.5115 15.494 17.2303 15.7593L16.75 15.25L16.2698 14.7407C16.551 14.4755 16.9941 14.4885 17.2593 14.7697ZM6.75001 15.25L7.23029 14.7407L7.43488 14.9333C7.56549 15.056 7.75241 15.2314 7.97744 15.4419C8.42763 15.8631 9.02983 16.4243 9.63878 16.9851C10.2486 17.5467 10.8617 18.1049 11.3351 18.5214C11.493 18.6604 11.6328 18.7812 11.75 18.88C11.8673 18.7812 12.007 18.6604 12.165 18.5214C12.6383 18.1049 13.2515 17.5467 13.8612 16.9851C14.4702 16.4243 15.0724 15.8631 15.5226 15.4419C15.7476 15.2314 15.9345 15.056 16.0651 14.9333L16.2698 14.7407L16.75 15.25L17.2303 15.7593L17.0239 15.9534C16.8926 16.0768 16.7049 16.2529 16.479 16.4643C16.0273 16.8869 15.4222 17.4507 14.8097 18.0149C14.1979 18.5783 13.5754 19.1451 13.0898 19.5724C12.848 19.7851 12.6341 19.9687 12.4702 20.1011C12.3896 20.1662 12.3112 20.227 12.2429 20.2744C12.21 20.2973 12.1662 20.3263 12.1179 20.3525C12.094 20.3655 12.0567 20.3845 12.0107 20.4018C11.9762 20.4148 11.8785 20.45 11.75 20.45C11.6215 20.45 11.5239 20.4148 11.4893 20.4018C11.4433 20.3845 11.4061 20.3655 11.3821 20.3525C11.3338 20.3263 11.29 20.2973 11.2571 20.2744C11.1888 20.227 11.1104 20.1662 11.0298 20.1011C10.8659 19.9687 10.652 19.7851 10.4102 19.5724C9.92466 19.1451 9.30209 18.5783 8.69035 18.0149C8.07777 17.4507 7.4727 16.8869 7.021 16.4643C6.79508 16.2529 6.60739 16.0768 6.47613 15.9534L6.26984 15.7593L6.75001 15.25ZM6.75001 15.25L7.23029 14.7407C6.94902 14.4755 6.50596 14.4885 6.24073 14.7697C5.9755 15.051 5.98857 15.4941 6.26984 15.7593L6.75001 15.25Z" fill="#222628"/>
</svg>
