<svg width="24" height="24" viewBox="0 0 24 24" fill="none" xmlns="http://www.w3.org/2000/svg">
<path opacity="0.4" d="M12 2C15.7385 2 17.6077 2 19 2.80385C19.9121 3.33046 20.6695 4.08788 21.1962 5C22 6.3923 22 8.26154 22 12C22 15.7385 22 17.6077 21.1962 19C20.6695 19.9121 19.9121 20.6695 19 21.1962C17.6077 22 15.7385 22 12 22C8.26154 22 6.3923 22 5 21.1962C4.08788 20.6695 3.33046 19.9121 2.80385 19C2 17.6077 2 15.7385 2 12C2 8.26154 2 6.3923 2.80385 5C3.33046 4.08788 4.08788 3.33046 5 2.80385C6.39231 2 8.26154 2 12 2Z" fill="#C4C4C4"/>
<path fill-rule="evenodd" clip-rule="evenodd" d="M12 5.29999C12.3866 5.29999 12.7 5.61339 12.7 5.99999L12.7 12C12.7 12.3866 12.3866 12.7 12 12.7C11.6134 12.7 11.3 12.3866 11.3 12L11.3 5.99999C11.3 5.61339 11.6134 5.29999 12 5.29999Z" fill="#222628"/>
<path fill-rule="evenodd" clip-rule="evenodd" d="M13.6495 13.4316C13.2915 13.4012 12.7898 13.4 12 13.4C11.2103 13.4 10.7086 13.4012 10.3506 13.4316C10.2408 13.4409 10.166 13.4519 10.1182 13.4605C10.1422 13.5027 10.1817 13.5672 10.2448 13.6575C10.4507 13.952 10.7709 14.3382 11.2765 14.9448C11.5874 15.3179 11.7672 15.5321 11.9095 15.677C11.9475 15.7157 11.9749 15.741 11.9928 15.7567C11.9976 15.757 12.0025 15.757 12.0073 15.7567C12.0252 15.741 12.0526 15.7157 12.0906 15.677C12.2328 15.5321 12.4127 15.3179 12.7236 14.9448C13.2292 14.3382 13.5494 13.952 13.7553 13.6575C13.8184 13.5672 13.8579 13.5027 13.8818 13.4605C13.8341 13.4519 13.7593 13.4409 13.6495 13.4316ZM12.5625 17.0475C12.9114 16.9063 13.2073 16.5513 13.7991 15.8411C14.7769 14.6678 15.2658 14.0811 15.2949 13.5884C15.3248 13.0818 15.0965 12.5944 14.6882 12.2931C14.291 12 13.5274 12 12 12L12 12C10.4727 12 9.70904 12 9.31191 12.2931C8.90358 12.5944 8.6753 13.0818 8.70521 13.5884C8.7343 14.0811 9.22319 14.6678 10.201 15.8411C10.7928 16.5513 11.0887 16.9063 11.4376 17.0475C11.7984 17.1934 12.2017 17.1934 12.5625 17.0475Z" fill="#222628"/>
<path fill-rule="evenodd" clip-rule="evenodd" d="M22.7 11.9645L22.7 12.0354C22.7 13.8747 22.7 15.3027 22.5967 16.443C22.4918 17.6002 22.2761 18.5295 21.8024 19.35C21.2143 20.3685 20.3685 21.2143 19.35 21.8024C18.5296 22.276 17.6002 22.4918 16.443 22.5966C15.3027 22.7 13.8747 22.7 12.0354 22.7L11.9646 22.7C10.1254 22.7 8.6973 22.7 7.55702 22.5966C6.39981 22.4918 5.47046 22.276 4.65001 21.8024C3.63148 21.2143 2.78569 20.3685 2.19764 19.35C1.72395 18.5295 1.50823 17.6002 1.40335 16.443C1.3 15.3027 1.30001 13.8746 1.30001 12.0354L1.30001 11.9646C1.30001 10.1253 1.3 8.69727 1.40335 7.55699C1.50823 6.39979 1.72395 5.47044 2.19764 4.64999C2.78569 3.63146 3.63148 2.78566 4.65001 2.19762C5.47046 1.72393 6.39981 1.50821 7.55702 1.40333C8.69728 1.29998 10.1253 1.29998 11.9646 1.29999L12.0355 1.29999C13.8747 1.29998 15.3027 1.29998 16.443 1.40333C17.6002 1.50821 18.5296 1.72393 19.35 2.19762C20.3685 2.78567 21.2143 3.63146 21.8024 4.64999C22.2761 5.47044 22.4918 6.39979 22.5967 7.55699C22.7 8.69726 22.7 10.1253 22.7 11.9645ZM21.2024 7.68336C21.1063 6.62326 20.9201 5.92184 20.5899 5.34999C20.1248 4.54429 19.4557 3.87523 18.65 3.41005C18.0782 3.07989 17.3767 2.89369 16.3166 2.79761C15.2469 2.70066 13.8821 2.69999 12 2.69999C10.1179 2.69999 8.75311 2.70066 7.68339 2.79761C6.62328 2.89369 5.92187 3.07989 5.35001 3.41005C4.54431 3.87522 3.87525 4.54428 3.41008 5.34999C3.07992 5.92184 2.89371 6.62326 2.79763 7.68336C2.70068 8.75309 2.70001 10.1179 2.70001 12C2.70001 13.8821 2.70068 15.2469 2.79763 16.3166C2.89371 17.3767 3.07992 18.0781 3.41008 18.65C3.87525 19.4557 4.54431 20.1247 5.35001 20.5899C5.92187 20.9201 6.62328 21.1063 7.68339 21.2024C8.75311 21.2993 10.1179 21.3 12 21.3C13.8821 21.3 15.2469 21.2993 16.3166 21.2024C17.3767 21.1063 18.0782 20.9201 18.65 20.5899C19.4557 20.1247 20.1248 19.4557 20.5899 18.65C20.9201 18.0781 21.1063 17.3767 21.2024 16.3166C21.2993 15.2469 21.3 13.8821 21.3 12C21.3 10.1179 21.2993 8.75309 21.2024 7.68336Z" fill="#222628"/>
</svg>
