<svg width="24" height="24" viewBox="0 0 24 24" fill="none" xmlns="http://www.w3.org/2000/svg">
<path fill-rule="evenodd" clip-rule="evenodd" d="M12.5 2.79999C12.8866 2.79999 13.2 3.11339 13.2 3.49999L13.2 12.5C13.2 12.8866 12.8866 13.2 12.5 13.2C12.1134 13.2 11.8 12.8866 11.8 12.5L11.8 3.49999C11.8 3.11339 12.1134 2.79999 12.5 2.79999Z" fill="#222628"/>
<path opacity="0.4" d="M14.66 17.62C13.7866 18.7845 13.3499 19.3667 12.7766 19.4743C12.5938 19.5086 12.4062 19.5086 12.2234 19.4743C11.65 19.3667 11.2133 18.7845 10.34 17.62L9.73998 16.82C8.49541 15.1606 7.87313 14.3309 8.04377 13.6402C8.09709 13.4244 8.19774 13.2231 8.33842 13.0509C8.78856 12.5 9.8257 12.5 11.9 12.5L13.1 12.5C15.1743 12.5 16.2114 12.5 16.6615 13.0509C16.8022 13.2231 16.9029 13.4244 16.9562 13.6402C17.1268 14.3309 16.5045 15.1606 15.26 16.82L14.66 17.62Z" fill="#C4C4C4"/>
<path fill-rule="evenodd" clip-rule="evenodd" d="M10.86 15.98L11.46 16.78C11.9178 17.3904 12.1884 17.7473 12.408 17.978C12.4452 18.017 12.4757 18.0467 12.5 18.069C12.5243 18.0467 12.5548 18.017 12.5919 17.978C12.8116 17.7473 13.0822 17.3904 13.54 16.78L14.14 15.98C14.7848 15.1202 15.1891 14.5772 15.4268 14.166C15.468 14.0947 15.4989 14.0362 15.5218 13.9891C15.4704 13.9792 15.405 13.9687 15.3233 13.9589C14.8517 13.9024 14.1747 13.9 13.1 13.9L11.9 13.9C10.8252 13.9 10.1482 13.9024 9.67667 13.9589C9.59491 13.9687 9.5296 13.9792 9.47814 13.9891C9.5011 14.0362 9.53191 14.0947 9.57313 14.166C9.81088 14.5772 10.2151 15.1202 10.86 15.98ZM12.7766 19.4743C13.3499 19.3667 13.7866 18.7845 14.66 17.62L15.26 16.82C16.5045 15.1606 17.1268 14.3309 16.9562 13.6402C16.9029 13.4244 16.8022 13.2231 16.6615 13.0509C16.2114 12.5 15.1743 12.5 13.1 12.5L11.9 12.5C9.8257 12.5 8.78856 12.5 8.33842 13.0509C8.19774 13.2231 8.09709 13.4244 8.04377 13.6402C7.87313 14.3309 8.49541 15.1606 9.73998 16.82L10.34 17.62C11.2133 18.7845 11.65 19.3667 12.2234 19.4743C12.4062 19.5086 12.5938 19.5086 12.7766 19.4743Z" fill="#222628"/>
</svg>
