<svg width="24" height="24" viewBox="0 0 24 24" fill="none" xmlns="http://www.w3.org/2000/svg">
<path opacity="0.4" d="M2 12C2 6.47715 6.47715 2 12 2C17.5228 2 22 6.47715 22 12C22 17.5228 17.5228 22 12 22C6.47715 22 2 17.5228 2 12Z" fill="#C4C4C4"/>
<path fill-rule="evenodd" clip-rule="evenodd" d="M1.29999 12C1.29999 6.09054 6.09054 1.29999 12 1.29999C17.9094 1.29999 22.7 6.09054 22.7 12C22.7 17.9094 17.9094 22.7 12 22.7C6.09054 22.7 1.29999 17.9094 1.29999 12ZM12 2.69999C6.86374 2.69999 2.69999 6.86374 2.69999 12C2.69999 17.1362 6.86374 21.3 12 21.3C17.1362 21.3 21.3 17.1362 21.3 12C21.3 6.86374 17.1362 2.69999 12 2.69999Z" fill="#222628"/>
<path fill-rule="evenodd" clip-rule="evenodd" d="M10.4797 8.03172C10.7383 7.74436 11.1809 7.72107 11.4683 7.97969L11 8.49999L10.5317 9.0203C10.2444 8.76168 10.2211 8.31908 10.4797 8.03172ZM11 15.5L10.5317 14.9797L10.5701 14.9451L10.6801 14.8455C10.775 14.7594 10.9108 14.6358 11.0739 14.4863C11.4002 14.1872 11.8344 13.7855 12.2679 13.3737C12.703 12.9604 13.1304 12.5434 13.4462 12.2118C13.5204 12.1339 13.5861 12.0631 13.6429 12C13.5861 11.9369 13.5204 11.8661 13.4462 11.7882C13.1304 11.4566 12.703 11.0396 12.2679 10.6262C11.8344 10.2145 11.4002 9.81281 11.0739 9.51366C10.9108 9.3642 10.775 9.24062 10.6801 9.15449L10.5701 9.0549L10.5317 9.0203L11 8.49999L11.4683 7.97969L11.5085 8.01601L11.6207 8.11757C11.7172 8.20507 11.8548 8.33031 12.0199 8.48164C12.3498 8.78405 12.7906 9.19176 13.2321 9.61124C13.672 10.0291 14.1196 10.4653 14.46 10.8227C14.6288 10.9999 14.7817 11.1687 14.8962 11.3118C14.9524 11.3821 15.0111 11.4607 15.0593 11.5402C15.0834 11.5799 15.1128 11.6329 15.138 11.6946C15.1595 11.7471 15.2 11.8581 15.2 12C15.2 12.1419 15.1595 12.2529 15.138 12.3054C15.1128 12.3671 15.0834 12.4201 15.0593 12.4598C15.0111 12.5393 14.9524 12.6179 14.8962 12.6882C14.7817 12.8313 14.6288 13.0001 14.46 13.1773C14.1196 13.5347 13.672 13.9709 13.2321 14.3887C12.7906 14.8082 12.3498 15.2159 12.0199 15.5183C11.8548 15.6697 11.7172 15.7949 11.6207 15.8824L11.5085 15.984L11.469 16.0196L11 15.5ZM11 15.5L10.5317 14.9797C10.2444 15.2383 10.2211 15.6809 10.4797 15.9683C10.7383 16.2556 11.1809 16.2789 11.4683 16.0203L11 15.5Z" fill="#222628"/>
</svg>
