<svg width="24" height="24" viewBox="0 0 24 24" fill="none" xmlns="http://www.w3.org/2000/svg">
<path fill-rule="evenodd" clip-rule="evenodd" d="M11.75 20.45C11.3634 20.45 11.05 20.1366 11.05 19.75L11.05 4.74995C11.05 4.36335 11.3634 4.04995 11.75 4.04995C12.1366 4.04995 12.45 4.36335 12.45 4.74995L12.45 19.75C12.45 20.1366 12.1366 20.45 11.75 20.45Z" fill="#222628"/>
<path fill-rule="evenodd" clip-rule="evenodd" d="M6.24071 9.23019C5.97548 8.94892 5.98848 8.5059 6.26975 8.24067L6.74999 8.74995L7.23023 9.25923C6.94896 9.52446 6.50594 9.51146 6.24071 9.23019ZM16.75 8.74995L16.2697 9.25919L16.0651 9.06669C15.9345 8.94394 15.7476 8.76853 15.5226 8.558C15.0724 8.13684 14.4702 7.57568 13.8612 7.01485C13.2514 6.45325 12.6383 5.89508 12.1649 5.47859C12.007 5.33956 11.8672 5.2187 11.75 5.1199C11.6327 5.2187 11.493 5.33956 11.335 5.47859C10.8617 5.89508 10.2485 6.45325 9.63875 7.01485C9.02981 7.57568 8.42761 8.13684 7.97742 8.558C7.75238 8.76853 7.56547 8.94395 7.43486 9.06669L7.23023 9.25923L6.74999 8.74995L6.26975 8.24067L6.47611 8.04649C6.60737 7.92314 6.79506 7.747 7.02097 7.53565C7.47268 7.11306 8.07775 6.54922 8.69033 5.98505C9.30206 5.42165 9.92464 4.85482 10.4102 4.42756C10.652 4.2148 10.8659 4.03127 11.0298 3.89882C11.1104 3.83371 11.1888 3.77292 11.2571 3.7255C11.29 3.70265 11.3338 3.67359 11.3821 3.64742C11.406 3.63444 11.4433 3.61544 11.4893 3.59812C11.5238 3.58512 11.6215 3.54995 11.75 3.54995C11.8785 3.54995 11.9761 3.58512 12.0107 3.59812C12.0567 3.61544 12.0939 3.63444 12.1179 3.64742C12.1662 3.67359 12.21 3.70265 12.2429 3.7255C12.3112 3.77292 12.3896 3.83371 12.4702 3.89882C12.6341 4.03127 12.848 4.2148 13.0898 4.42756C13.5753 4.85482 14.1979 5.42165 14.8097 5.98505C15.4222 6.54922 16.0273 7.11306 16.479 7.53565C16.7049 7.74699 16.8926 7.92314 17.0239 8.04649L17.2302 8.2406L16.75 8.74995ZM16.75 8.74995L16.2697 9.25919C16.551 9.52442 16.994 9.51146 17.2593 9.23019C17.5245 8.94892 17.5114 8.50583 17.2302 8.2406L16.75 8.74995Z" fill="#222628"/>
</svg>
