<svg width="24" height="24" viewBox="0 0 24 24" fill="none" xmlns="http://www.w3.org/2000/svg">
<path fill-rule="evenodd" clip-rule="evenodd" d="M14.495 16.995C14.2216 17.2684 13.7784 17.2684 13.505 16.995L13.9385 16.5616C13.505 16.995 13.5051 16.995 13.505 16.995L13.4591 16.9489L13.331 16.8199C13.2208 16.7088 13.0636 16.5496 12.875 16.357C12.4981 15.9723 11.9946 15.4531 11.4903 14.9173C10.9877 14.3832 10.4772 13.8252 10.0896 13.365C9.89705 13.1363 9.72481 12.92 9.59726 12.7367C9.53419 12.646 9.47206 12.5492 9.42291 12.454C9.38924 12.3888 9.30002 12.2132 9.30002 12C9.30002 11.7868 9.38924 11.6113 9.4229 11.546C9.47206 11.4508 9.53419 11.354 9.59726 11.2634C9.72481 11.08 9.89704 10.8637 10.0896 10.6351C10.4772 10.1748 10.9877 9.61678 11.4903 9.08276C11.9946 8.54694 12.4981 8.02774 12.875 7.64298C13.0636 7.45046 13.2208 7.29127 13.331 7.18009L13.4591 7.05111L13.5042 7.00589L13.505 7.00511C13.505 7.00507 13.505 7.00504 14 7.50001L14.495 7.995L14.4511 8.039L14.3253 8.16563C14.2168 8.27516 14.0615 8.43238 13.8751 8.62267C13.502 9.00354 13.0055 9.51558 12.5098 10.0423C12.0124 10.5707 11.5229 11.1065 11.1605 11.5368C11.0056 11.7207 10.8812 11.8768 10.7914 12C10.8812 12.1232 11.0056 12.2793 11.1605 12.4632C11.5229 12.8935 12.0124 13.4293 12.5098 13.9578C13.0055 14.4844 13.502 14.9965 13.8751 15.3774C14.0615 15.5676 14.2168 15.7249 14.3253 15.8344L14.4511 15.961L14.4944 16.0044C14.7678 16.2778 14.7684 16.7216 14.495 16.995ZM10.667 11.8119C10.6598 11.7939 10.6572 11.793 10.667 11.8119C10.6671 11.8121 10.6668 11.8116 10.667 11.8119ZM14.495 7.00504C14.7684 7.27841 14.7683 7.72164 14.495 7.995L14 7.50001L13.505 7.00511C13.7783 6.73175 14.2216 6.73167 14.495 7.00504Z" fill="#222628"/>
</svg>
