<svg width="24" height="24" viewBox="0 0 24 24" fill="none" xmlns="http://www.w3.org/2000/svg">
<path opacity="0.4" d="M22 12C22 15.7385 22 17.6077 21.1962 19C20.6695 19.9121 19.9121 20.6695 19 21.1962C17.6077 22 15.7385 22 12 22C8.26154 22 6.39231 22 5 21.1962C4.08788 20.6695 3.33046 19.9121 2.80385 19C2 17.6077 2 15.7385 2 12C2 8.26154 2 6.39231 2.80385 5C3.33046 4.08789 4.08788 3.33046 5 2.80385C6.3923 2 8.26153 2 12 2C15.7385 2 17.6077 2 19 2.80385C19.9121 3.33046 20.6695 4.08789 21.1962 5C22 6.39231 22 8.26154 22 12Z" fill="#C4C4C4"/>
<path fill-rule="evenodd" clip-rule="evenodd" d="M17.7 12C17.7 12.3866 17.3866 12.7 17 12.7L8.00001 12.7C7.61341 12.7 7.30001 12.3866 7.30001 12C7.30001 11.6134 7.61341 11.3 8.00001 11.3L17 11.3C17.3866 11.3 17.7 11.6134 17.7 12Z" fill="#222628"/>
<path fill-rule="evenodd" clip-rule="evenodd" d="M10.3084 15.4812C10.0427 15.762 9.59961 15.7742 9.31883 15.5084L9.28627 15.4775L9.19614 15.3916C9.11869 15.3176 9.00826 15.2117 8.87583 15.0836C8.61126 14.8277 8.25748 14.4819 7.90283 14.124C7.55 13.7681 7.18863 13.3925 6.91249 13.0794C6.77577 12.9244 6.64911 12.7725 6.55293 12.6394C6.50556 12.5738 6.45491 12.4983 6.41315 12.4196C6.38646 12.3693 6.3 12.2064 6.3 12C6.3 11.7936 6.38623 11.6312 6.41292 11.5809C6.45469 11.5022 6.50556 11.4262 6.55293 11.3606C6.64911 11.2275 6.77577 11.0756 6.91249 10.9206C7.18863 10.6075 7.55 10.232 7.90283 9.87599C8.25748 9.51817 8.61126 9.1723 8.87583 8.9164C9.00826 8.7883 9.11869 8.68241 9.19614 8.60842L9.28627 8.52251L9.31819 8.49221C9.59897 8.22647 10.0427 8.23806 10.3084 8.51884C10.5741 8.79963 10.562 9.24267 10.2812 9.50842L10.2508 9.53721L10.1632 9.62071C10.0876 9.69301 9.97923 9.79688 9.84917 9.92268C9.58873 10.1746 9.24251 10.5131 8.89717 10.8615C8.55 11.2118 8.21136 11.5644 7.9625 11.8466C7.91328 11.9024 7.86922 11.9536 7.8304 12C7.86922 12.0464 7.91328 12.0976 7.96251 12.1534C8.21136 12.4356 8.55 12.7882 8.89717 13.1385C9.24251 13.4869 9.58873 13.8254 9.84917 14.0773C9.97923 14.2031 10.0876 14.307 10.1632 14.3793L10.2508 14.4628L10.2808 14.4912C10.2808 14.4912 10.2808 14.4912 10.2808 14.4912M10.3084 15.4812C10.5741 15.2004 10.5616 14.757 10.2808 14.4912L10.3084 15.4812Z" fill="#222628"/>
<path fill-rule="evenodd" clip-rule="evenodd" d="M12.0355 22.7L11.9646 22.7C10.1253 22.7 8.69728 22.7 7.55702 22.5967C6.39981 22.4918 5.47046 22.2761 4.65001 21.8024C3.63148 21.2143 2.78569 20.3685 2.19764 19.35C1.72395 18.5296 1.50823 17.6002 1.40335 16.443C1.3 15.3027 1.30001 13.8747 1.30001 12.0354L1.30001 11.9646C1.30001 10.1254 1.3 8.6973 1.40335 7.55702C1.50823 6.39981 1.72395 5.47046 2.19764 4.65001C2.78569 3.63148 3.63148 2.78569 4.65001 2.19764C5.47046 1.72396 6.39981 1.50823 7.55702 1.40335C8.69729 1.3 10.1254 1.30001 11.9646 1.30001L12.0354 1.30001C13.8747 1.30001 15.3027 1.3 16.443 1.40335C17.6002 1.50823 18.5296 1.72396 19.35 2.19764C20.3685 2.78569 21.2143 3.63148 21.8024 4.65001C22.2761 5.47046 22.4918 6.39981 22.5967 7.55702C22.7 8.69728 22.7 10.1253 22.7 11.9646L22.7 12.0355C22.7 13.8747 22.7 15.3027 22.5967 16.443C22.4918 17.6002 22.2761 18.5296 21.8024 19.35C21.2143 20.3685 20.3685 21.2143 19.35 21.8024C18.5296 22.2761 17.6002 22.4918 16.443 22.5967C15.3027 22.7 13.8747 22.7 12.0355 22.7ZM16.3166 21.2024C17.3767 21.1063 18.0782 20.9201 18.65 20.5899C19.4557 20.1248 20.1248 19.4557 20.5899 18.65C20.9201 18.0782 21.1063 17.3767 21.2024 16.3166C21.2993 15.2469 21.3 13.8821 21.3 12C21.3 10.1179 21.2993 8.75311 21.2024 7.68339C21.1063 6.62328 20.9201 5.92187 20.5899 5.35001C20.1248 4.54431 19.4557 3.87525 18.65 3.41008C18.0782 3.07992 17.3767 2.89372 16.3166 2.79763C15.2469 2.70068 13.8821 2.70001 12 2.70001C10.1179 2.70001 8.75311 2.70068 7.68339 2.79764C6.62328 2.89372 5.92187 3.07992 5.35001 3.41008C4.54431 3.87525 3.87525 4.54431 3.41007 5.35001C3.07991 5.92187 2.89371 6.62329 2.79763 7.68339C2.70068 8.75312 2.70001 10.1179 2.70001 12C2.70001 13.8821 2.70068 15.2469 2.79763 16.3166C2.89371 17.3767 3.07992 18.0782 3.41008 18.65C3.87525 19.4557 4.54431 20.1248 5.35001 20.5899C5.92187 20.9201 6.62328 21.1063 7.68339 21.2024C8.75311 21.2993 10.1179 21.3 12 21.3C13.8821 21.3 15.2469 21.2993 16.3166 21.2024Z" fill="#222628"/>
</svg>
