<svg width="24" height="24" viewBox="0 0 24 24" fill="none" xmlns="http://www.w3.org/2000/svg">
<path opacity="0.4" d="M12 2C17.5228 2 22 6.47715 22 12C22 17.5228 17.5228 22 12 22C6.47715 22 2 17.5228 2 12C2 6.47715 6.47715 2 12 2Z" fill="#C4C4C4"/>
<path fill-rule="evenodd" clip-rule="evenodd" d="M12 1.29999C17.9095 1.29999 22.7 6.09054 22.7 12C22.7 17.9094 17.9095 22.7 12 22.7C6.09056 22.7 1.30001 17.9094 1.30001 12C1.30001 6.09054 6.09056 1.29999 12 1.29999ZM21.3 12C21.3 6.86374 17.1363 2.69999 12 2.69999C6.86376 2.69999 2.70001 6.86374 2.70001 12C2.70001 17.1362 6.86376 21.3 12 21.3C17.1363 21.3 21.3 17.1362 21.3 12Z" fill="#222628"/>
<path fill-rule="evenodd" clip-rule="evenodd" d="M15.9683 10.4797C16.2556 10.7383 16.2789 11.1809 16.0203 11.4683L15.5 11L14.9797 10.5317C15.2383 10.2444 15.6809 10.2211 15.9683 10.4797ZM8.50001 11L9.02032 10.5317L9.05491 10.5701L9.1545 10.6801C9.24063 10.775 9.36422 10.9108 9.51367 11.0739C9.81282 11.4002 10.2145 11.8344 10.6263 12.2679C11.0396 12.703 11.4566 13.1304 11.7882 13.4462C11.8661 13.5204 11.9369 13.5861 12 13.6429C12.0631 13.5861 12.1339 13.5204 12.2118 13.4462C12.5434 13.1304 12.9604 12.703 13.3738 12.2679C13.7855 11.8344 14.1872 11.4002 14.4863 11.0739C14.6358 10.9108 14.7594 10.775 14.8455 10.6801L14.9451 10.5701L14.9797 10.5317L15.5 11L16.0203 11.4683L15.984 11.5085L15.8824 11.6207C15.7949 11.7172 15.6697 11.8548 15.5184 12.0199C15.2159 12.3498 14.8082 12.7906 14.3888 13.2321C13.9709 13.672 13.5347 14.1196 13.1773 14.46C13.0001 14.6288 12.8313 14.7817 12.6882 14.8962C12.6179 14.9524 12.5393 15.0111 12.4598 15.0593C12.4201 15.0834 12.3671 15.1128 12.3054 15.138C12.2529 15.1595 12.1419 15.2 12 15.2C11.8581 15.2 11.7471 15.1595 11.6946 15.138C11.6329 15.1128 11.5799 15.0834 11.5402 15.0593C11.4607 15.0111 11.3821 14.9524 11.3118 14.8962C11.1687 14.7817 10.9999 14.6288 10.8227 14.46C10.4653 14.1196 10.0291 13.672 9.61126 13.2321C9.19177 12.7906 8.78406 12.3498 8.48165 12.0199C8.33033 11.8548 8.20509 11.7172 8.11758 11.6207L8.01602 11.5085L7.98038 11.469L8.50001 11ZM8.50001 11L9.02032 10.5317C8.7617 10.2444 8.31909 10.2211 8.03173 10.4797C7.74437 10.7383 7.72108 11.1809 7.9797 11.4683L8.50001 11Z" fill="#222628"/>
</svg>
