<svg width="24" height="24" viewBox="0 0 24 24" fill="none" xmlns="http://www.w3.org/2000/svg">
<path fill-rule="evenodd" clip-rule="evenodd" d="M21.7 12C21.7 12.3866 21.3866 12.7 21 12.7L12 12.7C11.6134 12.7 11.3 12.3865 11.3 12C11.3 11.6134 11.6134 11.3 12 11.3L21 11.3C21.3866 11.3 21.7 11.6134 21.7 12Z" fill="#222628"/>
<path opacity="0.4" d="M6.88 14.16C5.71553 13.2866 5.1333 12.8499 5.02572 12.2766C4.99143 12.0938 4.99143 11.9062 5.02572 11.7234C5.1333 11.15 5.71553 10.7133 6.88 9.83998L7.68 9.23998C9.33942 7.99541 10.1691 7.37313 10.8598 7.54377C11.0756 7.5971 11.2769 7.69774 11.4491 7.83842C12 8.28856 12 9.3257 12 11.4L12 12.6C12 14.6743 12 15.7114 11.4491 16.1615C11.2769 16.3022 11.0756 16.4029 10.8598 16.4562C10.1691 16.6268 9.33942 16.0045 7.68 14.76L6.88 14.16Z" fill="#C4C4C4"/>
<path fill-rule="evenodd" clip-rule="evenodd" d="M8.52 10.36L7.72 10.96C7.10961 11.4178 6.75265 11.6884 6.52195 11.908C6.48298 11.9452 6.45331 11.9757 6.43099 12C6.45331 12.0243 6.48298 12.0548 6.52195 12.0919C6.75265 12.3116 7.10961 12.5822 7.72 13.04L8.52 13.64C9.37982 14.2848 9.92284 14.6891 10.334 14.9268C10.4053 14.968 10.4638 14.9989 10.5109 15.0218C10.5208 14.9704 10.5313 14.905 10.5411 14.8233C10.5976 14.3517 10.6 13.6747 10.6 12.6L10.6 11.4C10.6 10.3252 10.5976 9.64825 10.5411 9.17667C10.5313 9.09491 10.5208 9.0296 10.5109 8.97814C10.4638 9.0011 10.4053 9.03191 10.334 9.07313C9.92284 9.31089 9.37982 9.71512 8.52 10.36ZM5.02572 12.2766C5.1333 12.8499 5.71553 13.2866 6.88 14.16L7.68 14.76C9.33942 16.0045 10.1691 16.6268 10.8598 16.4562C11.0756 16.4029 11.2769 16.3022 11.4491 16.1615C12 15.7114 12 14.6743 12 12.6L12 11.4C12 9.3257 12 8.28856 11.4491 7.83842C11.2769 7.69774 11.0756 7.5971 10.8598 7.54377C10.1691 7.37313 9.33942 7.99541 7.68 9.23998L6.88 9.83998C5.71553 10.7133 5.1333 11.15 5.02572 11.7234C4.99143 11.9062 4.99143 12.0938 5.02572 12.2766Z" fill="#222628"/>
</svg>
