<svg width="24" height="24" viewBox="0 0 24 24" fill="none" xmlns="http://www.w3.org/2000/svg">
<path opacity="0.4" d="M2 12C2 8.26154 2 6.3923 2.80385 5C3.33046 4.08788 4.08788 3.33046 5 2.80385C6.3923 2 8.26154 2 12 2C15.7385 2 17.6077 2 19 2.80385C19.9121 3.33046 20.6695 4.08788 21.1962 5C22 6.3923 22 8.26154 22 12C22 15.7385 22 17.6077 21.1962 19C20.6695 19.9121 19.9121 20.6695 19 21.1962C17.6077 22 15.7385 22 12 22C8.26154 22 6.3923 22 5 21.1962C4.08788 20.6695 3.33046 19.9121 2.80385 19C2 17.6077 2 15.7385 2 12Z" fill="#C4C4C4"/>
<path fill-rule="evenodd" clip-rule="evenodd" d="M6.29999 12C6.29999 11.6134 6.61339 11.3 6.99999 11.3L16 11.3C16.3866 11.3 16.7 11.6134 16.7 12C16.7 12.3866 16.3866 12.7 16 12.7L6.99999 12.7C6.61339 12.7 6.29999 12.3866 6.29999 12Z" fill="#222628"/>
<path fill-rule="evenodd" clip-rule="evenodd" d="M13.6916 8.51882C13.9573 8.23804 14.4004 8.22584 14.6812 8.49158L14.7137 8.52249L14.8039 8.6084C14.8813 8.68239 14.9917 8.78828 15.1242 8.91638C15.3887 9.17228 15.7425 9.51815 16.0972 9.87597C16.45 10.2319 16.8114 10.6075 17.0875 10.9206C17.2242 11.0756 17.3509 11.2275 17.4471 11.3606C17.4944 11.4262 17.5451 11.5017 17.5869 11.5804C17.6135 11.6307 17.7 11.7936 17.7 12C17.7 12.2064 17.6138 12.3688 17.5871 12.4191C17.5453 12.4978 17.4944 12.5738 17.4471 12.6394C17.3509 12.7725 17.2242 12.9244 17.0875 13.0794C16.8114 13.3925 16.45 13.768 16.0972 14.124C15.7425 14.4818 15.3887 14.8277 15.1242 15.0836C14.9917 15.2117 14.8813 15.3176 14.8039 15.3916L14.7137 15.4775L14.6818 15.5078C14.401 15.7735 13.9573 15.7619 13.6916 15.4812C13.4259 15.2004 13.438 14.7573 13.7188 14.4916L13.7492 14.4628L13.8368 14.3793C13.9124 14.307 14.0208 14.2031 14.1508 14.0773C14.4113 13.8254 14.7575 13.4869 15.1028 13.1385C15.45 12.7882 15.7886 12.4356 16.0375 12.1534C16.0867 12.0976 16.1308 12.0464 16.1696 12C16.1308 11.9536 16.0867 11.9024 16.0375 11.8466C15.7886 11.5644 15.45 11.2118 15.1028 10.8615C14.7575 10.5131 14.4113 10.1746 14.1508 9.92266C14.0208 9.79686 13.9124 9.69298 13.8368 9.62068L13.7492 9.53718L13.7192 9.50875C13.7192 9.50875 13.7192 9.50875 13.7192 9.50875M13.6916 8.51882C13.4259 8.7996 13.4384 9.24301 13.7192 9.50875L13.6916 8.51882Z" fill="#222628"/>
<path fill-rule="evenodd" clip-rule="evenodd" d="M11.9645 1.29999H12.0354C13.8747 1.29998 15.3027 1.29998 16.443 1.40333C17.6002 1.50821 18.5295 1.72393 19.35 2.19762C20.3685 2.78567 21.2143 3.63146 21.8024 4.64999C22.276 5.47044 22.4918 6.39979 22.5966 7.55699C22.7 8.69727 22.7 10.1253 22.7 11.9646V12.0354C22.7 13.8746 22.7 15.3027 22.5966 16.443C22.4918 17.6002 22.276 18.5295 21.8024 19.35C21.2143 20.3685 20.3685 21.2143 19.35 21.8024C18.5295 22.276 17.6002 22.4918 16.443 22.5966C15.3027 22.7 13.8746 22.7 12.0354 22.7H11.9646C10.1253 22.7 8.69727 22.7 7.55699 22.5966C6.39979 22.4918 5.47044 22.276 4.64999 21.8024C3.63146 21.2143 2.78567 20.3685 2.19762 19.35C1.72393 18.5295 1.50821 17.6002 1.40333 16.443C1.29998 15.3027 1.29998 13.8747 1.29999 12.0354V11.9645C1.29998 10.1253 1.29998 8.69726 1.40333 7.55699C1.50821 6.39979 1.72393 5.47044 2.19762 4.64999C2.78567 3.63146 3.63146 2.78567 4.64999 2.19762C5.47044 1.72393 6.39979 1.50821 7.55699 1.40333C8.69726 1.29998 10.1253 1.29998 11.9645 1.29999ZM7.68336 2.79761C6.62326 2.89369 5.92184 3.07989 5.34999 3.41005C4.54429 3.87523 3.87523 4.54429 3.41005 5.34999C3.07989 5.92184 2.89369 6.62326 2.79761 7.68336C2.70066 8.75309 2.69999 10.1179 2.69999 12C2.69999 13.8821 2.70066 15.2469 2.79761 16.3166C2.89369 17.3767 3.07989 18.0781 3.41005 18.65C3.87523 19.4557 4.54429 20.1248 5.34999 20.5899C5.92184 20.9201 6.62326 21.1063 7.68336 21.2024C8.75309 21.2993 10.1179 21.3 12 21.3C13.8821 21.3 15.2469 21.2993 16.3166 21.2024C17.3767 21.1063 18.0781 20.9201 18.65 20.5899C19.4557 20.1248 20.1248 19.4557 20.5899 18.65C20.9201 18.0781 21.1063 17.3767 21.2024 16.3166C21.2993 15.2469 21.3 13.8821 21.3 12C21.3 10.1179 21.2993 8.75309 21.2024 7.68336C21.1063 6.62326 20.9201 5.92184 20.5899 5.34999C20.1248 4.54429 19.4557 3.87523 18.65 3.41005C18.0781 3.07989 17.3767 2.89369 16.3166 2.79761C15.2469 2.70066 13.8821 2.69999 12 2.69999C10.1179 2.69999 8.75309 2.70066 7.68336 2.79761Z" fill="#222628"/>
</svg>
