<svg width="24" height="24" viewBox="0 0 24 24" fill="none" xmlns="http://www.w3.org/2000/svg">
<path opacity="0.4" d="M22 12C22 15.7385 22 17.6077 21.1962 19C20.6695 19.9121 19.9121 20.6695 19 21.1962C17.6077 22 15.7385 22 12 22C8.26154 22 6.39231 22 5 21.1962C4.08788 20.6695 3.33046 19.9121 2.80385 19C2 17.6077 2 15.7385 2 12C2 8.26154 2 6.39231 2.80385 5C3.33046 4.08789 4.08788 3.33046 5 2.80385C6.3923 2 8.26153 2 12 2C15.7385 2 17.6077 2 19 2.80385C19.9121 3.33046 20.6695 4.08789 21.1962 5C22 6.39231 22 8.26154 22 12Z" fill="#C4C4C4"/>
<path fill-rule="evenodd" clip-rule="evenodd" d="M18.7 12C18.7 12.3866 18.3866 12.7 18 12.7L12 12.7C11.6134 12.7 11.3 12.3866 11.3 12C11.3 11.6134 11.6134 11.3 12 11.3L18 11.3C18.3866 11.3 18.7 11.6134 18.7 12Z" fill="#222628"/>
<path fill-rule="evenodd" clip-rule="evenodd" d="M10.5684 13.6495C10.5988 13.2915 10.6 12.7898 10.6 12C10.6 11.2103 10.5988 10.7086 10.5684 10.3506C10.5591 10.2408 10.5481 10.166 10.5395 10.1182C10.4973 10.1422 10.4328 10.1817 10.3425 10.2448C10.048 10.4507 9.66184 10.7709 9.05516 11.2765C8.68209 11.5874 8.46793 11.7672 8.32298 11.9095C8.28432 11.9475 8.25901 11.9749 8.24334 11.9928C8.24299 11.9976 8.24299 12.0025 8.24334 12.0073C8.25901 12.0252 8.28432 12.0526 8.32298 12.0906C8.46793 12.2328 8.68209 12.4127 9.05516 12.7236C9.66184 13.2292 10.048 13.5494 10.3425 13.7553C10.4328 13.8184 10.4973 13.8579 10.5395 13.8818C10.5481 13.8341 10.5591 13.7593 10.5684 13.6495ZM6.95253 12.5625C7.09366 12.9114 7.44874 13.2073 8.1589 13.7991C9.33223 14.7769 9.91889 15.2658 10.4116 15.2949C10.9182 15.3248 11.4056 15.0965 11.7069 14.6882C12 14.291 12 13.5274 12 12L12 12C12 10.4727 12 9.70904 11.7069 9.31191C11.4056 8.90357 10.9182 8.6753 10.4116 8.70521C9.91889 8.7343 9.33223 9.22319 8.1589 10.201C7.44874 10.7928 7.09366 11.0887 6.95253 11.4376C6.8066 11.7984 6.8066 12.2017 6.95253 12.5625Z" fill="#222628"/>
<path fill-rule="evenodd" clip-rule="evenodd" d="M12.0355 22.7L11.9646 22.7C10.1253 22.7 8.69728 22.7 7.55702 22.5967C6.39981 22.4918 5.47046 22.2761 4.65001 21.8024C3.63148 21.2143 2.78569 20.3685 2.19764 19.35C1.72395 18.5296 1.50823 17.6002 1.40335 16.443C1.3 15.3027 1.30001 13.8747 1.30001 12.0354L1.30001 11.9646C1.30001 10.1254 1.3 8.6973 1.40335 7.55702C1.50823 6.39981 1.72395 5.47046 2.19764 4.65001C2.78569 3.63148 3.63148 2.78569 4.65001 2.19764C5.47046 1.72396 6.39981 1.50823 7.55702 1.40335C8.69729 1.3 10.1254 1.30001 11.9646 1.30001L12.0354 1.30001C13.8747 1.30001 15.3027 1.3 16.443 1.40335C17.6002 1.50823 18.5296 1.72396 19.35 2.19764C20.3685 2.78569 21.2143 3.63148 21.8024 4.65001C22.2761 5.47046 22.4918 6.39981 22.5967 7.55702C22.7 8.69728 22.7 10.1253 22.7 11.9646L22.7 12.0355C22.7 13.8747 22.7 15.3027 22.5967 16.443C22.4918 17.6002 22.2761 18.5296 21.8024 19.35C21.2143 20.3685 20.3685 21.2143 19.35 21.8024C18.5296 22.2761 17.6002 22.4918 16.443 22.5967C15.3027 22.7 13.8747 22.7 12.0355 22.7ZM16.3166 21.2024C17.3767 21.1063 18.0782 20.9201 18.65 20.5899C19.4557 20.1248 20.1248 19.4557 20.5899 18.65C20.9201 18.0782 21.1063 17.3767 21.2024 16.3166C21.2993 15.2469 21.3 13.8821 21.3 12C21.3 10.1179 21.2993 8.75311 21.2024 7.68339C21.1063 6.62328 20.9201 5.92187 20.5899 5.35001C20.1248 4.54431 19.4557 3.87525 18.65 3.41008C18.0782 3.07992 17.3767 2.89372 16.3166 2.79763C15.2469 2.70068 13.8821 2.70001 12 2.70001C10.1179 2.70001 8.75311 2.70068 7.68339 2.79764C6.62328 2.89372 5.92187 3.07992 5.35001 3.41008C4.54431 3.87525 3.87525 4.54431 3.41007 5.35001C3.07991 5.92187 2.89371 6.62329 2.79763 7.68339C2.70068 8.75312 2.70001 10.1179 2.70001 12C2.70001 13.8821 2.70068 15.2469 2.79763 16.3166C2.89371 17.3767 3.07992 18.0782 3.41008 18.65C3.87525 19.4557 4.54431 20.1248 5.35001 20.5899C5.92187 20.9201 6.62328 21.1063 7.68339 21.2024C8.75311 21.2993 10.1179 21.3 12 21.3C13.8821 21.3 15.2469 21.2993 16.3166 21.2024Z" fill="#222628"/>
</svg>
