<svg width="24" height="24" viewBox="0 0 24 24" fill="none" xmlns="http://www.w3.org/2000/svg">
<path opacity="0.4" d="M22 12C22 15.7385 22 17.6077 21.1962 19C20.6695 19.9121 19.9121 20.6695 19 21.1962C17.6077 22 15.7385 22 12 22C8.26154 22 6.39231 22 5 21.1962C4.08788 20.6695 3.33046 19.9121 2.80385 19C2 17.6077 2 15.7385 2 12C2 8.26154 2 6.39231 2.80385 5C3.33046 4.08789 4.08788 3.33046 5 2.80385C6.3923 2 8.26153 2 12 2C15.7385 2 17.6077 2 19 2.80385C19.9121 3.33046 20.6695 4.08789 21.1962 5C22 6.39231 22 8.26154 22 12Z" fill="#C4C4C4"/>
<path fill-rule="evenodd" clip-rule="evenodd" d="M12.0355 22.7L11.9646 22.7C10.1253 22.7 8.69728 22.7 7.55702 22.5967C6.39981 22.4918 5.47046 22.2761 4.65001 21.8024C3.63148 21.2143 2.78569 20.3685 2.19764 19.35C1.72395 18.5296 1.50823 17.6002 1.40335 16.443C1.3 15.3027 1.30001 13.8747 1.30001 12.0354L1.30001 11.9646C1.30001 10.1254 1.3 8.6973 1.40335 7.55702C1.50823 6.39981 1.72395 5.47046 2.19764 4.65001C2.78569 3.63148 3.63148 2.78569 4.65001 2.19764C5.47046 1.72396 6.39981 1.50823 7.55702 1.40335C8.69729 1.3 10.1254 1.30001 11.9646 1.30001L12.0354 1.30001C13.8747 1.30001 15.3027 1.3 16.443 1.40335C17.6002 1.50823 18.5296 1.72396 19.35 2.19764C20.3685 2.78569 21.2143 3.63148 21.8024 4.65001C22.2761 5.47046 22.4918 6.39981 22.5967 7.55702C22.7 8.69728 22.7 10.1253 22.7 11.9646L22.7 12.0355C22.7 13.8747 22.7 15.3027 22.5967 16.443C22.4918 17.6002 22.2761 18.5296 21.8024 19.35C21.2143 20.3685 20.3685 21.2143 19.35 21.8024C18.5296 22.2761 17.6002 22.4918 16.443 22.5967C15.3027 22.7 13.8747 22.7 12.0355 22.7ZM16.3166 21.2024C17.3767 21.1063 18.0782 20.9201 18.65 20.5899C19.4557 20.1248 20.1248 19.4557 20.5899 18.65C20.9201 18.0782 21.1063 17.3767 21.2024 16.3166C21.2993 15.2469 21.3 13.8821 21.3 12C21.3 10.1179 21.2993 8.75311 21.2024 7.68339C21.1063 6.62328 20.9201 5.92187 20.5899 5.35001C20.1248 4.54431 19.4557 3.87525 18.65 3.41008C18.0782 3.07992 17.3767 2.89372 16.3166 2.79763C15.2469 2.70068 13.8821 2.70001 12 2.70001C10.1179 2.70001 8.75311 2.70068 7.68339 2.79764C6.62328 2.89372 5.92187 3.07992 5.35001 3.41008C4.54431 3.87525 3.87525 4.54431 3.41007 5.35001C3.07991 5.92187 2.89371 6.62329 2.79763 7.68339C2.70068 8.75312 2.70001 10.1179 2.70001 12C2.70001 13.8821 2.70068 15.2469 2.79763 16.3166C2.89371 17.3767 3.07992 18.0782 3.41008 18.65C3.87525 19.4557 4.54431 20.1248 5.35001 20.5899C5.92187 20.9201 6.62328 21.1063 7.68339 21.2024C8.75311 21.2993 10.1179 21.3 12 21.3C13.8821 21.3 15.2469 21.2993 16.3166 21.2024Z" fill="#222628"/>
<path fill-rule="evenodd" clip-rule="evenodd" d="M13.5203 15.9683C13.2617 16.2556 12.8191 16.2789 12.5317 16.0203L13 15.5L13.4683 14.9797C13.7556 15.2383 13.7789 15.6809 13.5203 15.9683ZM13 8.50001L13.4683 9.02032L13.4299 9.05491L13.3199 9.1545C13.225 9.24063 13.0892 9.36422 12.9261 9.51367C12.5998 9.81282 12.1656 10.2145 11.7321 10.6263C11.297 11.0396 10.8696 11.4566 10.5538 11.7882C10.4796 11.8661 10.4139 11.9369 10.3571 12C10.4139 12.0631 10.4796 12.1339 10.5538 12.2118C10.8696 12.5434 11.297 12.9604 11.7321 13.3738C12.1656 13.7855 12.5998 14.1872 12.9261 14.4863C13.0892 14.6358 13.225 14.7594 13.3199 14.8455L13.4299 14.9451L13.4683 14.9797L13 15.5L12.5317 16.0203L12.4915 15.984L12.3793 15.8824C12.2828 15.7949 12.1452 15.6697 11.9801 15.5184C11.6502 15.216 11.2094 14.8082 10.7679 14.3888C10.328 13.9709 9.88039 13.5347 9.53998 13.1773C9.37122 13.0001 9.21829 12.8313 9.10379 12.6882C9.04759 12.6179 8.98887 12.5393 8.94067 12.4598C8.91661 12.4201 8.88717 12.3672 8.86195 12.3054C8.84055 12.2529 8.80001 12.1419 8.80001 12C8.80001 11.8581 8.84055 11.7471 8.86195 11.6946C8.88717 11.6329 8.91661 11.5799 8.94067 11.5402C8.98887 11.4607 9.04759 11.3821 9.10379 11.3118C9.21829 11.1687 9.37122 10.9999 9.53998 10.8227C9.88039 10.4653 10.328 10.0291 10.7679 9.61126C11.2094 9.19177 11.6502 8.78406 11.9801 8.48165C12.1452 8.33033 12.2828 8.20509 12.3793 8.11758L12.4915 8.01602L12.531 7.98038L13 8.50001ZM13 8.50001L13.4683 9.02032C13.7556 8.7617 13.7789 8.31909 13.5203 8.03173C13.2617 7.74437 12.8191 7.72108 12.5317 7.9797L13 8.50001Z" fill="#222628"/>
</svg>
