<svg width="24" height="24" viewBox="0 0 24 24" fill="none" xmlns="http://www.w3.org/2000/svg">
<path opacity="0.4" d="M7.88 14.16C6.71553 13.2867 6.1333 12.85 6.02572 12.2766C5.99143 12.0938 5.99143 11.9062 6.02572 11.7234C6.1333 11.1501 6.71553 10.7134 7.88 9.84004L8.68 9.24004C10.3394 7.99547 11.1691 7.37319 11.8598 7.54383C12.0756 7.59716 12.2769 7.6978 12.4491 7.83848C13 8.28862 13 9.32576 13 11.4L13 12.6C13 14.6743 13 15.7115 12.4491 16.1616C12.2769 16.3023 12.0756 16.4029 11.8598 16.4563C11.1691 16.6269 10.3394 16.0046 8.68 14.76L7.88 14.16Z" fill="#C4C4C4"/>
<path opacity="0.4" d="M13.88 14.16C12.7155 13.2867 12.1333 12.85 12.0257 12.2766C11.9914 12.0938 11.9914 11.9062 12.0257 11.7234C12.1333 11.1501 12.7155 10.7134 13.88 9.84004L14.68 9.24004C16.3394 7.99547 17.1691 7.37319 17.8598 7.54383C18.0756 7.59716 18.2769 7.6978 18.4491 7.83848C19 8.28862 19 9.32576 19 11.4L19 12.6C19 14.6743 19 15.7115 18.4491 16.1616C18.2769 16.3023 18.0756 16.4029 17.8598 16.4563C17.1691 16.6269 16.3394 16.0046 14.68 14.76L13.88 14.16Z" fill="#C4C4C4"/>
<path fill-rule="evenodd" clip-rule="evenodd" d="M9.52 10.36L8.72 10.96C8.10961 11.4178 7.75265 11.6884 7.52195 11.9081C7.48298 11.9452 7.45331 11.9757 7.43099 12C7.45331 12.0243 7.48298 12.0549 7.52195 12.092C7.75265 12.3116 8.10961 12.5822 8.72 13.04L9.52 13.64C10.3798 14.2849 10.9228 14.6891 11.334 14.9269C11.4053 14.9681 11.4638 14.9989 11.5109 15.0219C11.5208 14.9704 11.5313 14.9051 11.5411 14.8233C11.5976 14.3518 11.6 13.6748 11.6 12.6L11.6 11.4C11.6 10.3253 11.5976 9.64831 11.5411 9.17673C11.5313 9.09497 11.5208 9.02966 11.5109 8.9782C11.4638 9.00116 11.4053 9.03197 11.334 9.07319C10.9228 9.31095 10.3798 9.71518 9.52 10.36ZM6.02572 12.2766C6.1333 12.85 6.71553 13.2867 7.88 14.16L8.68 14.76C10.3394 16.0046 11.1691 16.6269 11.8598 16.4563C12.0756 16.4029 12.2769 16.3023 12.4491 16.1616C13 15.7115 13 14.6743 13 12.6L13 11.4C13 9.32576 13 8.28862 12.4491 7.83848C12.2769 7.6978 12.0756 7.59716 11.8598 7.54383C11.1691 7.37319 10.3394 7.99547 8.68 9.24004L7.88 9.84004C6.71553 10.7134 6.1333 11.1501 6.02572 11.7234C5.99143 11.9062 5.99143 12.0938 6.02572 12.2766Z" fill="#222628"/>
<path fill-rule="evenodd" clip-rule="evenodd" d="M15.52 10.36L14.72 10.96C14.1096 11.4178 13.7527 11.6884 13.522 11.9081C13.483 11.9452 13.4533 11.9757 13.431 12C13.4533 12.0243 13.483 12.0549 13.522 12.092C13.7527 12.3116 14.1096 12.5822 14.72 13.04L15.52 13.64C16.3798 14.2849 16.9228 14.6891 17.334 14.9269C17.4053 14.9681 17.4638 14.9989 17.5109 15.0219C17.5208 14.9704 17.5313 14.9051 17.5411 14.8233C17.5976 14.3518 17.6 13.6748 17.6 12.6L17.6 11.4C17.6 10.3253 17.5976 9.64831 17.5411 9.17673C17.5313 9.09497 17.5208 9.02966 17.5109 8.9782C17.4638 9.00116 17.4053 9.03197 17.334 9.07319C16.9228 9.31095 16.3798 9.71518 15.52 10.36ZM12.0257 12.2766C12.1333 12.85 12.7155 13.2867 13.88 14.16L14.68 14.76C16.3394 16.0046 17.1691 16.6269 17.8598 16.4563C18.0756 16.4029 18.2769 16.3023 18.4491 16.1616C19 15.7115 19 14.6743 19 12.6L19 11.4C19 9.32576 19 8.28862 18.4491 7.83848C18.2769 7.6978 18.0756 7.59716 17.8598 7.54383C17.1691 7.37319 16.3394 7.99547 14.68 9.24004L13.88 9.84004C12.7155 10.7134 12.1333 11.1501 12.0257 11.7234C11.9914 11.9062 11.9914 12.0938 12.0257 12.2766Z" fill="#222628"/>
</svg>
