<svg width="24" height="24" viewBox="0 0 24 24" fill="none" xmlns="http://www.w3.org/2000/svg">
<path opacity="0.4" d="M10.88 14.16C9.71553 13.2867 9.1333 12.85 9.02572 12.2766C8.99143 12.0938 8.99143 11.9062 9.02572 11.7234C9.1333 11.1501 9.71553 10.7134 10.88 9.84004L11.68 9.24004C13.3394 7.99547 14.1691 7.37319 14.8598 7.54383C15.0756 7.59716 15.2769 7.6978 15.4491 7.83848C16 8.28862 16 9.32576 16 11.4L16 12.6C16 14.6743 16 15.7115 15.4491 16.1616C15.2769 16.3023 15.0756 16.4029 14.8598 16.4563C14.1691 16.6269 13.3394 16.0046 11.68 14.76L10.88 14.16Z" fill="#C4C4C4"/>
<path fill-rule="evenodd" clip-rule="evenodd" d="M12.52 10.36L11.72 10.96C11.1096 11.4178 10.7527 11.6884 10.522 11.9081C10.483 11.9452 10.4533 11.9757 10.431 12C10.4533 12.0243 10.483 12.0549 10.522 12.092C10.7527 12.3116 11.1096 12.5822 11.72 13.04L12.52 13.64C13.3798 14.2849 13.9228 14.6891 14.334 14.9269C14.4053 14.9681 14.4638 14.9989 14.5109 15.0219C14.5208 14.9704 14.5313 14.9051 14.5411 14.8233C14.5976 14.3518 14.6 13.6748 14.6 12.6L14.6 11.4C14.6 10.3253 14.5976 9.64831 14.5411 9.17673C14.5313 9.09497 14.5208 9.02966 14.5109 8.9782C14.4638 9.00116 14.4053 9.03197 14.334 9.07319C13.9228 9.31095 13.3798 9.71518 12.52 10.36ZM9.02572 12.2766C9.1333 12.85 9.71553 13.2867 10.88 14.16L11.68 14.76C13.3394 16.0046 14.1691 16.6269 14.8598 16.4563C15.0756 16.4029 15.2769 16.3023 15.4491 16.1616C16 15.7115 16 14.6743 16 12.6L16 11.4C16 9.32576 16 8.28862 15.4491 7.83848C15.2769 7.6978 15.0756 7.59716 14.8598 7.54383C14.1691 7.37319 13.3394 7.99547 11.68 9.24004L10.88 9.84004C9.71553 10.7134 9.1333 11.1501 9.02572 11.7234C8.99143 11.9062 8.99143 12.0938 9.02572 12.2766Z" fill="#222628"/>
<path fill-rule="evenodd" clip-rule="evenodd" d="M9 17.7C8.6134 17.7 8.3 17.3866 8.3 17L8.3 7.00001C8.3 6.61341 8.6134 6.30001 9 6.30001C9.3866 6.30001 9.7 6.61341 9.7 7.00001L9.7 17C9.7 17.3866 9.3866 17.7 9 17.7Z" fill="#222628"/>
</svg>
