<svg width="24" height="24" viewBox="0 0 24 24" fill="none" xmlns="http://www.w3.org/2000/svg">
<path d="M20 16C20 18.7614 17.7614 21 15 21L11.5 21L9 21C6.23857 21 4 18.7614 4 16L4 11L4.03562 10.5013C4.29728 6.83814 7.34536 4 11.0178 4L11.5 4L12.9822 4.00001C16.6546 4.00001 19.7027 6.83814 19.9644 10.5013L20 11V16Z" fill="#C4C4C4" fill-opacity="0.4"/>
<path fill-rule="evenodd" clip-rule="evenodd" d="M20.7 16C20.7 19.148 18.148 21.7 15 21.7L8.99998 21.7C5.85196 21.7 3.29998 19.148 3.29998 16L3.29998 10.975L3.33739 10.4514C3.6252 6.42196 6.9781 3.30002 11.0178 3.30002L12.9821 3.30002C17.0219 3.30002 20.3748 6.42196 20.6626 10.4514L20.7 10.975L20.7 16ZM15 20.3C17.3748 20.3 19.3 18.3748 19.3 16L19.3 11.025L19.2661 10.5512C19.0307 7.25434 16.2874 4.70002 12.9821 4.70002L11.0178 4.70002C7.71259 4.70002 4.96931 7.25433 4.73383 10.5512L4.69998 11.025L4.69998 16C4.69998 18.3748 6.62516 20.3 8.99998 20.3L15 20.3Z" fill="#222628"/>
<path fill-rule="evenodd" clip-rule="evenodd" d="M14.6334 9.99934C14.6337 9.61304 14.947 9.3 15.3334 9.3C15.72 9.30001 16.0334 9.61341 16.0334 10L15.3334 10C16.0334 10 16.0334 10.0004 16.0334 10.0007L16.0334 10.0016L16.0333 10.0034L16.0333 10.008L16.0332 10.0209C16.033 10.031 16.0327 10.0443 16.0321 10.0606C16.031 10.0931 16.029 10.1374 16.025 10.1919C16.0171 10.3007 16.0017 10.4516 15.9715 10.6307C15.9116 10.9856 15.7904 11.4694 15.5411 11.9615C15.2904 12.4565 14.9037 12.9715 14.3119 13.361C13.7161 13.753 12.954 13.9903 12 13.9903C11.046 13.9903 10.2839 13.753 9.68813 13.361C9.09629 12.9715 8.70964 12.4565 8.45889 11.9615C8.20962 11.4694 8.08846 10.9856 8.02852 10.6307C7.99828 10.4516 7.98288 10.3007 7.975 10.1919C7.97106 10.1374 7.96898 10.093 7.96788 10.0606C7.96733 10.0443 7.96703 10.031 7.96686 10.0209L7.9667 10.008L7.96667 10.0034L7.96667 10.0015L7.96667 10.0007C7.96667 10.0004 7.96667 10 8.66667 10L7.96667 10C7.96666 9.61341 8.28006 9.30001 8.66666 9.3C9.05227 9.3 9.36506 9.61179 9.36666 9.99702C9.36666 9.99757 9.36666 9.99811 9.36667 9.99865C9.36667 9.99871 9.36667 9.99877 9.36667 9.99883C9.36667 9.99901 9.36667 9.99918 9.36667 9.99935C9.36667 9.99935 9.36667 9.99934 9.36667 9.99934L9.36667 9.99883L9.36667 9.99876L9.36667 9.99865L9.36666 9.99781L9.36666 9.99676C9.36666 9.99655 9.36666 9.99664 9.36666 9.99702C9.36666 9.99725 9.36667 9.99758 9.36668 9.998L9.36708 10.0133C9.36761 10.0291 9.36879 10.0554 9.37135 10.0909C9.3765 10.162 9.38714 10.2682 9.40898 10.3976C9.45322 10.6596 9.5404 10.9984 9.7078 11.3289C9.87372 11.6564 10.1121 11.964 10.4577 12.1915C10.7995 12.4163 11.2873 12.5903 12 12.5903C12.7127 12.5903 13.2005 12.4163 13.5423 12.1915C13.8879 11.964 14.1263 11.6564 14.2922 11.3288C14.4596 10.9984 14.5468 10.6596 14.591 10.3976C14.6129 10.2682 14.6235 10.162 14.6287 10.0909C14.6312 10.0554 14.6324 10.0291 14.6329 10.0133L14.6333 9.998L14.6334 9.99875L14.6334 9.99934ZM14.6333 9.998L14.6334 9.9978L14.6334 9.99675L14.6334 9.99666C14.6334 9.99673 14.6334 9.99718 14.6333 9.998Z" fill="#222628"/>
</svg>
