<svg width="24" height="24" viewBox="0 0 24 24" fill="none" xmlns="http://www.w3.org/2000/svg">
<path d="M20.6254 15.2483C21.0856 18.2745 18.7431 21 15.6822 21L12 21L8.31778 21C5.25688 21 2.91445 18.2745 3.3746 15.2483L3.76471 12.6828L4.14338 10.7707C4.60706 8.42916 6.66116 6.74195 9.04813 6.74194L12 6.74194L14.9519 6.74194C17.3389 6.74194 19.393 8.42915 19.8566 10.7707L20.2353 12.6828L20.6254 15.2483Z" fill="#C4C4C4" fill-opacity="0.4"/>
<path fill-rule="evenodd" clip-rule="evenodd" d="M21.3174 15.1431C21.842 18.5929 19.1717 21.7 15.6822 21.7L8.31777 21.7C4.82833 21.7 2.15797 18.5929 2.68254 15.1431L3.07501 12.5621L3.4567 10.6347C3.9853 7.96535 6.32697 6.04193 9.04812 6.04193L14.9519 6.04192C17.673 6.04192 20.0147 7.96535 20.5433 10.6347L20.925 12.5621L21.3174 15.1431ZM15.6822 20.3C18.3146 20.3 20.3291 17.956 19.9334 15.3536L19.5456 12.8034L19.17 10.9066C18.7712 8.89293 17.0047 7.44192 14.9519 7.44192L9.04812 7.44193C6.99532 7.44193 5.2288 8.89293 4.83003 10.9066L4.4544 12.8034L4.06663 15.3536C3.6709 17.956 5.68539 20.3 8.31777 20.3L15.6822 20.3Z" fill="#222628"/>
<path fill-rule="evenodd" clip-rule="evenodd" d="M9.36667 6.29098C9.36631 6.67727 9.05304 6.99032 8.66666 6.99031C8.28007 6.9903 7.96667 6.6769 7.96667 6.2903L8.66667 6.29031C7.96667 6.2903 7.96667 6.28994 7.96668 6.28957L7.96668 6.28876L7.96668 6.28691L7.96671 6.28229L7.96687 6.26943C7.96704 6.25927 7.96734 6.24597 7.96789 6.22972C7.96898 6.19726 7.97107 6.15293 7.97501 6.0984C7.98289 5.98958 7.99829 5.83876 8.02854 5.65965C8.08847 5.3047 8.20964 4.82093 8.45891 4.32883C8.70966 3.8338 9.09632 3.31882 9.68816 2.92935C10.2839 2.5373 11.0461 2.29999 12 2.29999C12.954 2.29999 13.7161 2.5373 14.3119 2.92935C14.9037 3.31882 15.2904 3.8338 15.5411 4.32884C15.7904 4.82094 15.9116 5.30471 15.9715 5.65965C16.0018 5.83876 16.0172 5.98958 16.025 6.0984C16.029 6.15293 16.0311 6.19727 16.0322 6.22973C16.0327 6.24597 16.033 6.25927 16.0332 6.26943L16.0333 6.28229L16.0334 6.28691L16.0334 6.28876L16.0334 6.28957C16.0334 6.28995 16.0334 6.29031 15.3334 6.29031L16.0334 6.29031C16.0334 6.6769 15.72 6.99031 15.3334 6.99031C14.9478 6.99031 14.635 6.67852 14.6334 6.29329C14.6334 6.29275 14.6334 6.29221 14.6334 6.29166C14.6334 6.2916 14.6334 6.29154 14.6334 6.29148C14.6334 6.29131 14.6334 6.29114 14.6334 6.29096C14.6334 6.29097 14.6334 6.29097 14.6334 6.29097L14.6334 6.29148V6.29156L14.6334 6.29166L14.6334 6.29251L14.6334 6.29356C14.6334 6.29376 14.6334 6.29367 14.6334 6.29329C14.6334 6.29306 14.6334 6.29274 14.6334 6.29231L14.6329 6.27699C14.6324 6.26125 14.6312 6.2349 14.6287 6.19946C14.6235 6.12834 14.6129 6.0221 14.591 5.89274C14.5468 5.63075 14.4596 5.29194 14.2922 4.96146C14.1263 4.63391 13.888 4.32632 13.5423 4.09885C13.2006 3.87397 12.7127 3.69999 12 3.69999C11.2873 3.69999 10.7995 3.87397 10.4578 4.09885C10.1121 4.32632 9.87374 4.63392 9.70782 4.96146C9.54041 5.29195 9.45323 5.63076 9.40899 5.89275C9.38715 6.0221 9.37651 6.12834 9.37136 6.19946C9.3688 6.2349 9.36762 6.26126 9.36709 6.27699L9.36668 6.29232L9.36667 6.29156L9.36667 6.29098ZM9.36668 6.29232L9.36667 6.29251L9.36666 6.29356L9.36666 6.29366C9.36666 6.29358 9.36667 6.29313 9.36668 6.29232Z" fill="#222628"/>
<path fill-rule="evenodd" clip-rule="evenodd" d="M10.3907 12.8143C10.1156 13.0859 9.66951 13.0859 9.39437 12.8143L9.27961 12.7011C9.00448 12.4295 9.00448 11.9892 9.27961 11.7176C9.55475 11.446 10.0008 11.446 10.276 11.7176L10.3907 11.8308C10.6659 12.1024 10.6659 12.5428 10.3907 12.8143Z" fill="#222628"/>
<path fill-rule="evenodd" clip-rule="evenodd" d="M13.6093 11.8308C13.8844 11.5592 14.3305 11.5592 14.6056 11.8308L14.7204 11.9441C14.9955 12.2157 14.9955 12.656 14.7204 12.9276C14.4452 13.1992 13.9992 13.1992 13.724 12.9276L13.6093 12.8143C13.3341 12.5427 13.3341 12.1024 13.6093 11.8308Z" fill="#222628"/>
</svg>
