<svg width="24" height="24" viewBox="0 0 24 24" fill="none" xmlns="http://www.w3.org/2000/svg">
<path opacity="0.4" fill-rule="evenodd" clip-rule="evenodd" d="M12 19C17.3739 19 21 17.9032 21 15.1613C21 12.4194 20 12.4194 19.2 11.871C19.2 8.59908 18 2 12 2C6 2 4.8 8.59908 4.8 11.871C4 12.4194 3 13.1419 3 15.1613C3 18.4516 6.6271 19 12 19Z" fill="#C4C4C4"/>
<path fill-rule="evenodd" clip-rule="evenodd" d="M5.52641 5.39048C6.6639 3.16018 8.67303 1.29999 12 1.29999C15.3269 1.29999 17.3361 3.16018 18.4736 5.39048C19.5077 7.41812 19.8488 9.78461 19.8945 11.4714C19.8991 11.4739 19.9037 11.4764 19.9083 11.4789C19.9818 11.519 20.0656 11.5646 20.1707 11.6257C20.4074 11.7634 20.6843 11.9476 20.9331 12.2399C21.4413 12.8371 21.7 13.7234 21.7 15.1613C21.7 16.9399 20.4849 18.0905 18.77 18.7608C17.0696 19.4255 14.7153 19.7 12 19.7C9.32014 19.7 6.95909 19.5676 5.25542 18.9757C4.39157 18.6756 3.64285 18.2399 3.11063 17.5946C2.56869 16.9374 2.29999 16.1219 2.29999 15.1613C2.29999 14.0263 2.58424 13.1969 3.02592 12.5639C3.35616 12.0906 3.7557 11.7571 4.10464 11.5035C4.14683 9.81473 4.4857 7.43102 5.52641 5.39048ZM6.77357 6.02655C5.79225 7.95064 5.49999 10.2962 5.49999 11.871C5.49999 12.1018 5.38617 12.3178 5.19577 12.4483C4.79612 12.7223 4.44389 12.9783 4.17405 13.365C3.91573 13.7353 3.69999 14.2769 3.69999 15.1613C3.69999 15.8458 3.88468 16.3327 4.19071 16.7038C4.50648 17.0867 5.00035 17.405 5.71488 17.6533C7.16798 18.1581 9.30693 18.3 12 18.3C14.6585 18.3 16.8043 18.0261 18.2603 17.4569C19.702 16.8934 20.3 16.1246 20.3 15.1613C20.3 13.8572 20.0587 13.3726 19.8669 13.1472C19.7656 13.0282 19.6426 12.9382 19.4668 12.8359C19.4273 12.813 19.376 12.7848 19.3177 12.7527C19.1659 12.6692 18.9666 12.5596 18.8042 12.4483C18.6138 12.3178 18.5 12.1018 18.5 11.871C18.5 10.2962 18.2077 7.95064 17.2264 6.02655C16.2639 4.13934 14.673 2.69999 12 2.69999C9.32694 2.69999 7.73608 4.13934 6.77357 6.02655Z" fill="#222628"/>
<path fill-rule="evenodd" clip-rule="evenodd" d="M9.67744 18.8238C9.58098 18.4526 9.20312 18.2276 8.8302 18.3209C8.45514 18.4146 8.22711 18.7947 8.32087 19.1697L8.99997 19C8.32087 19.1697 8.32097 19.1701 8.32107 19.1705L8.32129 19.1714L8.32176 19.1732L8.32285 19.1775L8.32571 19.1883C8.32791 19.1964 8.33072 19.2065 8.3342 19.2184C8.34114 19.2422 8.35075 19.2734 8.36345 19.3108C8.38881 19.3855 8.42676 19.4862 8.48081 19.6041C8.5884 19.8389 8.7632 20.1495 9.03567 20.4609C9.59659 21.102 10.5341 21.7 12 21.7C13.4658 21.7 14.4033 21.102 14.9643 20.4609C15.2367 20.1495 15.4115 19.8389 15.5191 19.6041C15.5732 19.4862 15.6111 19.3855 15.6365 19.3108C15.6492 19.2734 15.6588 19.2422 15.6657 19.2184C15.6692 19.2065 15.672 19.1964 15.6742 19.1883L15.6771 19.1775L15.6782 19.1732L15.6787 19.1714L15.6789 19.1705C15.679 19.1701 15.6791 19.1697 15 19L15.6791 19.1697C15.7728 18.7947 15.5448 18.4146 15.1697 18.3209C14.7968 18.2276 14.419 18.4526 14.3225 18.8238C14.3223 18.8244 14.3221 18.8253 14.3217 18.8264C14.3201 18.8319 14.3166 18.8437 14.3107 18.861C14.299 18.8956 14.2783 18.9512 14.2464 19.0208C14.1822 19.1611 14.0757 19.3504 13.9107 19.539C13.5966 19.898 13.0341 20.3 12 20.3C10.9658 20.3 10.4033 19.898 10.0893 19.539C9.92424 19.3504 9.81779 19.1611 9.7535 19.0208C9.72162 18.9512 9.70098 18.8956 9.68922 18.861C9.68337 18.8437 9.6798 18.8319 9.6782 18.8264C9.67786 18.8253 9.67761 18.8244 9.67745 18.8238C9.67744 18.8238 9.67744 18.8238 9.67744 18.8238Z" fill="#222628"/>
<path fill-rule="evenodd" clip-rule="evenodd" d="M12 0.299988C12.3866 0.299988 12.7 0.613388 12.7 0.999988V1.99999C12.7 2.38659 12.3866 2.69999 12 2.69999C11.6134 2.69999 11.3 2.38659 11.3 1.99999V0.999988C11.3 0.613388 11.6134 0.299988 12 0.299988Z" fill="#222628"/>
</svg>
