<svg width="24" height="24" viewBox="0 0 24 24" fill="none" xmlns="http://www.w3.org/2000/svg">
<path d="M5 10C5 8.13872 5 7.20808 5.24472 6.45492C5.73931 4.93273 6.93273 3.73931 8.45492 3.24472C9.20808 3 10.1387 3 12 3C13.8613 3 14.7919 3 15.5451 3.24472C17.0673 3.73931 18.2607 4.93273 18.7553 6.45492C19 7.20808 19 8.13872 19 10V13.9231C19 17.2481 19 18.9106 18.3366 19.4508C17.9696 19.7496 17.4997 19.8919 17.0286 19.8468C16.1769 19.7653 15.2547 18.3821 13.4103 15.6155C12.8934 14.84 12.6349 14.4523 12.2953 14.3474C12.1029 14.2879 11.8971 14.2879 11.7047 14.3474C11.3651 14.4523 11.1066 14.84 10.5897 15.6155C8.7453 18.3821 7.82311 19.7653 6.97145 19.8468C6.50033 19.8919 6.03041 19.7496 5.66342 19.4508C5 18.9106 5 17.2481 5 13.9231V10Z" fill="#C4C4C4" fill-opacity="0.4"/>
<path fill-rule="evenodd" clip-rule="evenodd" d="M11.8465 2.29997C11.8971 2.29998 11.9482 2.29999 12 2.29999C12.0518 2.29999 12.103 2.29998 12.1535 2.29997C13.8679 2.29973 14.9016 2.29959 15.7614 2.57896C17.4967 3.14279 18.8572 4.50329 19.421 6.23859C19.7004 7.09841 19.7003 8.13205 19.7 9.84647C19.7 9.89704 19.7 9.94821 19.7 9.99999V13.9644C19.7 15.592 19.7 16.8645 19.6141 17.7955C19.5706 18.2669 19.5023 18.689 19.3851 19.0454C19.2675 19.403 19.0845 19.7444 18.7786 19.9936C18.2689 20.4086 17.6162 20.6062 16.9619 20.5436C16.5691 20.506 16.2275 20.3235 15.9313 20.0911C15.6361 19.8596 15.3451 19.5463 15.0474 19.1782C14.4595 18.4512 13.7537 17.3924 12.8508 16.0381L12.8279 16.0038C12.5607 15.603 12.3903 15.349 12.2475 15.1769C12.1467 15.0553 12.0964 15.0216 12.0849 15.015C12.0295 14.9987 11.9706 14.9987 11.9152 15.015C11.9036 15.0216 11.8534 15.0553 11.7525 15.1769C11.6098 15.349 11.4393 15.603 11.1721 16.0038L11.1492 16.0381C10.2464 17.3924 9.54049 18.4512 8.9526 19.1782C8.65493 19.5463 8.36391 19.8596 8.06878 20.0911C7.77256 20.3235 7.43089 20.506 7.03814 20.5436C6.38381 20.6062 5.73115 20.4086 5.22144 19.9936C4.9155 19.7444 4.73249 19.403 4.61491 19.0454C4.49776 18.689 4.4294 18.2669 4.3859 17.7955C4.3 16.8645 4.30001 15.592 4.30002 13.9644L4.30002 9.99998C4.30002 9.94821 4.30001 9.89705 4.3 9.84647C4.29976 8.13205 4.29962 7.09841 4.57899 6.23859C5.14283 4.50329 6.50332 3.14279 8.23862 2.57896C9.09844 2.29959 10.1321 2.29973 11.8465 2.29997ZM12.0822 15.0137C12.0822 15.0136 12.0828 15.0139 12.0838 15.0144L12.0822 15.0137ZM12 3.69999C10.0843 3.69999 9.29238 3.70862 8.67124 3.91044C7.36216 4.33579 6.33582 5.36213 5.91047 6.67121C5.70865 7.29235 5.70002 8.08422 5.70002 9.99998V13.9231C5.70002 15.6006 5.70075 16.8082 5.77998 17.6669C5.81942 18.0943 5.87544 18.3969 5.94488 18.6081C6.01389 18.818 6.07967 18.887 6.10544 18.908C6.32971 19.0906 6.61688 19.1775 6.90479 19.15C6.93788 19.1468 7.03085 19.1259 7.20471 18.9896C7.37965 18.8523 7.59413 18.6316 7.86401 18.2979C8.40626 17.6273 9.0767 16.623 10.0072 15.2272L10.027 15.1975C10.2685 14.8352 10.4796 14.5186 10.675 14.2831C10.8776 14.0388 11.1344 13.7909 11.4981 13.6786C11.8251 13.5775 12.175 13.5775 12.502 13.6786C12.8656 13.7909 13.1224 14.0388 13.3251 14.2831C13.5204 14.5186 13.7315 14.8352 13.973 15.1975L13.9928 15.2272C14.9233 16.623 15.5938 17.6273 16.136 18.2979C16.4059 18.6316 16.6204 18.8523 16.7953 18.9896C16.9692 19.1259 17.0622 19.1468 17.0952 19.15C17.3831 19.1775 17.6703 19.0906 17.8946 18.908C17.9204 18.887 17.9861 18.818 18.0551 18.6081C18.1246 18.3969 18.1806 18.0943 18.22 17.6669C18.2993 16.8082 18.3 15.6006 18.3 13.9231V9.99999C18.3 8.08422 18.2914 7.29235 18.0896 6.67121C17.6642 5.36213 16.6379 4.33579 15.3288 3.91044C14.7076 3.70862 13.9158 3.69999 12 3.69999Z" fill="#222628"/>
</svg>
