<svg width="24" height="24" viewBox="0 0 24 24" fill="none" xmlns="http://www.w3.org/2000/svg">
<path opacity="0.4" d="M2 13C2 10.2044 2 8.80653 2.45672 7.7039C3.06569 6.23373 4.23373 5.06569 5.7039 4.45672C6.80653 4 8.20435 4 11 4H13C15.7956 4 17.1935 4 18.2961 4.45672C19.7663 5.06569 20.9343 6.23373 21.5433 7.7039C22 8.80653 22 10.2044 22 13C22 15.7956 22 17.1935 21.5433 18.2961C20.9343 19.7663 19.7663 20.9343 18.2961 21.5433C17.1935 22 15.7956 22 13 22H11C8.20435 22 6.80653 22 5.7039 21.5433C4.23373 20.9343 3.06569 19.7663 2.45672 18.2961C2 17.1935 2 15.7956 2 13Z" fill="#C4C4C4"/>
<path fill-rule="evenodd" clip-rule="evenodd" d="M10.9736 3.29999H13.0264C14.4019 3.29999 15.47 3.29998 16.3306 3.3587C17.203 3.41822 17.9132 3.54042 18.564 3.81C20.2057 4.49 21.51 5.79432 22.19 7.43601C22.4596 8.08683 22.5818 8.79702 22.6413 9.6694C22.7 10.53 22.7 11.5981 22.7 12.9737V13.0263C22.7 14.4018 22.7 15.47 22.6413 16.3306C22.5818 17.203 22.4596 17.9131 22.19 18.564C21.51 20.2057 20.2057 21.51 18.564 22.19C17.9132 22.4596 17.203 22.5818 16.3306 22.6413C15.47 22.7 14.4018 22.7 13.0263 22.7H10.9737C9.59816 22.7 8.53004 22.7 7.66942 22.6413C6.79704 22.5818 6.08685 22.4596 5.43602 22.19C3.79434 21.51 2.49002 20.2057 1.81001 18.564C1.54043 17.9131 1.41824 17.203 1.35872 16.3306C1.3 15.47 1.3 14.4019 1.3 13.0264V12.9736C1.3 11.5981 1.3 10.53 1.35872 9.6694C1.41824 8.79702 1.54043 8.08683 1.81001 7.43601C2.49002 5.79432 3.79434 4.49 5.43602 3.81C6.08685 3.54042 6.79704 3.41822 7.66942 3.3587C8.53002 3.29998 9.59811 3.29999 10.9736 3.29999ZM7.76472 4.75545C6.96362 4.81011 6.42358 4.91628 5.97178 5.10343C4.67313 5.64134 3.64136 6.67312 3.10344 7.97177C2.9163 8.42357 2.81013 8.9636 2.75547 9.7647C2.70038 10.5721 2.7 11.5926 2.7 13C2.7 14.4074 2.70038 15.4279 2.75547 16.2353C2.81013 17.0364 2.9163 17.5764 3.10344 18.0282C3.64136 19.3269 4.67313 20.3586 5.97178 20.8965C6.42358 21.0837 6.96362 21.1899 7.76472 21.2445C8.57211 21.2996 9.5926 21.3 11 21.3H13C14.4074 21.3 15.4279 21.2996 16.2353 21.2445C17.0364 21.1899 17.5764 21.0837 18.0282 20.8965C19.3269 20.3586 20.3586 19.3269 20.8966 18.0282C21.0837 17.5764 21.1899 17.0364 21.2445 16.2353C21.2996 15.4279 21.3 14.4074 21.3 13C21.3 11.5926 21.2996 10.5721 21.2445 9.7647C21.1899 8.9636 21.0837 8.42357 20.8966 7.97177C20.3586 6.67312 19.3269 5.64134 18.0282 5.10343C17.5764 4.91628 17.0364 4.81011 16.2353 4.75545C15.4279 4.70037 14.4074 4.69999 13 4.69999H11C9.5926 4.69999 8.57211 4.70037 7.76472 4.75545Z" fill="#222628"/>
<path fill-rule="evenodd" clip-rule="evenodd" d="M16.7 2C17.0866 2 17.4 2.3134 17.4 2.7V5.3C17.4 5.6866 17.0866 6 16.7 6C16.3134 6 16 5.6866 16 5.3V2.7C16 2.3134 16.3134 2 16.7 2Z" fill="#222628"/>
<path fill-rule="evenodd" clip-rule="evenodd" d="M7.70001 2C8.08661 2 8.40001 2.3134 8.40001 2.7V5.3C8.40001 5.6866 8.08661 6 7.70001 6C7.31341 6 7.00001 5.6866 7.00001 5.3V2.7C7.00001 2.3134 7.31341 2 7.70001 2Z" fill="#222628"/>
<path d="M12.7 9.99999C12.7 10.3866 12.3866 10.7 12 10.7C11.6134 10.7 11.3 10.3866 11.3 9.99999C11.3 9.61339 11.6134 9.29999 12 9.29999C12.3866 9.29999 12.7 9.61339 12.7 9.99999Z" fill="#222628"/>
<path d="M17.7 9.99999C17.7 10.3866 17.3866 10.7 17 10.7C16.6134 10.7 16.3 10.3866 16.3 9.99999C16.3 9.61339 16.6134 9.29999 17 9.29999C17.3866 9.29999 17.7 9.61339 17.7 9.99999Z" fill="#222628"/>
<path d="M7.7 9.99999C7.7 10.3866 7.3866 10.7 7 10.7C6.6134 10.7 6.3 10.3866 6.3 9.99999C6.3 9.61339 6.6134 9.29999 7 9.29999C7.3866 9.29999 7.7 9.61339 7.7 9.99999Z" fill="#222628"/>
<path d="M12.7 14C12.7 14.3866 12.3866 14.7 12 14.7C11.6134 14.7 11.3 14.3866 11.3 14C11.3 13.6134 11.6134 13.3 12 13.3C12.3866 13.3 12.7 13.6134 12.7 14Z" fill="#222628"/>
<path d="M7.7 14C7.7 14.3866 7.3866 14.7 7 14.7C6.6134 14.7 6.3 14.3866 6.3 14C6.3 13.6134 6.6134 13.3 7 13.3C7.3866 13.3 7.7 13.6134 7.7 14Z" fill="#222628"/>
<path d="M17.7 14C17.7 14.3866 17.3866 14.7 17 14.7C16.6134 14.7 16.3 14.3866 16.3 14C16.3 13.6134 16.6134 13.3 17 13.3C17.3866 13.3 17.7 13.6134 17.7 14Z" fill="#222628"/>
<path d="M17.7 18C17.7 18.3866 17.3866 18.7 17 18.7C16.6134 18.7 16.3 18.3866 16.3 18C16.3 17.6134 16.6134 17.3 17 17.3C17.3866 17.3 17.7 17.6134 17.7 18Z" fill="#222628"/>
<path d="M12.7 18C12.7 18.3866 12.3866 18.7 12 18.7C11.6134 18.7 11.3 18.3866 11.3 18C11.3 17.6134 11.6134 17.3 12 17.3C12.3866 17.3 12.7 17.6134 12.7 18Z" fill="#222628"/>
<path d="M7.7 18C7.7 18.3866 7.3866 18.7 7 18.7C6.6134 18.7 6.3 18.3866 6.3 18C6.3 17.6134 6.6134 17.3 7 17.3C7.3866 17.3 7.7 17.6134 7.7 18Z" fill="#222628"/>
</svg>
