<svg width="24" height="24" viewBox="0 0 24 24" fill="none" xmlns="http://www.w3.org/2000/svg">
<path opacity="0.4" d="M2 13C2 10.2044 2 8.80653 2.45672 7.7039C3.06569 6.23373 4.23373 5.06569 5.7039 4.45672C6.80653 4 8.20435 4 11 4H13C15.7956 4 17.1935 4 18.2961 4.45672C19.7663 5.06569 20.9343 6.23373 21.5433 7.7039C22 8.80653 22 10.2044 22 13C22 15.7956 22 17.1935 21.5433 18.2961C20.9343 19.7663 19.7663 20.9343 18.2961 21.5433C17.1935 22 15.7956 22 13 22H11C8.20435 22 6.80653 22 5.7039 21.5433C4.23373 20.9343 3.06569 19.7663 2.45672 18.2961C2 17.1935 2 15.7956 2 13Z" fill="#C4C4C4"/>
<path fill-rule="evenodd" clip-rule="evenodd" d="M10.9736 3.29999H13.0264C14.4019 3.29999 15.47 3.29998 16.3306 3.3587C17.203 3.41822 17.9131 3.54042 18.564 3.81C20.2057 4.49 21.51 5.79432 22.19 7.43601C22.4596 8.08683 22.5818 8.79702 22.6413 9.6694C22.7 10.53 22.7 11.5981 22.7 12.9737V13.0263C22.7 14.4018 22.7 15.47 22.6413 16.3306C22.5818 17.203 22.4596 17.9131 22.19 18.564C21.51 20.2057 20.2057 21.51 18.564 22.19C17.9131 22.4596 17.203 22.5818 16.3306 22.6413C15.47 22.7 14.4018 22.7 13.0263 22.7H10.9737C9.59815 22.7 8.53002 22.7 7.6694 22.6413C6.79702 22.5818 6.08683 22.4596 5.43601 22.19C3.79432 21.51 2.49 20.2057 1.81 18.564C1.54042 17.9131 1.41822 17.203 1.3587 16.3306C1.29998 15.47 1.29999 14.4019 1.29999 13.0264V12.9736C1.29999 11.5981 1.29998 10.53 1.3587 9.6694C1.41822 8.79702 1.54042 8.08683 1.81 7.43601C2.49 5.79432 3.79432 4.49 5.43601 3.81C6.08683 3.54042 6.79702 3.41822 7.6694 3.3587C8.53 3.29998 9.5981 3.29999 10.9736 3.29999ZM7.7647 4.75545C6.9636 4.81011 6.42357 4.91628 5.97177 5.10343C4.67312 5.64134 3.64134 6.67312 3.10343 7.97177C2.91628 8.42357 2.81011 8.9636 2.75545 9.7647C2.70037 10.5721 2.69999 11.5926 2.69999 13C2.69999 14.4074 2.70037 15.4279 2.75545 16.2353C2.81011 17.0364 2.91628 17.5764 3.10343 18.0282C3.64134 19.3269 4.67312 20.3586 5.97177 20.8965C6.42357 21.0837 6.9636 21.1899 7.7647 21.2445C8.57209 21.2996 9.59258 21.3 11 21.3H13C14.4074 21.3 15.4279 21.2996 16.2353 21.2445C17.0364 21.1899 17.5764 21.0837 18.0282 20.8965C19.3269 20.3586 20.3586 19.3269 20.8965 18.0282C21.0837 17.5764 21.1899 17.0364 21.2445 16.2353C21.2996 15.4279 21.3 14.4074 21.3 13C21.3 11.5926 21.2996 10.5721 21.2445 9.7647C21.1899 8.9636 21.0837 8.42357 20.8965 7.97177C20.3586 6.67312 19.3269 5.64134 18.0282 5.10343C17.5764 4.91628 17.0364 4.81011 16.2353 4.75545C15.4279 4.70037 14.4074 4.69999 13 4.69999H11C9.59258 4.69999 8.57209 4.70037 7.7647 4.75545Z" fill="#222628"/>
<path fill-rule="evenodd" clip-rule="evenodd" d="M5.29999 13C5.29999 12.6134 5.61339 12.3 5.99999 12.3H6.49999C6.88659 12.3 7.19999 12.6134 7.19999 13C7.19999 13.3866 6.88659 13.7 6.49999 13.7H5.99999C5.61339 13.7 5.29999 13.3866 5.29999 13Z" fill="#222628"/>
<path fill-rule="evenodd" clip-rule="evenodd" d="M10.8 13C10.8 12.6134 11.1134 12.3 11.5 12.3H12C12.3866 12.3 12.7 12.6134 12.7 13C12.7 13.3866 12.3866 13.7 12 13.7H11.5C11.1134 13.7 10.8 13.3866 10.8 13Z" fill="#222628"/>
<path fill-rule="evenodd" clip-rule="evenodd" d="M16.3 13C16.3 12.6134 16.6134 12.3 17 12.3H17.5C17.8866 12.3 18.2 12.6134 18.2 13C18.2 13.3866 17.8866 13.7 17.5 13.7H17C16.6134 13.7 16.3 13.3866 16.3 13Z" fill="#222628"/>
<path fill-rule="evenodd" clip-rule="evenodd" d="M5.29999 18C5.29999 17.6134 5.61339 17.3 5.99999 17.3H6.49999C6.88659 17.3 7.19999 17.6134 7.19999 18C7.19999 18.3866 6.88659 18.7 6.49999 18.7H5.99999C5.61339 18.7 5.29999 18.3866 5.29999 18Z" fill="#222628"/>
<path fill-rule="evenodd" clip-rule="evenodd" d="M10.8 18C10.8 17.6134 11.1134 17.3 11.5 17.3H12C12.3866 17.3 12.7 17.6134 12.7 18C12.7 18.3866 12.3866 18.7 12 18.7H11.5C11.1134 18.7 10.8 18.3866 10.8 18Z" fill="#222628"/>
<path fill-rule="evenodd" clip-rule="evenodd" d="M21.9743 15.3L22 15.3L22 16.7C21.0585 16.7 20.3875 16.7004 19.859 16.7364C19.3368 16.7721 19.0052 16.8402 18.7371 16.9512C17.9286 17.2861 17.2861 17.9285 16.9512 18.7371C16.8402 19.0052 16.7721 19.3368 16.7364 19.859C16.7004 20.3875 16.7 21.0585 16.7 22L15.3 22L15.3 21.9743C15.3 21.0642 15.3 20.3454 15.3397 19.7637C15.3802 19.1702 15.4643 18.6684 15.6578 18.2014C16.1348 17.0497 17.0498 16.1348 18.2014 15.6578C18.6684 15.4643 19.1703 15.3802 19.7637 15.3397C20.3454 15.3 21.0642 15.3 21.9743 15.3Z" fill="#222628"/>
<path fill-rule="evenodd" clip-rule="evenodd" d="M2.29999 8.99999C2.29999 8.61339 2.61339 8.29999 2.99999 8.29999L21 8.29999C21.3866 8.29999 21.7 8.61339 21.7 8.99999C21.7 9.38659 21.3866 9.69999 21 9.69999L2.99999 9.69999C2.61339 9.69999 2.29999 9.38659 2.29999 8.99999Z" fill="#222628"/>
<path fill-rule="evenodd" clip-rule="evenodd" d="M16.7 2C17.0866 2 17.4 2.3134 17.4 2.7V5.3C17.4 5.6866 17.0866 6 16.7 6C16.3134 6 16 5.6866 16 5.3V2.7C16 2.3134 16.3134 2 16.7 2Z" fill="#222628"/>
<path fill-rule="evenodd" clip-rule="evenodd" d="M7.69996 2C8.08656 2 8.39996 2.3134 8.39996 2.7V5.3C8.39996 5.6866 8.08656 6 7.69996 6C7.31336 6 6.99996 5.6866 6.99996 5.3V2.7C6.99996 2.3134 7.31336 2 7.69996 2Z" fill="#222628"/>
</svg>
