<svg width="24" height="24" viewBox="0 0 24 24" fill="none" xmlns="http://www.w3.org/2000/svg">
<path opacity="0.4" d="M9.62572 7.33815C9.13689 8.07738 7.99998 9.13887 7.99999 10C7.99999 10.9972 9.06263 13.0054 10.4427 14.3684C11.8228 15.7315 12.9903 16.5 14 16.5C14.6874 16.5 15.0328 14.8421 16.8689 14.8421C18.2459 14.8421 20 16.3421 20.5 18C20.7867 18.9506 19.6639 19.8088 18.4049 20.4062C17.4177 20.8747 16.311 21.0432 15.2234 20.9385C13.2369 20.7474 10.4047 19.9623 7 16.7368C3.09847 12.5 2.9015 9.72438 2.99999 7.01385C3.09848 4.30332 5.49999 3 6.31158 3C7.0645 3 9.42442 5.03844 9.76162 6.64692C9.81184 6.88649 9.76073 7.13397 9.62572 7.33815Z" fill="#C4C4C4"/>
<path fill-rule="evenodd" clip-rule="evenodd" d="M5.16126 2.61561C5.54611 2.42981 5.9585 2.29999 6.31157 2.29999C6.54425 2.29999 6.76562 2.37341 6.93814 2.44742C7.12271 2.5266 7.31403 2.6342 7.50258 2.75686C7.88038 3.00264 8.29218 3.33842 8.68207 3.71996C9.43519 4.45692 10.2343 5.49017 10.4467 6.50328C10.5369 6.93355 10.4433 7.37077 10.2096 7.72423C10.0662 7.94109 9.88278 8.17092 9.70988 8.38483C9.68502 8.4156 9.66024 8.4462 9.63557 8.47665C9.48114 8.66732 9.33113 8.85254 9.1917 9.04046C9.03005 9.25832 8.90073 9.45618 8.81336 9.63376C8.72406 9.81525 8.69998 9.93307 8.69998 9.99999C8.69998 10.3143 8.89165 10.9356 9.31723 11.7098C9.72679 12.4548 10.2981 13.2417 10.9346 13.8704C11.6056 14.5331 12.1995 15.0253 12.7264 15.3488C13.218 15.6505 13.6117 15.7809 13.928 15.798C13.9428 15.7857 13.9629 15.7678 13.9887 15.7423C14.0478 15.6841 14.1127 15.6117 14.2018 15.5112L14.2137 15.4977C14.2954 15.4055 14.3931 15.2952 14.5011 15.1838C14.9765 14.6933 15.6916 14.1421 16.8689 14.1421C17.7891 14.1421 18.729 14.6279 19.4713 15.2699C20.225 15.9218 20.875 16.819 21.1702 17.7979C21.421 18.6296 21.0128 19.3378 20.5306 19.827C20.045 20.3195 19.3653 20.7253 18.705 21.0386C17.5936 21.566 16.3585 21.7509 15.1563 21.6353C13.0179 21.4296 10.0389 20.5801 6.51857 17.245C6.50702 17.2341 6.49584 17.2227 6.48506 17.211C4.48675 15.041 3.40024 13.2049 2.8364 11.5258C2.27161 9.84387 2.25016 8.37233 2.30045 6.98842C2.35766 5.41405 3.08835 4.24413 3.91147 3.47805C4.32101 3.0969 4.75882 2.8099 5.16126 2.61561ZM4.86527 4.50288C4.26011 5.0661 3.74081 5.9031 3.69952 7.03926C3.65132 8.36587 3.67911 9.63741 4.16357 11.0801C4.6476 12.5216 5.60625 14.1864 7.49874 16.2451C10.7798 19.3471 13.4591 20.0656 15.2904 20.2417C16.2635 20.3353 17.2419 20.1833 18.1048 19.7738C18.7035 19.4897 19.2147 19.1676 19.5336 18.8441C19.8558 18.5172 19.8657 18.321 19.8298 18.2021C19.625 17.523 19.148 16.8413 18.5554 16.3288C17.9513 15.8063 17.3257 15.5421 16.8689 15.5421C16.2101 15.5421 15.8344 15.8198 15.5063 16.1583C15.4206 16.2466 15.3414 16.3361 15.2555 16.433L15.2496 16.4397C15.1666 16.5333 15.0698 16.6425 14.9714 16.7396C14.7934 16.9149 14.4677 17.2 14 17.2C13.3184 17.2 12.6457 16.9419 11.9941 16.5419C11.3398 16.1403 10.6599 15.5668 9.95079 14.8664C9.20723 14.132 8.55717 13.2333 8.09039 12.3842C7.63964 11.5643 7.29998 10.6829 7.29998 9.99999C7.29998 9.63634 7.41801 9.29855 7.55716 9.01572C7.69824 8.72898 7.8837 8.4538 8.06738 8.20624C8.22603 7.99242 8.39685 7.78159 8.5501 7.59245C8.57422 7.56267 8.59792 7.53343 8.62106 7.5048C8.79881 7.28487 8.94081 7.10479 9.04183 6.95203C9.07812 6.89715 9.08675 6.8394 9.07651 6.79053C8.9517 6.19516 8.40229 5.40495 7.70291 4.72058C7.36656 4.39144 7.02613 4.11709 6.73915 3.93039C6.59531 3.83682 6.4761 3.7726 6.38617 3.73402C6.33622 3.71259 6.30664 3.70399 6.29469 3.70079C6.22466 3.70657 6.04092 3.74554 5.76994 3.87636C5.49077 4.01114 5.16987 4.21939 4.86527 4.50288Z" fill="#222628"/>
<path fill-rule="evenodd" clip-rule="evenodd" d="M14.0947 6.69857C14.1004 6.69796 14.1114 6.69701 14.1288 6.69577C14.1637 6.69327 14.2207 6.69044 14.2961 6.69086C14.4473 6.69169 14.6692 6.70557 14.9333 6.75979C15.4584 6.86757 16.1489 7.13383 16.7964 7.78132C17.4439 8.42882 17.7102 9.11935 17.8179 9.6444C17.8722 9.90852 17.886 10.1304 17.8869 10.2817C17.8873 10.357 17.8845 10.414 17.882 10.4489C17.8807 10.4664 17.8796 10.4782 17.879 10.484C17.879 10.4836 17.8792 10.4824 18.5727 10.5777L17.8792 10.4824C17.879 10.4841 17.8788 10.4857 17.8786 10.4873C17.8786 10.4873 17.8786 10.4873 17.8786 10.4873C17.8289 10.8684 18.096 11.2188 18.4774 11.2712C18.8604 11.3239 19.2136 11.0561 19.2662 10.6731L18.5969 10.5811C19.2662 10.673 19.2662 10.6734 19.2662 10.6731L19.2666 10.6701L19.2671 10.6665L19.2682 10.6573L19.2712 10.6311C19.2734 10.6102 19.276 10.5826 19.2784 10.5487C19.2832 10.481 19.2875 10.3881 19.2868 10.2739C19.2856 10.0462 19.2649 9.73106 19.1893 9.36287C19.0375 8.62329 18.6631 7.66812 17.7864 6.79137C16.9096 5.91463 15.9544 5.54021 15.2149 5.38839C14.8467 5.3128 14.5315 5.29214 14.3038 5.29088C14.1897 5.29025 14.0967 5.29449 14.029 5.29933C13.9952 5.30175 13.9675 5.30432 13.9467 5.30653L13.9204 5.3095L13.9112 5.31065L13.9076 5.31113L13.9061 5.31134C13.9057 5.31138 13.9047 5.31153 14 6.00501L13.9047 5.31153C13.5217 5.36417 13.2539 5.71733 13.3065 6.10033C13.3589 6.48168 13.7093 6.74883 14.0904 6.69914" fill="#222628"/>
<path fill-rule="evenodd" clip-rule="evenodd" d="M14.0383 2.70396C13.6538 2.72507 13.3241 2.43138 13.3012 2.04654C13.2783 1.66062 13.5725 1.32918 13.9585 1.30624L14 2.00501C13.9585 1.30624 13.9581 1.30626 13.9585 1.30624L13.9599 1.30615L13.9617 1.30605L13.966 1.30583L13.9777 1.30527C13.9869 1.30487 13.9988 1.30442 14.0134 1.30402C14.0426 1.30323 14.0824 1.30263 14.1321 1.30298C14.2314 1.3037 14.3705 1.30823 14.5434 1.32274C14.8887 1.35173 15.3705 1.42068 15.9393 1.57942C17.0799 1.89772 18.5661 2.57611 19.995 4.00502C21.4239 5.43396 22.1013 6.9192 22.4186 8.059C22.5768 8.62743 22.6452 9.10878 22.6737 9.45386C22.688 9.62651 22.6923 9.76551 22.6929 9.86479C22.6932 9.91446 22.6925 9.95424 22.6917 9.9834C22.6913 9.99799 22.6908 10.0099 22.6904 10.0191L22.6898 10.0308L22.6896 10.0351L22.6895 10.0369C22.6895 10.0372 22.6894 10.0384 21.9907 9.99572L22.6894 10.0384C22.6658 10.4242 22.3339 10.718 21.9481 10.6944C21.5633 10.6709 21.2701 10.3408 21.2918 9.95635L21.2923 9.94312C21.2927 9.92949 21.2931 9.90583 21.2929 9.87285C21.2926 9.80685 21.2896 9.70377 21.2785 9.5693C21.2562 9.30011 21.2013 8.90694 21.0698 8.43439C20.8076 7.49223 20.2397 6.2296 19.005 4.99497C17.7704 3.76031 16.5065 3.19121 15.563 2.9279C15.0898 2.79584 14.696 2.74047 14.4263 2.71783C14.2915 2.70652 14.1882 2.70342 14.1221 2.70295C14.089 2.70271 14.0653 2.70313 14.0516 2.7035L14.0383 2.70396ZM14.0383 2.70396C14.0383 2.70396 14.0383 2.70396 14.0383 2.70396V2.70396Z" fill="#222628"/>
</svg>
