<svg width="24" height="24" viewBox="0 0 24 24" fill="none" xmlns="http://www.w3.org/2000/svg">
<path opacity="0.4" d="M9.62572 7.33815C9.13689 8.07738 7.99998 9.13887 7.99999 10C7.99999 10.9972 9.06263 13.0054 10.4427 14.3684C11.8228 15.7315 12.9903 16.5 14 16.5C14.6874 16.5 15.0328 14.8421 16.8689 14.8421C18.2459 14.8421 20 16.3421 20.5 18C20.7867 18.9506 19.6639 19.8088 18.4049 20.4062C17.4177 20.8747 16.311 21.0432 15.2234 20.9385C13.2369 20.7474 10.4047 19.9623 7 16.7368C3.09847 12.5 2.9015 9.72438 2.99999 7.01385C3.09848 4.30332 5.49999 3 6.31158 3C7.0645 3 9.42442 5.03844 9.76162 6.64692C9.81184 6.88649 9.76073 7.13397 9.62572 7.33815Z" fill="#C4C4C4"/>
<path fill-rule="evenodd" clip-rule="evenodd" d="M5.16126 2.61561C5.54611 2.42981 5.95851 2.29999 6.31158 2.29999C6.54425 2.29999 6.76562 2.37341 6.93815 2.44742C7.12271 2.5266 7.31403 2.6342 7.50258 2.75686C7.88038 3.00264 8.29218 3.33842 8.68208 3.71996C9.43519 4.45692 10.2343 5.49017 10.4467 6.50328C10.5369 6.93355 10.4433 7.37077 10.2096 7.72423C10.0662 7.94109 9.88278 8.17092 9.70989 8.38483C9.68502 8.4156 9.66024 8.4462 9.63557 8.47665C9.48114 8.66732 9.33113 8.85254 9.1917 9.04046C9.03005 9.25832 8.90073 9.45618 8.81336 9.63376C8.72407 9.81525 8.69998 9.93307 8.69998 9.99999C8.69999 10.3143 8.89165 10.9356 9.31724 11.7098C9.7268 12.4548 10.2981 13.2417 10.9346 13.8704C11.6056 14.5331 12.1995 15.0253 12.7264 15.3488C13.218 15.6505 13.6117 15.7809 13.928 15.798C13.9428 15.7857 13.9629 15.7678 13.9887 15.7423C14.0478 15.6841 14.1127 15.6117 14.2018 15.5112L14.2137 15.4977C14.2954 15.4055 14.3931 15.2952 14.5011 15.1838C14.9765 14.6933 15.6916 14.1421 16.8689 14.1421C17.7891 14.1421 18.729 14.6279 19.4713 15.2699C20.225 15.9218 20.875 16.819 21.1702 17.7979C21.421 18.6296 21.0128 19.3378 20.5306 19.827C20.045 20.3195 19.3653 20.7253 18.705 21.0386C17.5936 21.566 16.3585 21.7509 15.1563 21.6353C13.0179 21.4296 10.0389 20.5801 6.51857 17.245C6.50702 17.2341 6.49584 17.2227 6.48506 17.211C4.48676 15.041 3.40024 13.2049 2.8364 11.5258C2.27162 9.84387 2.25016 8.37233 2.30045 6.98842C2.35766 5.41405 3.08836 4.24413 3.91147 3.47805C4.32101 3.0969 4.75882 2.8099 5.16126 2.61561ZM4.86527 4.50288C4.26012 5.0661 3.74081 5.9031 3.69953 7.03926C3.65132 8.36587 3.67911 9.63741 4.16357 11.0801C4.6476 12.5216 5.60625 14.1864 7.49874 16.2451C10.7798 19.3471 13.4591 20.0656 15.2904 20.2417C16.2635 20.3353 17.2419 20.1833 18.1048 19.7738C18.7035 19.4897 19.2147 19.1676 19.5336 18.8441C19.8559 18.5172 19.8657 18.321 19.8298 18.2021C19.625 17.523 19.148 16.8413 18.5554 16.3288C17.9513 15.8063 17.3257 15.5421 16.8689 15.5421C16.2101 15.5421 15.8344 15.8198 15.5063 16.1583C15.4206 16.2466 15.3414 16.3361 15.2555 16.433L15.2496 16.4397C15.1666 16.5333 15.0698 16.6425 14.9714 16.7396C14.7934 16.9149 14.4677 17.2 14 17.2C13.3184 17.2 12.6457 16.9419 11.9941 16.5419C11.3398 16.1403 10.6599 15.5668 9.9508 14.8664C9.20723 14.132 8.55717 13.2333 8.09039 12.3842C7.63964 11.5643 7.29998 10.6829 7.29998 9.99999C7.29998 9.63634 7.41802 9.29855 7.55717 9.01572C7.69824 8.72898 7.8837 8.4538 8.06738 8.20624C8.22603 7.99242 8.39686 7.78159 8.5501 7.59245C8.57423 7.56267 8.59792 7.53343 8.62106 7.5048C8.79882 7.28487 8.94082 7.10479 9.04183 6.95203C9.07812 6.89715 9.08676 6.8394 9.07651 6.79053C8.9517 6.19516 8.40229 5.40495 7.70292 4.72058C7.36657 4.39144 7.02613 4.11709 6.73915 3.93039C6.59531 3.83682 6.4761 3.7726 6.38618 3.73402C6.33622 3.71259 6.30664 3.70399 6.29469 3.70079C6.22466 3.70657 6.04092 3.74554 5.76994 3.87636C5.49077 4.01114 5.16987 4.21939 4.86527 4.50288Z" fill="#222628"/>
<path fill-rule="evenodd" clip-rule="evenodd" d="M21.495 2.50503C21.7683 2.77839 21.7683 3.22161 21.495 3.49497L17.495 7.49497C17.2216 7.76834 16.7784 7.76834 16.505 7.49497C16.2317 7.22161 16.2317 6.77839 16.505 6.50503L20.505 2.50503C20.7784 2.23166 21.2216 2.23166 21.495 2.50503Z" fill="#222628"/>
<path fill-rule="evenodd" clip-rule="evenodd" d="M16.505 2.50502C16.7784 2.23165 17.2216 2.23165 17.495 2.50502L21.495 6.50501C21.7683 6.77838 21.7683 7.2216 21.495 7.49496C21.2216 7.76833 20.7784 7.76833 20.505 7.49496L16.505 3.49496C16.2317 3.2216 16.2317 2.77838 16.505 2.50502Z" fill="#222628"/>
</svg>
