<svg width="24" height="24" viewBox="0 0 24 24" fill="none" xmlns="http://www.w3.org/2000/svg">
<path opacity="0.4" d="M15.241 20.9351C13.5457 20.7548 11.3088 20.0735 8 17.5L11 14.5C12 15.5 13.4768 16.5 14.0173 16.5C14.7047 16.5 15.0501 14.8421 16.8862 14.8421C18.2632 14.8421 20.0173 16.3421 20.5173 18C20.804 18.9506 19.6812 19.8088 18.4222 20.4062C17.435 20.8747 16.3275 21.0507 15.241 20.9351Z" fill="#C4C4C4"/>
<path opacity="0.4" fill-rule="evenodd" clip-rule="evenodd" d="M5.13364 2.77917C5.45981 2.54507 5.89125 2.29999 6.32889 2.29999C6.56157 2.29999 6.78294 2.37341 6.95546 2.44742C7.14003 2.5266 7.33134 2.6342 7.5199 2.75686C7.8977 3.00264 8.30949 3.33842 8.69939 3.71996C9.4525 4.45692 10.2517 5.49017 10.464 6.50328C10.5542 6.93347 10.4608 7.37164 10.225 7.72576C10.0805 7.94273 9.89539 8.1726 9.72149 8.38606C9.69821 8.41463 9.67502 8.44305 9.65192 8.47135C9.49472 8.66395 9.34222 8.8508 9.20107 9.04024C9.03915 9.25758 8.91072 9.45425 8.825 9.63017C8.74778 9.78866 8.72204 9.89654 8.71781 9.96333C8.72291 9.97698 8.73895 10.0213 8.78421 10.1015C8.85255 10.2227 8.9516 10.3637 9.0631 10.5061C9.17257 10.6459 9.28344 10.7738 9.36782 10.8675C9.40968 10.914 9.44425 10.9512 9.46785 10.9763L9.49439 11.0042L9.50051 11.0106L9.50138 11.0115C9.77105 11.2884 9.76535 11.7316 9.48848 12.0014C9.21157 12.2712 8.76839 12.2654 8.49861 11.9885L9 11.5C8.49861 11.9885 8.49868 11.9885 8.49861 11.9885L8.49695 11.9868L8.49389 11.9836L8.48372 11.973L8.4484 11.9358C8.4187 11.9043 8.37711 11.8595 8.32752 11.8044C8.22899 11.695 8.09581 11.5417 7.96068 11.369C7.82759 11.199 7.68151 10.9962 7.56478 10.7893C7.46177 10.6066 7.32275 10.3213 7.3174 10.0121C7.31103 9.64375 7.42755 9.30202 7.56645 9.01694C7.70716 8.72815 7.89369 8.45175 8.0784 8.20382C8.23955 7.98752 8.41344 7.77456 8.56901 7.58403C8.59179 7.55611 8.61419 7.52868 8.6361 7.50179C8.81536 7.28176 8.95826 7.10213 9.05974 6.94973C9.09527 6.89639 9.10409 6.83948 9.09382 6.79053C8.96901 6.19516 8.41961 5.40495 7.72023 4.72058C7.38388 4.39144 7.04345 4.11709 6.75646 3.93039C6.61263 3.83682 6.49341 3.7726 6.40349 3.73402C6.36613 3.71799 6.34017 3.70914 6.32445 3.70436C6.32441 3.70437 6.32449 3.70434 6.32445 3.70436C6.29092 3.71626 6.16838 3.75977 5.94998 3.91653C5.69497 4.09957 5.39372 4.37595 5.0892 4.72345C4.47409 5.42539 3.91768 6.33418 3.6947 7.19027C3.24028 8.93496 3.61933 10.3362 4.61483 12.1654C4.69921 12.3204 4.76667 12.4465 4.82334 12.5525C4.93537 12.762 5.00529 12.8927 5.08054 13.0123C5.17233 13.1582 5.26699 13.277 5.49497 13.505C5.76834 13.7784 5.76834 14.2216 5.49497 14.495C5.2216 14.7683 4.77839 14.7683 4.50502 14.495C4.233 14.2229 4.06178 14.022 3.89562 13.7579C3.7931 13.595 3.6885 13.3995 3.55896 13.1574C3.50576 13.058 3.44835 12.9507 3.38516 12.8346C2.30343 10.847 1.7597 9.06501 2.3399 6.8374C2.63423 5.70735 3.32783 4.60921 4.03628 3.80076C4.39355 3.39306 4.77248 3.03839 5.13364 2.77917ZM11 13.8C11.1856 13.8 11.3637 13.8737 11.495 14.005C11.9605 14.4705 12.5436 14.9417 13.0696 15.2928C13.3326 15.4684 13.5689 15.6055 13.759 15.6959C13.8542 15.7412 13.9217 15.7668 13.9648 15.7812C13.9764 15.7708 13.9902 15.758 14.0061 15.7423C14.0651 15.6841 14.1301 15.6117 14.2191 15.5112L14.2311 15.4976C14.3127 15.4055 14.4104 15.2952 14.5184 15.1838C14.9939 14.6933 15.7089 14.1421 16.8862 14.1421C17.8064 14.1421 18.7464 14.6279 19.4886 15.2699C20.2423 15.9218 20.8923 16.819 21.1875 17.7979C21.4383 18.6296 21.0301 19.3378 20.5479 19.827C20.0623 20.3195 19.3826 20.7253 18.7223 21.0386C17.6138 21.5647 16.3762 21.7598 15.167 21.6311C13.3179 21.4345 10.9609 20.6897 7.57024 18.0525C7.41175 17.9293 7.31383 17.7439 7.30135 17.5435C7.28888 17.3431 7.36305 17.147 7.50502 17.005L10.505 14.005C10.6363 13.8737 10.8143 13.8 11 13.8ZM11.0165 15.4734L9.06328 17.4267C11.9376 19.538 13.8767 20.086 15.315 20.239C16.2789 20.3415 17.2563 20.1847 18.1221 19.7738C18.7208 19.4897 19.232 19.1676 19.5509 18.8441C19.8732 18.5172 19.883 18.321 19.8471 18.2021C19.6423 17.523 19.1653 16.8413 18.5727 16.3288C17.9686 15.8063 17.343 15.5421 16.8862 15.5421C16.2274 15.5421 15.8517 15.8198 15.5236 16.1583C15.438 16.2466 15.3587 16.3361 15.2728 16.433L15.2669 16.4397C15.1839 16.5333 15.0871 16.6425 14.9887 16.7396C14.8107 16.9149 14.485 17.2 14.0173 17.2C13.7153 17.2 13.4005 17.0756 13.1579 16.9603C12.8879 16.8319 12.5911 16.6566 12.2923 16.4572C11.8749 16.1786 11.4294 15.8365 11.0165 15.4734Z" fill="#222628"/>
<path fill-rule="evenodd" clip-rule="evenodd" d="M5.13364 2.77917C5.45981 2.54507 5.89125 2.29999 6.32889 2.29999C6.56157 2.29999 6.78294 2.37341 6.95546 2.44742C7.14003 2.5266 7.33134 2.6342 7.5199 2.75686C7.8977 3.00264 8.30949 3.33842 8.69939 3.71996C9.45251 4.45692 10.2517 5.49017 10.464 6.50328C10.5542 6.93347 10.4608 7.37164 10.225 7.72576C10.0805 7.94273 9.89539 8.1726 9.72149 8.38606C9.69821 8.41464 9.67501 8.44307 9.6519 8.47137C9.49471 8.66397 9.34221 8.85081 9.20107 9.04024C9.03915 9.25758 8.91072 9.45425 8.825 9.63017C8.74778 9.78866 8.72204 9.89654 8.71781 9.96333C8.72291 9.97698 8.73895 10.0213 8.78421 10.1015C8.85255 10.2227 8.9516 10.3637 9.0631 10.5061C9.17257 10.6459 9.28344 10.7738 9.36782 10.8675C9.40968 10.914 9.44425 10.9512 9.46785 10.9763L9.49439 11.0042L9.50051 11.0106L9.50138 11.0115C9.77105 11.2884 9.76535 11.7316 9.48848 12.0014C9.21157 12.2712 8.76839 12.2654 8.49861 11.9885L9 11.5C8.49861 11.9885 8.49868 11.9885 8.49861 11.9885L8.49695 11.9868L8.49389 11.9836L8.48372 11.973L8.4484 11.9358C8.4187 11.9043 8.37711 11.8595 8.32752 11.8044C8.22899 11.695 8.09581 11.5417 7.96068 11.369C7.82759 11.199 7.68151 10.9962 7.56478 10.7893C7.46178 10.6066 7.32275 10.3213 7.3174 10.0121C7.31103 9.64375 7.42755 9.30202 7.56645 9.01694C7.70716 8.72815 7.89369 8.45175 8.0784 8.20382C8.23955 7.98752 8.41344 7.77456 8.56901 7.58403C8.59179 7.55611 8.61419 7.52868 8.6361 7.50179C8.81536 7.28176 8.95826 7.10213 9.05974 6.94973C9.09527 6.89639 9.10409 6.83948 9.09382 6.79053C8.96901 6.19516 8.41961 5.40495 7.72023 4.72058C7.38388 4.39144 7.04345 4.11709 6.75646 3.93039C6.61263 3.83682 6.49341 3.7726 6.40349 3.73402C6.36613 3.71799 6.34017 3.70914 6.32445 3.70436C6.32441 3.70437 6.32449 3.70434 6.32445 3.70436C6.29092 3.71626 6.16838 3.75977 5.94998 3.91653C5.69497 4.09957 5.39372 4.37595 5.0892 4.72345C4.47409 5.42539 3.91768 6.33418 3.6947 7.19027C3.24028 8.93496 3.61933 10.3362 4.61483 12.1654C4.69921 12.3204 4.76666 12.4465 4.82334 12.5525C4.93537 12.762 5.00529 12.8927 5.08054 13.0123C5.17233 13.1582 5.26699 13.277 5.49497 13.505C5.76834 13.7784 5.76834 14.2216 5.49497 14.495C5.2216 14.7683 4.77839 14.7683 4.50502 14.495C4.233 14.2229 4.06178 14.022 3.89562 13.7579C3.7931 13.595 3.6885 13.3995 3.55896 13.1574C3.50576 13.058 3.44835 12.9507 3.38516 12.8346C2.30343 10.847 1.7597 9.06501 2.3399 6.8374C2.63423 5.70735 3.32783 4.60921 4.03628 3.80076C4.39355 3.39306 4.77248 3.03839 5.13364 2.77917ZM11 13.8C11.1856 13.8 11.3637 13.8737 11.495 14.005C11.9605 14.4705 12.5436 14.9417 13.0696 15.2928C13.3326 15.4684 13.5689 15.6055 13.759 15.6959C13.8542 15.7412 13.9217 15.7668 13.9648 15.7812C13.9764 15.7708 13.9902 15.758 14.0061 15.7423C14.0651 15.6841 14.1301 15.6117 14.2191 15.5112L14.2311 15.4977C14.3127 15.4055 14.4104 15.2952 14.5184 15.1838C14.9939 14.6933 15.7089 14.1421 16.8862 14.1421C17.8064 14.1421 18.7464 14.6279 19.4886 15.2699C20.2423 15.9218 20.8923 16.819 21.1875 17.7979C21.4383 18.6296 21.0301 19.3378 20.5479 19.827C20.0623 20.3195 19.3826 20.7253 18.7223 21.0386C17.6138 21.5647 16.3762 21.7598 15.167 21.6311C13.3179 21.4345 10.9609 20.6897 7.57024 18.0525C7.41175 17.9293 7.31383 17.7439 7.30135 17.5435C7.28888 17.3431 7.36305 17.147 7.50502 17.005L10.505 14.005C10.6363 13.8737 10.8143 13.8 11 13.8ZM11.0165 15.4734L9.06328 17.4267C11.9376 19.538 13.8767 20.086 15.315 20.239C16.2789 20.3415 17.2563 20.1847 18.1221 19.7738C18.7208 19.4897 19.232 19.1676 19.5509 18.8441C19.8732 18.5172 19.883 18.321 19.8471 18.2021C19.6423 17.523 19.1653 16.8413 18.5727 16.3288C17.9686 15.8063 17.343 15.5421 16.8862 15.5421C16.2274 15.5421 15.8517 15.8198 15.5236 16.1583C15.438 16.2466 15.3587 16.3361 15.2728 16.433L15.2669 16.4397C15.1839 16.5333 15.0871 16.6425 14.9887 16.7396C14.8107 16.9149 14.485 17.2 14.0173 17.2C13.7153 17.2 13.4005 17.0756 13.1579 16.9603C12.8879 16.8319 12.5911 16.6566 12.2923 16.4572C11.8749 16.1786 11.4294 15.8365 11.0165 15.4734Z" fill="#222628"/>
<path fill-rule="evenodd" clip-rule="evenodd" d="M19.4788 6.51066C19.7432 6.79269 19.7289 7.23568 19.4468 7.50009L4.46819 21.5426C4.18615 21.807 3.74316 21.7927 3.47875 21.5107C3.21434 21.2286 3.22863 20.7856 3.51067 20.5212L18.4893 6.47874C18.7714 6.21433 19.2143 6.22862 19.4788 6.51066Z" fill="#222628"/>
</svg>
