<svg width="24" height="24" viewBox="0 0 24 24" fill="none" xmlns="http://www.w3.org/2000/svg">
<path opacity="0.4" d="M3 10.1878C3 7.80287 4.93341 5.86946 7.3184 5.86946C7.75637 5.86946 8.17799 5.70309 8.49794 5.40402L8.8 5.12167C9.13007 4.81315 9.29511 4.65889 9.47502 4.53421C9.85506 4.27084 10.2908 4.09889 10.7483 4.03177C10.9649 4 11.1908 4 11.6426 4H12H12.3574C12.8092 4 13.0351 4 13.2517 4.03177C13.7092 4.09889 14.1449 4.27084 14.525 4.53421C14.7049 4.65889 14.8699 4.81315 15.2 5.12168L15.5021 5.40402C15.822 5.70309 16.2436 5.86946 16.6816 5.86946C19.0666 5.86946 21 7.80287 21 10.1879V13.9975C21 16.3345 21 17.503 20.5268 18.3873C20.1541 19.0837 19.5837 19.6541 18.8873 20.0268C18.003 20.5 16.8345 20.5 14.4975 20.5H9.50246C7.1655 20.5 5.99702 20.5 5.11271 20.0268C4.41634 19.6541 3.84588 19.0837 3.47323 18.3873C3 17.503 3 16.3345 3 13.9975V10.1878Z" fill="#C4C4C4"/>
<path fill-rule="evenodd" clip-rule="evenodd" d="M11.5924 3.29999C11.6089 3.3 11.6256 3.3 11.6426 3.3H12.3574C12.3743 3.3 12.3911 3.3 12.4076 3.29999C12.8113 3.29993 13.0854 3.29989 13.3533 3.33919C13.9175 3.42196 14.455 3.63404 14.9237 3.95885C15.1462 4.11307 15.3464 4.30025 15.6413 4.576L15.98 4.89263C16.1703 5.07051 16.4211 5.16946 16.6816 5.16946C19.4532 5.16946 21.7 7.41627 21.7 10.1879V14.0299C21.7 15.171 21.7 16.072 21.6383 16.7965C21.5753 17.5366 21.4441 18.1566 21.1439 18.7176C20.7061 19.5358 20.0358 20.2061 19.2176 20.644C18.6566 20.9441 18.0366 21.0753 17.2965 21.1383C16.572 21.2 15.6709 21.2 14.5299 21.2H9.47012C8.32903 21.2 7.42798 21.2 6.70345 21.1383C5.96338 21.0753 5.34335 20.9441 4.78242 20.644C3.96419 20.2061 3.29389 19.5358 2.85603 18.7176C2.55586 18.1566 2.42467 17.5366 2.36166 16.7965C2.29998 16.072 2.29998 15.171 2.29999 14.0299L2.29999 10.1878C2.29999 7.41626 4.5468 5.16946 7.31838 5.16946C7.57887 5.16946 7.82963 5.07051 8.01993 4.89263L8.32198 4.61029C8.33438 4.59871 8.3466 4.58728 8.35867 4.57599C8.65358 4.30025 8.85376 4.11307 9.0763 3.95885C9.54502 3.63404 10.0825 3.42196 10.6467 3.33919C10.9146 3.29989 11.1886 3.29993 11.5924 3.29999ZM11.6426 4.7C11.1705 4.7 11.0042 4.70172 10.8499 4.72436C10.4992 4.77581 10.1651 4.90765 9.87372 5.10956C9.74553 5.19839 9.62289 5.31067 9.27799 5.63306L8.97594 5.9154C8.52632 6.33567 7.93384 6.56946 7.31838 6.56946C5.32 6.56946 3.69999 8.18946 3.69999 10.1878V13.9975C3.69999 15.1781 3.70058 16.0196 3.75662 16.6778C3.81192 17.3273 3.91735 17.7336 4.0904 18.057C4.39784 18.6315 4.86847 19.1021 5.44297 19.4096C5.76635 19.5826 6.17273 19.6881 6.82222 19.7434C7.48041 19.7994 8.32191 19.8 9.50245 19.8H14.4975C15.6781 19.8 16.5196 19.7994 17.1778 19.7434C17.8272 19.6881 18.2336 19.5826 18.557 19.4096C19.1315 19.1021 19.6021 18.6315 19.9096 18.057C20.0826 17.7336 20.1881 17.3273 20.2434 16.6778C20.2994 16.0196 20.3 15.1781 20.3 13.9975V10.1879C20.3 8.18947 18.68 6.56946 16.6816 6.56946C16.0661 6.56946 15.4737 6.33567 15.024 5.9154L14.722 5.63306C14.3771 5.31067 14.2544 5.19839 14.1263 5.10956C13.8349 4.90765 13.5008 4.77581 13.1501 4.72436C12.9958 4.70172 12.8295 4.7 12.3574 4.7H11.6426Z" fill="#222628"/>
<path fill-rule="evenodd" clip-rule="evenodd" d="M12 11.7C10.7297 11.7 9.69999 12.7297 9.69999 14C9.69999 15.2702 10.7297 16.3 12 16.3C13.2702 16.3 14.3 15.2702 14.3 14C14.3 12.7297 13.2702 11.7 12 11.7ZM8.29999 14C8.29999 11.9565 9.95653 10.3 12 10.3C14.0434 10.3 15.7 11.9565 15.7 14C15.7 16.0434 14.0434 17.7 12 17.7C9.95653 17.7 8.29999 16.0434 8.29999 14Z" fill="#222628"/>
<path fill-rule="evenodd" clip-rule="evenodd" d="M15.3 8.99999C15.3 8.61339 15.6134 8.29999 16 8.29999H17C17.3866 8.29999 17.7 8.61339 17.7 8.99999C17.7 9.38659 17.3866 9.69999 17 9.69999H16C15.6134 9.69999 15.3 9.38659 15.3 8.99999Z" fill="#222628"/>
</svg>
