<svg width="24" height="24" viewBox="0 0 24 24" fill="none" xmlns="http://www.w3.org/2000/svg">
<path opacity="0.4" d="M2 11.2C2 8.20021 2 6.70032 2.76393 5.64886C3.01065 5.30928 3.30928 5.01065 3.64886 4.76393C4.70032 4 6.20021 4 9.2 4H14.8C17.7998 4 19.2997 4 20.3511 4.76393C20.6907 5.01065 20.9893 5.30928 21.2361 5.64886C22 6.70032 22 8.20021 22 11.2V12.8C22 15.7998 22 17.2997 21.2361 18.3511C20.9893 18.6907 20.6907 18.9893 20.3511 19.2361C19.2997 20 17.7998 20 14.8 20H9.2C6.20021 20 4.70032 20 3.64886 19.2361C3.30928 18.9893 3.01065 18.6907 2.76393 18.3511C2 17.2997 2 15.7998 2 12.8V11.2Z" fill="#C4C4C4"/>
<path fill-rule="evenodd" clip-rule="evenodd" d="M9.15823 3.29999H14.8417C16.3062 3.29998 17.4625 3.29997 18.3816 3.39955C19.3225 3.5015 20.0976 3.7145 20.7626 4.19761C21.1616 4.4875 21.5125 4.83839 21.8024 5.2374C22.2855 5.90234 22.4985 6.67746 22.6004 7.6184C22.7 8.53753 22.7 9.69376 22.7 11.1583V12.8417C22.7 14.3062 22.7 15.4624 22.6004 16.3816C22.4985 17.3225 22.2855 18.0976 21.8024 18.7626C21.5125 19.1616 21.1616 19.5125 20.7626 19.8024C20.0976 20.2855 19.3225 20.4985 18.3816 20.6004C17.4624 20.7 16.3062 20.7 14.8417 20.7H9.15829C7.69376 20.7 6.53753 20.7 5.6184 20.6004C4.67746 20.4985 3.90234 20.2855 3.2374 19.8024C2.83839 19.5125 2.4875 19.1616 2.19761 18.7626C1.7145 18.0976 1.5015 17.3225 1.39955 16.3816C1.29997 15.4625 1.29998 14.3062 1.29999 12.8418V11.1582C1.29998 9.69373 1.29997 8.53751 1.39955 7.6184C1.5015 6.67746 1.7145 5.90234 2.19761 5.2374C2.4875 4.83839 2.83839 4.4875 3.2374 4.19761C3.90234 3.7145 4.67746 3.5015 5.6184 3.39955C6.53751 3.29997 7.69373 3.29998 9.15823 3.29999ZM5.7692 4.79141C4.94737 4.88045 4.44681 5.04941 4.0603 5.33023C3.78014 5.53377 3.53377 5.78014 3.33023 6.0603C3.04941 6.44681 2.88045 6.94737 2.79141 7.7692C2.70095 8.60412 2.69999 9.6845 2.69999 11.2V12.8C2.69999 14.3155 2.70095 15.3959 2.79141 16.2308C2.88045 17.0526 3.04941 17.5532 3.33023 17.9397C3.53377 18.2198 3.78014 18.4662 4.0603 18.6697C4.44681 18.9506 4.94737 19.1195 5.7692 19.2086C6.60412 19.299 7.6845 19.3 9.19999 19.3H14.8C16.3155 19.3 17.3959 19.299 18.2308 19.2086C19.0526 19.1195 19.5532 18.9506 19.9397 18.6697C20.2198 18.4662 20.4662 18.2198 20.6697 17.9397C20.9506 17.5532 21.1195 17.0526 21.2086 16.2308C21.299 15.3959 21.3 14.3155 21.3 12.8V11.2C21.3 9.6845 21.299 8.60412 21.2086 7.7692C21.1195 6.94737 20.9506 6.44681 20.6697 6.0603C20.4662 5.78014 20.2198 5.53377 19.9397 5.33023C19.5532 5.04941 19.0526 4.88045 18.2308 4.79141C17.3959 4.70095 16.3155 4.69999 14.8 4.69999H9.19999C7.6845 4.69999 6.60412 4.70095 5.7692 4.79141Z" fill="#222628"/>
<path fill-rule="evenodd" clip-rule="evenodd" d="M22 9.69996C22 10.0866 21.6866 10.4 21.3 10.4L2.7 10.4C2.3134 10.4 2 10.0866 2 9.69996C2 9.31336 2.3134 8.99996 2.7 8.99996L21.3 8.99996C21.6866 8.99996 22 9.31336 22 9.69996Z" fill="#222628"/>
<path fill-rule="evenodd" clip-rule="evenodd" d="M20 16.7C20 17.0866 19.6866 17.4 19.3 17.4H16.7C16.3134 17.4 16 17.0866 16 16.7C16 16.3134 16.3134 16 16.7 16H19.3C19.6866 16 20 16.3134 20 16.7Z" fill="#222628"/>
</svg>
