<svg width="24" height="24" viewBox="0 0 24 24" fill="none" xmlns="http://www.w3.org/2000/svg">
<path d="M5.5 8H15.6C17.8498 8 18.9748 8 19.7634 8.57295C20.018 8.75799 20.242 8.98196 20.4271 9.23664C21 10.0252 21 11.1502 21 13.4V13.6C21 15.8498 21 16.9748 20.4271 17.7634C20.242 18.018 20.018 18.242 19.7634 18.4271C18.9748 19 17.8498 19 15.6 19H11.6462C9.63971 19 8.63646 19 7.88911 18.5122C7.64655 18.3538 7.4282 18.1612 7.24086 17.9403C6.66364 17.2596 6.53854 16.2642 6.28836 14.2733L5.5 8Z" fill="#C4C4C4" fill-opacity="0.4"/>
<path fill-rule="evenodd" clip-rule="evenodd" d="M18.1542 8.76753C17.5397 8.70095 16.7405 8.69999 15.6 8.69999H6.29346L6.98288 14.186C7.10979 15.1959 7.19922 15.9007 7.32398 16.4405C7.44571 16.9671 7.58663 17.2657 7.77473 17.4875C7.91836 17.6569 8.08576 17.8046 8.27172 17.926C8.51526 18.0849 8.82908 18.1875 9.36683 18.2427C9.91794 18.2991 10.6284 18.3 11.6462 18.3H15.6C16.7405 18.3 17.5397 18.299 18.1542 18.2324C18.7557 18.1673 19.0968 18.0461 19.3519 17.8607C19.5471 17.7189 19.7189 17.5472 19.8607 17.3519C20.0461 17.0968 20.1673 16.7557 20.2324 16.1542C20.299 15.5397 20.3 14.7405 20.3 13.6V13.4C20.3 12.2595 20.299 11.4603 20.2324 10.8457C20.1673 10.2443 20.0461 9.90316 19.8607 9.64808C19.7189 9.45282 19.5471 9.28111 19.3519 9.13925C19.0968 8.95392 18.7557 8.8327 18.1542 8.76753ZM18.305 7.37568C19.0256 7.45375 19.6413 7.619 20.1748 8.00663C20.4889 8.23484 20.7651 8.51107 20.9933 8.82518C21.381 9.3587 21.5462 9.97435 21.6243 10.6949C21.7 11.3938 21.7 12.2689 21.7 13.3594V13.6406C21.7 14.731 21.7 15.6062 21.6243 16.305C21.5462 17.0256 21.381 17.6413 20.9933 18.1748C20.7651 18.4889 20.4889 18.7651 20.1748 18.9934C19.6413 19.381 19.0256 19.5462 18.305 19.6243C17.6062 19.7 16.7311 19.7 15.6407 19.7H11.6084C10.6372 19.7 9.85493 19.7 9.2241 19.6354C8.57176 19.5685 8.01028 19.4272 7.50646 19.0983C7.20731 18.903 6.93801 18.6655 6.70696 18.393C6.31783 17.9341 6.10761 17.3946 5.95994 16.7557C5.81714 16.1379 5.7196 15.3617 5.59851 14.3981L4.70651 7.29999L15.6407 7.29999C16.7311 7.29998 17.6062 7.29997 18.305 7.37568Z" fill="#222628"/>
<path fill-rule="evenodd" clip-rule="evenodd" d="M1.29999 5.99999C1.29999 5.61339 1.61339 5.29999 1.99999 5.29999H3.9338C4.53094 5.29999 5.08431 5.6133 5.39154 6.12535L6.60023 8.13984L5.39974 8.86013L4.19105 6.84564C4.13683 6.75528 4.03918 6.69999 3.9338 6.69999H1.99999C1.61339 6.69999 1.29999 6.38659 1.29999 5.99999Z" fill="#222628"/>
<path d="M18.5 21.5C18.5 22.0523 18.0523 22.5 17.5 22.5C16.9477 22.5 16.5 22.0523 16.5 21.5C16.5 20.9477 16.9477 20.5 17.5 20.5C18.0523 20.5 18.5 20.9477 18.5 21.5Z" fill="#222628"/>
<path d="M11.5 21.5C11.5 22.0523 11.0523 22.5 10.5 22.5C9.94772 22.5 9.5 22.0523 9.5 21.5C9.5 20.9477 9.94772 20.5 10.5 20.5C11.0523 20.5 11.5 20.9477 11.5 21.5Z" fill="#222628"/>
<path fill-rule="evenodd" clip-rule="evenodd" d="M18 12.7C18 13.0866 17.6866 13.4 17.3 13.4H14.7C14.3134 13.4 14 13.0866 14 12.7C14 12.3134 14.3134 12 14.7 12H17.3C17.6866 12 18 12.3134 18 12.7Z" fill="#222628"/>
</svg>
