<svg width="24" height="24" viewBox="0 0 24 24" fill="none" xmlns="http://www.w3.org/2000/svg">
<path opacity="0.4" d="M12.4 22C10.1502 22 9.02524 22 8.23664 21.4271C7.98196 21.242 7.75799 21.018 7.57295 20.7634C7 19.9748 7 18.8498 7 16.6L7 8.4C7 6.15016 7 5.02524 7.57295 4.23664C7.75799 3.98196 7.98196 3.75799 8.23664 3.57295C9.02524 3 10.1502 3 12.4 3L12.6 3C14.8498 3 15.9748 3 16.7634 3.57295C17.018 3.75799 17.242 3.98196 17.4271 4.23664C18 5.02524 18 6.15016 18 8.4L18 16.6C18 18.8498 18 19.9748 17.4271 20.7634C17.242 21.018 17.018 21.242 16.7634 21.4271C15.9748 22 14.8498 22 12.6 22L12.4 22Z" fill="#C4C4C4"/>
<path fill-rule="evenodd" clip-rule="evenodd" d="M10.3691 12.8032C10.4857 13.0458 10.7309 13.2 11 13.2L12.5436 13.2L11.4534 14.5627C11.2119 14.8646 11.2608 15.3051 11.5627 15.5466C11.8646 15.7881 12.3051 15.7392 12.5466 15.4373L14.5466 12.9373C14.7147 12.7272 14.7475 12.4393 14.6309 12.1968C14.5143 11.9543 14.2691 11.8 14 11.8L12.4564 11.8L13.5466 10.4373C13.7881 10.1354 13.7392 9.69491 13.4373 9.45341C13.1354 9.2119 12.6949 9.26084 12.4534 9.56273L10.4534 12.0627C10.2853 12.2728 10.2525 12.5607 10.3691 12.8032Z" fill="#222628"/>
<path fill-rule="evenodd" clip-rule="evenodd" d="M8.4 8.4L8.4 16.6C8.4 17.7561 8.40192 18.5107 8.46347 19.0788C8.52219 19.6208 8.62139 19.8246 8.70557 19.9405C8.80426 20.0763 8.92371 20.1957 9.05954 20.2944C9.17541 20.3786 9.37924 20.4778 9.92115 20.5365C10.4893 20.5981 11.2439 20.6 12.4 20.6L12.6 20.6C13.7561 20.6 14.5107 20.5981 15.0788 20.5365C15.6208 20.4778 15.8246 20.3786 15.9405 20.2944C16.0763 20.1957 16.1957 20.0763 16.2944 19.9405C16.3786 19.8246 16.4778 19.6208 16.5365 19.0788C16.5981 18.5107 16.6 17.7561 16.6 16.6L16.6 8.4C16.6 7.24389 16.5981 6.48927 16.5365 5.92115C16.4778 5.37924 16.3786 5.17541 16.2944 5.05954C16.1957 4.92371 16.0763 4.80426 15.9405 4.70557C15.8246 4.62139 15.6208 4.52219 15.0788 4.46347C14.5107 4.40192 13.7561 4.4 12.6 4.4L12.4 4.4C11.2439 4.4 10.4893 4.40192 9.92115 4.46347C9.37924 4.52219 9.17541 4.62139 9.05954 4.70557C8.92371 4.80426 8.80426 4.92371 8.70557 5.05954C8.62139 5.17541 8.52219 5.37924 8.46347 5.92115C8.40192 6.48927 8.4 7.24389 8.4 8.4ZM8.23664 21.4271C9.02524 22 10.1502 22 12.4 22L12.6 22C14.8498 22 15.9748 22 16.7634 21.4271C17.018 21.242 17.242 21.018 17.4271 20.7634C18 19.9748 18 18.8498 18 16.6L18 8.4C18 6.15016 18 5.02524 17.4271 4.23664C17.242 3.98196 17.018 3.75799 16.7634 3.57295C15.9748 3 14.8498 3 12.6 3L12.4 3C10.1502 3 9.02524 3 8.23664 3.57295C7.98196 3.75799 7.75799 3.98196 7.57295 4.23664C7 5.02524 7 6.15016 7 8.4L7 16.6C7 18.8498 7 19.9748 7.57295 20.7634C7.75799 21.018 7.98196 21.242 8.23664 21.4271Z" fill="#222628"/>
<path fill-rule="evenodd" clip-rule="evenodd" d="M11.6439 3.98463C11.7212 4 11.8141 4 12 4L13 4C13.1859 4 13.2788 4 13.3561 3.98463C13.6734 3.9215 13.9215 3.67342 13.9846 3.35607C14 3.27879 14 3.18586 14 3C14 2.81414 14 2.72121 13.9846 2.64393C13.9215 2.32658 13.6734 2.0785 13.3561 2.01537C13.2788 2 13.1859 2 13 2L12 2C11.8141 2 11.7212 2 11.6439 2.01537C11.3266 2.0785 11.0785 2.32658 11.0154 2.64393C11 2.72121 11 2.81414 11 3C11 3.18586 11 3.27879 11.0154 3.35607C11.0785 3.67342 11.3266 3.9215 11.6439 3.98463Z" fill="#222628"/>
</svg>
