<svg width="24" height="24" viewBox="0 0 24 24" fill="none" xmlns="http://www.w3.org/2000/svg">
<path d="M14.3806 3H10.339C6.19458 3 2.83484 6.35974 2.83484 10.5042L2.95934 16.1548C2.98624 17.3758 2.80256 18.5923 2.41634 19.751C2.23783 20.2865 2.72654 20.8057 3.27189 20.6598L3.73752 20.5352C5.04148 20.1865 6.3877 20.0212 7.7373 20.0441L11.025 20.1H14.35C18.0227 20.1 21 17.1227 21 13.45L21 9.61936C21 5.96359 18.0364 3 14.3806 3Z" fill="#C4C4C4" fill-opacity="0.4"/>
<path fill-rule="evenodd" clip-rule="evenodd" d="M2.13484 10.5042C2.13484 5.97313 5.80799 2.29999 10.339 2.29999H14.3806C18.423 2.29999 21.7 5.57698 21.7 9.61934V13.45C21.7 17.5093 18.4093 20.8 14.35 20.8H11.0131L7.7254 20.744C6.44085 20.7222 5.15952 20.8795 3.9184 21.2115L3.45277 21.336C2.36881 21.6259 1.39744 20.5941 1.75227 19.5296C2.11305 18.4472 2.28465 17.3108 2.25951 16.1702L2.13501 10.5196L2.83484 10.5042H2.13484ZM3.53485 10.4967L3.65917 16.1393C3.68785 17.4408 3.49207 18.7374 3.08042 19.9723C3.07975 19.9743 3.07937 19.9758 3.07916 19.9768C3.07969 19.9778 3.08067 19.9793 3.08236 19.9811C3.08405 19.9829 3.0855 19.984 3.08644 19.9845C3.08746 19.9844 3.08897 19.9841 3.09101 19.9836L3.55665 19.859C4.92346 19.4934 6.33455 19.3201 7.7492 19.3442L11.031 19.4H14.35C17.6361 19.4 20.3 16.7361 20.3 13.45V9.61934C20.3 6.35017 17.6498 3.69999 14.3806 3.69999H10.339C6.5837 3.69999 3.53891 6.74226 3.53485 10.4967Z" fill="#222628"/>
<path d="M9 12C9 12.5523 8.55228 13 8 13C7.44772 13 7 12.5523 7 12C7 11.4477 7.44772 11 8 11C8.55228 11 9 11.4477 9 12Z" fill="#222628"/>
<path d="M13 12C13 12.5523 12.5523 13 12 13C11.4477 13 11 12.5523 11 12C11 11.4477 11.4477 11 12 11C12.5523 11 13 11.4477 13 12Z" fill="#222628"/>
<path d="M17 12C17 12.5523 16.5523 13 16 13C15.4477 13 15 12.5523 15 12C15 11.4477 15.4477 11 16 11C16.5523 11 17 11.4477 17 12Z" fill="#222628"/>
</svg>
