<svg width="24" height="24" viewBox="0 0 24 24" fill="none" xmlns="http://www.w3.org/2000/svg">
<path opacity="0.4" d="M3 11C3 7.73081 3 6.09621 3.67277 4.86413C4.17807 3.93873 4.93873 3.17807 5.86413 2.67277C7.09621 2 8.73081 2 12 2C15.2692 2 16.9038 2 18.1359 2.67277C19.0613 3.17807 19.8219 3.93873 20.3272 4.86413C21 6.09621 21 7.73081 21 11V13C21 16.2692 21 17.9038 20.3272 19.1359C19.8219 20.0613 19.0613 20.8219 18.1359 21.3272C16.9038 22 15.2692 22 12 22C8.73081 22 7.09621 22 5.86413 21.3272C4.93873 20.8219 4.17807 20.0613 3.67277 19.1359C3 17.9038 3 16.2692 3 13V11Z" fill="#C4C4C4"/>
<path fill-rule="evenodd" clip-rule="evenodd" d="M11.9664 1.29999H12.0336C13.6398 1.29998 14.8907 1.29998 15.8922 1.38669C16.9097 1.47478 17.735 1.65633 18.4713 2.05838C19.5145 2.628 20.372 3.48546 20.9416 4.52864C21.3437 5.26494 21.5252 6.0903 21.6133 7.10775C21.7 8.1093 21.7 9.36026 21.7 10.9664V13.0335C21.7 14.6397 21.7 15.8907 21.6133 16.8922C21.5252 17.9097 21.3437 18.735 20.9416 19.4713C20.372 20.5145 19.5145 21.372 18.4713 21.9416C17.735 22.3436 16.9097 22.5252 15.8922 22.6133C14.8907 22.7 13.6397 22.7 12.0336 22.7H11.9665C10.3603 22.7 9.10931 22.7 8.10777 22.6133C7.09032 22.5252 6.26496 22.3436 5.52866 21.9416C4.48548 21.372 3.62801 20.5145 3.05839 19.4713C2.65634 18.735 2.4748 17.9097 2.38671 16.8922C2.3 15.8907 2.3 14.6398 2.3 13.0336V10.9664C2.3 9.36022 2.3 8.10928 2.38671 7.10775C2.4748 6.0903 2.65634 5.26494 3.05839 4.52864C3.62801 3.48546 4.48548 2.628 5.52866 2.05838C6.26496 1.65633 7.09032 1.47478 8.10777 1.38669C9.1093 1.29998 10.3602 1.29998 11.9664 1.29999ZM8.22853 2.78147C7.30336 2.86158 6.69539 3.01641 6.19961 3.28713C5.39198 3.72812 4.72814 4.39197 4.28714 5.19959C4.01643 5.69537 3.86159 6.30335 3.78149 7.22851C3.70061 8.16262 3.7 9.35312 3.7 11V13C3.7 14.6469 3.70061 15.8374 3.78149 16.7715C3.86159 17.6966 4.01643 18.3046 4.28714 18.8004C4.72814 19.608 5.39198 20.2719 6.19961 20.7128C6.69539 20.9836 7.30336 21.1384 8.22853 21.2185C9.16264 21.2994 10.3531 21.3 12 21.3C13.6469 21.3 14.8374 21.2994 15.7715 21.2185C16.6966 21.1384 17.3046 20.9836 17.8004 20.7128C18.608 20.2719 19.2719 19.608 19.7129 18.8004C19.9836 18.3046 20.1384 17.6966 20.2185 16.7715C20.2994 15.8374 20.3 14.6469 20.3 13V11C20.3 9.35312 20.2994 8.16262 20.2185 7.22851C20.1384 6.30335 19.9836 5.69537 19.7129 5.19959C19.2719 4.39197 18.608 3.72812 17.8004 3.28713C17.3046 3.01641 16.6966 2.86158 15.7715 2.78147C14.8374 2.7006 13.6469 2.69999 12 2.69999C10.3531 2.69999 9.16264 2.7006 8.22853 2.78147Z" fill="#222628"/>
<path fill-rule="evenodd" clip-rule="evenodd" d="M10.479 7.48956C10.7609 7.75413 10.775 8.19712 10.5104 8.47901L10 7.99997C10.5104 8.47901 10.5104 8.47899 10.5104 8.47901L10.4284 8.56614C10.3764 8.62127 10.3021 8.69992 10.2126 8.79427C10.0337 8.98281 9.79339 9.23475 9.54873 9.48716C9.30512 9.73849 9.05296 9.9947 8.85178 10.1899C8.75239 10.2863 8.65783 10.3753 8.57973 10.443C8.54219 10.4755 8.49656 10.5136 8.44968 10.5471C8.42728 10.5631 8.39001 10.5886 8.34377 10.613C8.34317 10.6134 8.34239 10.6138 8.34144 10.6143C8.31734 10.6273 8.18242 10.7 8 10.7C7.80621 10.7 7.66307 10.6199 7.63084 10.6019C7.62994 10.6014 7.62914 10.601 7.62841 10.6006C7.57335 10.57 7.52738 10.5367 7.49644 10.513C7.43254 10.4641 7.36799 10.4061 7.31189 10.3532C7.19652 10.2445 7.06371 10.1071 6.9435 9.97901C6.82141 9.84893 6.7042 9.7198 6.61803 9.6238C6.5748 9.57563 6.53903 9.53542 6.51395 9.50711L6.48469 9.47399L6.47384 9.46166C6.21892 9.17102 6.24778 8.72863 6.53843 8.47371C6.82906 8.2188 7.27132 8.24775 7.52624 8.53837C7.52625 8.53838 7.52623 8.53837 7.52624 8.53837L7.53507 8.54841L7.5619 8.57877C7.58527 8.60515 7.61899 8.64307 7.6599 8.68865C7.74203 8.78014 7.85177 8.90102 7.96432 9.02093C7.97718 9.03463 7.98997 9.04822 8.00268 9.06165C8.16491 8.90087 8.35392 8.70833 8.54346 8.51278C8.78343 8.2652 9.02006 8.01714 9.19698 7.83067C9.28536 7.73752 9.35866 7.65993 9.40981 7.60568L9.48931 7.52123C9.48931 7.52122 9.48959 7.52093 9.72249 7.73952L9.48931 7.52123C9.75388 7.23934 10.1971 7.22499 10.479 7.48956Z" fill="#222628"/>
<path fill-rule="evenodd" clip-rule="evenodd" d="M10.479 14.4896C10.7609 14.7541 10.775 15.1971 10.5104 15.479L10 15C10.5104 15.479 10.5104 15.479 10.5104 15.479L10.4284 15.5661C10.3764 15.6213 10.3021 15.6999 10.2126 15.7943C10.0337 15.9828 9.79339 16.2347 9.54873 16.4872C9.30512 16.7385 9.05296 16.9947 8.85178 17.1899C8.75239 17.2863 8.65783 17.3753 8.57973 17.443C8.54219 17.4755 8.49656 17.5136 8.44968 17.5471C8.42728 17.5631 8.39001 17.5886 8.34377 17.613C8.34317 17.6134 8.34239 17.6138 8.34144 17.6143C8.31734 17.6273 8.18242 17.7 8 17.7C7.80621 17.7 7.66307 17.6199 7.63084 17.6019C7.62994 17.6014 7.62914 17.601 7.62841 17.6006C7.57335 17.57 7.52738 17.5367 7.49644 17.513C7.43254 17.4641 7.36799 17.4061 7.31189 17.3532C7.19652 17.2445 7.06371 17.1071 6.9435 16.979C6.82141 16.8489 6.7042 16.7198 6.61803 16.6238C6.5748 16.5756 6.53903 16.5354 6.51395 16.5071L6.48469 16.474L6.47384 16.4617C6.21892 16.171 6.24778 15.7286 6.53843 15.4737C6.82906 15.2188 7.27132 15.2478 7.52624 15.5384C7.52625 15.5384 7.52623 15.5384 7.52624 15.5384L7.53507 15.5484L7.5619 15.5788C7.58527 15.6052 7.61899 15.6431 7.6599 15.6886C7.74203 15.7801 7.85177 15.901 7.96432 16.0209C7.97718 16.0346 7.98997 16.0482 8.00268 16.0616C8.16491 15.9009 8.35392 15.7083 8.54346 15.5128C8.78343 15.2652 9.02006 15.0171 9.19698 14.8307C9.28536 14.7375 9.35866 14.6599 9.40981 14.6057L9.48931 14.5212C9.48931 14.5212 9.48959 14.5209 9.72249 14.7395L9.48931 14.5212C9.75388 14.2393 10.1971 14.225 10.479 14.4896Z" fill="#222628"/>
<path fill-rule="evenodd" clip-rule="evenodd" d="M17.7 16.5C17.7 16.8866 17.3866 17.2 17 17.2L13 17.2C12.6134 17.2 12.3 16.8866 12.3 16.5C12.3 16.1134 12.6134 15.8 13 15.8L17 15.8C17.3866 15.8 17.7 16.1134 17.7 16.5Z" fill="#222628"/>
<path fill-rule="evenodd" clip-rule="evenodd" d="M17.7 9.50001C17.7 9.88661 17.3866 10.2 17 10.2L13 10.2C12.6134 10.2 12.3 9.88661 12.3 9.50001C12.3 9.11341 12.6134 8.80001 13 8.80001L17 8.80001C17.3866 8.80001 17.7 9.11341 17.7 9.50001Z" fill="#222628"/>
</svg>
