<svg width="24" height="24" viewBox="0 0 24 24" fill="none" xmlns="http://www.w3.org/2000/svg">
<path opacity="0.4" d="M3 12C3 7.02944 7.02944 3 12 3C16.9706 3 21 7.02944 21 12C21 16.9706 16.9706 21 12 21C7.02944 21 3 16.9706 3 12Z" fill="#C4C4C4"/>
<path fill-rule="evenodd" clip-rule="evenodd" d="M2.3 12C2.3 6.64283 6.64284 2.29999 12 2.29999C17.3572 2.29999 21.7 6.64283 21.7 12C21.7 17.3571 17.3572 21.7 12 21.7C6.64284 21.7 2.3 17.3571 2.3 12ZM12 3.69999C7.41604 3.69999 3.7 7.41602 3.7 12C3.7 16.584 7.41604 20.3 12 20.3C16.584 20.3 20.3 16.584 20.3 12C20.3 7.41602 16.584 3.69999 12 3.69999Z" fill="#222628"/>
<path fill-rule="evenodd" clip-rule="evenodd" d="M12 7.29999C12.3866 7.29999 12.7 7.61339 12.7 7.99999V12.5938L15.8473 14.3922C16.183 14.584 16.2996 15.0116 16.1078 15.3473C15.916 15.6829 15.4884 15.7996 15.1527 15.6078L11.6527 13.6078C11.4346 13.4831 11.3 13.2512 11.3 13V7.99999C11.3 7.61339 11.6134 7.29999 12 7.29999Z" fill="#222628"/>
</svg>
