<svg width="24" height="24" viewBox="0 0 24 24" fill="none" xmlns="http://www.w3.org/2000/svg">
<path opacity="0.4" d="M19 9C19 8.5 17.7658 4 12 4C6.23419 4 5 8.5 5 9C5 9.5 1.99997 10.5 2 14C2.00003 16.6587 4.30821 17.8748 5.41781 18.3058C5.79889 18.4539 6.20672 18.5 6.61553 18.5H8H16H17.3845C17.7933 18.5 18.2011 18.4539 18.5822 18.3059C19.6918 17.8748 22 16.6587 22 14C22 10.5 19 9.5 19 9Z" fill="#C4C4C4"/>
<path fill-rule="evenodd" clip-rule="evenodd" d="M14.1309 18.1968C14.0144 17.9542 13.7691 17.8 13.5 17.8L12.2363 17.8L13.1003 16.3601C13.2992 16.0286 13.1917 15.5986 12.8602 15.3997C12.5286 15.2008 12.0987 15.3083 11.8998 15.6398L10.3998 18.1398C10.27 18.3561 10.2666 18.6254 10.3909 18.8449C10.5151 19.0643 10.7478 19.2 11 19.2L12.0436 19.2L10.9534 20.5627C10.7119 20.8646 10.7608 21.3051 11.0627 21.5466C11.3646 21.7881 11.8051 21.7392 12.0466 21.4373L14.0466 18.9373C14.2147 18.7272 14.2475 18.4393 14.1309 18.1968Z" fill="#222628"/>
<path fill-rule="evenodd" clip-rule="evenodd" d="M5.70022 8.50842C5.69999 8.50841 5.7 8.50556 5.7 8.49999C5.7 8.70685 5.62328 8.86832 5.56219 8.96741C5.50021 9.06796 5.42626 9.14962 5.36607 9.20981C5.24812 9.32776 5.09596 9.44758 4.961 9.55254C4.93318 9.57417 4.90495 9.59605 4.87634 9.61822C4.60521 9.82831 4.30054 10.0644 3.99496 10.37C3.33864 11.0263 2.69999 11.9828 2.7 13.5C2.70002 15.6756 4.58618 16.7318 5.67127 17.1533C5.94224 17.2586 6.25517 17.3 6.61554 17.3H8C8.3866 17.3 8.7 17.6134 8.7 18C8.7 18.3866 8.3866 18.7 8 18.7H6.61554C6.15828 18.7 5.65554 18.6491 5.16436 18.4583C4.03026 18.0178 1.30003 16.6419 1.3 13.5C1.29998 11.5172 2.16133 10.2237 3.00502 9.38001C3.37676 9.00827 3.74942 8.71995 4.01776 8.51233C4.04695 8.48975 4.07491 8.46812 4.10149 8.44744C4.2016 8.36958 4.2717 8.3133 4.32077 8.27076C4.33675 8.17044 4.3606 8.06499 4.38738 7.96331C4.44089 7.76012 4.52216 7.51269 4.63712 7.23777C4.86684 6.68836 5.23802 6.0126 5.80887 5.35401C6.9671 4.01773 8.90807 2.79999 12 2.79999C15.0919 2.79999 17.0329 4.01773 18.1911 5.35401C18.762 6.0126 19.1332 6.68836 19.3629 7.23777C19.4778 7.51269 19.5591 7.76012 19.6126 7.96331C19.6394 8.06499 19.6633 8.17043 19.6792 8.27076C19.7283 8.3133 19.7984 8.36958 19.8985 8.44744C19.9251 8.46812 19.9531 8.48975 19.9822 8.51234C20.2506 8.71995 20.6232 9.00827 20.995 9.38001C21.8387 10.2237 22.7 11.5172 22.7 13.5C22.7 16.6419 19.9697 18.0178 18.8356 18.4583C18.3445 18.6491 17.8417 18.7 17.3845 18.7H16C15.6134 18.7 15.3 18.3866 15.3 18C15.3 17.6134 15.6134 17.3 16 17.3H17.3845C17.7448 17.3 18.0578 17.2586 18.3287 17.1533C19.4138 16.7318 21.3 15.6756 21.3 13.5C21.3 11.9828 20.6614 11.0263 20.005 10.37C19.6995 10.0644 19.3948 9.82831 19.1237 9.61822C19.0951 9.59605 19.0668 9.57417 19.039 9.55253C18.904 9.44757 18.7519 9.32776 18.6339 9.20981C18.5737 9.14962 18.4998 9.06796 18.4378 8.96741C18.3767 8.86831 18.3 8.70685 18.3 8.49999C18.3 8.50556 18.3 8.50841 18.2998 8.50842C18.2988 8.50851 18.2929 8.44926 18.2588 8.31987C18.2223 8.18126 18.1621 7.99509 18.0713 7.77783C17.8894 7.34286 17.5917 6.79987 17.1332 6.27097C16.2329 5.23225 14.6739 4.19999 12 4.19999C9.32613 4.19999 7.7671 5.23225 6.86678 6.27097C6.40835 6.79987 6.11063 7.34286 5.92875 7.77783C5.83791 7.99509 5.77772 8.18126 5.74121 8.31987C5.70714 8.44926 5.70124 8.50851 5.70022 8.50842Z" fill="#222628"/>
</svg>
