<svg width="24" height="24" viewBox="0 0 24 24" fill="none" xmlns="http://www.w3.org/2000/svg">
<path opacity="0.4" d="M19 9C19 8.5 17.7658 4 12 4C6.23419 4 5 8.5 5 9C5 9.5 1.99997 10.5 2 14C2.00003 16.6587 4.30821 17.8748 5.41781 18.3058C5.79889 18.4539 6.20672 18.5 6.61553 18.5H8H16H17.3845C17.7933 18.5 18.2011 18.4539 18.5822 18.3059C19.6918 17.8748 22 16.6587 22 14C22 10.5 19 9.5 19 9Z" fill="#C4C4C4"/>
<path fill-rule="evenodd" clip-rule="evenodd" d="M12.7 14.7L12.7 21C12.7 21.3866 12.3866 21.7 12 21.7C11.6134 21.7 11.3 21.3866 11.3 21L11.3 14.7C11.3 14.3134 11.6134 14 12 14C12.3866 14 12.7 14.3134 12.7 14.7Z" fill="#222628"/>
<path fill-rule="evenodd" clip-rule="evenodd" d="M12.4243 13.4243C12.6586 13.6586 12.6586 14.0385 12.4243 14.2728L10.2728 16.4243C10.0385 16.6586 9.65858 16.6586 9.42426 16.4243C9.18995 16.19 9.18995 15.8101 9.42426 15.5758L11.5757 13.4243C11.81 13.19 12.1899 13.19 12.4243 13.4243Z" fill="#222628"/>
<path fill-rule="evenodd" clip-rule="evenodd" d="M11.5757 13.4243C11.3414 13.6586 11.3414 14.0385 11.5757 14.2728L13.7272 16.4243C13.9615 16.6586 14.3414 16.6586 14.5757 16.4243C14.81 16.19 14.81 15.8101 14.5757 15.5758L12.4243 13.4243C12.1899 13.19 11.81 13.19 11.5757 13.4243Z" fill="#222628"/>
<path fill-rule="evenodd" clip-rule="evenodd" d="M5.7002 8.50842C5.69998 8.50841 5.69999 8.50556 5.69999 8.49999C5.69999 8.70685 5.62326 8.86832 5.56217 8.96741C5.50019 9.06796 5.42624 9.14962 5.36605 9.20981C5.2481 9.32776 5.09594 9.44758 4.96099 9.55254C4.93317 9.57417 4.90493 9.59605 4.87633 9.61822C4.60519 9.82831 4.30053 10.0644 3.99495 10.37C3.33862 11.0263 2.69997 11.9828 2.69999 13.5C2.70001 15.6756 4.58616 16.7318 5.67126 17.1533C5.94222 17.2586 6.25516 17.3 6.61552 17.3H7.99999C8.38659 17.3 8.69999 17.6134 8.69999 18C8.69999 18.3866 8.38659 18.7 7.99999 18.7H6.61552C6.15826 18.7 5.65553 18.6491 5.16435 18.4583C4.03024 18.0178 1.30002 16.6419 1.29999 13.5C1.29997 11.5172 2.16132 10.2237 3.005 9.38001C3.37674 9.00827 3.7494 8.71995 4.01774 8.51233C4.04693 8.48975 4.07489 8.46812 4.10148 8.44744C4.20158 8.36958 4.27169 8.3133 4.32075 8.27076C4.33674 8.17044 4.36058 8.06499 4.38736 7.96331C4.44088 7.76012 4.52215 7.51269 4.6371 7.23777C4.86682 6.68836 5.23801 6.0126 5.80885 5.35401C6.96708 4.01773 8.90806 2.79999 12 2.79999C15.0919 2.79999 17.0329 4.01773 18.1911 5.35401C18.762 6.0126 19.1332 6.68836 19.3629 7.23777C19.4778 7.51269 19.5591 7.76012 19.6126 7.96331C19.6394 8.06499 19.6632 8.17043 19.6792 8.27076C19.7283 8.3133 19.7984 8.36958 19.8985 8.44744C19.9251 8.46812 19.953 8.48975 19.9822 8.51234C20.2506 8.71995 20.6232 9.00827 20.995 9.38001C21.8386 10.2237 22.7 11.5172 22.7 13.5C22.7 16.6419 19.9697 18.0178 18.8356 18.4583C18.3444 18.6491 17.8417 18.7 17.3845 18.7H16C15.6134 18.7 15.3 18.3866 15.3 18C15.3 17.6134 15.6134 17.3 16 17.3H17.3845C17.7448 17.3 18.0578 17.2586 18.3287 17.1533C19.4138 16.7318 21.3 15.6756 21.3 13.5C21.3 11.9828 20.6613 11.0263 20.005 10.37C19.6994 10.0644 19.3948 9.82831 19.1236 9.61822C19.095 9.59605 19.0668 9.57417 19.039 9.55253C18.904 9.44757 18.7519 9.32776 18.6339 9.20981C18.5737 9.14962 18.4998 9.06796 18.4378 8.96741C18.3767 8.86831 18.3 8.70685 18.3 8.49999C18.3 8.50556 18.3 8.50841 18.2998 8.50842C18.2988 8.50851 18.2929 8.44926 18.2588 8.31987C18.2223 8.18126 18.1621 7.99509 18.0712 7.77783C17.8894 7.34286 17.5916 6.79987 17.1332 6.27097C16.2329 5.23225 14.6739 4.19999 12 4.19999C9.32611 4.19999 7.76708 5.23225 6.86677 6.27097C6.40834 6.79987 6.11061 7.34286 5.92874 7.77783C5.8379 7.99509 5.7777 8.18126 5.7412 8.31987C5.70712 8.44926 5.70122 8.50851 5.7002 8.50842Z" fill="#222628"/>
</svg>
