<svg width="24" height="24" viewBox="0 0 24 24" fill="none" xmlns="http://www.w3.org/2000/svg">
<path opacity="0.4" d="M19 9.5C19 9 17.7658 4.5 12 4.5C6.23419 4.5 5 9 5 9.5C5 10 1.99997 11 2 14.5C2.00003 17.1587 4.30821 18.3748 5.41781 18.8058C5.79889 18.9539 6.20672 19 6.61553 19H8H16H17.3845C17.7933 19 18.2011 18.9539 18.5822 18.8059C19.6918 18.3748 22 17.1587 22 14.5C22 11 19 10 19 9.5Z" fill="#C4C4C4"/>
<path fill-rule="evenodd" clip-rule="evenodd" d="M5.7002 9.50842C5.69998 9.50841 5.69999 9.50556 5.69999 9.49999C5.69999 9.70685 5.62326 9.86832 5.56217 9.96741C5.50019 10.068 5.42624 10.1496 5.36605 10.2098C5.2481 10.3278 5.09594 10.4476 4.96099 10.5525C4.93317 10.5742 4.90493 10.5961 4.87633 10.6182C4.60519 10.8283 4.30053 11.0644 3.99495 11.37C3.33862 12.0263 2.69997 12.9828 2.69999 14.5C2.70001 16.6756 4.58616 17.7318 5.67126 18.1533C5.94222 18.2586 6.25516 18.3 6.61552 18.3H17.3845C17.7448 18.3 18.0578 18.2586 18.3287 18.1533C19.4138 17.7318 21.3 16.6756 21.3 14.5C21.3 12.9828 20.6613 12.0263 20.005 11.37C19.6994 11.0644 19.3948 10.8283 19.1236 10.6182C19.095 10.5961 19.0668 10.5742 19.039 10.5525C18.904 10.4476 18.7519 10.3278 18.6339 10.2098C18.5737 10.1496 18.4998 10.068 18.4378 9.96741C18.3767 9.86831 18.3 9.70685 18.3 9.49999C18.3 9.50556 18.3 9.50841 18.2998 9.50842C18.2988 9.50851 18.2929 9.44926 18.2588 9.31987C18.2223 9.18126 18.1621 8.99509 18.0712 8.77783C17.8894 8.34286 17.5916 7.79987 17.1332 7.27097C16.2329 6.23225 14.6739 5.19999 12 5.19999C9.32611 5.19999 7.76708 6.23225 6.86677 7.27097C6.40834 7.79987 6.11061 8.34286 5.92874 8.77783C5.8379 8.99509 5.7777 9.18126 5.7412 9.31987C5.70712 9.44926 5.70122 9.50851 5.7002 9.50842ZM5.80885 6.35401C6.96708 5.01773 8.90806 3.79999 12 3.79999C15.0919 3.79999 17.0329 5.01773 18.1911 6.35401C18.762 7.0126 19.1332 7.68836 19.3629 8.23777C19.4778 8.51269 19.5591 8.76012 19.6126 8.96331C19.6394 9.06499 19.6632 9.17043 19.6792 9.27076C19.7283 9.3133 19.7984 9.36958 19.8985 9.44744C19.9251 9.46812 19.953 9.48975 19.9822 9.51234C20.2506 9.71995 20.6232 10.0083 20.995 10.38C21.8386 11.2237 22.7 12.5172 22.7 14.5C22.7 17.6419 19.9697 19.0178 18.8356 19.4583C18.3444 19.6491 17.8417 19.7 17.3845 19.7H6.61552C6.15826 19.7 5.65553 19.6491 5.16435 19.4583C4.03024 19.0178 1.30002 17.6419 1.29999 14.5C1.29997 12.5172 2.16132 11.2237 3.005 10.38C3.37674 10.0083 3.7494 9.71995 4.01774 9.51233C4.04693 9.48975 4.07489 9.46812 4.10148 9.44744C4.20158 9.36958 4.27169 9.3133 4.32075 9.27076C4.33674 9.17044 4.36058 9.06499 4.38736 8.96331C4.44088 8.76012 4.52215 8.51269 4.6371 8.23777C4.86682 7.68836 5.23801 7.0126 5.80885 6.35401Z" fill="#222628"/>
</svg>
