<svg width="24" height="24" viewBox="0 0 24 24" fill="none" xmlns="http://www.w3.org/2000/svg">
<path opacity="0.4" d="M10.9915 2.81877C11.5792 2.34166 12.4208 2.34166 13.0085 2.81877L14.7301 4.21649C14.9713 4.41232 15.2643 4.53368 15.5733 4.56577L17.779 4.7948C18.532 4.87298 19.1271 5.46808 19.2052 6.221L19.4343 8.4267C19.4664 8.73573 19.5877 9.02873 19.7836 9.26993L21.1813 10.9915C21.6584 11.5792 21.6584 12.4208 21.1813 13.0085L19.7836 14.7301C19.5877 14.9713 19.4664 15.2643 19.4343 15.5733L19.2052 17.779C19.1271 18.532 18.532 19.1271 17.779 19.2052L15.5733 19.4343C15.2643 19.4664 14.9713 19.5877 14.7301 19.7836L13.0085 21.1813C12.4208 21.6584 11.5792 21.6584 10.9915 21.1813L9.26993 19.7836C9.02873 19.5877 8.73573 19.4664 8.4267 19.4343L6.221 19.2052C5.46808 19.1271 4.87298 18.532 4.7948 17.779L4.56577 15.5733C4.53368 15.2643 4.41232 14.9713 4.21649 14.7301L2.81877 13.0085C2.34166 12.4208 2.34166 11.5792 2.81877 10.9915L4.21649 9.26993C4.41232 9.02873 4.53368 8.73573 4.56577 8.4267L4.7948 6.221C4.87298 5.46808 5.46808 4.87298 6.221 4.7948L8.4267 4.56577C8.73573 4.53368 9.02873 4.41232 9.26993 4.21649L10.9915 2.81877Z" fill="#C4C4C4"/>
<path fill-rule="evenodd" clip-rule="evenodd" d="M10.5503 2.27531C11.3951 1.58946 12.6049 1.58946 13.4497 2.27531L15.1713 3.67303C15.307 3.78319 15.4718 3.85145 15.6456 3.8695L17.8513 4.09853C18.9336 4.21091 19.7891 5.06637 19.9015 6.14869L20.1305 8.3544C20.1486 8.52822 20.2168 8.69304 20.327 8.82871L21.7247 10.5503C22.4106 11.3951 22.4106 12.6049 21.7247 13.4497L20.327 15.1713C20.2168 15.307 20.1486 15.4718 20.1305 15.6456L19.9015 17.8513C19.7891 18.9336 18.9336 19.7891 17.8513 19.9015L15.6456 20.1305C15.4718 20.1486 15.307 20.2168 15.1713 20.327L13.4497 21.7247C12.6049 22.4106 11.3951 22.4106 10.5503 21.7247L8.82871 20.327C8.69304 20.2168 8.52822 20.1486 8.3544 20.1305L6.14869 19.9015C5.06637 19.7891 4.21091 18.9336 4.09853 17.8513L3.8695 15.6456C3.85145 15.4718 3.78319 15.307 3.67303 15.1713L2.27531 13.4497C1.58946 12.6049 1.58946 11.3951 2.27531 10.5503L3.67303 8.82871C3.78319 8.69304 3.85145 8.52822 3.8695 8.3544L4.09853 6.14869C4.21091 5.06637 5.06638 4.21091 6.14869 4.09853L8.3544 3.8695C8.52822 3.85145 8.69304 3.78319 8.82871 3.67303L10.5503 2.27531ZM12.5673 3.36221C12.2367 3.09383 11.7633 3.09383 11.4327 3.36221L9.71113 4.75993C9.3644 5.04143 8.94321 5.21589 8.49898 5.26202L6.29328 5.49104C5.86976 5.53502 5.53502 5.86976 5.49104 6.29328L5.26202 8.49898C5.21589 8.94321 5.04143 9.3644 4.75993 9.71113L3.36221 11.4327C3.09383 11.7633 3.09383 12.2367 3.36221 12.5673L4.75993 14.2889C5.04143 14.6356 5.21589 15.0568 5.26202 15.501L5.49104 17.7067C5.53502 18.1303 5.86976 18.465 6.29328 18.509L8.49898 18.738C8.94321 18.7841 9.3644 18.9586 9.71113 19.2401L11.4327 20.6378C11.7633 20.9062 12.2367 20.9062 12.5673 20.6378L14.2889 19.2401C14.6356 18.9586 15.0568 18.7841 15.501 18.738L17.7067 18.509C18.1303 18.465 18.465 18.1303 18.509 17.7067L18.738 15.501C18.7841 15.0568 18.9586 14.6356 19.2401 14.2889L20.6378 12.5673C20.9062 12.2367 20.9062 11.7633 20.6378 11.4327L19.2401 9.71113C18.9586 9.3644 18.7841 8.94321 18.738 8.49898L18.509 6.29328C18.465 5.86976 18.1303 5.53502 17.7067 5.49104L15.501 5.26202C15.0568 5.21589 14.6356 5.04143 14.2889 4.75993L12.5673 3.36221Z" fill="#222628"/>
<path fill-rule="evenodd" clip-rule="evenodd" d="M14.4204 8.60757C14.6371 8.28744 15.0723 8.20361 15.3924 8.42034C15.7126 8.63707 15.7964 9.07228 15.5797 9.39242L15 9L14.4204 8.60757ZM9.5303 12.0431L9.53466 12.0481L9.54851 12.0641L9.6023 12.126C9.649 12.1796 9.71625 12.2564 9.79788 12.3487C9.96148 12.5336 10.1814 12.7788 10.4087 13.0231C10.5883 13.216 10.7673 13.4026 10.9242 13.5565C11.0012 13.4584 11.0876 13.3456 11.1823 13.2198C11.5632 12.7136 12.0492 12.0337 12.5308 11.3478C13.0115 10.6632 13.484 9.97802 13.8365 9.46364C14.0127 9.20654 14.1588 8.99234 14.2608 8.84248L14.4204 8.60757C14.4204 8.60754 14.4204 8.60757 15 9L15.5797 9.39242L15.4182 9.63017C15.3155 9.78109 15.1685 9.99657 14.9913 10.2551C14.6371 10.772 14.1614 11.4618 13.6766 12.1522C13.1928 12.8413 12.6961 13.5364 12.301 14.0615C12.1047 14.3225 11.9263 14.551 11.7839 14.7179C11.7143 14.7995 11.6414 14.8805 11.5723 14.9461C11.539 14.9776 11.4905 15.0211 11.432 15.0613C11.4026 15.0815 11.357 15.1104 11.2986 15.1362C11.2465 15.1592 11.1399 15.2 11 15.2C10.8054 15.2 10.6565 15.1236 10.6058 15.0969C10.5336 15.0589 10.4687 15.0142 10.4172 14.9759C10.3124 14.8981 10.2002 14.7993 10.0927 14.6987C9.87436 14.4945 9.61999 14.2305 9.38393 13.9769C9.14582 13.7211 8.91755 13.4664 8.74936 13.2763C8.6651 13.1811 8.59555 13.1017 8.54691 13.0459L8.49036 12.9808L8.47527 12.9634L8.47019 12.9575C8.47016 12.9574 8.46973 12.9569 9.00001 12.5L8.47019 12.9575C8.21782 12.6646 8.2502 12.2221 8.54306 11.9697C8.83592 11.7174 9.27793 11.7502 9.5303 12.0431Z" fill="#222628"/>
</svg>
