<svg width="24" height="24" viewBox="0 0 24 24" fill="none" xmlns="http://www.w3.org/2000/svg">
<path d="M5 10C5 8.14006 5 7.21008 5.20445 6.44709C5.75925 4.37653 7.37653 2.75925 9.44709 2.20445C10.2101 2 11.1401 2 13 2H14C15.8599 2 16.7899 2 17.5529 2.20445C19.6235 2.75925 21.2408 4.37653 21.7956 6.44709C22 7.21008 22 8.14006 22 10C22 11.8599 22 12.7899 21.7956 13.5529C21.2408 15.6235 19.6235 17.2408 17.5529 17.7956C16.7899 18 15.8599 18 14 18H13C11.1401 18 10.2101 18 9.44709 17.7956C7.37653 17.2408 5.75925 15.6235 5.20445 13.5529C5 12.7899 5 11.8599 5 10Z" fill="#C4C4C4" fill-opacity="0.4"/>
<path fill-rule="evenodd" clip-rule="evenodd" d="M12.8671 1.29999C12.911 1.3 12.9552 1.3 13 1.3H14C14.0448 1.3 14.089 1.3 14.1329 1.29999C15.8663 1.29985 16.8812 1.29977 17.7341 1.5283C20.0462 2.14783 21.8522 3.9538 22.4717 6.26591C22.7002 7.11881 22.7002 8.1337 22.7 9.86714C22.7 9.91096 22.7 9.95525 22.7 10C22.7 10.0448 22.7 10.089 22.7 10.1329C22.7002 11.8663 22.7002 12.8812 22.4717 13.7341C21.8522 16.0462 20.0462 17.8522 17.7341 18.4717C16.8812 18.7002 15.8663 18.7002 14.1329 18.7C14.089 18.7 14.0448 18.7 14 18.7H13C12.9552 18.7 12.911 18.7 12.8671 18.7C11.1337 18.7002 10.1188 18.7002 9.26591 18.4717C6.9538 17.8522 5.14783 16.0462 4.5283 13.7341C4.29977 12.8812 4.29985 11.8663 4.29999 10.1329C4.3 10.089 4.3 10.0448 4.3 10C4.3 9.95525 4.3 9.91096 4.29999 9.86713C4.29985 8.1337 4.29977 7.1188 4.5283 6.26591C5.14783 3.9538 6.9538 2.14783 9.26591 1.5283C10.1188 1.29977 11.1337 1.29985 12.8671 1.29999ZM13 2.7C11.095 2.7 10.2798 2.70601 9.62826 2.8806C7.79927 3.37067 6.37067 4.79927 5.8806 6.62826C5.70601 7.2798 5.7 8.09499 5.7 10C5.7 11.905 5.70601 12.7202 5.8806 13.3717C6.37067 15.2007 7.79927 16.6293 9.62826 17.1194C10.2798 17.294 11.095 17.3 13 17.3H14C15.905 17.3 16.7202 17.294 17.3717 17.1194C19.2007 16.6293 20.6293 15.2007 21.1194 13.3717C21.294 12.7202 21.3 11.905 21.3 10C21.3 8.09499 21.294 7.2798 21.1194 6.62826C20.6293 4.79927 19.2007 3.37067 17.3717 2.8806C16.7202 2.70601 15.905 2.7 14 2.7H13Z" fill="#222628"/>
<path fill-rule="evenodd" clip-rule="evenodd" d="M5.26683 10.3C5.27773 10.3 5.2888 10.3 5.30002 10.3V11.7C5.00813 11.7 4.90274 11.7005 4.81957 11.7071C3.6917 11.7958 2.79588 12.6917 2.70711 13.8195C2.70057 13.9027 2.70002 14.0081 2.70002 14.3V16.5C2.70002 17.9465 2.70762 18.5145 2.84212 18.9579C3.16205 20.0126 3.9874 20.838 5.04208 21.1579C5.48547 21.2924 6.05332 21.3 7.49933 21.3H9.15C10.8897 21.3 12.3 19.8897 12.3 18.15H13.7C13.7 20.6629 11.6629 22.7 9.15 22.7H7.49933C7.45339 22.7 7.40806 22.7 7.36331 22.7C6.09875 22.7003 5.30423 22.7004 4.63568 22.4976C3.13356 22.0419 1.95807 20.8665 1.5024 19.3643C1.2996 18.6958 1.29976 17.901 1.3 16.6361C1.30001 16.5913 1.30002 16.546 1.30002 16.5V14.3C1.30002 14.2888 1.30002 14.2777 1.30002 14.2668C1.3 14.0201 1.29998 13.8551 1.31143 13.7097C1.45422 11.8953 2.89533 10.4542 4.70972 10.3114C4.85513 10.3 5.02013 10.3 5.26683 10.3Z" fill="#222628"/>
</svg>
