<svg width="24" height="24" viewBox="0 0 24 24" fill="none" xmlns="http://www.w3.org/2000/svg">
<path opacity="0.4" d="M9.23537 6.52395C10.3257 4.73982 10.8708 3.84776 11.6346 3.68941C11.8756 3.63942 12.1244 3.63942 12.3655 3.68941C13.1292 3.84776 13.6743 4.73982 14.7646 6.52395L19.9875 15.0705C21.1625 16.9931 21.7499 17.9544 21.5105 18.7305C21.4353 18.9745 21.309 19.1996 21.1401 19.391C20.6027 20 19.4761 20 17.2229 20H6.77711C4.52391 20 3.39731 20 2.85989 19.391C2.69098 19.1996 2.56471 18.9745 2.48947 18.7305C2.25008 17.9544 2.83754 16.9931 4.01247 15.0705L9.23537 6.52395Z" fill="#C4C4C4"/>
<path fill-rule="evenodd" clip-rule="evenodd" d="M18.7929 15.8005L13.57 7.25398C13.0056 6.33037 12.6473 5.74871 12.3441 5.36493C12.182 5.15981 12.0879 5.08098 12.0519 5.0553C12.0175 5.05079 11.9826 5.05079 11.9481 5.0553C11.9121 5.08098 11.818 5.15981 11.6559 5.36493C11.3527 5.74871 10.9944 6.33037 10.43 7.25398L5.20707 15.8005C4.6001 16.7937 4.21441 17.4296 3.99409 17.912C3.87549 18.1717 3.84606 18.3027 3.83903 18.3508C3.85157 18.3816 3.86789 18.4107 3.88762 18.4375C3.93238 18.4566 4.05946 18.4998 4.34289 18.534C4.86944 18.5975 5.61311 18.6 6.77711 18.6H17.2229C18.3869 18.6 19.1306 18.5975 19.6571 18.534C19.9406 18.4998 20.0676 18.4566 20.1124 18.4375C20.1321 18.4107 20.1484 18.3816 20.161 18.3508C20.1539 18.3027 20.1245 18.1717 20.0059 17.912C19.7856 17.4296 19.3999 16.7937 18.7929 15.8005ZM20.163 18.3732C20.163 18.3731 20.1629 18.3716 20.163 18.3689C20.1631 18.3718 20.1631 18.3732 20.163 18.3732ZM20.1325 18.4276C20.1326 18.4276 20.1314 18.4284 20.1288 18.4298C20.1311 18.4282 20.1324 18.4276 20.1325 18.4276ZM3.86751 18.4276C3.86758 18.4276 3.86889 18.4282 3.8712 18.4298C3.86859 18.4284 3.86743 18.4276 3.86751 18.4276ZM3.83698 18.3731C3.83691 18.3732 3.83686 18.3718 3.83704 18.3689C3.83713 18.3716 3.83705 18.3731 3.83698 18.3731ZM11.9651 5.04457C11.9651 5.0447 11.9634 5.04573 11.9601 5.04729C11.9634 5.04521 11.9651 5.04444 11.9651 5.04457ZM12.0349 5.04457C12.0349 5.04444 12.0366 5.04521 12.04 5.04729C12.0366 5.04573 12.035 5.04469 12.0349 5.04457ZM11.6346 3.68941C10.8708 3.84776 10.3257 4.73982 9.23537 6.52395L4.01247 15.0705C2.83754 16.9931 2.25008 17.9544 2.48947 18.7305C2.56471 18.9745 2.69098 19.1996 2.85989 19.391C3.39731 20 4.52391 20 6.77711 20H17.2229C19.4761 20 20.6027 20 21.1401 19.391C21.309 19.1996 21.4353 18.9745 21.5105 18.7305C21.7499 17.9544 21.1625 16.9931 19.9875 15.0705L14.7646 6.52395C13.6743 4.73982 13.1292 3.84776 12.3655 3.68941C12.1244 3.63942 11.8756 3.63942 11.6346 3.68941Z" fill="#222628"/>
<path fill-rule="evenodd" clip-rule="evenodd" d="M12 9.30002C12.3866 9.30002 12.7 9.61342 12.7 10V14C12.7 14.3866 12.3866 14.7 12 14.7C11.6134 14.7 11.3 14.3866 11.3 14V10C11.3 9.61342 11.6134 9.30002 12 9.30002Z" fill="#222628"/>
<path d="M12.7 16.3C12.7 16.6866 12.3866 17 12 17C11.6134 17 11.3 16.6866 11.3 16.3C11.3 15.9134 11.6134 15.6 12 15.6C12.3866 15.6 12.7 15.9134 12.7 16.3Z" fill="#222628"/>
</svg>
