<svg width="24" height="24" viewBox="0 0 24 24" fill="none" xmlns="http://www.w3.org/2000/svg">
<path opacity="0.4" d="M20.6254 15.2483C21.0856 18.2745 18.7431 21 15.6822 21L12 21L8.31778 21C5.25688 21 2.91445 18.2745 3.3746 15.2483L3.76471 12.6828L4.14338 10.7707C4.60706 8.42916 6.66116 6.74195 9.04813 6.74194L12 6.74194L14.9519 6.74194C17.3389 6.74194 19.393 8.42915 19.8566 10.7707L20.2353 12.6828L20.6254 15.2483Z" fill="#C4C4C4"/>
<path fill-rule="evenodd" clip-rule="evenodd" d="M21.3174 15.1431C21.842 18.5929 19.1717 21.7 15.6822 21.7L8.31777 21.7C4.82833 21.7 2.15797 18.5929 2.68254 15.1431L3.07501 12.5621L3.4567 10.6347C3.9853 7.96538 6.32697 6.04196 9.04812 6.04196L14.9519 6.04195C17.673 6.04195 20.0147 7.96538 20.5433 10.6347L20.925 12.5621L21.3174 15.1431ZM15.6822 20.3C18.3146 20.3 20.3291 17.9561 19.9334 15.3536L19.5456 12.8035L19.17 10.9066C18.7712 8.89296 17.0047 7.44195 14.9519 7.44195L9.04812 7.44196C6.99532 7.44196 5.2288 8.89296 4.83003 10.9066L4.4544 12.8035L4.06663 15.3536C3.6709 17.956 5.68539 20.3 8.31777 20.3L15.6822 20.3Z" fill="#222628"/>
<path fill-rule="evenodd" clip-rule="evenodd" d="M14.7 15C14.7 15.3866 14.3866 15.7 14 15.7H10C9.61341 15.7 9.30001 15.3866 9.30001 15C9.30001 14.6134 9.61341 14.3 10 14.3H14C14.3866 14.3 14.7 14.6134 14.7 15Z" fill="#222628"/>
<path fill-rule="evenodd" clip-rule="evenodd" d="M9.36664 6.29098C9.36628 6.67727 9.05301 6.99032 8.66663 6.99031C8.28003 6.9903 7.96664 6.6769 7.96664 6.2903L8.66664 6.29031C7.96664 6.2903 7.96664 6.28994 7.96664 6.28957L7.96665 6.28876L7.96665 6.28691L7.96668 6.28229L7.96684 6.26943C7.96701 6.25927 7.96731 6.24597 7.96786 6.22972C7.96895 6.19726 7.97104 6.15293 7.97498 6.0984C7.98286 5.98958 7.99826 5.83876 8.02851 5.65965C8.08844 5.3047 8.20961 4.82093 8.45888 4.32883C8.70963 3.8338 9.09629 3.31882 9.68812 2.92935C10.2839 2.5373 11.046 2.29999 12 2.29999C12.954 2.29999 13.7161 2.5373 14.3119 2.92935C14.9037 3.31882 15.2904 3.8338 15.5411 4.32884C15.7904 4.82094 15.9115 5.30471 15.9715 5.65965C16.0017 5.83876 16.0171 5.98958 16.025 6.0984C16.0289 6.15293 16.031 6.19727 16.0321 6.22973C16.0327 6.24597 16.033 6.25927 16.0331 6.26943L16.0333 6.28229L16.0333 6.28691L16.0333 6.28876L16.0333 6.28957C16.0333 6.28995 16.0333 6.29031 15.3333 6.29031L16.0333 6.29031C16.0333 6.6769 15.7199 6.99031 15.3333 6.99031C14.9477 6.99031 14.6349 6.67852 14.6333 6.29329C14.6333 6.29275 14.6333 6.29221 14.6333 6.29166C14.6333 6.2916 14.6333 6.29154 14.6333 6.29148C14.6333 6.29131 14.6333 6.29114 14.6333 6.29096C14.6333 6.29097 14.6333 6.29097 14.6333 6.29097L14.6333 6.29148V6.29156L14.6333 6.29166L14.6333 6.29251L14.6333 6.29356C14.6333 6.29376 14.6333 6.29367 14.6333 6.29329C14.6333 6.29306 14.6333 6.29274 14.6333 6.29231L14.6329 6.27699C14.6324 6.26125 14.6312 6.2349 14.6286 6.19946C14.6235 6.12834 14.6129 6.0221 14.591 5.89274C14.5468 5.63075 14.4596 5.29194 14.2922 4.96146C14.1263 4.63391 13.8879 4.32632 13.5423 4.09885C13.2005 3.87397 12.7127 3.69999 12 3.69999C11.2873 3.69999 10.7995 3.87397 10.4577 4.09885C10.1121 4.32632 9.87371 4.63392 9.70779 4.96146C9.54038 5.29195 9.4532 5.63076 9.40896 5.89275C9.38712 6.0221 9.37648 6.12834 9.37133 6.19946C9.36877 6.2349 9.36759 6.26126 9.36706 6.27699L9.36665 6.29232L9.36664 6.29156L9.36664 6.29098ZM9.36665 6.29232L9.36664 6.29251L9.36663 6.29356L9.36663 6.29366C9.36663 6.29358 9.36664 6.29313 9.36665 6.29232Z" fill="#222628"/>
</svg>
