<svg width="24" height="24" viewBox="0 0 24 24" fill="none" xmlns="http://www.w3.org/2000/svg">
<path opacity="0.4" d="M10.9915 2.81877C11.5792 2.34166 12.4208 2.34166 13.0085 2.81877L14.7301 4.21649C14.9713 4.41232 15.2643 4.53368 15.5733 4.56577L17.779 4.7948C18.5319 4.87298 19.127 5.46808 19.2052 6.221L19.4342 8.4267C19.4663 8.73573 19.5877 9.02873 19.7835 9.26993L21.1812 10.9915C21.6584 11.5792 21.6584 12.4208 21.1812 13.0085L19.7835 14.7301C19.5877 14.9713 19.4663 15.2643 19.4342 15.5733L19.2052 17.779C19.127 18.532 18.5319 19.1271 17.779 19.2052L15.5733 19.4343C15.2643 19.4664 14.9713 19.5877 14.7301 19.7836L13.0085 21.1813C12.4208 21.6584 11.5792 21.6584 10.9915 21.1813L9.2699 19.7836C9.0287 19.5877 8.7357 19.4664 8.42667 19.4343L6.22097 19.2052C5.46805 19.1271 4.87294 18.532 4.79477 17.779L4.56574 15.5733C4.53365 15.2643 4.41229 14.9713 4.21646 14.7301L2.81874 13.0085C2.34163 12.4208 2.34163 11.5792 2.81874 10.9915L4.21646 9.26993C4.41229 9.02873 4.53365 8.73573 4.56574 8.4267L4.79477 6.221C4.87294 5.46808 5.46805 4.87298 6.22097 4.7948L8.42667 4.56577C8.7357 4.53368 9.0287 4.41232 9.2699 4.21649L10.9915 2.81877Z" fill="#C4C4C4"/>
<path fill-rule="evenodd" clip-rule="evenodd" d="M10.5503 2.27531C11.3951 1.58946 12.6049 1.58946 13.4497 2.27531L15.1713 3.67303C15.307 3.78319 15.4718 3.85145 15.6456 3.8695L17.8513 4.09853C18.9336 4.21091 19.7891 5.06637 19.9015 6.14869L20.1305 8.3544C20.1486 8.52822 20.2168 8.69304 20.327 8.82871L21.7247 10.5503C22.4105 11.3951 22.4105 12.6049 21.7247 13.4497L20.327 15.1713C20.2168 15.307 20.1486 15.4718 20.1305 15.6456L19.9015 17.8513C19.7891 18.9336 18.9336 19.7891 17.8513 19.9015L15.6456 20.1305C15.4718 20.1486 15.307 20.2168 15.1713 20.327L13.4497 21.7247C12.6049 22.4106 11.3951 22.4106 10.5503 21.7247L8.8287 20.327C8.69302 20.2168 8.52821 20.1486 8.35438 20.1305L6.14867 19.9015C5.06636 19.7891 4.21089 18.9336 4.09851 17.8513L3.86949 15.6456C3.85144 15.4718 3.78317 15.307 3.67302 15.1713L2.2753 13.4497C1.58945 12.6049 1.58945 11.3951 2.2753 10.5503L3.67302 8.82871C3.78317 8.69304 3.85144 8.52822 3.86949 8.3544L4.09851 6.14869C4.21089 5.06637 5.06636 4.21091 6.14867 4.09853L8.35438 3.8695C8.52821 3.85145 8.69302 3.78319 8.8287 3.67303L10.5503 2.27531ZM12.5673 3.36221C12.2367 3.09383 11.7633 3.09383 11.4327 3.36221L9.71111 4.75993C9.36438 5.04143 8.94319 5.21589 8.49897 5.26202L6.29326 5.49104C5.86975 5.53502 5.535 5.86976 5.49103 6.29328L5.262 8.49898C5.21588 8.94321 5.04141 9.3644 4.75992 9.71113L3.36219 11.4327C3.09382 11.7633 3.09382 12.2367 3.36219 12.5673L4.75991 14.2889C5.04141 14.6356 5.21588 15.0568 5.262 15.501L5.49103 17.7067C5.535 18.1303 5.86975 18.465 6.29326 18.509L8.49897 18.738C8.9432 18.7841 9.36438 18.9586 9.71111 19.2401L11.4327 20.6378C11.7633 20.9062 12.2367 20.9062 12.5673 20.6378L14.2889 19.2401C14.6356 18.9586 15.0568 18.7841 15.501 18.738L17.7067 18.509C18.1302 18.465 18.465 18.1303 18.509 17.7067L18.738 15.501C18.7841 15.0568 18.9586 14.6356 19.2401 14.2889L20.6378 12.5673C20.9062 12.2367 20.9062 11.7633 20.6378 11.4327L19.2401 9.71113C18.9586 9.3644 18.7841 8.94321 18.738 8.49898L18.509 6.29328C18.465 5.86976 18.1302 5.53502 17.7067 5.49104L15.501 5.26202C15.0568 5.21589 14.6356 5.04143 14.2889 4.75993L12.5673 3.36221Z" fill="#222628"/>
<path fill-rule="evenodd" clip-rule="evenodd" d="M15.495 8.50501C15.7683 8.77838 15.7683 9.2216 15.495 9.49496L9.49496 15.495C9.2216 15.7683 8.77838 15.7683 8.50501 15.495C8.23165 15.2216 8.23165 14.7784 8.50501 14.505L14.505 8.50501C14.7784 8.23165 15.2216 8.23165 15.495 8.50501Z" fill="#222628"/>
<path fill-rule="evenodd" clip-rule="evenodd" d="M14.191 15C14.191 14.5582 14.5492 14.2 14.991 14.2H15.009C15.4509 14.2 15.809 14.5582 15.809 15C15.809 15.4418 15.4509 15.8 15.009 15.8H14.991C14.5492 15.8 14.191 15.4418 14.191 15Z" fill="#222628"/>
<path fill-rule="evenodd" clip-rule="evenodd" d="M8.19099 9.00001C8.19099 8.55818 8.54917 8.20001 8.99099 8.20001H9.00899C9.45082 8.20001 9.80899 8.55818 9.80899 9.00001C9.80899 9.44184 9.45082 9.80001 9.00899 9.80001H8.99099C8.54917 9.80001 8.19099 9.44184 8.19099 9.00001Z" fill="#222628"/>
</svg>
