<svg width="24" height="24" viewBox="0 0 24 24" fill="none" xmlns="http://www.w3.org/2000/svg">
<path opacity="0.4" d="M2 12C2 8.26154 2 6.3923 2.80385 5C3.33046 4.08788 4.08788 3.33046 5 2.80385C6.3923 2 8.26154 2 12 2C15.7385 2 17.6077 2 19 2.80385C19.9121 3.33046 20.6695 4.08788 21.1962 5C22 6.3923 22 8.26154 22 12C22 15.7385 22 17.6077 21.1962 19C20.6695 19.9121 19.9121 20.6695 19 21.1962C17.6077 22 15.7385 22 12 22C8.26154 22 6.3923 22 5 21.1962C4.08788 20.6695 3.33046 19.9121 2.80385 19C2 17.6077 2 15.7385 2 12Z" fill="#C4C4C4"/>
<path fill-rule="evenodd" clip-rule="evenodd" d="M11.9645 1.29999H12.0354C13.8747 1.29998 15.3027 1.29998 16.443 1.40333C17.6002 1.50821 18.5295 1.72393 19.35 2.19762C20.3685 2.78567 21.2143 3.63146 21.8024 4.64999C22.276 5.47044 22.4918 6.39979 22.5966 7.55699C22.7 8.69727 22.7 10.1253 22.7 11.9646V12.0354C22.7 13.8746 22.7 15.3027 22.5966 16.443C22.4918 17.6002 22.276 18.5295 21.8024 19.35C21.2143 20.3685 20.3685 21.2143 19.35 21.8024C18.5295 22.276 17.6002 22.4918 16.443 22.5966C15.3027 22.7 13.8746 22.7 12.0354 22.7H11.9646C10.1253 22.7 8.69727 22.7 7.55699 22.5966C6.39979 22.4918 5.47044 22.276 4.64999 21.8024C3.63146 21.2143 2.78567 20.3685 2.19762 19.35C1.72393 18.5295 1.50821 17.6002 1.40333 16.443C1.29998 15.3027 1.29998 13.8747 1.29999 12.0354V11.9645C1.29998 10.1253 1.29998 8.69726 1.40333 7.55699C1.50821 6.39979 1.72393 5.47044 2.19762 4.64999C2.78567 3.63146 3.63146 2.78567 4.64999 2.19762C5.47044 1.72393 6.39979 1.50821 7.55699 1.40333C8.69726 1.29998 10.1253 1.29998 11.9645 1.29999ZM7.68336 2.79761C6.62326 2.89369 5.92184 3.07989 5.34999 3.41005C4.54429 3.87523 3.87523 4.54429 3.41005 5.34999C3.07989 5.92184 2.89369 6.62326 2.79761 7.68336C2.70066 8.75309 2.69999 10.1179 2.69999 12C2.69999 13.8821 2.70066 15.2469 2.79761 16.3166C2.89369 17.3767 3.07989 18.0781 3.41005 18.65C3.87523 19.4557 4.54429 20.1248 5.34999 20.5899C5.92184 20.9201 6.62326 21.1063 7.68336 21.2024C8.75309 21.2993 10.1179 21.3 12 21.3C13.8821 21.3 15.2469 21.2993 16.3166 21.2024C17.3767 21.1063 18.0781 20.9201 18.65 20.5899C19.4557 20.1248 20.1248 19.4557 20.5899 18.65C20.9201 18.0781 21.1063 17.3767 21.2024 16.3166C21.2993 15.2469 21.3 13.8821 21.3 12C21.3 10.1179 21.2993 8.75309 21.2024 7.68336C21.1063 6.62326 20.9201 5.92184 20.5899 5.34999C20.1248 4.54429 19.4557 3.87523 18.65 3.41005C18.0781 3.07989 17.3767 2.89369 16.3166 2.79761C15.2469 2.70066 13.8821 2.69999 12 2.69999C10.1179 2.69999 8.75309 2.70066 7.68336 2.79761Z" fill="#222628"/>
<path fill-rule="evenodd" clip-rule="evenodd" d="M8.38092 7.94482C8.54122 7.75039 8.74273 7.59404 8.97088 7.48706C9.44277 7.2658 9.93194 7.36846 10.3369 7.50628C10.7422 7.64423 11.2411 7.88358 11.8299 8.16604L13.8614 9.14055C13.8841 9.15144 13.907 9.16231 13.9298 9.17322C14.213 9.30817 14.5065 9.44807 14.7277 9.6843C14.7996 9.76106 14.8642 9.84433 14.9207 9.93304C15.0946 10.206 15.1572 10.5251 15.2176 10.8328C15.2224 10.8577 15.2273 10.8825 15.2322 10.9072L15.6715 13.1171C15.7989 13.7576 15.9068 14.3004 15.9397 14.7272C15.9726 15.1537 15.9506 15.6531 15.619 16.0552C15.4587 16.2496 15.2572 16.406 15.029 16.513C14.5572 16.7342 14.068 16.6316 13.663 16.4937C13.2577 16.3558 12.7588 16.1165 12.17 15.834L10.1385 14.8595C10.1158 14.8486 10.093 14.8377 10.0701 14.8268C9.78697 14.6919 9.49347 14.552 9.27224 14.3157C9.20035 14.239 9.13574 14.1557 9.07924 14.067C8.90537 13.794 8.84277 13.475 8.78238 13.1672C8.7775 13.1423 8.77263 13.1175 8.76772 13.0928L8.33718 10.927C8.33424 10.9122 8.33132 10.8975 8.3284 10.8829C8.20106 10.2424 8.09315 9.69968 8.06021 9.27278C8.0273 8.84629 8.04937 8.34695 8.38092 7.94482ZM9.46733 8.82812C9.46009 8.84881 9.43829 8.93478 9.45606 9.16508C9.48175 9.49806 9.57183 9.95743 9.71031 10.654L10.1409 12.8199C10.228 13.2581 10.2464 13.2934 10.2601 13.3149C10.27 13.3305 10.2814 13.3452 10.2941 13.3588C10.3115 13.3773 10.3412 13.404 10.744 13.5972L12.735 14.5523C13.3753 14.8594 13.7979 15.0608 14.1141 15.1684C14.3328 15.2428 14.4215 15.2431 14.4433 15.2412C14.4772 15.224 14.5075 15.2004 14.5326 15.1719C14.5398 15.1512 14.5616 15.0653 14.5439 14.8349C14.5182 14.502 14.4281 14.0426 14.2896 13.346L13.8591 11.1802C13.772 10.742 13.7535 10.7066 13.7399 10.6852C13.7299 10.6695 13.7185 10.6548 13.7058 10.6413C13.6884 10.6227 13.6588 10.5961 13.2559 10.4028L11.265 9.44778C10.6246 9.14059 10.202 8.93922 9.88582 8.83162C9.66715 8.7572 9.57846 8.75697 9.55662 8.75884C9.52274 8.77607 9.49244 8.79958 9.46733 8.82812Z" fill="#222628"/>
</svg>
