<svg width="24" height="24" viewBox="0 0 24 24" fill="none" xmlns="http://www.w3.org/2000/svg">
<path d="M3 11C3 7.73081 3 6.09621 3.67277 4.86413C4.17807 3.93873 4.93873 3.17807 5.86413 2.67277C7.09621 2 8.73081 2 12 2C15.2692 2 16.9038 2 18.1359 2.67277C19.0613 3.17807 19.8219 3.93873 20.3272 4.86413C21 6.09621 21 7.73081 21 11V13C21 16.2692 21 17.9038 20.3272 19.1359C19.8219 20.0613 19.0613 20.8219 18.1359 21.3272C16.9038 22 15.2692 22 12 22C8.73081 22 7.09621 22 5.86413 21.3272C4.93873 20.8219 4.17807 20.0613 3.67277 19.1359C3 17.9038 3 16.2692 3 13V11Z" fill="#C4C4C4" fill-opacity="0.4"/>
<path fill-rule="evenodd" clip-rule="evenodd" d="M11.9664 1.29999H12.0336C13.6398 1.29998 14.8907 1.29998 15.8922 1.38669C16.9097 1.47478 17.735 1.65633 18.4713 2.05838C19.5145 2.628 20.372 3.48546 20.9416 4.52864C21.3437 5.26494 21.5252 6.0903 21.6133 7.10775C21.7 8.1093 21.7 9.36026 21.7 10.9664V13.0335C21.7 14.6397 21.7 15.8907 21.6133 16.8922C21.5252 17.9097 21.3437 18.735 20.9416 19.4713C20.372 20.5145 19.5145 21.372 18.4713 21.9416C17.735 22.3436 16.9097 22.5252 15.8922 22.6133C14.8907 22.7 13.6397 22.7 12.0336 22.7H11.9665C10.3603 22.7 9.10931 22.7 8.10777 22.6133C7.09032 22.5252 6.26496 22.3436 5.52866 21.9416C4.48548 21.372 3.62801 20.5145 3.05839 19.4713C2.65634 18.735 2.4748 17.9097 2.38671 16.8922C2.3 15.8907 2.3 14.6398 2.3 13.0336V10.9664C2.3 9.36022 2.3 8.10928 2.38671 7.10775C2.4748 6.0903 2.65634 5.26494 3.05839 4.52864C3.62801 3.48546 4.48548 2.628 5.52866 2.05838C6.26496 1.65633 7.09032 1.47478 8.10777 1.38669C9.1093 1.29998 10.3602 1.29998 11.9664 1.29999ZM8.22853 2.78147C7.30336 2.86158 6.69539 3.01641 6.19961 3.28713C5.39198 3.72812 4.72814 4.39197 4.28714 5.19959C4.01643 5.69537 3.86159 6.30335 3.78149 7.22851C3.70061 8.16262 3.7 9.35312 3.7 11V13C3.7 14.6469 3.70061 15.8374 3.78149 16.7715C3.86159 17.6966 4.01643 18.3046 4.28714 18.8004C4.72814 19.608 5.39198 20.2719 6.19961 20.7128C6.69539 20.9836 7.30336 21.1384 8.22853 21.2185C9.16264 21.2994 10.3531 21.3 12 21.3C13.6469 21.3 14.8374 21.2994 15.7715 21.2185C16.6966 21.1384 17.3046 20.9836 17.8004 20.7128C18.608 20.2719 19.2719 19.608 19.7129 18.8004C19.9836 18.3046 20.1384 17.6966 20.2185 16.7715C20.2994 15.8374 20.3 14.6469 20.3 13V11C20.3 9.35312 20.2994 8.16262 20.2185 7.22851C20.1384 6.30335 19.9836 5.69537 19.7129 5.19959C19.2719 4.39197 18.608 3.72812 17.8004 3.28713C17.3046 3.01641 16.6966 2.86158 15.7715 2.78147C14.8374 2.7006 13.6469 2.69999 12 2.69999C10.3531 2.69999 9.16264 2.7006 8.22853 2.78147Z" fill="#222628"/>
<path fill-rule="evenodd" clip-rule="evenodd" d="M16 16.7C16 17.0866 15.6866 17.4 15.3 17.4L7.7 17.4C7.3134 17.4 7 17.0866 7 16.7C7 16.3134 7.3134 16 7.7 16L15.3 16C15.6866 16 16 16.3134 16 16.7Z" fill="#222628"/>
<path fill-rule="evenodd" clip-rule="evenodd" d="M16 12.7C16 13.0866 15.6866 13.4 15.3 13.4L7.7 13.4C7.3134 13.4 7 13.0866 7 12.7C7 12.3134 7.3134 12 7.7 12L15.3 12C15.6866 12 16 12.3134 16 12.7Z" fill="#222628"/>
<path fill-rule="evenodd" clip-rule="evenodd" d="M12 8.69999C12 9.08659 11.6866 9.39999 11.3 9.39999L7.7 9.39999C7.3134 9.39999 7 9.08659 7 8.69999C7 8.3134 7.3134 7.99999 7.7 7.99999L11.3 7.99999C11.6866 7.99999 12 8.31339 12 8.69999Z" fill="#222628"/>
</svg>
