<svg width="24" height="24" viewBox="0 0 24 24" fill="none" xmlns="http://www.w3.org/2000/svg">
<path opacity="0.4" d="M2 12C2 6.47715 6.47715 2 12 2C17.5228 2 22 6.47715 22 12C22 17.5228 17.5228 22 12 22C6.47715 22 2 17.5228 2 12Z" fill="#C4C4C4"/>
<path fill-rule="evenodd" clip-rule="evenodd" d="M1.29999 12C1.29999 6.09054 6.09054 1.29999 12 1.29999C17.9094 1.29999 22.7 6.09054 22.7 12C22.7 17.9094 17.9094 22.7 12 22.7C6.09054 22.7 1.29999 17.9094 1.29999 12ZM12 2.69999C6.86374 2.69999 2.69999 6.86374 2.69999 12C2.69999 17.1362 6.86374 21.3 12 21.3C17.1362 21.3 21.3 17.1362 21.3 12C21.3 6.86374 17.1362 2.69999 12 2.69999Z" fill="#222628"/>
<path fill-rule="evenodd" clip-rule="evenodd" d="M10.0712 9.00494C10.5724 8.53505 11.2539 8.29999 12 8.29999C12.746 8.29999 13.4275 8.53505 13.9287 9.00494C14.434 9.47866 14.7 10.1393 14.7 10.875C14.7 11.2616 14.3866 11.575 14 11.575C13.6134 11.575 13.3 11.2616 13.3 10.875C13.3 10.4857 13.1659 10.2088 12.9712 10.0263C12.7724 9.83993 12.4539 9.69999 12 9.69999C11.546 9.69999 11.2275 9.83993 11.0287 10.0263C10.834 10.2088 10.7 10.4857 10.7 10.875C10.7 10.9758 10.7237 11.0131 10.7367 11.0309C10.7566 11.0582 10.8056 11.1069 10.9257 11.164C11.1943 11.2918 11.5834 11.3614 12.1193 11.454C12.1266 11.4553 12.134 11.4566 12.1414 11.4579C12.6106 11.539 13.214 11.6433 13.6953 11.8909C13.954 12.024 14.2134 12.2151 14.4063 12.4978C14.6038 12.7873 14.7 13.1268 14.7 13.5C14.7 14.3975 14.1479 14.9699 13.5932 15.282C13.0558 15.5842 12.4339 15.7 12 15.7C11.5071 15.7 10.8794 15.4964 10.3769 15.1798C9.89106 14.8737 9.29999 14.315 9.29999 13.5C9.29999 13.1134 9.61339 12.8 9.99999 12.8C10.3866 12.8 10.7 13.1134 10.7 13.5C10.7 13.585 10.7756 13.7763 11.1231 13.9952C11.4539 14.2036 11.8262 14.3 12 14.3C12.2328 14.3 12.6108 14.2283 12.9068 14.0618C13.1854 13.9051 13.3 13.7275 13.3 13.5C13.3 13.3754 13.2711 13.318 13.2499 13.2868C13.224 13.249 13.171 13.1956 13.0547 13.1358C12.7936 13.0014 12.4085 12.9248 11.8807 12.8336C11.8541 12.829 11.8271 12.8243 11.7996 12.8196C11.3471 12.7419 10.7781 12.6441 10.3243 12.4282C10.0693 12.3069 9.80586 12.1295 9.60706 11.858C9.40132 11.5769 9.29999 11.243 9.29999 10.875C9.29999 10.1393 9.56593 9.47866 10.0712 9.00494Z" fill="#222628"/>
<path fill-rule="evenodd" clip-rule="evenodd" d="M12 7.29999C12.3866 7.29999 12.7 7.61339 12.7 7.99999V16C12.7 16.3866 12.3866 16.7 12 16.7C11.6134 16.7 11.3 16.3866 11.3 16V7.99999C11.3 7.61339 11.6134 7.29999 12 7.29999Z" fill="#222628"/>
</svg>
