<svg width="24" height="24" viewBox="0 0 24 24" fill="none" xmlns="http://www.w3.org/2000/svg">
<path d="M14 6C14 5.53563 14 5.30344 14.022 5.10812C14.2048 3.48545 15.4855 2.20484 17.1081 2.02201C17.3034 2 17.5356 2 18 2C18.4644 2 18.6966 2 18.8919 2.02201C20.5145 2.20484 21.7952 3.48545 21.978 5.10812C22 5.30344 22 5.53563 22 6C22 6.46437 22 6.69656 21.978 6.89188C21.7952 8.51455 20.5145 9.79516 18.8919 9.97799C18.6966 10 18.4644 10 18 10C17.5356 10 17.3034 10 17.1081 9.97799C15.4855 9.79516 14.2048 8.51455 14.022 6.89188C14 6.69656 14 6.46437 14 6Z" fill="#C4C4C4" fill-opacity="0.4"/>
<path d="M14 17C14 16.5356 14 16.3034 14.022 16.1081C14.2048 14.4855 15.4855 13.2048 17.1081 13.022C17.3034 13 17.5356 13 18 13C18.4644 13 18.6966 13 18.8919 13.022C20.5145 13.2048 21.7952 14.4855 21.978 16.1081C22 16.3034 22 16.5356 22 17C22 17.4644 22 17.6966 21.978 17.8919C21.7952 19.5145 20.5145 20.7952 18.8919 20.978C18.6966 21 18.4644 21 18 21C17.5356 21 17.3034 21 17.1081 20.978C15.4855 20.7952 14.2048 19.5145 14.022 17.8919C14 17.6966 14 17.4644 14 17Z" fill="#C4C4C4" fill-opacity="0.4"/>
<path d="M2 6C2 5.53563 2 5.30344 2.02201 5.10812C2.20484 3.48545 3.48545 2.20484 5.10812 2.02201C5.30344 2 5.53563 2 6 2C6.46437 2 6.69656 2 6.89188 2.02201C8.51455 2.20484 9.79516 3.48545 9.97799 5.10812C10 5.30344 10 5.53563 10 6C10 6.46437 10 6.69656 9.97799 6.89188C9.79516 8.51455 8.51455 9.79516 6.89188 9.97799C6.69656 10 6.46437 10 6 10C5.53563 10 5.30344 10 5.10812 9.97799C3.48545 9.79516 2.20484 8.51455 2.02201 6.89188C2 6.69656 2 6.46437 2 6Z" fill="#C4C4C4" fill-opacity="0.4"/>
<path d="M2 17C2 16.5356 2 16.3034 2.02201 16.1081C2.20484 14.4855 3.48545 13.2048 5.10812 13.022C5.30344 13 5.53563 13 6 13C6.46437 13 6.69656 13 6.89188 13.022C8.51455 13.2048 9.79516 14.4855 9.97799 16.1081C10 16.3034 10 16.5356 10 17C10 17.4644 10 17.6966 9.97799 17.8919C9.79516 19.5145 8.51455 20.7952 6.89188 20.978C6.69656 21 6.46437 21 6 21C5.53563 21 5.30344 21 5.10812 20.978C3.48545 20.7952 2.20484 19.5145 2.02201 17.8919C2 17.6966 2 17.4644 2 17Z" fill="#C4C4C4" fill-opacity="0.4"/>
<path fill-rule="evenodd" clip-rule="evenodd" d="M17.9502 1.29999C17.9665 1.29999 17.9832 1.29999 18 1.29999C18.0168 1.29999 18.0334 1.29999 18.0498 1.29999C18.4665 1.29995 18.7353 1.29993 18.9702 1.3264C20.9174 1.5458 22.4542 3.08254 22.6736 5.02974C22.7001 5.26473 22.7 5.53348 22.7 5.95014C22.7 5.96653 22.7 5.98314 22.7 5.99999C22.7 6.01685 22.7 6.03346 22.7 6.04985C22.7 6.46651 22.7001 6.73526 22.6736 6.97024C22.4542 8.91745 20.9174 10.4542 18.9702 10.6736C18.7353 10.7001 18.4665 10.7 18.0498 10.7C18.0335 10.7 18.0168 10.7 18 10.7C17.9831 10.7 17.9665 10.7 17.9501 10.7C17.5335 10.7 17.2647 10.7001 17.0297 10.6736C15.0825 10.4542 13.5458 8.91745 13.3264 6.97024C13.2999 6.73525 13.3 6.4665 13.3 6.04982C13.3 6.03344 13.3 6.01684 13.3 5.99999C13.3 5.98315 13.3 5.96654 13.3 5.95016C13.3 5.53349 13.2999 5.26474 13.3264 5.02974C13.5458 3.08254 15.0825 1.5458 17.0297 1.3264C17.2647 1.29993 17.5335 1.29995 17.9502 1.29999ZM18 2.69999C17.5166 2.69999 17.3329 2.7011 17.1865 2.7176C15.8884 2.86386 14.8639 3.88836 14.7176 5.18649C14.7011 5.3329 14.7 5.51657 14.7 5.99999C14.7 6.48341 14.7011 6.66709 14.7176 6.81349C14.8639 8.11163 15.8884 9.13612 17.1865 9.28239C17.3329 9.29888 17.5166 9.29999 18 9.29999C18.4834 9.29999 18.6671 9.29888 18.8135 9.28239C20.1116 9.13612 21.1361 8.11163 21.2824 6.81349C21.2989 6.66709 21.3 6.48341 21.3 5.99999C21.3 5.51657 21.2989 5.3329 21.2824 5.18649C21.1361 3.88836 20.1116 2.86386 18.8135 2.7176C18.6671 2.7011 18.4834 2.69999 18 2.69999Z" fill="#222628"/>
<path fill-rule="evenodd" clip-rule="evenodd" d="M17.9502 12.3C17.9665 12.3 17.9832 12.3 18 12.3C18.0168 12.3 18.0334 12.3 18.0498 12.3C18.4665 12.3 18.7353 12.2999 18.9702 12.3264C20.9174 12.5458 22.4542 14.0825 22.6736 16.0297C22.7001 16.2647 22.7 16.5335 22.7 16.9501C22.7 16.9665 22.7 16.9831 22.7 17C22.7 17.0168 22.7 17.0335 22.7 17.0498C22.7 17.4665 22.7001 17.7353 22.6736 17.9702C22.4542 19.9174 20.9174 21.4542 18.9702 21.6736C18.7353 21.7001 18.4665 21.7 18.0498 21.7C18.0335 21.7 18.0168 21.7 18 21.7C17.9831 21.7 17.9665 21.7 17.9501 21.7C17.5335 21.7 17.2647 21.7001 17.0297 21.6736C15.0825 21.4542 13.5458 19.9174 13.3264 17.9702C13.2999 17.7353 13.3 17.4665 13.3 17.0498C13.3 17.0334 13.3 17.0168 13.3 17C13.3 16.9832 13.3 16.9665 13.3 16.9502C13.3 16.5335 13.2999 16.2647 13.3264 16.0297C13.5458 14.0825 15.0825 12.5458 17.0297 12.3264C17.2647 12.2999 17.5335 12.3 17.9502 12.3ZM18 13.7C17.5166 13.7 17.3329 13.7011 17.1865 13.7176C15.8884 13.8639 14.8639 14.8884 14.7176 16.1865C14.7011 16.3329 14.7 16.5166 14.7 17C14.7 17.4834 14.7011 17.6671 14.7176 17.8135C14.8639 19.1116 15.8884 20.1361 17.1865 20.2824C17.3329 20.2989 17.5166 20.3 18 20.3C18.4834 20.3 18.6671 20.2989 18.8135 20.2824C20.1116 20.1361 21.1361 19.1116 21.2824 17.8135C21.2989 17.6671 21.3 17.4834 21.3 17C21.3 16.5166 21.2989 16.3329 21.2824 16.1865C21.1361 14.8884 20.1116 13.8639 18.8135 13.7176C18.6671 13.7011 18.4834 13.7 18 13.7Z" fill="#222628"/>
<path fill-rule="evenodd" clip-rule="evenodd" d="M5.95016 1.29999C5.96654 1.29999 5.98315 1.29999 5.99999 1.29999C6.01684 1.29999 6.03344 1.29999 6.04982 1.29999C6.4665 1.29995 6.73525 1.29993 6.97024 1.3264C8.91745 1.5458 10.4542 3.08254 10.6736 5.02974C10.7001 5.26473 10.7 5.53348 10.7 5.95014C10.7 5.96653 10.7 5.98314 10.7 5.99999C10.7 6.01685 10.7 6.03346 10.7 6.04985C10.7 6.46651 10.7001 6.73526 10.6736 6.97024C10.4542 8.91745 8.91745 10.4542 6.97024 10.6736C6.73526 10.7001 6.46651 10.7 6.04985 10.7C6.03346 10.7 6.01685 10.7 5.99999 10.7C5.98314 10.7 5.96653 10.7 5.95014 10.7C5.53348 10.7 5.26473 10.7001 5.02974 10.6736C3.08254 10.4542 1.5458 8.91745 1.3264 6.97024C1.29993 6.73525 1.29995 6.4665 1.29999 6.04982C1.29999 6.03344 1.29999 6.01684 1.29999 5.99999C1.29999 5.98315 1.29999 5.96654 1.29999 5.95016C1.29995 5.53349 1.29993 5.26474 1.3264 5.02974C1.5458 3.08254 3.08254 1.5458 5.02974 1.3264C5.26474 1.29993 5.53349 1.29995 5.95016 1.29999ZM5.99999 2.69999C5.51657 2.69999 5.3329 2.7011 5.18649 2.7176C3.88836 2.86386 2.86386 3.88836 2.7176 5.18649C2.7011 5.3329 2.69999 5.51657 2.69999 5.99999C2.69999 6.48341 2.7011 6.66709 2.7176 6.81349C2.86386 8.11163 3.88836 9.13612 5.18649 9.28239C5.3329 9.29888 5.51657 9.29999 5.99999 9.29999C6.48341 9.29999 6.66709 9.29888 6.81349 9.28239C8.11163 9.13612 9.13612 8.11163 9.28239 6.81349C9.29888 6.66709 9.29999 6.48341 9.29999 5.99999C9.29999 5.51657 9.29888 5.3329 9.28239 5.18649C9.13612 3.88836 8.11163 2.86386 6.81349 2.7176C6.66709 2.7011 6.48341 2.69999 5.99999 2.69999Z" fill="#222628"/>
<path fill-rule="evenodd" clip-rule="evenodd" d="M5.95016 12.3C5.96654 12.3 5.98315 12.3 5.99999 12.3C6.01684 12.3 6.03344 12.3 6.04982 12.3C6.4665 12.3 6.73525 12.2999 6.97024 12.3264C8.91745 12.5458 10.4542 14.0825 10.6736 16.0297C10.7001 16.2647 10.7 16.5335 10.7 16.9501C10.7 16.9665 10.7 16.9831 10.7 17C10.7 17.0168 10.7 17.0335 10.7 17.0498C10.7 17.4665 10.7001 17.7353 10.6736 17.9702C10.4542 19.9174 8.91745 21.4542 6.97024 21.6736C6.73526 21.7001 6.46651 21.7 6.04985 21.7C6.03346 21.7 6.01685 21.7 5.99999 21.7C5.98314 21.7 5.96653 21.7 5.95014 21.7C5.53348 21.7 5.26473 21.7001 5.02974 21.6736C3.08254 21.4542 1.5458 19.9174 1.3264 17.9702C1.29993 17.7353 1.29995 17.4665 1.29999 17.0498C1.29999 17.0334 1.29999 17.0168 1.29999 17C1.29999 16.9832 1.29999 16.9665 1.29999 16.9502C1.29995 16.5335 1.29993 16.2647 1.3264 16.0297C1.5458 14.0825 3.08254 12.5458 5.02974 12.3264C5.26474 12.2999 5.53349 12.3 5.95016 12.3ZM5.99999 13.7C5.51657 13.7 5.3329 13.7011 5.18649 13.7176C3.88836 13.8639 2.86386 14.8884 2.7176 16.1865C2.7011 16.3329 2.69999 16.5166 2.69999 17C2.69999 17.4834 2.7011 17.6671 2.7176 17.8135C2.86386 19.1116 3.88836 20.1361 5.18649 20.2824C5.3329 20.2989 5.51657 20.3 5.99999 20.3C6.48341 20.3 6.66709 20.2989 6.81349 20.2824C8.11163 20.1361 9.13612 19.1116 9.28239 17.8135C9.29888 17.6671 9.29999 17.4834 9.29999 17C9.29999 16.5166 9.29888 16.3329 9.28239 16.1865C9.13612 14.8884 8.11163 13.8639 6.81349 13.7176C6.66709 13.7011 6.48341 13.7 5.99999 13.7Z" fill="#222628"/>
</svg>
