<svg width="24" height="24" viewBox="0 0 24 24" fill="none" xmlns="http://www.w3.org/2000/svg">
<path opacity="0.4" d="M13.6322 3.05522C14.2331 2.34005 15.2506 2.13382 16.0547 2.60925C16.7149 2.9996 17.4743 3.48445 18.0112 3.9356C18.5397 4.37967 19.1231 5.01828 19.6013 5.58144C20.2018 6.28872 20.1696 7.31831 19.5727 8.02867L9.11673 20.4729C8.68124 20.9912 8.08495 21.3482 7.41853 21.4672C5.95169 21.7291 3.38476 22.1249 2.96521 21.7724C2.54567 21.4199 2.49316 18.8232 2.49837 17.3331C2.50074 16.6562 2.74957 16.0073 3.18506 15.489L13.6322 3.05522Z" fill="#C4C4C4"/>
<path fill-rule="evenodd" clip-rule="evenodd" d="M8.04486 19.5723L18.5009 7.12806C18.6904 6.90254 18.6613 6.63743 18.5341 6.48757C18.068 5.93861 17.5461 5.37335 17.1106 5.00747C16.6661 4.63402 15.9894 4.19704 15.3422 3.81435C15.1656 3.70995 14.8939 3.73 14.7041 3.95583L4.25693 16.3896C4.02217 16.669 3.89953 17.0043 3.89836 17.338C3.8958 18.0721 3.90781 19.0511 3.96871 19.8763C3.98621 20.1133 4.00685 20.3245 4.02999 20.5052C4.21199 20.4968 4.42354 20.4808 4.66002 20.4571C5.48331 20.3749 6.44979 20.218 7.17242 20.089C7.501 20.0303 7.81011 19.8517 8.04486 19.5723ZM16.0547 2.60925C15.2506 2.13382 14.2331 2.34005 13.6322 3.05522L3.18506 15.489C2.74957 16.0073 2.50074 16.6562 2.49837 17.3331C2.49316 18.8232 2.54567 21.4199 2.96521 21.7724C3.38476 22.1249 5.95169 21.7291 7.41853 21.4672C8.08495 21.3482 8.68124 20.9912 9.11673 20.4729L19.5727 8.02867C20.1696 7.31831 20.2018 6.28872 19.6013 5.58144C19.1231 5.01828 18.5397 4.37967 18.0112 3.9356C17.4743 3.48445 16.7149 2.9996 16.0547 2.60925Z" fill="#222628"/>
<path fill-rule="evenodd" clip-rule="evenodd" d="M13.0048 5.61794C13.0048 5.61797 13.0048 5.6179 13.0048 5.61794L13.0064 5.62032L13.0137 5.63148L13.045 5.67819C13.0729 5.71957 13.1145 5.78042 13.1675 5.8558C13.2739 6.00696 13.425 6.21451 13.6033 6.43961C13.9747 6.90862 14.4102 7.38396 14.7783 7.62631C15.2346 7.92669 15.7515 8.2431 16.1575 8.48614C16.3598 8.60724 16.5332 8.70929 16.6558 8.78096C16.7171 8.81679 16.7657 8.84499 16.7987 8.86415L16.8364 8.88592L16.8482 8.8927C16.8482 8.8927 16.8488 8.89305 16.5 9.49998M12.4182 5.99998L11.8317 6.38202C11.6207 6.05807 11.7123 5.62442 12.0362 5.41342C12.3601 5.20248 12.7937 5.29417 13.0048 5.61794C13.0048 5.61797 13.0048 5.6179 13.0048 5.61794M16.5 9.49998C16.1512 10.1069 16.1512 10.1069 16.1512 10.1069L16.1369 10.0986L16.0971 10.0756C16.0625 10.0556 16.0124 10.0265 15.9493 9.98963C15.8233 9.91599 15.6457 9.81142 15.4385 9.68737C15.0254 9.44009 14.489 9.11199 14.0085 8.79563C13.4398 8.42122 12.8877 7.79108 12.5058 7.30878C12.3073 7.05821 12.1403 6.82867 12.0227 6.66163C11.9638 6.57791 11.9169 6.50939 11.8844 6.46118C11.8681 6.43706 11.8554 6.41798 11.8465 6.40459L11.8361 6.38882L11.8332 6.38427L11.8317 6.38202C11.8316 6.38194 11.8317 6.38202 12.4182 5.99998" fill="#222628"/>
<path fill-rule="evenodd" clip-rule="evenodd" d="M14 21.3C14 20.9134 14.3134 20.6 14.7 20.6H21.3C21.6866 20.6 22 20.9134 22 21.3C22 21.6866 21.6866 22 21.3 22H14.7C14.3134 22 14 21.6866 14 21.3Z" fill="#222628"/>
</svg>
