<svg width="24" height="24" viewBox="0 0 24 24" fill="none" xmlns="http://www.w3.org/2000/svg">
<path opacity="0.4" d="M14.9075 2.92363C15.5108 2.20557 16.5335 2.00096 17.3389 2.48161C17.9953 2.87336 18.7489 3.35815 19.2836 3.80743C19.8097 4.24951 20.392 4.88241 20.8708 5.44153C21.4768 6.14923 21.4472 7.18391 20.8478 7.89726L10.6929 19.9832C10.2498 20.5105 9.64048 20.8706 8.96096 20.9834C7.50605 21.2248 5.00385 21.5776 4.58751 21.2278C4.17117 20.878 4.08742 18.3524 4.07449 16.8776C4.06845 16.1889 4.31815 15.5266 4.76125 14.9992L14.9075 2.92363Z" fill="#C4C4C4"/>
<path fill-rule="evenodd" clip-rule="evenodd" d="M9.62106 19.0825L19.776 6.99665C19.9661 6.77036 19.9368 6.50321 19.8074 6.35215C19.3406 5.80703 18.8185 5.24525 18.383 4.8793C17.9383 4.5057 17.265 4.06788 16.6214 3.68379C16.4434 3.57756 16.1698 3.59763 15.9793 3.82425L5.83312 15.8998C5.59416 16.1842 5.47146 16.5262 5.47444 16.8654C5.4808 17.5916 5.50463 18.5487 5.57448 19.3535C5.59476 19.5872 5.61785 19.7947 5.643 19.9716C5.8216 19.9659 6.02996 19.9528 6.26363 19.9325C7.06839 19.8627 8.01532 19.7212 8.73178 19.6023C9.06635 19.5468 9.3821 19.3669 9.62106 19.0825ZM17.3389 2.48161C16.5335 2.00096 15.5108 2.20557 14.9075 2.92363L4.76125 14.9992C4.31815 15.5266 4.06845 16.1889 4.07449 16.8776C4.08742 18.3524 4.17117 20.878 4.58751 21.2278C5.00385 21.5776 7.50605 21.2248 8.96096 20.9834C9.64048 20.8706 10.2498 20.5105 10.6929 19.9832L20.8478 7.89726C21.4472 7.18391 21.4768 6.14923 20.8708 5.44153C20.392 4.88241 19.8097 4.24951 19.2836 3.80743C18.7489 3.35815 17.9953 2.87336 17.3389 2.48161Z" fill="#222628"/>
<path fill-rule="evenodd" clip-rule="evenodd" d="M14.5867 5.33263C14.3657 5.01551 13.9295 4.93744 13.6123 5.15834L14.5867 5.33263ZM13.6123 5.15834C13.295 5.37927 13.2169 5.81556 13.4379 6.13281L13.6123 5.15834ZM13.4379 6.13281L14.0123 5.73277L13.4379 6.13281ZM14.0123 5.73277C13.4379 6.13281 13.4378 6.13273 13.4379 6.13281L14.0123 5.73277ZM13.4379 6.13281L13.4394 6.13503L13.4379 6.13281ZM13.4394 6.13503L13.4427 6.13968L13.4394 6.13503ZM13.4427 6.13968L13.4542 6.15601L13.4427 6.13968ZM13.4542 6.15601C13.464 6.16994 13.4782 6.18985 13.4964 6.21508L13.4542 6.15601ZM13.4964 6.21508C13.5326 6.26552 13.5849 6.33735 13.6507 6.42526L13.4964 6.21508ZM13.6507 6.42526C13.7819 6.60072 13.968 6.842 14.1879 7.10589L13.6507 6.42526ZM14.1879 7.10589C14.614 7.61703 15.2175 8.27492 15.8206 8.67198L14.1879 7.10589ZM19.1051 9.85182C18.9108 10.186 18.4823 10.2995 18.1481 10.1051L18.1327 10.0961L18.0896 10.0709C18.0521 10.049 17.9977 10.0171 17.9292 9.97665C17.7924 9.89587 17.5995 9.78122 17.3743 9.64533C16.9253 9.37433 16.3427 9.01577 15.8206 8.67198M19.1051 9.85182C19.2994 9.51761 19.186 9.08916 18.8518 8.89484L19.1051 9.85182Z" fill="#222628"/>
</svg>
