<svg width="24" height="24" viewBox="0 0 24 24" fill="none" xmlns="http://www.w3.org/2000/svg">
<path opacity="0.4" d="M19 11V13C19 15.8003 19 17.2004 18.455 18.27C17.9757 19.2108 17.2108 19.9757 16.27 20.455C15.2004 21 13.8003 21 11 21C8.19974 21 6.79961 21 5.73005 20.455C4.78924 19.9757 4.02433 19.2108 3.54497 18.27C3 17.2004 3 16.6855 3 15.6556C3 11.0849 3 8.79961 3.54497 7.73005C4.02433 6.78924 4.78924 6.02433 5.73005 5.54497C6.79961 5 8.19974 5 11 5H13C13.929 5 14.3935 5 14.7822 5.06156C16.9216 5.40042 18.5996 7.07837 18.9384 9.21783C19 9.60649 19 10.071 19 11Z" fill="#C4C4C4"/>
<path fill-rule="evenodd" clip-rule="evenodd" d="M12.505 11.566C12.2317 11.2927 12.2317 10.8494 12.505 10.5761L19.5761 3.505C19.8495 3.23163 20.2927 3.23164 20.5661 3.505C20.8394 3.77837 20.8394 4.22158 20.5661 4.49495L13.495 11.566C13.2216 11.8394 12.7784 11.8394 12.505 11.566Z" fill="#222628"/>
<path fill-rule="evenodd" clip-rule="evenodd" d="M20.6569 3.60001C20.6569 3.93138 20.3882 4.20001 20.0569 4.20001L15.6 4.20001C15.2686 4.20001 15 3.93138 15 3.60001C15 3.26864 15.2686 3.00001 15.6 3.00001L20.0569 3.00001C20.3882 3.00001 20.6569 3.26864 20.6569 3.60001Z" fill="#222628"/>
<path fill-rule="evenodd" clip-rule="evenodd" d="M20.4 3C20.0686 3 19.8 3.26863 19.8 3.6L19.8 8.05685C19.8 8.38823 20.0686 8.65685 20.4 8.65685C20.7314 8.65685 21 8.38823 21 8.05685L21 3.6C21 3.26863 20.7314 3 20.4 3Z" fill="#222628"/>
<path fill-rule="evenodd" clip-rule="evenodd" d="M10.9685 4.29999L13 4.29999C13.3866 4.29999 13.7 4.61339 13.7 4.99999C13.7 5.38659 13.3866 5.69999 13 5.69999H11C9.58831 5.69999 8.57165 5.70053 7.773 5.76578C6.98253 5.83037 6.46748 5.95484 6.04783 6.16866C5.23874 6.58092 4.58092 7.23873 4.16866 8.04783C3.97086 8.43605 3.83544 9.13703 3.76712 10.4172C3.70023 11.6704 3.69999 13.3619 3.69999 15.6556C3.69999 16.1843 3.70192 16.5073 3.75773 16.8278C3.81072 17.132 3.91831 17.4608 4.16866 17.9521C4.58092 18.7612 5.23874 19.4191 6.04783 19.8313C6.46748 20.0451 6.98253 20.1696 7.773 20.2342C8.57165 20.2994 9.58831 20.3 11 20.3C12.4117 20.3 13.4283 20.2994 14.227 20.2342C15.0175 20.1696 15.5325 20.0451 15.9522 19.8313C16.7612 19.4191 17.4191 18.7612 17.8313 17.9521C18.0451 17.5325 18.1696 17.0174 18.2342 16.227C18.2994 15.4283 18.3 14.4117 18.3 13V11C18.3 10.6134 18.6134 10.3 19 10.3C19.3866 10.3 19.7 10.6134 19.7 11V13.0314C19.7 14.4049 19.7 15.4787 19.6295 16.341C19.5579 17.218 19.4099 17.9378 19.0787 18.5877C18.5323 19.6603 17.6603 20.5322 16.5877 21.0787C15.9378 21.4099 15.218 21.5579 14.341 21.6295C13.4787 21.7 12.4049 21.7 11.0314 21.7H10.9686C9.59505 21.7 8.52131 21.7 7.659 21.6295C6.78195 21.5579 6.06215 21.4099 5.41225 21.0787C4.33972 20.5322 3.46773 19.6603 2.92125 18.5877C2.62664 18.0095 2.46175 17.546 2.37849 17.068C2.29991 16.6167 2.29995 16.1773 2.29999 15.6899L2.29999 15.6318C2.29999 13.3665 2.29999 11.6376 2.36911 10.3426C2.43703 9.07004 2.5741 8.09358 2.92125 7.41224C3.46773 6.33972 4.33972 5.46773 5.41225 4.92125C6.06215 4.59011 6.78195 4.44209 7.659 4.37043C8.5213 4.29998 9.59503 4.29998 10.9685 4.29999Z" fill="#222628"/>
</svg>
