<svg width="24" height="24" viewBox="0 0 24 24" fill="none" xmlns="http://www.w3.org/2000/svg">
<path opacity="0.4" d="M11.5 5C7.5 5 4.5 8 2 12C3.33267 14.1323 4.80743 16.239 6.5 17.5L17 7C15.5174 5.89546 13.3677 5 11.5 5Z" fill="#C4C4C4"/>
<path fill-rule="evenodd" clip-rule="evenodd" d="M2.82804 12.0013C3.95885 13.7824 5.14984 15.4399 6.44886 16.5612L15.9059 7.10415C14.5827 6.29022 12.9234 5.69999 11.5 5.69999C8.00624 5.69999 5.25259 8.23389 2.82804 12.0013ZM1.40639 11.629C3.9249 7.59937 7.10684 4.29999 11.5 4.29999C13.5568 4.29999 15.8497 5.2701 17.4182 6.43865C17.5812 6.56012 17.6834 6.74647 17.6981 6.94925C17.7129 7.15203 17.6387 7.3512 17.495 7.49496L6.99496 17.995C6.74924 18.2407 6.36045 18.2689 6.08178 18.0613C4.27206 16.7131 2.73731 14.5005 1.40639 12.371C1.26452 12.144 1.26452 11.856 1.40639 11.629Z" fill="#222628"/>
<path fill-rule="evenodd" clip-rule="evenodd" d="M20.6684 12.001C18.2264 15.7308 14.5188 18.7534 9.56339 18.3029C9.17838 18.2679 8.83789 18.5516 8.80289 18.9366C8.76789 19.3216 9.05163 19.6621 9.43664 19.6971C15.3175 20.2317 19.53 16.4728 22.0936 12.371C22.2355 12.144 22.2355 11.856 22.0936 11.629C21.4011 10.5209 20.7469 9.73413 20.2582 9.21876C20.0139 8.96113 19.8112 8.77147 19.6658 8.64348C19.5931 8.57948 19.5347 8.5309 19.4927 8.49696C19.4717 8.47999 19.4548 8.46667 19.4422 8.45691L19.4265 8.44493L19.4212 8.44092L19.4192 8.4394L19.4184 8.43877C19.4182 8.43863 19.4176 8.43821 19 9.00001L19.4184 8.43877C19.1081 8.20813 18.6689 8.27214 18.4382 8.58241C18.2081 8.89199 18.2719 9.32922 18.5804 9.56026M18.5804 9.56026L18.5847 9.56363C18.5899 9.56763 18.5993 9.57503 18.6129 9.58595C18.6399 9.60779 18.6831 9.64366 18.7407 9.69433C18.8558 9.79567 19.0282 9.9562 19.2423 10.182C19.6169 10.5771 20.1198 11.1724 20.6684 12.001M18.5804 9.56026L18.5821 9.56155L18.5804 9.56026Z" fill="#222628"/>
<path fill-rule="evenodd" clip-rule="evenodd" d="M15.1112 9.87869L9.87862 15.1113L9.38364 14.6163C9.04006 14.2727 8.76752 13.8648 8.58158 13.4159C8.39564 12.967 8.29994 12.4859 8.29994 12C8.29994 11.5141 8.39564 11.033 8.58158 10.5841C8.76752 10.1352 9.04006 9.72729 9.38364 9.38372C9.72722 9.04014 10.1351 8.7676 10.584 8.58166C11.0329 8.39572 11.514 8.30001 11.9999 8.30001C12.4858 8.30001 12.967 8.39572 13.4159 8.58166C13.8648 8.7676 14.2727 9.04014 14.6162 9.38372L15.1112 9.87869ZM13.0542 9.95584C12.9974 9.92656 12.9393 9.89962 12.8801 9.87509C12.6011 9.7595 12.302 9.70001 11.9999 9.70001C11.6979 9.70001 11.3988 9.7595 11.1198 9.87509C10.8407 9.99068 10.5872 10.1601 10.3736 10.3737C10.16 10.5872 9.9906 10.8408 9.87501 11.1198C9.75943 11.3989 9.69994 11.698 9.69994 12C9.69994 12.3021 9.75943 12.6011 9.87501 12.8802C9.89954 12.9394 9.92649 12.9975 9.95577 13.0542L13.0542 9.95584Z" fill="#222628"/>
<path fill-rule="evenodd" clip-rule="evenodd" d="M19.495 4.49498C19.7683 4.76835 19.7683 5.21157 19.495 5.48493L5.4849 19.495C5.21154 19.7684 4.76832 19.7684 4.49495 19.495C4.22159 19.2216 4.22159 18.7784 4.49496 18.505L18.505 4.49498C18.7784 4.22162 19.2216 4.22162 19.495 4.49498Z" fill="#222628"/>
<path fill-rule="evenodd" clip-rule="evenodd" d="M14.6641 12.6736C14.6439 12.2923 14.9337 11.9642 15.3159 11.9384C15.7016 11.9123 16.0355 12.2039 16.0615 12.5896L15.3631 12.6368C16.0615 12.5896 16.0616 12.5899 16.0616 12.5903L16.0616 12.591L16.0617 12.5925L16.0619 12.5957L16.0624 12.6033L16.0632 12.6228C16.0637 12.6376 16.0641 12.6561 16.0641 12.6781C16.0642 12.7221 16.0627 12.78 16.0574 12.8499C16.0468 12.9893 16.0209 13.178 15.9611 13.398C15.8407 13.8409 15.5834 14.4065 15.0481 14.9418C14.5127 15.4772 13.9471 15.7345 13.5042 15.8549C13.2842 15.9147 13.0955 15.9405 12.9561 15.9511C12.8862 15.9565 12.8283 15.958 12.7843 15.9579C12.7624 15.9579 12.7438 15.9575 12.729 15.957L12.7096 15.9561L12.702 15.9557L12.6987 15.9555L12.6972 15.9554L12.6965 15.9554C12.6962 15.9553 12.6958 15.9553 12.743 15.2569L12.6958 15.9553C12.3101 15.9292 12.0186 15.5954 12.0446 15.2097C12.0705 14.8275 12.3985 14.5377 12.7798 14.5579C12.7786 14.5579 12.7782 14.5578 12.7785 14.5578M12.7798 14.5579C12.781 14.5579 12.7829 14.5579 12.7856 14.5579C12.7963 14.5579 12.8184 14.5576 12.85 14.5552C12.9135 14.5503 13.0135 14.5375 13.1369 14.5039C13.3807 14.4376 13.7201 14.2899 14.0581 13.9519C14.3961 13.6139 14.5439 13.2745 14.6101 13.0307C14.6437 12.9073 14.6566 12.8073 14.6614 12.7438C14.6638 12.7122 14.6642 12.6901 14.6641 12.6794C14.6641 12.6767 14.6641 12.6748 14.6641 12.6736" fill="#222628"/>
</svg>
