<svg width="24" height="24" viewBox="0 0 24 24" fill="none" xmlns="http://www.w3.org/2000/svg">
<path opacity="0.4" d="M12 5C8 5 5 8 2.5 12C5 16 8 19 12 19C16 19 19 16 21.5 12C19 8 16 5 12 5Z" fill="#C4C4C4"/>
<path fill-rule="evenodd" clip-rule="evenodd" d="M3.32886 12C5.75321 15.7667 8.50663 18.3 12 18.3C15.4933 18.3 18.2468 15.7667 20.6711 12C18.2468 8.23332 15.4933 5.69999 12 5.69999C8.50663 5.69999 5.75321 8.23332 3.32886 12ZM1.90639 11.629C4.4249 7.59937 7.60684 4.29999 12 4.29999C16.3931 4.29999 19.5751 7.59937 22.0936 11.629C22.2355 11.856 22.2355 12.144 22.0936 12.371C19.5751 16.4006 16.3931 19.7 12 19.7C7.60684 19.7 4.4249 16.4006 1.90639 12.371C1.76452 12.144 1.76452 11.856 1.90639 11.629Z" fill="#222628"/>
<path fill-rule="evenodd" clip-rule="evenodd" d="M12 9.69999C10.7297 9.69999 9.69999 10.7297 9.69999 12C9.69999 13.2702 10.7297 14.3 12 14.3C13.2702 14.3 14.3 13.2702 14.3 12C14.3 10.7297 13.2702 9.69999 12 9.69999ZM8.29999 12C8.29999 9.95653 9.95653 8.29999 12 8.29999C14.0434 8.29999 15.7 9.95653 15.7 12C15.7 14.0434 14.0434 15.7 12 15.7C9.95653 15.7 8.29999 14.0434 8.29999 12Z" fill="#222628"/>
</svg>
