<svg width="24" height="24" viewBox="0 0 24 24" fill="none" xmlns="http://www.w3.org/2000/svg">
<path fill-rule="evenodd" clip-rule="evenodd" d="M4 12.7C4.3866 12.7 4.7 12.3866 4.7 12L4.7 6.50001C4.7 6.11341 4.3866 5.80001 4 5.80001C3.6134 5.80001 3.3 6.11341 3.3 6.50001L3.3 12C3.3 12.3866 3.6134 12.7 4 12.7Z" fill="#222628"/>
<path opacity="0.4" d="M11.009 18.5078C9.4079 16.8069 7.63722 14.0619 6.95569 12.9699C6.76377 12.6624 6.66663 12.3085 6.66663 11.946L6.66663 7.53863C6.66663 6.88748 6.98362 6.2771 7.51627 5.90257L8.28235 5.36392C8.6192 5.12708 9.02093 4.99998 9.43271 4.99998L14.4681 4.99998C15.2407 4.99998 15.9443 5.44505 16.2753 6.14324L18.9842 11.8574C19.456 12.8527 18.7302 14 17.6288 14L12.9716 14C12.5649 14 12.3283 14.4597 12.5647 14.7906L13.1396 15.5954C13.8539 16.5955 13.5058 17.9971 12.4065 18.5467L12.123 18.6885C11.7486 18.8757 11.2959 18.8125 11.009 18.5078Z" fill="#C4C4C4"/>
<path fill-rule="evenodd" clip-rule="evenodd" d="M11.81 18.0624C11.6893 18.1227 11.5768 18.0897 11.5187 18.0279C9.97107 16.3839 8.23319 13.6947 7.54953 12.5992C7.42987 12.4075 7.36663 12.183 7.36663 11.946L7.36663 7.53863C7.36663 7.11538 7.57267 6.71863 7.9189 6.47519L8.68498 5.93654C8.90393 5.78259 9.16506 5.69998 9.43271 5.69998L14.4681 5.69998C14.9703 5.69998 15.4276 5.98927 15.6428 6.44309L18.3517 12.1573C18.6033 12.6881 18.2162 13.3 17.6288 13.3L12.9716 13.3C11.9956 13.3 11.4278 14.4032 11.9951 15.1975L12.57 16.0023C13.0343 16.6523 12.808 17.5634 12.0935 17.9206L11.81 18.0624ZM10.4993 18.9876C11.015 19.5354 11.8079 19.6287 12.4361 19.3146L12.7196 19.1728C14.2035 18.4309 14.6735 16.5386 13.7092 15.1885L13.3602 14.7L17.6288 14.7C19.2442 14.7 20.3087 13.0172 19.6168 11.5576L16.9078 5.84337C16.461 4.90082 15.5112 4.29998 14.4681 4.29998L9.43271 4.29998C8.87682 4.29998 8.33447 4.47156 7.87973 4.7913L7.11365 5.32995C6.39456 5.83556 5.96663 6.65958 5.96663 7.53863L5.96663 11.946C5.96663 12.434 6.09766 12.9172 6.36186 13.3405C7.04124 14.4291 8.84473 17.2299 10.4993 18.9876Z" fill="#222628"/>
</svg>
