<svg width="24" height="24" viewBox="0 0 24 24" fill="none" xmlns="http://www.w3.org/2000/svg">
<path fill-rule="evenodd" clip-rule="evenodd" d="M4 11.3C4.3866 11.3 4.7 11.6134 4.7 12V17.5C4.7 17.8866 4.3866 18.2 4 18.2C3.6134 18.2 3.3 17.8866 3.3 17.5V12C3.3 11.6134 3.6134 11.3 4 11.3Z" fill="#222628"/>
<path opacity="0.4" d="M11.009 5.49224C9.40794 7.19308 7.63725 9.93814 6.95573 11.0301C6.7638 11.3376 6.66666 11.6915 6.66666 12.054V16.4614C6.66666 17.1125 6.98365 17.7229 7.51631 18.0974L8.28239 18.6361C8.61923 18.8729 9.02097 19 9.43274 19H14.4681C15.2408 19 15.9443 18.5549 16.2753 17.8568L18.9843 12.1426C19.4561 11.1473 18.7302 10 17.6289 10H12.9716C12.5649 10 12.3284 9.54031 12.5648 9.20938L13.1396 8.40459C13.8539 7.40454 13.5058 6.00287 12.4066 5.45326L12.123 5.3115C11.7486 5.1243 11.2959 5.18745 11.009 5.49224Z" fill="#C4C4C4"/>
<path fill-rule="evenodd" clip-rule="evenodd" d="M11.81 5.9376C11.6893 5.87727 11.5768 5.91031 11.5187 5.97205C9.97111 7.61608 8.23323 10.3053 7.54956 11.4008C7.42991 11.5925 7.36667 11.817 7.36667 12.054V16.4614C7.36667 16.8846 7.57271 17.2814 7.91894 17.5248L8.68502 18.0635C8.90397 18.2174 9.1651 18.3 9.43275 18.3H14.4681C14.9703 18.3 15.4277 18.0107 15.6428 17.5569L18.3517 11.8427C18.6034 11.3119 18.2163 10.7 17.6289 10.7H12.9716C11.9956 10.7 11.4278 9.59676 11.9952 8.80252L12.57 7.99773C13.0343 7.3477 12.808 6.43661 12.0935 6.07937L11.81 5.9376ZM10.4993 5.01245C11.015 4.46461 11.808 4.37134 12.4361 4.6854L12.7196 4.82717C14.2036 5.56914 14.6736 7.4614 13.7092 8.81147L13.3603 9.3H17.6289C19.2442 9.3 20.3088 10.9828 19.6168 12.4424L16.9078 18.1566C16.461 19.0992 15.5112 19.7 14.4681 19.7H9.43275C8.87685 19.7 8.33451 19.5284 7.87977 19.2087L7.11369 18.6701C6.3946 18.1644 5.96667 17.3404 5.96667 16.4614V12.054C5.96667 11.566 6.0977 11.0828 6.3619 10.6595C7.04128 9.57095 8.84477 6.77008 10.4993 5.01245Z" fill="#222628"/>
</svg>
