<svg width="24" height="24" viewBox="0 0 24 24" fill="none" xmlns="http://www.w3.org/2000/svg">
<path opacity="0.4" d="M14.5357 13.0357L20.1106 8.20412C20.9931 7.43935 21.5 6.32916 21.5 5.16145C21.5 4.52 20.9814 4 20.34 4H12H3.66004C3.01859 4 2.5 4.52 2.5 5.16145C2.5 6.32916 3.00695 7.43935 3.88937 8.20412L9.46429 13.0357C9.80453 13.3306 10 13.7587 10 14.2089V20.0979C10 20.4906 10.432 20.73 10.765 20.5219L13.06 19.0875C13.6448 18.722 14 18.0811 14 17.3915V14.2089C14 13.7587 14.1955 13.3306 14.5357 13.0357Z" fill="#C4C4C4"/>
<path fill-rule="evenodd" clip-rule="evenodd" d="M3.66003 4.69999C3.40628 4.69999 3.19999 4.90548 3.19999 5.16144C3.19999 6.12614 3.6188 7.04332 4.34781 7.67513L9.92272 12.5067C10.4164 12.9346 10.7 13.5556 10.7 14.2089V19.737L12.689 18.4939C13.0691 18.2563 13.3 17.8397 13.3 17.3915V14.2089C13.3 13.5556 13.5836 12.9346 14.0773 12.5067L19.6522 7.67513C20.3812 7.04332 20.8 6.12614 20.8 5.16144C20.8 4.90548 20.5937 4.69999 20.3399 4.69999H3.66003ZM1.79999 5.16144C1.79999 4.13449 2.63087 3.29999 3.66003 3.29999H20.3399C21.3691 3.29999 22.2 4.13449 22.2 5.16144C22.2 6.53216 21.6049 7.83537 20.5691 8.73309L14.9942 13.5647C14.8073 13.7266 14.7 13.9617 14.7 14.2089V17.3915C14.7 18.3224 14.2204 19.1877 13.431 19.6811L11.136 21.1155C10.3367 21.615 9.29999 21.0404 9.29999 20.0979V14.2089C9.29999 13.9617 9.19265 13.7266 9.00582 13.5647L3.43091 8.73309C2.39507 7.83537 1.79999 6.53216 1.79999 5.16144Z" fill="#222628"/>
</svg>
