<svg width="24" height="24" viewBox="0 0 24 24" fill="none" xmlns="http://www.w3.org/2000/svg">
<path opacity="0.4" d="M8 8C8 9.65685 6.65685 11 5 11C3.34315 11 2 9.65685 2 8C2 6.34315 3.34315 5 5 5C6.65685 5 8 6.34315 8 8Z" fill="#C4C4C4"/>
<path opacity="0.4" d="M22 18C22 19.6569 20.6569 21 19 21C17.3431 21 16 19.6569 16 18C16 16.3431 17.3431 15 19 15C20.6569 15 22 16.3431 22 18Z" fill="#C4C4C4"/>
<path fill-rule="evenodd" clip-rule="evenodd" d="M4.99999 5.69999C3.72973 5.69999 2.69999 6.72973 2.69999 7.99999C2.69999 9.27024 3.72973 10.3 4.99999 10.3C6.27024 10.3 7.29999 9.27024 7.29999 7.99999C7.29999 6.72973 6.27024 5.69999 4.99999 5.69999ZM1.29999 7.99999C1.29999 5.95653 2.95653 4.29999 4.99999 4.29999C7.04344 4.29999 8.69999 5.95653 8.69999 7.99999C8.69999 10.0434 7.04344 11.7 4.99999 11.7C2.95653 11.7 1.29999 10.0434 1.29999 7.99999Z" fill="#222628"/>
<path fill-rule="evenodd" clip-rule="evenodd" d="M19 15.7C17.7297 15.7 16.7 16.7297 16.7 18C16.7 19.2702 17.7297 20.3 19 20.3C20.2702 20.3 21.3 19.2702 21.3 18C21.3 16.7297 20.2702 15.7 19 15.7ZM15.3 18C15.3 15.9565 16.9565 14.3 19 14.3C21.0434 14.3 22.7 15.9565 22.7 18C22.7 20.0434 21.0434 21.7 19 21.7C16.9565 21.7 15.3 20.0434 15.3 18Z" fill="#222628"/>
<path fill-rule="evenodd" clip-rule="evenodd" d="M22.7 8.00001C22.7 8.38661 22.3866 8.70001 22 8.70001L12 8.70001C11.6134 8.70001 11.3 8.38661 11.3 8.00001C11.3 7.61341 11.6134 7.30001 12 7.30001L22 7.30001C22.3866 7.30001 22.7 7.61341 22.7 8.00001Z" fill="#222628"/>
<path fill-rule="evenodd" clip-rule="evenodd" d="M12.7 18C12.7 18.3866 12.3866 18.7 12 18.7H2.00001C1.61341 18.7 1.30001 18.3866 1.30001 18C1.30001 17.6134 1.61341 17.3 2.00001 17.3H12C12.3866 17.3 12.7 17.6134 12.7 18Z" fill="#222628"/>
</svg>
