<svg width="24" height="24" viewBox="0 0 24 24" fill="none" xmlns="http://www.w3.org/2000/svg">
<path opacity="0.4" d="M2 7.72773C2 6.11572 2 5.30971 2.30169 4.68884C2.59556 4.08407 3.08407 3.59556 3.68884 3.30169C4.30971 3 5.11572 3 6.72773 3H7.39922C7.55454 3 7.63221 3 7.70619 3.00366C8.51324 3.04354 9.27008 3.40729 9.80538 4.01258C9.85445 4.06807 9.90297 4.12871 10 4.25C10.097 4.37129 10.1455 4.43193 10.1946 4.48742C10.7299 5.09271 11.4868 5.45646 12.2938 5.49634C12.3678 5.5 12.4455 5.5 12.6008 5.5H14.8C17.7998 5.5 19.2997 5.5 20.3511 6.26393C20.6907 6.51065 20.9893 6.80928 21.2361 7.14886C22 8.20032 22 9.70021 22 12.7V13.8C22 16.7998 22 18.2997 21.2361 19.3511C20.9893 19.6907 20.6907 19.9893 20.3511 20.2361C19.2997 21 17.7998 21 14.8 21H9.2C6.20021 21 4.70032 21 3.64886 20.2361C3.30928 19.9893 3.01065 19.6907 2.76393 19.3511C2 18.2997 2 16.7998 2 13.8V7.72773Z" fill="#C4C4C4"/>
<path fill-rule="evenodd" clip-rule="evenodd" d="M7.67163 3.70279C7.61896 3.70019 7.56154 3.69999 7.39921 3.69999H6.72772C5.91064 3.69999 5.33823 3.70049 4.89135 3.73556C4.45216 3.77002 4.19364 3.83465 3.99477 3.93129C3.53111 4.15659 3.15658 4.53111 2.93129 4.99477C2.83465 5.19364 2.77002 5.45216 2.73555 5.89135C2.70049 6.33823 2.69999 6.91064 2.69999 7.72772V13.8C2.69999 15.3155 2.70095 16.3959 2.79141 17.2308C2.88045 18.0526 3.04941 18.5532 3.33023 18.9397C3.53377 19.2198 3.78014 19.4662 4.0603 19.6697C4.44681 19.9506 4.94737 20.1195 5.7692 20.2086C6.60412 20.299 7.6845 20.3 9.19999 20.3H14.8C16.3155 20.3 17.3959 20.299 18.2308 20.2086C19.0526 20.1195 19.5532 19.9506 19.9397 19.6697C20.2198 19.4662 20.4662 19.2198 20.6697 18.9397C20.9506 18.5532 21.1195 18.0526 21.2086 17.2308C21.299 16.3959 21.3 15.3155 21.3 13.8V12.7C21.3 11.1845 21.299 10.1041 21.2086 9.2692C21.1195 8.44738 20.9506 7.94681 20.6697 7.5603C20.4662 7.28015 20.2198 7.03378 19.9397 6.83023C19.5532 6.54941 19.0526 6.38045 18.2308 6.29141C17.3959 6.20095 16.3155 6.19999 14.8 6.19999L12.5834 6.19999C12.4447 6.2 12.3508 6.2 12.2592 6.19548C11.2639 6.14629 10.3305 5.69766 9.67025 4.95114C9.60954 4.8825 9.55087 4.80916 9.46426 4.70087L9.45338 4.68728C9.35197 4.56051 9.31595 4.51581 9.28101 4.4763C8.87061 4.01225 8.29037 3.73337 7.67163 3.70279ZM7.41662 2.29999C7.55528 2.29998 7.64921 2.29998 7.74073 2.3045C8.73609 2.35369 9.66952 2.80232 10.3297 3.54883C10.3904 3.61748 10.4491 3.69084 10.5357 3.79914L10.5466 3.8127C10.648 3.93946 10.684 3.98417 10.719 4.02368C11.1294 4.48773 11.7096 4.76661 12.3283 4.79719C12.381 4.79979 12.4384 4.79999 12.6008 4.79999L14.8418 4.79999C16.3062 4.79998 17.4625 4.79997 18.3816 4.89955C19.3225 5.0015 20.0976 5.2145 20.7626 5.69761C21.1616 5.9875 21.5125 6.33839 21.8024 6.7374C22.2855 7.40234 22.4985 8.17746 22.6004 9.1184C22.7 10.0375 22.7 11.1938 22.7 12.6583V13.8417C22.7 15.3062 22.7 16.4624 22.6004 17.3816C22.4985 18.3225 22.2855 19.0976 21.8024 19.7626C21.5125 20.1616 21.1616 20.5125 20.7626 20.8024C20.0976 21.2855 19.3225 21.4985 18.3816 21.6004C17.4624 21.7 16.3062 21.7 14.8417 21.7H9.15829C7.69376 21.7 6.53753 21.7 5.6184 21.6004C4.67746 21.4985 3.90234 21.2855 3.2374 20.8024C2.83839 20.5125 2.4875 20.1616 2.19761 19.7626C1.7145 19.0976 1.5015 18.3225 1.39955 17.3816C1.29997 16.4625 1.29998 15.3062 1.29999 13.8418V7.69878C1.29998 6.91732 1.29998 6.28993 1.33984 5.78184C1.38081 5.25981 1.46702 4.80489 1.67208 4.38289C2.03451 3.63701 2.63701 3.03451 3.38289 2.67208C3.80489 2.46702 4.2598 2.38081 4.78184 2.33985C5.28993 2.29998 5.91732 2.29998 6.69878 2.29999L7.41662 2.29999Z" fill="#222628"/>
<path fill-rule="evenodd" clip-rule="evenodd" d="M14 17.3C14 16.9134 14.3134 16.6 14.7 16.6H18.3C18.6866 16.6 19 16.9134 19 17.3C19 17.6866 18.6866 18 18.3 18H14.7C14.3134 18 14 17.6866 14 17.3Z" fill="#222628"/>
</svg>
