<svg width="24" height="24" viewBox="0 0 24 24" fill="none" xmlns="http://www.w3.org/2000/svg">
<path opacity="0.4" d="M1.50372 11.1906C1.7133 9.31679 3.34675 8 5.23228 8H18.7677C20.6532 8 22.2867 9.31679 22.4963 11.1906C22.9336 15.1005 22.982 21.1896 19 21C17.6982 20.938 16.3963 19.8975 15.6461 19.1786C15.217 18.7675 14.6563 18.5 14.0621 18.5H10.0502C9.39262 18.5 8.78085 18.8289 8.31959 19.2975C7.62521 20.0029 6.44591 20.9311 5 21C1.01804 21.1896 1.06642 15.1005 1.50372 11.1906Z" fill="#C4C4C4"/>
<path fill-rule="evenodd" clip-rule="evenodd" d="M0.808058 11.1128C1.06146 8.84717 3.02934 7.29999 5.23228 7.29999H18.7677C20.9707 7.29999 22.9385 8.84717 23.1919 11.1128C23.4124 13.0836 23.5457 15.6774 23.0895 17.781C22.8614 18.8328 22.4713 19.8335 21.8063 20.5672C21.1152 21.3297 20.1682 21.7564 18.9667 21.6992C18.15 21.6603 17.3815 21.3204 16.7496 20.932C16.1106 20.5392 15.5577 20.0634 15.1618 19.684C14.8378 19.3735 14.4436 19.2 14.0621 19.2H10.0502C9.62914 19.2 9.18699 19.4141 8.81846 19.7885C8.08745 20.5312 6.74854 21.6175 5.0333 21.6992C3.83184 21.7564 2.88477 21.3297 2.19365 20.5672C1.52869 19.8335 1.13865 18.8328 0.910537 17.781C0.45434 15.6774 0.587638 13.0836 0.808058 11.1128ZM5.23228 8.69999C3.66417 8.69999 2.36514 9.78639 2.19938 11.2684C1.9825 13.2076 1.87295 15.6132 2.27873 17.4843C2.48161 18.4197 2.79876 19.1501 3.23098 19.627C3.63706 20.075 4.17718 20.3384 4.9667 20.3008C6.14328 20.2448 7.16296 19.4747 7.82071 18.8064C8.37471 18.2436 9.1561 17.8 10.0502 17.8H14.0621C14.869 17.8 15.5963 18.1614 16.1304 18.6732C16.4847 19.0127 16.9579 19.4166 17.4828 19.7393C18.0148 20.0663 18.5482 20.2777 19.0333 20.3008C19.8228 20.3384 20.3629 20.075 20.769 19.627C21.2012 19.1501 21.5184 18.4197 21.7213 17.4843C22.127 15.6132 22.0175 13.2076 21.8006 11.2684C21.6349 9.78639 20.3358 8.69999 18.7677 8.69999H5.23228Z" fill="#222628"/>
<path fill-rule="evenodd" clip-rule="evenodd" d="M10.2565 1.29999L10.2565 1.99999C10.2565 2.23455 10.1799 2.43854 10.1204 2.57278C10.0632 2.70189 9.99019 2.83334 9.93298 2.93629C9.92858 2.94419 9.92428 2.95193 9.92009 2.95949C9.7788 3.21409 9.7156 3.34961 9.70192 3.45174C9.70162 3.45392 9.70117 3.45617 9.70069 3.45854C9.69627 3.48027 9.68973 3.51249 9.78804 3.59916C9.94647 3.73882 10.315 3.94302 11.102 4.14562C11.7307 4.30748 12.1428 4.70788 12.3835 5.17881C12.6118 5.62526 12.6837 6.125 12.6974 6.54698C12.7114 6.97686 12.6662 7.38159 12.6199 7.67275C12.5965 7.82002 12.5722 7.94232 12.5533 8.0293C12.5438 8.07288 12.5357 8.10783 12.5297 8.13288L12.5223 8.16294L12.5199 8.17215L12.5191 8.17526L12.5188 8.17643C12.5188 8.17665 12.5186 8.17734 11.8414 7.99999L12.5188 8.17643C12.4209 8.55041 12.0381 8.7751 11.6641 8.67715C11.2905 8.5793 11.0668 8.19741 11.164 7.82379L11.1646 7.8212L11.1686 7.80501C11.1723 7.78949 11.1781 7.76483 11.1852 7.73224C11.1994 7.66689 11.2186 7.57063 11.2373 7.45301C11.2752 7.21437 11.3083 6.90393 11.2982 6.59234C11.2878 6.27283 11.2335 6.00477 11.137 5.81616C11.0531 5.65203 10.942 5.5501 10.7529 5.50141C9.89475 5.28048 9.26934 5.00822 8.86225 4.64935C8.40577 4.24695 8.24873 3.7555 8.31431 3.26588C8.36715 2.87141 8.56476 2.51607 8.6827 2.304C8.68723 2.29585 8.69165 2.28791 8.69593 2.28019C8.76567 2.15451 8.80993 2.07456 8.84045 2.00569C8.84841 1.98773 8.85344 1.97473 8.85649 1.9662L8.85649 1.29999L10.2565 1.29999Z" fill="#222628"/>
<path fill-rule="evenodd" clip-rule="evenodd" d="M9.2 13C9.2 13.3866 8.8866 13.7 8.5 13.7H5.5C5.1134 13.7 4.8 13.3866 4.8 13C4.8 12.6134 5.1134 12.3 5.5 12.3H8.5C8.8866 12.3 9.2 12.6134 9.2 13Z" fill="#222628"/>
<path fill-rule="evenodd" clip-rule="evenodd" d="M7 10.8C7.3866 10.8 7.7 11.1134 7.7 11.5L7.7 14.5C7.7 14.8866 7.3866 15.2 7 15.2C6.6134 15.2 6.3 14.8866 6.3 14.5L6.3 11.5C6.3 11.1134 6.6134 10.8 7 10.8Z" fill="#222628"/>
<path fill-rule="evenodd" clip-rule="evenodd" d="M14.9 12.25C14.9 11.8358 15.2358 11.5 15.65 11.5H15.75C16.1642 11.5 16.5 11.8358 16.5 12.25C16.5 12.6642 16.1642 13 15.75 13H15.65C15.2358 13 14.9 12.6642 14.9 12.25Z" fill="#222628"/>
<path fill-rule="evenodd" clip-rule="evenodd" d="M17.9 14.25C17.9 13.8358 18.2358 13.5 18.65 13.5H18.75C19.1642 13.5 19.5 13.8358 19.5 14.25C19.5 14.6642 19.1642 15 18.75 15H18.65C18.2358 15 17.9 14.6642 17.9 14.25Z" fill="#222628"/>
</svg>
