<svg width="24" height="24" viewBox="0 0 24 24" fill="none" xmlns="http://www.w3.org/2000/svg">
<path opacity="0.4" d="M19.5 11.9999C19.5 16.1421 16.1421 19.4999 12 19.4999C7.85783 19.4999 4.49996 16.1421 4.49996 11.9999C4.49996 7.8578 7.85783 4.49994 12 4.49994C16.1421 4.49994 19.5 7.8578 19.5 11.9999Z" fill="#C4C4C4"/>
<path fill-rule="evenodd" clip-rule="evenodd" d="M12 5.19993C8.24442 5.19993 5.19996 8.24439 5.19996 11.9999C5.19996 15.7555 8.24442 18.7999 12 18.7999C15.7555 18.7999 18.8 15.7555 18.8 11.9999C18.8 8.24439 15.7555 5.19993 12 5.19993ZM3.79996 11.9999C3.79996 7.47119 7.47123 3.79993 12 3.79993C16.5287 3.79993 20.2 7.47119 20.2 11.9999C20.2 16.5287 16.5287 20.1999 12 20.1999C7.47123 20.1999 3.79996 16.5287 3.79996 11.9999Z" fill="#222628"/>
<path fill-rule="evenodd" clip-rule="evenodd" d="M12 18.8C12.3866 18.8 12.7 19.1134 12.7 19.5V22C12.7 22.3866 12.3866 22.7 12 22.7C11.6134 22.7 11.3 22.3866 11.3 22V19.5C11.3 19.1134 11.6134 18.8 12 18.8Z" fill="#222628"/>
<path fill-rule="evenodd" clip-rule="evenodd" d="M12 1.29999C12.3866 1.29999 12.7 1.61339 12.7 1.99999V4.49999C12.7 4.88659 12.3866 5.19999 12 5.19999C11.6134 5.19999 11.3 4.88659 11.3 4.49999V1.99999C11.3 1.61339 11.6134 1.29999 12 1.29999Z" fill="#222628"/>
<path fill-rule="evenodd" clip-rule="evenodd" d="M18.8 12C18.8 11.6134 19.1134 11.3 19.5 11.3H22C22.3866 11.3 22.7 11.6134 22.7 12C22.7 12.3866 22.3866 12.7 22 12.7H19.5C19.1134 12.7 18.8 12.3866 18.8 12Z" fill="#222628"/>
<path fill-rule="evenodd" clip-rule="evenodd" d="M1.3 12C1.3 11.6134 1.6134 11.3 2 11.3H4.5C4.8866 11.3 5.2 11.6134 5.2 12C5.2 12.3866 4.8866 12.7 4.5 12.7H2C1.6134 12.7 1.3 12.3866 1.3 12Z" fill="#222628"/>
<path fill-rule="evenodd" clip-rule="evenodd" d="M12 14.1C13.1598 14.1 14.1 13.1598 14.1 12C14.1 10.8402 13.1598 9.9 12 9.9C10.8402 9.9 9.9 10.8402 9.9 12C9.9 13.1598 10.8402 14.1 12 14.1ZM12 15.5C13.933 15.5 15.5 13.933 15.5 12C15.5 10.067 13.933 8.5 12 8.5C10.067 8.5 8.5 10.067 8.5 12C8.5 13.933 10.067 15.5 12 15.5Z" fill="#222628"/>
</svg>
