<svg width="24" height="24" viewBox="0 0 24 24" fill="none" xmlns="http://www.w3.org/2000/svg">
<path opacity="0.4" d="M5.8 13.5C5.04745 13.5 4.67118 13.5 4.38948 13.7436C4.31011 13.8123 4.21705 13.9275 4.16663 14.0195C3.98767 14.3461 4.05507 14.6596 4.18988 15.2866C4.41412 16.3296 4.83386 17.3264 5.43251 18.2224C6.3665 19.6202 7.69402 20.7097 9.24719 21.353C10.8004 21.9963 12.5094 22.1647 14.1583 21.8367C15.8071 21.5087 17.3217 20.6992 18.5104 19.5104C19.6992 18.3217 20.5087 16.8071 20.8367 15.1583C21.1646 13.5095 20.9963 11.8004 20.353 10.2472C19.7096 8.69405 18.6202 7.36653 17.2223 6.43253C16.3264 5.83389 15.3296 5.41415 14.2866 5.18991C13.6596 5.0551 13.3461 4.9877 13.0195 5.16666C12.9274 5.21708 12.8123 5.31014 12.7436 5.38951C12.5 5.67121 12.5 6.04748 12.5 6.80003L12.5 9.90003C12.5 11.3999 12.5 12.1499 12.118 12.6756C11.9947 12.8454 11.8454 12.9947 11.6756 13.1181C11.1498 13.5 10.3999 13.5 8.9 13.5H5.8Z" fill="#C4C4C4"/>
<path fill-rule="evenodd" clip-rule="evenodd" d="M13.5003 5.75946C13.6314 5.76698 13.8056 5.80247 14.1395 5.87426C15.0966 6.08003 16.0113 6.46521 16.8335 7.01455C18.1162 7.87163 19.1159 9.08982 19.7063 10.5151C20.2966 11.9403 20.4511 13.5087 20.1501 15.0217C19.8492 16.5348 19.1063 17.9246 18.0154 19.0154C16.9246 20.1063 15.5348 20.8492 14.0217 21.1501C12.5087 21.4511 10.9403 21.2966 9.51508 20.7063C8.08981 20.1159 6.87162 19.1162 6.01455 17.8335C5.4652 17.0113 5.08003 16.0966 4.87425 15.1395C4.80247 14.8056 4.76697 14.6314 4.75945 14.5003C4.75404 14.4059 4.76632 14.3818 4.78036 14.3562C4.78036 14.3562 4.78282 14.3519 4.78844 14.3437C4.79462 14.3347 4.80258 14.324 4.81173 14.3127C4.82088 14.3014 4.82969 14.2913 4.83719 14.2834C4.84505 14.2751 4.84871 14.2719 4.84738 14.2731C4.84768 14.2728 4.84803 14.2725 4.84842 14.2722C4.85572 14.2654 4.88125 14.242 5.01275 14.224C5.17803 14.2015 5.40454 14.2 5.80001 14.2H8.93873C9.65573 14.2 10.2499 14.2 10.7285 14.1482C11.2288 14.094 11.6849 13.9765 12.087 13.6844C12.3162 13.5178 12.5178 13.3162 12.6844 13.087C12.9765 12.685 13.094 12.2288 13.1482 11.7285C13.2 11.2499 13.2 10.6557 13.2 9.93869L13.2 6.80001C13.2 6.40454 13.2015 6.17803 13.224 6.01275C13.242 5.88126 13.2654 5.85573 13.2722 5.84843C13.2725 5.84803 13.2728 5.84769 13.2731 5.84739C13.2719 5.84872 13.2751 5.84506 13.2834 5.83719C13.2913 5.8297 13.3013 5.82088 13.3127 5.81173C13.324 5.80258 13.3347 5.79463 13.3437 5.78845M13.5003 5.75946C13.4058 5.75404 13.3818 5.76632 13.3562 5.78037L13.5003 5.75946ZM14.3249 4.48181C13.8105 4.36901 13.2448 4.24497 12.6831 4.55276C12.5179 4.64326 12.3374 4.78915 12.2142 4.93161C11.9756 5.20743 11.8789 5.51557 11.8369 5.82362C11.7999 6.09482 11.8 6.41847 11.8 6.76119C11.8 6.7741 11.8 6.78705 11.8 6.80001L11.8 9.90001C11.8 10.6656 11.799 11.1835 11.7563 11.5777C11.715 11.9588 11.6416 12.1405 11.5517 12.2641C11.4715 12.3745 11.3745 12.4716 11.2641 12.5517C11.1405 12.6416 10.9588 12.715 10.5777 12.7563C10.1835 12.7991 9.66555 12.8 8.90001 12.8L5.76115 12.8C5.41845 12.8 5.09481 12.7999 4.82362 12.8369C4.51557 12.8789 4.20742 12.9756 3.9316 13.2142C3.78914 13.3374 3.64326 13.5179 3.55275 13.6831C3.24496 14.2449 3.36901 14.8105 3.48181 15.3249C3.48982 15.3614 3.49778 15.3977 3.50553 15.4338C3.74823 16.5626 4.20254 17.6415 4.85049 18.6113C5.8614 20.1242 7.29824 21.3034 8.97932 21.9997C10.6604 22.696 12.5102 22.8782 14.2948 22.5232C16.0795 22.1683 17.7187 21.292 19.0054 20.0054C20.292 18.7188 21.1682 17.0795 21.5232 15.2948C21.8782 13.5102 21.696 11.6604 20.9997 9.97933C20.3034 8.29825 19.1242 6.8614 17.6113 5.85049C16.6415 5.20255 15.5626 4.74824 14.4338 4.50553C14.3977 4.49779 14.3614 4.48983 14.3249 4.48181Z" fill="#222628"/>
<path fill-rule="evenodd" clip-rule="evenodd" d="M3.01444 10.2769C3.18048 10.2986 3.40755 10.3 3.80001 10.3L6.40001 10.3C7.16554 10.3 7.68347 10.299 8.0777 10.2563C8.45883 10.215 8.64048 10.1416 8.76413 10.0517C8.87449 9.97154 8.97154 9.87449 9.05173 9.76413C9.14156 9.64048 9.21504 9.45883 9.25633 9.0777C9.29904 8.68347 9.30001 8.16554 9.3 7.40001L9.3 4.8C9.3 4.40755 9.29862 4.18048 9.27693 4.01444C9.25927 3.87937 9.23567 3.85372 9.23101 3.84866C9.23077 3.8484 9.23115 3.84882 9.23101 3.84866C9.23104 3.8487 9.23031 3.84786 9.2299 3.8474C9.22943 3.84686 9.22865 3.84598 9.22753 3.84478L9.21913 3.83614C9.21186 3.82895 9.2029 3.8207 9.19285 3.8122C9.1828 3.8037 9.17318 3.79622 9.16489 3.79024L9.15498 3.78339C9.15244 3.78173 9.15119 3.78099 9.15128 3.78105L9.14996 3.78028C9.13288 3.77025 9.10755 3.75539 9.0011 3.75784C8.86006 3.76109 8.67176 3.79102 8.32483 3.84925C7.78217 3.94034 7.28305 4.06779 6.91591 4.21986C6.08733 4.56307 5.33446 5.06612 4.70029 5.70029C4.06613 6.33446 3.56308 7.08733 3.21986 7.91591C3.06779 8.28305 2.94035 8.78217 2.84926 9.32483C2.79102 9.67176 2.76109 9.86006 2.75785 10.0011C2.7554 10.1075 2.77026 10.1329 2.78028 10.15L2.78105 10.1513C2.781 10.1512 2.78173 10.1524 2.7834 10.155L2.79024 10.1649C2.79623 10.1732 2.8037 10.1828 2.8122 10.1929C2.8207 10.2029 2.82895 10.2119 2.83614 10.2191L2.84478 10.2275C2.84701 10.2296 2.84812 10.2305 2.84804 10.2305C2.8482 10.2306 2.84778 10.2302 2.84804 10.2305C2.8531 10.2351 2.87938 10.2593 3.01444 10.2769ZM2.83303 11.6651C2.53145 11.6257 2.22647 11.5349 1.95167 11.3059C1.80863 11.1866 1.66598 11.0181 1.57209 10.8573C1.39949 10.5617 1.3514 10.2654 1.35822 9.96891C1.36406 9.71489 1.41269 9.42557 1.46232 9.13028C1.4644 9.11789 1.46649 9.10548 1.46857 9.09307C1.56887 8.49555 1.71839 7.88243 1.92643 7.38016C2.34 6.38172 2.94617 5.47452 3.71034 4.71034C4.47452 3.94617 5.38172 3.34 6.38016 2.92643C6.88243 2.71838 7.49555 2.56887 8.09307 2.46857C8.10548 2.46649 8.11789 2.4644 8.13028 2.46232C8.42557 2.41269 8.71489 2.36406 8.96891 2.35821C9.2654 2.35139 9.5617 2.39949 9.85726 2.57208C10.0181 2.66598 10.1866 2.80863 10.3059 2.95166C10.5349 3.22646 10.6257 3.53144 10.6651 3.83303C10.7001 4.10069 10.7001 4.42083 10.7 4.76224C10.7 4.7748 10.7 4.78739 10.7 4.8L10.7 7.4387C10.7 8.15571 10.7 8.74994 10.6482 9.2285C10.594 9.72875 10.4765 10.1849 10.1844 10.587C10.0178 10.8162 9.81624 11.0178 9.58703 11.1844C9.18494 11.4765 8.72875 11.594 8.2285 11.6482C7.74994 11.7 7.15571 11.7 6.4387 11.7L3.80001 11.7C3.78739 11.7 3.7748 11.7 3.76224 11.7C3.42084 11.7001 3.10069 11.7001 2.83303 11.6651Z" fill="#222628"/>
</svg>
