<svg width="24" height="24" viewBox="0 0 24 24" fill="none" xmlns="http://www.w3.org/2000/svg">
<path opacity="0.4" d="M3 17C3 15.3431 4.34315 14 6 14C7.65685 14 9 15.3431 9 17V20C9 21.6569 7.65685 23 6 23C4.34315 23 3 21.6569 3 20V17Z" fill="#C4C4C4"/>
<path opacity="0.4" d="M15 17C15 15.3431 16.3431 14 18 14C19.6569 14 21 15.3431 21 17V20C21 21.6569 19.6569 23 18 23C16.3431 23 15 21.6569 15 20V17Z" fill="#C4C4C4"/>
<path fill-rule="evenodd" clip-rule="evenodd" d="M3.41634 9.28663C2.23556 12.5439 2.46971 16.6455 3.0625 19.8736C3.13233 20.2538 2.88069 20.6186 2.50045 20.6885C2.12021 20.7583 1.75536 20.5067 1.68553 20.1264C1.0776 16.816 0.792179 12.4176 2.10015 8.8095C2.75957 6.99046 3.83272 5.34919 5.49215 4.1667C7.15288 2.98328 9.34386 2.29999 12.1674 2.29999C14.9905 2.29999 17.1617 2.98313 18.7904 4.17124C20.418 5.35856 21.4426 7.0054 22.0527 8.8256C23.2618 12.4331 22.8795 16.8297 22.2741 20.1264C22.2042 20.5067 21.8394 20.7583 21.4591 20.6885C21.0789 20.6186 20.8273 20.2538 20.8971 19.8736C21.4924 16.6318 21.8172 12.5284 20.7253 9.27052C20.1848 7.65803 19.3068 6.28084 17.9653 5.30229C16.625 4.32453 14.7606 3.69999 12.1674 3.69999C9.57474 3.69999 7.6833 4.32439 6.3046 5.30684C4.9246 6.29021 4.0013 7.67298 3.41634 9.28663Z" fill="#222628"/>
<path fill-rule="evenodd" clip-rule="evenodd" d="M2.29999 17C2.29999 14.9565 3.95653 13.3 5.99999 13.3C8.04344 13.3 9.69999 14.9565 9.69999 17V20C9.69999 22.0434 8.04344 23.7 5.99999 23.7C3.95653 23.7 2.29999 22.0434 2.29999 20V17ZM5.99999 14.7C4.72973 14.7 3.69999 15.7297 3.69999 17V20C3.69999 21.2702 4.72973 22.3 5.99999 22.3C7.27024 22.3 8.29999 21.2702 8.29999 20V17C8.29999 15.7297 7.27024 14.7 5.99999 14.7Z" fill="#222628"/>
<path fill-rule="evenodd" clip-rule="evenodd" d="M14.3 17C14.3 14.9565 15.9565 13.3 18 13.3C20.0434 13.3 21.7 14.9565 21.7 17V20C21.7 22.0434 20.0434 23.7 18 23.7C15.9565 23.7 14.3 22.0434 14.3 20V17ZM18 14.7C16.7297 14.7 15.7 15.7297 15.7 17V20C15.7 21.2702 16.7297 22.3 18 22.3C19.2702 22.3 20.3 21.2702 20.3 20V17C20.3 15.7297 19.2702 14.7 18 14.7Z" fill="#222628"/>
</svg>
