<svg width="24" height="24" viewBox="0 0 24 24" fill="none" xmlns="http://www.w3.org/2000/svg">
<path d="M11.2003 22H12.8015C15.8003 22 17.2997 22 18.3511 21.2361C18.6907 20.9893 18.9893 20.6907 19.2361 20.3511C20 19.2997 20 17.7998 20 14.8V13.427C20 11.9327 20 11.1855 19.75 10.5121C19.6675 10.2898 19.5655 10.0753 19.445 9.8711C19.0799 9.25242 18.5 8.78127 17.3403 7.83897L12 3.5L6.65973 7.83897C5.49998 8.78127 4.9201 9.25242 4.55503 9.8711C4.43455 10.0753 4.33245 10.2898 4.24996 10.5121C4 11.1855 4 11.9327 4 13.427V14.8C4 17.7998 4 19.2997 4.76393 20.3511C5.01065 20.6907 5.30928 20.9893 5.64886 21.2361C6.70032 22 8.2003 22 11.2003 22Z" fill="#C4C4C4" fill-opacity="0.4"/>
<path fill-rule="evenodd" clip-rule="evenodd" d="M12 2.59808L17.7817 7.2957C17.8175 7.32477 17.8528 7.35347 17.8878 7.38184C18.9456 8.24096 19.6181 8.78711 20.0479 9.51538C20.1894 9.7553 20.3094 10.0073 20.4063 10.2685C20.7006 11.0613 20.7004 11.9276 20.7 13.2904C20.7 13.3354 20.7 13.3809 20.7 13.427V14.8417C20.7 16.3062 20.7 17.4625 20.6005 18.3816C20.4985 19.3225 20.2855 20.0977 19.8024 20.7626C19.5125 21.1616 19.1616 21.5125 18.7626 21.8024C18.0977 22.2855 17.3227 22.4985 16.382 22.6004C15.4631 22.7 14.3073 22.7 12.8433 22.7H11.1586C9.69397 22.7 8.53768 22.7 7.61851 22.6004C6.67753 22.4985 5.90239 22.2855 5.23744 21.8024C4.83843 21.5125 4.48754 21.1616 4.19765 20.7626C3.71454 20.0977 3.50154 19.3225 3.39959 18.3816C3.30001 17.4625 3.30002 16.3063 3.30003 14.8418L3.30003 13.427C3.30003 13.3809 3.30002 13.3354 3.30001 13.2904C3.29969 11.9276 3.2995 11.0613 3.59373 10.2685C3.69066 10.0073 3.81062 9.7553 3.95219 9.51538C4.38192 8.78711 5.05442 8.24096 6.1123 7.38184C6.14723 7.35347 6.18257 7.32477 6.21835 7.2957L12 2.59808ZM12 4.40194L7.10118 8.38226C5.90093 9.35746 5.44414 9.7418 5.15793 10.2269C5.05853 10.3953 4.9743 10.5723 4.90624 10.7556C4.71028 11.2836 4.70003 11.8805 4.70003 13.427V14.8C4.70003 16.3155 4.70099 17.3959 4.79145 18.2308C4.88049 19.0526 5.04945 19.5532 5.33027 19.9397C5.53382 20.2199 5.78018 20.4662 6.06034 20.6698C6.44685 20.9506 6.94743 21.1196 7.7693 21.2086C8.60426 21.299 9.68472 21.3 11.2003 21.3H12.8016C14.3165 21.3 15.3965 21.299 16.2312 21.2086C17.0527 21.1196 17.5532 20.9506 17.9397 20.6698C18.2199 20.4662 18.4662 20.2199 18.6698 19.9397C18.9506 19.5532 19.1196 19.0526 19.2086 18.2308C19.2991 17.3959 19.3 16.3155 19.3 14.8V13.427C19.3 11.8805 19.2898 11.2836 19.0938 10.7556C19.0258 10.5723 18.9415 10.3953 18.8421 10.2269C18.5559 9.7418 18.0991 9.35746 16.8989 8.38226L12 4.40194Z" fill="#222628"/>
<path fill-rule="evenodd" clip-rule="evenodd" d="M12.6062 2.52206C12.9409 2.81039 12.9409 3.27786 12.6062 3.56619L2.81852 11.9957C2.48374 12.2841 1.94095 12.2841 1.60617 11.9957C1.27139 11.7074 1.27139 11.2399 1.60617 10.9516L11.3938 2.52206C11.7286 2.23374 12.2714 2.23374 12.6062 2.52206Z" fill="#222628"/>
<path fill-rule="evenodd" clip-rule="evenodd" d="M11.3938 2.52206C11.0591 2.81039 11.0591 3.27786 11.3938 3.56619L21.1815 11.9957C21.5163 12.2841 22.0591 12.2841 22.3938 11.9957C22.7286 11.7074 22.7286 11.2399 22.3938 10.9516L12.6062 2.52206C12.2714 2.23374 11.7286 2.23374 11.3938 2.52206Z" fill="#222628"/>
<path fill-rule="evenodd" clip-rule="evenodd" d="M9 18.1421C9 17.7555 9.3134 17.4421 9.7 17.4421H13.8C14.1866 17.4421 14.5 17.7555 14.5 18.1421C14.5 18.5287 14.1866 18.8421 13.8 18.8421H9.7C9.3134 18.8421 9 18.5287 9 18.1421Z" fill="#222628"/>
</svg>
