<svg width="24" height="24" viewBox="0 0 24 24" fill="none" xmlns="http://www.w3.org/2000/svg">
<path d="M2.5 14.6037C2.5 12.4636 2.5 11.3935 2.90671 10.4477C2.96615 10.3095 3.03179 10.1741 3.10344 10.0418C3.59373 9.13654 4.43362 8.47347 6.11338 7.14735C8.78372 5.03919 10.1189 3.98511 11.6661 3.88155C11.8885 3.86667 12.1115 3.86667 12.3339 3.88155C13.8811 3.98511 15.2163 5.03919 17.8866 7.14735C19.5664 8.47347 20.4063 9.13654 20.8966 10.0418C20.9682 10.1741 21.0339 10.3095 21.0933 10.4477C21.5 11.3935 21.5 12.4636 21.5 14.6037V16C21.5 18.8284 21.5 20.2427 20.6213 21.1213C19.7426 22 18.3284 22 15.5 22H12H8.5C5.67157 22 4.25736 22 3.37868 21.1213C2.5 20.2427 2.5 18.8284 2.5 16V14.6037Z" fill="#C4C4C4" fill-opacity="0.4"/>
<path fill-rule="evenodd" clip-rule="evenodd" d="M12.2872 4.57998C12.096 4.56718 11.9041 4.56718 11.7129 4.57998C11.0981 4.62113 10.4908 4.84902 9.68286 5.35573C8.86148 5.87087 7.89437 6.63316 6.54716 7.69675C4.81996 9.06032 4.12454 9.62636 3.71898 10.3752C3.65736 10.4889 3.60091 10.6054 3.5498 10.7243C3.21338 11.5066 3.20003 12.4031 3.20003 14.6037V16C3.20003 17.434 3.20151 18.4391 3.30362 19.1985C3.40302 19.9379 3.58608 20.3387 3.87368 20.6263C4.16128 20.9139 4.56216 21.097 5.30148 21.1964C6.06094 21.2985 7.06602 21.3 8.50003 21.3H15.5C16.934 21.3 17.9391 21.2985 18.6986 21.1964C19.4379 21.097 19.8388 20.9139 20.1264 20.6263C20.414 20.3387 20.597 19.9379 20.6964 19.1985C20.7985 18.4391 20.8 17.434 20.8 16V14.6037C20.8 12.4031 20.7867 11.5066 20.4503 10.7243C20.3991 10.6054 20.3427 10.4889 20.2811 10.3752C19.8755 9.62636 19.1801 9.06032 17.4529 7.69675C16.1057 6.63316 15.1386 5.87087 14.3172 5.35573C13.5093 4.84902 12.902 4.62113 12.2872 4.57998ZM11.6194 3.1831C11.8729 3.16614 12.1272 3.16614 12.3807 3.1831C13.3131 3.24551 14.147 3.59643 15.061 4.16969C15.9542 4.72987 16.9802 5.53989 18.2878 6.57219L18.3204 6.59792C18.3641 6.63244 18.4074 6.66658 18.4502 6.70036C20.0052 7.92754 20.9525 8.67514 21.5121 9.70842C21.5938 9.85922 21.6686 10.0136 21.7364 10.1712C22.2006 11.2507 22.2004 12.4575 22.2 14.4384C22.2 14.4929 22.2 14.548 22.2 14.6037V16.0516C22.2 17.422 22.2001 18.5215 22.0839 19.3851C21.9637 20.2797 21.7074 21.0252 21.1163 21.6163C20.5252 22.2074 19.7797 22.4637 18.8851 22.5839C18.0215 22.7 16.922 22.7 15.5516 22.7H8.44846C7.07805 22.7 5.97856 22.7 5.11494 22.5839C4.22037 22.4637 3.47481 22.2074 2.88373 21.6163C2.29265 21.0252 2.03637 20.2797 1.9161 19.3851C1.79999 18.5215 1.80001 17.422 1.80002 16.0516L1.80003 14.6037C1.80003 14.548 1.80002 14.4929 1.80001 14.4384C1.79966 12.4575 1.79945 11.2507 2.26368 10.1712C2.33143 10.0136 2.40626 9.85922 2.48794 9.70842C3.04757 8.67514 3.99487 7.92754 5.54985 6.70037C5.59266 6.66658 5.63592 6.63244 5.67965 6.59792L5.71224 6.57219C7.0198 5.5399 8.04582 4.72987 8.93901 4.16969C9.85306 3.59643 10.687 3.24551 11.6194 3.1831Z" fill="#222628"/>
<path fill-rule="evenodd" clip-rule="evenodd" d="M10.5841 18.5816C11.033 18.3957 11.5142 18.3 12 18.3C12.4859 18.3 12.9671 18.3957 13.416 18.5816C13.8649 18.7676 14.2728 19.0401 14.6163 19.3837C14.9599 19.7273 15.2325 20.1352 15.4184 20.5841C15.6043 21.033 15.7 21.5141 15.7 22V22.7L8.30005 22.7L8.30005 22C8.30005 21.5141 8.39575 21.033 8.58169 20.5841C8.76764 20.1352 9.04018 19.7273 9.38375 19.3837C9.72733 19.0401 10.1352 18.7676 10.5841 18.5816ZM12 19.7C11.698 19.7 11.3989 19.7595 11.1199 19.8751C10.8408 19.9907 10.5873 20.1601 10.3737 20.3736C10.1601 20.5872 9.99071 20.8408 9.87513 21.1198C9.8506 21.179 9.8286 21.2391 9.80916 21.3L14.1909 21.3C14.1715 21.2391 14.1495 21.179 14.125 21.1198C14.0094 20.8408 13.84 20.5872 13.6264 20.3736C13.4128 20.1601 13.1593 19.9907 12.8802 19.8751C12.6012 19.7595 12.3021 19.7 12 19.7Z" fill="#222628"/>
</svg>
