<svg width="24" height="24" viewBox="0 0 24 24" fill="none" xmlns="http://www.w3.org/2000/svg">
<path opacity="0.4" d="M2 12C2 8.26154 2 6.3923 2.80385 5C3.33046 4.08788 4.08788 3.33046 5 2.80385C6.3923 2 8.26154 2 12 2C15.7385 2 17.6077 2 19 2.80385C19.9121 3.33046 20.6695 4.08788 21.1962 5C22 6.3923 22 8.26154 22 12C22 15.7385 22 17.6077 21.1962 19C20.6695 19.9121 19.9121 20.6695 19 21.1962C17.6077 22 15.7385 22 12 22C8.26154 22 6.3923 22 5 21.1962C4.08788 20.6695 3.33046 19.9121 2.80385 19C2 17.6077 2 15.7385 2 12Z" fill="#C4C4C4"/>
<path fill-rule="evenodd" clip-rule="evenodd" d="M11.9645 1.29999H12.0355C13.8747 1.29998 15.3027 1.29998 16.443 1.40333C17.6002 1.50821 18.5296 1.72393 19.35 2.19762C20.3685 2.78567 21.2143 3.63146 21.8024 4.64999C22.2761 5.47044 22.4918 6.39979 22.5967 7.55699C22.7 8.69727 22.7 10.1253 22.7 11.9646V12.0354C22.7 13.8746 22.7 15.3027 22.5967 16.443C22.4918 17.6002 22.2761 18.5295 21.8024 19.35C21.2143 20.3685 20.3685 21.2143 19.35 21.8024C18.5296 22.276 17.6002 22.4918 16.443 22.5966C15.3027 22.7 13.8747 22.7 12.0354 22.7H11.9646C10.1253 22.7 8.69728 22.7 7.55701 22.5966C6.3998 22.4918 5.47045 22.276 4.65 21.8024C3.63147 21.2143 2.78568 20.3685 2.19763 19.35C1.72394 18.5295 1.50822 17.6002 1.40334 16.443C1.29999 15.3027 1.3 13.8747 1.3 12.0354V11.9645C1.3 10.1253 1.29999 8.69726 1.40334 7.55699C1.50822 6.39979 1.72394 5.47044 2.19763 4.64999C2.78568 3.63146 3.63147 2.78567 4.65 2.19762C5.47045 1.72393 6.3998 1.50821 7.55701 1.40333C8.69727 1.29998 10.1253 1.29998 11.9645 1.29999ZM7.68337 2.79761C6.62327 2.89369 5.92186 3.07989 5.35 3.41005C4.5443 3.87523 3.87524 4.54429 3.41007 5.34999C3.0799 5.92184 2.8937 6.62326 2.79762 7.68336C2.70067 8.75309 2.7 10.1179 2.7 12C2.7 13.8821 2.70067 15.2469 2.79762 16.3166C2.8937 17.3767 3.0799 18.0781 3.41007 18.65C3.87524 19.4557 4.5443 20.1248 5.35 20.5899C5.92186 20.9201 6.62327 21.1063 7.68337 21.2024C8.7531 21.2993 10.1179 21.3 12 21.3C13.8821 21.3 15.2469 21.2993 16.3166 21.2024C17.3767 21.1063 18.0781 20.9201 18.65 20.5899C19.4557 20.1248 20.1248 19.4557 20.5899 18.65C20.9201 18.0781 21.1063 17.3767 21.2024 16.3166C21.2993 15.2469 21.3 13.8821 21.3 12C21.3 10.1179 21.2993 8.75309 21.2024 7.68336C21.1063 6.62326 20.9201 5.92184 20.5899 5.34999C20.1248 4.54429 19.4557 3.87523 18.65 3.41005C18.0781 3.07989 17.3767 2.89369 16.3166 2.79761C15.2469 2.70066 13.8821 2.69999 12 2.69999C10.1179 2.69999 8.7531 2.70066 7.68337 2.79761Z" fill="#222628"/>
<path fill-rule="evenodd" clip-rule="evenodd" d="M10.5294 14.9342C9.52029 13.7412 7.81276 13.4195 6.43867 14.1635L2.83329 16.1156C2.49332 16.2996 2.06851 16.1732 1.88444 15.8333C1.70037 15.4933 1.82674 15.0685 2.16671 14.8844L5.77209 12.9323C7.72913 11.8727 10.1611 12.3309 11.5983 14.0301L17.5344 21.0479C17.7841 21.3431 17.7472 21.7848 17.4521 22.0344C17.1569 22.2841 16.7152 22.2472 16.4656 21.9521L10.5294 14.9342Z" fill="#222628"/>
<path fill-rule="evenodd" clip-rule="evenodd" d="M17.4896 16.0267C16.7799 15.3281 15.7014 15.1656 14.8174 15.624L13.3222 16.3992C12.979 16.5772 12.5565 16.4432 12.3786 16.1C12.2006 15.7568 12.3346 15.3343 12.6778 15.1564L14.1729 14.3811C15.595 13.6437 17.3301 13.9052 18.4717 15.029L21.4911 18.0012C21.7666 18.2724 21.7701 18.7156 21.4989 18.9911C21.2277 19.2666 20.7844 19.2701 20.5089 18.9989L17.4896 16.0267Z" fill="#222628"/>
<path fill-rule="evenodd" clip-rule="evenodd" d="M15.5404 7.19999C14.8224 7.19999 14.2404 7.78202 14.2404 8.49999C14.2404 9.21796 14.8224 9.79999 15.5404 9.79999C16.2584 9.79999 16.8404 9.21796 16.8404 8.49999C16.8404 7.78202 16.2584 7.19999 15.5404 7.19999ZM12.8404 8.49999C12.8404 7.00882 14.0492 5.79999 15.5404 5.79999C17.0316 5.79999 18.2404 7.00882 18.2404 8.49999C18.2404 9.99116 17.0316 11.2 15.5404 11.2C14.0492 11.2 12.8404 9.99116 12.8404 8.49999Z" fill="#222628"/>
</svg>
