<svg width="24" height="24" viewBox="0 0 24 24" fill="none" xmlns="http://www.w3.org/2000/svg">
<path opacity="0.4" d="M2 12C2 8.26154 2 6.3923 2.80385 5C3.33046 4.08788 4.08788 3.33046 5 2.80385C6.3923 2 8.26154 2 12 2C15.7385 2 17.6077 2 19 2.80385C19.9121 3.33046 20.6695 4.08788 21.1962 5C22 6.3923 22 8.26154 22 12C22 15.7385 22 17.6077 21.1962 19C20.6695 19.9121 19.9121 20.6695 19 21.1962C17.6077 22 15.7385 22 12 22C8.26154 22 6.3923 22 5 21.1962C4.08788 20.6695 3.33046 19.9121 2.80385 19C2 17.6077 2 15.7385 2 12Z" fill="#C4C4C4"/>
<path fill-rule="evenodd" clip-rule="evenodd" d="M11.9645 1.29999H12.0355C13.8747 1.29998 15.3027 1.29998 16.443 1.40333C17.6002 1.50821 18.5296 1.72393 19.35 2.19762C20.3685 2.78567 21.2143 3.63146 21.8024 4.64999C22.2761 5.47044 22.4918 6.39979 22.5967 7.55699C22.7 8.69727 22.7 10.1253 22.7 11.9646V12.0354C22.7 13.8746 22.7 15.3027 22.5967 16.443C22.4918 17.6002 22.2761 18.5295 21.8024 19.35C21.2143 20.3685 20.3685 21.2143 19.35 21.8024C18.5296 22.276 17.6002 22.4918 16.443 22.5966C15.3027 22.7 13.8747 22.7 12.0354 22.7H11.9646C10.1253 22.7 8.69729 22.7 7.55701 22.5966C6.3998 22.4918 5.47045 22.276 4.65 21.8024C3.63147 21.2143 2.78568 20.3685 2.19763 19.35C1.72395 18.5295 1.50822 17.6002 1.40334 16.443C1.3 15.3027 1.3 13.8747 1.3 12.0354V11.9645C1.3 10.1253 1.3 8.69726 1.40334 7.55699C1.50822 6.39979 1.72395 5.47044 2.19763 4.64999C2.78568 3.63146 3.63147 2.78567 4.65 2.19762C5.47045 1.72393 6.3998 1.50821 7.55701 1.40333C8.69727 1.29998 10.1253 1.29998 11.9645 1.29999ZM7.68338 2.79761C6.62327 2.89369 5.92186 3.07989 5.35 3.41005C4.5443 3.87523 3.87524 4.54429 3.41007 5.34999C3.07991 5.92184 2.89371 6.62326 2.79763 7.68336C2.70067 8.75309 2.7 10.1179 2.7 12C2.7 13.8821 2.70067 15.2469 2.79763 16.3166C2.89371 17.3767 3.07991 18.0781 3.41007 18.65C3.87524 19.4557 4.5443 20.1248 5.35 20.5899C5.92186 20.9201 6.62327 21.1063 7.68338 21.2024C8.7531 21.2993 10.1179 21.3 12 21.3C13.8821 21.3 15.2469 21.2993 16.3166 21.2024C17.3767 21.1063 18.0781 20.9201 18.65 20.5899C19.4557 20.1248 20.1248 19.4557 20.5899 18.65C20.9201 18.0781 21.1063 17.3767 21.2024 16.3166C21.2993 15.2469 21.3 13.8821 21.3 12C21.3 10.1179 21.2993 8.75309 21.2024 7.68336C21.1063 6.62326 20.9201 5.92184 20.5899 5.34999C20.1248 4.54429 19.4557 3.87523 18.65 3.41005C18.0781 3.07989 17.3767 2.89369 16.3166 2.79761C15.2469 2.70066 13.8821 2.69999 12 2.69999C10.1179 2.69999 8.7531 2.70066 7.68338 2.79761Z" fill="#222628"/>
<path fill-rule="evenodd" clip-rule="evenodd" d="M9.78193 15.4348C8.77503 13.9245 6.66011 13.6641 5.31696 14.8852L2.97088 17.018C2.68482 17.278 2.2421 17.2569 1.98205 16.9709C1.722 16.6848 1.74308 16.2421 2.02914 15.982L4.37521 13.8492C6.35208 12.0521 9.46483 12.4353 10.9468 14.6582L11.746 15.857C12.4203 16.8684 13.8688 16.969 14.6764 16.0605C15.9207 14.6605 18.0868 14.5969 19.4113 15.9213L21.495 18.005C21.7683 18.2784 21.7683 18.7216 21.495 18.995C21.2216 19.2683 20.7784 19.2683 20.505 18.995L18.4213 16.9113C17.6665 16.1564 16.4319 16.1927 15.7227 16.9906C14.3058 18.5847 11.7642 18.4082 10.5811 16.6336L9.78193 15.4348Z" fill="#222628"/>
<path fill-rule="evenodd" clip-rule="evenodd" d="M15.5404 7.19999C14.8224 7.19999 14.2404 7.78202 14.2404 8.49999C14.2404 9.21796 14.8224 9.79999 15.5404 9.79999C16.2584 9.79999 16.8404 9.21796 16.8404 8.49999C16.8404 7.78202 16.2584 7.19999 15.5404 7.19999ZM12.8404 8.49999C12.8404 7.00882 14.0492 5.79999 15.5404 5.79999C17.0316 5.79999 18.2404 7.00882 18.2404 8.49999C18.2404 9.99116 17.0316 11.2 15.5404 11.2C14.0492 11.2 12.8404 9.99116 12.8404 8.49999Z" fill="#222628"/>
</svg>
