<svg width="24" height="24" viewBox="0 0 24 24" fill="none" xmlns="http://www.w3.org/2000/svg">
<path opacity="0.4" d="M2 12C2 8.26154 2 6.3923 2.80385 5C3.33046 4.08788 4.08788 3.33046 5 2.80385C6.3923 2 8.26154 2 12 2C15.7385 2 17.6077 2 19 2.80385C19.9121 3.33046 20.6695 4.08788 21.1962 5C22 6.3923 22 8.26154 22 12C22 15.7385 22 17.6077 21.1962 19C20.6695 19.9121 19.9121 20.6695 19 21.1962C17.6077 22 15.7385 22 12 22C8.26154 22 6.3923 22 5 21.1962C4.08788 20.6695 3.33046 19.9121 2.80385 19C2 17.6077 2 15.7385 2 12Z" fill="#C4C4C4"/>
<path fill-rule="evenodd" clip-rule="evenodd" d="M16 6.69999C15.282 6.69999 14.7 7.28202 14.7 7.99999C14.7 8.71796 15.282 9.29999 16 9.29999C16.718 9.29999 17.3 8.71796 17.3 7.99999C17.3 7.28202 16.718 6.69999 16 6.69999ZM13.3 7.99999C13.3 6.50882 14.5088 5.29999 16 5.29999C17.4912 5.29999 18.7 6.50882 18.7 7.99999C18.7 9.49116 17.4912 10.7 16 10.7C14.5088 10.7 13.3 9.49116 13.3 7.99999Z" fill="#222628"/>
<path fill-rule="evenodd" clip-rule="evenodd" d="M11.9645 1.29999H12.0355C13.8747 1.29998 15.3027 1.29998 16.443 1.40333C17.6002 1.50821 18.5296 1.72393 19.35 2.19762C20.3685 2.78567 21.2143 3.63146 21.8024 4.64999C22.2761 5.47044 22.4918 6.39979 22.5967 7.55699C22.7 8.69727 22.7 10.1253 22.7 11.9646V12.0354C22.7 13.8746 22.7 15.3027 22.5967 16.443C22.4918 17.6002 22.2761 18.5295 21.8024 19.35C21.2143 20.3685 20.3685 21.2143 19.35 21.8024C18.5296 22.276 17.6002 22.4918 16.443 22.5966C15.3027 22.7 13.8747 22.7 12.0354 22.7H11.9646C10.1253 22.7 8.69729 22.7 7.55701 22.5966C6.3998 22.4918 5.47045 22.276 4.65 21.8024C3.63147 21.2143 2.78568 20.3685 2.19763 19.35C1.72395 18.5295 1.50822 17.6002 1.40334 16.443C1.3 15.3027 1.3 13.8747 1.3 12.0354V11.9645C1.3 10.1253 1.3 8.69726 1.40334 7.55699C1.50822 6.39979 1.72395 5.47044 2.19763 4.64999C2.78568 3.63146 3.63147 2.78567 4.65 2.19762C5.47045 1.72393 6.3998 1.50821 7.55701 1.40333C8.69727 1.29998 10.1253 1.29998 11.9645 1.29999ZM7.68338 2.79761C6.62327 2.89369 5.92186 3.07989 5.35 3.41005C4.5443 3.87523 3.87524 4.54429 3.41007 5.34999C3.07991 5.92184 2.89371 6.62326 2.79763 7.68336C2.70067 8.75309 2.7 10.1179 2.7 12C2.7 13.8821 2.70067 15.2469 2.79763 16.3166C2.89371 17.3767 3.07991 18.0781 3.41007 18.65C3.87524 19.4557 4.5443 20.1248 5.35 20.5899C5.92186 20.9201 6.62327 21.1063 7.68338 21.2024C8.7531 21.2993 10.1179 21.3 12 21.3C13.8821 21.3 15.2469 21.2993 16.3166 21.2024C17.3767 21.1063 18.0781 20.9201 18.65 20.5899C19.4557 20.1248 20.1248 19.4557 20.5899 18.65C20.9201 18.0781 21.1063 17.3767 21.2024 16.3166C21.2993 15.2469 21.3 13.8821 21.3 12C21.3 10.1179 21.2993 8.75309 21.2024 7.68336C21.1063 6.62326 20.9201 5.92184 20.5899 5.34999C20.1248 4.54429 19.4557 3.87523 18.65 3.41005C18.0781 3.07989 17.3767 2.89369 16.3166 2.79761C15.2469 2.70066 13.8821 2.69999 12 2.69999C10.1179 2.69999 8.7531 2.70066 7.68338 2.79761Z" fill="#222628"/>
<path fill-rule="evenodd" clip-rule="evenodd" d="M12.7153 13.7589C11.4382 12.269 9.1332 12.269 7.8561 13.7589L5.46852 16.5444C5.21693 16.838 5.25092 17.2799 5.54445 17.5315C5.83798 17.7831 6.27989 17.7491 6.53148 17.4556L8.91905 14.6701C9.63743 13.832 10.934 13.832 11.6524 14.6701L12.7118 15.9061C14.1063 17.5329 16.6745 17.3564 17.8332 15.554L18.5888 14.3785C18.7979 14.0533 18.7037 13.6202 18.3785 13.4112C18.0533 13.2021 17.6202 13.2963 17.4112 13.6215L16.6556 14.7969C16.0038 15.8107 14.5592 15.9101 13.7748 14.995L12.7153 13.7589Z" fill="#222628"/>
</svg>
