<svg width="24" height="24" viewBox="0 0 24 24" fill="none" xmlns="http://www.w3.org/2000/svg">
<path fill-rule="evenodd" clip-rule="evenodd" d="M12 3.29999C12.3866 3.29999 12.7 3.61339 12.7 3.99999V6.48432C12.7 6.87092 12.3866 7.18432 12 7.18432C11.6134 7.18432 11.3 6.87092 11.3 6.48432V3.99999C11.3 3.61339 11.6134 3.29999 12 3.29999Z" fill="#222628"/>
<path fill-rule="evenodd" clip-rule="evenodd" d="M12 16.9638C12.3866 16.9638 12.7 17.2772 12.7 17.6638V20.1481C12.7 20.5347 12.3866 20.8481 12 20.8481C11.6134 20.8481 11.3 20.5347 11.3 20.1481V17.6638C11.3 17.2772 11.6134 16.9638 12 16.9638Z" fill="#222628"/>
<path fill-rule="evenodd" clip-rule="evenodd" d="M18.5122 6.00715C18.7757 6.29002 18.76 6.73295 18.4772 6.99648L16.4772 8.85973C16.1943 9.12325 15.7514 9.10757 15.4878 8.82471C15.2243 8.54184 15.24 8.0989 15.5229 7.83538L17.5229 5.97213C17.8057 5.7086 18.2487 5.72428 18.5122 6.00715Z" fill="#222628"/>
<path fill-rule="evenodd" clip-rule="evenodd" d="M15.4878 15.3234C15.7514 15.0405 16.1943 15.0248 16.4772 15.2883L18.4772 17.1516C18.76 17.4151 18.7757 17.8581 18.5122 18.1409C18.2487 18.4238 17.8057 18.4395 17.5229 18.1759L15.5229 16.3127C15.24 16.0492 15.2243 15.6062 15.4878 15.3234Z" fill="#222628"/>
<path fill-rule="evenodd" clip-rule="evenodd" d="M5.48783 6.00714C5.75136 5.72428 6.19429 5.7086 6.47716 5.97212L8.47716 7.83537C8.76003 8.09889 8.77571 8.54183 8.51218 8.8247C8.24865 9.10756 7.80572 9.12324 7.52285 8.85972L5.52285 6.99647C5.23998 6.73295 5.22431 6.29001 5.48783 6.00714Z" fill="#222628"/>
<path fill-rule="evenodd" clip-rule="evenodd" d="M5.48783 18.1409C5.2243 17.8581 5.23998 17.4151 5.52285 17.1516L7.52285 15.2883C7.80571 15.0248 8.24865 15.0405 8.51218 15.3234C8.7757 15.6062 8.76002 16.0492 8.47716 16.3127L6.47716 18.1759C6.19429 18.4395 5.75135 18.4238 5.48783 18.1409Z" fill="#222628"/>
<path fill-rule="evenodd" clip-rule="evenodd" d="M16.6333 12.074C16.6333 11.6874 16.9467 11.374 17.3333 11.374H20C20.3866 11.374 20.7 11.6874 20.7 12.074C20.7 12.4606 20.3866 12.774 20 12.774H17.3333C16.9467 12.774 16.6333 12.4606 16.6333 12.074Z" fill="#222628"/>
<path fill-rule="evenodd" clip-rule="evenodd" d="M3.3 12.074C3.3 11.6874 3.6134 11.374 4 11.374H6.66667C7.05327 11.374 7.36667 11.6874 7.36667 12.074C7.36667 12.4606 7.05327 12.774 6.66667 12.774H4C3.6134 12.774 3.3 12.4606 3.3 12.074Z" fill="#222628"/>
</svg>
