<svg width="24" height="24" viewBox="0 0 24 24" fill="none" xmlns="http://www.w3.org/2000/svg">
<path opacity="0.4" d="M2 12C2 8.26154 2 6.3923 2.80385 5C3.33046 4.08788 4.08788 3.33046 5 2.80385C6.3923 2 8.26154 2 12 2C15.7385 2 17.6077 2 19 2.80385C19.9121 3.33046 20.6695 4.08788 21.1962 5C22 6.3923 22 8.26154 22 12C22 15.7385 22 17.6077 21.1962 19C20.6695 19.9121 19.9121 20.6695 19 21.1962C17.6077 22 15.7385 22 12 22C8.26154 22 6.3923 22 5 21.1962C4.08788 20.6695 3.33046 19.9121 2.80385 19C2 17.6077 2 15.7385 2 12Z" fill="#C4C4C4"/>
<path fill-rule="evenodd" clip-rule="evenodd" d="M12 6.29999C12.3866 6.29999 12.7 6.61339 12.7 6.99999V8.55269C12.7 8.93929 12.3866 9.25269 12 9.25269C11.6134 9.25269 11.3 8.93929 11.3 8.55269V6.99999C11.3 6.61339 11.6134 6.29999 12 6.29999Z" fill="#222628"/>
<path fill-rule="evenodd" clip-rule="evenodd" d="M12 14.8398C12.3866 14.8398 12.7 15.1532 12.7 15.5398V17.0926C12.7 17.4791 12.3866 17.7926 12 17.7926C11.6134 17.7926 11.3 17.4791 11.3 17.0926V15.5398C11.3 15.1532 11.6134 14.8398 12 14.8398Z" fill="#222628"/>
<path fill-rule="evenodd" clip-rule="evenodd" d="M16.2622 8.07551C16.5257 8.35838 16.51 8.80131 16.2272 9.06484L14.9772 10.2294C14.6943 10.4929 14.2514 10.4772 13.9878 10.1943C13.7243 9.91148 13.74 9.46854 14.0229 9.20502L15.2729 8.04049C15.5557 7.77696 15.9987 7.79264 16.2622 8.07551Z" fill="#222628"/>
<path fill-rule="evenodd" clip-rule="evenodd" d="M13.9878 13.8982C14.2514 13.6153 14.6943 13.5996 14.9772 13.8632L16.2272 15.0277C16.51 15.2912 16.5257 15.7342 16.2622 16.017C15.9987 16.2999 15.5557 16.3156 15.2729 16.052L14.0229 14.8875C13.74 14.624 13.7243 14.181 13.9878 13.8982Z" fill="#222628"/>
<path fill-rule="evenodd" clip-rule="evenodd" d="M7.73783 8.07555C8.00136 7.79268 8.44429 7.777 8.72716 8.04053L9.97716 9.20506C10.26 9.46858 10.2757 9.91152 10.0122 10.1944C9.74866 10.4773 9.30572 10.4929 9.02285 10.2294L7.77285 9.06488C7.48998 8.80135 7.47431 8.35842 7.73783 8.07555Z" fill="#222628"/>
<path fill-rule="evenodd" clip-rule="evenodd" d="M7.73782 16.017C7.47429 15.7342 7.48997 15.2912 7.77284 15.0277L9.02284 13.8632C9.30571 13.5996 9.74864 13.6153 10.0122 13.8982C10.2757 14.181 10.26 14.624 9.97715 14.8875L8.72715 16.052C8.44428 16.3156 8.00134 16.2999 7.73782 16.017Z" fill="#222628"/>
<path fill-rule="evenodd" clip-rule="evenodd" d="M14.6333 12.0463C14.6333 11.6597 14.9467 11.3463 15.3333 11.3463H17C17.3866 11.3463 17.7 11.6597 17.7 12.0463C17.7 12.4329 17.3866 12.7463 17 12.7463H15.3333C14.9467 12.7463 14.6333 12.4329 14.6333 12.0463Z" fill="#222628"/>
<path fill-rule="evenodd" clip-rule="evenodd" d="M6.3 12.0463C6.3 11.6597 6.6134 11.3463 7 11.3463H8.66667C9.05327 11.3463 9.36667 11.6597 9.36667 12.0463C9.36667 12.4329 9.05327 12.7463 8.66667 12.7463H7C6.6134 12.7463 6.3 12.4329 6.3 12.0463Z" fill="#222628"/>
<path fill-rule="evenodd" clip-rule="evenodd" d="M11.9645 1.29999H12.0355C13.8747 1.29998 15.3027 1.29998 16.443 1.40333C17.6002 1.50821 18.5296 1.72393 19.35 2.19762C20.3685 2.78567 21.2143 3.63146 21.8024 4.64999C22.2761 5.47044 22.4918 6.39979 22.5967 7.55699C22.7 8.69727 22.7 10.1253 22.7 11.9646V12.0354C22.7 13.8746 22.7 15.3027 22.5967 16.443C22.4918 17.6002 22.2761 18.5295 21.8024 19.35C21.2143 20.3685 20.3685 21.2143 19.35 21.8024C18.5296 22.276 17.6002 22.4918 16.443 22.5966C15.3027 22.7 13.8747 22.7 12.0354 22.7H11.9646C10.1253 22.7 8.69729 22.7 7.55701 22.5966C6.3998 22.4918 5.47045 22.276 4.65 21.8024C3.63147 21.2143 2.78568 20.3685 2.19763 19.35C1.72395 18.5295 1.50822 17.6002 1.40334 16.443C1.3 15.3027 1.3 13.8747 1.3 12.0354V11.9645C1.3 10.1253 1.3 8.69726 1.40334 7.55699C1.50822 6.39979 1.72395 5.47044 2.19763 4.64999C2.78568 3.63146 3.63147 2.78567 4.65 2.19762C5.47045 1.72393 6.3998 1.50821 7.55701 1.40333C8.69727 1.29998 10.1253 1.29998 11.9645 1.29999ZM7.68338 2.79761C6.62327 2.89369 5.92186 3.07989 5.35 3.41005C4.5443 3.87523 3.87524 4.54429 3.41007 5.34999C3.07991 5.92184 2.89371 6.62326 2.79763 7.68336C2.70067 8.75309 2.7 10.1179 2.7 12C2.7 13.8821 2.70067 15.2469 2.79763 16.3166C2.89371 17.3767 3.07991 18.0781 3.41007 18.65C3.87524 19.4557 4.5443 20.1248 5.35 20.5899C5.92186 20.9201 6.62327 21.1063 7.68338 21.2024C8.7531 21.2993 10.1179 21.3 12 21.3C13.8821 21.3 15.2469 21.2993 16.3166 21.2024C17.3767 21.1063 18.0781 20.9201 18.65 20.5899C19.4557 20.1248 20.1248 19.4557 20.5899 18.65C20.9201 18.0781 21.1063 17.3767 21.2024 16.3166C21.2993 15.2469 21.3 13.8821 21.3 12C21.3 10.1179 21.2993 8.75309 21.2024 7.68336C21.1063 6.62326 20.9201 5.92184 20.5899 5.34999C20.1248 4.54429 19.4557 3.87523 18.65 3.41005C18.0781 3.07989 17.3767 2.89369 16.3166 2.79761C15.2469 2.70066 13.8821 2.69999 12 2.69999C10.1179 2.69999 8.7531 2.70066 7.68338 2.79761Z" fill="#222628"/>
</svg>
