<svg width="24" height="24" viewBox="0 0 24 24" fill="none" xmlns="http://www.w3.org/2000/svg">
<path opacity="0.4" d="M22 12C22 17.5228 17.5228 22 12 22C6.47715 22 2 17.5228 2 12C2 6.47715 6.47715 2 12 2C17.5228 2 22 6.47715 22 12Z" fill="#C4C4C4"/>
<path fill-rule="evenodd" clip-rule="evenodd" d="M12 2.69999C6.86374 2.69999 2.69999 6.86374 2.69999 12C2.69999 17.1362 6.86374 21.3 12 21.3C17.1362 21.3 21.3 17.1362 21.3 12C21.3 6.86374 17.1362 2.69999 12 2.69999ZM1.29999 12C1.29999 6.09054 6.09054 1.29999 12 1.29999C17.9094 1.29999 22.7 6.09054 22.7 12C22.7 17.9094 17.9094 22.7 12 22.7C6.09054 22.7 1.29999 17.9094 1.29999 12Z" fill="#222628"/>
<path d="M12.7 7.7C12.7 8.0866 12.3866 8.4 12 8.4C11.6134 8.4 11.3 8.0866 11.3 7.7C11.3 7.3134 11.6134 7 12 7C12.3866 7 12.7 7.3134 12.7 7.7Z" fill="#222628"/>
<path fill-rule="evenodd" clip-rule="evenodd" d="M12 10.3C12.3866 10.3 12.7 10.6134 12.7 11V17C12.7 17.3866 12.3866 17.7 12 17.7C11.6134 17.7 11.3 17.3866 11.3 17V11C11.3 10.6134 11.6134 10.3 12 10.3Z" fill="#222628"/>
</svg>
