<svg width="24" height="24" viewBox="0 0 24 24" fill="none" xmlns="http://www.w3.org/2000/svg">
<path opacity="0.4" d="M3 12.2C3 9.20021 3 7.70032 3.76393 6.64886C4.01065 6.30928 4.30928 6.01065 4.64886 5.76393C5.70032 5 7.20021 5 10.2 5H13.8C16.7998 5 18.2997 5 19.3511 5.76393C19.6907 6.01065 19.9894 6.30928 20.2361 6.64886C21 7.70032 21 9.20021 21 12.2V13.4C21 14.8999 21 15.6498 20.618 16.1756C20.4947 16.3454 20.3454 16.4947 20.1756 16.618C19.6498 17 18.8999 17 17.4 17H6.6C5.10011 17 4.35016 17 3.82443 16.618C3.65464 16.4947 3.50533 16.3454 3.38197 16.1756C3 15.6498 3 14.8999 3 13.4V12.2Z" fill="#C4C4C4"/>
<path fill-rule="evenodd" clip-rule="evenodd" d="M10.1582 4.29999H13.8418C15.3062 4.29998 16.4625 4.29997 17.3816 4.39955C18.3225 4.5015 19.0976 4.7145 19.7626 5.19761C20.1616 5.4875 20.5125 5.83839 20.8024 6.2374C21.2855 6.90234 21.4985 7.67746 21.6004 8.6184C21.7 9.53753 21.7 10.6938 21.7 12.1583V13.4386C21.7 14.1557 21.7 14.7499 21.6482 15.2285C21.594 15.7287 21.4765 16.1849 21.1843 16.587C21.0178 16.8162 20.8162 17.0178 20.587 17.1843C20.1849 17.4765 19.7287 17.594 19.2285 17.6482C18.7499 17.7 18.1557 17.7 17.4387 17.7H6.56127C5.84427 17.7 5.25005 17.7 4.77149 17.6482C4.27125 17.594 3.81505 17.4765 3.41297 17.1843C3.18375 17.0178 2.98218 16.8162 2.81564 16.587C2.52351 16.1849 2.40601 15.7287 2.35181 15.2285C2.29996 14.7499 2.29997 14.1557 2.29999 13.4387L2.29999 12.1582C2.29998 10.6937 2.29997 9.53751 2.39955 8.6184C2.5015 7.67746 2.7145 6.90234 3.19761 6.2374C3.4875 5.83839 3.83839 5.4875 4.2374 5.19761C4.90235 4.7145 5.67746 4.5015 6.6184 4.39955C7.53752 4.29997 8.69373 4.29998 10.1582 4.29999ZM6.7692 5.79141C5.94738 5.88045 5.44681 6.04941 5.0603 6.33023C4.78015 6.53377 4.53378 6.78014 4.33023 7.0603C4.04941 7.44681 3.88045 7.94737 3.79141 8.7692C3.70095 9.60412 3.69999 10.6845 3.69999 12.2V13.4C3.69999 14.1655 3.70095 14.6835 3.74366 15.0777C3.78496 15.4588 3.85843 15.6405 3.94827 15.7641C4.02845 15.8745 4.1255 15.9715 4.23587 16.0517C4.35952 16.1415 4.54116 16.215 4.92229 16.2563C5.31652 16.299 5.83445 16.3 6.59999 16.3H17.4C18.1655 16.3 18.6835 16.299 19.0777 16.2563C19.4588 16.215 19.6405 16.1415 19.7641 16.0517C19.8745 15.9715 19.9715 15.8745 20.0517 15.7641C20.1415 15.6405 20.215 15.4588 20.2563 15.0777C20.299 14.6835 20.3 14.1655 20.3 13.4V12.2C20.3 10.6845 20.299 9.60412 20.2086 8.7692C20.1195 7.94737 19.9506 7.44681 19.6697 7.0603C19.4662 6.78014 19.2198 6.53377 18.9397 6.33023C18.5532 6.04941 18.0526 5.88045 17.2308 5.79141C16.3959 5.70095 15.3155 5.69999 13.8 5.69999H10.2C8.6845 5.69999 7.60412 5.70095 6.7692 5.79141Z" fill="#222628"/>
<path fill-rule="evenodd" clip-rule="evenodd" d="M2.29999 18.0184C2.29999 17.6216 2.62163 17.3 3.01839 17.3H20.9808C21.378 17.3 21.7 17.622 21.7 18.0192C21.7 18.9475 20.9475 19.7 20.0192 19.7H3.98158C3.05286 19.7 2.29999 18.9471 2.29999 18.0184Z" fill="#222628"/>
<path fill-rule="evenodd" clip-rule="evenodd" d="M10.8 18.3C10.8 17.9134 11.1134 17.6 11.5 17.6H12.5C12.8866 17.6 13.2 17.9134 13.2 18.3C13.2 18.6866 12.8866 19 12.5 19H11.5C11.1134 19 10.8 18.6866 10.8 18.3Z" fill="#E7E7E7"/>
</svg>
