<svg width="24" height="24" viewBox="0 0 24 24" fill="none" xmlns="http://www.w3.org/2000/svg">
<path d="M21 11.45C21 17.75 14 23 12 23C10 23 3 17.75 3 11.45C3 5.15 7.02944 2 12 2C16.9706 2 21 5.15 21 11.45Z" fill="#C4C4C4" fill-opacity="0.4"/>
<path fill-rule="evenodd" clip-rule="evenodd" d="M6.12265 4.86569C4.65353 6.28639 3.7 8.45485 3.7 11.45C3.7 14.3462 5.31806 17.0689 7.2569 19.1047C8.21906 20.115 9.23703 20.9307 10.1231 21.489C10.5664 21.7682 10.967 21.977 11.303 22.1138C11.6516 22.2557 11.8819 22.3 12 22.3C12.1181 22.3 12.3484 22.2557 12.697 22.1138C13.033 21.977 13.4336 21.7682 13.8769 21.489C14.763 20.9307 15.7809 20.115 16.7431 19.1047C18.6819 17.0689 20.3 14.3462 20.3 11.45C20.3 8.45485 19.3465 6.28639 17.8774 4.86569C16.4026 3.43955 14.3391 2.69999 12 2.69999C9.66093 2.69999 7.5974 3.43955 6.12265 4.86569ZM5.14943 3.85929C6.93204 2.13543 9.36851 1.29999 12 1.29999C14.6315 1.29999 17.068 2.13543 18.8506 3.85929C20.6388 5.58858 21.7 8.14512 21.7 11.45C21.7 14.8538 19.8181 17.906 17.7569 20.0702C16.7191 21.16 15.612 22.0505 14.6231 22.6735C14.1289 22.9849 13.6545 23.2355 13.2249 23.4104C12.8079 23.5802 12.3819 23.7 12 23.7C11.6181 23.7 11.1922 23.5802 10.7751 23.4104C10.3455 23.2355 9.87114 22.9849 9.37688 22.6735C8.38798 22.0505 7.28095 21.16 6.24311 20.0702C4.18195 17.906 2.3 14.8538 2.3 11.45C2.3 8.14512 3.3612 5.58858 5.14943 3.85929Z" fill="#222628"/>
<path fill-rule="evenodd" clip-rule="evenodd" d="M12 7.69999C10.5917 7.69999 9.45 8.84166 9.45 10.25C9.45 11.6583 10.5917 12.8 12 12.8C13.4083 12.8 14.55 11.6583 14.55 10.25C14.55 8.84166 13.4083 7.69999 12 7.69999ZM8.05 10.25C8.05 8.06846 9.81848 6.29999 12 6.29999C14.1815 6.29999 15.95 8.06846 15.95 10.25C15.95 12.4315 14.1815 14.2 12 14.2C9.81848 14.2 8.05 12.4315 8.05 10.25Z" fill="#222628"/>
</svg>
