<svg width="24" height="24" viewBox="0 0 24 24" fill="none" xmlns="http://www.w3.org/2000/svg">
<path opacity="0.4" d="M2 12C2 8.26154 2 6.3923 2.80385 5C3.33046 4.08788 4.08788 3.33046 5 2.80385C6.3923 2 8.26154 2 12 2C15.7385 2 17.6077 2 19 2.80385C19.9121 3.33046 20.6695 4.08788 21.1962 5C22 6.3923 22 8.26154 22 12C22 15.7385 22 17.6077 21.1962 19C20.6695 19.9121 19.9121 20.6695 19 21.1962C17.6077 22 15.7385 22 12 22C8.26154 22 6.3923 22 5 21.1962C4.08788 20.6695 3.33046 19.9121 2.80385 19C2 17.6077 2 15.7385 2 12Z" fill="#C4C4C4"/>
<path fill-rule="evenodd" clip-rule="evenodd" d="M11.9645 1.29999H12.0355C13.8747 1.29998 15.3027 1.29998 16.443 1.40333C17.6002 1.50821 18.5296 1.72393 19.35 2.19762C20.3685 2.78567 21.2143 3.63146 21.8024 4.64999C22.2761 5.47044 22.4918 6.39979 22.5967 7.55699C22.7 8.69727 22.7 10.1253 22.7 11.9646V12.0354C22.7 13.8746 22.7 15.3027 22.5967 16.443C22.4918 17.6002 22.2761 18.5295 21.8024 19.35C21.2143 20.3685 20.3685 21.2143 19.35 21.8024C18.5296 22.276 17.6002 22.4918 16.443 22.5966C15.3027 22.7 13.8747 22.7 12.0354 22.7H11.9646C10.1253 22.7 8.69729 22.7 7.55701 22.5966C6.3998 22.4918 5.47045 22.276 4.65 21.8024C3.63147 21.2143 2.78568 20.3685 2.19763 19.35C1.72395 18.5295 1.50822 17.6002 1.40334 16.443C1.3 15.3027 1.3 13.8747 1.3 12.0354V11.9645C1.3 10.1253 1.3 8.69726 1.40334 7.55699C1.50822 6.39979 1.72395 5.47044 2.19763 4.64999C2.78568 3.63146 3.63147 2.78567 4.65 2.19762C5.47045 1.72393 6.3998 1.50821 7.55701 1.40333C8.69727 1.29998 10.1253 1.29998 11.9645 1.29999ZM7.68338 2.79761C6.62327 2.89369 5.92186 3.07989 5.35 3.41005C4.5443 3.87523 3.87524 4.54429 3.41007 5.34999C3.07991 5.92184 2.89371 6.62326 2.79763 7.68336C2.70067 8.75309 2.7 10.1179 2.7 12C2.7 13.8821 2.70067 15.2469 2.79763 16.3166C2.89371 17.3767 3.07991 18.0781 3.41007 18.65C3.87524 19.4557 4.5443 20.1248 5.35 20.5899C5.92186 20.9201 6.62327 21.1063 7.68338 21.2024C8.7531 21.2993 10.1179 21.3 12 21.3C13.8821 21.3 15.2469 21.2993 16.3166 21.2024C17.3767 21.1063 18.0781 20.9201 18.65 20.5899C19.4557 20.1248 20.1248 19.4557 20.5899 18.65C20.9201 18.0781 21.1063 17.3767 21.2024 16.3166C21.2993 15.2469 21.3 13.8821 21.3 12C21.3 10.1179 21.2993 8.75309 21.2024 7.68336C21.1063 6.62326 20.9201 5.92184 20.5899 5.34999C20.1248 4.54429 19.4557 3.87523 18.65 3.41005C18.0781 3.07989 17.3767 2.89369 16.3166 2.79761C15.2469 2.70066 13.8821 2.69999 12 2.69999C10.1179 2.69999 8.7531 2.70066 7.68338 2.79761Z" fill="#222628"/>
<path fill-rule="evenodd" clip-rule="evenodd" d="M10.6835 9.15121C10.393 9.41666 10.2 9.81093 10.2 10.3461V10.3462C10.2 10.8466 10.2833 11.1432 10.3937 11.3457C10.5033 11.5467 10.6749 11.7204 10.9705 11.9182C11.1649 12.0482 11.2815 12.2667 11.2813 12.5005L11.2798 14.5482C11.2797 14.7031 11.2527 14.8586 11.2383 14.9416C11.2362 14.9536 11.2344 14.964 11.233 14.9728C11.2013 15.1658 11.3598 15.3676 11.5813 15.3676H12.6166C12.6144 15.3676 12.6132 15.3676 12.6132 15.3674C12.613 15.366 12.6736 15.3544 12.7491 15.2623C12.8274 15.1667 12.8565 15.0585 12.8459 14.9743C12.8447 14.9642 12.8428 14.9511 12.8406 14.9356C12.8274 14.842 12.8015 14.6582 12.8108 14.483L12.9185 12.4627C12.9302 12.2425 13.045 12.0408 13.2283 11.9182C13.5244 11.7201 13.6967 11.5462 13.8069 11.3448C13.9177 11.1423 14.0014 10.8459 14.0014 10.3461C14.0014 9.4193 13.1852 8.69999 11.9999 8.69999C11.4284 8.69999 10.9806 8.87979 10.6835 9.15121ZM9.73919 8.11766C10.333 7.5751 11.1352 7.29999 11.9999 7.29999C13.6873 7.29999 15.4014 8.40031 15.4014 10.3461C15.4014 11.0002 15.2918 11.5475 15.035 12.0168C14.8416 12.3704 14.5848 12.6424 14.2988 12.8697L14.2088 14.5574C14.2073 14.5873 14.2103 14.6104 14.2204 14.6869C14.2242 14.7158 14.229 14.7523 14.235 14.7996C14.301 15.3248 14.1126 15.807 13.8322 16.1493C13.5601 16.4815 13.1274 16.7676 12.6175 16.7676H11.5813C10.4969 16.7676 9.67968 15.7922 9.8515 14.7459C9.85475 14.7261 9.85765 14.7085 9.86024 14.6929C9.87558 14.6001 9.87976 14.5748 9.87978 14.5472L9.88103 12.8544C9.6026 12.63 9.35321 12.362 9.16453 12.0159C8.90864 11.5466 8.79997 10.9995 8.8 10.3461M9.73919 8.11766C9.13883 8.6662 8.80001 9.44497 8.8 10.3461L9.73919 8.11766Z" fill="#222628"/>
</svg>
