<svg width="24" height="24" viewBox="0 0 24 24" fill="none" xmlns="http://www.w3.org/2000/svg">
<path d="M3.54151 15.4983C3.45839 14.5009 3.41684 14.0022 3.45089 13.5892C3.63898 11.3076 5.35265 9.44516 7.61078 9.06823C8.01955 9 8.51996 9 9.52078 9H14.4792C15.48 9 15.9804 9 16.3892 9.06823C18.6473 9.44516 20.361 11.3076 20.5491 13.5892C20.5831 14.0022 20.5416 14.5009 20.4585 15.4983C20.3869 16.3571 20.3511 16.7865 20.2655 17.1492C19.7956 19.1387 18.1621 20.6418 16.1404 20.9448C15.7719 21 15.341 21 14.4792 21H9.52078C8.65896 21 8.22805 21 7.85956 20.9448C5.83792 20.6418 4.20433 19.1387 3.7345 17.1492C3.64886 16.7865 3.61308 16.3571 3.54151 15.4983Z" fill="#C4C4C4" fill-opacity="0.4"/>
<path fill-rule="evenodd" clip-rule="evenodd" d="M9.43734 8.29999C9.46483 8.29999 9.49266 8.3 9.52081 8.3L14.5627 8.29999C15.4841 8.29992 16.0378 8.29988 16.5045 8.37778C19.0787 8.80747 21.0323 10.9306 21.2467 13.5317C21.2856 14.0032 21.2396 14.555 21.163 15.4732L21.1502 15.6265C21.0843 16.4186 21.0445 16.8961 20.9468 17.31C20.4112 19.5781 18.5489 21.2916 16.2442 21.637C15.8235 21.7001 15.3444 21.7001 14.5496 21.7H9.4504C8.6556 21.7001 8.17649 21.7001 7.75584 21.637C5.45117 21.2916 3.58888 19.5781 3.05327 17.31C2.95551 16.8961 2.91575 16.4186 2.8498 15.6266C2.84787 15.6034 2.84593 15.5801 2.84396 15.5564C2.84162 15.5283 2.8393 15.5006 2.83702 15.4732C2.76043 14.555 2.71441 14.0032 2.75328 13.5317C2.96771 10.9306 4.9213 8.80747 7.49556 8.37778C7.96224 8.29988 8.51589 8.29992 9.43734 8.29999ZM9.52081 9.7C8.49097 9.7 8.063 9.70243 7.72606 9.75868C5.78407 10.0828 4.31031 11.6845 4.14855 13.6467C4.12048 13.9872 4.1536 14.4139 4.23912 15.4401C4.31274 16.3235 4.34513 16.6891 4.41579 16.9883C4.81984 18.6992 6.22473 19.9919 7.96334 20.2525C8.26738 20.2981 8.63436 20.3 9.52081 20.3H14.4792C15.3657 20.3 15.7326 20.2981 16.0367 20.2525C17.7753 19.9919 19.1802 18.6992 19.5842 16.9883C19.6549 16.6891 19.6873 16.3235 19.7609 15.4401C19.8464 14.4139 19.8795 13.9872 19.8515 13.6467C19.6897 11.6845 18.216 10.0828 16.274 9.75868C15.937 9.70243 15.5091 9.7 14.4792 9.7H9.52081Z" fill="#222628"/>
<path fill-rule="evenodd" clip-rule="evenodd" d="M8.19998 8.50215L8.20004 8.50049L8.20078 8.47485C8.20168 8.45012 8.20355 8.41062 8.20742 8.35849C8.21519 8.25398 8.23088 8.10013 8.26244 7.91367C8.32611 7.53744 8.45136 7.04641 8.6934 6.56381C8.93412 6.08387 9.28337 5.62537 9.79285 5.28536C10.2978 4.94837 11.0014 4.69999 12 4.69999C12.9986 4.69999 13.7011 4.94837 14.2047 5.28503C14.7127 5.6247 15.0604 6.08276 15.2996 6.56242C15.5402 7.04477 15.6641 7.53562 15.7267 7.91181C15.7577 8.09824 15.773 8.25207 15.7805 8.35657C15.7842 8.4087 15.786 8.44819 15.7868 8.47292L15.7875 8.49855L15.7875 8.50137L15.7875 8.50084C15.7875 8.50053 15.7875 8.50021 16.4875 8.49999L15.7875 8.50021C15.7875 8.50092 15.7875 8.50163 15.7875 8.50235C15.7888 8.88796 16.1019 9.20011 16.4877 9.19999C16.8743 9.19987 17.1876 8.88637 17.1875 8.49977L16.5177 8.49998C17.1875 8.49976 17.1875 8.4994 17.1875 8.49903L17.1875 8.49819L17.1875 8.4962L17.1875 8.49097L17.1873 8.4756C17.1871 8.46322 17.1867 8.44659 17.186 8.42598C17.1846 8.38479 17.182 8.32761 17.1769 8.25669C17.1668 8.11509 17.1469 7.91736 17.1077 7.68192C17.0299 7.21435 16.873 6.5802 16.5525 5.93755C16.2306 5.29221 15.7368 4.62528 14.9828 4.12119C14.2244 3.61411 13.2445 3.29999 12 3.29999C10.7555 3.29999 9.77506 3.61411 9.01571 4.12086C8.26087 4.62461 7.7655 5.29111 7.44198 5.93617C7.11979 6.57856 6.96119 7.21253 6.88207 7.68006C6.84223 7.91547 6.82179 8.11318 6.81127 8.25477C6.806 8.32568 6.8032 8.38286 6.8017 8.42405C6.80095 8.44465 6.80053 8.46128 6.80029 8.47367L6.80006 8.48903L6.80001 8.49426L6.8 8.49625L6.79999 8.49709C6.79999 8.49746 6.79999 8.49782 7.46978 8.49989L6.79999 8.49783C6.7988 8.88443 7.11123 9.19879 7.49783 9.19998C7.88422 9.20118 8.19845 8.88908 8.19998 8.50278L8.19998 8.50407L8.19998 8.50331L8.19998 8.50278L8.19998 8.50215Z" fill="#222628"/>
<path fill-rule="evenodd" clip-rule="evenodd" d="M12 17.7C11.6134 17.7 11.3 17.3866 11.3 17L11.3 15C11.3 14.6134 11.6134 14.3 12 14.3C12.3866 14.3 12.7 14.6134 12.7 15L12.7 17C12.7 17.3866 12.3866 17.7 12 17.7Z" fill="#222628"/>
</svg>
