<svg width="24" height="24" viewBox="0 0 24 24" fill="none" xmlns="http://www.w3.org/2000/svg">
<path opacity="0.45" d="M16.6773 3L12.5 3L12.5 21L16.6773 21C18.1941 21 19.4702 19.8691 19.6158 18.3593C19.7976 16.4741 20 13.9392 20 12C20 10.0608 19.7976 7.52589 19.6158 5.64065C19.4702 4.13089 18.1941 3 16.6773 3Z" fill="#C4C4C4"/>
<path fill-rule="evenodd" clip-rule="evenodd" d="M3.29999 12C3.29999 11.6134 3.61339 11.3 3.99999 11.3L14 11.3C14.3866 11.3 14.7 11.6134 14.7 12C14.7 12.3866 14.3866 12.7 14 12.7L3.99999 12.7C3.61339 12.7 3.29999 12.3866 3.29999 12Z" fill="#222628"/>
<path fill-rule="evenodd" clip-rule="evenodd" d="M15.2424 12.4242C15.0081 12.6586 14.6282 12.6586 14.3939 12.4242L11.2424 9.27278C11.0081 9.03846 11.0081 8.65856 11.2424 8.42425C11.4768 8.18993 11.8567 8.18993 12.091 8.42425L15.2424 11.5757C15.4768 11.81 15.4768 12.1899 15.2424 12.4242Z" fill="#222628"/>
<path fill-rule="evenodd" clip-rule="evenodd" d="M15.2424 11.5758C15.0081 11.3414 14.6282 11.3414 14.3939 11.5758L11.2424 14.7272C11.0081 14.9615 11.0081 15.3414 11.2424 15.5758C11.4768 15.8101 11.8567 15.8101 12.091 15.5758L15.2424 12.4243C15.4768 12.19 15.4768 11.8101 15.2424 11.5758Z" fill="#222628"/>
<path fill-rule="evenodd" clip-rule="evenodd" d="M11.8 21C11.8 20.6134 12.1134 20.3 12.5 20.3L16.6773 20.3C17.8428 20.3 18.8089 19.4338 18.919 18.2922C19.1005 16.4096 19.3 13.9032 19.3 12C19.3 10.0968 19.1005 7.59037 18.919 5.70784C18.8089 4.56621 17.8428 3.70001 16.6773 3.70001L12.5 3.70001C12.1134 3.70001 11.8 3.38661 11.8 3.00001C11.8 2.61341 12.1134 2.30001 12.5 2.30001L16.6773 2.30001C18.5453 2.30001 20.1315 3.6956 20.3126 5.57348C20.4946 7.46143 20.7 10.0248 20.7 12C20.7 13.9752 20.4946 16.5386 20.3126 18.4265C20.1315 20.3044 18.5453 21.7 16.6773 21.7L12.5 21.7C12.1134 21.7 11.8 21.3866 11.8 21Z" fill="#222628"/>
</svg>
