<svg width="24" height="24" viewBox="0 0 24 24" fill="none" xmlns="http://www.w3.org/2000/svg">
<path opacity="0.4" d="M7.32271 21L11.5 21L11.5 3L7.32271 3C5.80595 3 4.52977 4.13089 4.38421 5.64065C4.20244 7.52589 4 10.0608 4 12C4 13.9392 4.20244 16.4741 4.38421 18.3593C4.52977 19.8691 5.80595 21 7.32271 21Z" fill="#C4C4C4"/>
<path fill-rule="evenodd" clip-rule="evenodd" d="M7.6333 12C7.6333 12.3866 7.9467 12.7 8.3333 12.7L18.3333 12.7C18.7199 12.7 19.0333 12.3866 19.0333 12C19.0333 11.6134 18.7199 11.3 18.3333 11.3L8.3333 11.3C7.9467 11.3 7.6333 11.6134 7.6333 12Z" fill="#222628"/>
<path fill-rule="evenodd" clip-rule="evenodd" d="M19.5757 11.5758C19.3414 11.3414 18.9615 11.3414 18.7272 11.5758L15.5757 14.7272C15.3414 14.9615 15.3414 15.3414 15.5757 15.5758C15.81 15.8101 16.1899 15.8101 16.4243 15.5758L19.5757 12.4243C19.81 12.19 19.81 11.8101 19.5757 11.5758Z" fill="#222628"/>
<path fill-rule="evenodd" clip-rule="evenodd" d="M19.5757 12.4243C19.3414 12.6586 18.9615 12.6586 18.7272 12.4243L15.5757 9.2728C15.3414 9.03849 15.3414 8.65859 15.5757 8.42428C15.81 8.18996 16.1899 8.18996 16.4243 8.42428L19.5757 11.5757C19.81 11.8101 19.81 12.19 19.5757 12.4243Z" fill="#222628"/>
<path fill-rule="evenodd" clip-rule="evenodd" d="M12.2 3.00002C12.2 3.38662 11.8866 3.70002 11.5 3.70002L7.32272 3.70002C6.15721 3.70002 5.19106 4.56622 5.08099 5.70785C4.89948 7.59038 4.70001 10.0968 4.70001 12C4.70001 13.9032 4.89948 16.4097 5.08099 18.2922C5.19106 19.4338 6.15721 20.3 7.32272 20.3L11.5 20.3C11.8866 20.3 12.2 20.6134 12.2 21C12.2 21.3866 11.8866 21.7 11.5 21.7L7.32272 21.7C5.45472 21.7 3.86851 20.3044 3.68745 18.4265C3.50542 16.5386 3.30001 13.9752 3.30001 12C3.30001 10.0248 3.50542 7.46144 3.68745 5.57349C3.86851 3.69561 5.45471 2.30002 7.32272 2.30002L11.5 2.30002C11.8866 2.30002 12.2 2.61342 12.2 3.00002Z" fill="#222628"/>
</svg>
