<svg width="24" height="24" viewBox="0 0 24 24" fill="none" xmlns="http://www.w3.org/2000/svg">
<path opacity="0.4" d="M18.1665 8.0411L12.1665 7.02811C12.0563 7.00951 11.9437 7.00951 11.8335 7.02811L5.83352 8.0411C5.35229 8.12235 5 8.5391 5 9.02715V17.1512C5 17.4576 5.14001 17.7465 5.39497 17.9164C6.33411 18.5423 8.85868 20 12 20C15.1413 20 17.6659 18.5423 18.605 17.9164C18.86 17.7465 19 17.4576 19 17.1512V9.02715C19 8.5391 18.6477 8.12235 18.1665 8.0411Z" fill="#C4C4C4"/>
<path fill-rule="evenodd" clip-rule="evenodd" d="M11.717 6.33787C11.9043 6.30624 12.0956 6.30624 12.283 6.33787L18.283 7.35086C19.1011 7.48898 19.7 8.19746 19.7 9.02714V17.1512C19.7 17.668 19.4618 18.1866 18.9932 18.4989C18.0086 19.1551 15.3443 20.7 12 20.7C8.65569 20.7 5.9914 19.1551 5.00676 18.4989C4.53815 18.1866 4.29999 17.668 4.29999 17.1511V9.02713C4.29999 8.19746 4.89888 7.48898 5.71698 7.35086L11.717 6.33787ZM12.0499 7.71833C12.0169 7.71275 11.9831 7.71275 11.95 7.71833L5.95005 8.73132C5.80567 8.7557 5.69999 8.88072 5.69999 9.02713V17.1511C5.69999 17.2471 5.74183 17.3063 5.78315 17.3339C6.67679 17.9294 9.06165 19.3 12 19.3C14.9383 19.3 17.3232 17.9294 18.2168 17.3339C18.2581 17.3063 18.3 17.2471 18.3 17.1512V9.02714C18.3 8.88072 18.1943 8.7557 18.0499 8.73132L12.0499 7.71833Z" fill="#222628"/>
<path fill-rule="evenodd" clip-rule="evenodd" d="M22.495 14.005C22.7683 14.2784 22.7683 14.7216 22.495 14.995L19.495 17.995C19.2216 18.2683 18.7784 18.2683 18.505 17.995C18.2316 17.7216 18.2316 17.2784 18.505 17.005L21.505 14.005C21.7784 13.7316 22.2216 13.7316 22.495 14.005Z" fill="#222628"/>
<path fill-rule="evenodd" clip-rule="evenodd" d="M1.50501 14.005C1.23164 14.2784 1.23164 14.7216 1.50501 14.995L4.50501 17.995C4.77837 18.2683 5.22159 18.2683 5.49496 17.995C5.76832 17.7216 5.76832 17.2784 5.49496 17.005L2.49496 14.005C2.22159 13.7316 1.77837 13.7316 1.50501 14.005Z" fill="#222628"/>
<path fill-rule="evenodd" clip-rule="evenodd" d="M22.495 8.50501C22.7683 8.77838 22.7683 9.2216 22.495 9.49496L19.495 12.495C19.2216 12.7683 18.7784 12.7683 18.505 12.495C18.2316 12.2216 18.2316 11.7784 18.505 11.505L21.505 8.50501C21.7784 8.23165 22.2216 8.23165 22.495 8.50501Z" fill="#222628"/>
<path fill-rule="evenodd" clip-rule="evenodd" d="M1.50501 8.50501C1.23164 8.77838 1.23164 9.2216 1.50501 9.49496L4.50501 12.495C4.77837 12.7683 5.22159 12.7683 5.49496 12.495C5.76832 12.2216 5.76832 11.7784 5.49496 11.505L2.49496 8.50501C2.22159 8.23165 1.77837 8.23165 1.50501 8.50501Z" fill="#222628"/>
<path fill-rule="evenodd" clip-rule="evenodd" d="M9.29999 17C9.29999 16.6134 9.61339 16.3 9.99999 16.3H14C14.3866 16.3 14.7 16.6134 14.7 17C14.7 17.3866 14.3866 17.7 14 17.7H9.99999C9.61339 17.7 9.29999 17.3866 9.29999 17Z" fill="#222628"/>
</svg>
