<svg width="24" height="24" viewBox="0 0 24 24" fill="none" xmlns="http://www.w3.org/2000/svg">
<path opacity="0.4" d="M16.0632 1.71348L19.9222 14.75C19.9652 14.8955 19.8827 15.0484 19.7375 15.0922C18.5912 15.4384 17.3864 15.5475 16.1965 15.4131L8.62336 14.5575L10.5089 19.2858C10.7307 19.842 10.4173 20.4672 9.83887 20.6221L8.53778 20.9708C8.05965 21.0989 7.55973 20.8579 7.36211 20.4041L5.01455 15.013L3.72665 15.3581C3.19318 15.501 2.64484 15.1844 2.5019 14.651L1.63917 11.4312C1.49623 10.8977 1.81281 10.3494 2.34628 10.2065L5.88801 9.25745L12.6295 3.22612C13.5296 2.42083 14.6123 1.84691 15.784 1.55401C15.9048 1.52382 16.0279 1.59414 16.0632 1.71348Z" fill="#C4C4C4"/>
<path fill-rule="evenodd" clip-rule="evenodd" d="M15.5234 2.35602C14.6274 2.64443 13.8002 3.118 13.0962 3.74778L6.67556 9.49209L7.82058 13.7653L8.70194 13.8619L16.2751 14.7175C17.2306 14.8255 18.1965 14.7628 19.1281 14.5335L15.5234 2.35602ZM6.41104 13.9141L5.39302 10.1148L2.52744 10.8826C2.3674 10.9255 2.27243 11.09 2.31531 11.25L3.17804 14.4698C3.22092 14.6298 3.38542 14.7248 3.54546 14.6819L6.41104 13.9141ZM5.54563 8.62448L12.1628 2.70441C13.1476 1.82331 14.3323 1.19536 15.6143 0.874884C16.0988 0.753769 16.5927 1.03591 16.7344 1.51477L20.5934 14.5513C20.7458 15.066 20.4537 15.6071 19.9399 15.7623C18.7026 16.1359 17.4022 16.2538 16.1179 16.1087L9.70669 15.3843L11.1591 19.0265C11.5362 19.9721 11.0033 21.0348 10.02 21.2983L8.71894 21.6469C7.90612 21.8647 7.05627 21.455 6.72031 20.6835L4.61342 15.8451L3.90781 16.0342C3.00092 16.2772 2.06874 15.739 1.82574 14.8321L0.963014 11.6124C0.720013 10.7055 1.2582 9.77329 2.16509 9.53029L5.54563 8.62448ZM5.98085 15.4787L8.00389 20.1246C8.06318 20.2607 8.21316 20.333 8.35659 20.2946L9.65768 19.946C9.8312 19.8995 9.92524 19.7119 9.8587 19.5451L8.12897 15.2075L7.32269 15.1192L5.98085 15.4787Z" fill="#222628"/>
<path fill-rule="evenodd" clip-rule="evenodd" d="M17.1862 6.79508C17.1082 6.41645 17.3518 6.0462 17.7304 5.96811L17.8718 6.65368C17.7304 5.96811 17.7307 5.96804 17.7311 5.96798L17.7318 5.96783L17.7333 5.96752L17.7369 5.96679L17.7465 5.96493L17.7744 5.95985C17.7968 5.95595 17.8268 5.95111 17.8634 5.94606C17.9365 5.93597 18.0372 5.92485 18.1582 5.91871C18.3971 5.90659 18.7312 5.91302 19.0934 5.99493C19.8482 6.1656 20.7237 6.67495 21.0543 7.90851C21.3848 9.14206 20.8812 10.021 20.3129 10.5461C20.0401 10.7982 19.754 10.9708 19.5411 11.0797C19.4333 11.1349 19.3405 11.1757 19.2721 11.2035C19.2379 11.2174 19.2095 11.2282 19.1882 11.236L19.1614 11.2456L19.1522 11.2487L19.1487 11.2499L19.1472 11.2504L19.1466 11.2507C19.1462 11.2508 19.1459 11.2509 18.9256 10.5864L19.1459 11.2509C18.779 11.3725 18.3829 11.1737 18.2612 10.8068C18.1399 10.4412 18.3368 10.0467 18.7012 9.9234L18.7018 9.92319L18.7065 9.92146C18.7135 9.91892 18.7265 9.91402 18.7445 9.90668C18.7809 9.8919 18.8364 9.86771 18.9035 9.8334C19.0404 9.76335 19.2104 9.65876 19.3627 9.51796C19.6446 9.25743 19.8673 8.88794 19.702 8.27085C19.5366 7.65376 19.159 7.44512 18.7846 7.36045C18.5823 7.31469 18.3827 7.30912 18.2292 7.31691C18.1539 7.32073 18.0937 7.32754 18.0549 7.3329C18.0356 7.33557 18.0219 7.33783 18.0146 7.3391" fill="#222628"/>
</svg>
