<svg width="24" height="24" viewBox="0 0 24 24" fill="none" xmlns="http://www.w3.org/2000/svg">
<path fill-rule="evenodd" clip-rule="evenodd" d="M5 5.29998C5 4.91338 5.3134 4.59998 5.7 4.59998H18.3C18.6866 4.59998 19 4.91338 19 5.29998C19 5.68657 18.6866 5.99998 18.3 5.99998H5.7C5.3134 5.99998 5 5.68657 5 5.29998Z" fill="#222628"/>
<path fill-rule="evenodd" clip-rule="evenodd" d="M5 11.3C5 10.9134 5.3134 10.6 5.7 10.6H18.3C18.6866 10.6 19 10.9134 19 11.3C19 11.6866 18.6866 12 18.3 12H5.7C5.3134 12 5 11.6866 5 11.3Z" fill="#222628"/>
<path fill-rule="evenodd" clip-rule="evenodd" d="M5 17.3C5 16.9134 5.3134 16.6 5.7 16.6H18.3C18.6866 16.6 19 16.9134 19 17.3C19 17.6866 18.6866 18 18.3 18H5.7C5.3134 18 5 17.6866 5 17.3Z" fill="#222628"/>
</svg>
