<svg width="24" height="24" viewBox="0 0 24 24" fill="none" xmlns="http://www.w3.org/2000/svg">
<path d="M2 12C2 9.19974 2 7.79961 2.54497 6.73005C3.02433 5.78924 3.78924 5.02433 4.73005 4.54497C5.79961 4 7.19974 4 10 4H14C16.8003 4 18.2004 4 19.27 4.54497C20.2108 5.02433 20.9757 5.78924 21.455 6.73005C22 7.79961 22 9.19974 22 12C22 14.8003 22 16.2004 21.455 17.27C20.9757 18.2108 20.2108 18.9757 19.27 19.455C18.2004 20 16.8003 20 14 20H10C7.19974 20 5.79961 20 4.73005 19.455C3.78924 18.9757 3.02433 18.2108 2.54497 17.27C2 16.2004 2 14.8003 2 12Z" fill="#C4C4C4" fill-opacity="0.4"/>
<path fill-rule="evenodd" clip-rule="evenodd" d="M9.96853 3.29999H14.0314C15.405 3.29998 16.4787 3.29998 17.341 3.37043C18.218 3.44209 18.9378 3.59011 19.5877 3.92125C20.6603 4.46773 21.5322 5.33972 22.0787 6.41224C22.4099 7.06215 22.5579 7.78195 22.6295 8.659C22.7 9.52131 22.7 10.595 22.7 11.9686V12.0314C22.7 13.4049 22.7 14.4787 22.6295 15.341C22.5579 16.218 22.4099 16.9378 22.0787 17.5877C21.5322 18.6603 20.6603 19.5322 19.5877 20.0787C18.9378 20.4099 18.218 20.5579 17.341 20.6295C16.4787 20.7 15.4049 20.7 14.0314 20.7H9.96857C8.59505 20.7 7.52131 20.7 6.659 20.6295C5.78195 20.5579 5.06215 20.4099 4.41224 20.0787C3.33972 19.5322 2.46773 18.6603 1.92125 17.5877C1.59011 16.9378 1.44209 16.218 1.37043 15.341C1.29998 14.4787 1.29998 13.4049 1.29999 12.0314V11.9685C1.29998 10.595 1.29998 9.5213 1.37043 8.659C1.44209 7.78195 1.59011 7.06215 1.92125 6.41224C2.46773 5.33972 3.33972 4.46773 4.41224 3.92125C5.06215 3.59011 5.78195 3.44209 6.659 3.37043C7.5213 3.29998 8.59503 3.29998 9.96853 3.29999ZM6.773 4.76578C5.98253 4.83037 5.46748 4.95484 5.04783 5.16866C4.23873 5.58092 3.58092 6.23873 3.16866 7.04783C2.95484 7.46748 2.83037 7.98253 2.76578 8.773C2.70053 9.57164 2.69999 10.5883 2.69999 12C2.69999 13.4117 2.70053 14.4283 2.76578 15.227C2.83037 16.0174 2.95484 16.5325 3.16866 16.9521C3.58092 17.7612 4.23873 18.4191 5.04783 18.8313C5.46748 19.0451 5.98253 19.1696 6.773 19.2342C7.57164 19.2994 8.58831 19.3 9.99999 19.3H14C15.4117 19.3 16.4283 19.2994 17.227 19.2342C18.0174 19.1696 18.5325 19.0451 18.9521 18.8313C19.7612 18.4191 20.4191 17.7612 20.8313 16.9521C21.0451 16.5325 21.1696 16.0174 21.2342 15.227C21.2994 14.4283 21.3 13.4117 21.3 12C21.3 10.5883 21.2994 9.57164 21.2342 8.773C21.1696 7.98253 21.0451 7.46748 20.8313 7.04783C20.4191 6.23873 19.7612 5.58092 18.9521 5.16866C18.5325 4.95484 18.0174 4.83037 17.227 4.76578C16.4283 4.70053 15.4117 4.69999 14 4.69999H9.99999C8.58831 4.69999 7.57164 4.70053 6.773 4.76578Z" fill="#222628"/>
<path fill-rule="evenodd" clip-rule="evenodd" d="M7.46852 9.54445C7.72012 9.25092 8.16203 9.21693 8.45555 9.46852L8 10L7.54445 10.5315C7.25092 10.2799 7.21693 9.83797 7.46852 9.54445ZM12 12.2448C11.8883 12.1789 11.7426 12.0828 11.5677 11.9594C11.1866 11.6903 10.7151 11.3256 10.2498 10.9534C9.78647 10.5827 9.33762 10.2113 9.00404 9.93202C8.83742 9.79252 8.69994 9.67634 8.60425 9.59515L8.49373 9.50114L8.45555 9.46852L8 10C7.54445 10.5315 7.5444 10.5314 7.54445 10.5315L7.58512 10.5662L7.69848 10.6627C7.79616 10.7455 7.93602 10.8637 8.10533 11.0055C8.44363 11.2887 8.90103 11.6673 9.37521 12.0466C9.84743 12.4244 10.3447 12.8097 10.7604 13.1031C10.9669 13.2489 11.1655 13.3807 11.3373 13.4789C11.4226 13.5276 11.5141 13.5755 11.605 13.6131C11.6772 13.643 11.8256 13.7 12 13.7C12.1744 13.7 12.3228 13.643 12.395 13.6131C12.4859 13.5755 12.5774 13.5276 12.6627 13.4789C12.8345 13.3807 13.0331 13.2489 13.2396 13.1031C13.6553 12.8097 14.1526 12.4244 14.6248 12.0466C15.099 11.6673 15.5564 11.2887 15.8947 11.0055C16.064 10.8637 16.2038 10.7455 16.3015 10.6627L16.4149 10.5662L16.4548 10.5322C16.4548 10.5321 16.4556 10.5315 16 10L16.4556 10.5315C16.7491 10.2799 16.7831 9.83797 16.5315 9.54445C16.2799 9.25092 15.838 9.21693 15.5444 9.46852L15.5063 9.50114L15.3957 9.59515C15.3001 9.67634 15.1626 9.79252 14.996 9.93202C14.6624 10.2113 14.2135 10.5827 13.7502 10.9534C13.2849 11.3256 12.8134 11.6903 12.4323 11.9594C12.2574 12.0828 12.1117 12.1789 12 12.2448ZM12.1403 12.3195C12.1403 12.3195 12.1403 12.3195 12.1403 12.3195V12.3195Z" fill="#222628"/>
</svg>
