<svg width="24" height="24" viewBox="0 0 24 24" fill="none" xmlns="http://www.w3.org/2000/svg">
<path opacity="0.4" d="M8 7C8 4.79086 9.79086 3 12 3C14.2091 3 16 4.79086 16 7V11C16 13.2091 14.2091 15 12 15C9.79086 15 8 13.2091 8 11V7Z" fill="#C4C4C4"/>
<path fill-rule="evenodd" clip-rule="evenodd" d="M12.7 18.3V22C12.7 22.3866 12.3866 22.7 12 22.7C11.6134 22.7 11.3 22.3866 11.3 22V18.3H12.7Z" fill="#222628"/>
<path fill-rule="evenodd" clip-rule="evenodd" d="M7.29999 6.99999C7.29999 4.40425 9.40425 2.29999 12 2.29999C14.5957 2.29999 16.7 4.40425 16.7 6.99999V11C16.7 13.5957 14.5957 15.7 12 15.7C9.40425 15.7 7.29999 13.5957 7.29999 11V6.99999ZM12 3.69999C10.1774 3.69999 8.69999 5.17745 8.69999 6.99999V11C8.69999 12.8225 10.1774 14.3 12 14.3C13.8225 14.3 15.3 12.8225 15.3 11V6.99999C15.3 5.17745 13.8225 3.69999 12 3.69999Z" fill="#222628"/>
<path fill-rule="evenodd" clip-rule="evenodd" d="M7.29999 6.99999C7.29999 6.61339 7.61339 6.29999 7.99999 6.29999L11 6.29999C11.3866 6.29999 11.7 6.61339 11.7 6.99999C11.7 7.38659 11.3866 7.69999 11 7.69999L7.99999 7.69999C7.61339 7.69999 7.29999 7.38659 7.29999 6.99999Z" fill="#222628"/>
<path d="M5.65844 14.2C6.28585 13.8896 6.62724 14.6896 6.62724 14.6896L6.63743 14.7089C6.64745 14.7276 6.66412 14.758 6.6876 14.7984C6.73463 14.8792 6.80868 14.9995 6.9111 15.1462C7.11652 15.4405 7.43253 15.8359 7.86904 16.2311C8.73671 17.0167 10.0759 17.8 11.9998 17.8C13.9238 17.8 15.263 17.0167 16.1306 16.2311C16.5671 15.8359 16.8831 15.4405 17.0886 15.1462C17.191 14.9995 17.265 14.8792 17.3121 14.7984C17.3355 14.758 17.3522 14.7276 17.3622 14.7089L17.3723 14.6898C17.5439 14.3437 17.9639 14.2013 18.3103 14.3726C18.6568 14.5441 18.7987 14.9639 18.6272 15.3105L18.6266 15.3118L18.6257 15.3135L18.6235 15.3178L18.6172 15.3303C18.6121 15.3402 18.6052 15.3535 18.5965 15.3698C18.579 15.4023 18.5543 15.4471 18.5221 15.5025C18.4578 15.6131 18.3632 15.7662 18.2366 15.9476C17.9839 16.3095 17.6002 16.7891 17.0702 17.2689C16.005 18.2334 14.3442 19.2 11.9998 19.2C9.65552 19.2 7.99468 18.2334 6.92942 17.2689C6.39946 16.7891 6.01577 16.3095 5.76311 15.9476C5.63649 15.7662 5.54191 15.6131 5.47755 15.5025C5.44535 15.4471 5.42064 15.4023 5.40321 15.3698C5.39449 15.3535 5.38759 15.3402 5.38247 15.3303L5.37612 15.3178L5.37395 15.3135L5.3731 15.3118C5.3731 15.3118 5.37289 15.3113 5.37247 15.3103C5.35641 15.2716 5.04692 14.5026 5.65844 14.2Z" fill="#222628"/>
<path fill-rule="evenodd" clip-rule="evenodd" d="M13.3 11C13.3 10.6134 13.6134 10.3 14 10.3H16C16.3866 10.3 16.7 10.6134 16.7 11C16.7 11.3866 16.3866 11.7 16 11.7H14C13.6134 11.7 13.3 11.3866 13.3 11Z" fill="#222628"/>
</svg>
