<svg width="24" height="24" viewBox="0 0 24 24" fill="none" xmlns="http://www.w3.org/2000/svg">
<path opacity="0.4" d="M5 9C5 6.19108 5 4.78661 5.67412 3.77772C5.96596 3.34096 6.34096 2.96596 6.77772 2.67412C7.78661 2 9.19108 2 12 2C14.8089 2 16.2134 2 17.2223 2.67412C17.659 2.96596 18.034 3.34096 18.3259 3.77772C19 4.78661 19 6.19108 19 9V15C19 17.8089 19 19.2134 18.3259 20.2223C18.034 20.659 17.659 21.034 17.2223 21.3259C16.2134 22 14.8089 22 12 22C9.19108 22 7.78661 22 6.77772 21.3259C6.34096 21.034 5.96596 20.659 5.67412 20.2223C5 19.2134 5 17.8089 5 15V9Z" fill="#C4C4C4"/>
<path fill-rule="evenodd" clip-rule="evenodd" d="M11.961 1.29999H12.039C13.4104 1.29998 14.4932 1.29997 15.357 1.38785C16.2407 1.47774 16.9725 1.66536 17.6112 2.09208C18.1244 2.43499 18.565 2.87561 18.9079 3.38881C19.3346 4.02744 19.5222 4.7593 19.6121 5.64299C19.7 6.50681 19.7 7.58958 19.7 8.96097V15.039C19.7 16.4104 19.7 17.4932 19.6121 18.357C19.5222 19.2407 19.3346 19.9725 18.9079 20.6112C18.565 21.1244 18.1244 21.565 17.6112 21.9079C16.9725 22.3346 16.2407 22.5222 15.357 22.6121C14.4932 22.7 13.4104 22.7 12.039 22.7H11.961C10.5896 22.7 9.50682 22.7 8.64299 22.6121C7.7593 22.5222 7.02744 22.3346 6.38881 21.9079C5.87561 21.565 5.43499 21.1244 5.09208 20.6112C4.66536 19.9725 4.47774 19.2407 4.38785 18.357C4.29997 17.4932 4.29998 16.4104 4.29999 15.039V8.96096C4.29998 7.58957 4.29997 6.50681 4.38785 5.64299C4.47774 4.7593 4.66536 4.02744 5.09208 3.38881C5.43499 2.87561 5.87561 2.43499 6.38881 2.09208C7.02744 1.66536 7.7593 1.47774 8.64299 1.38785C9.50681 1.29997 10.5896 1.29998 11.961 1.29999ZM8.78468 2.78066C8.01168 2.85929 7.53687 3.00874 7.16661 3.25614C6.80628 3.4969 6.4969 3.80628 6.25614 4.16661C6.00874 4.53687 5.85929 5.01168 5.78066 5.78468C5.70083 6.56937 5.69999 7.58096 5.69999 8.99999V15C5.69999 16.419 5.70083 17.4306 5.78066 18.2153C5.85929 18.9883 6.00874 19.4631 6.25614 19.8334C6.4969 20.1937 6.80628 20.5031 7.16661 20.7438C7.53687 20.9912 8.01168 21.1407 8.78468 21.2193C9.56937 21.2991 10.581 21.3 12 21.3C13.419 21.3 14.4306 21.2991 15.2153 21.2193C15.9883 21.1407 16.4631 20.9912 16.8334 20.7438C17.1937 20.5031 17.5031 20.1937 17.7438 19.8334C17.9912 19.4631 18.1407 18.9883 18.2193 18.2153C18.2991 17.4306 18.3 16.419 18.3 15V8.99999C18.3 7.58096 18.2991 6.56937 18.2193 5.78468C18.1407 5.01168 17.9912 4.53687 17.7438 4.16661C17.5031 3.80628 17.1937 3.4969 16.8334 3.25614C16.4631 3.00874 15.9883 2.85929 15.2153 2.78066C14.4306 2.70083 13.419 2.69999 12 2.69999C10.581 2.69999 9.56937 2.70083 8.78468 2.78066Z" fill="#222628"/>
<path fill-rule="evenodd" clip-rule="evenodd" d="M11 19.3C11 18.9134 11.3134 18.6 11.7 18.6H12.3C12.6866 18.6 13 18.9134 13 19.3C13 19.6866 12.6866 20 12.3 20H11.7C11.3134 20 11 19.6866 11 19.3Z" fill="#222628"/>
</svg>
