<svg width="24" height="24" viewBox="0 0 24 24" fill="none" xmlns="http://www.w3.org/2000/svg">
<path opacity="0.4" d="M2 10C2 7.19974 2 5.79961 2.54497 4.73005C3.02433 3.78924 3.78924 3.02433 4.73005 2.54497C5.79961 2 7.19974 2 10 2H14C16.8003 2 18.2004 2 19.27 2.54497C20.2108 3.02433 20.9757 3.78924 21.455 4.73005C22 5.79961 22 7.19974 22 10C22 12.8003 22 14.2004 21.455 15.27C20.9757 16.2108 20.2108 16.9757 19.27 17.455C18.2004 18 16.8003 18 14 18H10C7.19974 18 5.79961 18 4.73005 17.455C3.78924 16.9757 3.02433 16.2108 2.54497 15.27C2 14.2004 2 12.8003 2 10Z" fill="#C4C4C4"/>
<path fill-rule="evenodd" clip-rule="evenodd" d="M9.96853 1.29999H14.0314C15.405 1.29998 16.4787 1.29998 17.341 1.37043C18.218 1.44209 18.9378 1.59011 19.5877 1.92125C20.6603 2.46773 21.5322 3.33972 22.0787 4.41224C22.4099 5.06215 22.5579 5.78195 22.6295 6.659C22.7 7.52131 22.7 8.59505 22.7 9.96857V10.0314C22.7 11.4049 22.7 12.4787 22.6295 13.341C22.5579 14.218 22.4099 14.9378 22.0787 15.5877C21.5322 16.6603 20.6603 17.5322 19.5877 18.0787C18.9378 18.4099 18.218 18.5579 17.341 18.6295C16.4787 18.7 15.4049 18.7 14.0314 18.7H9.96857C8.59505 18.7 7.52131 18.7 6.659 18.6295C5.78195 18.5579 5.06215 18.4099 4.41224 18.0787C3.33972 17.5322 2.46773 16.6603 1.92125 15.5877C1.59011 14.9378 1.44209 14.218 1.37043 13.341C1.29998 12.4787 1.29998 11.4049 1.29999 10.0314V9.96853C1.29998 8.59503 1.29998 7.5213 1.37043 6.659C1.44209 5.78195 1.59011 5.06215 1.92125 4.41224C2.46773 3.33972 3.33972 2.46773 4.41224 1.92125C5.06215 1.59011 5.78195 1.44209 6.659 1.37043C7.5213 1.29998 8.59503 1.29998 9.96853 1.29999ZM6.773 2.76578C5.98253 2.83037 5.46748 2.95484 5.04783 3.16866C4.23873 3.58092 3.58092 4.23873 3.16866 5.04783C2.95484 5.46748 2.83037 5.98253 2.76578 6.773C2.70053 7.57164 2.69999 8.58831 2.69999 9.99999C2.69999 11.4117 2.70053 12.4283 2.76578 13.227C2.83037 14.0174 2.95484 14.5325 3.16866 14.9521C3.58092 15.7612 4.23873 16.4191 5.04783 16.8313C5.46748 17.0451 5.98253 17.1696 6.773 17.2342C7.57164 17.2994 8.58831 17.3 9.99999 17.3H14C15.4117 17.3 16.4283 17.2994 17.227 17.2342C18.0174 17.1696 18.5325 17.0451 18.9521 16.8313C19.7612 16.4191 20.4191 15.7612 20.8313 14.9521C21.0451 14.5325 21.1696 14.0174 21.2342 13.227C21.2994 12.4283 21.3 11.4117 21.3 9.99999C21.3 8.58831 21.2994 7.57164 21.2342 6.773C21.1696 5.98253 21.0451 5.46748 20.8313 5.04783C20.4191 4.23873 19.7612 3.58092 18.9521 3.16866C18.5325 2.95484 18.0174 2.83037 17.227 2.76578C16.4283 2.70053 15.4117 2.69999 14 2.69999H9.99999C8.58831 2.69999 7.57164 2.70053 6.773 2.76578Z" fill="#222628"/>
<path fill-rule="evenodd" clip-rule="evenodd" d="M12 17.3C12.3866 17.3 12.7 17.6134 12.7 18V20.0149L16.2458 21.3446C16.5627 21.4634 16.7491 21.7919 16.6888 22.1249C16.6284 22.4579 16.3384 22.7 16 22.7H7.99999C7.66157 22.7 7.37161 22.4579 7.31123 22.1249C7.25084 21.7919 7.43733 21.4634 7.75421 21.3446L11.3 20.0149V18C11.3 17.6134 11.6134 17.3 12 17.3Z" fill="#222628"/>
</svg>
