<svg width="24" height="24" viewBox="0 0 24 24" fill="none" xmlns="http://www.w3.org/2000/svg">
<path opacity="0.4" d="M4 10C4 9.07126 4 8.60689 4.04401 8.21625C4.40968 4.97091 6.97091 2.40968 10.2162 2.04401C10.6069 2 11.0713 2 12 2C12.9287 2 13.3931 2 13.7838 2.04401C17.0291 2.40968 19.5903 4.97091 19.956 8.21625C20 8.60689 20 9.07126 20 10V14C20 14.9287 20 15.3931 19.956 15.7838C19.5903 19.0291 17.0291 21.5903 13.7838 21.956C13.3931 22 12.9287 22 12 22C11.0713 22 10.6069 22 10.2162 21.956C6.97091 21.5903 4.40968 19.0291 4.04401 15.7838C4 15.3931 4 14.9287 4 14V10Z" fill="#C4C4C4"/>
<path fill-rule="evenodd" clip-rule="evenodd" d="M11.9415 1.29999H12.0585C12.9319 1.29997 13.4321 1.29995 13.8621 1.34841C17.432 1.75063 20.2494 4.56799 20.6516 8.13786C20.7 8.56791 20.7 9.06816 20.7 9.94155V14.0584C20.7 14.9318 20.7 15.4321 20.6516 15.8621C20.2494 19.432 17.432 22.2493 13.8621 22.6516C13.4321 22.7 12.9318 22.7 12.0584 22.7H11.9416C11.0682 22.7 10.5679 22.7 10.1379 22.6516C6.56801 22.2493 3.75065 19.432 3.34842 15.8621C3.29997 15.4321 3.29998 14.9318 3.3 14.0585V9.94148C3.29998 9.06813 3.29997 8.5679 3.34842 8.13786C3.75065 4.56799 6.56801 1.75063 10.1379 1.34841C10.5679 1.29995 11.0681 1.29997 11.9415 1.29999ZM12 2.69999C11.0522 2.69999 10.6364 2.7011 10.2946 2.7396C7.37382 3.0687 5.06871 5.37381 4.73962 8.29461C4.70111 8.63634 4.70001 9.0522 4.70001 9.99999V14C4.70001 14.9478 4.70111 15.3636 4.73962 15.7054C5.06871 18.6262 7.37382 20.9313 10.2946 21.2604C10.6364 21.2989 11.0522 21.3 12 21.3C12.9478 21.3 13.3637 21.2989 13.7054 21.2604C16.6262 20.9313 18.9313 18.6262 19.2604 15.7054C19.2989 15.3636 19.3 14.9478 19.3 14V9.99999C19.3 9.0522 19.2989 8.63634 19.2604 8.29461C18.9313 5.37381 16.6262 3.0687 13.7054 2.7396C13.3637 2.7011 12.9478 2.69999 12 2.69999Z" fill="#222628"/>
<path fill-rule="evenodd" clip-rule="evenodd" d="M12 5.29999C12.3866 5.29999 12.7 5.61339 12.7 5.99999V8.99999C12.7 9.38659 12.3866 9.69999 12 9.69999C11.6134 9.69999 11.3 9.38659 11.3 8.99999V5.99999C11.3 5.61339 11.6134 5.29999 12 5.29999Z" fill="#222628"/>
</svg>
