<svg width="24" height="24" viewBox="0 0 24 24" fill="none" xmlns="http://www.w3.org/2000/svg">
<path opacity="0.4" d="M16.12 9.83996C17.2845 10.7133 17.8667 11.15 17.9743 11.7234C18.0086 11.9062 18.0086 12.0938 17.9743 12.2766C17.8667 12.8499 17.2845 13.2866 16.12 14.16L15.32 14.76C13.6606 16.0045 12.8309 16.6268 12.1402 16.4562C11.9244 16.4028 11.7231 16.3022 11.5509 16.1615C11 15.7114 11 14.6742 11 12.6L11 11.4C11 9.32568 11 8.28854 11.5509 7.83841C11.7231 7.69773 11.9244 7.59708 12.1402 7.54375C12.8309 7.37311 13.6606 7.9954 15.32 9.23996L16.12 9.83996Z" fill="#C4C4C4"/>
<path opacity="0.4" d="M10.12 9.83996C11.2845 10.7133 11.8667 11.15 11.9743 11.7234C12.0086 11.9062 12.0086 12.0938 11.9743 12.2766C11.8667 12.8499 11.2845 13.2866 10.12 14.16L9.32 14.76C7.66058 16.0045 6.83087 16.6268 6.14022 16.4562C5.92437 16.4028 5.72307 16.3022 5.5509 16.1615C5 15.7114 5 14.6742 5 12.6L5 11.4C5 9.32568 5 8.28854 5.5509 7.83841C5.72307 7.69773 5.92437 7.59708 6.14021 7.54375C6.83086 7.37311 7.66058 7.9954 9.32 9.23996L10.12 9.83996Z" fill="#C4C4C4"/>
<path fill-rule="evenodd" clip-rule="evenodd" d="M14.48 13.64L15.28 13.04C15.8904 12.5822 16.2473 12.3116 16.478 12.0919C16.517 12.0548 16.5467 12.0243 16.569 12C16.5467 11.9757 16.517 11.9451 16.478 11.908C16.2473 11.6884 15.8904 11.4178 15.28 10.96L14.48 10.36C13.6202 9.7151 13.0772 9.31087 12.666 9.07312C12.5947 9.0319 12.5362 9.00109 12.4891 8.97813C12.4792 9.02958 12.4687 9.0949 12.4589 9.17665C12.4024 9.64823 12.4 10.3252 12.4 11.4L12.4 12.6C12.4 13.6747 12.4024 14.3517 12.4589 14.8233C12.4687 14.905 12.4792 14.9703 12.4891 15.0218C12.5362 14.9988 12.5947 14.968 12.666 14.9268C13.0772 14.6891 13.6202 14.2848 14.48 13.64ZM17.9743 11.7234C17.8667 11.15 17.2845 10.7133 16.12 9.83996L15.32 9.23996C13.6606 7.9954 12.8309 7.37311 12.1402 7.54375C11.9244 7.59708 11.7231 7.69773 11.5509 7.83841C11 8.28854 11 9.32568 11 11.4L11 12.6C11 14.6742 11 15.7114 11.5509 16.1615C11.7231 16.3022 11.9244 16.4028 12.1402 16.4562C12.8309 16.6268 13.6606 16.0045 15.32 14.76L16.12 14.16C17.2845 13.2866 17.8667 12.8499 17.9743 12.2766C18.0086 12.0938 18.0086 11.9062 17.9743 11.7234Z" fill="#222628"/>
<path fill-rule="evenodd" clip-rule="evenodd" d="M8.48 13.64L9.28 13.04C9.89039 12.5822 10.2473 12.3116 10.478 12.0919C10.517 12.0548 10.5467 12.0243 10.569 12C10.5467 11.9757 10.517 11.9451 10.478 11.908C10.2473 11.6884 9.89039 11.4178 9.28 10.96L8.48 10.36C7.62018 9.7151 7.07716 9.31087 6.666 9.07312C6.59472 9.0319 6.53618 9.00109 6.48908 8.97813C6.47919 9.02958 6.46872 9.0949 6.45892 9.17665C6.40243 9.64823 6.4 10.3252 6.4 11.4L6.4 12.6C6.4 13.6747 6.40243 14.3517 6.45892 14.8233C6.46872 14.905 6.47919 14.9703 6.48908 15.0218C6.53619 14.9988 6.59472 14.968 6.666 14.9268C7.07716 14.6891 7.62018 14.2848 8.48 13.64ZM11.9743 11.7234C11.8667 11.15 11.2845 10.7133 10.12 9.83996L9.32 9.23996C7.66058 7.9954 6.83086 7.37311 6.14021 7.54375C5.92437 7.59708 5.72307 7.69773 5.5509 7.83841C5 8.28854 5 9.32568 5 11.4L5 12.6C5 14.6742 5 15.7114 5.5509 16.1615C5.72307 16.3022 5.92437 16.4028 6.14022 16.4562C6.83087 16.6268 7.66058 16.0045 9.32 14.76L10.12 14.16C11.2845 13.2866 11.8667 12.8499 11.9743 12.2766C12.0086 12.0938 12.0086 11.9062 11.9743 11.7234Z" fill="#222628"/>
</svg>
