<svg width="24" height="24" viewBox="0 0 24 24" fill="none" xmlns="http://www.w3.org/2000/svg">
<path opacity="0.4" d="M13.12 9.83996C14.2845 10.7133 14.8667 11.15 14.9743 11.7234C15.0086 11.9062 15.0086 12.0938 14.9743 12.2766C14.8667 12.8499 14.2845 13.2866 13.12 14.16L12.32 14.76C10.6606 16.0045 9.83087 16.6268 9.14022 16.4562C8.92437 16.4028 8.72307 16.3022 8.5509 16.1615C8 15.7114 8 14.6742 8 12.6L8 11.4C8 9.32568 8 8.28854 8.5509 7.83841C8.72307 7.69772 8.92437 7.59708 9.14022 7.54375C9.83087 7.37311 10.6606 7.99539 12.32 9.23996L13.12 9.83996Z" fill="#C4C4C4"/>
<path fill-rule="evenodd" clip-rule="evenodd" d="M11.48 13.64L12.28 13.04C12.8904 12.5822 13.2473 12.3116 13.478 12.0919C13.517 12.0548 13.5467 12.0243 13.569 12C13.5467 11.9757 13.517 11.9451 13.478 11.908C13.2473 11.6884 12.8904 11.4178 12.28 10.96L11.48 10.36C10.6202 9.7151 10.0772 9.31087 9.666 9.07312C9.59472 9.0319 9.53618 9.00109 9.48908 8.97813C9.47919 9.02958 9.46872 9.0949 9.45892 9.17665C9.40243 9.64823 9.4 10.3252 9.4 11.4L9.4 12.6C9.4 13.6747 9.40243 14.3517 9.45892 14.8233C9.46872 14.905 9.47919 14.9703 9.48908 15.0218C9.53619 14.9988 9.59472 14.968 9.666 14.9268C10.0772 14.6891 10.6202 14.2848 11.48 13.64ZM14.9743 11.7234C14.8667 11.15 14.2845 10.7133 13.12 9.83996L12.32 9.23996C10.6606 7.99539 9.83087 7.37311 9.14022 7.54375C8.92437 7.59708 8.72307 7.69772 8.5509 7.83841C8 8.28854 8 9.32568 8 11.4L8 12.6C8 14.6742 8 15.7114 8.5509 16.1615C8.72307 16.3022 8.92437 16.4028 9.14022 16.4562C9.83087 16.6268 10.6606 16.0045 12.32 14.76L13.12 14.16C14.2845 13.2866 14.8667 12.8499 14.9743 12.2766C15.0086 12.0938 15.0086 11.9062 14.9743 11.7234Z" fill="#222628"/>
<path fill-rule="evenodd" clip-rule="evenodd" d="M15 6.29999C15.3866 6.29999 15.7 6.61339 15.7 6.99999V17C15.7 17.3866 15.3866 17.7 15 17.7C14.6134 17.7 14.3 17.3866 14.3 17V6.99999C14.3 6.61339 14.6134 6.29999 15 6.29999Z" fill="#222628"/>
</svg>
