<svg width="24" height="24" viewBox="0 0 24 24" fill="none" xmlns="http://www.w3.org/2000/svg">
<path d="M10.5917 14C6.35607 8.6917 10.0001 3.5 10.0001 3.5C10.0001 3.5 6.18528 3.99999 4.06888 7.9785C0.551264 14.5911 5.00005 22 14.1218 20.9086C18.8837 20.3119 21.0001 16.4328 21.0001 16.4328C21.0001 16.4328 13.7834 18 10.5917 14Z" fill="#C4C4C4" fill-opacity="0.4"/>
<path d="M15.0101 6.3967C15.1191 5.86354 15.8809 5.86353 15.9899 6.3967L16.1975 7.41269C16.2376 7.60895 16.391 7.76233 16.5873 7.80244L17.6033 8.0101C18.1364 8.11907 18.1364 8.88087 17.6033 8.98984L16.5873 9.1975C16.391 9.23762 16.2376 9.39099 16.1975 9.58725L15.9899 10.6032C15.8809 11.1364 15.1191 11.1364 15.0101 10.6032L14.8025 9.58725C14.7624 9.39099 14.609 9.23762 14.4127 9.1975L13.3967 8.98984C12.8636 8.88087 12.8636 8.11907 13.3967 8.0101L14.4127 7.80244C14.609 7.76233 14.7624 7.60895 14.8025 7.41269L15.0101 6.3967Z" fill="#222628"/>
<path d="M18 4.96058C17.6381 4.70518 17.8981 4.13815 18.3278 4.24574L18.6829 4.33467C18.8382 4.37354 19.0017 4.31613 19.0985 4.18873L19.4008 3.79121C19.6593 3.45115 20.1994 3.6988 20.1104 4.11662L20.0064 4.60503C19.9731 4.76156 20.0362 4.92289 20.167 5.01516L20.4661 5.22625C20.828 5.48165 20.568 6.04868 20.1383 5.94108L19.7832 5.85216C19.6279 5.81329 19.4645 5.8707 19.3676 5.9981L19.0654 6.39562C18.8068 6.73568 18.2667 6.48803 18.3557 6.07021L18.4597 5.5818C18.4931 5.42527 18.4299 5.26394 18.2991 5.17167L18 4.96058Z" fill="#222628"/>
<path fill-rule="evenodd" clip-rule="evenodd" d="M10.5734 3.90155C10.5735 3.9014 10.5736 3.90126 10.5737 3.90112C10.5738 3.90103 10.5739 3.90094 10.5739 3.90085C10.7326 3.67376 10.7424 3.37441 10.5988 3.13738C10.455 2.89989 10.1844 2.76986 9.90909 2.80594L10.0001 3.50001C9.90909 2.80594 9.90875 2.80599 9.9084 2.80603L9.90762 2.80614L9.90579 2.80638L9.90109 2.80703L9.88753 2.80896C9.87666 2.81056 9.86216 2.81277 9.84421 2.81569C9.8083 2.82154 9.75851 2.83024 9.69623 2.84256C9.57172 2.86717 9.39687 2.90631 9.18276 2.96606C8.7551 3.08541 8.16726 3.28803 7.50968 3.62394C6.19157 4.29727 4.58972 5.50892 3.45088 7.64976C1.5805 11.1658 1.80328 14.9587 3.78562 17.7389C5.77285 20.5261 9.43768 22.1741 14.2049 21.6037L14.2088 21.6032C16.7714 21.2821 18.6213 20.0761 19.823 18.9598C20.4236 18.4019 20.866 17.8634 21.16 17.4615C21.3072 17.2603 21.4178 17.0924 21.493 16.9723C21.5307 16.9122 21.5595 16.8639 21.5797 16.8293C21.5898 16.812 21.5978 16.7981 21.6036 16.7879L21.6106 16.7752L21.613 16.7709L21.6139 16.7693L21.6142 16.7687C21.6144 16.7684 21.6145 16.7681 21.0001 16.4328L21.6145 16.7681C21.7458 16.5276 21.7246 16.2327 21.5604 16.0133C21.3963 15.7941 21.1195 15.6907 20.8518 15.7487L20.8515 15.7488L20.8496 15.7492L20.8375 15.7517C20.8261 15.7541 20.8081 15.7577 20.7837 15.7625C20.735 15.772 20.6612 15.7859 20.565 15.8025C20.3724 15.8357 20.0908 15.8793 19.7418 15.9199C19.042 16.0012 18.0802 16.069 17.0271 16.0173C14.8866 15.9121 12.5433 15.3236 11.1388 13.5634C9.1721 11.0986 9.0446 8.69252 9.39464 6.89305C9.5713 5.98484 9.87126 5.22791 10.1271 4.69886C10.2546 4.43505 10.3702 4.23 10.452 4.09352C10.4929 4.02534 10.5253 3.97446 10.5464 3.94211C10.557 3.92594 10.5647 3.91443 10.5692 3.90771L10.5736 3.90127L10.5734 3.90155ZM19.4387 17.3586C18.746 17.4217 17.8875 17.4612 16.9584 17.4156C14.6926 17.3043 11.8317 16.6764 10.0445 14.4366C7.77565 11.5931 7.60734 8.74919 8.02039 6.62574C8.16902 5.86169 8.39207 5.19262 8.616 4.64982C8.46609 4.71446 8.30895 4.78774 8.14656 4.87069C7.02818 5.44199 5.66445 6.46958 4.68688 8.30726C3.03965 11.4038 3.28245 14.6217 4.92554 16.9262C6.56349 19.2235 9.68328 20.7342 14.0368 20.2138C16.235 19.9378 17.8237 18.9062 18.8702 17.9341C19.0824 17.737 19.2718 17.5428 19.4387 17.3586Z" fill="#222628"/>
</svg>
