<svg width="24" height="24" viewBox="0 0 24 24" fill="none" xmlns="http://www.w3.org/2000/svg">
<path d="M8.3484 3.55503L5.73074 5.62748L5.73074 5.62748C4.5407 6.56967 3.94568 7.04076 3.57055 7.66561C3.44678 7.87177 3.34186 8.08868 3.25705 8.31369C3 8.99566 3 9.75459 3 11.2725V14.8C3 17.7998 3 19.2997 3.76393 20.3511C4.01065 20.6907 4.30928 20.9893 4.64886 21.2361C5.70032 22 7.20021 22 10.2 22H13.8C16.7998 22 18.2997 22 19.3511 21.2361C19.6907 20.9893 19.9894 20.6907 20.2361 20.3511C21 19.2997 21 17.7998 21 14.8V9.2C21 6.20021 21 4.70032 20.2361 3.64886C19.9894 3.30928 19.6907 3.01065 19.3511 2.76393C18.2997 2 16.7998 2 13.8 2H12.8177C11.7161 2 11.1653 2 10.6455 2.14265C10.4733 2.18994 10.3044 2.24871 10.1399 2.31857C9.64389 2.52935 9.21206 2.87124 8.3484 3.55502L8.3484 3.55503Z" fill="#C4C4C4" fill-opacity="0.4"/>
<path fill-rule="evenodd" clip-rule="evenodd" d="M3 8.30001L4.23529 8.30001C5.65433 8.30001 6.66591 8.29917 7.4506 8.21934C8.2236 8.14071 8.69842 7.99126 9.06868 7.74386C9.429 7.5031 9.73838 7.19372 9.97914 6.83339C10.2265 6.46313 10.376 5.98832 10.4546 5.21532C10.5344 4.43063 10.5353 3.41904 10.5353 2.00001L11.9353 2.00001L11.9353 2.03907C11.9353 3.41044 11.9353 4.4932 11.8474 5.35701C11.7575 6.2407 11.5699 6.97256 11.1432 7.61119C10.8003 8.12439 10.3597 8.56501 9.84647 8.90792C9.20784 9.33464 8.47598 9.52226 7.59229 9.61215C6.72848 9.70003 5.64571 9.70002 4.27433 9.70001L3 9.70001L3 8.30001Z" fill="#222628"/>
<path fill-rule="evenodd" clip-rule="evenodd" d="M12.7181 1.3C12.7509 1.3 12.7841 1.30001 12.8177 1.30001L13.8418 1.30001C15.3063 1.3 16.4625 1.29999 17.3816 1.39957C18.3225 1.50152 19.0976 1.71452 19.7626 2.19763C20.1616 2.48752 20.5125 2.83841 20.8024 3.23742C21.2855 3.90237 21.4985 4.67748 21.6004 5.61842C21.7 6.53753 21.7 7.69374 21.7 9.15823V14.8418C21.7 16.3063 21.7 17.4625 21.6004 18.3816C21.4985 19.3225 21.2855 20.0977 20.8024 20.7626C20.5125 21.1616 20.1616 21.5125 19.7626 21.8024C19.0976 22.2855 18.3225 22.4985 17.3816 22.6004C16.4625 22.7 15.3062 22.7 13.8417 22.7H10.1583C8.69377 22.7 7.53754 22.7 6.61841 22.6004C5.67747 22.4985 4.90236 22.2855 4.23741 21.8024C3.8384 21.5125 3.48751 21.1616 3.19762 20.7626C2.71451 20.0977 2.50151 19.3225 2.39956 18.3816C2.29998 17.4625 2.29999 16.3063 2.3 14.8418L2.3 11.2725C2.3 11.2256 2.29999 11.1793 2.29998 11.1336C2.29966 9.74946 2.29945 8.86959 2.60203 8.06681C2.70168 7.80242 2.82497 7.54756 2.9704 7.30532C3.41197 6.56979 4.10194 6.02378 5.18732 5.16487C5.22319 5.13649 5.25949 5.10776 5.29623 5.07868L7.91389 3.00622C7.9402 2.98538 7.9662 2.96479 7.99189 2.94444C8.7808 2.31963 9.2823 1.92243 9.86618 1.67433C10.0594 1.59224 10.2578 1.52318 10.4603 1.46763C11.072 1.29971 11.7118 1.29982 12.7181 1.3ZM12.8177 2.70001C11.6787 2.70001 11.2386 2.70578 10.8308 2.8177C10.6887 2.85671 10.5493 2.90519 10.4137 2.96283C10.0245 3.12821 9.6759 3.39685 8.78291 4.10385L6.16525 6.17631C4.93358 7.15145 4.46479 7.53606 4.1707 8.02592C4.06859 8.196 3.98203 8.37495 3.91206 8.56058C3.71055 9.09522 3.7 9.70151 3.7 11.2725V14.8C3.7 16.3155 3.70096 17.3959 3.79142 18.2308C3.88046 19.0526 4.04942 19.5532 4.33024 19.9397C4.53379 20.2199 4.78016 20.4662 5.06031 20.6698C5.44682 20.9506 5.94739 21.1196 6.76921 21.2086C7.60413 21.299 8.68451 21.3 10.2 21.3H13.8C15.3155 21.3 16.3959 21.299 17.2308 21.2086C18.0526 21.1196 18.5532 20.9506 18.9397 20.6698C19.2198 20.4662 19.4662 20.2199 19.6698 19.9397C19.9506 19.5532 20.1195 19.0526 20.2086 18.2308C20.299 17.3959 20.3 16.3155 20.3 14.8V9.20001C20.3 7.68452 20.299 6.60414 20.2086 5.76922C20.1195 4.9474 19.9506 4.44683 19.6698 4.06032C19.4662 3.78017 19.2198 3.5338 18.9397 3.33025C18.5532 3.04943 18.0526 2.88047 17.2308 2.79143C16.3959 2.70097 15.3155 2.70001 13.8 2.70001H12.8177Z" fill="#222628"/>
<path fill-rule="evenodd" clip-rule="evenodd" d="M9 16.3C9 15.9134 9.3134 15.6 9.7 15.6H14.3C14.6866 15.6 15 15.9134 15 16.3C15 16.6866 14.6866 17 14.3 17H9.7C9.3134 17 9 16.6866 9 16.3Z" fill="#222628"/>
</svg>
