<svg width="24" height="24" viewBox="0 0 24 24" fill="none" xmlns="http://www.w3.org/2000/svg">
<path d="M8.3484 3.55503L5.73074 5.62748L5.73074 5.62748C4.5407 6.56967 3.94568 7.04076 3.57055 7.66561C3.44678 7.87177 3.34186 8.08868 3.25705 8.31369C3 8.99566 3 9.75459 3 11.2725V14.8C3 17.7998 3 19.2997 3.76393 20.3511C4.01065 20.6907 4.30928 20.9893 4.64886 21.2361C5.70032 22 7.20021 22 10.2 22H13.8C16.7998 22 18.2997 22 19.3511 21.2361C19.6907 20.9893 19.9894 20.6907 20.2361 20.3511C21 19.2997 21 17.7998 21 14.8V9.2C21 6.20021 21 4.70032 20.2361 3.64886C19.9894 3.30928 19.6907 3.01065 19.3511 2.76393C18.2997 2 16.7998 2 13.8 2H12.8177C11.7161 2 11.1653 2 10.6455 2.14265C10.4733 2.18994 10.3044 2.24871 10.1399 2.31857C9.64389 2.52935 9.21206 2.87124 8.3484 3.55502L8.3484 3.55503Z" fill="#C4C4C4" fill-opacity="0.4"/>
<path fill-rule="evenodd" clip-rule="evenodd" d="M3 8.30001L4.23529 8.30001C5.65433 8.30001 6.66591 8.29917 7.4506 8.21934C8.2236 8.14071 8.69842 7.99126 9.06868 7.74386C9.429 7.5031 9.73838 7.19372 9.97914 6.83339C10.2265 6.46313 10.376 5.98832 10.4546 5.21532C10.5344 4.43063 10.5353 3.41904 10.5353 2.00001L11.9353 2.00001L11.9353 2.03907C11.9353 3.41044 11.9353 4.4932 11.8474 5.35701C11.7575 6.2407 11.5699 6.97256 11.1432 7.61119C10.8003 8.12439 10.3597 8.56501 9.84647 8.90792C9.20784 9.33464 8.47598 9.52226 7.59229 9.61215C6.72848 9.70003 5.64571 9.70002 4.27433 9.70001L3 9.70001L3 8.30001Z" fill="#222628"/>
<path fill-rule="evenodd" clip-rule="evenodd" d="M12.7182 1.3C12.751 1.3 12.7841 1.30001 12.8177 1.30001L13.8418 1.30001C15.3063 1.3 16.4625 1.29999 17.3816 1.39957C18.3226 1.50152 19.0977 1.71452 19.7626 2.19763C20.1616 2.48752 20.5125 2.83841 20.8024 3.23742C21.2855 3.90237 21.4985 4.67748 21.6005 5.61842C21.7 6.53753 21.7 7.69374 21.7 9.15823V14.8418C21.7 16.3063 21.7 17.4625 21.6005 18.3816C21.4985 19.3225 21.2855 20.0977 20.8024 20.7626C20.5125 21.1616 20.1616 21.5125 19.7626 21.8024C19.0977 22.2855 18.3226 22.4985 17.3816 22.6004C16.4625 22.7 15.3063 22.7 13.8417 22.7H10.1583C8.6938 22.7 7.53757 22.7 6.61844 22.6004C5.6775 22.4985 4.90239 22.2855 4.23744 21.8024C3.83843 21.5125 3.48754 21.1616 3.19765 20.7626C2.71454 20.0977 2.50154 19.3225 2.39959 18.3816C2.30001 17.4625 2.30002 16.3063 2.30003 14.8418L2.30003 11.2725C2.30003 11.2256 2.30002 11.1793 2.30001 11.1336C2.29969 9.74946 2.29948 8.86959 2.60206 8.06681C2.70171 7.80242 2.825 7.54756 2.97043 7.30532C3.412 6.56979 4.10197 6.02378 5.18736 5.16487C5.22322 5.13649 5.25952 5.10776 5.29626 5.07868L7.91392 3.00622C7.94023 2.98538 7.96623 2.96479 7.99192 2.94444C8.78083 2.31963 9.28233 1.92243 9.86621 1.67433C10.0594 1.59224 10.2579 1.52318 10.4603 1.46763C11.0721 1.29971 11.7118 1.29982 12.7182 1.3ZM12.8177 2.70001C11.6787 2.70001 11.2386 2.70578 10.8308 2.8177C10.6887 2.85671 10.5494 2.90519 10.4137 2.96283C10.0245 3.12821 9.67594 3.39685 8.78294 4.10385L6.16528 6.17631C4.93361 7.15145 4.46482 7.53606 4.17073 8.02592C4.06863 8.196 3.98206 8.37495 3.91209 8.56058C3.71058 9.09522 3.70003 9.70151 3.70003 11.2725V14.8C3.70003 16.3155 3.70099 17.3959 3.79145 18.2308C3.88049 19.0526 4.04945 19.5532 4.33027 19.9397C4.53382 20.2199 4.78019 20.4662 5.06034 20.6698C5.44685 20.9506 5.94742 21.1196 6.76924 21.2086C7.60416 21.299 8.68454 21.3 10.2 21.3H13.8C15.3155 21.3 16.3959 21.299 17.2308 21.2086C18.0526 21.1196 18.5532 20.9506 18.9397 20.6698C19.2199 20.4662 19.4662 20.2199 19.6698 19.9397C19.9506 19.5532 20.1196 19.0526 20.2086 18.2308C20.2991 17.3959 20.3 16.3155 20.3 14.8V9.20001C20.3 7.68452 20.2991 6.60414 20.2086 5.76922C20.1196 4.9474 19.9506 4.44683 19.6698 4.06032C19.4662 3.78017 19.2199 3.5338 18.9397 3.33025C18.5532 3.04943 18.0526 2.88047 17.2308 2.79143C16.3959 2.70097 15.3155 2.70001 13.8 2.70001H12.8177Z" fill="#222628"/>
<path fill-rule="evenodd" clip-rule="evenodd" d="M12 19C11.6134 19 11.3 18.6866 11.3 18.3L11.3 12.7C11.3 12.3134 11.6134 12 12 12C12.3866 12 12.7 12.3134 12.7 12.7L12.7 18.3C12.7 18.6866 12.3866 19 12 19Z" fill="#222628"/>
<path fill-rule="evenodd" clip-rule="evenodd" d="M12.4242 11.4243C12.6586 11.6586 12.6586 12.0385 12.4242 12.2728L10.2728 14.4243C10.0385 14.6586 9.65856 14.6586 9.42425 14.4243C9.18993 14.19 9.18993 13.8101 9.42425 13.5757L11.5757 11.4243C11.81 11.19 12.1899 11.19 12.4242 11.4243Z" fill="#222628"/>
<path fill-rule="evenodd" clip-rule="evenodd" d="M11.5758 11.4243C11.3414 11.6586 11.3414 12.0385 11.5758 12.2728L13.7272 14.4243C13.9615 14.6586 14.3414 14.6586 14.5758 14.4243C14.8101 14.19 14.8101 13.8101 14.5758 13.5757L12.4243 11.4243C12.19 11.19 11.8101 11.19 11.5758 11.4243Z" fill="#222628"/>
</svg>
