<svg width="24" height="24" viewBox="0 0 24 24" fill="none" xmlns="http://www.w3.org/2000/svg">
<path d="M8.1237 3.61702L5.65354 5.62858C4.49643 6.57087 3.91787 7.04201 3.55368 7.66015C3.43348 7.86416 3.33164 8.07844 3.24934 8.30047C3 8.97319 3 9.71931 3 11.2116V14.8C3 17.7998 3 19.2997 3.76393 20.3511C4.01065 20.6907 4.30928 20.9893 4.64886 21.2361C5.70032 22 7.20021 22 10.2 22H13.3C16.2998 22 17.7997 22 18.8511 21.2361C19.1907 20.9893 19.4893 20.6907 19.7361 20.3511C20.5 19.2997 20.5 17.7998 20.5 14.8V9.2C20.5 6.20021 20.5 4.70032 19.7361 3.64886C19.4893 3.30928 19.1907 3.01065 18.8511 2.76393C17.7997 2 16.2998 2 13.3 2H12.6702C11.5446 2 10.9819 2 10.4521 2.14853C10.2766 2.19776 10.1046 2.25892 9.9374 2.33161C9.43283 2.55094 8.99646 2.9063 8.1237 3.61702Z" fill="#C4C4C4" fill-opacity="0.4"/>
<path fill-rule="evenodd" clip-rule="evenodd" d="M3 8.30001L4.23529 8.30001C5.65433 8.30001 6.66591 8.29917 7.4506 8.21934C8.2236 8.14071 8.69842 7.99126 9.06868 7.74386C9.429 7.5031 9.73838 7.19372 9.97914 6.83339C10.2265 6.46313 10.376 5.98832 10.4546 5.21532C10.5344 4.43063 10.5353 3.41904 10.5353 2.00001L11.9353 2.00001L11.9353 2.03907C11.9353 3.41044 11.9353 4.4932 11.8474 5.35701C11.7575 6.2407 11.5699 6.97256 11.1432 7.61119C10.8003 8.12439 10.3597 8.56501 9.84647 8.90792C9.20784 9.33464 8.47598 9.52226 7.59229 9.61215C6.72848 9.70003 5.64571 9.70002 4.27433 9.70001L3 9.70001L3 8.30001Z" fill="#222628"/>
<path fill-rule="evenodd" clip-rule="evenodd" d="M12.5684 1.3C12.6019 1.30001 12.6358 1.30001 12.6702 1.30001L13.3418 1.30001C14.8063 1.3 15.9625 1.29999 16.8816 1.39958C17.8225 1.50152 18.5976 1.71452 19.2626 2.19763C19.6616 2.48753 20.0125 2.83842 20.3024 3.23742C20.7855 3.90237 20.9985 4.67748 21.1004 5.61842C21.2 6.53753 21.2 7.69374 21.2 9.15823V14.8418C21.2 16.3063 21.2 17.4625 21.1004 18.3816C20.9985 19.3225 20.7855 20.0977 20.3024 20.7626C20.0125 21.1616 19.6616 21.5125 19.2626 21.8024C18.5976 22.2855 17.8225 22.4985 16.8816 22.6004C15.9625 22.7 14.8062 22.7 13.3417 22.7H10.1583C8.69377 22.7 7.53754 22.7 6.61841 22.6004C5.67747 22.4985 4.90236 22.2855 4.23741 21.8024C3.8384 21.5125 3.48751 21.1616 3.19762 20.7626C2.71451 20.0977 2.50151 19.3225 2.39956 18.3816C2.29998 17.4625 2.29999 16.3063 2.3 14.8418L2.3 11.2116C2.3 11.1655 2.29999 11.1201 2.29998 11.0751C2.29967 9.71422 2.29947 8.84908 2.59298 8.0572C2.68967 7.79632 2.80934 7.54454 2.95057 7.30482C3.37927 6.5772 4.05024 6.03106 5.10572 5.17194C5.14057 5.14357 5.17583 5.11487 5.21152 5.08581L7.68168 3.07424C7.7083 3.05257 7.73459 3.03115 7.76057 3.00998C8.55769 2.36062 9.06443 1.94782 9.65833 1.68965C9.8548 1.60425 10.0569 1.53237 10.2631 1.47454C10.8867 1.2997 11.5403 1.29982 12.5684 1.3ZM12.6702 2.70001C11.5063 2.70001 11.0567 2.70602 10.6411 2.82255C10.4963 2.86316 10.3544 2.91362 10.2165 2.97359C9.8206 3.14566 9.46816 3.42492 8.56572 4.15982L6.09555 6.17138C4.89805 7.14657 4.44231 7.53087 4.15679 8.01549C4.05762 8.1838 3.9736 8.36059 3.90571 8.54376C3.71022 9.07118 3.7 9.66723 3.7 11.2116V14.8C3.7 16.3155 3.70096 17.3959 3.79142 18.2308C3.88046 19.0526 4.04942 19.5532 4.33024 19.9397C4.53379 20.2199 4.78016 20.4662 5.06031 20.6698C5.44682 20.9506 5.94739 21.1196 6.76921 21.2086C7.60413 21.2991 8.68451 21.3 10.2 21.3H13.3C14.8155 21.3 15.8959 21.2991 16.7308 21.2086C17.5526 21.1196 18.0532 20.9506 18.4397 20.6698C18.7198 20.4662 18.9662 20.2199 19.1698 19.9397C19.4506 19.5532 19.6195 19.0526 19.7086 18.2308C19.799 17.3959 19.8 16.3155 19.8 14.8V9.20001C19.8 7.68453 19.799 6.60414 19.7086 5.76922C19.6195 4.9474 19.4506 4.44684 19.1698 4.06032C18.9662 3.78017 18.7198 3.5338 18.4397 3.33026C18.0532 3.04944 17.5526 2.88047 16.7308 2.79143C15.8959 2.70097 14.8155 2.70001 13.3 2.70001H12.6702Z" fill="#222628"/>
<path fill-rule="evenodd" clip-rule="evenodd" d="M17 17.7C17 18.0866 16.6866 18.4 16.3 18.4L7.7 18.4C7.3134 18.4 7 18.0866 7 17.7C7 17.3134 7.3134 17 7.7 17L16.3 17C16.6866 17 17 17.3134 17 17.7Z" fill="#222628"/>
<path fill-rule="evenodd" clip-rule="evenodd" d="M14 13.7C14 14.0866 13.6866 14.4 13.3 14.4L7.7 14.4C7.3134 14.4 7 14.0866 7 13.7C7 13.3134 7.3134 13 7.7 13L13.3 13C13.6866 13 14 13.3134 14 13.7Z" fill="#222628"/>
</svg>
