<svg width="24" height="24" viewBox="0 0 24 24" fill="none" xmlns="http://www.w3.org/2000/svg">
<path opacity="0.4" d="M13.8133 8.19277C16.234 9.68246 17.4444 10.4273 17.6718 11.4644C17.7492 11.8173 17.7492 12.1827 17.6718 12.5356C17.4444 13.5727 16.234 14.3175 13.8133 15.8072C11.1804 17.4274 9.86401 18.2375 8.79771 17.9254C8.43657 17.8197 8.10395 17.6338 7.82465 17.3817C6.99999 16.6371 6.99999 15.0914 6.99999 12C7 8.90858 7 7.36287 7.82465 6.61832C8.10395 6.36615 8.43657 6.18028 8.79771 6.07457C9.86401 5.76247 11.1804 6.57257 13.8133 8.19277Z" fill="#C4C4C4"/>
<path fill-rule="evenodd" clip-rule="evenodd" d="M8.49326 8.59457C8.40238 9.358 8.39999 10.4175 8.39999 12C8.39999 13.5825 8.40238 14.642 8.49326 15.4054C8.58484 16.1747 8.73656 16.3188 8.76284 16.3425C8.88573 16.4535 9.03209 16.5353 9.19099 16.5818C9.22497 16.5917 9.42723 16.6454 10.1304 16.3202C10.8282 15.9975 11.7318 15.4443 13.0795 14.6149C14.3209 13.851 15.1427 13.3424 15.6956 12.9044C16.2452 12.4689 16.295 12.2784 16.3043 12.2357C16.3384 12.0804 16.3384 11.9196 16.3043 11.7643C16.295 11.7216 16.2452 11.5311 15.6956 11.0956C15.1427 10.6575 14.3209 10.149 13.0795 9.3851C11.7318 8.5557 10.8282 8.00246 10.1304 7.67975C9.42723 7.35457 9.22497 7.40825 9.19099 7.4182C9.03209 7.46471 8.88573 7.54649 8.76284 7.65745C8.73656 7.68117 8.58484 7.82529 8.49326 8.59457ZM17.6718 11.4644C17.4444 10.4273 16.234 9.68246 13.8133 8.19277C11.1804 6.57257 9.86401 5.76247 8.79771 6.07457C8.43657 6.18028 8.10395 6.36615 7.82465 6.61832C7 7.36287 7 8.90858 6.99999 12C6.99999 15.0914 6.99999 16.6371 7.82465 17.3817C8.10395 17.6338 8.43657 17.8197 8.79771 17.9254C9.86401 18.2375 11.1804 17.4274 13.8133 15.8072C16.234 14.3175 17.4444 13.5727 17.6718 12.5356C17.7492 12.1827 17.7492 11.8173 17.6718 11.4644Z" fill="#222628"/>
</svg>
