<svg width="24" height="24" viewBox="0 0 24 24" fill="none" xmlns="http://www.w3.org/2000/svg">
<path fill-rule="evenodd" clip-rule="evenodd" d="M18.7 12C18.7 12.3866 18.3866 12.7 18 12.7L6 12.7C5.6134 12.7 5.3 12.3866 5.3 12C5.3 11.6134 5.6134 11.3 6 11.3L18 11.3C18.3866 11.3 18.7 11.6134 18.7 12Z" fill="#222628"/>
<path fill-rule="evenodd" clip-rule="evenodd" d="M12 5.29999C12.3866 5.29999 12.7 5.61339 12.7 5.99999V18C12.7 18.3866 12.3866 18.7 12 18.7C11.6134 18.7 11.3 18.3866 11.3 18V5.99999C11.3 5.61339 11.6134 5.29999 12 5.29999Z" fill="#222628"/>
</svg>
