<svg width="24" height="24" viewBox="0 0 24 24" fill="none" xmlns="http://www.w3.org/2000/svg">
<path d="M4.40335 17.3222C4.44 16.9879 4.45833 16.8208 4.48128 16.7015C4.75984 15.2543 5.93043 14.2799 7.40423 14.2686C7.52566 14.2677 7.71527 14.2816 8.09447 14.3095C9.27227 14.3959 10.599 14.4667 11.7854 14.4667C13.0237 14.4667 14.3969 14.3896 15.5907 14.298C15.9564 14.27 16.1392 14.256 16.2582 14.2563C17.6545 14.2601 18.7825 15.1264 19.1463 16.4745C19.1773 16.5893 19.2069 16.748 19.2661 17.0653C19.3314 17.4153 19.364 17.5902 19.3768 17.7324C19.524 19.3759 18.3162 20.8298 16.6735 20.9864C16.5314 21 16.3535 21 15.9975 21L11.7854 21H7.69989C7.376 21 7.21406 21 7.08164 20.9882C5.50998 20.8487 4.31504 19.5155 4.34764 17.938C4.35038 17.8051 4.36804 17.6441 4.40335 17.3222Z" fill="#C4C4C4" fill-opacity="0.4"/>
<path d="M8 7C8 4.79086 9.79086 3 12 3C14.2091 3 16 4.79086 16 7V7.57143C16 9.46498 14.465 11 12.5714 11H11.4286C9.53502 11 8 9.46498 8 7.57143V7Z" fill="#C4C4C4" fill-opacity="0.4"/>
<path fill-rule="evenodd" clip-rule="evenodd" d="M16.2562 14.9563C16.1729 14.956 16.0276 14.9666 15.6442 14.996C14.4421 15.0881 13.0491 15.1667 11.7854 15.1667C10.5747 15.1667 9.22892 15.0946 8.04323 15.0076C7.64565 14.9784 7.49467 14.968 7.40958 14.9686C6.26934 14.9773 5.38417 15.7141 5.16866 16.8338C5.15251 16.9177 5.13761 17.0479 5.09916 17.3985C5.06215 17.7359 5.04942 17.8585 5.04748 17.9525C5.02248 19.1619 5.9386 20.184 7.14354 20.291C7.23715 20.2993 7.36038 20.3 7.69988 20.3L15.9975 20.3C16.3707 20.3 16.5067 20.2992 16.607 20.2896C17.8664 20.1695 18.7924 19.0549 18.6795 17.7948C18.6705 17.6944 18.6464 17.5606 18.578 17.1937C18.5159 16.8608 18.4923 16.7377 18.4705 16.6569C18.1889 15.6136 17.3369 14.9592 16.2562 14.9563ZM15.5851 13.5964C15.9055 13.5718 16.1128 13.5559 16.26 13.5563C17.972 13.5609 19.376 14.6393 19.8221 16.2921C19.8605 16.4342 19.8947 16.6178 19.9468 16.897L19.9622 16.9797C20.0199 17.2886 20.0582 17.494 20.074 17.6699C20.2555 19.697 18.7659 21.4901 16.7399 21.6833C16.5641 21.7 16.3552 21.7 16.0409 21.7L7.69988 21.7C7.68665 21.7 7.67361 21.7 7.66076 21.7C7.37443 21.7 7.18359 21.7 7.01971 21.6855C5.08133 21.5134 3.60757 19.8691 3.64778 17.9235C3.65118 17.7591 3.672 17.5693 3.70324 17.2847C3.70464 17.2719 3.70607 17.259 3.70751 17.2458C3.70908 17.2315 3.71063 17.2174 3.71215 17.2035C3.74435 16.9096 3.76547 16.7169 3.79389 16.5692C4.13549 14.7944 5.5915 13.5825 7.39886 13.5686C7.54924 13.5675 7.76361 13.5832 8.0958 13.6077C8.11215 13.6089 8.12878 13.6101 8.1457 13.6113C9.31561 13.6972 10.6233 13.7667 11.7854 13.7667C12.9983 13.7667 14.3516 13.691 15.5371 13.6001L15.5851 13.5964Z" fill="#222628"/>
<path fill-rule="evenodd" clip-rule="evenodd" d="M7.29999 6.99999C7.29999 4.40425 9.40425 2.29999 12 2.29999C14.5957 2.29999 16.7 4.40425 16.7 6.99999V7.57142C16.7 9.85156 14.8516 11.7 12.5714 11.7H11.4286C9.14841 11.7 7.29999 9.85156 7.29999 7.57141V6.99999ZM12 3.69999C10.1774 3.69999 8.69999 5.17745 8.69999 6.99999V7.57141C8.69999 9.07836 9.92161 10.3 11.4286 10.3H12.5714C14.0784 10.3 15.3 9.07836 15.3 7.57142V6.99999C15.3 5.17745 13.8225 3.69999 12 3.69999Z" fill="#222628"/>
</svg>
