<svg width="24" height="24" viewBox="0 0 24 24" fill="none" xmlns="http://www.w3.org/2000/svg">
<path opacity="0.4" d="M21 16.6773V12.5H3V16.6773C3 18.1941 4.13089 19.4702 5.64065 19.6158C7.52589 19.7976 10.0608 20 12 20C13.9392 20 16.4741 19.7976 18.3593 19.6158C19.8691 19.4702 21 18.1941 21 16.6773Z" fill="#C4C4C4"/>
<path fill-rule="evenodd" clip-rule="evenodd" d="M12 3.29999C12.3866 3.29999 12.7 3.61339 12.7 3.99999V14C12.7 14.3866 12.3866 14.7 12 14.7C11.6134 14.7 11.3 14.3866 11.3 14V3.99999C11.3 3.61339 11.6134 3.29999 12 3.29999Z" fill="#222628"/>
<path fill-rule="evenodd" clip-rule="evenodd" d="M11.5758 15.2424C11.3414 15.0081 11.3414 14.6282 11.5758 14.3939L14.7272 11.2424C14.9615 11.0081 15.3414 11.0081 15.5758 11.2424C15.8101 11.4767 15.8101 11.8566 15.5758 12.0909L12.4243 15.2424C12.19 15.4767 11.8101 15.4767 11.5758 15.2424Z" fill="#222628"/>
<path fill-rule="evenodd" clip-rule="evenodd" d="M12.4243 15.2424C12.6586 15.0081 12.6586 14.6282 12.4243 14.3939L9.27281 11.2424C9.03849 11.0081 8.65859 11.0081 8.42428 11.2424C8.18996 11.4767 8.18996 11.8566 8.42428 12.0909L11.5757 15.2424C11.8101 15.4767 12.19 15.4767 12.4243 15.2424Z" fill="#222628"/>
<path fill-rule="evenodd" clip-rule="evenodd" d="M3.00002 11.8C3.38662 11.8 3.70002 12.1134 3.70002 12.5L3.70002 16.6773C3.70002 17.8428 4.56622 18.8089 5.70785 18.919C7.59038 19.1005 10.0968 19.3 12 19.3C13.9032 19.3 16.4097 19.1005 18.2922 18.919C19.4338 18.8089 20.3 17.8428 20.3 16.6773V12.5C20.3 12.1134 20.6134 11.8 21 11.8C21.3866 11.8 21.7 12.1134 21.7 12.5V16.6773C21.7 18.5453 20.3044 20.1315 18.4265 20.3126C16.5386 20.4946 13.9752 20.7 12 20.7C10.0248 20.7 7.46144 20.4946 5.57349 20.3126C3.69561 20.1315 2.30002 18.5453 2.30002 16.6773L2.30002 12.5C2.30002 12.1134 2.61342 11.8 3.00002 11.8Z" fill="#222628"/>
</svg>
