<svg width="24" height="24" viewBox="0 0 24 24" fill="none" xmlns="http://www.w3.org/2000/svg">
<path opacity="0.4" d="M17.7486 15.8664C18.0613 16.6262 18.2222 18.3 19 19H5C5.77778 18.3 5.93872 16.6262 6.25142 15.8664C6.56411 15.1065 7.02244 14.416 7.60022 13.8344C8.17801 13.2528 8.86394 12.7915 9.61886 12.4768C10.3738 12.162 11.1829 12 12 12C12.8171 12 13.6262 12.162 14.3811 12.4768C15.1361 12.7915 15.822 13.2528 16.3998 13.8344C16.9776 14.416 17.4359 15.1065 17.7486 15.8664Z" fill="#C4C4C4"/>
<path fill-rule="evenodd" clip-rule="evenodd" d="M9.34949 11.8307C10.1897 11.4803 11.0903 11.3 12 11.3C12.9097 11.3 13.8104 11.4803 14.6505 11.8307C15.4907 12.181 16.2538 12.6943 16.8964 13.3411C17.539 13.9879 18.0484 14.7555 18.3959 15.6C18.4949 15.8404 18.5741 16.1318 18.6443 16.4025C18.6621 16.4713 18.6796 16.5398 18.6971 16.6081C18.7526 16.8253 18.8076 17.0406 18.8715 17.2583C19.0478 17.8582 19.24 18.2742 19.4683 18.4797L20.8242 19.7H3.17584L4.53174 18.4797C4.76 18.2742 4.95227 17.8582 5.12851 17.2583C5.19246 17.0407 5.24746 16.8253 5.30296 16.6081C5.32041 16.5398 5.33791 16.4713 5.35575 16.4025C5.42591 16.1318 5.50516 15.8404 5.6041 15.6C5.9516 14.7555 6.46107 13.9879 7.10364 13.3411C7.74622 12.6943 8.50932 12.181 9.34949 11.8307ZM12 12.7C11.2755 12.7 10.5579 12.8436 9.88825 13.1228C9.21859 13.402 8.60983 13.8114 8.09683 14.3278C7.58383 14.8442 7.17665 15.4574 6.89876 16.1327C6.84135 16.2722 6.78322 16.475 6.71095 16.7538C6.69571 16.8126 6.6799 16.8745 6.66351 16.9387C6.60696 17.1601 6.54345 17.4089 6.47174 17.6529C6.41232 17.8552 6.34159 18.0765 6.25301 18.3H17.747C17.6584 18.0765 17.5877 17.8552 17.5283 17.6529C17.4566 17.4088 17.3931 17.1601 17.3365 16.9386C17.3201 16.8745 17.3043 16.8126 17.2891 16.7538C17.2168 16.475 17.1587 16.2722 17.1013 16.1327C16.8234 15.4574 16.4162 14.8442 15.9032 14.3278C15.3902 13.8114 14.7814 13.402 14.1118 13.1228C13.4421 12.8436 12.7246 12.7 12 12.7Z" fill="#222628"/>
<path fill-rule="evenodd" clip-rule="evenodd" d="M1.29999 19C1.29999 18.6134 1.61339 18.3 1.99999 18.3H22C22.3866 18.3 22.7 18.6134 22.7 19C22.7 19.3866 22.3866 19.7 22 19.7H1.99999C1.61339 19.7 1.29999 19.3866 1.29999 19Z" fill="#222628"/>
<path fill-rule="evenodd" clip-rule="evenodd" d="M12 8.29999C12.3866 8.29999 12.7 8.61339 12.7 8.99999V11.5C12.7 11.8866 12.3866 12.2 12 12.2C11.6134 12.2 11.3 11.8866 11.3 11.5V8.99999C11.3 8.61339 11.6134 8.29999 12 8.29999Z" fill="#222628"/>
<path fill-rule="evenodd" clip-rule="evenodd" d="M10.3 8.99999C10.3 8.61339 10.6134 8.29999 11 8.29999H13C13.3866 8.29999 13.7 8.61339 13.7 8.99999C13.7 9.38659 13.3866 9.69999 13 9.69999H11C10.6134 9.69999 10.3 9.38659 10.3 8.99999Z" fill="#222628"/>
<path fill-rule="evenodd" clip-rule="evenodd" d="M12.0711 5L12.036 5.00007C11.4838 5.00221 11.0343 4.55624 11.0322 4.00396C11.03 3.45168 11.476 3.00223 12.0283 3.00008L12.0711 3L12.1139 3.00008C12.6662 3.00223 13.1121 3.45168 13.11 4.00396C13.1078 4.55624 12.6584 5.00221 12.1061 5.00007L12.0711 5ZM5.73743 6.19711C6.12643 6.58915 6.12397 7.22231 5.73193 7.61131L5.70711 7.63604C5.31658 8.02656 4.68342 8.02656 4.29289 7.63604C3.90237 7.24551 3.90237 6.61235 4.29289 6.22182L4.32322 6.19161C4.71526 5.80261 5.34842 5.80507 5.73743 6.19711ZM18.4047 6.19711C18.7937 5.80507 19.4269 5.80261 19.8189 6.19161L19.8492 6.22183C20.2398 6.61235 20.2398 7.24551 19.8492 7.63604C19.4587 8.02656 18.8256 8.02656 18.435 7.63604L18.4102 7.61131C18.0182 7.22231 18.0157 6.58915 18.4047 6.19711Z" fill="#222628"/>
</svg>
