<svg width="24" height="24" viewBox="0 0 24 24" fill="none" xmlns="http://www.w3.org/2000/svg">
<path opacity="0.4" d="M22 12C22 6.47716 16.5 -0.999999 6 4L2 12C2 17.5229 6.47715 22 12 22C17.5228 22 22 17.5229 22 12Z" fill="#C4C4C4"/>
<path fill-rule="evenodd" clip-rule="evenodd" d="M6.66424 1.09188C6.66424 1.09188 6.66424 1.09188 6.66424 1.09188L6.64938 1.13179L6.60658 1.24752C6.56969 1.34766 6.51707 1.49136 6.45444 1.66489C6.32903 2.01238 6.16416 2.47754 6.00519 2.95122C5.84532 3.42756 5.69517 3.90144 5.59659 4.27009C5.58113 4.32789 5.56739 4.38148 5.55533 4.43076C5.60361 4.44634 5.65645 4.46275 5.71377 4.4799C6.07934 4.58933 6.56157 4.71003 7.05098 4.82376C7.53766 4.93686 8.02017 5.04046 8.3818 5.11594C8.5624 5.15363 8.71234 5.1842 8.81695 5.20532L8.93793 5.22958L8.9792 5.23776C9.35854 5.31234 9.60611 5.68041 9.53153 6.05975C9.45695 6.43909 9.08898 6.68614 8.70964 6.61156L8.66464 6.60264L8.54 6.57765C8.43282 6.55602 8.27982 6.52482 8.09577 6.48641C7.72812 6.40968 7.23456 6.30373 6.73409 6.18743C6.23634 6.07176 5.72034 5.94324 5.31232 5.82111C5.11044 5.76068 4.91808 5.69686 4.76222 5.63182C4.68551 5.5998 4.59957 5.5601 4.51968 5.51177C4.46781 5.48039 4.30255 5.38002 4.1963 5.18976C4.09004 4.9995 4.09126 4.80616 4.09175 4.74554C4.0925 4.65216 4.10377 4.55817 4.11675 4.47607C4.14312 4.30926 4.18967 4.112 4.24411 3.90843C4.35414 3.49697 4.51535 2.99023 4.67794 2.50578C4.84142 2.01867 5.01008 1.54288 5.13759 1.18961C5.20141 1.01276 5.2551 0.866134 5.2929 0.763541L5.33699 0.644309L5.35268 0.602169C5.3527 0.602118 5.353 0.601315 6.00862 0.846596L5.35268 0.602169C5.48815 0.24008 5.89182 0.0555113 6.2539 0.190976C6.61599 0.32644 6.79971 0.729788 6.66424 1.09188Z" fill="#222628"/>
<path fill-rule="evenodd" clip-rule="evenodd" d="M17.5285 4.622C15.0884 2.86546 11.3688 2.21872 6.30094 4.63197C5.9519 4.79818 5.5342 4.64996 5.36799 4.30092C5.20177 3.95187 5.34999 3.53417 5.69903 3.36796C11.1312 0.781209 15.4115 1.37304 18.3465 3.48579C21.2345 5.56476 22.7 9.03621 22.7 12C22.7 17.9094 17.9094 22.7 12 22.7C6.09054 22.7 1.29999 17.9094 1.29999 12C1.29999 11.6134 1.61339 11.3 1.99999 11.3C2.38659 11.3 2.69999 11.6134 2.69999 12C2.69999 17.1362 6.86374 21.3 12 21.3C17.1362 21.3 21.3 17.1362 21.3 12C21.3 9.44088 20.0155 6.41232 17.5285 4.622Z" fill="#222628"/>
</svg>
