<svg width="24" height="24" viewBox="0 0 24 24" fill="none" xmlns="http://www.w3.org/2000/svg">
<path opacity="0.4" d="M2 12C2 8.26154 2 6.3923 2.80385 5C3.33046 4.08788 4.08788 3.33046 5 2.80385C6.3923 2 8.26154 2 12 2C15.7385 2 17.6077 2 19 2.80385C19.9121 3.33046 20.6695 4.08788 21.1962 5C22 6.3923 22 8.26154 22 12C22 15.7385 22 17.6077 21.1962 19C20.6695 19.9121 19.9121 20.6695 19 21.1962C17.6077 22 15.7385 22 12 22C8.26154 22 6.3923 22 5 21.1962C4.08788 20.6695 3.33046 19.9121 2.80385 19C2 17.6077 2 15.7385 2 12Z" fill="#C4C4C4"/>
<path fill-rule="evenodd" clip-rule="evenodd" d="M22 15.3C22.3866 15.3 22.7 15.6134 22.7 16C22.7 19.7003 19.7003 22.7 16 22.7C15.6134 22.7 15.3 22.3866 15.3 22C15.3 21.6134 15.6134 21.3 16 21.3C18.9271 21.3 21.3 18.9271 21.3 16C21.3 15.6134 21.6134 15.3 22 15.3Z" fill="#222628"/>
<path fill-rule="evenodd" clip-rule="evenodd" d="M15.3 1.99998C15.3 1.61338 15.6134 1.29998 16 1.29998C19.7003 1.29998 22.7 4.29967 22.7 7.99998C22.7 8.38658 22.3866 8.69998 22 8.69998C21.6134 8.69998 21.3 8.38658 21.3 7.99998C21.3 5.07287 18.9271 2.69998 16 2.69998C15.6134 2.69998 15.3 2.38658 15.3 1.99998Z" fill="#222628"/>
<path fill-rule="evenodd" clip-rule="evenodd" d="M2.00001 8.69998C1.61341 8.69998 1.30001 8.38658 1.30001 7.99998C1.30001 4.29967 4.2997 1.29998 8.00001 1.29998C8.38661 1.29998 8.70001 1.61338 8.70001 1.99998C8.70001 2.38658 8.38661 2.69998 8.00001 2.69998C5.0729 2.69998 2.70001 5.07287 2.70001 7.99998C2.70001 8.38658 2.38661 8.69998 2.00001 8.69998Z" fill="#222628"/>
<path fill-rule="evenodd" clip-rule="evenodd" d="M8.70001 22C8.70001 22.3866 8.38661 22.7 8.00001 22.7C4.2997 22.7 1.30001 19.7003 1.30001 16C1.30001 15.6134 1.61341 15.3 2.00001 15.3C2.38661 15.3 2.70001 15.6134 2.70001 16C2.70001 18.9271 5.0729 21.3 8.00001 21.3C8.38661 21.3 8.70001 21.6134 8.70001 22Z" fill="#222628"/>
<path fill-rule="evenodd" clip-rule="evenodd" d="M3.29999 14C3.29999 14.3866 3.61339 14.7 3.99999 14.7L20 14.7C20.3866 14.7 20.7 14.3866 20.7 14C20.7 13.6134 20.3866 13.3 20 13.3L3.99999 13.3C3.61339 13.3 3.29999 13.6134 3.29999 14Z" fill="#222628"/>
</svg>
