<svg width="24" height="24" viewBox="0 0 24 24" fill="none" xmlns="http://www.w3.org/2000/svg">
<path d="M2 11.5C2 11.0357 2 10.8036 2.00857 10.6074C2.21212 5.94532 5.94532 2.21212 10.6074 2.00857C10.8036 2 11.0357 2 11.5 2C11.9643 2 12.1964 2 12.3926 2.00857C17.0547 2.21212 20.7879 5.94532 20.9914 10.6074C21 10.8036 21 11.0357 21 11.5C21 11.9643 21 12.1964 20.9914 12.3926C20.7879 17.0547 17.0547 20.7879 12.3926 20.9914C12.1964 21 11.9643 21 11.5 21C11.0357 21 10.8036 21 10.6074 20.9914C5.94532 20.7879 2.21212 17.0547 2.00857 12.3926C2 12.1964 2 11.9643 2 11.5Z" fill="#C4C4C4" fill-opacity="0.4"/>
<path fill-rule="evenodd" clip-rule="evenodd" d="M11.4763 1.29999H11.5236C11.9656 1.29999 12.2115 1.29998 12.4231 1.30922C17.4478 1.5286 21.4714 5.55217 21.6908 10.5769C21.7 10.7884 21.7 11.0344 21.7 11.4764V11.5236C21.7 11.9656 21.7 12.2115 21.6908 12.4231C21.4714 17.4478 17.4478 21.4714 12.4231 21.6908C12.2115 21.7 11.9656 21.7 11.5236 21.7H11.4764C11.0344 21.7 10.7884 21.7 10.5769 21.6908C5.55217 21.4714 1.5286 17.4478 1.30922 12.4231C1.29998 12.2115 1.29999 11.9656 1.29999 11.5236V11.4763C1.29999 11.0344 1.29998 10.7884 1.30922 10.5769C1.5286 5.55217 5.55217 1.5286 10.5769 1.30922C10.7884 1.29998 11.0344 1.29999 11.4763 1.29999ZM11.5 2.69999C11.0283 2.69999 10.815 2.70016 10.6379 2.70789C6.33845 2.89561 2.89561 6.33845 2.70789 10.6379C2.70016 10.815 2.69999 11.0283 2.69999 11.5C2.69999 11.9716 2.70016 12.1849 2.70789 12.362C2.89561 16.6615 6.33845 20.1044 10.6379 20.2921C10.815 20.2998 11.0283 20.3 11.5 20.3C11.9716 20.3 12.1849 20.2998 12.362 20.2921C16.6615 20.1044 20.1044 16.6615 20.2921 12.362C20.2998 12.1849 20.3 11.9716 20.3 11.5C20.3 11.0283 20.2998 10.815 20.2921 10.6379C20.1044 6.33845 16.6615 2.89561 12.362 2.70789C12.1849 2.70016 11.9716 2.69999 11.5 2.69999Z" fill="#222628"/>
<path fill-rule="evenodd" clip-rule="evenodd" d="M17.495 18.505C17.7683 18.2316 18.2115 18.2316 18.4849 18.505L21.0305 21.0506C21.3039 21.324 21.3039 21.7672 21.0305 22.0405C20.7571 22.3139 20.3139 22.3139 20.0405 22.0405L17.495 19.495C17.2216 19.2216 17.2216 18.7784 17.495 18.505Z" fill="#222628"/>
</svg>
