<svg width="24" height="24" viewBox="0 0 24 24" fill="none" xmlns="http://www.w3.org/2000/svg">
<path opacity="0.4" d="M3.43458 12.4582L2.84465 16.5876C2.51707 18.8807 2.35328 20.0273 2.9116 20.6519C3.08399 20.8448 3.30543 21.0041 3.54311 21.1062C4.31289 21.437 5.33385 20.9242 7.37579 19.8986C8.625 19.2711 9.90769 18.6068 11 18C12.54 17.1444 14.7463 15.8867 16.7394 14.7435C18.6007 13.6759 19.5313 13.1421 19.699 12.356C19.7511 12.1115 19.7511 11.8502 19.6991 11.6056C19.5317 10.8196 18.6067 10.2887 16.7569 9.22687C15.0686 8.25782 13.0697 7.1289 11 5.99998C9.59295 5.23247 8.31676 4.56315 7.19659 3.992C5.27691 3.01319 4.31707 2.52379 3.54365 2.85276C3.30894 2.95259 3.07946 3.11662 2.90903 3.30639C2.34742 3.93168 2.5034 5.02353 2.81536 7.20724L3.43458 11.5418C3.46362 11.745 3.47813 11.8467 3.48104 11.9489C3.482 11.9829 3.482 12.017 3.48104 12.051C3.47813 12.1533 3.46362 12.2549 3.43458 12.4582Z" fill="#C4C4C4"/>
<path fill-rule="evenodd" clip-rule="evenodd" d="M20.3837 11.4599C20.4562 11.8006 20.4562 12.1613 20.3835 12.502C20.2465 13.1445 19.8061 13.6048 19.2746 14.0039C18.7535 14.3952 18.0246 14.8133 17.1297 15.3266L17.0876 15.3507C15.0945 16.494 12.8845 17.7538 11.3399 18.6119C10.2355 19.2254 8.94319 19.8946 7.68992 20.5241L7.64534 20.5465C6.66224 21.0403 5.8644 21.441 5.21621 21.6708C4.55812 21.9041 3.89844 22.0208 3.26674 21.7494C2.93529 21.607 2.63003 21.3874 2.38963 21.1184C1.93003 20.6042 1.83292 19.9356 1.84599 19.2324C1.8589 18.5376 1.98678 17.6426 2.14464 16.5376L2.74157 12.3592C2.77273 12.1411 2.77975 12.0846 2.78127 12.0312C2.78186 12.0104 2.78186 11.9896 2.78127 11.9688C2.77975 11.9153 2.77273 11.8589 2.74157 11.6408L2.11515 7.25587C1.96527 6.20686 1.84297 5.35091 1.83461 4.68115C1.82605 3.99494 1.93144 3.3472 2.38819 2.83865C2.62701 2.57275 2.94073 2.34851 3.26961 2.20861C3.89515 1.94254 4.53388 2.04615 5.17327 2.2719C5.79385 2.49101 6.54784 2.87548 7.46869 3.34503L7.51451 3.36839C8.64016 3.94233 9.9221 4.61468 11.3352 5.38546C13.4105 6.51743 15.4139 7.64895 17.1053 8.61978L17.1475 8.64399C18.0366 9.15428 18.7614 9.5703 19.2797 9.9603C19.8092 10.3587 20.247 10.8183 20.3837 11.4599ZM19.0143 12.21C19.0459 12.0617 19.046 11.8998 19.0144 11.7515C18.9836 11.607 18.8753 11.4081 18.438 11.079C17.9977 10.7477 17.3499 10.3744 16.4084 9.83398C14.7232 8.86669 12.7289 7.74037 10.6648 6.61451C9.2637 5.85028 7.99327 5.18398 6.87858 4.61562C5.90059 4.11696 5.22953 3.77646 4.70717 3.59203C4.19337 3.41063 3.96547 3.43402 3.81759 3.49692C3.67705 3.5567 3.53182 3.66051 3.42977 3.77413C3.32491 3.89088 3.22749 4.10171 3.2345 4.66368C3.24159 5.23141 3.34946 5.99656 3.50828 7.10825L4.12749 11.4428C4.12895 11.453 4.13039 11.463 4.13182 11.473C4.15674 11.6471 4.17665 11.7862 4.18071 11.929C4.18205 11.9763 4.18205 12.0236 4.18071 12.0709C4.17665 12.2138 4.15674 12.3529 4.13182 12.527C4.13039 12.5369 4.12895 12.547 4.12749 12.5572L3.53757 16.6866C3.37106 17.8522 3.25685 18.6608 3.24575 19.2584C3.2346 19.858 3.33476 20.075 3.43347 20.1855C3.53785 20.3022 3.67548 20.4013 3.8194 20.4631C3.95746 20.5224 4.19315 20.5481 4.74847 20.3513C5.30392 20.1544 6.02322 19.7946 7.06156 19.2731C8.3067 18.6477 9.57974 17.9882 10.66 17.3881C12.1955 16.5351 14.3981 15.2794 16.3911 14.1363C17.3382 13.593 17.9906 13.2173 18.4339 12.8844C18.875 12.5532 18.9837 12.3536 19.0143 12.21Z" fill="#222628"/>
<path fill-rule="evenodd" clip-rule="evenodd" d="M10.7 12C10.7 12.3866 10.3866 12.7 10 12.7L4.00001 12.7C3.61341 12.7 3.30001 12.3866 3.30001 12C3.30001 11.6134 3.61341 11.3 4.00001 11.3L10 11.3C10.3866 11.3 10.7 11.6134 10.7 12Z" fill="#222628"/>
</svg>
