<svg width="24" height="24" viewBox="0 0 24 24" fill="none" xmlns="http://www.w3.org/2000/svg">
<path opacity="0.4" d="M8.44968 3.01232C9.98704 2.14094 10.7557 1.70525 11.5882 1.61909C11.862 1.59076 12.138 1.59076 12.4118 1.61909C13.2443 1.70525 14.013 2.14094 15.5503 3.01231L16.785 3.71213L18.0084 4.43148C19.5317 5.32719 20.2934 5.77504 20.7842 6.45292C20.9457 6.67587 21.0837 6.91488 21.196 7.16616C21.5376 7.9302 21.5447 8.81374 21.5587 10.5808L21.57 12L21.5587 13.4192C21.5447 15.1862 21.5376 16.0698 21.196 16.8338C21.0837 17.0851 20.9457 17.3241 20.7842 17.5471C20.2934 18.2249 19.5317 18.6728 18.0084 19.5685L16.785 20.2879L15.5503 20.9877C14.013 21.859 13.2443 22.2947 12.4118 22.3809C12.138 22.4092 11.862 22.4092 11.5882 22.3809C10.7557 22.2947 9.98704 21.859 8.44968 20.9877L7.215 20.2879L5.9916 19.5685C4.46829 18.6728 3.70664 18.2249 3.21577 17.5471C3.05433 17.3241 2.91634 17.0851 2.80398 16.8338C2.46235 16.0698 2.45533 15.1862 2.44128 13.4192L2.43 12L2.44128 10.5808C2.45533 8.81374 2.46235 7.9302 2.80398 7.16616C2.91634 6.91488 3.05433 6.67587 3.21577 6.45292C3.70664 5.77504 4.46829 5.32719 5.9916 4.43149L7.215 3.71213L8.44968 3.01232Z" fill="#C4C4C4"/>
<path fill-rule="evenodd" clip-rule="evenodd" d="M16.085 4.92459L14.86 4.23028C13.213 3.29675 12.7397 3.06051 12.2677 3.01165C12.0897 2.99323 11.9103 2.99323 11.7323 3.01165C11.2603 3.06051 10.787 3.29675 9.14002 4.23028L7.91501 4.92461L6.70122 5.63832C5.06926 6.59791 4.62804 6.88964 4.3497 7.27402C4.24477 7.41893 4.15507 7.57429 4.08204 7.73763C3.88832 8.17087 3.85629 8.69884 3.84124 10.592L3.83004 12L3.84124 13.408C3.85629 15.3011 3.88832 15.8291 4.08204 16.2624C4.15507 16.4257 4.24477 16.5811 4.3497 16.726C4.62804 17.1103 5.06926 17.4021 6.70122 18.3617L7.91497 19.0753L9.14002 19.7697C10.787 20.7032 11.2603 20.9395 11.7323 20.9883C11.9103 21.0068 12.0897 21.0068 12.2677 20.9883C12.7397 20.9395 13.213 20.7032 14.86 19.7697L16.085 19.0754L17.2988 18.3617C18.9307 17.4021 19.372 17.1103 19.6503 16.726C19.7552 16.5811 19.8449 16.4257 19.918 16.2624C20.1117 15.8291 20.1437 15.3011 20.1588 13.408L20.17 12L20.1588 10.5919C20.1437 8.69884 20.1117 8.17087 19.918 7.73763C19.8449 7.57429 19.7552 7.41893 19.6503 7.27402C19.372 6.88964 18.9307 6.59791 17.2988 5.63832L16.085 4.92459ZM16.785 3.71213L15.5503 3.01231C14.013 2.14094 13.2443 1.70525 12.4118 1.61909C12.138 1.59076 11.862 1.59076 11.5882 1.61909C10.7557 1.70525 9.98704 2.14094 8.44968 3.01232L7.215 3.71213L5.9916 4.43149C4.46829 5.32719 3.70664 5.77504 3.21577 6.45292C3.05433 6.67587 2.91634 6.91488 2.80398 7.16616C2.46235 7.9302 2.45533 8.81374 2.44128 10.5808L2.43 12L2.44128 13.4192C2.45533 15.1862 2.46235 16.0698 2.80398 16.8338C2.91634 17.0851 3.05433 17.3241 3.21577 17.5471C3.70664 18.2249 4.46829 18.6728 5.9916 19.5685L7.215 20.2879L8.44968 20.9877C9.98704 21.859 10.7557 22.2947 11.5882 22.3809C11.862 22.4092 12.138 22.4092 12.4118 22.3809C13.2443 22.2947 14.013 21.859 15.5503 20.9877L16.785 20.2879L18.0084 19.5685C19.5317 18.6728 20.2934 18.2249 20.7842 17.5471C20.9457 17.3241 21.0837 17.0851 21.196 16.8338C21.5376 16.0698 21.5447 15.1862 21.5587 13.4192L21.57 12L21.5587 10.5808C21.5447 8.81374 21.5376 7.9302 21.196 7.16616C21.0837 6.91488 20.9457 6.67587 20.7842 6.45292C20.2934 5.77504 19.5317 5.32719 18.0084 4.43148L16.785 3.71213Z" fill="#222628"/>
<path fill-rule="evenodd" clip-rule="evenodd" d="M13.04 10.1987C12.3939 9.83696 11.6061 9.83696 10.96 10.1987C10.3237 10.5774 9.92981 11.2596 9.92007 12C9.92981 12.7404 10.3237 13.4226 10.96 13.8013C11.6061 14.163 12.3939 14.163 13.04 13.8013C13.6763 13.4226 14.0702 12.7404 14.0799 12C14.0702 11.2596 13.6763 10.5774 13.04 10.1987ZM8.52 12C8.52986 13.2406 9.19052 14.3849 10.26 15.0138C11.3393 15.6255 12.6607 15.6255 13.74 15.0138C14.8095 14.3849 15.4701 13.2406 15.48 12C15.4701 10.7594 14.8095 9.61508 13.74 8.98623C12.6607 8.37446 11.3393 8.37446 10.26 8.98623C9.19052 9.61508 8.52986 10.7594 8.52 12Z" fill="#222628"/>
</svg>
