<svg width="24" height="24" viewBox="0 0 24 24" fill="none" xmlns="http://www.w3.org/2000/svg">
<path d="M12 2C14.3359 2 15.0551 3.34721 15.2066 4.64302C15.2789 5.26214 16.3989 5.93158 16.979 5.70341C18.1311 5.25025 19.5672 5.22903 20.6602 7C21.7246 9.02485 20.6671 10.3803 19.5865 11.1632C19.1196 11.5015 19.1196 12.4985 19.5865 12.8368C20.6671 13.6197 21.7246 14.9751 20.6602 17C19.5672 18.771 18.1311 18.7497 16.979 18.2966C16.3989 18.0684 15.2789 18.7379 15.2066 19.357C15.0551 20.6528 14.3359 22 12 22C9.66415 22 8.94495 20.6528 8.79344 19.357C8.72105 18.7379 7.60109 18.0684 7.02101 18.2966C5.8689 18.7497 4.43281 18.771 3.33974 17C2.39488 15.2025 3.12223 13.9325 4.05337 13.1223C4.51754 12.7184 4.4399 11.4663 3.93881 11.1093C2.90639 10.3737 2.11109 9.10049 3.33974 7C4.39203 5.20101 5.70849 5.09638 6.80694 5.48925C7.41051 5.70512 8.71992 4.97007 8.8396 4.34033C9.06663 3.14576 9.84586 2 12 2Z" fill="#C4C4C4" fill-opacity="0.4"/>
<path fill-rule="evenodd" clip-rule="evenodd" d="M10.161 3.24642C9.81937 3.54872 9.62188 3.97328 9.52729 4.47101C9.46114 4.81905 9.25347 5.10198 9.05957 5.30248C8.85533 5.51368 8.60477 5.69719 8.34847 5.84167C8.09207 5.9862 7.80563 6.10538 7.51989 6.17138C7.24861 6.23405 6.90144 6.26646 6.5712 6.14835C6.12063 5.9872 5.68527 5.94901 5.27998 6.08587C4.88053 6.22076 4.40792 6.56023 3.94396 7.35342C3.39467 8.29248 3.35351 8.94512 3.469 9.39093C3.58777 9.84941 3.90786 10.2277 4.34499 10.5392C4.61522 10.7317 4.78168 11.0069 4.88211 11.2547C4.98539 11.5094 5.04105 11.7886 5.05685 12.0571C5.07264 12.3253 5.0502 12.6098 4.97599 12.8757C4.90376 13.1345 4.76695 13.4292 4.51286 13.6503C4.10976 14.0011 3.79816 14.4115 3.66714 14.8796C3.54272 15.3241 3.55816 15.9007 3.94819 16.6529C4.41331 17.3976 4.90048 17.6967 5.32751 17.8031C5.7778 17.9153 6.26932 17.84 6.76479 17.6452C7.08311 17.5199 7.41387 17.5375 7.6796 17.5946C7.95374 17.6535 8.22148 17.7675 8.4569 17.9083C8.69231 18.0491 8.91944 18.2311 9.10103 18.4448C9.27707 18.6521 9.44893 18.9355 9.4887 19.2757C9.55402 19.8344 9.73357 20.3248 10.0766 20.6735C10.406 21.0083 10.9726 21.3 12 21.3C13.0274 21.3 13.594 21.0083 13.9234 20.6735C14.2664 20.3248 14.446 19.8344 14.5113 19.2757C14.5511 18.9355 14.7229 18.6521 14.899 18.4448C15.0806 18.231 15.3077 18.0491 15.5431 17.9083C15.7785 17.7675 16.0463 17.6535 16.3204 17.5946C16.5861 17.5375 16.9169 17.5199 17.2352 17.6452C17.7307 17.84 18.2222 17.9153 18.6725 17.8031C19.0995 17.6967 19.5867 17.3976 20.0518 16.6529C20.4888 15.8101 20.4591 15.1822 20.2747 14.7048C20.0762 14.1908 19.6597 13.7543 19.1758 13.4036C18.6895 13.0513 18.5363 12.4528 18.5363 12C18.5363 11.5472 18.6895 10.9487 19.1758 10.5963C19.6597 10.2457 20.0762 9.80919 20.2747 9.29515C20.4591 8.81781 20.4888 8.18988 20.0518 7.34707C19.5867 6.60234 19.0995 6.30329 18.6725 6.19687C18.2222 6.08465 17.7307 6.15994 17.2352 6.35482C16.9169 6.48003 16.5861 6.46252 16.3204 6.4054C16.0463 6.34647 15.7785 6.23249 15.5431 6.09169C15.3077 5.95091 15.0806 5.76893 14.899 5.55516C14.7229 5.34792 14.5511 5.06446 14.5113 4.7243C14.446 4.16562 14.2664 3.67514 13.9234 3.3265C13.594 2.99165 13.0274 2.69999 12 2.69999C11.0502 2.69999 10.4962 2.94983 10.161 3.24642ZM9.23325 2.19796C9.88298 1.62303 10.7957 1.29999 12 1.29999C13.3085 1.29999 14.2694 1.68193 14.9214 2.34464C15.5598 2.99356 15.8156 3.82459 15.9018 4.56172C15.9009 4.55418 15.9 4.55046 15.9001 4.55042C15.9006 4.55028 15.9114 4.58451 15.966 4.64879C16.0329 4.72753 16.1355 4.81474 16.2617 4.89018C16.3878 4.96561 16.5133 5.0149 16.6146 5.03667C16.6899 5.05285 16.7261 5.04879 16.7323 5.04825C17.3872 4.79215 18.186 4.6328 19.011 4.83842C19.8594 5.04986 20.6318 5.62118 21.2559 6.63233L21.2686 6.6529L21.2799 6.67429C21.8955 7.84556 21.9276 8.9012 21.5807 9.79951C21.2474 10.6627 20.5975 11.2942 20.0023 11.7264C19.9989 11.7305 19.9875 11.7455 19.9741 11.7792C19.9525 11.8333 19.9363 11.9109 19.9363 12C19.9363 12.0891 19.9525 12.1666 19.9741 12.2208C19.9875 12.2544 19.9989 12.2695 20.0023 12.2736C20.5975 12.7058 21.2474 13.3373 21.5807 14.2005C21.9276 15.0988 21.8955 16.1544 21.2799 17.3257L21.2686 17.3471L21.2559 17.3676C20.6318 18.3788 19.8594 18.9501 19.011 19.1616C18.186 19.3672 17.3872 19.2078 16.7323 18.9517C16.7261 18.9512 16.6899 18.9471 16.6146 18.9633C16.5133 18.9851 16.3878 19.0344 16.2617 19.1098C16.1355 19.1852 16.0329 19.2724 15.966 19.3512C15.9114 19.4155 15.9006 19.4497 15.9001 19.4496C15.9 19.4495 15.9009 19.4458 15.9018 19.4383C15.8156 20.1754 15.5598 21.0064 14.9214 21.6553C14.2694 22.318 13.3085 22.7 12 22.7C10.6915 22.7 9.7306 22.318 9.0786 21.6553C8.44017 21.0064 8.18436 20.1754 8.09818 19.4383C8.09906 19.4458 8.10001 19.4495 8.09986 19.4496C8.0994 19.4497 8.08863 19.4155 8.03403 19.3512C7.96714 19.2724 7.86446 19.1852 7.73832 19.1098C7.61219 19.0344 7.48665 18.9851 7.38538 18.9633C7.3101 18.9471 7.27388 18.9512 7.26772 18.9517C6.61284 19.2078 5.81401 19.3672 4.98895 19.1616C4.14055 18.9501 3.36817 18.3788 2.74406 17.3676L2.73137 17.3471L2.72012 17.3257C2.17615 16.2908 2.08432 15.3404 2.31897 14.5022C2.54712 13.6871 3.06101 13.0595 3.58649 12.6006C3.59 12.5952 3.60864 12.567 3.62752 12.4994C3.65364 12.4058 3.6675 12.2792 3.65927 12.1393C3.65105 11.9997 3.62235 11.8736 3.58465 11.7806C3.55405 11.7051 3.5288 11.6779 3.5267 11.6752C2.9334 11.2511 2.3428 10.6262 2.11374 9.74202C1.88064 8.84219 2.05615 7.80798 2.73551 6.64656C3.32384 5.64075 4.0356 5.02841 4.83207 4.75946C5.61934 4.49361 6.38823 4.59751 7.03442 4.82718C7.03441 4.82717 7.0344 4.82715 7.0344 4.82714C7.03459 4.82615 7.0855 4.83486 7.20479 4.8073C7.33805 4.77652 7.49962 4.71305 7.66098 4.62209C7.82244 4.53108 7.9594 4.42623 8.05319 4.32925C8.13333 4.24637 8.15232 4.20056 8.15394 4.19897C8.28746 3.50519 8.59326 2.76428 9.23325 2.19796Z" fill="#222628"/>
<path fill-rule="evenodd" clip-rule="evenodd" d="M12 13.6C12.8837 13.6 13.6 12.8837 13.6 12C13.6 11.1163 12.8837 10.4 12 10.4C11.1163 10.4 10.4 11.1163 10.4 12C10.4 12.8837 11.1163 13.6 12 13.6ZM12 15C13.6569 15 15 13.6569 15 12C15 10.3431 13.6569 9 12 9C10.3431 9 9 10.3431 9 12C9 13.6569 10.3431 15 12 15Z" fill="#222628"/>
</svg>
