<svg width="24" height="24" viewBox="0 0 24 24" fill="none" xmlns="http://www.w3.org/2000/svg">
<path opacity="0.4" d="M19.5 6.40541C17.5 5 12.5 3 12.0117 3C11.5233 3 6.50003 5 4.50003 6.40541L4.50004 14.1892C4.50004 18.0811 11.5234 21 12.0117 21C12.5 21 19.5 18.3784 19.5 14.1892V6.40541Z" fill="#C4C4C4"/>
<path fill-rule="evenodd" clip-rule="evenodd" d="M5.20002 6.77936L5.20002 14.1892C5.20002 14.9451 5.54134 15.7057 6.14864 16.4542C6.75476 17.2013 7.58635 17.8861 8.46212 18.4723C9.33406 19.056 10.2242 19.525 10.9245 19.8472C11.2745 20.0081 11.5713 20.1298 11.7894 20.2096C11.8865 20.2452 11.9631 20.2706 12.0185 20.2872C12.0749 20.272 12.1526 20.2485 12.2511 20.2155C12.4683 20.1426 12.7638 20.031 13.1116 19.8817C13.8078 19.5828 14.6918 19.1422 15.5571 18.5789C16.4259 18.0132 17.25 17.3405 17.8507 16.585C18.4495 15.832 18.8 15.0318 18.8 14.1892V6.77926C17.8296 6.15884 16.3162 5.42634 14.9109 4.81807C14.14 4.48441 13.419 4.19551 12.8646 3.99131C12.5866 3.88892 12.3567 3.81011 12.1865 3.75793C12.1115 3.73497 12.0536 3.71884 12.0115 3.70842C11.9691 3.71887 11.9108 3.73506 11.8352 3.75813C11.6643 3.81035 11.4334 3.8892 11.1543 3.99161C10.5977 4.19585 9.87366 4.48478 9.0999 4.81845C7.68911 5.42682 6.17091 6.15924 5.20002 6.77936ZM11.7094 2.34118C11.7779 2.32518 11.894 2.29999 12.0117 2.29999C12.1295 2.29999 12.2456 2.32523 12.3141 2.34128C12.399 2.36118 12.495 2.38821 12.5968 2.41941C12.8013 2.48209 13.0578 2.57052 13.3484 2.67759C13.9314 2.8923 14.6768 3.19124 15.467 3.53326C17.0304 4.20994 18.8387 5.08513 19.9025 5.83266C20.089 5.96373 20.2 6.17742 20.2 6.4054V14.1892C20.2 15.4411 19.6755 16.5396 18.9465 17.4564C18.2196 18.3706 17.2631 19.1388 16.3209 19.7522C15.3751 20.3679 14.4175 20.8446 13.6639 21.1681C13.2868 21.3301 12.9553 21.456 12.6962 21.5428C12.5673 21.5861 12.4506 21.6216 12.3517 21.6472C12.2783 21.6662 12.1424 21.7 12.0117 21.7C11.8704 21.7 11.7261 21.6598 11.6548 21.6394C11.5548 21.6109 11.4372 21.5716 11.3081 21.5243C11.0485 21.4293 10.7166 21.2925 10.3394 21.119C9.58551 20.7722 8.62826 20.2683 7.68333 19.6357C6.74223 19.0058 5.78747 18.2311 5.06146 17.3363C4.33663 16.4429 3.80003 15.3792 3.80002 14.1892L3.80002 6.40539C3.80002 6.17742 3.91103 5.96373 4.09756 5.83266C5.16187 5.08476 6.97659 4.20945 8.54553 3.53288C9.33864 3.19087 10.087 2.89196 10.6721 2.67729C10.9638 2.57024 11.2212 2.48185 11.4262 2.41921C11.5282 2.38804 11.6245 2.36105 11.7094 2.34118Z" fill="#222628"/>
</svg>
