<svg width="24" height="24" viewBox="0 0 24 24" fill="none" xmlns="http://www.w3.org/2000/svg">
<path opacity="0.4" d="M19.5 6.40541C17.5 5 12.5 3 12.0117 3C11.5233 3 6.49999 5 4.5 6.40541L4.50001 14.1892C4.50001 18.0811 11.5233 21 12.0117 21C12.5 21 19.5 18.3784 19.5 14.1892V6.40541Z" fill="#C4C4C4"/>
<path fill-rule="evenodd" clip-rule="evenodd" d="M5.2 6.77936L5.20001 14.1892C5.20001 14.9451 5.54132 15.7057 6.14862 16.4542C6.75475 17.2013 7.58634 17.8861 8.4621 18.4723C9.33405 19.056 10.2242 19.525 10.9245 19.8472C11.2744 20.0081 11.5713 20.1298 11.7893 20.2096C11.8865 20.2452 11.9631 20.2706 12.0185 20.2872C12.0749 20.272 12.1526 20.2485 12.2511 20.2155C12.4683 20.1426 12.7638 20.031 13.1116 19.8817C13.8078 19.5828 14.6918 19.1422 15.557 18.5789C16.4259 18.0132 17.2499 17.3405 17.8507 16.585C18.4495 15.832 18.8 15.0318 18.8 14.1892V6.77926C17.8296 6.15884 16.3162 5.42634 14.9109 4.81807C14.14 4.48441 13.4189 4.19551 12.8645 3.99131C12.5865 3.88892 12.3567 3.81011 12.1864 3.75793C12.1115 3.73497 12.0536 3.71884 12.0115 3.70842C11.9691 3.71887 11.9107 3.73506 11.8352 3.75813C11.6643 3.81035 11.4334 3.8892 11.1543 3.99161C10.5977 4.19585 9.87364 4.48478 9.09989 4.81845C7.68909 5.42682 6.17089 6.15924 5.2 6.77936ZM11.7094 2.34118C11.7778 2.32518 11.894 2.29999 12.0117 2.29999C12.1294 2.29999 12.2456 2.32523 12.3141 2.34128C12.3989 2.36118 12.495 2.38821 12.5968 2.41941C12.8012 2.48209 13.0577 2.57052 13.3484 2.67759C13.9314 2.8923 14.6768 3.19124 15.467 3.53326C17.0304 4.20994 18.8387 5.08513 19.9025 5.83266C20.089 5.96373 20.2 6.17742 20.2 6.4054V14.1892C20.2 15.4411 19.6755 16.5396 18.9465 17.4564C18.2195 18.3706 17.2631 19.1388 16.3209 19.7522C15.3751 20.3679 14.4175 20.8446 13.6639 21.1681C13.2867 21.3301 12.9552 21.456 12.6962 21.5428C12.5673 21.5861 12.4506 21.6216 12.3517 21.6472C12.2783 21.6662 12.1424 21.7 12.0117 21.7C11.8704 21.7 11.7261 21.6598 11.6548 21.6394C11.5547 21.6109 11.4371 21.5716 11.308 21.5243C11.0485 21.4293 10.7166 21.2925 10.3394 21.119C9.58549 20.7722 8.62824 20.2683 7.68332 19.6357C6.74221 19.0058 5.78745 18.2311 5.06145 17.3363C4.33661 16.4429 3.80001 15.3792 3.80001 14.1892L3.8 6.40539C3.80001 6.17742 3.91102 5.96373 4.09754 5.83266C5.16185 5.08476 6.97657 4.20945 8.54552 3.53288C9.33863 3.19087 10.087 2.89196 10.6721 2.67729C10.9638 2.57024 11.2212 2.48185 11.4262 2.41921C11.5282 2.38804 11.6244 2.36105 11.7094 2.34118Z" fill="#222628"/>
<path fill-rule="evenodd" clip-rule="evenodd" d="M13.9388 9.58159C14.1699 9.27165 14.6085 9.20773 14.9184 9.43881C15.2283 9.66989 15.2923 10.1085 15.0612 10.4184L14.5 10C15.0612 10.4184 15.0612 10.4184 15.0612 10.4184L14.9318 10.5915C14.8496 10.7013 14.732 10.8581 14.5903 11.0462C14.307 11.4222 13.927 11.9241 13.5408 12.4266C13.1555 12.9279 12.7606 13.4342 12.4486 13.8171C12.2937 14.0073 12.1527 14.175 12.0409 14.2984C11.9865 14.3583 11.928 14.42 11.8722 14.4712C11.8457 14.4954 11.8045 14.5316 11.7542 14.566C11.7292 14.5832 11.6877 14.6098 11.6339 14.6342C11.5896 14.6544 11.4802 14.7 11.3333 14.7C11.1296 14.7 10.9798 14.6139 10.9397 14.5909C10.8758 14.5542 10.8212 14.5128 10.7823 14.4813C10.7026 14.4167 10.621 14.3379 10.5473 14.2627C10.3966 14.1089 10.2233 13.9125 10.065 13.7271C9.90481 13.5393 9.75148 13.3527 9.63874 13.2137C9.58221 13.144 9.53553 13.0858 9.50285 13.0449L9.46478 12.9971L9.45455 12.9842L9.45105 12.9798C9.21141 12.6764 9.26274 12.2358 9.56611 11.9962C9.86947 11.7565 10.3096 11.8082 10.5493 12.1115C10.5493 12.1115 10.5493 12.1115 10.5493 12.1115L10.5521 12.115L10.5611 12.1265L10.5966 12.171C10.6275 12.2097 10.672 12.2651 10.7261 12.3318C10.8345 12.4655 10.98 12.6425 11.13 12.8184C11.1871 12.8852 11.2436 12.9505 11.2982 13.0123C11.3192 12.9868 11.3409 12.9602 11.3632 12.9329C11.6623 12.5658 12.0475 12.0721 12.4308 11.5734C12.8132 11.0759 13.1903 10.5778 13.472 10.2038C13.6128 10.0169 13.7296 9.86122 13.8112 9.75228L13.9388 9.58159C13.9388 9.58157 13.9388 9.58159 14.4234 9.94291L13.9388 9.58159Z" fill="#222628"/>
</svg>
