<svg width="24" height="24" viewBox="0 0 24 24" fill="none" xmlns="http://www.w3.org/2000/svg">
<path opacity="0.4" d="M10.3172 4.61992C11.1044 3.39439 12.8956 3.39439 13.6828 4.61992L14.988 6.65205C15.2589 7.07372 15.6781 7.37834 16.1629 7.50562L18.4989 8.11901C19.9077 8.48894 20.4612 10.1925 19.5389 11.3199L18.0096 13.1892C17.6922 13.5771 17.5321 14.0699 17.5608 14.5703L17.6993 16.9815C17.7828 18.4357 16.3337 19.4885 14.9765 18.9597L12.7261 18.0829C12.2591 17.901 11.7409 17.901 11.2739 18.0829L9.02349 18.9597C7.66632 19.4885 6.21718 18.4357 6.3007 16.9815L6.43919 14.5703C6.46793 14.0699 6.30778 13.5771 5.99044 13.1892L4.46111 11.3199C3.53881 10.1925 4.09234 8.48894 5.50113 8.11901L7.83714 7.50562C8.32186 7.37834 8.74114 7.07372 9.01198 6.65205L10.3172 4.61992Z" fill="#C4C4C4"/>
<path fill-rule="evenodd" clip-rule="evenodd" d="M9.72825 4.24161C10.7909 2.58715 13.2091 2.58715 14.2718 4.24161L15.577 6.27374C15.753 6.54782 16.0256 6.74582 16.3406 6.82856L18.6766 7.44195C20.5785 7.94135 21.3258 10.2412 20.0807 11.7631L18.5513 13.6324C18.3451 13.8845 18.241 14.2049 18.2597 14.5301L18.3982 16.9414C18.5109 18.9045 16.5546 20.3258 14.7224 19.612L12.472 18.7351C12.1684 18.6169 11.8316 18.6169 11.528 18.7351L9.27762 19.612C7.44544 20.3258 5.4891 18.9045 5.60185 16.9414L5.74034 14.5301C5.75902 14.2049 5.65492 13.8845 5.44866 13.6324L3.91933 11.7631C2.67422 10.2412 3.42149 7.94135 5.32335 7.44195L7.65936 6.82856C7.97443 6.74582 8.24696 6.54782 8.423 6.27374L9.72825 4.24161ZM13.0938 4.99821C12.5822 4.20161 11.4178 4.20162 10.9062 4.99821L9.60095 7.03034C9.23532 7.59959 8.6693 8.01082 8.01493 8.18265L5.67891 8.79605C4.7632 9.0365 4.40341 10.1438 5.0029 10.8766L6.53223 12.7459C6.96063 13.2696 7.17683 13.935 7.13804 14.6104L6.99955 17.0216C6.94526 17.9668 7.8872 18.6512 8.76936 18.3075L11.0198 17.4307C11.6502 17.185 12.3498 17.185 12.9802 17.4307L15.2306 18.3075C16.1128 18.6512 17.0547 17.9668 17.0005 17.0216L16.862 14.6104C16.8232 13.935 17.0394 13.2696 17.4678 12.7459L18.9971 10.8766C19.5966 10.1438 19.2368 9.0365 18.3211 8.79605L15.9851 8.18265C15.3307 8.01082 14.7647 7.59959 14.3991 7.03034L13.0938 4.99821Z" fill="#222628"/>
</svg>
