<svg width="24" height="24" viewBox="0 0 24 24" fill="none" xmlns="http://www.w3.org/2000/svg">
<path opacity="0.4" d="M2 12C2 8.26154 2 6.3923 2.80385 5C3.33046 4.08788 4.08788 3.33046 5 2.80385C6.3923 2 8.26154 2 12 2C15.7385 2 17.6077 2 19 2.80385C19.9121 3.33046 20.6695 4.08788 21.1962 5C22 6.3923 22 8.26154 22 12C22 15.7385 22 17.6077 21.1962 19C20.6695 19.9121 19.9121 20.6695 19 21.1962C17.6077 22 15.7385 22 12 22C8.26154 22 6.3923 22 5 21.1962C4.08788 20.6695 3.33046 19.9121 2.80385 19C2 17.6077 2 15.7385 2 12Z" fill="#C4C4C4"/>
<path fill-rule="evenodd" clip-rule="evenodd" d="M11.9645 1.29999H12.0354C13.8747 1.29998 15.3027 1.29998 16.443 1.40333C17.6002 1.50821 18.5295 1.72393 19.35 2.19762C20.3685 2.78567 21.2143 3.63146 21.8024 4.64999C22.276 5.47044 22.4918 6.39979 22.5966 7.55699C22.7 8.69727 22.7 10.1253 22.7 11.9646V12.0354C22.7 13.8746 22.7 15.3027 22.5966 16.443C22.4918 17.6002 22.276 18.5295 21.8024 19.35C21.2143 20.3685 20.3685 21.2143 19.35 21.8024C18.5295 22.276 17.6002 22.4918 16.443 22.5966C15.3027 22.7 13.8746 22.7 12.0354 22.7H11.9646C10.1253 22.7 8.69727 22.7 7.55699 22.5966C6.39979 22.4918 5.47044 22.276 4.64999 21.8024C3.63146 21.2143 2.78567 20.3685 2.19762 19.35C1.72393 18.5295 1.50821 17.6002 1.40333 16.443C1.29998 15.3027 1.29998 13.8747 1.29999 12.0354V11.9645C1.29998 10.1253 1.29998 8.69726 1.40333 7.55699C1.50821 6.39979 1.72393 5.47044 2.19762 4.64999C2.78567 3.63146 3.63146 2.78567 4.64999 2.19762C5.47044 1.72393 6.39979 1.50821 7.55699 1.40333C8.69726 1.29998 10.1253 1.29998 11.9645 1.29999ZM7.68336 2.79761C6.62326 2.89369 5.92184 3.07989 5.34999 3.41005C4.54429 3.87523 3.87523 4.54429 3.41005 5.34999C3.07989 5.92184 2.89369 6.62326 2.79761 7.68336C2.70066 8.75309 2.69999 10.1179 2.69999 12C2.69999 13.8821 2.70066 15.2469 2.79761 16.3166C2.89369 17.3767 3.07989 18.0781 3.41005 18.65C3.87523 19.4557 4.54429 20.1248 5.34999 20.5899C5.92184 20.9201 6.62326 21.1063 7.68336 21.2024C8.75309 21.2993 10.1179 21.3 12 21.3C13.8821 21.3 15.2469 21.2993 16.3166 21.2024C17.3767 21.1063 18.0781 20.9201 18.65 20.5899C19.4557 20.1248 20.1248 19.4557 20.5899 18.65C20.9201 18.0781 21.1063 17.3767 21.2024 16.3166C21.2993 15.2469 21.3 13.8821 21.3 12C21.3 10.1179 21.2993 8.75309 21.2024 7.68336C21.1063 6.62326 20.9201 5.92184 20.5899 5.34999C20.1248 4.54429 19.4557 3.87523 18.65 3.41005C18.0781 3.07989 17.3767 2.89369 16.3166 2.79761C15.2469 2.70066 13.8821 2.69999 12 2.69999C10.1179 2.69999 8.75309 2.70066 7.68336 2.79761Z" fill="#222628"/>
<path fill-rule="evenodd" clip-rule="evenodd" d="M10.005 10.505C10.261 10.249 10.67 10.2305 10.9481 10.4622L13.457 12.553L15.505 10.505C15.7784 10.2316 16.2216 10.2316 16.495 10.505C16.7683 10.7784 16.7683 11.2216 16.495 11.495L13.995 13.995C13.739 14.251 13.33 14.2695 13.0519 14.0377L10.5429 11.947L8.49496 13.995C8.2216 14.2683 7.77838 14.2683 7.50501 13.995C7.23165 13.7216 7.23165 13.2784 7.50501 13.005L10.005 10.505Z" fill="#222628"/>
</svg>
