<svg width="24" height="24" viewBox="0 0 24 24" fill="none" xmlns="http://www.w3.org/2000/svg">
<path opacity="0.4" d="M21 16.6773L21 12.5L3 12.5L3 16.6773C3 18.1941 4.13089 19.4702 5.64065 19.6158C7.52589 19.7976 10.0608 20 12 20C13.9392 20 16.4741 19.7976 18.3593 19.6158C19.8691 19.4702 21 18.1941 21 16.6773Z" fill="#C4C4C4"/>
<path fill-rule="evenodd" clip-rule="evenodd" d="M12 16.3667C12.3866 16.3667 12.7 16.0533 12.7 15.6667L12.7 5.6667C12.7 5.2801 12.3866 4.9667 12 4.9667C11.6134 4.9667 11.3 5.2801 11.3 5.6667L11.3 15.6667C11.3 16.0533 11.6134 16.3667 12 16.3667Z" fill="#222628"/>
<path fill-rule="evenodd" clip-rule="evenodd" d="M11.5758 4.42428C11.3414 4.65859 11.3414 5.03849 11.5758 5.27281L14.7272 8.42428C14.9615 8.65859 15.3414 8.65859 15.5758 8.42428C15.8101 8.18996 15.8101 7.81007 15.5758 7.57575L12.4243 4.42428C12.19 4.18996 11.8101 4.18996 11.5758 4.42428Z" fill="#222628"/>
<path fill-rule="evenodd" clip-rule="evenodd" d="M12.4243 4.42428C12.6586 4.65859 12.6586 5.03849 12.4243 5.27281L9.2728 8.42428C9.03849 8.65859 8.65859 8.65859 8.42428 8.42428C8.18996 8.18996 8.18996 7.81006 8.42428 7.57575L11.5757 4.42428C11.8101 4.18996 12.19 4.18996 12.4243 4.42428Z" fill="#222628"/>
<path fill-rule="evenodd" clip-rule="evenodd" d="M3.00002 11.8C3.38662 11.8 3.70002 12.1134 3.70002 12.5L3.70002 16.6773C3.70002 17.8428 4.56622 18.8089 5.70785 18.919C7.59038 19.1005 10.0968 19.3 12 19.3C13.9032 19.3 16.4097 19.1005 18.2922 18.919C19.4338 18.8089 20.3 17.8428 20.3 16.6773L20.3 12.5C20.3 12.1134 20.6134 11.8 21 11.8C21.3866 11.8 21.7 12.1134 21.7 12.5L21.7 16.6773C21.7 18.5453 20.3044 20.1315 18.4265 20.3126C16.5386 20.4946 13.9752 20.7 12 20.7C10.0248 20.7 7.46144 20.4946 5.57349 20.3126C3.69561 20.1315 2.30002 18.5453 2.30002 16.6773L2.30002 12.5C2.30002 12.1134 2.61342 11.8 3.00002 11.8Z" fill="#222628"/>
</svg>
