<svg width="24" height="24" viewBox="0 0 24 24" fill="none" xmlns="http://www.w3.org/2000/svg">
<path opacity="0.4" d="M12 8C8.68629 8 6 10.6863 6 14H18C18 10.6863 15.3137 8 12 8Z" fill="#C4C4C4"/>
<path fill-rule="evenodd" clip-rule="evenodd" d="M6.24065 13.8H17.7599C17.4176 10.8073 14.9285 8.19999 12.0175 8.19999C9.10247 8.19999 6.58711 10.8111 6.24065 13.8ZM4.8 14.5C4.8 10.5892 7.97853 6.79999 12.0175 6.79999C16.0611 6.79999 19.2 10.5943 19.2 14.5V15.2H4.8V14.5Z" fill="#222628"/>
<path fill-rule="evenodd" clip-rule="evenodd" d="M12 5L11.965 5.00007C11.4127 5.00221 10.9632 4.55624 10.9611 4.00396C10.9589 3.45168 11.4049 3.00223 11.9572 3.00008L12 3L12.0428 3.00008C12.5951 3.00223 13.0411 3.45168 13.0389 4.00396C13.0368 4.55624 12.5873 5.00221 12.035 5.00007L12 5ZM5.66637 6.19711C6.05537 6.58915 6.05291 7.22231 5.66087 7.61131L5.63605 7.63604C5.24552 8.02656 4.61236 8.02656 4.22183 7.63604C3.83131 7.24551 3.83131 6.61235 4.22183 6.22182L4.25216 6.19161C4.6442 5.80261 5.27736 5.80507 5.66637 6.19711ZM18.3336 6.19711C18.7227 5.80507 19.3558 5.80261 19.7479 6.19161L19.7782 6.22183C20.1687 6.61235 20.1687 7.24551 19.7782 7.63604C19.3877 8.02656 18.7545 8.02656 18.364 7.63604L18.3391 7.61131C17.9471 7.22231 17.9446 6.58915 18.3336 6.19711Z" fill="#222628"/>
<path fill-rule="evenodd" clip-rule="evenodd" d="M1.8 14.5C1.8 14.1134 2.1134 13.8 2.5 13.8H21.5C21.8866 13.8 22.2 14.1134 22.2 14.5C22.2 14.8866 21.8866 15.2 21.5 15.2H2.5C2.1134 15.2 1.8 14.8866 1.8 14.5Z" fill="#222628"/>
<path fill-rule="evenodd" clip-rule="evenodd" d="M5 17.3C5 16.9134 5.3134 16.6 5.7 16.6L18.3 16.6C18.6866 16.6 19 16.9134 19 17.3C19 17.6866 18.6866 18 18.3 18L5.7 18C5.3134 18 5 17.6866 5 17.3Z" fill="#222628"/>
</svg>
