<svg width="24" height="24" viewBox="0 0 24 24" fill="none" xmlns="http://www.w3.org/2000/svg">
<path fill-rule="evenodd" clip-rule="evenodd" d="M8.00001 7.29999C8.38661 7.29999 8.70001 7.61339 8.70001 7.99999V18C8.70001 18.3866 8.38661 18.7 8.00001 18.7C7.61341 18.7 7.30001 18.3866 7.30001 18L7.30001 7.99999C7.30001 7.61339 7.61341 7.29999 8.00001 7.29999Z" fill="#222628"/>
<path fill-rule="evenodd" clip-rule="evenodd" d="M16 17.3667C15.6134 17.3667 15.3 17.0533 15.3 16.6667L15.3 6.6667C15.3 6.2801 15.6134 5.9667 16 5.9667C16.3866 5.9667 16.7 6.2801 16.7 6.6667L16.7 16.6667C16.7 17.0533 16.3866 17.3667 16 17.3667Z" fill="#222628"/>
<path fill-rule="evenodd" clip-rule="evenodd" d="M7.57575 19.2424C7.34144 19.0081 7.34144 18.6282 7.57575 18.3939L10.7272 15.2424C10.9615 15.0081 11.3414 15.0081 11.5758 15.2424C11.8101 15.4767 11.8101 15.8566 11.5758 16.0909L8.42428 19.2424C8.18997 19.4767 7.81007 19.4767 7.57575 19.2424Z" fill="#222628"/>
<path fill-rule="evenodd" clip-rule="evenodd" d="M16.4242 5.42425C16.6586 5.65856 16.6586 6.03846 16.4242 6.27277L13.2728 9.42425C13.0385 9.65856 12.6586 9.65856 12.4242 9.42425C12.1899 9.18993 12.1899 8.81003 12.4242 8.57572L15.5757 5.42425C15.81 5.18993 16.1899 5.18993 16.4242 5.42425Z" fill="#222628"/>
<path fill-rule="evenodd" clip-rule="evenodd" d="M8.42425 19.2424C8.65856 19.0081 8.65856 18.6282 8.42425 18.3939L5.27277 15.2424C5.03846 15.0081 4.65856 15.0081 4.42425 15.2424C4.18993 15.4767 4.18993 15.8566 4.42425 16.0909L7.57572 19.2424C7.81003 19.4767 8.18993 19.4767 8.42425 19.2424Z" fill="#222628"/>
<path fill-rule="evenodd" clip-rule="evenodd" d="M15.5758 5.42425C15.3414 5.65856 15.3414 6.03846 15.5758 6.27277L18.7272 9.42425C18.9615 9.65856 19.3414 9.65856 19.5758 9.42425C19.8101 9.18993 19.8101 8.81003 19.5758 8.57572L16.4243 5.42425C16.19 5.18993 15.8101 5.18993 15.5758 5.42425Z" fill="#222628"/>
</svg>
