<svg width="24" height="24" viewBox="0 0 24 24" fill="none" xmlns="http://www.w3.org/2000/svg">
<path fill-rule="evenodd" clip-rule="evenodd" d="M20.3842 3.21235C20.6491 3.49396 20.6491 3.95054 20.3842 4.23215L18.9666 5.73936C18.7017 6.02096 18.2723 6.02097 18.0074 5.73936C17.7425 5.45775 17.7425 5.00117 18.0074 4.71956L19.425 3.21235C19.6899 2.93074 20.1193 2.93074 20.3842 3.21235Z" fill="#222628"/>
<path fill-rule="evenodd" clip-rule="evenodd" d="M22.5885 8.89509C22.5753 9.2931 22.2611 9.60433 21.8867 9.59024L19.6823 9.50727C19.3079 9.49319 19.0152 9.15912 19.0285 8.76111C19.0417 8.3631 19.3559 8.05188 19.7303 8.06596L21.9347 8.14893C22.309 8.16302 22.6018 8.49709 22.5885 8.89509Z" fill="#222628"/>
<path fill-rule="evenodd" clip-rule="evenodd" d="M15.0393 0.868669C15.4136 0.85458 15.7278 1.16581 15.7411 1.56381L15.8191 3.90758C15.8324 4.30559 15.5396 4.63966 15.1653 4.65375C14.7909 4.66784 14.4767 4.35661 14.4635 3.9586L14.3855 1.61483C14.3722 1.21683 14.6649 0.882758 15.0393 0.868669Z" fill="#222628"/>
<path opacity="0.4" d="M5.28245 19.6318L3.86824 18.2175C2.69666 17.046 2.69666 15.1465 3.86824 13.9749L7.92149 9.92164C8.33345 9.50969 8.61654 8.98669 8.73621 8.41653L9.15761 6.40869C9.25321 5.95316 9.47938 5.53533 9.8085 5.20621C10.0425 4.97221 10.4219 4.97221 10.6559 5.20621L14.4748 9.02515L18.2938 12.8441C18.5278 13.0781 18.5278 13.4575 18.2938 13.6915C17.9647 14.0206 17.5468 14.2468 17.0913 14.3424L15.0835 14.7638C14.5133 14.8834 13.9903 15.1665 13.5783 15.5785L9.52509 19.6318C8.35352 20.8033 6.45402 20.8033 5.28245 19.6318Z" fill="#C4C4C4"/>
<path fill-rule="evenodd" clip-rule="evenodd" d="M8.47261 6.26484C8.59614 5.67628 8.88836 5.13642 9.31361 4.71117C9.82098 4.2038 10.6436 4.2038 11.1509 4.71117L18.7888 12.3491C19.2962 12.8564 19.2962 13.679 18.7888 14.1864C18.3636 14.6116 17.8237 14.9039 17.2352 15.0274L15.2273 15.4488C14.7902 15.5405 14.3892 15.7576 14.0734 16.0734L10.0201 20.1267C8.5752 21.5716 6.2325 21.5716 4.78756 20.1267L3.37334 18.7125C1.9284 17.2675 1.9284 14.9248 3.37334 13.4799L7.4266 9.4266C7.74243 9.11077 7.95947 8.70981 8.05121 8.27268L8.47261 6.26484ZM10.2344 5.77452C10.0388 5.99489 9.90352 6.26289 9.84276 6.55241L9.42136 8.56025C9.27377 9.26345 8.92463 9.90848 8.41655 10.4166L4.36329 14.4698C3.46509 15.368 3.46509 16.8243 4.36329 17.7225L5.7775 19.1367C6.67571 20.0349 8.13199 20.0349 9.0302 19.1367L13.0835 15.0835C13.5915 14.5754 14.2366 14.2262 14.9398 14.0786L16.9476 13.6572C17.2371 13.5965 17.5051 13.4612 17.7255 13.2656L10.2344 5.77452Z" fill="#222628"/>
<path fill-rule="evenodd" clip-rule="evenodd" d="M8.60594 14.8941C8.8793 15.1675 8.8793 15.6107 8.60594 15.884L7.89883 16.5911C7.62546 16.8645 7.18225 16.8645 6.90888 16.5911C6.63551 16.3178 6.63551 15.8746 6.90888 15.6012L7.61599 14.8941C7.88935 14.6207 8.33257 14.6207 8.60594 14.8941Z" fill="#222628"/>
</svg>
