<svg width="24" height="24" viewBox="0 0 24 24" fill="none" xmlns="http://www.w3.org/2000/svg">
<path d="M9.70412 21H14.2959C16.386 21 18.1238 19.3908 18.2841 17.3068L19 8H5L5.71591 17.3068C5.87621 19.3908 7.61398 21 9.70412 21Z" fill="#C4C4C4" fill-opacity="0.4"/>
<path fill-rule="evenodd" clip-rule="evenodd" d="M4.94633 7.30205C5.33179 7.2724 5.66831 7.56084 5.69796 7.9463L6.41387 17.2531C6.54612 18.9724 7.97978 20.3 9.70415 20.3H14.2959C16.0203 20.3 17.4539 18.9724 17.5862 17.2531L18.3021 7.9463C18.3317 7.56084 18.6682 7.2724 19.0537 7.30205C19.4392 7.3317 19.7276 7.66822 19.698 8.05368L18.9821 17.3605C18.7937 19.8092 16.7518 21.7 14.2959 21.7H9.70415C7.24823 21.7 5.20635 19.8092 5.01799 17.3605L4.30208 8.05368C4.27243 7.66822 4.56087 7.3317 4.94633 7.30205Z" fill="#222628"/>
<path fill-rule="evenodd" clip-rule="evenodd" d="M3 5.30001C3 4.91341 3.3134 4.60001 3.7 4.60001L20.3 4.60001C20.6866 4.60001 21 4.91341 21 5.30001C21 5.68661 20.6866 6.00001 20.3 6.00001L3.7 6.00001C3.3134 6.00001 3 5.68661 3 5.30001Z" fill="#222628"/>
<path fill-rule="evenodd" clip-rule="evenodd" d="M15.7 4.70032C15.7 5.08692 15.3866 5.40032 15 5.40032L13.4278 5.40032L13.3148 4.84373C13.3147 4.8432 13.3145 4.8425 13.3143 4.84165C13.3132 4.83662 13.3106 4.82625 13.3066 4.81131C13.2984 4.78126 13.2842 4.73377 13.2627 4.67478C13.2188 4.55467 13.1486 4.39882 13.0443 4.24756C12.8453 3.95896 12.5396 3.7 12 3.7C11.4603 3.7 11.1547 3.95897 10.9557 4.24756C10.8514 4.39882 10.7812 4.55467 10.7373 4.67477C10.7157 4.73376 10.7016 4.78126 10.6934 4.8113C10.6893 4.82624 10.6868 4.83661 10.6856 4.84164C10.6854 4.84249 10.6853 4.84319 10.6851 4.84372L10.5722 5.40031L8.99998 5.40031C8.61338 5.40031 8.29998 5.08691 8.29998 4.70031C8.29998 4.31371 8.61338 4.00031 8.99998 4.00031L9.50001 4.00031C9.57201 3.83531 9.67047 3.64516 9.80316 3.45275C10.1904 2.89119 10.8848 2.3 12 2.3C13.1152 2.29999 13.8095 2.89119 14.1968 3.45275C14.3295 3.64517 14.428 3.83531 14.5 4.00032L15 4.00032C15.3866 4.00032 15.7 4.31372 15.7 4.70032Z" fill="#222628"/>
</svg>
