<svg width="24" height="24" viewBox="0 0 24 24" fill="none" xmlns="http://www.w3.org/2000/svg">
<path d="M9.84835 21H14.1509C16.3002 21 18.0653 19.3015 18.1479 17.1537L18.5 8H5.5L5.85207 17.1537C5.93467 19.3015 7.69902 21 9.84835 21Z" fill="#C4C4C4" fill-opacity="0.4"/>
<path fill-rule="evenodd" clip-rule="evenodd" d="M5.47309 7.30051C5.85941 7.28566 6.18462 7.58678 6.19948 7.97309L6.55155 17.1268C6.6197 18.8989 8.07532 20.3 9.84834 20.3H14.1509C15.9241 20.3 17.3803 18.8987 17.4484 17.1268L17.8005 7.97309C17.8154 7.58678 18.1406 7.28566 18.5269 7.30051C18.9132 7.31537 19.2143 7.64059 19.1995 8.0269L18.8474 17.1806C18.7504 19.7042 16.6763 21.7 14.1509 21.7H9.84834C7.32272 21.7 5.24964 19.7041 5.15258 17.1806L4.80051 8.0269C4.78566 7.64059 5.08678 7.31537 5.47309 7.30051Z" fill="#222628"/>
<path fill-rule="evenodd" clip-rule="evenodd" d="M15.7 4.91486C15.7 5.30145 15.3866 5.61486 15 5.61486L13.4278 5.61486L13.3149 5.05827C13.3147 5.05773 13.3146 5.05704 13.3144 5.05619C13.3132 5.05116 13.3107 5.04079 13.3066 5.02585C13.2984 4.9958 13.2843 4.94831 13.2627 4.88931C13.2188 4.76921 13.1486 4.61336 13.0443 4.4621C12.8453 4.1735 12.5396 3.91454 12 3.91454C11.4604 3.91454 11.1547 4.17351 10.9557 4.4621C10.8514 4.61336 10.7812 4.76921 10.7373 4.88931C10.7158 4.9483 10.7016 4.99579 10.6934 5.02584C10.6894 5.04078 10.6868 5.05115 10.6857 5.05618C10.6855 5.05703 10.6853 5.05772 10.6852 5.05826L10.5722 5.61485L9.00001 5.61485C8.61341 5.61485 8.30001 5.30145 8.30001 4.91485C8.30001 4.52825 8.61341 4.21485 9.00001 4.21485L9.50004 4.21485C9.57204 4.04985 9.6705 3.8597 9.80319 3.66729C10.1905 3.10573 10.8848 2.51454 12 2.51454C13.1152 2.51453 13.8096 3.10573 14.1968 3.66729C14.3295 3.85971 14.428 4.04985 14.5 4.21486L15 4.21486C15.3866 4.21486 15.7 4.52826 15.7 4.91486Z" fill="#222628"/>
<path fill-rule="evenodd" clip-rule="evenodd" d="M14 13.3C14.3866 13.3 14.7 13.6134 14.7 14V16C14.7 16.3866 14.3866 16.7 14 16.7C13.6134 16.7 13.3 16.3866 13.3 16V14C13.3 13.6134 13.6134 13.3 14 13.3Z" fill="#222628"/>
<path fill-rule="evenodd" clip-rule="evenodd" d="M10 13.3C10.3866 13.3 10.7 13.6134 10.7 14V16C10.7 16.3866 10.3866 16.7 10 16.7C9.61341 16.7 9.30001 16.3866 9.30001 16V14C9.30001 13.6134 9.61341 13.3 10 13.3Z" fill="#222628"/>
<path fill-rule="evenodd" clip-rule="evenodd" d="M20.6973 5.76103C20.6636 6.14616 20.3241 6.43105 19.939 6.39735L18.2151 6.24651C14.0796 5.88464 9.9204 5.88464 5.78489 6.24651L4.06102 6.39735C3.67589 6.43105 3.33636 6.14616 3.30266 5.76103C3.26896 5.3759 3.55385 5.03638 3.93898 5.00268L5.66285 4.85184C9.87956 4.48287 14.1204 4.48287 18.3371 4.85184L20.061 5.00268C20.4461 5.03638 20.731 5.3759 20.6973 5.76103Z" fill="#222628"/>
</svg>
