<svg width="24" height="24" viewBox="0 0 24 24" fill="none" xmlns="http://www.w3.org/2000/svg">
<path opacity="0.4" d="M12 21C16.8294 21 21.4449 16.86 20.9657 11.5C20.7005 8.53416 19.6337 6.60056 17.3794 5L6.6206 5C4.36633 6.60056 3.2995 8.53416 3.03433 11.5C2.55512 16.86 7.1706 21 12 21Z" fill="#C4C4C4"/>
<path fill-rule="evenodd" clip-rule="evenodd" d="M12 20.3C16.478 20.3 20.7059 16.4555 20.2685 11.5623C20.1421 10.1493 19.8287 9.02445 19.3055 8.07619C18.7838 7.13061 18.0322 6.32202 16.9742 5.57078C16.6589 5.34696 16.5848 4.90999 16.8086 4.59476C17.0325 4.27954 17.4694 4.20543 17.7847 4.42925C18.9808 5.27856 19.8898 6.23706 20.5314 7.39987C21.1714 8.56002 21.5241 9.88489 21.6629 11.4377C22.1838 17.2645 17.1808 21.7 12 21.7C6.81918 21.7 1.81616 17.2645 2.33711 11.4377C2.47594 9.88489 2.82856 8.56002 3.46865 7.39987C4.11021 6.23706 5.01916 5.27856 6.21535 4.42925C6.53058 4.20543 6.96755 4.27954 7.19137 4.59476C7.41518 4.90999 7.34108 5.34696 7.02585 5.57078C5.96778 6.32202 5.21616 7.13061 4.69445 8.07619C4.17127 9.02445 3.85789 10.1493 3.73155 11.5623C3.29408 16.4555 7.52202 20.3 12 20.3Z" fill="#222628"/>
<path fill-rule="evenodd" clip-rule="evenodd" d="M12 1.29999C12.3866 1.29999 12.7 1.61339 12.7 1.99999V8.49999C12.7 8.88659 12.3866 9.19999 12 9.19999C11.6134 9.19999 11.3 8.88659 11.3 8.49999V1.99999C11.3 1.61339 11.6134 1.29999 12 1.29999Z" fill="#222628"/>
</svg>
