<svg width="24" height="24" viewBox="0 0 24 24" fill="none" xmlns="http://www.w3.org/2000/svg">
<path opacity="0.4" d="M2 11.3C2 8.67519 2 7.36278 2.66844 6.44275C2.88432 6.14562 3.14562 5.88432 3.44275 5.66844C4.36278 5 5.67519 5 8.3 5H15.7C18.3248 5 19.6372 5 20.5572 5.66844C20.8544 5.88432 21.1157 6.14562 21.3316 6.44275C22 7.36278 22 8.67519 22 11.3V11.7C22 14.3248 22 15.6372 21.3316 16.5572C21.1157 16.8544 20.8544 17.1157 20.5572 17.3316C19.6372 18 18.3248 18 15.7 18H8.3C5.67519 18 4.36278 18 3.44275 17.3316C3.14562 17.1157 2.88432 16.8544 2.66844 16.5572C2 15.6372 2 14.3248 2 11.7V11.3Z" fill="#C4C4C4"/>
<path fill-rule="evenodd" clip-rule="evenodd" d="M8.2587 4.29999H15.7413C17.0187 4.29998 18.0344 4.29997 18.8433 4.38762C19.6741 4.47762 20.3695 4.66675 20.9687 5.10212C21.3253 5.36117 21.6388 5.67473 21.8979 6.03129C22.3332 6.63052 22.5224 7.32591 22.6124 8.15667C22.7 8.96565 22.7 9.98134 22.7 11.2587V11.7412C22.7 13.0186 22.7 14.0343 22.6124 14.8433C22.5224 15.6741 22.3332 16.3695 21.8979 16.9687C21.6388 17.3252 21.3253 17.6388 20.9687 17.8979C20.3695 18.3332 19.6741 18.5224 18.8433 18.6124C18.0344 18.7 17.0187 18.7 15.7413 18.7H8.25868C6.98131 18.7 5.96565 18.7 5.15669 18.6124C4.32592 18.5224 3.63054 18.3332 3.03131 17.8979C2.67475 17.6388 2.36119 17.3252 2.10213 16.9687C1.66677 16.3695 1.47764 15.6741 1.38763 14.8433C1.29999 14.0343 1.29999 13.0187 1.3 11.7413V11.2587C1.29999 9.98131 1.29999 8.96564 1.38763 8.15667C1.47764 7.32591 1.66677 6.63052 2.10213 6.03129C2.36119 5.67473 2.67475 5.36117 3.03131 5.10212C3.63054 4.66675 4.32592 4.47762 5.15669 4.38762C5.96565 4.29997 6.98132 4.29998 8.2587 4.29999ZM5.30748 5.77947C4.59584 5.85657 4.175 6.00167 3.8542 6.23474C3.6165 6.40744 3.40746 6.61648 3.23476 6.85419C3.00168 7.17499 2.85659 7.59582 2.77949 8.30747C2.70096 9.03222 2.7 9.97199 2.7 11.3V11.7C2.7 13.028 2.70096 13.9678 2.77949 14.6925C2.85659 15.4042 3.00168 15.825 3.23476 16.1458C3.40746 16.3835 3.6165 16.5925 3.8542 16.7652C4.175 16.9983 4.59584 17.1434 5.30748 17.2205C6.03223 17.299 6.972 17.3 8.3 17.3H15.7C17.028 17.3 17.9678 17.299 18.6925 17.2205C19.4042 17.1434 19.825 16.9983 20.1458 16.7652C20.3835 16.5925 20.5925 16.3835 20.7653 16.1458C20.9983 15.825 21.1434 15.4042 21.2205 14.6925C21.299 13.9678 21.3 13.028 21.3 11.7V11.3C21.3 9.97199 21.299 9.03222 21.2205 8.30747C21.1434 7.59582 20.9983 7.17499 20.7653 6.85419C20.5925 6.61648 20.3835 6.40744 20.1458 6.23474C19.825 6.00167 19.4042 5.85657 18.6925 5.77947C17.9678 5.70095 17.028 5.69999 15.7 5.69999H8.3C6.972 5.69999 6.03223 5.70095 5.30748 5.77947Z" fill="#222628"/>
<path fill-rule="evenodd" clip-rule="evenodd" d="M16.495 17.505C16.7684 17.2317 17.2116 17.2317 17.4849 17.505L19.495 19.5151C19.7684 19.7885 19.7684 20.2317 19.495 20.505C19.2216 20.7784 18.7784 20.7784 18.505 20.505L16.495 18.495C16.2216 18.2216 16.2216 17.7784 16.495 17.505Z" fill="#222628"/>
<path fill-rule="evenodd" clip-rule="evenodd" d="M14.495 2.49495C14.7684 2.76832 14.7684 3.21154 14.495 3.4849L12.4849 5.49495C12.2116 5.76832 11.7684 5.76832 11.495 5.49495C11.2216 5.22159 11.2216 4.77837 11.495 4.505L13.505 2.49495C13.7784 2.22159 14.2216 2.22159 14.495 2.49495Z" fill="#222628"/>
<path fill-rule="evenodd" clip-rule="evenodd" d="M4.50503 20.505C4.23166 20.2317 4.23166 19.7885 4.50503 19.5151L6.51508 17.505C6.78845 17.2317 7.23166 17.2317 7.50503 17.505C7.7784 17.7784 7.7784 18.2216 7.50503 18.495L5.49498 20.505C5.22161 20.7784 4.7784 20.7784 4.50503 20.505Z" fill="#222628"/>
<path fill-rule="evenodd" clip-rule="evenodd" d="M12.505 5.49495C12.2317 5.76832 11.7884 5.76832 11.5151 5.49495L9.50503 3.4849C9.23166 3.21154 9.23166 2.76832 9.50503 2.49495C9.7784 2.22159 10.2216 2.22159 10.495 2.49495L12.505 4.50501C12.7784 4.77837 12.7784 5.22159 12.505 5.49495Z" fill="#222628"/>
</svg>
