<svg width="24" height="24" viewBox="0 0 24 24" fill="none" xmlns="http://www.w3.org/2000/svg">
<path opacity="0.4" d="M3.54151 15.4983C3.45839 14.5009 3.41684 14.0022 3.45089 13.5892C3.63898 11.3076 5.35265 9.44516 7.61078 9.06823C8.01955 9 8.51996 9 9.52078 9H14.4792C15.48 9 15.9804 9 16.3892 9.06823C18.6473 9.44516 20.361 11.3076 20.5491 13.5892C20.5831 14.0022 20.5416 14.5009 20.4585 15.4983C20.3869 16.3571 20.3511 16.7865 20.2655 17.1492C19.7956 19.1387 18.1621 20.6418 16.1404 20.9448C15.7719 21 15.341 21 14.4792 21H12H9.52078C8.65896 21 8.22805 21 7.85956 20.9448C5.83792 20.6418 4.20433 19.1387 3.7345 17.1492C3.64886 16.7865 3.61308 16.3571 3.54151 15.4983Z" fill="#C4C4C4"/>
<path fill-rule="evenodd" clip-rule="evenodd" d="M9.43734 8.30002C9.46483 8.30002 9.49266 8.30003 9.52081 8.30003L14.5627 8.30002C15.4841 8.29995 16.0378 8.29991 16.5045 8.37781C19.0787 8.8075 21.0323 10.9307 21.2467 13.5317C21.2856 14.0032 21.2396 14.555 21.163 15.4732L21.1502 15.6266C21.0843 16.4186 21.0445 16.8961 20.9468 17.3101C20.4112 19.5781 18.5489 21.2917 16.2442 21.6371C15.8235 21.7001 15.3444 21.7001 14.5496 21.7H9.4504C8.6556 21.7001 8.17649 21.7001 7.75584 21.6371C5.45117 21.2917 3.58888 19.5781 3.05327 17.3101C2.95551 16.8961 2.91575 16.4187 2.8498 15.6266C2.84787 15.6035 2.84593 15.5801 2.84396 15.5564C2.84162 15.5284 2.8393 15.5006 2.83702 15.4733C2.76043 14.555 2.71441 14.0032 2.75328 13.5317C2.96771 10.9307 4.9213 8.8075 7.49556 8.37781C7.96224 8.29991 8.51589 8.29995 9.43734 8.30002ZM9.52081 9.70003C8.49097 9.70003 8.063 9.70246 7.72606 9.75871C5.78407 10.0829 4.31031 11.6845 4.14855 13.6467C4.12048 13.9872 4.1536 14.4139 4.23912 15.4402C4.31274 16.3236 4.34513 16.6891 4.41579 16.9883C4.81984 18.6993 6.22473 19.992 7.96334 20.2525C8.26738 20.2981 8.63436 20.3 9.52081 20.3H14.4792C15.3657 20.3 15.7326 20.2981 16.0367 20.2525C17.7753 19.992 19.1802 18.6993 19.5842 16.9883C19.6549 16.6891 19.6873 16.3236 19.7609 15.4402C19.8464 14.4139 19.8795 13.9872 19.8515 13.6467C19.6897 11.6845 18.216 10.0829 16.274 9.75871C15.937 9.70246 15.5091 9.70003 14.4792 9.70003H9.52081Z" fill="#222628"/>
<path fill-rule="evenodd" clip-rule="evenodd" d="M9.67555 8.81672C9.77636 9.1881 9.55831 9.57162 9.187 9.67457C8.81446 9.77787 8.42872 9.5596 8.32542 9.18705L8.99997 9.00002C8.32542 9.18705 8.32553 9.18743 8.32542 9.18705L8.32499 9.1855L8.32449 9.18367L8.32329 9.17924L8.32014 9.16727C8.31772 9.15792 8.31469 9.14584 8.31118 9.13115C8.30416 9.1018 8.29521 9.06195 8.28545 9.01257C8.26597 8.91396 8.24312 8.77652 8.2261 8.60819C8.19221 8.27292 8.18058 7.80651 8.26991 7.27612C8.45181 6.19608 9.05034 4.88167 10.6321 3.90449C10.6499 3.89348 10.6682 3.88328 10.687 3.87391C12.4185 3.00814 13.9033 3.29401 14.9381 3.81142C15.4453 4.06505 15.8405 4.37097 16.1089 4.61253C16.2438 4.73395 16.3488 4.84101 16.422 4.9201C16.4586 4.9597 16.4875 4.99248 16.5083 5.01676C16.5187 5.0289 16.5271 5.03894 16.5335 5.04667L16.5416 5.05651L16.5445 5.06008L16.5457 5.06152C16.5459 5.06182 16.5466 5.06273 16.0021 5.49835L16.5466 5.06273C16.7881 5.36462 16.7392 5.80512 16.4373 6.04663C16.1362 6.28749 15.6973 6.23945 15.4554 5.93973C15.4554 5.93973 15.4554 5.93973 15.4554 5.93973C15.4549 5.9391 15.4543 5.93847 15.4538 5.93784C15.4538 5.93783 15.4538 5.93784 15.4538 5.93784M15.4538 5.93784C15.4543 5.93847 15.4549 5.9391 15.4554 5.93973L15.4453 5.92786C15.4354 5.91626 15.4183 5.89679 15.3944 5.87096C15.3465 5.81919 15.2718 5.74265 15.1724 5.65314C14.972 5.47282 14.6797 5.24749 14.312 5.06362C13.6021 4.70867 12.5965 4.49507 11.3412 5.11218C10.1709 5.84539 9.77445 6.77249 9.65047 7.50863C9.58639 7.88913 9.59465 8.22654 9.619 8.46737C9.63111 8.58709 9.64696 8.68077 9.65891 8.74127C9.66487 8.77145 9.66982 8.79314 9.67276 8.80545" fill="#222628"/>
<path fill-rule="evenodd" clip-rule="evenodd" d="M12 17.7C11.6134 17.7 11.3 17.3866 11.3 17L11.3 15C11.3 14.6134 11.6134 14.3 12 14.3C12.3866 14.3 12.7 14.6134 12.7 15L12.7 17C12.7 17.3866 12.3866 17.7 12 17.7Z" fill="#222628"/>
</svg>
