<svg width="24" height="24" viewBox="0 0 24 24" fill="none" xmlns="http://www.w3.org/2000/svg">
<path opacity="0.4" d="M2 12.5C2 10.1654 2 8.99805 2.47231 8.11441C2.84525 7.4167 3.4167 6.84525 4.11441 6.47231C4.99805 6 6.16537 6 8.5 6C10.8346 6 12.0019 6 12.8856 6.47231C13.5833 6.84525 14.1548 7.4167 14.5277 8.11441C15 8.99805 15 10.1654 15 12.5C15 14.8346 15 16.0019 14.5277 16.8856C14.1548 17.5833 13.5833 18.1548 12.8856 18.5277C12.0019 19 10.8346 19 8.5 19C6.16537 19 4.99805 19 4.11441 18.5277C3.4167 18.1548 2.84525 17.5833 2.47231 16.8856C2 16.0019 2 14.8346 2 12.5Z" fill="#C4C4C4"/>
<path fill-rule="evenodd" clip-rule="evenodd" d="M8.46768 5.29999H8.53229C9.67224 5.29998 10.5724 5.29998 11.2962 5.36155C12.0356 5.42443 12.655 5.55536 13.2156 5.85496C14.0354 6.29316 14.7068 6.96461 15.145 7.78442C15.4446 8.34493 15.5755 8.96439 15.6384 9.70375C15.7 10.4276 15.7 11.3277 15.7 12.4677V12.5323C15.7 13.6722 15.7 14.5724 15.6384 15.2962C15.5755 16.0356 15.4446 16.655 15.145 17.2156C14.7068 18.0354 14.0354 18.7068 13.2156 19.145C12.655 19.4446 12.0356 19.5755 11.2962 19.6384C10.5724 19.7 9.67225 19.7 8.53229 19.7H8.46768C7.32773 19.7 6.42758 19.7 5.70375 19.6384C4.96439 19.5755 4.34493 19.4446 3.78442 19.145C2.96461 18.7068 2.29316 18.0354 1.85496 17.2156C1.55536 16.655 1.42443 16.0356 1.36155 15.2962C1.29998 14.5724 1.29998 13.6722 1.29999 12.5323V12.4677C1.29998 11.3277 1.29998 10.4276 1.36155 9.70375C1.42443 8.96439 1.55536 8.34493 1.85496 7.78442C2.29316 6.96461 2.96461 6.29316 3.78442 5.85496C4.34493 5.55536 4.96439 5.42443 5.70375 5.36155C6.42758 5.29998 7.32773 5.29998 8.46768 5.29999ZM5.8224 6.75651C5.17353 6.8117 4.76751 6.91693 4.44438 7.08965C3.86877 7.39732 3.39732 7.86877 3.08965 8.44438C2.91693 8.76751 2.8117 9.17353 2.75651 9.8224C2.70058 10.48 2.69999 11.3206 2.69999 12.5C2.69999 13.6794 2.70058 14.52 2.75651 15.1776C2.8117 15.8264 2.91693 16.2325 3.08965 16.5556C3.39732 17.1312 3.86877 17.6027 4.44438 17.9103C4.76751 18.083 5.17353 18.1883 5.8224 18.2435C6.47996 18.2994 7.32062 18.3 8.49999 18.3C9.67935 18.3 10.52 18.2994 11.1776 18.2435C11.8264 18.1883 12.2325 18.083 12.5556 17.9103C13.1312 17.6027 13.6027 17.1312 13.9103 16.5556C14.083 16.2325 14.1883 15.8264 14.2435 15.1776C14.2994 14.52 14.3 13.6794 14.3 12.5C14.3 11.3206 14.2994 10.48 14.2435 9.8224C14.1883 9.17353 14.083 8.76751 13.9103 8.44438C13.6027 7.86877 13.1312 7.39732 12.5556 7.08965C12.2325 6.91693 11.8264 6.8117 11.1776 6.75651C10.52 6.70058 9.67935 6.69999 8.49999 6.69999C7.32062 6.69999 6.47996 6.70058 5.8224 6.75651Z" fill="#222628"/>
<path fill-rule="evenodd" clip-rule="evenodd" d="M20.3 8.98902C20.3 8.39554 19.6078 8.07133 19.1519 8.45127L15.4481 11.5377C15.1511 11.7852 14.7097 11.7451 14.4622 11.4481C14.2148 11.1511 14.2549 10.7097 14.5519 10.4622L18.2556 7.37576C19.6234 6.23593 21.7 7.20857 21.7 8.98902V16.384C21.7 18.0613 19.8307 19.0617 18.4351 18.1313L14.6117 15.5824C14.29 15.368 14.2031 14.9333 14.4176 14.6117C14.632 14.29 15.0666 14.2031 15.3883 14.4175L19.2117 16.9665C19.6769 17.2766 20.3 16.9431 20.3 16.384V8.98902Z" fill="#222628"/>
</svg>
