<svg width="24" height="24" viewBox="0 0 24 24" fill="none" xmlns="http://www.w3.org/2000/svg">
<path d="M9.54615 16H7.5C6.11929 16 5 14.8807 5 13.5V12.7381V11.0408C5 9.66009 6.11929 8.5408 7.5 8.5408H8.45301C9.92199 8.5408 11.1153 7.33024 12.2008 6.34042C12.723 5.86415 13.4618 5.5 14.5 5.5C16.5 5.5 17 7.42857 17 7.42857L9.54615 16Z" fill="#C4C4C4" fill-opacity="0.4"/>
<path fill-rule="evenodd" clip-rule="evenodd" d="M11.7291 5.82317C12.3745 5.23464 13.2796 4.79999 14.5 4.79999C15.7641 4.79999 16.5775 5.42382 17.0525 6.03452C17.2851 6.33348 17.438 6.62925 17.5332 6.84956C17.5812 6.96058 17.6155 7.05491 17.6387 7.12433C17.6503 7.15911 17.6591 7.18786 17.6655 7.20956L17.6733 7.2368L17.6758 7.24628L17.6768 7.24995L17.6772 7.25151C17.6773 7.25184 17.6776 7.25289 17 7.42856L17.6776 7.25289C17.7746 7.62711 17.5499 8.00914 17.1757 8.10616C16.803 8.20278 16.4226 7.98032 16.3236 7.60888L16.3223 7.60424C16.3204 7.59769 16.3165 7.585 16.3105 7.56705C16.2985 7.531 16.2782 7.47466 16.248 7.40488C16.187 7.26358 16.0899 7.07721 15.9474 6.89403C15.6724 6.54044 15.2359 6.19999 14.5 6.19999C13.6441 6.19999 13.0716 6.49364 12.6724 6.85764C12.5943 6.92892 12.5139 7.00296 12.4315 7.07888C11.9661 7.50756 11.4356 7.99626 10.8684 8.38785C10.1915 8.85512 9.38638 9.24079 8.45299 9.24079H7.49999C6.50588 9.24079 5.69999 10.0467 5.69999 11.0408V13.5C5.69999 14.4941 6.50588 15.3 7.49999 15.3H9.54614C9.93274 15.3 10.2461 15.6134 10.2461 16C10.2461 16.3866 9.93274 16.7 9.54614 16.7H7.49999C5.73268 16.7 4.29999 15.2673 4.29999 13.5V11.0408C4.29999 9.27348 5.73268 7.84079 7.49999 7.84079H8.45299C8.98859 7.84079 9.51465 7.62117 10.073 7.23571C10.5522 6.90496 10.9993 6.49375 11.4674 6.06317C11.5538 5.98371 11.6409 5.90358 11.7291 5.82317Z" fill="#222628"/>
<path fill-rule="evenodd" clip-rule="evenodd" d="M19.5315 4.45555C19.825 4.70714 19.859 5.14905 19.6074 5.44258L8.51851 18.3796C8.26692 18.6731 7.82501 18.7071 7.53148 18.4555C7.23795 18.204 7.20396 17.762 7.45555 17.4685L18.5444 4.53147C18.796 4.23795 19.238 4.20395 19.5315 4.45555Z" fill="#222628"/>
<path fill-rule="evenodd" clip-rule="evenodd" d="M17 11.3C17.3866 11.3 17.7 11.6134 17.7 12V16.0978C17.7 19.6866 13.1668 21.2544 10.9496 18.4325C10.7107 18.1285 10.7635 17.6884 11.0675 17.4496C11.3715 17.2107 11.8116 17.2635 12.0504 17.5675C13.4462 19.344 16.3 18.357 16.3 16.0978V12C16.3 11.6134 16.6134 11.3 17 11.3Z" fill="#222628"/>
</svg>
