<svg width="24" height="24" viewBox="0 0 24 24" fill="none" xmlns="http://www.w3.org/2000/svg">
<path opacity="0.4" d="M7.09558 15.6959H5.60757C4.16745 15.6959 3 14.5285 3 13.0884V12V9.97321C3 8.46607 4.22178 7.24429 5.72892 7.24429H7.19092C8.08688 7.24429 8.93973 6.85974 9.53293 6.18829C11.4386 4.03126 15 5.37912 15 8.25735V12V15.0203C15 17.9396 11.3004 19.1998 9.51837 16.8875C8.93925 16.1361 8.04426 15.6959 7.09558 15.6959Z" fill="#C4C4C4"/>
<path fill-rule="evenodd" clip-rule="evenodd" d="M14.3 8.25734C14.3 6.02382 11.5363 4.97788 10.0575 6.65174C9.33145 7.47359 8.28755 7.94428 7.19091 7.94428H5.72891C4.60837 7.94428 3.69999 8.85266 3.69999 9.9732V13.0884C3.69999 14.1419 4.55404 14.9959 5.60756 14.9959H7.09557C8.26135 14.9959 9.36115 15.5368 10.0728 16.4602C11.4471 18.2433 14.3 17.2715 14.3 15.0203V8.25734ZM9.00832 5.72481C11.3408 3.08463 15.7 4.7344 15.7 8.25734V15.0203C15.7 18.6076 11.1538 20.1562 8.96391 17.3148C8.51732 16.7354 7.82715 16.3959 7.09557 16.3959H5.60756C3.78084 16.3959 2.29999 14.9151 2.29999 13.0884V9.9732C2.29999 8.07946 3.83517 6.54428 5.72891 6.54428H7.19091C7.88617 6.54428 8.548 6.24586 9.00832 5.72481Z" fill="#222628"/>
<path fill-rule="evenodd" clip-rule="evenodd" d="M21.3234 9.50503C21.5968 9.77839 21.5968 10.2216 21.3234 10.495L18.495 13.3234C18.2216 13.5968 17.7784 13.5968 17.505 13.3234C17.2316 13.05 17.2316 12.6068 17.505 12.3335L20.3334 9.50503C20.6068 9.23166 21.05 9.23166 21.3234 9.50503Z" fill="#222628"/>
<path fill-rule="evenodd" clip-rule="evenodd" d="M20.3335 13.3234L17.505 10.495C17.2317 10.2216 17.2317 9.77838 17.505 9.50502C17.7784 9.23165 18.2216 9.23165 18.495 9.50502L21.3234 12.3334C21.5968 12.6068 21.5968 13.05 21.3234 13.3234C21.05 13.5968 20.6068 13.5968 20.3335 13.3234Z" fill="#222628"/>
</svg>
