<svg width="24" height="24" viewBox="0 0 24 24" fill="none" xmlns="http://www.w3.org/2000/svg">
<path d="M7.09558 15.6959H5.60757C4.16745 15.6959 3 14.5285 3 13.0884V12V9.97321C3 8.46607 4.22178 7.24429 5.72892 7.24429H7.19092C8.08688 7.24429 8.93973 6.85974 9.53293 6.18829C11.4386 4.03126 15 5.37912 15 8.25735V12V15.0203C15 17.9396 11.3004 19.1998 9.51837 16.8875C8.93925 16.1361 8.04426 15.6959 7.09558 15.6959Z" fill="#C4C4C4" fill-opacity="0.4"/>
<path fill-rule="evenodd" clip-rule="evenodd" d="M14.3 8.25734C14.3 6.02382 11.5363 4.97788 10.0575 6.65174C9.33145 7.47359 8.28755 7.94428 7.19091 7.94428H5.72891C4.60837 7.94428 3.69999 8.85266 3.69999 9.9732V13.0884C3.69999 14.1419 4.55404 14.9959 5.60756 14.9959H7.09557C8.26135 14.9959 9.36115 15.5368 10.0728 16.4602C11.4471 18.2433 14.3 17.2715 14.3 15.0203V8.25734ZM9.00832 5.72481C11.3408 3.08463 15.7 4.7344 15.7 8.25734V15.0203C15.7 18.6076 11.1538 20.1562 8.96391 17.3148C8.51732 16.7354 7.82715 16.3959 7.09557 16.3959H5.60756C3.78084 16.3959 2.29999 14.9151 2.29999 13.0884V9.9732C2.29999 8.07946 3.83517 6.54428 5.72891 6.54428H7.19091C7.88617 6.54428 8.548 6.24586 9.00832 5.72481Z" fill="#222628"/>
<path fill-rule="evenodd" clip-rule="evenodd" d="M17.0662 10.0494C16.766 9.81248 16.7112 9.37758 16.9449 9.07348C17.1805 8.76693 17.62 8.70938 17.9265 8.94494L17.5 9.49992C17.9265 8.94494 17.9268 8.94517 17.9271 8.9454L17.9277 8.94588L17.929 8.94691L17.932 8.94918L17.9389 8.95467L17.957 8.96939C17.9709 8.98087 17.9884 8.99574 18.0089 9.01404C18.05 9.05063 18.1033 9.10113 18.1647 9.16605C18.2874 9.29573 18.4434 9.48419 18.5971 9.73529C18.907 10.2418 19.2 10.9918 19.2 12C19.2 13.0082 18.907 13.7582 18.5971 14.2647C18.4434 14.5158 18.2874 14.7043 18.1647 14.8339C18.1033 14.8989 18.05 14.9494 18.0089 14.9859C17.9884 15.0042 17.9709 15.0191 17.957 15.0306L17.9389 15.0453L17.932 15.0508L17.929 15.0531L17.9277 15.0541L17.9271 15.0546C17.9268 15.0548 17.9265 15.055 17.5 14.5L17.9265 15.055C17.62 15.2906 17.1805 15.2331 16.9449 14.9265C16.7112 14.6224 16.766 14.1875 17.0662 13.9506C17.0684 13.9489 17.0705 13.9472 17.0727 13.9455C17.0728 13.9455 17.0728 13.9454 17.0729 13.9454C17.0729 13.9454 17.0729 13.9454 17.0729 13.9454L17.0727 13.9455L17.0723 13.9458L17.0713 13.9466L17.0694 13.9481L17.0668 13.9502C17.0655 13.9512 17.065 13.9516 17.0654 13.9513C17.0655 13.9512 17.0658 13.9509 17.0662 13.9506C17.0678 13.9493 17.0715 13.9461 17.077 13.9412C17.0906 13.929 17.1154 13.906 17.1477 13.8718C17.2125 13.8033 17.3065 13.6914 17.4029 13.534C17.593 13.2233 17.8 12.7234 17.8 12C17.8 11.2766 17.593 10.7767 17.4029 10.466C17.3065 10.3086 17.2125 10.1967 17.1477 10.1282C17.1154 10.094 17.0906 10.0709 17.077 10.0587C17.0715 10.0538 17.0678 10.0507 17.0662 10.0494Z" fill="#222628"/>
<path fill-rule="evenodd" clip-rule="evenodd" d="M19.5557 8.54092C19.5543 8.53981 19.553 8.5387 19.5516 8.53758C19.5521 8.53801 19.5529 8.53871 19.554 8.53967C19.5585 8.54366 19.5681 8.55219 19.5819 8.56535C19.6096 8.59168 19.6543 8.63635 19.7107 8.69988C19.8234 8.82703 19.9818 9.02878 20.1428 9.30939C20.4625 9.86667 20.8 10.7476 20.8 12C20.8 13.2524 20.4625 14.1333 20.1428 14.6906C19.9818 14.9712 19.8234 15.173 19.7107 15.3001C19.6543 15.3637 19.6096 15.4083 19.5819 15.4347C19.5681 15.4478 19.5585 15.4564 19.554 15.4603C19.5529 15.4613 19.5521 15.462 19.5516 15.4624C19.5529 15.4613 19.5543 15.4603 19.5556 15.4592C19.5556 15.4591 19.5556 15.4591 19.5557 15.4591C19.5557 15.4591 19.5557 15.4591 19.5557 15.4591L19.5556 15.4592L19.5551 15.4595L19.5542 15.4603L19.5526 15.4616L19.5511 15.4629L19.551 15.4629C19.551 15.4629 19.5512 15.4628 19.5516 15.4624C19.2568 15.7083 19.2148 16.1463 19.4586 16.4438C19.7037 16.7427 20.1447 16.7865 20.4437 16.5414L20 16C20.4437 16.5414 20.444 16.5411 20.4443 16.5409L20.445 16.5404L20.4463 16.5392L20.4495 16.5366L20.4575 16.5299L20.4796 16.5107C20.4971 16.4953 20.5198 16.4747 20.547 16.4489C20.6013 16.3971 20.6738 16.3241 20.7581 16.2291C20.9265 16.0391 21.1431 15.7604 21.3572 15.3873C21.7875 14.6372 22.2 13.5181 22.2 12C22.2 10.4819 21.7875 9.36283 21.3572 8.61274C21.1431 8.23966 20.9265 7.96088 20.7581 7.77092C20.6738 7.6759 20.6013 7.60288 20.547 7.55115C20.5198 7.52528 20.4971 7.50469 20.4796 7.48931L20.4575 7.47012L20.4495 7.46341L20.4463 7.46078L20.445 7.45965L20.4443 7.45912C20.444 7.45887 20.4437 7.45863 20 8.00001L20.4437 7.45863C20.1447 7.21356 19.7037 7.25727 19.4586 7.55627C19.2148 7.85372 19.2568 8.29176 19.5516 8.53757C19.5511 8.53713 19.5509 8.53698 19.5511 8.53712L19.5526 8.53841L19.5542 8.53968L19.5551 8.54048L19.5557 8.54092Z" fill="#222628"/>
</svg>
