<svg width="24" height="24" viewBox="0 0 24 24" fill="none" xmlns="http://www.w3.org/2000/svg">
<path opacity="0.4" d="M10.0956 15.6959H8.60757C7.16745 15.6959 6 14.5285 6 13.0884V12V9.97321C6 8.46607 7.22178 7.24429 8.72892 7.24429H10.1909C11.0869 7.24429 11.9397 6.85974 12.5329 6.18829C14.4386 4.03126 18 5.37912 18 8.25735V12V15.0203C18 17.9396 14.3004 19.1998 12.5184 16.8875C11.9392 16.1361 11.0443 15.6959 10.0956 15.6959Z" fill="#C4C4C4"/>
<path fill-rule="evenodd" clip-rule="evenodd" d="M17.3 8.25734C17.3 6.02382 14.5363 4.97788 13.0575 6.65174C12.3315 7.47359 11.2876 7.94428 10.1909 7.94428H8.72893C7.60838 7.94428 6.7 8.85266 6.7 9.9732V13.0884C6.7 14.1419 7.55405 14.9959 8.60757 14.9959H10.0956C11.2614 14.9959 12.3612 15.5368 13.0728 16.4602C14.4471 18.2433 17.3 17.2715 17.3 15.0203V8.25734ZM12.0083 5.72481C14.3408 3.08463 18.7 4.7344 18.7 8.25734V15.0203C18.7 18.6076 14.1538 20.1562 11.9639 17.3148C11.5173 16.7354 10.8272 16.3959 10.0956 16.3959H8.60757C6.78085 16.3959 5.3 14.9151 5.3 13.0884V9.9732C5.3 8.07946 6.83518 6.54428 8.72893 6.54428H10.1909C10.8862 6.54428 11.548 6.24586 12.0083 5.72481Z" fill="#222628"/>
</svg>
