<svg width="24" height="24" viewBox="0 0 24 24" fill="none" xmlns="http://www.w3.org/2000/svg">
<path opacity="0.4" d="M2 12C2 8.25027 2 6.3754 2.95492 5.06107C3.26331 4.6366 3.6366 4.26331 4.06107 3.95492C5.3754 3 7.25027 3 11 3H13C16.7497 3 18.6246 3 19.9389 3.95492C20.3634 4.26331 20.7367 4.6366 21.0451 5.06107C22 6.3754 22 8.25027 22 12C22 15.7497 22 17.6246 21.0451 18.9389C20.7367 19.3634 20.3634 19.7367 19.9389 20.0451C18.6246 21 16.7497 21 13 21H11C7.25027 21 5.3754 21 4.06107 20.0451C3.6366 19.7367 3.26331 19.3634 2.95492 18.9389C2 17.6246 2 15.7497 2 12Z" fill="#C4C4C4"/>
<path fill-rule="evenodd" clip-rule="evenodd" d="M10.9576 2.29999H13.0424C14.8813 2.29998 16.3187 2.29997 17.4581 2.42342C18.6194 2.54924 19.554 2.80999 20.3504 3.38859C20.8343 3.74016 21.2598 4.16571 21.6114 4.64961C22.19 5.44599 22.4507 6.38057 22.5766 7.54185C22.7 8.6813 22.7 10.1187 22.7 11.9576V12.0424C22.7 13.8813 22.7 15.3187 22.5766 16.4581C22.4507 17.6194 22.19 18.554 21.6114 19.3504C21.2598 19.8343 20.8343 20.2598 20.3504 20.6114C19.554 21.19 18.6194 21.4507 17.4581 21.5766C16.3187 21.7 14.8813 21.7 13.0424 21.7H10.9576C9.11866 21.7 7.6813 21.7 6.54185 21.5766C5.38057 21.4507 4.44599 21.19 3.64961 20.6114C3.16571 20.2598 2.74016 19.8343 2.38859 19.3504C1.80999 18.554 1.54924 17.6194 1.42342 16.4581C1.29997 15.3187 1.29998 13.8813 1.29999 12.0424V11.9576C1.29998 10.1186 1.29997 8.68128 1.42342 7.54185C1.54924 6.38057 1.80999 5.44599 2.38859 4.64961C2.74016 4.16571 3.16571 3.74016 3.64961 3.38859C4.44599 2.80999 5.38057 2.54924 6.54185 2.42342C7.68128 2.29997 9.11863 2.29998 10.9576 2.29999ZM6.69265 3.81528C5.65048 3.92819 4.99046 4.1449 4.47251 4.52121C4.10746 4.78644 3.78644 5.10746 3.52121 5.47251C3.1449 5.99046 2.92819 6.65048 2.81528 7.69265C2.70095 8.74791 2.69999 10.1095 2.69999 12C2.69999 13.8904 2.70095 15.2521 2.81528 16.3073C2.92819 17.3495 3.1449 18.0095 3.52121 18.5275C3.78644 18.8925 4.10746 19.2135 4.47251 19.4788C4.99046 19.8551 5.65048 20.0718 6.69265 20.1847C7.74791 20.299 9.10953 20.3 11 20.3H13C14.8904 20.3 16.2521 20.299 17.3073 20.1847C18.3495 20.0718 19.0095 19.8551 19.5275 19.4788C19.8925 19.2135 20.2135 18.8925 20.4788 18.5275C20.8551 18.0095 21.0718 17.3495 21.1847 16.3073C21.299 15.2521 21.3 13.8904 21.3 12C21.3 10.1095 21.299 8.74791 21.1847 7.69265C21.0718 6.65048 20.8551 5.99046 20.4788 5.47251C20.2135 5.10746 19.8925 4.78644 19.5275 4.52121C19.0095 4.1449 18.3495 3.92819 17.3073 3.81528C16.2521 3.70095 14.8904 3.69999 13 3.69999H11C9.10953 3.69999 7.74791 3.70095 6.69265 3.81528Z" fill="#222628"/>
<path fill-rule="evenodd" clip-rule="evenodd" d="M16.3 11.5C16.3 9.73268 17.7327 8.29999 19.5 8.29999H21.5283C22.1754 8.29999 22.7 8.82457 22.7 9.47169V13.8979C22.7 14.3409 22.3409 14.7 21.8979 14.7H19.5C17.7327 14.7 16.3 13.2673 16.3 11.5ZM19.5 9.69999C18.5059 9.69999 17.7 10.5059 17.7 11.5C17.7 12.4941 18.5059 13.3 19.5 13.3H21.3V9.69999H19.5Z" fill="#222628"/>
<path fill-rule="evenodd" clip-rule="evenodd" d="M6 16.3C6 15.9134 6.3134 15.6 6.7 15.6H9.3C9.6866 15.6 10 15.9134 10 16.3C10 16.6866 9.6866 17 9.3 17H6.7C6.3134 17 6 16.6866 6 16.3Z" fill="#222628"/>
</svg>
