<svg width="24" height="24" viewBox="0 0 24 24" fill="none" xmlns="http://www.w3.org/2000/svg">
<path opacity="0.4" d="M6 9.6C6 8.10011 6 7.35016 6.38197 6.82443C6.50533 6.65464 6.65464 6.50533 6.82443 6.38197C7.35016 6 8.10011 6 9.6 6H14.4C15.8999 6 16.6498 6 17.1756 6.38197C17.3454 6.50533 17.4947 6.65464 17.618 6.82443C18 7.35016 18 8.10011 18 9.6V14.4C18 15.8999 18 16.6498 17.618 17.1756C17.4947 17.3454 17.3454 17.4947 17.1756 17.618C16.6498 18 15.8999 18 14.4 18H9.6C8.10011 18 7.35016 18 6.82443 17.618C6.65464 17.4947 6.50533 17.3454 6.38197 17.1756C6 16.6498 6 15.8999 6 14.4V9.6Z" fill="#C4C4C4"/>
<path fill-rule="evenodd" clip-rule="evenodd" d="M9.56129 5.29999H14.4387C15.1557 5.29997 15.7499 5.29996 16.2285 5.35181C16.7287 5.40601 17.1849 5.52351 17.587 5.81564C17.8162 5.98218 18.0178 6.18375 18.1843 6.41297C18.4765 6.81505 18.594 7.27125 18.6482 7.77149C18.7 8.25005 18.7 8.84427 18.7 9.56127V14.4387C18.7 15.1557 18.7 15.7499 18.6482 16.2285C18.594 16.7287 18.4765 17.1849 18.1843 17.587C18.0178 17.8162 17.8162 18.0178 17.587 18.1843C17.1849 18.4765 16.7287 18.594 16.2285 18.6482C15.7499 18.7 15.1557 18.7 14.4387 18.7H9.56127C8.84427 18.7 8.25005 18.7 7.77149 18.6482C7.27125 18.594 6.81505 18.4765 6.41297 18.1843C6.18375 18.0178 5.98218 17.8162 5.81564 17.587C5.52351 17.1849 5.40601 16.7287 5.35181 16.2285C5.29996 15.7499 5.29997 15.1557 5.29999 14.4387V9.56129C5.29997 8.84428 5.29996 8.25006 5.35181 7.77149C5.40601 7.27125 5.52351 6.81505 5.81564 6.41297C5.98218 6.18375 6.18375 5.98218 6.41297 5.81564C6.81505 5.52351 7.27125 5.40601 7.77149 5.35181C8.25006 5.29996 8.84428 5.29997 9.56129 5.29999ZM7.92229 6.74366C7.54116 6.78496 7.35952 6.85843 7.23587 6.94827C7.1255 7.02845 7.02845 7.1255 6.94827 7.23587C6.85843 7.35952 6.78496 7.54116 6.74366 7.92229C6.70095 8.31652 6.69999 8.83445 6.69999 9.59999V14.4C6.69999 15.1655 6.70095 15.6835 6.74366 16.0777C6.78496 16.4588 6.85843 16.6405 6.94827 16.7641C7.02845 16.8745 7.1255 16.9715 7.23587 17.0517C7.35952 17.1415 7.54116 17.215 7.92229 17.2563C8.31652 17.299 8.83445 17.3 9.59999 17.3H14.4C15.1655 17.3 15.6835 17.299 16.0777 17.2563C16.4588 17.215 16.6405 17.1415 16.7641 17.0517C16.8745 16.9715 16.9715 16.8745 17.0517 16.7641C17.1415 16.6405 17.215 16.4588 17.2563 16.0777C17.299 15.6835 17.3 15.1655 17.3 14.4V9.59999C17.3 8.83445 17.299 8.31652 17.2563 7.92229C17.215 7.54116 17.1415 7.35952 17.0517 7.23587C16.9715 7.1255 16.8745 7.02845 16.7641 6.94827C16.6405 6.85843 16.4588 6.78496 16.0777 6.74366C15.6835 6.70095 15.1655 6.69999 14.4 6.69999H9.59999C8.83445 6.69999 8.31652 6.70095 7.92229 6.74366Z" fill="#222628"/>
<path fill-rule="evenodd" clip-rule="evenodd" d="M12 8.29999C12.3866 8.29999 12.7 8.61339 12.7 8.99999V12.1652L14.8473 13.3922C15.1829 13.584 15.2996 14.0116 15.1078 14.3473C14.916 14.6829 14.4884 14.7996 14.1527 14.6078L11.6527 13.1792C11.4346 13.0546 11.3 12.8226 11.3 12.5714V8.99999C11.3 8.61339 11.6134 8.29999 12 8.29999Z" fill="#222628"/>
<path fill-rule="evenodd" clip-rule="evenodd" d="M9.29999 3.99999C9.29999 3.61339 9.61339 3.29999 9.99999 3.29999H14C14.3866 3.29999 14.7 3.61339 14.7 3.99999C14.7 4.38659 14.3866 4.69999 14 4.69999H9.99999C9.61339 4.69999 9.29999 4.38659 9.29999 3.99999Z" fill="#222628"/>
<path fill-rule="evenodd" clip-rule="evenodd" d="M9.29999 20C9.29999 19.6134 9.61339 19.3 9.99999 19.3H14C14.3866 19.3 14.7 19.6134 14.7 20C14.7 20.3866 14.3866 20.7 14 20.7H9.99999C9.61339 20.7 9.29999 20.3866 9.29999 20Z" fill="#222628"/>
</svg>
