<svg width="24" height="24" viewBox="0 0 24 24" fill="none" xmlns="http://www.w3.org/2000/svg">
<path opacity="0.4" d="M2 12.5C2 9.234 2 7.601 2.61876 6.34627C3.20294 5.16167 4.16167 4.20294 5.34627 3.61876C6.601 3 8.234 3 11.5 3H12.5C15.766 3 17.399 3 18.6537 3.61876C19.8383 4.20294 20.7971 5.16167 21.3812 6.34627C22 7.601 22 9.234 22 12.5C22 15.766 22 17.399 21.3812 18.6537C20.7971 19.8383 19.8383 20.7971 18.6537 21.3812C17.399 22 15.766 22 12.5 22H11.5C8.234 22 6.601 22 5.34627 21.3812C4.16167 20.7971 3.20294 19.8383 2.61876 18.6537C2 17.399 2 15.766 2 12.5Z" fill="#C4C4C4"/>
<path fill-rule="evenodd" clip-rule="evenodd" d="M11.4691 2.29999H12.5309C14.1377 2.29998 15.3854 2.29998 16.3865 2.37953C17.4019 2.46022 18.2233 2.62599 18.9633 2.99094C20.2861 3.64327 21.3567 4.71386 22.009 6.03665C22.374 6.77669 22.5398 7.59811 22.6204 8.61344C22.7 9.61454 22.7 10.8622 22.7 12.4691V12.5309C22.7 14.1378 22.7 15.3854 22.6204 16.3865C22.5398 17.4019 22.374 18.2233 22.009 18.9633C21.3567 20.2861 20.2861 21.3567 18.9633 22.009C18.2233 22.374 17.4019 22.5398 16.3865 22.6204C15.3854 22.7 14.1377 22.7 12.5309 22.7H11.4691C9.86222 22.7 8.61454 22.7 7.61344 22.6204C6.59811 22.5398 5.77669 22.374 5.03665 22.009C3.71386 21.3567 2.64327 20.2861 1.99094 18.9633C1.62599 18.2233 1.46022 17.4019 1.37953 16.3865C1.29998 15.3854 1.29998 14.1377 1.29999 12.5309V12.4691C1.29998 10.8622 1.29998 9.61454 1.37953 8.61344C1.46022 7.59811 1.62599 6.77669 1.99094 6.03665C2.64327 4.71386 3.71386 3.64327 5.03665 2.99094C5.77669 2.62599 6.59811 2.46022 7.61344 2.37953C8.61454 2.29998 9.86223 2.29998 11.4691 2.29999ZM7.72434 3.77513C6.793 3.84914 6.17055 3.99274 5.65586 4.24656C4.60947 4.76259 3.76259 5.60947 3.24656 6.65586C2.99274 7.17055 2.84914 7.793 2.77513 8.72434C2.7005 9.66353 2.69999 10.8558 2.69999 12.5C2.69999 14.1442 2.7005 15.3365 2.77513 16.2756C2.84914 17.207 2.99274 17.8294 3.24656 18.3441C3.76259 19.3905 4.60947 20.2374 5.65586 20.7534C6.17055 21.0072 6.793 21.1508 7.72434 21.2248C8.66353 21.2995 9.85577 21.3 11.5 21.3H12.5C14.1442 21.3 15.3364 21.2995 16.2756 21.2248C17.207 21.1508 17.8294 21.0072 18.3441 20.7534C19.3905 20.2374 20.2374 19.3905 20.7534 18.3441C21.0072 17.8294 21.1508 17.207 21.2248 16.2756C21.2995 15.3365 21.3 14.1442 21.3 12.5C21.3 10.8558 21.2995 9.66353 21.2248 8.72434C21.1508 7.793 21.0072 7.17055 20.7534 6.65586C20.2374 5.60947 19.3905 4.76259 18.3441 4.24656C17.8294 3.99274 17.207 3.84914 16.2756 3.77513C15.3364 3.7005 14.1442 3.69999 12.5 3.69999H11.5C9.85577 3.69999 8.66353 3.7005 7.72434 3.77513Z" fill="#222628"/>
<path fill-rule="evenodd" clip-rule="evenodd" d="M22 11L2 11L2 9.59998L22 9.59998V11Z" fill="#222628"/>
<path fill-rule="evenodd" clip-rule="evenodd" d="M14.3 6.99999C14.3 6.61339 14.6134 6.29999 15 6.29999L18 6.29999C18.3866 6.29999 18.7 6.61339 18.7 6.99999C18.7 7.38659 18.3866 7.69999 18 7.69999L15 7.69999C14.6134 7.69999 14.3 7.38659 14.3 6.99999Z" fill="#222628"/>
<path d="M8.99998 6.99999C8.99998 7.38659 8.68657 7.69999 8.29998 7.69999C7.91338 7.69999 7.59998 7.38659 7.59998 6.99999C7.59998 6.61339 7.91338 6.29999 8.29998 6.29999C8.68657 6.29999 8.99998 6.61339 8.99998 6.99999Z" fill="#222628"/>
<path d="M6.99998 6.99999C6.99998 7.38659 6.68657 7.69999 6.29998 7.69999C5.91338 7.69999 5.59998 7.38659 5.59998 6.99999C5.59998 6.61339 5.91338 6.29999 6.29998 6.29999C6.68657 6.29999 6.99998 6.61339 6.99998 6.99999Z" fill="#222628"/>
</svg>
