<svg width="24" height="24" viewBox="0 0 24 24" fill="none" xmlns="http://www.w3.org/2000/svg">
<path fill-rule="evenodd" clip-rule="evenodd" d="M10.8 18C10.8 17.6134 11.1134 17.3 11.5 17.3H12.5C12.8866 17.3 13.2 17.6134 13.2 18C13.2 18.3866 12.8866 18.7 12.5 18.7H11.5C11.1134 18.7 10.8 18.3866 10.8 18Z" fill="#222628"/>
<path fill-rule="evenodd" clip-rule="evenodd" d="M8.14964 14.2607C8.14907 14.2621 8.14849 14.2636 8.14791 14.265C8.14781 14.2652 8.14755 14.2659 8.14791 14.265L8.14888 14.2626L8.14964 14.2607ZM15.8521 14.265L15.8488 14.2574C15.8445 14.2479 15.8364 14.2303 15.8241 14.2056C15.7994 14.1562 15.7581 14.0793 15.6977 13.9839C15.5765 13.7926 15.381 13.531 15.0916 13.2679C14.5243 12.7522 13.5644 12.2 12 12.2C10.4356 12.2 9.47574 12.7522 8.90838 13.2679C8.619 13.531 8.42349 13.7926 8.30232 13.9839C8.2419 14.0793 8.2006 14.1562 8.17591 14.2056C8.16358 14.2303 8.15547 14.2479 8.15123 14.2574L8.14791 14.265C8.00256 14.6205 7.5973 14.7928 7.24003 14.6499C6.88108 14.5063 6.70649 14.099 6.85007 13.74L7.50001 14C6.85007 13.74 6.84991 13.7404 6.85007 13.74L6.85073 13.7384L6.8515 13.7365L6.85332 13.732L6.85819 13.7203C6.86198 13.7114 6.86689 13.7 6.87295 13.6864C6.88507 13.6593 6.90186 13.6232 6.92371 13.5795C6.96738 13.4922 7.03155 13.3738 7.11957 13.2348C7.29528 12.9574 7.56851 12.594 7.96664 12.232C8.77427 11.4978 10.0644 10.8 12 10.8C13.9356 10.8 15.2257 11.4978 16.0334 12.232C16.4315 12.594 16.7047 12.9574 16.8804 13.2348C16.9685 13.3738 17.0326 13.4922 17.0763 13.5795C17.0982 13.6232 17.1149 13.6593 17.1271 13.6864C17.1331 13.7 17.138 13.7114 17.1418 13.7203L17.1467 13.732L17.1485 13.7365L17.1493 13.7384C17.1494 13.7388 17.1499 13.74 16.5 14L17.1499 13.74C17.2935 14.099 17.1189 14.5063 16.76 14.6499C16.4027 14.7928 15.9974 14.6205 15.8521 14.265ZM15.8504 14.2607C15.8504 14.2607 15.8504 14.2607 15.8504 14.2607V14.2607Z" fill="#222628"/>
<path fill-rule="evenodd" clip-rule="evenodd" d="M4.12622 10.8128L4.12648 10.8123L4.12893 10.8075C4.13214 10.8014 4.13774 10.7907 4.14577 10.7757C4.16184 10.7459 4.18758 10.6993 4.22322 10.6383C4.29456 10.5162 4.40527 10.337 4.55712 10.1197C4.86141 9.68419 5.32732 9.10082 5.96822 8.51778C7.24529 7.35601 9.20922 6.19999 12 6.19999C14.7908 6.19999 16.7547 7.35601 18.0318 8.51778C18.6727 9.10082 19.1386 9.68419 19.4429 10.1197C19.5947 10.337 19.7054 10.5162 19.7768 10.6383C19.8124 10.6993 19.8382 10.7459 19.8542 10.7757C19.8623 10.7907 19.8679 10.8014 19.8711 10.8075L19.8735 10.8123L19.8738 10.8128C19.8739 10.8131 19.8741 10.8134 19.8742 10.8136C20.0471 11.1586 20.4668 11.2987 20.8123 11.1265C21.1583 10.954 21.299 10.5337 21.1265 10.1877L20.5 10.5C21.1265 10.1877 21.1263 10.1874 21.1262 10.187L21.1258 10.1863L21.1248 10.1844L21.1223 10.1793L21.1143 10.1637C21.1077 10.151 21.0985 10.1336 21.0869 10.1119C21.0635 10.0685 21.0298 10.0077 20.9856 9.93199C20.8971 9.78065 20.7662 9.56923 20.5905 9.3178C20.2397 8.81579 19.707 8.14915 18.9739 7.48219C17.5029 6.14397 15.2168 4.79999 12 4.79999C8.78322 4.79999 6.49715 6.14397 5.02612 7.48219C4.29297 8.14915 3.76029 8.81579 3.40951 9.3178C3.23383 9.56923 3.10288 9.78065 3.01445 9.93199C2.97021 10.0077 2.93653 10.0685 2.91315 10.1119C2.90146 10.1336 2.89234 10.151 2.88574 10.1637L2.87775 10.1793L2.87517 10.1844L2.87423 10.1863L2.87385 10.187C2.87368 10.1874 2.87353 10.1877 3.5 10.5L2.87353 10.1877C2.70105 10.5337 2.84172 10.954 3.18771 11.1265C3.53353 11.2989 3.95358 11.1584 4.12622 10.8128Z" fill="#222628"/>
</svg>
