<svg width="24" height="24" viewBox="0 0 24 24" fill="none" xmlns="http://www.w3.org/2000/svg">
<path opacity="0.4" d="M2 14C2 12.1401 2 11.2101 2.20445 10.4471C2.75925 8.37653 4.37653 6.75925 6.44709 6.20445C7.21008 6 8.14006 6 10 6H14C15.8599 6 16.7899 6 17.5529 6.20445C19.6235 6.75925 21.2408 8.37653 21.7956 10.4471C22 11.2101 22 12.1401 22 14C22 15.8599 22 16.7899 21.7956 17.5529C21.2408 19.6235 19.6235 21.2408 17.5529 21.7956C16.7899 22 15.8599 22 14 22H10C8.14006 22 7.21008 22 6.44709 21.7956C4.37653 21.2408 2.75925 19.6235 2.20445 17.5529C2 16.7899 2 15.8599 2 14Z" fill="#C4C4C4"/>
<path fill-rule="evenodd" clip-rule="evenodd" d="M14 7.39997H10C8.04992 7.39997 7.34952 7.41199 6.80943 7.55671C5.22201 7.98206 3.98209 9.22198 3.55674 10.8094C3.41202 11.3495 3.4 12.0499 3.4 14C3.4 15.95 3.41202 16.6504 3.55674 17.1905C3.98209 18.778 5.22201 20.0179 6.80943 20.4432C7.34952 20.5879 8.04992 20.6 10 20.6H14C15.9501 20.6 16.6505 20.5879 17.1906 20.4432C18.778 20.0179 20.0179 18.778 20.4433 17.1905C20.588 16.6504 20.6 15.95 20.6 14C20.6 12.0499 20.588 11.3495 20.4433 10.8094C20.0179 9.22198 18.778 7.98206 17.1906 7.55671C16.6505 7.41199 15.9501 7.39997 14 7.39997ZM2.20445 10.4471C2 11.2101 2 12.14 2 14C2 15.8599 2 16.7899 2.20445 17.5529C2.75925 19.6234 4.37653 21.2407 6.44709 21.7955C7.21008 22 8.14006 22 10 22H14C15.8599 22 16.7899 22 17.5529 21.7955C19.6235 21.2407 21.2408 19.6234 21.7956 17.5529C22 16.7899 22 15.8599 22 14C22 12.14 22 11.2101 21.7956 10.4471C21.2408 8.3765 19.6235 6.75922 17.5529 6.20441C16.7899 5.99997 15.8599 5.99997 14 5.99997H10C8.14006 5.99997 7.21008 5.99997 6.44709 6.20441C4.37653 6.75922 2.75925 8.3765 2.20445 10.4471Z" fill="#222628"/>
<path fill-rule="evenodd" clip-rule="evenodd" d="M21 11L21.1262 11.6885C21.5065 11.6188 21.7583 11.254 21.6885 10.8737C21.6188 10.4935 21.254 10.2417 20.8738 10.3115M20.8738 10.3115L20.8593 10.3141L20.8142 10.3222C20.7743 10.3294 20.715 10.34 20.6379 10.3535C20.4838 10.3805 20.2591 10.4191 19.9782 10.4656C19.416 10.5586 18.6297 10.6826 17.7338 10.8066C15.9329 11.0558 13.7224 11.3 12 11.3C10.2776 11.3 8.06713 11.0558 6.26627 10.8066C5.37032 10.6826 4.584 10.5586 4.02187 10.4656C3.74091 10.4191 3.5162 10.3805 3.3621 10.3535C3.28506 10.34 3.22569 10.3294 3.18577 10.3222L3.14074 10.3141L3.12693 10.3116C3.12694 10.3116 3.12693 10.3116 3.12693 10.3116C2.74668 10.2419 2.38121 10.4935 2.31149 10.8737C2.24177 11.254 2.49351 11.6188 2.87377 11.6885L3.00001 11C2.87377 11.6885 2.87369 11.6885 2.87377 11.6885L2.89079 11.6916L2.93848 11.7002C2.9802 11.7077 3.04147 11.7186 3.12049 11.7324C3.27852 11.7601 3.50762 11.7996 3.79339 11.8468C4.36473 11.9414 5.16356 12.0673 6.07438 12.1934C7.88707 12.4442 10.1766 12.7 12 12.7C13.8234 12.7 16.113 12.4442 17.9256 12.1934C18.8365 12.0673 19.6353 11.9414 20.2066 11.8468C20.4924 11.7996 20.7215 11.7601 20.8795 11.7324C20.9586 11.7186 21.0198 11.7077 21.0615 11.7002L21.1092 11.6916L21.1262 11.6885C21.1263 11.6885 21.1262 11.6885 21 11" fill="#222628"/>
<path fill-rule="evenodd" clip-rule="evenodd" d="M17 13.7C16.6134 13.7 16.3 13.3866 16.3 13L16.3 9.99998C16.3 9.61338 16.6134 9.29998 17 9.29998C17.3866 9.29998 17.7 9.61338 17.7 9.99998L17.7 13C17.7 13.3866 17.3866 13.7 17 13.7Z" fill="#222628"/>
<path fill-rule="evenodd" clip-rule="evenodd" d="M13.7 16.5C13.7 16.8866 13.3866 17.2 13 17.2L11 17.2C10.6134 17.2 10.3 16.8866 10.3 16.5C10.3 16.1134 10.6134 15.8 11 15.8L13 15.8C13.3866 15.8 13.7 16.1134 13.7 16.5Z" fill="#222628"/>
<path fill-rule="evenodd" clip-rule="evenodd" d="M6.99999 13.7C6.61339 13.7 6.29999 13.3866 6.29999 13L6.29999 9.99998C6.29999 9.61338 6.61339 9.29998 6.99999 9.29998C7.38659 9.29998 7.69999 9.61338 7.69999 9.99998L7.69999 13C7.69999 13.3866 7.38659 13.7 6.99999 13.7Z" fill="#222628"/>
<path fill-rule="evenodd" clip-rule="evenodd" d="M9.19999 6.50069C9.19999 6.50164 9.19998 6.50259 9.19998 6.50355C9.19997 6.50386 9.19997 6.50401 9.19997 6.50401L9.19997 6.50373L9.19999 6.50314C9.19998 6.5033 9.19998 6.50343 9.19998 6.50355C9.19805 6.8885 8.88539 7.19997 8.49999 7.19997C8.11339 7.19997 7.79999 6.88657 7.79999 6.49997L8.49999 6.49997C7.79999 6.49997 7.79999 6.49958 7.79999 6.49918L7.79999 6.49832L7.8 6.49637L7.80003 6.49157L7.8002 6.47844C7.80039 6.46814 7.80071 6.45477 7.80131 6.43853C7.80249 6.40606 7.80473 6.36199 7.80895 6.30795C7.81738 6.20011 7.83382 6.05113 7.86603 5.87443C7.9299 5.52405 8.05885 5.04773 8.32333 4.5641C8.58994 4.07659 8.99724 3.57711 9.61223 3.20226C10.2287 2.82649 11.0147 2.59998 12 2.59998C12.9853 2.59998 13.7712 2.82649 14.3877 3.20226C15.0027 3.57711 15.41 4.07659 15.6766 4.5641C15.9411 5.04773 16.0701 5.52405 16.134 5.87443C16.1662 6.05113 16.1826 6.20011 16.191 6.30795C16.1952 6.36199 16.1975 6.40606 16.1987 6.43853C16.1993 6.45477 16.1996 6.46814 16.1998 6.47844L16.2 6.49157L16.2 6.49637L16.2 6.49832L16.2 6.49918C16.2 6.49958 16.2 6.49997 15.5 6.49997L16.2 6.49997C16.2 6.88657 15.8866 7.19997 15.5 7.19997C15.1146 7.19997 14.8019 6.88852 14.8 6.50358C14.8 6.50274 14.8 6.5019 14.8 6.50106C14.8 6.50093 14.8 6.50081 14.8 6.50068C14.8 6.50068 14.8 6.50069 14.8 6.50069L14.8 6.50106L14.8 6.50133L14.8 6.50241L14.8 6.50373C14.8 6.50415 14.8 6.5041 14.8 6.50358C14.8 6.50346 14.8 6.50331 14.8 6.50314L14.7996 6.48954C14.7991 6.47513 14.7979 6.45045 14.7953 6.417C14.79 6.34984 14.7791 6.24882 14.7566 6.12551C14.7111 5.8759 14.6213 5.55222 14.4483 5.23584C14.2774 4.92336 14.0285 4.62284 13.6591 4.39769C13.2912 4.17346 12.7647 3.99998 12 3.99998C11.2353 3.99998 10.7088 4.17346 10.3409 4.39769C9.9715 4.62284 9.72254 4.92336 9.55165 5.23584C9.37863 5.55222 9.28883 5.8759 9.24333 6.12551C9.22085 6.24882 9.20994 6.34984 9.2047 6.417C9.20208 6.45045 9.2009 6.47513 9.20038 6.48954L9.19999 6.50314L9.19998 6.50241L9.19999 6.50133L9.19999 6.50069Z" fill="#222628"/>
</svg>
