<svg xmlns="http://www.w3.org/2000/svg" version="1.1" viewBox="0 0 16 16" width="16" height="16" fill="none" stroke="#000" stroke-linecap="round" stroke-linejoin="round" stroke-width="1.5">
<path d="m4.75 2.75c-.50 1.5 1.25 3.25 3.25 5.25 2-2 3.75-3.75 3.25-5.25s-2.5-1-3.25.50c-.75-1.5-2.75-2-3.25-.50zm3.25 5.25c2 2 3.75 3.75 5.25 3.25s1-2.5-.5-3.25c1.5-.75 2-2.75.5-3.25s-3.25 1.25-5.25 3.25zm0 0c-2 2-3.75 3.75-3.25 5.25s2.5 1 3.25-.5c.75 1.5 2.75 2 3.25.5s-1.25-3.25-3.25-5.25zm0 0c-2-2-3.75-3.75-5.25-3.25s-1 2.5.5 3.25c-1.5.75-2 2.75-.5 3.25s3.25-1.25 5.25-3.25z"/>
</svg>