<svg width="24" height="24" viewBox="0 0 24 24" fill="none" xmlns="http://www.w3.org/2000/svg">
<path d="M5.77215 17.1899C5.80843 16.682 5.82656 16.4281 5.86619 16.2491C6.11712 15.1151 6.97957 14.3733 8.13837 14.2949C8.32136 14.2825 8.60682 14.3051 9.17775 14.3502C10.0233 14.4171 10.9433 14.4667 11.8122 14.4667C12.7806 14.4667 13.8621 14.4051 14.8467 14.3266C15.4049 14.2822 15.684 14.2599 15.8752 14.274C17.0091 14.3577 17.8755 15.1025 18.1286 16.2109C18.1713 16.3978 18.1895 16.6529 18.2259 17.1629V17.1629C18.267 17.7377 18.2875 18.025 18.2665 18.2635C18.1458 19.6323 17.1105 20.7441 15.7538 20.962C15.5175 21 15.2293 21 14.6531 21H11.8122H9.31986C8.76857 21 8.49293 21 8.26658 20.9652C6.89315 20.7543 5.8443 19.6279 5.73178 18.2429C5.71324 18.0147 5.73288 17.7397 5.77215 17.1899V17.1899Z" stroke="#222628" stroke-width="1.4"/>
<path d="M8.5 7.5C8.5 5.567 10.067 4 12 4V4C13.933 4 15.5 5.567 15.5 7.5V8C15.5 9.65685 14.1569 11 12.5 11V11H11.5V11C9.84315 11 8.5 9.65685 8.5 8V7.5Z" stroke="#222628" stroke-width="1.4"/>
<path d="M20.5 14C20.5 14 22 14.6176 22 16.5C22 18.3824 20.5 19 20.5 19" stroke="#222628" stroke-width="1.4" stroke-linecap="round" stroke-linejoin="round"/>
<path d="M3.5 14C3.5 14 2 14.5 2 16.5C2 18.5 3.5 19 3.5 19" stroke="#222628" stroke-width="1.4" stroke-linecap="round" stroke-linejoin="round"/>
<path d="M18 4.5C18 4.5 20 4.91455 20 7C20 9.08545 18 9.5 18 9.5" stroke="#222628" stroke-width="1.4" stroke-linecap="round" stroke-linejoin="round"/>
<path d="M6 4.5C6 4.5 4 4.83423 4 7C4 9.16576 6 9.5 6 9.5" stroke="#222628" stroke-width="1.4" stroke-linecap="round" stroke-linejoin="round"/>
</svg>
