<svg width="24" height="24" viewBox="0 0 24 24" fill="none" xmlns="http://www.w3.org/2000/svg">
<path d="M20.6254 15.2483C21.0856 18.2745 18.7431 21 15.6822 21L12 21L8.31777 21C5.25687 21 2.91444 18.2745 3.37459 15.2483L3.76471 12.6828L4.14337 10.7707C4.60706 8.42916 6.66115 6.74194 9.04812 6.74194L12 6.74194L14.9519 6.74194C17.3388 6.74194 19.3929 8.42915 19.8566 10.7706L20.2353 12.6828L20.6254 15.2483Z" stroke="#222628" stroke-width="1.4"/>
<path d="M14 15H12.2667H10" stroke="#222628" stroke-width="1.4" stroke-linecap="round"/>
<path d="M12 13L12 15L12 17" stroke="#222628" stroke-width="1.4" stroke-linecap="round"/>
<path d="M8.66663 6.29032C8.66663 6.29032 8.66667 3 12 3C15.3333 3 15.3333 6.29032 15.3333 6.29032" stroke="#222628" stroke-width="1.4" stroke-linecap="round" stroke-linejoin="round"/>
</svg>
