<svg width="24" height="24" viewBox="0 0 24 24" fill="none" xmlns="http://www.w3.org/2000/svg">
<path d="M2.37394 17.3629C2.40751 17.0364 2.42429 16.8732 2.44503 16.7591C2.71332 15.2824 3.90222 14.2922 5.40301 14.2954C5.51899 14.2956 5.70692 14.3106 6.08278 14.3405C7.19542 14.429 8.4236 14.5 9.5 14.5C10.5223 14.5 11.6169 14.4359 12.601 14.3537C12.9764 14.3223 13.1641 14.3066 13.2701 14.3052C14.7252 14.2867 15.8685 15.1688 16.2197 16.581C16.2453 16.6838 16.2723 16.8385 16.3264 17.1478V17.1478C16.3798 17.4534 16.4066 17.6062 16.4178 17.7305C16.5673 19.3886 15.3382 20.8513 13.6791 20.9896C13.5547 21 13.3996 21 13.0894 21L9.29882 21H5.65623C5.35131 21 5.19886 21 5.0739 20.9895C3.4978 20.8575 2.29489 19.5246 2.32479 17.9433C2.32716 17.8179 2.34275 17.6663 2.37394 17.3629V17.3629Z" stroke="#222628" stroke-width="1.4"/>
<path d="M21 7H19.2667L17 7" stroke="#222628" stroke-width="1.4" stroke-linecap="round"/>
<path d="M19 5L19 7L19 9" stroke="#222628" stroke-width="1.4" stroke-linecap="round"/>
<path d="M6 6.5C6 4.567 7.567 3 9.5 3V3C11.433 3 13 4.567 13 6.5V7C13 8.65685 11.6569 10 10 10V10H9V10C7.34315 10 6 8.65685 6 7V6.5Z" stroke="#222628" stroke-width="1.4"/>
</svg>
