<svg width="24" height="24" viewBox="0 0 24 24" fill="none" xmlns="http://www.w3.org/2000/svg">
<path d="M13.5 8.17575V20.5C13.5 20.7761 13.7239 21 14 21H16.1667C16.4428 21 16.6667 20.7769 16.6667 20.5008V11C19.2911 12.5746 21.089 10.5731 21.735 9.65048C21.9225 9.38275 22 9.05987 22 8.73302V5.73805C22 5.31685 21.8243 4.91431 21.4911 4.65666C20.7062 4.04978 19.1394 3 17.6923 3C16.0997 3 14.8989 3.9821 14.194 4.98797C13.5541 5.90108 13.5 7.06075 13.5 8.17575Z" stroke="#222628" stroke-width="1.4" stroke-linecap="round" stroke-linejoin="round"/>
<path d="M19.7778 6.5V8" stroke="#222628" stroke-width="1.4" stroke-linecap="round"/>
<path d="M10.5 8.17575V20.5C10.5 20.7761 10.2761 21 10 21H7.83333C7.55719 21 7.33333 20.7769 7.33333 20.5008V11C4.70893 12.5746 2.91102 10.5731 2.26498 9.65048C2.0775 9.38275 2 9.05987 2 8.73302V5.73805C2 5.31685 2.17573 4.91431 2.50894 4.65666C3.29378 4.04978 4.86056 3 6.30769 3C7.90029 3 9.10112 3.9821 9.80602 4.98797C10.4459 5.90108 10.5 7.06075 10.5 8.17575Z" stroke="#222628" stroke-width="1.4" stroke-linecap="round" stroke-linejoin="round"/>
<path d="M4.22223 6.5V8" stroke="#222628" stroke-width="1.4" stroke-linecap="round"/>
</svg>
