<svg width="24" height="24" viewBox="0 0 24 24" fill="none" xmlns="http://www.w3.org/2000/svg">
<path d="M12 21L12 12" stroke="#222628" stroke-width="1.4" stroke-linecap="round" stroke-linejoin="round"/>
<path d="M10.4 7.3C10.8472 6.70369 11.1463 6.30687 11.4011 6.03924C11.6496 5.77832 11.7768 5.72792 11.8525 5.71372C11.95 5.69543 12.05 5.69543 12.1475 5.71372C12.2232 5.72792 12.3504 5.77832 12.5989 6.03924C12.8537 6.30687 13.1528 6.70369 13.6 7.3L14.2 8.1C14.8336 8.94476 15.269 9.52742 15.5328 9.98359C15.8017 10.4486 15.7938 10.6223 15.7766 10.6919C15.7482 10.807 15.6945 10.9144 15.6195 11.0062C15.5742 11.0617 15.4399 11.1722 14.9066 11.2361C14.3834 11.2988 13.656 11.3 12.6 11.3L11.4 11.3C10.344 11.3 9.61664 11.2988 9.09343 11.2361C8.56009 11.1722 8.42584 11.0617 8.3805 11.0062C8.30547 10.9144 8.2518 10.807 8.22335 10.6919C8.20617 10.6223 8.19828 10.4486 8.46717 9.98359C8.73096 9.52742 9.16643 8.94476 9.8 8.1L10.4 7.3Z" stroke="#222628" stroke-width="1.4"/>
</svg>
