<svg width="24" height="24" viewBox="0 0 24 24" fill="none" xmlns="http://www.w3.org/2000/svg">
<path d="M12 18L12 12" stroke="#222628" stroke-width="1.4" stroke-linecap="round" stroke-linejoin="round"/>
<path d="M13.2613 8.60702C12.9579 8.24295 12.757 8.00272 12.5901 7.83265C12.4271 7.66657 12.3454 7.61982 12.3 7.60145C12.1076 7.52362 11.8924 7.52362 11.7 7.60145C11.6546 7.61982 11.5729 7.66657 11.4099 7.83265C11.243 8.00272 11.0421 8.24295 10.7387 8.60702C10.2414 9.2037 9.898 9.61679 9.67103 9.94151C9.43603 10.2777 9.40639 10.4116 9.40395 10.4529L8.70517 10.4116L9.40395 10.4529C9.388 10.723 9.50975 10.983 9.72753 11.1437C9.76075 11.1682 9.88261 11.2312 10.2913 11.2659C10.6861 11.2994 11.2233 11.3 12 11.3C12.7767 11.3 13.3139 11.2994 13.7087 11.2659C14.1174 11.2312 14.2392 11.1682 14.2725 11.1437C14.4903 10.983 14.612 10.723 14.596 10.4529C14.5936 10.4116 14.564 10.2777 14.329 9.94151C14.102 9.61679 13.7586 9.2037 13.2613 8.60702Z" stroke="#222628" stroke-width="1.4"/>
<rect width="20" height="20" rx="6" transform="matrix(-4.37114e-08 -1 -1 4.37114e-08 22 22)" stroke="#222628" stroke-width="1.4"/>
</svg>
