<svg width="24" height="24" viewBox="0 0 24 24" fill="none" xmlns="http://www.w3.org/2000/svg">
<path d="M12 6L12 12" stroke="#222628" stroke-width="1.4" stroke-linecap="round" stroke-linejoin="round"/>
<path d="M10.7387 15.393C11.0421 15.757 11.243 15.9973 11.4099 16.1674C11.5729 16.3334 11.6546 16.3802 11.7 16.3986C11.8924 16.4764 12.1076 16.4764 12.3 16.3986C12.3454 16.3802 12.4271 16.3334 12.5901 16.1674C12.757 15.9973 12.9579 15.757 13.2613 15.393C13.7586 14.7963 14.102 14.3832 14.329 14.0585C14.564 13.7223 14.5936 13.5884 14.596 13.5471L15.2948 13.5884L14.596 13.5471C14.612 13.277 14.4903 13.017 14.2725 12.8563C14.2392 12.8318 14.1174 12.7688 13.7087 12.7341C13.3139 12.7006 12.7767 12.7 12 12.7C11.2233 12.7 10.6861 12.7006 10.2913 12.7341C9.88261 12.7688 9.76075 12.8318 9.72753 12.8563C9.50975 13.017 9.388 13.277 9.40395 13.5471C9.40639 13.5884 9.43603 13.7223 9.67103 14.0585C9.898 14.3832 10.2414 14.7963 10.7387 15.393Z" stroke="#222628" stroke-width="1.4"/>
<rect width="20" height="20" rx="6" transform="matrix(4.37114e-08 1 1 -4.37114e-08 2 2)" stroke="#222628" stroke-width="1.4"/>
</svg>
