<svg width="24" height="24" viewBox="0 0 24 24" fill="none" xmlns="http://www.w3.org/2000/svg">
<path d="M12 4L12 13" stroke="#222628" stroke-width="1.4" stroke-linecap="round" stroke-linejoin="round"/>
<path d="M10.4 17.7C10.8472 18.2963 11.1463 18.6931 11.4011 18.9608C11.6496 19.2217 11.7768 19.2721 11.8525 19.2863C11.95 19.3046 12.05 19.3046 12.1475 19.2863C12.2232 19.2721 12.3504 19.2217 12.5989 18.9608C12.8537 18.6931 13.1528 18.2963 13.6 17.7L14.2 16.9C14.8336 16.0552 15.269 15.4726 15.5328 15.0164C15.8017 14.5514 15.7938 14.3777 15.7766 14.3081C15.7482 14.193 15.6945 14.0856 15.6195 13.9938C15.5742 13.9383 15.4399 13.8278 14.9066 13.7639C14.3834 13.7012 13.656 13.7 12.6 13.7L11.4 13.7C10.344 13.7 9.61664 13.7012 9.09343 13.7639C8.56009 13.8278 8.42584 13.9383 8.3805 13.9938C8.30547 14.0856 8.2518 14.193 8.22335 14.3081C8.20617 14.3777 8.19828 14.5514 8.46717 15.0164C8.73096 15.4726 9.16643 16.0552 9.8 16.9L10.4 17.7Z" stroke="#222628" stroke-width="1.4"/>
</svg>
