<svg width="24" height="24" viewBox="0 0 24 24" fill="none" xmlns="http://www.w3.org/2000/svg">
<path d="M18 12H12" stroke="#222628" stroke-width="1.4" stroke-linecap="round" stroke-linejoin="round"/>
<path d="M8.60702 10.7387C8.24295 11.0421 8.00272 11.243 7.83265 11.4099C7.66657 11.5729 7.61982 11.6546 7.60145 11.7C7.52362 11.8924 7.52362 12.1076 7.60145 12.3C7.61982 12.3454 7.66657 12.4271 7.83265 12.5901C8.00272 12.757 8.24295 12.9579 8.60702 13.2613C9.2037 13.7585 9.61679 14.102 9.94151 14.329C10.2777 14.564 10.4116 14.5936 10.4529 14.596L10.4116 15.2948L10.4529 14.596C10.723 14.612 10.983 14.4902 11.1437 14.2725C11.1682 14.2392 11.2312 14.1174 11.2659 13.7087C11.2994 13.3139 11.3 12.7767 11.3 12C11.3 11.2233 11.2994 10.6861 11.2659 10.2913C11.2312 9.8826 11.1682 9.76075 11.1437 9.72752C10.983 9.50974 10.723 9.388 10.4529 9.40395C10.4116 9.40638 10.2777 9.43603 9.94151 9.67102C9.61679 9.89799 9.2037 10.2414 8.60702 10.7387Z" stroke="#222628" stroke-width="1.4"/>
<rect width="20" height="20" rx="6" transform="matrix(-1 0 0 1 22 2)" stroke="#222628" stroke-width="1.4"/>
</svg>
