<svg width="24" height="24" viewBox="0 0 24 24" fill="none" xmlns="http://www.w3.org/2000/svg">
<path d="M21 12H12" stroke="#222628" stroke-width="1.4" stroke-linecap="round" stroke-linejoin="round"/>
<path d="M7.3 10.4C6.70369 10.8472 6.30687 11.1463 6.03924 11.4011C5.77832 11.6496 5.72792 11.7768 5.71372 11.8525C5.69543 11.95 5.69543 12.05 5.71372 12.1475C5.72792 12.2232 5.77832 12.3504 6.03924 12.5989C6.30687 12.8537 6.70369 13.1528 7.3 13.6L8.1 14.2C8.94476 14.8336 9.52742 15.269 9.98359 15.5328C10.4486 15.8017 10.6223 15.7938 10.6919 15.7766C10.807 15.7482 10.9144 15.6945 11.0062 15.6195C11.0617 15.5742 11.1722 15.4399 11.2361 14.9066C11.2988 14.3834 11.3 13.656 11.3 12.6L11.3 11.4C11.3 10.344 11.2988 9.61664 11.2361 9.09343C11.1722 8.56009 11.0617 8.42584 11.0062 8.3805C10.9144 8.30547 10.807 8.2518 10.6919 8.22335C10.6223 8.20617 10.4486 8.19828 9.98359 8.46717C9.52742 8.73096 8.94476 9.16643 8.1 9.8L7.3 10.4Z" stroke="#222628" stroke-width="1.4"/>
</svg>
