<svg width="24" height="24" viewBox="0 0 24 24" fill="none" xmlns="http://www.w3.org/2000/svg">
<path d="M4 12H13" stroke="#222628" stroke-width="1.4" stroke-linecap="round" stroke-linejoin="round"/>
<path d="M17.7 10.4C18.2963 10.8472 18.6931 11.1463 18.9608 11.4011C19.2217 11.6496 19.2721 11.7768 19.2863 11.8525C19.3046 11.95 19.3046 12.05 19.2863 12.1475C19.2721 12.2232 19.2217 12.3504 18.9608 12.5989C18.6931 12.8537 18.2963 13.1528 17.7 13.6L16.9 14.2C16.0552 14.8336 15.4726 15.269 15.0164 15.5328C14.5514 15.8017 14.3777 15.7938 14.3081 15.7766C14.193 15.7482 14.0856 15.6945 13.9938 15.6195C13.9383 15.5742 13.8278 15.4399 13.7639 14.9066C13.7012 14.3834 13.7 13.656 13.7 12.6L13.7 11.4C13.7 10.344 13.7012 9.61664 13.7639 9.09343C13.8278 8.56009 13.9383 8.42584 13.9938 8.3805C14.0856 8.30547 14.193 8.2518 14.3081 8.22335C14.3777 8.20617 14.5514 8.19828 15.0164 8.46717C15.4726 8.73096 16.0552 9.16643 16.9 9.8L17.7 10.4Z" stroke="#222628" stroke-width="1.4"/>
</svg>
