<svg width="24" height="24" viewBox="0 0 24 24" fill="none" xmlns="http://www.w3.org/2000/svg">
<path d="M6 12H12" stroke="#222628" stroke-width="1.4" stroke-linecap="round" stroke-linejoin="round"/>
<path d="M15.393 10.7387C15.757 11.0421 15.9973 11.243 16.1674 11.4099C16.3334 11.5729 16.3802 11.6546 16.3986 11.7C16.4764 11.8924 16.4764 12.1076 16.3986 12.3C16.3802 12.3454 16.3334 12.4271 16.1674 12.5901C15.9973 12.757 15.757 12.9579 15.393 13.2613C14.7963 13.7586 14.3832 14.102 14.0585 14.329C13.7223 14.564 13.5884 14.5936 13.5471 14.596L13.5884 15.2948L13.5471 14.596C13.277 14.612 13.017 14.4903 12.8563 14.2725C12.8318 14.2392 12.7688 14.1174 12.7341 13.7087C12.7006 13.3139 12.7 12.7767 12.7 12C12.7 11.2233 12.7006 10.6861 12.7341 10.2913C12.7688 9.88261 12.8318 9.76075 12.8563 9.72753C13.017 9.50975 13.277 9.388 13.5471 9.40395C13.5884 9.40639 13.7223 9.43603 14.0585 9.67103C14.3832 9.898 14.7963 10.2414 15.393 10.7387Z" stroke="#222628" stroke-width="1.4"/>
<rect x="2" y="2" width="20" height="20" rx="6" stroke="#222628" stroke-width="1.4"/>
</svg>
