<svg width="24" height="24" viewBox="0 0 24 24" fill="none" xmlns="http://www.w3.org/2000/svg">
<path d="M17 13V19.67C17 20.5902 17 21.0503 16.7494 21.2871C16.6703 21.3619 16.5767 21.4197 16.4744 21.457C16.1506 21.5753 15.7391 21.3695 14.916 20.958L13.61 20.305C12.9092 19.9546 12.5588 19.7794 12.1852 19.7447C12.062 19.7332 11.938 19.7332 11.8148 19.7447C11.4412 19.7794 11.0908 19.9546 10.39 20.305L9.08399 20.958C8.26094 21.3695 7.84942 21.5753 7.52558 21.457C7.42331 21.4197 7.32974 21.3619 7.25059 21.2871C7 21.0503 7 20.5902 7 19.67V13" stroke="#222628" stroke-width="1.4" stroke-linejoin="round"/>
<circle cx="12" cy="9" r="6.3" stroke="#222628" stroke-width="1.4"/>
<path d="M11.6846 6.4043C11.8448 6.199 12.1552 6.199 12.3154 6.4043L13.0578 7.356C13.104 7.41526 13.166 7.46029 13.2367 7.48595L14.3712 7.89793C14.6159 7.9868 14.7119 8.28209 14.5661 8.49783L13.8904 9.498C13.8483 9.56028 13.8247 9.63315 13.8221 9.70827L13.7809 10.9146C13.772 11.1748 13.5208 11.3573 13.2706 11.2853L12.1105 10.9518C12.0383 10.931 11.9617 10.931 11.8895 10.9518L10.7294 11.2853C10.4792 11.3573 10.228 11.1748 10.2191 10.9146L10.1779 9.70827C10.1753 9.63315 10.1517 9.56028 10.1096 9.498L9.43388 8.49783C9.28812 8.28209 9.38407 7.9868 9.6288 7.89793L10.7633 7.48595C10.834 7.46029 10.896 7.41526 10.9422 7.356L11.6846 6.4043Z" stroke="#222628" stroke-width="1.4"/>
</svg>
