<svg width="24" height="24" viewBox="0 0 24 24" fill="none" xmlns="http://www.w3.org/2000/svg">
<path d="M8.3 13.6C7.70369 13.1528 7.30687 12.8537 7.03924 12.5989C6.77832 12.3504 6.72792 12.2232 6.71372 12.1475C6.69543 12.05 6.69543 11.95 6.71372 11.8525C6.72792 11.7768 6.77832 11.6496 7.03924 11.4011C7.30687 11.1463 7.70369 10.8472 8.3 10.4L9.1 9.8C9.94476 9.16643 10.5274 8.73095 10.9836 8.46717C11.4486 8.19828 11.6223 8.20617 11.6919 8.22335C11.807 8.25179 11.9144 8.30547 12.0062 8.3805C12.0617 8.42584 12.1722 8.56009 12.2361 9.09343C12.2988 9.61664 12.3 10.344 12.3 11.4L12.3 12.6C12.3 13.656 12.2988 14.3834 12.2361 14.9066C12.1722 15.4399 12.0617 15.5742 12.0062 15.6195C11.9144 15.6945 11.807 15.7482 11.6919 15.7766C11.6223 15.7938 11.4486 15.8017 10.9836 15.5328C10.5274 15.269 9.94476 14.8336 9.1 14.2L8.3 13.6Z" stroke="#222628" stroke-width="1.4"/>
<path d="M14.3 13.6C13.7037 13.1528 13.3069 12.8537 13.0392 12.5989C12.7783 12.3504 12.7279 12.2232 12.7137 12.1475C12.6954 12.05 12.6954 11.95 12.7137 11.8525C12.7279 11.7768 12.7783 11.6496 13.0392 11.4011C13.3069 11.1463 13.7037 10.8472 14.3 10.4L15.1 9.8C15.9448 9.16643 16.5274 8.73095 16.9836 8.46717C17.4486 8.19828 17.6223 8.20617 17.6919 8.22335C17.807 8.25179 17.9144 8.30547 18.0062 8.3805C18.0617 8.42584 18.1722 8.56009 18.2361 9.09343C18.2988 9.61664 18.3 10.344 18.3 11.4L18.3 12.6C18.3 13.656 18.2988 14.3834 18.2361 14.9066C18.1722 15.4399 18.0617 15.5742 18.0062 15.6195C17.9144 15.6945 17.807 15.7482 17.6919 15.7766C17.6223 15.7938 17.4486 15.8017 16.9836 15.5328C16.5274 15.269 15.9448 14.8336 15.1 14.2L14.3 13.6Z" stroke="#222628" stroke-width="1.4"/>
</svg>
