<svg width="24" height="24" viewBox="0 0 24 24" fill="none" xmlns="http://www.w3.org/2000/svg">
<path d="M11.3 13.6C10.7037 13.1528 10.3069 12.8537 10.0392 12.5989C9.77832 12.3504 9.72792 12.2232 9.71372 12.1475C9.69543 12.05 9.69543 11.95 9.71372 11.8525C9.72792 11.7768 9.77832 11.6496 10.0392 11.4011C10.3069 11.1463 10.7037 10.8472 11.3 10.4L12.1 9.8C12.9448 9.16643 13.5274 8.73095 13.9836 8.46717C14.4486 8.19828 14.6223 8.20617 14.6919 8.22335C14.807 8.25179 14.9144 8.30547 15.0062 8.3805C15.0617 8.42584 15.1722 8.56009 15.2361 9.09343C15.2988 9.61664 15.3 10.344 15.3 11.4L15.3 12.6C15.3 13.656 15.2988 14.3834 15.2361 14.9066C15.1722 15.4399 15.0617 15.5742 15.0062 15.6195C14.9144 15.6945 14.807 15.7482 14.6919 15.7766C14.6223 15.7938 14.4486 15.8017 13.9836 15.5328C13.5274 15.269 12.9448 14.8336 12.1 14.2L11.3 13.6Z" stroke="#222628" stroke-width="1.4"/>
<path d="M9 17L9 7" stroke="#222628" stroke-width="1.4" stroke-linecap="round"/>
</svg>
