<svg width="24" height="24" viewBox="0 0 24 24" fill="none" xmlns="http://www.w3.org/2000/svg">
<rect x="6" y="22" width="10" height="11" rx="3" transform="rotate(-90 6 22)" fill="#222628"/>
<rect x="6.7" y="21.3" width="17.6" height="9.6" rx="2.3" transform="rotate(-90 6.7 21.3)" stroke="#222628" stroke-width="1.4"/>
<path d="M11 3.5C10.7902 3.5 10.7583 3.49758 10.7415 3.49424C10.6225 3.47056 10.5294 3.37753 10.5058 3.25853C10.5024 3.24172 10.5 3.20983 10.5 3C10.5 2.79017 10.5024 2.75828 10.5058 2.74147C10.5294 2.62247 10.6225 2.52944 10.7415 2.50576L10.6439 2.01537L10.7415 2.50576C10.7583 2.50242 10.7902 2.5 11 2.5L12 2.5C12.2098 2.5 12.2417 2.50242 12.2585 2.50576L12.3561 2.01537L12.2585 2.50576C12.3775 2.52944 12.4706 2.62247 12.4942 2.74147C12.4976 2.75828 12.5 2.79017 12.5 3C12.5 3.20983 12.4976 3.24172 12.4942 3.25853C12.4706 3.37753 12.3775 3.47056 12.2585 3.49424C12.2417 3.49758 12.2098 3.5 12 3.5L11 3.5Z" stroke="#222628"/>
</svg>
