<svg width="24" height="24" viewBox="0 0 24 24" fill="none" xmlns="http://www.w3.org/2000/svg">
<path d="M5 10C5 8.13872 5 7.20808 5.24472 6.45492C5.73931 4.93273 6.93273 3.73931 8.45492 3.24472C9.20808 3 10.1387 3 12 3V3C13.8613 3 14.7919 3 15.5451 3.24472C17.0673 3.73931 18.2607 4.93273 18.7553 6.45492C19 7.20808 19 8.13872 19 10V13.9231C19 17.2481 19 18.9106 18.3366 19.4508C17.9696 19.7496 17.4997 19.8919 17.0286 19.8468C16.1769 19.7653 15.2547 18.3821 13.4103 15.6155V15.6155C12.8934 14.84 12.6349 14.4523 12.2953 14.3474C12.1029 14.2879 11.8971 14.2879 11.7047 14.3474C11.3651 14.4523 11.1066 14.84 10.5897 15.6155V15.6155C8.74529 18.3821 7.82311 19.7653 6.97145 19.8468C6.50033 19.8919 6.03041 19.7496 5.66342 19.4508C5 18.9106 5 17.2481 5 13.9231V10Z" stroke="#222628" stroke-width="1.4" stroke-linejoin="round"/>
</svg>
