<svg width="24" height="24" viewBox="0 0 24 24" fill="none" xmlns="http://www.w3.org/2000/svg">
<rect x="2" y="4" width="20" height="18" rx="6" stroke="#222628" stroke-width="1.4"/>
<line x1="16.7" y1="2.7" x2="16.7" y2="5.3" stroke="#222628" stroke-width="1.4" stroke-linecap="round"/>
<line x1="7.7" y1="2.7" x2="7.7" y2="5.3" stroke="#222628" stroke-width="1.4" stroke-linecap="round"/>
<path d="M12.7 10C12.7 10.3866 12.3866 10.7 12 10.7C11.6134 10.7 11.3 10.3866 11.3 10C11.3 9.61343 11.6134 9.30003 12 9.30003C12.3866 9.30003 12.7 9.61343 12.7 10Z" fill="#222628"/>
<path d="M17.7 10C17.7 10.3866 17.3866 10.7 17 10.7C16.6134 10.7 16.3 10.3866 16.3 10C16.3 9.61343 16.6134 9.30003 17 9.30003C17.3866 9.30003 17.7 9.61343 17.7 10Z" fill="#222628"/>
<path d="M7.7 10C7.7 10.3866 7.3866 10.7 7 10.7C6.6134 10.7 6.3 10.3866 6.3 10C6.3 9.61343 6.6134 9.30003 7 9.30003C7.3866 9.30003 7.7 9.61343 7.7 10Z" fill="#222628"/>
<path d="M12.7 14C12.7 14.3866 12.3866 14.7 12 14.7C11.6134 14.7 11.3 14.3866 11.3 14C11.3 13.6134 11.6134 13.3 12 13.3C12.3866 13.3 12.7 13.6134 12.7 14Z" fill="#222628"/>
<path d="M7.7 14C7.7 14.3866 7.3866 14.7 7 14.7C6.6134 14.7 6.3 14.3866 6.3 14C6.3 13.6134 6.6134 13.3 7 13.3C7.3866 13.3 7.7 13.6134 7.7 14Z" fill="#222628"/>
<path d="M17.7 14C17.7 14.3866 17.3866 14.7 17 14.7C16.6134 14.7 16.3 14.3866 16.3 14C16.3 13.6134 16.6134 13.3 17 13.3C17.3866 13.3 17.7 13.6134 17.7 14Z" fill="#222628"/>
<path d="M17.7 18C17.7 18.3866 17.3866 18.7 17 18.7C16.6134 18.7 16.3 18.3866 16.3 18C16.3 17.6134 16.6134 17.3 17 17.3C17.3866 17.3 17.7 17.6134 17.7 18Z" fill="#222628"/>
<path d="M12.7 18C12.7 18.3866 12.3866 18.7 12 18.7C11.6134 18.7 11.3 18.3866 11.3 18C11.3 17.6134 11.6134 17.3 12 17.3C12.3866 17.3 12.7 17.6134 12.7 18Z" fill="#222628"/>
<path d="M7.7 18C7.7 18.3866 7.3866 18.7 7 18.7C6.6134 18.7 6.3 18.3866 6.3 18C6.3 17.6134 6.6134 17.3 7 17.3C7.3866 17.3 7.7 17.6134 7.7 18Z" fill="#222628"/>
</svg>
