<svg width="24" height="24" viewBox="0 0 24 24" fill="none" xmlns="http://www.w3.org/2000/svg">
<path d="M9.62572 7.33815C9.13689 8.07738 7.99998 9.13887 7.99999 10C7.99999 10.9972 9.06263 13.0054 10.4427 14.3684C11.8228 15.7315 12.9903 16.5 14 16.5C14.6874 16.5 15.0328 14.8421 16.8689 14.8421C18.2459 14.8421 20 16.3421 20.5 18C20.7867 18.9506 19.6639 19.8088 18.4049 20.4062C17.4177 20.8747 16.311 21.0432 15.2234 20.9385C13.2369 20.7474 10.4047 19.9623 7 16.7368C3.09847 12.5 2.9015 9.72438 2.99999 7.01385C3.09848 4.30332 5.49999 3 6.31158 3C7.0645 3 9.42442 5.03844 9.76162 6.64692C9.81184 6.88649 9.76073 7.13397 9.62572 7.33815Z" stroke="#222628" stroke-width="1.4" stroke-linecap="round" stroke-linejoin="round"/>
<path d="M14 6.00502C14 6.00502 15.7671 5.76212 17.2914 7.28636C18.8156 8.8106 18.5727 10.5777 18.5727 10.5777" stroke="#222628" stroke-width="1.4" stroke-linecap="round"/>
<path d="M14 2.00501C14 2.00501 16.8364 1.83643 19.5 4.5C22.1636 7.16357 21.9907 9.99572 21.9907 9.99572" stroke="#222628" stroke-width="1.4" stroke-linecap="round"/>
</svg>
