<svg width="24" height="24" viewBox="0 0 24 24" fill="none" xmlns="http://www.w3.org/2000/svg">
<path d="M8.5 18C11.7459 20.5246 13.7001 20.968 15.2386 21.0191C16.3306 21.0554 17.435 20.8747 18.4222 20.4062C19.6812 19.8088 20.804 18.9506 20.5173 18C20.0173 16.3421 18.2632 14.8421 16.8862 14.8421C15.0501 14.8421 14.7047 16.5 14.0173 16.5C13.4768 16.5 12 15.5 11 14.5M5 14C4.5 13.5 4.46822 13.3603 4 12.5C2.96138 10.5916 2.49999 9 3.0173 7.01385C3.53461 5.0277 5.51731 3 6.32889 3C7.08181 3 9.44174 5.03844 9.77893 6.64692C9.82915 6.88649 9.77805 7.13403 9.64237 7.33776C9.15039 8.07649 8.00236 9.13638 8.0173 10C8.02595 10.5002 9 11.5 9 11.5" stroke="#222628" stroke-width="1.4" stroke-linecap="round" stroke-linejoin="round"/>
<line x1="18.9681" y1="6.98943" x2="3.98943" y2="21.0319" stroke="#222628" stroke-width="1.4" stroke-linecap="round"/>
</svg>
