<svg width="24" height="24" viewBox="0 0 24 24" fill="none" xmlns="http://www.w3.org/2000/svg">
<path d="M3 10.1878C3 7.80287 4.93341 5.86946 7.3184 5.86946V5.86946C7.75637 5.86946 8.17799 5.70309 8.49794 5.40402L8.8 5.12167C9.13007 4.81315 9.29511 4.65889 9.47502 4.53421C9.85506 4.27084 10.2908 4.09889 10.7483 4.03177C10.9649 4 11.1908 4 11.6426 4H12H12.3574C12.8092 4 13.0351 4 13.2517 4.03177C13.7092 4.09889 14.1449 4.27084 14.525 4.53421C14.7049 4.65889 14.8699 4.81315 15.2 5.12168L15.5021 5.40402C15.822 5.70309 16.2436 5.86946 16.6816 5.86946V5.86946C19.0666 5.86946 21 7.80287 21 10.1879V13.9975C21 16.3345 21 17.503 20.5268 18.3873C20.1541 19.0837 19.5837 19.6541 18.8873 20.0268C18.003 20.5 16.8345 20.5 14.4975 20.5H9.50246C7.1655 20.5 5.99702 20.5 5.11271 20.0268C4.41634 19.6541 3.84588 19.0837 3.47323 18.3873C3 17.503 3 16.3345 3 13.9975V10.1878Z" stroke="#222628" stroke-width="1.4"/>
<circle cx="12" cy="14" r="3" stroke="#222628" stroke-width="1.4"/>
<path d="M16 9H17" stroke="#222628" stroke-width="1.4" stroke-linecap="round"/>
</svg>
