<svg width="24" height="24" viewBox="0 0 24 24" fill="none" xmlns="http://www.w3.org/2000/svg">
<path d="M5.5 8H15.6C17.8498 8 18.9748 8 19.7634 8.57295C20.018 8.75799 20.242 8.98196 20.4271 9.23664C21 10.0252 21 11.1502 21 13.4V13.6C21 15.8498 21 16.9748 20.4271 17.7634C20.242 18.018 20.018 18.242 19.7634 18.4271C18.9748 19 17.8498 19 15.6 19H11.6462C9.63971 19 8.63646 19 7.88911 18.5122C7.64655 18.3538 7.4282 18.1612 7.24086 17.9403C6.66364 17.2596 6.53854 16.2642 6.28836 14.2733L5.5 8Z" stroke="#222628" stroke-width="1.4"/>
<path d="M2 5.3C1.6134 5.3 1.3 5.6134 1.3 6C1.3 6.3866 1.6134 6.7 2 6.7V5.3ZM6.60024 8.13985L5.39155 6.12536L4.19106 6.84565L5.39976 8.86015L6.60024 8.13985ZM3.93381 5.3H2V6.7H3.93381V5.3ZM5.39155 6.12536C5.08432 5.61331 4.53096 5.3 3.93381 5.3V6.7C4.03919 6.7 4.13684 6.75529 4.19106 6.84565L5.39155 6.12536Z" fill="#222628"/>
<circle cx="17.5" cy="21.5" r="1" fill="#222628"/>
<circle cx="10.5" cy="21.5" r="1" fill="#222628"/>
<line x1="17.3" y1="12.7" x2="14.7" y2="12.7" stroke="#222628" stroke-width="1.4" stroke-linecap="round" stroke-linejoin="round"/>
</svg>
