<svg width="24" height="24" viewBox="0 0 24 24" fill="none" xmlns="http://www.w3.org/2000/svg">
<path d="M13 10L11 12.5L14 12.5L12 15" stroke="#222628" stroke-width="1.4" stroke-linecap="round" stroke-linejoin="round"/>
<rect x="7.7" y="21.3" width="17.6" height="9.6" rx="2.3" transform="rotate(-90 7.7 21.3)" stroke="#222628" stroke-width="1.4"/>
<path d="M12 3.5C11.7902 3.5 11.7583 3.49758 11.7415 3.49424C11.6225 3.47056 11.5294 3.37753 11.5058 3.25853C11.5024 3.24172 11.5 3.20983 11.5 3C11.5 2.79017 11.5024 2.75828 11.5058 2.74147C11.5294 2.62247 11.6225 2.52944 11.7415 2.50576L11.6439 2.01537L11.7415 2.50576C11.7583 2.50242 11.7902 2.5 12 2.5L13 2.5C13.2098 2.5 13.2417 2.50242 13.2585 2.50576L13.3561 2.01537L13.2585 2.50576C13.3775 2.52944 13.4706 2.62247 13.4942 2.74147C13.4976 2.75828 13.5 2.79017 13.5 3C13.5 3.20983 13.4976 3.24172 13.4942 3.25853C13.4706 3.37753 13.3775 3.47056 13.2585 3.49424C13.2417 3.49758 13.2098 3.5 13 3.5L12 3.5Z" stroke="#222628"/>
</svg>
