<svg width="24" height="24" viewBox="0 0 24 24" fill="none" xmlns="http://www.w3.org/2000/svg">
<rect x="3" y="2" width="18" height="20" rx="5.5" stroke="#222628" stroke-width="1.4"/>
<path d="M7.52626 8.53843C7.27134 8.24778 6.82907 8.21882 6.53843 8.47374C6.24778 8.72866 6.21882 9.17093 6.47374 9.46157L7.52626 8.53843ZM10.5104 8.47904C10.775 8.19715 10.7609 7.75416 10.479 7.48959C10.1971 7.22502 9.75416 7.23907 9.48959 7.52096L10.5104 8.47904ZM7 9C6.47374 9.46157 6.47376 9.4616 6.47378 9.46162C6.47379 9.46163 6.47382 9.46166 6.47384 9.46169C6.47389 9.46175 6.47395 9.46182 6.47403 9.4619C6.47417 9.46207 6.47438 9.4623 6.47463 9.46259C6.47514 9.46317 6.47586 9.46398 6.47678 9.46503C6.47862 9.46713 6.48127 9.47014 6.48469 9.47402C6.49152 9.48177 6.50141 9.49298 6.51395 9.50714C6.53903 9.53544 6.57479 9.57566 6.61803 9.62383C6.7042 9.71983 6.82141 9.84896 6.9435 9.97904C7.06371 10.1071 7.19652 10.2446 7.31189 10.3533C7.36799 10.4061 7.43254 10.4641 7.49644 10.513C7.52738 10.5367 7.57335 10.57 7.62841 10.6006C7.65517 10.6155 7.80084 10.7 8 10.7V9.3C8.10671 9.3 8.18675 9.32533 8.22308 9.33839C8.26426 9.35319 8.29389 9.36876 8.30861 9.37694C8.33733 9.3929 8.35185 9.40472 8.34704 9.40104C8.33945 9.39524 8.31531 9.37514 8.2719 9.33424C8.18825 9.25544 8.07874 9.14288 7.96432 9.02096C7.85177 8.90104 7.74203 8.78017 7.6599 8.68867C7.61899 8.64309 7.58527 8.60518 7.5619 8.5788C7.55022 8.56562 7.54115 8.55534 7.53507 8.54844C7.53203 8.54499 7.52975 8.5424 7.52826 8.54071C7.52752 8.53986 7.52698 8.53924 7.52664 8.53886C7.52647 8.53867 7.52636 8.53854 7.52629 8.53846C7.52626 8.53843 7.52624 8.53841 7.52624 8.5384C7.52623 8.5384 7.52624 8.5384 7.52624 8.5384C7.52625 8.53841 7.52626 8.53843 7 9ZM8 10.7C8.18961 10.7 8.3279 10.6215 8.34377 10.6131C8.39001 10.5886 8.42728 10.5631 8.44968 10.5471C8.49656 10.5136 8.54219 10.4755 8.57972 10.443C8.65783 10.3753 8.75239 10.2863 8.85178 10.1899C9.05296 9.99473 9.30512 9.73852 9.54873 9.48719C9.79339 9.23477 10.0337 8.98283 10.2126 8.7943C10.3021 8.69995 10.3764 8.6213 10.4284 8.56617C10.4544 8.5386 10.4748 8.5169 10.4888 8.50206C10.4958 8.49464 10.5011 8.48892 10.5048 8.48505C10.5066 8.48311 10.508 8.48163 10.5089 8.48062C10.5094 8.48012 10.5098 8.47974 10.51 8.47947C10.5101 8.47934 10.5102 8.47924 10.5103 8.47917C10.5103 8.47913 10.5104 8.4791 10.5104 8.47908C10.5104 8.47906 10.5104 8.47904 10 8C9.48959 7.52096 9.48959 7.52096 9.48958 7.52096C9.48957 7.52098 9.48956 7.52099 9.48953 7.52102C9.48949 7.52107 9.48941 7.52115 9.48931 7.52126C9.4891 7.52148 9.48878 7.52182 9.48835 7.52228C9.48749 7.52319 9.48619 7.52458 9.48445 7.52643C9.48098 7.53012 9.4758 7.53564 9.469 7.54286C9.45541 7.55732 9.43538 7.57859 9.40981 7.60571C9.35866 7.65995 9.28536 7.73755 9.19698 7.8307C9.02006 8.01717 8.78343 8.26523 8.54346 8.51281C8.30243 8.76148 8.06228 9.00527 7.87693 9.18509C7.78306 9.27616 7.7108 9.34345 7.66273 9.38512C7.63718 9.40727 7.62988 9.41219 7.63575 9.408C7.63766 9.40663 7.65741 9.39233 7.68934 9.37545C7.6909 9.37463 7.81808 9.3 8 9.3V10.7Z" fill="#222628"/>
<path d="M7.52626 15.5384C7.27134 15.2478 6.82907 15.2188 6.53843 15.4737C6.24778 15.7287 6.21882 16.1709 6.47374 16.4616L7.52626 15.5384ZM10.5104 15.479C10.775 15.1971 10.7609 14.7542 10.479 14.4896C10.1971 14.225 9.75416 14.2391 9.48959 14.521L10.5104 15.479ZM7 16C6.47374 16.4616 6.47376 16.4616 6.47378 16.4616C6.47379 16.4616 6.47382 16.4617 6.47384 16.4617C6.47389 16.4617 6.47395 16.4618 6.47403 16.4619C6.47417 16.4621 6.47438 16.4623 6.47463 16.4626C6.47514 16.4632 6.47586 16.464 6.47678 16.465C6.47862 16.4671 6.48127 16.4701 6.48469 16.474C6.49152 16.4818 6.50141 16.493 6.51395 16.5071C6.53903 16.5354 6.57479 16.5757 6.61803 16.6238C6.7042 16.7198 6.82141 16.849 6.9435 16.979C7.06371 17.1071 7.19652 17.2446 7.31189 17.3533C7.36799 17.4061 7.43254 17.4641 7.49644 17.513C7.52738 17.5367 7.57335 17.57 7.62841 17.6006C7.65517 17.6155 7.80084 17.7 8 17.7V16.3C8.10671 16.3 8.18675 16.3253 8.22308 16.3384C8.26426 16.3532 8.29389 16.3688 8.30861 16.3769C8.33733 16.3929 8.35185 16.4047 8.34704 16.401C8.33945 16.3952 8.31531 16.3751 8.2719 16.3342C8.18825 16.2554 8.07874 16.1429 7.96432 16.021C7.85177 15.901 7.74203 15.7802 7.6599 15.6887C7.61899 15.6431 7.58527 15.6052 7.5619 15.5788C7.55022 15.5656 7.54115 15.5553 7.53507 15.5484C7.53203 15.545 7.52975 15.5424 7.52826 15.5407C7.52752 15.5399 7.52698 15.5392 7.52664 15.5389C7.52647 15.5387 7.52636 15.5385 7.52629 15.5385C7.52626 15.5384 7.52624 15.5384 7.52624 15.5384C7.52623 15.5384 7.52624 15.5384 7.52624 15.5384C7.52625 15.5384 7.52626 15.5384 7 16ZM8 17.7C8.18961 17.7 8.3279 17.6215 8.34377 17.6131C8.39001 17.5886 8.42728 17.5631 8.44968 17.5471C8.49656 17.5136 8.54219 17.4755 8.57972 17.443C8.65783 17.3753 8.75239 17.2863 8.85178 17.1899C9.05296 16.9947 9.30512 16.7385 9.54873 16.4872C9.79339 16.2348 10.0337 15.9828 10.2126 15.7943C10.3021 15.7 10.3764 15.6213 10.4284 15.5662C10.4544 15.5386 10.4748 15.5169 10.4888 15.5021C10.4958 15.4946 10.5011 15.4889 10.5048 15.485C10.5066 15.4831 10.508 15.4816 10.5089 15.4806C10.5094 15.4801 10.5098 15.4797 10.51 15.4795C10.5101 15.4793 10.5102 15.4792 10.5103 15.4792C10.5103 15.4791 10.5104 15.4791 10.5104 15.4791C10.5104 15.4791 10.5104 15.479 10 15C9.48959 14.521 9.48959 14.521 9.48958 14.521C9.48957 14.521 9.48956 14.521 9.48953 14.521C9.48949 14.5211 9.48941 14.5211 9.48931 14.5213C9.4891 14.5215 9.48878 14.5218 9.48835 14.5223C9.48749 14.5232 9.48619 14.5246 9.48445 14.5264C9.48098 14.5301 9.4758 14.5356 9.469 14.5429C9.45541 14.5573 9.43538 14.5786 9.40981 14.6057C9.35866 14.66 9.28536 14.7375 9.19698 14.8307C9.02006 15.0172 8.78343 15.2652 8.54346 15.5128C8.30243 15.7615 8.06228 16.0053 7.87693 16.1851C7.78306 16.2762 7.7108 16.3434 7.66273 16.3851C7.63718 16.4073 7.62988 16.4122 7.63575 16.408C7.63766 16.4066 7.65741 16.3923 7.68934 16.3754C7.6909 16.3746 7.81808 16.3 8 16.3V17.7Z" fill="#222628"/>
<path d="M17 16.5L13 16.5" stroke="#222628" stroke-width="1.4" stroke-linecap="round"/>
<path d="M17 9.5H13" stroke="#222628" stroke-width="1.4" stroke-linecap="round"/>
</svg>
