<svg width="24" height="24" viewBox="0 0 24 24" fill="none" xmlns="http://www.w3.org/2000/svg">
<path d="M12 21L12 14.7" stroke="#222628" stroke-width="1.4" stroke-linecap="round"/>
<line x1="12" y1="13.8485" x2="9.84853" y2="16" stroke="#222628" stroke-width="1.2" stroke-linecap="round"/>
<line x1="0.6" y1="-0.6" x2="3.64264" y2="-0.6" transform="matrix(0.707107 0.707107 0.707107 -0.707107 12 13)" stroke="#222628" stroke-width="1.2" stroke-linecap="round"/>
<path d="M16 18H17.3845C17.7933 18 18.2011 17.9539 18.5822 17.8059C19.6918 17.3748 22 16.1587 22 13.5C22 10 19 9 19 8.5C19 8 17.7658 3.5 12 3.5C6.23419 3.5 5 8 5 8.5C5 9 1.99997 10 2 13.5C2.00003 16.1587 4.30821 17.3748 5.41781 17.8058C5.79889 17.9539 6.20672 18 6.61553 18H8" stroke="#222628" stroke-width="1.4" stroke-linecap="round" stroke-linejoin="round"/>
</svg>
