<svg width="24" height="24" viewBox="0 0 24 24" fill="none" xmlns="http://www.w3.org/2000/svg">
<path d="M10.9915 2.81875C11.5792 2.34164 12.4208 2.34164 13.0085 2.81875L14.7301 4.21647C14.9713 4.4123 15.2643 4.53366 15.5733 4.56575L17.779 4.79478C18.5319 4.87295 19.127 5.46806 19.2052 6.22097L19.4343 8.42668C19.4663 8.73571 19.5877 9.02871 19.7835 9.26991L21.1813 10.9915C21.6584 11.5792 21.6584 12.4208 21.1813 13.0085L19.7835 14.7301C19.5877 14.9713 19.4663 15.2643 19.4343 15.5733L19.2052 17.779C19.127 18.5319 18.5319 19.127 17.779 19.2052L15.5733 19.4343C15.2643 19.4663 14.9713 19.5877 14.7301 19.7835L13.0085 21.1813C12.4208 21.6584 11.5792 21.6584 10.9915 21.1813L9.26991 19.7835C9.02871 19.5877 8.73571 19.4663 8.42668 19.4343L6.22097 19.2052C5.46806 19.127 4.87295 18.5319 4.79478 17.779L4.56575 15.5733C4.53366 15.2643 4.4123 14.9713 4.21647 14.7301L2.81875 13.0085C2.34164 12.4208 2.34164 11.5792 2.81875 10.9915L4.21647 9.26991C4.4123 9.02871 4.53366 8.73571 4.56575 8.42668L4.79478 6.22097C4.87295 5.46806 5.46806 4.87295 6.22097 4.79478L8.42668 4.56575C8.73571 4.53366 9.02871 4.4123 9.26991 4.21647L10.9915 2.81875Z" stroke="#222628" stroke-width="1.4"/>
<path d="M9.53028 12.043C9.27791 11.7502 8.83591 11.7174 8.54305 11.9697C8.25018 12.2221 8.21735 12.6641 8.46972 12.957L9.53028 12.043ZM15.5797 9.39242C15.7964 9.07229 15.7126 8.63707 15.3924 8.42034C15.0723 8.20361 14.6371 8.28744 14.4203 8.60758L15.5797 9.39242ZM9 12.5C8.46972 12.957 8.46975 12.957 8.46978 12.957C8.4698 12.957 8.46983 12.9571 8.46987 12.9571C8.46995 12.9572 8.47005 12.9573 8.47018 12.9575C8.47043 12.9578 8.4708 12.9582 8.47126 12.9587C8.47219 12.9598 8.47352 12.9614 8.47526 12.9634C8.47873 12.9674 8.48379 12.9732 8.49035 12.9808C8.50347 12.996 8.52258 13.018 8.5469 13.0459C8.59553 13.1017 8.66509 13.1811 8.74935 13.2763C8.91753 13.4664 9.14581 13.7212 9.38392 13.9769C9.61997 14.2305 9.87434 14.4945 10.0927 14.6987C10.2002 14.7993 10.3124 14.8981 10.4171 14.9759C10.4687 15.0142 10.5336 15.0589 10.6058 15.0969C10.6564 15.1236 10.8054 15.2 11 15.2V13.8C11.0912 13.8 11.1591 13.8195 11.191 13.8301C11.2259 13.8417 11.2493 13.8535 11.2581 13.8582C11.2747 13.8669 11.2742 13.8686 11.2522 13.8522C11.2097 13.8206 11.1419 13.7632 11.049 13.6763C10.8664 13.5055 10.638 13.2695 10.4087 13.0231C10.1813 12.7788 9.96147 12.5336 9.79787 12.3487C9.71623 12.2564 9.64899 12.1796 9.60229 12.126C9.57894 12.0992 9.56076 12.0783 9.54849 12.0641C9.54236 12.057 9.53771 12.0517 9.53465 12.0481C9.53311 12.0463 9.53197 12.045 9.53124 12.0442C9.53088 12.0437 9.53061 12.0434 9.53045 12.0432C9.53037 12.0432 9.53031 12.0431 9.53029 12.0431C9.53027 12.043 9.53027 12.043 9.53026 12.043C9.53027 12.043 9.53028 12.043 9 12.5ZM11 15.2C11.1399 15.2 11.2465 15.1592 11.2986 15.1362C11.357 15.1104 11.4026 15.0815 11.432 15.0613C11.4905 15.0211 11.539 14.9776 11.5723 14.9461C11.6414 14.8805 11.7143 14.7995 11.7839 14.7179C11.9263 14.551 12.1046 14.3225 12.301 14.0615C12.6961 13.5364 13.1928 12.8413 13.6766 12.1522C14.1614 11.4618 14.6371 10.772 14.9913 10.2551C15.1685 9.99658 15.3154 9.7811 15.4182 9.63017C15.4695 9.55471 15.5098 9.49537 15.5373 9.45486C15.5511 9.4346 15.5616 9.41904 15.5688 9.40852C15.5723 9.40326 15.575 9.39926 15.5769 9.39657C15.5778 9.39522 15.5785 9.3942 15.5789 9.3935C15.5792 9.39316 15.5793 9.39289 15.5795 9.39271C15.5795 9.39262 15.5796 9.39255 15.5796 9.3925C15.5796 9.39245 15.5797 9.39242 15 9C14.4203 8.60758 14.4203 8.60759 14.4203 8.60762C14.4203 8.60766 14.4202 8.60771 14.4202 8.60779C14.4201 8.60794 14.4199 8.60818 14.4197 8.6085C14.4193 8.60914 14.4186 8.61011 14.4177 8.61141C14.416 8.614 14.4134 8.61788 14.4099 8.62303C14.4029 8.63333 14.3925 8.64866 14.3789 8.66868C14.3517 8.70873 14.3118 8.76756 14.2608 8.84248C14.1588 8.99234 14.0127 9.20655 13.8365 9.46364C13.4839 9.97803 13.0115 10.6632 12.5308 11.3478C12.0492 12.0337 11.5632 12.7136 11.1823 13.2198C10.9907 13.4744 10.8328 13.6756 10.7187 13.8094C10.66 13.8782 10.6245 13.9154 10.6087 13.9304C10.5995 13.9391 10.6114 13.9265 10.6396 13.9072C10.6539 13.8974 10.6859 13.8764 10.7323 13.8558C10.7725 13.8381 10.8687 13.8 11 13.8V15.2Z" fill="#222628"/>
</svg>
