<svg width="24" height="24" viewBox="0 0 24 24" fill="none" xmlns="http://www.w3.org/2000/svg">
<rect x="5" y="2" width="17" height="16" rx="6" stroke="#222628" stroke-width="1.4"/>
<path d="M5.3 11V11C5.02142 11 4.88213 11 4.76462 11.0092C3.29349 11.125 2.12503 12.2935 2.00925 13.7646C2 13.8821 2 14.0214 2 14.3V16.5C2 17.8956 2 18.5933 2.17224 19.1611C2.56004 20.4395 3.56046 21.44 4.83886 21.8278C5.40666 22 6.10421 22 7.49931 22C8.04002 22 8.59458 22 9.14998 22C11.2763 22 13 20.2763 13 18.15V18.15" stroke="#222628" stroke-width="1.4"/>
</svg>
