<svg width="24" height="24" viewBox="0 0 24 24" fill="none" xmlns="http://www.w3.org/2000/svg">
<path d="M9.83267 6.88896C10.3875 5.98112 10.771 5.35577 11.1067 4.93097C11.441 4.50777 11.6381 4.40356 11.7767 4.37482C11.924 4.34428 12.076 4.34428 12.2233 4.37482C12.3619 4.40356 12.559 4.50777 12.8933 4.93097C13.229 5.35577 13.6125 5.98112 14.1673 6.88896L19.3902 15.4355C19.9874 16.4128 20.4006 17.0912 20.6427 17.6212C20.8858 18.1536 20.8837 18.3879 20.8416 18.5242C20.7957 18.6733 20.7185 18.8109 20.6153 18.9278C20.5208 19.0348 20.322 19.1588 19.741 19.2289C19.1625 19.2988 18.3682 19.3 17.2229 19.3H6.7771C5.63181 19.3 4.83749 19.2988 4.25898 19.2289C3.678 19.1588 3.47915 19.0348 3.38474 18.9278C3.28151 18.8109 3.20435 18.6733 3.15837 18.5242C3.11631 18.3879 3.11424 18.1536 3.35734 17.6212C3.59941 17.0912 4.01255 16.4128 4.60977 15.4355L9.83267 6.88896Z" stroke="#222628" stroke-width="1.4"/>
<path d="M12 10V14" stroke="#222628" stroke-width="1.4" stroke-linecap="round"/>
<path d="M12.7 16.3C12.7 16.6866 12.3866 17 12 17C11.6134 17 11.3 16.6866 11.3 16.3C11.3 15.9134 11.6134 15.6 12 15.6C12.3866 15.6 12.7 15.9134 12.7 16.3Z" fill="#222628"/>
</svg>
