<svg width="24" height="24" viewBox="0 0 24 24" fill="none" xmlns="http://www.w3.org/2000/svg">
<path d="M10.9915 2.81875C11.5792 2.34164 12.4208 2.34164 13.0085 2.81875L14.7301 4.21647C14.9713 4.4123 15.2643 4.53366 15.5733 4.56575L17.779 4.79478C18.5319 4.87295 19.127 5.46806 19.2052 6.22097L19.4343 8.42668C19.4663 8.73571 19.5877 9.02871 19.7835 9.26991L21.1813 10.9915C21.6584 11.5792 21.6584 12.4208 21.1813 13.0085L19.7835 14.7301C19.5877 14.9713 19.4663 15.2643 19.4343 15.5733L19.2052 17.779C19.127 18.5319 18.5319 19.127 17.779 19.2052L15.5733 19.4343C15.2643 19.4663 14.9713 19.5877 14.7301 19.7835L13.0085 21.1813C12.4208 21.6584 11.5792 21.6584 10.9915 21.1813L9.26991 19.7835C9.02871 19.5877 8.73571 19.4663 8.42668 19.4343L6.22097 19.2052C5.46806 19.127 4.87295 18.5319 4.79478 17.779L4.56575 15.5733C4.53366 15.2643 4.4123 14.9713 4.21647 14.7301L2.81875 13.0085C2.34164 12.4208 2.34164 11.5792 2.81875 10.9915L4.21647 9.26991C4.4123 9.02871 4.53366 8.73571 4.56575 8.42668L4.79478 6.22097C4.87295 5.46806 5.46806 4.87295 6.22097 4.79478L8.42668 4.56575C8.73571 4.53366 9.02871 4.4123 9.26991 4.21647L10.9915 2.81875Z" stroke="#222628" stroke-width="1.4"/>
<path d="M9 15L15 9" stroke="#222628" stroke-width="1.4" stroke-linecap="round" stroke-linejoin="round"/>
<path d="M14.991 15H15.009" stroke="#222628" stroke-width="1.6" stroke-linecap="round" stroke-linejoin="round"/>
<path d="M8.991 9H9.009" stroke="#222628" stroke-width="1.6" stroke-linecap="round" stroke-linejoin="round"/>
</svg>
