<svg width="24" height="24" viewBox="0 0 24 24" fill="none" xmlns="http://www.w3.org/2000/svg">
<path d="M15.4434 3.37391C15.8403 2.90157 16.4885 2.78923 16.9802 3.08267C17.6301 3.47059 18.3436 3.93189 18.8333 4.34333C19.3141 4.74735 19.8663 5.34469 20.3391 5.89681C20.7068 6.32619 20.7066 6.97711 20.3119 7.44692L10.157 19.5328C9.81596 19.9387 9.35342 20.2087 8.84637 20.2928C8.12441 20.4126 7.15631 20.5576 6.3242 20.6299C5.90586 20.6662 5.54213 20.6823 5.26925 20.6716C5.18717 20.6684 5.12031 20.663 5.06742 20.6566C5.05197 20.6056 5.03512 20.5407 5.01781 20.4604C4.96027 20.1934 4.91341 19.8323 4.8771 19.414C4.80488 18.5819 4.78088 17.6033 4.77446 16.8715C4.76996 16.3575 4.95615 15.8554 5.29719 15.4495L15.4434 3.37391ZM4.94169 20.6327C4.94181 20.6326 4.94392 20.6333 4.94774 20.6348C4.94348 20.6335 4.94157 20.6327 4.94169 20.6327ZM5.10952 20.7707C5.11168 20.7742 5.11268 20.7762 5.11264 20.7763C5.11259 20.7764 5.11151 20.7746 5.10952 20.7707Z" stroke="#222628" stroke-width="1.4"/>
<path d="M14.0123 5.73276C14.0123 5.73276 15.1834 7.41437 16.2055 8.08731C17.2276 8.76024 18.4999 9.49998 18.4999 9.49998" stroke="#222628" stroke-width="1.4" stroke-linecap="round"/>
</svg>
