<svg width="24" height="24" viewBox="0 0 24 24" fill="none" xmlns="http://www.w3.org/2000/svg">
<path d="M14.1682 3.50553C14.5635 3.03502 15.2081 2.92188 15.6984 3.2118C16.3521 3.59832 17.0702 4.05924 17.5609 4.47154C18.0429 4.87651 18.5955 5.47844 19.0677 6.03451C19.4316 6.46307 19.43 7.11043 19.0368 7.57836L8.5808 20.0226C8.24568 20.4215 7.79297 20.6892 7.29548 20.7781C6.56745 20.9081 5.57999 21.0687 4.72958 21.1537C4.30203 21.1964 3.92949 21.2178 3.64993 21.2105C3.56815 21.2084 3.5011 21.2039 3.44763 21.1983C3.43283 21.1466 3.41689 21.0813 3.40071 21.0011C3.34538 20.727 3.30224 20.3563 3.27061 19.9278C3.2077 19.0755 3.19578 18.0751 3.19837 17.3356C3.20014 16.8302 3.38587 16.3381 3.72099 15.9393L14.1682 3.50553ZM3.31424 21.1749C3.31437 21.1748 3.31667 21.1755 3.3208 21.1771C3.31619 21.1758 3.31412 21.175 3.31424 21.1749ZM3.49034 21.3195C3.49264 21.3233 3.49368 21.3255 3.49363 21.3256C3.49358 21.3257 3.49244 21.3238 3.49034 21.3195Z" stroke="#222628" stroke-width="1.4"/>
<path d="M12.4182 6C12.4182 6 13.4566 7.59424 14.3934 8.21099C15.3301 8.82774 16.5 9.5 16.5 9.5" stroke="#222628" stroke-width="1.4" stroke-linecap="round"/>
<line x1="14.7" y1="21.3" x2="21.3" y2="21.3" stroke="#222628" stroke-width="1.4" stroke-linecap="round"/>
</svg>
