<svg width="24" height="24" viewBox="0 0 24 24" fill="none" xmlns="http://www.w3.org/2000/svg">
<rect x="2.7" y="2.7" width="18.6" height="18.6" rx="5.3" stroke="#222628" stroke-width="1.4"/>
<path d="M13.6063 6.97008C14.014 6.48481 14.6762 6.38409 15.1529 6.69634C15.4895 6.91684 15.8117 7.14474 16.0532 7.34765C16.2871 7.54413 16.5525 7.80739 16.8128 8.08537C17.1967 8.4954 17.2112 9.15829 16.8051 9.64168L11.0417 16.501C10.6694 16.9441 10.1556 17.223 9.60544 17.2734C9.11956 17.3179 8.57316 17.3561 8.12446 17.358C7.91505 17.3589 7.74362 17.3517 7.61713 17.3374C7.58127 17.2153 7.54464 17.0477 7.50942 16.8412C7.43397 16.3989 7.37743 15.8541 7.33756 15.3678C7.2924 14.8172 7.47854 14.2631 7.85084 13.82L13.6063 6.97008ZM7.46959 17.3114C7.46967 17.3114 7.47158 17.3119 7.47506 17.3133L7.47497 17.3132C7.47123 17.3121 7.46952 17.3115 7.46959 17.3114ZM7.66542 17.4732C7.66921 17.4796 7.669 17.4803 7.66547 17.4733L7.66542 17.4732Z" stroke="#222628" stroke-width="1.4"/>
<path d="M13.2729 8C13.2729 8 13.8666 8.98509 14.424 9.35204C14.9813 9.71899 15.68 10.115 15.68 10.115" stroke="#222628" stroke-width="1.4" stroke-linecap="round"/>
</svg>
