<svg width="24" height="24" viewBox="0 0 24 24" fill="none" xmlns="http://www.w3.org/2000/svg">
<path d="M16.5 6.75862C15.0174 5.65407 13.3677 5 11.5 5C7.5 5 4.5 8 2 12C3.33267 14.1323 4.80743 15.9804 6.5 17.2414" stroke="#222628" stroke-width="1.4" stroke-linecap="round" stroke-linejoin="round"/>
<path d="M9.5 19C15 19.5 19 16 21.5 12C20.1673 9.86772 19 9.00001 19 9.00001" stroke="#222628" stroke-width="1.4" stroke-linecap="round" stroke-linejoin="round"/>
<path d="M9.87865 14.1213C9.60008 13.8427 9.3791 13.512 9.22834 13.1481C9.07757 12.7841 8.99997 12.394 8.99997 12C8.99997 11.606 9.07757 11.2159 9.22834 10.8519C9.3791 10.488 9.60008 10.1573 9.87865 9.87868C10.1572 9.6001 10.4879 9.37913 10.8519 9.22836C11.2159 9.0776 11.606 9 12 9C12.3939 9 12.784 9.0776 13.148 9.22836C13.512 9.37913 13.8427 9.6001 14.1213 9.87868L12 12L9.87865 14.1213Z" stroke="#222628" stroke-width="1.4"/>
<line x1="19" y1="4.98995" x2="4.98995" y2="19" stroke="#222628" stroke-width="1.4" stroke-linecap="round"/>
<path d="M15.3632 12.6368C15.3632 12.6368 15.4265 13.5735 14.5531 14.4469C13.6797 15.3202 12.7431 15.2569 12.7431 15.2569" stroke="#222628" stroke-width="1.4" stroke-linecap="round"/>
</svg>
