<svg width="24" height="24" viewBox="0 0 24 24" fill="none" xmlns="http://www.w3.org/2000/svg">
<path d="M4 12L4 6.5" stroke="#222628" stroke-width="1.4" stroke-linecap="round" stroke-linejoin="round"/>
<path d="M11.009 18.5078C9.4079 16.8069 7.63722 14.0619 6.95569 12.9699C6.76377 12.6624 6.66663 12.3085 6.66663 11.946L6.66663 7.53863C6.66663 6.88748 6.98362 6.27709 7.51627 5.90257L8.28235 5.36392C8.6192 5.12708 9.02093 4.99998 9.43271 4.99998L14.4681 4.99998C15.2407 4.99998 15.9443 5.44505 16.2753 6.14323L18.9842 11.8574C19.456 12.8526 18.7302 14 17.6288 14L12.9716 14C12.5649 14 12.3283 14.4597 12.5647 14.7906L13.1396 15.5954C13.8539 16.5955 13.5058 17.9971 12.4065 18.5467L12.123 18.6885C11.7486 18.8757 11.2959 18.8125 11.009 18.5078Z" stroke="#222628" stroke-width="1.4" stroke-linecap="round" stroke-linejoin="round"/>
</svg>
