<svg width="24" height="24" viewBox="0 0 24 24" fill="none" xmlns="http://www.w3.org/2000/svg">
<path d="M4 12V17.5" stroke="#222628" stroke-width="1.4" stroke-linecap="round" stroke-linejoin="round"/>
<path d="M11.009 5.49225C9.40794 7.19308 7.63725 9.93814 6.95573 11.0301C6.7638 11.3376 6.66666 11.6915 6.66666 12.054V16.4614C6.66666 17.1125 6.98365 17.7229 7.51631 18.0974L8.28239 18.6361C8.61923 18.8729 9.02097 19 9.43274 19H14.4681C15.2408 19 15.9443 18.555 16.2753 17.8568L18.9843 12.1426C19.4561 11.1474 18.7302 10 17.6289 10H12.9716C12.5649 10 12.3284 9.54032 12.5648 9.20938L13.1396 8.4046C13.8539 7.40455 13.5058 6.00288 12.4066 5.45327L12.123 5.3115C11.7486 5.1243 11.2959 5.18746 11.009 5.49225Z" stroke="#222628" stroke-width="1.4" stroke-linecap="round" stroke-linejoin="round"/>
</svg>
