<svg width="24" height="24" viewBox="0 0 24 24" fill="none" xmlns="http://www.w3.org/2000/svg">
<path d="M2 7.72773C2 6.11572 2 5.30971 2.30169 4.68884C2.59556 4.08407 3.08407 3.59556 3.68884 3.30169C4.30971 3 5.11572 3 6.72773 3H7.39922C7.55454 3 7.6322 3 7.70619 3.00366C8.51324 3.04354 9.27008 3.40729 9.80538 4.01258C9.85445 4.06807 9.90297 4.12871 10 4.25V4.25C10.097 4.37129 10.1455 4.43193 10.1946 4.48742C10.7299 5.09271 11.4868 5.45646 12.2938 5.49634C12.3678 5.5 12.4455 5.5 12.6008 5.5H14.8C17.7998 5.5 19.2997 5.5 20.3511 6.26393C20.6907 6.51065 20.9893 6.80928 21.2361 7.14886C22 8.20032 22 9.70021 22 12.7V13.8C22 16.7998 22 18.2997 21.2361 19.3511C20.9893 19.6907 20.6907 19.9893 20.3511 20.2361C19.2997 21 17.7998 21 14.8 21H9.2C6.20021 21 4.70032 21 3.64886 20.2361C3.30928 19.9893 3.01065 19.6907 2.76393 19.3511C2 18.2997 2 16.7998 2 13.8V7.72773Z" stroke="#222628" stroke-width="1.4"/>
<line x1="14.7" y1="17.3" x2="18.3" y2="17.3" stroke="#222628" stroke-width="1.4" stroke-linecap="round"/>
</svg>
