<svg width="24" height="24" viewBox="0 0 24 24" fill="none" xmlns="http://www.w3.org/2000/svg">
<path d="M11.1643 7.82265C11.0663 8.19663 11.2901 8.57921 11.6641 8.67716C12.0381 8.77511 12.4206 8.55134 12.5186 8.17735L11.1643 7.82265ZM10.9274 4.82353L10.7529 5.50143L10.9274 4.82353ZM10.2565 2L10.2565 1.3L8.85649 1.3L8.85649 2L10.2565 2ZM11.8414 8C12.5186 8.17735 12.5186 8.17715 12.5187 8.17693C12.5187 8.17684 12.5188 8.17661 12.5188 8.17644C12.5189 8.17609 12.519 8.1757 12.5191 8.17527C12.5193 8.1744 12.5196 8.17337 12.5199 8.17217C12.5205 8.16976 12.5213 8.16668 12.5223 8.16295C12.5241 8.15549 12.5266 8.14542 12.5297 8.13289C12.5357 8.10784 12.5438 8.07289 12.5533 8.02932C12.5722 7.94233 12.5965 7.82003 12.6199 7.67276C12.6662 7.3816 12.7114 6.97688 12.6974 6.54699C12.6837 6.12501 12.6118 5.62527 12.3835 5.17882C12.1428 4.70789 11.7307 4.30749 11.102 4.14563L10.7529 5.50143C10.942 5.55011 11.0531 5.65204 11.137 5.81617C11.2335 6.00478 11.2878 6.27284 11.2982 6.59235C11.3083 6.90395 11.2752 7.21439 11.2373 7.45302C11.2186 7.57064 11.1994 7.6669 11.1852 7.73225C11.1781 7.76484 11.1723 7.7895 11.1686 7.80502C11.1667 7.81277 11.1654 7.81822 11.1646 7.82121C11.1642 7.82271 11.164 7.82359 11.1639 7.82384C11.1639 7.82396 11.1639 7.82392 11.164 7.82373C11.164 7.82363 11.164 7.82349 11.1641 7.82331C11.1641 7.82322 11.1642 7.82305 11.1642 7.82301C11.1642 7.82283 11.1643 7.82265 11.8414 8ZM11.102 4.14563C10.315 3.94304 9.94647 3.73883 9.78804 3.59917C9.679 3.50304 9.69895 3.4739 9.70192 3.45175C9.7156 3.34962 9.7788 3.21411 9.92009 2.9595C9.97887 2.85356 10.0589 2.71182 10.1204 2.5728C10.1799 2.43855 10.2565 2.23456 10.2565 2L8.85649 2C8.85649 1.94191 8.87308 1.93204 8.84045 2.0057C8.80993 2.07458 8.76567 2.15452 8.69593 2.2802C8.58016 2.48884 8.36918 2.85626 8.31431 3.26589C8.24873 3.75551 8.40577 4.24696 8.86225 4.64936C9.26934 5.00823 9.89475 5.28049 10.7529 5.50143L11.102 4.14563Z" fill="#222628"/>
<path d="M1.50372 11.1906C1.7133 9.31679 3.34675 8 5.23228 8H18.7677C20.6532 8 22.2867 9.31679 22.4963 11.1906C22.9336 15.1005 22.982 21.1896 19 21C17.6982 20.938 16.3963 19.8975 15.6461 19.1786C15.217 18.7675 14.6563 18.5 14.0621 18.5H10.0502C9.39262 18.5 8.78085 18.8289 8.31959 19.2975C7.62521 20.0029 6.44591 20.9311 5 21C1.01804 21.1896 1.06642 15.1005 1.50372 11.1906Z" stroke="#222628" stroke-width="1.4"/>
<path d="M8.5 13H7.26667H5.5" stroke="#222628" stroke-width="1.4" stroke-linecap="round"/>
<path d="M7 11.5L7 13L7 14.5" stroke="#222628" stroke-width="1.4" stroke-linecap="round"/>
<line x1="15.75" y1="12.25" x2="15.65" y2="12.25" stroke="#222628" stroke-width="1.5" stroke-linecap="round"/>
<line x1="18.75" y1="14.25" x2="18.65" y2="14.25" stroke="#222628" stroke-width="1.5" stroke-linecap="round"/>
</svg>
