<svg width="24" height="24" viewBox="0 0 24 24" fill="none" xmlns="http://www.w3.org/2000/svg">
<path d="M19.5 11.9999C19.5 16.1421 16.1421 19.4999 12 19.4999C7.85783 19.4999 4.49996 16.1421 4.49996 11.9999C4.49996 7.8578 7.85783 4.49994 12 4.49994C16.1421 4.49994 19.5 7.8578 19.5 11.9999Z" stroke="#222628" stroke-width="1.4"/>
<path d="M12 19.5V22" stroke="#222628" stroke-width="1.4" stroke-linecap="round"/>
<path d="M12 2V4.5" stroke="#222628" stroke-width="1.4" stroke-linecap="round"/>
<path d="M19.5 12H22" stroke="#222628" stroke-width="1.4" stroke-linecap="round"/>
<path d="M2 12H4.5" stroke="#222628" stroke-width="1.4" stroke-linecap="round"/>
<path d="M14.8 12C14.8 13.5464 13.5464 14.8 12 14.8C10.4536 14.8 9.2 13.5464 9.2 12C9.2 10.4536 10.4536 9.2 12 9.2C13.5464 9.2 14.8 10.4536 14.8 12Z" stroke="#222628" stroke-width="1.4"/>
</svg>
