<svg width="24" height="24" viewBox="0 0 24 24" fill="none" xmlns="http://www.w3.org/2000/svg">
<path d="M19.5 11.9999C19.5 16.1421 16.1421 19.4999 12 19.4999C7.85783 19.4999 4.49996 16.1421 4.49996 11.9999C4.49996 7.8578 7.85783 4.49994 12 4.49994C16.1421 4.49994 19.5 7.8578 19.5 11.9999Z" stroke="#222628" stroke-width="1.4"/>
<path d="M12 19.5V22" stroke="#222628" stroke-width="1.4" stroke-linecap="round"/>
<path d="M12 2V4.5" stroke="#222628" stroke-width="1.4" stroke-linecap="round"/>
<path d="M19.5 12H22" stroke="#222628" stroke-width="1.4" stroke-linecap="round"/>
<path d="M2 12H4.5" stroke="#222628" stroke-width="1.4" stroke-linecap="round"/>
<path d="M15.5 12C15.5 13.933 13.933 15.5 12 15.5C10.067 15.5 8.5 13.933 8.5 12C8.5 10.067 10.067 8.5 12 8.5C13.933 8.5 15.5 10.067 15.5 12Z" fill="#222628"/>
</svg>
