<svg width="24" height="24" viewBox="0 0 24 24" fill="none" xmlns="http://www.w3.org/2000/svg">
<path d="M5.8 13.5C5.04745 13.5 4.67118 13.5 4.38948 13.7436C4.31011 13.8123 4.21705 13.9274 4.16663 14.0195C3.98767 14.3461 4.05507 14.6596 4.18988 15.2866C4.41412 16.3296 4.83386 17.3264 5.43251 18.2223C6.3665 19.6202 7.69402 20.7096 9.24719 21.353C10.8004 21.9963 12.5094 22.1646 14.1583 21.8367C15.8071 21.5087 17.3217 20.6992 18.5104 19.5104C19.6992 18.3217 20.5087 16.8071 20.8367 15.1583C21.1646 13.5094 20.9963 11.8004 20.353 10.2472C19.7096 8.69402 18.6202 7.3665 17.2223 6.43251C16.3264 5.83386 15.3296 5.41412 14.2866 5.18988C13.6596 5.05507 13.3461 4.98767 13.0195 5.16663C12.9274 5.21706 12.8123 5.31011 12.7436 5.38948C12.5 5.67118 12.5 6.04746 12.5 6.8L12.5 9.9C12.5 11.3999 12.5 12.1498 12.118 12.6756C11.9947 12.8454 11.8454 12.9947 11.6756 13.118C11.1498 13.5 10.3999 13.5 8.9 13.5H5.8Z" stroke="#222628" stroke-width="1.4"/>
<path d="M3.8 11C3.052 11 2.678 11 2.39985 10.7682C2.31924 10.701 2.22948 10.5949 2.17656 10.5043C1.99396 10.1916 2.04895 9.86403 2.15891 9.20895C2.25461 8.63886 2.39308 8.08274 2.57314 7.64803C2.95153 6.73452 3.50614 5.90448 4.20531 5.20531C4.90448 4.50614 5.73452 3.95153 6.64803 3.57314C7.08274 3.39308 7.63885 3.2546 8.20895 3.15891C8.86403 3.04894 9.19157 2.99396 9.50427 3.17656C9.59488 3.22948 9.70097 3.31924 9.76815 3.39984C10 3.678 10 4.052 10 4.8L10 7.4C10 8.89989 10 9.64984 9.61803 10.1756C9.49467 10.3454 9.34536 10.4947 9.17557 10.618C8.64984 11 7.89989 11 6.4 11L3.8 11Z" stroke="#222628" stroke-width="1.4"/>
</svg>
