<svg width="24" height="24" viewBox="0 0 24 24" fill="none" xmlns="http://www.w3.org/2000/svg">
<path d="M2.5 14.6037C2.5 12.4636 2.5 11.3935 2.90671 10.4477C2.96615 10.3095 3.03179 10.1741 3.10344 10.0418C3.59373 9.13653 4.43362 8.47346 6.11338 7.14733V7.14733C8.78372 5.03917 10.1189 3.98509 11.6661 3.88154C11.8885 3.86666 12.1115 3.86666 12.3339 3.88154C13.8811 3.98509 15.2163 5.03917 17.8866 7.14733V7.14733C19.5664 8.47346 20.4063 9.13653 20.8966 10.0418C20.9682 10.1741 21.0339 10.3095 21.0933 10.4477C21.5 11.3935 21.5 12.4636 21.5 14.6037V16C21.5 18.8284 21.5 20.2426 20.6213 21.1213C19.7426 22 18.3284 22 15.5 22H12H8.5C5.67157 22 4.25736 22 3.37868 21.1213C2.5 20.2426 2.5 18.8284 2.5 16V14.6037Z" stroke="#222628" stroke-width="1.4"/>
<path d="M15 22C15 21.606 14.9224 21.2159 14.7716 20.8519C14.6209 20.488 14.3999 20.1573 14.1213 19.8787C13.8427 19.6001 13.512 19.3791 13.1481 19.2284C12.7841 19.0776 12.394 19 12 19C11.606 19 11.2159 19.0776 10.8519 19.2284C10.488 19.3791 10.1573 19.6001 9.87868 19.8787C9.6001 20.1573 9.37913 20.488 9.22836 20.8519C9.0776 21.2159 9 21.606 9 22L12 22H15Z" stroke="#222628" stroke-width="1.4"/>
</svg>
