<svg width="24" height="24" viewBox="0 0 24 24" fill="none" xmlns="http://www.w3.org/2000/svg">
<path d="M2 12C2 8.26154 2 6.3923 2.80385 5C3.33046 4.08788 4.08788 3.33046 5 2.80385C6.3923 2 8.26154 2 12 2V2C15.7385 2 17.6077 2 19 2.80385C19.9121 3.33046 20.6695 4.08788 21.1962 5C22 6.3923 22 8.26154 22 12V12C22 15.7385 22 17.6077 21.1962 19C20.6695 19.9121 19.9121 20.6695 19 21.1962C17.6077 22 15.7385 22 12 22V22C8.26154 22 6.3923 22 5 21.1962C4.08788 20.6695 3.33046 19.9121 2.80385 19C2 17.6077 2 15.7385 2 12V12Z" stroke="#222628" stroke-width="1.4"/>
<path d="M2.5 16.5L4.84608 14.3672C6.50609 12.8581 9.11992 13.1799 10.3644 15.0465L11.1635 16.2453C12.0922 17.6383 14.0873 17.7768 15.1995 16.5255V16.5255C16.1763 15.4266 17.8767 15.3767 18.9163 16.4163L21 18.5" stroke="#222628" stroke-width="1.4" stroke-linecap="round" stroke-linejoin="round"/>
<path d="M17.5404 8.5C17.5404 9.60457 16.645 10.5 15.5404 10.5C14.4358 10.5 13.5404 9.60457 13.5404 8.5C13.5404 7.39543 14.4358 6.5 15.5404 6.5C16.645 6.5 17.5404 7.39543 17.5404 8.5Z" stroke="#222628" stroke-width="1.4"/>
</svg>
