<svg width="24" height="24" viewBox="0 0 24 24" fill="none" xmlns="http://www.w3.org/2000/svg">
<path d="M18 8.00001C18 9.10458 17.1046 10 16 10C14.8954 10 14 9.10458 14 8.00001C14 6.89544 14.8954 6.00001 16 6.00001C17.1046 6.00001 18 6.89544 18 8.00001Z" stroke="#222628" stroke-width="1.4"/>
<path d="M2 12C2 8.26154 2 6.3923 2.80385 5C3.33046 4.08788 4.08788 3.33046 5 2.80385C6.3923 2 8.26154 2 12 2V2C15.7385 2 17.6077 2 19 2.80385C19.9121 3.33046 20.6695 4.08788 21.1962 5C22 6.3923 22 8.26154 22 12V12C22 15.7385 22 17.6077 21.1962 19C20.6695 19.9121 19.9121 20.6695 19 21.1962C17.6077 22 15.7385 22 12 22V22C8.26154 22 6.3923 22 5 21.1962C4.08788 20.6695 3.33046 19.9121 2.80385 19C2 17.6077 2 15.7385 2 12V12Z" stroke="#222628" stroke-width="1.4"/>
<path d="M18 14L17.2444 15.1754C16.3391 16.5836 14.3327 16.7215 13.2433 15.4505L12.1839 14.2145C11.1861 13.0505 9.38531 13.0505 8.38757 14.2145L6 17" stroke="#222628" stroke-width="1.4" stroke-linecap="round" stroke-linejoin="round"/>
</svg>
