<svg width="24" height="24" viewBox="0 0 24 24" fill="none" xmlns="http://www.w3.org/2000/svg">
<path d="M10 8.00001C10 9.10458 9.10457 10 8 10C6.89543 10 6 9.10458 6 8.00001C6 6.89544 6.89543 6.00001 8 6.00001C9.10457 6.00001 10 6.89544 10 8.00001Z" stroke="#222628" stroke-width="1.4"/>
<path d="M2 12C2 8.26154 2 6.3923 2.80385 5C3.33046 4.08788 4.08788 3.33046 5 2.80385C6.3923 2 8.26154 2 12 2V2C15.7385 2 17.6077 2 19 2.80385C19.9121 3.33046 20.6695 4.08788 21.1962 5C22 6.3923 22 8.26154 22 12V12C22 15.7385 22 17.6077 21.1962 19C20.6695 19.9121 19.9121 20.6695 19 21.1962C17.6077 22 15.7385 22 12 22V22C8.26154 22 6.3923 22 5 21.1962C4.08788 20.6695 3.33046 19.9121 2.80385 19C2 17.6077 2 15.7385 2 12V12Z" stroke="#222628" stroke-width="1.4"/>
<path d="M2 14.5L5.921 16.5797C6.93769 17.1189 8.17326 17.029 9.10119 16.3483L12.948 13.5263C14.1442 12.6488 15.8023 12.7774 16.8488 13.829L21 18" stroke="#222628" stroke-width="1.4" stroke-linecap="round" stroke-linejoin="round"/>
</svg>
