<svg width="24" height="24" viewBox="0 0 24 24" fill="none" xmlns="http://www.w3.org/2000/svg">
<rect x="2" y="2" width="20" height="20" rx="6" stroke="#222628" stroke-width="1.4"/>
<path d="M11.3 12.5C11.3 14.0464 10.0464 15.3 8.5 15.3C6.9536 15.3 5.7 14.0464 5.7 12.5C5.7 10.9536 6.9536 9.7 8.5 9.7C10.0464 9.7 11.3 10.9536 11.3 12.5Z" stroke="#222628" stroke-width="1.4"/>
<path d="M15 15L15 13.3C15 12.8582 15.3582 12.5 15.8 12.5L16.7 12.5C17.1418 12.5 17.5 12.8579 17.5 13.2998C17.5 13.4981 17.5 13.732 17.5 14" stroke="#222628" stroke-width="1.4" stroke-linecap="round" stroke-linejoin="round"/>
<path d="M18.5 13.2C18.8866 13.2 19.2 12.8866 19.2 12.5C19.2 12.1134 18.8866 11.8 18.5 11.8V13.2ZM11.5 13.2H18.5V11.8H11.5V13.2Z" fill="#222628"/>
</svg>
