<svg width="24" height="24" viewBox="0 0 24 24" fill="none" xmlns="http://www.w3.org/2000/svg">
<path d="M3 12.2C3 9.20021 3 7.70032 3.76393 6.64886C4.01065 6.30928 4.30928 6.01065 4.64886 5.76393C5.70032 5 7.20021 5 10.2 5H13.8C16.7998 5 18.2997 5 19.3511 5.76393C19.6907 6.01065 19.9893 6.30928 20.2361 6.64886C21 7.70032 21 9.20021 21 12.2V13.4C21 14.8999 21 15.6498 20.618 16.1756C20.4947 16.3454 20.3454 16.4947 20.1756 16.618C19.6498 17 18.8999 17 17.4 17H6.6C5.10011 17 4.35016 17 3.82443 16.618C3.65464 16.4947 3.50533 16.3454 3.38197 16.1756C3 15.6498 3 14.8999 3 13.4V12.2Z" stroke="#222628" stroke-width="1.4"/>
<path fill-rule="evenodd" clip-rule="evenodd" d="M3.01839 17.3C2.62163 17.3 2.29999 17.6216 2.29999 18.0184C2.29999 18.9471 3.05286 19.7 3.98158 19.7H20.0192C20.9475 19.7 21.7 18.9475 21.7 18.0192C21.7 17.622 21.378 17.3 20.9808 17.3H3.01839ZM11.5 17.8C11.1134 17.8 10.8 18.1134 10.8 18.5C10.8 18.8866 11.1134 19.2 11.5 19.2H12.5C12.8866 19.2 13.2 18.8866 13.2 18.5C13.2 18.1134 12.8866 17.8 12.5 17.8H11.5Z" fill="#222628"/>
</svg>
