<svg width="24" height="24" viewBox="0 0 24 24" fill="none" xmlns="http://www.w3.org/2000/svg">
<rect x="2" y="2" width="20" height="20" rx="6" stroke="#222628" stroke-width="1.4"/>
<path d="M9.5 10.3461L10.2 10.3462V10.3461H9.5ZM10.5813 12.5L11.2813 12.5005C11.2815 12.2667 11.1649 12.0482 10.9705 11.9182L10.5813 12.5ZM13.6175 12.5L13.2283 11.9182C13.045 12.0408 12.9302 12.2426 12.9185 12.4628L13.6175 12.5ZM13.5098 14.5202L14.2088 14.5575L13.5098 14.5202ZM13.5405 14.887L14.235 14.7996L13.5405 14.887ZM10.5422 14.8593L9.85149 14.7459L10.5422 14.8593ZM10.2 10.3461C10.2 9.81095 10.393 9.41667 10.6835 9.15123C10.9806 8.8798 11.4284 8.7 11.9999 8.7V7.3C11.1352 7.3 10.333 7.57511 9.73918 8.11767C9.13881 8.66622 8.8 9.44501 8.8 10.3461H10.2ZM11.9999 8.7C13.1852 8.7 14.0014 9.41931 14.0014 10.3461H15.4014C15.4014 8.40032 13.6873 7.3 11.9999 7.3V8.7ZM10.9705 11.9182C10.6749 11.7204 10.5033 11.5467 10.3937 11.3457C10.2833 11.1432 10.2 10.8466 10.2 10.3462L8.8 10.3461C8.79996 10.9995 8.90864 11.5466 9.16452 12.0159C9.42125 12.4868 9.79035 12.8131 10.1921 13.0818L10.9705 11.9182ZM9.88129 12.4995L9.87978 14.5472L11.2798 14.5483L11.2813 12.5005L9.88129 12.4995ZM11.5813 16.7676H12.6175V15.3676H11.5813V16.7676ZM14.0014 10.3461C14.0014 10.8459 13.9177 11.1423 13.8068 11.3448C13.6967 11.5462 13.5244 11.7201 13.2283 11.9182L14.0067 13.0818C14.408 12.8134 14.7776 12.4874 15.035 12.0168C15.2918 11.5475 15.4014 11.0002 15.4014 10.3461H14.0014ZM14.2088 14.5575L14.3165 12.5372L12.9185 12.4628L12.8108 14.483L14.2088 14.5575ZM12.6175 16.7676C13.1274 16.7676 13.5601 16.4815 13.8322 16.1494C14.1125 15.807 14.301 15.3248 14.235 14.7996L12.8459 14.9743C12.8565 15.0586 12.8274 15.1667 12.7491 15.2623C12.6624 15.3681 12.5953 15.3676 12.6175 15.3676V16.7676ZM9.85149 14.7459C9.67968 15.7922 10.4969 16.7676 11.5813 16.7676V15.3676C11.3598 15.3676 11.2013 15.1658 11.233 14.9728L9.85149 14.7459ZM12.8108 14.483C12.7999 14.6872 12.837 14.9032 12.8459 14.9743L14.235 14.7996C14.2133 14.627 14.2066 14.5986 14.2088 14.5575L12.8108 14.483ZM9.87978 14.5472C9.87975 14.5795 9.87404 14.6086 9.85149 14.7459L11.233 14.9728C11.2444 14.9034 11.2796 14.7254 11.2798 14.5483L9.87978 14.5472Z" fill="#222628"/>
</svg>
