<svg width="24" height="24" viewBox="0 0 24 24" fill="none" xmlns="http://www.w3.org/2000/svg">
<path d="M3.54152 15.4983C3.45841 14.5009 3.41685 14.0022 3.4509 13.5892C3.639 11.3076 5.35267 9.44516 7.61079 9.06823C8.01957 9 8.51998 9 9.5208 9H14.4792C15.48 9 15.9804 9 16.3892 9.06823C18.6473 9.44516 20.361 11.3076 20.5491 13.5892C20.5831 14.0022 20.5416 14.5009 20.4585 15.4983V15.4983C20.3869 16.3571 20.3511 16.7865 20.2655 17.1492C19.7957 19.1387 18.1621 20.6418 16.1404 20.9448C15.7719 21 15.341 21 14.4792 21H9.5208C8.65897 21 8.22806 21 7.85958 20.9448C5.83794 20.6418 4.20435 19.1387 3.73451 17.1492C3.64888 16.7865 3.61309 16.3571 3.54152 15.4983V15.4983Z" stroke="#222628" stroke-width="1.4"/>
<path d="M7.5 8.5C7.5 8.5 7.51388 4 12 4C16.4861 4 16.4875 8.5 16.4875 8.5" stroke="#222628" stroke-width="1.4" stroke-linecap="round" stroke-linejoin="round"/>
<path d="M12 17L12 15" stroke="#222628" stroke-width="1.4" stroke-linecap="round"/>
</svg>
