<svg width="24" height="24" viewBox="0 0 24 24" fill="none" xmlns="http://www.w3.org/2000/svg">
<path d="M18.1665 8.04109L12.1665 7.02811C12.0563 7.0095 11.9437 7.0095 11.8335 7.02811L5.83352 8.04109C5.35229 8.12234 5 8.53909 5 9.02714V17.1512C5 17.4575 5.14001 17.7465 5.39497 17.9164C6.33411 18.5422 8.85868 20 12 20C15.1413 20 17.6659 18.5422 18.605 17.9164C18.86 17.7465 19 17.4575 19 17.1512V9.02714C19 8.5391 18.6477 8.12234 18.1665 8.04109Z" stroke="#222628" stroke-width="1.4" stroke-linecap="round" stroke-linejoin="round"/>
<path d="M19 17.5L22 14.5" stroke="#222628" stroke-width="1.4" stroke-linecap="round" stroke-linejoin="round"/>
<path d="M5 17.5L2 14.5" stroke="#222628" stroke-width="1.4" stroke-linecap="round" stroke-linejoin="round"/>
<path d="M19 12L22 9" stroke="#222628" stroke-width="1.4" stroke-linecap="round" stroke-linejoin="round"/>
<path d="M5 12L2 9" stroke="#222628" stroke-width="1.4" stroke-linecap="round" stroke-linejoin="round"/>
<path d="M10 17H14" stroke="#222628" stroke-width="1.4" stroke-linecap="round" stroke-linejoin="round"/>
</svg>
