<svg width="24" height="24" viewBox="0 0 24 24" fill="none" xmlns="http://www.w3.org/2000/svg">
<path d="M7.26836 14.4091L5.88799 9.25745M7.26836 14.4091L5.01454 15.013M7.26836 14.4091L8.62335 14.5575M5.88799 9.25745L2.34627 10.2065C1.8128 10.3494 1.49622 10.8977 1.63916 11.4312L2.50189 14.651C2.64483 15.1844 3.19317 15.501 3.72663 15.3581L5.01454 15.013M5.88799 9.25745L12.6295 3.22612C13.5296 2.42083 14.6123 1.84691 15.784 1.55401V1.55401C15.9048 1.52382 16.0279 1.59414 16.0632 1.71348L19.9222 14.75C19.9652 14.8955 19.8827 15.0484 19.7375 15.0922V15.0922C18.5912 15.4384 17.3864 15.5476 16.1965 15.4131L8.62335 14.5575M5.01454 15.013L7.3621 20.4041C7.55972 20.8579 8.05963 21.0989 8.53776 20.9708L9.83885 20.6221C10.4173 20.4672 10.7307 19.842 10.5089 19.2858L8.62335 14.5575" stroke="#222628" stroke-width="1.4" stroke-linecap="round" stroke-linejoin="round"/>
<path d="M17.8718 6.65372C17.8718 6.65372 19.8822 6.23907 20.3781 8.08972C20.874 9.94036 18.9256 10.5865 18.9256 10.5865" stroke="#222628" stroke-width="1.4" stroke-linecap="round" stroke-linejoin="round"/>
</svg>
