<svg width="24" height="24" viewBox="0 0 24 24" fill="none" xmlns="http://www.w3.org/2000/svg">
<rect x="2" y="4" width="20" height="16" rx="5" stroke="#222628" stroke-width="1.4"/>
<path d="M16.4556 10.5315C16.7491 10.2799 16.7831 9.83797 16.5315 9.54445C16.2799 9.25092 15.838 9.21692 15.5444 9.46852L16.4556 10.5315ZM8.45555 9.46852C8.16203 9.21692 7.72012 9.25092 7.46852 9.54445C7.21692 9.83797 7.25092 10.2799 7.54445 10.5315L8.45555 9.46852ZM12 13.7C12.1744 13.7 12.3228 13.643 12.395 13.6131C12.4859 13.5755 12.5774 13.5276 12.6627 13.4789C12.8345 13.3807 13.0331 13.2489 13.2396 13.1031C13.6553 12.8097 14.1526 12.4244 14.6248 12.0466C15.099 11.6673 15.5564 11.2887 15.8947 11.0055C16.064 10.8637 16.2038 10.7455 16.3015 10.6627C16.3504 10.6212 16.3887 10.5886 16.4149 10.5662C16.428 10.5551 16.438 10.5465 16.4449 10.5406C16.4483 10.5377 16.4509 10.5354 16.4527 10.5339C16.4536 10.5331 16.4543 10.5326 16.4548 10.5322C16.455 10.5319 16.4552 10.5318 16.4553 10.5317C16.4554 10.5316 16.4554 10.5316 16.4555 10.5315C16.4555 10.5315 16.4556 10.5315 16 10C15.5444 9.46852 15.5445 9.46852 15.5444 9.46852C15.5444 9.46854 15.5444 9.46856 15.5444 9.46859C15.5443 9.46866 15.5441 9.46878 15.544 9.46894C15.5436 9.46926 15.543 9.46976 15.5422 9.47044C15.5406 9.4718 15.5382 9.47386 15.535 9.47661C15.5286 9.48211 15.5189 9.49035 15.5063 9.50114C15.481 9.52274 15.4436 9.55456 15.3957 9.59515C15.3001 9.67634 15.1626 9.79252 14.996 9.93202C14.6624 10.2113 14.2135 10.5827 13.7502 10.9534C13.2849 11.3256 12.8134 11.6903 12.4323 11.9594C12.2403 12.0949 12.0834 12.1974 11.9681 12.2633C11.9099 12.2966 11.875 12.3132 11.8597 12.3195C11.8256 12.3336 11.8881 12.3 12 12.3V13.7ZM12 12.3C12.1119 12.3 12.1744 12.3336 12.1403 12.3195C12.125 12.3132 12.0901 12.2966 12.0319 12.2633C11.9166 12.1974 11.7597 12.0949 11.5677 11.9594C11.1866 11.6903 10.7151 11.3256 10.2498 10.9534C9.78647 10.5827 9.33762 10.2113 9.00404 9.93202C8.83742 9.79252 8.69994 9.67634 8.60425 9.59515C8.55642 9.55456 8.51905 9.52274 8.49373 9.50114C8.48108 9.49035 8.47143 9.48211 8.465 9.47661C8.46179 9.47386 8.45938 9.4718 8.4578 9.47044C8.457 9.46976 8.45642 9.46926 8.45604 9.46894C8.45586 9.46878 8.45572 9.46866 8.45564 9.46859C8.4556 9.46856 8.45558 9.46854 8.45556 9.46852C8.45555 9.46852 8.45555 9.46852 8 10C7.54445 10.5315 7.54448 10.5315 7.54452 10.5315C7.54456 10.5316 7.54461 10.5316 7.54468 10.5317C7.54481 10.5318 7.54499 10.5319 7.54523 10.5322C7.54571 10.5326 7.54639 10.5331 7.54728 10.5339C7.54907 10.5354 7.55168 10.5377 7.55511 10.5406C7.56195 10.5465 7.57202 10.5551 7.58512 10.5662C7.61132 10.5886 7.64964 10.6212 7.69848 10.6627C7.79616 10.7455 7.93602 10.8637 8.10533 11.0055C8.44363 11.2887 8.90103 11.6673 9.37521 12.0466C9.84743 12.4244 10.3447 12.8097 10.7604 13.1031C10.9669 13.2489 11.1655 13.3807 11.3373 13.4789C11.4226 13.5276 11.5141 13.5755 11.605 13.6131C11.6772 13.643 11.8256 13.7 12 13.7V12.3Z" fill="#222628"/>
</svg>
