<svg width="24" height="24" viewBox="0 0 24 24" fill="none" xmlns="http://www.w3.org/2000/svg">
<path d="M12.7 19V18.3H11.3V19H12.7ZM11.3 22C11.3 22.3866 11.6134 22.7 12 22.7C12.3866 22.7 12.7 22.3866 12.7 22H11.3ZM11.3 19V22H12.7V19H11.3Z" fill="#222628"/>
<path d="M5.65862 14.2C6.28603 13.8896 6.62742 14.6896 6.62742 14.6896L6.63761 14.7089C6.64763 14.7276 6.6643 14.758 6.68779 14.7983C6.73481 14.8791 6.80886 14.9995 6.91128 15.1462C7.1167 15.4405 7.43271 15.8359 7.86922 16.2311C8.73689 17.0166 10.0761 17.8 12 17.8C13.924 17.8 15.2631 17.0166 16.1308 16.2311C16.5673 15.8359 16.8833 15.4405 17.0887 15.1462C17.1912 14.9995 17.2652 14.8791 17.3122 14.7983C17.3357 14.758 17.3524 14.7276 17.3624 14.7089L17.3725 14.6898C17.5441 14.3437 17.9641 14.2012 18.3104 14.3726C18.6569 14.544 18.7989 14.9639 18.6274 15.3104L18.6267 15.3118L18.6259 15.3135L18.6237 15.3178L18.6174 15.3303C18.6123 15.3402 18.6054 15.3534 18.5966 15.3697C18.5792 15.4023 18.5545 15.4471 18.5223 15.5024C18.4579 15.613 18.3634 15.7661 18.2367 15.9475C17.9841 16.3095 17.6004 16.7891 17.0704 17.2689C16.0052 18.2334 14.3443 19.2 12 19.2C9.6557 19.2 7.99486 18.2334 6.9296 17.2689C6.39965 16.7891 6.01596 16.3095 5.7633 15.9475C5.63668 15.7661 5.54209 15.613 5.47774 15.5024C5.44553 15.4471 5.42083 15.4023 5.4034 15.3697C5.39468 15.3534 5.38777 15.3402 5.38265 15.3303L5.37631 15.3178L5.37413 15.3135L5.37329 15.3118C5.37329 15.3118 5.37307 15.3113 5.37265 15.3103C5.35659 15.2715 5.0471 14.5026 5.65862 14.2Z" fill="#222628"/>
<rect x="8" y="3" width="8" height="12" rx="4" stroke="#222628" stroke-width="1.4"/>
</svg>
