<svg width="24" height="24" viewBox="0 0 24 24" fill="none" xmlns="http://www.w3.org/2000/svg">
<path d="M12.7 10.4C13.2963 10.8472 13.6931 11.1463 13.9608 11.4011C14.2217 11.6496 14.2721 11.7768 14.2863 11.8525C14.3046 11.95 14.3046 12.05 14.2863 12.1475C14.2721 12.2232 14.2217 12.3504 13.9608 12.5989C13.6931 12.8537 13.2963 13.1528 12.7 13.6L11.9 14.2C11.0552 14.8336 10.4726 15.269 10.0164 15.5328C9.5514 15.8017 9.37768 15.7938 9.30812 15.7766C9.193 15.7482 9.08564 15.6945 8.99381 15.6195C8.93832 15.5742 8.82778 15.4399 8.76389 14.9066C8.70122 14.3834 8.7 13.656 8.7 12.6L8.7 11.4C8.7 10.344 8.70122 9.61664 8.76389 9.09343C8.82778 8.56009 8.93832 8.42584 8.99381 8.3805C9.08564 8.30547 9.193 8.2518 9.30811 8.22335C9.37768 8.20617 9.5514 8.19828 10.0164 8.46717C10.4726 8.73096 11.0552 9.16643 11.9 9.8L12.7 10.4Z" stroke="#222628" stroke-width="1.4"/>
<path d="M15 7V17" stroke="#222628" stroke-width="1.4" stroke-linecap="round"/>
</svg>
