<svg width="24" height="24" viewBox="0 0 24 24" fill="none" xmlns="http://www.w3.org/2000/svg">
<path d="M15.7 10.4C16.2963 10.8472 16.6931 11.1463 16.9608 11.4011C17.2217 11.6496 17.2721 11.7768 17.2863 11.8525C17.3046 11.95 17.3046 12.05 17.2863 12.1475C17.2721 12.2232 17.2217 12.3504 16.9608 12.5989C16.6931 12.8537 16.2963 13.1528 15.7 13.6L14.9 14.2C14.0552 14.8336 13.4726 15.269 13.0164 15.5328C12.5514 15.8017 12.3777 15.7938 12.3081 15.7766C12.193 15.7482 12.0856 15.6945 11.9938 15.6195C11.9383 15.5742 11.8278 15.4399 11.7639 14.9066C11.7012 14.3834 11.7 13.656 11.7 12.6L11.7 11.4C11.7 10.344 11.7012 9.61664 11.7639 9.09343C11.8278 8.56009 11.9383 8.42585 11.9938 8.38051C12.0856 8.30548 12.193 8.2518 12.3081 8.22335C12.3777 8.20617 12.5514 8.19828 13.0164 8.46717C13.4726 8.73096 14.0552 9.16643 14.9 9.8L15.7 10.4Z" stroke="#222628" stroke-width="1.4"/>
<path d="M9.7 10.4C10.2963 10.8472 10.6931 11.1463 10.9608 11.4011C11.2217 11.6496 11.2721 11.7768 11.2863 11.8525C11.3046 11.95 11.3046 12.05 11.2863 12.1475C11.2721 12.2232 11.2217 12.3504 10.9608 12.5989C10.6931 12.8537 10.2963 13.1528 9.7 13.6L8.9 14.2C8.05524 14.8336 7.47258 15.269 7.01641 15.5328C6.5514 15.8017 6.37768 15.7938 6.30812 15.7766C6.193 15.7482 6.08564 15.6945 5.99381 15.6195C5.93832 15.5742 5.82778 15.4399 5.76389 14.9066C5.70122 14.3834 5.7 13.656 5.7 12.6L5.7 11.4C5.7 10.344 5.70122 9.61664 5.76389 9.09343C5.82778 8.56009 5.93832 8.42585 5.99381 8.38051C6.08564 8.30548 6.193 8.2518 6.30811 8.22335C6.37768 8.20617 6.5514 8.19828 7.01641 8.46717C7.47258 8.73096 8.05524 9.16643 8.9 9.8L9.7 10.4Z" stroke="#222628" stroke-width="1.4"/>
</svg>
