<svg width="24" height="24" viewBox="0 0 24 24" fill="none" xmlns="http://www.w3.org/2000/svg">
<path d="M15.0101 6.39676C15.1191 5.86359 15.8809 5.86359 15.9899 6.39676L16.1975 7.41275C16.2376 7.60901 16.391 7.76238 16.5873 7.8025L17.6033 8.01016C18.1364 8.11913 18.1364 8.88093 17.6033 8.9899L16.5873 9.19756C16.391 9.23768 16.2376 9.39105 16.1975 9.58731L15.9899 10.6033C15.8809 11.1365 15.1191 11.1365 15.0101 10.6033L14.8025 9.58731C14.7624 9.39105 14.609 9.23768 14.4127 9.19756L13.3967 8.9899C12.8636 8.88093 12.8636 8.11913 13.3967 8.01016L14.4127 7.8025C14.609 7.76238 14.7624 7.60901 14.8025 7.41275L15.0101 6.39676Z" fill="#222628"/>
<path d="M18 4.96061C17.6381 4.7052 17.8981 4.13817 18.3278 4.24577L18.6829 4.33469C18.8382 4.37356 19.0017 4.31616 19.0985 4.18876L19.4008 3.79124C19.6593 3.45117 20.1994 3.69882 20.1104 4.11664L20.0064 4.60505C19.9731 4.76158 20.0362 4.92291 20.167 5.01519L20.4661 5.22627C20.828 5.48167 20.568 6.0487 20.1383 5.94111L19.7832 5.85219C19.6279 5.81332 19.4645 5.87072 19.3676 5.99812L19.0654 6.39564C18.8068 6.73571 18.2667 6.48806 18.3557 6.07023L18.4597 5.58182C18.4931 5.42529 18.4299 5.26396 18.2991 5.17169L18 4.96061Z" fill="#222628"/>
<path d="M10.5917 14C6.35607 8.69173 10.0001 3.50003 10.0001 3.50003C10.0001 3.50003 6.18528 4.00002 4.06888 7.97854C0.551264 14.5911 5.00005 22 14.1218 20.9087C18.8837 20.3119 21.0001 16.4329 21.0001 16.4329C21.0001 16.4329 13.7834 18 10.5917 14Z" stroke="#222628" stroke-width="1.4" stroke-linecap="round" stroke-linejoin="round"/>
</svg>
