<svg width="24" height="24" viewBox="0 0 24 24" fill="none" xmlns="http://www.w3.org/2000/svg">
<path d="M11.2353 2V2C11.2353 4.80892 11.2353 6.21339 10.5612 7.22228C10.2693 7.65904 9.89434 8.03404 9.45758 8.32588C8.44868 9 7.04422 9 4.23529 9L3 9" stroke="#222628" stroke-width="1.4"/>
<path d="M8.3484 3.55503L5.73074 5.62748L5.73074 5.62748C4.5407 6.56967 3.94568 7.04076 3.57055 7.66561C3.44678 7.87177 3.34186 8.08868 3.25705 8.31369C3 8.99566 3 9.75459 3 11.2725V14.8C3 17.7998 3 19.2997 3.76393 20.3511C4.01065 20.6907 4.30928 20.9893 4.64886 21.2361C5.70032 22 7.20021 22 10.2 22H13.8C16.7998 22 18.2997 22 19.3511 21.2361C19.6907 20.9893 19.9894 20.6907 20.2361 20.3511C21 19.2997 21 17.7998 21 14.8V9.2C21 6.20021 21 4.70032 20.2361 3.64886C19.9894 3.30928 19.6907 3.01065 19.3511 2.76393C18.2997 2 16.7998 2 13.8 2H12.8177C11.7161 2 11.1653 2 10.6455 2.14265C10.4733 2.18994 10.3044 2.24871 10.1399 2.31857C9.64389 2.52935 9.21206 2.87124 8.3484 3.55502L8.3484 3.55503Z" stroke="#222628" stroke-width="1.4"/>
<path d="M10.5493 15.1116C10.3097 14.8082 9.86947 14.7565 9.5661 14.9962C9.26273 15.2358 9.21106 15.676 9.4507 15.9794L10.5493 15.1116ZM15.0612 13.4184C15.2923 13.1085 15.2283 12.6699 14.9184 12.4388C14.6085 12.2077 14.1699 12.2717 13.9388 12.5816L15.0612 13.4184ZM10 15.5455C9.4507 15.9794 9.45072 15.9794 9.45074 15.9794C9.45076 15.9794 9.45079 15.9795 9.45082 15.9795C9.45087 15.9796 9.45095 15.9797 9.45104 15.9798C9.45123 15.98 9.45148 15.9803 9.4518 15.9807C9.45244 15.9816 9.45336 15.9827 9.45455 15.9842C9.45691 15.9872 9.46034 15.9915 9.46478 15.9971C9.47364 16.0083 9.4865 16.0244 9.50284 16.0449C9.53552 16.0858 9.58221 16.144 9.63874 16.2137C9.75147 16.3527 9.90481 16.5393 10.065 16.7271C10.2233 16.9125 10.3966 17.1089 10.5473 17.2627C10.621 17.3379 10.7026 17.4167 10.7823 17.4813C10.8212 17.5128 10.8754 17.5539 10.9393 17.5906C10.9787 17.6133 11.1289 17.7 11.3333 17.7V16.3C11.5147 16.3 11.6343 16.3753 11.6367 16.3767C11.6635 16.3921 11.6741 16.402 11.6639 16.3937C11.6455 16.3788 11.6071 16.3439 11.5472 16.2828C11.4306 16.1638 11.2821 15.9966 11.13 15.8184C10.98 15.6425 10.8345 15.4655 10.7261 15.3318C10.672 15.2651 10.6275 15.2097 10.5966 15.171C10.5812 15.1517 10.5692 15.1366 10.5611 15.1265C10.5571 15.1214 10.554 15.1176 10.5521 15.115C10.5511 15.1138 10.5503 15.1129 10.5499 15.1123C10.5496 15.112 10.5495 15.1118 10.5494 15.1117C10.5493 15.1116 10.5493 15.1116 10.5493 15.1115C10.5493 15.1115 10.5493 15.1115 10.5493 15.1115C10.5493 15.1115 10.5493 15.1116 10 15.5455ZM11.3333 17.7C11.4802 17.7 11.5896 17.6544 11.6339 17.6342C11.6877 17.6098 11.7292 17.5832 11.7542 17.566C11.8045 17.5316 11.8457 17.4954 11.8722 17.4712C11.928 17.42 11.9865 17.3583 12.0409 17.2984C12.1527 17.175 12.2937 17.0073 12.4486 16.8171C12.7606 16.4342 13.1555 15.9279 13.5408 15.4266C13.927 14.9241 14.307 14.4222 14.5903 14.0462C14.7319 13.8581 14.8496 13.7013 14.9318 13.5915C14.9729 13.5366 15.0052 13.4934 15.0272 13.4639C15.0383 13.4491 15.0467 13.4378 15.0524 13.4302C15.0553 13.4263 15.0575 13.4234 15.0589 13.4214C15.0597 13.4205 15.0602 13.4197 15.0606 13.4192C15.0608 13.4189 15.0609 13.4188 15.061 13.4186C15.0611 13.4186 15.0611 13.4185 15.0611 13.4185C15.0612 13.4184 15.0612 13.4184 14.5 13C13.9388 12.5816 13.9388 12.5816 13.9388 12.5816C13.9388 12.5816 13.9387 12.5817 13.9387 12.5817C13.9386 12.5819 13.9385 12.582 13.9383 12.5823C13.938 12.5827 13.9374 12.5834 13.9367 12.5844C13.9353 12.5862 13.9332 12.5891 13.9304 12.5928C13.9249 12.6003 13.9166 12.6114 13.9057 12.626C13.8839 12.6551 13.852 12.6978 13.8112 12.7523C13.7296 12.8612 13.6128 13.0169 13.472 13.2038C13.1903 13.5778 12.8132 14.0759 12.4308 14.5734C12.0475 15.0721 11.6623 15.5658 11.3632 15.9329C11.2126 16.1177 11.0903 16.2625 11.0038 16.3579C10.959 16.4073 10.9345 16.4315 10.9264 16.439C10.9209 16.444 10.9349 16.4303 10.9631 16.411C10.9771 16.4014 11.0087 16.3806 11.0541 16.36C11.0899 16.3436 11.1923 16.3 11.3333 16.3V17.7Z" fill="#222628"/>
</svg>
