<svg width="24" height="24" viewBox="0 0 24 24" fill="none" xmlns="http://www.w3.org/2000/svg">
<path d="M11.2353 2V2C11.2353 4.80892 11.2353 6.21339 10.5612 7.22228C10.2693 7.65904 9.89434 8.03404 9.45758 8.32588C8.44868 9 7.04422 9 4.23529 9L3 9" stroke="#222628" stroke-width="1.4"/>
<path d="M8.1237 3.61702L5.65354 5.62858C4.49643 6.57087 3.91787 7.04201 3.55368 7.66015C3.43348 7.86416 3.33164 8.07844 3.24934 8.30047C3 8.97319 3 9.71931 3 11.2116V14.8C3 17.7998 3 19.2997 3.76393 20.3511C4.01065 20.6907 4.30928 20.9893 4.64886 21.2361C5.70032 22 7.20021 22 10.2 22H13.3C16.2998 22 17.7997 22 18.8511 21.2361C19.1907 20.9893 19.4893 20.6907 19.7361 20.3511C20.5 19.2997 20.5 17.7998 20.5 14.8V9.2C20.5 6.20021 20.5 4.70032 19.7361 3.64886C19.4893 3.30928 19.1907 3.01065 18.8511 2.76393C17.7997 2 16.2998 2 13.3 2H12.6702C11.5446 2 10.9819 2 10.4521 2.14853C10.2766 2.19776 10.1046 2.25892 9.9374 2.33161C9.43283 2.55094 8.99646 2.9063 8.1237 3.61702Z" stroke="#222628" stroke-width="1.4"/>
<line x1="16.3" y1="17.7" x2="7.7" y2="17.7" stroke="#222628" stroke-width="1.4" stroke-linecap="round"/>
<line x1="13.3" y1="13.7" x2="7.7" y2="13.7" stroke="#222628" stroke-width="1.4" stroke-linecap="round"/>
</svg>
