<svg width="24" height="24" viewBox="0 0 24 24" fill="none" xmlns="http://www.w3.org/2000/svg">
<path d="M11.2353 2V2C11.2353 4.80892 11.2353 6.21339 10.5612 7.22228C10.2693 7.65904 9.89434 8.03404 9.45758 8.32588C8.44868 9 7.04422 9 4.23529 9L3 9" stroke="#222628" stroke-width="1.4"/>
<path d="M8.3484 3.55503L5.73074 5.62748L5.73074 5.62748C4.5407 6.56967 3.94568 7.04076 3.57055 7.66561C3.44678 7.87177 3.34186 8.08868 3.25705 8.31369C3 8.99566 3 9.75459 3 11.2725V14.8C3 17.7998 3 19.2997 3.76393 20.3511C4.01065 20.6907 4.30928 20.9893 4.64886 21.2361C5.70032 22 7.20021 22 10.2 22H13.8C16.7998 22 18.2997 22 19.3511 21.2361C19.6907 20.9893 19.9894 20.6907 20.2361 20.3511C21 19.2997 21 17.7998 21 14.8V9.2C21 6.20021 21 4.70032 20.2361 3.64886C19.9894 3.30928 19.6907 3.01065 19.3511 2.76393C18.2997 2 16.7998 2 13.8 2H12.8177C11.7161 2 11.1653 2 10.6455 2.14265C10.4733 2.18994 10.3044 2.24871 10.1399 2.31857C9.64389 2.52935 9.21206 2.87124 8.3484 3.55502L8.3484 3.55503Z" stroke="#222628" stroke-width="1.4"/>
<path d="M14 15H12.2667H10" stroke="#222628" stroke-width="1.4" stroke-linecap="round"/>
<path d="M12 13L12 15L12 17" stroke="#222628" stroke-width="1.4" stroke-linecap="round"/>
</svg>
