<svg width="24" height="24" viewBox="0 0 24 24" fill="none" xmlns="http://www.w3.org/2000/svg">
<path d="M13.4464 8.78894C14.6723 9.54331 15.5371 10.0769 16.1303 10.547C16.7219 11.0157 16.9265 11.3337 16.9881 11.6144C17.0438 11.8684 17.0438 12.1316 16.9881 12.3856C16.9265 12.6663 16.7219 12.9843 16.1303 13.453C15.5371 13.9231 14.6723 14.4567 13.4464 15.2111C12.1143 16.0308 11.1689 16.6112 10.4242 16.9556C9.67689 17.3012 9.27792 17.3366 8.99436 17.2536C8.73433 17.1775 8.49485 17.0437 8.29375 16.8621C8.07445 16.6641 7.8955 16.3058 7.79817 15.4882C7.70119 14.6735 7.7 13.5641 7.7 12C7.7 10.4359 7.70119 9.32651 7.79817 8.51183C7.8955 7.69423 8.07445 7.33589 8.29375 7.13789C8.49485 6.95632 8.73433 6.8225 8.99436 6.74639C9.27792 6.66339 9.67689 6.6988 10.4242 7.04441C11.1689 7.38879 12.1143 7.96919 13.4464 8.78894Z" stroke="#222628" stroke-width="1.4"/>
</svg>
