<svg width="24" height="24" viewBox="0 0 24 24" fill="none" xmlns="http://www.w3.org/2000/svg">
<rect x="2.7" y="2.7" width="18.6" height="18.6" rx="5.3" stroke="#222628" stroke-width="1.4"/>
<path d="M12.9656 10.304C13.7057 10.7665 14.2057 11.0804 14.5434 11.3528C14.8787 11.6232 14.938 11.7639 14.9535 11.8392C14.9753 11.9453 14.9753 12.0547 14.9535 12.1608C14.938 12.2361 14.8787 12.3768 14.5434 12.6472C14.2057 12.9196 13.7057 13.2335 12.9656 13.696L12.76 13.8245C11.9398 14.3372 11.3788 14.6863 10.9426 14.8909C10.5035 15.0968 10.3404 15.0811 10.2688 15.0595C10.1597 15.0266 10.0588 14.9707 9.97307 14.8956C9.91684 14.8464 9.81707 14.7164 9.75896 14.2349C9.70123 13.7565 9.7 13.0958 9.7 12.1285L9.7 11.8715C9.7 10.9042 9.70123 10.2435 9.75896 9.76515C9.81707 9.28365 9.91684 9.15364 9.97307 9.10442C10.0588 9.02933 10.1597 8.97345 10.2688 8.9405C10.3404 8.91891 10.5035 8.90321 10.9426 9.10912C11.3788 9.31368 11.9398 9.66284 12.76 10.1755L12.9656 10.304Z" stroke="#222628" stroke-width="1.4"/>
</svg>
