<svg width="24" height="24" viewBox="0 0 24 24" fill="none" xmlns="http://www.w3.org/2000/svg">
<path d="M4.40334 17.3222C4.44 16.9879 4.45832 16.8208 4.48127 16.7015C4.75983 15.2543 5.93043 14.2799 7.40422 14.2686C7.52566 14.2677 7.71526 14.2816 8.09447 14.3095C9.27227 14.3959 10.599 14.4667 11.7854 14.4667C13.0237 14.4667 14.3969 14.3896 15.5907 14.298C15.9564 14.27 16.1392 14.256 16.2581 14.2563C17.6545 14.2601 18.7825 15.1264 19.1463 16.4745C19.1773 16.5893 19.2069 16.748 19.2661 17.0653V17.0653C19.3314 17.4153 19.364 17.5902 19.3767 17.7324C19.524 19.3759 18.3162 20.8298 16.6735 20.9865C16.5314 21 16.3534 21 15.9975 21L11.7854 21H7.69989C7.37599 21 7.21405 21 7.08163 20.9882C5.50997 20.8487 4.31503 19.5155 4.34763 17.938C4.35038 17.8051 4.36803 17.6441 4.40334 17.3222V17.3222Z" stroke="#222628" stroke-width="1.4"/>
<path d="M8 7C8 4.79086 9.79086 3 12 3V3C14.2091 3 16 4.79086 16 7V7.57143C16 9.46498 14.465 11 12.5714 11V11H11.4286V11C9.53502 11 8 9.46498 8 7.57143V7Z" stroke="#222628" stroke-width="1.4"/>
</svg>
