<svg width="24" height="24" viewBox="0 0 24 24" fill="none" xmlns="http://www.w3.org/2000/svg">
<path d="M15.2903 6.61158C14.911 6.68616 14.543 6.43911 14.4684 6.05977C14.3938 5.68043 14.6409 5.31246 15.0202 5.23788L15.2903 6.61158ZM17.3357 1.0919C17.2002 0.72981 17.384 0.326464 17.7461 0.190999C18.1081 0.0555341 18.5115 0.239249 18.647 0.601338L17.3357 1.0919ZM19.8037 5.18978C19.6974 5.38004 19.5322 5.48041 19.4803 5.51179C19.4004 5.56012 19.3144 5.59983 19.2377 5.63184C19.0819 5.69688 18.8895 5.76071 18.6876 5.82113C18.2796 5.94326 17.7636 6.07178 17.2659 6.18745C16.7654 6.30375 16.2718 6.4097 15.9042 6.48643C15.7201 6.52485 15.5671 6.55604 15.46 6.57767C15.4064 6.58849 15.3642 6.59692 15.3353 6.60267C15.3209 6.60554 15.3097 6.60775 15.3022 6.60924C15.2984 6.60999 15.2955 6.61057 15.2935 6.61096C15.2925 6.61115 15.2917 6.6113 15.2912 6.61141C15.2909 6.61146 15.2907 6.6115 15.2906 6.61153C15.2905 6.61155 15.2904 6.61156 15.2904 6.61157C15.2904 6.61158 15.2903 6.61158 15.1553 5.92473C15.0202 5.23788 15.0202 5.23788 15.0202 5.23788C15.0203 5.23788 15.0203 5.23787 15.0203 5.23787C15.0204 5.23785 15.0206 5.23782 15.0208 5.23778C15.0212 5.2377 15.0218 5.23758 15.0227 5.23741C15.0244 5.23707 15.027 5.23655 15.0305 5.23585C15.0376 5.23446 15.0482 5.23236 15.062 5.2296C15.0898 5.22408 15.1307 5.21589 15.183 5.20534C15.2876 5.18423 15.4376 5.15366 15.6182 5.11596C15.9798 5.04049 16.4623 4.93688 16.949 4.82379C17.4384 4.71006 17.9206 4.58935 18.2862 4.47992C18.4711 4.42457 18.6094 4.37704 18.6986 4.33983C18.7444 4.32072 18.7595 4.31157 18.7556 4.31392C18.7533 4.31532 18.7349 4.32645 18.7091 4.34859C18.6872 4.36741 18.6306 4.4189 18.5814 4.50715L19.8037 5.18978ZM18.5814 4.50715C18.5321 4.59539 18.5179 4.67055 18.5134 4.69907C18.508 4.73261 18.5082 4.75418 18.5083 4.75688C18.5083 4.76141 18.5081 4.74371 18.5004 4.69469C18.4853 4.59925 18.4532 4.45659 18.4034 4.27011C18.3048 3.90147 18.1546 3.42758 17.9948 2.95124C17.8358 2.47756 17.6709 2.0124 17.5455 1.66492C17.4829 1.49139 17.4303 1.34769 17.3934 1.24755C17.3749 1.19749 17.3604 1.15834 17.3506 1.13182C17.3457 1.11856 17.3419 1.10846 17.3394 1.10173C17.3381 1.09837 17.3372 1.09585 17.3366 1.0942C17.3363 1.09338 17.336 1.09277 17.3359 1.09239C17.3358 1.0922 17.3358 1.09206 17.3357 1.09198C17.3357 1.09194 17.3357 1.09192 17.3357 1.0919C17.3357 1.09189 17.3357 1.0919 17.9913 0.846619C18.647 0.601338 18.647 0.601375 18.647 0.601425C18.647 0.601461 18.647 0.601526 18.647 0.601597C18.6471 0.601739 18.6472 0.601937 18.6473 0.602191C18.6475 0.602699 18.6477 0.603428 18.6481 0.604376C18.6488 0.606273 18.6498 0.609043 18.6512 0.612662C18.6539 0.619899 18.6578 0.630527 18.663 0.644332C18.6732 0.671939 18.6882 0.712258 18.7071 0.763564C18.7449 0.866157 18.7985 1.01279 18.8624 1.18964C18.9899 1.5429 19.1585 2.0187 19.322 2.5058C19.4846 2.99026 19.6458 3.497 19.7558 3.90845C19.8103 4.11202 19.8568 4.30928 19.8832 4.47609C19.8962 4.55819 19.9075 4.65219 19.9082 4.74556C19.9087 4.80618 19.9099 4.99952 19.8037 5.18978L18.5814 4.50715Z" fill="#222628"/>
<path d="M18 4C7.5 -1 2 6.47716 2 12C2 17.5229 6.47715 22 12 22C17.5228 22 22 17.5229 22 12" stroke="#222628" stroke-width="1.4" stroke-linecap="round" stroke-linejoin="round"/>
</svg>
