<svg width="24" height="24" viewBox="0 0 24 24" fill="none" xmlns="http://www.w3.org/2000/svg">
<path d="M8.70969 6.61158C9.08902 6.68616 9.45699 6.43911 9.53157 6.05977C9.60615 5.68043 9.3591 5.31246 8.97976 5.23788L8.70969 6.61158ZM6.66429 1.0919C6.79975 0.72981 6.61604 0.326464 6.25395 0.190999C5.89186 0.0555341 5.48851 0.239249 5.35305 0.601338L6.66429 1.0919ZM4.19634 5.18978C4.3026 5.38004 4.46785 5.48041 4.51972 5.51179C4.59962 5.56012 4.68556 5.59983 4.76227 5.63184C4.91812 5.69688 5.11048 5.76071 5.31236 5.82113C5.72038 5.94326 6.23639 6.07178 6.73413 6.18745C7.2346 6.30375 7.72817 6.4097 8.09582 6.48643C8.27986 6.52485 8.43287 6.55604 8.54004 6.57767C8.59364 6.58849 8.6358 6.59692 8.66468 6.60267C8.67913 6.60554 8.69025 6.60775 8.69783 6.60924C8.70162 6.60999 8.70452 6.61057 8.7065 6.61096C8.7075 6.61115 8.70826 6.6113 8.70879 6.61141C8.70906 6.61146 8.70927 6.6115 8.70941 6.61153C8.70949 6.61155 8.70956 6.61156 8.70959 6.61157C8.70965 6.61158 8.70969 6.61158 8.84472 5.92473C8.97976 5.23788 8.97977 5.23788 8.97976 5.23788C8.97974 5.23788 8.97972 5.23787 8.97968 5.23787C8.97959 5.23785 8.97945 5.23782 8.97925 5.23778C8.97884 5.2377 8.97821 5.23758 8.97735 5.23741C8.97562 5.23707 8.97298 5.23655 8.96946 5.23585C8.96242 5.23446 8.95185 5.23236 8.93798 5.2296C8.91023 5.22408 8.86929 5.21589 8.817 5.20534C8.71238 5.18423 8.56244 5.15366 8.38185 5.11596C8.02021 5.04049 7.5377 4.93688 7.05102 4.82379C6.56161 4.71006 6.07938 4.58935 5.71381 4.47992C5.52889 4.42457 5.39061 4.37704 5.30144 4.33983C5.25564 4.32072 5.24048 4.31157 5.24436 4.31392C5.24667 4.31532 5.26515 4.32645 5.2909 4.34859C5.31281 4.36741 5.36935 4.4189 5.41864 4.50715L4.19634 5.18978ZM5.41864 4.50715C5.46792 4.59539 5.4821 4.67055 5.48664 4.69907C5.49198 4.73261 5.49177 4.75418 5.49174 4.75688C5.49171 4.76141 5.49188 4.74371 5.49962 4.69469C5.51471 4.59925 5.54677 4.45659 5.59663 4.27011C5.69521 3.90147 5.84537 3.42758 6.00523 2.95124C6.1642 2.47756 6.32907 2.0124 6.45448 1.66492C6.51711 1.49139 6.56973 1.34769 6.60662 1.24755C6.62507 1.19749 6.63957 1.15834 6.64942 1.13182C6.65435 1.11856 6.65811 1.10846 6.66062 1.10173C6.66187 1.09837 6.66281 1.09585 6.66343 1.0942C6.66373 1.09338 6.66396 1.09277 6.6641 1.09239C6.66418 1.0922 6.66423 1.09206 6.66426 1.09198C6.66427 1.09194 6.66428 1.09192 6.66429 1.0919C6.66429 1.09189 6.66429 1.0919 6.00867 0.846619C5.35305 0.601338 5.35303 0.601375 5.35301 0.601425C5.353 0.601461 5.35298 0.601526 5.35295 0.601597C5.3529 0.601739 5.35282 0.601937 5.35273 0.602191C5.35254 0.602699 5.35227 0.603428 5.35191 0.604376C5.3512 0.606273 5.35017 0.609043 5.34882 0.612662C5.34612 0.619899 5.34216 0.630527 5.33704 0.644332C5.32678 0.671939 5.31184 0.712258 5.29294 0.763564C5.25515 0.866157 5.20146 1.01279 5.13763 1.18964C5.01013 1.5429 4.84146 2.0187 4.67798 2.5058C4.5154 2.99026 4.35418 3.497 4.24415 3.90845C4.18972 4.11202 4.14316 4.30928 4.1168 4.47609C4.10382 4.55819 4.09255 4.65219 4.09179 4.74556C4.0913 4.80618 4.09008 4.99952 4.19634 5.18978L5.41864 4.50715Z" fill="#222628"/>
<path d="M6 4C16.5 -1 22 6.47716 22 12C22 17.5229 17.5228 22 12 22C6.47715 22 2 17.5229 2 12" stroke="#222628" stroke-width="1.4" stroke-linecap="round" stroke-linejoin="round"/>
</svg>
