<svg width="24" height="24" viewBox="0 0 24 24" fill="none" xmlns="http://www.w3.org/2000/svg">
<path d="M12.4582 19.5655L16.5877 20.1554C18.8807 20.483 20.0273 20.6468 20.652 20.0884C20.8448 19.916 21.0041 19.6946 21.1063 19.4569C21.437 18.6871 20.9242 17.6662 19.8986 15.6242C19.2712 14.375 18.6069 13.0923 18 12C17.1564 10.4816 15.9219 8.31542 14.7917 6.34459C13.7049 4.44957 13.1615 3.50206 12.3753 3.33446C12.1289 3.28195 11.8711 3.28195 11.6247 3.33446C10.8385 3.50206 10.2951 4.44957 9.20834 6.34459C8.07809 8.31542 6.84357 10.4816 6 12C5.39314 13.0923 4.72883 14.375 4.1014 15.6242C3.07581 17.6662 2.56301 18.6871 2.89375 19.4569C2.99586 19.6946 3.15517 19.916 3.34805 20.0884C3.97272 20.6468 5.11926 20.483 7.41233 20.1554L11.5418 19.5655C11.7451 19.5364 11.8467 19.5219 11.9489 19.519C11.983 19.518 12.017 19.518 12.0511 19.519C12.1533 19.5219 12.2549 19.5364 12.4582 19.5655Z" stroke="#222628" stroke-width="1.4"/>
<path d="M12 13V19" stroke="#222628" stroke-width="1.4" stroke-linecap="round"/>
</svg>
