<svg width="24" height="24" viewBox="0 0 24 24" fill="none" xmlns="http://www.w3.org/2000/svg">
<path d="M14.0815 9.55634L9.83884 13.799" stroke="#222628" stroke-width="1.4" stroke-linecap="round"/>
<path d="M9.76299 14.5228L12.2658 17.8599C13.6556 19.713 14.3505 20.6396 15.187 20.6865C15.4453 20.701 15.7146 20.657 15.9548 20.5612C16.733 20.2507 17.0923 19.1662 17.811 16.9971C18.2507 15.6701 18.6879 14.2934 19.0312 13.0919C19.5084 11.4217 20.1672 9.01706 20.7616 6.82427C21.3331 4.71583 21.6188 3.66161 21.1814 2.98713C21.0443 2.77581 20.862 2.59349 20.6507 2.45643C19.9762 2.01898 18.922 2.30474 16.8136 2.87626C14.6208 3.47065 12.2161 4.12941 10.5459 4.6066C9.34441 4.94989 7.96768 5.38715 6.64069 5.82682C4.47162 6.54548 3.38709 6.90481 3.07664 7.68299C2.98078 7.92326 2.93684 8.19249 2.95133 8.45078C2.99825 9.28728 3.92479 9.98218 5.77788 11.372L9.11499 13.8748C9.27925 13.998 9.36138 14.0596 9.43572 14.1299C9.46048 14.1532 9.48457 14.1773 9.50796 14.2021C9.57819 14.2764 9.63979 14.3586 9.76299 14.5228Z" stroke="#222628" stroke-width="1.4"/>
</svg>
