<svg width="24" height="24" viewBox="0 0 24 24" fill="none" xmlns="http://www.w3.org/2000/svg">
<path d="M3.43454 12.4582L2.84462 16.5877C2.51704 18.8807 2.35325 20.0273 2.91156 20.652C3.08395 20.8448 3.3054 21.0041 3.54308 21.1063C4.31285 21.437 5.33382 20.9242 7.37575 19.8986C8.62496 19.2712 9.90765 18.6069 11 18C12.54 17.1444 14.7463 15.8867 16.7394 14.7435C18.6006 13.6759 19.5313 13.1421 19.6989 12.356C19.7511 12.1115 19.7511 11.8502 19.699 11.6057C19.5316 10.8196 18.6067 10.2887 16.7569 9.22689C15.0686 8.25784 13.0697 7.12892 11 6C9.59291 5.2325 8.31672 4.56317 7.19656 3.99202C5.27687 3.01321 4.31703 2.52381 3.54361 2.85278C3.3089 2.95262 3.07942 3.11665 2.90899 3.30641C2.34739 3.9317 2.50336 5.02356 2.81532 7.20726L3.43454 11.5418C3.46358 11.7451 3.4781 11.8467 3.481 11.9489C3.48197 11.983 3.48197 12.017 3.481 12.0511C3.4781 12.1533 3.46358 12.2549 3.43454 12.4582Z" stroke="#222628" stroke-width="1.4"/>
<path d="M10 12L4 12" stroke="#222628" stroke-width="1.4" stroke-linecap="round"/>
</svg>
