<svg width="24" height="24" viewBox="0 0 24 24" fill="none" xmlns="http://www.w3.org/2000/svg">
<path d="M8.79485 3.6213C10.387 2.71885 11.008 2.38289 11.6603 2.31538C11.8862 2.292 12.1138 2.292 12.3397 2.31538C12.992 2.38289 13.613 2.71885 15.2052 3.6213L16.435 4.31837L17.6536 5.03491C19.2312 5.96256 19.8327 6.33235 20.2173 6.86348C20.3505 7.04741 20.4643 7.24459 20.557 7.4519C20.8247 8.05054 20.8442 8.7563 20.8587 10.5864L20.87 12L20.8587 13.4136C20.8442 15.2437 20.8247 15.9495 20.557 16.5481C20.4643 16.7554 20.3505 16.9526 20.2173 17.1365C19.8327 17.6677 19.2312 18.0374 17.6536 18.9651L16.435 19.6816L15.2052 20.3787C13.613 21.2811 12.992 21.6171 12.3397 21.6846C12.1138 21.708 11.8862 21.708 11.6603 21.6846C11.008 21.6171 10.387 21.2811 8.79485 20.3787L7.56504 19.6816L6.34641 18.9651C4.76877 18.0374 4.16734 17.6677 3.78274 17.1365C3.64955 16.9526 3.5357 16.7554 3.44301 16.5481C3.17534 15.9495 3.15581 15.2437 3.14126 13.4136L3.13002 12L3.14126 10.5864C3.15581 8.7563 3.17534 8.05054 3.44301 7.4519C3.5357 7.24459 3.64955 7.04741 3.78274 6.86348C4.16734 6.33235 4.76877 5.96256 6.34641 5.03491L7.56502 4.31837L8.79485 3.6213Z" stroke="#222628" stroke-width="1.4"/>
<path d="M10.61 9.59247C11.4727 9.10571 12.5273 9.10571 13.39 9.59247C14.2429 10.0962 14.7702 11.0095 14.78 12C14.7702 12.9905 14.2429 13.9038 13.39 14.4075C12.5273 14.8943 11.4727 14.8943 10.61 14.4075C9.75711 13.9038 9.22984 12.9905 9.22003 12C9.22984 11.0095 9.75711 10.0962 10.61 9.59247Z" stroke="#222628" stroke-width="1.4"/>
</svg>
