<svg width="24" height="24" viewBox="0 0 24 24" fill="none" xmlns="http://www.w3.org/2000/svg">
<path d="M12 2C14.3359 2 15.0551 3.34721 15.2066 4.64302C15.2789 5.26214 16.3989 5.93158 16.979 5.70341C18.1311 5.25025 19.5672 5.22903 20.6602 7C21.7246 9.02485 20.6671 10.3803 19.5865 11.1632C19.1196 11.5015 19.1196 12.4985 19.5865 12.8368C20.6671 13.6197 21.7246 14.9751 20.6602 17C19.5672 18.771 18.1311 18.7497 16.979 18.2966C16.3989 18.0684 15.2789 18.7379 15.2066 19.357C15.0551 20.6528 14.3359 22 12 22C9.66415 22 8.94495 20.6528 8.79344 19.357C8.72105 18.7379 7.60109 18.0684 7.02101 18.2966C5.8689 18.7497 4.43281 18.771 3.33974 17C2.39488 15.2025 3.12223 13.9325 4.05337 13.1223C4.51754 12.7184 4.4399 11.4663 3.93881 11.1093C2.90639 10.3737 2.11109 9.10049 3.33974 7C4.39203 5.20101 5.70849 5.09638 6.80694 5.48925C7.41051 5.70512 8.71992 4.97007 8.8396 4.34033C9.06663 3.14576 9.84586 2 12 2Z" stroke="#222628" stroke-width="1.4"/>
<circle cx="12" cy="12" r="2.3" stroke="#222628" stroke-width="1.4"/>
</svg>
