<svg width="24" height="24" viewBox="0 0 24 24" fill="none" xmlns="http://www.w3.org/2000/svg">
<path d="M19.5 6.40541C17.5 5 12.5 3 12.0117 3C11.5233 3 6.5 5 4.50001 6.40541L4.50001 14.1892C4.50002 18.0811 11.5233 21 12.0117 21C12.5 21 19.5 18.3784 19.5 14.1892V6.40541Z" stroke="#222628" stroke-width="1.4" stroke-linecap="round" stroke-linejoin="round"/>
<path d="M10.5493 12.1116C10.3097 11.8082 9.86947 11.7565 9.5661 11.9962C9.26273 12.2358 9.21106 12.676 9.4507 12.9794L10.5493 12.1116ZM15.0612 10.4184C15.2923 10.1085 15.2283 9.66989 14.9184 9.43881C14.6085 9.20773 14.1699 9.27165 13.9388 9.58159L15.0612 10.4184ZM10 12.5455C9.4507 12.9794 9.45072 12.9794 9.45074 12.9794C9.45076 12.9794 9.45079 12.9795 9.45082 12.9795C9.45087 12.9796 9.45095 12.9797 9.45104 12.9798C9.45123 12.98 9.45148 12.9803 9.4518 12.9807C9.45244 12.9816 9.45336 12.9827 9.45455 12.9842C9.45691 12.9872 9.46034 12.9915 9.46478 12.9971C9.47364 13.0083 9.4865 13.0244 9.50284 13.0449C9.53552 13.0858 9.58221 13.144 9.63874 13.2137C9.75147 13.3527 9.90481 13.5393 10.065 13.7271C10.2233 13.9125 10.3966 14.1089 10.5473 14.2627C10.621 14.3379 10.7026 14.4167 10.7823 14.4813C10.8212 14.5128 10.8754 14.5539 10.9393 14.5906C10.9787 14.6133 11.1289 14.7 11.3333 14.7V13.3C11.5147 13.3 11.6343 13.3753 11.6367 13.3767C11.6635 13.3921 11.6741 13.402 11.6639 13.3937C11.6455 13.3788 11.6071 13.3439 11.5472 13.2828C11.4306 13.1638 11.2821 12.9966 11.13 12.8184C10.98 12.6425 10.8345 12.4655 10.7261 12.3318C10.672 12.2651 10.6275 12.2097 10.5966 12.171C10.5812 12.1517 10.5692 12.1366 10.5611 12.1265C10.5571 12.1214 10.554 12.1176 10.5521 12.115C10.5511 12.1138 10.5503 12.1129 10.5499 12.1123C10.5496 12.112 10.5495 12.1118 10.5494 12.1117C10.5493 12.1116 10.5493 12.1116 10.5493 12.1115C10.5493 12.1115 10.5493 12.1115 10.5493 12.1115C10.5493 12.1115 10.5493 12.1116 10 12.5455ZM11.3333 14.7C11.4802 14.7 11.5896 14.6544 11.6339 14.6342C11.6877 14.6098 11.7292 14.5832 11.7542 14.566C11.8045 14.5316 11.8457 14.4954 11.8722 14.4712C11.928 14.42 11.9865 14.3583 12.0409 14.2984C12.1527 14.175 12.2937 14.0073 12.4486 13.8171C12.7606 13.4342 13.1555 12.9279 13.5408 12.4266C13.927 11.9241 14.307 11.4222 14.5903 11.0462C14.7319 10.8581 14.8496 10.7013 14.9318 10.5915C14.9729 10.5366 15.0052 10.4934 15.0272 10.4639C15.0383 10.4491 15.0467 10.4378 15.0524 10.4302C15.0553 10.4263 15.0575 10.4234 15.0589 10.4214C15.0597 10.4205 15.0602 10.4197 15.0606 10.4192C15.0608 10.4189 15.0609 10.4188 15.061 10.4186C15.0611 10.4186 15.0611 10.4185 15.0611 10.4185C15.0612 10.4184 15.0612 10.4184 14.5 10C13.9388 9.58159 13.9388 9.5816 13.9388 9.58162C13.9388 9.58165 13.9387 9.58169 13.9387 9.58174C13.9386 9.58185 13.9385 9.58202 13.9383 9.58225C13.938 9.58272 13.9374 9.58342 13.9367 9.58436C13.9353 9.58624 13.9332 9.58906 13.9304 9.5928C13.9249 9.60027 13.9166 9.61141 13.9057 9.62596C13.8839 9.65506 13.852 9.69782 13.8112 9.75228C13.7296 9.86122 13.6128 10.0169 13.472 10.2038C13.1903 10.5778 12.8132 11.0759 12.4308 11.5734C12.0475 12.0721 11.6623 12.5658 11.3632 12.9329C11.2126 13.1177 11.0903 13.2625 11.0038 13.3579C10.959 13.4073 10.9345 13.4315 10.9264 13.439C10.9209 13.444 10.9349 13.4303 10.9631 13.411C10.9771 13.4014 11.0087 13.3806 11.0541 13.36C11.0899 13.3436 11.1923 13.3 11.3333 13.3V14.7Z" fill="#222628"/>
</svg>
