<svg width="24" height="24" viewBox="0 0 24 24" fill="none" xmlns="http://www.w3.org/2000/svg">
<path d="M19.9046 3.72226L18.487 5.22946" stroke="#222628" stroke-width="1.4" stroke-linecap="round" stroke-linejoin="round"/>
<path d="M21.9107 8.8696L19.7063 8.78664" stroke="#222628" stroke-width="1.4" stroke-linecap="round" stroke-linejoin="round"/>
<path d="M15.0633 1.58934L15.1413 3.93311" stroke="#222628" stroke-width="1.4" stroke-linecap="round" stroke-linejoin="round"/>
<path d="M5.28245 19.6317L3.86824 18.2175C2.69666 17.0459 2.69666 15.1464 3.86824 13.9749L7.92149 9.92159C8.33345 9.50964 8.61654 8.98665 8.73621 8.41648L9.15761 6.40864C9.25321 5.95311 9.47938 5.53528 9.8085 5.20616C10.0425 4.97216 10.4219 4.97216 10.6559 5.20616L14.4748 9.02511L18.2938 12.8441C18.5278 13.0781 18.5278 13.4574 18.2938 13.6914C17.9647 14.0206 17.5468 14.2467 17.0913 14.3423L15.0835 14.7637C14.5133 14.8834 13.9903 15.1665 13.5783 15.5785L9.52509 19.6317C8.35352 20.8033 6.45402 20.8033 5.28245 19.6317Z" stroke="#222628" stroke-width="1.4" stroke-linecap="round" stroke-linejoin="round"/>
<path d="M8.1109 15.3891L7.40379 16.0962" stroke="#222628" stroke-width="1.4" stroke-linecap="round" stroke-linejoin="round"/>
</svg>
