<svg width="24" height="24" viewBox="0 0 24 24" fill="none" xmlns="http://www.w3.org/2000/svg">
<path d="M5.5 8L5.85207 17.1537C5.93467 19.3015 7.69902 21 9.84835 21C11.1516 21 12.6568 21 14.1509 21C16.3002 21 18.0653 19.3015 18.1479 17.1537L18.5 8" stroke="#222628" stroke-width="1.4" stroke-linecap="round"/>
<path d="M9 4.91485L10 4.91485C10 4.91485 10.3452 3.21454 12 3.21454C13.6548 3.21453 14 4.91486 14 4.91486L15 4.91486" stroke="#222628" stroke-width="1.4" stroke-linecap="round"/>
<path d="M14 14V16" stroke="#222628" stroke-width="1.4" stroke-linecap="round"/>
<path d="M10 14V16" stroke="#222628" stroke-width="1.4" stroke-linecap="round"/>
<path d="M20 5.70001L18.2761 5.54917C14.1 5.18375 9.89998 5.18375 5.72387 5.54917L4 5.70001" stroke="#222628" stroke-width="1.4" stroke-linecap="round"/>
</svg>
