<svg width="24" height="24" viewBox="0 0 24 24" fill="none" xmlns="http://www.w3.org/2000/svg">
<path d="M18 15C18 15 21 14.5 21 16.815C21.5 21 18 20.5 18 20.5" stroke="#222628" stroke-width="1.4" stroke-linecap="round" stroke-linejoin="round"/>
<path d="M15.7115 4.14452C15.7115 4.14452 17.8568 3.99335 18.1471 6.42391C18.4374 8.85447 16.3045 9.10923 16.3045 9.10923" stroke="#222628" stroke-width="1.4" stroke-linecap="round" stroke-linejoin="round"/>
<path d="M3.24942 17.5081C3.27294 17.1789 3.2847 17.0142 3.29887 16.9132C3.51818 15.3491 4.70205 14.3237 6.28138 14.3298C6.38343 14.3302 6.58769 14.3449 6.9962 14.3743C7.75116 14.4286 8.5513 14.4667 9.31224 14.4667C10.1774 14.4667 11.1328 14.4175 12.0287 14.3511C12.422 14.3219 12.6187 14.3074 12.7309 14.3074C14.278 14.3086 15.4715 15.3402 15.6967 16.8708C15.713 16.9818 15.7249 17.1482 15.7486 17.4809V17.4809C15.7687 17.7623 15.7788 17.903 15.778 18.0201C15.7676 19.5785 14.5656 20.8694 13.0119 20.9909C12.8952 21 12.7541 21 12.4719 21H9.31224H6.5008C6.24379 21 6.11529 21 6.00891 20.9924C4.43841 20.8806 3.22155 19.5737 3.22193 17.9993C3.22195 17.8926 3.23111 17.7645 3.24942 17.5081V17.5081Z" stroke="#222628" stroke-width="1.4"/>
<path d="M6 7.5C6 5.567 7.567 4 9.5 4V4C11.433 4 13 5.567 13 7.5V8C13 9.65685 11.6569 11 10 11V11H9V11C7.34315 11 6 9.65685 6 8V7.5Z" stroke="#222628" stroke-width="1.4"/>
</svg>
