<svg width="24" height="24" viewBox="0 0 24 24" fill="none" xmlns="http://www.w3.org/2000/svg">
<path d="M7.15584 16.3784H5.68259C4.20103 16.3784 3 15.1773 3 13.6958V12.5217V10.2492C3 8.76359 4.20435 7.55924 5.68999 7.55924H7.16155C8.07388 7.55924 8.93996 7.1577 9.52947 6.46142C11.3968 4.25589 15 5.57637 15 8.46621V12.5217V15.4918C15 18.384 11.3886 19.6992 9.52869 17.4843C8.93997 16.7832 8.07134 16.3784 7.15584 16.3784Z" stroke="#222628" stroke-width="1.4" stroke-linecap="round" stroke-linejoin="round"/>
<path d="M17.5 10C17.5 10 18.5 10.7185 18.5 12.5C18.5 14.2815 17.5 15 17.5 15" stroke="#222628" stroke-width="1.4" stroke-linecap="round"/>
</svg>
