<svg width="24" height="24" viewBox="0 0 24 24" fill="none" xmlns="http://www.w3.org/2000/svg">
<path d="M7.09558 15.6959H5.60757C4.16745 15.6959 3 14.5285 3 13.0884V12V9.9732C3 8.46606 4.22178 7.24427 5.72892 7.24427H7.19092C8.08688 7.24427 8.93973 6.85972 9.53293 6.18827C11.4386 4.03125 15 5.37911 15 8.25733V12V15.0203C15 17.9396 11.3004 19.1998 9.51837 16.8875C8.93925 16.1361 8.04426 15.6959 7.09558 15.6959Z" stroke="#222628" stroke-width="1.4" stroke-linecap="round" stroke-linejoin="round"/>
<path d="M17.5 9.5C17.5 9.5 18.5 10.2684 18.5 12C18.5 13.7316 17.5 14.5 17.5 14.5" stroke="#222628" stroke-width="1.4" stroke-linecap="round"/>
<path d="M20 8C20 8 21.5 9.22948 21.5 12C21.5 14.7705 20 16 20 16" stroke="#222628" stroke-width="1.4" stroke-linecap="round"/>
</svg>
