<svg width="24" height="24" viewBox="0 0 24 24" fill="none" xmlns="http://www.w3.org/2000/svg">
<rect x="2" y="2" width="20" height="19" rx="6" stroke="#222628" stroke-width="1.4"/>
<line x1="2" y1="9.3" x2="22" y2="9.3" stroke="#222628" stroke-width="1.4"/>
<path d="M15 6L18 6" stroke="#222628" stroke-width="1.4" stroke-linecap="round"/>
<path d="M8.99998 5.99999C8.99998 6.38659 8.68657 6.69999 8.29998 6.69999C7.91338 6.69999 7.59998 6.38659 7.59998 5.99999C7.59998 5.61339 7.91338 5.29999 8.29998 5.29999C8.68657 5.29999 8.99998 5.61339 8.99998 5.99999Z" fill="#222628"/>
<path d="M6.99998 5.99999C6.99998 6.38659 6.68657 6.69999 6.29998 6.69999C5.91338 6.69999 5.59998 6.38659 5.59998 5.99999C5.59998 5.61339 5.91338 5.29999 6.29998 5.29999C6.68657 5.29999 6.99998 5.61339 6.99998 5.99999Z" fill="#222628"/>
</svg>
