<svg id="Layer_1" data-name="Layer 1" xmlns="http://www.w3.org/2000/svg" viewBox="0 0 275 275"><path class="cls-1" style="fill:#3ab2e2;" d="M114.48,274.67c46.43-24.51,53.75-89.67,23-137.15-29.28,29.81-64.43,48.61-107.39,49.16C88.41,214.13,101.41,208.32,114.48,274.67Z"/><path class="cls-2" style="fill:#009fdd;" d="M274.67,160.52c-24.51-46.43-89.67-53.75-137.15-23.05,29.81,29.28,48.61,64.43,49.16,107.39C214.13,186.59,208.32,173.59,274.67,160.52Z"/><path class="cls-3" style="fill:#aadaf1;" d="M160.52.33C114.09,24.84,106.77,90,137.47,137.48c29.28-29.81,64.43-48.61,107.39-49.16C186.59,60.87,173.59,66.68,160.52.33Z"/><path class="cls-4" style="fill:#77c7ea;" d="M.33,114.48c24.51,46.43,89.67,53.75,137.15,23C107.67,108.25,88.87,73.1,88.32,30.14,60.87,88.41,66.68,101.41.33,114.48Z"/></svg>