<svg viewBox="0 0 48 48" xmlns="http://www.w3.org/2000/svg"><g fill="none" stroke="#000" stroke-linecap="round"><g stroke-linejoin="round"><path d="m11.412 27.729v5.8645a1.17 1.17 0 0 0 1.2364 1.2408h.3709"/><path d="m10.175 29.133h2.597"/><path d="m20.648 32.352a2.4728 2.4728 0 1 1 -4.9456 0v-1.613a2.4728 2.4728 0 1 1 4.9456 0"/><path d="m20.648 34.834v-6.576"/><path d="m29.236 34.834v-4.0946a2.4728 2.4728 0 1 0 -4.9456 0v4.0946"/><path d="m24.29 30.739v-2.481"/><path d="m7.7734 23.216h4.9456"/><path d="m7.7734 14.655 2.4726-1.365"/><path d="m10.246 13.29v9.926"/><path d="m19.951 18.253a2.4816 2.4816 0 0 0 0-4.9632h-1.6073a2.4816 2.4816 0 0 0 0 4.9632 2.4816 2.4816 0 0 0 0 4.9632h1.6073a2.4816 2.4816 0 0 0 0-4.9632"/><path d="m24.772 16.516a3.3064 3.3064 0 0 1 3.2147-3.35 3.3365 3.3365 0 0 1 2.3492 5.7076c-1.36 1.1167-5.5639 4.3427-5.5639 4.3427h6.553"/><path d="m33.674 16.516a3.3064 3.3064 0 0 1 3.2147-3.35 3.3365 3.3365 0 0 1 2.3492 5.7076c-1.36 1.1167-5.5639 4.3427-5.5639 4.3427h6.553"/><circle cx="24" cy="24" r="21.5"/></g><path d="m35.352 29.243v4.9457" stroke-miterlimit="7.4667"/><path d="m37.825 31.715h-4.9457" stroke-miterlimit="7.4667"/></g></svg>