<svg viewBox="0 0 48 48" xmlns="http://www.w3.org/2000/svg"><g fill="none" stroke="#000" stroke-linecap="round" stroke-linejoin="round"><path d="m23.3777 25.1891a5.8866 5.8866 0 0 1 .8187-.6561c1.6166 1.1394 2.0864 2.4437 2.4482 4.3614a17.9131 17.9131 0 0 1 .1584 3.9408 1.4918 1.4918 0 0 1 .461-.0613 1.9167 1.9167 0 0 1 .3214.0341c.3942.073 6.4313-.08 6.4313-.08l.9106-5.9187.9106 5.9187s4.5151 2.5717 4.5529 3.11c.0928 1.3238-12.1992 5.5948-12.1992 5.5948s-.7841-4.1726-1.0707-4.9076a1.2686 1.2686 0 0 0 -.6019-.6223c-.0532.43-.1121.8605-.1741 1.2993l-4.7249-.0784c-.0531-.4349-.1006-.864-.1306-1.3044a1.2561 1.2561 0 0 0 -.6252.6048c-.3024.7222-1.2286 4.8864-1.2286 4.8864s-12.1628-4.2959-12.0256-5.6159c.06-.5783 4.5529-2.9665 4.5529-2.9665l.9106-5.9187.9105 5.9187s6.2276.0337 6.5459-.0121a2.3849 2.3849 0 0 1 .3281-.0233 1.41 1.41 0 0 1 .4558.0738 17.7461 17.7461 0 0 1 .29-3.9334 6.375 6.375 0 0 1 1.7769-3.6412zm-.1392 3.1709a1.2844 1.2844 0 0 0 .8569 2.2191 1.2885 1.2885 0 0 0 1.3061-1.2631 1.2885 1.2885 0 0 0 -1.2632-1.306 1.2755 1.2755 0 0 0 -.8998.35zm-.2365 10.0344a1.3657 1.3657 0 0 1 2.3116 1.0045c-.0171.5085-.4636.9121-.7817 1.3668a8.0593 8.0593 0 0 0 -.6519 2.7343 8.0731 8.0731 0 0 0 -.56-2.7718c-.2744-.4416-.7037-.7276-.7357-1.3921a1.37 1.37 0 0 1 .4128-.9647z"/><path d="m11.7073 5.3765 1.5936-.8765v6.3744h1.5936"/><circle cx="19.7775" cy="6.6514" r="2.149"/><path d="m17.8648 10.0777a1.9572 1.9572 0 0 0 1.753.7968h.1593a2.1425 2.1425 0 0 0 2.1514-2.1514v-2.1514"/><path d="m32.0706 10.3167a2.4992 2.4992 0 0 0 1.9123.5578h.2391a2.0717 2.0717 0 1 0 0-4.1434h-2.1514v-2.2311h4.2231"/><path d="m29.1337 8.8027h-4.223l3.4262-4.3027v6.3744"/><path d="m13.0734 17.7036v-2.2764"/><path d="m34.9273 17.7036v-2.2764"/><path d="m13.0734 23.1671v-2.2764"/><path d="m34.9273 23.1671v-2.2764"/></g></svg>