<svg viewBox="0 0 48 48" xmlns="http://www.w3.org/2000/svg"><g fill="none" stroke="#000" stroke-linecap="round" stroke-linejoin="round"><circle cx="24" cy="24" r="21.5"/><path d="m28.083 17.28a7.8633 7.8633 0 0 1 0 13.44"/><path d="m19.917 30.72a7.8633 7.8633 0 0 1 0-13.44"/><path d="m26.067 10.43h-4.134a2.0172 2.0172 0 0 0 -2.016 2.016v6.36c2.358 1.281 2.736 2.562 0 3.843v12.925a2.0169 2.0169 0 0 0 2.016 2.015h4.134a2.0169 2.0169 0 0 0 2.016-2.015v-6.361c-2.358-1.281-2.736-2.562 0-3.842v-12.925a2.0172 2.0172 0 0 0 -2.016-2.016z"/></g></svg>