<svg viewBox="0 0 48 48" xmlns="http://www.w3.org/2000/svg"><g fill="none" stroke="#000" stroke-linecap="round" stroke-linejoin="round"><path d="m9.5 31.0304h7.0821"/><path d="m9.5 18.8137 3.5411-1.9476"/><path d="m13.0411 16.8661v14.1643"/><path d="m19.2637 29.53a4.25 4.25 0 0 0 3.5654 1.6044h2.1393a3.5758 3.5758 0 0 0 3.5654-3.5654 3.5758 3.5758 0 0 0 -3.5654-3.5654h-2.3175a3.5758 3.5758 0 0 1 -3.5654-3.5654 3.5758 3.5758 0 0 1 3.5654-3.5654h2.1391a3.8278 3.8278 0 0 1 3.5654 1.6044"/><path d="m31.4179 31.0303h7.0821"/><path d="m31.4179 16.8661h7.0821"/><path d="m31.4179 23.9482h4.6034"/><path d="m31.4179 16.8661v14.1642"/><path d="m40.5 5.5h-33a2 2 0 0 0 -2 2v33a2 2 0 0 0 2 2h33a2 2 0 0 0 2-2v-33a2 2 0 0 0 -2-2z"/></g></svg>