<svg viewBox="0 0 48 48" xmlns="http://www.w3.org/2000/svg"><path d="m5.5 19.6v20.9a2 2 0 0 0 2 2h33a2 2 0 0 0 2-2v-33a2 2 0 0 0 -2-2h-33a2 2 0 0 0 -2 2z" fill="none" stroke="#000" stroke-linecap="round" stroke-linejoin="round"/><path d="m16.2598 21.691 4.6179 4.618" fill="none" stroke="#000" stroke-linecap="round" stroke-linejoin="round"/><path d="m20.8777 21.691-4.6179 4.618" fill="none" stroke="#000" stroke-linecap="round" stroke-linejoin="round"/><circle cx="33.3434" cy="19.0581" r=".8507"/><g fill="none" stroke="#000" stroke-linecap="round" stroke-linejoin="round"><path d="m33.3434 22.0354v6.4408"/><path d="m36.92 20.03v7.231a1.2152 1.2152 0 0 0 1.2152 1.2152h.3648"/><path d="m35.6442 22.0354h2.552"/><path d="m28.8305 24a2.2429 2.2429 0 0 1 0 4.4857h-3.7005v-8.9714h3.7007a2.2429 2.2429 0 0 1 0 4.4857z"/><path d="m28.8305 24h-3.7007"/><path d="m25.1299 19.5144h-1.3146"/><path d="m25.1299 28.4857h-1.3146"/><path d="m26.2708 19.5143v-1.5905"/><path d="m28.1016 19.5143v-1.5905"/><path d="m26.2708 30.0762v-1.5905"/><path d="m28.1016 30.0762v-1.5905"/><path d="m9.5 28.861h4.861"/><path d="m9.5 20.4624 2.4305-1.3234"/><path d="m11.9305 19.139v9.722"/></g></svg>