<svg viewBox="0 0 48 48" xmlns="http://www.w3.org/2000/svg"><g fill="none" stroke="#000" stroke-linecap="round" stroke-linejoin="round"><path d="m40.5 5.5h-33a2 2 0 0 0 -2 2v33a2 2 0 0 0 2 2h33a2 2 0 0 0 2-2v-33a2 2 0 0 0 -2-2z"/><path d="m25.5785 36.1424c-.041-4.7889 1.0624-8.7464 7.0814-8.4979 8.5861-21.8817-26.424-21.0476-17.0918-.1307 2.83-.1756 7.5212 1.5092 6.72 9.1465"/><path d="m42.5 33.479-37 5.8236"/><path d="m5.5 11.04 12.3448 2.29"/><path d="m32.3554 15.53 10.1446 1.4814"/></g></svg>