<svg viewBox="0 0 48 48" xmlns="http://www.w3.org/2000/svg"><g fill="none" stroke="#000" stroke-linejoin="round"><rect height="18.5" rx="4" width="18.5" x="24" y="5.5"/><rect height="18.5" rx="4" width="18.5" x="5.5" y="24"/><rect height="18.5" rx="4" width="18.5" x="24" y="24"/><rect height="18.5" rx="4" width="18.5" x="5.5" y="5.5"/><g stroke-linecap="round"><path d="m34.06 33.25a2.5 2.5 0 0 0 2.5-2.5 2.5 2.5 0 0 0 -2.5-2.5h-1.62a2.5 2.5 0 0 0 -2.5 2.5 2.5 2.5 0 0 0 2.5 2.5 2.49 2.49 0 0 0 -2.5 2.5 2.5 2.5 0 0 0 2.5 2.5h1.62a2.5 2.5 0 0 0 2.5-2.5 2.5 2.5 0 0 0 -2.5-2.5"/><path d="m16.8 38.25v-10l-5.36 6.72h6.62"/><path d="m29.94 16.44a3.31 3.31 0 1 0 6.62 0v-3.38a3.31 3.31 0 0 0 -6.62 0z"/><path d="m11.44 13.06a3.31 3.31 0 1 1 6.62 0 3.05 3.05 0 0 1 -1 2.34c-1.34 1.18-5.65 4.35-5.65 4.35h6.62"/></g></g></svg>