<svg viewBox="0 0 48 48" xmlns="http://www.w3.org/2000/svg"><g fill="none" stroke="#000" stroke-linecap="round" stroke-linejoin="round"><circle cx="24" cy="24" r="21.5"/><circle cx="12.014" cy="14.0779" r="1.5"/><path d="m13.0684 13.0113a15.4757 15.4757 0 1 1 -1.9064 2.3006"/><path d="m25.5247 26.1588a4.2377 4.2377 0 0 0 8.4753 0v-4.3176a4.2377 4.2377 0 0 0 -8.4753 0z"/><path d="m19.2778 24.0015a3.1975 3.1975 0 0 0 3.1975-3.1975 3.1975 3.1975 0 0 0 -3.1975-3.1974"/><path d="m19.2778 30.3964a3.1975 3.1975 0 0 0 3.1975-3.1974 3.1975 3.1975 0 0 0 -3.1975-3.1974"/><path d="m14.0014 29.3173c.8832.74 1.8367 1.0791 3.978 1.0791h1.2984"/><path d="m14 18.6721c.8851-.7376 1.8395-1.0742 3.9808-1.0684l1.2984.0029"/><path d="m16.0204 24.0015h3.2574"/></g></svg>