<svg viewBox="0 0 48 48" xmlns="http://www.w3.org/2000/svg"><g fill="none" stroke="#000" stroke-linecap="round"><path d="m16.5346 24.0005a7.43 7.43 0 0 0 7.2937-7.518 7.43 7.43 0 0 0 -7.2937-7.518" stroke-linejoin="round"/><path d="m16.5346 39.0366a7.5215 7.5215 0 0 0 0-15.0361" stroke-linejoin="round"/><path d="m4.5 36.4052c2.1881 1.88 4.0115 2.6313 9.1171 2.6313h2.9176" stroke-linejoin="round"/><path d="m4.5 11.5959c2.1881-1.88 4.3762-2.6313 9.1171-2.6313h2.9176" stroke-linejoin="round"/><path d="m43.5 29.0747a9.8511 9.8511 0 1 1 -19.6932 0v-10.1494a9.96 9.96 0 0 1 9.8466-10.1495c5.47 0 9.4819 4.5108 9.4819 10.15" stroke-linejoin="round"/><path d="m27.3637 25.4959a6.6036 6.6036 0 0 1 13.2071 0v3.1162a.6914.6914 0 0 1 -.6788.6876h-11.832a.6917.6917 0 0 1 -.6958-.6876z" stroke-linejoin="round"/><path d="m38.6945 20.8854 1.7725-1.7724"/><path d="m29.24 20.8854-1.7729-1.7724"/><path d="m9.2408 24.0005h7.2938" stroke-linejoin="round"/></g><circle cx="31.1114" cy="24.4505" r=".75"/><circle cx="36.8348" cy="24.4505" r=".75"/></svg>