<svg viewBox="0 0 48 48" xmlns="http://www.w3.org/2000/svg"><g fill="none" stroke="#000" stroke-linecap="round" stroke-linejoin="round"><path d="m7.48 5.5a2 2 0 0 0 -2 2v33a2 2 0 0 0 2 2h33.04a2 2 0 0 0 2-2v-33a2 2 0 0 0 -2-2z"/><path d="m11.31 33.0308c1.5 1.2567 2.9551 1.8326 6.5918 1.8326h.7843a7.0179 7.0179 0 0 0 7.0179-7.0179 7.018 7.018 0 0 0 -7.0179-7.018h-7.3761v-7.6909h13.5659"/><path d="m36.1458 27.4086a4.1536 4.1536 0 0 1 -3.61 2.0967 4.155 4.155 0 0 1 -4.155-4.1549v-2.7004a4.155 4.155 0 0 1 4.155-4.1549 4.1549 4.1549 0 0 1 4.1547 4.1549v1.35h-8.31"/></g></svg>