<svg viewBox="0 0 48 48" xmlns="http://www.w3.org/2000/svg"><g fill="none" stroke="#000" stroke-linejoin="round"><path d="m23.026 21.105v-14.605h1.948v14.605m-2.921.027v1.947l.974.974h1.948l.974-.974v-1.947" stroke-linecap="round"/><path d="m24 24.053-.974.974v1.948l.974.974.974-.974v-1.948z"/><path d="m22.053 21.132h3.895m-2.922-2.948h1.948m-1.948-2.921h1.948m-1.948-2.921h1.948m-1.948-2.921h1.948m-6.974 25.279h4l-4 5.3h4m-9.5 0 4.3-8h-5.3" stroke-linecap="round"/><path d="m37.5 4.5h-27a2 2 0 0 0 -2 2v35a2 2 0 0 0 2 2h27a2 2 0 0 0 2-2v-35a2 2 0 0 0 -2-2z"/></g></svg>