<svg viewBox="0 0 48 48" xmlns="http://www.w3.org/2000/svg"><g fill="none" stroke="#000" stroke-linecap="round" stroke-linejoin="round"><path d="m40.5 42.5h-33a2 2 0 0 1 -2-2v-33a2 2 0 0 1 2-2h33a2 2 0 0 1 2 2v33a2 2 0 0 1 -2 2z"/><path d="m24 5.5v37"/><path d="m5.5 24h37"/><ellipse cx="14.75" cy="13.06" rx="3.45" ry="3.31"/><path d="m11.61 18.53a3.42 3.42 0 0 0 2.9 1.22h.24a3.38 3.38 0 0 0 3.45-3.31v-3.38"/><path d="m29.94 13.06a3.31 3.31 0 0 1 6.62 0 3.05 3.05 0 0 1 -1 2.34c-1.34 1.18-5.65 4.35-5.65 4.35h6.62"/><path d="m11.44 31.56a3.31 3.31 0 0 1 6.62 0 3.05 3.05 0 0 1 -1 2.34c-1.34 1.18-5.65 4.35-5.65 4.35h6.62"/><ellipse cx="33.25" cy="31.56" rx="3.45" ry="3.31"/><path d="m30.11 37a3.42 3.42 0 0 0 2.89 1.25h.24a3.38 3.38 0 0 0 3.45-3.31v-3.38"/></g></svg>