<svg viewBox="0 0 48 48" xmlns="http://www.w3.org/2000/svg"><g fill="none" stroke="#000" stroke-linecap="round" stroke-linejoin="round"><path d="m37.875 9.6111h-2.0556v-3.0833a1.0278 1.0278 0 0 0 -1.0277-1.0278h-3.0834a1.0278 1.0278 0 0 0 -1.0277 1.0278v3.0833h-13.3612v-3.0833a1.0278 1.0278 0 0 0 -1.0277-1.0278h-3.0834a1.0278 1.0278 0 0 0 -1.0277 1.0278v3.0833h-2.0556a2.0556 2.0556 0 0 0 -2.0556 2.0556v28.7777a2.0556 2.0556 0 0 0 2.0556 2.0556h27.75a2.0556 2.0556 0 0 0 2.0556-2.0556v-28.7777a2.0556 2.0556 0 0 0 -2.0556-2.0556z"/><path d="m36.3333 16.2917h-6.1666"/><path d="m26.9535 30.5413a7.2784 7.2784 0 0 1 -7.2784 7.2787 7.2784 7.2784 0 0 1 -7.2784-7.2784v-4.7316a7.2783 7.2783 0 0 1 7.2784-7.2784 7.2783 7.2783 0 0 1 7.2784 7.2784"/><path d="m29.8649 37.82a2.9114 2.9114 0 0 1 -2.9114-2.9114v-16.3767"/><path d="m33.25 13.2083v6.1667"/></g></svg>