<svg viewBox="0 0 48 48" xmlns="http://www.w3.org/2000/svg"><g fill="none" stroke="#000" stroke-linecap="round" stroke-linejoin="round"><path d="m31.253 11.9025a16.3835 16.3835 0 0 0 -6.9658-2.57 16.6586 16.6586 0 1 0 -4.004 33.0746 16.8566 16.8566 0 0 0 5.2949-.25 3.8029 3.8029 0 0 0 1.8933-6.4093l-1.17-1.17a2.5835 2.5835 0 0 1 .3316-3.9327 2.6776 2.6776 0 0 1 3.4171.3792l1.6021 1.6021a3.8107 3.8107 0 0 0 6.31-1.5273 16.7022 16.7022 0 0 0 .6753-7.6689 16.3761 16.3761 0 0 0 -2.685-6.9067"/><circle cx="17.3119" cy="17.3055" r="2.8035"/><circle cx="15.2527" cy="32.9047" r="2.8035"/><circle cx="12.6979" cy="24.6352" r="2.8035"/><path d="m28.7744 23.4159a4.2136 4.2136 0 0 0 -8.0173-1.8222l-.01-.0122s-1.7762 3.3185-3.6659 3.5845c.7186 1.5437 4.0563 3.8526 8.416 2.3654l-.005-.0061a4.2188 4.2188 0 0 0 3.2822-4.1094z"/><path d="m25.512 19.3036c.8847-3.5063 13.607-16.1488 16.5614-13.4336s-10.2895 15.559-13.4755 16.3363"/></g></svg>