<svg viewBox="0 0 48 48" xmlns="http://www.w3.org/2000/svg"><g fill="none" stroke="#000" stroke-linecap="round" stroke-linejoin="round"><path d="m24 18.8a2.19 2.19 0 0 0 -.87.18l-5.81 2.38a.85.85 0 0 0 -.52.78v5.12c0 4.58 5.18 7.55 7.2 7.55s7.2-3 7.2-7.55v-5.12a.85.85 0 0 0 -.52-.78l-5.81-2.36a2.19 2.19 0 0 0 -.87-.2z"/><path d="m23.75 30.62 2.24-3.98-3.98.34 2.24-3.98"/><path d="m18.89 4.5h10.22a2.28 2.28 0 0 1 2.29 2.29v1.46h2.54a3 3 0 0 1 3.06 3.06v29.14a3 3 0 0 1 -3.05 3h-19.89a3 3 0 0 1 -3.05-3v-29.14a3 3 0 0 1 3.05-3.06h2.54v-1.46a2.28 2.28 0 0 1 2.29-2.29z"/></g></svg>