<svg viewBox="0 0 48 48" xmlns="http://www.w3.org/2000/svg"><g fill="none" stroke="#000" stroke-linecap="round" stroke-linejoin="round"><path d="m11.8376 35.7006c-1.46.5286-2.6384-.4373-3.1874-2.1807l-3.7563-11.9281a2.9686 2.9686 0 0 1 1.2289-3.4842l2.6066-1.1759.9333-.4117c1.086-.4791 1.8025-.21 2.1839 1.0117l4.5625 14.619c.3824 1.225.2744 1.795-.718 2.1544z"/><path d="m16.4092 32.1507c5.6835-2.4493 8.6072-2.8933 14.9365-.8938"/><path d="m11.9462 17.4494.92-2.94 2.2538 1.9783 2.275 8.384"/><path d="m8.7294 16.9317.7073 2.23-2.11.7474"/><path d="m9.4367 19.1616.7073 2.23-2.11.7474"/><path d="m10.144 21.3915.7073 2.23-2.11.7474"/><path d="m10.8513 23.6214.7074 2.23-2.11.7474"/><path d="m11.5587 25.8513.7073 2.23-2.11.7475"/><path d="m12.266 28.0812.7073 2.23-2.11.7475"/><path d="m12.9733 30.3111.7073 2.23-2.11.7475"/><path d="m13.6806 32.541.7074 2.23"/><path d="m15.12 16.4877 1.1584-2.8442 2.0824 2.1786 1.5748 8.5616"/><path d="m18.3606 15.8221 1.3886-2.7268 1.8947 2.3621.8627 8.6741"/><path d="m21.6439 15.4574 1.6082-2.5885 1.6928 2.5276.144 8.7205"/><path d="m24.9449 15.3965 1.8151-2.4305 1.4783 2.674-.5758 8.7006"/><path d="m28.2383 15.64 2.0091-2.2541 1.2517 2.8-1.2912 8.6141"/><path d="m31.4991 16.1856 2.1873-2.06 1.016 2.9044"/><path d="m31.05 32.507.2954-1.25q1.6782-7.1136 3.3567-14.2273l.3747-1.5828"/><path d="m35.0771 15.4468 6.9029 1.8226a2.4849 2.4849 0 0 1 1.69 3.0732l-2.872 12.1674a2.3809 2.3809 0 0 1 -3.1963 1.7274l-6.5517-1.7304"/></g><circle cx="37.225" cy="18.9261" r=".75"/><circle cx="36.235" cy="22.7978" r=".75"/><circle cx="35.3857" cy="26.8242" r=".75"/><circle cx="34.3162" cy="30.7563" r=".75"/><circle cx="38.2168" cy="29.844" r=".75"/><circle cx="39.2549" cy="25.6603" r=".75"/><circle cx="40.1671" cy="21.5081" r=".75"/></svg>