<svg viewBox="0 0 48 48" xmlns="http://www.w3.org/2000/svg"><g fill="none" stroke="#000" stroke-linecap="round" stroke-linejoin="round"><path d="m24 18.82a2.15 2.15 0 0 0 -.87.18l-5.82 2.38a.85.85 0 0 0 -.52.78v5.13c0 4.58 5.19 7.56 7.21 7.56s7.21-3 7.21-7.56v-5.13a.85.85 0 0 0 -.52-.78l-5.82-2.38a2 2 0 0 0 -.87-.18z"/><path d="m18.88 4.5h10.23a2.27 2.27 0 0 1 2.29 2.27v1.48h2.6a3 3 0 0 1 3 2.95v29.3a3 3 0 0 1 -3 3h-20a3 3 0 0 1 -3-3v-29.18a3 3 0 0 1 2.94-3.07h2.66v-1.46a2.28 2.28 0 0 1 2.26-2.29z"/><path d="m11 15.58c3.07-2.58 5.48-3.58 8.26-3.58 6.9 0 7.66 4.57 13.33 4.57 3.64 0 4.42-2 4.42-2"/><path d="m23.75 30.65 2.24-3.98-3.98.34 2.24-3.99"/></g></svg>