<svg viewBox="0 0 48 48" xmlns="http://www.w3.org/2000/svg"><g fill="none" stroke="#000" stroke-linecap="round" stroke-linejoin="round"><path d="m24 11.0454a12.9541 12.9541 0 0 0 -9.16 22.114 12.9541 12.9541 0 1 0 18.32-18.3194 13.11 13.11 0 0 0 -9.16-3.7946z"/><path d="m19.6485 7.45 4.3807-4.95 4.35 5.0073 6.8475-2.6323v7.0289l6.8711.7318-1.6349 6.998 5.0371 4.3312-5.0022 4.1894 1.5815 7.0235-6.8525.8842v6.88l-6.8838-2.5671-4.304 5.1251-4.4458-5.1277-6.7632 2.5783v-6.883l-6.9343-.9014 1.6648-7.0071-5.0605-4.2021 5.0879-4.2894-1.6161-7.0063 6.8469-.8228v-6.8915l6.83 2.5027"/></g></svg>