<svg viewBox="0 0 48 48" xmlns="http://www.w3.org/2000/svg"><g fill="none" stroke="#000" stroke-linecap="round" stroke-linejoin="round"><rect height="11.24" rx="2" transform="matrix(.70710678 .70710678 -.70710678 .70710678 24 -9.94)" width="43.39" x="2.3" y="18.38"/><path d="m27.97 20.03-3.69 3.69"/><path d="m14.9 6.95-3.69 3.69"/><path d="m19.26 11.31-2.05 2.05"/><path d="m23.62 15.67-2.06 2.05"/><path d="m41.05 33.1-3.69 3.69"/><path d="m32.33 24.38-2.05 2.06"/><path d="m36.69 28.74-2.05 2.05"/><path d="m24 16.05 3.63-3.63a3.89 3.89 0 0 1 1.47-.92l9-3.11a1.22 1.22 0 0 1 1.55 1.55l-3.11 9a3.89 3.89 0 0 1 -.92 1.47l-3.62 3.59"/><path d="m24 32-10 10a1.94 1.94 0 0 1 -2.75 0l-5.2-5.2a1.94 1.94 0 0 1 0-2.75l10-10"/><path d="m8.37 31.68 7.95 7.95"/><path d="m27.2 12.85 7.95 7.95"/></g></svg>