<svg viewBox="0 0 48 48" xmlns="http://www.w3.org/2000/svg"><g fill="none" stroke="#000" stroke-miterlimit="10"><path d="m17.8339 4.8808c-.7007.8055.7573 2.177 1.0886 2.2244a25.3652 25.3652 0 0 1 3.3129.6626c.7572.2839 2.65 2.2717 3.0763 2.5556a12.03 12.03 0 0 1 2.6976 3.171 16.3585 16.3585 0 0 1 1.5145 5.0167 30.47 30.47 0 0 1 .2367 4.6381c-.142 1.5618-.71 5.5846-1.7038 7.2884s-5.0167 6.1053-5.7267 6.9572a20.6912 20.6912 0 0 1 -3.8808 2.8869c-1.0885.6626-3.2656 1.4672-3.5969 1.7985s-.5206.5206-.5206.7572 1.7511.6626 2.4137.6626a13.188 13.188 0 0 0 4.3068-.9465 35.3293 35.3293 0 0 0 4.8747-3.029c.5206-.5679 2.8348-1.0663 4.3542-2.3664a24.5276 24.5276 0 0 0 2.85-3.1535c.3876-.5815 2.45-3.283 2.45-3.9929a23.2834 23.2834 0 0 1 .6626-2.603 25.3751 25.3751 0 0 0 .1893-5.4427c-.2839-.9939 0-3.9282-.9938-5.9159a23.5323 23.5323 0 0 0 -4.4009-6.0101c-1.2778-1.0412-6.9571-4.8274-8.8976-5.1587s-3.734-.6589-4.3068-.0005z"/><path d="m18.5439 15.9317c.0946-.6389.0946-3.8808-.45-4.0938s-2.6976 2.816-2.6976 2.816a24.8843 24.8843 0 0 0 -3.9282.6153c-.142.2366 2.3664 2.2007 2.3664 2.2007s-2.0345 1.6091-2.2245 2.4137c0 0 3.8572.3786 4.1648.3313s1.9641 3.1236 2.5083 3.0289.8756-3.7862.8756-3.7862 3.6916-1.3488 3.6442-2.2243-4.259-1.3016-4.259-1.3016z"/><path d="m17.9523 28.5445c.7335.0237 2.7093-2.1417 3.3129-1.5381.4417.4417-.71 3.2419-.71 3.2419a8.89 8.89 0 0 1 2.1534 1.3488 4.5273 4.5273 0 0 1 -2.9107 1.7275s-.6152 2.745-.9938 2.8633-1.9112-2.48-1.9112-2.48-3.5848.0961-3.7918-.4068c-.2549-.619 2.1061-2.106 2.1061-2.106s-.7968-3.9781-.3-4.3418 3.0451 1.6912 3.0451 1.6912z"/></g></svg>