<svg viewBox="0 0 48 48" xmlns="http://www.w3.org/2000/svg"><path d="m35.59 15.74v-8.07a3.17 3.17 0 0 0 -3.17-3.17h-16.84a3.17 3.17 0 0 0 -3.17 3.17v8.07a3.15 3.15 0 0 0 .95 2.26l6.12 6-6.12 6a3.15 3.15 0 0 0 -.95 2.26v8.07a3.17 3.17 0 0 0 3.17 3.17h16.84a3.17 3.17 0 0 0 3.17-3.17v-8.07a3.15 3.15 0 0 0 -1-2.26l-6.12-6 6.12-6a3.15 3.15 0 0 0 1-2.26zm-6.33 17.85v3.58h-10.52v-3.58l5.26-5.16zm0-19.18-5.26 5.16-5.26-5.16v-3.58h10.52z" fill="none" stroke="#000" stroke-linecap="round" stroke-linejoin="round"/></svg>