<svg viewBox="0 0 48 48" xmlns="http://www.w3.org/2000/svg"><g fill="none" stroke="#000" stroke-linecap="round" stroke-linejoin="round"><path d="m29.46 38.63h14.04v-6.59l-19.5-22.66-19.5 22.58"/><path d="m24 9.38v29.25h5.46"/><path d="m26.42 17.57 3.01 3.39v3.59l-3.02-3.41z"/><path d="m31.47 23.46 3.01 3.4v3.58l-3.02-3.41z"/><path d="m26.52 24.71 3 3.39v3.59l-3.02-3.41z"/><path d="m36.41 29.23 3 3.39v3.59l-3.02-3.41z"/><path d="m31.49 30.47 3 3.39v3.58l-3.02-3.41z"/><path d="m21.41 17.57-3.01 3.43v3.59l3-3.41z"/><path d="m16.36 23.46-3 3.39v3.59l3-3.41z"/><path d="m11.43 29.23-3 3.39v3.59l3-3.41z"/><path d="m21.32 24.71-3 3.39v3.59l3-3.41z"/><path d="m16.35 30.47-3 3.39v3.58l3-3.41z"/><path d="m21.38 31.65-3 3.39v3.59l3-3.42z"/><path d="m26.52 31.65 3 3.39v3.58l-3.02-3.41z"/></g></svg>