<svg viewBox="0 0 48 48" xmlns="http://www.w3.org/2000/svg"><g fill="none" stroke="#000" stroke-linecap="round" stroke-linejoin="round"><ellipse cx="23.9" cy="38.16" rx="1.8" ry="1.74"/><path d="m22.75 33h2.38c.61 1.76 1.37 2 2.86 1.61l1.17 2c-1.49.94-1.58 2.17 0 3.38l-1.09 1.81c-2.05-.77-2.79-.06-2.94 1.7h-2.38c-.16-2-1.28-2.3-3-1.7l-1.15-1.88c1.53-1.14 1.43-2.26 0-3.36l1.24-2.08c1.62.52 2.72.14 2.91-1.48z"/><path d="m23.93 30.62 2-3.42a1.88 1.88 0 0 0 -2-2.49 1.79 1.79 0 0 0 -1.84 2.49z"/><path d="m19.3 11.49a37.42 37.42 0 0 1 9.29 0 33.84 33.84 0 0 1 -.99 11.51 40.53 40.53 0 0 0 -7.2 0 28.26 28.26 0 0 1 -1.1-11.49z"/><path d="m28.59 11.49a19 19 0 0 0 -3.87-6.42c-.76-.71-.87-.81-1.59 0a18.43 18.43 0 0 0 -3.83 6.42"/><path d="m27.6 23a14.92 14.92 0 0 1 2.86.77c-.06-1.38-.38-3-2.27-3.52"/><path d="m19.71 20.25c-1.89.49-2.11 2.12-2.17 3.5a14.92 14.92 0 0 1 2.86-.75"/></g></svg>