<svg viewBox="0 0 48 48" xmlns="http://www.w3.org/2000/svg"><g fill="none" stroke="#000" stroke-linecap="round" stroke-linejoin="round"><path d="m41 5.5h-33.51a2 2 0 0 0 -2 2v33.5c0 1.4.7 1.5.7 1.5l36.3-36.4s.3-.6-1.5-.6"/><path d="m36.59 30.6v-1.8l-1.8-3.4-.1-2.4-2.3-1.4-1.6.5-2.4-.8-.1-.3 2.5-2.5.4.8 3.4.7 3.7-1.3a14 14 0 0 1 -.8 12.9z"/><path d="m20.39 28.8 2.3-2.3h2l1.5 2.4 1.4.1-.2 1.1-2 1.9-.1 1.5-1.9 1.3-.1 1-.5-1v-5.6z"/><path d="m35 13.7-4.4-4.4h-12.71l-8.6 8.6v12.8l4.3 4.3c14.8 13.6 35-6.6 21.4-21.3z"/></g></svg>