<svg viewBox="0 0 48 48" xmlns="http://www.w3.org/2000/svg"><g fill="none" stroke="#000" stroke-linecap="round" stroke-linejoin="round"><path d="m19.8 3a1.06 1.06 0 0 0 -1 .88l-.8 5.57a15.2 15.2 0 0 0 -3.55 2.07l-5.26-2.12a1 1 0 0 0 -1.28.46l-4.2 7.27a1.06 1.06 0 0 0 .29 1.35l4.39 3.52a17.67 17.67 0 0 0 -.15 2 17.35 17.35 0 0 0 .15 2.05l-4.39 3.47a1.06 1.06 0 0 0 -.25 1.35l4.2 7.27a1 1 0 0 0 1.28.46l5.23-2.12a15.71 15.71 0 0 0 3.54 2.07l.79 5.57a1.06 1.06 0 0 0 1 .88h8.4a1.05 1.05 0 0 0 1-.88l.81-5.57a15.4 15.4 0 0 0 3.55-2.07l5.25 2.12a1 1 0 0 0 1.28-.46l4.2-7.27a1.06 1.06 0 0 0 -.28-1.35l-4.4-3.47a17.35 17.35 0 0 0 .14-2.05 17.5 17.5 0 0 0 -.14-2l4.4-3.52a1.06 1.06 0 0 0 .25-1.35l-4.2-7.27a1.05 1.05 0 0 0 -1.28-.46l-5.23 2.12a15.71 15.71 0 0 0 -3.54-2.07l-.79-5.57a1.07 1.07 0 0 0 -1-.88z"/><circle cx="24" cy="24.03" r="9.64"/><path d="m19.63 32.63 12.96-12.98"/></g></svg>