<svg viewBox="0 0 48 48" xmlns="http://www.w3.org/2000/svg"><g fill="none" stroke="#000" stroke-linecap="round" stroke-linejoin="round"><path d="m40 5.5h-33a2 2 0 0 0 -2 2v33a2 2 0 0 0 2 2h33a2 2 0 0 0 2-2v-33a2 2 0 0 0 -2-2z"/><path d="m24 24v-11.5"/><path d="m33.5 18.25h-19"/><path d="m24 12.5 9.5 5.75-9.5 5.75-9.5-5.75z"/><path d="m28.75 21.12 4.75 2.88-9.5 5.75-9.5-5.75 4.75-2.88"/><path d="m14.5 29.75 4.75-2.87m-2.37 4.32 4.74-2.9m11.88 1.45-9.5 5.75m-2.38-1.5 9.5-5.7m-11.87 4.32 4.75-2.87"/></g></svg>