<svg viewBox="0 0 48 48" xmlns="http://www.w3.org/2000/svg"><g fill="none" stroke="#000" stroke-linecap="round" stroke-linejoin="round"><path d="m38.78 27.78c-2.3-2.44-8.66-1.45-10.16-1.2-2.19-2.13-5.48-5.39-6-6.33 1.38-2.25 3.14-4.65 3.21-6.61 0-2.24-.9-4.64-3.38-4.64a2.55 2.55 0 0 0 -2.1 1.22c-1.15 3.06.57 6.22 2.27 10-1 2.8-3.64 6.23-5.52 9.5-2.55 1-7.83 3.06-8.48 6.26a2.32 2.32 0 0 0 .74 2.2 3.17 3.17 0 0 0 2.2.79c3.26 0 3.09-5.29 5.54-9.25 1.84-.64 8.56-2.63 11.52-3.17 3.45 3 5.66 5.11 7.47 5.45a2.63 2.63 0 0 0 2.69-4.25z"/><rect height="37" rx="2" width="37" x="5.5" y="5.5"/></g></svg>