<svg viewBox="0 0 48 48" xmlns="http://www.w3.org/2000/svg"><g fill="none" stroke="#000" stroke-linecap="round" stroke-linejoin="round"><path d="m40.5 5.5h-33a2 2 0 0 0 -2 2v33a2 2 0 0 0 2 2h33a2 2 0 0 0 2-2v-33a2 2 0 0 0 -2-2zm-1.89 26.43-3.6.7v4.31l-11.01-2.15-11 2.15v-4.31l-3.6-.7v-15.86l3.6-.7v-4.31l11 2.15 11-2.15v4.31l3.6.7z"/><path d="m24 13.21 11.01 2.16"/><path d="m12.99 15.37v17.26"/><path d="m24 34.79 11.01-2.16"/><circle cx="24" cy="24" r="7.71"/><circle cx="24" cy="24" r="5.07"/></g></svg>