<svg viewBox="0 0 48 48" xmlns="http://www.w3.org/2000/svg"><path d="m7.5 5.5h33a2 2 0 0 1 2 2v33a2 2 0 0 1 -2 2h-33a2 2 0 0 1 -2-2v-33a2 2 0 0 1 2-2zm14.21 29.23c-3.3.12-6.06.32-8.84-1.51a8.86 8.86 0 0 1 6.43-16.07c3.24.56 4.61 2.41 6.19 4 .44.43.83.84 1.26 1.28a2.46 2.46 0 0 1 1 1.55m-6.19-8.12c.14-.46 2.3-1.56 2.65-1.71a10.64 10.64 0 0 1 14.79 9.73 10.59 10.59 0 0 1 -.64 3.76 9.8 9.8 0 0 1 -1.7 3.08 10.52 10.52 0 0 1 -10.06 3.87c-4-.67-6-3.16-8.48-5.7-.5-.51-2.12-2-2.27-2.58" fill="none" stroke="#000" stroke-linecap="round" stroke-linejoin="round"/></svg>