<svg viewBox="0 0 48 48" xmlns="http://www.w3.org/2000/svg"><g fill="none" stroke="#000" stroke-linecap="round" stroke-linejoin="round"><path d="m40.5 5.5h-33a2 2 0 0 0 -2 2v33a2 2 0 0 0 2 2h33a2 2 0 0 0 2-2v-33a2 2 0 0 0 -2-2z"/><path d="m10.89 34v-20h6.67a6.69 6.69 0 0 1 0 13.38h-6.67"/><path d="m31.69 21a3.23 3.23 0 0 0 -3.23 3.24 3.23 3.23 0 0 0 3.23 3.24h1.1"/><path d="m32.79 27.49h1.09a3.23 3.23 0 0 1 3.23 3.23 3.23 3.23 0 0 1 -3.23 3.28"/><path d="m36.8 22.1c-.89-.75-1.85-1.09-4-1.09h-1.1"/><path d="m28.77 32.87c.89.75 1.85 1.09 4 1.09h1.09"/></g></svg>