<svg viewBox="0 0 48 48" xmlns="http://www.w3.org/2000/svg"><g fill="none" stroke="#000" stroke-linecap="round" stroke-linejoin="round"><path d="m10.66 16.83a2.78 2.78 0 0 1 2.79 2.77v9.87a2.79 2.79 0 0 1 -5.57 0v-9.86a2.77 2.77 0 0 1 2.76-2.78z"/><path d="m37.34 16.83a2.77 2.77 0 0 1 2.78 2.76v9.88a2.79 2.79 0 0 1 -5.57 0v-9.86a2.78 2.78 0 0 1 2.78-2.78z"/><path d="m24 6.82a10.55 10.55 0 0 0 -10.55 10.55v16.12a2 2 0 0 0 2 2h17.1a2 2 0 0 0 2-2v-16.12a10.55 10.55 0 0 0 -10.55-10.55z"/><path d="m22.84 35.5v5.22a2.79 2.79 0 0 1 -2.78 2.78 2.8 2.8 0 0 1 -2.79-2.78v-5.22"/><path d="m30.73 35.5v5.22a2.8 2.8 0 0 1 -2.79 2.78 2.79 2.79 0 0 1 -2.78-2.78v-5.22"/><path d="m17.27 35.5h13.46"/><path d="m17.09 4.5 1.92 3.57"/><path d="m30.91 4.5-2.02 3.52"/><path d="m18.5 28.655 11-11"/><path d="m18.5 17.655 11 11"/></g></svg>