<svg viewBox="0 0 48 48" xmlns="http://www.w3.org/2000/svg"><path d="m19.59 40a2.4 2.4 0 0 1 -3.28-.88l-.48-.82a2.4 2.4 0 0 1 4.17-2.39l.48.82a2.42 2.42 0 0 1 -.89 3.27zm10.85 0a2.4 2.4 0 0 1 -3.28-.88l-5.64-9.76a2.4 2.4 0 1 1 4.16-2.36l5.64 9.77a2.39 2.39 0 0 1 -.88 3.23zm10.86 0a2.42 2.42 0 0 1 -3.3-.86l-12.33-21.39a1.92 1.92 0 0 0 -3.33 0l-12.34 21.39a2.42 2.42 0 0 1 -2.09 1.2 2.37 2.37 0 0 1 -1.21-.34 2.4 2.4 0 0 1 -.88-3.28l16.1-27.86a2.4 2.4 0 0 1 4.16 0l16.1 27.88a2.4 2.4 0 0 1 -.88 3.26z" fill="none" stroke="#000" stroke-linecap="round" stroke-linejoin="round"/></svg>