<svg viewBox="0 0 48 48" xmlns="http://www.w3.org/2000/svg"><g fill="none" stroke="#000" stroke-linecap="round" stroke-linejoin="round"><path d="m10.489 19.0231q-.113.2788-.2034.5663c-.7181 1.81-2.73 6.1067-5.7856 6.4827a60.3093 60.3093 0 0 0 7.7835 2.6236m7.234.4244a7.5228 7.5228 0 0 0 -2.0832-14.7513 6.789 6.789 0 0 0 -4.2377 1.3082"/><path d="m16.499 28.6967s.6852 4.655-5.4115 3.5622"/><path d="m19.2037 28.6967s-.6852 4.655 5.4115 3.5622"/><path d="m11.0875 32.2589a9.7265 9.7265 0 0 0 2.8189 4.05m1.5 4.792a16.1221 16.1221 0 0 1 .0456 1.6768"/><path d="m24.6152 32.2589a9.7265 9.7265 0 0 1 -2.8189 4.05m-1.501 4.8061a16.3552 16.3552 0 0 0 -.0451 1.6627"/><path d="m23.9441 25.66s-3.21.4747-4.0819 1.5027"/><path d="m19.8622 27.1625s4.6959-7.2349 1.1122-11.9089"/><path d="m6.78 26.89s1.3129-.21 3.2672-3.1676"/><path d="m12.5821 20.2934a11.6829 11.6829 0 0 1 4.4787-.7666 18.1146 18.1146 0 0 1 .8407-3.6809m1.1162 3.73a10.4331 10.4331 0 0 1 3.2618.8351"/><path d="m12.5821 20.2934a11.8511 11.8511 0 0 0 .9137 5.07c1.088 2.3295 3.1594 3.5016 4.2093 3.5016h.3867a5.45 5.45 0 0 0 3.7919-2.7341"/><path d="m12.776 23.0169s-1.43.0275-1.4741.9959a2.829 2.829 0 0 0 2.7125 2.2749"/><path d="m12.0767 34.2485a19.748 19.748 0 0 0 -1.2414 2.8692c-.2124.8878-4.4117 5.66-4.4117 5.66"/><path d="m6.4236 42.7776s4.6976-.3923 7.8358-2.6837"/><path d="m14.2594 40.0939a3.5089 3.5089 0 0 0 1.7818-3.6914c-.5313-1.2972-.3272-2.7721.4072-3.2774a2.1627 2.1627 0 0 1 2.25-.2566c.4784.46.1262 1.04.182 1.323"/><path d="m17.7087 36.2421s-1.0727-2.3944 1.1718-2.0506"/><path d="m23.626 34.2485a19.748 19.748 0 0 1 1.2414 2.8692c.1711.715 3.2472 4.3159 4.425 5.6753 0 0-4.7109-.4077-7.8491-2.6991"/><path d="m21.4433 40.0939s-1.6809-.6557-1.2741-3.2855c0 0-.0046-2.6169-1.2887-2.6169"/><path d="m24.0682 18.0977a7.5183 7.5183 0 0 1 6.4975-3.7289 7.52 7.52 0 0 1 5.021 1.9227m2.2709 3.6494c.82 1.9606 2.77 5.7777 5.6424 6.1312 0 0-1.7438.7434-4.0688 1.5254m-1.8728.5941c-1.0411.3092-2.13.5947-3.1867.8084m-7.6824-.6619a7.5617 7.5617 0 0 1 -2.2828-2.1281"/><path d="m24.0559 25.66c.7218 1.67 3.6643 1.5245 4.0818 1.5027"/><path d="m28.1377 27.1625s-4.6958-7.2349-1.1122-11.9089"/><path d="m35.4178 20.2934a11.8511 11.8511 0 0 1 -.9137 5.07c-1.0879 2.3295-3.1594 3.5016-4.2092 3.5016h-.3868a4.7251 4.7251 0 0 1 -2.9308-1.6238"/><path d="m35.224 23.0169s1.43.0275 1.4741.9959a2.8291 2.8291 0 0 1 -2.7125 2.2749"/><path d="m25.8417 21.3141a6.674 6.674 0 0 0 2.2266.7666m.3777-3.8107s1.2658 4.05 2.2224 4.0016a18.0473 18.0473 0 0 0 4.74-.8357"/><path d="m32.5922 20.43a21.2535 21.2535 0 0 0 -2.5953-6.04"/><path d="m32.5678 27.8465s3.9384 3.3258 5.8109 3.4069"/><path d="m38.3787 31.2534a17.744 17.744 0 0 0 -2.5319 6.7723"/><path d="m37.9473 31.9832a16.2932 16.2932 0 0 0 4.4375 3.5412"/><path d="m27.6352 27.8465s-3.9384 3.3258-5.8109 3.4069"/><path d="m21.8243 31.2534a5.8812 5.8812 0 0 1 .919 1.17"/><path d="m31.0493 31.3319 1.4882-.5912-.46 1.7412 1.6142.49-1.5032.8023.2715 1.6358-1.4423-.7549-.7062 2.097-.7063-2.097-1.4422.7549.2714-1.6358-1.5033-.8023 1.6143-.49-.46-1.7412 1.4883.5912.7376-1.924z"/><path d="m33.68 34.8175a49.4883 49.4883 0 0 0 5.4115 7.9691"/><path d="m32.4338 37.35a17.2993 17.2993 0 0 1 1.31 5.44"/><path d="m26.9515 34.8175s-.2729.5646-1.6545 2.7871"/><path d="m28.19 37.35a16.7456 16.7456 0 0 0 -.923 2.8586"/><path d="m24 15.2716v-10.0646"/><path d="m29.0323 10.2393h-10.0646"/><path d="m26.2346 12.4739-4.4693-4.4693"/><path d="m21.7653 12.4739 4.4693-4.4693"/><path d="m8.0247 8.0108s1.0693 3.8432 2.408 5.2412c.9054.9455 3.7981 3.1765 4.3182 4.2906a.7041.7041 0 0 1 .08.3143c-.0368.94-1.0133 1.9039-3.0918 1.455a5.7164 5.7164 0 0 1 -3.9351-3.8012c-.9429-2.3164.2207-7.4999.2207-7.4999z"/><path d="m7.445 12.4511a9.6648 9.6648 0 0 0 3.475 4.4759"/><path d="m40.5543 8.8586s-1.0693 3.8432-2.408 5.2414c-1.0016 1.046-4.4352 3.6651-4.3984 4.6049s1.0133 1.9039 3.0918 1.455a5.7164 5.7164 0 0 0 3.9351-3.8012c.9431-2.3166-.2205-7.5001-.2205-7.5001z"/><path d="m41.134 13.2989a9.6648 9.6648 0 0 1 -3.474 4.4759"/><path d="m37.5584 28.1916s-.7234-1.7079-.4552-2.2821.964 1.6114 2.3281 1.688"/><path d="m12.2835 28.6957a3.6636 3.6636 0 0 0 1.7309-2.408"/></g></svg>