<svg viewBox="0 0 48 48" xmlns="http://www.w3.org/2000/svg"><g fill="none" stroke="#000" stroke-linecap="round" stroke-linejoin="round"><path d="m18.4836 10.5044 3.5722-4.0364 3.5472 4.0832 5.5837-2.1465v5.7316l5.603.5968-1.2536 5.3662m.8112 1.1061 3.2167 2.766-1.3961 1.1692m-6.9811 9.9533v4.3522l-5.6133-2.0933-3.51 4.1792-3.6253-4.1813-5.515 2.1024v-5.6131l-5.6545-.735 1.3575-5.7139-4.1262-3.4262 4.1489-3.4977-1.3178-5.7133 5.5832-.6709v-5.62l5.5695 2.0408"/><path d="m36.7647 25.121c1.2653-8.7683-11.4232-9.5873-12.8347-1.5676-3.0724-2.0573-6.9336.2154-6.208 3.8-7.2451.0576-6.19 7.48-1.96 7.6711h22.8718c6.18.1346 7.4129-9.5785-1.8691-9.9033l.2353-.134"/><path d="m12.9993 29.2087a9.9665 9.9665 0 0 1 16.08-11.2594"/></g></svg>