<svg viewBox="0 0 48 48" xmlns="http://www.w3.org/2000/svg"><g fill="none" stroke="#000"><path d="m5.1839 11.4158c0-3.82 6.1819-6.9158 13.8077-6.9158s13.8078 3.0963 13.8078 6.9158" stroke-linecap="round" stroke-linejoin="round"/><path d="m9.047 40.5052s-.0908-.089-.2374-.2671a10.5019 10.5019 0 0 1 -2.1351-5.3774c-.4625-3.7715-1.6779-19.8418-1.49-23.4443"/><path d="m32.8 11.4158s-.673 15.2118-.998 19.68-.33 7.1657-2.5478 9.0825-5.6803 3.3217-10.262 3.3217c-4.4894 0-8.3627-1.3107-10.1536-3.2037"/><path d="m32.39 20.2407c1.2243-2.3038 5.1916-4.4506 7.1877-3.5613 3.5239 1.57 4.3534 9.6746 1.6753 13.6535s-5.9715 6.3621-9.7591 4.6319"/><path d="m32.5564 16.74a6.7037 6.7037 0 0 1 6.522-.2142"/><path d="m32.1991 24.1162a2.399 2.399 0 0 0 2.85-1.1557c.89-1.7753.8923-3.0157 3.34-2.3981s3.2469 8.3676-1.7807 10.9517-1.8984-1.5941-4.7014-2.0348"/><path d="m36.3965 20.64c.9265-.2293 3.27 7.7032-3.0991 10.3422"/><path d="m5.1839 11.4158c0 3.82 6.1819 6.9159 13.8077 6.9159s13.8078-3.0963 13.8078-6.9159" stroke-linecap="round" stroke-linejoin="round"/><path d="m21.5458 18.2136s.43-1.8736 1.8092-1.7844c2.7856.18 2.77 9.5786.7277 9.5867" stroke-linecap="round"/><path d="m23.9846 23.8931-3.7446 3.5092.16 9.8407 8.2565-2.2381-.6086-8.2849z" stroke-linejoin="round"/></g></svg>