<svg viewBox="0 0 48 48" xmlns="http://www.w3.org/2000/svg"><g fill="none" stroke="#000" stroke-linecap="round" stroke-linejoin="round"><path d="m8.86 28.36v5.9358a5.148 5.148 0 0 0 5.148 5.148"/><path d="m14.0081 8.5561a5.148 5.148 0 0 0 -5.148 5.148v5.9359"/><path d="m8.86 19.64a4.36 4.36 0 0 1 -4.36 4.36"/><path d="m4.5 24a4.36 4.36 0 0 1 4.36 4.36"/><path d="m39.14 19.64v-5.9359a5.148 5.148 0 0 0 -5.148-5.148"/><path d="m33.9919 39.4439a5.148 5.148 0 0 0 5.148-5.148v-5.9359"/><path d="m39.14 28.36a4.36 4.36 0 0 1 4.36-4.36"/><path d="m43.5 24a4.36 4.36 0 0 1 -4.36-4.36"/><path d="m31.7749 20.4228 1.3414-1.3266a1.5625 1.5625 0 0 0 .0014-2.21l-.0014-.0014a1.5625 1.5625 0 0 0 -2.21-.0112l-.0112.0112-1.3365 1.3267a9.532 9.532 0 0 0 -11.1438 0l-1.2873-1.307a1.5722 1.5722 0 0 0 -2.2236-.0022l-.0022.0022a1.5674 1.5674 0 0 0 0 2.2111l1.3364 1.3168a9.5517 9.5517 0 0 0 -1.813 5.5817v4.5649a1.0072 1.0072 0 0 0 1.0072 1.0073h17.1484a1.0072 1.0072 0 0 0 .9827-1.0073v-4.5646a9.5371 9.5371 0 0 0 -1.7885-5.5916zm-11.7924 7.12a1.7689 1.7689 0 1 1 1.764-1.7738v.01a1.7639 1.7639 0 0 1 -1.7639 1.7639zm8.068 0a1.7689 1.7689 0 1 1 1.7541-1.7835v.02a1.7639 1.7639 0 0 1 -1.7639 1.7639h.01z"/></g></svg>