<svg viewBox="0 0 48 48" xmlns="http://www.w3.org/2000/svg"><g fill="none" stroke="#000" stroke-linecap="round" stroke-linejoin="round"><path d="m16.5451 22.1356h2.733"/><path d="m16.5451 13.02h2.733"/><path d="m17.9116 13.02v9.107"/><path d="m13.0077 19.0566h-3.8721"/><path d="m14.0369 22.1356-2.96-9.1073-3.0752 9.1073"/><path d="m9.4807 34.9768h-1.4807v-9.1068h1.4807a4.5554 4.5554 0 1 1 0 9.1107z"/><path d="m28.1605 31.8978h3.0747a3.0747 3.0747 0 1 1 -6.1493 0v-2.96a3.0747 3.0747 0 0 1 6.1493 0"/><path d="m33.9639 34.9768v-9.1068l6.0361 9.1068v-9.1068"/><path d="m16.5451 34.9768v-9.1068l6.0361 9.1072v-9.1072"/><path d="m43.5 37.5v-27a2 2 0 0 0 -2-2h-35a2 2 0 0 0 -2 2v27a2 2 0 0 0 2 2h35a2 2 0 0 0 2-2z"/></g></svg>