<svg viewBox="0 0 48 48" xmlns="http://www.w3.org/2000/svg"><g fill="none" stroke="#000" stroke-linecap="round" stroke-linejoin="round"><circle cx="24" cy="24.2" r="21.5"/><path d="m38.4289 34.052a17.4838 17.4838 0 0 0 -24.3055-24.3054m-4.552 4.6017a17.4626 17.4626 0 0 0 24.2806 24.28"/><path d="m34.229 29.8522a11.686 11.686 0 0 0 -15.8822-15.8822m-4.5755 4.5782a11.6847 11.6847 0 0 0 15.8809 15.8808"/><path d="m29.9436 25.5667a6.0965 6.0965 0 0 0 -7.3128-7.3128m-4.5741 4.58a6.0929 6.0929 0 0 0 7.31 7.31"/><path d="m10.3639 10.5639 27 27"/></g></svg>