<svg viewBox="0 0 48 48" xmlns="http://www.w3.org/2000/svg"><g fill="none" stroke="#000" stroke-linecap="round" stroke-linejoin="round"><path d="m16.794 18.907v10.186h5.063"/><path d="m21.8342 24.7166h-2.294"/><path d="m15.025 29.093-3.291-10.186-3.418 10.186"/><path d="m9.455 25.6551h4.4306"/><path d="m27.7105 20.9908v5.9331"/><path d="m27.7105 24.4764a1.4959 1.4959 0 0 1 1.5-1.4832 1.4958 1.4958 0 0 1 1.5 1.4832v2.4475"/><path d="m26.2227 26.1822a1.4539 1.4539 0 0 1 -1.2747.7417 1.496 1.496 0 0 1 -1.5-1.4833v-.9641a1.496 1.496 0 0 1 1.5-1.4833 1.4538 1.4538 0 0 1 1.2747.7416"/><path d="m35.1971 25.4406a1.4959 1.4959 0 0 1 -1.5 1.4833 1.496 1.496 0 0 1 -1.5-1.4833v-.9642a1.4959 1.4959 0 0 1 1.5-1.4832 1.4958 1.4958 0 0 1 1.5 1.4832"/><path d="m35.1971 26.9239v-3.9307"/><path d="m39.6843 26.9239v-2.4475a1.4958 1.4958 0 0 0 -1.5-1.4832 1.4959 1.4959 0 0 0 -1.5 1.4832v2.4475"/><path d="m36.6849 24.4764v-1.4832"/><path d="m7.48 5.5a2 2 0 0 0 -2 2v33a2 2 0 0 0 2 2h33.04a2 2 0 0 0 2-2v-33a2 2 0 0 0 -2-2z"/></g></svg>