<svg viewBox="0 0 48 48" xmlns="http://www.w3.org/2000/svg"><g fill="none" stroke="#000" stroke-miterlimit="3.8637"><path d="m7.6539 13.81a9.3108 9.3108 0 1 1 17.5061 4.42c-.1249.23-7.26 12.1028-8.1121 13.5208a.0971.0971 0 0 1 -.1678-.0039l-1.79-2.9784a.5949.5949 0 0 1 -.0468-.515l4.96-13.14a3.3076 3.3076 0 1 0 -6.3459-1.3059v12.3788a.0547.0547 0 0 1 -.1014.0293c-2.2177-3.6923-4.7144-7.8517-4.7875-7.9863a9.2586 9.2586 0 0 1 -1.1146-4.4194z"/><path d="m40.3461 34.19a9.31 9.31 0 1 1 -17.5047-4.42c.1219-.2263 7.02-11.703 8.0643-13.44a.1546.1546 0 0 1 .2663.0049l1.7593 2.9277a.5133.5133 0 0 1 .04.4476l-4.9738 13.1752a3.3076 3.3076 0 1 0 6.346 1.3058v-12.3807a.0544.0544 0 0 1 .1-.0293c2.2187 3.6933 4.7153 7.8537 4.7885 7.9892a9.27 9.27 0 0 1 1.1141 4.4196z"/></g></svg>