<svg viewBox="0 0 48 48" xmlns="http://www.w3.org/2000/svg"><g fill="none" stroke="#000" stroke-linecap="round" stroke-linejoin="round"><path d="m24.297 31.4771v-15.3483"/><path d="m24.297 24.7528-5.0036-5.8864a2.6887 2.6887 0 0 0 -4.7373 1.7414v8.29a2.6887 2.6887 0 0 0 4.7373 1.7414l10.0073-11.7728a2.6887 2.6887 0 0 1 4.7373 1.7414v10.8693"/><path d="m42.0405 23.1754-9.0178-16.9628a3.2266 3.2266 0 0 0 -4.4249-1.3009l-16.7633 9.3835a2.6882 2.6882 0 0 0 -1.2663 1.5878l-4.8135 16.373a2.6887 2.6887 0 0 0 1.8212 3.3379l26.5187 7.7961a2.6886 2.6886 0 0 0 3.3379-1.8212l4.8135-16.373a2.6886 2.6886 0 0 0 -.2055-2.0204z"/></g></svg>