<svg viewBox="0 0 48 48" xmlns="http://www.w3.org/2000/svg"><g fill="none" stroke="#000" stroke-linecap="round" stroke-linejoin="round"><path d="m19.73 12.33v9.74h4.87"/><path d="m25.98 25.93v9.74h4.88"/><path d="m37.4 12.33v9.74"/><path d="m27.78 22.09v-9.77h1.66a4.88 4.88 0 0 1 4.89 4.88 4.89 4.89 0 0 1 -4.89 4.89z"/><path d="m9.55 25.92h7.36"/><path d="m13.23 35.67v-9.75"/><path d="m33.58 25.9v9.78"/><path d="m34.84 30.79 3.61-4.85"/><path d="m34.84 30.79 3.61 4.9"/><path d="m34.84 30.79h-1.26"/><path d="m10.3 22.07 3.27-9.77"/><path d="m16.71 22.1-3.14-9.8"/><path d="m15.66 18.82h-4.27"/><path d="m16.57 35.67 3.27-9.77"/><path d="m22.98 35.7-3.14-9.8"/><path d="m21.93 32.42h-4.27"/><path d="m7.5 5.5a2 2 0 0 0 -2 2v33a2 2 0 0 0 2 2h33a2 2 0 0 0 2-2v-33a2 2 0 0 0 -2-2z"/></g></svg>