<svg viewBox="0 0 48 48" xmlns="http://www.w3.org/2000/svg"><g fill="none" stroke="#000" stroke-linecap="round" stroke-linejoin="round"><path d="m25.22 9.252s-15.6844 23.5714-16.5214 25.0361a5.0442 5.0442 0 0 0 0 4.46"/><path d="m28.8993 9.252s-15.6848 23.5714-16.5218 25.0361a5.0442 5.0442 0 0 0 0 4.46"/><path d="m21.5415 9.252s-15.6848 23.5714-16.5215 25.0361a5.0442 5.0442 0 0 0 0 4.46"/><path d="m27.0628 15.6948s11.4016 17.1286 12.2386 18.5933a5.0442 5.0442 0 0 1 0 4.46"/><path d="m25.22 18.4724s9.5657 14.351 10.4027 15.8157a5.0442 5.0442 0 0 1 0 4.46"/><path d="m28.9013 12.924s13.2421 19.8994 14.0787 21.3641a5.0442 5.0442 0 0 1 0 4.46"/><path d="m15.7001 29.1685h11.7341"/><path d="m13.6861 32.2406h15.76"/><path d="m12.2551 35.3114h18.901"/></g></svg>