<svg viewBox="0 0 48 48" xmlns="http://www.w3.org/2000/svg"><g fill="none" stroke="#000" stroke-linecap="round" stroke-linejoin="round"><path d="m35.9529 41.6345c-2.5066-5.562-6.8368-8.793-11.1347-12.0725q-5.2371-3.996-10.3708-8.1279a18.8233 18.8233 0 0 1 -2.5229-2.6112c-3.27-3.8922-3.2376-7.7526.1291-11.97 3.2648 6.6127 9.3761 10.2 14.839 14.5148a127.2353 127.2353 0 0 1 9.7867 8.7735 5.3525 5.3525 0 0 1 1.124 6.6623c-.7104 1.4433-1.1657 3.0137-1.8504 4.831z"/><path d="m12.8964 24.7385c2.1985 4.1861 5.7015 6.1955 8.924 8.54a4.0454 4.0454 0 0 1 1.5666 4.9061c-.5671 1.7276-1.1162 3.4612-1.7132 5.3158-3.2734-2.7549-6.2712-5.2333-9.217-7.7727a5.0976 5.0976 0 0 1 -1.3992-6.2462c.5369-1.3575 1.0561-2.7215 1.8388-4.743z"/><path d="m35.4892 22.3227c-2.9614-2.4183-5.6267-4.7366-8.4447-6.8493-2.1195-1.5891-3.2124-3.4026-2.3483-6.0676.5278-1.6277 1.0723-3.25 1.62-4.9058 3.1382 2.61 6.1752 5.0314 9.0887 7.5947 1.9841 1.7458 2.7763 3.9053 1.5529 6.5261-.6078 1.3014-1.0654 2.6735-1.4686 3.7019z"/></g></svg>