<svg viewBox="0 0 48 48" xmlns="http://www.w3.org/2000/svg"><g fill="none" stroke="#000" stroke-linecap="round" stroke-linejoin="round"><rect height="26.8029" rx="1.7263" width="23.7656" x="12.1172" y="10.5985"/><path d="m32.3979 10.5985-.7579-5.3563a.8631.8631 0 0 0 -.8548-.7422h-13.57a.8632.8632 0 0 0 -.8546.7422l-.7581 5.3563"/><path d="m15.6021 37.4015.7581 5.3563a.8632.8632 0 0 0 .8546.7422h13.57a.8631.8631 0 0 0 .8546-.7422l.7581-5.3563"/><path d="m30.6716 15.602h-13.3432a1.7262 1.7262 0 0 0 -1.7263 1.7263v14.7844l3.388-3.388h11.6815a1.7262 1.7262 0 0 0 1.7263-1.7263v-9.67a1.7262 1.7262 0 0 0 -1.7263-1.7264z"/></g><circle cx="20.5155" cy="22.1906" r=".75"/><circle cx="24" cy="22.1906" r=".75"/><circle cx="27.4845" cy="22.1906" r=".75"/></svg>