<svg viewBox="0 0 48 48" xmlns="http://www.w3.org/2000/svg"><g fill="none" stroke="#000" stroke-linecap="round" stroke-linejoin="round"><path d="m22.5375 19.6125 2.925-2.925-2.925-2.925 2.925-2.925-2.925-2.925 2.925-2.925"/><path d="m24 20.1v-15.6"/><path d="m24.975 22.05a18.9986 18.9986 0 0 1 1.95 4.1824c.5 1.8751.2525 3.29 1.9636 4.22s4.7837 1.3062 5.8364-.1145.975-6.3379.975-6.3379l.975 6.3375s-2.9655 6.6536-2.925 7.23c.0244.3483 5.85 5.9322 5.85 5.9322l-11.02-3.8413s-.924-4.4678-1.231-5.2547a1.383 1.383 0 0 0 -.6569-.6664c-.057.4608-.0968.9214-.1631 1.3912l-5.0588-.0844c-.0568-.4657-.1309-.9252-.1631-1.3967a1.32 1.32 0 0 0 -.6569.6475c-.3238.7733-1.231 5.2321-1.231 5.2321l-11.0192 3.973s5.8153-5.7519 5.85-6.0862c.0643-.6191-2.925-7.0763-2.925-7.0763l.975-6.3375s-.1808 5.5292.975 6.3375 4.0822.8944 5.8364.0409 1.483-2.4537 1.9636-4.2115a23.6233 23.6233 0 0 1 1.95-4.1169zm-.3259 16.8935c-.6311.7332-.6491 2.9278-.6491 2.9278a7.1053 7.1053 0 0 0 -.6491-2.9679c-.3406-.44-.95-.7827-.867-1.49a1.5185 1.5185 0 0 1 3.0322 0c.0439.7304-.4794 1.0799-.867 1.5301z"/><path d="m12.3 14.25v-2.4375"/><path d="m35.7 14.25v-2.4375"/><path d="m12.3 20.1v-2.4375"/><path d="m35.7 20.1v-2.4375"/><circle cx="24" cy="28.875" r="1.4625"/></g></svg>