<svg viewBox="0 0 48 48" xmlns="http://www.w3.org/2000/svg"><g fill="none" stroke="#000" stroke-linecap="round" stroke-linejoin="round"><path d="m11.1123 25.6558a13.032 13.032 0 0 1 6.4438-11.2279 12.6927 12.6927 0 0 1 12.8878 0 13.032 13.032 0 0 1 6.4438 11.2279"/><path d="m8.1832 25.6558a17.8447 17.8447 0 0 1 8.1037-15.1333 15.1842 15.1842 0 0 1 16.2073 0 17.8448 17.8448 0 0 1 8.1036 15.1333"/><path d="m21.95 22.2386a2.2094 2.2094 0 0 1 -2.2456 2.2456 2.2094 2.2094 0 0 1 -2.2456-2.2456 2.2094 2.2094 0 0 1 2.2456-2.2456 2.2711 2.2711 0 0 1 2.2456 2.2456z"/><path d="m31.5178 22.2386a2.2094 2.2094 0 0 1 -2.2455 2.2456 2.2094 2.2094 0 0 1 -2.2456-2.2456 2.2094 2.2094 0 0 1 2.2456-2.2456 2.2094 2.2094 0 0 1 2.2455 2.2456z"/><path d="m24 31.0525c2.0426-2.0426 8.4335 3.3416 14.1686 3.3416 3.6031 0 4.9677-4.3938 4.9677-4.3938s3.3264 9.82-10.1409 9.82a9.9439 9.9439 0 0 1 -8.9954-5.0357 9.9439 9.9439 0 0 1 -8.9954 5.0361c-13.4673 0-10.1409-9.8207-10.1409-9.8207s1.3646 4.3938 4.9677 4.3938c5.7351.0003 12.126-5.3838 14.1686-3.3413z"/></g></svg>