<svg viewBox="0 0 48 48" xmlns="http://www.w3.org/2000/svg"><g fill="none" stroke="#000" stroke-linecap="round" stroke-linejoin="round"><rect height="16.52" rx="1.33" width="10.93" x="32.57" y="24.48"/><path d="m35.54 27.74v10"/><path d="m35.54 32.74h3.24"/><path d="m35.54 27.74h4.99"/><path d="m35.54 37.74h4.99"/><rect height="16.52" rx="1.33" width="10.93" x="18.53" y="24.48"/><path d="m20.75 27.75v6.62a3.25 3.25 0 1 0 6.5 0v-6.62"/><rect height="16.52" rx="1.33" width="10.93" x="4.5" y="24.48"/><path d="m6.66 32.74h6.62"/><path d="m13.28 27.74v10"/><path d="m6.45 27.43v10.62"/><path d="m23.79 7v12.23"/><path d="m15.71 19.23v-8.1"/><path d="m15.71 16.17a3.05 3.05 0 0 1 -3 3.06 3.05 3.05 0 0 1 -3-3.06v-2a3 3 0 0 1 3-3 3 3 0 0 1 3 3"/><path d="m37.99 19.23v-12.23l-6.51 8.25h8.02"/><path d="m19.62 7v12.23"/></g></svg>