<svg viewBox="0 0 48 48" xmlns="http://www.w3.org/2000/svg"><g fill="none" stroke="#000" stroke-linecap="round" stroke-linejoin="round"><path d="m41.365 19.8373h-7.86l-7.77-13a2 2 0 0 0 -3.5 0l-7.77 13h-7.86a3.12 3.12 0 0 0 -3 3.93l4.38 16.31a2.84 2.84 0 0 0 2.74 2.1h26.5a2.84 2.84 0 0 0 2.76-2.1l4.41-16.31a3.12 3.12 0 0 0 -3.03-3.93zm-17.38-8 4.77 8h-9.54z"/><path d="m36.9076 32.5748a1.8863 1.8863 0 0 1 -1.8921-1.8692v-1.2149a1.8863 1.8863 0 0 1 1.8921-1.8692 1.8862 1.8862 0 0 1 1.8924 1.8692v1.2149a1.8862 1.8862 0 0 1 -1.8924 1.8692z"/><path d="m31.6675 27.6215v4.9533m0-3.0842a1.8862 1.8862 0 0 1 1.8925-1.8691"/><path d="m12.9845 30.7056a1.8864 1.8864 0 0 1 -1.8921 1.8692 1.8863 1.8863 0 0 1 -1.8924-1.8692v-1.2149a1.8862 1.8862 0 0 1 1.8921-1.8692 1.8863 1.8863 0 0 1 1.8921 1.8692"/><path d="m12.9845 32.5748v-4.9533"/><path d="m15.2641 25.0981v7.4767"/><path d="m17.5266 25.0981v7.4767"/><path d="m23.2948 31.64a1.8347 1.8347 0 0 1 -1.6082.9346 1.8862 1.8862 0 0 1 -1.8921-1.8692v-1.2147a1.8862 1.8862 0 0 1 1.8921-1.8692 1.8863 1.8863 0 0 1 1.8921 1.8692v.6542h-3.7842"/><path d="m27.6156 27.6215a1.8863 1.8863 0 0 1 1.8921 1.8692v1.2149a1.8864 1.8864 0 0 1 -1.8921 1.8692 1.8863 1.8863 0 0 1 -1.8921-1.8692v-1.2149a1.8862 1.8862 0 0 1 1.8921-1.8692zm1.8921 0v5.6075a1.8863 1.8863 0 0 1 -1.8921 1.8691 1.5962 1.5962 0 0 1 -1.3245-.5607"/></g></svg>