<svg viewBox="0 0 48 48" xmlns="http://www.w3.org/2000/svg"><g fill="none" stroke="#000" stroke-linecap="round" stroke-linejoin="round"><path d="m40.8346 21.6278v8.4689a5.3213 5.3213 0 0 1 -5.3689 5.3689h-6.0968l-5.3689 5.3688-5.3689-5.3688h-5.7328a5.5238 5.5238 0 0 1 -5.7329-5.3689v-8.6895m.9671-11.9789a5.3315 5.3315 0 0 1 4.4018-2.2627h22.9314a5.3877 5.3877 0 0 1 4.4191 2.3229"/><path d="m24 25.1449a2.639 2.639 0 1 1 -2.6389 2.6389 2.6408 2.6408 0 0 1 2.6389-2.6389zm-7.6438 0a2.639 2.639 0 1 0 2.6389 2.6389 2.6408 2.6408 0 0 0 -2.6389-2.6389z"/><path d="m31.6438 25.1449a2.639 2.639 0 1 1 -2.6389 2.6389 2.6408 2.6408 0 0 1 2.6389-2.6389z"/><path d="m20.1517 20.0035.318-10.3m-7.7159 10.3 1.2477-10.3483m9.9985-.0926h-16.402l-2.9693 6.4519a4.8376 4.8376 0 0 0 1.3913 4.6578c2.1456 1.8765 5.6069 1.4292 6.7346-.6692 0 0 3.5494 3.8485 7.3978 0"/><path d="m27.8483 20.0035-.318-10.3m7.7159 10.3-1.2477-10.3483m-9.9985-.0926h16.402l2.9693 6.4519a4.8376 4.8376 0 0 1 -1.3908 4.6578c-2.1455 1.8765-5.6069 1.4292-6.7346-.6692 0 0-3.5494 3.8485-7.3978 0 0 0-3.8167 3.88-7.697 0"/></g></svg>