<svg viewBox="0 0 48 48" xmlns="http://www.w3.org/2000/svg"><g fill="none" stroke="#000" stroke-linecap="round" stroke-linejoin="round"><path d="m22.58 20.2706a23.4873 23.4873 0 0 1 8.1033 9.713l3.495-.9356a23.494 23.494 0 0 0 -11.5983-8.7774z"/><path d="m22.4 11.15-1.052 3.924a23.4776 23.4776 0 0 1 14.4091 5.595 23.49 23.49 0 0 0 -13.3571-9.519z"/><path d="m19.4769 5.9821a1.72 1.72 0 0 0 -1.7669 1.2746l-.3268 1.22a1.7158 1.7158 0 0 0 .3105 1.5055l-.0062.004a1.7121 1.7121 0 0 1 .2982 1.481v.0062l-.0653.241-.0184.0674-1.1746 4.3836-.0347.1287-.2717 1.0131c-.9426 2.1227-2.076 2.97-4.0771 2.7515a4.7054 4.7054 0 0 0 -4.5307 5.9789 4.275 4.275 0 0 1 -.9948 3.7824l-2.3184 2.3186v3.6074a6.3478 6.3478 0 0 0 .1226 1.2358 6.2065 6.2065 0 0 0 .2042.76c.02.0607.0434.12.0654.18a6.24 6.24 0 0 0 .2553.5945c.0183.0371.0341.0755.0531.1123a6.2561 6.2561 0 0 0 .4065.6823l.0123.0163a6.2582 6.2582 0 0 0 .4555.574c.0378.0427.0755.085.1144.1266a6.2625 6.2625 0 0 0 .5107.4922l.0408.0348a6.26 6.26 0 0 0 .6373.4677c.0276.0178.0559.0336.0838.0511a6.2313 6.2313 0 0 0 .5981.3264c.0452.0218.089.0448.1348.0654a6.2283 6.2283 0 0 0 .7435.2819 6.3061 6.3061 0 0 0 1.8364.2737h5.932l.8946-.8947c4.4859-4.4858 15.6682-6.67 23.7728-9.956a2.86 2.86 0 0 0 2.0263-3.5114 1.0876 1.0876 0 0 0 -.3493-.6332l.08-.3759-2.7638.7415h-.0062l-24.0381 6.4407.3513-1.3094 1.0643-3.9709 3.544-13.2223 1.6832-6.2833.5413-2.02-2.02-.5413-.02-.0041-1.6444-.4412-.0756-.02-.0021.0081a1.7307 1.7307 0 0 0 -.2676-.0449z"/><circle cx="12.3418" cy="24.7645" r="2.5575"/></g><circle cx="12.838" cy="24.3427" r=".75"/><path d="m19.38 9.5629a1.0054 1.0054 0 0 1 -.1532-.527 1.0756 1.0756 0 0 1 1.1032-1.0459 1.1589 1.1589 0 0 1 .2819.0367" fill="none" stroke="#000" stroke-linecap="round" stroke-linejoin="round"/></svg>