<svg viewBox="0 0 48 48" xmlns="http://www.w3.org/2000/svg"><g fill="none" stroke="#000" stroke-linecap="round" stroke-linejoin="round"><path d="m35.62 16.2838c-.516-11.2545-11.831-10.0487-13.9613-6.9159-2.9211 4.2956-1.5064 11.4417 2.1048 13.0157 1.2085.5268 2.8566-.8806 6.5294.6659.8591 1.6681 4.8358 3.3912 5.928.8376-1.7469.2864-4.8346-1.4892-5.0806-2.8924"/><path d="m22.8286 8.317c-2.3586-2.2138-7.6277-2.3284-11.4938-.7533a4.8693 4.8693 0 0 1 2.2052 1.0882s-5.527 2.929-5.9852 6.4761a11.15 11.15 0 0 1 3.9806.7119"/><path d="m18.7806 37.1177c2.7206 3.4651 8.7631 4.3815 8.7631 4.3815a8.0933 8.0933 0 0 0 2.9783-2.8065c5.4984 2.4342 8.3335 1.976 11.7987 1.1742.0572-4.9257-1.06-6.93-1.06-6.93a5.17 5.17 0 0 0 2.1478 0c.9164-5.0689-5.298-12.1424-8.8776-13.2019-.2864 1.4891-.9183 2.459-2.3779 2.6757"/><path d="m23.2767 27.6386c1.6323 1.0023 8.3049 1.1169 9.2786.8019-1.0024-1.661-1.8328-4.21-4.6393-4.21s-4.6393 3.4081-4.6393 3.4081z"/><path d="m25.11 16.9282c1.2314-.9451 5.3266-.9164 4.9257 3.2647-2.0911.5154-5.0121-.0287-4.9257-3.2647z"/><path d="m30.98 19.9638c.1145-2.1192 1.4891-4.353 4.897-3.3506a3.4419 3.4419 0 0 1 -4.897 3.3506z"/><path d="m12.394 18.732 10.625 11.083-1.947 2.377-10.997-11.025-5.241 4.925"/><path d="m10.6129 21.7061 2.5089-2.215"/><path d="m15.2452 21.7061c1.104.1386 3.0486-.425 3.6213-3.3768s-1.6037-4.2076-3.8947-4.2649-5.6989 2.3017-3.1044 6.5342"/><path d="m8.8792 32.5858c2.3411.0859 4.9614-2.3626 6.5078-1.8042s3.995 3.0714 3.995 3.0714"/><path d="m15.3656 32.9724c.8806.7732 3.0928 2.04 4.4459.7087.494.9451 1.0954 3.9091-2.9854 3.4151-.1074.8591-1.3317 1.0954-2.62 1.1168"/><path d="m21.0716 32.192-1.2601 1.4891"/><path d="m4.5 18.9042a27.7926 27.7926 0 0 1 6.7572.4658"/><path d="m14.3776 16.1956a3.5392 3.5392 0 0 1 3.0284 2.4294"/><path d="m14.5064 18.4961a5.388 5.388 0 0 1 1.3854-1.544"/></g></svg>