<svg viewBox="0 0 48 48" xmlns="http://www.w3.org/2000/svg"><g fill="none" stroke="#000" stroke-linecap="round" stroke-linejoin="round"><path d="m39.5 36.2v-20.7h-9a2.0059 2.0059 0 0 1 -2-2v-9h-18a2.0059 2.0059 0 0 0 -2 2v5.0044"/><path d="m8.5 24.8951v16.6049a2.0059 2.0059 0 0 0 2 2h27a2.034 2.034 0 0 0 2-1.7"/><path d="m28.5 4.5 11 11"/><path d="m15.9669 20.2076h10.9925"/><path d="m15.9669 16.4151h11.0466"/><path d="m15.9669 12.6227h9.1758"/><circle cx="18.6" cy="18.2" r="8.6"/><path d="m28.5 11.2094a12.069 12.069 0 1 0 1.9156 4.2873"/><path d="m25.7036 28.0035 14.2964 14.2965a1.9332 1.9332 0 0 0 2.7332.0668q.0342-.0325.0668-.0668a1.9334 1.9334 0 0 0 .0667-2.7333q-.0326-.0342-.0667-.0667l-14.3109-14.3109"/><path d="m15.9669 24h8.9738"/><path d="m13.1489 11.5484v13.3467"/></g></svg>