<svg viewBox="0 0 48 48" xmlns="http://www.w3.org/2000/svg"><path d="m33.37 32.57.12-4.07a9.46 9.46 0 0 0 1-.81c7.59-7.69 9.28-19.28 7.18-21.35s-13.67-.34-21.37 7.25a10.8 10.8 0 0 0 -.81 1l-4.07.12a4 4 0 0 0 -3.42 2.04l-6.37 11.66a1 1 0 0 0 1.29 1.36l8.58-4.13a13.63 13.63 0 0 0 0 3.72l-4.36 5.64a.71.71 0 0 0 0 .91l.47.44.44.47a.72.72 0 0 0 .92 0l5.63-4.39a13.63 13.63 0 0 0 3.72 0l-4.02 8.67a1 1 0 0 0 1.3 1.28l11.69-6.38a4 4 0 0 0 2.08-3.38zm4.63-22.51a2.06 2.06 0 1 1 -2.92 0 2.06 2.06 0 0 1 2.92 0zm-9.1 9.1a3.44 3.44 0 1 1 4.87 0 3.44 3.44 0 0 1 -4.87 0zm0 0" fill="none" stroke="#000" stroke-linecap="round" stroke-linejoin="round" stroke-width="1.05"/></svg>