<svg viewBox="0 0 48 48" xmlns="http://www.w3.org/2000/svg"><g fill="none" stroke="#000" stroke-linecap="round" stroke-linejoin="round"><path d="m27.4635 20.55-4.3874 4.1178v1.2716l-2.3382 2.4682h1.3021l-1.0829 13.9038a66.0977 66.0977 0 0 0 -6.755 1.1886"/><path d="m27.4635 29.4244-1.5267 1.5268 1.5267 1.5267"/><path d="m23.0766 25.9393-6.722-6.7219 2.9447-2.9447 6.0807 6.0805"/><path d="m21.853 30.0754-5.6442 5.6446 3.0692 3.0691 2.062-2.0622"/><path d="m18.5641 33.73 2.6952 2.6952"/><path d="m18.6907 21.49 2.7577-2.7577"/><path d="m20.85 23.6263 2.8408-2.8409"/><path d="m27.4635 20.55 4.3875 4.1178v1.2716l2.3382 2.4682h-1.3018l1.0826 13.9038s3.6029.43 6.5449 1.1372"/><path d="m27.4635 29.4244 1.5265 1.5268-1.5267 1.5267"/><path d="m31.8505 25.9393 6.7219-6.7219-2.9446-2.9447-6.0805 6.0805"/><path d="m33.0741 30.0754 5.6442 5.6446-3.0692 3.0691-2.0618-2.0618"/><path d="m36.363 33.73-2.6952 2.6952"/><path d="m36.2364 21.49-2.7577-2.7577"/><path d="m34.0767 23.6263-2.8408-2.8409"/><path d="m34.304 11.0562a3.6522 3.6522 0 0 0 -1.2923-1.824l-4.8017-3.9396a3.1391 3.1391 0 0 0 -1.9665-.7867"/><path d="m7.4851 20.7245s4.2836.6388 7.4845-4.22 10.5818-3.2673 13.24-2.3226"/><path d="m24.6475 13.2438a4.26 4.26 0 0 0 -.4388 1.7633c.1013.6156-.9373 1.2528-.9373 1.2528s1.5833.12 2.0955.2417c.9873.2351 2.4026.0551 1.9659-2.8669"/><path d="m27.3327 13.6352s.21-2.0887 1.39-1.23 1.195-1.6 2.2151-2.7917c.534-.3313 1.2669-.1415 1.91-.1863"/><path d="m29.1074 6.13c.3723 1.3468.0556 2.4352-.4728 1.8363a1.2831 1.2831 0 0 0 -1.5479-.56 4.1063 4.1063 0 0 0 -2.3811 3.2207 12.6456 12.6456 0 0 1 -.0581 2.6169"/></g></svg>