<svg viewBox="0 0 48 48" xmlns="http://www.w3.org/2000/svg"><g fill="none" stroke="#000" stroke-linecap="round" stroke-linejoin="round"><circle cx="24" cy="24" r="21.5"/><path d="m22.6935 20.9738h2.6998"/><path d="m33.437 23.461v2.368h-.805v.803h-3.312v1.446h-10.554v-1.446h-3.205v-.803h-.837v-2.368"/><path d="m18.771 33.61v-1.416h-3.245v-1.284h-1.504v-1.823h-1.522l.016-10.174h1.522v-1.82h1.504v-1.287h3.245v-1.416h10.426v1.416h3.245v1.287h1.504v1.82h1.522l.016 10.174h-1.522v1.823h-1.504v1.284h-3.245v1.416z"/><path d="m19.149 22.679h1.831v.953h1.21v.888h3.523v-.888h1.228v-.953h1.9v-3.455h-1.831v-1.326h-1.468v-.889h-2.986v.889h-1.507v1.326h-1.9z"/></g></svg>