<svg viewBox="0 0 48 48" xmlns="http://www.w3.org/2000/svg"><g fill="none" stroke="#000" stroke-linecap="round" stroke-linejoin="round"><path d="m17.1492 13.882v8.956a1.2088 1.2088 0 0 0 1.2794 1.2795h.3838"/><path d="m24.8181 22.8386a2.4763 2.4763 0 0 1 -2.175 1.2794 2.5665 2.5665 0 0 1 -2.559-2.5589v-1.6632a2.5666 2.5666 0 0 1 2.559-2.559 2.5665 2.5665 0 0 1 2.5589 2.559v.8956h-5.1178"/><path d="m31.6241 17.3308-5.1176 6.7809"/><path d="m31.6241 24.1117-5.1176-6.7809"/><path d="m15.1176 21.5529a2.5663 2.5663 0 0 1 -2.5588 2.5588 2.5664 2.5664 0 0 1 -2.5588-2.5588v-1.6629a2.5664 2.5664 0 0 1 2.5588-2.5588 2.5663 2.5663 0 0 1 2.5588 2.5588"/><path d="m15.1176 24.1117v-6.7809"/><path d="m38 21.5529a2.5664 2.5664 0 0 1 -2.5588 2.5588 2.5663 2.5663 0 0 1 -2.5588-2.5588v-1.6629a2.5663 2.5663 0 0 1 2.5588-2.5588 2.5664 2.5664 0 0 1 2.5588 2.5588"/><path d="m38 24.1117v-6.7809"/><circle cx="24" cy="24" r="21.5"/><circle cx="24" cy="24" r="21.5"/><path d="m32.2807 29.7009c1.112-.451 3.0916-1.0492 3.6872-.3272.6446.7814-.17 2.4769-.92 3.7942"/><path d="m11.7984 30.2234c1.7586 1.3965 6.9532 3.5343 12.4876 3.5343a17.0031 17.0031 0 0 0 10.1671-3.0789"/></g></svg>