<svg viewBox="0 0 48 48" xmlns="http://www.w3.org/2000/svg"><g fill="none" stroke="#000" stroke-linecap="round" stroke-linejoin="round"><circle cx="24" cy="24" r="21.5"/><path d="m32.2807 29.7009c1.112-.451 3.0916-1.0492 3.6872-.3272.6446.7814-.17 2.4769-.92 3.7942"/><path d="m11.7984 30.2234c1.7586 1.3965 6.9532 3.5343 12.4876 3.5343a17.0029 17.0029 0 0 0 10.1671-3.0789"/><path d="m20.4043 20.125v3.3a2 2 0 0 0 2 2 2 2 0 0 0 2-2v-3.3"/><path d="m24.4043 23.425v2"/><path d="m10.4 22.225a2 2 0 0 1 2-2 2 2 0 0 1 2 2v3.2"/><path d="m10.4001 20.225v5.2"/><path d="m14.4 22.225a2 2 0 0 1 2-2 2 2 0 0 1 2 2v3.2"/></g><circle cx="31.88" cy="17.675" r=".7"/><path d="m31.88 20.125v5.3" fill="none" stroke="#000" stroke-linecap="round" stroke-linejoin="round"/><path d="m26.5407 24.9733a2.249 2.249 0 0 0 1.6448.4472h.4487a1.3236 1.3236 0 0 0 1.3222-1.325 1.3236 1.3236 0 0 0 -1.3222-1.325h-.8974a1.3235 1.3235 0 0 1 -1.3221-1.325 1.3235 1.3235 0 0 1 1.3221-1.325h.4487a2.2494 2.2494 0 0 1 1.6449.4472" fill="none" stroke="#000" stroke-linecap="round" stroke-linejoin="round"/><path d="m37.6 24.4176a1.9991 1.9991 0 0 1 -1.7366 1.0074 2 2 0 0 1 -2-2v-1.3a2 2 0 0 1 2-2 1.9989 1.9989 0 0 1 1.7346 1.0039" fill="none" stroke="#000" stroke-linecap="round" stroke-linejoin="round"/></svg>