<svg viewBox="0 0 48 48" xmlns="http://www.w3.org/2000/svg"><path d="m15.993 20.125-2 5.3-2-5.3" fill="none" stroke="#000" stroke-linecap="round" stroke-linejoin="round"/><rect fill="none" height="5.3" rx="2" stroke="#000" stroke-linecap="round" stroke-linejoin="round" width="4" x="32.007" y="20.2146"/><circle cx="18.007" cy="17.675" r=".7"/><g fill="none" stroke="#000" stroke-linecap="round" stroke-linejoin="round"><path d="m18.007 20.125v5.3"/><path d="m29.7448 24.4157a1.9994 1.9994 0 0 1 -1.7378 1.0093 2 2 0 0 1 -2-2v-1.3a2 2 0 0 1 2-2 2 2 0 0 1 2 2v.65h-4"/><path d="m24.007 22.125a2 2 0 0 0 -2-2 2 2 0 0 0 -2 2v1.3a2 2 0 0 0 2 2 2 2 0 0 0 2-2"/><path d="m24.007 25.425v-8"/><circle cx="24" cy="24" r="21.5"/><path d="m32.2807 29.4061c1.112-.451 3.0916-1.0493 3.6872-.3273.6446.7814-.17 2.4769-.92 3.7943"/><path d="m11.7984 29.9285c1.7586 1.3965 6.9532 3.5343 12.4876 3.5343a17.0029 17.0029 0 0 0 10.1671-3.0789"/></g></svg>