<svg viewBox="0 0 48 48" xmlns="http://www.w3.org/2000/svg"><g fill="none" stroke="#000" stroke-linecap="round" stroke-linejoin="round"><circle cx="24" cy="24" r="21.5"/><path d="m32.2807 29.7009c1.112-.451 3.0916-1.0492 3.6872-.3272.6446.7814-.17 2.4769-.92 3.7942"/><path d="m11.7984 30.2234c1.7586 1.3965 6.9532 3.5343 12.4876 3.5343a17.0031 17.0031 0 0 0 10.1671-3.0789"/><path d="m17.204 21.9223a2.9773 2.9773 0 0 0 2.1769.5918h.5938a1.7516 1.7516 0 0 0 1.75-1.7535 1.7516 1.7516 0 0 0 -1.75-1.7536h-1.1876a1.7516 1.7516 0 0 1 -1.75-1.7535 1.7517 1.7517 0 0 1 1.75-1.7535h.5938a2.9768 2.9768 0 0 1 2.1768.5918"/><path d="m25.669 19.8673a2.6468 2.6468 0 0 0 2.6468 2.6468 2.6469 2.6469 0 0 0 2.6469-2.6468v-1.7205a2.6469 2.6469 0 0 0 -2.6469-2.6468 2.6468 2.6468 0 0 0 -2.6468 2.6468"/><path d="m25.669 15.5v10.5873"/></g></svg>