<svg viewBox="0 0 48 48" xmlns="http://www.w3.org/2000/svg"><g fill="none" stroke="#000" stroke-linecap="round" stroke-linejoin="round"><circle cx="24" cy="24" r="21.5"/><path d="m32.2807 29.7009c1.112-.451 3.0916-1.0492 3.6872-.3272.6446.7814-.17 2.4769-.92 3.7942"/><path d="m11.7984 30.2234c1.7586 1.3965 6.9532 3.5343 12.4876 3.5343a17.0031 17.0031 0 0 0 10.1671-3.0789"/><rect height="5.3" rx="2" width="4" x="20.5053" y="20.175"/><rect height="5.3" rx="2" width="4" x="30.0503" y="20.175"/><path d="m14.4691 17.475v8"/><path d="m14.4691 22.175a2 2 0 0 1 2-2 2 2 0 0 1 2 2v3.3"/><path d="m36.1363 25.0278a2.2494 2.2494 0 0 0 1.6449.4472h.4488a1.3236 1.3236 0 0 0 1.3222-1.325 1.3236 1.3236 0 0 0 -1.3222-1.325h-.8974a1.3235 1.3235 0 0 1 -1.3226-1.325 1.3235 1.3235 0 0 1 1.3221-1.325h.4487a2.2494 2.2494 0 0 1 1.6449.4472"/><path d="m27.1408 18.525v5.95a1 1 0 0 0 1 1h.3"/><path d="m26.0908 20.175h2.1"/><path d="m8.4479 23.475a2 2 0 0 0 2 2 2 2 0 0 0 2-2v-1.3a2 2 0 0 0 -2-2 2 2 0 0 0 -2 2"/><path d="m8.4479 20.175v8"/></g></svg>