<svg viewBox="0 0 48 48" xmlns="http://www.w3.org/2000/svg"><g fill="none" stroke="#000" stroke-linecap="round" stroke-linejoin="round"><path d="m40.5 5.5h-33a2 2 0 0 0 -2 2v33a2 2 0 0 0 2 2h33a2 2 0 0 0 2-2v-33a2 2 0 0 0 -2-2z"/><path d="m34.4377 27.8058c1.4-.7 3.8859-1.6377 4.63-.5062s-.2084 3.8413-1.1613 5.9555"/><path d="m8.6654 28.61c2.2184 2.1738 8.7545 5.494 15.7075 5.494a18.8048 18.8048 0 0 0 12.7893-4.7793"/><path d="m15.1381 18.9584a3.0691 3.0691 0 1 1 -6.1381 0v-1.9949a3.0691 3.0691 0 1 1 6.1381 0"/><path d="m15.1381 22.0275v-8.1331"/><path d="m17.21 18.9584a3.0691 3.0691 0 0 0 6.1382 0v-1.9949a3.0691 3.0691 0 1 0 -6.1382 0"/><path d="m17.2097 13.8944v12.2763"/><path d="m25.4194 18.9584a3.0691 3.0691 0 1 0 6.1382 0v-1.9949a3.0691 3.0691 0 0 0 -6.1382 0"/><path d="m25.4194 13.8944v12.2763"/><path d="m33.936 21.26a3.6278 3.6278 0 0 0 2.4553.6138h.6138a1.9949 1.9949 0 1 0 0-3.99h-1.3811a1.9949 1.9949 0 0 1 0-3.99h.6138c1.3811 0 1.9949.1535 2.4553.6138"/></g></svg>