<svg viewBox="0 0 48 48" xmlns="http://www.w3.org/2000/svg"><g fill="none" stroke="#000" stroke-linecap="round" stroke-linejoin="round"><path d="m41.38 19.84h-7.86l-7.77-13a2 2 0 0 0 -3.5 0l-7.77 13h-7.86a3.12 3.12 0 0 0 -3 3.93l4.38 16.31a2.84 2.84 0 0 0 2.74 2.1h26.5a2.84 2.84 0 0 0 2.76-2.1l4.41-16.31a3.12 3.12 0 0 0 -3.03-3.93zm-17.38-8 4.77 8h-9.54z"/><path d="m14.48 19.84h19.04"/><path d="m31 29.17c.94-.47 2.61-1.1 3.11-.34s-.14 2.58-.78 4"/><path d="m13.69 29.71c1.49 1.46 5.88 3.69 10.55 3.69a12.63 12.63 0 0 0 8.59-3.21"/></g></svg>