<svg viewBox="0 0 48 48" xmlns="http://www.w3.org/2000/svg"><g fill="none" stroke="#000" stroke-linecap="round" stroke-linejoin="round"><circle cx="24" cy="24.49" r="2.23"/><path d="m24 22.25v-9.09"/><path d="m22.5 26.05-6.55 6.56"/><circle cx="24" cy="24.56" r="14.35"/><path d="m13.78 7.26a5 5 0 1 0 -7.12 7z"/><path d="m6.72 7.19-.62-.62"/><path d="m10.22 10.75 1.1 1.12"/><path d="m34.22 7.26a5 5 0 1 1 7.12 7z"/><path d="m41.28 7.19.62-.62"/><path d="m37.78 10.75-1.1 1.12"/><path d="m36.34 37.55a17.9 17.9 0 0 0 -7.81-30.33v-1.08a1.65 1.65 0 0 0 -1.64-1.64h-5.78a1.65 1.65 0 0 0 -1.64 1.64v1.08a17.9 17.9 0 0 0 -7.81 30.33l-1.89 3.26a1.79 1.79 0 1 0 3.11 1.79l1.64-2.84a17.82 17.82 0 0 0 19 0l1.64 2.84a1.79 1.79 0 0 0 3.11-1.79z"/></g></svg>