<svg viewBox="0 0 48 48" xmlns="http://www.w3.org/2000/svg"><g fill="none" stroke="#000" stroke-linecap="round" stroke-linejoin="round"><path d="m40.5 42.5h-33a2.0059 2.0059 0 0 1 -2-2v-33a2.0059 2.0059 0 0 1 2-2h33a2.0059 2.0059 0 0 1 2 2v33a2.0059 2.0059 0 0 1 -2 2z"/><path d="m19.1434 36.0962h6.9764"/><path d="m19.1434 25.3633h6.9764"/><path d="m19.1434 30.7297h4.5486"/><path d="m19.1434 25.3633v10.7329"/><path d="m28.803 22.625v-10.721l5.366 10.733 5.367-10.717v10.717"/><path d="m28.803 25.3633 10.7329 10.7329"/><path d="m39.5359 25.3633-10.7329 10.7329"/><path d="m16.757 22.6049 4.7805-10.7011"/><path d="m26.1198 22.6368-4.5823-10.733"/><path d="m24.5869 19.0464h-6.2402"/></g></svg>