<svg viewBox="0 0 48 48" xmlns="http://www.w3.org/2000/svg"><g fill="none" stroke="#000" stroke-linecap="round" stroke-linejoin="round"><path d="m24.53 21.13a5.48 5.48 0 0 1 -4.47 4.48c-3.95.85-9.1.68-12.7-1.29-5-2.71-3.13-10 2.9-10.69 4.59-.48 7.77-.76 11.51.46 1.7.55 3.93 1.22 2.76 7.04z"/><path d="m10.26 13.63a21 21 0 0 1 .86-3.55c1-2 2.4-4.42 8.73-5.25a50.43 50.43 0 0 1 6.28.17c3.89.3 5.79 2.64 7.2 7.2a52.18 52.18 0 0 1 1.67 7.55l.09 23.48h-28.21c-1.21-5.1-.54-13.38.48-18.91"/><path d="m35 19.75a53.53 53.53 0 0 1 6.43 1.44c.56.28 1.14.59 1.17 1.08.58 7.34 1.25 15.92.61 21h-8.09"/></g></svg>