<svg viewBox="0 0 48 48" xmlns="http://www.w3.org/2000/svg"><g fill="none" stroke="#000" stroke-linecap="round" stroke-linejoin="round"><path d="m38.38 34.55v-12.31a14.42 14.42 0 0 0 -10.32-13.81 3.81 3.81 0 0 0 .06-.6 4.15 4.15 0 0 0 -8.3 0 3.81 3.81 0 0 0 .06.6 14.42 14.42 0 0 0 -10.32 13.81v12"/><ellipse cx="21.39" cy="20.83" rx="2.36" ry="3.21"/><path d="m23.75 36.78h17.84l-9.2-6.39a4.16 4.16 0 0 1 -1.8-3.39v-6.85c0-3.16-1.27-6.8-6.84-6.8-5.91 0-6.85 3.64-6.85 6.8v6.85a4.18 4.18 0 0 1 -1.79 3.43l-9.2 6.39h17.84"/><path d="m31.05 28.85s-6.12 3.76-7.3 3.76-7.3-3.76-7.3-3.76"/><ellipse cx="26.11" cy="20.83" rx="2.36" ry="3.21"/><path d="m23.75 26.25c3.28 0 4 .22 4 .43 0 1.06-3.12 2.42-4 2.42s-4-1.36-4-2.42c-.01-.21.71-.43 4-.43z"/><path d="m17.84 36.78a5.91 5.91 0 0 0 11.81 0"/></g><circle cx="21.39" cy="21.37" r=".75"/><circle cx="26.11" cy="21.37" r=".75"/></svg>