<svg viewBox="0 0 48 48" xmlns="http://www.w3.org/2000/svg"><g fill="none" stroke="#000" stroke-linecap="round" stroke-linejoin="round"><path d="m26.37 35.96 1.77.38 8.56-4.94.67-1.79"/><path d="m32.48 33.84 4.64 8.04"/><path d="m36.1 42.47 2.04-1.18"/><path d="m31.09 34.64-13.89-22.25-1.07-6.86 5.41 4.35 12.33 23.16"/><path d="m21.63 35.96-1.77.38-8.56-4.94-.67-1.79"/><path d="m15.52 33.84-4.64 8.04"/><path d="m11.9 42.47-2.04-1.18"/><path d="m21.47 19.25-7.34 13.79"/><path d="m26.52 19.25 4.28-6.86 1.07-6.86-5.41 4.35-2.46 4.62"/><path d="m16.91 34.64 7.09-11.35"/></g></svg>