<svg viewBox="0 0 48 48" xmlns="http://www.w3.org/2000/svg"><path d="m33.72 5.5a3.16 3.16 0 1 1 -3.16 3.16 3.15 3.15 0 0 1 3.16-3.16zm-12.25 6.27h8a1.1 1.1 0 0 1 .79.33l5.24 5.22 3.66-4.45a1.09 1.09 0 0 1 1.53-.16l.75.55a1.09 1.09 0 0 1 .17 1.57l-5.09 6.17a1.09 1.09 0 0 1 -1.62.07l-3.72-3.54-4.78 5.3 4.77 4.81a1.07 1.07 0 0 1 .29 1l-2.73 13a1.09 1.09 0 0 1 -1.36.84l-1.37-.38a1.08 1.08 0 0 1 -.79-1.28l2.32-10.61-5-5-4.94 5.55a1.38 1.38 0 0 1 -.25.21 1.85 1.85 0 0 1 -.9.36h-9.14a1.15 1.15 0 0 1 -1.15-1.14v-1.13a1.21 1.21 0 0 1 1.15-1.15h7.47l10.91-13.21h-3.45l-4.59 5.74a1.18 1.18 0 0 1 -1.54.28l-.6-.46a1.08 1.08 0 0 1 -.16-1.54l5.28-6.46a1.11 1.11 0 0 1 .85-.43z" fill="none" stroke="#000" stroke-linecap="round" stroke-linejoin="round"/></svg>