<svg viewBox="0 0 48 48" xmlns="http://www.w3.org/2000/svg"><g fill="none" stroke="#000" stroke-linecap="round" stroke-linejoin="round"><path d="m7.45 5.5a2 2 0 0 0 -1.95 2v33.1a2 2 0 0 0 2 2h33.1a2 2 0 0 0 2-2v-33.15a2 2 0 0 0 -2-1.95zm1.55 3.5 8.22 4.74-8.22 4.74m17.55 0h-9.34m-5.79 3.52a2.57 2.57 0 0 1 1.76.74l2.09 2.08a14.9 14.9 0 0 1 17.46 0l2.1-2.09a2.45 2.45 0 0 1 3.47 0 2.45 2.45 0 0 1 0 3.46l-2.13 2.01a15 15 0 0 1 2.83 8.8v2h-30v-2a15 15 0 0 1 2.84-8.77l-2.1-2.07a2.45 2.45 0 0 1 0-3.46 2.38 2.38 0 0 1 1.68-.7z"/><path d="m17.68 31.17a2.75 2.75 0 0 0 -2.77 2.76 2.77 2.77 0 0 0 2.77 2.77 2.77 2.77 0 0 0 0-5.53z"/><path d="m30.32 31.17a2.77 2.77 0 1 0 2.77 2.76 2.75 2.75 0 0 0 -2.77-2.76z"/></g></svg>