<svg viewBox="0 0 48 48" xmlns="http://www.w3.org/2000/svg"><g fill="none" stroke="#000" stroke-linecap="round" stroke-linejoin="round"><path d="m34.6688 18.8158a10.6688 10.6688 0 1 0 -21.3376 0"/><path d="m13.3312 24.4432v14.0932c0 3.6341 2.57 4.9636 4.4318 4.9636s3.2795-.5318 3.2795-3.7227-1.2409-7.5341-7.7113-15.3341z"/><path d="m24.0783 27.4568c1.3636-.5318 2.4375-3.2352 2.4375-3.2352a18.043 18.043 0 0 0 -2.4375-.2345 18.043 18.043 0 0 0 -2.4375.2345s1.074 2.7034 2.4375 3.2352z"/><path d="m19.8076 18.8345a1.0892 1.0892 0 0 1 -1.0893-1.0893 1.0732 1.0732 0 0 1 .0738-.366 1.8548 1.8548 0 1 0 1.3815 1.3814 1.0737 1.0737 0 0 1 -.366.0739z"/><path d="m31.0408 18.8345a1.0893 1.0893 0 0 1 -1.0894-1.0893 1.0709 1.0709 0 0 1 .0739-.366 1.8548 1.8548 0 1 0 1.3814 1.3814 1.0732 1.0732 0 0 1 -.3659.0739z"/><path d="m34.6688 18.9126a5.3344 5.3344 0 1 0 -10.6688 0 5.3344 5.3344 0 1 0 -10.6688 0"/><path d="m34.6688 24.4432v14.0932c0 3.6341-2.57 4.9636-4.4318 4.9636s-3.2795-.5318-3.2795-3.7227 1.2409-7.5341 7.7113-15.3341z"/><path d="m23.0516 8.1889a6.0012 6.0012 0 0 0 -.1916-3.6889"/><path d="m25.851 5.8628a10.3714 10.3714 0 0 0 -1.2616 2.301"/></g></svg>