<svg viewBox="0 0 48 48" xmlns="http://www.w3.org/2000/svg"><g fill="none" stroke="#000" stroke-linecap="round" stroke-linejoin="round"><path d="m41.68 13.015h-16.91c-2-.1-5.93-4.23-8.19-4.23h-9.9a2.18 2.18 0 0 0 -2.18 2.1794c0 .0169 0 .0337.0006.0506v7.29h39v-3.42a1.83 1.83 0 0 0 -1.79-1.87z"/><path d="m43.5 31.9394v-13.6444h-39v18.72a2.18 2.18 0 0 0 2.16 2.2h.01 15.7946"/><path d="m32.7556 24.6942a7.7231 7.7231 0 0 1 8.0016 6.177 5.1751 5.1751 0 0 1 .038 10.3077h-14.4573a6.2255 6.2255 0 0 1 0-12.3794 7.6024 7.6024 0 0 1 6.4177-4.1053z"/></g></svg>