<svg viewBox="0 0 48 48" xmlns="http://www.w3.org/2000/svg"><path d="m6.4841 18.8626a5.3779 5.3779 0 0 1 -1.6571-1.465c-.4151-.64-.6236-1.5053.56-2.6167a13.2982 13.2982 0 0 1 6.2164-2.8645c2.46-.3958 4.8058.169 6.9492-.2422s4.0836-1.7971 6.5931-2.3732a21.0417 21.0417 0 0 1 8.519.2547c2.93.5979 5.7121 1.5606 7.41 1.8009s2.3109-.2407 2.4107.3966a18.17 18.17 0 0 1 -.7257 4.15m-9.4846 3.9728-4.4888 4.502m9.5405-6.6373a2.7313 2.7313 0 0 1 -2.731 2.7316 2.7313 2.7313 0 0 1 -2.731-2.7316 2.7313 2.7313 0 0 1 2.731-2.7316 2.7313 2.7313 0 0 1 2.731 2.7316zm-11.2758 2.724v-8.2247m0 4.8319a2.062 2.062 0 0 0 -2.0557-2.0561 2.0619 2.0619 0 0 0 -2.0553 2.0563v1.3365a2.062 2.062 0 0 0 2.0557 2.0562 2.062 2.062 0 0 0 2.0557-2.0562m-10.6431-1.3365v-2.0561m4.1117 5.4487v-3.3926a2.0619 2.0619 0 0 0 -2.056-2.0561 2.062 2.062 0 0 0 -2.0557 2.0561v3.3926m-2.42 0v-5.4487m0 3.3926a2.0619 2.0619 0 0 1 -2.0557 2.0561 2.062 2.062 0 0 1 -2.0556-2.0561v-1.3365a2.062 2.062 0 0 1 2.0558-2.0561 2.062 2.062 0 0 1 2.0557 2.0561m15.4824-2.0561v5.4487m0-3.3926a2.0619 2.0619 0 0 1 2.0557-2.0561m3.21 24.0144v-16.4445m0 9.6612a4.143 4.143 0 0 0 -4.15-4.1111 4.143 4.143 0 0 0 -4.15 4.1111v2.6722a4.143 4.143 0 0 0 4.15 4.1111 4.143 4.143 0 0 0 4.15-4.1111m-21.2119 4.1107v-16.4441m0 9.6612a4.143 4.143 0 0 1 4.15-4.1111 4.143 4.143 0 0 1 4.15 4.1111v2.6722a4.143 4.143 0 0 1 -4.15 4.1111 4.143 4.143 0 0 1 -4.15-4.1111" fill="none" stroke="#000" stroke-linecap="round" stroke-linejoin="round"/></svg>