<svg viewBox="0 0 48 48" xmlns="http://www.w3.org/2000/svg"><g fill="none" stroke="#000" stroke-linecap="round" stroke-linejoin="round"><path d="m31.93 40.88c-3.93-3.21-16.93-18.68-16.93-18.68-1.64-2.15-4.53-5-4.53-9.18a7.5 7.5 0 0 1 7.7-7.42 7.36 7.36 0 0 1 7.41 7.4c0 4.2-3.4 7.78-9.69 9-7.01 1.33-11.39 5.17-11.39 11.51 0 5.13 3.23 8.89 9.69 8.89 8.49 0 13.23-8.83 18.11-16"/><path d="m13.05 7.4-5.73 4.79 5.75 7.64"/><path d="m36 24.45a4.48 4.48 0 0 0 -4.47 4.49 4.48 4.48 0 0 0 4.47 4.48h1.5"/><path d="m37.5 33.42h1.5a4.48 4.48 0 0 1 4.48 4.49 4.48 4.48 0 0 1 -4.48 4.49"/><path d="m43.07 26c-1.23-1-2.57-1.51-5.57-1.51h-1.5"/><path d="m31.93 40.88c1.24 1 2.58 1.52 5.57 1.52h1.5"/></g></svg>