<svg viewBox="0 0 48 48" xmlns="http://www.w3.org/2000/svg"><g fill="none" stroke="#000" stroke-linecap="round" stroke-linejoin="round"><path d="m44.029 22.9474-18.789-18.9656a1.6167 1.6167 0 0 0 -2.2863-.0165l-.0058.0057-18.9661 18.7895a1.6167 1.6167 0 0 0 -.0165 2.2863l.0057.0058 18.79 18.9656a1.6167 1.6167 0 0 0 2.2863.0165l.0058-.0057 18.9651-18.789a1.6167 1.6167 0 0 0 .0165-2.2863z"/><ellipse cx="24" cy="24" rx="14.9486" ry="14.9939"/><ellipse cx="24" cy="24" rx="7.104" ry="7.1267"/><path d="m19.235 18.4831-1.6664-1.6631-2.8982.2872-1.1563-3.8392"/><path d="m29.619 19.39 1.6021-1.7231-.393-2.8832 3.7939-1.2961m-5.6228 15.659 1.6324 1.7 2.9021-.2305 1.0807 3.8619m-16.0633-5.698-1.4511 1.8516.6423 2.8416-3.6691 1.6211"/></g></svg>