<svg viewBox="0 0 48 48" xmlns="http://www.w3.org/2000/svg"><g fill="none" stroke="#000" stroke-linecap="round" stroke-linejoin="round"><path d="m19.7848 7.0988c-3.336-1.9008-7.0262-4.6679-7.205-.1666a9.8548 9.8548 0 0 0 .3332 4.9978c-2.735 6.4264-2.0285 10.9158-1.8325 31.5689h8.4961v-9.6623c1.8323-3.7243 4.9245-6.0257 8.8293-5.5391v15.2013h8.5794c.1824-11.306.7533-30.34-2.3323-32.11.8358-8.2853.8435-8.0255-6.7469-4.248-2.4151-1.9248-4.8098-1.5653-8.1213-.042z"/><path d="m19.6182 23.1748a10.8489 10.8489 0 0 1 8.5378-3.7066c1.3562-4.8232-7.8807-9.2865-8.5378.3331z"/></g></svg>