<svg viewBox="0 0 48 48" xmlns="http://www.w3.org/2000/svg"><g fill="none" stroke="#000" stroke-linecap="round" stroke-linejoin="round"><path d="m14.3034 32.1 6.3466-7.7373-8.16-10.6382 6.2707-.0806 5.0618 6.528 11.4082-14.5066"/><path d="m12.4147 42.4153 11.5591-14.5066 5.364 6.6085 6.1951-.0806-8.386-10.4766 6.5731-7.9789"/><path d="m35.2307 5.6653-18.1319-.1612"/><path d="m12.4147 42.4153 19.19.0806"/><path d="m17.0988 5.5041a20.3355 20.3355 0 0 0 -6.7133 2.9943c-5.2942 3.9571-5.6455 9.9716-4.0487 14.8516 1.6466 5.0325 5.5818 8.884 7.9666 8.7493"/><path d="m31.6043 42.4959c7.03-2.0891 9.6014-6.1719 10.5154-10.1292a14.3007 14.3007 0 0 0 -8.4-16.3856"/></g></svg>