<svg fill="#fff" viewBox="0 0 48 48" xmlns="http://www.w3.org/2000/svg"><g fill="none" stroke="#000" stroke-linecap="round" stroke-linejoin="round" stroke-miterlimit="90"><path d="m24 2.5c11.9 0 21.5 9.6 21.5 21.5s-9.6 21.5-21.5 21.5-21.5-9.6-21.5-21.5 9.6-21.5 21.5-21.5z"/><path d="m24 7c9.4 0 17 7.6 17 17s-7.6 17-17 17-17-7.6-17-17 7.6-17 17-17z"/><path d="m32.7 25.3c.7-.2 1.2-.9 1-1.6-.1-.5-.5-.9-1-1l-13.6-7.8c-.7-.2-1.4.2-1.6.9 0 .1-.1.3-.1.5v15.6c0 .7.5 1.3 1.2 1.4.2 0 .3 0 .5-.1z"/></g></svg>