<svg viewBox="0 0 48 48" xmlns="http://www.w3.org/2000/svg"><g fill="none" stroke="#000" stroke-linecap="round" stroke-linejoin="round"><path d="m36.4769 17.3516-12.4492-4.5311"/><path d="m31.8321 10.7456-11.9218 32.7549"/><path d="m8.3855 31.8756c-.9715-4.24 1.65-8.1444 3.9263-10.0021 0 0 .3239 6.1764 2.8517 8.1824-2.9456-1.015-5.1299-.6669-6.778 1.8197z"/><path d="m11.5472 29.6c-.0112 8.8516 9.998 9.4083 8.657 13.0926"/><path d="m36.2112 42.0033c3.47-2.6237 3.9713-7.2994 3.4215-10.1858 0 0-4.2183 4.5232-7.4441 4.435 2.9089 1.1159 4.3584 2.7866 4.0226 5.7508z"/><path d="m35.2516 38.2281c-5.6811 6.788-13.7064.7806-15.0474 4.4649"/><circle cx="32.7628" cy="8.1885" r="3.688"/><circle cx="22.4463" cy="12.2449" r="1.6829"/><circle cx="38.0583" cy="17.9272" r="1.6829"/></g></svg>