<svg viewBox="0 0 48 48" xmlns="http://www.w3.org/2000/svg"><g fill="none" stroke="#000" stroke-linecap="round" stroke-linejoin="round"><path d="m27.08 17.1c2 2.9 3.35 10.33 3.35 13.62s.81 4.54 3.2 4.54 3.24-2.32 3.24-4.88c0-7.07-6.47-11.89-6.47-13.68 0-8.51-2-12.2-6.41-12.2-4.91 0-5.84 4.64-5.84 11.37 0 3.37-4.62 7.52-5.47 14.82"/><path d="m30.46 31.81c-1.52 1.82-1.54 6.81-1.54 8.55s.58 3.14 2.36 3.14c3.32 0 3.93-2.5 5-3.1s4-.81 4-2.75-3-1.29-3-3.53.13-2.5-.49-2.95"/><path d="m20.33 40.87a2.44 2.44 0 0 1 -2.22 2.63c-2.39 0-3.74-1.8-4.85-1.8s-5.55-.05-5.55-2c0-.81.41-1 .41-1.92s-.41-1.46-.41-2.53 2-2 3.51-1.89c0 0 .11-2.89 2.45-2.89s2.15 3.62 3.57 5.06 3.09 1.98 3.09 5.34z"/><path d="m20.25 39.72a9.43 9.43 0 0 0 8.75-1.55"/><path d="m19.65 42.76a25.62 25.62 0 0 1 9.5-.78"/><path d="m14.54 30.69c.93-4.56 5.14-9.81 5.14-12.94"/><path d="m23 12.47c1.56 0 5.11 2.1 5.11 3.33s-4.59 3.2-5.39 3.2-4.57-1.81-4.57-3.14 3.5-3.39 4.85-3.39z"/><path d="m24.12 12.69a2.8 2.8 0 0 1 -.13-.94c0-1.08.73-2.42 1.72-2.42s1.52 1.51 1.52 2.63a2.51 2.51 0 0 1 -.9 1.82"/><path d="m22.41 12.57c0-.11 0-.25 0-.4 0-1.08-.65-2.42-1.53-2.42s-1.35 1.51-1.35 2.63a2.26 2.26 0 0 0 .32 1.4"/></g></svg>