<svg viewBox="0 0 48 48" xmlns="http://www.w3.org/2000/svg"><g fill="none" stroke="#000" stroke-linecap="round" stroke-linejoin="round"><path d="m29.3819 4.448h-10.64a.6446.6446 0 0 0 -.6446.6445v10.6406a.6446.6446 0 0 0 .6446.6446h10.64a.6446.6446 0 0 0 .6446-.6446v-10.6395a.6446.6446 0 0 0 -.6435-.6456z"/><path d="m44.47 23.1845-3.2211-10.1392a.6446.6446 0 0 0 -.8087-.4206l-.0019.0006-10.14 3.2217a.6444.6444 0 0 0 -.4189.81l3.2216 10.14a.6445.6445 0 0 0 .8089.42h.0007l10.14-3.2216a.6446.6446 0 0 0 .4189-.81zm-40.939.0626 3.2206-10.14a.6445.6445 0 0 1 .8093-.4193h.0013l10.14 3.2217a.6444.6444 0 0 1 .4189.8095l-3.2219 10.141a.6446.6446 0 0 1 -.81.4189l-10.14-3.2217a.6445.6445 0 0 1 -.4189-.8095zm12.86 20.175-8.495-6.4057a.6445.6445 0 0 1 -.1272-.9026l.0008-.001 6.4067-8.4949a.6445.6445 0 0 1 .9026-.1254l8.4949 6.4057a.6444.6444 0 0 1 .1264.9025l-6.4067 8.495a.6447.6447 0 0 1 -.9026.1264zm15.1564-.0621 8.4939-6.4067a.6444.6444 0 0 0 .1275-.9025l-6.4067-8.495a.6445.6445 0 0 0 -.9026-.1271l-.001.0007-8.4939 6.4057a.6445.6445 0 0 0 -.1284.9024l.0009.0012 6.4067 8.4949a.6446.6446 0 0 0 .9028.126l.0008-.0006z"/><path d="m34.3084 38.6617-3.8056-5.5-2.7818 3.1548zm0 0 .0627-7.2706-3.8683 1.7706"/><path d="m36.8161 17.3489a1.3442 1.3442 0 0 1 1.6722.8921 1.344 1.344 0 0 1 -.892 1.6722l-2.0515.6242m2.5534-3.5786-3.3336 1.0143"/><path d="m37.5963 19.9132a1.3441 1.3441 0 0 1 1.6722.8921 1.344 1.344 0 0 1 -.892 1.6722l-2.0514.6242"/><path d="m16.4922 39.1506 2.73-3.1444a.3081.3081 0 0 0 -.0314-.4345l-4.0751-3.5392a.3081.3081 0 0 0 -.4347.03l-.0009.001-2.73 3.1443a.3082.3082 0 0 0 .0313.4346l4.0751 3.5392a.3082.3082 0 0 0 .4348-.03zm-2.646-20.9333-4.4125-1.3309a.2789.2789 0 0 0 -.3477.1863v.0007l-1.33 4.4115a.2789.2789 0 0 0 .1867.3474h.0013l4.4084 1.3309a.2788.2788 0 0 0 .3474-.1867v-.0014l1.3309-4.41a.279.279 0 0 0 -.1863-.3477h-.0007z"/><path d="m26.55 10.856-4.0641 2.074.87-2.0735m3.1945 0-4.0677 2.0691 2.19.5142"/><path d="m21.45 10.0689 4.0644-2.0735-.87 2.0735m-3.1944 0 4.0674-2.0689-2.19-.5142"/></g></svg>