<svg viewBox="0 0 48 48" xmlns="http://www.w3.org/2000/svg"><g fill="none" stroke="#000" stroke-linecap="round" stroke-linejoin="round"><path d="m7.2857 10.0714v13.9286c0 6.7567 11.2931 19.497 16.7143 19.5s16.7143-12.7433 16.7143-19.5v-13.9286c0-5.3674-10.9319-5.5714-16.7143-5.5714s-16.7143.204-16.7143 5.5714z"/><path d="m19.3571 17.9643a10.7755 10.7755 0 0 0 -3.7142-1.3929 10.7754 10.7754 0 0 0 -3.7143 1.3929 10.7759 10.7759 0 0 0 3.7143 1.3928 10.776 10.776 0 0 0 3.7142-1.3928z"/><path d="m28.6429 17.9643a10.7755 10.7755 0 0 1 3.7142-1.3929 10.7754 10.7754 0 0 1 3.7143 1.3929 10.7759 10.7759 0 0 1 -3.7143 1.3928 10.776 10.776 0 0 1 -3.7142-1.3928z"/><path d="m22.1429 35.1429v4.1785l1.8571 1.8572 1.8571-1.8572v-4.1785z"/><path d="m11.9286 24.9286 3.7143 6.9643h6.5l1.8571-1.8572 1.8571 1.8572h6.5l3.7143-6.9643-4.6428 4.1785h-3.7143l-2.7857-2.7857h-1.8572l-2.7857 2.7857h-3.7143z"/><path d="m11.4643 14.7143c2.9114-1.4773 5.2084-2.0206 8.3571 1.6714a1.4279 1.4279 0 0 0 1.8572 0 1.42 1.42 0 0 0 0-1.8571c-3.78-3.8496-8.2651-3.4825-10.2143.1857z"/><path d="m36.5357 14.7143c-2.9114-1.4773-5.2084-2.0206-8.3571 1.6714a1.4279 1.4279 0 0 1 -1.8572 0 1.42 1.42 0 0 1 0-1.8571c3.78-3.8496 8.2651-3.4825 10.2143.1857z"/></g></svg>