<svg viewBox="0 0 48 48" xmlns="http://www.w3.org/2000/svg"><g fill="none" stroke="#000" stroke-linecap="round" stroke-linejoin="round"><path d="m12.7908 5.5123s-2.632 1.3794-2.65 15.0821"/><path d="m10.141 20.5944a7.6237 7.6237 0 0 0 2.9434 4.5725 5.8523 5.8523 0 0 0 3.7334.6941"/><path d="m21.8979 13.7674c-.4327-1.4957-5.4545-6.3709-9.7033-.7349"/><path d="m11.8727 20.05a8.665 8.665 0 0 1 4.2432-.6909c2.7823.0867 4.5094-.3329 3.8173-1.2126a3.7541 3.7541 0 0 0 -3.9032-1.7475c-2.1735.3718-2.9885.6675-4.1573 3.651z"/><path d="m13.6469 25.6063c.9873 6.1337 8.1648 7.3642 8.6459 6.2718a2.36 2.36 0 0 1 1.7072-1.2698 2.36 2.36 0 0 1 1.7072 1.27c.4811 1.0924 7.6586-.1381 8.6459-6.2718"/><path d="m22.2728 35.2032a1.8936 1.8936 0 0 1 .6836 2.2612c-.5689 1.4273-.13 2.5759.1046 3.8054.1834.9623.3747 1.1834.088 1.656-.1869.3081-.9837.4481-.9837.4481"/><path d="m14.733 25.9368a8.19 8.19 0 0 0 3.1527 3.0221c1.2232.7034 3.6719 1.4868 4.4934.0614m-.9515-3.0182a1.6577 1.6577 0 0 0 -1.3887 1.9233c.08.9857-2.4431-1.35-.5909-2.7072s3.0246-5.4348 2.1586-8.3982-4.1578-4.9711-6.0144-4.688"/><path d="m35.2092 5.5123s2.632 1.3794 2.65 15.0821"/><path d="m37.859 20.5944a7.6237 7.6237 0 0 1 -2.9434 4.5725 5.85 5.85 0 0 1 -3.73.6946"/><path d="m36.6674 23.9216s1.2446-.5662.2069 2.3177a86.4263 86.4263 0 0 1 -6.2014 11.4164c-.5773.6913-3.1743 5.4036-4.7844 5.8442a1.1783 1.1783 0 0 1 -.986-.7195c-.2228-.4517-.07-.8673.0365-1.5106.2042-1.2348.6735-2.3781.1046-3.8054a1.8938 1.8938 0 0 1 .6836-2.2613m-3.5619 8.1708c-1.7787.0672-4.2613-5.0269-4.8382-5.7182a86.4746 86.4746 0 0 1 -6.2014-11.4164c-1.0377-2.8839.2069-2.3177.2069-2.3177"/><path d="m26.1021 13.7674c.2632-1.1651 5.4608-6.4035 9.7033-.7349"/><path d="m36.1991 19.14c-.1553-.0723-1.5326.1328-4.315.22s-4.7417-.3329-4.05-1.2126a4.14 4.14 0 0 1 4.1359-1.7484c2.1735.3718 2.6352 1.6819 4.2291 2.741z"/><path d="m32.8318 25.9014a5.633 5.633 0 0 1 -2.7547 3.1005 3.8892 3.8892 0 0 1 -3.0805.6279m2.1185-2.3425c.374-.5407.4392-1.3349-.5631-2.0691m-1.6548-9.5976c1.2671-2.2875 3.9173-3.7315 5.5106-3.4886"/><path d="m23.1856 19.4681c.5795 1.34.289 3.48.01 5.0459-.1833 1.0292-1.7789 4.1071-.3362 4.8085a4.15 4.15 0 0 0 2.9642-.0857"/><path d="m36.1991 19.14a3.5979 3.5979 0 0 1 1.4959.5376"/><path d="m35.2092 5.5123s-1.8692-1.0123-11.2092-1.0123c-9.9978 0-11.2092 1.0123-11.2092 1.0123"/></g></svg>