<svg viewBox="0 0 48 48" xmlns="http://www.w3.org/2000/svg"><g fill="none" stroke="#000" stroke-linecap="round" stroke-linejoin="round"><path d="m33.3842 33.6861a3.8592 3.8592 0 0 1 -3.4-2.0333l-2.8568-5.3228-2.8182 5.2521a3.9016 3.9016 0 0 1 -.4609.7008 3.8739 3.8739 0 0 1 -2.9551 1.4028h-12.535a3.8589 3.8589 0 0 1 -3.4-5.6829l6.2568-11.6558a3.8588 3.8588 0 0 1 6.7994 0l2.8574 5.323 2.8559-5.3224a3.8588 3.8588 0 0 1 6.7994 0l2.8571 5.3237 2.8572-5.3237a3.8584 3.8584 0 1 1 6.7993 3.65l-6.2568 11.6552a3.8589 3.8589 0 0 1 -3.3997 2.0333z"/><path d="m20.8756 33.6868a3.86 3.86 0 0 1 -3.4034-2.0346l-4.3309-8.0679"/><path d="m27.1274 26.3304-1.4774-2.7467"/><path d="m19.3944 24.4166 1.4774-2.7468"/><path d="m31.9068 24.4166 1.4774-2.7468"/></g></svg>