<svg viewBox="0 0 48 48" xmlns="http://www.w3.org/2000/svg"><g fill="none" stroke="#000" stroke-linecap="round" stroke-linejoin="round"><path d="m40.5 5.5h-33a2 2 0 0 0 -2 2v33a2 2 0 0 0 2 2h33a2 2 0 0 0 2-2v-33a2 2 0 0 0 -2-2z"/><path d="m26.27 42.5.84-1.5h3.25l1.58-2.74-1.48-2.56h-3.22l-1.64-2.84h-3.14l-1.54-2.66 1.6-2.77h3.15l1.66-2.88-1.57-2.73 1.43-2.47h3.3l1.76-3.05h2.84l1.62 2.81h3.29l1.55-2.69h1"/><path d="m32.25 16.3-1.64-2.83h-3.51l-1.6-2.78 1.61-2.79-1.35-2.4"/><path d="m27.19 19.35-1.61-2.8h-3l-1.76-3.06 1.64-2.85h3.05"/><path d="m25.76 21.82h-3.39l-1.68 2.92h-2.92l-1.63 2.81h-3.14l-1.57 2.71h-3.43l-2.5 4.43"/><path d="m20.81 13.49h-2.81l-1.69 2.93h-3.4l-1.69 2.88h-3.62l-2.1 3.7"/><path d="m7.6 19.3-1.77-3.08 2-2.46-1.89-3"/><path d="m22.52 27.43-1.83-2.69"/><path d="m22.45 10.64-1.54-2.64h-3l-1.82 3.15h-3.16l-1.71-3 1.5-2.66"/><path d="m11.22 8.16h-3.11l-2.22 2.57"/></g></svg>