<svg viewBox="0 0 48 48" xmlns="http://www.w3.org/2000/svg"><path d="m40.78 24a16.67 16.67 0 0 0 -.16-2.25.72.72 0 0 1 .47-.79l3.11-1.11-1.92-5.39-3.12 1.12a.73.73 0 0 1 -.86-.32 17.11 17.11 0 0 0 -3-3.62.72.72 0 0 1 -.15-.9l1.66-2.84-4.94-2.9-1.66 2.88a.74.74 0 0 1 -.86.31 16.55 16.55 0 0 0 -4.63-.84.74.74 0 0 1 -.7-.6l-.56-3.25-5.64 1 .57 3.26a.72.72 0 0 1 -.46.8 16.65 16.65 0 0 0 -4.08 2.33.71.71 0 0 1 -.91 0l-2.53-2.15-3.68 4.37 2.53 2.13a.73.73 0 0 1 .16.91 16.62 16.62 0 0 0 -1.61 4.41.73.73 0 0 1 -.7.59h-3.31v5.71h3.31a.72.72 0 0 1 .7.59 17 17 0 0 0 1.51 4.23.73.73 0 0 1 -.17.9l-2.56 2.09 3.62 4.43 2.56-2.1a.72.72 0 0 1 .92 0 16.31 16.31 0 0 0 4 2.39.73.73 0 0 1 .44.8l-.61 3.26 5.63 1 .71-3.83h.2a16.4 16.4 0 0 0 5-.8.74.74 0 0 1 .86.33l1.63 2.88 5-2.81-1.55-2.81a.73.73 0 0 1 .16-.91 16.54 16.54 0 0 0 3-3.58.73.73 0 0 1 .87-.31l3.1 1.16 2-5.36-3.1-1.15a.73.73 0 0 1 -.46-.8 16.53 16.53 0 0 0 .21-2.46z" fill="none" stroke="#000" stroke-linecap="round" stroke-linejoin="round"/></svg>