<svg viewBox="0 0 48 48" xmlns="http://www.w3.org/2000/svg"><g fill="none" stroke="#000" stroke-linecap="round" stroke-linejoin="round"><circle cx="13.4216" cy="12.7298" r="4.6828"/><path d="m24.91 8.1934a4.6843 4.6843 0 0 0 -8.3468 1.0666"/><path d="m23.0611 14.61a4.6884 4.6884 0 0 0 -5.0286-1.0819"/><path d="m15.11 17.0945a4.6919 4.6919 0 0 0 1.6991 4.4666"/><path d="m32.2261 16.4491a4.7318 4.7318 0 0 0 .0448-.6506 4.6828 4.6828 0 1 0 -7.8518 3.4476"/><circle cx="26.243" cy="23.5596" r="4.6828"/><path d="m36.8377 20.0977a4.6844 4.6844 0 0 0 -8.8392-.88"/><circle cx="9.0709" cy="37.3443" r="4.5709"/><path d="m11.3586 16.9331a4.6835 4.6835 0 0 0 2.063 8.8879 4.7415 4.7415 0 0 0 .6456-.0441"/><path d="m21.7527 22.2277a4.6833 4.6833 0 1 0 -4.4327 8.0538"/><path d="m23.2587 27.1685a4.7007 4.7007 0 0 0 -1.8928 2.1858"/><path d="m22.2765 34.3926a4.6828 4.6828 0 1 0 6.3881-6.8247"/><path d="m30.1968 32.4183a4.6823 4.6823 0 1 0 .6645-8.0938"/><path d="m37.5286 28.8453a4.6835 4.6835 0 1 0 -3.386-4.7832"/><path d="m35.36 17.6258a4.6836 4.6836 0 1 0 -5.8868-6.2351"/><path d="m30.7912 9.6162a3.2246 3.2246 0 1 0 -5.8769 2.1756"/><path d="m10.9366 25.1054a3.2245 3.2245 0 0 0 4.8 4.299"/><circle cx="19.8705" cy="32.2492" r="3.2244"/><path d="m27.838 35.3333a3.2252 3.2252 0 1 0 6.0589-2.1869"/></g></svg>