<svg viewBox="0 0 48 48" xmlns="http://www.w3.org/2000/svg"><g fill="none" stroke="#000" stroke-linecap="round" stroke-linejoin="round"><path d="m22.7773 7.4983a19.068 19.068 0 1 1 -16.8095 18.9347 18.9837 18.9837 0 0 1 2.179-8.86"/><path d="m37.8209 17.1062a15.8257 15.8257 0 1 1 -28.6109 9.3268q0-.43.0226-.854"/><ellipse cx="11.0928" cy="8.1515" rx="8.2544" ry="3.9411" transform="matrix(.82957788 -.55839104 .55839104 .82957788 -2.6612 7.5833)"/><path d="m18.5735 4.9364a3.1363 3.1363 0 0 1 2.7624 1.1221c1.3087 1.9443-.9315 5.7423-5.0036 8.4833s-8.434 3.3867-9.7423 1.4425a2.503 2.503 0 0 1 -.3389-1.7895"/><path d="m23.7191 8.4418c1.4941 1.4522-.9315 5.7423-5.0036 8.4832-3.8346 2.5811-7.9263 3.3043-9.4833 1.7563"/><path d="m9.2332 25.579c6.41-3.3022 10.8054-.0168 16.5153-1.4443 5.438-1.3595 12.0719-7.0281 12.0719-7.0281s-6.6792 13.69-18.0084 13.69c-10.602-.0003-10.5788-5.2176-10.5788-5.2176z"/><path d="m6.5896 15.9843 2.6436 2.6961"/><path d="m21.3359 6.0585 2.3832 2.3833"/><path d="m4.84 13.3313 2.6228 1.6053c1.2236.86 4.5412.0954 7.663-2.0059s4.8222-4.7792 4.2118-6.3107l-1.3976-3.0777"/></g></svg>