<svg viewBox="0 0 48 48" xmlns="http://www.w3.org/2000/svg"><g fill="none" stroke="#000" stroke-linecap="round" stroke-linejoin="round"><path d="m24 4.5a10.72 10.72 0 0 0 -10.73 10.73v5.85h-2.92a1.94 1.94 0 0 0 -1.95 1.92v18.55a2 2 0 0 0 1.95 2h27.3a2 2 0 0 0 2-2v-18.55a1.94 1.94 0 0 0 -2-1.94h-2.92v-5.83a10.72 10.72 0 0 0 -10.73-10.73zm0 2.92a7.43 7.43 0 0 1 7.8 7.81c0 4.94-3.9 8.77-8.8 12.67l.43-4.9a7.8 7.8 0 0 1 .57-15.58z"/><path d="m20.45 37.93a1.22 1.22 0 1 1 1.22-1.22 1.22 1.22 0 0 1 -1.22 1.22z"/><path d="m27.57 37.93a1.22 1.22 0 1 1 1.22-1.22 1.22 1.22 0 0 1 -1.22 1.22z"/><path d="m24 30.4a8.72 8.72 0 0 1 8.72 8.72 1.24 1.24 0 0 1 -1.24 1.24h-15a1.24 1.24 0 0 1 -1.24-1.24 8.72 8.72 0 0 1 8.76-8.72z"/><path d="m16.47 29.1 2.48 2.91"/><path d="m31.53 29.1-2.48 2.91"/></g></svg>