<svg viewBox="0 0 48 48" xmlns="http://www.w3.org/2000/svg"><g fill="none" stroke="#000" stroke-linecap="round" stroke-linejoin="round"><path d="m20.09 16.6a1.5 1.5 0 1 1 -1.5-1.5 1.54 1.54 0 0 1 1.5 1.5zm-2.09-6.3 5.39-2.3c3.61-1.6 6.5-2.7 6.61-2.5l12.7 29c.1.2-2.7 1.6-6.3 3.1l-5.4 2.4c-3.6 1.6-6.5 2.7-6.6 2.5l-12.7-29c-.01-.2 2.79-1.6 6.3-3.2z"/><path d="m14.59 40.2a1.5 1.5 0 0 1 -1.1-.4 1.61 1.61 0 0 1 -.5-1.1m0 0-.1-10.7 5.2 12.4-3.6-.2m-5.4-5.6a2.12 2.12 0 0 1 -1.5 1.4 2 2 0 0 1 -1.9-.7 2 2 0 0 1 -.2-2m3.7 1.3v-9.4l-3.7 8"/></g></svg>