<svg viewBox="0 0 48 48" xmlns="http://www.w3.org/2000/svg"><g fill="none" stroke="#000" stroke-linecap="round" stroke-linejoin="round"><circle cx="24.9357" cy="34.2193" r="3.023"/><path d="m22.7981 36.3569-2.7568 2.7568"/><path d="m13.1389 20.67a3.07 3.07 0 1 1 3.07 3.07h-.01a3.07 3.07 0 0 1 -3.06-3.07z"/><path d="m31.7789 23.74a3.07 3.07 0 1 1 3.07-3.07 3.07 3.07 0 0 1 -3.07 3.07z"/><path d="m5.4989 28.31v11.69a1.94 1.94 0 0 0 1.8791 1.9991q.03.0009.0609.0009h33.1a2 2 0 0 0 2-2v-11.69"/><path d="m38.9889 13.72 2.58-2.56a3.0158 3.0158 0 0 0 -4.27-4.26l-2.55 2.6a18.39 18.39 0 0 0 -21.51 0l-2.57-2.57a3.22 3.22 0 0 0 -2.18-.93 3 3 0 0 0 -2.12 5.15l2.62 2.56a18.41 18.41 0 0 0 -3.47 10.8v3.8h37v-3.8a18.57 18.57 0 0 0 -3.53-10.79zm-19.87 7a2.93 2.93 0 1 1 -2.94-2.92h.01a2.93 2.93 0 0 1 2.94 2.9zm12.65 2.92a2.92 2.92 0 1 1 2.92-2.92 2.92 2.92 0 0 1 -2.91 2.9z"/></g></svg>