<svg viewBox="0 0 48 48" xmlns="http://www.w3.org/2000/svg"><g fill="none" stroke="#000" stroke-linecap="round" stroke-linejoin="round"><path d="m5.5 14.5h37v27h-37z"/><path d="m5.5 14.5 5-8h27l5 8"/><path d="m24 6.5v12"/><path d="m19.3144 32.221a1.6133 1.6133 0 1 1 1.6133-1.6133 1.6132 1.6132 0 0 1 -1.6133 1.6133z"/><path d="m28.7038 32.221a1.6133 1.6133 0 1 1 1.6132-1.6133 1.6134 1.6134 0 0 1 -1.6132 1.6133z"/><path d="m24 22.2888a11.5 11.5 0 0 1 11.5 11.5v1.6412a0 0 0 0 1 0 0h-23a0 0 0 0 1 0 0v-1.6412a11.5 11.5 0 0 1 11.5-11.5z"/><path d="m14.0694 20.5697 3.2671 3.8457"/><path d="m33.9306 20.5697-3.2671 3.8457"/></g></svg>