<svg viewBox="0 0 48 48" xmlns="http://www.w3.org/2000/svg"><g fill="none" stroke="#000" stroke-linecap="round"><g stroke-linejoin="round"><path d="m41.104 24.6644 1.786-1.8269a2.2042 2.2042 0 0 0 .0019-3.0428l-.0019-.002a2.0316 2.0316 0 0 0 -2.9417-.0154l-.0149.0154-1.7795 1.8273a12.35 12.35 0 0 0 -14.836 0l-1.7138-1.8a2.0444 2.0444 0 0 0 -2.96-.003l-.0029.003a2.2113 2.2113 0 0 0 0 3.0448l1.7788 1.8131a13.46 13.46 0 0 0 -2.4137 7.6863v6.2858a1.3645 1.3645 0 0 0 1.3409 1.3871h22.8287a1.3658 1.3658 0 0 0 1.3082-1.3871v-6.2858a13.4431 13.4431 0 0 0 -2.381-7.7zm-15.6987 9.8039a2.4372 2.4372 0 1 1 2.3483-2.4426v.0136a2.39 2.39 0 0 1 -2.3482 2.429zm10.7407 0a2.4372 2.4372 0 1 1 2.3351-2.4562v.0272a2.39 2.39 0 0 1 -2.3483 2.429h.0131z"/><path d="m5.9533 11.722 5.3705 5.5523h1.627v-1.7228l-5.35-5.53"/><path d="m5.4944 8.7092a.57.57 0 0 1 .8237 0l1.2828 1.3127-1.6476 1.7-1.2828-1.3127a.6147.6147 0 0 1 -.0012-.8486l.0012-.0012z"/><path d="m29.6577 17.1859v-1.78h-5.8871a1.3313 1.3313 0 0 1 -1.3083-1.3532v-6.0897h-11.7742a1.3134 1.3134 0 0 0 -1.24.92m-.0681 9.5859v14.5279a1.3313 1.3313 0 0 0 1.3081 1.3532h5.5791"/><path d="m22.462 7.9631 7.1957 7.443"/><path d="m12.9508 29.9665h3.6832"/></g><path d="m12.9508 26.2454h4.4359"/><path d="m12.9508 22.5169h3.2441"/><path d="m12.9508 18.7885h3.8665m6.2125 0h1.2832"/><path d="m18.6414 15.0674h-3.9574"/></g></svg>