<svg viewBox="0 0 48 48" xmlns="http://www.w3.org/2000/svg"><g fill="none" stroke="#000" stroke-linecap="round" stroke-linejoin="round"><path d="m20.0779 14.3391a1.3705 1.3705 0 1 1 1.3594-1.3148 1.37 1.37 0 0 1 -1.3594 1.3148z"/><path d="m28.0116 14.3391a1.3705 1.3705 0 1 1 1.3594-1.3148 1.37 1.37 0 0 1 -1.3594 1.3148z"/><path d="m14.2613 17.8937v-2.2286a9.7166 9.7166 0 0 1 9.7612-9.7165 9.7165 9.7165 0 0 1 9.7165 9.7165v2.2286"/><path d="m15.643 4.5 2.4515 3.0086"/><path d="m32.4242 4.5-2.5183 3.0086"/><path d="m9.2359 15.0857v20.6143a3.1341 3.1341 0 0 0 2.7857 2.7857h22.8429v-15.0428h1.1143a3.1341 3.1341 0 0 0 2.7857-2.7858 3.1339 3.1339 0 0 0 -2.7857-2.7857h-23.9572a3.1339 3.1339 0 0 1 -2.7857-2.7857 3.1339 3.1339 0 0 1 2.7857-2.7857h2.73"/><path d="m34.8645 38.4857v5.0143h1.1143a3.134 3.134 0 0 0 2.7857-2.7857v-20.0572"/><circle cx="24.0002" cy="26.2286" r="2.2286"/><path d="m24 23.68v-2.164"/><path d="m30.6859 42.3857-6.6859-13.9286-6.6855 13.9286"/></g></svg>