<svg viewBox="0 0 48 48" xmlns="http://www.w3.org/2000/svg"><g fill="none" stroke="#000" stroke-miterlimit="10"><path d="m34.65 15.16 2.73-3.52a1 1 0 0 0 -.05-1.31c-10.94-11.55-31.59-4.57-32.21 12.97a.4.4 0 0 1 -.08.23.44.44 0 0 1 -.37.21h-1.93a.25.25 0 0 0 -.19.4l5.55 7.18a.26.26 0 0 0 .39 0l5.56-7.17a.25.25 0 0 0 -.2-.4h-1.93a.41.41 0 0 1 -.32-.15v-.06a.42.42 0 0 1 -.1-.28 12.51 12.51 0 0 1 21.67-8 1 1 0 0 0 1.48-.1z"/><path d="m13.35 32.84-2.73 3.52a1 1 0 0 0 .05 1.31c10.94 11.55 31.59 4.57 32.21-13a.4.4 0 0 1 .08-.23.44.44 0 0 1 .37-.21h1.93a.25.25 0 0 0 .19-.4l-5.55-7.15a.26.26 0 0 0 -.39 0l-5.51 7.17a.25.25 0 0 0 .2.4h1.93a.41.41 0 0 1 .32.15v.06a.42.42 0 0 1 .1.28 12.51 12.51 0 0 1 -21.67 8 1 1 0 0 0 -1.53.1z"/></g></svg>