<svg viewBox="0 0 48 48" xmlns="http://www.w3.org/2000/svg"><g fill="none" stroke="#000" stroke-linecap="round" stroke-linejoin="round"><path d="m41.68 13h-16.91c-2-.1-5.93-4.23-8.19-4.23h-9.9a2.18 2.18 0 0 0 -2.18 2.23v7.29h39v-3.42a1.83 1.83 0 0 0 -1.82-1.87z"/><path d="m43.5 18.28h-39v18.72a2.18 2.18 0 0 0 2.17 2.2h34.65a2.18 2.18 0 0 0 2.18-2.2z"/><path d="m27.46 32.18a1.23 1.23 0 1 1 1.22-1.18 1.22 1.22 0 0 1 -1.22 1.18z"/><path d="m34.58 32.18a1.23 1.23 0 1 1 1.22-1.18 1.22 1.22 0 0 1 -1.22 1.18z"/><path d="m31 24.65a8.72 8.72 0 0 1 8.72 8.72 1.24 1.24 0 0 1 -1.24 1.24h-15a1.24 1.24 0 0 1 -1.24-1.24 8.72 8.72 0 0 1 8.76-8.72z"/><path d="m23.48 23.35 2.48 2.91"/><path d="m38.54 23.35-2.47 2.91"/></g></svg>