<svg viewBox="0 0 48 48" xmlns="http://www.w3.org/2000/svg"><g fill="none" stroke="#000" stroke-linecap="round" stroke-linejoin="round"><path d="m11.0651 23.9208h6.0864"/><path d="m18.7165 28.6161-4.5213-13.9118-4.6952 13.9118"/><path d="m21.7721 19.3839v13.9118"/><path d="m33.457 23.747 5.043 4.8692"/><path d="m31.5441 25.66 6.26-6.26"/><path d="m21.7725 25.1323a3.4908 3.4908 0 0 0 3.4775 3.4835 3.4908 3.4908 0 0 0 3.4775-3.4835v-2.2643a3.4908 3.4908 0 0 0 -3.4775-3.4836 3.4908 3.4908 0 0 0 -3.4775 3.4836"/><path d="m31.5441 14.7044v13.9118"/><path d="m5.5 19.6v20.9a2 2 0 0 0 2 2h33a2 2 0 0 0 2-2v-33a2 2 0 0 0 -2-2h-33a2 2 0 0 0 -2 2z"/></g></svg>