<svg viewBox="0 0 48 48" xmlns="http://www.w3.org/2000/svg"><g fill="none" stroke="#000" stroke-linecap="round" stroke-linejoin="round"><path d="m41.38 19.84h-7.86l-7.77-13a2 2 0 0 0 -3.5 0l-7.77 13h-7.86a3.12 3.12 0 0 0 -3 3.93l4.38 16.31a2.84 2.84 0 0 0 2.74 2.1h26.5a2.84 2.84 0 0 0 2.76-2.1l4.41-16.31a3.12 3.12 0 0 0 -3.03-3.93zm-17.38-8 4.77 8h-9.54z"/><path d="m14.48 19.84h19.04"/><path d="m20.45 34.16a1.23 1.23 0 1 1 1.22-1.22 1.23 1.23 0 0 1 -1.22 1.22z"/><path d="m27.57 34.16a1.23 1.23 0 1 1 1.22-1.22 1.23 1.23 0 0 1 -1.22 1.22z"/><path d="m24 26.63a8.72 8.72 0 0 1 8.72 8.72 1.24 1.24 0 0 1 -1.24 1.24h-15a1.24 1.24 0 0 1 -1.24-1.24 8.72 8.72 0 0 1 8.76-8.72z"/><path d="m16.47 25.32 2.48 2.92"/><path d="m31.53 25.32-2.48 2.92"/></g></svg>