<svg viewBox="0 0 48 48" xmlns="http://www.w3.org/2000/svg"><g fill="none" stroke="#000" stroke-linecap="round" stroke-linejoin="round"><path d="m39 13.71 2.59-2.55a3 3 0 0 0 -4.28-4.27l-2.55 2.6a18.44 18.44 0 0 0 -21.52 0l-2.57-2.57a3.14 3.14 0 0 0 -2.17-.92 3 3 0 0 0 -2.12.88 3 3 0 0 0 0 4.26l2.62 2.56a18.55 18.55 0 0 0 -3.5 10.81v15.57a2 2 0 0 0 2 2h33.1a2 2 0 0 0 2-2v-15.57a18.51 18.51 0 0 0 -3.6-10.8zm-25.86 7a3.07 3.07 0 1 1 3.07 3.07 3.08 3.08 0 0 1 -3.07-3.07zm10.86 19.34a7 7 0 1 1 7-7 7 7 0 0 1 -7 7zm7.79-16.29a3.07 3.07 0 1 1 3.06-3.07 3.07 3.07 0 0 1 -3.06 3.07z"/><path d="m24 28.58v8.52"/><path d="m21.09 34.06 2.91 3.23 2.91-3.23"/></g></svg>