<svg viewBox="0 0 48 48" xmlns="http://www.w3.org/2000/svg"><g fill="none" stroke="#000" stroke-linecap="round" stroke-linejoin="round"><path d="m23.8112 8.4512c-3.9 3.2-9.9 4.2-15.1 4.4 0 6.7.1 6 .1 10.5a17.0794 17.0794 0 0 0 6.2 12.6l8.4 6.5h.7l8.6-6.5a16.5928 16.5928 0 0 0 6-12.5v-10.4c-5.8-.5-11.2-2-14.9-4.6z"/><path d="m11.7112 26.4512a27.2564 27.2564 0 0 0 -.7 5.9c0 .9-.3 6 1.2 4.8"/><path d="m16.6112 16.8512a22.5515 22.5515 0 0 0 -4.1 6.9"/><path d="m34.0112 12.4512c.3-.9-.1-2.7-1.8-2.6a21.228 21.228 0 0 0 -12.7 4.4"/><path d="m26.4112 28.9512c2.9 3.5 5.9 6 7.8 6.2 3.7.5 4.2-1 2.5-2.4"/><path d="m18.7112 16.9512a61.9288 61.9288 0 0 0 3 5.6"/><path d="m23.0112 7.3512c-.3-2.2-5.4-3-6.2 1.2a10.5029 10.5029 0 0 0 .7 5.3"/><path d="m10.4112 24.3512c-.7-.1-1.6-.2-2.2-.3-3.9-.7-3.6-3.8.5-3.5"/><path d="m21.2112 25.1512c-2.8-.1-5.5-.2-8-.5"/><path d="m38.7112 22.1512c3.7.1 6 2.4.8 2.8-2.5.2-6.9.3-11.8.3"/><path d="m21.6112 9.9512-.3-2.5 2.7-.2-.2 1.2"/><path d="m15.8112 14.6512 1.1 3 4-1.4-2-2.8z"/><path d="m10.4112 23.6512 2.7.2v2.8l-2.8-.4z"/><path d="m34.8112 33.8512.9.5 1.8-2.3-.9-.7"/><path d="m14.4112 35.3512-.4 2c-.1.5-.5.6-1 .3l-2.6-1.9 2.1-2.2"/><path d="m22.7112 22.4512h3.8c.9 0 1.4.4 1.3 1.1l-.5 4.5c-.1.8-1 .9-1.4.9l-3.9-.3c-.6-.1-1-.1-.9-1.1l.2-4.4c0-.7.6-.7 1.4-.7z"/></g></svg>