<svg viewBox="0 0 48 48" xmlns="http://www.w3.org/2000/svg"><g fill="none" stroke="#000" stroke-linecap="round" stroke-linejoin="round"><path d="m35.226 9.245-4.2 4.2 1.537 5.737 5.737 1.537 4.2-4.199"/><path d="m32.563 19.1822-19.0067 19.0066"/><path d="m11.3632 14.8034v-3.0967a5.4347 5.4347 0 1 1 10.8693 0l-.0165 6.2777"/><path d="m28.0282 18.8373c-2.7114.5291-8.7954-1.521-11.23-3.6371-2.435 2.1161-8.519 4.1662-11.23 3.6371a17.339 17.339 0 0 0 5.7941 14.3539"/><path d="m23.5386 35.8164a6.4531 6.4531 0 0 0 9.126-9.126"/><path d="m32.6646 26.6904 2.8436-2.8437"/><path d="m20.695 38.66 2.8436-2.8436"/><path d="m28.1016 41.728v-4.0215"/><path d="m35.5083 38.66-2.8437-2.8436"/><path d="m38.5762 31.2533-4.0215.0001"/></g></svg>