<svg viewBox="0 0 48 48" xmlns="http://www.w3.org/2000/svg"><g fill="none" stroke="#000" stroke-linecap="round" stroke-linejoin="round"><path d="m38.84 22.29s4.11 1.55 3.15 4c-.23.59-2-.48-2.77-.07"/><path d="m27 39.29c.5.5 1.67 3.21 3.46 3.21s2.46-3.93 3.08-4.75"/><path d="m24 39.36c-6 0-15.22-.31-15.22-13.38s13.14-16.79 15.22-16.79 15.22 3.73 15.22 16.81-9.22 13.36-15.22 13.36z"/><path d="m9.16 22.29s-4.11 1.55-3.15 4c.23.59 2-.48 2.77-.07"/><path d="m21 39.29c-.5.5-1.67 3.21-3.46 3.21s-2.46-3.93-3.08-4.75"/><path d="m23.55 22.28c2.23 0 7.27-.69 7.27 2.25 0 2.51-4.65 2.26-7.27 2.26"/><path d="m23.55 22.28c-2.23 0-7.27-.69-7.27 2.25 0 2.51 4.66 2.26 7.27 2.26"/><path d="m23.55 22.28c.66 0 1.43-.07 1.42 1.18a1.31 1.31 0 0 1 -1.32 1.18 1.26 1.26 0 0 1 -1.33-1c-.06-1.43.4-1.34 1.23-1.36z"/><path d="m27.38 22.24c.66 0 1.48.05 1.33 1.22a1.36 1.36 0 0 1 -1.33 1.18 1.25 1.25 0 0 1 -1.32-1c-.12-1.64.49-1.37 1.32-1.4z"/><path d="m19.91 22.23c.67 0 1.33 0 1.33 1.23a1.32 1.32 0 0 1 -1.33 1.18 1.24 1.24 0 0 1 -1.32-1c0-1.26.49-1.38 1.32-1.41z"/><path d="m24 9.19a3.46 3.46 0 0 1 2.72-2.85"/><path d="m20.52 5.5a3.77 3.77 0 0 1 3.48 3.69"/><path d="m17.54 14a3.3 3.3 0 0 1 3.46 3.17 3.74 3.74 0 0 1 -3.58 3.44 3.37 3.37 0 0 1 -3.58-3.61c0-2 1.87-3 3.7-3z"/><path d="m17 15.92a.69.69 0 0 1 .64-.14c.6.14 1.38.88 1 1.5a1.3 1.3 0 0 1 -1.72.54c-.61-.28-.19-1.85.11-1.9"/><path d="m29.57 14a3.31 3.31 0 0 0 -3.47 3.22 3.74 3.74 0 0 0 3.58 3.44 3.37 3.37 0 0 0 3.58-3.66c0-2-1.87-3-3.69-3z"/><path d="m30.07 15.92a.69.69 0 0 0 -.64-.14c-.59.14-1.38.88-1 1.5a1.3 1.3 0 0 0 1.72.54c.61-.28.19-1.85-.11-1.9"/></g></svg>