<svg viewBox="0 0 48 48" xmlns="http://www.w3.org/2000/svg"><g fill="none" stroke="#000" stroke-linecap="round" stroke-linejoin="round"><path d="m7.5 5.5a2 2 0 0 0 -2 2v33a2 2 0 0 0 2 2h33a2 2 0 0 0 2-2v-33a2 2 0 0 0 -2-2z"/><path d="m34.4 25.37a12.44 12.44 0 0 0 .1-1.37 12.08 12.08 0 0 0 -.1-1.36l3-2.32a.7.7 0 0 0 .17-.9l-2.8-4.85a.7.7 0 0 0 -.86-.3l-3.48 1.41a10.35 10.35 0 0 0 -2.43-1.38l-.52-3.71a.73.73 0 0 0 -.7-.59h-5.58a.72.72 0 0 0 -.7.59l-.5 3.71a10.41 10.41 0 0 0 -2.37 1.38l-3.48-1.41a.72.72 0 0 0 -.86.3l-2.8 4.85a.71.71 0 0 0 .17.9l2.95 2.32a10.24 10.24 0 0 0 -.11 1.36 12.44 12.44 0 0 0 .09 1.37l-2.95 2.31a.7.7 0 0 0 -.17.9l2.8 4.85a.7.7 0 0 0 .86.3l3.48-1.41a10 10 0 0 0 2.39 1.38l.52 3.71a.72.72 0 0 0 .7.59h5.6a.71.71 0 0 0 .69-.59l.49-3.71a9.86 9.86 0 0 0 2.37-1.38l3.49 1.41a.69.69 0 0 0 .85-.3l2.8-4.85a.7.7 0 0 0 -.17-.9zm-10.4 3.53a4.9 4.9 0 1 1 4.9-4.9 4.9 4.9 0 0 1 -4.9 4.9z"/></g></svg>