<svg viewBox="0 0 48 48" xmlns="http://www.w3.org/2000/svg"><g fill="none" stroke="#000" stroke-linecap="round" stroke-linejoin="round"><path d="m39.23 26a16.52 16.52 0 0 0 .14-2 16.52 16.52 0 0 0 -.14-2l4.33-3.39a1 1 0 0 0 .25-1.31l-4.1-7.11a1 1 0 0 0 -1.25-.44l-5.11 2.06a15.68 15.68 0 0 0 -3.46-2l-.77-5.43a1.05 1.05 0 0 0 -1-.86h-8.2a1 1 0 0 0 -1 .86l-.77 5.43a15.36 15.36 0 0 0 -3.46 2l-5.15-2.06a1 1 0 0 0 -1.25.44l-4.1 7.11a1 1 0 0 0 .25 1.31l4.32 3.39a16.66 16.66 0 0 0 -.14 2 16.52 16.52 0 0 0 .14 2l-4.32 3.39a1 1 0 0 0 -.25 1.31l4.1 7.11a1 1 0 0 0 1.25.44l5.11-2.06a15.68 15.68 0 0 0 3.46 2l.77 5.43a1 1 0 0 0 1 .86h8.2a1 1 0 0 0 1-.86l.77-5.43a15.36 15.36 0 0 0 3.46-2l5.11 2.06a1 1 0 0 0 1.25-.44l4.1-7.11a1 1 0 0 0 -.25-1.31z"/><path d="m23.12 14.67-7.55 3.12v7.66c0 4.12 8.43 8.05 8.43 8.05s8.43-3.93 8.43-8v-7.71l-7.55-3.12a2.33 2.33 0 0 0 -1.76 0z"/><path d="m24 33.5v-19"/><path d="m15.57 24h16.86"/></g></svg>