<svg viewBox="0 0 48 48" xmlns="http://www.w3.org/2000/svg"><g fill="none" stroke="#000" stroke-linecap="round" stroke-linejoin="round"><path d="m19.12 4.5a2 2 0 0 0 -1.95 2v10.12l3.91 14v10.47c-.23 1.08 1.72 2.41 1.72 2.41h14.85a2 2 0 0 0 2-2v-35.05a2 2 0 0 0 -2-1.95z"/><path d="m8.4 35.7v5.85a2 2 0 0 0 1.95 2h5.85a2 2 0 0 0 1.95-2v-5.85a2 2 0 0 0 -1.95-2h-5.85a2 2 0 0 0 -1.95 2z"/><path d="m8.4 25.58v4.64a1.58 1.58 0 0 0 1.6 1.58h4.64a1.58 1.58 0 0 0 1.58-1.58v-4.64a1.58 1.58 0 0 0 -1.6-1.58h-4.62a1.58 1.58 0 0 0 -1.6 1.58z"/></g></svg>