<svg viewBox="0 0 48 48" xmlns="http://www.w3.org/2000/svg"><g fill="none" stroke="#000" stroke-linecap="round" stroke-linejoin="round"><path d="m24 4.5a1.75 1.75 0 0 0 -1.2.51l-13.88 13.87a1.76 1.76 0 0 0 -.51 1.25v21.4a2 2 0 0 0 1.95 2h27.3a2 2 0 0 0 2-2v-21.14a1.82 1.82 0 0 0 0-.57v-13.37a2 2 0 0 0 -2-1.95zm-8.33 13.94a1.68 1.68 0 0 1 1.17.48l1.38 1.38a9.91 9.91 0 0 1 11.56 0l1.38-1.38a1.64 1.64 0 0 1 2.3 0 1.61 1.61 0 0 1 0 2.29l-1.39 1.37a10.06 10.06 0 0 1 1.88 5.8v11a1 1 0 0 1 -1 1h-17.84a1 1 0 0 1 -1-1v-11a9.91 9.91 0 0 1 1.89-5.81l-1.44-1.37a1.61 1.61 0 0 1 0-2.29 1.55 1.55 0 0 1 1.13-.46zm4.15 7.32a1.83 1.83 0 1 0 1.83 1.83 1.83 1.83 0 0 0 -1.83-1.83zm8.36 0a1.83 1.83 0 1 0 0 3.66 1.83 1.83 0 1 0 0-3.66z"/><path d="m22.57 9.76v4.23"/><path d="m27.09 6.87v7.12"/><path d="m31.62 6.87v7.12"/><path d="m36.15 6.87v7.12"/></g></svg>