<svg viewBox="0 0 48 48" xmlns="http://www.w3.org/2000/svg"><g fill="none" stroke="#000" stroke-linejoin="round"><path d="m18.4948 13.3523h23.3552a1.65 1.65 0 0 1 1.6236 1.9427l-3.1571 17.5021a2.193 2.193 0 0 1 -2.1538 1.8037l-23.5849.0469a2.2832 2.2832 0 1 1 0-4.5664h2.6928a2.2832 2.2832 0 0 0 0-4.5664h-4.3269a2.2187 2.2187 0 1 1 0-4.4355h6.0941" stroke-linecap="round"/><path d="m18.4948 13.3523a2.2512 2.2512 0 0 0 -2.2832 2.2177 2.41 2.41 0 0 0 2.5549 2.2764c1.2612.0586 2.0634.7693 2.0634 1.646a1.6989 1.6989 0 0 1 -1.7917 1.5876" stroke-linecap="round"/><path d="m24.2511 29.7659 2.0712-11.4809h11.1153l-2.0712 11.4809z"/><circle cx="6.6988" cy="32.4481" r="2.1988" stroke-linecap="round"/></g></svg>