<svg viewBox="0 0 48 48" xmlns="http://www.w3.org/2000/svg"><g fill="none" stroke="#000" stroke-linecap="round" stroke-linejoin="round"><circle cx="24" cy="24" r="21.5"/><path d="m35.8565 6.0628c-1.763 3.97-8.9126 12.0447-13.5808 12.8858 0 0 5.0888 2.271 12.1963-2.1869a3.9536 3.9536 0 0 0 -.3785 2.5233s6.1058-4.3155 7.1954-8.0666"/><path d="m13.0005 10.53c4.3195 2.2724 11.2815 3.599 20.6052-.8421"/><path d="m35.31 18.3564c3.0728.2978 7.5307-1.8891 7.5307-1.8891a4.6546 4.6546 0 0 0 2.1923 3.06"/><path d="m15.1127 4.4179c-1.7949 3.26-6.6314 16.5914 5.4387 20.6709-6.9393.3364-12.1368-6.7315-9.6642-18.1275"/><path d="m13.2752 21.947c-1.0088 2.4268-7.4138 9.3452-9.3211 9.8393"/><path d="m45.2841 27.0539a7.5548 7.5548 0 0 1 -11.6784 1.5676c.774 3.785 4.2341 4.8785 8.44 3.4486a24.6936 24.6936 0 0 0 -10.7327 12.1542"/><path d="m32.3977 41.79s-6.2528 1.6355-10.122 1.6355c-1.6822-2.6077-7.0514-11.5655-7.5841-14.1455a17.939 17.939 0 0 1 .1145-5.9007"/><path d="m24.4486 30.3458a4.7341 4.7341 0 0 1 3.4486 1.514"/><path d="m36.729 19.527c.4486 1.9029 3.3645 5.3745 5.7757 5.5733a2.7764 2.7764 0 0 0 2.9758-2.0175"/><path d="m38.8067 17.9533c1.7914.3925 5.2755 1.4087 6.4774 2.9894"/><path d="m18.5382 12.3685a9.4235 9.4235 0 0 0 -3.1315.8184c.5466 2.0187 2.8176 4.5421 5.6494 4.57s4.8224-1.3177 5.3271-2.285a6.468 6.468 0 0 0 -2.8863-2.9092"/><path d="m6.9574 29.5892s6.5566 5.1585 9.4445 6.5323c-.0561 1.514.3084 5.8878.3084 5.8878a32.6249 32.6249 0 0 1 4.6549 3.3307"/><path d="m11.7065 24.38a24.3062 24.3062 0 0 0 2.7748 3.6318"/><path d="m29.6215 20.9427a2.0248 2.0248 0 0 0 -1.528 2.2115"/><path d="m40.8846 18.51c-1.7024.2915-2.6231 2.7029-2.005 4.4411"/><path d="m18.8706 12.42a4.1555 4.1555 0 0 0 .9482 5.1641"/><path d="m4.7383 22.65c.757-2.7757 5.691-7.5865 5.691-7.5865"/><path d="m5.5305 12.99a19.087 19.087 0 0 0 4.7314-.98"/><path d="m43.702 19.68c.3562.8993.3587 1.4349-.3983 1.7924a1.1065 1.1065 0 0 1 -1.64-.7415c-.21-.9828.339-1.8374.6584-1.7045"/><path d="m21.476 12.6272c-.42 1.4639.4492 2.8235 2.1385 2.375s1.4232-1.3593 1.4232-1.3593"/></g></svg>