<svg fill="#fff" viewBox="0 0 48 48" xmlns="http://www.w3.org/2000/svg"><g fill="none" stroke="#000" stroke-linecap="round" stroke-linejoin="round"><path d="m24 10.8-11.4 6.6v13.2l11.4 6.6 11.4-6.6v-13.2z"/><circle cx="8.1" cy="14.8" r="3.1"/><circle cx="24" cy="5.6" r="3.1"/><circle cx="39.9" cy="14.8" r="3.1"/><circle cx="39.9" cy="33.2" r="3.1"/><circle cx="24" cy="42.4" r="3.1"/><circle cx="8.1" cy="33.2" r="3.1"/><path d="m12.6 30.6-1.8 1"/><path d="m24 37.2v2.1"/><path d="m24 10.8v-2.1"/><path d="m35.4 30.6 1.8 1"/><path d="m35.4 17.4 1.8-1"/><path d="m12.6 17.4-1.8-1"/><path d="m21.4 29.5v-11h2.5c2.7 0 4.8 2.2 4.8 4.8v1.4c0 2.7-2.2 4.8-4.8 4.8z"/></g></svg>