<svg viewBox="0 0 48 48" xmlns="http://www.w3.org/2000/svg"><g fill="none" stroke="#000" stroke-linecap="round" stroke-linejoin="round"><circle cx="24" cy="24" r="21.5"/><path d="m2.5 23.6c1.89-.89 3.77-1.77 4.65-2.13 0 0 8-13.34 10.49-13.31a3.16 3.16 0 0 1 1.16.17s.77-1.55 2.2-1.55 2.8 1.56 2.8 1.56l3.52.21a11.48 11.48 0 0 1 4.28-.55 2.63 2.63 0 0 1 2.59 2.59c.11 1.46.17 2.37.17 2.37s5.78 3.64 6 7.36 0 4.17 0 4.17l-1.48 2-1.19-1.74-.77 1.86-1.45-1.8-1.13 1.68-.9-1.81-1.44 1.85-.41-1.77-1.41 1.44-.74-1.64-1.57.87-.49-1.61-1.63 1.18-.36-2.28-2 1.19-.07-2.25-1.73.8-.23-1.83a1.64 1.64 0 0 0 -2.17.7 1.93 1.93 0 0 0 0 2.48l1.4-.26.19 2.32 1.64-.42-.06 2.29h2.09v2.09l1.73-.36-.09 2.29 1.86-.9.32 2.28 2-1 .1 2 1.81-1.14.54 1.9 1.61-1.77.52 1.77 1.8-1.71s.8 2.8-.13 3.93-2.64 2-3.92 1.64-10.11-5.18-11.14-5.79-6.53-1.55-9.45.8a56.12 56.12 0 0 0 -4.41 4.13"/><path d="m20.24 10.28a4 4 0 0 1 2.77 2c.31 1 .19 2.41-1 2.32s-2.77-1.44-2.78-2.37.17-1.95 1.01-1.95z"/><path d="m16.59 44.19c1.14-3.44 2.44-7.25 2.72-7.63.51-.71 3.09-3.1 3.09-3.1"/><path d="m32.77 25.57.32 2.07 1.42.39-.77 1.53 1.53.79-.75 1.31 1.61.24.2 1.56"/></g></svg>