<svg viewBox="0 0 48 48" xmlns="http://www.w3.org/2000/svg"><g fill="none" stroke="#000" stroke-linecap="round" stroke-linejoin="round"><path d="m34.41 43.5h5.24a1.84 1.84 0 0 0 1.84-1.84v-19.66a17.42 17.42 0 0 0 -3.31-10.22l2.45-2.41a2.85 2.85 0 0 0 0-4 2.87 2.87 0 0 0 -4 0l-2.46 2.41a17.41 17.41 0 0 0 -20.34 0l-2.43-2.42a2.88 2.88 0 0 0 -4.06 0 2.85 2.85 0 0 0 0 4l2.44 2.41a17.39 17.39 0 0 0 -3.27 10.23v19.66a1.84 1.84 0 0 0 1.84 1.84h20.9349m-12.6449-18.72a3.22 3.22 0 1 1 3.22-3.22 3.22 3.22 0 0 1 -3.22 3.21zm14.72.01a3.22 3.22 0 1 1 3.22-3.22 3.22 3.22 0 0 1 -3.22 3.21z"/><path d="m14.25 31.7763a4.84 4.84 0 0 1 9.5755-.5587l1.2227.1533 1.698-1.32 1.32 1.6981 1.714-1.332 1.32 1.698 1.6981-1.32 1.332 1.714 2.9894.3749 1.32 1.698-1.698 1.32-13.3017-1.6675a4.8243 4.8243 0 0 1 -.9 1.2982"/><path d="m24.7313 40.9851-3.7474-2.0692a4.8322 4.8322 0 1 1 1.4764-2.659l1.0787.5957 2.0663-.5962.5961 2.0663 2.0857-.6017.5961 2.0663 2.0663-.5962.6017 2.0857 2.6375 1.4563.5961 2.0663-2.0663.5962-7.9872-4.41"/><path d="m14.8006 29.4785c-2.2045-.2764-4.11.4415-4.2555 1.6036s1.5233 2.3283 3.7278 2.6048a7.2262 7.2262 0 0 0 1.5744.0294"/></g></svg>