<svg viewBox="0 0 48 48" xmlns="http://www.w3.org/2000/svg"><path d="m40.5 5.5h-33a2 2 0 0 0 -2 2v33a2 2 0 0 0 2 2h33a2 2 0 0 0 2-2v-33a2 2 0 0 0 -2-2z" fill="none" stroke="#000" stroke-linecap="round" stroke-linejoin="round"/><path d="m16.7324 24.925a2 2 0 0 1 2-2" fill="none" stroke="#000" stroke-linecap="round" stroke-linejoin="round"/><path d="m16.7324 22.925v5.3" fill="none" stroke="#000" stroke-linecap="round" stroke-linejoin="round"/><circle cx="20.5374" cy="20.475" r=".7"/><g fill="none" stroke="#000" stroke-linecap="round" stroke-linejoin="round"><path d="m20.5374 22.925v5.3"/><path d="m38.0373 27.2157a1.9994 1.9994 0 0 1 -1.7373 1.0093 2 2 0 0 1 -2-2v-1.3a2 2 0 0 1 2-2 2 2 0 0 1 2 2v.65h-4"/><path d="m26.38 26.225a2 2 0 0 1 -2 2 2 2 0 0 1 -2-2v-1.3a2 2 0 0 1 2-2 2 2 0 0 1 2 2"/><path d="m26.38 28.225v-5.3"/><path d="m32.3609 28.225v-3.3a2 2 0 0 0 -2-2 2 2 0 0 0 -2 2v3.3"/><path d="m28.3609 24.925v-2"/><path d="m9.7005 28.2012 2.5986-7.9762"/><path d="m14.9005 28.225-2.6014-8"/><path d="m14.0303 25.5488h-3.4657"/></g></svg>