<svg viewBox="0 0 48 48" xmlns="http://www.w3.org/2000/svg"><g fill="none" stroke="#000" stroke-linecap="round" stroke-linejoin="round"><path d="m7.48 5.5a2 2 0 0 0 -2 2v33a2 2 0 0 0 2 2h33.04a2 2 0 0 0 2-2v-33a2 2 0 0 0 -2-2z"/><path d="m19.4684 24.3255a3.7205 3.7205 0 0 1 3.7205-3.7205"/><path d="m19.4684 20.605v9.8594"/><path d="m38.0122 28.5869a3.7192 3.7192 0 0 1 -3.2322 1.8775 3.72 3.72 0 0 1 -3.72-3.7205v-2.4184a3.7205 3.7205 0 0 1 3.72-3.7205 3.7205 3.7205 0 0 1 3.72 3.7205v1.2092h-7.441"/><path d="m27.1768 17.5356v11.0685a1.86 1.86 0 0 0 1.86 1.86h.5581"/><path d="m25.2236 20.605h3.9065"/><path d="m16.941 26.7439a3.72 3.72 0 0 1 -3.72 3.7205 3.72 3.72 0 0 1 -3.721-3.7205v-2.4184a3.7205 3.7205 0 0 1 3.72-3.7205 3.7205 3.7205 0 0 1 3.72 3.7205"/><path d="m16.941 30.4644v-9.8594"/></g></svg>