<svg viewBox="0 0 48 48" xmlns="http://www.w3.org/2000/svg"><g fill="none" stroke="#000" stroke-linecap="round" stroke-linejoin="round"><path d="m8.26 12.79h2.08"/><path d="m21.38 12.79h18.36"/><path d="m41.22 13.73 1.98 3.76"/><path d="m42.25 19.21v15.64"/><path d="m43.5 36.65-1.63 3.26"/><path d="m40.18 40.85h-31.92"/><path d="m6.93 39.91-2.18-3.61"/><path d="m5.84 34.83v-15.83"/><path d="m4.5 17.64 1.98-3.41"/><path d="m29.25 24.32v5.3"/><path d="m25.08 32.83h2.32"/><path d="m19.2 29.62v-5.3"/><path d="m14.3 12.79h2.97"/><path d="m19.3 12.79v-5.64"/><path d="m20.88 7.15h-9.8"/><path d="m12.37 7.15v5.64"/><path d="m21.04 32.83h2.33"/><path d="m25.08 21.7h2.32"/><path d="m21.04 21.7h2.33"/></g></svg>