<svg viewBox="0 0 48 48" xmlns="http://www.w3.org/2000/svg"><path d="m27.41 43.47a13.35 13.35 0 0 1 -13.12-12.74 13.76 13.76 0 0 1 .28-3.33 13.55 13.55 0 0 1 1.2-3.4 7.73 7.73 0 0 0 .73-2 4.06 4.06 0 0 0 .12-.91 5.15 5.15 0 0 0 -9.92-2 11.34 11.34 0 0 1 -.35-2.9 11.54 11.54 0 1 1 23.07-.48 11.94 11.94 0 0 1 -2.2 7.29c-1.83 2.82-3.92 5.43-3.92 9a11.52 11.52 0 0 0 8 11 13.29 13.29 0 0 1 -3.87.52zm13.43-13.12a4.62 4.62 0 0 0 -1.91 6.84 13.57 13.57 0 0 1 -5.73 5.09 7.66 7.66 0 0 1 6.24-12.11 7.33 7.33 0 0 1 1.47.15zm.7-7.71a7.26 7.26 0 0 1 -1.35 3.24 13.37 13.37 0 0 0 -3.31-5.24 14.53 14.53 0 0 0 -1.19-1 8 8 0 0 1 -3.31-6.48 8.37 8.37 0 0 1 .34-2.33 5.24 5.24 0 0 0 2.43 3.17 8 8 0 0 0 .94.55l1.36.64v-.09a8.75 8.75 0 0 0 1.77-4.23 6.69 6.69 0 0 1 .48 5.86 5.78 5.78 0 0 1 1.94 4.73 6.22 6.22 0 0 1 -.1 1.22z" fill="none" stroke="#000" stroke-linecap="round" stroke-linejoin="round"/><path d="m32.53 21.51a1.13 1.13 0 1 1 2.26 0 1.14 1.14 0 0 1 -2.27 0z"/></svg>