<svg viewBox="0 0 48 48" xmlns="http://www.w3.org/2000/svg"><g fill="none" stroke="#000" stroke-linecap="round" stroke-linejoin="round"><path d="m22.983 38.87v-4.924l16.745-16.744 2.624 1.205.148 4.717-17.033 17.032z"/><path d="m25.467 40.156v-5.101l-2.484-1.109"/><path d="m25.4672 35.0554 16.8849-16.6484"/><path d="m22.983 38.382-14.637-7.496v-3.637l17.787-17.033 13.395 7.186"/><path d="m22.9832 34.5675-14.6376-7.3188"/><path d="m13.015 22.7772 13.8938 7.2437"/><path d="m15.6644 20.4178 13.5731 7.2744"/><path d="m20.2662 15.8334 13.7174 7.1127"/><path d="m22.6659 13.5355 14.2008 6.5274"/><path d="m26.133 10.216v-.887l-2.949-1.485-17.565 17.52-.119 4.99 2.846 1.419v-.887"/><path d="m5.6185 25.3642 3.1358 1.4931"/></g></svg>