<svg viewBox="0 0 48 48" xmlns="http://www.w3.org/2000/svg"><g fill="none" stroke="#000" stroke-linecap="round" stroke-linejoin="round"><path d="m35.2062 25.0943v16.8184h-23.222v-16.8184z"/><path d="m35.2062 30.9756c11.0617-.6841 9.4562-13.0086 4.421-14.0041-1.6272-4.8857-5.0024-5.3238-8.3072-5.9415-3.537-6.3792-10.197-6.0959-14.4307-1.9259a5.99 5.99 0 0 0 -6.0381 3.5613c-11.5633 5.3246-4.9593 16.4856 1.133 16.7262"/><path d="m34.31 17.4929-5.5041-1.7787-.4881 5.6344z"/><path d="m27.84 29.4042c4.1983-.8964 7.6571-4.2257 3.4736-10.0053"/><path d="m35.2062 36.8189-5.423-5.423-3.9187 3.9187-1.3266-1.3266-7.9248 7.9247"/><circle cx="18.5246" cy="30.7592" r="1.8122"/></g></svg>