<svg viewBox="0 0 48 48" xmlns="http://www.w3.org/2000/svg"><g fill="none" stroke="#000" stroke-linecap="round" stroke-linejoin="round"><path d="m24.03 35.7633 3.4418 2.3849-4.2549 3.4959c-31.5916-20.175-15.5278-31.6406-6.8769-34.2579 3.7872-1.1456 15.8566-2.8641 23.44 4.5325 8.353 8.1478 2.4406 21.4237-15.75 23.8443z"/><path d="m24.9019 12.6055c-5.6874-.47-5.9081 14.7152-11.0306 14.1737-5.0821-.5376-5.11-14.1936 0-14.1737 5.07.0205 3.2216 12.8107 11.0306 14.1737"/><path d="m22.8317 16.3087h4.4868"/><path d="m25.1174 23.0813v-6.7726"/><path d="m30.4922 21.3873a1.6981 1.6981 0 0 1 -1.6932 1.6927 1.6981 1.6981 0 0 1 -1.6931-1.6931v-1.1002a1.6981 1.6981 0 0 1 1.6931-1.6931 1.6981 1.6981 0 0 1 1.6932 1.6931"/><path d="m30.4922 23.0804v-4.4868"/><path d="m32.5285 16.3089v6.7726"/><path d="m34.5643 16.3079v6.7725"/><path d="m34.5643 21.6413 3.0477-3.0477"/><path d="m35.4955 20.71 2.4551 2.3704"/></g></svg>