<svg viewBox="0 0 48 48" xmlns="http://www.w3.org/2000/svg"><g fill="none" stroke="#000" stroke-linecap="round" stroke-linejoin="round"><path d="m5.5 21.8c3.8-2.1 2.2-5.9 7.4-6.9 3.7-.7 5.4 1.5 6 3.6 3.8 12.9 9.5 11.3 13.7 8 2.5-2 5.7-.7 6.4 3.2.8 4.3 2.8 4.1 3.4 4.3"/><path d="m40.5 42.5h-33a2 2 0 0 1 -2-2v-33a2 2 0 0 1 2-2h33a2 2 0 0 1 2 2v33a2 2 0 0 1 -2 2z"/><g stroke-dasharray="0 3.7"><path d="m12.9 9.2v31.4"/><path d="m20.3 9.2v31.4"/><path d="m27.7 9.2v31.4"/><path d="m35.1 9.2v31.4"/><path d="m38.8 12.9h-31.4"/><path d="m38.8 20.3h-31.4"/><path d="m38.8 27.7h-31.5"/><path d="m38.8 35.1h-31.5"/></g></g></svg>