<svg viewBox="0 0 48 48" xmlns="http://www.w3.org/2000/svg"><g fill="none" stroke="#000" stroke-linecap="round" stroke-linejoin="round"><path d="m24 2.5a21 21 0 0 1 13 4.76l1.82-1.82 3.77 3.77-1.84 1.79a21 21 0 0 1 4.75 13 21.59 21.59 0 0 1 -7.1 15.51l-1.94-2-1.91-2c3.26-3.14 5.45-7.34 5.45-11.51a15.22 15.22 0 0 0 -3.29-9l-1.71 1.75-3.75-3.75 1.75-1.75a15.22 15.22 0 0 0 -9-3.25c-7.95 0-16 8.06-16 16 0 4.11 2.16 8.26 5.36 11.31l-2 2.15-1.9 1.93a21.6 21.6 0 0 1 -6.96-15.39c0-11.26 10.24-21.5 21.5-21.5z"/><path d="m40.75 11.03-4 3.99"/><path d="m36.97 7.26-3.99 3.99"/></g></svg>