<svg viewBox="0 0 48 48" xmlns="http://www.w3.org/2000/svg"><g fill="none" stroke="#000" stroke-linecap="round" stroke-linejoin="round"><rect height="20.87" rx="2.03" width="20.87" x="21.63" y="21.07"/><path d="m23.99 23.43h3.71v3.71h-3.71z"/><path d="m23.99 36.1h3.71v3.71h-3.71z"/><path d="m23.99 29.39h3.71v4.45h-3.71z"/><path d="m38.67 31.27-7.94-4.58a.41.41 0 0 0 -.61.35v9.16a.41.41 0 0 0 .61.35l7.94-4.55a.4.4 0 0 0 0-.73z"/><path d="m28.68 9.32-11.4-3.19a2 2 0 0 0 -2.58 2v19.27a6.2 6.2 0 1 0 3.2 5.43c0-.1 0-.2 0-.3v-17.41l10.43 2.88a2 2 0 0 0 2.58-2v-3.74a3.05 3.05 0 0 0 -2.23-2.94z"/></g></svg>