<svg viewBox="0 0 48 48" xmlns="http://www.w3.org/2000/svg"><g fill="none" stroke="#000" stroke-linecap="round" stroke-linejoin="round"><path d="m27.9427 14.4953 12.189.1209a3.2915 3.2915 0 0 1 2.8683 2.8683v22.0417a2.9166 2.9166 0 0 1 -2.8876 2.8876h-28.4265a2.7908 2.7908 0 0 1 -2.8151-2.7664c0-.0178 0-.0357 0-.0535l.0392-12.3439c1.5865 1.4365 3.4922.6287 3.647 4.0678v3.2552h10.6021l.01-7.3279a10.8075 10.8075 0 0 0 4.2323-5.9977c.5026-2.2587-.6147-6.7425.5413-6.7521z"/><rect height="2" rx=".0797" width="2" x="31.0904" y="17.2124"/><rect height="2" rx=".0797" width="2" x="37.2284" y="17.2753"/><rect height="2" rx=".0797" width="2" x="37.2284" y="37.7595"/><rect height="2" rx=".0797" width="2" x="30.8534" y="37.7741"/><rect height="2" rx=".0797" width="2" x="25.0104" y="37.8321"/><rect height="2" rx=".0797" width="2" x="18.7853" y="37.6918"/><rect height="2" rx=".0797" width="2" x="12.5893" y="37.7112"/><path d="m7.057 9.1215c.0726-.29.9239-1.1947 1.248-1.1851a15.7265 15.7265 0 0 0 2.5006.3386c.3241-.1693.1451-1.8574.445-2.0025.3047-.3095 1.6736-.8416 1.8332-.6433.5417.5127 1.3785 1.6059 1.8138 1.6059.4257-.0145 1.4559-1.601 1.9348-1.5188a3.4682 3.4682 0 0 1 1.5575.5272c.29.2806-.0194 2.0509.4256 2.2008.5224.16 2.66-.6143 2.7957-.45.1935.1934.9819.9528.9723 1.2189 0 .4111-.8465 2.0315-.4692 2.1669.1161.3144 1.79.7981 2.1669 1.0593.3386.29.8126.919.6627 1.3591-.0291.5273-1.5914 1.6978-1.5237 2.1138.0629.4256 1.3012 1.422 1.306 1.7461.0048.266-.058 1.393-.3628 1.4994-.3531.29-2.3894.5224-2.3749.8416-.1015.3386.7643 1.5333.5659 1.9928-.1257.4112-.5707 1.4656-.919 1.5285-.3918.1112-2.0266-.3434-2.2878-.1645-.4595.2564-.7546 2.0461-.9577 2.1089a1.8677 1.8677 0 0 1 -1.2673.2806c-.31-.0339-1.6058-1.4027-2.21-1.3834-.3048.0629-1.306 1.3689-1.6639 1.3253a2.4284 2.4284 0 0 1 -1.8332-.445c-.358-.29-.1064-1.7945-.5805-2.1911-.4353-.3095-1.9347.6482-2.3072.387-.6771-.2564-1.3591-.6772-1.3349-1.0835-.0194-.3869.7352-2.08.3869-2.3894-.3628-.3289-1.93-.208-1.9976-.5563a9.4087 9.4087 0 0 1 -.58-1.9154c-.0581-.45 1.77-1.2866 1.7751-1.6687-.0153-.3722-1.6453-1.3252-1.6647-1.7217a3.0839 3.0839 0 0 1 .3337-1.64c.2806-.3773 1.8236-.3241 2.167-.6627.2176-.2225-.8078-2.37-.5563-2.6748z"/><path d="m9.5287 16.3962c-.1113-.2177-.179-3.4052.4982-3.3907a2.0138 2.0138 0 0 1 1.6058 1.1125 4.0619 4.0619 0 0 1 -.295 2.312.9685.9685 0 0 1 -1.809-.0338zm3.2794-5.8769a8.0581 8.0581 0 0 1 3.231-.28c.3048.2031-.4208 1.9638-.7739 2.225-.3144.324-1.9009-.0726-2.1959-.2467-1.4317-.8228-.5993-1.3403-.2612-1.6983zm6.0219 1.1464c1.2383 1.1318 2.1525 3.1681 1.79 3.3568-1.9638.6288-2.68-.7159-2.9941-2.2492-.0725-.6288 1.0013-1.2963 1.2093-1.1125zm.832 7.1537a7.0954 7.0954 0 0 1 -2.622 2.1138 2.37 2.37 0 0 1 -.0726-2.0606 2.9906 2.9906 0 0 1 1.959-1.34c.8036-.2174 1.287.5952.7356 1.2868zm-6.2735 2.4669c-.7062.0048-2.7231-1.34-2.5345-1.6252a1.8525 1.8525 0 0 1 1.7993-.9674 2.6373 2.6373 0 0 1 1.8187 1.1608c.5998.7014-.0967 1.4269-1.0835 1.4318z"/><circle cx="14.917" cy="15.7722" r="1.1947"/><path d="m29.8 21.7119h7.9615a1.3673 1.3673 0 0 1 1.4753 1.2237v10.559a1.3673 1.3673 0 0 1 -1.4753 1.2237h-7.9615a1.3673 1.3673 0 0 1 -1.4752-1.2237v-10.559a1.3673 1.3673 0 0 1 1.4752-1.2237z"/></g></svg>