<svg viewBox="0 0 48 48" xmlns="http://www.w3.org/2000/svg"><g fill="none" stroke="#000" stroke-linecap="round" stroke-linejoin="round"><path d="m8.8429 43.5h30.3142"/><rect height="26.8958" rx="1.6555" width="7.0518" x="13.4223" y="13.5728"/><path d="m13.4223 18.6161h7.0518"/><rect height="26.8958" rx="1.6555" width="7.0518" x="20.4741" y="13.5728"/><path d="m20.4741 18.6161h7.0518"/><rect height="26.8958" rx="1.6555" width="7.0518" x="27.5259" y="13.5728"/><path d="m27.5259 18.6161h7.0518"/><path d="m37.5124 17.0019c0-8.0207-5.4916-12.5019-13.5124-12.5019s-13.5124 4.4812-13.5124 12.5019"/><path d="m9.504 17.0019h.9836a0 0 0 0 1 0 0v9.5135a0 0 0 0 1 0 0h-.9836a3.2625 3.2625 0 0 1 -3.2625-3.2625v-2.9884a3.2625 3.2625 0 0 1 3.2625-3.2626z"/><path d="m40.7749 17.0019h.9836a0 0 0 0 1 0 0v9.5135a0 0 0 0 1 0 0h-.9836a3.2625 3.2625 0 0 1 -3.2625-3.2625v-2.9884a3.2625 3.2625 0 0 1 3.2625-3.2626z" transform="matrix(-1 0 0 -1 79.2709 43.5174)"/></g></svg>