<svg viewBox="0 0 48 48" xmlns="http://www.w3.org/2000/svg"><g fill="none" stroke="#000" stroke-linecap="round"><path d="m6.63 36.5h34.74a.12.12 0 0 1 .13.12v6.76a.12.12 0 0 1 -.13.12h-34.74a.12.12 0 0 1 -.13-.12v-6.76a.12.12 0 0 1 .13-.12z"/><path d="m6.63 4.5h34.74a.12.12 0 0 1 .13.12v6.76a.12.12 0 0 1 -.13.12h-34.74a.12.12 0 0 1 -.13-.12v-6.76a.12.12 0 0 1 .13-.12z"/><path d="m6.63 25.83h34.74a.13.13 0 0 1 .13.12v6.76a.12.12 0 0 1 -.13.12h-34.74a.12.12 0 0 1 -.13-.12v-6.71a.13.13 0 0 1 .13-.17z"/><path d="m6.63 15.17h34.74a.12.12 0 0 1 .13.12v6.76a.13.13 0 0 1 -.13.12h-34.74a.13.13 0 0 1 -.13-.12v-6.76a.12.12 0 0 1 .13-.12z"/></g></svg>