<svg viewBox="0 0 48 48" xmlns="http://www.w3.org/2000/svg"><g fill="none" stroke="#000" stroke-linecap="round" stroke-linejoin="round"><path d="m20.65 31c-1.58-.82-4.84-7.19 3.35-7.19 4.9 0 6.61 3.63 6.61 5.6s-2 5-6.61 5-12-3.72-12-9.41c0-8.46 20.49-7 20.49-16.29 0-2.23-1-4.2-2.62-4.2-5.47-.01-5.87 9.49-5.87 16.95v22"/><path d="m24 42.13c4.58 0 9.33.18 13.64-10.29"/><path d="m33.23 34.72a5.87 5.87 0 0 0 4.41-2.88s1 5.46-.62 7.32"/><path d="m24 42.13c-4.58 0-9.33.18-13.64-10.29"/><path d="m14.77 34.72a5.87 5.87 0 0 1 -4.41-2.88s-1 5.46.62 7.32"/><path d="m26.15 42.1c-.78 0-2.15.15-2.15 1.4"/><path d="m21.85 42.1c.78 0 2.15.15 2.15 1.4"/></g></svg>