<svg viewBox="0 0 48 48" xmlns="http://www.w3.org/2000/svg"><g fill="none" stroke="#000" stroke-linecap="round" stroke-linejoin="round"><path d="m23.8869 8.6614a19.2648 19.2648 0 0 0 -19.2277 19.2235c0 .0993.0067.1977.0082.2966h5.1746c-.002-.0989-.0081-.1972-.0081-.2966a14.0514 14.0514 0 0 1 28.1028 0c0 .0994-.0061.1977-.0081.2966h5.1746c.0014-.0989.0081-.1973.0081-.2966a19.2629 19.2629 0 0 0 -19.2255-19.2235z"/><path d="m24.2462 18.2965a10.2187 10.2187 0 0 0 -10.1916 9.8846h4.5567a5.6444 5.6444 0 0 1 11.2719 0h4.5568a10.22 10.22 0 0 0 -10.1938-9.8846z"/><path d="m8.2948 34.91a1.8974 1.8974 0 0 1 -3.7948 0v-1.2243a1.8974 1.8974 0 0 1 3.7948 0"/><path d="m8.2948 36.795v-4.9929"/><path d="m10.1759 31.8661v3.1087a1.8974 1.8974 0 0 0 3.7948 0v-3.1087"/><path d="m13.9713 34.9743v1.8846"/><path d="m15.9167 34.9114a1.8974 1.8974 0 0 0 3.7948 0v-1.2246a1.8974 1.8974 0 0 0 -3.7948 0"/><path d="m15.9167 31.8021v7.5365"/><path d="m21.4889 29.2586v7.5364"/><path d="m21.4889 33.6857a1.8974 1.8974 0 0 1 3.7948 0v3.1088"/><path d="m29.0222 36.9459a1.8964 1.8964 0 0 1 -1.8974-1.8841v-1.2247a1.8974 1.8974 0 0 1 3.7948 0v1.2247a1.8964 1.8964 0 0 1 -1.8974 1.8841z"/><path d="m36.4287 36.882v-3.1088a1.8974 1.8974 0 0 0 -3.7948 0v3.1088"/><path d="m32.6333 33.7737v-1.8846"/><path d="m38.1813 31.9373v4.9928"/><path d="m43.5 36.0439a1.8384 1.8384 0 0 1 -1.6129.942 1.8963 1.8963 0 0 1 -1.8971-1.8841v-1.2246a1.8964 1.8964 0 0 1 1.8974-1.8841 1.8386 1.8386 0 0 1 1.6129.942"/></g></svg>