<svg viewBox="0 0 48 48" xmlns="http://www.w3.org/2000/svg"><g fill="none" stroke="#000" stroke-linecap="round" stroke-linejoin="round"><path d="m21.84 33.87h4.33l-2.17-3.83z"/><path d="m41.38 19.84h-7.86l-7.77-13a2 2 0 0 0 -3.5 0l-7.77 13h-7.86a3.12 3.12 0 0 0 -3 3.93l4.38 16.31a2.84 2.84 0 0 0 2.74 2.1h26.5a2.84 2.84 0 0 0 2.76-2.1l4.41-16.31a3.12 3.12 0 0 0 -3.03-3.93zm-17.38-8 4.77 8h-9.54zm6.35 24.33a1.7 1.7 0 0 1 -1.46.84h-9.78a1.69 1.69 0 0 1 -1.47-2.52l4.89-8.62a1.69 1.69 0 0 1 2.94 0l4.89 8.62a1.71 1.71 0 0 1 -.01 1.68z"/></g></svg>