<svg viewBox="0 0 48 48" xmlns="http://www.w3.org/2000/svg"><path d="m43.8 30.7-4.1 7.11a1 1 0 0 1 -1.25.44l-5.11-2.06a15.36 15.36 0 0 1 -3.46 2l-.77 5.43a1 1 0 0 1 -1 .86h-8.2a1 1 0 0 1 -1-.86l-.77-5.43a15.68 15.68 0 0 1 -3.46-2l-5.14 2.06a1 1 0 0 1 -1.25-.44l-4.1-7.11a1 1 0 0 1 .25-1.31l4.32-3.39a16.52 16.52 0 0 1 -.14-2 16.66 16.66 0 0 1 .14-2l-4.32-3.39a1 1 0 0 1 -.25-1.31l4.1-7.11a1 1 0 0 1 1.25-.44l5.11 2.06a15.36 15.36 0 0 1 3.46-2l.77-5.43a1 1 0 0 1 1-.86h8.2a1.05 1.05 0 0 1 1 .86l.77 5.43a15.68 15.68 0 0 1 3.46 2l5.11-2.06a1 1 0 0 1 1.25.44l4.1 7.11a1 1 0 0 1 -.25 1.31l-4.29 3.39a16.52 16.52 0 0 1 .14 2 16.52 16.52 0 0 1 -.14 2l4.32 3.39a1 1 0 0 1 .25 1.31zm-18.33-11.84a1.69 1.69 0 0 0 -2.94 0l-4.89 8.62a1.69 1.69 0 0 0 1.47 2.52h9.78a1.69 1.69 0 0 0 1.47-2.52zm-3.47 7.76 2-3.51 2 3.51z" fill="none" stroke="#000" stroke-linecap="round" stroke-linejoin="round"/></svg>