<svg viewBox="0 0 48 48" xmlns="http://www.w3.org/2000/svg"><path d="m31.76 8.91a2.38 2.38 0 0 1 1.7.7l6.5 6.5a12.14 12.14 0 0 1 .23 16.89l-.11.13-.08.07v.06l-.13.12a12.15 12.15 0 0 1 -16.91-.24l-6.49-6.49a2.41 2.41 0 0 1 3.4-3.41l6.49 6.5a7.23 7.23 0 1 0 10.19-10.23l-6.49-6.51a2.4 2.4 0 0 1 1.7-4.1zm-15.1 2.41a12.12 12.12 0 0 1 8.42 3.54l6.49 6.5a2.4 2.4 0 0 1 -3.4 3.39l-6.49-6.49a7.23 7.23 0 1 0 -10.23 10.23l6.49 6.51a2.4 2.4 0 0 1 -3.4 3.4l-6.54-6.5a12.15 12.15 0 0 1 -.19-16.9l.11-.13.08-.07v-.06l.13-.11a12.09 12.09 0 0 1 8.49-3.31z" fill="none" stroke="#000" stroke-linecap="round" stroke-linejoin="round"/></svg>