<svg viewBox="0 0 48 48" xmlns="http://www.w3.org/2000/svg"><g fill="none" stroke="#000" stroke-linecap="round" stroke-linejoin="round"><circle cx="24" cy="24" r="13"/><path d="m44.3452 20.8267-3.5507-1.02v.0788a17.1782 17.1782 0 0 0 -2.0163-4.86l.0626.0626 1.7892-3.2305a1.5951 1.5951 0 0 0 -.2676-1.9l-2.32-2.32a1.5951 1.5951 0 0 0 -1.9-.2676l-3.2317 1.79.06.06a17.1755 17.1755 0 0 0 -4.86-2.0154h.0819l-1.02-3.55a1.5949 1.5949 0 0 0 -1.5326-1.1546h-3.28a1.5947 1.5947 0 0 0 -1.5329 1.1547l-1.02 3.5508h.0788a17.1759 17.1759 0 0 0 -4.86 2.0163l.0627-.0628-3.2311-1.789a1.5951 1.5951 0 0 0 -1.9.2675l-2.32 2.32a1.5951 1.5951 0 0 0 -.2674 1.9l1.79 3.2318.06-.06a17.1711 17.1711 0 0 0 -2.0153 4.86v-.0819l-3.55 1.02a1.595 1.595 0 0 0 -1.1548 1.5326v3.28a1.5951 1.5951 0 0 0 1.1548 1.5331l3.5507 1.02v-.0788a17.1776 17.1776 0 0 0 2.0163 4.86l-.0626-.0626-1.7892 3.2307a1.5951 1.5951 0 0 0 .2675 1.9005l2.32 2.32a1.5948 1.5948 0 0 0 1.9.2674l3.2318-1.79-.06-.06a17.1726 17.1726 0 0 0 4.86 2.0154h-.0819l1.0195 3.55a1.5949 1.5949 0 0 0 1.5331 1.1543h3.28a1.5948 1.5948 0 0 0 1.533-1.1547l1.02-3.5508h-.0788a17.1785 17.1785 0 0 0 4.86-2.0164l-.0628.0629 3.2311 1.789a1.5949 1.5949 0 0 0 1.9-.2674l2.32-2.32a1.5952 1.5952 0 0 0 .2675-1.9005l-1.79-3.2318-.06.06a17.1705 17.1705 0 0 0 2.0153-4.86v.0819l3.55-1.02a1.595 1.595 0 0 0 1.1547-1.5322v-3.28a1.595 1.595 0 0 0 -1.1548-1.5333z"/><circle cx="27.0814" cy="19.2446" r="2.4713"/><circle cx="27.0814" cy="28.7554" r="2.4713"/><circle cx="18.9186" cy="23.8128" r="2.4713"/><path d="m21.0254 25.0885 3.9467 2.3897"/><path d="m23.849 21.0536 1.0854-.6074"/><path d="m21.0676 22.6101 1.1583-.6482"/></g></svg>