<svg viewBox="0 0 48 48" xmlns="http://www.w3.org/2000/svg"><g fill="none" stroke="#000" stroke-linecap="round" stroke-linejoin="round"><path d="m12 19.77a11.13 11.13 0 0 0 -2.26.94l.26 4.53-4.56-.24a11.13 11.13 0 0 0 -.94 2.26l3.37 3.05-3.37 3a10.68 10.68 0 0 0 .94 2.26l4.56-.18-.23 4.54a11.09 11.09 0 0 0 2.26.93l3.05-3.37 3 3.37a10.64 10.64 0 0 0 2.26-.93l-.23-4.54 4.54.23a10.64 10.64 0 0 0 .93-2.26l-3.37-3 3.37-3.05a11.09 11.09 0 0 0 -.92-2.31l-4.54.23.23-4.53a10.68 10.68 0 0 0 -2.26-.94l-3 3.37z"/><circle cx="15.05" cy="30.32" r="3.96"/><path d="m29.91 7.14a11 11 0 0 0 -2.27.93l.24 4.54-4.54-.23a10.64 10.64 0 0 0 -.93 2.26l3.36 3-3.36 3.05a11.09 11.09 0 0 0 .93 2.31l4.54-.23-.24 4.53a11 11 0 0 0 2.27.94l3-3.37 3 3.37a11.13 11.13 0 0 0 2.26-.94l-.17-4.54 4.53.23a11.13 11.13 0 0 0 .94-2.26l-3.37-3.05 3.37-3a10.68 10.68 0 0 0 -.94-2.26l-4.53.19.23-4.54a11 11 0 0 0 -2.23-.93l-3 3.37z"/><circle cx="32.95" cy="17.68" r="3.96"/></g></svg>