<svg viewBox="0 0 48 48" xmlns="http://www.w3.org/2000/svg"><g fill="none" stroke="#000" stroke-linecap="round" stroke-linejoin="round"><path d="m23.2711 2.5133a21.5 21.5 0 0 1 22.0896 18.8667"/><path d="m24.3967 45.4967a21.5 21.5 0 0 1 -21.7574-19.2495"/><path d="m19.0507 5.0567 23.6917 23.7315a.7225.7225 0 0 1 -.029 1.0207l-13.2151 13.193a.7225.7225 0 0 1 -1.0207.0272l-23.6918-23.7315a.7225.7225 0 0 1 .029-1.0206l13.2152-13.193a.7227.7227 0 0 1 1.0207-.0273z"/><path d="m23.2711 2.5133 6.19 6.4112 3.5003-4.4775"/><path d="m24.3967 45.4967-6.6711-6.1641-3.2489 3.9326"/></g></svg>