<svg viewBox="0 0 48 48" xmlns="http://www.w3.org/2000/svg"><g fill="none" stroke="#000" stroke-linecap="round" stroke-linejoin="round"><path d="m26.17 15.82 9.45-.04-9.65 4.83-1.5-3.84"/><path d="m24.47 12.75 1.5-3.84 9.65 4.82-9.45-.03"/><path d="m12.4 23.84a3.53 3.53 0 0 1 -3.52 3.52 3.52 3.52 0 1 1 3.52-3.52z"/><path d="m33.81 25.19a2.89 2.89 0 0 1 1-2.38 1.77 1.77 0 0 1 2.19-.07 2.89 2.89 0 0 1 1.14 2.32"/><path d="m24.89 25.19a2.9 2.9 0 0 1 1-2.38 1.77 1.77 0 0 1 2.15-.07 3 3 0 0 1 1.14 2.32"/><path d="m37.49 28.91a6.34 6.34 0 0 1 -3 5.45 5.76 5.76 0 0 1 -6 0 6.34 6.34 0 0 1 -3-5.45"/><path d="m20.44 30.26a4.4 4.4 0 1 0 0 8.79"/><circle cx="24.47" cy="14.76" r="2.01"/><path d="m11.46 26.22 5.77 5.43"/><path d="m22.55 15.36-10.87 6.36"/><rect height="39" rx="2" width="22.2" x="20.44" y="4.5"/><path d="m27.16 9.5h15.48"/><path d="m20.44 38.5h22.2"/><path d="m25.74 9.5h-5.3"/></g></svg>