<svg viewBox="0 0 48 48" xmlns="http://www.w3.org/2000/svg"><g fill="none" stroke="#000" stroke-linecap="round" stroke-linejoin="round"><path d="m5.5 5.5v37h28.35v-8.3168h8.65v-28.6832z" opacity=".9948"/><path d="m16.089 27.266-3.148-9.865-3.269 9.865"/><path d="m10.7611 23.937h4.2379"/><path d="m24.669 20.716-2.058 6.535-1.937-6.535-2.059 6.535-1.937-6.535"/><path d="m36.0275 27.2694-2.5427-6.5356"/><path d="m38.3279 20.7338-3.0269 8.8785a1.4189 1.4189 0 0 1 -1.3318.9865h-.3633"/><path d="m31.1076 24.79a2.4219 2.4219 0 1 1 -4.843 0v-1.6035a2.4219 2.4219 0 1 1 4.843 0"/><path d="m32.0762 27.2558a1.0514 1.0514 0 0 1 -.9686-.9865v-5.5493"/><path d="m33.85 42.5 8.65-8.3168"/></g></svg>