<svg viewBox="0 0 48 48" xmlns="http://www.w3.org/2000/svg"><g fill="none" stroke="#000" stroke-linecap="round" stroke-linejoin="round"><path d="m41.34 31.4a5 5 0 0 1 -5-5v-4.78a5 5 0 0 1 5-5h1.16v-9.12a2 2 0 0 0 -2-2h-33a2 2 0 0 0 -2 2v9.12h1.16a5 5 0 0 1 5 5v4.78a5 5 0 0 1 -5 5h-1.16v9.1a2 2 0 0 0 2 2h33a2 2 0 0 0 2-2v-9.1z"/><rect height="23.92" rx="6" width="18.05" x="14.99" y="13.07"/><rect height="16.04" rx="3" width="12.79" x="17.62" y="15.7"/><path d="m19.57 27v1.27a1.5 1.5 0 0 0 1.5 1.5h1.27"/></g></svg>