<svg viewBox="0 0 48 48" xmlns="http://www.w3.org/2000/svg"><g fill="none" stroke="#000" stroke-linecap="round" stroke-linejoin="round"><path d="m18.61 27.2c0-3.58 1.83-5.92 5.41-5.92s5.37 2.34 5.37 5.92"/><path d="m17.54 31s-.16 5.89 1.07 8.08 5.39 4.82 5.39 4.82 4.15-2.66 5.39-4.85 1.07-8.05 1.07-8.05-4.24-1.64-6.46-1.64-6.46 1.64-6.46 1.64z"/><path d="m13.33 16.75a18.38 18.38 0 0 1 10.67-3.61 18.32 18.32 0 0 1 10.6 3.61"/><path d="m6.76 11a26.7 26.7 0 0 1 17.24-6.1c6.14 0 12.82 2.15 17.24 6.14"/><path d="m24 32.39a1.72 1.72 0 0 0 -1.71 1.71 1.67 1.67 0 0 0 .5 1.2l-.49 3.42h3.41l-.51-3.42a1.67 1.67 0 0 0 .5-1.2 1.71 1.71 0 0 0 -1.7-1.71z"/></g></svg>