<svg viewBox="0 0 48 48" xmlns="http://www.w3.org/2000/svg"><g fill="none" stroke="#000" stroke-linecap="round" stroke-linejoin="round"><path d="m40.5 5.5h-33a2 2 0 0 0 -2 2v33a2 2 0 0 0 2 2h33a2 2 0 0 0 2-2v-33a2 2 0 0 0 -2-2z"/><path d="m24.19 24-3.31 4.38"/><path d="m27.5 19.62-1.76 2.33"/><path d="m29.7 31.3-8.82-11.68"/><path d="m31.81 27.64a3.72 3.72 0 0 0 2.72.74h.75a2.19 2.19 0 0 0 2.18-2.19 2.19 2.19 0 0 0 -2.18-2.19h-1.49a2.18 2.18 0 0 1 -2.18-2.19 2.18 2.18 0 0 1 2.18-2.19h.74a3.73 3.73 0 0 1 2.73.74"/><path d="m17.15 25.08a3.31 3.31 0 0 1 -3.31 3.3 3.3 3.3 0 0 1 -3.3-3.3v-2.16a3.3 3.3 0 0 1 3.3-3.3 3.31 3.31 0 0 1 3.31 3.3"/><path d="m17.15 28.38v-8.76"/></g></svg>