<svg viewBox="0 0 48 48" xmlns="http://www.w3.org/2000/svg"><g fill="none" stroke="#000" stroke-linecap="round" stroke-linejoin="round"><circle cx="24" cy="24" r="21.5"/><path d="m32.747 4.3544c-1.3838.6115-5.219 2.4166-5.219 2.4166a6.9945 6.9945 0 0 1 -1.808 5.4673c-8.58 1.4717-16.6125 12.3224-18.9256 19.0935a14.88 14.88 0 0 1 -1.2617-7.0654 9.7205 9.7205 0 0 1 -3.0183.5087"/><path d="m27.528 6.771c-7.6542.799-13.542 2.3131-18.0841 6.4767-3.1761 2.9114-3.9112 11.0187-3.9112 11.0187"/><path d="m39.0849 24.2664c.5051 5.4953-4.7649 12.6378-6.3379 14.4672-3.3685.0421-10.6395-1.6354-12.3264-3.3224-1.6823-2.2079-4.8575-5.3621-6.5187-7.1285"/><path d="m26.1822 33.3925c.5468-1.0724 3.4907-2.986 4.0164-4.1425"/><path d="m21.7664 28.0514v1.4509a5.2954 5.2954 0 0 0 1.8294.9042"/><path d="m29.2523 16.1075a73.5015 73.5015 0 0 0 15.866 11.9439"/><path d="m34.2261 14.8334a5.365 5.365 0 0 0 .136.8535l8.0748 7.9276"/><path d="m39.0724 20.229c.5468-1.0514.9253-5.11.3785-6.0982s-2.5233-3.2172-4.1635-2.1658a2.2278 2.2278 0 0 0 -.9195 1.2557"/><path d="m42.1926 26.303 2.3139 4.1757s-4.5719 1.0914-9.31 7.2316c1.2336 1.7383.3925 3.7723 0 4.6478"/><path d="m34.6196 36.2607.9805.9378"/><path d="m17.4684 16.3755c1.6064 1.0567 6.6952 1.3932 9.5339 1.0147a56.0286 56.0286 0 0 1 -5.7823-1.9556c3.0491.21 9.2313.2553 11.6075 1.0529a14.4529 14.4529 0 0 0 -4.5-2.21s5.6145.0421 8.7477 1.3458c-1.0725-1.6191-7.8225-5.9088-7.8225-5.9088"/><path d="m23.4065 22.3107c-.1472-1.1775.7571-3.1692 2.04-4.77"/><path d="m25.8993 17.0646a4.0615 4.0615 0 0 1 2.2907-.7046"/><path d="m23.4219 21.6342c1.7089.3611 4.4216 1.0971 5.3678-.88a3.3262 3.3262 0 0 0 -1.4039-4.3061"/><path d="m24.6246 18.7009a3.8493 3.8493 0 0 0 4.0187 2.3141"/><path d="m20.5327 27.1121c-1.0093.0141-3.9241.2659-4.52 3.3713"/><path d="m19.7856 27.1634c1.1256.4955 2.3593 2.0936.5368 3.65a3.0925 3.0925 0 0 1 -3.652.3586"/><path d="m17.3472 28.1284c-.1089.8342 1.2509 3.0772 2.9752 2.6847"/><path d="m11.8309 22.3107c.0523 2.6916 1.02 7.8435 6.2976 12.743-2.4182-.021-6.6659-2.04-7.6542-5.299a11.6791 11.6791 0 0 0 4.1215 8.6c-3.28-.5887-7.0856-4.9623-7.6328-7.4963"/><path d="m19.4 45.0065s-3.4656-4.156-3.83-5.4738a21.5763 21.5763 0 0 0 .2681 4.3636"/><path d="m14.2453 43.1645c-1.0584-1.5851-1.2753-2.97-1.7-5.6"/><path d="m35.8251 39.42c-1.3858.2533-4.7644 3.8127-5.6265 5.1732"/><path d="m26.51 39.5327a28.3038 28.3038 0 0 0 4.1375 4.4373"/><path d="m30.43 39.9813a13.6438 13.6438 0 0 0 2.4189 1.578"/><path d="m20.785 38.7344c.3926 1.8077 2.9466 5.5147 4.1509 6.7453"/><path d="m17.1612 25.4229a14.4848 14.4848 0 0 0 -2.6075 1.9135"/><path d="m19.0989 17c.817 1.5467 4.0974 3.8178 4.0974 3.8178s-3.6589.7321-4.6262.1978c.2523.3909.2313 1.211 2.46 1.968-2.4813.1683-6.5533-1.982-7.1774-3.1253"/><path d="m21.0988 19.19a6.04 6.04 0 0 1 1.1555-1.7289"/></g></svg>