<svg viewBox="0 0 48 48" xmlns="http://www.w3.org/2000/svg"><g fill="none" stroke="#000" stroke-linecap="round" stroke-linejoin="round"><path d="m40.7172 30.2783a62.0166 62.0166 0 0 1 -6.302-1.11 3.1108 3.1108 0 0 0 -3.0009.58c-.53.54-2.0607 2.0506-3.6511 3.6111a28.6984 28.6984 0 0 1 -13.1041-13.1142c1.55-1.5905 3.0009-3.1109 3.5911-3.6411a3.111 3.111 0 0 0 .58-3.0009 61.8391 61.8391 0 0 1 -1.11-6.312 2 2 0 0 0 -2.196-1.7842c-.0351.0036-.07.0082-.1049.0136h-8.5226a1.5006 1.5006 0 0 0 -1.36 1.37c-.55 7.6924 3.7412 15.9249 4.6115 17.5054v.06l.12.23a35.45 35.45 0 0 0 13.0041 13.004l.44.25c2.0006 1.06 9.9531 5.0616 17.3854 4.5114a1.437 1.437 0 0 0 1.39-1.36v-8.5123a2.131 2.131 0 0 0 -1.6656-2.2871c-.0349-.0055-.0698-.01-.1049-.0137z"/><path d="m24.9144 22.2a6.189 6.189 0 0 1 -1.9351-3.5114h12.1957a6.4743 6.4743 0 0 1 -2.0189 3.6035m-3.0221 1.4079a8.0391 8.0391 0 0 1 -1.1011.1141 6.2234 6.2234 0 0 1 -1.1345-.1141"/><circle cx="25.8926" cy="24.0964" r="2.0006"/><circle cx="32.0945" cy="24.0964" r="2.0006"/><path d="m21.4912 16.9942h1l.4878 1.6948"/><path d="m29.6277 11.4337v5.3154h5.6008a6.2019 6.2019 0 0 0 -5.601-5.3152z"/></g></svg>