<svg viewBox="0 0 48 48" xmlns="http://www.w3.org/2000/svg"><g fill="none" stroke="#000" stroke-linecap="round" stroke-linejoin="round"><rect height="31.7067" rx="1.238" width="16.6075" x="15.6963" y="8.1467"/><path d="m32.3038 13.2475h5.5622a1.2349 1.2349 0 0 1 1.2372 1.238v19.0275a1.2349 1.2349 0 0 1 -1.2372 1.238h-5.4295m-17.0608 0h-5.2412a1.2348 1.2348 0 0 1 -1.2371-1.238v-19.0275a1.2348 1.2348 0 0 1 1.2371-1.238h5.5623"/><path d="m39.1034 16.3843h3.16a1.2348 1.2348 0 0 1 1.2366 1.238v12.755a1.2348 1.2348 0 0 1 -1.2371 1.2379h-3.16m-30.2068 0h-3.159a1.2348 1.2348 0 0 1 -1.2371-1.2379v-12.755a1.2348 1.2348 0 0 1 1.2371-1.238h3.1595"/></g></svg>