<svg viewBox="0 0 48 48" xmlns="http://www.w3.org/2000/svg"><g fill="none" stroke="#000" stroke-linecap="round" stroke-linejoin="round"><rect height="22.1939" rx=".7863" width="5.2913" x="20.2038" y="12.8505"/><rect height="22.1939" rx=".7863" width="5.2913" x="25.495" y="12.8505"/><rect height="21.0548" rx=".7863" transform="matrix(.98127989 -.19258705 .19258705 .98127989 -4.0662 7.2018)" width="4.5564" x="32.7338" y="13.9896"/><rect height="18.9603" rx=".7863" width="4.2624" x="39.2376" y="16.0841"/><path d="m25.495 25.7939h5.2913"/><path d="m25.495 30.2584h5.2913"/><path d="m20.2038 30.8371h5.2912"/><path d="m20.2038 28.3568h5.2912"/><path d="m20.2038 18.8215h5.2912"/><path d="m20.2038 16.3413h5.2912"/><path d="m41.3688 29.5327v-7.9369"/><rect height="18.9603" rx=".7863" transform="matrix(.98439495 .17597325 -.17597325 .98439495 4.7543 -2.4839)" width="4.2624" x="14.2511" y="16.0841"/><rect height="17.7877" rx=".7863" transform="matrix(.90761782 .41979744 -.41979744 .90761782 11.8896 -1.7455)" width="4.2624" x="7.7795" y="17.2476"/><path d="m15.684 29.4707 1.3967-7.813"/></g></svg>