<svg viewBox="0 0 48 48" xmlns="http://www.w3.org/2000/svg"><g fill="none" stroke="#000" stroke-linecap="round" stroke-linejoin="round"><circle cx="27.3172" cy="20.0823" r="3.7942"/><path d="m21.9 28.8659 2.6179-4.21"/><path d="m24.8918 29.6159 2.6455-4.2543"/><path d="m19.8637 26.6128 2.5587-4.1148"/><path d="m5.6276 31.2229a31.2 31.2 0 0 1 22.8459 11.2558"/><path d="m16.8629 27.55 8.916 5.1479-1.4689 2.5875a31.993 31.993 0 0 0 -9.0035-5.0182z"/><path d="m40.5 5.5h-33a2 2 0 0 0 -2 2v33a2 2 0 0 0 2 2h33a2 2 0 0 0 2-2v-33a2 2 0 0 0 -2-2z"/><path d="m5.6183 11.6555h7.9917v-6.1555"/><path d="m34.39 5.5v6.1555h7.8947"/><path d="m15.973 5.5v6.1555h16.054v-6.1555"/></g></svg>