<svg viewBox="0 0 48 48" xmlns="http://www.w3.org/2000/svg"><g fill="none" stroke="#000" stroke-linecap="round" stroke-linejoin="round"><path d="m28.9333 5.5h6.328a.9488.9488 0 0 1 .9487.9487v2.8462h4.3926a1.8974 1.8974 0 0 1 1.8974 1.8974v29.41a1.8974 1.8974 0 0 1 -1.8974 1.8977h-16.707a1.8974 1.8974 0 0 1 -1.8974-1.8974v-29.41a1.8974 1.8974 0 0 1 1.8974-1.8974h4.089v-2.8465a.9488.9488 0 0 1 .9487-.9487z"/><path d="m21.9982 35.859h20.5018"/><path d="m27.9846 9.2949h8.2254"/><path d="m5.5 24h2.567l1.739-4.645 2.242 13.458 2.243-21.589 2.243 16.879 2.972-4.103h2.492"/></g></svg>