<svg viewBox="0 0 48 48" xmlns="http://www.w3.org/2000/svg"><g fill="none" stroke="#000" stroke-linecap="round" stroke-linejoin="round"><path d="m15.72 29.55 1.68-10.76h-1.84a2.51 2.51 0 0 1 -2.29-1.34c-.12-.3-.35-1.34 1.07-2.33a1.9 1.9 0 0 0 .88-1 .79.79 0 0 0 -.23-.8 3.19 3.19 0 0 0 -1.86-.46c-1.3 0-2.3.77-2.38 1.3s.27.73.54.92a1.46 1.46 0 0 1 .32 2.16 3.23 3.23 0 0 1 -2.61 1.55h-1.63c-.15 1-2.68 17.12-2.87 18.38h10.11c0-.54.5-3.6 1.11-7.62z"/><path d="m29 10.1h-10.22l-1.38 8.69h1.76a2.64 2.64 0 0 0 2.26-1.07 1.07 1.07 0 0 0 .19-.53 1 1 0 0 0 -.49-.81 1.68 1.68 0 0 1 -.81-1.38v-.19a3 3 0 0 1 3-1.91 3.17 3.17 0 0 1 2.18.65 1.6 1.6 0 0 1 .51 1.45 2.85 2.85 0 0 1 -1.19 1.46c-1 .69-.88 1.3-.8 1.49a1.77 1.77 0 0 0 1.61.88h2.68c3.63 0 5.59 1.69 4.93 5.59-.57 3.6-3.33 5.17-6.62 5.21l-1.4 8.27h1.92c8.15 0 14.77-5.25 16.11-13.48 1.65-10.22-4.86-14.32-14.24-14.32z"/></g></svg>