<svg viewBox="0 0 48 48" xmlns="http://www.w3.org/2000/svg"><g fill="none" stroke="#000" stroke-linecap="round" stroke-linejoin="round"><path d="m7.48 5.5a2 2 0 0 0 -2 2v33a2 2 0 0 0 2 2h33.04a2 2 0 0 0 2-2v-33a2 2 0 0 0 -2-2z"/><path d="m27.3975 22.9507a3.2287 3.2287 0 0 1 3.2287-3.2288"/><path d="m27.3975 19.7219v8.5562"/><path d="m24.9062 25.0493a3.2288 3.2288 0 0 1 -3.2287 3.2288 3.2288 3.2288 0 0 1 -3.2288-3.2288v-2.0986a3.2288 3.2288 0 0 1 3.2288-3.2288 3.2288 3.2288 0 0 1 3.2287 3.2288"/><path d="m24.9062 28.2781v-8.5562"/><path d="m9.5 22.9507a3.2287 3.2287 0 0 1 3.2287-3.2288 3.2287 3.2287 0 0 1 3.2287 3.2288v2.0986a3.2287 3.2287 0 0 1 -3.2287 3.2288 3.2287 3.2287 0 0 1 -3.2287-3.2288"/><path d="m9.5 28.2781v-12.9149"/><path d="m38.5 25.0493a3.2287 3.2287 0 0 1 -3.2287 3.2288 3.2287 3.2287 0 0 1 -3.2287-3.2288v-2.0986a3.2287 3.2287 0 0 1 3.2287-3.2288 3.2287 3.2287 0 0 1 3.2287 3.2288"/><path d="m38.5 19.7219v12.9149"/></g></svg>