<svg viewBox="0 0 48 48" xmlns="http://www.w3.org/2000/svg"><g fill="none" stroke="#000" stroke-linecap="round" stroke-linejoin="round"><path d="m24.56 27.33c3-1.13 6-1.8 9.18-.53l.68 6.77a15 15 0 0 1 -3.94 5.32 11.3 11.3 0 0 1 -5.66-5.75z"/><path d="m26.13 20.26a2.1 2.1 0 0 1 2.81-1 3 3 0 0 1 1.35 3.13 2.46 2.46 0 0 1 -2.29 2.25"/><path d="m28 24.64v1.69"/><path d="m26.13 20.26-1.49.14 1-6.76c-.29-1.05-1.41-2-1.88-1.64-1.89 6.77-3.76 13.55-4.1 20.71l-7.66 9.29c1.9.21 3.84.51 5.35 0l6.65-5.36a1.33 1.33 0 0 1 2 .17l7.08 6.58c1.71.35 2.6-.2 2.91-.76l-4-5.31"/><path d="m25.66 13.64c.94.11 3.22 1 .38-1.87-1.04-1.08-3.12-2.43-2.26.23"/><path d="m26.39 12.15 6.23-4.81.71-2.84-3.33.7-4.64 6"/></g></svg>