<svg viewBox="0 0 48 48" xmlns="http://www.w3.org/2000/svg"><g fill="none" stroke="#000" stroke-linecap="round" stroke-linejoin="round"><path d="m43.4619 21.8305c-.2525-.0107-.5-.04-.7551-.04-10.0976-.0005-18.3075 8.4219-18.7068 18.9622-.3993-10.5403-8.6092-18.9627-18.7068-18.9627-.2549 0-.5026.0294-.7551.04-.01.2662-.0381.5272-.0381.7959 0 10.9123 8.3923 19.7582 18.7449 19.7582.255 0 .5026-.0295.7551-.04.2525.0107.5.04.7551.04 10.3526 0 18.7449-8.8459 18.7449-19.7582 0-.2682-.028-.5292-.0381-.7954z"/><path d="m24 25.532c1.3-2.371 5.6452-5.88 5.6452-5.88a28.1114 28.1114 0 0 0 -5.6452-14.0366 28.11 28.11 0 0 0 -5.6451 14.0363s4.3451 3.5093 5.6451 5.8803z"/></g></svg>