<svg viewBox="0 0 48 48" xmlns="http://www.w3.org/2000/svg"><g fill="none" stroke="#000" stroke-linecap="round" stroke-linejoin="round"><path d="m24 5.4713a19.4931 19.4931 0 0 0 0 36.9406"/><path d="m10.5125 14.1607a16.52 16.52 0 0 0 13.4875 28.2512"/><path d="m37.4875 14.1607a16.52 16.52 0 0 1 -13.4875 28.2512"/><path d="m11.0019 20.732c2.1006 1.5867 5.4624 3.5574 10.138-.5386s8.7115-4.35 15.2527-2.0206"/><path d="m22.338 33.203 4.521-5.513h-4.367l4.521-5.513"/><path d="m24 42.4119a19.4931 19.4931 0 0 0 0-36.9406"/><path d="m34.56 14.0723a16.4837 16.4837 0 0 1 2.9279.0884"/><path d="m13.44 14.0723a16.4837 16.4837 0 0 0 -2.9279.0884"/></g></svg>