<svg viewBox="0 0 48 48" xmlns="http://www.w3.org/2000/svg"><g fill="none" stroke="#000" stroke-linecap="round" stroke-linejoin="round"><path d="m20.5 4.5h6.67a1 1 0 0 1 1 1v3h4.63a2 2 0 0 1 2 2v31a2 2 0 0 1 -2 2h-17.61a2 2 0 0 1 -2-2v-31a2 2 0 0 1 2-2h4.31v-3a1 1 0 0 1 1-1z"/><path d="m13.19 18.59h21.61"/><path d="m19.5 8.5h8.67"/><path d="m24 23.43a7.78 7.78 0 0 1 -3.88 1 7.54 7.54 0 0 1 -1.94-.25v9.35c0 2 2.33 3.78 5.82 5.24 3.49-1.74 5.82-3.2 5.82-5.24v-9.3a7.94 7.94 0 0 1 -1.94.25 7.66 7.66 0 0 1 -3.88-1.05z"/><path d="m24 23.44v15.38"/><path d="m18.18 31.13h11.64"/></g></svg>