<svg viewBox="0 0 48 48" xmlns="http://www.w3.org/2000/svg"><g fill="none" stroke="#000" stroke-linecap="round" stroke-linejoin="round"><path d="m13.7013 18.6925h21.1716v7.3429h-21.1716z" transform="matrix(.97854352 -.20604023 .20604023 .97854352 -4.0868 5.484)"/><path d="m34.7493 18.5964h8.5049v3.2711h-8.5049z" transform="matrix(.97854352 -.20604023 .20604023 .97854352 -3.3318 8.4701)"/><path d="m33.889 16.59-.589-2.798-2.303 3.407"/><path d="m18.66 33.64-2.697.568-1.278-6.07 4.025-.848z"/><path d="m7.993 30.31 3.271-1.398 3.432-.723-1.524-7.237-6.846 1.442z"/><path d="m5.3134 22.4993h1.8657v8.0897h-1.8657z" transform="matrix(.97854352 -.20604023 .20604023 .97854352 -5.3352 1.8565)"/><path d="m12.8554 17.912h2.0567v2.8592h-2.0567z" transform="matrix(.97854352 -.20604023 .20604023 .97854352 -3.6873 3.2756)"/></g></svg>