<svg viewBox="0 0 48 48" xmlns="http://www.w3.org/2000/svg"><g fill="none" stroke="#000" stroke-linecap="round" stroke-linejoin="round"><path d="m24.18 42.5c4.5-3.65 11.36-7.11 11.36-21.86v-9.2c-4 0-7.49-1.88-11.4-3.48-3.69 1.53-7.61 3.5-11.85 3.46v9.27c.16 14.06 6.71 18.31 11.89 21.81z"/><path d="m24.18 14.28a39.65 39.65 0 0 1 -6.94 1.77c-.47 8.27 2.47 14 6.94 18.39 4.55-4.44 6.57-10.44 6.5-18.07a26.8 26.8 0 0 1 -6.5-2.09z"/><path d="m33.3 32.74c3.86 3 5.93 6.45 8 9.72a29.35 29.35 0 0 1 -9.51-7.11"/><path d="m14.56 32.41c-3.94 3.4-6.73 6.6-8.08 9.83 3.36-2 6.34-3.64 9.43-7.33"/><path d="m6.73 5.83 5.6 5.59"/><path d="m11.37 10.46 3.27-2.79"/><path d="m8.58 13.73 2.79-3.27"/><path d="m41.17 5.84-5.59 5.6"/><path d="m36.54 10.48 2.79 3.27"/><path d="m33.27 7.68 3.27 2.8"/></g></svg>