<svg viewBox="0 0 48 48" xmlns="http://www.w3.org/2000/svg"><g fill="none" stroke="#000" stroke-linecap="round" stroke-linejoin="round"><path d="m28.0757 32.6636v7.939a1.8974 1.8974 0 0 1 -1.8975 1.8974h-16.7069a1.8974 1.8974 0 0 1 -1.8974-1.8974v-29.41a1.8974 1.8974 0 0 1 1.8974-1.8977h4.0887v-2.8462a.9487.9487 0 0 1 .949-.9487h6.3279a.9488.9488 0 0 1 .9488.9487v2.8462h4.3925a1.8974 1.8974 0 0 1 1.8975 1.8974v4.1441"/><path d="m7.5739 35.859h20.5018"/><path d="m13.5603 9.2949h8.2254"/><path d="m17.9308 15.3364h20.29a1 1 0 0 1 1 1v12.85a0 0 0 0 1 0 0h-22.29a0 0 0 0 1 0 0v-12.85a1 1 0 0 1 1-1z"/><path d="m15.7252 29.1869h24.7009a0 0 0 0 1 0 0v2.4766a1 1 0 0 1 -1 1h-22.7009a1 1 0 0 1 -1-1v-2.4766a0 0 0 0 1 0 0z"/><path d="m26.9758 30.9252h2.1998"/></g></svg>