<svg viewBox="0 0 48 48" xmlns="http://www.w3.org/2000/svg"><g fill="none" stroke="#000" stroke-linecap="round" stroke-linejoin="round"><path d="m29.48 16.98-20.219 13.663 15.592 10.551 16.547-11.182"/><path d="m37.0312 27.0563 4.3687 2.9561"/><path d="m29.7969 31.9448 7.2343-4.8885"/><path d="m5.5 40.3716 4.8503-3.2776"/><path d="m29.7969 31.9448 4.3687 2.9562"/><path d="m29.48 16.98-20.219 13.663 15.592 10.551 16.547-11.182"/><path d="m37.0312 27.0563 4.3687 2.9561"/><path d="m29.7969 31.9448 7.2343-4.8885"/><path d="m5.5 40.3716 4.8503-3.2776"/><path d="m29.7969 31.9448 4.3687 2.9562"/><path d="m18.52 31.02 20.219-13.663-15.592-10.551-16.547 11.182"/><path d="m10.9688 20.9437-4.3687-2.9561"/><path d="m18.2031 16.0552-7.2343 4.8885"/><path d="m42.5 7.6284-4.8503 3.2776"/><path d="m18.2031 16.0552-4.3687-2.9562"/></g></svg>