<svg viewBox="0 0 48 48" xmlns="http://www.w3.org/2000/svg"><g fill="none" stroke="#000" stroke-linecap="round" stroke-linejoin="round"><path d="m30.8333 17.1667h13.6667v13.6667h-13.6667z"/><path d="m17.1667 17.1667h13.6667v13.6667h-13.6667z"/><path d="m3.5 17.1667h13.6667v13.6667h-13.6667z"/><path d="m40.6479 25.4819v.0369a2.9812 2.9812 0 0 1 -2.9812 2.9812 2.9812 2.9812 0 0 1 -2.9813-2.9812v-3.0375a2.9813 2.9813 0 0 1 2.9813-2.9813 2.9812 2.9812 0 0 1 2.9812 2.9813v.0368"/><g stroke-width=".8662"><path d="m11.0646 24a2.25 2.25 0 0 1 0 4.5h-3.7125v-9h3.7125a2.25 2.25 0 0 1 0 4.5z"/><path d="m11.0646 24h-3.7125"/><path d="m24.7313 24a2.25 2.25 0 1 1 0 4.5h-3.7126v-9h3.7126a2.25 2.25 0 1 1 0 4.5z"/><path d="m24.7313 24h-3.7126"/></g></g></svg>