<svg viewBox="0 0 48 48" xmlns="http://www.w3.org/2000/svg"><g fill="none" stroke="#000" stroke-linecap="round" stroke-linejoin="round"><path d="m9.764 9.596c6.434-4.505 16.259-1.591 21.927 6.504s5.046 18.324-1.388 22.829-16.26 1.591-21.928-6.503-5.046-18.325 1.389-22.83z"/><path d="m11.252 8.713s3.215 9.612 4.459 11.575 6.874 6.302 8.083 8.209 4.459 11.575 4.459 11.575"/><path d="m23.596 9.119c4.494-2.567 9.591-2.97 13.682-.583 6.784 3.959 8.247 14.103 3.266 22.638-3.826 6.556-10.35 10.268-16.243 9.841a11.8094 11.8094 0 0 0 6.002-2.086c6.434-4.505 7.056-14.734 1.388-22.829a21.0994 21.0994 0 0 0 -8.095-6.981z"/><path d="m38.693 9.529-6.749 6.94z"/></g></svg>