<svg viewBox="0 0 48 48" xmlns="http://www.w3.org/2000/svg"><g fill="none" stroke="#000" stroke-linecap="round" stroke-linejoin="round"><path d="m22.4256 19.9775c1.0272 1.7942-.0911 5.2169-1.44 7.7567a12.9427 12.9427 0 0 1 -4.639 5.23 9.4035 9.4035 0 0 1 -5.2747 1.3671 7.3317 7.3317 0 0 1 -4.4574-1.6172 6.2129 6.2129 0 0 1 -2.0525-4.0474 8.6 8.6 0 0 1 1.0659-5.2735 11.2511 11.2511 0 0 1 4.3321-4.1427 12.1186 12.1186 0 0 1 5.8259-1.1888c2.4386-.0435 5.6126.1216 6.64 1.9159z"/><path d="m16.02 33.5772a27.6158 27.6158 0 0 0 .8111 2.98 11.1029 11.1029 0 0 0 1.2707 2.5263 8.386 8.386 0 0 0 1.758 1.9019 6.7823 6.7823 0 0 0 2.0978 1.1341 6.716 6.716 0 0 0 1.9088.2386"/><path d="m25.5744 19.9688c-1.0272 1.7943.0911 5.2169 1.44 7.7567a12.9427 12.9427 0 0 0 4.639 5.23 9.4035 9.4035 0 0 0 5.2747 1.3671 7.3317 7.3317 0 0 0 4.4574-1.6172 6.2125 6.2125 0 0 0 2.0525-4.0474 8.6 8.6 0 0 0 -1.0659-5.2735 11.2508 11.2508 0 0 0 -4.3321-4.1426 12.1174 12.1174 0 0 0 -5.8259-1.1888c-2.4386-.0436-5.6126.1215-6.64 1.9158z"/><path d="m31.7123 33.5772a27.6158 27.6158 0 0 1 -.8111 2.98 11.1029 11.1029 0 0 1 -1.2707 2.5263 8.3838 8.3838 0 0 1 -1.758 1.9019 6.7823 6.7823 0 0 1 -2.0978 1.1341 6.7155 6.7155 0 0 1 -1.9088.2386"/><path d="m16.02 33.5772h15.6923"/><path d="m17.3687 37.6336h12.9663"/><path d="m20.3961 29.2828h7.227"/><path d="m19.0213 18.0262a22.7366 22.7366 0 0 1 -1.828-3.3159 3.6708 3.6708 0 0 1 -.0933-2.4385 6.7374 6.7374 0 0 1 1.3884-2.9 6.723 6.723 0 0 1 3.3932-1.9788 8.6541 8.6541 0 0 1 4.2035.0551 6.6 6.6 0 0 1 3.302 1.8983 7.0435 7.0435 0 0 1 1.3854 2.913 3.9086 3.9086 0 0 1 .0095 2.5068 18.1378 18.1378 0 0 1 -1.77 3.2179"/><path d="m19.7044 7.9609-2.2831-2.3189"/><path d="m28.18 8.0055 2.2831-2.3189"/></g></svg>