<svg viewBox="0 0 48 48" xmlns="http://www.w3.org/2000/svg"><g fill="none" stroke="#000" stroke-linecap="round" stroke-linejoin="round"><path d="m7.5 5.5a2 2 0 0 0 -2 2v33a2 2 0 0 0 2 2h33a2 2 0 0 0 2-2v-33a2 2 0 0 0 -2-2z"/><path d="m34.0045 29.6513a3.778 3.778 0 0 1 -3.2838 1.9072 3.7792 3.7792 0 0 1 -3.7792-3.7792v-2.4566a3.7792 3.7792 0 0 1 3.7792-3.7792 3.7792 3.7792 0 0 1 3.7793 3.7792v1.2283h-7.5585"/><path d="m19.7358 24a3.7793 3.7793 0 0 1 0 7.5585h-6.2358v-15.117h6.2358a3.7793 3.7793 0 0 1 0 7.5585z" stroke-width=".8662"/><path d="m19.7358 24h-6.2358" stroke-width=".8662"/><path d="m26.9415 16.4415h7.5585"/></g></svg>