<svg viewBox="0 0 48 48" xmlns="http://www.w3.org/2000/svg"><g fill="none" stroke="#000" stroke-linecap="round" stroke-linejoin="round"><path d="m43.177 16.37-7.37-7.37h-23.615l-7.37 7.37a1.102 1.102 0 0 0 -.057 1.496l18.399 21.454a1.101 1.101 0 0 0 1.672 0l18.398-21.454a1.102 1.102 0 0 0 -.057-1.496z"/><path d="m5 17.15h38.5"/><path d="m23.8 39-9.8-22 4-7.8"/><path d="m24.2 39 9.8-22-4-7.8"/><path d="m8.5 26.5v15m4-9v13m4-10v6m4-2v7m19-20v16m-4-10v8m-4-5v10m-4-6v3.6m-23-21.6v8m39-9v5"/></g></svg>