<svg viewBox="0 0 48 48" xmlns="http://www.w3.org/2000/svg"><g fill="none" stroke="#000" stroke-linecap="round" stroke-linejoin="round"><path d="m9.701 11.492-4.879 4.877a1.1 1.1 0 0 0 -.057 1.496l18.399 21.455a1.1 1.1 0 0 0 1.672 0l18.398-21.455a1.1 1.1 0 0 0 -.057-1.496l-7.371-7.369h-20.301"/><path d="m5 17.15h38.5"/><path d="m23.8 39-9.8-22 2-4 8-3.7m-9.754 2.087 1.754 1.613m8.2 26 9.8-22-2-4-8-3.7m11.808.2-3.807 3.5"/><path d="m11.99 4.446 1.155 3.554h3.737l-3.024 2.197 1.155 3.555-3.024-2.197-3.024 2.197 1.155-3.555-3.022-2.197h3.737zm22.855 26.5 1.155 3.554h3.737l-3.023 2.197 1.155 3.554-3.024-2.197-3.024 2.197 1.155-3.554-3.023-2.197h3.737z"/></g></svg>