<svg viewBox="0 0 48 48" xmlns="http://www.w3.org/2000/svg"><g fill="none" stroke="#000" stroke-linecap="round" stroke-linejoin="round"><path d="m40.5 42.5h-33a2 2 0 0 1 -2-2v-33a2 2 0 0 1 2-2h33a2 2 0 0 1 2 2v33a2 2 0 0 1 -2 2z"/><path d="m27.7933 28.86a3.2488 3.2488 0 0 1 -2.8239 1.64 3.25 3.25 0 0 1 -3.25-3.25v-2.1125a3.25 3.25 0 0 1 3.25-3.25 3.25 3.25 0 0 1 3.25 3.25v1.0562h-6.5"/><path d="m36.907 30.5v-5.3625a3.25 3.25 0 0 0 -3.25-3.25 3.25 3.25 0 0 0 -3.25 3.25v5.3625"/><path d="m30.407 25.1375v-3.25"/><g stroke-width=".8662"><path d="m16.4555 24a3.25 3.25 0 0 1 0 6.5h-5.3625v-13h5.3625a3.25 3.25 0 0 1 0 6.5z"/><path d="m16.4555 24h-5.3625"/></g></g></svg>