<svg viewBox="0 0 48 48" xmlns="http://www.w3.org/2000/svg"><g fill="none" stroke="#000" stroke-linecap="round" stroke-linejoin="round"><path d="m15.5671 13.869a14.4608 14.4608 0 0 1 27.9329 5.2556 14.4613 14.4613 0 0 1 -11.6154 14.1773"/><path d="m21.7579 42.83a7.9106 7.9106 0 1 1 10.3714-7.5126 7.9059 7.9059 0 0 1 -5.5223 7.5343"/><path d="m21.7579 39.4936a4.9215 4.9215 0 1 1 7.4-4.2521 4.9263 4.9263 0 0 1 -2.5513 4.3172"/><path d="m24.2187 43.3367v-6.6477"/><path d="m12.4106 34.4345a10.4035 10.4035 0 0 1 2.4894-20.5039h.0073a10.4039 10.4039 0 0 1 10.4075 10.4v.0037a10.4033 10.4033 0 0 1 -.474 3.1085"/><path d="m12.4106 30.1246a6.3184 6.3184 0 1 1 8.7864-5.8226 6.3219 6.3219 0 0 1 -3.9336 5.8515"/><path d="m14.8786 34.7566v-8.6452"/><path d="m20.7953 15.74a8.9094 8.9094 0 0 1 17.1529 3.3835 8.9094 8.9094 0 0 1 -6.7924 8.6525"/><path d="m29.0316 21.5517v7.0856"/><circle cx="24.2187" cy="35.2198" r="1.2955"/><circle cx="14.8786" cy="24.3201" r="1.6863"/><circle cx="29.0352" cy="19.0837" r="2.4752"/></g></svg>