<svg viewBox="0 0 48 48" xmlns="http://www.w3.org/2000/svg"><g fill="none" stroke="#000" stroke-linecap="round" stroke-linejoin="round"><circle cx="24" cy="24" r="21.5"/><path d="m23.434 24.8687 1.3889 7.8767"/><path d="m10.3882 35.3166-1.3889-7.8766 2.5561-.4507a2.7 2.7 0 0 1 .9636 5.3123l-.0261.0045-2.5561.4508"/><path d="m17.5021 34.0622-1.3889-7.8767 2.56-.4514a2.7 2.7 0 0 1 .9673 5.3116l-.03.0053-2.56.4514"/><path d="m19.7972 31.0118 2.9215 2.129"/><path d="m39.8236 29.114a2.6554 2.6554 0 0 1 -1.8955 1.347 2.6861 2.6861 0 0 1 -3.121-2.1657l-.004-.0224-.4513-2.56a2.6878 2.6878 0 0 1 2.1875-3.1287 2.8167 2.8167 0 0 1 2.2425.6212"/><path d="m33.2034 26.1189 3.3486-.59"/><path d="m33.55 28.0871 3.3486-.59"/><path d="m31.7187 28.8168a2.6862 2.6862 0 0 1 -2.1658 3.121l-.0224.004a2.6862 2.6862 0 0 1 -3.1205-2.1658l-.004-.0224-.469-2.66a2.6824 2.6824 0 0 1 2.1583-3.12l.03-.0053a2.6033 2.6033 0 0 1 3.0283 2.2052"/><path d="m29.0021 13.531 5.22-.9209"/><path d="m33.052 20.9383-1.39-7.8766"/><path d="m13.145 20.4338a2 2 0 1 1 .6914 3.9408l-3.2444.5723-1.3896-7.8769 3.2481-.573a1.9986 1.9986 0 1 1 .6908 3.9371z"/><path d="m13.145 20.4338-3.2481.573"/><path d="m17.8518 23.5487 3.9376-.6947"/><path d="m16.4625 15.6734 3.9375-.6946"/><path d="m17.1571 19.6111 2.56-.4516"/><path d="m16.4625 15.6734 1.3893 7.8753"/><path d="m23.4417 21.69a2.38 2.38 0 0 0 2.1244.5383l1.1794-.2081a2.0024 2.0024 0 0 0 1.6241-2.32 2.0024 2.0024 0 0 0 -2.3196-1.6202l-1.28.2258a2.0024 2.0024 0 0 1 -2.3154-1.621 2.0024 2.0024 0 0 1 1.6254-2.3158l1.18-.2081a2.1561 2.1561 0 0 1 2.1281.5376"/></g></svg>