<svg viewBox="0 0 48 48" xmlns="http://www.w3.org/2000/svg"><g fill="none" stroke="#000" stroke-linecap="round" stroke-linejoin="round"><path d="m42.5 27.5835v-18.4378a2 2 0 0 0 -2-2h-33a2 2 0 0 0 -2 2v18.4378"/><path d="m5.5 27.5835h37"/><path d="m17.5305 23.6456a18.1585 18.1585 0 0 1 1.8587-5.7568 17.1022 17.1022 0 0 1 5.2919-6.2571"/><path d="m23.5664 22.8416a18.4832 18.4832 0 0 1 1.7266-4.9528 18.7577 18.7577 0 0 1 2.4981-3.721"/><path d="m28.4537 22.489a18.6154 18.6154 0 0 1 1.6556-4.6 19.4384 19.4384 0 0 1 1.1171-1.9047"/><path d="m37.8567 33.3788v5.6041a1.8736 1.8736 0 0 1 -1.8681 1.868 1.5674 1.5674 0 0 1 -1.3076-.56"/><path d="m35.9886 33.3788a1.8736 1.8736 0 0 1 1.8681 1.868v1.2142a1.8736 1.8736 0 0 1 -1.8681 1.868 1.8735 1.8735 0 0 1 -1.868-1.868v-1.2142a1.8735 1.8735 0 0 1 1.868-1.868z"/><path d="m24.9486 37.4884a2.2266 2.2266 0 0 0 1.868.8406h1.1208a1.8735 1.8735 0 0 0 1.8681-1.868 1.8735 1.8735 0 0 0 -1.8681-1.868h-1.2142a1.8735 1.8735 0 0 1 -1.868-1.8681 1.8735 1.8735 0 0 1 1.868-1.868h1.1208a2.0058 2.0058 0 0 1 1.8681.8406"/><path d="m16.8532 37.9554a2.2082 2.2082 0 0 0 1.4945.3736h.3736a1.2363 1.2363 0 0 0 1.2142-1.2142 1.2364 1.2364 0 0 0 -1.2142-1.2142h-.8406a1.2364 1.2364 0 0 1 -1.2143-1.2142 1.2364 1.2364 0 0 1 1.2143-1.2142h.3736c.8406 0 1.2142.0934 1.4944.3736"/><path d="m22.2244 31.7909v6.5381"/><path d="m21.197 33.3788h1.9614"/><path d="m14.5862 37.395a1.8079 1.8079 0 0 1 -1.5879.934 1.8735 1.8735 0 0 1 -1.868-1.868v-1.2142a1.8735 1.8735 0 0 1 1.868-1.868 1.8736 1.8736 0 0 1 1.8681 1.868v.6538h-3.7364"/><path d="m43.5 38.2557v-3.0823a1.8735 1.8735 0 0 0 -1.868-1.868 1.8735 1.8735 0 0 0 -1.8681 1.868v3.0823"/><path d="m39.7639 35.1734v-1.868"/><path d="m7.5823 34.593a1.868 1.868 0 1 1 0 3.736h-3.0823v-7.4721h3.0823a1.8681 1.8681 0 0 1 0 3.7361z"/><path d="m7.5823 34.593h-3.0823"/></g><circle cx="32.0079" cy="31.1371" r=".75"/><path d="m32.0079 33.3788v4.9502" fill="none" stroke="#000" stroke-linecap="round" stroke-linejoin="round"/></svg>