<svg viewBox="0 0 48 48" xmlns="http://www.w3.org/2000/svg"><path d="m15.83 8.2 5.9 6.5 11-8.2 8.7 7" fill="none" stroke="#000" stroke-linecap="round" stroke-linejoin="round"/><circle cx="21.7376" cy="14.7" r=".75"/><circle cx="15.8302" cy="8.2" r=".75"/><circle cx="32.7302" cy="6.5" r=".75"/><circle cx="41.4302" cy="13.5" r=".75"/><g fill="none" stroke="#000" stroke-linecap="round" stroke-linejoin="round"><ellipse cx="8.5302" cy="6.9" rx="3.5" ry="1.4"/><path d="m5.53 7.6211v5.7789a2.7159 2.7159 0 0 0 .6 1.7l1 1.1a1.4178 1.4178 0 0 1 -.1 2l-.9.8a2.41 2.41 0 0 0 -.7 1.8v5.4a5.7534 5.7534 0 0 0 3 .7 6.1684 6.1684 0 0 0 3.1-.7v-5.4a2.8744 2.8744 0 0 0 -.7-1.8l-.9-.8a1.4223 1.4223 0 0 1 -.1-2l1-1.1a2.7147 2.7147 0 0 0 .6-1.7v-5.7162"/><path d="m20.43 42.4h6.2c.8 0 2.5-5.2 3.9-5.2s3.1 5.2 3.9 5.2h6.7c.5 0 .7-.5.7-.9-.6-5-5.9-13.2-3.1-13.1 6 0 6.5-5.7-4.2-8.6-.1-2.1-.8-5.9-4-5.9s-3.8 3.8-4 5.9c-10.7 3-10.2 8.6-4.2 8.6 1.3-.1.8 1.6-.2 3.9"/><path d="m5.5302 33.8h8.7v8.7h-8.7z"/><path d="m10.73 31.1-5.2 2.7h8.7l5.2-2.7z"/><path d="m14.23 42.5 5.2-2.7v-8.7l-5.2 2.7z"/></g><circle cx="11.4302" cy="36.5" r=".75"/><circle cx="8.2302" cy="39.9" r=".75"/><path d="m5.43 26.2c-.3373.1289-.41.5035-.4.9.02.8 1.6 1.4 3.5 1.4s3.5-.6 3.5-1.4a1.0583 1.0583 0 0 0 -.5-.9" fill="none" stroke="#000" stroke-linecap="round" stroke-linejoin="round"/></svg>