<svg viewBox="0 0 48 48" xmlns="http://www.w3.org/2000/svg"><g fill="none" stroke="#000" stroke-linecap="round" stroke-linejoin="round"><path d="m31.3799 24.233v6.8753"/><path d="m34.2426 24.233v6.8753"/><path d="m41.2092 17.4747c-.0144 1.7955.029 3.5938-.0222 5.3874-.161.9077-1.1506.9093-1.8716.8718h-27.85c-1 .0173-1.1756-1.0527-1.0924-1.827.0142-1.5506-.0289-3.104.0221-4.6527.1611-.9077 1.1506-.9093 1.8716-.8718h27.85a1.0949 1.0949 0 0 1 1.0925 1.0925z"/><path d="m39.5211 24.8492c-.0144 1.7955.029 3.5937-.0221 5.3874-.1611.9076-1.1506.9093-1.8717.8718h-27.8499c-1 .0173-1.1755-1.0528-1.0924-1.827.0143-1.5506-.0289-3.104.0221-4.6528.1611-.9076 1.1506-.9093 1.8716-.8717h27.85a1.0949 1.0949 0 0 1 1.0925 1.0924z"/><path d="m36.07 32.31c-.0186 1.4551.02 2.9131-.0356 4.3662-.1581.8871-1.1217.91-1.8322.8661l-26.3092-.0816c-.9786.0163-1.1748-1.0265-1.0869-1.7917.0176-1.2231-.0207-2.4492.0334-3.67.1581-.8871 1.1218-.91 1.8322-.8661l26.3091.0813a1.095 1.095 0 0 1 1.0892 1.0958z"/><path d="m37.0577 38.6587c-.0141 1.319.0287 2.6408-.0221 3.9579-.146.8532-1.0657.92-1.7587.8718h-23.4692c-.9422.0222-1.1812-.973-1.0924-1.7234.0139-1.1086-.0284-2.22.0221-3.3269.146-.8532 1.0657-.92 1.7586-.8717h23.4693a1.0948 1.0948 0 0 1 1.0924 1.0925z"/><path d="m21.5385 23.7572v7.3511"/><path d="m15.3349 23.7572v7.3511"/><path d="m16.22 16.3827v7.3511"/><path d="m19.6656 16.3827v7.3511"/><path d="m18.3721 40.5274h11.0274"/><path d="m35.0292 11.5416c-.0143 1.3189.0283 2.6408-.0226 3.9579-.1462.8532-1.0659.92-1.7588.8715l-23.4692-.0033c-.9423.0221-1.1811-.9732-1.0923-1.7237.0141-1.1086-.028-2.22.0226-3.3268.1462-.8533 1.0659-.92 1.7588-.8715l23.4693.0033a1.0949 1.0949 0 0 1 1.0923 1.0926z"/><path d="m37.3509 5.59c-.0131 1.3188.03 2.6412-.02 3.9579-.1346.8066-.9973.933-1.6663.8728-7.3481.0011-14.6967.0172-22.0437.0089-.835-.0568-1.0627-.9373-.9816-1.6285.013-1.1381-.0295-2.28.02-3.4156.1345-.8066.9973-.933 1.6663-.8728 7.3481-.0011 14.6967-.0172 22.0437-.0089a1.0949 1.0949 0 0 1 .9816 1.0862z"/><path d="m16.3436 13.4075 11.0274.0014"/></g></svg>