<svg viewBox="0 0 48 48" xmlns="http://www.w3.org/2000/svg"><g fill="none" stroke="#000" stroke-linecap="round" stroke-linejoin="round"><path d="m40.5 5.5h-33a2 2 0 0 0 -2 2v33a2 2 0 0 0 2 2h33a2 2 0 0 0 2-2v-33a2 2 0 0 0 -2-2z"/><path d="m11.7229 11.639v24.751"/><path d="m27.072 28.11a7.8494 7.8494 0 0 1 -7.62 8.0335 7.8392 7.8392 0 0 1 -7.7132-7.9359 7.8555 7.8555 0 0 1 7.5652-8.09 7.8335 7.8335 0 0 1 7.7671 7.8784"/><path d="m20.8384 11.61v7.1625"/><path d="m25.6131 20.9533a7.5816 7.5816 0 0 1 9.06 11.6284 8.1631 8.1631 0 0 1 -9.1191 2.946"/></g></svg>