<svg viewBox="0 0 48 48" xmlns="http://www.w3.org/2000/svg"><g fill="none" stroke="#000" stroke-linecap="round" stroke-linejoin="round"><path d="m24 4.5a15.93 15.93 0 0 0 -15.92 15.92c0 6.22 3.93 11.9 7.8 16a51.8 51.8 0 0 0 7.73 6.78l.39.27.39-.27a51.8 51.8 0 0 0 7.73-6.78c3.87-4.14 7.8-9.81 7.8-16a15.93 15.93 0 0 0 -15.92-15.92z"/><circle cx="31.41" cy="20" r="3.98"/><circle cx="16.64" cy="20" r="3.98"/><path d="m29.12 13.06-5.4 6.94h-7.08l5.42-6.94z"/><path d="m31.41 20-3.14-9.52h-2.31"/><path d="m21.54 10.86 2.18 9.14"/><path d="m20.13 10.86h2.94"/><path d="m9.86 27.77h28.28"/></g></svg>