<svg viewBox="0 0 48 48" xmlns="http://www.w3.org/2000/svg"><g fill="none" stroke="#000"><path d="m4.5 15.7634a1.5088 1.5088 0 0 1 1.6437-1.6357h35.7178a1.51 1.51 0 0 1 1.6385 1.6442v24.0718a1.8106 1.8106 0 0 1 -1.6442 1.9945h-35.7121a1.5088 1.5088 0 0 1 -1.6437-1.6397z"/><path d="m8.6053 19.7684a1.3618 1.3618 0 0 1 1.5434-1.5354h27.7013a1.3639 1.3639 0 0 1 1.545 1.5354v16.4251a1.3929 1.3929 0 0 1 -1.545 1.58l-27.6969-.04a1.3643 1.3643 0 0 1 -1.5475-1.5395z"/><g stroke-linecap="round"><path d="m10.5922 7.6567 11.3552 6.3823"/><path d="m33.1348 4.1618-7.0822 9.83"/><path d="m18.3254 30.5487c-.04 4.4677 5.6746 4.508 5.6746 0"/><path d="m24 30.5487c-.04 4.4677 5.6746 4.508 5.6746 0"/><path d="m18.1749 23.9621-5.8393 2.7384"/><path d="m29.41 22.9091 5.6385 4.7235"/></g></g></svg>