<svg viewBox="0 0 48 48" xmlns="http://www.w3.org/2000/svg"><path d="m14.5324 16.3284a2.6122 2.6122 0 1 1 0 5.2243h-4.3424v-10.4485h4.3429a2.6122 2.6122 0 1 1 0 5.2243z" fill="none" stroke="#000" stroke-linecap="round" stroke-linejoin="round"/><path d="m14.5324 16.3284h-4.3418" fill="none" stroke="#000" stroke-linecap="round" stroke-linejoin="round"/><ellipse cx="19.9299" cy="11.2707" rx=".7557" ry=".75"/><g fill="none" stroke="#000" stroke-linecap="round" stroke-linejoin="round"><path d="m19.9299 14.4053v6.9219"/><path d="m22.7839 10.9806v10.4487"/><path d="m25.4494 10.9806v10.4487"/><path d="m25.4494 19.2086 4.7377-4.7012"/><path d="m26.8971 17.7723 3.8159 3.657"/><path d="m37.8105 18.9287a2.6321 2.6321 0 0 1 -5.2641 0v-1.6979a2.6321 2.6321 0 0 1 5.2641 0"/><path d="m37.8105 21.5403v-6.9219"/><path d="m9.14 36.98v-10.5327h3.3564a3.5554 3.5554 0 0 1 0 7.11h-3.3564"/><path d="m18.7147 26.6014v10.5322"/><path d="m21.5011 30.2681v4.3447a2.5823 2.5823 0 1 0 5.1636 0v-4.3447"/><path d="m26.6644 34.6126v2.6331"/><path d="m29.6 36.9527a3.0076 3.0076 0 0 0 2.0655.5266h.5164a1.7119 1.7119 0 0 0 0-3.4231h-1.1619a1.7118 1.7118 0 0 1 0-3.423h.5164c1.1618 0 1.6782.1316 2.0655.5266"/><path d="m33.8602 27.3867h5"/><path d="m36.3602 24.8867v5"/><path d="m40.5 5.5h-33a2 2 0 0 0 -2 2v33a2 2 0 0 0 2 2h33a2 2 0 0 0 2-2v-33a2 2 0 0 0 -2-2z"/></g></svg>