<svg viewBox="0 0 48 48" xmlns="http://www.w3.org/2000/svg"><path d="m14.5324 11.75a2.6122 2.6122 0 1 1 0 5.2243h-4.3424v-10.4484h4.3429a2.6122 2.6122 0 1 1 0 5.2243z" fill="none" stroke="#000" stroke-linecap="round" stroke-linejoin="round"/><path d="m14.5324 11.75h-4.3418" fill="none" stroke="#000" stroke-linecap="round" stroke-linejoin="round"/><ellipse cx="19.9299" cy="6.6923" rx=".7557" ry=".75"/><g fill="none" stroke="#000" stroke-linecap="round" stroke-linejoin="round"><path d="m19.9299 9.8269v6.9219"/><path d="m22.7839 6.4023v10.4487"/><path d="m25.4494 6.4023v10.4487"/><path d="m25.4494 14.6303 4.7377-4.7012"/><path d="m26.8971 13.1939 3.8159 3.6571"/><path d="m37.8105 14.35a2.6321 2.6321 0 0 1 -5.2641 0v-1.6976a2.6321 2.6321 0 0 1 5.2641 0"/><path d="m37.8105 16.962v-6.9219"/><path d="m5.5 24.4315v17.6137"/><path d="m7.4332 24.4265v17.5956"/><path d="m11.2394 24.4265v17.5956"/><path d="m17.231 37.8313v4.2187"/><path d="m19.1859 37.8313v4.2187"/><path d="m23.0966 37.8313v4.2187"/><path d="m25.0514 37.8313v4.2187"/><path d="m28.9611 37.8313v4.2187"/><path d="m15.6663 37.8313v4.2187"/><path d="m32.3226 37.8393v4.2184"/><path d="m33.9843 37.8393v4.2184"/><path d="m38.8724 24.4615v17.5957"/><path d="m42.5 24.4635v17.5226"/><path d="m40.6862 24.4615v17.5957"/><path d="m14.1138 25.1178a2.0442 2.0442 0 0 0 1.7038.7548h1.0224a1.6776 1.6776 0 1 0 0-3.3547h-1.1076a1.6775 1.6775 0 1 1 0-3.3546h1.0223a1.8406 1.8406 0 0 1 1.7038.7548"/><path d="m23.4652 24.9977a1.6528 1.6528 0 0 1 -1.4482.8387 1.6957 1.6957 0 0 1 -1.7037-1.6773v-1.09a1.6957 1.6957 0 0 1 1.7037-1.6773 1.653 1.653 0 0 1 1.4482.8387"/><path d="m28.6425 24.1587a1.704 1.704 0 0 1 -3.4076 0v-1.09a1.704 1.704 0 0 1 3.4076 0"/><path d="m28.6425 25.8368v-4.4453"/><path d="m33.9713 25.8368v-2.7677a1.704 1.704 0 0 0 -3.4075 0v2.7677"/><path d="m30.5644 23.0685v-1.677"/><path d="m22.0527 35.4309h-.5651a1.182 1.182 0 0 1 -1.0361-.5651l-2.6372-3.5792a3.01 3.01 0 0 1 -.9419-1.8837 1.5119 1.5119 0 0 1 1.6012-1.507 1.4877 1.4877 0 0 1 1.507 1.507c0 .8477-.6593 1.6012-1.9779 1.8837-1.4128.2826-2.3547 1.0361-2.3547 2.3547a1.7388 1.7388 0 0 0 1.9779 1.79c1.6954 0 2.7315-1.6954 4.2385-3.6733"/><path d="m28.42 30.8873a2.5534 2.5534 0 0 0 -2.6373-2.5431 2.6532 2.6532 0 0 0 -2.3546 2.6373v2.3547a2.5431 2.5431 0 0 0 5.0861 0h-2.5433"/><path d="m32.0743 35.7492a1.8892 1.8892 0 0 1 -1.8838-1.8837v-1.2244a1.8838 1.8838 0 1 1 3.7675 0v1.2244a1.8892 1.8892 0 0 1 -1.8837 1.8837z"/></g></svg>