<svg viewBox="0 0 48 48" xmlns="http://www.w3.org/2000/svg"><g fill="none" stroke="#000" stroke-linecap="round" stroke-linejoin="round"><rect height="37" rx="2" width="37" x="5.5" y="5.5"/><path d="m17.8333 5.5v37"/><path d="m30.1667 5.5v37"/><path d="m5.5 17.8333h37"/><path d="m5.5 30.1667h37"/><path d="m9.6667 15.6667h4"/><path d="m9.6667 8.7557 2-1.089"/><path d="m11.6667 7.6667v8"/><path d="m33.6833 10.3167a2.65 2.65 0 1 1 5.3 0 2.4725 2.4725 0 0 1 -.7761 1.8738c-1.0721.9408-4.5239 3.4762-4.5239 3.4762h5.3"/><path d="m12.3171 36.3343a2 2 0 0 0 2-2 2 2 0 0 0 -2-1.9995"/><path d="m12.3171 40.3333a2 2 0 0 0 2-2 2 2 0 0 0 -2-1.9995"/><path d="m9.0176 39.6585a3.4067 3.4067 0 0 0 2.4876.6748h.8119"/><path d="m9.0167 33.0015a3.4069 3.4069 0 0 1 2.4894-.6681l.8119.0018"/><path d="m10.2801 36.3343h2.037"/></g></svg>