<svg viewBox="0 0 48 48" xmlns="http://www.w3.org/2000/svg"><g fill="none" stroke="#000" stroke-linecap="round" stroke-linejoin="round"><path d="m40.5 42.5h-33a2 2 0 0 1 -2-2v-33a2 2 0 0 1 2-2h33a2 2 0 0 1 2 2v33a2 2 0 0 1 -2 2z"/><path d="m27.68 25.54a4.42 4.42 0 0 1 4.41-4.41 4.41 4.41 0 0 1 4.41 4.41v2.87a4.41 4.41 0 0 1 -4.41 4.41 4.42 4.42 0 0 1 -4.41-4.41"/><path d="m27.68 32.82v-17.64"/><g stroke-width=".87"><path d="m18.77 24a4.41 4.41 0 0 1 0 8.82h-7.27v-17.64h7.27a4.41 4.41 0 0 1 0 8.82z"/><path d="m18.77 24h-7.27"/></g></g></svg>