<svg viewBox="0 0 48 48" xmlns="http://www.w3.org/2000/svg"><g fill="none" stroke="#000" stroke-linecap="round" stroke-linejoin="round"><path d="m21.902 28.869-4.246-3.784-2.03-2.769v-4.615h-2.862l2.216-.83v-1.016l5.261-3.784.553 2.954 11.906 8.306 3.877 3.323-2.677-1.015 2.4 2.031-4.337-1.385 9.506 6.922 2.031 2.215-2.401-.646-8.675-6.553h-2.861z"/><path d="m25.511 28.565-1.625 2.15 2.954-2.263"/><path d="m21.435 28.452-1.471 1.709.735-2.364"/><path d="m4.5 27.023 27.047 4.661 5.169 4.245"/><path d="m14.98 15.855h4.015l-3.369 1.846"/><path d="m31.963 26.285-5.123-2.538-.877-1.985-4.938-.374-.646-3.687-2.723 2.261-2.03 2.354"/></g></svg>