<svg viewBox="0 0 48 48" xmlns="http://www.w3.org/2000/svg"><g fill="none" stroke="#000" stroke-linecap="round" stroke-linejoin="round"><path d="m14.25 6.86c.7 1.61 2.15 3.64 2.1 4.82a2 2 0 0 1 -2.1 2.11 2 2 0 0 1 -2.1-2.11c-.05-1.18 1.4-3.21 2.11-4.82z"/><path d="m40.62 25.64v11.52c-.09 3-7.5 5.34-16.62 5.34s-16.53-2.38-16.62-5.34v-11.52"/><path d="m24 5.5c.71 1.61 2.16 3.64 2.11 4.82a2 2 0 0 1 -2.11 2.12 2.06 2.06 0 0 1 -2.11-2.12c0-1.18 1.4-3.21 2.11-4.82z"/><path d="m33.68 6.85c.71 1.61 2.15 3.64 2.11 4.82a2.05 2.05 0 0 1 -2.11 2.12 2.05 2.05 0 0 1 -2.11-2.12c0-1.18 1.4-3.21 2.11-4.82z"/><path d="m40.63 25.69c-.1 2.96-7.51 5.31-16.63 5.31s-16.53-2.35-16.62-5.31v-.05"/><path d="m7.37 25.63c.09-3 7.5-5.34 16.62-5.34s16.53 2.38 16.62 5.34v.05"/><path d="m23.97 14.44v7.89"/><path d="m14.25 15.79v8.21"/><path d="m33.68 15.79v8.21"/></g></svg>