<svg viewBox="0 0 48 48" xmlns="http://www.w3.org/2000/svg"><g fill="none" stroke="#000" stroke-linecap="round" stroke-linejoin="round"><path d="m24.3823 2.5c-11.1173 0-20.3232 8.39-20.3232 21.9079s12.6436 21.0921 21.7909 21.0921 18.4967-7.43 18.0769-11.2088c-.4151-3.7363-3.8018-2.2287-5.1347-1.0051s-7.9314 6.2053-12.3887 6.2053-15.1413-6.3801-15.1413-13.7214 2.6878-15.863 5.1128-15.863c3.2774 0 5.9867 5.1347 9.6793 5.1347s6.3146-3.1027 6.3146-5.7028-2.7689-6.8389-7.9866-6.8389z"/><path d="m33.3084 24c1.2673 0 3.2337.4807 3.2337 1.5295 0 1.4712-2.5127 3.7144-4.501 3.7144s-2.0757-1.8139-2.0757-2.6219.8084-2.622 3.343-2.622z"/><path d="m19.1356 24c-1.2673 0-3.2338.4807-3.2338 1.5295 0 1.4712 2.5128 3.7144 4.5011 3.7144s2.0757-1.8135 2.0757-2.6219-.8086-2.622-3.343-2.622z"/><path d="m39.2733 22.4268c1.9883 0 2.622-1.158 2.622-2.4471s-2.9716-10.0071-4.37-10.0071-6.38 5.1565-6.38 7.21 5.7027 5.2442 8.128 5.2442z"/><path d="m25.5159 35.8065-1.7359-2.3032a.8313.8313 0 0 1 .6638-1.3316h3.6137a.8313.8313 0 0 1 .6639 1.3316l-1.7354 2.3032a.92.92 0 0 1 -1.4701 0z"/></g></svg>