<svg viewBox="0 0 48 48" xmlns="http://www.w3.org/2000/svg"><g fill="none" stroke="#000" stroke-linecap="round" stroke-linejoin="round"><g stroke-width=".87"><path d="m27.13 24.84a5.33 5.33 0 0 1 -2.76 10.29l-8.49-2.28 5.51-20.58 8.49 2.28a5.33 5.33 0 1 1 -2.75 10.29z"/><path d="m27.13 24.84-8.49-2.28"/><path d="m21.39 12.27-3.01-.8"/><path d="m15.88 32.85-3.02-.81"/><path d="m24.01 12.98.98-3.65"/><path d="m28.21 14.1.98-3.65"/><path d="m17.52 37.2.98-3.65"/><path d="m21.72 38.33.98-3.65"/></g><path d="m40.5 5.5h-33a2 2 0 0 0 -2 2v33a2 2 0 0 0 2 2h33a2 2 0 0 0 2-2v-33a2 2 0 0 0 -2-2z"/></g></svg>