<svg viewBox="0 0 48 48" xmlns="http://www.w3.org/2000/svg"><g fill="none" stroke="#000" stroke-linecap="round" stroke-linejoin="round"><path d="m36.4482 21.0864c-2.8291 0-6.925 2.8714-8.0652 3.3359a7.7718 7.7718 0 0 0 5.367 2.4913c2.1071 0 4.6406-2.3858 5.8387-4.4114a3.9794 3.9794 0 0 0 -3.1405-1.4158z"/><path d="m24 28.9405c-4.2311 0-5.7343 4.94-10.2947 4.94s-9.2053-7.0513-9.2053-12.2452c0-5.32 2.28-7.5162 4.9827-7.5162 4.894 0 8.53 4.8138 14.5173 4.8138s9.6233-4.8138 14.5173-4.8138c2.7025 0 4.9827 2.1957 4.9827 7.5162 0 5.1939-4.6449 12.2456-9.2053 12.2456s-6.0636-4.9404-10.2947-4.9404z"/><path d="m11.5518 21.0864c2.8291 0 6.925 2.8714 8.0652 3.3359a7.7718 7.7718 0 0 1 -5.367 2.4913c-2.1071 0-4.6406-2.3858-5.8387-4.4114a3.9794 3.9794 0 0 1 3.1405-1.4158z"/></g></svg>