<svg viewBox="0 0 48 48" xmlns="http://www.w3.org/2000/svg"><g fill="none" stroke="#000" stroke-linecap="round" stroke-linejoin="round"><path d="m35.59 5.5h-23.18a4.57 4.57 0 0 0 -4.56 4.57v21.25a4.58 4.58 0 0 0 4.56 4.57h10v6.61l6.59-6.61h6.56a4.58 4.58 0 0 0 4.56-4.57v-21.25a4.57 4.57 0 0 0 -4.53-4.57z"/><rect height="6.33" rx="2.49" width="4.98" x="26.35" y="12.59"/><path d="m19.16 13.26a2.51 2.51 0 0 0 -2.49 2.5v.67c0 1.37 1.12-.24 2.49-.24 1.37 0 2.49 1.61 2.49.24v-.67a2.51 2.51 0 0 0 -2.49-2.5z"/><path d="m15.41 22.21a8.59 8.59 0 1 0 17.18 0z"/></g></svg>