<svg viewBox="0 0 48 48" xmlns="http://www.w3.org/2000/svg"><g fill="none" stroke="#000" stroke-linecap="round" stroke-linejoin="round"><path d="m28.7112 10.4441v4.8286a2.893 2.893 0 0 1 -1.9927 2.7435l-8.5271 2.6061"/><path d="m14.6842 11.1456 12.5879-3.9688a7.4673 7.4673 0 0 1 3.1241-.3323l-1.5784-1.1526a6.5185 6.5185 0 0 0 -5.6822-.8887l-11.959 3.7708z"/><path d="m33.5044 21.23s2.2233-2.018 2.2233-6.3549v-1.8351a6.5327 6.5327 0 0 0 -8.5535-5.8323l-12.49 3.9379v24.4555l3.5072-1.1057v-6.9884l11.2724-3.5537a2.9488 2.9488 0 0 1 3.8524 2.8248v2.2573a7.6612 7.6612 0 0 1 -5.2113 6.556l-16.9283 5.337 3.5072 2.5716 15.2141-4.7966c3.2873-1.0457 6.9255-3.866 6.9255-9.8538v-2.3056a6.365 6.365 0 0 0 -3.319-5.3141m-5.2686-.5667-10.0444 3.1668v-10.1128l10.0374-3.1648a3.0691 3.0691 0 0 1 3.9917 2.75l.0007 1.6465a5.6617 5.6617 0 0 1 -3.9854 5.7142"/><path d="m29.809 23.9533v4.308a3.4936 3.4936 0 0 1 -2.4529 3.345l-12.6716 3.9948v-24.4555l-3.5079-2.5716v32.3544"/></g></svg>