<svg viewBox="0 0 48 48" xmlns="http://www.w3.org/2000/svg"><path d="m35.38 25.63v-16.26h-11.38v28.87a34.93 34.93 0 0 0 5.41-3.48q6-4.66 6-9.14zm4.87-19.5v19.5a11.58 11.58 0 0 1 -.85 4.37 16.22 16.22 0 0 1 -2.11 3.81 23.52 23.52 0 0 1 -3 3.24 34.87 34.87 0 0 1 -3.22 2.62c-1 .69-2 1.35-3.07 2s-1.82 1-2.27 1.26l-1.08.51a1.53 1.53 0 0 1 -1.32 0l-1.08-.51c-.45-.22-1.21-.64-2.27-1.26s-2.09-1.27-3.07-2a34.87 34.87 0 0 1 -3.21-2.67 23.52 23.52 0 0 1 -3-3.24 16.22 16.22 0 0 1 -2.1-3.76 11.58 11.58 0 0 1 -.85-4.32v-19.55a1.64 1.64 0 0 1 1.63-1.63h29.24a1.64 1.64 0 0 1 1.63 1.63z" fill="none" stroke="#000" stroke-linecap="round" stroke-linejoin="round"/></svg>