<svg viewBox="0 0 48 48" xmlns="http://www.w3.org/2000/svg"><g fill="none" stroke="#000" stroke-linecap="round" stroke-linejoin="round"><path d="m32.0621 12.9761v-1.75a5.6448 5.6448 0 0 0 -5.6421-5.6419h-15.2777a5.6448 5.6448 0 0 0 -5.6423 5.6422v15.2436a5.6455 5.6455 0 0 0 5.6423 5.6422h15.2777a5.6454 5.6454 0 0 0 5.6421-5.6422v-7.743"/><path d="m15.9389 35.0228v1.7508a5.6448 5.6448 0 0 0 5.6423 5.6422h15.2765a5.6455 5.6455 0 0 0 5.6423-5.6422v-15.2436a5.6448 5.6448 0 0 0 -5.6423-5.6422h-15.2765a5.6441 5.6441 0 0 0 -5.6423 5.6422v7.742"/></g></svg>