<svg viewBox="0 0 48 48" xmlns="http://www.w3.org/2000/svg"><g fill="none" stroke="#000" stroke-linecap="round" stroke-linejoin="round"><path d="m19.77 9.5 1.16 11.5a1.63 1.63 0 0 0 1.8 1.47l.49-.05"/><path d="m32.16 18.17a3.29 3.29 0 0 1 -2.94 3.6 3.29 3.29 0 0 1 -3.6-2.94l-.22-2.13a3.29 3.29 0 0 1 3-3.6 3.29 3.29 0 0 1 3.6 2.9"/><path d="m32.49 21.44-.87-8.67"/><path d="m10.55 18.2a3.27 3.27 0 0 1 2.94-3.6 3.27 3.27 0 0 1 3.6 2.94l.22 2.12a3.3 3.3 0 0 1 -2.95 3.61 3.3 3.3 0 0 1 -3.6-2.95"/><path d="m11.09 23.6-1.32-13.09"/><path d="m25.51 24.4 1.15 11.46a1.65 1.65 0 0 0 1.8 1.47h.49"/><path d="m37.9 33.07a3.29 3.29 0 0 1 -2.9 3.6 3.29 3.29 0 0 1 -3.61-2.94l-.21-2.13a3.29 3.29 0 0 1 2.9-3.6 3.29 3.29 0 0 1 3.6 2.94"/><path d="m38.23 36.34-.88-8.67"/><path d="m16.28 33.1a3.29 3.29 0 0 1 2.95-3.6 3.29 3.29 0 0 1 3.6 2.94l.17 2.13a3.28 3.28 0 0 1 -2.94 3.6 3.28 3.28 0 0 1 -3.6-2.94"/><path d="m16.83 38.5-1.32-13.09"/><path d="m40.5 5.5h-33a2 2 0 0 0 -2 2v33a2 2 0 0 0 2 2h33a2 2 0 0 0 2-2v-33a2 2 0 0 0 -2-2z"/></g></svg>