<svg viewBox="0 0 48 48" xmlns="http://www.w3.org/2000/svg"><g fill="none" stroke="#000" stroke-linecap="round" stroke-linejoin="round"><path d="m31.46 22.39v1.36"/><path d="m17.82 17.78v3.7a.6.6 0 0 0 .34.54l3 1.44a.6.6 0 0 1 0 1.08l-3 1.44a.6.6 0 0 0 -.34.54v3.7a1.2 1.2 0 0 0 1.72 1.08l14.16-6.76a.6.6 0 0 0 0-1.08l-14.16-6.76a1.2 1.2 0 0 0 -1.72 1.08z"/><path d="m25.93 19.75v4"/><path d="m28.69 23.75v-2.68"/><path d="m24.86 2.52a21.48 21.48 0 0 0 -22 17.79 1 1 0 0 0 .56 1.06l4.37 2.09a.6.6 0 0 1 0 1.08l-4.39 2.09a1 1 0 0 0 -.56 1.06 21.49 21.49 0 1 0 22-25.17z"/></g></svg>