<svg viewBox="0 0 48 48" xmlns="http://www.w3.org/2000/svg"><g fill="none" stroke="#000" stroke-linecap="round" stroke-linejoin="round"><path d="m40.3335 34.0415v7.709a1.5 1.5 0 0 1 -1.5 1.5h-27.3125a3.8545 3.8545 0 0 1 -3.8545-3.8545 3.8545 3.8545 0 0 1 3.8545-3.8545h27.3125a1.5 1.5 0 0 0 1.5-1.5v-27.7915a1.5 1.5 0 0 0 -1.5-1.5h-27.3125a3.8545 3.8545 0 0 0 -3.8545 3.854v30.792"/><ellipse cx="24.125" cy="19.9533" rx="11.271" ry="9.3364"/><path d="m19.5541 20.1464c.5033-.4262 2.392-2.0282 2.568-2.1689a.7338.7338 0 0 0 .188-.8118 13.86 13.86 0 0 1 -.36-1.6954.638.638 0 0 0 -.7245-.4787l-.0222.0024h-2.7571a.4486.4486 0 0 0 -.44.3743 8.3135 8.3135 0 0 0 1.4948 4.7l-.0007.0007.0128.0173.0407.06.0022-.0019a10.7452 10.7452 0 0 0 4.22 3.4883l-.004.0032s.05.0242.1412.0653l.0045.0022a13.3367 13.3367 0 0 0 5.6171 1.215.4544.4544 0 0 0 .4514-.3644v-2.286a.5685.5685 0 0 0 -.5529-.6168l-.0212-.0023q-1.0312-.1044-2.045-.2982a1.1814 1.1814 0 0 0 -.979.1559c-.17.1464-2.1 1.7106-2.6163 2.1294"/><path d="m16.1565 26.5541 15.937-13.2016"/></g></svg>