<svg viewBox="0 0 48 48" xmlns="http://www.w3.org/2000/svg"><path d="m13.51 36.75h-5.64v-18.81l16.13-12.44 16.13 12.44v18.81h-5.64m-17.17-5.58h2.12c1.38 0 1.7.67 1.7 1.21 0 .75-.49 1.57-2.21 1.57h-2.21zm5.71 0h2.11c1.38 0 1.7.67 1.7 1.21 0 .75-.49 1.57-2.21 1.57h-2.2zm5.2 2.49h2.11c1.38 0 1.7.68 1.7 1.21 0 .76-.49 1.57-2.21 1.57h-2.21zm-11.67 1.7h2.11c1.38 0 1.71.67 1.71 1.21 0 .75-.49 1.57-2.22 1.57h-2.16zm5.7 0h2.12c1.37 0 1.7.67 1.7 1.21 0 .75-.49 1.57-2.21 1.57h-2.21zm5.14 2.64h2.12c1.38 0 1.7.67 1.7 1.21 0 .75-.49 1.57-2.21 1.57h-2.21zm-6 1.7h2.12c1.37 0 1.7.67 1.7 1.21 0 .76-.49 1.57-2.21 1.57h-2.17z" fill="none" stroke="#000" stroke-linecap="round" stroke-linejoin="round"/></svg>