<svg viewBox="0 0 48 48" xmlns="http://www.w3.org/2000/svg"><path d="m15.18 5.25a10.68 10.68 0 0 0 -8.29 17.42l17.11 20.08 16.94-19.88.08-.1.09-.1a10.68 10.68 0 1 0 -17.11-12.75 10.7 10.7 0 0 0 -8.81-4.67zm0 9h2.82c1.81 0 2.24.89 2.24 1.59 0 1-.65 2.08-2.92 2.08h-2.9zm7.52 0h2.8c1.81 0 2.24.89 2.24 1.59 0 1-.65 2.08-2.92 2.08h-2.88zm6.86 3.28h2.8c1.81 0 2.24.9 2.24 1.6 0 1-.65 2.07-2.92 2.07h-2.88zm-15.36 2.25h2.8c1.81 0 2.24.9 2.24 1.6 0 1-.65 2.08-2.92 2.08h-2.91zm7.53 0h2.79c1.81 0 2.24.9 2.24 1.6 0 1-.64 2.08-2.92 2.08h-2.91zm6.78 3.52h2.79c1.82 0 2.25.89 2.25 1.59 0 1-.65 2.08-2.92 2.08h-2.91zm-7.86 2.23h2.79c1.81 0 2.24.9 2.24 1.61 0 1-.64 2.07-2.92 2.07h-2.91z" fill="none" stroke="#000" stroke-linecap="round" stroke-linejoin="round"/></svg>