<svg viewBox="0 0 48 48" xmlns="http://www.w3.org/2000/svg"><g fill="none" stroke="#000" stroke-linecap="round" stroke-linejoin="round"><path d="m18 27-13 13 3 3 13-13"/><circle cx="29.15" cy="18.85" r="13.85"/><path d="m20.76 11.73-.76 3.5h2.77c2.16 0 2.78-1 2.78-2 0-.67-.41-1.52-2.14-1.52z"/><path d="m27.93 11.73-.76 3.49h2.77c2.17 0 2.78-1 2.78-2 0-.67-.41-1.52-2.14-1.52z"/><path d="m34.46 14.86-.76 3.49h2.77c2.17 0 2.79-1 2.79-2 0-.67-.41-1.52-2.14-1.52z"/><path d="m19.8 17-.75 3.5h2.77c2.16 0 2.78-1 2.78-2 0-.67-.41-1.52-2.14-1.52z"/><path d="m27 17-.76 3.5h2.76c2.17 0 2.78-1 2.78-2 0-.67-.41-1.52-2.13-1.52z"/><path d="m33.43 20.34-.76 3.5h2.77c2.17 0 2.78-1 2.78-2 0-.67-.41-1.52-2.13-1.52z"/><path d="m25.94 22.47-.76 3.53h2.82c2.17 0 2.78-1 2.78-2 0-.67-.41-1.52-2.13-1.52z"/></g></svg>