<svg viewBox="0 0 48 48" xmlns="http://www.w3.org/2000/svg"><g fill="none" stroke="#000" stroke-linecap="round" stroke-linejoin="round"><path d="m39.16 33.28-1.1 3.93a2.56 2.56 0 0 1 -1.78 1.79l-3.92 1.1-23.82-23.83 6.81-6.8z"/><path d="m12.22 19.92 6.79-6.79"/><path d="m37.41 38.33-21.81-21.8"/><path d="m8.25 6.44h2.07a3.78 3.78 0 0 1 3.78 3.78v3.78a0 0 0 0 1 0 0h-9.63a0 0 0 0 1 0 0v-3.78a3.78 3.78 0 0 1 3.78-3.78z" transform="matrix(.70710678 -.70710678 .70710678 .70710678 -4.5 9.55)"/><path d="m32.36 40.09 8.16 2.57a1 1 0 0 0 1.21-1.22l-2.57-8.16"/><path d="m41.5 40.69a1.23 1.23 0 1 0 -1.74 1.73"/></g></svg>