<svg viewBox="0 0 48 48" xmlns="http://www.w3.org/2000/svg"><g fill="none" stroke="#000" stroke-linecap="round" stroke-linejoin="round"><path d="m40.5 5.5h-33a2 2 0 0 0 -2 2v33a2 2 0 0 0 2 2h33a2 2 0 0 0 2-2v-33a2 2 0 0 0 -2-2z"/><path d="m14.37 13.08h6.24v-7.57"/><path d="m11.17 10.38h2.46a.76.76 0 0 1 .74.78v4.93a.76.76 0 0 1 -.74.78h-2.46a.76.76 0 0 1 -.74-.78v-4.93a.76.76 0 0 1 .74-.78z"/><path d="m13.45 33.62h4.83a.76.76 0 0 1 .74.78v2.4a.76.76 0 0 1 -.74.78h-4.83a.76.76 0 0 1 -.74-.78v-2.4a.76.76 0 0 1 .74-.78z"/><path d="m34.35 8.07h2.41a.76.76 0 0 1 .74.78v2.37a.76.76 0 0 1 -.74.78h-2.41a.76.76 0 0 1 -.74-.78v-2.37a.76.76 0 0 1 .74-.78z"/><path d="m27.44 15.13h2.41a.76.76 0 0 1 .74.78v2.36a.76.76 0 0 1 -.74.78h-2.41a.76.76 0 0 1 -.74-.78v-2.36a.76.76 0 0 1 .74-.78z"/><path d="m32 36h2.41a.76.76 0 0 1 .74.78v2.37a.75.75 0 0 1 -.74.77h-2.41a.75.75 0 0 1 -.74-.77v-2.35a.76.76 0 0 1 .74-.8z"/><path d="m11.84 10.38v-4.87"/><path d="m12.7 35.67h-7.19"/><path d="m14.18 37.59v4.91"/><path d="m34.24 40v2.5"/><path d="m37.5 9.35h5"/><path d="m33.61 10.41h-5.35v4.72"/><path d="m23.58 20v-1.77h-5.17v-5.14"/><path d="m28.1 19.06v1"/><path d="m17.29 30.92v2.7"/><path d="m23.57 31v6.9h7.7"/><path d="m34.15 30.89v5.11"/><path d="m34.15 32.71h8.35"/><path d="m35.12 12v5h2.61v3"/><path d="m24.87 27a2 2 0 0 1 -1.74 1 2 2 0 0 1 -2-2v-1.3a2 2 0 0 1 2-2 2 2 0 0 1 2 2v.65h-4"/><path d="m30.87 27a2 2 0 0 1 -1.74 1 2 2 0 0 1 -2-2v-1.3a2 2 0 0 1 2-2 2 2 0 0 1 2 2v.65h-4"/><path d="m18.32 20v7a1 1 0 0 0 1 1h.3"/><path d="m37.1 28v-3.3a2 2 0 0 0 -2-2 2 2 0 0 0 -2 2v3.3"/><path d="m33.1 24.7v-2"/><g stroke-width=".87"><path d="m14.2 24a2 2 0 1 1 0 4h-3.3v-8h3.3a2 2 0 1 1 0 4z"/><path d="m14.2 24h-3.3"/></g></g></svg>