<svg viewBox="0 0 48 48" xmlns="http://www.w3.org/2000/svg"><g fill="none" stroke="#000" stroke-linecap="round"><path d="m8.14 5.5h31.72a2.65 2.65 0 0 1 2.64 2.64v31.72a2.65 2.65 0 0 1 -2.64 2.64h-31.72a2.65 2.65 0 0 1 -2.64-2.64v-31.72a2.65 2.65 0 0 1 2.64-2.64z" stroke-opacity=".99"/><circle cx="17.45" cy="25.4" r="1.3" stroke-opacity=".99"/><path d="m17.45 19.77a5.59 5.59 0 0 1 5.63 5.63" stroke-opacity=".99"/><path d="m17.45 14.78a10.71 10.71 0 0 1 10.62 10.62" stroke-opacity=".99"/><path d="m17.45 9.58a15.74 15.74 0 0 1 15.71 15.82" stroke-opacity=".99"/><g stroke-linejoin="round"><path d="m17.5 30.5v8.2h4.1"/><path d="m23.6 38.7h4.1"/><path d="m23.6 30.5h4.1"/><path d="m23.6 34.6h2.7"/><path d="m23.6 30.5v8.2"/><path d="m29.8 38.7v-8.2l4.1 8.2 4.1-8.2v8.2"/><path d="m13.4 34.6a2 2 0 0 1 0 4h-3.4v-8.2h3.4a2 2 0 0 1 2 2 2.19 2.19 0 0 1 -2 2.2z" stroke-width=".87"/><path d="m13.4 34.6h-3.4" stroke-width=".87"/></g></g></svg>