<svg viewBox="0 0 48 48" xmlns="http://www.w3.org/2000/svg"><g fill="none" stroke="#000" stroke-linecap="round" stroke-linejoin="round"><path d="m23.6221 33.8934c5.6421 0 10.216 1.5888 10.216 3.5487s-4.5739 3.5487-10.216 3.5487-10.2159-1.5888-10.2159-3.5487c0-.98 1.1434-1.8671 2.9921-2.5093"/><path d="m24.0343 31.671c9.0769 0 16.4352 2.648 16.4352 5.9145s-7.3583 5.9145-16.4352 5.9145-16.4623-2.6481-16.4351-5.9145c.0238-2.8522 4.1545-4.9842 8.04-5.58"/><path d="m24.4824 35.9725c2.3954 0 3.5128.6654 3.5128 1.3979s-1.9777 1.6131-4.3731 1.6131-4.288-.8807-4.3015-1.6131c-.0125-.6847 1.5386-1.0461 2.059-1.1887"/><path d="m16.2021 11.956c-5.9016-7.3155-12.46 5.2861-6.0937 6.2371 8.78 1.3116 18.3311 1.7431 26.3105.3585 8.0163-1.3911 2.8368-12.6316-3.6562-6.3088 4.4413-2.9205-3.1491-13.112-7.85-2.1507 3.4121-6.8107-10.0977-8.7229-8.7106 1.8639z"/><path d="m18.1528 19.1105-3.3845 4.567.3584 2.7242-2.1148 1.7206"/><path d="m14.7683 23.6775c-2.1786-.2835-4.2465-.2571-5.95.7886"/><path d="m16.4458 21.4139 5.7066 4.952-1.7564 5.7353-2.2583 2.2582"/><path d="m22.1524 26.3659 3.6921 1.1112 3.011-2.5092 1.9.1434"/><path d="m25.8445 27.4771-.0717 2.1866 1.0754.86"/><path d="m20.396 32.1012 3.62 5.5918"/></g></svg>