<svg viewBox="0 0 48 48" xmlns="http://www.w3.org/2000/svg"><g fill="none" stroke="#000" stroke-linecap="round" stroke-linejoin="round"><rect height="3.87" rx="1.93" transform="matrix(.70710678 .70710678 -.70710678 .70710678 26.26 -4.49)" width="17.02" x="10.04" y="27.52"/><path d="m13.27 29.45h2.26v6.75h-2.26z" transform="matrix(.70710678 .70710678 -.70710678 .70710678 27.43 -.57)"/><rect height="9.81" rx="1.55" transform="matrix(-.70710678 .70710678 -.70710678 -.70710678 44.31 54.26)" width="3.1" x="9.37" y="31.4"/><path d="m27.16 9.72a5.66 5.66 0 0 1 5.66 5.66v15.56a0 0 0 0 1 0 0h-11.32a0 0 0 0 1 0 0v-15.56a5.66 5.66 0 0 1 5.66-5.66z" transform="matrix(.70710678 .70710678 -.70710678 .70710678 22.33 -13.25)"/><path d="m34.67 12.83 2.86-2.87"/><path d="m25.76 13.73 2.32 2.32"/><path d="m20.54 18.95 2.32 2.32"/><path d="m23.15 16.34 3.87 3.87"/><path d="m17.93 21.56 3.87 3.87"/></g></svg>