<svg viewBox="0 0 48 48" xmlns="http://www.w3.org/2000/svg"><g fill="none" stroke="#000" stroke-linecap="round" stroke-linejoin="round"><path d="m6.7 6.91a2.2 2.2 0 0 0 -2.2 2.2v2.65h4.8v-4.85z"/><path d="m9.3 6.91h4.9v4.85h-4.9z"/><path d="m14.2 6.91h4.9v4.85h-4.9z"/><path d="m19.1 6.91h4.9v4.85h-4.9z"/><path d="m24 6.91h4.9v4.85h-4.9z"/><path d="m28.9 6.91h4.9v4.85h-4.9z"/><path d="m33.79 6.91h4.9v4.85h-4.9z"/><path d="m38.69 6.91v4.85h4.81v-2.65a2.2 2.2 0 0 0 -2.2-2.2z"/><path d="m4.5 11.76h4.8v4.9h-4.8z"/><path d="m9.3 11.76h4.9v4.9h-4.9z"/><path d="m14.2 11.76h4.9v4.9h-4.9z"/><path d="m28.9 11.76h4.9v4.9h-4.9z"/><path d="m33.8 11.76h4.9v4.9h-4.9z"/><path d="m38.7 11.76h4.8v4.9h-4.8z"/><path d="m4.5 16.65h4.8v4.9h-4.8z"/><path d="m9.3 16.65h4.9v4.9h-4.9z"/><path d="m14.2 16.65h4.9v4.9h-4.9z"/><path d="m28.9 16.65h4.9v4.9h-4.9z"/><path d="m33.8 16.65h4.9v4.9h-4.9z"/><path d="m38.7 16.65h4.8v4.9h-4.8z"/><path d="m4.5 21.55h4.8v4.9h-4.8z"/><path d="m9.3 21.55h4.9v4.9h-4.9z"/><path d="m14.2 21.55h4.9v4.9h-4.9z"/><path d="m19.1 21.55h4.9v4.9h-4.9z"/><path d="m24 21.55h4.9v4.9h-4.9z"/><path d="m28.9 21.55h4.9v4.9h-4.9z"/><path d="m33.8 21.55h4.9v4.9h-4.9z"/><path d="m38.7 21.55h4.8v4.9h-4.8z"/><path d="m4.5 26.45h4.8v4.9h-4.8z"/><path d="m19.1 26.45h4.9v4.9h-4.9z"/><path d="m24 26.45h4.9v4.9h-4.9z"/><path d="m38.7 26.45h4.8v4.9h-4.8z"/><path d="m4.5 31.35h4.8v4.9h-4.8z"/><path d="m9.31 31.35h4.9v4.9h-4.9z"/><path d="m33.8 31.35h4.9v4.9h-4.9z"/><path d="m38.7 31.35h4.8v4.9h-4.8z"/><path d="m4.5 36.24v2.65a2.2 2.2 0 0 0 2.2 2.2h2.61v-4.84z"/><path d="m9.31 36.24h4.9v4.85h-4.9z"/><path d="m14.21 36.24h4.9v4.85h-4.9z"/><path d="m19.1 36.24h4.9v4.85h-4.9z"/><path d="m24 36.24h4.9v4.85h-4.9z"/><path d="m28.9 36.24h4.9v4.85h-4.9z"/><path d="m33.8 36.24h4.9v4.85h-4.9z"/><path d="m38.7 36.24v4.85h2.6a2.2 2.2 0 0 0 2.2-2.2v-2.65z"/></g></svg>