<svg viewBox="0 0 48 48" xmlns="http://www.w3.org/2000/svg"><path d="m21.13 41.3a17.63 17.63 0 0 0 2.87 2.2c.44 0 17.2-12.5 17.2-28.27 0-5.41-1.2-10.11-1.42-10.11-.62 0-1.78 2.57-6 2.57-5.35 0-8.72-3.19-9.78-3.19s-4.43 3.19-9.75 3.19c-4.25 0-5.41-2.57-6-2.57-.25 0-1.45 4.7-1.45 10.11 0 11.83 9.43 21.82 14.33 26.07m12.62-30.24a10.65 10.65 0 0 0 3.72-.62 42.59 42.59 0 0 1 .27 4.79 22.43 22.43 0 0 1 -.89 5.85l-15.07-11.79a11.31 11.31 0 0 0 2.13-1.16 20 20 0 0 0 9.84 2.93zm-23.58 4.16a31.38 31.38 0 0 1 .27-4.16l23.93 15.94-24.11-9.83a14.07 14.07 0 0 1 -.09-1.95zm13.83 24.11a50.79 50.79 0 0 1 -6.83-7c-2.57-3.28-5.67-8.06-6.64-13.33l18.17 15.81a37.63 37.63 0 0 1 -4.7 4.52z" fill="none" stroke="#000" stroke-linecap="round" stroke-linejoin="round"/></svg>