<svg viewBox="0 0 48 48" xmlns="http://www.w3.org/2000/svg"><g fill="none" stroke="#000" stroke-linecap="round" stroke-linejoin="round"><path d="m6.9916 17.9466 23.1613 20.08"/><path d="m7.3592 8.49 29.8918 19.9139-30.441-12.5086"/><path d="m40.33 21.1562-19.3875-15.1698"/><path d="m24 43.5c5.8085-3.9362 17.2-16.44 17.2-28.27 0-5.41-1.2-10.11-1.45-10.11-.59 0-1.75 2.57-6 2.57-5.32 0-8.69-3.19-9.75-3.19s-4.43 3.19-9.75 3.19c-4.25 0-5.41-2.57-6-2.57-.25 0-1.45 4.7-1.45 10.11 0 11.83 11.3915 24.3338 17.2 28.27z"/></g></svg>