<svg viewBox="0 0 48 48" xmlns="http://www.w3.org/2000/svg"><g fill="none" stroke="#000" stroke-linecap="round" stroke-linejoin="round"><path d="m14.7523 20.8c-1.2447-8.1351 4.2033-12.1683 11.7108-12.389a14.6106 14.6106 0 0 1 11.53 5.426c2.5383 3.3649 2.69 8.5947 2.0348 12.48"/><path d="m14.7523 20.8s-3.8472 2.855-3.7982 4.9286c.0649 2.7473 2.7974 4.95 5.3355 6.2851"/><circle cx="20.9919" cy="16.4362" r="4.0126"/><path d="m19.8812 9.8791a8.5633 8.5633 0 0 0 -2.3582-3.5027c-2.0551-1.83-7.1459-3.0953-9.3518 0-2.7207 3.8177-3.383 7.4047.9738 12.2074"/><path d="m9.145 18.584c-.4447.4672-1.4793.4288-1.1756 1.5373l1.4469 1.4017c1.2377.5653 1.5145-.771 2.17-1.7182a7.5809 7.5809 0 0 0 2.9888-1.0686"/><path d="m40.0278 26.3163c1.0683 2.4869 2.48 4.9739-.1809 7.4608"/><path d="m39.8472 33.7768c-2.4086-4.9723-5.5542-7.1408-10.6264-9.0434a23.305 23.305 0 0 0 -11.5754-.8134c-3.8167.81-8.2175 2.972-1.3565 8.0938"/><path d="m33.2 26.6774c-.2323 2.8064-.87 6.072-2.5445 7.797"/><path d="m35.5968 28.2825a13.4356 13.4356 0 0 1 -2.3513 5.3356"/><path d="m25.2643 28.3848a3.9576 3.9576 0 0 0 .6331 3.7191 2.6738 2.6738 0 0 0 2.1026.7687 3.4134 3.4134 0 0 0 2.2835-1.0174 3.1443 3.1443 0 0 0 .95-2.4869c-.6579-3.9653-5.039-3.1692-5.9685-.9835"/><path d="m19.9968 25.593 2.4191 2.9843 2.37-2.1"/><path d="m19.3979 27.5823c-.8476-.5481-3.59-1.9451-2.5661 2.5773a3.3806 3.3806 0 0 0 1.8765 2.306 2.0369 2.0369 0 0 0 1.5148-.1808 1.4033 1.4033 0 0 0 .7009-.61 2.7153 2.7153 0 0 0 .113-1.9218 6.6042 6.6042 0 0 0 -1.6391-2.17"/><path d="m25.6884 27.7179a3.1665 3.1665 0 0 1 1.5889 2.0351c.0566.4469.001 1.0976-.4069 1.2887-.5494.2574-1.3206-.3-1.763-.73"/><path d="m18.2113 27.0239c-.02 1.029-.1961 2.1642.3618 2.7515a1.041 1.041 0 0 0 1.1983.2261c.4456-.3055.31-1.3022.3162-1.7022"/><path d="m15.2559 40.7988-8.3859 2.4849"/><path d="m10.1719 37.1674-4.4174 1.2865"/><path d="m10.1719 37.1674c2.4571-.5138 5.4433 2.6351 5.0837 3.6323 2.0677-.235 3.4935 1.8416 3.6607 2.6937"/><path d="m5.7585 37.2748c6.0577-5.1344 14.7554 1.8512 15.572 6.2237"/><path d="m14.8877 24.937c.1752 8.2578 4.1433 12.4073 14.0166 10.745"/><path d="m38.1067 31.1094a3.202 3.202 0 0 1 -4.0242 1.3339"/><path d="m5.7585 37.2748c13.2758-9.35 19.9186 3.6174 20.7493 6.2184"/><path d="m23.3885 34.5452a2.4674 2.4674 0 0 0 2.4416-.8365"/><path d="m39.8472 33.7768a18.473 18.473 0 0 0 -3.9791 2.1026 7.2955 7.2955 0 0 0 -2.6226-2.2608"/><path d="m28.9043 36.5v-1.57a4.86 4.86 0 0 1 3.92-.0684"/><path d="m33.2454 33.6183c-.378.0591-.6011.4087-.8591.5878a2.2114 2.2114 0 0 1 .5878 1.8991"/><path d="m32.9746 36.1051c-1.2194.0071-4.3462.2278-4.68.6556-.1667.2432-.043-.0317-.09.927.0406 1.0557.112 1.03.4748 1.3339.4746 2.091 1.292 4.6286 4.1335 4.4711h3.6571c7.5682-3.7269 6.5742-8.3657 3.378-9.7162"/><path d="m28.6781 39.0223 2.193-.0223"/><path d="m29.3306 41.1471 1.8349.09"/></g></svg>