<svg viewBox="0 0 48 48" xmlns="http://www.w3.org/2000/svg"><g fill="none" stroke="#000" stroke-linecap="round" stroke-linejoin="round"><path d="m7.4 5.5.0441 20.84 2.08.044-3.08 11.0239 16.249 1.226-.6131 5.8661 1.7877-1.8722 2.008 1.74-.602-5.5688 16.2822-1.439-3.12-10.888h2.0322l.0881-20.9279z"/><path d="m12.1282 25.8039c5.0916-2.6614 8.3881-.07 11.74 2.3641 3.939-3.3442 7.8815-4.7465 11.8241-2.276l2.544 9.5959c-4.5153-.9839-9.0012-1.5822-13.164 1.6519l-1.116-7.7237-1.1163 7.8558c-3.4544-1.9235-6.71-4.13-13.164-1.784zm-2.0082-17.7639.0477 15.8878 27.532.044.0441-16.02z"/><path d="m21.6359 13.7559 1.5161 3.5682 1.5638-1.2922zm2.3641 2.9882 1.16 1.2959"/><path d="m22.84 37.2719-.1469 1.3581m2.3788-1.49.2019 1.6592"/></g></svg>