<svg viewBox="0 0 48 48" xmlns="http://www.w3.org/2000/svg"><g fill="none" stroke="#000" stroke-linecap="round" stroke-linejoin="round"><path d="m11.2 10.1h25.5a1.22 1.22 0 0 1 1.2 1.2v25.6a1.22 1.22 0 0 1 -1.2 1.2h-25.5a1.22 1.22 0 0 1 -1.2-1.2v-25.7a1.2 1.2 0 0 1 1.2-1.1z"/><circle cx="14.5" cy="33.4" r="1.6"/><path d="m27.4 14.4h1.6c2.5 0 4.4 2.5 4.4 5.7v4.1c0 3.1-2 5.7-4.4 5.7h-1.6c-2.5 0-4.4-2.5-4.4-5.7v-4.1c-.1-3.2 1.9-5.7 4.4-5.7z"/><path d="m25 19.2 6 5.8-2.7 2.6v-10.6l2.6 2.5-5.9 6"/><path d="m12.5 5.4v4.6"/><path d="m15.8 5.4v4.6"/><path d="m19 5.4v4.6"/><path d="m22.3 5.4v4.6"/><path d="m25.6 5.4v4.6"/><path d="m28.8 5.4v4.6"/><path d="m32.1 5.4v4.6"/><path d="m35.3 5.4v4.6"/><path d="m12.5 38v4.6"/><path d="m15.8 38v4.6"/><path d="m19 38v4.6"/><path d="m22.3 38v4.6"/><path d="m25.6 38v4.6"/><path d="m28.8 38v4.6"/><path d="m32.1 38v4.6"/><path d="m35.3 38v4.6"/><path d="m5.5 12.5h4.5"/><path d="m5.5 15.8h4.5"/><path d="m5.5 19.1h4.5"/><path d="m5.5 22.4h4.5"/><path d="m5.5 25.7h4.5"/><path d="m5.5 28.9h4.5"/><path d="m5.5 32.2h4.5"/><path d="m37.9 12.5h4.6"/><path d="m37.9 15.8h4.6"/><path d="m37.9 19.1h4.6"/><path d="m37.9 22.4h4.6"/><path d="m37.9 25.7h4.6"/><path d="m37.9 28.9h4.6"/><path d="m37.9 32.2h4.6"/><path d="m5.5 35.6h4.5"/><path d="m37.9 35.6h4.6"/></g></svg>