<svg viewBox="0 0 48 48" xmlns="http://www.w3.org/2000/svg"><g fill="none" stroke="#000" stroke-linecap="round" stroke-linejoin="round"><path d="m24.8162 6.2159c5.75 4.3579 18.6829 14.11 18.6829 14.11v21.72h-38.9991v-21.7853l18.1276-13.8817a1.98 1.98 0 0 1 2.1883-.1633z"/><path d="m4.5007 20.2612 14.5969 11.9865m-14.3518 8.5578 17.6869-10.5173a2.59 2.59 0 0 1 3.07-.0326l17.9973 10.5498"/><path d="m43.4991 20.3264-14.8304 11.7856"/><path d="m21.09 21.7039a2.9831 2.9831 0 0 1 2.974-2.9739 2.9831 2.9831 0 0 1 2.9743 2.9743v1.9333a2.983 2.983 0 0 1 -2.9743 2.9743 2.983 2.983 0 0 1 -2.974-2.9747"/><path d="m21.0897 26.6115v-11.8971"/><path d="m4.5007 20.4242h15.0576"/><path d="m43.4991 20.4242h-14.3719"/></g></svg>