<svg viewBox="0 0 48 48" xmlns="http://www.w3.org/2000/svg"><g fill="none" stroke="#000" stroke-linecap="round" stroke-linejoin="round"><path d="m18.14 14.68a1.7 1.7 0 0 1 0-3.39h12a1.7 1.7 0 1 1 0 3.39z"/><path d="m36.79 33v2.09a1.58 1.58 0 0 1 -1.58 1.58h-13.56a1.17 1.17 0 0 1 -.66-.2l-4.99-3.47h-4.21a1.79 1.79 0 0 1 -1.79-1.83v-9.4a1.8 1.8 0 0 1 1.79-1.77h1.4l2.66-2.26a1.13 1.13 0 0 1 .73-.27h15.26a1.59 1.59 0 0 1 1.58 1.53v2.15h1.79a1.59 1.59 0 0 1 1.58 1.59v2.26"/><path d="m7.89 31.55a1.7 1.7 0 0 1 -3.39 0v-10.17a1.7 1.7 0 1 1 3.39 0z"/><path d="m7.89 26.46h2.11"/><path d="m24.14 17.44v-2.76"/><path d="m36.77 25.04h-11.95"/><path d="m36.77 33.04h-7.26"/><path d="m36.77 25.04h2.3v-3.26h2.11l2.32 7.2-2.33 7.2h-2.1v-3.14h-2.3"/></g></svg>