<svg viewBox="0 0 48 48" xmlns="http://www.w3.org/2000/svg"><g fill="none" stroke="#000" stroke-linecap="round" stroke-linejoin="round"><path d="m19.59 29.161-1.781 7.01-1.78-7.01-1.78 7.01-1.781-7.01"/><path d="m22.5867 36.1707a1.7717 1.7717 0 0 1 -1.78-1.7525v-1.1391a1.7718 1.7718 0 0 1 1.78-1.7525 1.7718 1.7718 0 0 1 1.78 1.7525v1.1391a1.7717 1.7717 0 0 1 -1.78 1.7525z"/><path d="m26.376 33.2791a1.7718 1.7718 0 0 1 1.78-1.7525"/><path d="m26.376 31.5266v4.6441"/><path d="m30.0013 29.1608v7.0099"/><path d="m35.5316 33.2791a1.7718 1.7718 0 0 0 -1.78-1.7525 1.7718 1.7718 0 0 0 -1.78 1.7525v1.1391a1.7717 1.7717 0 0 0 1.78 1.7525 1.7717 1.7717 0 0 0 1.78-1.7525"/><path d="m35.5316 36.1707v-7.0099"/><path d="m25 26.5168a3.6381 3.6381 0 0 1 -3.5812-3.6719v-2.3867a3.6382 3.6382 0 0 1 3.5812-3.672 3.6382 3.6382 0 0 1 3.5812 3.672v2.3867a3.6381 3.6381 0 0 1 -3.5812 3.6719z"/><path d="m10.9977 20.4582a3.6382 3.6382 0 0 1 3.5812-3.672 3.6381 3.6381 0 0 1 3.5812 3.672v2.3867a3.638 3.638 0 0 1 -3.5812 3.6719 3.6381 3.6381 0 0 1 -3.5812-3.6719"/><path d="m10.9977 26.5168v-14.6877"/><path d="m31.84 20.4582a3.6381 3.6381 0 0 1 3.5812-3.672 3.6381 3.6381 0 0 1 3.5811 3.672v2.3867a3.638 3.638 0 0 1 -3.5811 3.6719 3.638 3.638 0 0 1 -3.5812-3.6719"/><path d="m31.8399 26.5168v-14.6877"/><circle cx="24" cy="24" r="21.5"/></g></svg>