<svg viewBox="0 0 48 48" xmlns="http://www.w3.org/2000/svg"><g fill="none" stroke="#000" stroke-linecap="round" stroke-linejoin="round"><path d="m20.3185 4.5c2.8515 3.15 3.4474 8.98 4.5966 11.534s2.4685.8087 7.0651 4.554 5.3627 7.0226 5.3627 12.7258-8.3846 7.4481-9.406 7.4481-3.1495.0851-4.0433-.9363a8.3719 8.3719 0 0 1 -4.3412.9381c-1.3194 0-8.8953-1.6191-8.8953-8.7693s5.235-12.4278 8.6825-14.3 4.98-2.0429 3.736-7.7857"/><path d="m23.5154 11.3935c.6432 6 .3356 25.1974.3782 28.4321a12.04 12.04 0 0 0 .1064 3.6744"/><path d="m20.4341 17.1134c.31.6656 2.8555 1.88 3.4554 2.1241.3531.1436 2.1321-.9052 2.6881-1.5764"/><path d="m17.5021 18.9058a18.8877 18.8877 0 0 0 6.4285 5.4276 37.0626 37.0626 0 0 0 6.1854-5.0959"/><path d="m14.3275 22.04c.8837 1.3143 7.9734 7.4007 9.6 8.1667.3315-.17 8.01-5.7884 9.6655-8.1667"/><path d="m11.2039 28.0344c1.7515 1.9596 10.2212 6.0456 12.7961 7.0243 2.1068-.5107 10.4913-6.2564 12.613-8.183"/><path d="m10.8757 33.9934c2.3351 1.491 9.69 4.3852 13.0138 4.7256 3.0685-.7235 12.9756-5.5339 13.4485-6.1293"/></g></svg>