<svg viewBox="0 0 48 48" xmlns="http://www.w3.org/2000/svg"><g fill="none" stroke="#000" stroke-linecap="round" stroke-linejoin="round"><path d="m40.5 5.5h-33a2 2 0 0 0 -2 2v33a2 2 0 0 0 2 2h33a2 2 0 0 0 2-2v-33a2 2 0 0 0 -2-2z"/><path d="m9.9 31.2v-14.4"/><path d="m9.9 16.8h6a3.59 3.59 0 0 1 3.6 3.6 3.59 3.59 0 0 1 -3.6 3.6h-6"/><path d="m9.9 24h6a3.59 3.59 0 0 1 3.6 3.6 3.59 3.59 0 0 1 -3.6 3.6h-6"/><path d="m25.4 31.2a3.59 3.59 0 0 1 -3.6-3.6v-2.2a3.59 3.59 0 0 1 3.6-3.6 3.59 3.59 0 0 1 3.6 3.6v2.2a3.59 3.59 0 0 1 -3.6 3.6z"/><path d="m35.4 18.8v10.6a1.79 1.79 0 0 0 1.8 1.8h.7"/><path d="m31.3 18.8v12.4"/><path d="m33.5 21.8h1.9"/><path d="m35.4 21.8h1.9"/></g><circle cx="25.4" cy="33.3" r=".8"/></svg>