<svg viewBox="0 0 48 48" xmlns="http://www.w3.org/2000/svg"><g fill="none" stroke="#000" stroke-linecap="round" stroke-linejoin="round"><path d="m37.42 14.7a4.1 4.1 0 0 0 -4.08-4.11 4.11 4.11 0 1 0 0 8.21 4.09 4.09 0 0 0 2.88-1.18 4 4 0 0 0 1.19-2.92zm-21.32 14.74-2-2-6.2 1.98h-.2a.69.69 0 0 1 -.53-.2l-1.45-1.43a.7.7 0 0 1 -.11-.88l1.69-2.91a13 13 0 0 1 10.07-6.39l2.49-.22q2.17-2.58 4-4.42a26.4 26.4 0 0 1 8.14-5.85 25.63 25.63 0 0 1 9.77-1.61.79.79 0 0 1 .54.22.68.68 0 0 1 .22.5 25.27 25.27 0 0 1 -1.75 9.77 25.79 25.79 0 0 1 -5.78 8.16c-1.23 1.24-2.71 2.57-4.42 4l-.22 2.48a13 13 0 0 1 -6.36 10.08l-2.89 1.69a.78.78 0 0 1 -.37.09.82.82 0 0 1 -.52-.2l-1.45-1.46a.69.69 0 0 1 -.18-.71l1.93-6.27-1.94-1.94"/><path d="m30.62 28.16-10.1 5.7"/><path d="m19.86 17.39-5.71 10.1"/><path d="m13 35c4-.74 11.1-7.4 11.93-11.93-4.56.87-11.22 7.93-11.93 11.93z"/></g></svg>