<svg viewBox="0 0 48 48" xmlns="http://www.w3.org/2000/svg"><g fill="none" stroke="#000" stroke-linecap="round" stroke-linejoin="round"><ellipse cx="24" cy="15.1534" rx="10.6692" ry="10.6534"/><path d="m14.5973 20.1917a9.5577 9.5577 0 0 0 -7.0114 9.207v14.1013h32.8282v-14.1013a9.5576 9.5576 0 0 0 -7.0119-9.2071"/><path d="m18.2165 12.0376h3.8984a.9123.9123 0 0 1 .9123.9123v1.5489a2.0015 2.0015 0 0 1 -2.0016 2.0012h-1.72a2.0015 2.0015 0 0 1 -2.0015-2.0015v-1.5485a.9123.9123 0 0 1 .9124-.9124z"/><path d="m25.8851 12.0376h3.8984a.9123.9123 0 0 1 .9123.9123v1.5489a2.0015 2.0015 0 0 1 -2.0016 2.0012h-1.72a2.0015 2.0015 0 0 1 -2.0015-2.0015v-1.5485a.9123.9123 0 0 1 .9124-.9124z"/><path d="m24.9728 13.9425h-1.9456"/></g></svg>