<svg viewBox="0 0 48 48" xmlns="http://www.w3.org/2000/svg"><g fill="none" stroke="#000" stroke-linecap="round" stroke-linejoin="round"><path d="m40.5 5.5h-33a2 2 0 0 0 -2 2v33a2 2 0 0 0 2 2h33a2 2 0 0 0 2-2v-33a2 2 0 0 0 -2-2z"/><path d="m14.145 26.7 7.155 10.8"/><path d="m21.3 26.7-7.155 10.8"/><path d="m26.7 17.7225a3.5775 3.5775 0 0 0 7.155 0v-3.645a3.5775 3.5775 0 1 0 -7.155 0z"/><path d="m18.6 15.9a2.7 2.7 0 0 1 0 5.4h-4.455v-10.8h4.455a2.7 2.7 0 0 1 0 5.4z" stroke-width=".8662"/><path d="m18.6 15.9h-4.455" stroke-width=".8662"/><path d="m26.7 32.1h7.155"/></g></svg>