<svg viewBox="0 0 48 48" xmlns="http://www.w3.org/2000/svg"><g fill="none" stroke="#000" stroke-linecap="round" stroke-linejoin="round"><circle cx="14.2333" cy="27.0453" r="1.1184"/><circle cx="17.9053" cy="27.0453" r="1.1184"/><path d="m13.39 26.2787h-4.4813v15.0782l4.2062 1.0337h22.9333l.4277-3.2437v-12.8684h-17.7572"/><path d="m15.0476 26.2787h2.0439"/><path d="m22.04 39.61v2.796"/><path d="m23.795 39.61v2.7987"/><path d="m25.55 39.61v2.8013"/><path d="m27.3059 39.61v2.8038"/><path d="m29.0623 39.61v2.8061"/><path d="m36.199 41.27h1.7027l4.5983-.8754v-16.9677l-4.1349-1.3544h-27.8034l-5.0617 1.3902v17.0387l3.4087.068"/><path d="m9.2327 22.4376-2.378-12.0207"/><path d="m20.2572 5.64c.97 2.3668.6265 4.8431 0 7.343a11.1387 11.1387 0 0 0 -.1426 4.67c.1865 1.1759 1.2939 1.3107 1.64.3208.6686 1.8018 2.0559.758 2.1128.0885.1794.5077 1.15 1.99 2.0808-.04.3521 1.43 1.9649 1.1947 2.0071.2756l.2865-2.9979-.1157 1.209a.53.53 0 0 0 1-.1411 9.4753 9.4753 0 0 0 -.1361-4.4189 11.0235 11.0235 0 0 1 -2.0692-6.3655"/><path d="m19.8609 16.2646a6.7282 6.7282 0 0 0 -3.7984 5.8078"/><path d="m28.1265 16.5088c1.8108.9641 2.88 3.2829 3.1094 5.5636"/></g></svg>