<svg viewBox="0 0 48 48" xmlns="http://www.w3.org/2000/svg"><g fill="none" stroke="#000" stroke-linecap="round" stroke-linejoin="round"><path d="m24 43.5 12.1878-8.7055a2.1868 2.1868 0 0 0 .8841-2.1493l-2.5881-15.0788a80.5627 80.5627 0 0 0 -10.4838-.797"/><path d="m24 14.44a45.9975 45.9975 0 0 1 7.5716.49"/><path d="m25.81 14.4626c2.5127-1.31 6.4977-6.2458-1.81-7.3493"/><path d="m27.4026 14.44c2.9429-.2759 4.8434-1.5634 4.8434-3.4027s-2.8508-2.9823-4.8434-2.9823"/><path d="m24 43.5-12.1878-8.7055a2.1868 2.1868 0 0 1 -.8841-2.1493l2.5881-15.0788a80.5627 80.5627 0 0 1 10.4838-.797"/><path d="m24 14.44a45.9975 45.9975 0 0 0 -7.5716.49"/><path d="m22.19 14.4626c-2.5127-1.31-6.4977-6.2458 1.81-7.3493"/><path d="m20.5974 14.44c-2.9429-.2759-4.8434-1.5634-4.8434-3.4027s2.8508-2.9823 4.8434-2.9823"/><circle cx="24" cy="5.5346" r="1.0346"/><path d="m24 14.4397v-7.8705"/><path d="m24 16.7694v26.7306"/></g></svg>