<svg viewBox="0 0 48 48" xmlns="http://www.w3.org/2000/svg"><g fill="none" stroke="#000" stroke-linecap="round" stroke-linejoin="round"><path d="m39.43 13.84.92-2.24s-1.15-1.25-2.57-2.66-4.41-.6-4.41-.6l-3.37-3.84h-12l-3.4 3.87s-3-.82-4.41.59-2.57 2.67-2.57 2.67l.92 2.24-1.16 3.31s3.43 13 3.82 14.55c.8 3.11 1.33 4.32 3.57 5.92s6.3 4.31 7 4.73a5.24 5.24 0 0 0 2.23 1.12c.74 0 1.57-.71 2.25-1.12s4.73-3.17 7-4.73 2.75-2.78 3.55-5.92l3.82-14.55z"/><path d="m18.71 31.52a19.57 19.57 0 0 1 -2.84-3.78 3.59 3.59 0 0 1 .32-3.22 1.49 1.49 0 0 0 -.59-1.75c-.29-.32-2.72-2.89-3.28-3.49s-1.12-.85-1.12-2 4.37-6.44 4.37-6.44 3.7.71 4.2.71a13.77 13.77 0 0 0 2.57-.74 5.92 5.92 0 0 1 1.66-.34l-1.66.33a5.92 5.92 0 0 1 1.66-.33 5.92 5.92 0 0 1 1.66.33 13.77 13.77 0 0 0 2.57.74c.5 0 4.2-.71 4.2-.71s4.37 5.29 4.37 6.44-.56 1.42-1.12 2-3 3.17-3.28 3.49a1.49 1.49 0 0 0 -.59 1.75 3.59 3.59 0 0 1 .32 3.22 19.57 19.57 0 0 1 -2.84 3.78"/><path d="m32.19 14.82a13.89 13.89 0 0 0 -3.73-.09 13.45 13.45 0 0 0 -2.66.86c-.11.2-.23.2-.11.94s.82 4.2.88 4.82.21 1-.47 1.19a17.94 17.94 0 0 1 -2.16.41 18.31 18.31 0 0 1 -2.16-.41c-.65-.15-.53-.57-.47-1.19s.74-4.08.89-4.82 0-.74-.12-.94a12.78 12.78 0 0 0 -2.66-.86 12.76 12.76 0 0 0 -3.73.09"/><path d="m24 28.75v-5.75"/><path d="m29.14 31.08c.27.18.12.5-.14.65s-3.58 2.75-3.88 3.05-.79.74-1.12.74-.8-.48-1.12-.74-3.64-2.87-3.88-3.05-.41-.5-.14-.65 1.12-.59 2.27-1.21a12.5 12.5 0 0 1 2.87-1.12 12.5 12.5 0 0 1 2.87 1.12z"/></g></svg>