<svg viewBox="0 0 48 48" xmlns="http://www.w3.org/2000/svg"><g fill="none" stroke="#000" stroke-linecap="round" stroke-linejoin="round"><path d="m10.47 33.9609c-9.6109-7.8546-6.3652-19.1445.9277-25.2132s17.395-3.24 17.395-3.24 10.1632 2.601 13.4447 11.5031.4471 20.3027-11.8035 22.2992"/><path d="m10.47 33.9609-.7115 2.3056s-.8185 2.0927 2.6315 2.9462l6.8771 1.8428"/><path d="m30.4339 39.31-.5366 2.3524s-.3376 2.2215-3.7527 1.2355l-6.8771-1.8427"/><path d="m23.5974 33.9336-2.2043-.5907-2.2044-.5906 1.6137-1.6137 1.6137-1.6137.5907 2.2043z"/><circle cx="14.4502" cy="24.5728" r="5.1122"/><path d="m19.9006 17.86 2.3206 4.0192"/><circle cx="31.6682" cy="29.1864" r="5.1122"/><path d="m30.3046 20.6474-4.0193 2.32"/></g></svg>