<svg viewBox="0 0 48 48" xmlns="http://www.w3.org/2000/svg"><g fill="none" stroke="#000" stroke-linecap="round" stroke-linejoin="round"><path d="m35.32 28.09v-19.59a3 3 0 0 0 -3-3h-1.21a3 3 0 0 0 -3 3v19.59z"/><path d="m28.11 35.31v4.19a3 3 0 0 0 3 3h1.21a3 3 0 0 0 3-3v-4.19z"/><path d="m12.7 28.09h-4.19a3 3 0 0 0 -3 3v1.22a3 3 0 0 0 3 3h4.19z"/><path d="m39.51 28.09h-19.59v7.22h19.59a3 3 0 0 0 3-3v-1.22a3 3 0 0 0 -3-3z"/><path d="m28.11 12.69h-19.6a3 3 0 0 0 -3 3v1.22a3 3 0 0 0 3 3h19.6z"/><path d="m39.51 12.69h-4.19v7.22h4.19a3 3 0 0 0 3-3v-1.22a3 3 0 0 0 -3-3z"/><path d="m19.92 12.69v-4.19a3 3 0 0 0 -3-3h-1.22a3 3 0 0 0 -3 3v4.19z"/><path d="m12.7 19.91v19.59a3 3 0 0 0 3 3h1.22a3 3 0 0 0 3-3v-19.59z"/></g></svg>