<svg viewBox="0 0 48 48" xmlns="http://www.w3.org/2000/svg"><g fill="none" stroke="#000" stroke-linecap="round" stroke-linejoin="round"><path d="m39.1657 8.8299h4.3343v4.3343h-4.3343z"/><path d="m39.1657 13.1642h4.3343v4.3343h-4.3343z"/><path d="m39.1657 17.4985h4.3343v4.3343h-4.3343z"/><path d="m39.1657 21.8328h4.3343v4.3343h-4.3343z"/><path d="m39.1657 26.1672h4.3343v4.3343h-4.3343z"/><path d="m39.1657 30.5015h4.3343v4.3343h-4.3343z"/><path d="m39.1657 34.8358h4.3343v4.3343h-4.3343z"/><path d="m4.5 8.8299h4.3343v4.3343h-4.3343z"/><path d="m4.5 13.1642h4.3343v4.3343h-4.3343z"/><path d="m4.5 17.4985h4.3343v4.3343h-4.3343z"/><path d="m4.5 21.8328h4.3343v4.3343h-4.3343z"/><path d="m4.5 26.1672h4.3343v4.3343h-4.3343z"/><path d="m4.5 30.5015h4.3343v4.3343h-4.3343z"/><path d="m8.8343 8.8299h4.3343v4.3343h-4.3343z"/><path d="m8.8343 13.1642h4.3343v4.3343h-4.3343z"/><path d="m8.8343 17.4985h4.3343v4.3343h-4.3343z"/><path d="m8.8343 21.8328h4.3343v4.3343h-4.3343z"/><path d="m8.8343 26.1672h4.3343v4.3343h-4.3343z"/><path d="m13.1686 8.8299h4.3343v4.3343h-4.3343z"/><path d="m13.1686 13.1642h4.3343v4.3343h-4.3343z"/><path d="m13.1686 17.4985h4.3343v4.3343h-4.3343z"/><path d="m13.1686 21.8328h4.3343v4.3343h-4.3343z"/><path d="m17.5085 8.8299h4.3343v4.3343h-4.3343z"/><path d="m17.5085 13.1642h4.3343v4.3343h-4.3343z"/><path d="m17.5085 17.4985h4.3343v4.3343h-4.3343z"/><path d="m21.8428 17.4985h4.3343v4.3343h-4.3343z"/><path d="m17.5085 21.8328h4.3343v4.3343h-4.3343z"/><path d="m13.1686 26.1672h4.3343v4.3343h-4.3343z"/><path d="m8.8343 30.5015h4.3343v4.3343h-4.3343z"/><path d="m4.5 34.8358h4.3343v4.3343h-4.3343z"/><path d="m34.8314 8.8299h4.3343v4.3343h-4.3343z"/><path d="m34.8314 13.1642h4.3343v4.3343h-4.3343z"/><path d="m34.8314 26.1672h4.3343v4.3343h-4.3343z"/><path d="m34.8314 30.5015h4.3343v4.3343h-4.3343z"/><path d="m34.8314 34.8358h4.3343v4.3343h-4.3343z"/><path d="m30.497 8.8299h4.3343v4.3343h-4.3343z"/><path d="m30.497 30.5015h4.3343v4.3343h-4.3343z"/><path d="m30.497 34.8358h4.3343v4.3343h-4.3343z"/><path d="m26.1627 30.5015h4.3343v4.3343h-4.3343z"/><path d="m26.1627 34.8358h4.3343v4.3343h-4.3343z"/><path d="m21.8328 34.8358h4.3343v4.3343h-4.3343z"/></g><circle cx="32.6642" cy="21.8328" r=".75"/><circle cx="26.1771" cy="13.1642" r=".75"/><circle cx="26.1657" cy="27.2952" r=".75"/><circle cx="19.6672" cy="32.7576" r=".75"/><circle cx="13.1686" cy="38.22" r=".75"/></svg>