<svg viewBox="0 0 48 48" xmlns="http://www.w3.org/2000/svg"><g fill="none" stroke="#000" stroke-linecap="round" stroke-linejoin="round"><circle cx="24" cy="24" r="21.5"/><path d="m24 2.5v43"/><path d="m38.19 7.8505c-4.0628 9.7995-15.7839 29.8395-24.878 34.8065"/><path d="m43.3017 33.4787c-7.0893-9.8987-18.5592-21.7169-37.3577-21.1511"/><path d="m45.2683 20.8433c-10.8083 10.0986-25.8762 14.3356-40.403 12.9667"/><path d="m32.2794 4.1527c7.6472 13.0413 9.91 32.3808-8.2794 41.3473"/><path d="m42.0445 12.308c-9.2376.2612-12.1093 1.432-18.0445 3.7779"/><path d="m24 40.7663c5.6473 0 13.5053-1.38 19.3017-7.2876.4043-12.6354-3.4945-21.5808-19.3017-29.326"/><path d="m24 8.5112c4.9387.3176 6.8691 1.2462 12.128 4.1713"/><path d="m9.8105 7.8505c4.0623 9.7995 15.7834 29.8395 24.8775 34.8065"/><path d="m4.6983 33.4787c7.0893-9.8987 18.5592-21.7169 37.3577-21.1511"/><path d="m2.7317 20.8433c10.8083 10.0986 25.8762 14.3356 40.403 12.9667"/><path d="m15.7206 4.1527c-7.6472 13.0413-9.91 32.3808 8.2794 41.3473"/><path d="m5.9555 12.308c9.2376.2612 12.1093 1.432 18.0445 3.7779"/><path d="m24 40.7663c-5.6473 0-13.5053-1.38-19.3017-7.2876-.4043-12.6354 3.4945-21.5808 19.3017-29.326"/><path d="m24 8.5112c-4.9387.3176-6.8691 1.2462-12.128 4.1713"/></g></svg>