<svg viewBox="0 0 48 48" xmlns="http://www.w3.org/2000/svg"><path d="m24 2.5a21.51 21.51 0 0 0 -21.5 21.5 21.51 21.51 0 0 0 21.5 21.5 21.51 21.51 0 0 0 21.5-21.5 21.51 21.51 0 0 0 -21.5-21.5zm-4.46 4.1 2.46 2.69-1.52 2.85-5 2.92-1.88 6.42 8.61 2.73-9.21 13.98a18.08 18.08 0 0 1 -2.75-2.64l-1.38-11.55 4.73-2.49-6.73-2.95a18 18 0 0 1 12.66-12zm12.46 1.32a17.88 17.88 0 0 1 5.74 4.51l-8.74.32zm6.76 5.84a17.91 17.91 0 0 1 -3 23.82l-.92-10.21-6-1.7-1.39-6.8z" fill="none" stroke="#000" stroke-linecap="round" stroke-linejoin="round"/></svg>