<svg viewBox="0 0 48 48" xmlns="http://www.w3.org/2000/svg"><g fill="none" stroke="#000" stroke-linecap="round" stroke-linejoin="round"><circle cx="24" cy="24" r="21.5"/><path d="m24 2.5a21.4952 21.4952 0 0 0 -18.904 11.25h37.808a21.4955 21.4955 0 0 0 -18.904-11.25z"/><path d="m24 45.5a21.486 21.486 0 0 0 19.0411-11.5343h-38.0823a21.4863 21.4863 0 0 0 19.0412 11.5343z"/><path d="m42.904 13.75h-37.808a21.48 21.48 0 0 0 -.1372 20.2157h38.0824a21.48 21.48 0 0 0 -.1372-20.2157z"/><path d="m38.0838 24a21.404 21.404 0 0 0 -2.596-10.25"/><path d="m35.625 33.9657a21.388 21.388 0 0 0 2.4588-9.9657"/><path d="m9.9162 23.7157a21.404 21.404 0 0 0 2.596 10.25"/><path d="m12.375 13.75a21.388 21.388 0 0 0 -2.4588 9.9657"/><ellipse cx="24" cy="17.2247" rx="8.3601" ry="3.4746"/></g></svg>