<svg viewBox="0 0 48 48" xmlns="http://www.w3.org/2000/svg"><g fill="none" stroke="#000" stroke-linecap="round" stroke-linejoin="round"><circle cx="24" cy="24" r="21.5"/><circle cx="24" cy="24" r="12.5"/><path d="m18.7937 29.31a3.1384 3.1384 0 0 0 3.0622 1.49h2.0134a4.2625 4.2625 0 0 0 4.0142-3.4 2.7523 2.7523 0 0 0 -2.7712-3.4h-2.2246a2.7523 2.7523 0 0 1 -2.7712-3.4 4.2625 4.2625 0 0 1 4.0142-3.4h2.0134a3.1384 3.1384 0 0 1 3.0622 1.49"/><path d="m25.243 17.2.3107-1.7"/><path d="m22.4463 32.5.3107-1.7"/><path d="m24 36.5v8.9993"/><path d="m13.1942 17.7162-7.7795-4.5239"/><path d="m34.8642 17.8177 7.8215-4.4508"/></g></svg>