<svg viewBox="0 0 48 48" xmlns="http://www.w3.org/2000/svg"><g fill="none" stroke="#000" stroke-linecap="round" stroke-linejoin="round"><path d="m24 2.5a21.5 21.5 0 1 1 -21.5 21.5 21.5 21.5 0 0 1 21.5-21.5"/><path d="m24 2.5a23.4466 23.4466 0 0 1 8.281 5.5756 16.0854 16.0854 0 0 0 -7.57 4.9465 13.7592 13.7592 0 0 1 11.3731.3212c.18.34.3535.6828.5168 1.0323a13.6573 13.6573 0 0 0 -8.3278 4.6332 11.6705 11.6705 0 0 1 10.0206.4516 23.4349 23.4349 0 0 1 .51 4.8052c0 .7042-.0368 1.4-.0976 2.0879a21.4211 21.4211 0 0 0 -29.4112 0c-.0608-.6883-.0976-1.3837-.0976-2.0879a23.4349 23.4349 0 0 1 .51-4.8052 11.6705 11.6705 0 0 1 10.0206-.4516 13.6573 13.6573 0 0 0 -8.3278-4.6332c.1633-.35.3369-.6925.5168-1.0323a13.7592 13.7592 0 0 1 11.3731-.3212 16.0854 16.0854 0 0 0 -7.57-4.9465 23.4466 23.4466 0 0 1 8.28-5.5756"/><path d="m21.2663 45.3275v-2.2956"/><path d="m16.0536 43.9833v-2.0684"/><circle cx="16.7979" cy="31.8617" r="3.4783"/><path d="m16.7979 28.3834v-1.5217"/><path d="m19.2574 29.4022 1.076-1.076"/><path d="m20.2761 31.8617h1.5218"/><path d="m19.2574 34.3212 1.076 1.076"/><path d="m16.7979 35.34v1.5217"/><path d="m14.3384 34.3212-1.0761 1.076"/><path d="m13.3196 31.8617h-1.5217"/><path d="m14.3384 29.4022-1.0761-1.076"/><path d="m26.7337 45.3275v-2.2956"/><path d="m31.9464 43.9833v-2.0684"/><circle cx="31.2021" cy="31.8617" r="3.4783"/><path d="m31.2021 28.3834v-1.5217"/><path d="m28.7426 29.4022-1.076-1.076"/><path d="m27.7239 31.8617h-1.5218"/><path d="m28.7426 34.3212-1.076 1.076"/><path d="m31.2021 35.34v1.5217"/><path d="m33.6616 34.3212 1.0761 1.076"/><path d="m34.6804 31.8617h1.5217"/><path d="m33.6616 29.4022 1.0761-1.076"/></g></svg>