<svg viewBox="0 0 48 48" xmlns="http://www.w3.org/2000/svg"><g fill="none" stroke="#000" stroke-linecap="round" stroke-linejoin="round"><path d="m35.8235 32.5968a3.11 3.11 0 1 0 -2.8155-4.4117 5.0887 5.0887 0 0 0 -9.7355-1.6651 4.8236 4.8236 0 1 0 -9.3984-2.1636 4.1468 4.1468 0 1 0 -.6541 8.2406z"/><path d="m24.4062 41.96c.421-1.1994-.0266-6.8726-.0266-6.8726s-3.8957 4.1484-4.3168 5.3477a2.3017 2.3017 0 0 0 4.3434 1.5249z"/><path d="m31.8678 38.6471c.3707-1.0559-.0235-6.05-.0235-6.05s-3.43 3.652-3.8 4.7079a2.0262 2.0262 0 0 0 3.8237 1.3424z"/><path d="m17.494 38.6471c.3707-1.0559-.0235-6.05-.0235-6.05s-3.43 3.652-3.8 4.7079a2.0262 2.0262 0 0 0 3.8237 1.3424z"/><path d="m32.431 4.5-11.076 13.506 17.234 2.839z"/><path d="m30.8013 14.3912.7498-4.5512"/></g><circle cx="30.4215" cy="16.6964" r=".75"/></svg>