<svg viewBox="0 0 48 48" xmlns="http://www.w3.org/2000/svg"><g fill="none" stroke="#000" stroke-linecap="round" stroke-linejoin="round"><path d="m14.39 37.63v3.67a2.21 2.21 0 0 0 2.2 2.2h13.81a10.56 10.56 0 0 0 7.42-18.08 2 2 0 0 1 0-2.84 10.56 10.56 0 0 0 -6.22-18 9.77 9.77 0 0 0 -1.2-.07h-13.81a2.21 2.21 0 0 0 -2.2 2.2v10.7"/><path d="m7 20v13.44a4.2 4.2 0 0 0 4.19 4.19h20.81a4.08 4.08 0 0 0 2.2-7.51l-21-13.51a4 4 0 0 0 -6.2 3.39z"/><path d="m41 33.87a4.41 4.41 0 0 1 -6.54 3.86l-18-9.91a4 4 0 0 1 0-7l18-9.91a4.41 4.41 0 0 1 6.54 3.82"/></g></svg>