<svg viewBox="0 0 48 48" xmlns="http://www.w3.org/2000/svg"><path d="m6.9868 14.144a37.3494 37.3494 0 0 0 8.4189 5.6585 16.9593 16.9593 0 0 0 9.5993 1.1652 21.5944 21.5944 0 0 0 8.6552-4.02 25.1624 25.1624 0 0 0 6.0738-5.9677c1.266-1.9319 1.566-3.6308 1.0169-4.5863s-1.9479-1.1664-3.6143-.5281a15.8448 15.8448 0 0 0 -5.4755 4.1809 37.825 37.825 0 0 0 -5.4359 7.9846 70.9424 70.9424 0 0 0 -4.3974 10.4276 26.0331 26.0331 0 0 0 -1.4211 7.224 8.2214 8.2214 0 0 0 .85 4.4918c.6781 1.1547 2.2264 2.3255 4.9221 2.3255 7.2966 0 10.6975-7.2549 11.4728-11.5536.5059-2.8048-.1763-6.57-2.4818-8.2408" fill="none" stroke="#000" stroke-linecap="round" stroke-linejoin="round"/></svg>