<svg viewBox="0 0 48 48" xmlns="http://www.w3.org/2000/svg"><g fill="none" stroke="#000" stroke-linecap="round" stroke-linejoin="round"><path d="m40.5 5.5h-33a2 2 0 0 0 -2 2v33a2 2 0 0 0 2 2h33a2 2 0 0 0 2-2v-33a2 2 0 0 0 -2-2z"/><path d="m17.49 20.57v4.27a2.59 2.59 0 0 0 2.59 2.59 2.58 2.58 0 0 0 2.58-2.59v-4.27"/><path d="m30.59 27.43v-4.27a2.59 2.59 0 0 0 -2.59-2.59 2.58 2.58 0 0 0 -2.58 2.59v4.27"/><path d="m9.5 23.16a2.59 2.59 0 0 1 2.59-2.59 2.59 2.59 0 0 1 2.59 2.59v1.68a2.59 2.59 0 0 1 -2.59 2.59 2.59 2.59 0 0 1 -2.59-2.59"/><path d="m9.5 27.43v-10.35"/><path d="m38.5 24.84a2.59 2.59 0 0 1 -2.59 2.59 2.59 2.59 0 0 1 -2.59-2.59v-1.68a2.59 2.59 0 0 1 2.59-2.59 2.59 2.59 0 0 1 2.59 2.59"/><path d="m38.5 20.57v10.35"/></g></svg>