<svg viewBox="0 0 48 48" xmlns="http://www.w3.org/2000/svg"><g fill="none" stroke="#000" stroke-linecap="round" stroke-linejoin="round"><path d="m9 14.55a.78.78 0 0 1 -.77-.9c.77-5.22 8.19-9.15 15.77-9.15s15 3.93 15.81 9.15a.78.78 0 0 1 -.77.9z"/><path d="m39.1 37.82a.73.73 0 0 1 .71.85c-.76 4.81-8.22 4.83-15.81 4.83s-15 0-15.81-4.83a.73.73 0 0 1 .71-.85z"/><path d="m17.91 24.36v11.55"/><path d="m39.82 28.21a3.86 3.86 0 0 0 -4.07-3.86 4 4 0 0 0 -3.65 4.08v3.57a3.86 3.86 0 0 0 3.9 3.89 3.86 3.86 0 0 0 3.82-3.89h-3.82"/><path d="m21.26 35.89v-11.55l7.65 11.55v-11.55"/><path d="m8.18 24.35v11.54"/><path d="m14.38 35.89-4.75-5.77 4.75-5.74"/><path d="m9.63 30.12h-1.45"/><path d="m31.04 22.43h2.98"/><path d="m31.04 16.46h2.98"/><path d="m31.04 19.45h1.95"/><path d="m31.04 16.46v5.97"/><path d="m29.3 18.46a2 2 0 0 0 -2.11-2 2.08 2.08 0 0 0 -1.88 2.12v1.85a2 2 0 0 0 2 2 2 2 0 0 0 2-2h-2"/><path d="m19.61 22.43v-6h1.95a2 2 0 0 1 0 4h-1.95"/><path d="m21.56 20.47 1.96 1.96"/><path d="m35.87 22.43v-6h2a2 2 0 0 1 0 4h-2"/><path d="m37.82 20.47 1.96 1.96"/><path d="m13.9 16.46v4a2 2 0 1 0 4 0v-4"/><path d="m10.64 19.45a1.49 1.49 0 0 1 0 3h-2.46v-6h2.46a1.5 1.5 0 0 1 0 3z"/><path d="m10.64 19.45h-2.46"/></g></svg>