<svg viewBox="0 0 48 48" xmlns="http://www.w3.org/2000/svg"><g fill="none" stroke="#000" stroke-linecap="round" stroke-linejoin="round"><path d="m24 4.5a30.16 30.16 0 0 1 5.25.44 23.87 23.87 0 0 1 5.94 1.82 5.8 5.8 0 0 1 2.68 2 5.64 5.64 0 0 1 .63 2.11c.64 3.13 1.31 9.28 1.5 10.76v16.88h-2.69v2.69a2.3 2.3 0 1 1 -4.59 0v-2.69h-17.44v2.69a2.3 2.3 0 1 1 -4.59 0v-2.69h-2.69v-16.88c.16-1.48.83-7.59 1.47-10.76a5.64 5.64 0 0 1 .63-2.11 5.8 5.8 0 0 1 2.68-2 23.87 23.87 0 0 1 5.94-1.82 30.16 30.16 0 0 1 5.28-.44zm-10.54 6.85a1.41 1.41 0 0 0 -1.35 1.22l-1.27 9.22a1.41 1.41 0 0 0 1.16 1.59h23.76a1.42 1.42 0 0 0 1.42-1.38 1.23 1.23 0 0 0 0-.19l-1.27-9.22a1.41 1.41 0 0 0 -1.4-1.22h-21zm-.46 17.46a2.41 2.41 0 1 0 2.4 2.4 2.4 2.4 0 0 0 -2.4-2.4zm22 0a2.41 2.41 0 1 0 2.41 2.4 2.39 2.39 0 0 0 -2.41-2.4z"/><path d="m10.69 38.51h26.62"/><path d="m15.63 8.48h16.68"/></g></svg>