<svg viewBox="0 0 48 48" xmlns="http://www.w3.org/2000/svg"><g fill="none" stroke="#000" stroke-linecap="round" stroke-linejoin="round"><path d="m38.113 23.993c-6.7143-.4906-9.6112-4.2238-13.2837-7.5693-2.9716-2.71-6.8263-7.2515-11.9-7.3029l-4.4083-.0421m29.592 14.9236c-6.71.4906-9.6112 4.2285-13.2837 7.5693-2.9716 2.71-6.8263 7.2562-11.9 7.303l-4.4078.0467"/><path d="m38.113 24.0023 7.387.0327m-2.3334 9.7-12.6837.014c-9.2279-.201-13.0029-15.0498-23.675-15.1152l-3.6317.0093"/><path d="m43.3481 14.6155-12.8605.0327c-9.228.2009-13.0032 15.0545-23.675 15.1152l-3.53-.0327"/><circle cx="24" cy="24" r="21.5"/></g></svg>