<svg viewBox="0 0 48 48" xmlns="http://www.w3.org/2000/svg"><g fill="none" stroke="#000" stroke-linecap="round" stroke-linejoin="round"><path d="m40.5 5.5h-33a2 2 0 0 0 -2 2v33a2 2 0 0 0 2 2h33a2 2 0 0 0 2-2v-33a2 2 0 0 0 -2-2z"/><path d="m42.135 12.856h-29.494v20.663h20.76m6.1 0h2.9466"/><circle cx="36.373" cy="31.007" r="3.8898"/><circle cx="36.373" cy="31.007" r="1.7782"/><path d="m19.777 33.52a3.8824 3.8824 0 0 0 5.9316 0"/><path d="m12.64 12.856h-2.4683v5.7718s.0891 1.6536 2.2843 1.6536"/><path d="m28.001 12.856v20.592"/><path d="m12.874 29.65h14.921"/><path d="m28.254 24.177h14.06"/><path d="m38.62 24.078v-10.888"/><path d="m28.001 12.856h-2.4683v5.7718s.0891 1.6536 2.2843 1.6536"/><path d="m12.624 27.691h3.5972s1.92.1211 1.92 1.92"/><path d="m27.994 27.691h-3.5972s-1.92.1211-1.92 1.92"/></g></svg>