<svg viewBox="0 0 48 48" xmlns="http://www.w3.org/2000/svg"><g fill="none" stroke="#000" stroke-linecap="round" stroke-linejoin="round"><path d="m9.06 25.13v13.06l12.17 3.41v-21.71l15.6-3.41-11.5-3.54-16.38 3.54-2.2 7.83 2.2.78 9.97 3.53 2.31-8.73"/><path d="m21.23 41.6 15.78-3.43v-13.43"/><path d="m8.95 16.48 12.28 3.41 6.7 7.15 15.57-3.94-6.67-6.62 5.95-5.52-11.53-3.38-5.92 5.36-4.26-6.54-16.57 3.51z"/><path d="m23.8 36.5 10.41-1.97"/><path d="m16.68 29.58-1.68 7.29"/><path d="m14.36 29.03-1.74 7.18"/><path d="m11.16 33.23 6.48 1.77"/><path d="m11.98 30.56 6.22 1.83"/></g></svg>