<svg viewBox="0 0 48 48" xmlns="http://www.w3.org/2000/svg"><g fill="none" stroke="#000" stroke-linecap="round" stroke-linejoin="round"><path d="m27.7782 29.8842.755.7559-.7555 1.5111.4963 1.1981 1.6027.5343v1.0685l-1.6027.5342-.4963 1.1981.7555 1.5111-.7555.7555-1.5111-.7555-1.1981.4963-.5343 1.6027h-1.0684l-.5343-1.6027-1.1981-.4963-1.5111.7555-.7555-.7555.7555-1.5111-.4963-1.1981-1.6027-.5342v-1.0685l1.6027-.5343.4963-1.1981-.7555-1.5112.7555-.7555 1.5111.7555 1.1981-.4963.5343-1.6027h1.0684l.5343 1.6027 1.1981.4963z"/><path d="m9.0411 24.8014v18.6986h29.9178v-18.6986z"/><path d="m9.0411 24.8014h-1.6027v-6.4114h33.1232v6.411h-1.6027"/><path d="m7.4384 18.39 4.2739-4.274h1.6028"/><path d="m34.6849 14.1164h1.6028l4.2739 4.274"/><path d="m13.3151 15.7192a10.6849 10.6849 0 1 1 21.37 0z"/><path d="m17.589 7.1712-2.1369-2.6712"/><path d="m30.411 7.1712 2.1369-2.6712"/><path d="m22.3973 32.8151v3.2054h3.2054v-3.2054z"/></g><circle cx="18.9247" cy="11.1781" r=".75"/><circle cx="29.0753" cy="11.1781" r=".75"/></svg>