<svg viewBox="0 0 48 48" xmlns="http://www.w3.org/2000/svg"><g fill="none" stroke="#000" stroke-linecap="round" stroke-linejoin="round"><path d="m6.6156 16.09a11.59 11.59 0 1 1 23.1792 0"/><path d="m29.7948 20.3207h-23.1792v23.1793h23.1792"/><path d="m29.7948 20.3207a11.59 11.59 0 0 1 11.59 11.59 11.59 11.59 0 0 1 -11.59 11.59"/><path d="m6.6156 20.3207v-4.2307"/><path d="m29.7948 20.3207v-4.2307"/><path d="m17.0381 32.4921a3.1609 3.1609 0 1 1 2.1621 0"/><path d="m17.0381 32.4921-.0081 3.3934"/><path d="m19.2 32.4921v3.3934"/><path d="m19.2 35.8855a1.0852 1.0852 0 0 1 -2.17 0"/></g></svg>