<svg viewBox="0 0 48 48" xmlns="http://www.w3.org/2000/svg"><g fill="none" stroke="#000" stroke-linecap="round" stroke-linejoin="round" stroke-width=".8662"><path d="m25.7967 21.9925a5.5283 5.5283 0 0 1 0 11.0566h-9.1217v-22.1131h9.1217a5.5283 5.5283 0 1 1 0 11.0565z"/><path d="m25.7967 21.9925h-9.1217"/><path d="m21.236 33.049 1.984 4.015 1.985-4.015"/><path d="m16.675 17.0817c-2.8063.9119-9.1762 5.5206-11.3859 9.5556-1.2269 2.24-1.1881 4.7795 1.302 5.95 3.0515 1.4342 5.2168-.96 6.2077-3.9968 1.2739-3.9041 1.2512-9.5862 3.8762-11.5086"/><path d="m31.325 17.0817c2.8063.9119 9.1762 5.5206 11.3859 9.5556 1.2269 2.24 1.1881 4.7795-1.302 5.95-3.0515 1.4342-5.2168-.96-6.2077-3.9968-1.2739-3.9041-1.2512-9.5862-3.8762-11.5086"/></g></svg>