<svg viewBox="0 0 48 48" xmlns="http://www.w3.org/2000/svg"><g fill="none" stroke="#000" stroke-linecap="round"><path d="m8.9781 25.2584v-14.4813"/><path d="m14.4892 25.2584v-14.4813"/><path d="m20 25.2584v-14.4515"/><path d="m27.997 25.2584v-14.4625"/><path d="m33.5081 25.2584v-14.4747"/><path d="m39.0193 25.2584v-14.4813"/><path d="m6.405 10.776h35.19"/><path d="m22.3112 10.7794v-5.2794"/><path d="m25.8033 10.7794v-5.2794"/><path d="m18.819 10.8116v-4.4"/><path d="m29.2966 10.7627v-4.4"/><g stroke-linejoin="round"><path d="m15.2343 36.3042a2.7954 2.7954 0 0 1 0 5.59h-4.57v-11.1805h4.57a2.7954 2.7954 0 0 1 0 5.5905z"/><path d="m27.587 30.62-3.601 11.181-3.74-11.181"/><path d="m37.1231 34.3938a3.77 3.77 0 0 0 -3.8778-3.7738 3.9241 3.9241 0 0 0 -3.4623 3.9133v3.4941a3.741 3.741 0 0 0 3.7393 3.7736 3.741 3.741 0 0 0 3.7393-3.7736h-3.7393"/></g><path d="m15.2343 36.3042h-4.5703" stroke-miterlimit="10"/></g></svg>