<svg viewBox="0 0 48 48" xmlns="http://www.w3.org/2000/svg"><g fill="none" stroke="#000" stroke-linecap="round"><g stroke-linejoin="round"><path d="m24 34.6734h-5.9684s-1.7678.07-.8636-1.4959 2.2616.4733 2.2616-5.0712"/><path d="m24 43.5h-18.3142l3.2371-6.7515h15.0762"/><path d="m24 34.6734h5.9684s1.7678.07.8636-1.4959-2.2616.4733-2.2616-5.0712"/><path d="m24 43.5h18.3142l-3.2371-6.7515h-15.0762"/><path d="m6.7247 4.5h34.5508v23.5771h-34.5508z"/><path d="m24 21.1772h-7.862v-7.732h2.9878v-1.7262h2.3607v-1.0165h2.5135"/><path d="m24 21.1772h7.862v-7.732h-2.9878v-1.7262h-2.3607v-1.0165h-2.5135"/></g><path d="m24 21.1772v-2.7433"/><path d="m21.7043 21.1772v-2.7433"/><path d="m19.4085 21.1772v-2.7433"/><path d="m28.5915 21.1772v-2.7433"/><path d="m26.2957 21.1772v-2.7433"/></g></svg>