<svg viewBox="0 0 48 48" xmlns="http://www.w3.org/2000/svg"><g fill="none" stroke="#000" stroke-linecap="round" stroke-linejoin="round"><path d="m32.0958 17.0565v9.258"/><path d="m34.3665 19.371h6.1335"/><path d="m37.4333 28.629v-9.258"/><path d="m21.29 19.371-3.066 4.629-3.067-4.629"/><path d="m18.2237 28.629v-4.629"/><path d="m11.3189 24a2.3145 2.3145 0 1 1 0 4.629h-3.8189v-9.258h3.8189a2.3145 2.3145 0 1 1 0 4.629z"/><path d="m11.3189 24h-3.8189"/><path d="m27.38 24a2.3145 2.3145 0 1 1 0 4.629h-3.819v-9.258h3.819a2.3145 2.3145 0 1 1 0 4.629z"/><path d="m27.3799 24h-3.8189"/><circle cx="24" cy="24" r="21.5"/></g></svg>