<svg viewBox="0 0 48 48" xmlns="http://www.w3.org/2000/svg"><g fill="none" stroke="#000" stroke-linecap="round" stroke-linejoin="round"><path d="m40.5 5.5h-33a2 2 0 0 0 -2 2v33a2 2 0 0 0 2 2h33a2 2 0 0 0 2-2v-33a2 2 0 0 0 -2-2z"/><path d="m28.1067 27.7754h3.7754"/><path d="m28.1067 20.2246h3.7754"/><path d="m28.1067 24h2.4615"/><path d="m28.1067 20.2246v7.5508"/><path d="m22.3623 20.2246v7.5508"/><path d="m26.421 27.775-3.109-3.775 3.109-3.75"/><path d="m23.3119 24h-.9496"/><path d="m20.631 20.225-2.501 3.775-2.501-3.775"/><path d="m18.1302 27.7754v-3.7754"/><path d="m12.6147 24a1.8877 1.8877 0 1 1 0 3.7754h-3.1147v-7.5508h3.1147a1.8877 1.8877 0 0 1 0 3.7754z" stroke-width=".8662"/><path d="m12.6147 24h-3.1147" stroke-width=".8662"/><path d="m33.592 27.753 2.4527-7.5284"/><path d="m38.5 27.7754-2.4553-7.5508"/><path d="m37.6787 25.2495h-3.2711"/></g></svg>