<svg viewBox="0 0 48 48" xmlns="http://www.w3.org/2000/svg"><g fill="none" stroke="#000" stroke-linecap="round" stroke-linejoin="round"><path d="m5.5 19.6v20.9a2 2 0 0 0 2 2h33a2 2 0 0 0 2-2v-33a2 2 0 0 0 -2-2h-33a2 2 0 0 0 -2 2z"/><path d="m22.1473 26.6345v.0655a5.3 5.3 0 0 1 -5.3 5.3 5.3 5.3 0 0 1 -5.3-5.3v-5.4a5.3 5.3 0 0 1 5.3-5.3 5.3 5.3 0 0 1 5.3 5.3v.0655"/><circle cx="31.1527" cy="26.7" r="5.3"/><path d="m35.9843 17.9514a5.176 5.176 0 0 0 -4.4594-1.9514h-.3722a5.3 5.3 0 0 0 -5.3 5.3v5.4"/></g></svg>