<svg viewBox="0 0 48 48" xmlns="http://www.w3.org/2000/svg"><g fill="none" stroke="#000" stroke-linecap="round" stroke-linejoin="round"><path d="m11.766 34.278c8.4059 6.9108 21.747 2.8051 25.016-.2028 7.4254-.9493 5.8954-9.8207 3.11-12.441-1.3227-4.9-2.2449-11.758-7.9331-13.319-4.5352-4.0252-9.4789-4.0752-15.1449-.2029-5.429 1.9763-7.1586 7.48-8.4289 13.793-3.954 4.4793-3.75 10.104 3.3806 12.373z"/><path d="m20.427 20.045a3.7123 3.7123 0 0 1 7.4246 0"/><path d="m19.947 9.5319c-4.456-.0477-7.8677 3.5121-8.181 6.5583a25.0511 25.0511 0 0 0 .1439 4.9762c2.0964 11.891 25.204 7.67 25.287.0676.0145-1.3313-.115-2.6924-.2028-4.021-.3215-4.8619-4.9342-7.4516-7.7483-7.4817z"/><path d="m27.874 37.655v4.3306h2.9749l-2.9749-1.9724"/><path d="m21.524 37.987v4.0657h-3.5379l3.5379-2.1472"/><path d="m20.92 28.332 3.6221-2.9937 3.0125 2.7656"/></g></svg>