<svg viewBox="0 0 48 48" xmlns="http://www.w3.org/2000/svg"><g fill="none" stroke="#000" stroke-linecap="round" stroke-linejoin="round"><path d="m40.5 42.5h-33a2 2 0 0 1 -2-2v-33a2 2 0 0 1 2-2h33a2 2 0 0 1 2 2v33a2 2 0 0 1 -2 2z"/><path d="m24.15 37.41a13.41 13.41 0 1 1 9.47-22.88l-4.52 4.52a7 7 0 1 0 0 9.91l4.52 4.52a13.37 13.37 0 0 1 -9.47 3.93z"/><path d="m27.38 21.27v5"/><path d="m24.88 23.77h5"/><path d="m34.77 21.27v5"/><path d="m32.27 23.77h5"/><path d="m40.31 7.69-2.4 2.4"/><path d="m37.91 7.69 2.4 2.4"/><path d="m35.72 5.5v6.79h6.78"/></g></svg>