<svg viewBox="0 0 48 48" xmlns="http://www.w3.org/2000/svg"><g fill="none" stroke="#000" stroke-linecap="round" stroke-linejoin="round"><path d="m27.89 26a1.94 1.94 0 0 0 -1.89 1.89v12.66a1.94 1.94 0 0 0 1.94 2h12.61a2 2 0 0 0 2-2v-12.66a1.94 1.94 0 0 0 -2-1.94z"/><path d="m7.45 5.5a2 2 0 0 0 -1.95 2v12.61a1.94 1.94 0 0 0 2 1.94h12.61a1.94 1.94 0 0 0 1.94-1.94v-12.66a1.94 1.94 0 0 0 -1.94-1.95z"/><rect height="16.55" rx="2.92" width="16.55" x="25.95" y="5.5"/><rect height="16.55" rx="1.95" width="16.55" x="5.5" y="25.95"/><path d="m13.78 8.42v10.71"/><path d="m8.42 13.78h10.71"/><path d="m28.87 31.3h10.71"/><path d="m28.87 37.14h10.71"/></g></svg>