<svg viewBox="0 0 48 48" xmlns="http://www.w3.org/2000/svg"><g fill="none" stroke="#000" stroke-linecap="round" stroke-linejoin="round"><path d="m40.5 5.5h-33a2 2 0 0 0 -2 2v33a2 2 0 0 0 2 2h33a2 2 0 0 0 2-2v-33a2 2 0 0 0 -2-2z"/><path d="m7.8551 8.5002h32.2897v16.1936h-32.2897z"/><path d="m7.8551 29.1446h7.7296v3.8646h-7.7296z"/><path d="m32.4152 29.1446h7.7296v3.8646h-7.7296z"/><circle cx="24" cy="31.0769" r="4"/><path d="m7.8551 36.9065h5.0002v3.0002h-5.0002z"/><path d="m16.9521 36.9065h4.9995v2.9995h-4.9995z"/><path d="m26.0483 36.9065h5.0003v3.0003h-5.0003z"/><path d="m35.1451 36.9065h4.9997v2.9997h-4.9997z"/><path d="m9.7491 21.67c0 .5154.5878.8912 1.2931.8912.67 0 1.0933-.7194 1.2461-2.48l.2234-2.6736c.1058-1.2992.529-4.3272.67-4.9177.2-.8161.6584-1.8576 1.7752-1.8576.7053 0 1.2931.3758 1.2931.8912 0 .3221-.1947.6753-.43.6753"/><path d="m37.2011 16.5729-3.099 4.1062"/><path d="m37.2011 20.6791-3.099-4.1062"/><path d="m25.0302 16.5729-3.099 4.1062"/><path d="m25.0302 20.6791-3.099-4.1062"/><path d="m20.9166 14.6979a6.7114 6.7114 0 0 0 -1.5495 3.9321 6.7119 6.7119 0 0 0 1.5495 3.9319"/><path d="m26.0447 14.6979a6.7114 6.7114 0 0 1 1.55 3.9318 6.7119 6.7119 0 0 1 -1.55 3.9319"/><path d="m32.27 18.1224a1.55 1.55 0 0 0 -1.5494-1.5495 1.55 1.55 0 0 0 -1.5494 1.5495v1.0076a1.5494 1.5494 0 0 0 1.5494 1.5495 1.5494 1.5494 0 0 0 1.5494-1.5495"/><path d="m32.2702 20.6791v-6.198"/><path d="m16.23 20.6791v-5.1133a1.0847 1.0847 0 0 1 1.0847-1.0847 1.263 1.263 0 0 1 1.0956.4538"/><path d="m15.3109 16.5729h2.1693"/></g></svg>