<svg viewBox="0 0 48 48" xmlns="http://www.w3.org/2000/svg"><g fill="none" stroke="#000" stroke-linecap="round" stroke-linejoin="round"><path d="m25.4444 27.8889a4.4575 4.4575 0 0 1 4.4445 4.4444 4.4575 4.4575 0 0 1 -4.4445 4.4445h-1.7777c-3.1112 0-4.2223-.4445-5.5556-1.5556"/><path d="m18.1111 20.5556c1.3333-1.1111 2.6667-1.5556 5.5556-1.5556h1.7777a4.4575 4.4575 0 0 1 4.4445 4.4444 4.4575 4.4575 0 0 1 -4.4445 4.4445h-4.4444"/><circle cx="32.5" cy="11" r="2.5"/><circle cx="15.5" cy="11" r="2.5"/><path d="m7.5 5.5a2 2 0 0 0 -2 2v33a2 2 0 0 0 2 2h33a2 2 0 0 0 2-2v-33a2 2 0 0 0 -2-2z"/></g></svg>