<svg viewBox="0 0 48 48" xmlns="http://www.w3.org/2000/svg"><g fill="none" stroke="#000" stroke-linecap="round" stroke-linejoin="round"><path d="m12.3 26.2033a5.2724 5.2724 0 0 1 5.1358-5.3333 5.3077 5.3077 0 0 1 3.7531 9.0864c-2.1728 1.7778-8.8889 6.9136-8.8889 6.9136h10.4692"/><path d="m31.7494 28.7712a3.9623 3.9623 0 0 1 3.9506 3.9507 3.9623 3.9623 0 0 1 -3.9506 3.9506h-1.58c-2.7654 0-3.7531-.3951-4.9383-1.3827"/><path d="m25.2309 22.2527c1.1851-.9876 2.37-1.3827 4.9382-1.3827h1.58a3.9623 3.9623 0 0 1 3.9509 3.9506 3.9622 3.9622 0 0 1 -3.9506 3.9506h-3.9507"/><rect height="34" rx="1.9563" width="34" x="7" y="9.12"/><path d="m7 14.62h34"/><path d="m12.5 9.12v-2.5a2.5 2.5 0 0 1 2.5-2.5 2.5 2.5 0 0 1 2.5 2.5v2.5"/><path d="m30.5 9.12v-2.5a2.5 2.5 0 0 1 2.5-2.5 2.5 2.5 0 0 1 2.5 2.5v2.5"/></g></svg>