<svg viewBox="0 0 48 48" xmlns="http://www.w3.org/2000/svg"><g fill="none" stroke="#000" stroke-linecap="round" stroke-linejoin="round"><path d="m24.2512 31.5367a5.3112 5.3112 0 0 0 5.3334 5.3333 5.1471 5.1471 0 0 0 5.1354-5.3333v-5.3334a5.2724 5.2724 0 0 0 -5.1354-5.3333 5.44 5.44 0 0 0 -5.3334 5.3333z"/><path d="m33.5352 22.8453-7.9012 12.0494" stroke-width=".9965"/><path d="m13.2796 36.87h8"/><path d="m13.2796 23.07 4-2.2"/><path d="m17.2796 20.87v16"/><rect height="34" rx="1.9563" width="34" x="7" y="9.12"/><path d="m7 14.62h34"/><path d="m12.5 9.12v-2.5a2.5 2.5 0 0 1 2.5-2.5 2.5 2.5 0 0 1 2.5 2.5v2.5"/><path d="m30.5 9.12v-2.5a2.5 2.5 0 0 1 2.5-2.5 2.5 2.5 0 0 1 2.5 2.5v2.5"/></g></svg>