<svg viewBox="0 0 48 48" xmlns="http://www.w3.org/2000/svg"><g fill="none" stroke="#000" stroke-linecap="round" stroke-linejoin="round"><path d="m12.2507 26.2033a5.2724 5.2724 0 0 1 5.1358-5.3333 5.3077 5.3077 0 0 1 3.753 9.0864c-2.1728 1.7778-8.8889 6.9136-8.8889 6.9136h10.4694"/><circle cx="30.416" cy="26.2033" r="5.3333"/><path d="m25.6753 34.8947a4.8514 4.8514 0 0 0 4.3457 1.9753h.395a5.3112 5.3112 0 0 0 5.3334-5.3333v-5.3334"/><rect height="34" rx="1.9563" width="34" x="7" y="9.12"/><path d="m7 14.62h34"/><path d="m12.5 9.12v-2.5a2.5 2.5 0 0 1 2.5-2.5 2.5 2.5 0 0 1 2.5 2.5v2.5"/><path d="m30.5 9.12v-2.5a2.5 2.5 0 0 1 2.5-2.5 2.5 2.5 0 0 1 2.5 2.5v2.5"/></g></svg>