<svg viewBox="0 0 48 48" xmlns="http://www.w3.org/2000/svg"><g fill="none" stroke="#000" stroke-linecap="round" stroke-linejoin="round"><path d="m10.8376 25a5.9314 5.9314 0 0 1 5.7777-6 5.9712 5.9712 0 0 1 4.2222 10.2222c-2.4444 2-10 7.7778-10 7.7778h11.7778"/><path d="m25.3111 35.425c1.35 1.125 2.475 1.575 5.4 1.575h.675a5.9567 5.9567 0 0 0 5.85-5.85 5.9567 5.9567 0 0 0 -5.85-5.85h-6.075v-6.3h11.925"/><circle cx="32.5" cy="11" r="2.5"/><circle cx="15.5" cy="11" r="2.5"/><path d="m7.5 5.5a2 2 0 0 0 -2 2v33a2 2 0 0 0 2 2h33a2 2 0 0 0 2-2v-33a2 2 0 0 0 -2-2z"/></g></svg>