<svg viewBox="0 0 48 48" xmlns="http://www.w3.org/2000/svg"><g fill="none" stroke="#000" stroke-linecap="round" stroke-linejoin="round"><path d="m10.8376 25a5.9314 5.9314 0 0 1 5.7777-6 5.9712 5.9712 0 0 1 4.2222 10.2222c-2.4444 2-10 7.7778-10 7.7778h11.7778"/><circle cx="31.2736" cy="25" r="6"/><path d="m25.94 34.7778c.8892 1.3333 2.4447 2.2222 4.8892 2.2222h.4444a5.9751 5.9751 0 0 0 6-6v-6"/><circle cx="32.5" cy="11" r="2.5"/><circle cx="15.5" cy="11" r="2.5"/><path d="m7.5 5.5a2 2 0 0 0 -2 2v33a2 2 0 0 0 2 2h33a2 2 0 0 0 2-2v-33a2 2 0 0 0 -2-2z"/></g></svg>