<svg viewBox="0 0 48 48" xmlns="http://www.w3.org/2000/svg"><g fill="none" stroke="#000" stroke-linecap="round" stroke-linejoin="round"><g stroke-width=".961"><path d="m27.3361 36.87h8"/><path d="m27.3361 23.048 4-2.178"/><path d="m31.3361 20.87v16"/></g><path d="m19.1825 28.87a3.9623 3.9623 0 0 1 3.9506 3.9506 3.9623 3.9623 0 0 1 -3.9506 3.9506h-1.58c-2.7654 0-3.7531-.395-4.9383-1.3827"/><path d="m12.664 22.3515c1.1851-.9877 2.37-1.3827 4.9382-1.3827h1.58a3.9622 3.9622 0 0 1 3.9506 3.9506 3.9623 3.9623 0 0 1 -3.9503 3.9506h-3.9507"/><rect height="34" rx="1.9563" width="34" x="7" y="9.12"/><path d="m7 14.62h34"/><path d="m12.5 9.12v-2.5a2.5 2.5 0 0 1 2.5-2.5 2.5 2.5 0 0 1 2.5 2.5v2.5"/><path d="m30.5 9.12v-2.5a2.5 2.5 0 0 1 2.5-2.5 2.5 2.5 0 0 1 2.5 2.5v2.5"/></g></svg>