<svg viewBox="0 0 48 48" xmlns="http://www.w3.org/2000/svg"><g fill="none" stroke="#000" stroke-linecap="round" stroke-linejoin="round"><path d="m11.532 25a5.9314 5.9314 0 0 1 5.778-6 5.9713 5.9713 0 0 1 4.222 10.2222c-2.4445 2-10 7.7778-10 7.7778h11.778"/><path d="m27.468 37h9"/><path d="m27.468 21.475 4.5-2.475"/><path d="m31.968 19v18"/><circle cx="32.5" cy="11" r="2.5"/><circle cx="15.5" cy="11" r="2.5"/><path d="m7.5 5.5a2 2 0 0 0 -2 2v33a2 2 0 0 0 2 2h33a2 2 0 0 0 2-2v-33a2 2 0 0 0 -2-2z"/></g></svg>