<svg viewBox="0 0 48 48" xmlns="http://www.w3.org/2000/svg"><g fill="none" stroke="#000" stroke-linecap="round" stroke-linejoin="round"><path d="m12.2874 7.9766h5.0868m3.8072 0h1.2909a1.6856 1.6856 0 0 1 1.6893 1.6893v21.28a1.6854 1.6854 0 0 1 -.8325 1.4577m-4.7084.2316h-11.4314a1.6856 1.6856 0 0 1 -1.6893-1.6893v-21.28a1.6856 1.6856 0 0 1 1.6893-1.6893h1.2907"/><path d="m9.5906 5.6008h1.5864a1.108 1.108 0 0 1 1.11 1.11v1.8818a1.108 1.108 0 0 1 -1.11 1.11h-1.5864a1.108 1.108 0 0 1 -1.11-1.11v-1.8814a1.108 1.108 0 0 1 1.11-1.1104z"/><path d="m18.4846 5.6008h1.5864a1.108 1.108 0 0 1 1.11 1.11v1.8818a1.108 1.108 0 0 1 -1.11 1.11h-1.5864a1.108 1.108 0 0 1 -1.11-1.11v-1.8814a1.108 1.108 0 0 1 1.11-1.1104z"/><path d="m16.7793 27.8839h-9.0684v-15.156h14.24v15.156h-1.0496"/><path d="m14.8308 12.7279v15.156"/><path d="m10.9057 12.7279v15.156"/><path d="m18.7559 12.7279v7.578"/><path d="m21.9507 20.3059h-14.2398"/><path d="m21.9507 16.3808h-14.2398"/><path d="m14.8308 24.231h-7.12"/><path d="m26.9226 31.9824v-2.2685h15.5774v12.6853h-15.5774v-3.0761"/><path d="m29.5593 32.2373h10.304"/><path d="m29.6268 34.9582h10.169v4.9176h-10.169z"/><path d="m18.3473 24.4142s.0316 9.8552 7.0781 11.31m.73-2.0011-1.4978 4.1069 3.1974-1.2238z"/></g></svg>