<svg viewBox="0 0 48 48" xmlns="http://www.w3.org/2000/svg"><g fill="none" stroke="#000" stroke-linecap="round" stroke-linejoin="round"><path d="m25.2308 31.5367a5.3112 5.3112 0 0 0 5.3334 5.3333 5.1471 5.1471 0 0 0 5.1358-5.3333v-5.3334a5.2724 5.2724 0 0 0 -5.1358-5.3333 5.44 5.44 0 0 0 -5.3334 5.3333z"/><path d="m34.5148 22.8453-7.9012 12.0494" stroke-width=".9965"/><path d="m18.8186 28.7712a3.9623 3.9623 0 0 1 3.9506 3.9507 3.9623 3.9623 0 0 1 -3.9506 3.9506h-1.58c-2.7654 0-3.7531-.3951-4.9383-1.3827"/><path d="m12.3 22.2527c1.1852-.9876 2.37-1.3827 4.9383-1.3827h1.58a3.9623 3.9623 0 0 1 3.9506 3.9506 3.9622 3.9622 0 0 1 -3.9506 3.9506h-3.9504"/><rect height="34" rx="1.9563" width="34" x="7" y="9.12"/><path d="m7 14.62h34"/><path d="m12.5 9.12v-2.5a2.5 2.5 0 0 1 2.5-2.5 2.5 2.5 0 0 1 2.5 2.5v2.5"/><path d="m30.5 9.12v-2.5a2.5 2.5 0 0 1 2.5-2.5 2.5 2.5 0 0 1 2.5 2.5v2.5"/></g></svg>