<svg viewBox="0 0 48 48" xmlns="http://www.w3.org/2000/svg"><g fill="none" stroke="#000" stroke-linecap="round" stroke-linejoin="round"><path d="m25.3847 31a5.9751 5.9751 0 0 0 6 6 5.7905 5.7905 0 0 0 5.7778-6v-6a5.9315 5.9315 0 0 0 -5.7778-6 6.12 6.12 0 0 0 -6 6z"/><path d="m35.8291 21.2222-8.8889 13.5556" stroke-width=".9965"/><path d="m18.1709 27.8889a4.4575 4.4575 0 0 1 4.4444 4.4444 4.4575 4.4575 0 0 1 -4.4444 4.4445h-1.7778c-3.1111 0-4.2222-.4445-5.5556-1.5556"/><path d="m10.8376 20.5556c1.3333-1.1111 2.6666-1.5556 5.5555-1.5556h1.7778a4.4575 4.4575 0 0 1 4.4444 4.4444 4.4575 4.4575 0 0 1 -4.4444 4.4445h-4.4445"/><circle cx="32.5" cy="11" r="2.5"/><circle cx="15.5" cy="11" r="2.5"/><path d="m7.5 5.5a2 2 0 0 0 -2 2v33a2 2 0 0 0 2 2h33a2 2 0 0 0 2-2v-33a2 2 0 0 0 -2-2z"/></g></svg>