<svg viewBox="0 0 48 48" xmlns="http://www.w3.org/2000/svg"><g fill="none" stroke="#000" stroke-linecap="round" stroke-linejoin="round"><g stroke-width=".961"><path d="m27.7531 37.7671h9"/><path d="m27.7531 22.2173 4.5-2.4502"/><path d="m32.2531 19.7671v18"/></g><path d="m18.58 28.7671a4.4575 4.4575 0 0 1 4.4444 4.4444 4.4575 4.4575 0 0 1 -4.4444 4.4445h-1.7775c-3.1111 0-4.2222-.4445-5.5556-1.5556"/><path d="m11.2469 21.4338c1.3334-1.1111 2.6667-1.5556 5.5556-1.5556h1.7775a4.4575 4.4575 0 0 1 4.4444 4.4445 4.4575 4.4575 0 0 1 -4.4444 4.4444h-4.4442"/><circle cx="32.5" cy="11" r="2.5"/><circle cx="15.5" cy="11" r="2.5"/><path d="m7.5 5.5a2 2 0 0 0 -2 2v33a2 2 0 0 0 2 2h33a2 2 0 0 0 2-2v-33a2 2 0 0 0 -2-2z"/></g></svg>