<svg viewBox="0 0 48 48" xmlns="http://www.w3.org/2000/svg"><g fill="none" stroke="#000" stroke-linecap="round" stroke-linejoin="round"><path d="m24.2827 31a5.975 5.975 0 0 0 6 6 5.79 5.79 0 0 0 5.7773-6v-6a5.9314 5.9314 0 0 0 -5.7778-6 6.12 6.12 0 0 0 -6 6z"/><path d="m34.7271 21.2222-8.8889 13.5556" stroke-width=".9965"/><path d="m11.9396 37h9"/><path d="m11.9396 21.475 4.5-2.475"/><path d="m16.4396 19v18"/><circle cx="32.5" cy="11" r="2.5"/><circle cx="15.5" cy="11" r="2.5"/><path d="m7.5 5.5a2 2 0 0 0 -2 2v33a2 2 0 0 0 2 2h33a2 2 0 0 0 2-2v-33a2 2 0 0 0 -2-2z"/></g></svg>