<svg viewBox="0 0 48 48" xmlns="http://www.w3.org/2000/svg"><g fill="none" stroke="#000" stroke-linecap="round" stroke-linejoin="round"><path d="m10.8376 25a5.9314 5.9314 0 0 1 5.7777-6 5.9712 5.9712 0 0 1 4.2222 10.2222c-2.4444 2-10 7.7778-10 7.7778h11.7778"/><path d="m32.718 27.8889a4.4575 4.4575 0 0 1 4.4445 4.4444 4.4575 4.4575 0 0 1 -4.4445 4.4445h-1.778c-3.1111 0-4.2223-.4445-5.5556-1.5556"/><path d="m25.3847 20.5556c1.3334-1.1111 2.6667-1.5556 5.5553-1.5556h1.778a4.4575 4.4575 0 0 1 4.4445 4.4444 4.4575 4.4575 0 0 1 -4.4445 4.4445h-4.4444"/><circle cx="32.5" cy="11" r="2.5"/><circle cx="15.5" cy="11" r="2.5"/><path d="m7.5 5.5a2 2 0 0 0 -2 2v33a2 2 0 0 0 2 2h33a2 2 0 0 0 2-2v-33a2 2 0 0 0 -2-2z"/></g></svg>