<svg viewBox="0 0 48 48" xmlns="http://www.w3.org/2000/svg"><g fill="none" stroke="#000" stroke-linecap="round" stroke-linejoin="round"><path d="m24 5.38a13 13 0 0 0 -13 13 12.93 12.93 0 0 1 13 0 12.93 12.93 0 0 1 13 0 13 13 0 0 0 -13-13z"/><path d="m11 18.39a13 13 0 1 0 13 22.48 13 13 0 0 1 -6.5-11.23 13 13 0 0 1 -6.5-11.25z"/><path d="m37 18.39a13 13 0 0 1 -6.5 11.24 13 13 0 0 1 -6.5 11.23 13 13 0 1 0 13-22.46z"/><path d="m24 18.39a13 13 0 0 0 -6.49 11.24 12.93 12.93 0 0 0 13 0 13 13 0 0 0 -6.51-11.24z"/></g></svg>