<svg viewBox="0 0 48 48" xmlns="http://www.w3.org/2000/svg"><g fill="none" stroke="#000" stroke-linecap="round" stroke-linejoin="round"><path d="m25.3 28.87h-2.6a4.0118 4.0118 0 0 0 -4 4 4.0118 4.0118 0 0 0 4 4h2.6a4.0118 4.0118 0 0 0 4-4 4.0118 4.0118 0 0 0 -4-4z"/><path d="m25.3 28.87a4.0118 4.0118 0 0 0 4-4 4.0118 4.0118 0 0 0 -4-4h-2.6a4.0118 4.0118 0 0 0 -4 4 4.0118 4.0118 0 0 0 4 4"/><rect height="34" rx="1.9563" width="34" x="7" y="9.12"/><path d="m7 14.62h34"/><path d="m12.5 9.12v-2.5a2.5 2.5 0 0 1 2.5-2.5 2.5 2.5 0 0 1 2.5 2.5v2.5"/><path d="m30.5 9.12v-2.5a2.5 2.5 0 0 1 2.5-2.5 2.5 2.5 0 0 1 2.5 2.5v2.5"/></g></svg>