<svg viewBox="0 0 48 48" xmlns="http://www.w3.org/2000/svg"><g fill="none" stroke="#000" stroke-linecap="round" stroke-linejoin="round"><path d="m13.2303 36.87h8"/><path d="m13.2303 23.07 4-2.2"/><path d="m17.2303 20.87v16"/><circle cx="29.4364" cy="26.2033" r="5.3333"/><path d="m24.6957 34.8947a4.8513 4.8513 0 0 0 4.3457 1.9753h.395a5.3111 5.3111 0 0 0 5.3336-5.3333v-5.3334"/><rect height="34" rx="1.9563" width="34" x="7" y="9.12"/><path d="m7 14.62h34"/><path d="m12.5 9.12v-2.5a2.5 2.5 0 0 1 2.5-2.5 2.5 2.5 0 0 1 2.5 2.5v2.5"/><path d="m30.5 9.12v-2.5a2.5 2.5 0 0 1 2.5-2.5 2.5 2.5 0 0 1 2.5 2.5v2.5"/></g></svg>