<svg viewBox="0 0 48 48" xmlns="http://www.w3.org/2000/svg"><g fill="none" stroke="#000" stroke-linecap="round" stroke-linejoin="round"><path d="m13.2469 36.87h8"/><path d="m13.2469 23.07 4-2.2"/><path d="m17.2469 20.87v16"/><path d="m24.1531 35.47c1.2 1 2.2 1.4 4.8 1.4h.6a5.2949 5.2949 0 0 0 5.2-5.2 5.2949 5.2949 0 0 0 -5.2-5.2h-5.4v-5.6h10.6"/><rect height="34" rx="1.9563" width="34" x="7" y="9.12"/><path d="m7 14.62h34"/><path d="m12.5 9.12v-2.5a2.5 2.5 0 0 1 2.5-2.5 2.5 2.5 0 0 1 2.5 2.5v2.5"/><path d="m30.5 9.12v-2.5a2.5 2.5 0 0 1 2.5-2.5 2.5 2.5 0 0 1 2.5 2.5v2.5"/></g></svg>