<svg viewBox="0 0 48 48" xmlns="http://www.w3.org/2000/svg"><g fill="none" stroke="#000" stroke-linecap="round" stroke-linejoin="round"><path d="m11.9396 37h9"/><path d="m11.9396 21.475 4.5-2.475"/><path d="m16.4396 19v18"/><circle cx="30.1715" cy="31" r="6"/><path d="m35.5048 21.2222c-.8889-1.3333-2.4448-2.2222-4.8888-2.2222h-.4445a5.9751 5.9751 0 0 0 -6 6v6"/><circle cx="32.5" cy="11" r="2.5"/><circle cx="15.5" cy="11" r="2.5"/><path d="m7.5 5.5a2 2 0 0 0 -2 2v33a2 2 0 0 0 2 2h33a2 2 0 0 0 2-2v-33a2 2 0 0 0 -2-2z"/></g></svg>