<svg viewBox="0 0 48 48" xmlns="http://www.w3.org/2000/svg"><g fill="none" stroke="#000" stroke-linecap="round" stroke-linejoin="round"><path d="m12.2673 26.2033a5.2724 5.2724 0 0 1 5.1358-5.3333 5.3078 5.3078 0 0 1 3.7531 9.0864c-2.1728 1.7778-8.8889 6.9136-8.8889 6.9136h10.4692"/><path d="m25.1327 35.47c1.2 1 2.2 1.4 4.8 1.4h.6a5.2949 5.2949 0 0 0 5.2-5.2 5.2949 5.2949 0 0 0 -5.2-5.2h-5.4v-5.6h10.6"/><rect height="34" rx="1.9563" width="34" x="7" y="9.12"/><path d="m7 14.62h34"/><path d="m12.5 9.12v-2.5a2.5 2.5 0 0 1 2.5-2.5 2.5 2.5 0 0 1 2.5 2.5v2.5"/><path d="m30.5 9.12v-2.5a2.5 2.5 0 0 1 2.5-2.5 2.5 2.5 0 0 1 2.5 2.5v2.5"/></g></svg>