<svg viewBox="0 0 48 48" xmlns="http://www.w3.org/2000/svg"><g fill="none" stroke="#000" stroke-linecap="round" stroke-linejoin="round"><path d="m24 43.5c1.69 0 15.25-7.77 15.25-16.94v-20c-4 0-15.25-2-15.25-2s-11.26 2-15.25 2v20c0 9.17 13.56 16.94 15.25 16.94z"/><path d="m18.8256 21.0673c.5871-.6 2.7906-2.8565 2.9959-3.0547a1.1871 1.1871 0 0 0 .2194-1.1433 23.072 23.072 0 0 1 -.42-2.3878.7645.7645 0 0 0 -.8712-.6708h-3.2163a.5676.5676 0 0 0 -.5133.5271 13.4455 13.4455 0 0 0 1.7439 6.62l-.0009.0009.0149.0244c.0278.05.0476.0845.0476.0845l.0026-.0026a13.4215 13.4215 0 0 0 4.9235 4.9124l-.0046.0045s.0585.0342.1647.092l.0052.0032a13.35 13.35 0 0 0 6.5533 1.7112.5678.5678 0 0 0 .5266-.5137v-3.2192a.7649.7649 0 0 0 -.67-.8719 23.0335 23.0335 0 0 1 -2.3857-.42 1.1843 1.1843 0 0 0 -1.1422.22c-.1986.2061-2.45 2.4092-3.0523 2.9989"/></g></svg>