<svg viewBox="0 0 48 48" xmlns="http://www.w3.org/2000/svg"><g fill="none" stroke="#000" stroke-linecap="round" stroke-linejoin="round"><path d="m24 43.5c1.69 0 15.25-7.77 15.25-16.94v-20c-4 0-15.25-2-15.25-2s-11.26 2-15.25 2v20c0 9.17 13.56 16.94 15.25 16.94z"/><path d="m21.12 28.91a30.89 30.89 0 0 1 .54-3.05 1.52 1.52 0 0 0 -.28-1.46c-.26-.25-1-1-1.74-1.76a14.06 14.06 0 0 1 2.63-3.64 13.81 13.81 0 0 1 3.73-2.68c.76.74 1.5 1.47 1.75 1.73a1.52 1.52 0 0 0 1.46.28 29 29 0 0 1 3-.53 1 1 0 0 0 .86-1.12v-4.1a.74.74 0 0 0 -.68-.66c-3.71-.27-7.69 1.81-8.44 2.23l-.1.06a17.12 17.12 0 0 0 -6.27 6.29l-.11.21c-.51.93-2.45 4.77-2.18 8.36a.72.72 0 0 0 .65.67h4.06a1 1 0 0 0 1.12-.83z"/><path d="m33.09 29.77-17.87-17.87"/></g></svg>