<svg viewBox="0 0 48 48" xmlns="http://www.w3.org/2000/svg"><circle cx="16.6259" cy="24.1793" r=".75"/><g fill="none" stroke="#000" stroke-linecap="round" stroke-linejoin="round"><circle cx="30.863" cy="30.3333" r="3.0152"/><path d="m32.0443 25.6271a4.8638 4.8638 0 0 1 3.529 3.5439"/><path d="m12.1942 24.144v13.5682a1.8438 1.8438 0 0 0 1.8434 1.842h11.4843c3.6867 1.861 7.3258 2.0948 10.8956 0h5.2391a1.8438 1.8438 0 0 0 1.8434-1.842v-13.6009"/><ellipse cx="30.776" cy="30.4203" rx="8.0015" ry="7.958"/><path d="m43.5 24.1113c-.1645-3.6731-4.2046-3.3971-5.4363-3.76 0 0-2.73-4.259-3.8049-4.3283a52.45 52.45 0 0 0 -7.1342-.0952c-1.37.1455-3.4243 4.2332-3.4243 4.2332l-2.1873.19a4.1238 4.1238 0 0 0 -2.7583-.8564c-1.3308.1658-2.6562 2.0269-3.1864 2.0935-1.5348.19-3.3645 1.0331-3.3741 2.523"/><path d="m14.0376 6.9611a9.5428 9.5428 0 0 1 -9.5376 9.5389"/><path d="m18.0927 6.9611a13.6 13.6 0 0 1 -13.5927 13.594"/><path d="m9.8506 6.9611a5.3528 5.3528 0 0 1 -5.3506 5.3506"/></g></svg>