<svg viewBox="0 0 48 48" xmlns="http://www.w3.org/2000/svg"><g fill="none" stroke="#000" stroke-linecap="round" stroke-linejoin="round"><path d="m37.85 10.11a19.94 19.94 0 0 0 -27.69 0"/><path d="m34 13.92a14.5 14.5 0 0 0 -19.94 0"/><path d="m30.1 17.78a9 9 0 0 0 -12.23 0"/><path d="m36.68 24.31h-7.62a.24.24 0 0 1 -.16-.07l-1.83-1.83a.42.42 0 0 0 -.31-.13h-5.52a.43.43 0 0 0 -.31.13l-1.83 1.83a.21.21 0 0 1 -.15.07h-2.12v-.79a.2.2 0 0 0 -.2-.2h-3.57a.2.2 0 0 0 -.2.2v.79h-1.54a1.28 1.28 0 0 0 -1.32 1.28v16.63a1.28 1.28 0 0 0 1.28 1.28h25.4a1.28 1.28 0 0 0 1.32-1.28v-16.63a1.28 1.28 0 0 0 -1.32-1.28zm-12.68 16.21a5.75 5.75 0 1 1 0-11.52 5.75 5.75 0 0 1 0 11.5z"/></g></svg>