<svg viewBox="0 0 48 48" xmlns="http://www.w3.org/2000/svg"><g fill="none" stroke="#000" stroke-linecap="round" stroke-linejoin="round"><path d="m13.17 5.5a2 2 0 0 0 -1.95 2v.94h-3a2.6 2.6 0 0 0 -2.72 2.46v29.1a2.6 2.6 0 0 0 2.68 2.5h19.82a2.6 2.6 0 0 0 2.72-2.5v-1.95h9.83a1.94 1.94 0 0 0 2-1.94v-21.32a2 2 0 0 0 -2-1.95h-9.83v-1.94a2.6 2.6 0 0 0 -2.72-2.51h-3.09v-.94a2 2 0 0 0 -1.91-1.95zm5.93 10.67h3v3h-3zm5.82 0h3v3h-3zm5.86 0h3v3h-3zm5.83 0h3v3h-3zm-17.51 15.58h3v3h-3zm5.82 0h3v3h-3zm5.86 0h3v3h-3zm5.83 0h3v3h-3z"/><path d="m30.72 12.84h-12.57a2 2 0 0 0 -1.95 1.95l.05 21.32a2 2 0 0 0 1.95 1.94h12.52"/></g></svg>