<svg viewBox="0 0 48 48" xmlns="http://www.w3.org/2000/svg"><g fill="none" stroke="#000" stroke-linecap="round" stroke-linejoin="round"><path d="m11 5a6 6 0 0 0 -6 6v26a6 6 0 0 0 6 6h26a6 6 0 0 0 6-6v-26a6 6 0 0 0 -6-6zm-6 29.53h38"/><path d="m26.81 27a4.75 4.75 0 0 0 4.19 1.83h2.51a4.24 4.24 0 0 0 4.24-4.24 4.24 4.24 0 0 0 -4.24-4.25h-2.8a4.25 4.25 0 0 1 -4.24-4.25 4.24 4.24 0 0 1 4.24-4.25h2.52a4.73 4.73 0 0 1 4.16 1.86"/><path d="m21.53 23.13v.07a5.63 5.63 0 0 1 -5.63 5.63 5.63 5.63 0 0 1 -5.63-5.63v-5.73a5.63 5.63 0 0 1 5.63-5.63 5.63 5.63 0 0 1 5.63 5.63v.07"/></g></svg>