<svg viewBox="0 0 48 48" xmlns="http://www.w3.org/2000/svg"><g fill="none" stroke="#000" stroke-linecap="round" stroke-linejoin="round"><path d="m23.3879 11.0183c5.2889-.2845 10.7913 2.7617 12.6175 9.7312a8.1545 8.1545 0 0 1 .0593 16.2505h-22.8041c-10.9218-1.4816-12.416-17.3764 0-19.51a12.025 12.025 0 0 1 10.1273-6.4717z"/><path d="m24.1139 29.95-5.3954.5883.74-1.7117-4.8445-3.9333 1.5193-1.0423-1.2473-2.661 2.8766.6682.7034-1.5652 2.8408 2.6139-.9286-5.7627 1.9312.9586 1.8045-3.4889"/><path d="m24.1139 34.614v-4.664l5.3953.5883-.74-1.7117 4.8449-3.9332-1.5197-1.0424 1.2473-2.661-2.8766.6682-.7034-1.5652-2.8408 2.6139.9286-5.7627-1.9312.9586-1.8044-3.4889"/></g></svg>