<svg viewBox="0 0 48 48" xmlns="http://www.w3.org/2000/svg"><g fill="none" stroke="#000" stroke-linecap="round" stroke-linejoin="round"><path d="m33.563 22.611-2.222 5.889-2.223-5.889"/><path d="m20.9 26.2777a2.2287 2.2287 0 0 1 -2.2226 2.2223 2.2287 2.2287 0 0 1 -2.2222-2.2222v-1.4445a2.2287 2.2287 0 0 1 2.2222-2.2222 2.2287 2.2287 0 0 1 2.2226 2.2222"/><path d="m20.8996 28.4999v-5.8888"/><path d="m27.5307 28.5v-3.6667a2.2287 2.2287 0 0 0 -2.2222-2.2222 2.2287 2.2287 0 0 0 -2.2222 2.2222v3.6667"/><path d="m23.0863 24.8333v-2.2222"/><path d="m14.4163 25.5a2.9875 2.9875 0 0 1 -3 3 2.9875 2.9875 0 0 1 -3-3v-3a2.9875 2.9875 0 0 1 3-3 2.8953 2.8953 0 0 1 2.8889 3"/><path d="m39.5837 26.2777a2.2287 2.2287 0 0 1 -2.2222 2.2223 2.2287 2.2287 0 0 1 -2.2222-2.2222v-1.4445a2.2287 2.2287 0 0 1 2.2222-2.2222 2.2287 2.2287 0 0 1 2.2222 2.2222"/><path d="m39.5837 28.4999v-5.8888"/><circle cx="24" cy="24" r="21.5"/></g></svg>