<svg viewBox="0 0 48 48" xmlns="http://www.w3.org/2000/svg"><g fill="none" stroke="#000" stroke-linecap="round" stroke-linejoin="round"><path d="m10.3412 12.1953h29.996"/><path d="m18.7694 4.5h13.1396v7.6953h-13.1396z"/><path d="m18.769 12.195v5.288h13.14v-5.288"/><path d="m31.909 17.483v22.667h3.403v3.35h-19.945v-3.35h3.402v-22.667"/><path d="m18.7694 33.6584h13.1396"/><path d="m18.769 20.362 7.539 7.015 5.601-6.125"/><path d="m24.2006 30.9755h2.408"/><path d="m25.1501 33.6584v9.8416"/><path d="m18.769 15.964-8.428 6.806h8.428"/><path d="m9.975 28.685v4.712h5.182v-4.712h3.612"/><path d="m9.9747 28.3711 3.4027-5.6013"/><path d="m12.645 33.397v4.606h6.124"/><path d="m31.909 15.964 8.428 6.806h-8.428"/><path d="m40.704 28.685v4.712h-5.183v-4.712h-3.612"/><path d="m40.7036 28.3711-3.4027-5.6013"/><path d="m38.034 33.397v4.606h-6.125"/></g><circle cx="24.0217" cy="14.5859" r=".75"/><circle cx="29.0123" cy="14.5859" r=".75"/><path d="m7.2964 9.1505h3.0448v3.0448h-3.0448z" fill="none" stroke="#000" stroke-linecap="round" stroke-linejoin="round"/><path d="m10.3412 6.1057h3.0448v3.0448h-3.0448z" fill="none" stroke="#000" stroke-linecap="round" stroke-linejoin="round"/></svg>