<svg viewBox="0 0 48 48" xmlns="http://www.w3.org/2000/svg"><g fill="none" stroke="#000" stroke-linecap="round" stroke-linejoin="round"><path d="m24 5.8689c-11.9953 3.9211-19.1191 15.7003-19.478 18.4101s3.79 13.2786 3.79 13.2786a30.1161 30.1161 0 0 1 15.688-14.3307"/><path d="m24 23.2269s12.2644-6.3241 14.9461-6.677"/><path d="m24 5.8689c11.9953 3.9213 19.1192 15.7 19.478 18.41a8.709 8.709 0 0 1 -.3031 2.6343c-.1718.7659-.4006 1.6159-.6593 2.4922-.2259.7652-.4745 1.55-.7278 2.3169-.3225.9763-.6525 1.9224-.9525 2.7586-.6424 1.79-1.1474 3.0767-1.1474 3.0767a30.1169 30.1169 0 0 0 -15.6879-14.3307"/><path d="m40.8364 34.3962s-3.5725-9.97-13.0875-12.8537"/><path d="m41.5456 31.71a21.1881 21.1881 0 0 0 -10.4287-11.7748"/><path d="m42.3634 29.2876s-3.2192-7.9681-8.601-10.47"/><path d="m42.9679 26.4947s-2.3229-5.832-6.726-8.7552"/><path d="m24 23.9684a36.5137 36.5137 0 0 1 -4.3339 5.5177c-3.2487 3.6015-2.9474 5.9231-2.9474 5.9231a3.2329 3.2329 0 0 0 2.4206 3.5171 2.3853 2.3853 0 0 0 2.6684-.832l.9914-1.6112s.724 4.2112-1.7807 5.648"/><path d="m21.0185 42.1311a10.03 10.03 0 0 1 2.9815-.5139"/><path d="m24 23.9684a36.5137 36.5137 0 0 0 4.3339 5.5177c3.2487 3.6015 2.9474 5.9231 2.9474 5.9231a3.2329 3.2329 0 0 1 -2.4206 3.5171 2.3853 2.3853 0 0 1 -2.6684-.832l-.9914-1.6112s-.724 4.2112 1.7807 5.648"/><path d="m26.9815 42.1311a10.03 10.03 0 0 0 -2.9815-.5139"/></g></svg>