<svg viewBox="0 0 48 48" xmlns="http://www.w3.org/2000/svg"><g fill="none" stroke="#000" stroke-linecap="round" stroke-linejoin="round"><path d="m5.5 37.9983v-27.9966"/><path d="m11.6667 6.44 6.1666 3.5614-6.1666 3.5614-6.1667-3.5611z"/><path d="m17.8333 27.6915-6.1666-3.5615"/><path d="m11.6667 20.686v-7.1229"/><path d="m17.8333 13.4458 6.1667 3.5614-6.1667 3.5615-6.1666-3.5615z"/><path d="m24 20.6207 6.1667 3.5614-6.1667 3.5615-6.1667-3.5615z"/><path d="m17.8333 27.6915v-7.1228"/><path d="m30.1667 31.305-6.1667 3.5614-6.1667-3.5614"/><path d="m11.6667 41.56v-20.874"/><path d="m17.8333 31.305v-7.1229"/><path d="m30.1667 31.305v-7.1229"/><path d="m17.8333 37.9983-6.1666 3.5617-6.1667-3.5617"/><path d="m17.8333 37.9983v-7.1229"/><path d="m24 34.8664v-7.1228"/><path d="m24 20.6207v-3.6135"/><path d="m17.8333 10.0017v3.4441"/><path d="m42.5 37.9983v-27.9966"/><path d="m36.3333 6.44-6.1666 3.5614 6.1666 3.5614 6.1667-3.5611z"/><path d="m30.1667 27.6915 6.1666-3.5615"/><path d="m36.3333 20.686v-7.1229"/><path d="m30.1667 13.4458-6.1667 3.5614 6.1667 3.5615 6.1666-3.5615z"/><path d="m30.1667 27.6915v-7.1228"/><path d="m36.3333 41.56v-20.874"/><path d="m30.1667 31.305v-7.1229"/><path d="m17.8333 31.305v-7.1229"/><path d="m30.1667 37.9983 6.1666 3.5617 6.1667-3.5617"/><path d="m30.1667 37.9983v-7.1229"/><path d="m24 20.6207v-3.6135"/><path d="m30.1667 10.0017v3.4441"/></g></svg>