<svg viewBox="0 0 48 48" xmlns="http://www.w3.org/2000/svg"><g fill="none" stroke="#000" stroke-linecap="round" stroke-linejoin="round"><path d="m5.5 29c1.9-3.2 5.6-8.3 11.7-4.8 0 0 2.6-9.1 11.7-6.3"/><path d="m32.6 18.5a9.73 9.73 0 0 1 4.7 2.8c2.5 2.8 4.7 6.2 5.2 7.8"/><path d="m30.8 42.5v-22.8"/><path d="m7.4 11.5h34.1" stroke-dasharray="0 1.95"/><path d="m7.4 30.5h34.1" stroke-dasharray="0 1.95"/><path d="m7.4 36.9h34.1" stroke-dasharray="0 1.95"/></g><path d="m40 17.9a.47.47 0 0 1 .5-.5.47.47 0 0 1 .5.5.47.47 0 0 1 -.5.5.64.64 0 0 1 -.5-.5zm-1.9 0a.47.47 0 0 1 .5-.5.47.47 0 0 1 .5.5.47.47 0 0 1 -.5.5.54.54 0 0 1 -.5-.5zm-1.9 0a.47.47 0 0 1 .5-.5.47.47 0 0 1 .5.5.47.47 0 0 1 -.5.5.54.54 0 0 1 -.5-.5zm-2 0a.47.47 0 0 1 .5-.5.47.47 0 0 1 .5.5.47.47 0 0 1 -.5.5.54.54 0 0 1 -.5-.5zm-7.8 0a.47.47 0 0 1 .5-.5.47.47 0 0 1 .5.5.47.47 0 0 1 -.5.5.54.54 0 0 1 -.5-.5zm-1.9 0a.47.47 0 0 1 .5-.5.47.47 0 0 1 .5.5.47.47 0 0 1 -.5.5.54.54 0 0 1 -.5-.5zm-2 0a.47.47 0 0 1 .5-.5.47.47 0 0 1 .5.5.47.47 0 0 1 -.5.5.64.64 0 0 1 -.5-.5zm-1.9 0a.47.47 0 0 1 .5-.5.47.47 0 0 1 .5.5.47.47 0 0 1 -.5.5.54.54 0 0 1 -.5-.5zm-2 0a.47.47 0 0 1 .5-.5.47.47 0 0 1 .5.5.47.47 0 0 1 -.5.5.64.64 0 0 1 -.5-.5zm-1.9 0a.47.47 0 0 1 .5-.5.47.47 0 0 1 .5.5.47.47 0 0 1 -.5.5.54.54 0 0 1 -.5-.5zm-2 0a.47.47 0 0 1 .5-.5.47.47 0 0 1 .5.5.47.47 0 0 1 -.5.5.64.64 0 0 1 -.5-.5zm-1.9 0a.47.47 0 0 1 .5-.5.47.47 0 0 1 .5.5.47.47 0 0 1 -.5.5.54.54 0 0 1 -.5-.5zm-2 0a.47.47 0 0 1 .5-.5.47.47 0 0 1 .5.5.47.47 0 0 1 -.5.5.64.64 0 0 1 -.5-.5zm-1.9 0a.47.47 0 0 1 .5-.5.47.47 0 0 1 .5.5.47.47 0 0 1 -.5.5.54.54 0 0 1 -.5-.5zm-2 0a.47.47 0 0 1 .5-.5.47.47 0 0 1 .5.5.47.47 0 0 1 -.5.5.64.64 0 0 1 -.5-.5z"/><path d="m7.4 24.2h34.1" fill="none" stroke="#000" stroke-dasharray="0 1.95" stroke-linecap="round" stroke-linejoin="round"/><circle cx="30.8" cy="17.8" fill="none" r="1.9" stroke="#000" stroke-linecap="round" stroke-linejoin="round"/><path d="m40.5 42.5h-33a2 2 0 0 1 -2-2v-33a2 2 0 0 1 2-2h33a2 2 0 0 1 2 2v33a2 2 0 0 1 -2 2z" fill="none" stroke="#000" stroke-linecap="round" stroke-linejoin="round"/><path d="m30.8 16v-10.5" fill="none" stroke="#000" stroke-linecap="round" stroke-linejoin="round"/></svg>