<svg viewBox="0 0 48 48" xmlns="http://www.w3.org/2000/svg"><g fill="none" stroke="#000" stroke-linecap="round" stroke-linejoin="round"><path d="m29.65 5.09c.82.82.82 23.2 0 24s-3.2.73-3.78-.34c-.29-.58-.49-5.23-.49-11.67s.2-11.09.49-11.67c.58-1.07 2.86-1.26 3.78-.34z"/><path d="m21.7 12.06c.63.63.78 2.14.78 8.72 0 4.6-.2 8.43-.49 9-.58 1.07-2.85 1.26-3.77.34s-.83-17.39 0-18.21a2.66 2.66 0 0 1 3.48.19z"/><path d="m12.26 33.38a12.87 12.87 0 0 0 4.79 3.68 12.11 12.11 0 0 0 6.88 1.6 12.2 12.2 0 0 0 6.3-1.26 15 15 0 0 0 6.1-5c1.41-2.13 4.12-2 4.7.24.68 2.57-5.47 8.28-10.8 10a24.64 24.64 0 0 1 -13 0c-6.72-2.39-12.92-10.04-9.23-11.44 1.65-.58 2.42-.2 4.22 2.18z"/></g></svg>