<svg viewBox="0 0 48 48" xmlns="http://www.w3.org/2000/svg"><g fill="none" stroke="#000" stroke-linecap="round" stroke-linejoin="round"><path d="m18.14 14.68a1.7 1.7 0 0 1 0-3.39h12a1.7 1.7 0 1 1 0 3.39z"/><path d="m10 21.77a1.8 1.8 0 0 1 1.79-1.77h1.4l2.66-2.26a1.13 1.13 0 0 1 .73-.27h15.26a1.59 1.59 0 0 1 1.58 1.53v2.15h1.79a1.59 1.59 0 0 1 1.58 1.59v12.39a1.58 1.58 0 0 1 -1.58 1.58h-13.56a1.17 1.17 0 0 1 -.66-.2l-4.99-3.51h-4.21a1.79 1.79 0 0 1 -1.79-1.83z"/><path d="m7.89 31.55a1.7 1.7 0 0 1 -3.39 0v-10.17a1.7 1.7 0 1 1 3.39 0z"/><path d="m7.89 26.46h2.11"/><path d="m38.64 22.22a1.14 1.14 0 0 1 1.13-1.13h.83a1.13 1.13 0 0 1 .92.48l1.77 2.43a1.18 1.18 0 0 1 .21.66v7.34a1.09 1.09 0 0 1 -.23.68l-1.75 2.32a1.14 1.14 0 0 1 -.9.47h-.85a1.14 1.14 0 0 1 -1.13-1.13z"/><path d="m24.14 17.44v-2.76"/><path d="m38.64 28.27h-1.85"/></g></svg>