<svg viewBox="0 0 48 48" xmlns="http://www.w3.org/2000/svg"><g fill="none" stroke="#000" stroke-linecap="round" stroke-linejoin="round"><path d="m8.67 27.35v13.14h31.11v-12.91m3.72 2-19.5-10.35-19.5 10.32"/><path d="m24 19.23v-4.17"/><path d="m21.04 17.15h5.92"/><path d="m18.18 15.63 2.86 1.52"/><path d="m18.18 18.67 2.86-1.52"/><path d="m26.96 18.67v-3.04l2.86 1.52z"/><path d="m24.11 15.07a3.43 3.43 0 0 0 3.26-2.81c0-.62-.45-1.7-.37-2.2a4.19 4.19 0 0 0 1.36-.59l-1.19-.82s.06-1.14-1-1.14-1.35.64-1.32.93.58.79.58.79-.4 3-1.47 3-.27-.9-.27-2.29a2.64 2.64 0 0 0 -2.69-2.43 2.4 2.4 0 0 0 -1.9 1.37s2.4-.08 2.43.57c0 0-1.79.72-2 1.32 0 0 1.94-.2 2.16.52 0 0-1.87.67-1.92 1.57 0 0 1.45-.35 1.72.12s.64 2.09 2.62 2.09z"/></g></svg>