<svg viewBox="0 0 48 48" xmlns="http://www.w3.org/2000/svg"><g fill="none" stroke="#000" stroke-linecap="round" stroke-linejoin="round"><path d="m25.6238 5.842-1.5614-2.342-1.5612 2.342s1.5612-.0626 1.5612 1.811c0-1.8736 1.5614-1.811 1.5614-1.811z"/><path d="m30.1514 17.3642v-5.2459l-1.5925-2.5293s-4.4965.8275-4.4965-1.936c0 2.7635-4.4964 1.936-4.4964 1.936l-1.7174 2.5293v22.1605l1.6861 2.3419s2.56-.5 3.414 1.3844a2.1537 2.1537 0 0 1 -.4787 2.3627l1.5924 4.1322 1.5925-4.1322a2.1537 2.1537 0 0 1 -.4787-2.3627c.8535-1.884 3.414-1.3844 3.414-1.3844l1.5612-2.3419v-5.7456l-3.6221 1.8736v2.872c0 .9485-1.1045 1.7174-2.4669 1.7174s-2.5917-.7689-2.5917-1.7174v-20.16c0-.9485 1.2294-1.7174 2.5917-1.7174s2.4669.7689 2.4669 1.7174v2.185z"/></g></svg>