<svg viewBox="0 0 48 48" xmlns="http://www.w3.org/2000/svg"><g fill="none" stroke="#000" stroke-linecap="round" stroke-linejoin="round"><path d="m40.7782 17.1919a7.3159 7.3159 0 0 1 1.12 4.7574l1.2577-3.9038c1.0488 1.9233 1.0345 3.6185.1608 7.072l1.037-1.6646a5.53 5.53 0 0 1 -1.2579 4.3964l1.4042-1.3152c-1.2623 9.6126-8.8545 12.62-19.07 12.62m-2.6739-.0716c-8.6023-.48-13.8757-3.39-18.2134-9.23l2.5381.7145c-1.6993-1.0118-4.2-3.8547-3.4408-6.46l3.4176 2.8355c-1.4931-2.3048-3.317-4.8979-2.8849-8.08l2.9032 2.198a11.6151 11.6151 0 0 1 1.961-4.48"/><path d="m33.9087 27.7917 1.4613 1.7506.804-1.959z"/><path d="m35.3189 31.6007c.5808.9661.8679 1.0482 2.0617.8808a9.4013 9.4013 0 0 0 -1.5748 1.2552c-.7937.9529-.7654 2.5328-1.7547 3.2807a1.19 1.19 0 0 1 -.8837.193 1.1243 1.1243 0 0 1 -.7721-.4659c-.5469-.9077-.0229-2.1261-.18-3.1742-.091-.6066-.4393-1.7872-.4393-1.7872 1.3613.9438 2.5988.8589 3.5429-.1824z"/><ellipse cx="26.9504" cy="25.2693" rx=".9018" ry="1.3528"/><ellipse cx="38.2739" cy="25.4614" rx=".7215" ry="1.1724"/><path d="m9.8276 10.3846a10.6878 10.6878 0 0 1 1.8835-6.0938 15.6937 15.6937 0 0 1 5.2119 2.2192m2.9825 2.6957a16.0728 16.0728 0 0 1 1.5643 2.25"/><path d="m32.391 12.0139a13.7365 13.7365 0 0 1 1.199-3.1307m1.6621-2.3516a13.2348 13.2348 0 0 1 2.1949-1.9852 7.9222 7.9222 0 0 1 1.7235 2.4344"/><path d="m20.5077 9.9285c5.8342-1.1744 8.1436-.8079 12.0149.9045"/><path d="m10.6207 13.6458 3.6073-5.411c2.422-3.6327 19.0461-4.7648 24.245.4336l4.509 4.5089-1.8036 1.8037-4.5091-4.5089c-3.6341-3.634-17.3533-3.1056-19.7357.4679l-3.6073 5.411z"/><path d="m17.8328 10.1212a5.8933 5.8933 0 0 1 .7921 7.1606 5.2762 5.2762 0 0 1 -6.534 2.2126 5.735 5.735 0 0 1 -3.3416-6.2972 5.4967 5.4967 0 0 1 5.23-4.67"/><path d="m37.4948 7.7489c1.746-1.2259 3.9365-.6614 5.1652 1.3311a6.2111 6.2111 0 0 1 -.23 6.6706 3.4651 3.4651 0 0 1 -5.2373.7559 5.9882 5.9882 0 0 1 -1.4087-6.4341"/><path d="m11.4976 19.28-.3466 1.9981 1.43.446 1.0678-1.8326"/><path d="m11.8483 21.6076a7.8448 7.8448 0 0 0 -.01 1.9813c.2585 1.0746 1.5439 1.84 1.5227 2.9455-.049 2.5483-3.5282 4.1151-3.77 6.6525-.3508 3.6854 3.9715 6.3483 3.5544 10.5223"/><circle cx="26.2225" cy="24.7707" r="6.7638"/><path d="m25.5672 31.6156-.2063 2.0209"/><path d="m25.5466 32.9523a1.3413 1.3413 0 0 0 -1.41 1.0353l-.1349 1.5177a1.1838 1.1838 0 0 0 .7218 1.2117 1.4523 1.4523 0 0 0 1.525-1.08l.1867-1.2646a1.3572 1.3572 0 0 0 -.8886-1.4201z"/><path d="m23.4959 38.2877-.7128 1.1235a1.0337 1.0337 0 0 0 .0745 1.2293 1.2681 1.2681 0 0 0 1.6158-.2266l.6516-.9064a1.1849 1.1849 0 0 0 -.1288-1.4648 1.1707 1.1707 0 0 0 -1.5003.245z"/><path d="m20.3879 40.404-1.3107.2291c-.4044.0707-.8808.4726-.859.8826a1.268 1.268 0 0 0 1.2552 1.0424l1.1089-.1281a1.1849 1.1849 0 0 0 .9966-1.0812 1.1709 1.1709 0 0 0 -1.191-.9448z"/><path d="m17.0715 43.7092a.8861.8861 0 0 0 -.3137-1.0227 1.2182 1.2182 0 0 0 -1.5106.17l-.7486.8524"/><path d="m24.9731 36.1023-.4231 2.1666"/><path d="m23.323 40.1817-2.3709 1.1359"/><path d="m19.05 41.6423-2.65 1.4392"/></g></svg>