<svg viewBox="0 0 48 48" xmlns="http://www.w3.org/2000/svg"><g fill="none" stroke="#000" stroke-linecap="round" stroke-linejoin="round"><path d="m11.444 33.85 17.775-23.873h-16.535v-5.477h23.872v5.167"/><path d="m36.556 9.667-17.775 23.873h16.535v5.477h-23.872v-5.167"/><path d="m13.5879 9.9773v4.9606"/><path d="m16.1457 9.9773v2.2478"/><path d="m18.8973 9.9773v5.1544"/><path d="m20.8738 10.1323v1.899"/><path d="m27.0358 4.5v2.4545"/><path d="m30.5624 4.5v3.3458"/><path d="m32.9652 4.5v1.9119"/><path d="m26.1057 33.5401v2.4415"/><path d="m17.4243 25.8178v4.0018"/><path d="m23.6458 17.4622v4.8778"/><path d="m25.5254 14.9379v2.8291"/><path d="m34.4379 39.0174v3.8238"/><path d="m31.415 39.0174v1.6148"/><path d="m31.415 42.5311v.9689"/><path d="m27.5008 39.0174v2.0798"/><path d="m22.424 39.0174v3.8238"/><path d="m17.4243 39.0174v3.9982"/><path d="m19.2074 39.0174v2.2736"/><path d="m12.6191 39.0174v.8074"/><path d="m16.1457 17.4622v2.4389"/><path d="m29.3223 25.0916v1.4727"/><path d="m29.3223 19.383v3.3058"/><path d="m24.433 25.9494v4.4903"/></g></svg>