<svg viewBox="0 0 48 48" xmlns="http://www.w3.org/2000/svg"><g fill="none" stroke="#000" stroke-linecap="round" stroke-linejoin="round"><path d="m17.42 4.5 6.63 3.83 6.46-3.74 6.54 4.19v7.87l6 3.45v8l-5.93 3.43v7.91l-7 4-6-3.45-5.92 3.49-7.31-4.23v-8.15l-5.89-3.42v-7.59l6.41-3.71v-8.19z"/><path d="m18 19.7v8.09l6 3.49 5.92-3.42v-8l-6-3.47z"/><path d="m11.39 16.38 6.61 3.32"/><path d="m23.93 16.4.12-8.07"/><path d="m29.93 19.87 7.12-3.22"/><path d="m24 31.28.12 8.77"/><path d="m10.89 31.1 7.11-3.31"/><path d="m37.09 31.54-7.16-3.68"/><path d="m15.6 10.26h3.87v3.88h-3.87z"/><path d="m28.66 10.26h3.87v3.88h-3.87z"/><path d="m34.8 21.83h3.87v3.88h-3.87z"/><path d="m28.34 34.21h3.87v3.88h-3.87z"/><path d="m15.56 33.62h3.87v3.88h-3.87z"/><path d="m9.18 21.83h3.87v3.88h-3.87z"/><path d="m28.65 12.19h-9.16"/><path d="m17.62 14.16-6.46 7.66"/><path d="m36.71 25.72-6.3 8.49"/></g></svg>