<svg viewBox="0 0 48 48" xmlns="http://www.w3.org/2000/svg"><g fill="none" stroke="#000" stroke-linecap="round" stroke-linejoin="round"><path d="m11.1341 15.0463c.5859-2.1586 2.7622-7.5618 4.3822-7.5618 1.9441 0 4.1041 4.9142 4.1041 4.9142"/><path d="m4.662 24.819 4.8961 1.6381"/><path d="m5.6792 34.5894 4.0589-2.4982"/><path d="m4.5 29.4632h5.2381"/><circle cx="17.1904" cy="24.9405" r="2.0926"/><path d="m24 40.5155h3.7856c11.8443 0 12.7083-9.2523 12.7083-12.7084v-3.4486c0-11.1528-8.4962-11.96-13.2484-11.96h-6.491c-4.7522 0-13.2484.807-13.2484 11.96v3.4486c0 3.4561.864 12.7084 12.7083 12.7084z"/><path d="m36.8659 15.0463c-.5859-2.1586-2.7622-7.5618-4.3822-7.5618-1.9441 0-4.1041 4.9142-4.1041 4.9142"/><path d="m43.338 24.819-4.8961 1.6381"/><path d="m42.3208 34.5894-4.0589-2.4982"/><path d="m43.5 29.4632h-5.2381"/><circle cx="30.8096" cy="24.9405" r="2.0926"/><path d="m24.6157 29.9768 1.72-2.2862a.77.77 0 0 0 -.6156-1.2335h-3.4401a.77.77 0 0 0 -.6156 1.2335l1.72 2.2862a.77.77 0 0 0 1.2313 0z"/></g></svg>