<svg viewBox="0 0 48 48" xmlns="http://www.w3.org/2000/svg"><g fill="none" stroke="#000" stroke-linecap="round" stroke-linejoin="round"><path d="m14.9756 8.9973 9.0244-4.4973v3.3816l-3.22 1.47"/><path d="m11.9844 25.7176s-3.2807-7.3609-3.4884-11.1259"/><path d="m8.4956 14.5907a79.5058 79.5058 0 0 1 15.5044-2.1052"/><path d="m11.9844 25.7176s7.5556-5.9384 8.4063-13.0505"/><path d="m14.6333 30.9693a27.7479 27.7479 0 0 0 7.4275-18.2686"/><path d="m24 12.4856s-1.4689 15.7394-7.0361 22.5944"/><path d="m16.9636 35.08s3.6946 6.1786 7.0364 8.42"/><path d="m24 39.5879v-1.7151l-2.2971.8578.6243-1.5216-2.0682-.8667-.0317-1.6439 1.4856-.6791 1.39 1.196-.528-2.4111 1.4251-1.0429"/><path d="m33.0244 8.9973-9.0244-4.4973m0 3.3816 3.22 1.47"/><path d="m36.0156 25.7176s3.2807-7.3609 3.4884-11.1259"/><path d="m39.5044 14.5907a79.5058 79.5058 0 0 0 -15.5044-2.1052"/><path d="m36.0156 25.7176s-7.5556-5.9384-8.4063-13.0505"/><path d="m33.3667 30.9693a27.7479 27.7479 0 0 1 -7.4275-18.2686"/><path d="m24 12.4856s1.4689 15.7394 7.0361 22.5944"/><path d="m31.0364 35.08s-3.6946 6.1786-7.0364 8.42"/><path d="m24 39.5879v-1.7151l2.2971.8578-.6243-1.5216 2.0682-.8667.0317-1.6439-1.4856-.6791-1.39 1.196.528-2.4111-1.4251-1.0429"/></g></svg>