<svg viewBox="0 0 48 48" xmlns="http://www.w3.org/2000/svg"><g fill="none" stroke="#000" stroke-linecap="round" stroke-linejoin="round"><path d="m32.6 19.3v8.8a2.9 2.9 0 0 1 -2.9 2.9 2.88 2.88 0 0 1 -2.1-.9"/><path d="m29.6 19.3a2.9 2.9 0 0 1 2.9 2.9v1.9a2.9 2.9 0 0 1 -2.9 2.9 2.9 2.9 0 0 1 -2.9-2.9v-1.9a2.9 2.9 0 0 1 2.9-2.9z"/><path d="m36.8 16.9v8.8a1.54 1.54 0 0 0 1.5 1.5h.4"/><path d="m35.2 19.3h3.1"/><path d="m15.5 25.6a3 3 0 0 1 -2.6 1.5 2.9 2.9 0 0 1 -2.9-2.9v-1.9a2.9 2.9 0 0 1 2.9-2.9 3.11 3.11 0 0 1 2.6 1.5"/><path d="m24 25.6a3 3 0 0 1 -2.6 1.5 2.9 2.9 0 0 1 -2.9-2.9v-1.9a2.9 2.9 0 0 1 2.9-2.9 3.11 3.11 0 0 1 2.6 1.5"/><path d="m40.5 42.5h-33a2 2 0 0 1 -2-2v-33a2 2 0 0 1 2-2h33a2 2 0 0 1 2 2v33a2 2 0 0 1 -2 2z"/></g></svg>