<svg viewBox="0 0 48 48" xmlns="http://www.w3.org/2000/svg"><g fill="none" stroke="#000" stroke-linecap="round" stroke-linejoin="round"><path d="m20.3261 8.1739a15.8261 15.8261 0 0 0 0 31.6522h19.2174a3.9565 3.9565 0 0 0 3.9565-3.9561 3.9565 3.9565 0 0 0 -3.9565-3.9566h-19.1114q-.0531 0-.106 0a7.9134 7.9134 0 0 1 -.106-15.826h.106 19.2174a3.9565 3.9565 0 0 0 3.9565-3.9574 3.9565 3.9565 0 0 0 -3.9565-3.9565h-19.2174z"/><path d="m20.3261 20.0435a3.9565 3.9565 0 0 0 -3.9561 3.9565 3.9565 3.9565 0 0 0 3.9565 3.9565h19.217a3.9565 3.9565 0 0 0 3.9565-3.9565 3.9565 3.9565 0 0 0 -3.9565-3.9565z"/></g></svg>