<svg viewBox="0 0 48 48" xmlns="http://www.w3.org/2000/svg"><g fill="none" stroke="#000" stroke-linecap="round" stroke-linejoin="round"><path d="m21.2011 34.892v-18.4438h-14.7163a1.762 1.762 0 0 1 -.4841-3.34"/><path d="m9.3409 16.4482a10.4224 10.4224 0 0 0 -3.5339 7.6325c0 3.55 4.93 10.8113 4.93 10.8113h-6.237"/><path d="m28.85 13.108a2.1837 2.1837 0 0 0 -.956 3.34c.6293.7745 13.5543 14.9011 14.4548 15.7924 1.7985 1.78.8957 2.6514-.4767 2.6514"/><path d="m26.5261 34.8873c1.84 0 4.1148.1936 4.1148-1.888s-2.7666-2.8393-2.7666-5.03c0-1.4522.3214-3.96 4.2062-6.8862"/><path d="m35.4045 24.6937 5.7895-6.6964"/><path d="m40.2743 13.108a1.7257 1.7257 0 0 0 -.85 2.7871c.5809.6778 2.5845 2.4886 3.6476 3.5886.9561.9893.0134 2.5315.0134 2.5315"/></g></svg>