<svg viewBox="0 0 48 48" xmlns="http://www.w3.org/2000/svg"><g fill="none" stroke="#000" stroke-linecap="round" stroke-linejoin="round"><path d="m4 12.9v27.47l13.34-5.27 13.32 5.27 13.34-5.27v-27.47l-13.34 5.27-13.32-5.27z"/><path d="m21.33 30h5.99"/><path d="m21.33 18.02h5.99"/><path d="m21.33 24.01h3.91"/><path d="m21.33 18.02v11.98"/><path d="m18 22a4 4 0 0 0 -4.23-4 4.17 4.17 0 0 0 -3.77 4.25v3.75a4 4 0 0 0 4 4 4 4 0 0 0 4-4h-4"/><path d="m38 22a4 4 0 0 0 -4.24-4 4.17 4.17 0 0 0 -3.76 4.25v3.75a4 4 0 0 0 4 4 4 4 0 0 0 4-4z"/></g></svg>