<svg viewBox="0 0 48 48" xmlns="http://www.w3.org/2000/svg"><path d="m23.12 3.51c13.1-.51 24.65 17.69 10.51 29.2 8.15-13.18-6.63-31.93-23.07-21.37 3.81-5.19 8.2-7.66 12.56-7.83zm-3.52 4.75c4.38-.11 9.11 1.7 13 6.37-13.29-8.09-32 6.8-21.32 23.11-15.73-11.35-4.83-29.18 8.32-29.48zm17.17 2.29c20.94 15.14-5.61 41.77-21.08 23.06 13.31 8.09 31.72-6.76 21.08-23.06zm-22.28 5.3c-8.15 13.15 6.81 31.55 23.24 20.99-15.25 20.78-42.09-5.64-23.24-20.99z" fill="none" stroke="#000" stroke-linecap="round" stroke-linejoin="round"/></svg>