<svg viewBox="0 0 48 48" xmlns="http://www.w3.org/2000/svg"><g fill="none" stroke="#000"><path d="m10.3 5.5h27.3a4.23 4.23 0 0 1 4.2 4.2v28.7a4.23 4.23 0 0 1 -4.2 4.2h-27.3a4.23 4.23 0 0 1 -4.2-4.2v-28.7a4.29 4.29 0 0 1 4.2-4.2z" stroke-linecap="square"/><path d="m12.8 8.2h22.7a3.33 3.33 0 0 1 3.3 3.3v22.7a3.33 3.33 0 0 1 -3.3 3.3h-22.7a3.33 3.33 0 0 1 -3.3-3.3v-22.7a3.4 3.4 0 0 1 3.3-3.3z" stroke-linecap="square"/><path d="m10.3 9.5-3.4-2.8"/><path d="m37.6 9.1 3-2.6"/><path d="m37.6 36.5c.1.3 3.1 4.5 3.1 4.5"/><path d="m10.6 36.8-3.4 4.4"/><g stroke-linecap="round" stroke-linejoin="round"><path d="m31.8 26.3a3.69 3.69 0 0 1 -3.7 3.7 3.69 3.69 0 0 1 -3.7-3.7v-2.4a3.69 3.69 0 0 1 3.7-3.7 3.69 3.69 0 0 1 3.7 3.7"/><path d="m33.3 30a1.54 1.54 0 0 1 -1.5-1.5v-8.4"/><path d="m26.9 18.1 2.4-.8"/></g></g></svg>