<svg viewBox="0 0 48 48" xmlns="http://www.w3.org/2000/svg"><g fill="none" stroke="#000" stroke-linecap="round" stroke-linejoin="round"><path d="m36.09 17.03-12.18-7.03-12.11 6.99 12.18 7.03z"/><path d="m23.98 24.02-12.18-7.03v13.98l12.18 7.03z"/><path d="m36.09 17.03-12.11 6.99v13.98l12.11-6.99z"/><path d="m23.98 30.94-2.5-4.68-7.18-4.15-2.5 1.8"/><path d="m36.09 23.95-2.48-1.79-7.14 4.13-2.49 4.65"/><path d="m31.35 17-7.43-4.29-7.38 4.27 7.43 4.28z"/><path d="m27.64 14.86-7.38 4.26"/><path d="m27.62 19.15-7.42-4.28"/><path d="m24 2.5a21.52 21.52 0 0 0 -18.85 31.86l-2.65 11.14 11.14-2.65a21.5 21.5 0 1 0 10.36-40.35z"/></g></svg>