<svg viewBox="0 0 48 48" xmlns="http://www.w3.org/2000/svg"><path d="m15.93 4.5c-2.69 0-6.72.58-6.72 4v22.22a2 2 0 0 0 2 2h3.37v-17.46a1.35 1.35 0 1 1 2.69 0v17.48h5.38v-18.83a1.34 1.34 0 0 1 2.68 0v18.83h5.38v-16.14a1.35 1.35 0 0 1 2.69 0v16.14h3.37a2 2 0 0 0 2-2v-20.86c0-2.69-2.69-4.5-4.81-4.5s-3.53 1.76-6.63 1.81c-4.17-.19-8.71-2.69-11.4-2.69zm-4.71 30.93a2 2 0 0 0 -2 2v4a2 2 0 0 0 2 2h25.56a2 2 0 0 0 2-2v-4a2 2 0 0 0 -2-2z" fill="none" stroke="#000" stroke-linecap="round" stroke-linejoin="round"/></svg>