<svg viewBox="0 0 48 48" xmlns="http://www.w3.org/2000/svg"><g fill="none" stroke="#000" stroke-linecap="round" stroke-linejoin="round"><path d="m43.4989 15.4939c-4.2158-7.7539-13.7518-11.863-23.0397-9.9282s-15.8915 9.4043-15.9587 18.0491 6.4232 16.2 15.6808 18.2522 18.8564-1.9363 23.1908-9.637v.0011l-4.59-2.5048c-3.0736 5.4283-9.88 8.24-16.4448 6.7946s-11.1673-6.7718-11.1204-12.867 4.7321-11.3607 11.318-12.7246 13.3489 1.5326 16.3392 6.9985v-.001l4.6259-2.434zm-33.4409 21.0078c2.044 3.2066-.5226 4.5134-3.4385 6.1928 4.7623.7017 7.2853-.3825 9.1728-2.2955"/><circle cx="17.1977" cy="23.5831" r="2.1148"/><circle cx="25.1697" cy="23.5831" r="2.1148"/><circle cx="32.9768" cy="23.5831" r="2.1148"/></g></svg>