<svg viewBox="0 0 48 48" xmlns="http://www.w3.org/2000/svg"><g fill="none" stroke="#000" stroke-linecap="round" stroke-linejoin="round"><path d="m14.7647 34.3816a15.058 15.058 0 0 0 18.4707-.0007"/><path d="m36.3673 13.905a15.0578 15.0578 0 0 0 -24.7348-.001"/><path d="m23.9996 22.4912-.8947-8.5573"/><path d="m15.7548 12.7284 8.2448 9.7628"/><path d="m5.6845 23.4274h9.0463"/><path d="m13.24 23.427h-6.064l-2.386 17.137h10.835z"/><path d="m4.7898 40.5635h10.8357"/><path d="m5.2073 37.5647h10.0007"/><path d="m13.24 23.4274 2.6761-7.6874a9.7194 9.7194 0 0 0 -5.7085-1.9516 9.7192 9.7192 0 0 0 -5.7076 1.9508l2.6757 7.6882z"/><path d="m10.2076 13.7883v-5.7735"/><path d="m7.3208 10.5338h5.7736"/><path d="m33.2684 23.4274h9.0463"/><path d="m40.824 23.427h-6.064l-2.386 17.137h10.835z"/><path d="m32.3737 40.5635h10.8357"/><path d="m32.7912 37.5647h10.0006"/><path d="m40.8235 23.4274 2.6765-7.6874a9.3246 9.3246 0 0 0 -11.4161-.0007l2.6761 7.6881z"/><path d="m37.7915 13.7883v-1.8006"/></g></svg>