<svg viewBox="0 0 48 48" xmlns="http://www.w3.org/2000/svg"><g fill="none" stroke="#000" stroke-linecap="round" stroke-linejoin="round"><path d="m37.42 13.2a2.6 2.6 0 0 0 -2.6-2.61 2.61 2.61 0 1 0 1.84 4.47 2.53 2.53 0 0 0 .75-1.86zm5.07-7a25.3 25.3 0 0 1 -1.71 9.8 25.79 25.79 0 0 1 -5.78 8.16c-1.23 1.24-2.71 2.57-4.42 4l-.46 8.58a.77.77 0 0 1 -.36.59l-8.69 5.08a.6.6 0 0 1 -.37.09.77.77 0 0 1 -.52-.2l-1.45-1.45a.72.72 0 0 1 -.18-.72l1.93-6.26-6.37-6.38-6.21 1.94h-.2a.74.74 0 0 1 -.53-.21l-1.45-1.43a.7.7 0 0 1 -.11-.88l5.08-8.7a.81.81 0 0 1 .59-.37l8.58-.46q2.14-2.58 3.99-4.38a26.37 26.37 0 0 1 8.15-5.88 25.44 25.44 0 0 1 9.77-1.61.78.78 0 0 1 .54.21.7.7 0 0 1 .18.51z"/><path d="m28.18 15.88h3.7a2.26 2.26 0 0 1 2.26 2.26v1.96a0 0 0 0 1 0 0h-8.23a0 0 0 0 1 0 0v-1.95a2.26 2.26 0 0 1 2.26-2.26z" transform="matrix(.70710678 .70710678 -.70710678 .70710678 21.52 -15.96)"/><path d="m30.62 28.16-10.1 5.71"/><path d="m19.86 17.38-5.71 10.11"/></g></svg>