<svg viewBox="0 0 48 48" xmlns="http://www.w3.org/2000/svg"><g fill="none" stroke="#000" stroke-linecap="round" stroke-linejoin="round"><path d="m16.1921 27.0537-5.1121-5.3047c-3.1369-3.2552-6.7283-.1526-6.5757 2.8291a3.7941 3.7941 0 0 0 6.6722 2.1863l5.0157-5.3044"/><path d="m21.3917 15.8059 5.0154-4.9188c3.5974-3.5283 9.4056 1.23 5.2083 5.4011l-15.2386 15.1418c-4.4062 4.3783 1.9256 8.8767 5.4011 5.401l4.5331-4.5331"/><path d="m26.3106 15.9023-4.9189-5.2082c-3.3439-3.5407-9.0789 1.3882-5.4011 5.1117l15.5278 15.7217c4.2089 4.2611-1.8413 9.3729-5.4976 5.7869l-5.0153-4.9188"/><path d="m31.8079 21.3032 5.1121 5.3047c3.137 3.2553 6.7283.1527 6.5757-2.829a3.7941 3.7941 0 0 0 -6.6722-2.1863l-5.0153 5.3046"/></g></svg>