<svg viewBox="0 0 48 48" xmlns="http://www.w3.org/2000/svg"><path d="m10 4a2 2 0 0 0 -2 2v36a2 2 0 0 0 2 2h28a2 2 0 0 0 2-2v-36a2 2 0 0 0 -2-2zm7.68 3.35h6.13a.32.32 0 0 1 .32.32v4.4a.36.36 0 0 1 -.09.22l-3.04 3.09a.33.33 0 0 1 -.46 0l-3.05-3.09a.31.31 0 0 1 -.09-.22v-4.4a.32.32 0 0 1 .28-.32zm-6 6h4.43a.31.31 0 0 1 .22.09l3.09 3.05a.32.32 0 0 1 0 .45l-3.13 3.06a.36.36 0 0 1 -.22.09h-4.4a.32.32 0 0 1 -.32-.32v-6.1a.32.32 0 0 1 .29-.28zm13.77 0h4.43a.32.32 0 0 1 .32.32v6.1a.32.32 0 0 1 -.32.32h-4.4a.36.36 0 0 1 -.22-.09l-3.13-3a.32.32 0 0 1 0-.46l3.09-3.05a.34.34 0 0 1 .19-.1zm-4.7 4.65a.37.37 0 0 1 .24.1l3 3.09a.33.33 0 0 1 .1.23v4.39a.32.32 0 0 1 -.32.32h-6.1a.32.32 0 0 1 -.32-.32v-4.36a.32.32 0 0 1 .09-.23l3.05-3.09a.32.32 0 0 1 .26-.13zm11.47 10.48a4.61 4.61 0 0 1 1 9.06 4.6 4.6 0 0 1 -5.64-3.26 4.6 4.6 0 0 1 3.26-5.64 4.48 4.48 0 0 1 1.38-.16zm-11 2.95a4.61 4.61 0 1 1 -4.63 5.8 4.6 4.6 0 0 1 3.26-5.64 4.45 4.45 0 0 1 1.36-.16z" fill="none" stroke="#000" stroke-linecap="round" stroke-linejoin="round"/></svg>