<svg viewBox="0 0 48 48" xmlns="http://www.w3.org/2000/svg"><g fill="none" stroke="#000" stroke-linecap="round" stroke-linejoin="round"><path d="m12.0233 30.6418h24v12.8582h-24z"/><path d="m24.0233 10.0782c-3.7073 3.4036-4.6528 8.7454-1.6273 20.5636"/><path d="m27.2107 30.6418c-2.3217-9.32 4.67-17.7471 10.6435-13.4254 5.3734 3.8876-1.8508 13.4254-10.6435 13.4254z"/><path d="m20.7893 30.6418c2.3217-9.32-4.67-17.7471-10.6435-13.4254-5.3734 3.8876 1.8508 13.4254 10.6435 13.4254z"/><path d="m24.0233 10.0782c3.7074 3.4036 4.6529 8.7454 1.6274 20.5636"/><path d="m24.0233 10.0782v-5.5782"/><path d="m22.3373 6.2964h3.3721"/><path d="m14.7585 37.0709h18.5297"/><path d="m14.7585 40.2855h18.5297"/><path d="m14.7585 33.8564h18.5297"/></g></svg>