<svg viewBox="0 0 48 48" xmlns="http://www.w3.org/2000/svg"><path d="m40.5 5.5h-33a2 2 0 0 0 -2 2v33a2 2 0 0 0 2 2h33a2 2 0 0 0 2-2v-33a2 2 0 0 0 -2-2z" fill="none" stroke="#000" stroke-linecap="round" stroke-linejoin="round"/><path d="m30.14 25.208.1014-3.7067a6.0767 6.0767 0 0 1 -.82-.81 6.3158 6.3158 0 0 1 -.4956-1.0634l-.824-10.384s-.0319-.5563.1425-.7338c1.1424-1.1629 3.125-.9927 4.7789-1.0083s3.7956-.2758 4.9512.9473c.2618.277.1532 1.1346.1532 1.1346l-.5909 10.504a8.15 8.15 0 0 1 -.5156.7814 6.683 6.683 0 0 1 -.6179.5871l.02 3.7023z" fill="none" stroke="#000" stroke-linecap="round" stroke-linejoin="round"/><path d="m31.515 11.214a.6977.6977 0 0 1 -.6977.6977.6977.6977 0 0 1 -.6977-.6977.6977.6977 0 0 1 .6977-.6977.6977.6977 0 0 1 .6977.6977z"/><path d="m31.808 14.618a.6977.6977 0 0 1 -.6977.6977.6977.6977 0 0 1 -.6977-.6977.6977.6977 0 0 1 .6974-.698.6977.6977 0 0 1 .6977.6977z"/><path d="m32.107 18.096a.6977.6977 0 0 1 -.6977.6977.6977.6977 0 0 1 -.6977-.6977.6977.6977 0 0 1 .6977-.6977.6977.6977 0 0 1 .6977.6977z"/><path d="m27.901 11.185a.6977.6977 0 0 1 -.6977.6977.6977.6977 0 0 1 -.6977-.6977.6977.6977 0 0 1 .6977-.6977.6977.6977 0 0 1 .6977.6977z"/><path d="m28.195 14.589a.6977.6977 0 0 1 -.6977.6977.6977.6977 0 0 1 -.6973-.6977.6977.6977 0 0 1 .6977-.6977.6977.6977 0 0 1 .6977.6977z"/><path d="m28.493 18.067a.6977.6977 0 0 1 -.6977.6977.6977.6977 0 0 1 -.6977-.6977.6977.6977 0 0 1 .6977-.6977.6977.6977 0 0 1 .6977.6977z"/><path d="m35.081 11.279a.6977.6977 0 1 0 .6977-.6977.6977.6977 0 0 0 -.6977.6977z"/><path d="m34.788 14.684a.6977.6977 0 1 0 .6977-.6977.6977.6977 0 0 0 -.6977.6977z"/><path d="m34.49 18.161a.6977.6977 0 1 0 .6977-.6977.6977.6977 0 0 0 -.6977.6977z"/><path d="m38.284 11.272a.6977.6977 0 1 0 .6977-.6977.6977.6977 0 0 0 -.6977.6977z"/><path d="m37.991 14.676a.6977.6977 0 1 0 .6977-.6977.6977.6977 0 0 0 -.6977.6977z"/><path d="m37.693 18.153a.6977.6977 0 1 0 .6977-.6977.6977.6977 0 0 0 -.6977.6977z"/><g fill="none" stroke="#000" stroke-linecap="round" stroke-linejoin="round"><path d="m14.824 5.5v11.442h-3.057v-11.442"/><path d="m19.3145 25.3165h-6.0191"/><path d="m24.293 5.5v19.8165h-4.9785v-8.3595"/><path d="m8.5748 5.5v19.8165h4.7206v-8.3748"/><path d="m20.778 5.5v11.457h-3.057v-11.457"/><path d="m19.5043 35.5144a3.0022 3.0022 0 0 1 -6.0043 0v-3.0022a2.99 2.99 0 0 1 3.0021-3.0022 2.8973 2.8973 0 0 1 2.891 3.0021"/><path d="m21.8727 35.41a1.7387 1.7387 0 0 1 3.4769 0v2.735"/><path d="m21.8727 33.7009v4.4443"/><path d="m25.35 35.41a1.7387 1.7387 0 0 1 3.4769 0v2.735"/><path d="m31.2328 38.1685q1.6336-3.1149 3.2672-6.23h-4.0271"/></g></svg>