<svg viewBox="0 0 48 48" xmlns="http://www.w3.org/2000/svg"><g fill="none" stroke="#000" stroke-linecap="round" stroke-linejoin="round"><path d="m19.2133 21.0592.0109-7.389 13.3695-.0002v7.389z" stroke-opacity=".9859"/><path d="m19.3007 29.5821 2.693-2.39 2.5921 2.39 2.76-2.39 2.5248 2.39 2.8277-2.39" stroke-opacity=".9859"/><path d="m15.0138 8.2213h-2.0469a1.76 1.76 0 0 0 -1.76 1.76v30.8036a1.76 1.76 0 0 0 1.76 1.76h2.0467"/><path d="m15.0138 8.2213v34.3238h20.0193a1.76 1.76 0 0 0 1.76-1.76v-30.8036a1.76 1.76 0 0 0 -1.76-1.76z"/><path d="m8.1837 18.2907h.6744a0 0 0 0 1 0 0v12.2277a0 0 0 0 1 0 0h-.6744a3.6837 3.6837 0 0 1 -3.6837-3.6837v-4.86a3.6837 3.6837 0 0 1 3.6837-3.684z"/><path d="m24 5.4549h-12.3331a2.8087 2.8087 0 0 0 -2.8088 2.8088v10.027"/><path d="m42.8256 18.2907h.6744a0 0 0 0 1 0 0v12.2277a0 0 0 0 1 0 0h-.6744a3.6837 3.6837 0 0 1 -3.6837-3.6837v-4.86a3.6837 3.6837 0 0 1 3.6837-3.684z" transform="matrix(-1 0 0 -1 82.6419 48.8091)"/><path d="m24 5.4549h12.3331a2.8087 2.8087 0 0 1 2.8088 2.8088v10.027"/></g></svg>