<svg viewBox="0 0 48 48" xmlns="http://www.w3.org/2000/svg"><g fill="none" stroke="#000" stroke-linecap="round" stroke-linejoin="round"><circle cx="23.4712" cy="24" r="3.1622"/><path d="m23.4712 20.8378v-16.3378"/><path d="m23.4712 43.5v-10.5159"/><path d="m26.1987 25.5896 14.1325 8.2367"/><path d="m20.7406 25.5914-14.1293 8.2349"/><path d="m18.2133 38.242h10.5159"/><path d="m34.0912 30.1914a6.5315 6.5315 0 1 0 .7663-13.0179q-.2 0-.3965.0119v.0019a11.8425 11.8425 0 0 0 -10.99-6.9442 13.76 13.76 0 0 0 -11.8873 20.6852"/><path d="m23.4712 15.0405a8.9619 8.9619 0 0 0 -7.742 13.4717"/><path d="m34.4611 17.1873a4.5891 4.5891 0 0 0 -3.3592 1.1942"/></g></svg>