<svg viewBox="0 0 48 48" xmlns="http://www.w3.org/2000/svg"><g fill="none" stroke="#000" stroke-linecap="round" stroke-linejoin="round"><path d="m15.2578 25.7229a12.0887 12.0887 0 0 0 10.744 10.0261m4.1891-.3291a15.1721 15.1721 0 0 0 2.0675-.706l.2147-4.7238a8.7379 8.7379 0 0 1 -1.3841.714m-6.1163.1849a7.8243 7.8243 0 0 1 -4.4721-4.1008m.0369-6.2118a7.9173 7.9173 0 0 1 7.2025-4.5029 7.8228 7.8228 0 0 1 4.6667 1.5142l-.017-4.727a11.6205 11.6205 0 0 0 -5.2143-1.221 12.087 12.087 0 0 0 -11.8417 9.6703"/><circle cx="28.0958" cy="23.6609" r="1.879"/><path d="m28.0958 25.54v6.061"/><path d="m26.2168 23.6609h-6.3724"/><path d="m24.9338 38.9129a15.3618 15.3618 0 0 1 -12.9738-13.132m.0382-4.3833a15.3653 15.3653 0 0 1 12.8508-12.853l.106-.0157"/><circle cx="28.1998" cy="5.161" r="2.6609"/><circle cx="28.0788" cy="42.839" r="2.6609"/><circle cx="8.1878" cy="23.6609" r="2.6609"/><path d="m12.4468 23.661 7.5316 1.4911"/><path d="m12.4468 23.661 7.5316-1.491"/><path d="m28.0958 37.8659-1.5716-6.5843"/><path d="m28.0958 37.8659 1.5716-6.5844"/><path d="m25.5448 11.749-.308-1.7761"/><path d="m22.8548 12.436-.5676-1.766"/><path d="m20.6448 13.556-.971-1.5327"/><path d="m17.1318 17.003-1.4283-1.0611"/><path d="m16.0348 19.038-1.6768-.5994"/><path d="m15.3358 21.3009-1.5927-.1833"/><circle cx="14.563" cy="28.8768" r=".3701"/><circle cx="17.375" cy="33.2645" r=".3701"/><circle cx="21.6115" cy="36.2842" r=".3701"/><path d="m18.7428 15.0689-1.2585-1.2889"/><path d="m30.6708 35.2859.4832 1.8952"/><path d="m30.75 12.195.4593-2.355"/></g></svg>