<svg viewBox="0 0 48 48" xmlns="http://www.w3.org/2000/svg"><g fill="none" stroke="#000" stroke-linecap="round" stroke-linejoin="round"><path d="m19.4024 17.2869v15.8943a3.3842 3.3842 0 0 0 6.7684 0c0-5.9963-.1522-6.432 0-21.7616a6.9121 6.9121 0 0 0 -13.8239-.0741q0 .037 0 .0741v21.5627a10.563 10.563 0 0 0 21.1258 0v-13.3323"/><path d="m33.8082 10.72s1.8452.98 1.8452 3.9653a2.228 2.228 0 1 1 -4.4493 0 3.5591 3.5591 0 0 1 .8941-2.64 1.0283 1.0283 0 0 0 .9777 1.1223 1.0121 1.0121 0 0 0 .9842-1.038 2.5206 2.5206 0 0 0 -.2518-1.41"/></g></svg>