<svg viewBox="0 0 48 48" xmlns="http://www.w3.org/2000/svg"><g fill="none" stroke="#000" stroke-linecap="round" stroke-linejoin="round"><path d="m39.0966 8.4405a1.2148 1.2148 0 0 0 -1.2581-1.173h-11.3225c-1.3548-.0656-2.8723-2.7675-4.4032-2.7675h-7.9584a1.4586 1.4586 0 0 0 -1.4768 1.4746v17.2a1.459 1.459 0 0 0 1.47 1.4548h23.4724a1.469 1.469 0 0 0 1.4771-1.4548z"/><path d="m8.9031 35.3226h10.0645"/><path d="m13.9353 29.6613v5.6613"/><path d="m28.2614 34.9838 6.6619-3.79"/><path d="m28.2906 36.866 6.6177 3.8792"/><circle cx="26.6418" cy="35.9516" r="1.8871"/><circle cx="36.5805" cy="30.2903" r="1.8871"/><circle cx="36.5805" cy="41.6129" r="1.8871"/></g></svg>