<svg viewBox="0 0 48 48" xmlns="http://www.w3.org/2000/svg"><path d="m25.858 10.45c2.2006 0 4.5643 1.06 4.5643 3.4232s-1.1818 2.6082-1.1818 4.5236a3.1509 3.1509 0 0 0 3.4232 2.9749c1.7116 0 4.9717-1.9154 4.9717-6.8057s-3.2194-10.066-11.1661-10.066-19.6426 5.95-19.6426 20.6207 12.2664 18.3793 18.746 18.3793 12.3888-3.5047 14.9562-7.4169c1.0705-1.6314.6255-2.8852-.026-3.5366-1.2649-1.265-2.949-.559-4.09.6839-1.6621 1.81-4.5235 4.2383-10.7586 4.2383s-10.31-4.6866-10.31-12.1035 4.4824-14.9152 10.5137-14.9152z" fill="none" stroke="#000" stroke-miterlimit="10"/></svg>