<svg viewBox="0 0 48 48" xmlns="http://www.w3.org/2000/svg"><g fill="none" stroke="#000" stroke-linecap="round" stroke-linejoin="round"><path d="m40.9065 30.1494-33.8069-19.5185"/><path d="m7.0935 37.3287 33.813-19.5219"/><path d="m17.8706 4.5001v38.9967"/><path d="m41.3181 28.6131v-9.27a3.0726 3.0726 0 0 0 -1.5363-2.661l-20.387-11.77a3.0726 3.0726 0 0 0 -3.0543-.01l-8.1041 4.6043a3.0725 3.0725 0 0 0 -1.5545 2.6714v23.6146a3.0727 3.0727 0 0 0 1.5363 2.661l8.028 4.635a3.0729 3.0729 0 0 0 3.0726 0l20.463-11.8144a3.0725 3.0725 0 0 0 1.5363-2.6609z"/></g></svg>