<svg viewBox="0 0 48 48" xmlns="http://www.w3.org/2000/svg"><g fill="none" stroke="#000" stroke-linecap="round"><g stroke-linejoin="round"><path d="m10.0041 31.5689h-5.5041v-12.7411h21.2768v13.9941h-5.5135l-1.7553-3.04h-9.5359l1.032 1.7873"/><path d="m25.7768 20.224h3.2795l1.8492-3.2029m.6408-4.315-.6663-.6661h-4.9924m-4.5271 1.639v1.6817h-5.5364v3.4671"/><circle cx="32.2381" cy="15.0139" r="2.4093"/><path d="m10.0041 31.5689 1.4166 2.4538h6.0516l1.4683 2.5431h10.5184v-3.7439h-3.6822v-1.253"/><circle cx="34.9722" cy="30.758" r="4.3862"/><path d="m25.7768 22.4553h4.3568l.9971-.9971h3.6982v-.4882h8.63v10.77h-4.212m-8.6526-1.253h-4.8175"/><path d="m43.5 33.3214v-13.9239"/><path d="m25.8876 11.4342h-15.7843v3.0508h2.06l.4653-.806h13.259z"/><circle cx="34.9722" cy="30.758" r="2.3265"/><path d="m41.472 20.97v15.3578"/></g><path d="m29.459 34.6939 3.583.0028m3.8466.0067 5.6034-.01"/><path d="m14.1121 22.4958h7.3329v4.532h-7.3329z" stroke-linejoin="round"/></g></svg>