<svg viewBox="0 0 48 48" xmlns="http://www.w3.org/2000/svg"><g fill="none" stroke="#000" stroke-linecap="round" stroke-linejoin="round"><path d="m35.7977 41.0574a4.8516 4.8516 0 0 1 -3.4531 1.4426h-24.8393a2.005 2.005 0 0 1 -2.0053-2.0053v-32.9894a2.005 2.005 0 0 1 2.0053-2.0053h32.9894a2.005 2.005 0 0 1 2.0053 2.0053v25.42a3.6221 3.6221 0 0 1 -1.1056 2.6043z"/><circle cx="12.947" cy="10.5735" r="2.0864"/><path d="m20.703 8.519 2.054 2.055-2.054 2.054"/><path d="m27.887 8.519 2.054 2.055-2.054 2.054"/><path d="m35.07 8.519 2.055 2.055-2.055 2.054"/><path d="m28.81 31.2289a5.1468 5.1468 0 0 1 -4.4709 2.5934 5.1488 5.1488 0 0 1 -5.1491-5.1489v-3.3468a5.1488 5.1488 0 0 1 5.1489-5.1489 5.147 5.147 0 0 1 4.4658 2.5844"/></g></svg>