<svg viewBox="0 0 48 48" xmlns="http://www.w3.org/2000/svg"><path d="m17.49 6.89a7 7 0 1 1 -7.09 7.05 7.1 7.1 0 0 1 7.09-7.05zm14.18 0a7 7 0 1 1 -7.09 7.05 7.1 7.1 0 0 1 7.09-7.05zm-14.18 3.37a3.68 3.68 0 1 0 3.72 3.68 3.68 3.68 0 0 0 -3.72-3.68zm14.18 0a3.68 3.68 0 1 0 3.72 3.68 3.67 3.67 0 0 0 -3.72-3.68zm-16.67 17.54v-6.8h18.82v5.87l3.89-2.37 5.58-3.39.1 6.67.11 6.54-5.79-3.21-3.89-2.16v5.56h-16m-4.39-10.46 2.57 5.95 6.47.5-4.97 4.27 1.5 6.3-5.55-3.36-5.45 3.4 1.48-6.32-4.98-4.2 6.5-.54 2.47-6z" fill="none" stroke="#000" stroke-linecap="round" stroke-linejoin="round"/></svg>