<svg viewBox="0 0 48 48" xmlns="http://www.w3.org/2000/svg"><g fill="none" stroke="#000"><circle cx="24" cy="24" r="21.5" stroke-linecap="round" stroke-linejoin="round"/><path d="m14.731 36.275s.1778 3.7631 3.7631 3.7631h5.5059"/><path d="m33.26 43.41v-27.763a3.4641 3.4641 0 0 0 -1.7321-3l-5.7958-3.3462a3.4641 3.4641 0 0 0 -3.4641 0l-5.7958 3.3462a3.4641 3.4641 0 0 0 -1.7321 3v27.854"/><path d="m33.269 36.275s-.1778 3.7631-3.7631 3.7631h-5.5059"/><g stroke-linecap="round" stroke-linejoin="round"><rect height="3.0634" rx=".7379" width="13.227" x="17.386" y="29.142"/><rect height="2.56" rx=".7834" width="3.3813" x="17.2311" y="34.041"/><rect height="2.56" rx=".7834" width="3.3813" x="22.3091" y="34.041"/><rect height="2.56" rx=".7834" width="3.3813" x="27.3881" y="34.041"/></g></g></svg>