<svg viewBox="0 0 48 48" xmlns="http://www.w3.org/2000/svg"><g fill="none" stroke="#000" stroke-linecap="round" stroke-linejoin="round"><path d="m20.5689 21.281v15.0515"/><path d="m30.1372 16.7344v17.0394a2.6831 2.6831 0 0 0 2.84 2.84h.852"/><path d="m27.2973 21.5622h5.9638"/><path d="m15.0077 33.7825a5.4971 5.4971 0 0 1 -4.8279 2.84 5.6965 5.6965 0 0 1 -5.68-5.68v-3.6917a5.6965 5.6965 0 0 1 5.68-5.68 5.4971 5.4971 0 0 1 4.8279 2.84"/><path d="m40.7418 21.4582v15.0515"/><path d="m17.7581 17.4142c1.6321-1.6321 5.8377-6.0366 12.8672-6.0366s11.2517 4.4136 12.8747 6.0366"/></g></svg>