<svg viewBox="0 0 48 48" xmlns="http://www.w3.org/2000/svg"><g fill="none" stroke="#000" stroke-linecap="round" stroke-linejoin="round" stroke-width="1.05"><ellipse cx="23.41" cy="20.93" rx="19.97" ry="13.02" transform="matrix(.90571682 -.42388329 .42388329 .90571682 -6.67 11.9)"/><path d="m20.77 22.16-15.46 7.2"/><path d="m41.51 12.51-15.46 7.2"/><path d="m21.3 20.34-13.18-3.73"/><path d="m38.7 25.26-13.18-3.73"/><path d="m22.68 19.35-4.73-10.24"/><path d="m28.87 32.75-4.73-10.23"/><path d="m24.37 18.83 5.64-12.4"/><path d="m16.82 35.44 5.68-12.5"/><ellipse cx="23.41" cy="20.93" rx="2.91" ry="1.75" transform="matrix(.90593864 -.423409 .423409 .90593864 -6.66 11.88)"/><path d="m41.51 12.51c4.81 10.41.6 22.62-9.4 27.27s-22 0-26.8-10.42"/><path d="m16.82 38.63c-2 0 0-3.19 0-3.19s2.09 3.19 0 3.19z"/></g></svg>