<svg viewBox="0 0 48 48" xmlns="http://www.w3.org/2000/svg"><g fill="none" stroke="#000" stroke-linecap="round" stroke-linejoin="round"><path d="m38.0891 24.3858v15.1273h-27.9737v-25.9016a2.0721 2.0721 0 0 1 2.0721-2.0721h7.7679"/><path d="m13.623 39.5785h3.5512a0 0 0 0 1 0 0v2.8855a1.0361 1.0361 0 0 1 -1.0361 1.036h-1.479a1.0361 1.0361 0 0 1 -1.0361-1.0361v-2.8854a0 0 0 0 1 0 0z"/><path d="m31.0085 39.5785h3.5515a0 0 0 0 1 0 0v2.8855a1.0361 1.0361 0 0 1 -1.0364 1.036h-1.479a1.0361 1.0361 0 0 1 -1.0361-1.0361v-2.8854a0 0 0 0 1 0 0z"/><path d="m20.05 20.472h-6.405v10.109h20.915v-4.039"/><path d="m13.6448 35.1123h5.1851"/><path d="m29.3745 35.1123h5.1852"/><path d="m15.4639 15.8967h3.6273"/><circle cx="30.4879" cy="15.8967" r="11.3967"/><circle cx="34.6659" cy="13.3259" r="1.4505"/><path d="m34.9564 20.4718c-1.0167 1.4815-2.1977 2.8758-4.4685 2.8758s-3.4518-1.3943-4.4685-2.8758"/><path d="m34.6659 18.6s3.5152-2.7251 3.5152-5.3319a3.5152 3.5152 0 0 0 -7.03 0c0 2.6068 3.5152 5.3319 3.5152 5.3319"/><circle cx="26.3099" cy="13.3259" r="1.4505"/></g></svg>