<svg viewBox="0 0 48 48" xmlns="http://www.w3.org/2000/svg"><g fill="none" stroke="#000" stroke-linecap="round" stroke-linejoin="round"><path d="m21.4684 30.4064a18.52 18.52 0 0 0 -7.88 11.727"/><path d="m40.5 5.5h-33a2 2 0 0 0 -2 2v33a2 2 0 0 0 2 2h33a2 2 0 0 0 2-2v-33a2 2 0 0 0 -2-2z"/><path d="m24 42.5v-12.0936"/><path d="m11.7291 36h24.5418"/><path d="m26.5319 30.4064a18.5209 18.5209 0 0 1 7.88 11.727"/><path d="m5.59 39.9782a20 20 0 0 1 36.82 0"/><path d="m8.7969 13v5.3a2.6692 2.6692 0 0 0 2.6 2.7 2.6692 2.6692 0 0 0 2.6-2.7v-5.3"/><path d="m16.0527 13v7a.9448.9448 0 0 0 1 1h.3"/><path d="m19.4086 17.8a2 2 0 0 1 4 0v3.2"/><path d="m19.4086 15.8v5.2"/><path d="m23.4086 17.8a2 2 0 0 1 4 0v3.2"/><path d="m39.2031 21v-3.3a2 2 0 1 0 -4 0v3.3"/><path d="m35.2031 17.7v-2"/><path d="m31.3058 21a1.8468 1.8468 0 0 1 -1.8414-1.8414v-1.197a1.8469 1.8469 0 0 1 1.8414-1.8416 1.8469 1.8469 0 0 1 1.8415 1.8414v1.197a1.8469 1.8469 0 0 1 -1.8415 1.8416z"/></g></svg>