<svg viewBox="0 0 48 48" xmlns="http://www.w3.org/2000/svg"><g fill="none" stroke="#000" stroke-linecap="round" stroke-linejoin="round"><path d="m27.5944 5.5948a9.0331 9.0331 0 0 0 -9.0331 9.0331c0 7.0693 6.8966 15.5761 8.7032 17.6655a.5577.5577 0 0 0 .7855.055l.0549-.055c1.7831-2.0973 8.5226-10.5962 8.5226-17.6655a9.0331 9.0331 0 0 0 -9.0331-9.0331zm0 12.8548a4.4344 4.4344 0 1 1 4.4344-4.4344v.0113a4.4344 4.4344 0 0 1 -4.4344 4.4235z"/><path d="m36.454 16.678 1.175-.08 4.871 24.009-10.124 1.798-15.915-1.682-10.961 1.682 2.958-24.647 8.989-1.16 1.289.064"/><path d="m17.4467 16.598-.6418 24.1618"/><path d="m32.3758 42.4052-1.7103-13.4232"/></g></svg>