<svg viewBox="0 0 48 48" xmlns="http://www.w3.org/2000/svg"><g fill="none" stroke="#000" stroke-linecap="round" stroke-linejoin="round"><path d="m32.73 28.05a2.0059 2.0059 0 0 1 -2-2v-1.3a2 2 0 0 1 4 0v1.3a2.0059 2.0059 0 0 1 -2 2z"/><path d="m26.6949 24.75a2.0059 2.0059 0 0 1 2-2"/><path d="m26.6949 22.75v5.3"/><path d="m16.0942 20.05v7a.9448.9448 0 0 0 1 1h.3"/><path d="m23.8389 26.05a2.0059 2.0059 0 0 1 -2 2 2.0059 2.0059 0 0 1 -2-2v-1.3a2.0059 2.0059 0 0 1 2-2 2.0059 2.0059 0 0 1 2 2"/><path d="m23.8389 28.05v-5.3"/><path d="m13.6491 25.35a2.7 2.7 0 0 1 -5.4 0v-2.7a2.6888 2.6888 0 0 1 2.7-2.7 2.6057 2.6057 0 0 1 2.6 2.7"/><path d="m32.7289 20.682v-2.772"/><path d="m36.8089 25.179h2.9422"/><path d="m35.8439 22.058 2.5539-2.5539"/><circle cx="24" cy="24" r="21.5"/></g></svg>