<svg viewBox="0 0 48 48" xmlns="http://www.w3.org/2000/svg"><g fill="none" stroke="#000" stroke-linecap="round" stroke-linejoin="round"><path d="m27.0128 43.5s9.3177-3.6007 12.37-8.5314 2.8726-14.57 2.8726-14.57a3.0078 3.0078 0 0 0 -2.3454-2.3452c-1.8481-.32-4.6354-.7448-4.6354-.7448a2.2383 2.2383 0 0 0 -2.1207-1.74 43.7671 43.7671 0 0 0 -10.1446-.357 2.324 2.324 0 0 0 -1.7527 1.53l-1.9335.161a15.53 15.53 0 0 0 -4.3337.6147 2.3017 2.3017 0 0 0 -1.0124 1.8657c-.1684 2.0441-.3449 7.8679-.3449 7.8679a11.603 11.603 0 0 0 2.1059 6.6214c2.3046 3.3892 4.5069 6.16 11.2746 9.6279z"/><path d="m27.0128 43.5 1.2459-28.341"/><path d="m25.94 23.0212-15.5156-10.8686"/><path d="m15.1793 15.2625v-2.6394l-5.2676-4.5372.5114 4.0677"/><path d="m15.1793 15.2625-3.34.8947-6.0963-3.3161 4.68-.6875"/><path d="m30.9227 25.8381-8.488-17.5373"/><path d="m25.0729 13.3336 1.2863-2.3048-2.3886-6.5288-1.5358 3.8013"/><path d="m25.0729 13.3336-3.3523-.846-3.7075-5.8664 4.4219 1.68"/></g></svg>