<svg viewBox="0 0 48 48" xmlns="http://www.w3.org/2000/svg"><path d="m5.76 8.65h9.6v4.17h3.84v-4.17h9.6v4.17h3.84v-4.17h9.6v13.49h-36.48zm15.44 21.78a3.14 3.14 0 0 1 2.8 3.23 3.14 3.14 0 0 1 2.8-3.23 5.45 5.45 0 0 1 3.87 1.7c5.65 4.4 9.74 3.61 12.83 1.58a7.47 7.47 0 0 1 -6.17 5.49c-8.2.83-11.63-1.92-13-4.07a3.12 3.12 0 0 1 -.33-1.47 3.12 3.12 0 0 1 -.35 1.47c-1.35 2.15-4.78 4.9-13 4.07a7.47 7.47 0 0 1 -6.15-5.49c3.09 2 7.18 2.82 12.83-1.58a5.45 5.45 0 0 1 3.87-1.7z" fill="none" stroke="#000" stroke-linecap="round" stroke-linejoin="round"/></svg>