<svg viewBox="0 0 48 48" xmlns="http://www.w3.org/2000/svg"><g fill="none" stroke="#000" stroke-linecap="round"><g stroke-linejoin="round"><path d="m27.19 42.5a89.0444 89.0444 0 0 1 -14.6813-1.5725s1.4313-28.5554 5.4122-35.3918c-.13-.297 2.9919 1.2125 4.4218 6.2665a25.5569 25.5569 0 0 1 4.8471-.47"/><ellipse cx="21.2404" cy="20.3089" rx="1.6708" ry="2.1301"/><path d="m27.19 42.5a89.0444 89.0444 0 0 0 14.6813-1.5725s-1.4313-28.5554-5.413-35.3918c.03-.2006-3.59 1.7549-4.4218 6.2665a25.5582 25.5582 0 0 0 -4.8471-.47"/><ellipse cx="33.1398" cy="20.3089" rx="1.6708" ry="2.1301"/></g><path d="m12.5083 40.927c-1.9306-.327-4.9483-.3092-6.0398-3.487-1.0674-3.107.4377-6.6708 3.7411-7.0453" stroke-miterlimit="5.7143"/><path d="m25.4634 26.3872a1.4666 1.4666 0 0 0 1.4726-1.4725" stroke-miterlimit="5.7143"/><path d="m28.4091 26.3872a1.4666 1.4666 0 0 1 -1.4726-1.4725" stroke-miterlimit="5.7143"/></g></svg>