<svg viewBox="0 0 48 48" xmlns="http://www.w3.org/2000/svg"><g fill="none" stroke="#000" stroke-linecap="round" stroke-linejoin="round"><path d="m18.7868 27.9754v-4.43l14.4251-14.3847 4.35 4.4031-14.4478 14.4116z"/><path d="m37.5941 13.532 3.2146-3.2085a1.5429 1.5429 0 0 0 .0033-2.182l-.0033-.0032-2.1914-2.186a1.5524 1.5524 0 0 0 -2.1907 0l-3.2147 3.2084"/><path d="m23.345 34.463-8.037 8.037-8.57-8.57.111-7.926 7.926-.111z"/><path d="m11.2614 35.5008 2.1314-2.1314"/><path d="m15.1912 31.571 1.2322-1.2322"/><path d="m18.4716 32.3869-1.9982 1.9982"/><path d="m14.8415 36.017-1.5319 1.5319"/><path d="m15.3577 39.5971 5.162-5.162"/><circle cx="9.5963" cy="28.6736" r="1.0558"/></g></svg>