<svg viewBox="0 0 48 48" xmlns="http://www.w3.org/2000/svg"><g fill="none" stroke="#000" stroke-linecap="round" stroke-linejoin="round"><rect height="31.2" rx="2" width="39" x="4.5" y="8.4"/><rect height="23.2" rx="1" width="31" x="8.5" y="12.4"/><path d="m29.68 33.41h6.62v2.19h-6.62z"/><path d="m25.84 19a2.6 2.6 0 0 0 -3.68 0 2.61 2.61 0 1 0 4.46 1.86 2.54 2.54 0 0 0 -.8-1.86z"/><path d="m22 25.53h4a3 3 0 0 1 3 3v1.21a0 0 0 0 1 0 0h-10a0 0 0 0 1 0 0v-1.21a3 3 0 0 1 3-3z"/><path d="m17.42 21.47a2 2 0 0 0 -2.84 0 2 2 0 1 0 3.42 1.44 2 2 0 0 0 -.6-1.43z"/><path d="m19.34 27.14a2 2 0 0 0 -1.47-.65h-3.74a2 2 0 0 0 -2 2v1.25h6.87"/><path d="m33.42 21.47a2 2 0 0 0 -2.84 0 2 2 0 1 0 3.42 1.44 2 2 0 0 0 -.6-1.43z"/><path d="m29 29.74h6.86v-1.25a2 2 0 0 0 -2-2h-3.73a2 2 0 0 0 -1.47.65"/></g></svg>