<svg viewBox="0 0 48 48" xmlns="http://www.w3.org/2000/svg"><g fill="none" stroke="#000" stroke-linecap="round" stroke-linejoin="round"><path d="m40.5 5.5h-33a2 2 0 0 0 -2 2v33a2 2 0 0 0 2 2h33a2 2 0 0 0 2-2v-33a2 2 0 0 0 -2-2z"/><path d="m30.3719 18.0419c.2936.6936.2531 1.3591-.3264 1.6043a1.2667 1.2667 0 0 1 -1.5808-.8116c-.2936-.6936-.253-1.3591.3264-1.6044a1.2668 1.2668 0 0 1 1.5808.8117z"/><path d="m19.1554 5.5.4781 3.0737a18.1432 18.1432 0 0 0 -7.7769 2.4863l-.8925-3.8566a14.3962 14.3962 0 0 0 -3.41 3.7609l.6374 2.008-.7012.9562 2.008 6.757c-1.3274-7.3815 24.044-10.5785 21.96-3.6016"/><path d="m28.3347 5.5.1275 2.9781c1.3632-.0446 2.91.2179 3.4068.8976m-.199-1.7122c.236 3.2462 1.56 6.8691-.2121 9.42"/><ellipse cx="20.4303" cy="18.4382" rx="1.3625" ry="1.2043"/><ellipse cx="25.2799" cy="20.0797" rx="2.2629" ry="1.498"/><path d="m31.4582 17.0837 2.3585 11.984c.4463 1.6787.0231 6.3612-1.3067 1.8805l-1.9761-7.2669-8.5739-.0638.2231 5.1315c.3124 6.6182-7.4866 3.2613-8.0319-.7331l-1.508-11.9778"/><path d="m38.5339 11.9841 1.8486 1.5936-3.2825 3.3785-1.37-1.0518z"/><path d="m40.7331 17.3705.7968 1.753-2.4861.4143-.4781-.988z"/><path d="m33.5618 34.8367a14.2411 14.2411 0 0 1 1.53 7.6633"/><path d="m18.2311 36.9084c5.0824.86 8.7266 3.35 12.59 5.5916"/><path d="m5.5 31.6494c1.9371-1.1073 5.8356-3.1135 7.6952-1.498 1.1788 1.0241 3.244 3.6339 3.3466 3.57 4.19 5.1294-2.1882 9.731-7.8087 4.1753l-3.2331-3.3467"/><path d="m13.4674 22.5832c-5.824-.2149-5.5111 6.6742.7171 5.6314"/><path d="m9.498 20.6853.8924-.1594.6936 2.5011"/><path d="m32.6 22.8851c.34-2.927 5.9887-.1908 5.4878 2.4217l-.3506 2.996c-1.7875.5473-2.3158 3.986.4143 7.3944l.0319 1.6255c-1.4408-.7261-2.8708-1.415-3.9787-.9762"/><path d="m38.5976 31.8406 1.2112-.5418c.07-1.581.0829-3.4361-2.0717-2.996"/><path d="m39.8088 31.2988a2.7862 2.7862 0 0 1 2.6912-.1275"/><path d="m37.958 26.4146c.7877-2.06 3.3833-.7455 4.542-1.6815"/><path d="m5.5 37.96a4.5647 4.5647 0 0 1 3.11-.1912"/><path d="m13.1075 40.3454a7.8557 7.8557 0 0 1 1.9682 2.1546"/><path d="m17.4573 35.1556c6.6641 1.5328 12.3238 1.7951 16.1045-.3189"/><path d="m23.8088 25.2112h5.6095"/><path d="m10.9641 7.2032 2.6455.0637.5759 2.6155"/></g></svg>