<svg viewBox="0 0 48 48" xmlns="http://www.w3.org/2000/svg"><g fill="none" stroke="#000" stroke-linecap="round" stroke-linejoin="round"><path d="m9.38 27.25v-6.5"/><path d="m20.75 4.5h6.5"/><path d="m13.64 8.82h20.72v30.36h-20.72z"/><path d="m38.62 20.75v6.5"/><path d="m15.68 43.5h-2.3a4 4 0 0 1 -4-4v-2.31"/><path d="m38.62 37.19v2.31a4 4 0 0 1 -4 4h-2.3"/><path d="m9.38 10.81v-2.31a4 4 0 0 1 4-4h2.3"/><path d="m32.32 4.5h2.3a4 4 0 0 1 4 4v2.31"/><path d="m27.25 43.5h-6.5"/><path d="m17 14.79h14"/><path d="m17 21.08h10.5"/><path d="m17 27.37h14"/><path d="m17 33.65h10.5"/></g></svg>