<svg viewBox="0 0 48 48" xmlns="http://www.w3.org/2000/svg"><g fill="none" stroke="#000" stroke-linecap="round" stroke-linejoin="round"><path d="m36 22.7664a7.4558 7.4558 0 0 0 -3.7536 1.0136 10.4784 10.4784 0 0 0 -16.4928 0 7.5 7.5 0 1 0 0 12.9727 10.4782 10.4782 0 0 0 16.4928 0 7.4975 7.4975 0 1 0 3.7536-13.9863z"/><path d="m28.8513 20.96q.0048-.1306.0048-.2624a7 7 0 1 0 -13.3525 2.9443"/><path d="m21.8561 10.2336v-3"/><path d="m14.4573 13.2983-2.1213-2.1213"/><path d="m11.3927 20.6971h-3"/><path d="m29.2548 13.2983 2.1214-2.1213"/><path d="m32.3195 20.6971h3"/></g></svg>