<svg viewBox="0 0 48 48" xmlns="http://www.w3.org/2000/svg"><g fill="none" stroke="#000" stroke-linecap="round" stroke-linejoin="round"><path d="m18.0084 28.1056c-2.8324 2.8324-7.4078-7.6256-2.1784-5.0112"/><path d="m21.0587 17.97c2.8585-3.0589 5.7171-6.1179 8.2793-5.7693s4.8456 4.0961 5.4469 6.3184-.4706 2.9108-.4357 3.9218 1.1765 2.3356 1.1852 4.436-1.1242 4.985-2.0567 7.3293-1.6646 4.14-3.05 4.5755-3.4251-.4968-5.2291-1.743a36.08 36.08 0 0 1 -4.924-4.3925"/><path d="m12.1257 17.6475c1.1765-3.486 2.3531-6.9634 6.1006-8.7151s10.0572-1.7692 13.9437.8715 5.36 7.94 5.5254 11.5475c.1655 3.6168-.9761 5.5428-.7321 7.19s1.865 2.998 3.486 4.3576"/><path d="m33.1639 30.79c.2092-.3311.41-.6536 0-.8715a4.6065 4.6065 0 0 0 -2.1788-.2185 4.138 4.138 0 0 0 -1.8737.8106c-.6362.41-1.4293.9412-1.1765 1.804a5.1538 5.1538 0 0 0 2.3966 2.3966c.8279.3486 1.1765-.1568 1.5251-.6536"/><path d="m35.6564 34.424q6.1007-.8715 7.8436 5.447"/><path d="m16.919 37.6922q3.9217 4.5755 8.6541 1.1068"/><path d="m22.5315 20.4886q4.8456-2.6232 7.46-.6623"/><path d="m34.7849 19.7827a.7478.7478 0 0 0 -.8715-.3922 1.43 1.43 0 0 0 -1.3073 1.743c.1831 1.2811 1.4729 3.4425 1.7343 4.7236.2528 1.2724-.5316 1.6646-1.3072 2.048"/><path d="m5.5894 33.1168c1.0371-2.8412 2.0742-5.6823 2.8324-8.0615s1.2288-4.3052 2.1788-5.229 2.3617-.8628 3.9217-.6537a9.7812 9.7812 0 0 1 3.9218 1.0894.8876.8876 0 0 1 -.2178 1.5252 2.2686 2.2686 0 0 1 -1.7431-.2179"/><path d="m19.0978 28.9771a2.0728 2.0728 0 0 1 1.3072-.6536c.5665-.0175 1.3422.2614 1.0894.8715s-1.5251 1.5425-2.3966 2.3966a10.09 10.09 0 0 1 -2.3967 2.1784 35.67 35.67 0 0 1 -3.9218 1.3073 11.5636 11.5636 0 0 0 -2.8324 1.5251"/><path d="m4.5 32.2453q1.0895 5.229 7.19 5.4469"/></g></svg>