<svg viewBox="0 0 48 48" xmlns="http://www.w3.org/2000/svg"><g fill="none" stroke="#000" stroke-linecap="round" stroke-linejoin="round"><circle cx="10.77" cy="11.41" r="1.21"/><circle cx="22.09" cy="6.92" r="1.21"/><circle cx="39.25" cy="14.7" r="2.08"/><circle cx="37.76" cy="25.52" r="2.13"/><circle cx="39.34" cy="34.82" r="1.21"/><circle cx="29.19" cy="36.8" r="1.11"/><circle cx="19.09" cy="40.62" r="2.09"/><circle cx="28.08" cy="26.11" r="1.1"/><circle cx="21.64" cy="15.44" r="1.95"/><circle cx="10.7" cy="26.08" r="3.67"/><path d="m23.47 7.55 13.53 6.15"/><path d="m38.92 17.05-.84 6.1"/><path d="m38.18 28 .94 5.51"/><path d="m37.91 35.1-7.28 1.42"/><path d="m27.91 37.29-6.54 2.47"/><path d="m29 35.32-.8-7.72"/><path d="m17.85 38.48-5.16-8.95"/><path d="m14.11 28.06 13.85 8"/><path d="m14.67 26.09h12"/><path d="m22.79 17.34 4.55 7.55"/><path d="m13.52 23.34 6.42-6.24"/><path d="m10.76 12.87v9.31"/><path d="m12.11 10.88 8.62-3.42"/><path d="m22 8.3-.26 4.82"/><path d="m23.88 15.35 13.18-.56"/><path d="m35.32 25.67-5.86.33"/></g></svg>