<svg viewBox="0 0 48 48" xmlns="http://www.w3.org/2000/svg"><g fill="none" stroke="#000" stroke-linecap="round" stroke-linejoin="round"><path d="m5.5 19.6v20.9a2 2 0 0 0 2 2h33a2 2 0 0 0 2-2v-33a2 2 0 0 0 -2-2h-33a2 2 0 0 0 -2 2z"/><path d="m29.8044 24.2003 6.9955 10.5593"/><path d="m36.7999 24.2003-6.9955 10.5593"/><path d="m11.2 34.76v-10.56h2.3758a4.62 4.62 0 0 1 4.62 4.62v1.32a4.62 4.62 0 0 1 -4.62 4.62z"/><rect height="7.5391" rx="2.845" width="5.6899" x="19.3096" y="13.3471"/><path d="m28.0547 13.2404v7.5392"/><path d="m16.5154 19.4533a2.8439 2.8439 0 0 1 -2.47 1.4329 2.8449 2.8449 0 0 1 -2.8454-2.8449v-1.8492a2.8449 2.8449 0 0 1 2.845-2.845 2.8438 2.8438 0 0 1 2.4675 1.428"/><path d="m36.8 20.8862v-4.6941a2.8449 2.8449 0 0 0 -2.845-2.845 2.8449 2.8449 0 0 0 -2.8449 2.845v4.6941"/><path d="m31.11 16.1921v-2.845"/><path d="m27.9425 31.2186v.0432a3.4978 3.4978 0 0 1 -3.4977 3.4982 3.4978 3.4978 0 0 1 -3.4978-3.4978v-3.5641a3.4978 3.4978 0 0 1 3.4978-3.4981 3.4978 3.4978 0 0 1 3.4977 3.4978v.0432"/></g><circle cx="28.0547" cy="10.8729" r=".75"/></svg>