<svg viewBox="0 0 48 48" xmlns="http://www.w3.org/2000/svg"><g fill="none" stroke="#000" stroke-linecap="round" stroke-linejoin="round"><path d="m39 5.5h-31.5a2 2 0 0 0 -2 2v33a2 2 0 0 0 2 2h33a2 2 0 0 0 2-2v-32.3"/><path d="m36 8c2.5-.66 3-2.87 5-5s5.46 1.51 3.5 3.5-4.35 2.55-4.9 4.9m-2 2-12.6 12.7a2.7 2.7 0 0 1 -2.6.4s-1.25 1.38-2 .5.5-1.8.5-1.8a2.78 2.78 0 0 1 .5-2.6l12.6-12.6m-1 8h-7m12.8-3.6 1.9-1.9-5.9-5.5-1.9 1.9z"/><path d="m25.1 26 2.14 2.22a.7.7 0 0 0 1 0l1.38-1.38a.72.72 0 0 1 1 0l7.81 7.81a.7.7 0 0 1 -.5 1.2h-27.83a.7.7 0 0 1 -.58-1.1l9.48-13.62a.7.7 0 0 1 1-.13l1.48 1.5"/></g></svg>