<svg viewBox="0 0 48 48" xmlns="http://www.w3.org/2000/svg"><path d="m4.6607 12.5448h38.9178m-38.9178 0h38.9178m-39 27.3155h38.9324l-.9209 1.8429h-37.0895zm14.4577-14.0055a2.4424 2.4424 0 1 0 4.7791-1.0061l-.5125-2.4346a2.4776 2.4776 0 0 0 -2.9472-1.9221 2.401 2.401 0 0 0 -1.8319 2.928zm-7.364 3.9961-1.5186-7.2137 6.2977 6.2076-1.5186-7.2137m14.03 4.67-1.5186-7.2137m-2.435.5126 4.7791-1.0061m1.8049-.38 1.5187 7.2137m-.7594-3.6068 2.3445-.4936m-3.1038-3.1133 3.6069-.7595m-2.0882 7.973 3.6068-.7593m-26.5638 9.2541 29.3212-5.7013m-8.552 11.6391s2.957-.97 4.276-1.588 3.6245-2.0769 3.6245-2.0769 1.8646-2.9289 2.647-4.6018 1.9955-5.4163 1.9955-5.4163m-38.8507-19.4661h38.9321v33.1491h-38.9321z" fill="none" stroke="#000" stroke-linecap="round" stroke-linejoin="round"/></svg>