<svg viewBox="0 0 48 48" xmlns="http://www.w3.org/2000/svg"><g fill="none" stroke="#000" stroke-linecap="round" stroke-linejoin="round"><path d="m43.5 37.5v-27a2 2 0 0 0 -2-2h-35a2 2 0 0 0 -2 2v27a2 2 0 0 0 2 2h35a2 2 0 0 0 2-2z"/><rect height="7.2875" rx="2.75" width="5.5" x="16.3053" y="20.7281"/><rect height="7.2875" rx="2.75" width="5.5" x="28.4534" y="20.7281"/><path d="m36.7291 23.4781a2.75 2.75 0 0 1 2.75-2.75"/><path d="m36.7291 20.7281v7.2875"/><path d="m24.5854 17.0156v9.625a1.375 1.375 0 0 0 1.375 1.375h.4125"/><path d="m13.6588 26.6305a2.749 2.749 0 0 1 -2.3879 1.3851 2.75 2.75 0 0 1 -2.75-2.75v-1.7875a2.75 2.75 0 0 1 2.75-2.75 2.749 2.749 0 0 1 2.3852 1.38"/></g></svg>