<svg viewBox="0 0 48 48" xmlns="http://www.w3.org/2000/svg"><path d="m18.41 4.5h6.27a1.49 1.49 0 0 1 1.49 1.5v5.34h-9.25v-5.34a1.49 1.49 0 0 1 1.49-1.5zm-1.49 6.83h9.25v25.34h-9.25zm17.93-.92a1.75 1.75 0 0 1 2 1.45l.79 5-10.64 1.71-.79-5a1.73 1.73 0 0 1 1.44-2l7.21-1.15zm2.78 6.47 2.94 18.44-10.64 1.68-2.93-18.43 10.64-1.69zm2.94 18.44.8 5a1.74 1.74 0 0 1 -1.45 2l-7.21 1.15a1.75 1.75 0 0 1 -2-1.45l-.79-5 10.64-1.69zm-32.28-27.48h7a1.68 1.68 0 0 1 1.68 1.68v5.15h-10.36v-5.15a1.68 1.68 0 0 1 1.68-1.68zm-1.68 6.83h10.31v22h-10.31zm0 22h10.31v5.15a1.68 1.68 0 0 1 -1.68 1.68h-7a1.68 1.68 0 0 1 -1.68-1.68zm10.31 0h9.25v5.33a1.49 1.49 0 0 1 -1.49 1.49h-6.27a1.49 1.49 0 0 1 -1.49-1.49z" fill="none" stroke="#000" stroke-linecap="round" stroke-linejoin="round"/></svg>