<svg viewBox="0 0 48 48" xmlns="http://www.w3.org/2000/svg"><g fill="none" stroke="#000" stroke-linecap="round" stroke-linejoin="round"><path d="m28.77 26.07h-9.57a.12.12 0 0 0 -.08.14 5.41 5.41 0 0 0 4.88 3.39 5.41 5.41 0 0 0 4.88-3.38.13.13 0 0 0 -.11-.15z"/><path d="m31.82 19.2a.07.07 0 0 0 -.1.05 1.2 1.2 0 0 1 -1.11.74 1.23 1.23 0 0 1 -1.1-.74 1.21 1.21 0 0 1 .65-1.57.07.07 0 0 0 .07-.07.08.08 0 0 0 -.07-.08 2.86 2.86 0 0 0 -1.2-.08 2.79 2.79 0 1 0 3 3.47 2.73 2.73 0 0 0 -.11-1.67.08.08 0 0 0 -.03-.05z"/><path d="m41 17.32a8.08 8.08 0 0 0 -7.87-6.41h-18.21a8.08 8.08 0 0 0 -7.87 6.41 3.65 3.65 0 0 0 -2.55 3.46v5.84a4.24 4.24 0 0 0 3.55 4.18 11.52 11.52 0 0 0 10.26 6.29h11.29a11.53 11.53 0 0 0 10.27-6.29 4.24 4.24 0 0 0 3.63-4.18v-5.84a3.65 3.65 0 0 0 -2.5-3.46zm-4.23 9.5a6.58 6.58 0 0 1 -6.56 6.56h-12.37a6.59 6.59 0 0 1 -6.57-6.56v-7.08a5.74 5.74 0 0 1 5.73-5.74h14a5.75 5.75 0 0 1 5.73 5.73z"/><path d="m21.4 20.89a2.7 2.7 0 0 0 -.06-1.64.08.08 0 0 0 -.05-.05.07.07 0 0 0 -.1.05 1.2 1.2 0 1 1 -1.56-1.57.07.07 0 0 0 .07-.07.08.08 0 0 0 -.07-.08 2.46 2.46 0 0 0 -.45-.11 2.78 2.78 0 0 0 -3.18 2.26 2.79 2.79 0 0 0 5.45 1.22z"/></g></svg>