<svg viewBox="0 0 48 48" xmlns="http://www.w3.org/2000/svg"><g fill="none" stroke="#000" stroke-linecap="round" stroke-linejoin="round"><ellipse cx="24" cy="28.2" rx="3.2" ry="3.25"/><path d="m27 10.64c-1.44-2.74-3.66-6.14-3.66-6.14s-1.63 3.3-3.21 6.27"/><path d="m21.68 37.69 2.18-3.84 2.14 3.84z"/><path d="m15.86 33.15 4.21-1.15-1.14 4.28z"/><path d="m14.65 25.85 3.79 2.21-3.79 2.2z"/><path d="m19.13 19.94 1.15 4.28-4.22-1.16z"/><path d="m32.14 33.5-4.21-1.16 1.14 4.28z"/><path d="m33.35 26.14-3.79 2.21 3.79 2.21z"/><path d="m29.07 20.08-1.14 4.28 4.21-1.16z"/><path d="m33.35 28.35h5.31"/><path d="m30.58 35.09 3.9 4"/><path d="m23.86 37.69v5.81"/><path d="m17.39 34.71-4.07 4.18"/><path d="m14.65 28.06h-5.3"/><path d="m17.53 21.56-3.53-3.56a14.85 14.85 0 0 0 -4.67 10.83 14.67 14.67 0 0 0 25 10.37 14.53 14.53 0 0 0 4.3-10.37 14.35 14.35 0 0 0 -4.52-10.18 13.11 13.11 0 0 0 -4.75-2.8c-2.16-.87-5.61-1.92-5.78-4.16-.24-3.08-.28-7.19-.28-7.19"/><path d="m30.58 21.61 3.26-3.24"/></g></svg>