<svg viewBox="0 0 48 48" xmlns="http://www.w3.org/2000/svg"><circle cx="26.1" cy="24" r=".5"/><g fill="none" stroke="#000" stroke-linecap="round" stroke-linejoin="round" stroke-opacity=".9477"><path d="m22.8 22.2a3.7144 3.7144 0 0 1 3.3-2 4.1724 4.1724 0 0 1 3.4 1.8"/><path d="m25.9 16.4a7.6023 7.6023 0 0 1 6.7 3.5"/><path d="m33.8 32.4a11.4072 11.4072 0 0 1 -19-9.8 11.5254 11.5254 0 0 1 8.7-9.7 11.3973 11.3973 0 0 1 12.1 4.9"/><path d="m32.9 10.5a15.5773 15.5773 0 0 1 5.9 5.2"/><path d="m44.5 28.8a18.912 18.912 0 1 1 -2.4-15.2"/><path d="m3.5 21.6a22.8444 22.8444 0 0 1 6.2-13.4"/></g></svg>