<svg viewBox="0 0 48 48" xmlns="http://www.w3.org/2000/svg"><path d="m33.0565 14.4 9.7042-3.6685c-4.5661-5.165-12.3031-8.7462-19.2424-8.17a24.0068 24.0068 0 0 0 -18.0812 11.5047 21.5724 21.5724 0 0 0 -.2488 19.4259 23.6313 23.6313 0 0 0 17.9982 11.9225c7.06.5416 11.4092-1.5552 16.1735-4.5022a16.1936 16.1936 0 0 0 5.64-6.5865l-8.543-2.6679c-.8117-.2536-1.7864-.503-2.4052.75l-4.9039 9.932a1.2624 1.2624 0 0 1 -2.3846-.25c-.7568-4.0019-2.2705-12.0058-2.2705-12.0058a2.2648 2.2648 0 0 0 -1.8869-2.1781l-12.773-3.2515c-.9212-.2345-.6392-1.5351 0-1.7509l11.0208-3.7205c1.0079-.34 1.1432-1.2117.9954-2.1156l-1.8144-11.0887c-.1313-.8027 1.1537-1.5418 1.7314-.9379l8.5533 8.9418a2.616 2.616 0 0 0 2.737.4168z" fill="none" stroke="#000" stroke-linecap="round" stroke-linejoin="round"/></svg>