<svg viewBox="0 0 48 48" xmlns="http://www.w3.org/2000/svg"><g fill="none" stroke="#000" stroke-linecap="round" stroke-linejoin="round"><path d="m32.925 15.998 2.085 3.288 3.288-2.084"/><path d="m35.6816 14.75a9.24 9.24 0 0 0 -9.23-9.25h-5.4778a9.24 9.24 0 0 0 -9.23 9.25 9.24 9.24 0 0 0 9.23 9.25h6.0524a9.24 9.24 0 0 1 9.23 9.25 9.24 9.24 0 0 1 -9.23 9.25h-5.4778"/><path d="m35.6816 14.75a9.24 9.24 0 0 0 -9.23-9.25h-5.4778a9.24 9.24 0 0 0 -9.23 9.25 9.24 9.24 0 0 0 9.23 9.25h6.0524a9.24 9.24 0 0 1 9.23 9.25 9.24 9.24 0 0 1 -9.23 9.25h-5.4778"/><path d="m35.6816 14.75a13.6206 13.6206 0 0 1 -.6719 4.5363"/><path d="m15.075 32.002-2.085-3.288-3.288 2.084"/><path d="m12.3184 33.25a9.24 9.24 0 0 0 9.23 9.25"/><path d="m12.3184 33.25a9.24 9.24 0 0 0 9.23 9.25"/><path d="m12.3184 33.25a13.6206 13.6206 0 0 1 .6719-4.5363"/><path d="m32.002 32.925-3.288 2.085 2.084 3.288"/><path d="m33.25 35.6816a9.24 9.24 0 0 0 9.25-9.23v-5.4778a9.24 9.24 0 0 0 -9.25-9.23 9.24 9.24 0 0 0 -9.25 9.23v6.0524a9.24 9.24 0 0 1 -9.25 9.23 9.24 9.24 0 0 1 -9.25-9.23v-5.4778"/><path d="m33.25 35.6816a9.24 9.24 0 0 0 9.25-9.23v-5.4778a9.24 9.24 0 0 0 -9.25-9.23 9.24 9.24 0 0 0 -9.25 9.23v6.0524a9.24 9.24 0 0 1 -9.25 9.23 9.24 9.24 0 0 1 -9.25-9.23v-5.4778"/><path d="m33.25 35.6816a13.6206 13.6206 0 0 1 -4.5363-.6719"/><path d="m15.998 15.075 3.288-2.085-2.084-3.288"/><path d="m14.75 12.3184a9.24 9.24 0 0 0 -9.25 9.23"/><path d="m14.75 12.3184a9.24 9.24 0 0 0 -9.25 9.23"/><path d="m14.75 12.3184a13.6206 13.6206 0 0 1 4.5363.6719"/></g></svg>