<svg viewBox="0 0 48 48" xmlns="http://www.w3.org/2000/svg"><g fill="none" stroke="#000" stroke-linecap="round" stroke-linejoin="round"><path d="m20.0735 29.8111v-11.6219h3.78a3.9223 3.9223 0 1 1 0 7.8446h-3.78"/><path d="m9.6454 28.5029a3.4674 3.4674 0 0 0 2.9078 1.3071h1.7448a2.9054 2.9054 0 1 0 0-5.8108h-1.89a2.9055 2.9055 0 1 1 0-5.8109h1.7448a3.123 3.123 0 0 1 2.9079 1.3075"/><path d="m38.5 25.9611a3.9257 3.9257 0 0 1 -7.8514 0v-3.9222a3.9076 3.9076 0 0 1 3.9257-3.9223 3.7869 3.7869 0 0 1 3.78 3.9223"/><path d="m40.5 5.5h-33a2 2 0 0 0 -2 2v33a2 2 0 0 0 2 2h33a2 2 0 0 0 2-2v-33a2 2 0 0 0 -2-2z"/></g></svg>