<svg viewBox="0 0 48 48" xmlns="http://www.w3.org/2000/svg"><path d="m25.91 39a2.24 2.24 0 0 0 2.24 2.24h13.11a2.24 2.24 0 0 0 2.24-2.24v-30a2.24 2.24 0 0 0 -2.24-2.24h-13.11a2.24 2.24 0 0 0 -2.24 2.24zm-3.29-22.3a1.81 1.81 0 0 0 -1.8-1.81h-12.52a1.8 1.8 0 0 0 -1.8 1.81v19.3a1.8 1.8 0 0 0 1.8 1.81h12.52a1.81 1.81 0 0 0 1.8-1.81zm-8.06 6.56a3.1 3.1 0 0 0 -3.1 3.11 3.1 3.1 0 0 0 3.1 3.1 3.1 3.1 0 0 0 3.1-3.1 3.1 3.1 0 0 0 -3.1-3.11zm20.15 0a3.1 3.1 0 0 0 -3.11 3.1 3.11 3.11 0 1 0 3.11-3.11z" fill="none" stroke="#000" stroke-linecap="round" stroke-linejoin="round"/><path d="m10.62 17.14h6.88" fill="none" stroke="#000" stroke-linecap="round" stroke-linejoin="round"/><path d="m31.26 9.53h6.89" fill="none" stroke="#000" stroke-linecap="round" stroke-linejoin="round"/><path d="m31.28 38.85h6.88" fill="none" stroke="#000" stroke-linecap="round" stroke-linejoin="round"/><path d="m40.2 8.78a.72.72 0 1 1 -.06 0z"/><path d="m19.55 16.39h.05a.75.75 0 1 1 -.75.75.76.76 0 0 1 .7-.75z"/><g fill="none" stroke="#000" stroke-linecap="round" stroke-linejoin="round"><path d="m6.5 19.18h16.12"/><path d="m6.5 34.55h16.12"/><path d="m17.66 26.34h13.94"/><path d="m25.91 36.45h17.59"/><path d="m25.91 12.04h17.59"/></g></svg>