<svg viewBox="0 0 48 48" xmlns="http://www.w3.org/2000/svg"><g fill="none" stroke="#000" stroke-linecap="round" stroke-linejoin="round"><circle cx="30.67" cy="30.8" r="1.96"/><path d="m17.1 28.94h-2.39v-2.37a.5.5 0 0 0 -.5-.5h-2.27a.49.49 0 0 0 -.49.5v2.37h-2.4a.51.51 0 0 0 -.49.5v2.28a.49.49 0 0 0 .49.49h2.4v2.4a.49.49 0 0 0 .49.49h2.23a.49.49 0 0 0 .49-.49v-2.39h2.4a.49.49 0 0 0 .49-.49v-2.28a.5.5 0 0 0 -.45-.51z"/><circle cx="38.16" cy="30.8" r="1.96"/><path d="m14.06 12 .11-.11a15.38 15.38 0 0 1 19.35 0m-15.47 4.11a1.06 1.06 0 0 1 .2-.17 9.66 9.66 0 0 1 11.17 0m5 23.64a8.7 8.7 0 0 1 -5.78-2.15h-9.59a8.77 8.77 0 1 1 -5.78-15.37h21.14a8.79 8.79 0 0 1 .59 17.53h-.61z"/><circle cx="34.42" cy="27.06" r="1.96"/><circle cx="34.42" cy="34.55" r="1.96"/></g></svg>