<svg viewBox="0 0 48 48" xmlns="http://www.w3.org/2000/svg"><g fill="none" stroke="#000" stroke-linecap="round" stroke-linejoin="round"><path d="m22.9255 4.5a40.3853 40.3853 0 0 0 -12.5071 2.2247c-7.01 2.3234-1.032 2.6849.5037 2.686 5.4091.004 14.7912-.0053 22.8317.1679 1.9016.0411 11.4311.97 4.91-2.35-4.7815-2.435-10.4138-2.74-15.7383-2.7286z"/><path d="m36.8241 9.7149c-.6471 2.6384-2.4947 5.1844-4.5813 7.7121l-16.2843-.1259c-2.3444-2.3488-4.5465-4.7806-5.5676-7.9011"/><path d="m32.2428 17.427c3.13.0487 5.4585 3.5507 4.411 9.0064-1.029 5.3586-5.772 15.1184-12.5532 16.6793-3.1956.7355-6.6331-.0427-9.9468-.1679-5.8438-.2208-5.9884-5.4341-4.8266-9.6948 1.1371-4.17 6.6405-11.92 6.6405-11.92"/><path d="m15.9585 17.3011s.265 6.3.42 9.9889c.3789 9.0372 10.6683 7.26 13.7242-.6715 1.2645-3.2819 1.0076-9.2 1.0076-9.2"/><path d="m15.1191 35.39 8.9816.3777-1.511 5.54-9.3597-.5454z"/><path d="m35.8109 29.4985c.1753 3.7447.3621 7.2607.2092 11.8514a30.7407 30.7407 0 0 1 -13.5777 2.0181"/><circle cx="26.409" cy="38.7268" r="1.3168"/></g></svg>