<svg viewBox="0 0 48 48" xmlns="http://www.w3.org/2000/svg"><g fill="none" stroke="#000" stroke-linecap="round" stroke-linejoin="round"><path d="m42.1168 21.559c-3.2135 4.2334 1.3832 6.3781 1.3832 6.3781s-4.4469 1.6012-8.6231 3.0823m-2.92 1.0307c-1.84.6455-3.343 1.163-3.96 1.352-2.1857.67-.7284-7.6517-.7284-7.6517l-12.8825 13.1766-9.886-14.577s1.2008-1.6853 2.9454-3.6921m12.0709-4.9264s3.5851 6.5882 7.5119 10.41"/><path d="m27.3259 33.2536-3.68-3.7975"/><path d="m42.1168 21.559-15.0884 4.5839s2.0351-5.8371 7.7454-5.6031c5.08.2083 7.259-2.1536 7.259-2.1536a18.77 18.77 0 0 1 -4.9064-2.9955 21.0211 21.0211 0 0 1 -4.84-6.3177s-2.7989 2.8313-5.5575 2.8809-4.2562.1584-7.2121 3.7783c0 0-1.2943-4.4853-4.793-4.356s-6.0225 6.4659-9.1106 6.9006a56.4377 56.4377 0 0 1 8.6568 13.747s.938.4035 2.1883-1.7114 3.1467-5.5236 5.0611-5.5545c2.2289-.0358 4.1036 1.5828 5.51 1.3846"/><path d="m26.8533 29.1567 14.128-4.5512"/><path d="m32.6915 27.2757s2.7406 3.06 2.32 5.5672 2.4263 3.9371 2.4263 3.9371"/><path d="m29.4718 28.3133s2.7562 2.185 2.79 5.114.9456 3.79 1.61 4.4488l.2991-2.0676 3.2673.972"/><path d="m42.1168 21.559-2.3831-1.7676"/></g></svg>