<svg viewBox="0 0 48 48" xmlns="http://www.w3.org/2000/svg"><g fill="none" stroke="#000" stroke-linecap="round" stroke-linejoin="round"><path d="m31.562 28.4188v-6.1768a7.54 7.54 0 0 0 -5.5086-7.244v-.6052a2.0534 2.0534 0 1 0 -4.1068 0v.6052a7.54 7.54 0 0 0 -5.5086 7.244v6.1768l-1.814 2.8926a.6422.6422 0 0 0 .544.9834h17.2568a.6422.6422 0 0 0 .5772-.9237z"/><path d="m21.7689 32.295a2.1134 2.1134 0 0 0 4.0548 0"/><path d="m21 2.5h6"/><path d="m24 2.5v5.0888"/><path d="m45.5 20.3577v6"/><path d="m45.5 23.3577h-5.0888"/><path d="m2.5 26.3577v-6"/><path d="m2.5 23.3577h5.0888"/><path d="m27 45.5h-6"/><path d="m24 45.5v-5.0888"/><path d="m37.3587 8.5491 2.119 2.1236"/><path d="m38.4182 9.6109-1.8011 1.7972"/><path d="m39.4509 37.3587-2.1236 2.119"/><path d="m38.3891 38.4182-1.7972-1.8011"/><path d="m10.6413 39.4509-2.119-2.1236"/><path d="m9.5818 38.3891 1.8011-1.7972"/><path d="m8.5491 10.6413 2.1236-2.119"/><path d="m9.6109 9.5818 1.7972 1.8011"/></g></svg>