<svg viewBox="0 0 48 48" xmlns="http://www.w3.org/2000/svg"><g fill="none" stroke="#000" stroke-linecap="round" stroke-linejoin="round"><path d="m17.3417 30.0228h12.8683"/><path d="m17.3417 33.1143h12.8683"/><path d="m17.689 28.8588s-5.5074-5.6161-.3752-6.5237"/><path d="m20.6768 28.8588s-4.44-4.7947-3.0719-7.5289 5.2422-1.3094 6.1708.2811"/><path d="m22.317 20.3459a1.4585 1.4585 0 0 1 1.459-1.5626v-1.0248"/><path d="m23.7757 16.3341v-1.4484"/><path d="m21.5877 17.0287h1.4384"/><path d="m30.21 31.5685h-12.8683"/><path d="m29.8625 28.8588s5.5074-5.6161.3752-6.5237"/><path d="m26.8756 28.8588s4.44-4.7947 3.0719-7.5289-5.2422-1.3094-6.1708.2811"/><path d="m25.2344 20.3459a1.4585 1.4585 0 0 0 -1.459-1.5626v-1.0248"/><path d="m23.7757 16.3341v-1.4484"/><path d="m25.9647 17.0287h-1.4384"/><path d="m23.7757 21.6111v7.2478"/><path d="m37.4039 6.5486h-26.7919a1.9413 1.9413 0 0 0 -1.9846 1.895v33.1614a1.9413 1.9413 0 0 0 1.9846 1.895h26.7919a1.9414 1.9414 0 0 0 1.9846-1.895v-33.1614a1.9414 1.9414 0 0 0 -1.9846-1.895z"/><path d="m36.8026 6.3431a1.8814 1.8814 0 0 0 -1.9486-1.838l-24.5494 1.9122a1.9369 1.9369 0 0 0 -1.6883 2.1211"/></g></svg>