<svg viewBox="0 0 48 48" xmlns="http://www.w3.org/2000/svg"><g fill="none" stroke="#000" stroke-linecap="round" stroke-linejoin="round"><path d="m24 31.8a7.5 7.5 0 0 1 0-15 7.32 7.32 0 0 1 5.3 2.2l9.9-9.9a21.9 21.9 0 0 0 -15.2-6.3 21.5 21.5 0 1 0 15.2 36.7l-9.9-9.9a7.32 7.32 0 0 1 -5.3 2.2z"/><circle cx="24" cy="11.3" r="1.9"/><path d="m24 16.8v-3.6"/><circle cx="14.8" cy="15.1" r="1.9"/><path d="m18.7 19-2.6-2.5"/><circle cx="11" cy="24.3" r="1.9"/><path d="m16.5 24.3h-3.6"/><circle cx="14.8" cy="33.6" r="1.9"/><path d="m18.7 29.6-2.6 2.6"/><circle cx="24" cy="37.4" r="1.9"/><path d="m24 31.8v3.7"/></g></svg>