<svg viewBox="0 0 48 48" xmlns="http://www.w3.org/2000/svg"><circle cx="24" cy="24" fill="none" r="2" stroke="#000" stroke-linecap="round" stroke-linejoin="round"/><circle cx="20.3084" cy="17.5627" fill="none" r="1" stroke="#000" stroke-linecap="round" stroke-linejoin="round"/><circle cx="31.5451" cy="22.7444" fill="none" r="1" stroke="#000" stroke-linecap="round" stroke-linejoin="round"/><circle cx="16.5091" cy="27.2097" fill="none" r="1" stroke="#000" stroke-linecap="round" stroke-linejoin="round"/><circle cx="30.1366" cy="30.3923" fill="none" r="1" stroke="#000" stroke-linecap="round" stroke-linejoin="round"/><circle cx="26.0577" cy="14.3513" r=".75"/><circle cx="28.1299" cy="19.4321" r=".75"/><circle cx="14.1873" cy="20.7124" r=".75"/><circle cx="21.6977" cy="31.3455" r=".75"/><g fill="none" stroke="#000" stroke-linecap="round" stroke-linejoin="round"><circle cx="24" cy="24" r="13"/><path d="m19.0251 11.99-2.143-5.1738"/><path d="m18.1941 4.757c.2959.7144-.2915 1.6361-1.312 2.0588-1.0205.4227-2.0876.1863-2.3835-.528s.2915-1.6361 1.312-2.0588 2.0876-.1863 2.3835.528z"/><path d="m14.8076 14.8076-1.4142-1.4142"/><path d="m34.6066 34.6066-1.4142-1.4142"/><path d="m11 24h-2"/><path d="m39 24h-2"/><path d="m14.8076 33.1924-1.4142 1.4142"/><path d="m34.6066 13.3934-1.4142 1.4142"/><path d="m31.1179 41.1842-2.143-5.1742"/><path d="m33.5014 41.7122c.2959.7144-.2915 1.6361-1.312 2.0588-1.02.4227-2.0876.1863-2.3835-.528s.2915-1.6361 1.312-2.0588c1.02-.4227 2.0876-.1863 2.3835.528z"/><path d="m11.99 19.0251-5.1738-2.143"/><path d="m41.1842 31.1179-5.1742-2.143"/><path d="m11.99 28.9749-5.1738 2.143"/><path d="m41.1842 16.8821-5.1742 2.143"/><path d="m19.0251 36.01-2.143 5.1738"/><path d="m31.1179 6.8158-2.143 5.1742"/><path d="m24 37v2"/><path d="m25.5 8c0 .5523-.6716 1-1.5 1s-1.5-.4477-1.5-1 .6716-1 1.5-1 1.5.4477 1.5 1z"/><path d="m25.5 40c0 .5523-.6716 1-1.5 1s-1.5-.4477-1.5-1 .6716-1 1.5-1 1.5.4477 1.5 1z"/><path d="m24 9v2"/><path d="m13.747 11.6256c.39.3906.2322 1.182-.3536 1.7678s-1.3772.7441-1.7678.3536-.2322-1.182.3536-1.7678 1.3772-.7441 1.7678-.3536z"/><path d="m36.3744 34.253c.39.3906.2322 1.182-.3536 1.7678s-1.3772.7441-1.7677.3536-.2323-1.182.3535-1.7678c.5858-.5858 1.3772-.7441 1.7678-.3536z"/><path d="m8 22.5c.5523 0 1 .6716 1 1.5s-.4477 1.5-1 1.5-1-.6716-1-1.5.4477-1.5 1-1.5z"/><path d="m40 22.5c.5523 0 1 .6716 1 1.5s-.4477 1.5-1 1.5-1-.6716-1-1.5.4477-1.5 1-1.5z"/><path d="m11.6256 34.253c.3906-.3905 1.182-.2322 1.7678.3536s.7441 1.3772.3536 1.7678-1.182.2322-1.7678-.3536-.7441-1.3772-.3536-1.7678z"/><path d="m34.253 11.6256c.3906-.3905 1.182-.2322 1.7678.3536s.7441 1.3772.3536 1.7678-1.182.2322-1.7678-.3536c-.5858-.5858-.7441-1.3772-.3536-1.7678z"/><path d="m6.2878 14.4986c.7143.2959.9507 1.363.528 2.3835s-1.3444 1.6079-2.0588 1.312c-.7143-.2959-.9507-1.363-.528-2.3835.4227-1.0206 1.3444-1.6079 2.0588-1.312z"/><path d="m43.243 29.8059c.7143.2959.9507 1.363.528 2.3835-.4227 1.02-1.3444 1.6079-2.0588 1.312-.7143-.2959-.9507-1.363-.528-2.3835.4227-1.02 1.3444-1.6079 2.0588-1.312z"/><path d="m4.757 29.8059c.7144-.2959 1.6361.2915 2.0588 1.312.4227 1.02.1863 2.0876-.528 2.3835s-1.6361-.2914-2.0588-1.312-.1863-2.0876.528-2.3835z"/><path d="m41.7122 14.4986c.7144-.2959 1.6361.2915 2.0588 1.312.4227 1.02.1863 2.0876-.528 2.3835-.7144.2959-1.6361-.2915-2.0588-1.312-.4227-1.0205-.1863-2.0876.528-2.3835z"/><path d="m14.4986 41.7122c.2959-.7143 1.363-.9507 2.3835-.528s1.6079 1.3444 1.312 2.0588c-.2959.7143-1.363.9507-2.3835.528-1.0206-.4227-1.6079-1.3444-1.312-2.0588z"/><path d="m29.8059 4.757c.2959-.7143 1.363-.9507 2.3835-.528 1.02.4227 1.6079 1.3444 1.312 2.0588-.2959.7143-1.363.9507-2.3835.528-1.02-.4227-1.6079-1.3444-1.312-2.0588z"/></g></svg>