<svg viewBox="0 0 48 48" xmlns="http://www.w3.org/2000/svg"><g fill="none" stroke="#000" stroke-linecap="round" stroke-linejoin="round"><path d="m31.09 29.73a8.77 8.77 0 0 1 -6.65 3c-4.85 0-8.08-3.93-8.08-8.78s3.23-8.78 8.08-8.78a8.77 8.77 0 0 1 6.65 3l3.41-2.53a12.66 12.66 0 1 0 0 16.54z"/><circle cx="19.78" cy="6.64" r="2.34"/><circle cx="23.38" cy="21.25" r="2.34"/><circle cx="26.43" cy="27.46" r="1.41"/><circle cx="32.99" cy="40.95" r="2.34"/><circle cx="6.94" cy="23.99" r="2.34"/><circle cx="9.8" cy="36.27" r="2.34"/><path d="m23.73 36.64a2.46 2.46 0 0 1 .11.72 2.35 2.35 0 1 1 -3.92-1.74"/><path d="m13.31 18.92a2.34 2.34 0 1 1 2.62-3.85"/><circle cx="32.99" cy="7.75" r="2.34"/><path d="m9.28 23.99h2.98"/><path d="m11.62 34.8 3.49-2.81"/><path d="m32 38.83-1.61-3.43"/><path d="m31.96 9.85-1.38 2.82"/><path d="m20.46 8.88.89 2.96"/></g></svg>