<svg viewBox="0 0 48 48" xmlns="http://www.w3.org/2000/svg"><g fill="none" stroke="#000" stroke-linecap="round" stroke-linejoin="round"><path d="m39.12 20v-7.8c0-1.93-.79-2.56-2.38-3.23-2.14-.91-9.07-3.47-11.21-4.21a5.28 5.28 0 0 0 -1.53-.26 4.86 4.86 0 0 0 -1.51.28c-2.16.7-9.09 3.34-11.23 4.22-1.55.63-2.38 1.3-2.38 3.23v15.71c0 6.78 3.57 9.26 13.87 15.21a2.52 2.52 0 0 0 1.25.35 3.23 3.23 0 0 0 1.23-.35c10.5-5.64 13.87-8.43 13.87-15.21v-1.73a1.07 1.07 0 0 0 -1.1-1.07h-7.83a6.52 6.52 0 1 1 .06-4.06h7.82a1.06 1.06 0 0 0 1.07-1.08z"/><path d="m24.08 16.5v-1.99"/><path d="m28.67 18.47 1.4-1.41"/><path d="m28.55 27.69 1.41 1.4"/><path d="m23.92 29.54v1.99"/><path d="m19.33 27.57-1.4 1.41"/><path d="m17.48 22.94h-1.99"/><path d="m19.45 18.35-1.41-1.4"/><circle cx="24.08" cy="12.66" r="1.85"/><circle cx="31.38" cy="15.76" r="1.85"/><circle cx="31.26" cy="30.4" r="1.85"/><circle cx="23.92" cy="33.38" r="1.85"/><circle cx="16.62" cy="30.28" r="1.85"/><circle cx="13.64" cy="22.94" r="1.85"/><circle cx="16.74" cy="15.64" r="1.85"/></g></svg>