<svg viewBox="0 0 48 48" xmlns="http://www.w3.org/2000/svg"><g fill="none" stroke="#000" stroke-linecap="round" stroke-linejoin="round"><path d="m38.5 20.473v-10.973h-29v10.973a3.527 3.527 0 0 1 0 7.054v10.973h29v-10.973a3.527 3.527 0 0 1 0-7.054z"/><rect height="7.0541" rx=".7838" width="7.0541" x="14.9865" y="14.9865"/><rect height="7.0541" rx=".7838" width="7.0541" x="14.9865" y="25.9595"/><rect height="7.0541" rx=".7838" width="7.0541" x="25.9595" y="14.9865"/><path d="m28.3108 28.3108h2.3514v2.3514h-2.3514z"/><path d="m30.6622 25.9595h2.3514v2.3514h-2.3514z"/><path d="m30.6622 30.6622h2.3514v2.3514h-2.3514z"/><path d="m25.9595 25.9595h2.3514v2.3514h-2.3514z"/><path d="m25.9595 30.6622h2.3514v2.3514h-2.3514z"/><path d="m12 5.5h-6.5v6.5"/><path d="m42.5 12v-6.5h-6.5"/><path d="m36 42.5h6.5v-6.5"/><path d="m5.5 36v6.5h6.5"/></g></svg>