<svg viewBox="0 0 48 48" xmlns="http://www.w3.org/2000/svg"><g fill="none" stroke="#000" stroke-linecap="round" stroke-linejoin="round"><path d="m42.5 19.5v-14h-37v14a4.5 4.5 0 0 1 0 9v14h37v-14a4.5 4.5 0 0 1 0-9z"/><rect height="9" rx="1" width="9" x="12.5" y="12.5"/><rect height="9" rx="1" width="9" x="12.5" y="26.5"/><rect height="9" rx="1" width="9" x="26.5" y="12.5"/><path d="m29.5 29.5h3v3h-3z"/><path d="m32.5 26.5h3v3h-3z"/><path d="m32.5 32.5h3v3h-3z"/><path d="m26.5 26.5h3v3h-3z"/><path d="m26.5 32.5h3v3h-3z"/></g></svg>