<svg viewBox="0 0 48 48" xmlns="http://www.w3.org/2000/svg"><g fill="none" stroke="#000" stroke-linecap="round" stroke-linejoin="round"><path d="m29.04 11.85h-10.08l-7.11 7.11v10.08l7.11 7.12h10.08l7.12-7.12v-10.08z"/><path d="m24 38.3-3.58 6.2h7.16z"/><path d="m13.89 34.11-6.92 1.85 5.07 5.07z"/><path d="m9.7 24-6.2-3.58v7.16z"/><path d="m13.89 13.89-1.85-6.92-5.07 5.07z"/><path d="m24 9.7 3.58-6.2h-7.16z"/><path d="m34.11 13.89 6.92-1.85-5.07-5.07z"/><path d="m38.3 24 6.2 3.58v-7.16z"/><path d="m34.11 34.11 1.85 6.92 5.07-5.07z"/><path d="m24 32.18v-4.13"/><path d="m24 28.05 4.22.84-.59-1.73 3.84-3.03-1.02-.47 1.02-2.53-2.37.38-.59-1.39-1.68 2.11h-.64l1.02-4.64-1.73 1.01-1.48-2.78-1.48 2.78-1.73-1.01 1.02 4.64h-.64l-1.68-2.11-.59 1.39-2.37-.38 1.02 2.53-1.02.47 3.84 3.03-.59 1.73z"/></g></svg>