<svg viewBox="0 0 48 48" xmlns="http://www.w3.org/2000/svg"><g fill="none" stroke="#000" stroke-linecap="round" stroke-linejoin="round"><path d="m5.15 5.8009c2.8164-1.4129 9.8183-1.4443 12.628 0-.0021 4.4444-.0047 10.363-6.314 13.2594-6.3009-2.9503-6.314-8.8187-6.314-13.2594z"/><path d="m29.3957 40.5279h-15.4057a2.8413 2.8413 0 0 1 -2.5256-2.5256v-18.9423m6.3136-11.3649h16.4164a2.8414 2.8414 0 0 1 2.5256 2.5256v17.0478"/><circle cx="34.5732" cy="34.8453" r="7.5768"/><path d="m30.1989 35.23 2.7494 2.7548 5.9651-6.1848"/><path d="m30.406 25.3743h-5.0512v-5.0512h5.0512z"/><path d="m17.778 30.2992h10.7338m-8.84 4.1672h7.1352"/><path d="m22.8292 12.7463v5.0512h-5.0512"/><path d="m25.3548 12.7463h5.0512v5.0512h-5.0512z"/><path d="m17.778 20.3231h5.0512v5.0512h-5.0512z"/><path d="m11.464 7.4425v7.5768m-3.7884-3.9146h7.5768"/></g></svg>