<svg viewBox="0 0 48 48" xmlns="http://www.w3.org/2000/svg"><g fill="none" stroke="#000" stroke-linecap="round" stroke-linejoin="round"><path d="m40.33 28.72a6.8957 6.8957 0 0 1 -.3548 3.0373q-2.812 5.9364-16.0082 11.7427-13.1961-5.8063-16.0084-11.7424a6.8957 6.8957 0 0 1 -.3548-3.0376v-17.9464q-.0778-2.3796 12.9019-5.8409a14.0611 14.0611 0 0 1 6.9226 0q12.98 3.4613 12.98 5.1919z"/><path d="m40.299 13.183-16.206 15.865-9.409-9.41"/><path d="m39.14 33.1956a7.014 7.014 0 0 0 -10.2149 7.9269"/><path d="m28.561 39.4271h-2.5883"/><path d="m25.9727 40.703v-2.5519"/><path d="m29.5168 35.8598-2.2415-1.2942"/><path d="m26.6373 35.6706 1.276-2.21"/><path d="m32.1282 33.2484-1.2941-2.2416"/><path d="m29.7291 31.6448 2.21-1.2759"/><path d="m35.6955 32.2925v-2.5883"/><path d="m34.4196 29.7042h2.5519"/></g></svg>