<svg viewBox="0 0 48 48" xmlns="http://www.w3.org/2000/svg"><g fill="none" stroke="#000" stroke-linecap="round" stroke-linejoin="round"><path d="m37.1657 28.0464a5.5579 5.5579 0 0 1 -.2858 2.4473q-2.2653 4.783-12.8954 9.4614-10.63-4.6784-12.8955-9.4612a5.5571 5.5571 0 0 1 -.2858-2.4475v-14.46q-.0627-1.9172 10.3931-4.7064a11.3251 11.3251 0 0 1 5.5765 0q10.4559 2.7888 10.456 4.1832z"/><path d="m37.141 15.528-13.055 12.783-7.579-7.582"/><path d="m32.4046 28.8394h2.0554m-1.0279 2.0855v-2.0855m-4.8059 1.5636 1.78-1.028m.1524 2.32-1.0423-1.806m-3.3807 3.7577 1.0279-1.7806m1.2916 1.9331-1.8051-1.0428m-1.05 4.9451v-2.0562m2.085 1.0281h-2.085m10.6069-5.0208a5.6507 5.6507 0 0 0 -8.2284 6.3874"/><path d="m32.7632 5.5h9.7368v9.7368"/><path d="m42.5 32.7632v9.7368h-9.7368"/><path d="m15.2368 42.5h-9.7368v-9.7368"/><path d="m15.2368 5.5h-9.7368v9.7368"/></g></svg>