<svg viewBox="0 0 48 48" xmlns="http://www.w3.org/2000/svg"><g fill="none" stroke="#000" stroke-linecap="round" stroke-linejoin="round"><path d="m13.0873 29.9209a10.55 10.55 0 0 0 -2.4357 6.1806 10.55 10.55 0 0 0 2.4357 6.1806"/><path d="m34.9127 29.9209a10.55 10.55 0 0 1 2.4357 6.1806 10.55 10.55 0 0 1 -2.4357 6.1806"/><path d="m14.897 43.5h18.2337"/><path d="m34.9127 27.5708a10.55 10.55 0 0 0 2.4357-6.1808 10.55 10.55 0 0 0 -2.4357-6.18"/><path d="m13.0873 27.5708a10.55 10.55 0 0 1 -2.4357-6.1808 10.55 10.55 0 0 1 2.4357-6.18"/><path d="m33.103 13.9917h-18.2337"/><path d="m40.533 8.145-3.228-3.645-3.227 3.645"/><path d="m13.922 8.145-3.227-3.645-3.228 3.645"/><ellipse cx="19.2379" cy="22.9297" rx="3.5853" ry="3.0731"/><ellipse cx="28.7621" cy="22.9297" rx="3.5853" ry="3.0731"/></g></svg>