<svg viewBox="0 0 48 48" xmlns="http://www.w3.org/2000/svg"><g fill="none" stroke="#000" stroke-linecap="round" stroke-linejoin="round"><path d="m16.5881 11.9142c-1.9923-.5479-5.28-3.113-5.454-8.8161 0 0-4.682 6.5249-.3985 11.9291 3.138-.1494 4.2836-.9961 5.8525-3.113z"/><path d="m10.7356 15.0272c-1.4071 1.6686-5.9197 15.7386-6.3756 20.0479-.411 3.8851 1.83 4.296 2.6149 4.296s3.0878-1.346 3.1753-4.4454c.0868-3.0673.5854-11.1446.5854-19.8985z"/><path d="m16.5881 28.1269c1.1207 0 1.8927 1.8242 1.8927 3.9255s-.3735 3.7823-1.8927 3.7823"/><path d="m10.5487 25.1031a10.1576 10.1576 0 0 0 3.9407 3.7374"/><path d="m15.13 17.4909c0 1.8946-.4279 7.6318 1.0625 9.4809"/><path d="m20.4924 19.9858c0 2.687-.6975 6.3627-1.6347 7.0838"/><path d="m19.0386 19.3183a4.3727 4.3727 0 0 1 .152 1.412c0 1.0273-.4669 2.6523-1.3031 2.6523s-1.6946-1.0273-1.6946-3.25a6.6269 6.6269 0 0 1 .3952-1.981"/><path d="m29.0576 11.9142c1.9924-.5479 5.28-3.113 5.454-8.8161 0 0 4.682 6.5249.3985 11.9291-3.1379-.1494-4.2835-.9961-5.8525-3.113z"/><path d="m34.91 15.0272c1.4071 1.6686 5.92 15.7386 6.3755 20.0479.4109 3.8851-1.8305 4.296-2.6149 4.296s-3.0878-1.346-3.1753-4.4454c-.0865-3.0673-.5853-11.1446-.5853-19.8985z"/><path d="m29.3316 37.3414c2.1417 0 2.59-2.8142 2.59-5.28s-1.432-5.2983-3.3558-5.2983c-1.9052 0-4.2387 1.4382-5.7429 1.4382s-3.8377-1.4382-5.7429-1.4382c-1.9239 0-3.3559 2.8328-3.3559 5.2983s.4483 5.28 2.59 5.28"/><path d="m29.0576 28.1269c-1.1207 0-1.8927 1.8242-1.8927 3.9255s.3736 3.7823 1.8927 3.7823"/><path d="m35.0971 25.1031a10.1582 10.1582 0 0 1 -3.9407 3.7374"/><path d="m32.7583 27.7864c1.1307 1.3864 1.579 7.102 1.579 9.3807s-1.681 3.6983-4.7816 3.6983-4.8737-2.1667-6.7328-2.1667-3.6323 2.1667-6.7329 2.1667-4.7816-1.42-4.7816-3.6983.4483-7.9943 1.579-9.3807"/><path d="m29.5557 40.8654c-1.42.71-3.118 1.2327-6.7328 1.2327s-5.3133-.523-6.7329-1.2327"/><path d="m32.6936 16.6585c-3.1752.9712-8.3105 4.0718-9.8707 4.0718s-6.6955-3.1006-9.8708-4.0718"/><path d="m29.0576 11.9142a41.8622 41.8622 0 0 0 -6.2347-.4483 41.8633 41.8633 0 0 0 -6.2348.4483"/><path d="m29.7418 12.7794a18.0113 18.0113 0 0 1 -6.9189 1.563 18.0108 18.0108 0 0 1 -6.9189-1.563"/><path d="m30.5153 17.4909c0 1.8946.428 7.6318-1.0625 9.4809"/><path d="m25.1534 19.9858c0 2.687.6974 6.3627 1.6346 7.0838"/><path d="m26.6071 19.3183a4.3727 4.3727 0 0 0 -.152 1.412c0 1.0273.467 2.6523 1.3032 2.6523s1.6945-1.0273 1.6945-3.25a6.6269 6.6269 0 0 0 -.3952-1.981"/></g></svg>