<svg viewBox="0 0 48 48" xmlns="http://www.w3.org/2000/svg"><path d="m37.25 34.43h-8.8a3.71 3.71 0 1 1 0-7.42 3.35 3.35 0 0 1 .71.07v-.32a3.71 3.71 0 0 1 7.42 0v.32a4.17 4.17 0 0 1 .71-.07 3.71 3.71 0 1 1 0 7.42z" fill="none" stroke="#000" stroke-linecap="round" stroke-linejoin="round"/><path d="m34.63 29.9a5.39 5.39 0 0 1 -1.78.33 4.87 4.87 0 0 1 -1.77-.33.44.44 0 0 0 -.59.23.43.43 0 0 0 .22.58 5.76 5.76 0 0 0 2.13.41 5.83 5.83 0 0 0 2.16-.4.45.45 0 0 0 .17-.61.44.44 0 0 0 -.53-.21z"/><g fill="none" stroke="#000" stroke-linecap="round" stroke-linejoin="round"><path d="m41.68 13h-16.91c-2-.1-5.93-4.23-8.19-4.23h-9.9a2.18 2.18 0 0 0 -2.18 2.23v7.29h39v-3.42a1.83 1.83 0 0 0 -1.82-1.87z"/><path d="m43.5 18.28h-39v18.72a2.18 2.18 0 0 0 2.17 2.2h34.65a2.18 2.18 0 0 0 2.18-2.2z"/></g></svg>