<svg viewBox="0 0 48 48" xmlns="http://www.w3.org/2000/svg"><g fill="none" stroke="#000" stroke-linecap="round" stroke-linejoin="round"><path d="m5.69 31.17h8.56a0 0 0 0 1 0 0v7.17a0 0 0 0 1 0 0h-8.56a1.19 1.19 0 0 1 -1.19-1.2v-4.78a1.19 1.19 0 0 1 1.19-1.19z"/><path d="m14.25 31.17h9.75v7.17h-9.75z"/><path d="m24 31.17h9.75v7.17h-9.75z"/><path d="m33.75 31.17h9.75a0 0 0 0 1 0 0v6a1.19 1.19 0 0 1 -1.19 1.19h-8.56a0 0 0 0 1 0 0v-7.19a0 0 0 0 1 0 0z"/><path d="m15.44 24h8.56a0 0 0 0 1 0 0v7.17a0 0 0 0 1 0 0h-9.75a0 0 0 0 1 0 0v-6a1.19 1.19 0 0 1 1.19-1.17z"/><path d="m24 24h9.75v7.17h-9.75z"/><path d="m33.75 24h9.75v7.17h-9.75z"/><path d="m25.19 16.83h8.56a0 0 0 0 1 0 0v7.17a0 0 0 0 1 0 0h-9.75a0 0 0 0 1 0 0v-6a1.19 1.19 0 0 1 1.19-1.17z"/><path d="m33.75 16.83h9.75v7.17h-9.75z"/><path d="m34.94 9.67h7.36a1.19 1.19 0 0 1 1.19 1.19v6a0 0 0 0 1 0 0h-9.74a0 0 0 0 1 0 0v-6a1.19 1.19 0 0 1 1.19-1.19z"/></g></svg>