<svg viewBox="0 0 48 48" xmlns="http://www.w3.org/2000/svg"><g fill="none" stroke="#000" stroke-linecap="round" stroke-linejoin="round"><circle cx="24" cy="24" r="19.8849"/><path d="m16.959 42.602 1.327-9.324-5.406-9.278 3.907-7.987 8.769 4.816-1.556 3.171-4.441.237"/><path d="m25.494 14.398-3.164-1.929-4.03 4.375"/><path d="m21.769 18.749 4.559-5.326 3.544 2.663-4.316 4.743"/><path d="m28.802 17.262 2.978 2.477-5.201 6.242"/><path d="m24 24 5.395 4.144 4.294-5.316-2.542-2.329"/><path d="m31.372 25.981 1.135 5.025-3.663 3.135 2.196 8.461"/><path d="m5.896 32.228 3.543-1.55-1.144-3.522-3.778.828"/><path d="m10.58 9.325 2.569 2.891 2.996-2.177-1.955-3.337"/><path d="m33.81 6.702-1.955 3.337 2.996 2.177 2.569-2.891"/><path d="m43.483 27.984-3.778-.828-1.144 3.522 3.543 1.55"/><path d="m26.231 43.76-.379-3.848h-3.704l-.379 3.848"/><path d="m24 43.8849v1.6151"/><path d="m9.9392 38.0608-1.142 1.142"/><path d="m4.1151 24h-1.6151"/><path d="m9.9392 9.9392-1.142-1.142"/><path d="m24 4.1151v-1.6151"/><path d="m38.0608 9.9392 1.142-1.142"/><path d="m43.8849 24h1.6151"/><path d="m38.0608 38.0608 1.142 1.142"/><path d="m31.6096 42.3713.6181 1.4921"/><path d="m16.3904 42.3713-.6181 1.4921"/><path d="m5.6287 31.6096-1.4921.6181"/><path d="m5.6287 16.3904-1.4921-.6181"/><path d="m16.3904 5.6287-.6181-1.4921"/><path d="m31.6096 5.6287.6181-1.4921"/><path d="m42.3713 16.3904 1.4921-.6181"/><path d="m42.3713 31.6096 1.4921.6181"/></g></svg>