<svg viewBox="0 0 48 48" xmlns="http://www.w3.org/2000/svg"><g fill="none" stroke="#000" stroke-linecap="round" stroke-linejoin="round"><path d="m30.6237 20.6056 11.8242-5.988a1.9184 1.9184 0 0 0 .8447-2.5782l-.3926-.7764a3.32 3.32 0 0 0 -3.545-1.7684l-9.3452 1.49"/><circle cx="27.7361" cy="12.4163" r="2.6889"/><path d="m21.5938 37.2007a12.14 12.14 0 0 1 -16.0962-4.7344 9.23 9.23 0 0 1 4.0643-12.404l15.4981-7.8485"/><path d="m21.5938 37.2007a1.4049 1.4049 0 1 0 -1.2694-2.5066c-1.5543.7871-4.2028 1.62-5.7043-1.3445a5.4842 5.4842 0 0 1 -.3756-3.6964"/><path d="m15.32 25.6806-.389-.7682a1.6767 1.6767 0 0 0 -2.2534-.7383 1.6767 1.6767 0 0 0 -.7383 2.2534l1.16 2.291a1.8278 1.8278 0 0 0 2.4564.8048l1.3612-.6893 3.7464-1.8972a3.5346 3.5346 0 0 0 -4.75-1.5565z"/><path d="m25.97 20.287-.3891-.7681a1.6767 1.6767 0 0 0 -2.2534-.7384 1.6768 1.6768 0 0 0 -.7383 2.2534l1.16 2.2911a1.8278 1.8278 0 0 0 2.4564.8048l1.3611-.6893 3.7465-1.8973a3.5348 3.5348 0 0 0 -4.7505-1.5565z"/><path d="m24.0796 23.7837-4.2053 2.1296"/><path d="m10.6669 19.5026-.2885 1.704"/><path d="m13.5635 18.0358-.2886 1.7039"/><path d="m16.46 16.5689-.2885 1.7039"/><path d="m19.3565 15.1021-.2885 1.7039"/><path d="m22.253 13.6352-.2885 1.7039"/><path d="m30.987 15.798 2.63.669 1.017-2.516 2.629.669 1.018-2.516 2.632.668 1.019-2.517"/></g><circle cx="27.7361" cy="12.4163" r=".75"/></svg>