<svg viewBox="0 0 48 48" xmlns="http://www.w3.org/2000/svg"><g fill="none" stroke="#000" stroke-linecap="round" stroke-linejoin="round"><rect height="37" rx="1" width="37" x="5.5" y="5.5"/><path d="m9.87 10.1h4.72v4.72h-4.72z"/><path d="m17.35 10.1h4.72v4.72h-4.72z"/><path d="m24.8 25.18h4.72v4.72h-4.72z"/><path d="m32.28 25.18h4.72v4.72h-4.72z"/><path d="m9.87 25.18h4.72v4.72h-4.72z"/><path d="m17.35 25.18h4.72v4.72h-4.72z"/><path d="m24.8 32.66h4.72v4.72h-4.72z"/><path d="m9.87 32.66h4.72v4.72h-4.72z"/><path d="m17.35 32.66h4.72v4.72h-4.72z"/><path d="m32.28 32.66h4.72v4.72h-4.72z"/><path d="m9.87 17.64h4.72v4.72h-4.72z"/><path d="m17.35 17.64h4.72v4.72h-4.72z"/><path d="m29.06 10.1v4.26h-4.26v3.68h4.26v4.26h3.67v-4.26h4.26v-3.68h-4.26v-4.26z"/></g></svg>