<svg viewBox="0 0 48 48" xmlns="http://www.w3.org/2000/svg"><g fill="none" stroke="#000" stroke-linecap="round" stroke-linejoin="round"><path d="m35.5611 19.5423a11.9418 11.9418 0 0 1 2.598 7.6309c0 5.994-5.3182 16.3268-10.5923 16.3268-1.2341 0-1.0983-.2791-3.8106-.2791s-2.5762.2791-3.8106.2791c-5.2741 0-10.5924-10.3328-10.5924-16.3268 0-4.6228 2.5465-9.9116 7.4436-9.9116 4.4661 0 3.6434 1.4887 6.9594 1.4887s2.4933-1.4887 6.9594-1.4887h.0852"/><circle cx="23.7562" cy="30.3808" r="8.8098"/><circle cx="23.7562" cy="30.3808" r="4.9859"/><circle cx="23.7562" cy="30.3808" r="1.5163"/><path d="m23.7562 30.3808 12.5224-16.4884"/><path d="m24.6337 16.7231c.999-1.3125.2666-4.1919-2.39-6.5033-1.9547-1.7009-7.992-3.33-10.323-5.72 1.1949 5.9548 3.8423 9.637 7.7961 11.5375 3.5457 1.7043 4.4332 1.3218 4.9169.6858z"/><path d="m19.2861 13.0405a11.0066 11.0066 0 0 0 5.4524 3.5278"/><path d="m26.0928 14.8044c.7247.8509 2.6836.89 4.662-1.8914a9.7955 9.7955 0 0 0 2.0371-4.8579c-1.234 1.6062-2.9186 1.0774-5.1908 2.9186-2.1064 1.707-2.223 2.9916-1.5083 3.8307z"/><path d="m26.0928 14.8044a4.61 4.61 0 0 0 2.6444-1.8914"/><path d="m35.9192 14.3657c-.0588-1.6307-.804-2.5466-2.2556-2.202-2.0421.4848-3.82 5.9719-2.4681 8.4217"/><path d="m35.9192 14.3657c1.5866-.3811 2.6689.091 2.7265 1.5818.0811 2.0973-4.7275 5.2824-7.45 4.6379"/></g></svg>