<svg viewBox="0 0 48 48" xmlns="http://www.w3.org/2000/svg"><g fill="none" stroke="#000" stroke-linecap="round" stroke-linejoin="round"><path d="m26.8849 15.1729c4.4723-.5409 5.15 5.3177.6454 5.3177-1.9726 0-5.6359-1.7044-7.14-1.7044a1.396 1.396 0 0 0 -1.0953 2.4771"/><path d="m26.8849 15.1729c2.1271.3 1.518 2.1089.55 2.1089-2.6588 0-4.4223-1.6271-6.94-1.6271-3.4134 0-4.1315 4.9223-1.2 5.6177"/><path d="m26.3562 23.2979h2.3953v2.3953h-2.3953z" transform="matrix(.70710678 -.70710678 .70710678 .70710678 -9.2506 26.6581)"/><path d="m27.553 22.8041v-2.3135"/><path d="m27.553 26.1947v3.477"/><path d="m30.8755 26.272c-.8045 1.9407-2.1226 3.8133-6.0041 3.8133a4.6788 4.6788 0 0 1 -4.7405-4.94c0-2.7861.6863-4.0633 2.7679-5.4041"/><path d="m24.999 27.717v-7.031l-4.568 1.932"/><path d="m22.0398 28.9672 2.9589-1.2499"/><path d="m22.0398 21.9405v6.7904"/><path d="m30.8755 26.272c.3954 2.818-1.6408 6.59-6.595 6.59-3.85 0-7.2039-2.7271-7.2039-6.5631 0-3.9861 3.2815-5.7768 5.8222-6.5586"/><circle cx="24" cy="24" r="21.5"/><path d="m4.3846 32.8128 35.0277 6.1763"/><path d="m15.1874 4.3837-6.1764 35.028"/><path d="m38.9891 8.5876-6.1763 35.0276"/><path d="m43.616 15.1873-35.028-6.1763"/></g></svg>