<svg viewBox="0 0 48 48" xmlns="http://www.w3.org/2000/svg"><g fill="none" stroke="#000" stroke-linecap="round" stroke-linejoin="round"><path d="m11.1501 11.4129 5.2205-2.6606"/><path d="m33.2964 27.2812 4.8937-2.4941"/><path d="m21.4442 16.6592-10.2941-5.2463"/><path d="m19.6894 14.0361-3.3188-1.6915"/><path d="m19.6894 9.687-3.3188-1.6914"/><path d="m33.2964 10.6188-6.7482-3.4392"/><path d="m28.1494 41.3694-3.4455-1.756"/><path d="m28.1494 35.4425-3.4455-1.756"/><path d="m38.2591 30.2754-3.4455-1.756"/><path d="m38.1901 24.7871-1.4702-.7493"/><path d="m36.7199 24.0378 1.6577-.8448"/><path d="m38.3776 23.193-5.0812-2.5897"/><path d="m21.4442 43.5-10.1624-5.1793"/><path d="m21.4442 43.5 5.147-2.6232"/><path d="m28.1494 41.3694 10.2282-5.2128"/><path d="m28.1494 35.4425 10.2282-5.2128"/><path d="m21.4442 16.6592v26.8408"/><path d="m33.2964 10.6188v16.6624"/><path d="m38.3776 23.193v12.9636"/><path d="m28.1494 35.4425v5.9269"/><path d="m24.7039 33.6865v5.9269"/><path d="m34.8136 28.5194-10.1097 5.1671"/><path d="m16.3706 7.9956v4.349"/><path d="m19.6894 9.687v4.3491"/><path d="m21.4442 16.6592 11.8522-6.0404"/><path d="m19.6894 14.0361 6.8588-3.4956"/><path d="m19.6894 9.687 6.8588-3.4956"/><path d="m16.3706 7.9956 6.8588-3.4956"/><path d="m26.5482 6.1914-3.3188-1.6914"/><path d="m26.5482 6.1914v4.3491"/><path d="m12.9412 25.8205-3.3188-1.6915"/><path d="m12.9412 21.4714-3.3188-1.6914"/><path d="m9.6224 19.78v4.349"/><path d="m12.9412 21.4714v4.3491"/><path d="m12.9412 25.8205 5.0888-2.6499"/><path d="m14.6006 29.0544-3.3188-1.6915"/><path d="m11.2818 24.9747v2.3882"/><path d="m14.6006 24.9564v4.098"/><path d="m14.6006 29.0544 3.4053-1.7732"/><path d="m12.9412 21.4714 5.0888-2.6498"/><path d="m9.6224 19.78 5.0888-2.6499"/><path d="m18.03 18.8216-3.3188-1.6915"/><path d="m18.03 18.8216v4.349"/><path d="m18.03 23.1706v4.1106"/><path d="m11.1501 11.4129v7.5985"/><path d="m11.2818 27.3629v10.8907"/><path d="m25.686 18.6242v1.8922"/></g></svg>