<svg viewBox="0 0 48 48" xmlns="http://www.w3.org/2000/svg"><g fill="none" stroke="#000" stroke-linecap="round" stroke-linejoin="round"><circle cx="25.2114" cy="20.1675" r="9.2901"/><path d="m21.4942 28.6834c-1.2267 1.349-7.09 4.4687-5.1589 6.339s4.0647-3.8124 5.4728-1.9776c1.0118 1.3184-.6678 2.793-.6678 4.97s.7905 5.4814 3.182 5.4853c2.6061.0043 1.0424-2.79 1.0424-4.17s.512-1.9862 1.3092-1.9862 1.8182 1.22 2.2781 3.09 1.59 3.4165 3.8939 2.6981c2.7623-.8614 2.5754-2.6368 2.5141-3.7713s-1.441-4.4764-4.2311-3.74-2.3915 3.6793-2.1769 4.8133"/><path d="m28.0052 29.03c1.9433-.078 5.7375-.6758 5.9444 1.2788s-4.162 1.5384-4.6449 1.5154-1.1959.0406-1.1729.7381c.0185.5593.6439.7359 1.1728.8048s1.7747-.1443 3.1869 2.2159"/><path d="m23.0052 9.2182-1.0131-4.7182-2.4221 3.0354-2.8207-.5366-.5519 2.6828h-3.5874l3.66 4.2549a9.4609 9.4609 0 0 1 2.9935-3.2431 10.13 10.13 0 0 1 3.7417-1.4752z"/></g></svg>