<svg viewBox="0 0 48 48" xmlns="http://www.w3.org/2000/svg"><g fill="none" stroke="#000" stroke-linecap="round" stroke-linejoin="round"><path d="m19.83 16.52-2.77 2.83h-10.77a1.8 1.8 0 0 0 -1.79 1.8v20.22a1.79 1.79 0 0 0 1.79 1.79h35.42a1.79 1.79 0 0 0 1.79-1.79v-20.23a1.79 1.79 0 0 0 -1.79-1.79h-10.77l-2.77-2.83z"/><path d="m38.76 22.25a1.84 1.84 0 1 1 0 3.68 1.84 1.84 0 0 1 0-3.68z"/><path d="m24 23.71a7.63 7.63 0 1 1 -7.63 7.63 7.63 7.63 0 0 1 7.63-7.63z"/><path d="m24 26.84a2.61 2.61 0 0 1 1.59 4.69l1.24 4.31h-5.66l1.24-4.31a2.61 2.61 0 0 1 1.59-4.69z"/><path d="m34.93 19.35v-3.58a10.93 10.93 0 0 0 -10.93-10.93 10.93 10.93 0 0 0 -10.93 10.93v3.58"/></g></svg>