<svg viewBox="0 0 48 48" xmlns="http://www.w3.org/2000/svg"><g fill="none" stroke="#000" stroke-linecap="round" stroke-linejoin="round"><path d="m42.8 31.84.7-2.12-1.3-2.45-1.12-.27-2.62-3.63c0-2.73-1.6-3.36-3.67-3.3v4.93l3.92 3.07-.79.89.26 2.93 1.93.81"/><path d="m38.82 28.05 2.37-1.09"/><path d="m24 22.9a2.42 2.42 0 0 1 .78 4.71l1.06 5.12-1.84.51-1.86-.51 1.06-5.12a2.42 2.42 0 0 1 .8-4.71z"/><path d="m27.26 37.6c.14 1.48.42 3 .73 3h6.83c2.23 0 2.26-8.88.16-8.88h-1.17"/><path d="m5.2 31.84-.7-2.12 1.3-2.45 1.12-.27 2.62-3.63c0-2.73 1.6-3.36 3.67-3.3v4.93l-3.92 3.05.79.89-.26 2.93-1.93.81"/><path d="m9.29 28.05-2.37-1.09"/><path d="m20.86 37.6c-.14 1.48-.42 3-.74 3h-6.83c-2.22 0-2.26-8.88-.16-8.88h1.18"/><path d="m29.93 15.85h-3v-.76a1.52 1.52 0 0 1 3 0zm-8.81 0h-3v-.76a1.52 1.52 0 0 1 3 0z"/><path d="m33.31 19.59h-18.62a1.48 1.48 0 0 0 -1.48 1.48v6.24a10.79 10.79 0 0 0 21.58 0v-6.24a1.48 1.48 0 0 0 -1.48-1.48z"/><path d="m24 7.31a10.79 10.79 0 0 1 10.79 10.79 1.49 1.49 0 0 1 -1.49 1.49h-18.61a1.49 1.49 0 0 1 -1.49-1.49 10.79 10.79 0 0 1 10.8-10.79z"/></g></svg>