<svg viewBox="0 0 48 48" xmlns="http://www.w3.org/2000/svg"><g fill="none" stroke="#000" stroke-linecap="round" stroke-linejoin="round"><path d="m11.75 29.63 10.12-8.76"/><path d="m25.14 41.56a43.73 43.73 0 0 0 17.32-28.69 3.3 3.3 0 0 0 -1.92-3.52 41.5 41.5 0 0 0 -16.54-3.28 41.5 41.5 0 0 0 -16.54 3.28 3.3 3.3 0 0 0 -1.92 3.52 43.73 43.73 0 0 0 17.32 28.69 2 2 0 0 0 2.28 0z"/><path d="m41.08 9.66c-2.85-2.32-9.33 6.34-17.08 13.14-7.75-6.8-14.23-15.46-17.08-13.14"/><path d="m36.25 29.63-10.12-8.76"/></g></svg>