<svg viewBox="0 0 48 48" xmlns="http://www.w3.org/2000/svg"><g fill="none" stroke="#000" stroke-linecap="round" stroke-linejoin="round"><path d="m11.9986 23.3949c-4.5609 1.427-7.4986 3.6651-7.4986 6.1815 0 4.31 8.6183 7.8039 19.25 7.8039s19.25-3.4939 19.25-7.8039c0-2.5163-2.9377-4.7544-7.4985-6.1815"/><path d="m4.5 29.786c0 4.31 4.6823 9.885 19.25 9.885s19.25-5.7846 19.25-10.0946"/><path d="m9.1823 12.9906c0 6.1144 4.0789 18.0634 14.5673 18.0634s14.5673-11.949 14.5673-18.0634"/><ellipse cx="23.7496" cy="12.9906" rx="14.5673" ry="4.6615"/><path d="m37.652 14.3863c-1.7044-1.9439-7.2832-3.3693-13.902-3.3693s-12.1985 1.4254-13.9028 3.3693"/><path d="m36.1468 22.1258c6.04 1.0811 7.3532-2.3572 7.3532-4.9432s-.9919-4.192-3.2762-4.192a2.4811 2.4811 0 0 0 -1.9378.9441"/></g></svg>