<svg viewBox="0 0 48 48" xmlns="http://www.w3.org/2000/svg"><path d="m24 42.5c3.61 0 5.24-1.49 7.9-3 2.11-1.19 5.2-1.39 6.47-2.72a12.15 12.15 0 0 0 3.32-9.31c0-1.95-.95-4.83-.95-5.6s3.8-16.37-.74-16.37c-3.29 0-10.49 8.17-10.49 8.17a11.34 11.34 0 0 0 -5.51-1.75 11.34 11.34 0 0 0 -5.53 1.75s-7.2-8.17-10.47-8.17c-4.52 0-.72 15.62-.72 16.39s-1 3.65-1 5.6a12.15 12.15 0 0 0 3.35 9.31c1.27 1.33 4.36 1.53 6.47 2.72 2.66 1.48 4.29 2.98 7.9 2.98z" fill="none" stroke="#000" stroke-linecap="round" stroke-linejoin="round"/></svg>