<svg viewBox="0 0 48 48" xmlns="http://www.w3.org/2000/svg"><g fill="none" stroke="#000" stroke-linecap="round" stroke-linejoin="round"><path d="m24 2.5a21.51 21.51 0 1 0 15.2 6.3 21.46 21.46 0 0 0 -15.2-6.3zm-.36 2 .93 1.84 2.05.28-1.46 1.44.37 2-1.84-.94-1.82 1 .33-2-1.5-1.46 2-.32zm-8.29 2.43.82 1.62 1.8.24-1.29 1.28.32 1.79-1.61-.86-1.6.87.29-1.8-1.32-1.22 1.8-.29zm17.14-.34.93 1.84 2 .28-1.42 1.45.37 2-1.84-.94-1.82 1 .33-2-1.5-1.43 2-.32zm-8.59 5.46h.1a11.92 11.92 0 1 1 -.11 0zm-14.42 1 .83 1.62 1.8.25-1.29 1.28.33 1.8-1.62-.83-1.6.83.28-1.8-1.31-1.2 1.79-.27zm29-.34.94 1.85 2 .28-1.42 1.45.37 2-1.84-.94-1.82 1 .33-2-1.5-1.42 2-.32zm-31.32 8.89.84 1.62 1.8.25-1.3 1.28.32 1.79-1.61-.83-1.61.86.29-1.79-1.32-1.26 1.8-.28zm33.65.09.79 1.56 1.74.24-1.24 1.24.31 1.72-1.55-.8-1.55.83.28-1.73-1.27-1.21 1.73-.27zm-31.32 8.19.82 1.62 1.8.24-1.29 1.26.33 1.79-1.62-.79-1.6.86.28-1.79-1.31-1.27 1.8-.28zm29 0 .84 1.64 1.82.24-1.28 1.24.33 1.81-1.64-.81-1.62.88.28-1.82-1.33-1.27 1.83-.28zm-23.14 6.12.82 1.63 1.8.24-1.29 1.28.32 1.77-1.62-.83-1.6.86.29-1.79-1.31-1.26 1.8-.28zm17.14 0 .82 1.62 1.8.24-1.29 1.28.33 1.79-1.62-.83-1.59.85.29-1.78-1.32-1.27 1.8-.28zm-8.85 2.26.82 1.63 1.81.23-1.27 1.28.33 1.79-1.63-.83-1.6.86.29-1.79-1.32-1.25 1.8-.29zm0 0"/><path d="m27.46 28.8a4.22 4.22 0 0 1 -3.23 1.51 4.23 4.23 0 0 1 -4.23-4.23v-4.16a4.23 4.23 0 0 1 4.23-4.23 4.24 4.24 0 0 1 3.25 1.53"/><path d="m17.97 22.47h7.36"/><path d="m17.97 25.56h7.36"/></g></svg>