<svg viewBox="0 0 48 48" xmlns="http://www.w3.org/2000/svg"><g fill="none" stroke="#000" stroke-linecap="round" stroke-linejoin="round"><path d="m17.5 19.125-13 11.9167 13 11.9166"/><path d="m30.5 5.0417 13 13-13 13"/><path d="m13.8167 33.9667a2.5826 2.5826 0 0 0 2.1666.975h1.3a2.1667 2.1667 0 0 0 0-4.3334h-1.4083a2.1667 2.1667 0 1 1 0-4.3333h1.3a2.3263 2.3263 0 0 1 2.1667.975m-2.8167-2.1667v10.8334"/><path d="m34.8333 21.2917a2.88 2.88 0 0 1 -2.275 1.0833 2.9128 2.9128 0 0 1 -2.925-2.925v-2.8167a2.9128 2.9128 0 0 1 2.925-2.925 3.0489 3.0489 0 0 1 2.275 1.0834m-6.5 2.0583h3.6834m-3.6834 2.1667h3.6834"/></g></svg>