<svg viewBox="0 0 48 48" xmlns="http://www.w3.org/2000/svg"><g fill="none" stroke="#000" stroke-linecap="round" stroke-linejoin="round"><path d="m17.1107 7.7319c2.0451 0 14.2695 5.3917 16.9653 7.7622.1395-2.6494 2.7424-2.7423 3.672-1.3944s.3718 3.9508 0 4.5086c1.3944 1.6268 1.4409 2.8818 2.4169 4.23s3.672 4.9269 3.3 7.1115-6.4606 10.3183-15.9891 10.3183-21.9366-8.7881-22.6358-13.5722c-.6818-4.6636-.5113-7.44 2.1381-11.8308a1.7161 1.7161 0 0 1 .0774-2.2373c.4645-.5578 6.4452-4.8959 10.0552-4.8959z"/><path d="m23.401 22.8186c-.7127-.6507-2.6339-1.8708-3.5325-1.437s-2.4785 4.5551-1.8285 6.0425a2.6364 2.6364 0 0 0 2.31 1.4873"/><path d="m37.748 18.6083a6.9117 6.9117 0 0 0 -8.6454-1.8747c-4.5861 2.1691-10.0707 13.0455-9.8538 17.0428s1.499 5.2942 1.499 5.2942"/><path d="m23.1531 11.59c-1.6733-.2479-5.2368-.1859-6.4143.7127l4.6791 2.0762a4.2049 4.2049 0 0 0 -.5888 3.0677 19.4353 19.4353 0 0 0 4.3692-2.6649"/><path d="m6.978 14.8651c1.3324-.61 4.4066-1.5639 6.3523.598 2.231 2.479 2.8818 10.68 1.6733 14.027"/><path d="m43.1208 27.76c-1.1586-1.142-3.6066-1.266-6.21-.5223s-9.2961 3.9044-7.84 6.91 3.1892 3.0868 4.3692 2.8508a10.3 10.3 0 0 0 5.2058-3.3776 8.1017 8.1017 0 0 0 1.7113.9671"/><path d="m39.1423 20.8924c-1.0535.4582-.8058 2.2245 0 2.1935s.9052-.4162.9052-.4162"/><path d="m30.6829 23.0863c.9589-.3879 2.386.9912 2.2931 1.58s-2.2311 1.8282-2.82 1.0846-.9294-2.0755.5269-2.6646z"/><path d="m36.3845 28.1677c-.5887.6818-1.4007 3.8611 2.0575 3.7588s3.0864-2.2094 2.8385-3.0151a2.16 2.16 0 0 0 -2.6363-1.7972c-1.7949.3718-2.2597 1.0535-2.2597 1.0535z"/><path d="m9.2183 32.6135c.8893-1.3781 4.1739-4.4969 5.7853-3.1234s.0312 4.8212-1.5493 6.165"/><path d="m31.3157 29.9539c-2.0891-1.0739-7.3857-1.3833-10.9657-1.0425"/><path d="m21.9246 33.349c1.059-.4425 3.0378 4.2452 2.8978 4.5241s-2.6355.3886-3.1922-.94c-.4233-1.0101-1.036-3.0282.2944-3.5841z"/></g></svg>