<svg viewBox="0 0 48 48" xmlns="http://www.w3.org/2000/svg"><g fill="none" stroke="#000" stroke-linecap="round" stroke-linejoin="round"><path d="m43.5 37.0237a2.1763 2.1763 0 0 1 -2.1806 2.1717h-34.6459a2.1762 2.1762 0 0 1 -2.1735-2.1789v-26.04a2.1762 2.1762 0 0 1 2.1806-2.1719v.0018h9.9013c2.257 0 6.2253 4.13 8.1881 4.2372h16.9083a1.8217 1.8217 0 0 1 1.8217 1.8216z"/><path d="m39.5 25.4533-7.3525 9.7421"/><path d="m39.5 35.1954-7.3525-9.7421"/><path d="m29.1233 33.3438a3.6752 3.6752 0 0 1 -3.1923 1.8516 3.6762 3.6762 0 0 1 -3.6762-3.6763v-2.3891a3.6762 3.6762 0 0 1 3.6762-3.6762 3.675 3.675 0 0 1 3.189 1.8447"/></g></svg>