<svg viewBox="0 0 48 48" xmlns="http://www.w3.org/2000/svg"><g fill="none" stroke="#000" stroke-linecap="round" stroke-linejoin="round"><path d="m36.6421 21.2877-4 5.3"/><path d="m22.8229 26.8268a5.7127 5.7127 0 0 1 -5.816 5.6537 5.7127 5.7127 0 0 1 -5.816-5.6537v-5.6536a5.7127 5.7127 0 0 1 5.816-5.6537 5.53 5.53 0 0 1 5.6006 5.6537"/><path d="m29.5867 21.2119-4 5.3001"/><path d="m29.5867 26.512-4-5.3001"/><path d="m36.8091 26.5119-4-5.3"/><circle cx="24" cy="24" r="21.5"/><path d="m32.7637 4.373v8.5547a2 2 0 0 0 2 2h8.7246a21.5 21.5 0 0 0 -10.7246-10.5547z"/></g></svg>