<svg viewBox="0 0 48 48" xmlns="http://www.w3.org/2000/svg"><path d="m38.89 22.71c-.56-3.83 0-2.36-.48-5.85-.82-5.84-7-12.67-15.3-12.35-13.11.49-15.01 11.79-15.01 18.17 0 2.65-.86 6.33-.57 11.85.47 8.77 1.38 9.66 14.08 8.62 16.91-1.37 18.86-8.11 19-11.78s-1.32-5.9-1.72-8.66zm-18.65 6.16c-3.79 0-5.75-4.6-5.75-8.31s2.41-7.75 5.75-7.75c3.64 0 5.62 4.28 5.62 7.9 0 3.82-1.86 8.16-5.62 8.16zm13.11-3.28c-2.79 0-4.22-3.34-4.22-6s1.77-5.64 4.22-5.64c2.68 0 4.13 3.11 4.13 5.74 0 2.74-1.34 5.9-4.13 5.9z" fill="none" stroke="#000" stroke-linecap="round" stroke-linejoin="round"/></svg>