<svg viewBox="0 0 48 48" xmlns="http://www.w3.org/2000/svg"><g fill="none" stroke="#000" stroke-linecap="round" stroke-linejoin="round"><path d="m8.5 9.5h-1a2 2 0 0 0 -2 2v28a2 2 0 0 0 2 2h33a2 2 0 0 0 2-2v-28a2 2 0 0 0 -2-2h-1"/><path d="m33.5 9.5h-19"/><path d="m36.5 12.5v-6"/><path d="m11.5 12.5v-6"/><path d="m20.09 31.2876a6.9855 6.9855 0 0 0 10.8952-5.7876"/><path d="m27.9058 19.7083a6.9856 6.9856 0 0 0 -10.8897 5.7917"/><path d="m29.906 25.5h-2.625l3.61-3.609 3.609 3.609h-2.625z"/><path d="m18.094 25.501h2.625l-3.61 3.609-3.609-3.609h2.625z"/></g></svg>