<svg viewBox="0 0 48 48" xmlns="http://www.w3.org/2000/svg"><g fill="none" stroke="#000" stroke-linecap="round" stroke-linejoin="round"><rect height="19.545" rx="6.7786" width="13.5573" x="14.9901" y="9.4682"/><path d="m28.5473 22.2346v20.3359"/><path d="m21.0908 29.0132v3.7283c-4.8015 0-12.0885 6.27-12.0885 9.829"/><path d="m42.5 42.5705s-2.9374-8.9817-7.6416-8.9817v-17.3778a10.7816 10.7816 0 0 0 -10.7815-10.781 10.7815 10.7815 0 0 0 -10.7815 10.781v17.3778c-3.5588 1.2992-7.287 6.3832-7.7954 8.9817"/><path d="m19.029 22.1781c.2633.874 2.5234.9332 2.895 0"/><path d="m19.029 17.33c-.283-.874-2.7124-.9332-3.1118 0"/><path d="m25.18 17.33c-.283-.874-2.7123-.9332-3.1118 0"/><path d="m18.1534 24.4659a3.1642 3.1642 0 0 0 2.3231.7626 3.1783 3.1783 0 0 0 2.4079-.89"/></g><circle cx="18.0753" cy="17.6796" r=".75"/><circle cx="24.4302" cy="17.6796" r=".75"/></svg>