<svg viewBox="0 0 48 48" xmlns="http://www.w3.org/2000/svg"><g fill="none" stroke="#000" stroke-linecap="round" stroke-linejoin="round"><path d="m12.9762 12.8763a11.3341 11.3341 0 0 0 -7.8247 3.0967h13.39c4.781 0 7.0087 2.2127 7.623 5.8492 1.53-1.77 3.0968-3.581 5.35-5.8646l8.75-.1257a11.0516 11.0516 0 0 0 -8.0473-2.9557zm28.3531 5.019-5.5635 5.3347 5.9532 6.54a8.7414 8.7414 0 0 0 1.781-5.3 10.9856 10.9856 0 0 0 -2.1707-6.5747zm-15.0785 7.1147a7.7294 7.7294 0 0 1 -7.7087 6.3471h-14.0421a11.3207 11.3207 0 0 0 8.4764 3.7669h19.2418a11.1408 11.1408 0 0 0 8.1842-3.2293l-8.8289.0325z"/><path d="m9.9966 21.9592-1.1725 3.7708 6.5686-.0978a2.7079 2.7079 0 0 0 2.1061-1.8535 1.5085 1.5085 0 0 0 -1.2863-1.799z"/></g></svg>