<svg viewBox="0 0 48 48" xmlns="http://www.w3.org/2000/svg"><g fill="none" stroke="#000" stroke-linecap="round" stroke-linejoin="round"><path d="m18.581 4.5c-4.0453 5.3622-6.3176 11.3134-8.5424 17.2811l24.6775-1.1829a77.861 77.861 0 0 0 -9.3761-15.6871"/><path d="m10.0434 21.7772c-6.3127 7.1554-4.6244 10.7885-3.7011 14.7637 6.3477 3.2453 18.2725 7.0505 26.4562-3.3318m5.2086-8.694a10.7454 10.7454 0 0 0 -3.2929-3.9208"/><path d="m5.1507 37.7947 1.1916-1.2509"/><path d="m33.4322 43.5c.0288-3.1569-.9543-5.7014-3.65-7.206"/><path d="m39.5651 31.5063 3.2842-.87-2.6165 10.0891-3.116.3939z"/><path d="m16.812 31.9048c-.4961.5256-.6243 1.8253.0121 2.1684 2.4483 1.3179 6.0532.5491 9.073.3475 2.76-.1842 5.5041-1.8185 8.1779-1.417.3348.05.0036-.7431.2381-.9875.6178-.643 2.0975.0233 2.5728-.73.1623-.2571.1446-.8335-.1522-.8995a31.6383 31.6383 0 0 0 -8.47.1472c-1.1391.1695-2.1859.7592-3.3221.9484-2.6767.4458-6.2661-1.55-8.1293.423z"/><path d="m38.01 24.518c.2345 1.007.4836 2.02-.0631 2.6525-1.5969 1.7009-9.3841 2.22-10.6331 1.4307l-1.9856-1.2538-.9933.5908c-.8485.5048-6.964-.1227-8.58-1.488l-2.6829-2.2676a21.6479 21.6479 0 0 0 3.4815-1.03s6.1213-.4853 8.5822 1.0118a3.4608 3.4608 0 0 1 .8407 1.2421l2.96.317 3.877-1.1964a8.39 8.39 0 0 1 5.196-.0091z"/><path d="m18.3574 27.5213s-.3651-1.7456.1791-2.0537c1.7009-.9613 3.36-1.19 4.8529-.2637.9759.6061-.0361 2.7961-.0361 2.7961"/><path d="m31.2162 28.8529a15.2294 15.2294 0 0 1 1.5385-2.7214 2.4577 2.4577 0 0 1 2.9032-.3888c.701.6241.4313 2.3326.4313 2.3326"/><path d="m37.6115 27.4727c-.9633 1.3122-1.7825 2.5864-1.6231 2.7759"/></g></svg>