<svg viewBox="0 0 48 48" xmlns="http://www.w3.org/2000/svg"><path d="m23.87 4.5a5.92 5.92 0 0 1 -.66 2.06 45.58 45.58 0 0 1 -3.69 5.52c-.11.13-.21.24-.31.38a23.41 23.41 0 0 1 8.59-2.2zm4.46 6.5a38 38 0 0 0 -5.15 7.88s.19 0 3.11-.82a22 22 0 0 0 -3 10.71l2.06-1a35.16 35.16 0 0 0 0 15.62 13.91 13.91 0 0 0 12.46-13.72 2.63 2.63 0 0 0 0-1.05c-.12-4.77-3.38-8.7-5.69-12.09zm-10.33 3a56.5 56.5 0 0 0 -4.82 6.47 20.07 20.07 0 0 0 -2.62 5.92 10.7 10.7 0 0 0 -.38 3.31 13.8 13.8 0 0 0 13.75 13.8c.43 0 .84 0 1.26-.06-2.67-3.88-2.76-4.12-4.06-10.91l-1.54 1s-1.7-7.71-.94-10.18l-2.17 1.12a38.22 38.22 0 0 1 1.52-10.47z" fill="none" stroke="#000" stroke-linejoin="round"/></svg>