<svg viewBox="0 0 48 48" xmlns="http://www.w3.org/2000/svg"><g fill="none" stroke="#000" stroke-linecap="round" stroke-linejoin="round"><path d="m24 11.9738-10.0916 23.5045-2.0336-6.3156-4.3648 8.692"/><circle cx="13.4195" cy="15.733" r="3.5777"/><path d="m9.9409 12.2544-.9162-.9162"/><path d="m17.8143 20.1278-.9162-.9162"/><path d="m13.42 10.8135v-1.2957"/><path d="m13.42 21.9482v-1.2957"/><path d="m18.339 15.733h1.2957"/><path d="m7.2043 15.733h1.2957"/><path d="m16.8981 12.2544.9162-.9162"/><path d="m9.0247 20.1278.9162-.9162"/><path d="m35.1078 11.5035-.0684.0059a4.2253 4.2253 0 0 1 -2.8808 7.24 4.2247 4.2247 0 1 0 2.9492-7.2461z"/><circle cx="31.1168" cy="12.4433" r=".3331"/><circle cx="32.0053" cy="16.3186" r=".3331"/><path d="m24 11.9738 10.0916 23.5045 2.0336-6.3156 4.3017 8.5673"/><path d="m24 45.4055v-33.4317"/><circle cx="24" cy="24" r="21.5"/></g></svg>