<svg viewBox="0 0 48 48" xmlns="http://www.w3.org/2000/svg"><g fill="none" stroke="#000" stroke-linecap="round" stroke-linejoin="round"><path d="m17.8383 26.3322a6.6883 6.6883 0 0 0 -6.6683-6.6686 6.6882 6.6882 0 0 0 -6.669 6.6686v4.3346a6.6883 6.6883 0 0 0 6.669 6.6687 6.6883 6.6883 0 0 0 6.6687-6.6687m0 6.6687v-26.6746"/><path d="m25.8286 37.3379v-26.6756h4.3346a13.3773 13.3773 0 0 1 13.3378 13.3377 13.3774 13.3774 0 0 1 -13.3378 13.3379z"/><ellipse cx="34.7483" cy="23.8726" rx="3.3015" ry="3.1652"/><path d="m26.1451 24h5.3457m12.0058 0h-5.3413"/></g></svg>