<svg viewBox="0 0 48 48" xmlns="http://www.w3.org/2000/svg"><g fill="none" stroke="#000" stroke-linejoin="round"><path d="m22.1 25.69a1.58 1.58 0 0 1 1.12.46l1.38 1.39a9.78 9.78 0 0 1 11.45 0l1.39-1.39a1.59 1.59 0 1 1 2.24 2.25l-1.38 1.38a9.81 9.81 0 0 1 1.85 5.73v8h-19.64v-8a9.76 9.76 0 0 1 1.85-5.72l-1.36-1.39a1.59 1.59 0 0 1 1.13-2.71zm4.07 8.13a1.83 1.83 0 0 0 -1.83 1.83 1.84 1.84 0 0 0 1.83 1.83 1.83 1.83 0 0 0 1.83-1.83 1.84 1.84 0 0 0 -1.83-1.83zm8.32 0a1.83 1.83 0 1 0 1.83 1.83 1.83 1.83 0 0 0 -1.83-1.83z"/><g stroke-linecap="round"><path d="m7.85 19.17h16.76"/><path d="m13.57 24.63-5.72-5.46"/><path d="m13.57 13.74-5.72 5.43"/><path d="m38.39 9.95h-16.76"/><path d="m32.67 4.5 5.72 5.45"/><path d="m32.67 15.39 5.72-5.44"/></g></g></svg>