<svg viewBox="0 0 48 48" xmlns="http://www.w3.org/2000/svg"><g fill="none" stroke="#000" stroke-linecap="round" stroke-linejoin="round"><path d="m20 17.08c.54-.06 1.64-.16 2.18-.2s1.21-.05 1.81-.05a29.19 29.19 0 0 1 11.27 2.17 4.41 4.41 0 0 1 3.74-2.17 4.65 4.65 0 0 1 4.5 4.79 5 5 0 0 1 -1.07 3.11 7.62 7.62 0 0 1 1.07 3.77c0 6.5-8.73 11.67-19.5 11.68-10.77 0-19.5-5.18-19.5-11.68a7.69 7.69 0 0 1 1.07-3.78 5 5 0 0 1 -1.07-3.1 4.65 4.65 0 0 1 4.5-4.79 4.42 4.42 0 0 1 3.75 2.17 25.82 25.82 0 0 1 7.25-1.92z"/><circle cx="25.19" cy="7.59" r="2.61"/><path d="m23.25 9.34c-3 2.32-.39 4.82 1.8 3.45 1.38-.86 2.75-1.36 3.6-.2s-.26 3.11-2.72 4.3"/><path d="m8.49 30.21a3 3 0 0 0 3 3h5.68a4.12 4.12 0 0 0 4-3l.66-2.38a2.29 2.29 0 0 1 2.17-1.72 2.29 2.29 0 0 1 2.22 1.69l.66 2.38a4.12 4.12 0 0 0 4 3h5.64a3 3 0 0 0 3-3v-5.51a2 2 0 0 0 -1.83-2c-4-.32-9-.39-13.68-.35s-9.68 0-13.68.35a2 2 0 0 0 -1.83 2z"/></g></svg>