<svg viewBox="0 0 48 48" xmlns="http://www.w3.org/2000/svg"><g fill="none" stroke="#000" stroke-linecap="round" stroke-linejoin="round"><circle cx="24" cy="24" r="21.5"/><path d="m23.6963 25.29c.7149 2.7757 9.1682-4.3738 12.4065-4.3738a1.7356 1.7356 0 0 1 1.9346 1.472"/><path d="m25.7248 25.6988.5789 1.2311s4.437-1.6192 6.3926-1.3668l2.7332-4.565"/><path d="m24.264 32.04a2.3272 2.3272 0 0 1 -1.4719.9463c-.5257 0-1.9767-1.1145-1.9767-1.1145l1.1355-3.0491s.9042 1.3038.0281 3.8359"/><path d="m21.0467 34.29a4.1114 4.1114 0 0 1 4.0584-.5467"/><path d="m22.3505 35.3621a2.045 2.045 0 0 1 2.5023-.3009"/><path d="m8.7243 24.1752s2.0818 5.0678 3.007 7.2337 9.5047 7.3808 10.1145 7.78 1.2667.6342 3.007.42c1.1986-.1472 9.4836-6.7113 9.9673-7.6769s5.93-13.225 5.93-13.225"/><path d="m39.7617 17.8458c1.514.778 4.479 2.2921 4.3107 9.0841a14.7091 14.7091 0 0 0 1.408-2.0187"/><path d="m35.8364 29.7127c.9814.5677 5.3832-1.3529 5.8739-2.11s2.2131-3.6027 2.2131-3.6027"/><path d="m37.1543 26.7757a1.5529 1.5529 0 0 0 .7429.8271l1.7243-1.5.4766.1542s1.1215-2.1869.6519-3.07-1.7746-.4912-1.7746-.4912"/><path d="m23.8435 23.1028a23.638 23.638 0 0 1 7.1705-4.479"/><path d="m21.278 24s.3365 2.7617.3365 3.2243c0 0 1.03.2734 1.4614 0s0-3.0491 0-3.0491"/><path d="m16.6729 17.0257c2.0818 1.0724 4.9 4.8154 4.9 4.8154"/><path d="m20.479 26.4252c-1.3669-1.64-7.0865-5.1308-9.0631-6.4766"/><path d="m11.4159 20.7687 1.4509 3.6589s5.5514 1.6191 6.4132 2.1024l.43-.8575"/><path d="m5.6732 12.7525s-.2503 11.4438 1.2427 14.9975c2.6075-9.2944 14.6145-17.1589 18-18.3154a3.6836 3.6836 0 0 1 1.486 2.5374 12.8759 12.8759 0 0 1 4.1753-3.5608c.3387 0 8.2733 7.8505 3.8153 15.757 2.5514-1.0934 7.7484-8.5024 6.0611-14.0082"/><path d="m36.4569 6.4746c1.2721 3.31 2.5338 6.7871 1.5805 10.3478"/><path d="m25.9269 10.5484a13.783 13.783 0 0 1 1.2881-2.95c.4766-.4766 5.7055-3.1655 5.7055-3.1655"/><path d="m28.4486 4.7243a15.4351 15.4351 0 0 0 -2.0186-2.0885"/><path d="m30.13 3.3865a6.5848 6.5848 0 0 0 -2.915 4.2116s-2.2991-2.299-3.3715-2.299c-2.0117 0-16.1706 7.1215-16.9276 22.4509"/><path d="m39.01 29.1336c.7661 2.6047.9794 9.24.9794 9.24"/><path d="m39.295 30.411 4.098-.595-1.739-.682 3.441-.963"/><path d="m12.9024 32.846c-1.3884 2.5933-1.26 8.75-1.26 8.75"/><path d="m15.271 36.5327a63.016 63.016 0 0 0 -.1141 7.07"/><path d="m19.8411 40.8785-.1304 4.1933"/><path d="m29.0093 39.0561-5.9334 6.4439"/><path d="m31.014 38.3732-4.6118 6.9938"/><path d="m2.5855 25.9299 8.5347 4.0309"/><path d="m2.5 23.4229 2.7617 1.9229c-1.9626-1.9346-2.3526-5.54-2.3526-5.54"/><path d="m37.6168 38.1028a43.2521 43.2521 0 0 0 -5.0468 2.7757"/><path d="m31.8131 28.8224a30.0411 30.0411 0 0 1 -2.2431 5.4676"/><path d="m14.4579 27.9453c0 1.2977 1.7664 5.6435 1.7664 5.6435"/><path d="m31.014 23.1028c-.799 1.4019-1.23 2.2794-3.3979 1.7565"/><path d="m15.6983 22.7563c.2737.8231.3289 2.3649 2.8247 1.9725"/></g></svg>