<svg viewBox="0 0 48 48" xmlns="http://www.w3.org/2000/svg"><g fill="none" stroke="#000" stroke-linecap="round" stroke-linejoin="round"><path d="m40.5 5.5h-33a2 2 0 0 0 -2 2v33a2 2 0 0 0 2 2h33a2 2 0 0 0 2-2v-33a2 2 0 0 0 -2-2z"/><path d="m17.4 25.1807a3.4508 3.4508 0 1 0 -6.9 0v2.293a3.4508 3.4508 0 1 0 6.9 0"/><path d="m17.3998 31.0021v-14.1108"/><path d="m20.7184 25.2263a3.4508 3.4508 0 1 1 6.9 0v2.293a3.4508 3.4508 0 1 1 -6.9 0"/><path d="m20.7184 31.0466v-14.1108"/><path d="m37.5 27.5809a3.4508 3.4508 0 1 1 -6.9 0v-2.2929a3.4508 3.4508 0 1 1 6.9 0"/><path d="m37.5 31.1078v-9.3483"/></g></svg>