<svg viewBox="0 0 48 48" xmlns="http://www.w3.org/2000/svg"><g fill="none" stroke="#000" stroke-linecap="round" stroke-linejoin="round"><path d="m42.5 32.6744v-25.6154a1.8974 1.8974 0 0 0 -1.8974-1.8974h-33.2052a1.8974 1.8974 0 0 0 -1.8974 1.8974v25.6154a1.8975 1.8975 0 0 0 1.8974 1.8975h33.2052a1.8975 1.8975 0 0 0 1.8974-1.8975z"/><path d="m11.6667 26.9821v-15.1795h2.4666a7.6122 7.6122 0 0 1 7.59 7.59 7.6121 7.6121 0 0 1 -7.59 7.59z"/><path d="m32.56 19.2406a3.5695 3.5695 0 1 1 .0025 7.1389h-5.892v-14.2782h5.89a3.57 3.57 0 0 1 0 7.139z"/><path d="m32.5601 19.2403h-5.8896"/><path d="m11.6667 26.9821v-15.1795h2.4666a7.6122 7.6122 0 0 1 7.59 7.59 7.6121 7.6121 0 0 1 -7.59 7.59z"/><path d="m32.56 19.2406a3.5695 3.5695 0 1 1 .0025 7.1389h-5.892v-14.2782h5.89a3.57 3.57 0 0 1 0 7.139z"/><path d="m32.5601 19.2403h-5.8896"/><path d="m23.9609 42.0383a1.5664 1.5664 0 0 1 -1.3735.8 1.6128 1.6128 0 0 1 -1.6158-1.6v-1.04a1.6129 1.6129 0 0 1 1.6158-1.6 1.613 1.613 0 0 1 1.6159 1.6v.56h-3.2317"/><path d="m26.289 36.998v5.006a.7975.7975 0 0 0 .8536.8344h.256"/><path d="m25.4355 38.4163h1.7924"/><path d="m15.7783 40.085a1.6933 1.6933 0 0 1 1.7071-1.6687 1.6933 1.6933 0 0 1 1.7071 1.6687v1.085a1.6932 1.6932 0 0 1 -1.7071 1.6687 1.6932 1.6932 0 0 1 -1.7071-1.6687"/><path d="m15.7783 42.8384v-6.6748"/><path d="m32.2217 41.17a1.6932 1.6932 0 0 1 -1.7071 1.6687 1.6932 1.6932 0 0 1 -1.7071-1.6687v-1.085a1.6933 1.6933 0 0 1 1.7071-1.6687 1.6933 1.6933 0 0 1 1.7071 1.6687"/><path d="m32.2217 42.8384v-4.4221"/></g></svg>