<svg viewBox="0 0 48 48" xmlns="http://www.w3.org/2000/svg"><g fill="none" stroke="#000" stroke-linecap="round" stroke-linejoin="round"><path d="m43.5112 22.9421-10.8729 1.8634c-5.0423.8641-6.964 2.091-6.964 2.091l-1.6543-2.363c1.9264-2.88 5.7062-5.6431 9.3088-5.1458l10.1826 1.4056v-3.5586s-20.47-6.929-26.0042-4.1837c-8.0958 4.0163-10.9635 8.9171-12.8791 18.949-.96 5.0269 3.3066 10.9752 38.8831-3.4426z"/><path d="m4.52 32.8684c.2684 2.75 8.3532 2.5628 10.9742 1.6053 3.5488-1.2965 9.0176-5.842 17.1445-7.491l10.8729-2.2062"/><path d="m9.092 19.8662c-1.1324 3.3721.5268 3.4423 3.9854 3.49 8.609.118 15.0316-8.4233 8.7261-8.3872l-7.6772.0441"/><path d="m6.9321 31.8962 1.3942-3.75h.6093a1.2626 1.2626 0 0 1 1.178 1.875 3.0066 3.0066 0 0 1 -2.5721 1.875z"/><path d="m13.215 29.9836a.5937.5937 0 0 1 .5539.8818 1.4138 1.4138 0 0 1 -1.21.8818h-1.455l1.3117-3.5272h1.455a.5938.5938 0 0 1 .554.8818 1.4138 1.4138 0 0 1 -1.2096.8818z"/><path d="m13.2145 29.9833h-1.2307"/></g></svg>