<svg viewBox="0 0 48 48" xmlns="http://www.w3.org/2000/svg"><g fill="none" stroke="#000" stroke-linecap="round" stroke-linejoin="round"><path d="m38.8987 15.8314a2.2734 2.2734 0 0 1 .6945 1.5387c0 2.8708-6.9814 5.1979-15.5933 5.1979s-15.5932-2.3272-15.5932-5.198 6.9814-5.1978 15.5933-5.1978a42.0315 42.0315 0 0 1 7.5848.6553"/><path d="m8.4745 17.8561a5.8521 5.8521 0 0 0 .7068 3.8253 1.11 1.11 0 0 1 .1714.6435m-.2819 12.25c2.2158 2.9434 5.961 4.3893 14.9289 4.3893"/><path d="m10.9112 36.3861a3.3026 3.3026 0 0 0 -1.3389 2.213c.0207 1.2091-1.8847 1.49-1.5683 2.3549a2.1585 2.1585 0 0 0 2.4075 1.546c1.5867 0 1.7648-1.3787 1.8045-2.0837s1.6278-.8265 1.7206-2.5638"/><path d="m23.8535 22.5671s-.3248 2.9022.9381 3.0518c1.28.1516.96 3.2275 1.4375 4.3122.9486 2.1565 3.0779-1.1572 3.0739-3.8982-.004-2.6954.6961-1.1677.9443-3.9"/><path d="m37.0883 36.3861a3.3023 3.3023 0 0 1 1.3388 2.213c-.0207 1.2091 1.8847 1.49 1.5683 2.3549a2.1584 2.1584 0 0 1 -2.4075 1.546c-1.5868 0-1.7648-1.3787-1.8044-2.0837s-1.6279-.8265-1.7206-2.5638"/><path d="m9.8453 19.5512c1.1678-2.2435 7.06-3.95 14.1546-3.95a38.753 38.753 0 0 1 7.0906.62m6.2441 2.371a3.2307 3.2307 0 0 1 .8047.9306"/><path d="m32.6741 17.86s4.1577-12.2379 7.6236-12.3575 1.6729 4.1432.2317 5.3038-5.3886 8.22-5.3886 8.22a1.72 1.72 0 0 1 -2.4667-1.1658z"/><path d="m39.5251 17.8561a5.8521 5.8521 0 0 1 -.7068 3.8253 1.11 1.11 0 0 0 -.1714.6435m.2819 12.25c-2.2158 2.9437-5.961 4.3896-14.9288 4.3896"/><ellipse cx="39.3302" cy="28.2594" rx="2.9791" ry="3.9135" transform="matrix(.91569767 -.40186787 .40186787 .91569767 -8.0409 18.1879)"/><ellipse cx="8.6698" cy="28.26" rx="3.9135" ry="2.9791" transform="matrix(.40185988 -.91570117 .91570117 .40185988 -20.6919 24.8424)"/></g></svg>