<svg viewBox="0 0 48 48" xmlns="http://www.w3.org/2000/svg"><g fill="none" stroke="#000" stroke-linecap="round" stroke-linejoin="round"><path d="m40.5 5.5h-33a2 2 0 0 0 -2 2v33a2 2 0 0 0 2 2h33a2 2 0 0 0 2-2v-33a2 2 0 0 0 -2-2z"/><path d="m16.35 24h11.3a6.75 6.75 0 0 0 6.74-6.75 6.75 6.75 0 0 0 -6.74-6.75h-14l2.74 2.85"/><path d="m16.35 24h11.3a6.75 6.75 0 0 1 6.74 6.75 6.75 6.75 0 0 1 -6.74 6.75h-11.3"/><path d="m16.35 10.5h-2.74l2.74 2.85"/><path d="m16.35 24h-2.74l2.74 2.85"/><path d="m16.35 24v-10.65"/><path d="m16.35 37.5h-2.74l2.74-2.85v-7.8"/></g></svg>