<svg viewBox="0 0 48 48" xmlns="http://www.w3.org/2000/svg"><g fill="none" stroke="#000" stroke-linecap="round" stroke-linejoin="round"><path d="m17.2423 36.02a2.67 2.67 0 0 0 -.5926 1.691 2.7086 2.7086 0 0 0 2.7086 2.709"/><path d="m19.3583 7.58a2.7073 2.7073 0 0 0 -2.2517 4.2124 9.8889 9.8889 0 0 0 -7.64 9.6249v9.3034l-2.5479 2.0657a1.82 1.82 0 0 0 1.1463 3.2336h11.2933"/><path d="m10.9983 9.421a15.8161 15.8161 0 0 0 -6.4983 10.465"/><path d="m19.3583 7.5801v32.8398"/><path d="m19.3583 26.128a7.8313 7.8313 0 0 0 0-15.6626"/><path d="m19.3583 29.131c7.34 0 12.4227 1.6281 15.2465 5.43a2.5669 2.5669 0 0 1 .475 1.5331v2.6459a1.68 1.68 0 0 1 -1.68 1.68h-14.0415"/><path d="m33.6289 23.457a9.9022 9.9022 0 0 0 0-10.32"/><path d="m39.9174 28.4973a16.3132 16.3132 0 0 0 0-20.4012"/></g></svg>