<svg viewBox="0 0 48 48" xmlns="http://www.w3.org/2000/svg"><g fill="none" stroke="#000" stroke-linecap="round" stroke-linejoin="round"><path d="m16.58 33.2946a6.61 6.61 0 0 0 1.8783 1.692m10.2578-10.3014a5.9271 5.9271 0 0 0 -2.7646-.6852h-3.903a5.9538 5.9538 0 0 1 -5.9429-5.9538 5.9539 5.9539 0 0 1 5.9429-5.9539h3.5282a6.6155 6.6155 0 0 1 5.8433 2.6131"/><path d="m24 12.0923v-2.9769"/><circle cx="24" cy="24" r="21.5"/><path d="m11.72 41.6772 29.9736-29.7879"/><path d="m27.3077 37.7821h6.6154"/><path d="m27.3077 33.0358v1.99h1.99l8.5323-8.5328-1.99-1.99z"/><path d="m37.83 26.493 2.08-2.08-1.99-1.99-2.08 2.08"/></g></svg>