<svg viewBox="0 0 48 48" xmlns="http://www.w3.org/2000/svg"><path d="m11.89 18.9441 2.7907 24.5559h20.0912l2.79-24.5559z" fill="none" stroke="#000" stroke-linecap="round" stroke-linejoin="round"/><path d="m37.5624 18.9441-20.5759-14.4441" fill="none" stroke="#000" stroke-linecap="round" stroke-miterlimit="4.75"/><path d="m14.2526 13.747a.75.75 0 1 1 1.0607 0 .75.75 0 0 1 -1.0607 0z"/><path d="m18.0745 17.5689a.75.75 0 1 1 1.0606 0 .75.75 0 0 1 -1.0606 0z"/><g fill="none" stroke="#000" stroke-linecap="round" stroke-linejoin="round"><path d="m21.5164 18.9443a6.6219 6.6219 0 0 0 -1.44-7.2066 6.62 6.62 0 0 0 -9.362 0 .945.945 0 0 0 0 1.3364l5.87 5.87"/><path d="m16.734 6.9958-.2355 2.8952"/><path d="m24.8183 15.0802-2.8952.2354"/></g></svg>