<svg viewBox="0 0 48 48" xmlns="http://www.w3.org/2000/svg"><g fill="none" stroke="#000" stroke-linecap="round" stroke-linejoin="round"><path d="m10.5 43.5h27a2 2 0 0 0 2-2v-35a2 2 0 0 0 -2-2h-27a2 2 0 0 0 -2 2v35a2 2 0 0 0 2 2z"/><path d="m11.5327 7.9626h24.9346v6.5748h-24.9346z"/><path d="m11.8937 17.6391h5.2781v6h-5.2781z" transform="matrix(0 1 -1 0 35.1718 6.1064)"/><path d="m11.8937 25.9674h5.2781v6h-5.2781z" transform="matrix(0 1 -1 0 43.5001 14.4346)"/><path d="m11.8937 34.2956h5.2781v6h-5.2781z" transform="matrix(0 1 -1 0 51.8283 22.7629)"/><path d="m21.3609 17.6391h5.2781v6h-5.2781z" transform="matrix(0 1 -1 0 44.6391 -3.3609)"/><path d="m21.3609 25.9674h5.2781v6h-5.2781z" transform="matrix(0 1 -1 0 52.9674 4.9674)"/><path d="m21.3609 34.2956h5.2781v6h-5.2781z" transform="matrix(0 1 -1 0 61.2956 13.2956)"/><path d="m30.8282 17.6391h5.2781v6h-5.2781z" transform="matrix(0 1 -1 0 54.1064 -12.8282)"/><path d="m30.8282 25.9674h5.2781v6h-5.2781z" transform="matrix(0 1 -1 0 62.4346 -4.4999)"/><path d="m30.8282 34.2956h5.2781v6h-5.2781z" transform="matrix(0 1 -1 0 70.7629 3.8283)"/><path d="m30.8411 11.2447h-2.028"/><path d="m32.996 10.407 1.13-.662v3"/></g></svg>