<svg viewBox="0 0 48 48" xmlns="http://www.w3.org/2000/svg"><g fill="none" stroke="#000" stroke-linecap="round" stroke-linejoin="round"><path d="m32.509 25.448-8.536-4.928-8.482 4.898 8.536 4.928z"/><path d="m15.491 25.418v9.825l8.536 4.928 8.482-4.897v-9.826"/><path d="m4.5 19.072v9.825l8.536 4.928 2.455-1.417"/><path d="m32.509 32.377 2.509 1.448 8.482-4.897v-9.825"/><path d="m43.5 19.103-8.536-4.928-8.482 4.897 8.536 4.928z"/><path d="m21.518 19.103-8.536-4.928-8.482 4.897 8.536 4.928z"/><path d="m32.509 12.757-8.536-4.928-8.482 4.897 8.536 4.928z"/><path d="m32.5091 12.7571v2.835"/><path d="m15.4909 12.7263v2.8658"/><path d="m26.4819 19.0719v2.8966"/><path d="m21.5181 19.1027v2.8658"/></g></svg>