<svg viewBox="0 0 48 48" xmlns="http://www.w3.org/2000/svg"><g fill="none" stroke="#000" stroke-linecap="round" stroke-linejoin="round"><path d="m8.36 21.28h31.28a2.85 2.85 0 0 1 2.86 2.86v15.52a2.86 2.86 0 0 1 -2.86 2.86h-31.28a2.86 2.86 0 0 1 -2.86-2.86v-15.52a2.85 2.85 0 0 1 2.86-2.86z"/><path d="m39.64 21.28v-4.28a1 1 0 0 0 -1-1h-29.28a1 1 0 0 0 -1 1v4.27"/><path d="m37.38 16v-4.25a1 1 0 0 0 -1-1h-24.76a1 1 0 0 0 -1 1v4.25"/><path d="m34.75 10.75v-4.27a1 1 0 0 0 -1-1h-19.5a1 1 0 0 0 -1 1v4.27"/></g></svg>