<svg viewBox="0 0 48 48" xmlns="http://www.w3.org/2000/svg"><g fill="none" stroke="#000" stroke-linecap="round" stroke-linejoin="round"><path d="m27.88 13.75v2.13h-8.09v-2.13m0 2.13h-3.23a1.85 1.85 0 0 0 -1.86 1.86v14.26a1.86 1.86 0 0 0 1.86 1.86h14.44a1.86 1.86 0 0 0 1.84-1.86v-14.26a1.85 1.85 0 0 0 -1.84-1.86h-3.1m-4.11 2.57a3.23 3.23 0 0 1 0 6.46c-4.31 0-4.31-6.46 0-6.46zm0 8.32c3.38 0 6.08.79 6.08 1.74v2.42h-12.18v-2.42c0-1 2.7-1.74 6.08-1.74zm0-.68"/><path d="m33.09 10.55a16.24 16.24 0 0 0 -25.33 13.45"/><path d="m14.92 37.46a16.23 16.23 0 0 0 25.31-13.46"/><path d="m9.04 24h2.82l-3.88 5.92-3.87-5.92h2.82z"/><path d="m39.18 24h-2.82l3.87-5.92 3.88 5.92h-2.82z"/></g></svg>