<svg viewBox="0 0 48 48" xmlns="http://www.w3.org/2000/svg"><g fill="none" stroke="#000" stroke-linecap="round" stroke-linejoin="round"><path d="m37.4956 11.9717-12.4615-7.1946a2.0679 2.0679 0 0 0 -2.0682 0l-12.4615 7.1946a2.0685 2.0685 0 0 0 -1.0344 1.7912v14.539a2.0682 2.0682 0 0 0 .8407 1.6645l18.0728 13.33a1.0342 1.0342 0 0 0 1.648-.8323v-7.6141a1.0343 1.0343 0 0 1 .5171-.8956l6.9468-4.0106a2.0683 2.0683 0 0 0 1.0346-1.7916v-14.3893a2.0685 2.0685 0 0 0 -1.0344-1.7912z"/><circle cx="31.3748" cy="21.5382" r="3.0932"/><circle cx="19.002" cy="15.3518" r="3.0932"/><circle cx="19.002" cy="27.7246" r="3.0932"/><path d="m21.7663 26.3424 4.2946-2.1473"/><path d="m21.7663 16.7339 6.8434 3.4218"/></g></svg>