<svg viewBox="0 0 48 48" xmlns="http://www.w3.org/2000/svg"><g fill="none" stroke="#000" stroke-linecap="round" stroke-linejoin="round"><path d="m15.24 43.49a9.66 9.66 0 0 1 2.41-11.93 9.5 9.5 0 0 1 12.09 0 9.66 9.66 0 0 1 2.4 11.93"/><path d="m20.66 29.89v-7"/><path d="m26.73 29.89v-23.21"/><path d="m26.73 25h2.51l1.55-1.57v-4.62"/><path d="m31.24 33.1 4.51-4.53v-18.32"/><path d="m16.16 33.09-3.82-3.79-.08-14.72"/><path d="m12.28 21.24h2.66l1.86-1.86v-9.63"/><ellipse cx="16.8" cy="8.66" rx="1.08" ry="1.09"/><ellipse cx="12.26" cy="13.48" rx="1.08" ry="1.09"/><ellipse cx="20.68" cy="21.79" rx="1.08" ry="1.09"/><ellipse cx="26.73" cy="5.59" rx="1.08" ry="1.09"/><ellipse cx="35.74" cy="9.15" rx="1.08" ry="1.09"/><ellipse cx="30.78" cy="17.72" rx="1.08" ry="1.09"/></g></svg>