<svg viewBox="0 0 48 48" xmlns="http://www.w3.org/2000/svg"><g fill="none" stroke="#000" stroke-linecap="round"><path d="m31.72 34.3237c-4.0666 4.0045-7.72 7.3792-7.72 7.3792s-3.5051-3.2377-7.47-7.1335l-3.1973-3.1929c-3.3451-3.4028-6.446-6.787-7.5147-8.638-2.6838-4.6485-1.2306-11.9452 4.0113-14.9713s11.9452-1.2304 14.1707 4.0115c2.2259-5.2419 8.9287-7.0379 14.1707-4.0115s6.6951 10.323 4.0115 14.9713a14.1017 14.1017 0 0 1 -1.0132 1.47l-2.129 2.4832" stroke-linejoin="round"/><path d="m22.5263 18.93h-10.4935m5.2472-5.2468v10.4936"/><path d="m30.7905 24.1082h-10.4935m5.2468-5.2468v10.4936"/><path d="m39.0548 29.2864h-10.4936m5.2468-5.2464v10.4932"/></g></svg>