<svg viewBox="0 0 48 48" xmlns="http://www.w3.org/2000/svg"><g fill="none" stroke="#000"><g stroke-linecap="round" stroke-linejoin="round"><path d="m38.3885 29.5961s-23.5585 1.3439-28.4636.6423"/><path d="m35.6724 29.7419c-.0281.0141-1.5258.6694 2.159 9.97"/><path d="m37.8312 39.7112s-9.6687 1.1313-15.0991 2.1505c-8.8018 1.6519-14.3716-.4242-14.3716-.4242a11.878 11.878 0 0 1 1.6714-7.9249 17.5291 17.5291 0 0 1 2.0181-3.1167"/><path d="m9.5245 34.4823s-2.9459-.0321-2.8785-4.41c.0692-4.5012 4.0619-1.7755 14.9369-2.6667 8.1657-.6692 19.4769-.8868 19.9765 1.2958 0 0 1.1526 5.0225-2.2937 4.9728s-3.2561.8081-3.2561.8081"/><path d="m7.1412 28.2018s-2.2823-13.8203-.7629-17.3318 8.0679-1.1216 11.5184-1.799 19.58-2.5271 21.8406.4377 2.8375 3.1513 2.109 12.2757c-.2263 5.9883-.2869 6.917-.2869 6.917"/><path d="m7.3229 9.6938s-.9872-3.9714 2.286-4.0083 6.5042-1.3344 5.8511 3.4925"/><path d="m24.4458 22.5222c-1.217.2571-4.492.67-4.9808-2.95-.5879-4.3541 6.5155-5.728 7.4434-1.6817.8 3.49-1.7483 4.4806-2.4626 4.6315z"/><path d="m26.8054 13.06c1.2964 1.0387 3.5007 2.6514 3.5 6.1021s-3.46 6.1214-5.9542 6.33c-2.4131.2018-7.3392-1.0345-7.5137-6.0648-.1426-4.107 1.5811-6.1061 4.6959-6.9539 2.2318-.6075 3.9754-.4522 5.2717.5866z"/><path d="m40.4364 10.42-6.819.5174a6.3174 6.3174 0 0 1 .2688 2.6389c-.1789.9713 8.067-.0381 8.067-.0381"/></g><path d="m21.9439 30.3325-.21-2.9409"/><path d="m27.36 27.3917.2545 2.9319"/><path d="m20.71 12.7372-.116-4.08"/><path d="m26.8054 13.06-.7429-4.9552"/><circle cx="10.7862" cy="23.7124" r="1.5281" stroke-linecap="round" stroke-linejoin="round"/><circle cx="37.7172" cy="23.7124" r="1.5281" stroke-linecap="round" stroke-linejoin="round"/></g></svg>