<svg viewBox="0 0 48 48" xmlns="http://www.w3.org/2000/svg"><g fill="none" stroke="#000" stroke-linecap="round" stroke-linejoin="round"><path d="m18.9928 19.8598h10v10h-10z"/><path d="m44.4928 19.86h-4.25a16.8821 16.8821 0 0 0 -2.3-4.707l2.1319-2.133a.7566.7566 0 0 0 0-1.07l-3.1726-3.1722a.7564.7564 0 0 0 -1.07 0l-2.1364 2.1363a16.9772 16.9772 0 0 0 -4.703-2.2936v-4.2605a1 1 0 0 0 -1-1h-8a1 1 0 0 0 -1 1v4.2605a16.9772 16.9772 0 0 0 -4.703 2.2936l-2.1364-2.1363a.7564.7564 0 0 0 -1.07 0l-3.1725 3.1722a.7564.7564 0 0 0 0 1.07l2.1324 2.1324a16.8808 16.8808 0 0 0 -2.3 4.707h-4.25a1 1 0 0 0 -1 1v8a1 1 0 0 0 1 1h4.25a16.8808 16.8808 0 0 0 2.3 4.707l-2.1324 2.1328a.7564.7564 0 0 0 0 1.07l3.1726 3.1726a.7564.7564 0 0 0 1.07 0l2.1366-2.1363a16.9772 16.9772 0 0 0 4.703 2.2936v4.2609a1 1 0 0 0 1 1h8a1 1 0 0 0 1-1v-4.2609a16.9772 16.9772 0 0 0 4.703-2.2936l2.1364 2.1363a.7564.7564 0 0 0 1.07 0l3.1726-3.1726a.7566.7566 0 0 0 0-1.07l-2.1323-2.1324a16.8821 16.8821 0 0 0 2.3-4.707h4.25a1 1 0 0 0 1-1v-8a1 1 0 0 0 -.9999-.9998z"/></g></svg>