<svg viewBox="0 0 48 48" xmlns="http://www.w3.org/2000/svg"><g fill="none" stroke="#000" stroke-linecap="round" stroke-linejoin="round"><path d="m6 8a2 2 0 0 0 -2 2v28a2 2 0 0 0 2 2h36a2 2 0 0 0 2-2v-28a2 2 0 0 0 -2-2z"/><path d="m21.6 31.98h5.77"/><path d="m21.6 20.44h5.77"/><path d="m21.6 26.21h3.76"/><path d="m21.6 20.44v11.54"/><path d="m30.07 17.55 3.88 5.79-3.88 5.78"/><path d="m37.82 17.55-3.87 5.79 3.87 5.78"/><path d="m10.18 17.56h8.71"/><path d="m14.54 29.11v-11.55"/><path d="m18.89 17.56v1.56"/><path d="m10.18 17.56v1.56"/></g></svg>