<svg viewBox="0 0 48 48" xmlns="http://www.w3.org/2000/svg"><path d="m16.1 38.65c1.13 1.12 3.94-.57 2.82-1.69m10.08.04c-1.12 1.12 1.69 2.81 2.82 1.69m-9.57 2.81c.05 1.69 3.38 1.69 3.39 0m-10.53-9.92c-4-4.5-3.06-5.22.32-.17m17.1 0c3.38-5.05 4.32-4.33.33.17m7.3 6.63c-5.63-11.21-26.7-11.21-32.32 0m-5-10.61a21.48 21.48 0 0 1 42.32-7.33 21.4 21.4 0 0 1 -17.46 24.9 21.47 21.47 0 0 1 -24.87-17.34m7.08 7.37v-27m7.32 22.54v-27m6.77 26.03v-27.18m6.75 28.18v-27m7.32 31.46v-27" fill="none" stroke="#000" stroke-linecap="round" stroke-linejoin="round"/></svg>