<svg viewBox="0 0 48 48" xmlns="http://www.w3.org/2000/svg"><g fill="none" stroke="#000" stroke-linecap="round" stroke-linejoin="round"><path d="m28.5113 4.5h-18a2 2 0 0 0 -2 2v35a2 2 0 0 0 2 2h27a2 2 0 0 0 2-2v-26"/><path d="m28.5113 4.5 11 11"/><path d="m23.3513 33.354h4.874l-2.5121-9.3618a4.5551 4.5551 0 1 0 -3.4123-.0037l-2.5028 9.3655h4.874"/><path d="m8.7939 20.686h10.611m9.103 0h10.833"/><path d="m8.7285 23.786h13.1289m4.3563 0h12.9319"/><path d="m8.4887 27.107h12.728m5.406 0h12.611"/></g></svg>