<svg viewBox="0 0 48 48" xmlns="http://www.w3.org/2000/svg"><g fill="none" stroke="#000" stroke-linecap="round" stroke-linejoin="round"><path d="m11.35 33.7451c.76-6.0755 5.5206-11.65 5.5206-11.65a17.9655 17.9655 0 0 0 -2.3952.7011s1.5481-5.3161 5.93-6.8058c-1.6942-.73-2.2491-.9639-2.2491-.9639a25.0007 25.0007 0 0 1 7.5937-1.2265 3.28 3.28 0 0 1 3.1591 1.8529c3.3838.1042 6.7721 1.6522 4.9319 5.5079-.7594-1.7526-2.57-2.0155-5.024-1.6942"/><path d="m35.7216 34.6736c-1.35-4.0829-5.1191-7.613-7.1672-7.613-2.1565 0-1.6065 3.213-1.6065 3.213-.73-3.2422-1.1873-6.6385.555-8.3246 1.811-1.7526 3.71-1.5481 6.1365-1.18"/><rect height="31.6711" rx="4.5746" transform="matrix(.70710678 .70710678 -.70710678 .70710678 24 -9.9411)" width="31.6711" x="8.1644" y="8.1644"/><path d="m24 16.078c1.8088-.0585 2.7435-.0293 3.7658.5257"/><path d="m26.9475 16.2641s-.1363.82-.89.756c-.6864-.0585-.6727-.9595-.6727-.9595"/></g></svg>