<svg viewBox="0 0 48 48" xmlns="http://www.w3.org/2000/svg"><g fill="none" stroke="#000" stroke-linecap="round" stroke-linejoin="round"><path d="m24 5.5a18.5 18.5 0 0 1 18.5 18.5v16.5a2 2 0 0 1 -2 2h-33a2 2 0 0 1 -2-2v-16.5a18.5 18.5 0 0 1 18.5-18.5z"/><path d="m23.83 11.3838a13.4648 13.4648 0 0 1 13.4651 13.4648v17.6514a0 0 0 0 1 0 0h-26.93a0 0 0 0 1 0 0v-17.6514a13.4648 13.4648 0 0 1 13.4649-13.4648z"/><path d="m27.8188 28.922a5.29 5.29 0 0 1 5.29 5.29v8.288a0 0 0 0 1 0 0h-10.58a0 0 0 0 1 0 0v-8.2882a5.29 5.29 0 0 1 5.29-5.2898z"/><path d="m25.5457 20.4267a9.6359 9.6359 0 0 1 9.6359 9.6359v12.4374a0 0 0 0 1 0 0h-19.2716a0 0 0 0 1 0 0v-12.4374a9.6359 9.6359 0 0 1 9.6357-9.6359z"/></g></svg>