<svg viewBox="0 0 48 48" xmlns="http://www.w3.org/2000/svg"><g fill="none" stroke="#000" stroke-linecap="round" stroke-linejoin="round"><path d="m23.9972 4.5s-13.7278 17.6905-13.7278 25.2722a13.8806 13.8806 0 0 0 .0733 1.4186 1.9532 1.9532 0 1 1 1.3658 3.3484h-.0017a1.9552 1.9552 0 0 1 -.6257-.109 13.7293 13.7293 0 0 0 26.4489-2.3525 1.9533 1.9533 0 1 1 .0526-3.76c-1.4426-8.1684-13.5854-23.8177-13.5854-23.8177z"/><circle cx="16.9271" cy="26.3318" r="1.9551"/><circle cx="21.5919" cy="31.9788" r="1.9551"/><circle cx="27.6966" cy="20.248" r="1.9551"/><circle cx="31.1998" cy="33.5303" r="1.9551"/><path d="m13.16 31.2692 2.6547-3.3862"/><path d="m18.3135 27.8493 2.1344 2.6084"/><path d="m22.6976 30.3743 4.1737-8.3466"/><path d="m28.4042 22.2026 2.386 9.3508"/><path d="m33.0082 32.5447 2.1535-1.6647"/></g></svg>