<svg viewBox="0 0 48 48" xmlns="http://www.w3.org/2000/svg"><g fill="none" stroke="#000" stroke-linecap="round" stroke-linejoin="round"><path d="m8.4 6.5v35a2 2 0 0 0 2 2h2.33v-39h-2.33a2 2 0 0 0 -2 2z"/><path d="m12.73 4.5v39h24.87a2 2 0 0 0 2-2v-35a2 2 0 0 0 -2-2z"/><path d="m20.0566 27.982h4"/><path d="m20.0566 31.982h2.6"/><path d="m20.0566 27.982v8"/><path d="m27.0176 35.982v-8h2.6a2.7 2.7 0 0 1 0 5.4h-2.6"/><path d="m29.8074 33.3752 2.5102 2.6068"/><path d="m27.1176 19.218a2.3842 2.3842 0 0 0 2 .9h1.2a2.0059 2.0059 0 0 0 2-2 2.0059 2.0059 0 0 0 -2-2h-1.3a2.0059 2.0059 0 0 1 -2-2 2.0059 2.0059 0 0 1 2-2h1.2a2.1472 2.1472 0 0 1 2 .9"/><path d="m25.4566 17.418a2.6888 2.6888 0 0 1 -2.7 2.7 2.6888 2.6888 0 0 1 -2.7-2.7v-2.7a2.6888 2.6888 0 0 1 2.7-2.7 2.6057 2.6057 0 0 1 2.6 2.7"/></g></svg>