<svg viewBox="0 0 48 48" xmlns="http://www.w3.org/2000/svg"><g fill="none" stroke="#000" stroke-linecap="round" stroke-linejoin="round"><path d="m40.5 5.5h-33a2 2 0 0 0 -2 2v33a2 2 0 0 0 2 2h33a2 2 0 0 0 2-2v-33a2 2 0 0 0 -2-2z"/><path d="m10.11 35.28v-9.44h2.12a4.13 4.13 0 0 1 4.13 4.16v1.18a4.13 4.13 0 0 1 -4.13 4.13z"/><path d="m31.64 35.28v-9.44h2.12a4.13 4.13 0 0 1 4.13 4.16v1.18a4.13 4.13 0 0 1 -4.13 4.13z"/><path d="m26.26 29v7.08a2.36 2.36 0 0 1 -2.36 2.36 2.36 2.36 0 0 1 -1.67-.69"/><rect height="6.26" rx="2.36" transform="matrix(-1 0 0 -1 47.79 64.31)" width="4.72" x="21.54" y="29.03"/></g><circle cx="18.95" cy="26.13" r=".75"/><path d="m18.95 29.03v6.25" fill="none" stroke="#000" stroke-linecap="round" stroke-linejoin="round"/><circle cx="29.01" cy="26.13" r=".75"/><path d="m29.01 29.03v6.25" fill="none" stroke="#000" stroke-linecap="round" stroke-linejoin="round"/></svg>