<svg viewBox="0 0 48 48" xmlns="http://www.w3.org/2000/svg"><g fill="none" stroke="#000" stroke-linecap="round" stroke-linejoin="round"><path d="m8.8222 30.0982.6793-3.0272-2.3289-2.05 1.5815-2.6691-1.5815-2.669 2.3289-2.05-.6793-3.0272 2.8483-1.23.2894-3.0889 3.0889-.29 1.23-2.8483 3.0271.6793 2.0497-2.3278 2.6691 1.5815 2.6691-1.5815 2.05 2.3289 3.0269-.6789 1.23 2.8483 3.0888.29.29 3.0889 2.8483 1.23-.6793 3.0272 2.3289 2.05-1.5815 2.669 1.5815 2.6691-2.3289 2.05.6793 3.0272"/><path d="m24.0244 8.6837-4.601 6.7141-7.8068 2.3015 4.9634 6.4507-.2237 8.1365 7.6681-2.7265 7.6684 2.7271-.2238-8.1371 4.9631-6.4511-7.8067-2.3015z"/><path d="m11.7662 32.352s4.2272 4.5421 12.2584 4.5421 12.2635-4.5985 12.2635-4.5985"/><path d="m19.2494 41.3234a21.81 21.81 0 0 1 -13.8794-9.3229l2.2286.8793-.2294-2.2012s3.4275 6.362 13.01 8.38c1.71.5832.103 2.4851-1.13 2.2646z"/><path d="m10.5927 34.3855 1.1737-2.0331s4.2272 4.5421 12.2584 4.5421 12.2092-4.5421 12.2092-4.5421"/><path d="m19.2494 41.3234a21.81 21.81 0 0 1 -13.8794-9.3229l2.2286.8793-.2294-2.2012s3.4275 6.362 13.01 8.38c1.71.5832.103 2.4851-1.13 2.2646z"/><path d="m10.5927 34.3855 1.1737-2.0331s4.2272 4.5421 12.2584 4.5421"/><path d="m19.2494 41.3234a21.81 21.81 0 0 1 -13.8794-9.3229l2.2286.8793-.2294-2.2012s3.4275 6.362 13.01 8.38c1.71.5832.103 2.4851-1.13 2.2646z"/><path d="m37.4073 34.3855-1.1737-2.0331"/><path d="m28.7506 41.3234a21.81 21.81 0 0 0 13.88-9.3229l-2.2286.8793.2294-2.2012s-3.4275 6.362-13.01 8.38c-1.71.5832-.103 2.4851 1.13 2.2646z"/><circle cx="24.0246" cy="21.6536" r="4.7882"/><path d="m20.3789 39.0582a18.279 18.279 0 0 0 7.2424 0"/><path d="m24.0246 29.56v12.94"/><path d="m19.7813 34.0872h8.4865"/><circle cx="24.0246" cy="21.6536" r="7.7256"/></g></svg>