<svg viewBox="0 0 48 48" xmlns="http://www.w3.org/2000/svg"><g fill="none" stroke="#000" stroke-linecap="round" stroke-linejoin="round"><path d="m9.247 6.64c-.382.379-2.732 2.699-2.822 2.798h-.001a2.806 2.806 0 0 0 -.733 1.894v28.354a2.8154 2.8154 0 0 0 2.814 2.814h30.99a2.8154 2.8154 0 0 0 2.814-2.814v-28.354a2.806 2.806 0 0 0 -.733-1.894h-.001c-.09-.099-2.46-2.401-2.822-2.798a3.2369 3.2369 0 0 0 -2.387-1.14h-24.732a3.4169 3.4169 0 0 0 -2.387 1.14z"/><path d="m5.784 10.612h36.432"/><path d="m27.866 24.244h7.178l-11.044 11.045-11.044-11.045h7.178v-4.283h7.732z"/></g></svg>