<svg viewBox="0 0 48 48" xmlns="http://www.w3.org/2000/svg"><g fill="none" stroke="#000" stroke-linecap="round" stroke-linejoin="round"><path d="m17.59 34.1733c-.89 1.3069-1.8944 2.6152-2.91 3.8267-7.38-.21-10.18-5-10.18-5a44.83 44.83 0 0 1 4.81-19.52 16.47 16.47 0 0 1 9.38-3.48l1 2.31a32.6875 32.6875 0 0 1 4.31-.31 32.9643 32.9643 0 0 1 4.33.3l1-2.31a16.47 16.47 0 0 1 9.38 3.51 44.8292 44.8292 0 0 1 4.79 19.5s-2.8 4.79-10.18 5a47.4193 47.4193 0 0 1 -2.86-3.81m6.46-2.9c-3.84 1.9454-7.5555 3.89-12.92 3.89s-9.08-1.9446-12.92-3.89"/><circle cx="17.847" cy="26.23" r="3.35"/><circle cx="30.153" cy="26.23" r="3.35"/></g></svg>