<svg viewBox="0 0 48 48" xmlns="http://www.w3.org/2000/svg"><g fill="none" stroke="#000" stroke-linecap="round" stroke-linejoin="round"><path d="m17.54 34.22a47.42 47.42 0 0 1 -2.86 3.78c-7.38-.21-10.18-5-10.18-5a44.83 44.83 0 0 1 4.81-19.52 16.47 16.47 0 0 1 9.38-3.48l1 2.31"/><path d="m17.85 22.67a3.48 3.48 0 0 0 -3.37 3.9 3.38 3.38 0 0 0 3.31 3.22 3.53 3.53 0 0 0 3.43-3.9 3.45 3.45 0 0 0 -3.37-3.22z"/><path d="m12.2 14.37a28.19 28.19 0 0 1 8.16-2.18 23.26 23.26 0 0 1 3.64-.19 23.26 23.26 0 0 1 3.64.21 28.19 28.19 0 0 1 8.16 2.18m-7.47-2.09 1-2.31a16.47 16.47 0 0 1 9.38 3.51 44.83 44.83 0 0 1 4.79 19.5s-2.8 4.79-10.18 5a47.42 47.42 0 0 1 -2.86-3.81m6.46-2.9a29.63 29.63 0 0 1 -8.64 3.49 21.25 21.25 0 0 1 -4.28.4 21.25 21.25 0 0 1 -4.28-.4 29.63 29.63 0 0 1 -8.64-3.49"/><path d="m30.15 22.67a3.48 3.48 0 0 1 3.37 3.9 3.38 3.38 0 0 1 -3.31 3.22 3.53 3.53 0 0 1 -3.43-3.9 3.45 3.45 0 0 1 3.37-3.22z"/></g></svg>