<svg viewBox="0 0 48 48" xmlns="http://www.w3.org/2000/svg"><circle cx="32.9489" cy="37.1196" r=".7502" transform="matrix(.64109608 -.76746063 .76746063 .64109608 -16.6624 38.6093)"/><g fill="none" stroke="#000" stroke-linecap="round" stroke-linejoin="round"><path d="m32.8854 32.8862-.0559 1.3102"/><path d="m23.5467 17.6081a9.7212 9.7212 0 0 1 3.0181-6.871 9.7792 9.7792 0 0 1 7.3652-2.3087 9.8954 9.8954 0 0 1 9.5624 10.0372 9.7208 9.7208 0 0 1 -3.0181 6.871c-2.3411 1.65-7.4392 4.0557-7.607 7.9864"/><path d="m4.77 15.7705a5.6116 5.6116 0 1 1 10.6844-3.4359"/><path d="m21.8217 32.2315a5.6116 5.6116 0 1 1 -10.6844 3.4358l-6.3673-19.8968"/><path d="m15.4542 12.3346 6.3675 19.8969"/><path d="m18.638 22.283-10.6844 3.4359"/></g></svg>