<svg viewBox="0 0 48 48" xmlns="http://www.w3.org/2000/svg"><g fill="none" stroke="#000" stroke-linecap="round" stroke-linejoin="round"><ellipse cx="12" cy="11.977" rx="6.5" ry="6.5125"/><path d="m13.0607 10.9143 1.7752-1.7786"/><path d="m13.0606 13.0397 5.1946 5.2045"/><circle cx="12" cy="11.977" r="1.5"/><path d="m9.1641 14.8183 1.7754-1.7788"/><ellipse cx="36" cy="11.977" rx="6.5" ry="6.5125"/><path d="m37.0607 13.0397 1.7752 1.7786"/><path d="m34.9394 13.0397-5.1946 5.2045"/><circle cx="36" cy="11.977" r="1.5"/><path d="m33.1641 9.1357 1.7754 1.7787"/><ellipse cx="36" cy="36.023" rx="6.5" ry="6.5125"/><path d="m34.9393 37.0857-1.7752 1.7786"/><path d="m34.9394 34.9603-5.1946-5.2045"/><circle cx="36" cy="36.023" r="1.5"/><path d="m38.8359 33.1817-1.7754 1.7788"/><ellipse cx="12" cy="36.023" rx="6.5" ry="6.5125"/><path d="m10.9393 34.9603-1.7752-1.7786"/><path d="m13.0606 34.9603 5.1946-5.2045"/><circle cx="12" cy="36.023" r="1.5"/><path d="m14.8359 38.8643-1.7754-1.7787"/><path d="m18.2552 18.2442a33.4327 33.4327 0 0 0 11.4894 0l-.0057.0324a33.4355 33.4355 0 0 0 0 11.4468l.0057.0324a33.4327 33.4327 0 0 0 -11.4894 0l.0057-.0324a33.4355 33.4355 0 0 0 0-11.4468z"/></g></svg>