<svg viewBox="0 0 48 48" xmlns="http://www.w3.org/2000/svg"><g fill="none" stroke="#000" stroke-linecap="round" stroke-linejoin="round"><path d="m29.7 29.54v-11.12"/><path d="m29.7 18.42h4.68a2.79 2.79 0 0 1 2.79 2.79 2.79 2.79 0 0 1 -2.79 2.79h-4.68"/><path d="m29.7 24h4.68a2.79 2.79 0 0 1 2.79 2.79 2.79 2.79 0 0 1 -2.79 2.79h-4.68"/><path d="m10.83 29.58v-11.16h1.89a5.58 5.58 0 0 1 5.58 5.58 5.58 5.58 0 0 1 -5.58 5.58z"/><path d="m21.22 18.42v11.15"/><path d="m22.66 23.99 4.12-5.54"/><path d="m22.66 23.99 4.12 5.59"/><path d="m22.66 23.99h-1.44"/><rect height="37" rx="2" width="37" x="5.5" y="5.5"/></g></svg>