<svg viewBox="0 0 48 48" xmlns="http://www.w3.org/2000/svg"><g fill="none" stroke="#000" stroke-linecap="round" stroke-linejoin="round"><path d="m29.7 38.4v-11.2"/><path d="m29.7 27.2h4.7a2.8 2.8 0 0 1 2.8 2.8 2.8 2.8 0 0 1 -2.8 2.8h-4.7"/><path d="m29.7 32.8h4.7a2.8 2.8 0 0 1 2.8 2.8 2.8 2.8 0 0 1 -2.8 2.8h-4.7"/><path d="m10.8 38.4v-11.2h1.9a5.59 5.59 0 0 1 5.6 5.6 5.59 5.59 0 0 1 -5.6 5.6z"/><path d="m21.2 27.2v11.2"/><path d="m22.7 32.8 4.1-5.5"/><path d="m22.7 32.8 4.1 5.6"/><path d="m22.7 32.8h-1.5"/><path d="m7.5 5.5h33a2 2 0 0 1 2 2v33a2 2 0 0 1 -2 2h-33a2 2 0 0 1 -2-2v-33a2 2 0 0 1 2-2z"/><path d="m27.9 14.3h-.6v-2.1a3.8 3.8 0 0 0 -7.6 0v2.1h-.6a1.37 1.37 0 0 0 -1.4 1.4v7.3a1.37 1.37 0 0 0 1.4 1.4h8.8a1.37 1.37 0 0 0 1.4-1.4v-7.3a1.5 1.5 0 0 0 -1.4-1.4zm-8.2 0h7.5"/></g></svg>