<svg viewBox="0 0 48 48" xmlns="http://www.w3.org/2000/svg"><g fill="none" stroke="#000" stroke-linecap="round" stroke-linejoin="round"><path d="m10.489 37.274h27.023"/><path d="m10.489 42.5h27.023"/><path d="m11.217 34.831s-11.566-11.788-.788-13.693"/><path d="m17.491 34.831s-9.3248-10.064-6.451-15.803 11.009-2.7485 12.959.59"/><path d="m20.936 16.961s-.1084-3.28 3.064-3.28v-2.151"/><path d="m24 8.54v-3.04"/><path d="m19.404 9.9983h3.0207"/><path d="m37.511 39.887h-27.023"/><path d="m36.783 34.831s11.566-11.788.788-13.693"/><path d="m30.509 34.831s9.3248-10.064 6.451-15.803-11.009-2.7485-12.959.59"/><path d="m27.064 16.961s.1084-3.28-3.064-3.28v-2.151"/><path d="m24 8.54v-3.04"/><path d="m28.596 9.9983h-3.0207"/><path d="m24 19.618v15.213"/></g></svg>