<svg viewBox="0 0 48 48" xmlns="http://www.w3.org/2000/svg"><g fill="none" stroke="#000" stroke-linecap="round" stroke-linejoin="round"><rect height="37" rx="2" width="37" x="5.5" y="5.5"/><path d="m10.91 22.15v-10.65h1.73a5.32 5.32 0 0 1 5.36 5.33 5.32 5.32 0 0 1 -5.32 5.32z"/><path d="m20.47 11.5v10.65"/><path d="m27.53 22.15v-10.65"/><path d="m20.47 11.5 7.06 10.65"/><circle cx="14.44" cy="32.97" r="3.53"/><path d="m17.65 27.15a3.44 3.44 0 0 0 -3-1.3h-.24a3.53 3.53 0 0 0 -3.53 3.53v3.62"/><circle cx="24" cy="32.97" r="3.53"/><path d="m27.22 27.15a3.46 3.46 0 0 0 -3-1.3h-.22a3.53 3.53 0 0 0 -3.53 3.53v3.62"/><path d="m30.25 21a3 3 0 0 0 2.61 1.17h1.58a2.66 2.66 0 0 0 2.65-2.66 2.66 2.66 0 0 0 -2.65-2.66h-1.75a2.67 2.67 0 0 1 -2.69-2.69 2.66 2.66 0 0 1 2.65-2.66h1.58a3 3 0 0 1 2.61 1.17"/></g></svg>