<svg viewBox="0 0 48 48" xmlns="http://www.w3.org/2000/svg"><g fill="none" stroke="#000" stroke-linecap="round" stroke-linejoin="round"><path d="m8.9747 24.9625v-10.8458h1.7625a5.4388 5.4388 0 0 1 5.4228 5.4233 5.4388 5.4388 0 0 1 -5.4228 5.4229z"/><path d="m20.407 24.962v-10.845l7.186 10.845v-10.845"/><path d="m31.9755 23.7423a3.2324 3.2324 0 0 0 2.7115 1.22h1.6268a2.7194 2.7194 0 0 0 2.7115-2.7114 2.7194 2.7194 0 0 0 -2.7115-2.7109h-1.7624a2.7194 2.7194 0 0 1 -2.7114-2.7119 2.7193 2.7193 0 0 1 2.7114-2.7114h1.6269a2.911 2.911 0 0 1 2.7114 1.22"/><path d="m15.567 33.8833h1.6107"/><path d="m15.567 28.5143h1.6107"/><path d="m16.3724 28.5143v5.369"/><path d="m19.3434 33.8833v-5.369h1.7449a1.812 1.812 0 1 1 0 3.624h-1.7449"/><path d="m27.214 30.326-1.343 3.557-1.342-3.557"/><circle cx="30.6209" cy="32.0712" r="1.812"/><path d="m32.2316 29.1183a1.6481 1.6481 0 0 0 -1.4764-.6712h-.1343a1.8045 1.8045 0 0 0 -1.812 1.8121v1.812"/><circle cx="24" cy="24" r="21.5"/></g></svg>