<svg viewBox="0 0 48 48" xmlns="http://www.w3.org/2000/svg"><g fill="none" stroke="#000" stroke-linecap="round" stroke-linejoin="round"><path d="m24 4.5s-11.26 2-15.25 2v20a11.16 11.16 0 0 0 .8 4.1 15 15 0 0 0 2 3.61 22 22 0 0 0 2.81 3.07 34.47 34.47 0 0 0 3 2.48 34 34 0 0 0 2.89 1.86c1 .59 1.71 1 2.13 1.19l1 .49a1.44 1.44 0 0 0 1.24 0l1-.49c.42-.2 1.13-.6 2.13-1.19a34 34 0 0 0 2.89-1.86 34.47 34.47 0 0 0 3-2.48 22 22 0 0 0 2.81-3.07 15 15 0 0 0 2-3.61 11.16 11.16 0 0 0 .8-4.1v-20c-3.99.03-15.25-2-15.25-2z"/><circle cx="24" cy="22.14" r="11"/><path d="m32.38 29.25a17 17 0 0 0 -8.38-1.94 17 17 0 0 0 -8.38 1.94"/><path d="m15.62 15a17 17 0 0 0 8.38 2 17 17 0 0 0 8.38-2"/><ellipse cx="24" cy="22.14" rx="6.07" ry="11"/><path d="m24 11.14v22"/><path d="m13 22.14h22"/></g></svg>