<svg viewBox="0 0 48 48" xmlns="http://www.w3.org/2000/svg"><g fill="none" stroke="#000" stroke-linecap="round" stroke-linejoin="round"><path d="m16.64 18.75h14.72"/><path d="m16.64 14.99h14.72"/><path d="m16.64 11.23h14.72"/><path d="m16.64 7.47h14.72"/><path d="m33.75 25a2 2 0 0 0 -2-2h-15.5a2 2 0 0 0 -2 2"/><path d="m42 25h-8.25v-17.67a2.83 2.83 0 0 0 -2.83-2.83h-13.84a2.83 2.83 0 0 0 -2.83 2.83v17.67h-8.25a1.47 1.47 0 0 0 0 2.9h8.29v12.77a2.83 2.83 0 0 0 2.83 2.83h13.8a2.83 2.83 0 0 0 2.83-2.83v-12.77h8.25a1.47 1.47 0 0 0 0-2.9z"/></g></svg>