<svg viewBox="0 0 48 48" xmlns="http://www.w3.org/2000/svg"><g fill="none" stroke="#000" stroke-linecap="round" stroke-linejoin="round"><rect height="26" rx="1.8937" width="39" x="4.5" y="11"/><path d="m18.468 25.5364a4.4029 4.4029 0 0 0 -4.39-4.39 4.4029 4.4029 0 0 0 -4.39 4.39v2.8536a4.4029 4.4029 0 0 0 4.39 4.39 4.4029 4.4029 0 0 0 4.39-4.39"/><path d="m18.468 32.7798v-17.5598"/><path d="m21.4763 31.902a5.1889 5.1889 0 0 0 3.5119.878h.878a2.9056 2.9056 0 0 0 2.8538-2.8535 2.9055 2.9055 0 0 0 -2.8535-2.8534h-1.9757a2.9056 2.9056 0 0 1 -2.8535-2.8531 2.9056 2.9056 0 0 1 2.8535-2.8535h.8779c1.9755 0 2.8535.22 3.512.878"/><path d="m34.7999 22.5964v-3.951"/><path d="m34.7999 22.5964-2.4144 3.073"/><path d="m31.288 20.4014 3.5119 2.195"/><path d="m34.7999 22.5964 2.4145 3.073"/><path d="m38.3119 20.4014-3.512 2.195"/></g></svg>