<svg viewBox="0 0 48 48" xmlns="http://www.w3.org/2000/svg"><g fill="none" stroke="#000" stroke-linecap="round" stroke-linejoin="round"><path d="m16.1982 21.577s-.5473 7.4.0273 10.2893c.4964 2.4961 4.6247 4.2143 4.6247 4.2143v3.8311c-1.3408.1368-5.5 1.8061-7.0328 4.1093h18.4261c-1.5325-2.3032-5.692-3.9725-7.0329-4.1093v-3.8311s7.5709.1368 8.6655-4.2143a40.3272 40.3272 0 0 0 .5922-7.2738"/><path d="m20.85 38.1329a56.78 56.78 0 0 1 -6.4034-.5473c-1.7736-.341-8.538-.2189-8.538-15.3792 0-15.8171 10.4536-17.1854 17.459-17.1854 11.0009 0 16.4757 5.472 17.1486 12.6215.4615 4.9041-2.7 14.3606-4.1774 18.0276a5.5244 5.5244 0 0 1 -1.3683-1.9c-.8579.2739-1.6966 4.1435-1.6966 4.1435l-5.6373.4411-.81-2.3586"/><path d="m17.0191 13.2306a14.9959 14.9959 0 0 0 -2.6818 8.6474s3.01.4926 8.4285-5.09a4.4969 4.4969 0 0 1 1.5872.7717 7.98 7.98 0 0 0 .8576 5.96s6.0384-6.5129 6.5857-10.0157"/><path d="m37.9261 20.7287c-1.04.5473-4.5973 5.3635-4.5973 5.3635a17.3546 17.3546 0 0 1 0-4.7615s-.75-3.3619-3.0293-4.39"/><path d="m33.3288 21.3307c.1642-2.08 1.97-4.05 2.5176-5.1994"/><path d="m22.7658 16.7881a20.4637 20.4637 0 0 0 2.4448-4.4881"/><path d="m27.3221 33.8777c-1.1083 0-2.7912-.2463-3.53-1.4367"/><path d="m20.85 21.5164c2.4082 0 3.64.9089 3.64 4.3159s-1.56 4.0227-3.0375 4.0227-2.7092-.8679-2.7092-4.1693c-.0002-2.7268.7991-4.1693 2.1067-4.1693z"/><path d="m22.5606 21.8506c-1.2725.6158-1.4367 2.3339-1.4367 3.8351s-.1561 3.0258 1.03 4.1106"/><path d="m33.3 21.5164c-.6548.0059-2.3489.9363-2.2668 4.5758s1.6667 3.7412 2.1319 3.7041a1.1446 1.1446 0 0 0 1.1247-.7507"/><path d="m33.3287 26.0922a6.4813 6.4813 0 0 1 -.6692 3.7087"/><path d="m11.3271 16.1313a47.1075 47.1075 0 0 0 .7115 12.3687 16 16 0 0 0 3.6123 6.24 8.8791 8.8791 0 0 1 -9.1655-5.8073"/><path d="m37.9261 10.799a3.8668 3.8668 0 0 0 -3.4578.9539"/><path d="m20.85 38.7056a6.7136 6.7136 0 0 0 2.2132.6168 5.5038 5.5038 0 0 0 2.1472-.4626"/><path d="m33.1639 24a4.94 4.94 0 0 0 -.6744-2.1687"/></g></svg>