<svg viewBox="0 0 48 48" xmlns="http://www.w3.org/2000/svg"><g fill="none" stroke="#000" stroke-linecap="round" stroke-linejoin="round"><path d="m38.1818 11.5909h5.3182a0 0 0 0 1 0 0v24.8182a0 0 0 0 1 0 0h-5.3182a12.4091 12.4091 0 0 1 -12.4091-12.4091 12.4091 12.4091 0 0 1 12.4091-12.4091z"/><path d="m16.9091 11.5909h5.3182a0 0 0 0 1 0 0v24.8182a0 0 0 0 1 0 0h-5.3182a12.4091 12.4091 0 0 1 -12.4091-12.4091 12.4091 12.4091 0 0 1 12.4091-12.4091z" transform="matrix(-1 0 0 -1 26.7273 48)"/></g></svg>