<svg viewBox="0 0 48 48" xmlns="http://www.w3.org/2000/svg"><g fill="none" stroke="#000" stroke-linecap="round" stroke-linejoin="round"><path d="m40.5 5.5h-33a2 2 0 0 0 -2 2v33a2 2 0 0 0 2 2h33a2 2 0 0 0 2-2v-33a2 2 0 0 0 -2-2z"/><path d="m16.24 27.394h14.666c7.9606 0 6.3313-9.6933.1807-9.7233-.4025-7.1159-11.323-8.6729-13.441-2.0767-7.227.11-8.3707 11.8-1.4055 11.8z"/><path d="m24.447 32.984-3.87-1.8225-2.4826 3.9293"/><path d="m19.156 33.891 2.52 1.1731"/><path d="m5.5 35.227h37"/><circle cx="15.475" cy="32.486" r="1.349"/></g></svg>