<svg viewBox="0 0 48 48" xmlns="http://www.w3.org/2000/svg"><g fill="none" stroke="#000" stroke-linecap="round" stroke-linejoin="round"><path d="m28.4 28.4v-10.4h-2.6v7.8h1.95"/><path d="m17.35 18h-1.95v10.4"/><path d="m10.2 28.4v13h2.6v-2.6h-5.2v-7.8h5.2v-5.2h-2.6v-10.4h2.6v-7.8h5.2v-2.6h13v2.6h5.2v7.8h2.6v10.4h-2.6v5.2h5.2v7.8h-5.2v2.6h2.6v-13z"/><path d="m16.05 25.8h1.95v-10.4h2.6v5.2h5.2"/><path d="m20.6 29.05v1.95h-2.6v5.2h-2.6v5.2h18.2v-5.2h-2.6v-5.2h-2.6v-1.95"/><path d="m23.2 41.4v2.6h-2.6v-2.6z"/><path d="m25.8 41.4v2.6h2.6v-2.6"/><path d="m20.6 41.4v-5.2h2.6v-7.15"/><path d="m25.8 29.05v7.15h2.6v5.2"/></g></svg>