<svg viewBox="0 0 48 48" xmlns="http://www.w3.org/2000/svg"><g fill="none" stroke="#000" stroke-linecap="round" stroke-linejoin="round"><path d="m33.35 24h-5.51v-9.58a.82.82 0 0 0 -.82-.83h-6.02a.83.83 0 0 0 -.81.84v9.57h-5.48a.9.9 0 0 0 -.78.32.91.91 0 0 0 .07 1.27l9.3 9.87a.93.93 0 0 0 1.31 0l9.39-9.87v-.06a.86.86 0 0 0 .25-.6.89.89 0 0 0 -.9-.93z"/><path d="m45.29 23.68-2.16-1.2a19.11 19.11 0 0 0 -4.79-11.11l.54-2a.22.22 0 0 0 0-.16.27.27 0 0 0 -.33-.17l-2 .53a19.1 19.1 0 0 0 -11.13-4.68l-1.2-2.15a.36.36 0 0 0 -.63 0l-1.2 2.16a19.11 19.11 0 0 0 -11.11 4.79l-2-.54a.22.22 0 0 0 -.16 0 .27.27 0 0 0 -.12.33l.53 2a19.1 19.1 0 0 0 -4.73 11.13l-2.15 1.2a.36.36 0 0 0 0 .63l2.16 1.2a19.11 19.11 0 0 0 4.79 11.11l-.54 2a.22.22 0 0 0 0 .16.27.27 0 0 0 .33.17l2-.53a19.1 19.1 0 0 0 11.13 4.69l1.2 2.15a.36.36 0 0 0 .63 0l1.2-2.16a19.11 19.11 0 0 0 11.11-4.79l2 .54a.22.22 0 0 0 .16 0 .27.27 0 0 0 .17-.33l-.53-2a19.1 19.1 0 0 0 4.69-11.13l2.15-1.2a.36.36 0 0 0 0-.63zm-21.29 16.64a16.34 16.34 0 1 1 0-32.67 16.34 16.34 0 0 1 0 32.67z"/></g></svg>