<svg viewBox="0 0 48 48" xmlns="http://www.w3.org/2000/svg"><g fill="none" stroke="#000" stroke-linecap="round" stroke-linejoin="round"><rect height="11.2498" rx="1.7664" width="18.7219" x="14.6509" y="9.1553"/><rect height="16.8879" rx="1.7664" width="28.5147" x="9.7546" y="5.9185"/><path d="m24.0119 25.7932h-12.5943a2.6062 2.6062 0 0 0 -2.5176 1.9317l-3.3354 12.4482a1.5343 1.5343 0 0 0 1.4823 1.9317h16.965"/><path d="m24.0119 28.6833h-8.2958a1.2209 1.2209 0 0 0 -1.197.98l-1.6044 7.9855a.8189.8189 0 0 0 .803.98h10.2942"/><path d="m24.0119 25.7932h12.5943a2.6064 2.6064 0 0 1 2.5176 1.9317l3.3354 12.4482a1.5343 1.5343 0 0 1 -1.4823 1.9317h-16.965"/><path d="m24.0119 28.6833h8.2959a1.2209 1.2209 0 0 1 1.1969.98l1.6044 7.9855a.8188.8188 0 0 1 -.803.98h-10.2942"/></g></svg>