<svg viewBox="0 0 48 48" xmlns="http://www.w3.org/2000/svg"><g fill="none" stroke="#000" stroke-linecap="round" stroke-linejoin="round"><path d="m23.7627 30.95c.0113-.8475-3.2008-3.1-3.6953-8.5771s11.3637-10.6966 12.34-12.6116-3.7071-2.1379-5.2892-3.155"/><path d="m3.8556 30.9666c2.5891.0153 6.4726.0405 7.7671.0478-.2158-5.3617-.4559-9.0932 3.6917-13.5684s14.2517-6.2797 14.3356-8.486-7.7672-2.2376-11.6507-3.4522c3.0924.3117 13.0275.6379 16.7435 2.1935 1.5863.8275 1.1477 1.8947.5916 2.7071-1.6214 2.2752-8.9908 6.6227-8.3215 10.25.5936 4.4013 5.4589 7.0735 9.2054 10.356h8.0067"/><circle cx="24" cy="24" r="21.5"/><ellipse cx="24" cy="35.3255" rx="3.5254" ry="2.3675"/><ellipse cx="27.6133" cy="39.5921" rx="3.5254" ry="2.3675"/><ellipse cx="20.3867" cy="39.573" rx="3.5254" ry="2.3675"/></g></svg>