<svg viewBox="0 0 48 48" xmlns="http://www.w3.org/2000/svg"><path d="m18.87 7.38c-1.69 1.42-3.48 2.62-4.58 2.72h-6.29a3.46 3.46 0 0 0 -3.5 3.48v18.74a3.46 3.46 0 0 0 3.5 3.47h24v-3h-24.25v-19.71h29.53v11.18h3.26v-10.68a3.47 3.47 0 0 0 -3.49-3.48h-6.56c-1.09-.1-2.87-1.31-4.49-2.68l2.11-2.17-2.11 2.17a6.37 6.37 0 0 0 -3.59-1 6.33 6.33 0 0 0 -3.52.92l-2.1-2.09zm3.52 8.78a6.86 6.86 0 1 0 .13 0zm-1.39 4.32 4.27 2.52-4.27 2.41zm13.27 3.78a2.34 2.34 0 0 0 -2.34 2.34v13.81a2.33 2.33 0 0 0 2.34 2.34h6.88a2.32 2.32 0 0 0 2.34-2.34v-13.81a2.33 2.33 0 0 0 -2.34-2.34zm-2.34 2.61h11.57m0 12.5h-11.56m6.64 1.63h-1.72" fill="none" stroke="#000" stroke-linecap="round" stroke-linejoin="round"/><path d="m20.29 9.41a.72.72 0 0 1 .72.71.73.73 0 0 1 -.72.72.72.72 0 1 1 0-1.43z"/><path d="m24.47 9.41a.72.72 0 1 1 -.71.71.71.71 0 0 1 .71-.71z"/><g fill="none" stroke="#000" stroke-linecap="round" stroke-linejoin="round"><path d="m35.25 32.3h2.8"/><path d="m35.25 29.88h4.89"/><path d="m35.49 35.22 1.63 1.32 3.02-3.27"/></g></svg>