<svg viewBox="0 0 48 48" xmlns="http://www.w3.org/2000/svg"><g fill="none" stroke="#000" stroke-linecap="round" stroke-linejoin="round"><circle cx="24" cy="7.74" r="3.24"/><path d="m24 15.6v6.92"/><path d="m21.12 19.06h5.76"/><path d="m15.34 24.73c1.83 1.42 1.33 5.52.67 7"/><path d="m24 11c4.1 1.28 10.59 4.68 10.59 9.53s-4.2 5.92-10.59 5.92-10.59-1.09-10.59-5.94 6.49-8.25 10.59-9.51"/><path d="m24 34.52c3.3 0 8.29-.36 8.29-2s-3.16-2.52-8.29-2.52-8.29.85-8.29 2.49 4.99 2.03 8.29 2.03z"/><path d="m32.66 24.73c-1.83 1.42-1.33 5.52-.67 7"/><path d="m24 34.52s5 2.85 8.66 2.85c5.91 0 7.66.06 9.18 2.67l-2.76 3.46a12.41 12.41 0 0 0 -4.79-1.5c-2.12 0-7.44-.24-10.29-3.58-2.85 3.38-8.17 3.58-10.29 3.58a12.41 12.41 0 0 0 -4.79 1.5l-2.76-3.5c1.52-2.61 3.27-2.67 9.18-2.67 3.66.04 8.66-2.81 8.66-2.81z"/></g></svg>