<svg viewBox="0 0 48 48" xmlns="http://www.w3.org/2000/svg"><g fill="none" stroke="#000" stroke-linecap="round" stroke-linejoin="round"><path d="m5.5058 27.25v12.79a1.9471 1.9471 0 0 0 1.947 1.9471h33.1a1.9471 1.9471 0 0 0 1.9472-1.9471v-12.79z"/><path d="m39.005 13.7155 2.59-2.5506a3.0221 3.0221 0 0 0 -4.2822-4.2659l-.0017.0018-2.5511 2.5992a18.41 18.41 0 0 0 -21.515 0l-2.57-2.57a3.1736 3.1736 0 0 0 -2.1709-.9151 2.9786 2.9786 0 0 0 -2.1221.8761 3.0179 3.0179 0 0 0 0 4.2641l2.5993 2.5507a18.4969 18.4969 0 0 0 -3.4755 10.8062v2.738h36.9942v-2.738a18.4967 18.4967 0 0 0 -3.495-10.7965zm-19.87 6.98a2.9206 2.9206 0 1 1 -2.9206-2.9206 2.9206 2.9206 0 0 1 2.9208 2.9208zm12.6559 2.9206a2.9206 2.9206 0 1 1 2.9206-2.9206 2.9205 2.9205 0 0 1 -2.9204 2.9208z"/><path d="m21.3668 33.6137v-1.4a2.6332 2.6332 0 0 1 5.2664 0v1.4"/><path d="m20.003 33.6137h7.994v5.9671h-7.994z"/><path d="m24 37.2089v-1.2232"/></g></svg>