<svg viewBox="0 0 48 48" xmlns="http://www.w3.org/2000/svg"><g fill="none" stroke="#000" stroke-linecap="round" stroke-linejoin="round"><path d="m29.1583 21.6394h6.0836a1 1 0 0 0 1-1v-1.0827a12.5085 12.5085 0 0 0 -12.0126-12.6458 12.2419 12.2419 0 0 0 -12.4712 12.24v1.4887a1 1 0 0 0 1 1h6.0836"/><rect height="16.5468" rx="1" width="24.4838" x="11.7581" y="26.9532"/><path d="m21.04 26.9532v-2.3542a2.96 2.96 0 1 1 5.9192 0v2.3542"/><path d="m25.4051 38.5527a3.61 3.61 0 1 0 -2.8487-.0165"/><path d="m30.4159 8.7244 4.2244-4.2244"/><circle cx="27.6098" cy="15.1149" r="1.2107"/><path d="m17.5841 8.7244-4.2244-4.2244"/><circle cx="20.3902" cy="15.1149" r="1.2107"/></g></svg>