<svg viewBox="0 0 48 48" xmlns="http://www.w3.org/2000/svg"><g fill="none" stroke="#000" stroke-linecap="round" stroke-linejoin="round"><path d="m40.5 5.5h-33a2 2 0 0 0 -2 2v33a2 2 0 0 0 2 2h33a2 2 0 0 0 2-2v-33a2 2 0 0 0 -2-2z"/><path d="m12.4 19.7h24.2a1.69 1.69 0 0 1 1.8 1.6v12.1a1.69 1.69 0 0 1 -1.8 1.6h-24.2a1.69 1.69 0 0 1 -1.8-1.6v-12a1.77 1.77 0 0 1 1.8-1.7z"/><path d="m21.4 24.4h5.6a11.58 11.58 0 0 0 -3.8 7.9"/><path d="m12.6 24.1c0-1.2.3-2.3 1.4-2.4"/><path d="m36.4 24.1c0-1.2-.3-2.3-1.4-2.4"/><path d="m24.4 9v7.5h3.8"/><path d="m35.1 16.5h3.8"/><path d="m35.1 9h3.8"/><path d="m35.1 12.8h2.5"/><path d="m35.1 9v7.5"/><path d="m33.1 9-2.5 7.5-2.4-7.5"/><path d="m10.3 15.7a2.06 2.06 0 0 0 1.8.8h1.1a1.9 1.9 0 0 0 1.9-1.9 1.9 1.9 0 0 0 -1.9-1.9h-1.2a1.9 1.9 0 0 1 -1.9-1.9 2 2 0 0 1 1.9-1.8h1.1a2 2 0 0 1 1.8.8"/><path d="m17.2 14a2.5 2.5 0 1 0 5 0v-2.5a2.5 2.5 0 0 0 -5 0z"/></g></svg>