<svg viewBox="0 0 48 48" xmlns="http://www.w3.org/2000/svg"><g fill="none" stroke="#000" stroke-linejoin="round"><path d="m16.55 6.45a4.31 4.31 0 0 0 -4 2.29l-7.45 13a4.37 4.37 0 0 0 0 4.58l7.45 13a4.31 4.31 0 0 0 4 2.29h14.89a4.28 4.28 0 0 0 3.94-2.29l7.46-13a4.34 4.34 0 0 0 0-4.58l-7.47-13a4.28 4.28 0 0 0 -3.94-2.29z"/><g stroke-linecap="round"><path d="m29.8 28.93v-9.89"/><path d="m29.8 19h4.2a2.48 2.48 0 0 1 2.48 2.48 2.48 2.48 0 0 1 -2.48 2.52h-4.2"/><path d="m29.8 24h4.2a2.48 2.48 0 0 1 2.48 2.48 2.48 2.48 0 0 1 -2.48 2.52h-4.2"/><path d="m11.55 29v-10h1.69a5 5 0 0 1 5 5 5 5 0 0 1 -5 5z"/><path d="m23.07 19a2.47 2.47 0 0 0 -2.47 2.47 2.48 2.48 0 0 0 2.47 2.53h.84"/><path d="m23.91 24h.84a2.47 2.47 0 0 1 2.47 2.47 2.47 2.47 0 0 1 -2.47 2.47"/><path d="m27 19.87a4.21 4.21 0 0 0 -3.09-.87h-.84"/><path d="m20.84 28.1a4.2 4.2 0 0 0 3.07.83h.84"/></g></g></svg>