<svg viewBox="0 0 48 48" xmlns="http://www.w3.org/2000/svg"><g fill="none" stroke="#000" stroke-linecap="round" stroke-linejoin="round"><path d="m22.1436 5.7855-12.2777 4.6637a5.2746 5.2746 0 0 0 -3.4259 5.0443v17.1318a5.3588 5.3588 0 0 0 3.521 5.0447l12.1826 4.473a5.0028 5.0028 0 0 0 3.7119 0l12.1826-4.473a5.3587 5.3587 0 0 0 3.5219-5.0447v-17.1318a5.5079 5.5079 0 0 0 -3.4263-5.0443l-12.183-4.6637a6.4881 6.4881 0 0 0 -3.8071 0z"/><path d="m41.56 15.4935a2.564 2.564 0 0 0 -3.5215-2.4746l-12.183 4.3782a5.0028 5.0028 0 0 1 -3.7119 0l-12.0874-4.3782a2.7039 2.7039 0 0 0 -3.6167 2.57"/><path d="m11.4767 18.728 6.5556 2.3413a4.6 4.6 0 0 1 3.0528 4.332v8.92a2 2 0 0 1 -2.6727 1.8834l-6.94-2.4786a1 1 0 0 1 -.6637-.9418v-13.5854a.5.5 0 0 1 .668-.4709z"/><path d="m37.5175 18.2809-9.613 3.4332a1 1 0 0 0 -.6636.9417v13.5858a.5.5 0 0 0 .6681.4709l8.9448-3.1946a1 1 0 0 0 .6637-.9417v-6.0862a.5.5 0 0 0 -.6682-.4709l-9.6084 3.4316"/></g></svg>