<svg viewBox="0 0 48 48" xmlns="http://www.w3.org/2000/svg"><g fill="none" stroke="#000" stroke-linecap="round" stroke-linejoin="round"><path d="m10.42 41.74a2.65 2.65 0 0 0 .52-.63l9.06-15.72a2.76 2.76 0 0 0 0-2.78l-9.06-15.72a2.65 2.65 0 0 0 -.52-.63"/><path d="m9.9 41.11a2.77 2.77 0 0 0 2.41 1.39h18.14a2.8 2.8 0 0 0 2.42-1.39l9.07-15.72a2.76 2.76 0 0 0 0-2.78l-9.07-15.72a2.8 2.8 0 0 0 -2.42-1.39h-18.14a2.77 2.77 0 0 0 -2.41 1.39l-4.21 7.29 4.86 8.43a2.76 2.76 0 0 1 0 2.78l-4.86 8.43z"/><path d="m31.65 23.3-4.53-7.85a1.39 1.39 0 0 0 -1.21-.69h-9.06a1.39 1.39 0 0 0 -1.07.52l4.22 7.33a2.76 2.76 0 0 1 0 2.78l-4.23 7.33a1.39 1.39 0 0 0 1.07.52h9.06a1.39 1.39 0 0 0 1.21-.69l4.53-7.85a1.4 1.4 0 0 0 .01-1.4z"/></g></svg>