<svg viewBox="0 0 48 48" xmlns="http://www.w3.org/2000/svg"><g fill="none" stroke="#000" stroke-linecap="round" stroke-linejoin="round"><rect height="14.4765" rx="5.5939" width="11.1879" x="6.999" y="18.9184"/><path d="m13.06 22.11a2.5376 2.5376 0 0 0 -.9585.1881 2.1243 2.1243 0 0 1 -1.5886 3.1656v2.2886a2.5471 2.5471 0 0 0 5.0942 0v-3.0948a2.5471 2.5471 0 0 0 -2.5471-2.5475z"/><rect height="14.4765" rx="5.5939" width="11.1879" x="29.8131" y="18.9184"/><path d="m34.8648 22.11a2.538 2.538 0 0 0 -.9585.1881 2.1241 2.1241 0 0 1 -1.5885 3.1656v2.2886a2.5471 2.5471 0 1 0 5.0942 0v-3.0948a2.5471 2.5471 0 0 0 -2.5472-2.5475z"/><path d="m28.0772 33.2557a8.8241 8.8241 0 0 0 7.5946 4.3243 8.8282 8.8282 0 0 0 8.8282-8.8282v-5.19a8.7943 8.7943 0 0 0 -2.2107-5.8436c0-1.9258-.467-4.6174-1.7707-4.6174s-2.5086 1.9456-2.5086 1.9456.8154-4.6264-1.5241-4.6264c-3.3265 0-5.0842 8.9559-12.4854 8.9559s-9.1594-8.9559-12.4859-8.9559c-2.3395 0-1.5241 4.6264-1.5241 4.6264s-1.2053-1.9457-2.5091-1.9457-1.7707 2.6916-1.7707 4.6174a8.7943 8.7943 0 0 0 -2.2107 5.8436v5.19a8.8282 8.8282 0 0 0 8.8282 8.8283 8.8239 8.8239 0 0 0 7.5946-4.3244"/><path d="m24 33.8332 4.9-.6946a4.5038 4.5038 0 0 0 -4.9-4.222 4.5038 4.5038 0 0 0 -4.9 4.222z"/><path d="m27.5783 33.326a3.5819 3.5819 0 1 1 -7.1566 0"/></g></svg>