<svg viewBox="0 0 48 48" xmlns="http://www.w3.org/2000/svg"><g fill="none" stroke="#000" stroke-linecap="round" stroke-linejoin="round"><path d="m4.5 18.13h5.87a5.87 5.87 0 0 1 5.87 5.87 0 0 0 0 1 0 0h-11.74a0 0 0 0 1 0 0v-5.87a0 0 0 0 1 0 0z"/><path d="m4.5 24h11.74a0 0 0 0 1 0 0 5.87 5.87 0 0 1 -5.87 5.87h-5.87a0 0 0 0 1 0 0v-5.87a0 0 0 0 1 0 0z"/><path d="m21.06 21.06h11.74v5.87h-11.74z" transform="matrix(0 1 -1 0 50.94 -2.94)"/><path d="m15.19 21.06h11.75a0 0 0 0 1 0 0 5.87 5.87 0 0 1 -5.87 5.87h-5.88a0 0 0 0 1 0 0v-5.87a0 0 0 0 1 0 0z" transform="matrix(0 1 -1 0 45.06 2.94)"/><path d="m37.63 18.13a5.87 5.87 0 0 1 5.87 5.87 0 0 0 0 1 0 0h-11.74a0 0 0 0 1 0 0 5.87 5.87 0 0 1 5.87-5.87z"/><path d="m37.63 24a5.87 5.87 0 0 1 5.87 5.87 0 0 0 0 1 0 0h-11.74a0 0 0 0 1 0 0 5.87 5.87 0 0 1 5.87-5.87z" transform="matrix(-1 0 0 -1 75.26 53.87)"/></g></svg>