<svg viewBox="0 0 48 48" xmlns="http://www.w3.org/2000/svg"><g fill="none" stroke="#000" stroke-linecap="round" stroke-linejoin="round"><path d="m15.3414 5.53-.922 21.4247c-.8966.2433-.9347 1.592-.9347 3.07 0 1.67.8332 3.0231 1.86 3.0231s1.86-1.3528 1.86-3.0231c0-1.456-.0547-2.79-.9347-3.0576z"/><path d="m32.29 5.53-.922 21.4247c-.8965.2433-.9346 1.592-.9346 3.07 0 1.67.8332 3.0231 1.86 3.0231s1.86-1.3528 1.86-3.0231c0-1.456-.0546-2.79-.9346-3.0576z"/><path d="m24.0561 21.9493-.9056.2428v4.7656l-.567.567v2.7478l-.8622.4963v1.1919l-11.0746 2.1593-.1232 3.5575 8.6655 2.3548h2.431l2.4361 2.4377 2.4381-2.4381h2.4309l8.6655-2.3548-.1232-3.5571-11.0746-2.1593v-1.1919l-.8622-.4963v-2.7478l-.567-.567v-4.7656z"/><path d="m8.1963 17.0144a5.1368 5.1368 0 0 0 .6444 1.03 6.1722 6.1722 0 0 0 1.3306.0471 5.1371 5.1371 0 0 0 1.2141-.0432 6.1667 6.1667 0 0 0 .706-1.1288 5.1314 5.1314 0 0 0 .57-1.073 6.168 6.168 0 0 0 -.6246-1.1758 5.1372 5.1372 0 0 0 -.6443-1.03 6.1668 6.1668 0 0 0 -1.3307-.047 5.1361 5.1361 0 0 0 -1.214.0431 6.1671 6.1671 0 0 0 -.7061 1.1288 5.1408 5.1408 0 0 0 -.57 1.073 6.1688 6.1688 0 0 0 .6246 1.1758z"/><path d="m6.1246 9.8138a5.14 5.14 0 0 0 .6444 1.03 6.1659 6.1659 0 0 0 1.3306.047 5.1371 5.1371 0 0 0 1.2141-.0431 6.1675 6.1675 0 0 0 .706-1.1289 5.1354 5.1354 0 0 0 .57-1.0729 6.1658 6.1658 0 0 0 -.6249-1.1759 5.14 5.14 0 0 0 -.6443-1.03 6.1668 6.1668 0 0 0 -1.3305-.047 5.1361 5.1361 0 0 0 -1.214.0431 6.1713 6.1713 0 0 0 -.706 1.1289 5.14 5.14 0 0 0 -.57 1.0729 6.1658 6.1658 0 0 0 .6246 1.1759z"/><path d="m39.8037 17.0144a5.1368 5.1368 0 0 1 -.6444 1.03 6.1722 6.1722 0 0 1 -1.3306.0471 5.1371 5.1371 0 0 1 -1.2141-.0432 6.1667 6.1667 0 0 1 -.706-1.1288 5.1314 5.1314 0 0 1 -.57-1.073 6.168 6.168 0 0 1 .6246-1.1758 5.1372 5.1372 0 0 1 .6443-1.03 6.1668 6.1668 0 0 1 1.3307-.047 5.1361 5.1361 0 0 1 1.214.0431 6.1671 6.1671 0 0 1 .7061 1.1288 5.1408 5.1408 0 0 1 .57 1.073 6.1688 6.1688 0 0 1 -.6246 1.1758z"/><path d="m41.8754 9.8138a5.14 5.14 0 0 1 -.6444 1.03 6.1659 6.1659 0 0 1 -1.3306.047 5.1371 5.1371 0 0 1 -1.2141-.0431 6.1675 6.1675 0 0 1 -.706-1.1289 5.1354 5.1354 0 0 1 -.57-1.0729 6.1658 6.1658 0 0 1 .6249-1.1759 5.14 5.14 0 0 1 .6448-1.03 6.1668 6.1668 0 0 1 1.33-.047 5.1361 5.1361 0 0 1 1.214.0431 6.1713 6.1713 0 0 1 .706 1.1289 5.14 5.14 0 0 1 .57 1.0729 6.1658 6.1658 0 0 1 -.6246 1.1759z"/><path d="m23.1008 17.756v2.2269"/><path d="m21.7116 12.2144v2.2269"/><path d="m19.613 6.5308v2.2269"/><path d="m21.9707 6.5308v2.2269"/><path d="m24.95 17.756v2.2269"/><path d="m26.4025 12.2144v2.2269"/><path d="m28.5011 6.5308v2.2269"/><path d="m26.1434 6.5308v2.2269"/><path d="m24.0394 12.2553v2.2269"/><path d="m24.0394 6.5457v2.2269"/></g></svg>