<svg viewBox="0 0 48 48" xmlns="http://www.w3.org/2000/svg"><g fill="none" stroke="#000" stroke-linecap="round" stroke-linejoin="round"><path d="m41.38 19.84h-7.86l-7.77-13a2 2 0 0 0 -2.75-.78 2 2 0 0 0 -.78.78l-7.77 13h-7.83a3.13 3.13 0 0 0 -3.11 3.16 3.09 3.09 0 0 0 .11.8l4.38 16.28a2.84 2.84 0 0 0 2.74 2.1h26.5a2.84 2.84 0 0 0 2.76-2.1l4.41-16.31a3.11 3.11 0 0 0 -2.2-3.77 2.91 2.91 0 0 0 -.83-.16zm-17.38-8 4.77 8h-9.54z"/><path d="m30.51 37.01-6.51-12-6.51 12"/><path d="m19.67 33h8.62"/></g></svg>