<svg viewBox="0 0 48 48" xmlns="http://www.w3.org/2000/svg"><path d="m7.71 43.49s0 .09-.43-.94c3.21-2.34 18-9.93 19.49-25 0-6.57-2.48-11.3-7.66-11.3-3.92 0-6.21 1-7.64 5.28.36.93 1 .56 2.62.22 2.88 0 5.21 1.85 5.21 4.14s-2.3 4.11-5.23 4.11a5.59 5.59 0 0 1 -4.41-1.94c-4.11-6.76 3.17-13.56 9.34-13.56 10.21-.22 14.9 6.34 14.9 13.65-.06 9.19-11.14 18.54-26.19 25.34zm30.45-19.15a2.56 2.56 0 1 1 2.56-2.56 2.56 2.56 0 0 1 -2.56 2.56zm0-10.8a2.56 2.56 0 1 1 2.56-2.54 2.56 2.56 0 0 1 -2.56 2.56z" fill="none" stroke="#000" stroke-linejoin="round"/></svg>