<svg viewBox="0 0 48 48" xmlns="http://www.w3.org/2000/svg"><g fill="none" stroke="#000" stroke-linecap="round" stroke-linejoin="round"><circle cx="24" cy="24" r="21.5"/><path d="m44.1 31.6a21.48 21.48 0 0 0 -38.5 3.5"/><path d="m13.5 42.8c-.5-2.3-.2-3.8 1.7-5.2a3.67 3.67 0 0 0 1.3-1.8 2.1 2.1 0 0 1 1.3-1.3 6.38 6.38 0 0 1 4.2-.5c1.5.6 2.2 1.8 3.4 2.3a3.08 3.08 0 0 0 2.3.1c2.1-1 3.4.2 4.2 1.6a36.53 36.53 0 0 0 3.1 4.3"/><path d="m29.7017 36.0887c-.1-1.8.4983-2.4887-1.1017-2.4887-.7 0-1.7 0-2-.5-.4-1-.8-1-1.5-1.2a3.31 3.31 0 0 0 -1.9-.3c-.3.1.3 1.6-.5 1.5-.4-.1-.9-1.8-1.6-2.3a2.32 2.32 0 0 0 -2.5.4c-1.4 1.3-2.3 1.6-3.2 1.1-.6-.3-.3-2.1.1-2.4.9-.6 1.3 0 2-1 .2-.3-.3-1 .2-1.9s2.5 0 3.3-1.1 2.8-2.7 4.4-1.6a4.3686 4.3686 0 0 0 1 .6c.3.2.6-.6 1-1s.6-.3 1.3-.3a19.0246 19.0246 0 0 0 3.55-1.3767"/><path d="m13.24 13.087-1.3333.6667-.6667 1.3333-.6667-1.3333-1.3333-.6667 1.333-.667.667-1.333.6667 1.3334z"/><path d="m41.23 20.7961-1.3333.6667-.6667 1.3333-.6666-1.3333-1.3334-.6667 1.3334-.6666.6666-1.3334.6667 1.3334z"/><circle cx="31.9533" cy="13.5987" r="4"/><path d="m13.8423 24.4514a2 2 0 0 1 3.4039-1.8576"/><path d="m15.49 21.7136-.1537-4.3555"/><path d="m13.6912 23.1988-4.4712-1.1411"/><path d="m16.73 22.0082 2.19-4.2166"/><path d="m13.451 24.4654-4.35 1.0422"/><path d="m14.3646 22.1455-2.9512-3.5917"/><path d="m17.9813 22.5581 3.6472-2.6852"/></g></svg>