<svg viewBox="0 0 48 48" xmlns="http://www.w3.org/2000/svg"><g fill="none" stroke="#000" stroke-linecap="round" stroke-linejoin="round"><circle cx="15.87" cy="27.74" r="1.98"/><circle cx="15.87" cy="38.05" r="1.98"/><circle cx="18.91" cy="32.9" r="1.98"/><circle cx="19.84" cy="43.21" r="1.98"/><path d="m24.81 17.35c-2.11 0-9.81-1.46-9.81-8.18s5.63-6.36 9.55-6.36 9.56-.37 9.56 6.36-7.7 8.18-9.81 8.18z"/><path d="m24.55 17.35c0 1.6 5 4.21 7.27 8.39 4.64 8.53-9.06 14.47-10.58 16.07"/><path d="m17.83 37.76c2.49-.52 10.22-5.59 13.11-13.4"/><path d="m20.38 31.56a16.23 16.23 0 0 0 7.39-10.56"/><path d="m17.6 26.77c2.49-.52 6.17-3.29 7-9.42"/><path d="m21.16 6.52h6.79"/><path d="m21.16 13.39h6.79"/><path d="m34.11 9.55h-4.44"/><path d="m19.44 9.55h-4.44"/></g></svg>