<svg viewBox="0 0 48 48" xmlns="http://www.w3.org/2000/svg"><g fill="none" stroke="#000" stroke-linecap="round" stroke-linejoin="round"><path d="m14.0915 33.4065-8.2784-2.2542a.996.996 0 0 0 -1.2574.8586c-.248 2.6516.0027 9.0336 7.9087 10.1466 9.0589 1.2753 11.3456-8.9709 11.3456-15.1713"/><path d="m34.2294 32.1924 2.1869 8.2964a.9961.9961 0 0 0 1.3723.66c2.42-1.1111 7.822-4.5192 4.8329-11.9225-3.425-8.4828-13.4418-5.34-18.8115-2.24"/><path d="m23.109 15.36 6.091-6.0426a.9961.9961 0 0 0 -.1149-1.5183c-2.172-1.5406-7.8243-4.5144-12.7411 1.7759-5.634 7.2075 2.096 14.311 7.466 17.4112"/></g></svg>