<svg viewBox="0 0 48 48" xmlns="http://www.w3.org/2000/svg"><g fill="none" stroke="#000" stroke-linejoin="round"><path d="m24.6025 4.5c8.516 0 15.42 5.7166 15.42 12.7693s-6.9025 11.3448-15.42 11.3448q-12.1336-.2454-17.1914-7.6421a1.6469 1.6469 0 0 1 -.2448-1.242q2.8912-14.4318 17.4362-15.23zm-.5751 7.9439q-7.3449.7437-8.9894 6.9928 2.2406 1.9754 8.9894 2.1927c4.5207-.0711 7.2591-1.389 7.3129-4.4525-.2814-3.3836-3.5716-4.861-7.3129-4.733z"/><path d="m6.396 24.71c2.5261 7.2471 9.4925 11.28 16.654 11.28 5.9392 0 9.8755-2.5707 11.94-6.4492l6.6556 4.1692c-2.32 5.6749-9.1977 9.79-17.3225 9.79-10.0289 0-18.617-6.7591-17.93-18.5113-.0001-.0935.0009-.187.0029-.2787z"/></g></svg>