<svg viewBox="0 0 48 48" xmlns="http://www.w3.org/2000/svg"><g fill="none" stroke="#000" stroke-linejoin="round"><path d="m42.039 18.75a5.5125 5.5125 0 0 0 -.0812 4.6109l-13.8258 16.7016a2.461 2.461 0 0 1 -2.6345.7781l-16.9702-5.3406a6.7231 6.7231 0 0 1 -2.8291-1.5645 5.38 5.38 0 0 1 -1.0547-2.2883 9.73 9.73 0 0 1 .0121-3.289c.6363-3.0846 2.911-2.1768 2.911-2.1768" stroke-linecap="round"/><path d="m7.5666 26.1819 17.3052 5.8516a2.4458 2.4458 0 0 0 2.6432-.7283l15.7562-18.4442a.9938.9938 0 0 0 -.5411-1.6157l-18.7041-4.1334a2.7536 2.7536 0 0 0 -2.69.9025l-15.8247 18.5668" stroke-linecap="round"/><path d="m19.7477 15.1118 12.6254 3.6024 3.1695-3.5732-13.0111-3.1122z"/></g></svg>