<svg viewBox="0 0 48 48" xmlns="http://www.w3.org/2000/svg"><g fill="none" stroke="#000" stroke-linecap="round" stroke-linejoin="round"><path d="m31.5227 19.2487v5.3286a1.7744 1.7744 0 0 1 -1.7727 1.7762 1.7743 1.7743 0 0 1 -1.7724-1.7762v-.59"/><path d="m26.3543 24.5773v2.3978a1.7762 1.7762 0 0 1 -1.7762 1.7762 1.77 1.77 0 0 1 -1.2559-.52"/><path d="m26.3543 21.6465v2.9308a1.7762 1.7762 0 0 1 -1.7762 1.7762 1.7763 1.7763 0 0 1 -1.7762-1.7762v-2.9308"/><path d="m18.1471 25.9564a1.9983 1.9983 0 0 0 1.4609.3971h.3985a1.1756 1.1756 0 0 0 1.1742-1.1768 1.1755 1.1755 0 0 0 -1.1742-1.1767h-.7965a1.1754 1.1754 0 0 1 -1.1742-1.1767 1.1755 1.1755 0 0 1 1.1742-1.1768h.3985a1.9975 1.9975 0 0 1 1.4608.3972"/><path d="m11.32 25.4571a1.7754 1.7754 0 0 1 -1.5433.8964 1.7762 1.7762 0 0 1 -1.7767-1.7762v-1.1546a1.7762 1.7762 0 0 1 1.7762-1.7762 1.7762 1.7762 0 0 1 1.7762 1.7762v.5773h-3.5524"/><path d="m36.4935 25.4571a1.7755 1.7755 0 0 1 -1.5433.8964 1.7762 1.7762 0 0 1 -1.7762-1.7762v-1.1546a1.7762 1.7762 0 0 1 1.776-1.7762 1.7762 1.7762 0 0 1 1.7762 1.7762v.5773h-3.5522"/><path d="m38.8455 20.1812v5.2842a.8881.8881 0 0 0 .8881.8881h.2664"/><path d="m37.913 21.6465h1.865"/><path d="m16.54 24.5773a1.7762 1.7762 0 0 1 -1.7762 1.7762 1.7763 1.7763 0 0 1 -1.7762-1.7762v-1.1546a1.7763 1.7763 0 0 1 1.7762-1.7762 1.7762 1.7762 0 0 1 1.7762 1.7762"/><path d="m16.5403 26.3535v-4.707"/><rect height="37" rx="2" width="37" x="5.5" y="5.5"/></g></svg>