<svg viewBox="0 0 48 48" xmlns="http://www.w3.org/2000/svg"><g fill="none" stroke="#000" stroke-linecap="round" stroke-linejoin="round"><path d="m17.52 5.72a9.28 9.28 0 0 1 4.1 2 5.89 5.89 0 0 0 5.07 1c.5 0 1.91.22 2.94.34s7.48 1 10.58 5.25 2.16 5.38 1.67 6.47-2.05 2.37-3.07 2.15-1.67-.57-1.67-1.29a4.12 4.12 0 0 0 -.38-1.9c-.73-.48-8.35-5.56-14.57-6a40 40 0 0 0 -10.37.26c-1.46.18-2.8.61-3.52.45s-2.45-.81-2.67-1.66c-.34-1.31-.42-2.29.71-4.29s1.79-2.26 3.06-2.69a16.68 16.68 0 0 1 8.12-.09z"/><path d="m26.69 8.69c.19-.71-.09-2 .87-2s1.79.46 1.73.78a3.93 3.93 0 0 1 -.58 1.49"/><path d="m9.69 14.37a15.19 15.19 0 0 0 -1.95 3.93c-2.24 7.51 1.42 14.54 2.82 16.46a14.75 14.75 0 0 0 5.26 4.48c2.87 1.52 9.18.76 11.18-.11s4.39-3.46 5.2-4.9 3.76-5.4 4.55-9.53 0-5 0-5"/><path d="m24.46 39.77a6.4 6.4 0 0 0 1 3"/></g></svg>