<svg viewBox="0 0 48 48" xmlns="http://www.w3.org/2000/svg"><g fill="none" stroke="#000" stroke-linecap="round" stroke-linejoin="round"><path d="m38.5 24.81v3.36a2.48 2.48 0 0 1 -2.5 2.48 2.45 2.45 0 0 1 -1.76-.73"/><path d="m38.5 20.7v4.11a2.49 2.49 0 0 1 -2.5 2.49 2.49 2.49 0 0 1 -2.48-2.49v-4.11"/><path d="m14.15 26a2.5 2.5 0 0 1 -2.15 1.3 2.49 2.49 0 0 1 -2.5-2.49v-1.62a2.49 2.49 0 0 1 2.5-2.49 2.49 2.49 0 0 1 2.48 2.49v.81h-5"/><path d="m30.49 24.81a2.49 2.49 0 0 1 -2.49 2.49 2.49 2.49 0 0 1 -2.48-2.49v-1.62a2.49 2.49 0 0 1 2.48-2.49 2.49 2.49 0 0 1 2.49 2.49"/><path d="m30.49 27.3v-6.6"/><path d="m17.51 23.19a2.49 2.49 0 0 1 2.49-2.49 2.49 2.49 0 0 1 2.48 2.49v1.62a2.49 2.49 0 0 1 -2.48 2.49 2.49 2.49 0 0 1 -2.49-2.49"/><path d="m17.51 27.3v-9.95"/><path d="m40.5 42.5h-33a2 2 0 0 1 -2-2v-33a2 2 0 0 1 2-2h33a2 2 0 0 1 2 2v33a2 2 0 0 1 -2 2z"/></g></svg>