<svg viewBox="0 0 48 48" xmlns="http://www.w3.org/2000/svg"><g fill="none" stroke="#000" stroke-linecap="round" stroke-linejoin="round"><path d="m8.09 21.2a29.6414 29.6414 0 0 0 2.9252 2.9252l2.6448 2.0348-.407 1.3227-1.2209 1.933-2.2868 2.3383"/><path d="m39.4077 29.2373-.8377-2.8573-.6952-2.0512-1.6279.5087-.5087 2.1366-1.4243-2.6453-1.2209-1.9333-1.4244 1.2209-1.5261 1.0174v1.2209l-2.1366 1.8313-.2035 2.1366-1.3224 1.2209-1.4244 2.34-1.5261.7121-.7122-1.2209-.9157-3.1539.5087-1.1192-.7122-3.4592-1.0174-.5087-1.5261.3052-1.3226-1.5261-.2037-1.9328.9157-1.5261 1.3226-1.0174.2035-1.73 1.2209-.9157-.3053-1.6278.7122-.407 1.0175.61.61-.4069.7122-1.2209 1.6278-1.2209 2.2384.61 2.4417.9157 5.2906-.9157"/><path d="m19.1132 8.54a1.353 1.353 0 0 1 1.1268 1.613 1.4478 1.4478 0 0 1 -.1694.5422l-2.6453.7122-1.3226.61-.4552-1.73"/><circle cx="24" cy="24" r="21.5"/><circle cx="24" cy="24" r="16.5"/></g></svg>