<svg viewBox="0 0 48 48" xmlns="http://www.w3.org/2000/svg"><g fill="none" stroke="#000" stroke-linecap="round" stroke-linejoin="round"><path d="m17.66 8.74h12.68"/><path d="m35.06 8.74h4.44a1.88 1.88 0 0 1 1.88 1.88v31a1.88 1.88 0 0 1 -1.88 1.88h-31a1.88 1.88 0 0 1 -1.88-1.88v-31a1.88 1.88 0 0 1 1.88-1.88h4.44"/><path d="m6.62 17.69h34.76"/><path d="m30.34 10.62a2.36 2.36 0 0 0 2.36 2.36 2.36 2.36 0 0 0 2.36-2.36v-3.76a2.36 2.36 0 0 0 -2.36-2.36 2.36 2.36 0 0 0 -2.36 2.36z"/><path d="m12.94 10.62a2.36 2.36 0 0 0 2.36 2.36 2.36 2.36 0 0 0 2.36-2.36v-3.76a2.36 2.36 0 0 0 -2.36-2.36 2.36 2.36 0 0 0 -2.36 2.36z"/><path d="m12.5 33.4628h23"/><path d="m12.5 39.2093h23"/><path d="m12.5 27.7164h23"/><path d="m12.5 21.97h23"/><path d="m35.5 39.2093v-17.2393"/><path d="m29.7634 39.2093v-17.2393"/><path d="m24.0268 39.2093v-17.2393"/><path d="m18.2366 39.22v-17.2393"/><path d="m12.5 39.2093v-17.2393"/></g></svg>