<svg viewBox="0 0 48 48" xmlns="http://www.w3.org/2000/svg"><g fill="none" stroke="#000" stroke-linecap="round" stroke-linejoin="round"><path d="m10.07 29.56a19.61 19.61 0 0 1 -4.32-20.56m36.62.4a19.54 19.54 0 0 1 -4.37 20.16m-14-19c1.36 0 2.46 2 2.46 4.43s-1.1 4.42-2.46 4.42-2.46-2-2.46-4.42 1.1-4.4 2.46-4.4z"/><path d="m24.08 23.08v15.94"/><path d="m15.62 9.45c-1.14 1.23-1.86 4.46-1.86 6.05 0 6.83 4.4 11.74 10.32 11.74"/><path d="m32.55 9.45c1.14 1.23 1.86 4.46 1.86 6.05 0 6.83-4.4 11.74-10.33 11.74"/></g></svg>