<svg viewBox="0 0 48 48" xmlns="http://www.w3.org/2000/svg"><g fill="none" stroke="#000" stroke-linecap="round" stroke-linejoin="round"><path d="m24 5.6315-19.5 4.422 8.9869 2.7165-.0494 4.0953m-.0364 2.5147-.13 12.5081a19.751 19.751 0 0 0 10.7289 10.4799"/><path d="m8.7706 17.2845v-5.8709"/><path d="m12.59 17.6318c5.9943-2.9731 10.1941.24 11.41 1.5483-1.4086 3.4926-9.128 3.8747-11.41-1.5483z"/><path d="m24.7692 23.82v14.9082c3.1574-1.6418 6.6545-4.9106 7.133-7.5564v-7.0759c-1.1658.2807-2.3374 1.1634-7.133-.2755z"/><path d="m24 5.6317 19.5 4.4221-8.9871 2.7169.0494 4.0955m.0364 2.5145.13 12.5081a19.7509 19.7509 0 0 1 -10.7287 10.4797"/><path d="m35.41 17.6323c-5.9944-2.9733-10.1947.24-11.41 1.5483 1.4083 3.4928 9.1278 3.8747 11.41-1.5483z"/></g></svg>