<svg viewBox="0 0 48 48" xmlns="http://www.w3.org/2000/svg"><g fill="none" stroke="#000" stroke-linecap="round" stroke-linejoin="round"><path d="m35.2484 28.461a3.32 3.32 0 0 1 -3.2517-3.3668v-2.1884a3.3206 3.3206 0 0 1 3.2517-3.3669 3.32 3.32 0 0 1 3.2516 3.3669v2.1884a3.32 3.32 0 0 1 -3.2516 3.3668z"/><path d="m27.4139 22.9058a3.32 3.32 0 0 1 3.2516-3.3668"/><path d="m27.4139 19.539v8.9221"/><path d="m15.5155 26.7776a3.1318 3.1318 0 0 1 -2.7639 1.6834 3.32 3.32 0 0 1 -3.2516-3.3668v-2.1884a3.32 3.32 0 0 1 3.2516-3.3669 3.3206 3.3206 0 0 1 3.2517 3.3669v1.1784h-6.5033"/><path d="m24.5116 26.7776a3.132 3.132 0 0 1 -2.7639 1.6834 3.32 3.32 0 0 1 -3.2517-3.3668v-2.1884a3.3206 3.3206 0 0 1 3.2517-3.3669 3.32 3.32 0 0 1 3.2516 3.3669v1.1784h-6.5033"/><path d="m7.48 5.5a2 2 0 0 0 -2 2v33a2 2 0 0 0 2 2h33.04a2 2 0 0 0 2-2v-33a2 2 0 0 0 -2-2z"/></g></svg>