<svg viewBox="0 0 48 48" xmlns="http://www.w3.org/2000/svg"><g fill="none" stroke="#000" stroke-linecap="round" stroke-linejoin="round"><circle cx="24" cy="24" r="21.5"/><path d="m33.7559 43.1591-2.289-5.0082-.096-7.0261"/><path d="m31.8985 30.9346 1.8543-.6111 1.1588-2.6824-1.1026-2.6656-3.6411 2.2479-.6679 2.215.5444 2.1073z"/><path d="m33.809 24.9755a6.5526 6.5526 0 0 1 3.1458-.153l-3.0771-4.4943z"/><path d="m33.8777 20.3282-3.6335-6.3991-5.3589-2.28-4.6332-1.1666 2.35 5.7512 7.27.3676z"/><path d="m22.6017 16.2341-7.5144 4.4836-5.4861 9.3251-4.66 3.9077"/><circle cx="24.3997" cy="21.1488" r="1.9183"/></g><circle cx="24" cy="21.247" r=".75"/></svg>