<svg viewBox="0 0 48 48" xmlns="http://www.w3.org/2000/svg"><g fill="none" stroke="#000" stroke-linecap="round" stroke-linejoin="round"><circle cx="19.14" cy="33.67" r="7.52"/><circle cx="38.99" cy="37.8" r="3.4"/><path d="m21.21 26.44 18.78 8.11"/><path d="m38.99 41.2h-19.85"/><path d="m10.18 17.5a7.33 7.33 0 0 0 -5.68 7.29 7.5 7.5 0 0 0 1.65 4.7"/><path d="m41.72 35.78c2.07-1.72 2.83-10.28-.48-13.55a18.18 18.18 0 0 0 -13.82-5.69"/><path d="m22.67 20.79c2.49 0 5-2.49 5-6.47s-1.89-7.52-7.67-7.52-6.84 3.8-6.84 7.2"/><path d="m13.62 19.69a6.21 6.21 0 0 0 -4.93 6.09c0 3.13 3.5 5 3.5 5"/><path d="m14.61 19.79c-3.34 0-5.1-3.25-5.1-3.25.71-1.17 3.16-2.53 4.68-2.81l.63 1.58a7.17 7.17 0 0 0 4.32.91s-.27 3.57-4.53 3.57z"/><path d="m15.81 12.56v-1.13"/><path d="m18.97 12.56v-1.13"/><path d="m6.15 29.49 7.79 9.6"/><path d="m37.45 30.92c1.44.56 6 1.9 6-.42"/></g></svg>