<svg viewBox="0 0 48 48" xmlns="http://www.w3.org/2000/svg"><g fill="none" stroke="#000" stroke-linecap="round" stroke-linejoin="round"><path d="m18.951 23.515-13.451 13.451 5.049 5.049 13.451-13.451"/><path d="m29.0486 23.5149 1.9156-1.9155-.3275-5.2658 2.2438-2.2436v4.2665l2.1374 2.1374 6.3753-6.3753 1.1055 1.1055a10.0557 10.0557 0 0 0 -3.243-7.149c-2.5427-2.5428-5.6013-2.58-7.0753-1.1056l-6.7971 6.7971 1.38 1.9367-2.7633 2.7631"/><path d="m6.6068 14.1185-1.1055 1.1055a10.0557 10.0557 0 0 1 3.243-7.149c2.5427-2.5428 5.6013-2.58 7.0753-1.1056l6.7971 6.7971-1.38 1.9367 21.2633 21.2632-5.0486 5.0485-20.4156-20.4155.3275-5.2658-2.2433-2.2436v4.2665l-2.1374 2.1374z"/></g></svg>