<svg viewBox="0 0 48 48" xmlns="http://www.w3.org/2000/svg"><g fill="none" stroke="#000" stroke-linecap="round" stroke-linejoin="round"><path d="m42.5 19.4192a13.673 13.673 0 0 1 -13.6731 13.673 13.673 13.673 0 0 1 -13.673-13.673 13.6731 13.6731 0 0 1 13.673-13.6731 13.673 13.673 0 0 1 13.6731 13.6731z"/><path d="m36.0952 42.2539h-30.0483"/><path d="m28.788 42.2539v-9.1617"/><path d="m8.5349 42.2539v-17.0929"/><circle cx="8.5349" cy="20.0056" r="3.035"/><path d="m6.1005 33.6379v-6.9822"/><path d="m10.9694 33.6379v-6.9822"/><path d="m38.9535 19.4192a10.1266 10.1266 0 1 1 -10.1266-10.1266 10.1266 10.1266 0 0 1 10.1266 10.1266z"/></g></svg>