<svg viewBox="0 0 48 48" xmlns="http://www.w3.org/2000/svg"><g fill="none" stroke="#000" stroke-linecap="round" stroke-linejoin="round"><ellipse cx="24" cy="24" rx="19.5" ry="9.5"/><ellipse cx="24" cy="24" rx="19.5" ry="9.5" transform="matrix(.48273833 -.87576464 .87576464 .48273833 -8.6041 33.4327)"/><path d="m25.3688 24a2.2147 2.2147 0 0 1 0 4.4294h-3.6542v-8.8588h3.6542a2.2147 2.2147 0 0 1 0 4.4294z"/><path d="m25.3688 24h-3.6542"/><path d="m21.7146 19.5706h-1.2981"/><path d="m21.7146 28.4294h-1.2981"/><path d="m22.8412 19.5706v-1.5706"/><path d="m24.649 19.5706v-1.5706"/><path d="m22.8412 30v-1.5706"/><path d="m24.649 30v-1.5706"/><ellipse cx="24" cy="24" rx="9.5" ry="19.5" transform="matrix(.87576464 -.48273833 .48273833 .87576464 -8.6041 14.5673)"/></g></svg>