<svg viewBox="0 0 48 48" xmlns="http://www.w3.org/2000/svg"><g fill="none" stroke="#000" stroke-linecap="round" stroke-linejoin="round"><path d="m13.4555 7.8789h21.089a2.4777 2.4777 0 0 1 2.4822 2.4734v24.2162a2.4778 2.4778 0 0 1 -2.4714 2.4842h-21.1a2.4778 2.4778 0 0 1 -2.4822-2.4734v-24.2162a2.4778 2.4778 0 0 1 2.4714-2.4842z"/><path d="m16.0712 40.28h15.8576m-17.6576 3.22 3.6037-6.4473m12.25 0 3.6039 6.4473"/><path d="m14.0103 7.8789h19.9794v15.4643h-19.9794z"/><circle cx="16.0712" cy="32.462" r="2"/><circle cx="31.9288" cy="32.462" r="2"/><path d="m16.5212 4.5h14.9576"/><path d="m27.3622 4.5v3.3789"/><path d="m20.6378 4.5v3.3789"/></g></svg>