<svg viewBox="0 0 48 48" xmlns="http://www.w3.org/2000/svg"><g fill="none" stroke="#000" stroke-linecap="round" stroke-linejoin="round"><path d="m18.28 6a2.47 2.47 0 0 1 2.44-2.5 16.4 16.4 0 0 1 16.4 16.4 2.46 2.46 0 0 1 -4.92 0 11.44 11.44 0 0 0 -11.44-11.44 2.47 2.47 0 0 1 -2.48-2.46z"/><path d="m29.72 42a2.46 2.46 0 0 1 -2.46 2.46 16.4 16.4 0 0 1 -16.4-16.4 2.46 2.46 0 1 1 4.92 0 11.44 11.44 0 0 0 11.44 11.48 2.47 2.47 0 0 1 2.5 2.46z"/><path d="m6 29.72a2.47 2.47 0 0 1 -2.5-2.44 16.4 16.4 0 0 1 16.4-16.4 2.46 2.46 0 1 1 0 4.92 11.44 11.44 0 0 0 -11.44 11.44 2.47 2.47 0 0 1 -2.46 2.48z"/><path d="m42 18.28a2.46 2.46 0 0 1 2.46 2.46 16.4 16.4 0 0 1 -16.4 16.4 2.46 2.46 0 0 1 0-4.92 11.44 11.44 0 0 0 11.48-11.44 2.47 2.47 0 0 1 2.46-2.5z"/></g></svg>