<svg viewBox="0 0 48 48" xmlns="http://www.w3.org/2000/svg"><g fill="none" stroke="#000" stroke-linecap="round" stroke-linejoin="round"><path d="m43.5 37.5v-27a2 2 0 0 0 -2-2h-35a2 2 0 0 0 -2 2v27a2 2 0 0 0 2 2h35a2 2 0 0 0 2-2z"/><rect height="19" rx="1" width="32" x="8" y="12.2453"/><rect height="6.8178" rx="3.4089" width="24.6168" x="11.6916" y="20.5911"/><circle cx="15.1005" cy="24" r="3.4089"/><path d="m23.2123 20.591a5.3208 5.3208 0 0 1 0 6.8186"/><circle cx="32.8995" cy="24" r="3.4089"/><path d="m41.5 39.5-2.678-5.63h-29.644l-2.678 5.631"/></g></svg>