<svg viewBox="0 0 48 48" xmlns="http://www.w3.org/2000/svg"><g fill="none" stroke="#000" stroke-linecap="round" stroke-linejoin="round"><path d="m31 10.91c5 0 7.9.68 10.79 4.16 2.35 2.84 2.45 9.54 1.57 11.7-2.3 5.59-7.94 4.46-7.94 1.42"/><path d="m17 10.91c-5 0-7.91.68-10.79 4.16-2.35 2.84-2.46 9.54-1.57 11.7 2.29 5.59 7.94 4.46 7.94 1.42"/><path d="m32 11.73a6.6 6.6 0 0 0 -2.72-1.73 16.64 16.64 0 0 0 -10.56 0 6.6 6.6 0 0 0 -2.72 1.73c-2.7 2.63-4.18 7.45-4.31 14a3.77 3.77 0 0 0 .57 2.06 26.93 26.93 0 0 0 1.6 2.3c.89 1.21 1.6 2.16 1.6 3 0 2.63 2.1 5.71 8.51 5.74s8.51-3.11 8.51-5.74c0-.87.71-1.82 1.6-3a26.93 26.93 0 0 0 1.6-2.3 3.77 3.77 0 0 0 .57-2.06c-.1-6.55-1.58-11.37-4.25-14zm-14.16 8.15c1 0 1.88 1.33 1.88 3s-.84 3-1.88 3-1.84-1.4-1.84-3.04.8-2.96 1.84-2.96zm6.16 14.17a4.53 4.53 0 0 1 -4.79-3.65 1.83 1.83 0 0 1 .31-1.58c1.27-1.62 4.35-1.55 4.48-1.56s3.21-.06 4.48 1.56a1.83 1.83 0 0 1 .31 1.58c-.23.93-.72 3.65-4.79 3.65m6.16-8.25c-1 0-1.88-1.32-1.88-3s.84-3 1.88-3 1.88 1.33 1.88 3-.84 3-1.88 3z"/></g><circle cx="17.73" cy="22.12" r=".75"/><circle cx="30.04" cy="22.12" r=".75"/><path d="m17.35 32.44c.17 1.56 1.13 3.4 2.86 3.71a3.17 3.17 0 0 0 3.79-2.1" fill="none" stroke="#000" stroke-linecap="round" stroke-linejoin="round"/><path d="m30.65 32.44c-.17 1.56-1.13 3.4-2.86 3.71a3.17 3.17 0 0 1 -3.79-2.1" fill="none" stroke="#000" stroke-linecap="round" stroke-linejoin="round"/></svg>