<svg viewBox="0 0 48 48" xmlns="http://www.w3.org/2000/svg"><g fill="none" stroke="#000" stroke-linecap="round" stroke-linejoin="round"><path d="m12.7257 4.5h-2.3257a2 2 0 0 0 -2 2v35a2 2 0 0 0 2 2h2.3255"/><path d="m12.7257 4.5v39h24.8743a2 2 0 0 0 2-2v-35a2 2 0 0 0 -2-2z"/><path d="m15.6628 8.2757h21v14h-21z"/><path d="m26.163 8.276v7h-10.5"/><path d="m26.1628 10.4477h10.5"/><path d="m26.1628 12.8617h10.5"/><path d="m26.1628 15.2757h10.5"/><path d="m15.6628 17.6897h21"/><path d="m15.6628 20.1037h21"/></g></svg>