<svg viewBox="0 0 48 48" xmlns="http://www.w3.org/2000/svg"><g fill="none" stroke="#000" stroke-linecap="round" stroke-linejoin="round"><path d="m23.4091 40.5455h1.1818l17.7273-5.9091 1.1818-21.2728-18.9091 4.7273h-1.1818l-18.9091-4.7273 1.1818 21.2728z"/><path d="m4.5 13.3636 18.9091-5.9091h1.1818l18.9091 5.9091"/><path d="m30.1959 30.958a5.5446 5.5446 0 0 0 7.7341-1.2891"/><path d="m30.1959 21.9344v2.5781"/><path d="m37.93 23.2235v-2.5782"/><path d="m13.8037 30.605a2.0818 2.0818 0 0 1 .1508-1.4036 2.0545 2.0545 0 0 1 .5232-.6544c.2111-.1859.4421-.3479.6587-.5274a4.8671 4.8671 0 0 0 1.36-1.785 4.2277 4.2277 0 0 0 .33-2.2129 3.7394 3.7394 0 0 0 -.9218-2.03 3.3544 3.3544 0 0 0 -1.95-1.0628 3.1585 3.1585 0 0 0 -3.5454 2.3636"/></g><circle cx="14.014" cy="32.5501" r=".75"/></svg>