<svg viewBox="0 0 48 48" xmlns="http://www.w3.org/2000/svg"><g fill="none" stroke="#000" stroke-linecap="round" stroke-linejoin="round"><path d="m37.2513 6.625-4.8045 3.4318-4.1181-1.9146-.9031-5.78-6.43.0723-.9031 5.7437-4.2988 1.6257-4.6962-3.2873-4.5155 4.4794 3.36 4.5155-1.626 4.4071-5.816.9393.0361 6.2856 5.7076 1.0476 1.8423 4.19"/><path d="m28.3118 34.8605a11.1875 11.1875 0 0 1 -13.53-4.1 11.8035 11.8035 0 0 1 .8614-14.41 11.1524 11.1524 0 0 1 13.9176-2.3828 11.7063 11.7063 0 0 1 5.4 13.3382"/><path d="m21.7088 18.7359a6.2337 6.2337 0 0 1 8.2845 7.7506"/><path d="m27.0726 30.0558a6.2336 6.2336 0 0 1 -8.801-7.6755"/><path d="m21.7088 18.7359 4.7485 4.4786-3.4373 3.6444-4.7484-4.4789"/><path d="m29.9933 26.4865 10.968 10.0292"/><path d="m27.0726 30.0558 10.95 9.9123"/><path d="m37.2752 6.6177 4.3735 4.6182-3.3954 4.6186 1.5255 4.3355 5.7212 1.0359-.0769 6.43-5.7993.7688-1.4315 3.1334"/><path d="m27.5739 45.6093-6.36.0284-1.0439-5.6365-4.205-1.8547-4.6713 3.4625-4.6357-4.4566 3.4082-4.7546"/><path d="m27.5739 45.6093.82-5.7561 4.2748-1.6876"/><path d="m40.9613 36.5157a2.2668 2.2668 0 1 1 -2.9382 3.4524"/></g></svg>