<svg viewBox="0 0 48 48" xmlns="http://www.w3.org/2000/svg"><g fill="none" stroke="#000" stroke-linecap="round" stroke-linejoin="round"><path d="m37.5132 6.9507h-27.0264a5.9852 5.9852 0 0 0 -5.8951 7.02l3.8841 22.1282a5.9852 5.9852 0 0 0 5.8951 4.95h19.2582a5.9852 5.9852 0 0 0 5.8951-4.95l3.8841-22.1283a5.9852 5.9852 0 0 0 -5.8951-7.0199z"/><path d="m30.5274 20.3525a6.5286 6.5286 0 1 0 -9.6259 5.7458v6.9564a1.12 1.12 0 0 0 1.12 1.12h3.9568a1.12 1.12 0 0 0 1.12-1.12v-6.9564a6.5258 6.5258 0 0 0 3.4291-5.7458z"/></g></svg>