<svg viewBox="0 0 48 48" xmlns="http://www.w3.org/2000/svg"><g fill="none" stroke="#000" stroke-linecap="round" stroke-linejoin="round"><path d="m33.7523 40.6454v-6.177a2.131 2.131 0 0 1 .6378-1.5259c.9606-.9432 2.891-2.8481 4.9882-4.972l-.0088-.0047a9.9474 9.9474 0 0 0 -5.0724-17.0376 3.4077 3.4077 0 0 1 -2.1877-1.3874 9.9478 9.9478 0 0 0 -16.2188 0 3.4077 3.4077 0 0 1 -2.1877 1.3874 9.9474 9.9474 0 0 0 -5.0724 17.0376l-.0088.0047c2.0972 2.1239 4.0276 4.0288 4.9882 4.972a2.131 2.131 0 0 1 .6378 1.5259v6.177a2 2 0 0 0 2 2h15.5046a2 2 0 0 0 2-2z"/><path d="m28.2812 42.6454v-21.4032a4.2812 4.2812 0 0 0 -4.2812-4.2811 4.2812 4.2812 0 0 0 -4.2812 4.2811v21.4032"/></g></svg>