<svg viewBox="0 0 48 48" xmlns="http://www.w3.org/2000/svg"><g fill="none" stroke="#000" stroke-linecap="round" stroke-linejoin="round"><rect height="29" rx="2" width="39" x="4.5" y="11.3995"/><path d="m11.0593 11.3995-3.5747-3.6542"/><path d="m13.036 11.3995 3.8691-6.2196"/><path d="m24 40.3995v2.4206"/><path d="m18.2678 42.8201h11.4644"/><path d="m18.0092 31.2963a2.0627 2.0627 0 1 1 2.0627-2.0627 2.0627 2.0627 0 0 1 -2.0627 2.0627z"/><path d="m30.014 31.2963a2.0627 2.0627 0 1 1 2.0626-2.0627 2.0629 2.0629 0 0 1 -2.0626 2.0627z"/><path d="m24 18.5975a14.7032 14.7032 0 0 1 14.7033 14.7032 2.0988 2.0988 0 0 1 -2.0988 2.0993h-25.209a2.0988 2.0988 0 0 1 -2.0988-2.0988 14.7032 14.7032 0 0 1 14.7033-14.7037z"/><path d="m11.3033 16.3995 4.1772 4.9169"/><path d="m36.6967 16.3995-4.1772 4.9169"/></g></svg>