<svg viewBox="0 0 48 48" xmlns="http://www.w3.org/2000/svg"><g fill="none" stroke="#000" stroke-linecap="round" stroke-linejoin="round"><path d="m4.5 33.67h13v4.83h-13z"/><path d="m4.5 28.83h13v4.83h-13z"/><path d="m4.5 24h13v4.83h-13z"/><path d="m17.5 33.67h13v4.83h-13z"/><path d="m17.5 28.83h13v4.83h-13z"/><path d="m17.5 24h13v4.83h-13z"/><path d="m17.5 19.17h13v4.83h-13z"/><path d="m30.5 19.17h13v4.83h-13z"/><path d="m17.5 14.33h13v4.83h-13z"/><path d="m17.5 9.5h13v4.83h-13z"/><path d="m30.5 33.67h13v4.83h-13z"/><path d="m30.5 28.83h13v4.83h-13z"/><path d="m30.5 24h13v4.83h-13z"/></g></svg>