<svg viewBox="0 0 48 48" xmlns="http://www.w3.org/2000/svg"><g fill="none" stroke="#000" stroke-linecap="round" stroke-linejoin="round"><path d="m4.5 13.0034h11.6525l5.0818-4.9489 5.0845 4.9488h3.0731v5.2339h14.1081v16.7568h-11.6469l-5.0593 4.9515-5.0819-4.9515h-3.0758v-5.2338h-14.1361z"/><path d="m24 19.4147a1.7477 1.7477 0 0 1 1.7186 1.7753v2.1948a1.7477 1.7477 0 0 1 -1.7186 1.7752 1.7477 1.7477 0 0 1 -1.7187-1.7753v-2.1947a1.7477 1.7477 0 0 1 1.7187-1.7753z"/><path d="m20.77 24.23a3.2808 3.2808 0 0 0 6.4607 0"/><path d="m23.9999 26.938v1.6471"/><path d="m32.348 24.0726h9.0384"/><path d="m36.8416 22.1036v1.969"/><path d="m39.6589 24.0726c0 2.7192-4.0467 6.3434-7.2439 7.031"/><path d="m33.9 24.3507c.2908 2.1072 4.2265 6.3153 7.1546 6.7529"/><path d="m7.7231 26.6784 3.5255-10.6368"/><path d="m14.6281 26.7101-3.3795-10.6685"/><path d="m13.4976 23.1413h-4.6022"/><path d="m16.1524 13.0034h10.1663"/><path d="m21.7118 34.9939h10.1412"/><ellipse cx="24" cy="24" rx="6.1979" ry="6.2062"/></g></svg>