<svg viewBox="0 0 48 48" xmlns="http://www.w3.org/2000/svg"><g fill="none" stroke="#000" stroke-linecap="round" stroke-linejoin="round"><path d="m41.68 13h-16.91c-2-.1-5.93-4.23-8.19-4.23h-9.9a2.18 2.18 0 0 0 -2.18 2.23v7.29h39v-3.42a1.83 1.83 0 0 0 -1.82-1.87z"/><path d="m43.5 18.28h-39v18.72a2.18 2.18 0 0 0 2.17 2.2h34.65a2.18 2.18 0 0 0 2.18-2.2z"/><path d="m25.32 33.82h5.1"/><path d="m25.32 23.62h5.1"/><path d="m25.32 28.72h3.33"/><path d="m25.32 23.62v10.2"/><path d="m32.58 32.7a2.85 2.85 0 0 0 2.5 1.12h1.51a2.55 2.55 0 0 0 2.54-2.55 2.55 2.55 0 0 0 -2.54-2.55h-1.67a2.55 2.55 0 0 1 -2.55-2.55 2.55 2.55 0 0 1 2.55-2.55h1.51a2.86 2.86 0 0 1 2.5 1.11"/></g></svg>