<svg viewBox="0 0 48 48" xmlns="http://www.w3.org/2000/svg"><g fill="none" stroke="#000" stroke-linecap="round" stroke-linejoin="round"><path d="m43.5 25.2705v-14.8705a2 2 0 0 0 -2-2h-35a2 2 0 0 0 -2 2v27.2a2 2 0 0 0 2 2h27.2653"/><path d="m4.5 15.6355h39"/><path d="m37.4884 41.6a11.3084 11.3084 0 0 0 7.9125-9.394 38.0524 38.0524 0 0 0 -.0342-5.7676 1.2188 1.2188 0 0 0 -1.1834-1.1348 8.5063 8.5063 0 0 1 -6.0041-2.1231.9838.9838 0 0 0 -1.3816 0 8.5061 8.5061 0 0 1 -6.0041 2.1231 1.2188 1.2188 0 0 0 -1.1835 1.1348 38.0524 38.0524 0 0 0 -.0342 5.7676 11.3084 11.3084 0 0 0 7.9126 9.394z"/><path d="m37.4884 41.6v-18.7028"/></g></svg>