<svg viewBox="0 0 48 48" xmlns="http://www.w3.org/2000/svg"><g fill="none" stroke="#000" stroke-linecap="round" stroke-linejoin="round"><path d="m4.5 28.22h5.31"/><path d="m4.5 17.6h5.31"/><path d="m4.5 22.91h3.46"/><path d="m4.5 17.6v10.62"/><path d="m11.74 27.05a3 3 0 0 0 2.6 1.17h1.57a2.66 2.66 0 0 0 2.65-2.66 2.65 2.65 0 0 0 -2.65-2.65h-1.74a2.65 2.65 0 0 1 -2.64-2.65 2.65 2.65 0 0 1 2.64-2.66h1.57a3 3 0 0 1 2.61 1.17"/><path d="m36.68 27.05a3 3 0 0 0 2.6 1.17h1.57a2.66 2.66 0 0 0 2.65-2.66 2.65 2.65 0 0 0 -2.65-2.65h-1.73a2.65 2.65 0 0 1 -2.65-2.65 2.65 2.65 0 0 1 2.65-2.66h1.57a3 3 0 0 1 2.6 1.17"/></g><circle cx="27.5" cy="19.12" r=".75"/><path d="m26.14 21.93 1.36-.29v5.76l1.37-.3" fill="none" stroke="#000" stroke-linecap="round" stroke-linejoin="round"/><path d="m27.5 16.21a6.91 6.91 0 0 0 -4.5 12.11l-.32 3.47 3.32-1.94a6.64 6.64 0 0 0 1.5.15 6.91 6.91 0 0 0 0-13.82z" fill="none" stroke="#000" stroke-linecap="round" stroke-linejoin="round"/></svg>