<svg viewBox="0 0 48 48" xmlns="http://www.w3.org/2000/svg"><g fill="none" stroke="#000" stroke-linecap="round" stroke-linejoin="round"><path d="m9.3781 6.3746v32.8054a1.8746 1.8746 0 0 0 1.8746 1.8746h2.1839v-36.5546h-2.1839a1.8746 1.8746 0 0 0 -1.8746 1.8746z"/><path d="m13.4366 4.5v36.5548h23.3107a1.8746 1.8746 0 0 0 1.8746-1.8748v-32.8054a1.8746 1.8746 0 0 0 -1.8746-1.8746z"/><path d="m18.4108 41.3649v2.1351l-1.4132-.5929-1.6064.5929v-2.1351"/><path d="m25.5332 41.3416v2.1352l-1.4132-.5929-1.6064.5929v-2.1352"/><path d="m17.3615 8.9009h15.9088v10.6585h-15.9088z"/><path d="m17.3868 11.7636h15.9088"/><path d="m17.3868 16.726h15.9088"/></g></svg>