<svg viewBox="0 0 48 48" xmlns="http://www.w3.org/2000/svg"><g fill="none" stroke="#000" stroke-linecap="round" stroke-linejoin="round"><path d="m7.89 43.5h26.56s-.7448-12.3661-4.2418-12.7772"/><path d="m30.2086 30.7239s2.1982 4.4825-4.4811 4.4825h-9.4775v-4.6409h6.2313s1.9831-1.9286 4.4918-4.3836m3.0342-2.9762c1.2145-1.1943 2.4625-2.4251 3.6489-3.6015m2.2082-2.199a46.5723 46.5723 0 0 0 4.2348-4.4633l-23.8492.0081v-1.0944a3.6828 3.6828 0 0 1 4.02-4.0206"/><path d="m20.2689 7.818s1.2076-2.4553-12.3789-3.318v39"/><path d="m33.71 19.55h-17.46v-2.1379h19.6062"/><path d="m26.9737 26.1809h-10.7228v-2.9576h13.7384"/></g></svg>