<svg viewBox="0 0 48 48" xmlns="http://www.w3.org/2000/svg"><g fill="none" stroke="#000" stroke-linecap="round" stroke-linejoin="round"><path d="m40.25 13.7155 2.59-2.5506a3.0221 3.0221 0 0 0 -4.2819-4.2659l-.0018.0018-2.5506 2.5992a18.41 18.41 0 0 0 -21.5151 0l-2.57-2.57a3.1738 3.1738 0 0 0 -2.1706-.9151 2.9786 2.9786 0 0 0 -2.1223.8761 3.0179 3.0179 0 0 0 0 4.2641l2.5993 2.5507a18.4976 18.4976 0 0 0 -3.476 10.8062v2.738h36.9942v-2.738a18.4973 18.4973 0 0 0 -3.4952-10.7965zm-19.87 6.98a2.9206 2.9206 0 1 1 -2.92-2.9204 2.9206 2.9206 0 0 1 2.9205 2.9206zm12.6559 2.9206a2.9206 2.9206 0 1 1 2.9206-2.9206 2.9206 2.9206 0 0 1 -2.9201 2.9208z"/><path d="m12.3409 27.2497h25.8086v14.7372h-25.8086z"/><path d="m25.2452 27.2497v14.7372"/><path d="m28.9382 32.8879h5.4673v3.4609h-5.4673z"/><path d="m16.1121 32.8879h5.4673v3.4609h-5.4673z"/></g></svg>