<svg viewBox="0 0 48 48" xmlns="http://www.w3.org/2000/svg"><g fill="none" stroke="#000" stroke-linecap="round" stroke-linejoin="round"><path d="m24 15.94-3.5 3.5h-4.94v4.95l-3.5 3.5 3.5 3.49v4.95h4.94l3.5 3.5 3.5-3.5h4.94v-4.95l3.5-3.49-3.5-3.5v-4.95h-4.94z"/><path d="m38.36 6.19h-1.07a1.79 1.79 0 0 0 -3.57 0h-19.42a1.79 1.79 0 0 0 -3.57 0h-1.07a2.88 2.88 0 0 0 -2.9 2.81v3.68h34.48v-3.62a2.87 2.87 0 0 0 -2.86-2.87z"/><path d="m41.24 12.71h-34.48v28a2.85 2.85 0 0 0 2.86 2.86h28.74a2.86 2.86 0 0 0 2.88-2.85z"/><path d="m28.47 30.9a5.39 5.39 0 0 0 -4.47-8.4"/><path d="m19.53 24.87a5.4 5.4 0 0 0 4.47 8.41"/><path d="m24 23.33v2.03l-2.79-2.79 2.79-2.78v2.02z"/><path d="m24 32.44v-2.02l2.79 2.78-2.79 2.79v-2.03z"/></g></svg>