<svg viewBox="0 0 48 48" xmlns="http://www.w3.org/2000/svg"><g fill="none" stroke="#000" stroke-linecap="round" stroke-linejoin="round"><path d="m40.5 42.5h-33a2 2 0 0 1 -2-2v-33a2 2 0 0 1 2-2h33a2 2 0 0 1 2 2v33a2 2 0 0 1 -2 2z"/><path d="m9.5 27.95h5.96"/><path d="m9.5 16.02h5.96"/><path d="m9.5 21.99h3.89"/><path d="m9.5 16.02v11.93"/><path d="m38.5 25v4a3 3 0 0 1 -3 3 3 3 0 0 1 -2.11-.88"/><path d="m38.5 20.05v4.95a3 3 0 0 1 -3 3 3 3 0 0 1 -3-3v-4.95"/><path d="m24.15 27.28a3.33 3.33 0 0 0 2.45.72h.67a2 2 0 0 0 2-2 2 2 0 0 0 -2-2h-1.34a2 2 0 0 1 -2-2 2 2 0 0 1 2-2h.67a3.37 3.37 0 0 1 2.46.67"/><path d="m18.87 17.59v8.87a1.49 1.49 0 0 0 1.49 1.54h.44"/><path d="m17.3 20.05h3.13"/></g></svg>