<svg viewBox="0 0 48 48" xmlns="http://www.w3.org/2000/svg"><g fill="none" stroke="#000" stroke-linecap="round" stroke-linejoin="round"><path d="m37.5967 23.1694a12.4463 12.4463 0 1 0 -21.5575 0s9.0452 12.9277 10.7787 20.3306c1.3578-7.3707 10.7788-20.3306 10.7788-20.3306z"/><path d="m23.7064 11.3472h7.0528l-2.5929 5.1859h2.5929l-4.9785 7.7789v-5.7045h-2.0743z"/><path d="m22.6723 33.8625a10.3311 10.3311 0 0 0 -2.1065 2.95c-.2864 1.0305.7375 2.2534.239 3.2-.99 1.8792-3.4777 3.8241-5.5087 3.2025-.896-.2742-1.3126-2.6369-1.3126-2.6369"/><path d="m12.5736 40.6879 2.8858-.2264-.2256-2.6277 1.9427-1.63-.2788-2.7992 1.0346-.12-.1742-2.12-9.0229.6269.1481 2.3268.969-.0352.3 2.7578 2.1748 1.3168z"/><path d="m10.8452 28.1034.2362 3.5239"/><path d="m14.7237 27.8016.2712 3.5346"/></g></svg>