<svg viewBox="0 0 48 48" xmlns="http://www.w3.org/2000/svg"><g fill="none" stroke="#000" stroke-linecap="round" stroke-linejoin="round"><path d="m8.8949 24.7535a2.654 2.654 0 0 0 2.2305 1.2129l.0513-.0041a2.6509 2.6509 0 1 0 3.4664 3.9939 2.6472 2.6472 0 0 0 2.3226 3.9345 3.5037 3.5037 0 0 0 2.7034-1.5107v1.2631a2.6569 2.6569 0 0 0 2.6573 2.6569 2.8 2.8 0 0 0 2.7541-2.5935 2.8185 2.8185 0 0 0 2.7541 2.7206 3.0434 3.0434 0 0 0 2.8689-2.937 3.02 3.02 0 0 0 2.871 2.3773 2.6567 2.6567 0 0 0 2.6567-2.6574 4.2854 4.2854 0 0 0 -.8046-2.2464 3.1577 3.1577 0 0 0 2.7623 1.8548 2.6565 2.6565 0 0 0 1.4511-4.8817 2.6566 2.6566 0 0 0 .5535-5.2527 2.6564 2.6564 0 0 0 -.3505-5.29q-.1069.0028-.2132.0144a2.6433 2.6433 0 0 0 -3.2513-3.7663q.0086-.08.0123-.16a2.6491 2.6491 0 0 0 -4.17-2.1773c-.0256-1.4483-1.702-2.6092-3.15-2.61a2.8827 2.8827 0 0 0 -2.8086 2.7634"/><circle cx="22.4928" cy="13.7095" r="4.3905"/><ellipse cx="13.6135" cy="13.6007" rx="4.3905" ry="3.4035"/><path d="m10.1335 22.3814a2.3168 2.3168 0 1 1 -4.6335 0"/><path d="m31.5839 22.3814a2.3168 2.3168 0 1 1 -4.6335 0"/><path d="m25.4192 21.7a6.9478 6.9478 0 1 1 -13.8955 0"/><path d="m5.5 22.3814c.0011-2.157 1.6777-6.7425 4.0765-7.4427"/><path d="m31.5839 22.3814a10.3592 10.3592 0 0 0 -4.3739-8.2691"/><path d="m26.95 22.3814c.1269-3.9355-.9811-5.83-.9822-5.815"/><path d="m14.4887 10.177a6.5027 6.5027 0 0 1 2.434-2.4516 3.34 3.34 0 0 1 1.5032-.37 4.2728 4.2728 0 0 1 3.5541 1.9033"/><path d="m11.5237 21.7s-.1835-3.7023.3127-4.9645"/><path d="m16.649 40.5535a31.2277 31.2277 0 0 1 2.7664-6.9143"/><path d="m19.8018 40.6143a13.8476 13.8476 0 0 1 1.5439-4.3963"/><path d="m33.31 40.6278a20.0469 20.0469 0 0 0 -.6808-4.8839"/><path d="m36.4922 40.6446a18.5578 18.5578 0 0 0 -.8971-5.6123"/><path d="m25.4192 21.7s.1169-3.5431-.2769-4.4015"/><path d="m18.93 28.6343s-1.7631-.1895-1.19-2.5728"/><path d="m15.0807 24.5183s1.9263 2.9553 5.741.7362"/><path d="m24.9942 24.099c.0226-.5666-1.3416-2.0428-2.0119-2.2626"/></g><circle cx="20.6752" cy="13.6705" r=".75"/><circle cx="15.4392" cy="13.7095" r=".75"/><path d="m11.5472 9.2807s3.1359-2.3113 5.6038.4107" fill="none" stroke="#000" stroke-linecap="round" stroke-linejoin="round"/><path d="m20.4747 6.55s2.35-1.7766 4.82 1.9232" fill="none" stroke="#000" stroke-linecap="round" stroke-linejoin="round"/><path d="m10.1335 22.3814s-.3694-3.6306 1.7029-5.6455" fill="none" stroke="#000" stroke-linecap="round" stroke-linejoin="round"/></svg>