<svg viewBox="0 0 48 48" xmlns="http://www.w3.org/2000/svg"><path d="m20.9942 5.82c-1.568.2744-7.1 1.6676-8.9695 5.9123-1.0612 2.4092-3.7773 6.6956-5.407 11.2056a49.6751 49.6751 0 0 0 -2.0931 8.5921 1.9872 1.9872 0 0 0 .9331 2.0167 23.7212 23.7212 0 0 0 12.2266 3.0733c8.7168 0 11.0666-1.857 11.0666-1.857.1516.8338 3.9794 7.5419 3.9794 7.5419 8.9443-4.8515 11.5597-15.0464 10.5739-21.2619-2.7287.7959-4.7753 3.79-4.7753 3.79s-3.1077-2.5393-5.7607-2.5393-8.8463 3.4488-8.8463 3.4488a3.6317 3.6317 0 0 0 -2.94-1.2c-2.0718 0-5.6343 2.4129-5.6343 2.4129a41.2964 41.2964 0 0 1 -1.0233-7.7946 13.0908 13.0908 0 0 1 2.3245-6.645s3.3351.4548 4.2447-.2274a6.07 6.07 0 0 0 .9854-.8085s2.5771 1.8191 2.88-.0506a1.3424 1.3424 0 0 0 -.4809-1.4293s1.163-.744-.1508-2.6895-2.1224-1.6672-3.133-1.4905z" fill="none" stroke="#000" stroke-linecap="round" stroke-linejoin="round"/></svg>