<svg viewBox="0 0 48 48" xmlns="http://www.w3.org/2000/svg"><g fill="none" stroke="#000" stroke-linecap="round" stroke-linejoin="round"><path d="m19.4125 26.6771-4.3894 5.61-2.1957-2.7944-4.5793 5.7129h5.0558l6.7983.0373h5.73z"/><path d="m8.7 7.98a0 0 0 0 1 0 0v4.2a0 0 0 0 1 0 0h-4.2a0 0 0 0 1 0 0 4.2 4.2 0 0 1 4.2-4.2z"/><path d="m4.5 14.94h4.2v4.2h-4.2z"/><path d="m39.3 7.98a4.2 4.2 0 0 1 4.2 4.2 0 0 0 0 1 0 0h-4.2a0 0 0 0 1 0 0v-4.2a0 0 0 0 1 0 0z"/><path d="m11.46 7.98h4.2v4.2h-4.2z"/><path d="m18.42 7.98h4.2v4.2h-4.2z"/><path d="m25.38 7.98h4.2v4.2h-4.2z"/><path d="m32.34 7.98h4.2v4.2h-4.2z"/><path d="m32.34 35.82h4.2v4.2h-4.2z"/><path d="m39.3 35.82a4.2 4.2 0 0 1 4.2 4.2 0 0 0 0 1 0 0h-4.2a0 0 0 0 1 0 0v-4.2a0 0 0 0 1 0 0z" transform="matrix(0 1 -1 0 79.32 -3.48)"/><path d="m39.3 14.94h4.2v4.2h-4.2z" transform="matrix(0 1 -1 0 58.44 -24.36)"/><path d="m39.3 21.9h4.2v4.2h-4.2z" transform="matrix(0 1 -1 0 65.4 -17.4)"/><path d="m39.3 28.86h4.2v4.2h-4.2z" transform="matrix(0 1 -1 0 72.36 -10.44)"/><path d="m4.5 21.9h25.08a0 0 0 0 1 0 0v18.12a0 0 0 0 1 0 0h-20.88a4.2 4.2 0 0 1 -4.2-4.2v-13.92a0 0 0 0 1 0 0z"/></g></svg>