<svg viewBox="0 0 48 48" xmlns="http://www.w3.org/2000/svg"><g fill="none" stroke="#000" stroke-linecap="round" stroke-linejoin="round"><path d="m40.5 5.5h-33a2 2 0 0 0 -2 2v33a2 2 0 0 0 2 2h33a2 2 0 0 0 2-2v-33a2 2 0 0 0 -2-2z"/><path d="m35.3586 11.4476-7.379 9.7773"/><path d="m35.3586 21.2249-7.379-9.7773"/><path d="m24.1428 33.4439a6.017 6.017 0 0 1 -5.2845 3.1085 6.2353 6.2353 0 0 1 -6.2169-6.217v-4.041a6.2352 6.2352 0 0 1 6.2169-6.217 6.2352 6.2352 0 0 1 6.217 6.217v2.1756h-12.4339"/></g></svg>