<svg viewBox="0 0 48 48" xmlns="http://www.w3.org/2000/svg"><path d="m35.0884 7.72h-11.8141a6.7249 6.7249 0 0 0 -6.1519 4.0085l-2.19 4.9593h23.2686a.8966.8966 0 0 1 .82 1.2588l-.6929 1.5694h-29.8681l-3.96 8.968h4.8939l-1.2488 2.8281-.4857 1.1a5.6044 5.6044 0 0 0 5.1272 7.8679h16.0728a4.6143 4.6143 0 0 0 4.6556-4.0434 4.4849 4.4849 0 0 0 -4.463-4.9245h-14.4927a2.0145 2.0145 0 0 1 -1.8429-2.8281h18.7915a11.2146 11.2146 0 0 0 10.2592-6.6854l1.0077-2.2826a8.4023 8.4023 0 0 0 -7.6864-11.796z" fill="none" stroke="#000" stroke-linecap="round" stroke-linejoin="round"/></svg>