<svg viewBox="0 0 48 48" xmlns="http://www.w3.org/2000/svg"><g fill="none" stroke="#000" stroke-linecap="round" stroke-linejoin="round"><path d="m12.3 18.81h23.4v21h-23.4z"/><path d="m35.7 10.19h7.8v29.63h-7.8z"/><path d="m4.5 10.19h7.8v29.63h-7.8z"/><path d="m4.5 10.19v-2"/><path d="m8.4 10.19v-2"/><path d="m8.4 16.81v-2"/><path d="m39.6 16.81v-2"/><path d="m19.5 26v-2"/><path d="m28.5 26v-2"/><path d="m12.3 10.19v-2"/><path d="m35.7 10.19v-2"/><path d="m39.6 10.19v-2"/><path d="m43.5 10.19v-2"/><path d="m20.1 18.81v-2"/><path d="m16.2 18.81v-2"/><path d="m24 18.81v-2"/><path d="m27.9 18.81v-2"/><path d="m31.8 18.81v-2"/><path d="m24 29.81a4.5 4.5 0 0 1 4.5 4.5v5.5a0 0 0 0 1 0 0h-9a0 0 0 0 1 0 0v-5.5a4.5 4.5 0 0 1 4.5-4.5z"/></g></svg>