<svg viewBox="0 0 48 48" xmlns="http://www.w3.org/2000/svg"><g fill="none" stroke="#000" stroke-linecap="round" stroke-linejoin="round"><path d="m34.366 39.5718a22.0294 22.0294 0 0 0 1.4358-7.9336c0-8.084-5.296-11.199-10.7235-13.12-5.593-1.9792-11.3225-2.7112-11.3225-7.7282 0-4.6328 4.1136-6.29 8.9861-6.29 5.1521 0 18.212 3.6544 18.212 18.7512a23.7521 23.7521 0 0 1 -6.5879 16.3206"/><path d="m15.2532 14.4049c0 3.9338-5.1318 7.8877-5.1318 11.3624a11.8049 11.8049 0 0 0 1.8771 6.1505s-4.9524-3.3948-4.9524-11.023 4.3328-11.2703 7.0988-12.3448"/><path d="m22.702 43.5c2.804 0 12.7177-5.2363 12.7177-15.3364"/><path d="m22.702 43.5c-2.6241 0-11.4748-4.586-12.6-13.4525"/><path d="m11.3479 34.35a4.1108 4.1108 0 0 1 -3.5829-4.469 3.81 3.81 0 0 1 .75-2.2991"/></g></svg>