<svg viewBox="0 0 48 48" xmlns="http://www.w3.org/2000/svg"><g fill="none" stroke="#000" stroke-linecap="round" stroke-linejoin="round"><path d="m43.3243 33.435a21.5091 21.5091 0 0 0 -19.3243-30.935 21.4706 21.4706 0 0 0 -18.9553 31.6088l-.5593 2.0843-1.9279 7.2016a1.6731 1.6731 0 0 0 2.0481 2.0481l7.2-1.9279 2.0744-.5549a21.4838 21.4838 0 0 0 19.5527.366m-12.9082-26.2872 6.6672 6.6673 9.7767-6.6673-6.6673 9.7766-2.8249 4.1458-6.6672-6.6672-9.7766 6.6672 6.6676-9.7766z"/><circle cx="38.5" cy="38.5" r="7"/><path d="m36.5 34.5v8h4"/></g></svg>