<svg viewBox="0 0 48 48" xmlns="http://www.w3.org/2000/svg"><g fill="none" stroke="#000" stroke-linecap="round" stroke-linejoin="round"><path d="m39.81 18.87 3.19 1.84c.66.39.67 1 0 1.39l-23.53 13.59a2.67 2.67 0 0 1 -2.4 0l-12.07-6.97a.74.74 0 0 1 0-1.39l6.65-3.84"/><path d="m36.53 20.76 4.4 2.54"/><path d="m7.24 26.03 14.48 8.36"/><path d="m7.24 20.95 19.22-11.09 14.47 8.36-19.21 11.09z"/><path d="m43.5 21.39v2.15a.84.84 0 0 1 -.49.72l-23.54 13.59a2.67 2.67 0 0 1 -2.4 0l-12.07-6.97a.85.85 0 0 1 -.5-.67"/><path d="m4.5 28.04v2.17"/></g></svg>