<svg viewBox="0 0 48 48" xmlns="http://www.w3.org/2000/svg"><g fill="none" stroke="#000" stroke-linecap="round" stroke-linejoin="round"><path d="m34.8572 23.21 2.9618-4.1573a1.4951 1.4951 0 0 0 -.1877-1.9514l-12.6081-11.9841a2.2429 2.2429 0 0 0 -3.09 0l-12.6086 11.9837a1.4952 1.4952 0 0 0 -.1876 1.9514l12.5143 17.5657a2.2429 2.2429 0 0 0 3.6534 0l1.7214-2.4164"/><path d="m8.887 18.441 14.591-1.331 14.591 1.331"/><path d="m15.083 27.399 8.395-.668 3.414.272"/><path d="m41.2679 29.3028-7.481-7.1105a1.3309 1.3309 0 0 0 -1.8336 0l-7.481 7.1105a.8873.8873 0 0 0 -.1114 1.1578l7.4254 10.4226a1.3308 1.3308 0 0 0 2.1677 0l7.4253-10.4226a.8873.8873 0 0 0 -.1114-1.1578z"/><path d="m24.213 30.098 8.657-.79 8.658.79"/><path d="m27.889 35.413 4.981-.396 4.981.396"/><path d="m33.954 40.8832a9.3234 9.3234 0 0 1 -4.9227 2.6168l.21-1.5511-1.352-1.2789a11.097 11.097 0 0 0 3.0323-1"/><path d="m25.3047 36.618c-.4195.5888-1.66 2.4382-2.5618 2.4382h-6.0787c-1.2786 0-6.1416-7.7975-7.8047-7.7975a2.5747 2.5747 0 0 0 -2.4034 1.32l2.2428.6079 1.2664 1.6634 1.347-1.5983"/><path d="m21.9559 39.0562c-1.2786 0-6.1416-7.7975-7.8047-7.7975h-5.2912"/><path d="m20.6518 35.215a6.0893 6.0893 0 0 1 -1.0936 1.61"/></g></svg>