<svg viewBox="0 0 48 48" xmlns="http://www.w3.org/2000/svg"><g fill="none" stroke="#000" stroke-linecap="round" stroke-linejoin="round"><path d="m21.1 25.6s-6.37 8.53-11.2 3.73c-3.32-3.33 3.1-6.81 3.1-6.81s-6.88.25-6.88-3 5-6 5-6c-2-1.16-2-3.94.84-6s6.04 1.48 6.04 1.48-1-1.26 2.62-3 7.93 2 7.93 2 .2-2 3.43-2c5.2 0 5.85 6 5.85 6s4-1.05 4 2.93-4.83 3.3-4.83 3.3 4.93 1.31 4.93 6.31-5.49 3.46-5.49 3.46a5.25 5.25 0 0 1 -4.09 2.27 8.1 8.1 0 0 1 -5.75-2.82 27.43 27.43 0 0 0 -1 4.73 17.75 17.75 0 0 0 .85 5.45 5.19 5.19 0 0 1 -3.71 1.66 4.38 4.38 0 0 1 -3.85-2.29s3-.11 3.05-2 .81-6.27-.84-9.4z"/><path d="m26.42 37.65c3.48 0 7.56-.14 11.46.78 2.84.67 2.92 4.07 2.92 4.07h-33.53c-.07-2 3.2-4.15 3.77-4.34a34.83 34.83 0 0 1 7.85-1.16"/></g></svg>