<svg viewBox="0 0 48 48" xmlns="http://www.w3.org/2000/svg"><g fill="none" stroke="#000" stroke-linecap="round" stroke-linejoin="round"><path d="m24 43.5v-22.542"/><path d="m24 20.958 15.4907-7.874"/><path d="m21.5396 6.4606 2.4604-1.2506"/><path d="m8.5093 13.084 5.4994-2.7954"/><path d="m24 36.5954 15.4907-7.874"/><path d="m24 20.958-15.4907-7.874"/><path d="m24 36.5954-2.6518-1.3479"/><path d="m39.4907 13.084v15.6374"/><path d="m29.624 30.653-3.036 1.543v-3.577l3.036-1.543z"/><path d="m37.188 26.808-3.036 1.543v-3.577l3.036-1.543z"/><path d="m8.509 13.084v30.416h24.083 4.596v-13.608"/><path d="m24 5.21 15.4907 7.874"/><path d="m21.3482 35.2475v8.2525"/><path d="m15.9666 22.867 2.7468-1.3962"/><path d="m15.9666 32.3374 2.7468-1.3962"/><path d="m15.9666 22.867-7.4573-3.7906"/><path d="m15.9666 32.3374-7.4573-3.7906"/><path d="m15.9666 22.867v9.4704"/><path d="m8.509 19.076 2.747-1.396 7.457 3.791v9.47"/><path d="m26.7688 16.7747-2.7688-1.4074"/><path d="m31.745 14.245-4.976 2.53v-3.15l4.976-2.53z"/><path d="m26.7688 13.6246-2.7688-1.4074"/><path d="m31.7454 11.0951-2.7689-1.4075"/><path d="m28.9765 9.6876-4.9765 2.5296"/><path d="m24 15.3673v-3.1501"/><path d="m21.6659 14.1809-2.7688-1.4074"/><path d="m24 12.994-2.334 1.187v-3.15l4.976-2.53v2.373"/><path d="m21.6659 11.0308-2.7688-1.4074"/><path d="m26.6425 8.5012-2.7689-1.4074"/><path d="m23.8736 7.0938-4.9765 2.5296"/><path d="m18.8971 12.7735v-3.1501"/><path d="m16.563 11.587-2.7688-1.4074"/><path d="m18.897 10.401-2.334 1.186v-3.15l4.977-2.53v2.373"/><path d="m16.563 8.437-2.7688-1.4074"/><path d="m21.5396 5.9074-2.7689-1.4074"/><path d="m18.7707 4.5-4.9765 2.5296"/><path d="m13.7942 10.1796v-3.15"/><path d="m11.4601 8.9932 2.3341 1.1864"/><path d="m13.8124 7.7975-2.3523 1.1957"/><path d="m11.4601 8.9932v2.5558"/><path d="m14.179 27.441-2.367-1.203v-3.007l2.367 1.204"/><path d="m14.1788 24.4347v3.0061"/><path d="m34.4337 34.6368 2.754-1.3999"/><path d="m34.4337 34.6368v-3.3427"/><path d="m34.4337 34.6368-3.6827-1.473"/><path d="m26.693 38.59 2.754-1.4v-3.381"/><path d="m26.6934 38.5902v-3.3639"/><path d="m26.6934 38.5902-2.6934-1.0773"/></g></svg>