<svg viewBox="0 0 48 48" xmlns="http://www.w3.org/2000/svg"><g fill="none" stroke="#000" stroke-linecap="round" stroke-linejoin="round"><circle cx="24.0075" cy="23.971" r="11.5158"/><path d="m36.0816 36.0952.0862 6.1358-5.6342-2.4333-2.2704 5.7023-4.2732-4.4043-4.2784 4.3987-2.2641-5.7039-5.6355 2.4269.0916-6.1359-6.1357.0862 2.4332-5.6342-5.7011-2.269 4.4031-4.2745-4.3974-4.2781 5.7043-2.2629-2.4272-5.6371 6.1369.093-.0862-6.1357 5.6329 2.4331 2.2704-5.7023 4.2732 4.403 4.2784-4.3987 2.2641 5.704 5.6355-2.4257-.0914 6.1346 6.1355-.0849-2.4332 5.6342 5.7011 2.269-4.4031 4.2745 4.3986 4.2784-5.7037 2.2629 2.4269 5.6358z"/><path d="m6.9032 23.9906 34.1925.0184"/></g></svg>