<svg viewBox="0 0 48 48" xmlns="http://www.w3.org/2000/svg"><g fill="none" stroke="#000" stroke-linecap="round" stroke-linejoin="round"><path d="m31.53 28.23 11.55-6-12.22-1.1a20.26 20.26 0 0 1 .67 7.1z"/><path d="m20.19 27.59a29.39 29.39 0 0 0 5.61 5.15l-9.06 7.68z"/><path d="m37.12 21.71c-.3-.73-.41-.95-.91-2.25l7.29.87-3.11 1.67"/><path d="m18.78 32.88-4.78 2.12-9.5-.11 7.66-5 5.28-1.09 1.8 2.3"/><path d="m23.78 34.46 1.85.06-4.94 4.16.11-1.68"/><path d="m25.63 34.52 10.63-7.36.31-1.52"/><path d="m12.16 29.89c-1.07 2.33.2 3.8 1.8 5.15"/><path d="m29.54 18.76 9.58-1.35 4.08-7.63-9.89-.55-2.81 3.49"/><path d="m33.31 9.23-5.76-1.65.93 5.19"/><path d="m29.54 18.76-6.4-5.84 7.36-.2a9.94 9.94 0 0 0 -.96 6.04z"/><path d="m17.44 28.8 13.47-9.8"/><path d="m29.54 18.76a6.67 6.67 0 0 1 4.8 2.69"/><path d="m36.21 19.46-1.1-1.46"/></g></svg>