<svg viewBox="0 0 48 48" xmlns="http://www.w3.org/2000/svg"><g fill="none" stroke="#000" stroke-linecap="round" stroke-linejoin="round"><path d="m23.72 19a12 12 0 0 0 -3.52-1 8.49 8.49 0 0 0 -.88.05 1.58 1.58 0 0 0 -1.17.76l-.82 1.36h-.33a11.69 11.69 0 1 0 9.34 4.7l.66-1.31a1.57 1.57 0 0 0 0-1.46 11.15 11.15 0 0 0 -3.28-3.1m0 0 1.51-2.32 5.38 2.76 2.62-4"/><path d="m36.72 4.5.63 3.55 3.35-1.32-1.58 3.24 3.5.9-3.19 1.69 2.3 2.78-3.57-.5.22 3.6-2.59-2.51-1.94 3.05-.62-3.55-3.36 1.33 1.58-3.25-3.49-.89 3.19-1.7-2.31-2.78 3.58.5-.23-3.6 2.6 2.51z"/></g></svg>