<svg viewBox="0 0 48 48" xmlns="http://www.w3.org/2000/svg"><g fill="none" stroke="#000" stroke-linecap="round" stroke-linejoin="round"><path d="m40.0974 34.0492a16.9135 16.9135 0 0 0 -14.5989-25.598 17.6769 17.6769 0 0 0 -5.2.8"/><path d="m9.2 20.55a18.5381 18.5381 0 0 0 -.7 4.8 16.9844 16.9844 0 0 0 16.97 16.9986h.0286a17.2141 17.2141 0 0 0 8.1994-2.1"/><path d="m5.5 12.5509c2.4 3.6 5 8.0993 11.5991 6.6 2.2 2.5 15.7988 16.9987 18.8986 20.3984a.9127.9127 0 0 0 1.1.2c.1 0 .1-.1.2-.2l1.1-1.1 1.1-1.1a.91.91 0 0 0 0-1.2c-3.3-3.1-17.7986-16.6988-20.3984-18.8986 1.6-6.6995-2.8-9.2993-6.6-11.5991"/><path d="m10.9 7.1513s5.2 3.8 6 5.9"/><path d="m7.3 10.751s3.8 5.4 5.9 5.9995"/><path d="m9.0997 8.9511 5.6996 5.6996"/></g></svg>