<svg viewBox="0 0 48 48" xmlns="http://www.w3.org/2000/svg"><g fill="none" stroke="#000" stroke-linecap="round" stroke-linejoin="round"><circle cx="13.8559" cy="37.5508" r="3.0508"/><circle cx="31.7546" cy="37.5508" r="3.0508"/><path d="m4.5 10.805h4.678l4.678 23.695h17.899"/><circle cx="37.5" cy="16.7034" r="6"/><path d="m41.161 9.2797-1.0609 2.0195"/><path d="m32.5169 8.9237 4.017-1.5254"/><path d="m37.5 16.7034-1.2712-3.661"/><path d="m10.0741 15.3443 18.07.9015"/><path d="m13.0312 30.3227h20.91c3.2542 0 3.5593-4.4159 3.5593-4.4159"/><path d="m11.1558 20.8231 18.0052.5074"/><path d="m12.0635 25.4209 23.0745.4408"/><path d="m30.5339 30.3227.9661-6.6024"/><path d="m24.7373 30.3227-.1538-14.2546"/><path d="m17.6195 15.7207 1.4896 14.602"/></g></svg>