<svg viewBox="0 0 48 48" xmlns="http://www.w3.org/2000/svg"><g fill="none" stroke="#000" stroke-linecap="round" stroke-linejoin="round"><path d="m24.888 24c0 3.2793-2.0884 9.6912-2.9213 12.1181a.3158.3158 0 0 0 .4872.3555l15.442-11.3591a1.3836 1.3836 0 0 0 0-2.229l-15.442-11.3591a.3158.3158 0 0 0 -.4872.3555c.8333 2.4269 2.9213 8.8388 2.9213 12.1181"/><path d="m28.2621 32.2012c-.4772 1.6068-.95 3.0287-1.255 3.9169a.3158.3158 0 0 0 .4872.3555l15.442-11.3591a1.3836 1.3836 0 0 0 0-2.229l-15.442-11.3591a.3158.3158 0 0 0 -.4872.3555c.3048.8882.7778 2.31 1.255 3.9169"/><path d="m18.6506 26.9325h-14.1506"/><path d="m6.424 24h12.2266"/><path d="m18.6506 21.0675h-9.3096"/></g></svg>