<svg viewBox="0 0 48 48" xmlns="http://www.w3.org/2000/svg"><path d="m11.32 7.23-2-.29a1.93 1.93 0 0 0 -1.67 2.13v29.85c0 1.18.75 2.25 1.66 2.13l2-.26m.62-33.85c-.69 0-1.24.95-1.24 2.13v29.85c0 1.18.56 2.25 1.24 2.13l12.07-1.9v-30.3zm-4.28 1.91h-1.26a1.88 1.88 0 0 0 -1.89 1.89v26.51a1.89 1.89 0 0 0 1.89 1.9h1.26m16.35-30.3v30.3h14.3a1.89 1.89 0 0 0 1.89-1.9v-26.51a1.88 1.88 0 0 0 -1.89-1.89h-2.72v14.69a.24.24 0 0 1 -.37.2l-2.62-1.81-2.59 1.81a.24.24 0 0 1 -.37-.2v-14.69zm14.3 30.3h3.28a1.9 1.9 0 0 0 1.89-1.9v-26.51a1.89 1.89 0 0 0 -1.89-1.89h-3.25m1.77 0" fill="none" stroke="#000" stroke-linecap="round" stroke-linejoin="round"/></svg>