<svg viewBox="0 0 48 48" xmlns="http://www.w3.org/2000/svg"><g fill="none" stroke="#000" stroke-linecap="round" stroke-linejoin="round"><path d="m17.7362 13.7231a5.0789 5.0789 0 1 1 5.0789-5.0789v5.0789"/><path d="m13.2137 37.0421a5.0794 5.0794 0 1 0 9.6014 2.3137v-5.0789"/><path d="m8.0788 18.1785a5.08 5.08 0 0 1 4.6183-8.9125"/><path d="m16.1619 32.4319a5.0789 5.0789 0 1 1 -8.083-4.0956"/><path d="m8.0789 28.3363a5.0789 5.0789 0 1 1 5.0789-5.0789"/><path d="m30.2638 13.7231a5.0789 5.0789 0 1 0 -5.0789-5.0789v5.0789"/><path d="m34.786 37.0416a5.0793 5.0793 0 1 1 -9.6011 2.3142v-5.0789"/><path d="m39.9212 18.1785a5.08 5.08 0 0 0 -4.6183-8.9125"/><path d="m31.8381 32.4319a5.0789 5.0789 0 1 0 8.083-4.0956"/><path d="m39.9211 28.3363a5.0789 5.0789 0 1 0 -5.0789-5.0789"/><path d="m17.73 21.0763-1.9371-.9033"/><path d="m32.2071 27.827-1.937-.9032"/><path d="m17.7301 26.9237-1.9372.9033"/><path d="m32.2071 20.173-1.9365.9029"/><path d="m26.9238 17.7298.9032-1.9369"/><path d="m20.173 32.2071.9032-1.9371"/><path d="m21.0755 17.7283-.9025-1.9354"/><path d="m27.827 32.2071-.9033-1.9372"/><circle cx="24" cy="24" r="6.9195"/><path d="m22.0249 20.0498h3.9502"/><path d="m22.0249 24h2.5676"/><path d="m22.0249 20.0498v7.9004"/></g></svg>