<svg viewBox="0 0 48 48" xmlns="http://www.w3.org/2000/svg"><g fill="none" stroke="#000" stroke-linecap="round" stroke-linejoin="round"><circle cx="16.98" cy="15.94" r="3"/><circle cx="31" cy="15.94" r="3"/><rect height="12.99" rx="2.8" width="27.32" x="10.34" y="9.17"/><rect height="20.31" rx="3.03" width="31.32" x="8.34" y="22.15"/><path d="m10.34 15.94h-1a1 1 0 0 1 -1-1v-9.4"/><path d="m37.66 15.94h1a1 1 0 0 0 1-1v-9.4"/><path d="m22.55 6h2.9a1 1 0 0 1 .95.7l.78 2.49h-6.36l.78-2.49a1 1 0 0 1 .95-.7z"/></g></svg>