<svg viewBox="0 0 48 48" xmlns="http://www.w3.org/2000/svg"><g fill="none" stroke="#000" stroke-linecap="round" stroke-linejoin="round"><path d="m27.647 23.9998h5.0573"/><path d="m27.647 18.8468h5.0573"/><path d="m27.647 23.9998h3.2873"/><path d="m27.647 18.8468v10.306"/><path d="m27.647 29.1528h5.0573"/><path d="m8.5 18.8468h5.0574"/><path d="m8.5 23.9998h3.2873"/><path d="m8.5 18.8468v10.306"/><path d="m39.5 22.3255-5.0574 6.8277"/><path d="m39.5 29.1532-5.0574-6.8277"/><path d="m18.2354 27.8567a2.4407 2.4407 0 0 1 -2.1493 1.2883 2.56 2.56 0 0 1 -2.5287-2.5764v-1.6747a2.5291 2.5291 0 1 1 5.0573 0v.9018h-5.0573"/><path d="m25.6858 24.902a2.5291 2.5291 0 1 0 -5.0574 0v1.6747a2.5291 2.5291 0 1 0 5.0574 0"/><path d="m25.6858 29.1532v-10.306"/><path d="m7.4611 6.6748a2 2 0 0 0 -2 2v33a2 2 0 0 0 2 2h33.04a2 2 0 0 0 2-2v-33a2 2 0 0 0 -2-2z"/></g></svg>