<svg viewBox="0 0 48 48" xmlns="http://www.w3.org/2000/svg"><g fill="none" stroke="#000" stroke-linecap="round" stroke-linejoin="round"><path d="m11.48 7.3292.1819 28.302c.0745 6.2391.0463 6.2375 4.7816 6.3091l15.188.0454c4.8175.0024 4.8152.0035 4.8893-5.9121v-9.8531"/><path d="m5.6641 22.3679 15.101-14.685c2.7524-2.265 3.6682-2.2787 6.7008.2936l14.87 14.317"/><path d="m16.7436 23.7749c7.687-7.0739 14.225 0 14.225 0"/><path d="m18.7816 25.9979a6.7441 6.7441 0 0 1 10.149-.074"/><path d="m20.8557 27.9979a3.8282 3.8282 0 0 1 6.0008.0741"/><circle cx="24" cy="30.7789" r="1.274"/></g></svg>