<svg viewBox="0 0 48 48" xmlns="http://www.w3.org/2000/svg"><path d="m30.9489 4.5c-2.8494.03-4.9422 2.0947-5.9644 4.6566l-10.4773 25.4368c.4.3225 6.5827.4142 5.7043 7.9743-.129 1.1109 8.52 1.1262 9.08.5821 1.6971-.8486-3.5322-11.0647 5.7625-12.5727.7929-.1287-5.7171-14.59-5.4714-14.0861 3.3194-.0111 7.4505-2.6469 7.4505-5.9663v-.08a6.0245 6.0245 0 0 0 -6.0842-5.9447z" fill="none" stroke="#000" stroke-linecap="round" stroke-linejoin="round"/><path d="m24.3452 10.1358-1.5252-.6183.2792-.6779c0-1.5685-2.2865-2.1109-2.8249-1.1636a3.6471 3.6471 0 0 0 -.5143 1.2487c-.0892 1.4471 2.1815 2.0077 2.825 1.1636l.2351-.5708zm-1.7581 4.2685-1.5252-.6183.2792-.6779c0-1.5685-2.2865-2.1109-2.8249-1.1636a3.6443 3.6443 0 0 0 -.5143 1.2486c-.0893 1.4471 2.1814 2.0077 2.8249 1.1636l.2351-.5707zm-1.7582 4.2684-1.5251-.6183.2792-.6779c0-1.5685-2.2866-2.1109-2.825-1.1636a3.6447 3.6447 0 0 0 -.5143 1.2487c-.0892 1.4471 2.1814 2.0077 2.825 1.1636l.2351-.5708zm-1.7582 4.2685-1.5251-.6183.2792-.6779c0-1.5685-2.2866-2.1109-2.825-1.1636a3.6463 3.6463 0 0 0 -.5143 1.2486c-.0892 1.4471 2.1815 2.0077 2.825 1.1636l.2351-.5707zm-1.7582 4.2688-1.5251-.6183.2792-.6779c0-1.5685-2.2865-2.1109-2.8249-1.1636a3.6447 3.6447 0 0 0 -.5143 1.2487c-.0893 1.4471 2.1814 2.0077 2.8249 1.1636l.2351-.5708zm-1.7581 4.2685-1.5252-.6185.2793-.6779c0-1.5685-2.2866-2.1109-2.825-1.1636a3.6443 3.6443 0 0 0 -.5143 1.2486c-.0893 1.4471 2.1814 2.0077 2.8249 1.1636l.2351-.5707z" fill="none" stroke="#000" stroke-linecap="round" stroke-linejoin="round"/><circle cx="27.105" cy="11.3452" r=".75"/><circle cx="25.3664" cy="15.5661" r=".75"/><circle cx="23.6278" cy="19.7869" r=".75"/><circle cx="21.8893" cy="24.0078" r=".75"/><circle cx="20.1507" cy="28.2287" r=".75"/><circle cx="18.4121" cy="32.4495" r=".75"/></svg>