<svg viewBox="0 0 48 48" xmlns="http://www.w3.org/2000/svg"><g fill="none" stroke="#000" stroke-linecap="round" stroke-linejoin="round"><path d="m30.099 29.214c2.139-6.328-3.5538-9.695-6.2593-7.7093"/><path d="m16.306 22.184c1.1 6.5885 7.7082 6.8707 9.1565 3.8433"/><path d="m19.217 30.413c6.4416 1.7679 9.4722-4.1109 7.3328-6.6965"/><path d="m39.839 38.538c10.937-25.974-16.798-31.188-22.434-19.109"/><path d="m10.178 40.468c26.533 9.502 30.224-18.477 17.855-23.445"/><circle cx="24" cy="24" r="21.5"/><circle cx="24" cy="24" r="8"/><circle cx="24" cy="24" r="2.5"/><path d="m8.0391 9.5952c-10.918 25.982 16.797 31.203 22.424 19.119"/><path d="m38.597 8.2151c-21.482-12.546-31.703 12.544-21.135 20.396"/><path d="m27.362 16.741c-6.6716-.3291-8.3555 6.067-5.7063 8.1272"/></g></svg>