<svg viewBox="0 0 48 48" xmlns="http://www.w3.org/2000/svg"><g fill="none" stroke="#000" stroke-linecap="round" stroke-linejoin="round"><path d="m5.51 28.31v11.69a1.94 1.94 0 0 0 1.94 2h33.1a2 2 0 0 0 2-2v-11.69"/><path d="m39 13.72 2.58-2.56a3 3 0 0 0 -4.27-4.26l-2.55 2.6a18.39 18.39 0 0 0 -21.51 0l-2.57-2.57a3.22 3.22 0 0 0 -2.18-.93 3 3 0 0 0 -2.12 5.15l2.62 2.56a18.41 18.41 0 0 0 -3.47 10.8v3.8h37v-3.8a18.57 18.57 0 0 0 -3.53-10.79zm-19.87 7a2.93 2.93 0 1 1 -2.93-2.92 2.93 2.93 0 0 1 2.94 2.9zm12.65 2.92a2.92 2.92 0 1 1 2.92-2.92 2.92 2.92 0 0 1 -2.91 2.9z"/><path d="m19.56 30.71h2.96l-2.96 2.96v2.96l5.92-5.92h2.96l-8.88 8.88h2.96l5.92-5.92v2.96l-2.96 2.96h2.96"/></g></svg>