<svg viewBox="0 0 48 48" xmlns="http://www.w3.org/2000/svg"><g fill="none" stroke="#000" stroke-linecap="round" stroke-linejoin="round"><path d="m41.8 40.55c-1.25-2.79-7.18-14.43-15.12-14.43-6.08 0-7.59 6.28-13.88 6.28a12.42 12.42 0 0 1 -4.64-.71.53.53 0 0 0 -.68.31.64.64 0 0 0 0 .2c.1 3.57 1.32 10.3 10.52 10.3 6.67 0 7.31-6.57 14.94-6.57 3.89 0 7.48 3.44 8.69 4.75a.1.1 0 0 0 .15 0 .11.11 0 0 0 .02-.13z"/><path d="m37.07 19.2-3.84-13.7-3.34 5.92a15.52 15.52 0 0 0 -23.7 13.18 15.2 15.2 0 0 0 .45 3.68h4.12a11.54 11.54 0 0 1 17.13-13.4l-4.38 7.79z"/><path d="m21.05 28.28 4.45 1.36-.53 3.12 2.19.91-.91 4.61"/></g></svg>