<svg viewBox="0 0 48 48" xmlns="http://www.w3.org/2000/svg"><g fill="none" stroke="#000" stroke-linecap="round" stroke-linejoin="round"><circle cx="24" cy="24" r="21.5"/><path d="m37.543 40.699-7.01-11.204h-9.813l-4.727 14.465"/><path d="m21.224 27.617 2.776-8.395 5.636 8.395z"/><path d="m21.224 27.617-2.187-1.514 4.963-6.881"/><path d="m10.099 40.402 8.387-13.04h2.37"/><path d="m20.7196 29.4953-2.2331-2.1335"/><path d="m30.5327 29.4953-2.2149-1.8785"/><path d="m34.4629 8.8508-8.8364 12.7942"/><path d="m42.1105 20.6863-15.2539 2.791"/><path d="m39.1492 34.4629-9.9124-6.8461"/><path d="m39.4638 14.008-13.2267 8.5465"/><path d="m27.8692 6-3.0913 14.3809"/><path d="m42 27.8692-14.2516-3.0635"/><path d="m13.5371 8.8508 8.7772 12.7085"/><path d="m5.8895 20.6863 15.0662 2.7567"/><path d="m8.8508 34.4629 9.1192-6.2982"/><path d="m8.5362 14.008 13.1132 8.4732"/><path d="m20.1308 6 3.078 14.3191"/><path d="m6 27.8692 13.9217-2.9926"/></g></svg>