<svg viewBox="0 0 48 48" xmlns="http://www.w3.org/2000/svg"><g fill="none" stroke="#000" stroke-linecap="round" stroke-linejoin="round"><path d="m24 23.6641h-3.8252s1.9329-8.0415.3608-11.9437-5.1247-7.2204-6.028-7.2204-4.2338 2.3554-4.2338 9.8311 4.0352 10.3846 4.0352 10.3846c-1.0434.3727-8.0032 10.5046-6.7041 12.6525s10.6244 5.5569 12.9064 5.93 2.4759.4939 2.4759-2.057v-3.7845s-3.7984-1.8061-3.4631-4.5071 4.4759-2.5318 4.4759-2.5318"/><path d="m16.1913 23.5738s-3.9661-11.9153-1.1826-12.3053 2.566 12.3053 2.566 12.3053z"/><path d="m24 23.6641h3.8252s-1.9329-8.0415-.3608-11.9437 5.1247-7.22 6.028-7.22 4.2338 2.3554 4.2338 9.8311-4.0352 10.3842-4.0352 10.3842c1.0434.3727 8.0032 10.5046 6.7041 12.6525s-10.6244 5.5569-12.9064 5.93-2.4759.4939-2.4759-2.057v-3.7845s3.7984-1.8061 3.4631-4.5071-4.4759-2.5318-4.4759-2.5318"/><path d="m31.8087 23.5738s3.9661-11.9153 1.1826-12.3053-2.566 12.3053-2.566 12.3053z"/></g></svg>