<svg viewBox="0 0 48 48" xmlns="http://www.w3.org/2000/svg"><g fill="none" stroke="#000" stroke-linecap="round" stroke-linejoin="round"><path d="m41.68 13.015h-16.91c-2-.1-5.93-4.23-8.19-4.23h-9.9a2.18 2.18 0 0 0 -2.1806 2.1794c0 .0169 0 .0337.0006.0506v7.29h39v-3.42a1.83 1.83 0 0 0 -1.7895-1.87z"/><path d="m43.5 18.295h-39v18.72a2.18 2.18 0 0 0 2.16 2.2h.01 34.65a2.18 2.18 0 0 0 2.18-2.18v-.02z"/><path d="m18.2936 22.5h7.0243"/><path d="m18.2936 28h2.7436"/><path d="m18.2936 22.5v11"/><path d="m29.706 22.5-5.394 5.5 5.394 5.5"/></g></svg>