<svg viewBox="0 0 48 48" xmlns="http://www.w3.org/2000/svg"><g fill="none" stroke="#000" stroke-linecap="round" stroke-linejoin="round"><path d="m40.5 5.5h-33a2 2 0 0 0 -2 2v33a2 2 0 0 0 2 2h33a2 2 0 0 0 2-2v-33a2 2 0 0 0 -2-2z"/><path d="m14.3588 15.3724h8.6276"/><path d="m12.8375 24h5.608"/><path d="m14.3588 15.3724-3.0425 17.2552"/><path d="m23.56 30.737c.8152 1.3775 2.0515 1.8906 3.8974 1.8906h2.5546a5.3641 5.3641 0 0 0 5.0651-4.3138 3.5166 3.5166 0 0 0 -3.5441-4.3138h-2.8225a3.5166 3.5166 0 0 1 -3.5439-4.3138 5.3642 5.3642 0 0 1 5.0652-4.3138h2.5545c1.8459 0 3.0822.5131 3.8974 1.8906"/></g></svg>