<svg viewBox="0 0 48 48" xmlns="http://www.w3.org/2000/svg"><path d="m23.87 14.42c-4-5 2.9-8.43.6.28m6.89-5.7a47.94 47.94 0 0 0 -7.49 6.21m8.2 3.4c-1.07-1.06-2.64-2.38-3.9-3.44m-12.44 4.02c1.54-2.19.84-1.53 4.27-6.19m8 8.45a1.11 1.11 0 1 1 -1.1-1.15 1.11 1.11 0 0 1 1.1 1.11zm-6.06 0a1.1 1.1 0 1 1 -1.1-1.11 1.11 1.11 0 0 1 1.16 1.07zm2.28 16.12a6 6 0 0 0 3.16-6.29m-3.93 2.84c1.72-1 2.12-2 2.14-4m-13.11-2.33c3.95 4.61 9.69 2.32 11.59-3.57 1 3.59 3.85 9.33 11.45 3.7m-12.2 14.82c-20.8-25.74 21.84-25.44 1.88.74.42-2.63-.87-5.85-1.88-.74zm-8-31c1.05-6.89 14.44-12.1 17.13 0 .48 2.15-.55 5.75-.55 12.64a78.21 78.21 0 0 0 -7.4-9.67c-1.83 1.63-5.74 3.92-8 9.67-1.14-8-1.48-10.46-1.14-12.63z" fill="none" stroke="#000" stroke-linecap="round" stroke-linejoin="round"/></svg>