<svg viewBox="0 0 48 48" xmlns="http://www.w3.org/2000/svg"><g fill="none" stroke="#000" stroke-linecap="round" stroke-linejoin="round"><circle cx="24" cy="24" r="21.5"/><ellipse cx="16.0196" cy="25.9258" rx="2.5984" ry="3.4111" transform="matrix(.96592583 -.25881905 .25881905 .96592583 -6.1642 5.0296)"/><ellipse cx="33.018" cy="21.3711" rx="2.5984" ry="3.4111" transform="matrix(.96592583 -.25881905 .25881905 .96592583 -4.4062 9.2739)"/><path d="m4.8691 33.811s-2.0147-9.7199 4.4109-13.434 7.5241 2.5611 14.53.2179c5.8314-1.95 4.0134-6.1858 10.282-7.3014 7.8219-1.392 11.208 7.7782 11.208 7.7782"/><circle cx="12.997" cy="35.534" r="4.1267"/><circle cx="40.02" cy="28.243" r="4.1267"/><path d="m24.031 32.118s.7414-8.4482 6.6351-2.2273c0 0-.8606 2.2064-6.6351 2.2273z"/><path d="m25.119 32.086s1.3481 2.4318 2.7824 2.03 1.9388-1.9308 2.03-3.3991"/></g></svg>