<svg viewBox="0 0 48 48" xmlns="http://www.w3.org/2000/svg"><g fill="none" stroke="#000" stroke-linecap="round" stroke-linejoin="round"><path d="m24.29 4.5q-.63 0-1.26 0a16.71 16.71 0 0 0 -14.4 9.21 16.33 16.33 0 0 0 -2 8.21 16.9 16.9 0 0 0 4.75 12.11c1.8 1.92 2.35 2.3 7.15 5a19.89 19.89 0 0 1 3.94 2.89l1.53 1.58 1.81-1.69a23.46 23.46 0 0 1 4.06-2.93c1.25-.67 3.15-1.84 4.22-2.59a17.69 17.69 0 0 0 5.49-22.16 17.4 17.4 0 0 0 -8.16-8 14.75 14.75 0 0 0 -7.13-1.63z"/><path d="m16.53 13.5h14.94"/><path d="m16.53 30.13h14.94"/><rect height="24.99" rx="1.79" width="14.94" x="16.53" y="9.32"/></g><circle cx="24" cy="32.23" r=".75"/></svg>