<svg viewBox="0 0 48 48" xmlns="http://www.w3.org/2000/svg"><g fill="none" stroke="#000" stroke-linecap="round" stroke-linejoin="round"><rect height="29.85" rx="2" width="18.09" x="14.96" y="13.64"/><path d="m28.81 13.64v-3.62"/><path d="m18.12 16.81h11.76v11.76h-11.76z"/><path d="m23.48 7.17a6.61 6.61 0 0 1 5.3-2.68 6.63 6.63 0 0 1 5.31 2.68m-8 1.72a3.23 3.23 0 0 1 5.31 0"/></g><circle cx="19.62" cy="31.61" r=".75"/><circle cx="24" cy="31.61" r=".75"/><circle cx="28.38" cy="31.61" r=".75"/><circle cx="24" cy="35.99" r=".75"/><circle cx="24" cy="40.37" r=".75"/><circle cx="28.38" cy="35.99" r=".75"/><circle cx="28.38" cy="40.37" r=".75"/><circle cx="19.62" cy="35.99" r=".75"/><circle cx="19.62" cy="40.37" r=".75"/></svg>