<svg viewBox="0 0 48 48" xmlns="http://www.w3.org/2000/svg"><g fill="none" stroke="#000" stroke-linecap="round" stroke-linejoin="round"><path d="m13.5733 29.1513c3.7894 3.5571 10.369 9.2517 10.369 9.2517s7.171-6.3138 10.369-9.0033c7.6208-6.4086 3.16-23.585-10.369-23.694-12.196-.0976-18.332 15.97-10.369 23.445z"/><path d="m17.42 25.5617c2.3931 2.2464 6.5486 5.8428 6.5486 5.8428s4.5288-3.9874 6.5486-5.686c4.8129-4.0473 1.9956-14.8956-6.5486-14.9633-7.7026-.0616-11.5781 10.0859-6.5486 14.8069z"/><circle cx="24.0113" cy="19.6193" r="3.4092"/><path d="m20.28 35.5523c-22.12 1.9854-9.569 6.74 3.4357 6.7425 13.123.0023 26.768-4.38 3.4755-6.7425"/></g></svg>