<svg viewBox="0 0 48 48" xmlns="http://www.w3.org/2000/svg"><path d="m24 5.5c-4.89 0-20.66 28.58-18.25 33.4s34.13 4.77 36.51 0-13.36-33.4-18.26-33.4zm12 29.21c-1.56 3.13-22.35 3.17-23.93 0s8.73-21.88 11.93-21.88 13.52 18.76 12 21.88z" fill="none" stroke="#000" stroke-linecap="round" stroke-linejoin="round"/><path d="m21.2914 31.3251a.75.75 0 1 1 .7445-.7554c0 .0119 0 .0239-.0006.0359a.7439.7439 0 0 1 -.7439.7195z"/><path d="m26.7673 31.3251a.75.75 0 1 1 .7445-.7554c0 .0119 0 .0239-.0006.0359a.7439.7439 0 0 1 -.7439.7195z"/><g fill="none" stroke="#000" stroke-linecap="round" stroke-linejoin="round"><path d="m24.0154 25.73a6.7065 6.7065 0 0 1 6.7065 6.7065.9537.9537 0 0 1 -.9537.9537h-11.5364a.9537.9537 0 0 1 -.9537-.9537 6.7066 6.7066 0 0 1 6.7064-6.7065z"/><path d="m18.2318 24.73 1.9073 2.2381"/><path d="m29.8144 24.73-1.8997 2.2381"/></g></svg>