<svg viewBox="0 0 48 48" xmlns="http://www.w3.org/2000/svg"><g fill="none" stroke="#000" stroke-linecap="round" stroke-linejoin="round"><circle cx="24" cy="24" r="4.5"/><circle cx="24" cy="6" r="3.5"/><circle cx="24" cy="42" r="3.5"/><circle cx="11.2721" cy="36.7279" r="3.5"/><circle cx="11.2721" cy="11.2721" r="3.5"/><circle cx="36.7279" cy="36.7279" r="3.5"/><circle cx="6" cy="24" r="3.5"/><path d="m27.4841 41.9178a18.1473 18.1473 0 0 0 6.7212-2.7857"/><path d="m13.7947 39.1321a18.1473 18.1473 0 0 0 6.7212 2.7857"/><path d="m6.085 27.4988a18.149 18.149 0 0 0 2.7829 6.7065"/><path d="m8.8593 13.8074a18.1478 18.1478 0 0 0 -2.7743 6.6938"/><path d="m20.5 6.0853a18.1479 18.1479 0 0 0 -6.6931 2.7747"/><path d="m39.6141 14.547a18.2693 18.2693 0 0 0 -12.1155-8.462"/><path d="m39.1321 34.2053a18.1646 18.1646 0 0 0 3.1179-10.2053 18.4549 18.4549 0 0 0 -.1186-2.092"/><path d="m40.165 9.577-.551 4.97-4.969-.551"/></g></svg>