<svg viewBox="0 0 48 48" xmlns="http://www.w3.org/2000/svg"><g fill="none" stroke="#000" stroke-linecap="round" stroke-linejoin="round"><path d="m41.1622 10.9633a20.3474 20.3474 0 0 0 -1.8722-2.1325 17.4448 17.4448 0 0 0 -1.7062-1.5708c.3433.3016.6762.6241.9986.957a11.9667 11.9667 0 0 1 2.6214 4.369 13.0572 13.0572 0 0 1 -1.0922 10.9745 12.6866 12.6866 0 0 1 -11.2138 5.8461c-.1976 0-.3849 0-.5825-.01-8.0723-.4889-10.1007-8.738-5.9086-12.306a4.9147 4.9147 0 0 0 -4.7434 2.4445c-1.3315 1.9869-1.2587 5.0452-.4369 7.2193a11.515 11.515 0 0 1 -1.0507-3.4016c-1.061-7.1571 3.7553-13.2628 8.1763-14.782-2.382-2.0808-8.3635-1.9349-12.8053 1.3315a14.9438 14.9438 0 0 0 -5.42 7.8329 20.7737 20.7737 0 0 1 2.2368-7.2712c-1.4875.77-3.3807 3.2039-4.3169 5.4508a22.111 22.111 0 0 0 -1.394 10.8185c.0312.2809.0625.5513.0937.8322a21.5319 21.5319 0 1 0 38.4159-16.6022z"/><path d="m41.2038 12.5861a12.1111 12.1111 0 0 0 -2.6214-4.369 19.0051 19.0051 0 0 0 -9.7054-5.18 21.4177 21.4177 0 0 0 -8.9044-.052 15.46 15.46 0 0 0 -7.4377 3.61 18.23 18.23 0 0 1 19.182 1.0506 16.7794 16.7794 0 0 1 2.5069 2.1943c3.5993 3.88 5.066 10.3608 2.0389 15.0211-1.5187 2.3613-4.7851 4.5666-7.833 4.5458a12.7116 12.7116 0 0 0 11.6715-5.8359 13.05 13.05 0 0 0 1.1026-10.9849z"/></g></svg>