<svg viewBox="0 0 48 48" xmlns="http://www.w3.org/2000/svg"><path d="m24 46.28c-5.36 0-21.5-3.66-21.5-22.3a17.77 17.77 0 0 1 8.17-14.98 14.26 14.26 0 0 0 .72 5.46h.07a17.64 17.64 0 0 1 5.12-4 13.11 13.11 0 0 0 -.26 2.51 11.22 11.22 0 0 0 .32 2.64 3.35 3.35 0 0 1 .49.43 11.16 11.16 0 0 0 2.63 2.26c2.48 1.36 4.24 2.18 4.24 2.18s-1.19 2.39-2.64 2.39c-5.9 0-7.08 3.84-7.08 3.84s1.19 7.93 9.55 7.93c3.08 0 9.18-1.7 9.18-8.83a8.83 8.83 0 0 0 -4.63-7.88 7.41 7.41 0 0 1 5.62 1.63 11.42 11.42 0 0 0 -10-5.9h-.7a15.82 15.82 0 0 1 7.42-11.94 24.26 24.26 0 0 0 3.74 5.71c2.61 3 6 6.51 7.36 10.17a24.29 24.29 0 0 0 -2.07-6.36s5.75 3.37 5.75 13.67a21.69 21.69 0 0 1 -21.5 21.37z" fill="none" stroke="#000" stroke-linecap="round" stroke-linejoin="round"/></svg>