<svg viewBox="0 0 48 48" xmlns="http://www.w3.org/2000/svg"><g fill="none" stroke="#000" stroke-linecap="round" stroke-linejoin="round"><path d="m33.92 43.7882a21.6018 21.6018 0 0 1 -9.92 2.4943h.0009c-5.365 0-21.5-3.6669-21.5-22.3005a17.75 17.75 0 0 1 8.1691-15.0143 14.3344 14.3344 0 0 0 .7167 5.4586h.0717a17.76 17.76 0 0 1 5.1241-4.0492 12.8574 12.8574 0 0 0 -.2628 2.5082 11.0681 11.0681 0 0 0 .3225 2.64 4.2029 4.2029 0 0 1 .49.43 11.0931 11.0931 0 0 0 2.6278 2.2692c2.4843 1.4334 4.24 2.2575 4.24 2.2575s-1.1944 2.3889-2.64 2.3889c-5.9006 0-7.083 3.8342-7.083 3.8342s1.1944 7.931 9.5555 7.931c3.0816 0 9.1733-1.696 9.1733-8.8269a8.8386 8.8386 0 0 0 -4.6224-7.8832 7.4528 7.4528 0 0 1 5.6139 1.6364 11.4191 11.4191 0 0 0 -9.9973-5.9006h-.7047a15.8144 15.8144 0 0 1 7.4295-11.9443 23.893 23.893 0 0 0 3.7386 5.7095c2.6039 2.95 5.9721 6.51 7.3577 10.1769a24.5445 24.5445 0 0 0 -2.0664-6.3664s5.7453 3.3683 5.7453 13.6763a21.6178 21.6178 0 0 1 -1.9678 8.7227"/><path d="m39.3722 38.5a2 2 0 0 1 0 4h-3.3v-8h3.3a2 2 0 0 1 0 4z" stroke-width=".8662"/><path d="m39.3722 38.5h-3.3" stroke-width=".8662"/><circle cx="38.5" cy="38.5" r="7"/></g></svg>