<svg viewBox="0 0 48 48" xmlns="http://www.w3.org/2000/svg"><g fill="none" stroke="#000" stroke-linecap="round" stroke-linejoin="round"><path d="m15.64 4.51a2.6 2.6 0 0 0 -2.78 2.78h-2.78a2.59 2.59 0 0 0 -2.79 2.79v30.63a2.59 2.59 0 0 0 2.79 2.78h27.84a2.59 2.59 0 0 0 2.79-2.78v-30.63a2.59 2.59 0 0 0 -2.79-2.79h-2.78c0-3.71-5.57-3.71-5.57 0h-11.14a2.6 2.6 0 0 0 -2.79-2.78z"/><path d="m12.85 14.05h22.3"/><path d="m12.85 21.54h22.3"/><path d="m12.85 29.03h22.3"/><path d="m12.85 36.53h22.3"/></g></svg>