<svg viewBox="0 0 48 48" xmlns="http://www.w3.org/2000/svg"><path d="m19 38.85h-5.35a3.91 3.91 0 0 0 0-.49 3.68 3.68 0 0 0 -4-3.67v-22.76l.35.07a3.69 3.69 0 0 0 3.69-3.69 3.55 3.55 0 0 0 0-.46h6.77a3.55 3.55 0 0 0 0 .46 3.69 3.69 0 0 0 3.62 3.69h.36v12.54m3.29-1.74v-18.3h-21.32v37.65h14.31m-10.72-35.55a1.67 1.67 0 1 1 0 3.33 1.65 1.65 0 0 1 0-3.33zm14.09 0a1.67 1.67 0 1 1 0 3.33 1.66 1.66 0 0 1 0-3.33zm10 9.37c-3.51 0-6.36 1.88-6.36 4.18s2.85 4.18 6.36 4.18 6.35-1.86 6.35-4.18-2.84-4.15-6.35-4.15zm-2.35 13.38a7.65 7.65 0 0 0 2.35.3c3.48 0 6.31-1.85 6.34-4.14v-2.72c0 2.31-2.84 4.18-6.35 4.18a12.69 12.69 0 0 1 -3.35-.56m-5.35-1.93c-3.51 0-6.35 1.87-6.35 4.18s2.84 4.18 6.35 4.18 6.36-1.87 6.36-4.18-2.85-4.18-6.36-4.18zm15 3.63c0 2.31-2.84 4.18-6.35 4.18a9.33 9.33 0 0 1 -2.35-.3v2.68a9.33 9.33 0 0 0 2.35.3c3.48 0 6.31-1.85 6.34-4.14zm-21.38 3.2v2.69c0 2.29 2.87 4.14 6.35 4.14s6.32-1.85 6.35-4.14v-2.69c0 2.31-2.85 4.18-6.36 4.18s-6.34-1.87-6.34-4.18zm21.4 2.12c0 2.31-2.84 4.18-6.35 4.18a9.33 9.33 0 0 1 -2.35-.3v2.69a9.33 9.33 0 0 0 2.35.3c3.48 0 6.31-1.85 6.34-4.14zm-21.4 3.21v2.72c0 2.29 2.87 4.14 6.35 4.14s6.32-1.85 6.35-4.14v-2.72c0 2.31-2.85 4.18-6.36 4.18s-6.34-1.82-6.34-4.18zm-9 .06a1.66 1.66 0 1 1 0 3.3 1.65 1.65 0 0 1 0-3.32zm0 0 9-.06v-8m12.71 8v-8m-4-8.51v4.63m12.71 8.65v-13.26" fill="none" stroke="#000" stroke-linecap="round" stroke-linejoin="round"/></svg>