<svg viewBox="0 0 48 48" xmlns="http://www.w3.org/2000/svg"><g fill="none" stroke="#000" stroke-linecap="round" stroke-linejoin="round"><path d="m20.767 14.2117c-2.6579-3.4502-5.1625-6.7217-7.5137-9.7117h-7.2071c3.2969 4.1658 6.9515 8.9194 10.6573 13.7752z"/><path d="m31.731 18.2241c3.4246-4.6769 6.7471-9.3027 9.839-13.7241h-6.8744c-2.1723 3.1435-4.5236 6.4148-6.9515 9.7372z"/><path d="m31.7566 28.9325-4.0892 4.0891c2.5813 3.578 5.0859 7.0793 7.4882 10.4528h7.0538c-3.1435-4.4213-6.7471-9.4561-10.4528-14.5419"/><path d="m16.8568 29.06c-3.8846 5.1884-7.7438 10.2231-11.0662 14.44h6.8494c2.6324-3.348 5.367-6.8748 8.1271-10.5039z"/></g></svg>