<svg viewBox="0 0 48 48" xmlns="http://www.w3.org/2000/svg"><g fill="none" stroke="#000" stroke-linecap="round" stroke-linejoin="round"><path d="m38.72 40.5h-29.44a1.78 1.78 0 0 1 -1.78-1.78v-29.44a1.78 1.78 0 0 1 1.78-1.78h29.44a1.78 1.78 0 0 1 1.78 1.78v29.44a1.78 1.78 0 0 1 -1.78 1.78z"/><path d="m9.28 7.5v-3"/><path d="m13.49 7.5v-3"/><path d="m17.69 7.5v-3"/><path d="m21.9 7.5v-3"/><path d="m26.1 7.5v-3"/><path d="m30.31 7.5v-3"/><path d="m34.51 7.5v-3"/><path d="m38.72 7.5v-3"/><path d="m9.28 43.5v-3"/><path d="m13.49 43.5v-3"/><path d="m17.69 43.5v-3"/><path d="m21.9 43.5v-3"/><path d="m26.1 43.5v-3"/><path d="m30.31 43.5v-3"/><path d="m34.51 43.5v-3"/><path d="m38.72 43.5v-3"/><path d="m38.72 40.5h-29.44a1.78 1.78 0 0 1 -1.78-1.78v-29.44a1.78 1.78 0 0 1 1.78-1.78h29.44a1.78 1.78 0 0 1 1.78 1.78v29.44a1.78 1.78 0 0 1 -1.78 1.78z"/><path d="m9.28 7.5v-3"/><path d="m13.49 7.5v-3"/><path d="m17.69 7.5v-3"/><path d="m21.9 7.5v-3"/><path d="m26.1 7.5v-3"/><path d="m30.31 7.5v-3"/><path d="m34.51 7.5v-3"/><path d="m38.72 7.5v-3"/><path d="m9.28 43.5v-3"/><path d="m13.49 43.5v-3"/><path d="m17.69 43.5v-3"/><path d="m21.9 43.5v-3"/><path d="m26.1 43.5v-3"/><path d="m30.31 43.5v-3"/><path d="m34.51 43.5v-3"/><path d="m38.72 43.5v-3"/><path d="m40.5 9.28h3"/><path d="m40.5 13.49h3"/><path d="m40.5 17.69h3"/><path d="m40.5 21.9h3"/><path d="m40.5 26.1h3"/><path d="m40.5 30.31h3"/><path d="m40.5 34.51h3"/><path d="m40.5 38.72h3"/><path d="m4.5 9.28h3"/><path d="m4.5 13.49h3"/><path d="m4.5 17.69h3"/><path d="m4.5 21.9h3"/><path d="m4.5 26.1h3"/><path d="m4.5 30.31h3"/><path d="m4.5 34.51h3"/><path d="m4.5 38.72h3"/><path d="m15.88 16.16h7.83"/><path d="m14.19 24h5.09"/><path d="m15.88 16.16-3.39 15.68"/><path d="m27.08 16.16-3.38 15.68"/><path d="m32.12 31.84-4.76-7.84 8.13-7.78"/><path d="m27.36 24h-1.97"/></g></svg>