<svg viewBox="0 0 48 48" xmlns="http://www.w3.org/2000/svg"><g fill="none" stroke="#000" stroke-linecap="round" stroke-linejoin="round"><path d="m9.613 21.806-5.066 2.196 5.066 2.175"/><path d="m17.199 15.136-5.81 2.993-2.392 5.863"/><path d="m15.2939 23.9915 4.0205-4.3792"/><path d="m19.314 19.612h6.803l2.116-4.476-5.517-.975-5.517.975z"/><path d="m30.0371 24.0005-3.92-4.3882"/><path d="m28.233 15.136 5.811 2.993 2.29 5.872"/><path d="m34.044 18.129.722-3.739-1.477-1.679-6.758-1.725-8.723.005-.373.978 5.898.604 4.9 2.563"/><path d="m13.098 17.248-3.793-2.223-3.263-.047-.894 1.101 2.68.354 2.756 3.67"/><path d="m28.182 32.865-4.9 2.563-5.898.604.374.978 8.722.005 6.758-1.725 1.477-1.679-.722-3.739"/><path d="m10.533 27.898-2.756 3.67-2.68.354.894 1.101 3.263-.047 3.793-2.223"/><path d="m17.148 32.865-5.81-2.993-2.341-5.88h6.297l3.97 4.397"/><path d="m19.264 28.389h6.802l2.116 4.476-5.517.975-5.517-.975z"/><path d="m28.182 32.865 5.811-2.993 2.341-5.871h-6.297l-3.971 4.388"/><path d="m35.611 26.813 4.606 1.156 3.33-2.276v-3.498l-3.328-2.277-4.608 1.156"/></g><circle cx="40.6791" cy="25.2244" r=".75"/><circle cx="40.6791" cy="22.6633" r=".75"/></svg>