<svg viewBox="0 0 48 48" xmlns="http://www.w3.org/2000/svg"><g fill="none" stroke="#000" stroke-linecap="round" stroke-linejoin="round"><path d="m21.198 4.5h5.604a12 12 0 0 1 12 12v27a0 0 0 0 1 0 0h-29.604a0 0 0 0 1 0 0v-27a12 12 0 0 1 12-12z"/><path d="m13.5 28.0153c0 1.7427 1.9186 3.1554 4.2852 3.1554s4.2853-1.4127 4.2853-3.1554-1.9186-3.1553-4.2853-3.1553h-3.3308a.9544.9544 0 0 0 -.9544.9544z"/><path d="m15.5257 24.86c0-1.3635 2.5908-4.665 6.0968-4.6943a15.5743 15.5743 0 0 1 4.8039.3481"/><path d="m15.5257 30.6938c0 1.7625 2.4154 4.1389 4.48 4.1389h5.4543a6.5877 6.5877 0 0 0 4.3388-2.26"/><path d="m29.2385 30.1968h5.22a1.9417 1.9417 0 0 0 -2.0258-2.4542c-2.5322 0-5.5708.39-5.5708 2.4542s1.9868 2.3764 3.819 2.3764a2.7751 2.7751 0 0 0 2.6478-2.3764"/><path d="m28.2451 25.1325v-1.2856"/><path d="m30.6811 25.1325v-1.2856"/><path d="m30.5658 27.8284a13.0924 13.0924 0 0 1 -3.1-.0858 3.26 3.26 0 0 1 -2.9412-3.5646c0-2.2595 1.0519-3.7718 2.5706-3.7718a2.1026 2.1026 0 0 1 2.3185 1.3176c1.1687-.2143 3.3308-.935 3.8762 1.3829s-1.8894 4.6359-1.8894 4.6359"/><path d="m22.0705 20.16a3.9453 3.9453 0 0 1 .1363-1.3581"/><path d="m19.6162 18.8994a5.7827 5.7827 0 0 1 1.0883 1.3494"/><path d="m16.7724 19.8344a14.5889 14.5889 0 0 1 1.3866 1.4662"/></g></svg>