<svg viewBox="0 0 48 48" xmlns="http://www.w3.org/2000/svg"><g fill="none" stroke="#000" stroke-linecap="round" stroke-linejoin="round"><path d="m23.26 22.32a1.71 1.71 0 1 0 2.42 2.42"/><path d="m25.28 13.26-.61 3.49a4.38 4.38 0 0 1 -.19.82 2 2 0 0 1 -.26.5 4.39 4.39 0 0 1 -.57.62l-17.86 17.86a1 1 0 0 0 0 1.42l4.21 4.24a1 1 0 0 0 1.42 0l17.89-17.86a4.39 4.39 0 0 1 .62-.57 2 2 0 0 1 .5-.26 4.38 4.38 0 0 1 .82-.19l3.49-.61a10.78 10.78 0 0 0 4.57-2.72l-11.31-11.31a10.78 10.78 0 0 0 -2.72 4.57zm-2 9.06a1.71 1.71 0 0 1 2.42 2.42l-2.42 2.43a1.72 1.72 0 0 1 -2.43-2.43z"/><path d="m39.31 20a43 43 0 0 0 3-3.27 2.28 2.28 0 0 0 0-1.74 5.7 5.7 0 0 0 -1.31-1.55l-6.44-6.44a5.7 5.7 0 0 0 -1.56-1.33 2.28 2.28 0 0 0 -1.74 0 43 43 0 0 0 -3.27 3"/></g></svg>