<svg viewBox="0 0 48 48" xmlns="http://www.w3.org/2000/svg"><g fill="none" stroke="#000" stroke-linecap="round" stroke-linejoin="round"><path d="m43.4628 37.4871v-26.9742a1.9981 1.9981 0 0 0 -1.9981-1.9981h-34.9666a1.9981 1.9981 0 0 0 -1.9981 1.9981v26.9742a1.9981 1.9981 0 0 0 1.9981 1.9981h34.9666a1.9981 1.9981 0 0 0 1.9981-1.9981z"/><path d="m14.7512 36.9926 19.7322.0616m-29.8649-.2891 5.3695.2585m29.3619.115 4.1428.0034s.1381-4.04-.7906-5.4791c-.8373-.9534-3.1987-1.3557-4.8857-2.3084-4.9276-5.9894-8.25-6.9775-8.25-6.9775l-24.9481.0189"/><circle cx="12.0718" cy="37.0236" r="2.0838"/><circle cx="36.8371" cy="37.0146" r="2.0838"/><rect height="4.4914" rx=".7003" width="8.3852" x="7.2774" y="24.8682"/><rect height="4.4914" rx=".7003" width="7.7307" x="18.5426" y="24.8702"/><path d="m29.1624 24.8792h1.3731a8.431 8.431 0 0 1 2.2325 1.6374l1.972 2.1534c.262.2861-.3122.7-.7.7h-4.7369a.6986.6986 0 0 1 -.7-.7v-3.0906c0-.388.1716-.7.5594-.7z"/><path d="m25.5119 14.2114-4.4497 5.7764"/><path d="m25.5119 19.9878-4.4497-5.7764"/><path d="m19.137 18.8879a2.2328 2.2328 0 0 1 -1.9333 1.1 2.2027 2.2027 0 0 1 -2.225-2.18v-1.4166a2.2025 2.2025 0 0 1 2.2249-2.18 2.2028 2.2028 0 0 1 2.225 2.18v.7087h-4.45"/><path d="m7.0419 14.2114h3.1147"/><path d="m8.3611 19.9878v-7.195a1.5419 1.5419 0 0 1 1.5575-1.5258h.6064a1.8532 1.8532 0 0 1 1.5839.6384v6.9909a1.1014 1.1014 0 0 0 1.1126 1.09h.3337"/></g></svg>