<svg viewBox="0 0 48 48" xmlns="http://www.w3.org/2000/svg"><g fill="none" stroke="#000" stroke-linecap="round" stroke-linejoin="round"><path d="m38.17 13.93h3.6a1.72 1.72 0 0 1 1.48 2.61l-5.84 9.79a2.16 2.16 0 0 0 .85 3l2.58 1.36a.93.93 0 0 1 .49.87l-.08 1.14a.91.91 0 0 1 -.91.85h-5.09a5.22 5.22 0 0 1 -4.54-7.79l6.29-11.17a1.31 1.31 0 0 1 1.17-.66z"/><path d="m33 16.16-3.35 5.84a23.92 23.92 0 0 1 -20.78 12.07h-3.47a.9.9 0 0 1 -.9-.9v-.86a.9.9 0 0 1 .9-.9h2.82a15.41 15.41 0 0 0 13-7.21l3.5-5.59a5.24 5.24 0 0 1 4.43-2.45z"/></g></svg>