<svg viewBox="0 0 48 48" xmlns="http://www.w3.org/2000/svg"><g fill="none" stroke="#000" stroke-linejoin="round"><path d="m24 24c3.1 0 6.19.56 7.89 1.67 1 .65 1.84 2.36 2.5 4.1h2.68a.7.7 0 0 1 .69.85l-.4 1.92a.7.7 0 0 1 -.69.57h-.84a4.85 4.85 0 0 1 -.31 6.69v2.64a1.07 1.07 0 0 1 -1.06 1.06h-2.46a1.06 1.06 0 0 1 -1.06-1.06v-1.08h-13.87v1.08a1.06 1.06 0 0 1 -1.07 1.06h-2.46a1.07 1.07 0 0 1 -1.06-1.06v-2.69a4.65 4.65 0 0 1 -1.48-3.53 4.71 4.71 0 0 1 1.14-3.11h-.79a.71.71 0 0 1 -.69-.56l-.4-1.93a.7.7 0 0 1 .69-.85h2.68c.67-1.74 1.52-3.45 2.51-4.1 1.67-1.11 4.77-1.67 7.86-1.67zm0 2.11c-2.68 0-5.37.44-6.72 1.33-.53.35-1.2 1.74-1.82 3.44h17.08c-.62-1.7-1.29-3.09-1.82-3.44-1.35-.89-4-1.33-6.72-1.33zm-7.8 8.3a2.08 2.08 0 1 0 2.08 2.08 2.09 2.09 0 0 0 -2.08-2.08zm15.63 0a2.08 2.08 0 1 0 2.09 2.08 2.08 2.08 0 0 0 -2.09-2.08z"/><g stroke-linecap="round"><path d="m25.82 18.39v-13.87"/><path d="m25.82 4.52h5.83a3.48 3.48 0 0 1 3.48 3.48 3.48 3.48 0 0 1 -3.48 3.48h-5.83"/><path d="m25.82 11.48h5.83a3.47 3.47 0 0 1 3.48 3.52 3.48 3.48 0 0 1 -3.48 3.48h-5.83"/><path d="m12.87 18.41v-13.91h2.36a7 7 0 0 1 7 7 7 7 0 0 1 -6.95 7z"/></g></g></svg>