<svg viewBox="0 0 48 48" xmlns="http://www.w3.org/2000/svg"><g fill="none" stroke="#000" stroke-linecap="round" stroke-linejoin="round"><path d="m41.378 19.8405h-7.8591l-7.7689-12.9985a2 2 0 0 0 -3.5 0l-7.7689 12.9985h-7.8591a3.1194 3.1194 0 0 0 -3 3.93l4.3799 16.3076a2.84 2.84 0 0 0 2.74 2.1h26.497a2.84 2.84 0 0 0 2.76-2.1l4.41-16.3081a3.12 3.12 0 0 0 -3.03-3.93zm-17.378-7.9991 4.7694 7.9991h-9.5388z"/><path d="m29.7541 42.1016 2.87-13.3771c.1677-.7821.7517-2.7162 2.6531-2.6005s1.412.3434 1.412.3434"/><path d="m25.8195 31.4399h9.3391"/><path d="m25.8195 31.4399h9.3391"/></g></svg>