<svg viewBox="0 0 48 48" xmlns="http://www.w3.org/2000/svg"><g fill="none" stroke="#000" stroke-linecap="round" stroke-linejoin="round"><path d="m40.5 5.5h-33a2 2 0 0 0 -2 2v33a2 2 0 0 0 2 2h33a2 2 0 0 0 2-2v-33a2 2 0 0 0 -2-2z"/><path d="m18.608 10.39v11.594h5.332"/><path d="m27.2205 10.3905v11.5931"/><path d="m9.8544 10.3905h5.7966"/><path d="m9.8544 16.187h3.7678"/><path d="m9.8544 10.3905v11.5931"/><path d="m38.1456 10.3905-2.6826 4.0492"/><path d="m35.463 17.9344 2.6826 4.0492"/><path d="m30.465 10.39 3.84 5.797-3.84 5.797"/><path d="m31.0491 36.3393a3.2427 3.2427 0 0 0 2.8425 1.27h1.7164a2.8951 2.8951 0 0 0 2.892-2.898 2.8951 2.8951 0 0 0 -2.892-2.8982h-1.8964a2.8952 2.8952 0 0 1 -2.8916-2.8984 2.8952 2.8952 0 0 1 2.8921-2.8983h1.7163a3.2427 3.2427 0 0 1 2.8425 1.27"/><path d="m20.1275 26.0164v7.7529a3.84 3.84 0 0 0 7.68 0v-7.7529"/><g stroke-width=".8662"><path d="m14.2822 31.813a2.8983 2.8983 0 1 1 0 5.7965h-4.7822v-11.5931h4.7822a2.8983 2.8983 0 0 1 0 5.7966z"/><path d="m14.2822 31.813h-4.7822"/></g></g></svg>