<svg viewBox="0 0 48 48" xmlns="http://www.w3.org/2000/svg"><path d="m9.38 3.5-1.65 2.59a.68.68 0 0 0 0 .78l10.46 13.07 3.49-3.74zm31.94 28.69a19.38 19.38 0 0 0 1.41-7.32 19.6 19.6 0 0 0 -19.61-19.62 19.38 19.38 0 0 0 -7.33 1.42m-7.32 5.16a19.62 19.62 0 0 0 27.7 27.69m-13-24.94-9.35 10a1.14 1.14 0 0 0 1.54-.1c.41-.31 2-1.63 3.77-3.07l1.58 2 3.54-4.59-1-1 .26-1a3 3 0 0 0 .11-1.07 4.32 4.32 0 0 0 -.46-1.17zm5.7 4.49-13.76 13.79s.42.35 1.32 0l3.89 3.59a.43.43 0 0 0 .47.06l1.32-.78-3.11-4.23 5.5-4.23 2.12 1.66 3.48-4.23-1.15-1.12.37-1.32a4 4 0 0 0 .21-1.51 6 6 0 0 0 -.62-1.68zm4.51 5.72-10 9.35a1.19 1.19 0 0 0 1.57 0q2.22-1.53 4.42-3.11l11.76 9.17a.68.68 0 0 0 .78.06l2.59-1.66-11.1-10.73.26-1.05a2.21 2.21 0 0 0 .11-.85 4.38 4.38 0 0 0 -.37-1.18zm-21.09 1.05-.78 1.32a.35.35 0 0 0 .06.46l3.08 3.38 1.4-2.48zm0 0" fill="none" stroke="#000" stroke-linecap="round" stroke-linejoin="round"/></svg>