<svg viewBox="0 0 48 48" xmlns="http://www.w3.org/2000/svg"><g fill="none" stroke="#000" stroke-linecap="round" stroke-linejoin="round"><path d="m16.9994 11.8686c.9544-3.9619 4.2855-8.3686 7.0028-8.3686 2.7134 0 6.0389 4.3942 6.9986 8.3516"/><circle cx="24.0022" cy="24" r="4.5425"/><path d="m31.0049 36.1314c-.9544 3.9618-4.2855 8.3686-7.0028 8.3686-2.7134 0-6.0388-4.3941-6.9986-8.3515"/><path d="m16.9994 11.8686c.9544-3.9619 4.2855-8.3686 7.0028-8.3686 2.7134 0 6.0389 4.3942 6.9986 8.3516"/><path d="m12.74 11.3219c-2.87.04-5.5894.8657-6.4914 2.4281-1.6042 2.7776 1.6814 9.3654 5.4063 11.5158a13.5331 13.5331 0 0 0 8.06 1.21 13.5309 13.5309 0 0 0 -2.9822 7.5842c0 4.3007 4.0621 10.44 7.2694 10.44s7.27-6.14 7.27-10.44a13.531 13.531 0 0 0 -2.9806-7.5817 13.5358 13.5358 0 0 0 8.0547-1.21c3.7245-2.15 7.0086-8.7381 5.405-11.5158s-8.9518-3.2258-12.6762-1.0754a13.5326 13.5326 0 0 0 -5.075 6.3688 13.5336 13.5336 0 0 0 -5.076-6.3714 12.5652 12.5652 0 0 0 -6.184-1.3526z"/><path d="m38.01 24.0011c2.9538 2.8074 5.1047 7.8956 3.746 10.2489-1.3567 2.35-6.8249 3.0327-10.7321 1.8852"/><path d="m16.9932 36.1328c-3.9082 1.1544-9.39.473-10.7488-1.88-1.3567-2.35.786-7.4269 3.7334-10.2367"/></g></svg>