<svg viewBox="0 0 48 48" xmlns="http://www.w3.org/2000/svg"><g fill="none" stroke="#000" stroke-linecap="round" stroke-linejoin="round"><circle cx="17.78" cy="30.11" r="2.07"/><circle cx="11.57" cy="30.11" r="2.07"/><circle cx="11.57" cy="17.76" r="2.07"/><circle cx="17.78" cy="17.76" r="2.07"/><circle cx="36.43" cy="30.11" r="2.07"/><circle cx="36.43" cy="17.76" r="2.07"/><circle cx="30.21" cy="36.43" r="2.07"/><circle cx="36.43" cy="11.57" r="2.07"/><circle cx="24" cy="30.11" r="2.07"/><circle cx="30.21" cy="30.11" r="2.07"/><path d="m30.21 17.76v-4.12"/><path d="m11.57 11.57h12.43"/><path d="m40.5 5.5h-33a2 2 0 0 0 -2 2v33a2 2 0 0 0 2 2h33a2 2 0 0 0 2-2v-33a2 2 0 0 0 -2-2z"/><path d="m24 28.04v-10.28"/><path d="m24 5.5v6.07"/><path d="m24 42.5v-6.07"/><path d="m11.57 36.43h12.23"/><path d="m36.43 32.18v4.25"/><path d="m32.28 36.43h4.15"/><path d="m42.5 23.84h-6.07"/><path d="m36.43 19.83v4.01"/><path d="m30.21 28.04v-16.47"/><path d="m34.36 11.57h-4.15"/><path d="m11.57 32.18v4.25"/><path d="m5.5 23.84h12.19"/><path d="m11.57 15.69v-4.12"/><path d="m19.85 17.76h4.15"/><path d="m17.78 28.04v-4.2"/></g></svg>