<svg viewBox="0 0 48 48" xmlns="http://www.w3.org/2000/svg"><g fill="none" stroke="#000" stroke-linecap="round" stroke-linejoin="round"><circle cx="11.57" cy="11.57" r="2.07"/><circle cx="17.78" cy="36.43" r="2.07"/><circle cx="17.78" cy="30.2" r="2.07"/><circle cx="24" cy="30.2" r="2.07"/><circle cx="36.43" cy="30.2" r="2.07"/><circle cx="36.43" cy="11.57" r="2.07"/><circle cx="30.21" cy="11.57" r="2.07"/><circle cx="30.21" cy="17.78" r="2.07"/><circle cx="24" cy="36.43" r="2.07"/><circle cx="24" cy="23.96" r="2.07"/><path d="m11.57 36.35v-22.71"/><path d="m24 21.89v-4.11"/><path d="m28.14 17.78h-4.14"/><path d="m28.14 11.57h-10.36"/><path d="m17.78 28.13v-16.56"/><path d="m11.57 36.35h4.14"/><path d="m26.07 36.43h10.36"/><path d="m36.43 32.27v4.16"/><path d="m26.07 30.2h4.14"/><path d="m30.21 23.96v6.24"/><path d="m36.43 13.64v10.32"/><path d="m30.21 23.96h6.22"/><path d="m40.5 5.5h-33a2 2 0 0 0 -2 2v33a2 2 0 0 0 2 2h33a2 2 0 0 0 2-2v-33a2 2 0 0 0 -2-2z"/></g></svg>