<svg viewBox="0 0 48 48" xmlns="http://www.w3.org/2000/svg"><g fill="none" stroke="#000" stroke-linecap="round" stroke-linejoin="round"><circle cx="11.57" cy="11.57" r="2.07"/><circle cx="11.57" cy="36.43" r="2.07"/><circle cx="17.78" cy="36.43" r="2.07"/><circle cx="17.78" cy="11.57" r="2.07"/><circle cx="36.43" cy="36.35" r="2.07"/><circle cx="30.21" cy="24" r="2.07"/><circle cx="36.43" cy="11.57" r="2.07"/><circle cx="30.21" cy="11.57" r="2.07"/><circle cx="24" cy="36.43" r="2.07"/><circle cx="24" cy="30.11" r="2.07"/><path d="m11.57 34.36v-20.72"/><path d="m30.21 17.76v-4.12"/><path d="m24 17.78h-6.22"/><path d="m30.21 17.78h-2.8"/><path d="m17.78 34.36v-16.6"/><path d="m26.07 36.35h4.14"/><path d="m19.86 11.57h4.14"/><path d="m30.21 30.11v6.24"/><path d="m36.43 13.64v16.47"/><path d="m30.21 30.11h6.22"/><path d="m40.5 5.5h-33a2 2 0 0 0 -2 2v33a2 2 0 0 0 2 2h33a2 2 0 0 0 2-2v-33a2 2 0 0 0 -2-2z"/><path d="m24 15.92v-4.35"/><path d="m24 28.04v-8.41"/><path d="m24 19.63a1.86 1.86 0 0 0 0-3.71"/></g></svg>