<svg viewBox="0 0 48 48" xmlns="http://www.w3.org/2000/svg"><g fill="none" stroke="#000" stroke-linecap="round" stroke-linejoin="round"><circle cx="24" cy="36.43" r="2.07"/><circle cx="24" cy="11.57" r="2.07"/><circle cx="24" cy="24" r="2.07"/><circle cx="36.43" cy="24" r="2.07"/><circle cx="36.16" cy="16.38" r="2.07"/><circle cx="11.84" cy="16.38" r="2.07"/><circle cx="30.08" cy="13.97" r="2.07"/><circle cx="24" cy="30.21" r="2.07"/><circle cx="18" cy="27.59" r="2.07"/><circle cx="18" cy="33.83" r="2.07"/><path d="m24 4.5 16.89 9.75v19.5l-16.89 9.75-16.89-9.75v-19.5z"/><path d="m24 21.93v-4.14"/><path d="m30.21 27.82v-8.01"/><path d="m18 25.52v-10.49"/><path d="m26.07 36.43 10.36-5.98"/><path d="m26.07 30.21 4.14-2.39"/><path d="m24 17.79 4.43-2.56"/><path d="m18 15.03 4.21-2.43"/><path d="m30.21 19.81 4.15-2.4"/><path d="m36.43 26.07v4.38"/><path d="m16.1 33.01-4.26-1.85"/><path d="m11.84 18.45v12.71"/></g></svg>