<svg viewBox="0 0 48 48" xmlns="http://www.w3.org/2000/svg"><g fill="none" stroke="#000" stroke-linecap="round" stroke-linejoin="round"><path d="m34.8547 39.1456h5.8425a1.8187 1.8187 0 0 0 1.8187-1.8186v-30.0083a1.8187 1.8187 0 0 0 -1.8187-1.8187h-30.0083a1.8187 1.8187 0 0 0 -1.8189 1.8187v5.6364"/><path d="m26.8881 40.7531h6.3482a1.48 1.48 0 0 0 1.48-1.4805v-24.4279a1.48 1.48 0 0 0 -1.48-1.48h-24.428a1.48 1.48 0 0 0 -1.48 1.48v6.2067"/><path d="m25.4953 21.3453h-18.8677a1.1436 1.1436 0 0 0 -1.1435 1.1436v18.8676a1.1435 1.1435 0 0 0 1.1435 1.1435h18.8677a1.1435 1.1435 0 0 0 1.1435-1.1435v-18.8676a1.1436 1.1436 0 0 0 -1.1435-1.1436z"/><path d="m13.0457 25.8913h6.0316"/><path d="m13.0457 31.9229h3.9208"/><path d="m13.0457 25.8913v12.0632"/></g></svg>