<svg viewBox="0 0 48 48" xmlns="http://www.w3.org/2000/svg"><g fill="none" stroke="#000" stroke-linecap="round" stroke-linejoin="round"><ellipse cx="24" cy="24" rx="19.5" ry="10.6364"/><ellipse cx="24" cy="24" rx="14.8909" ry="6.7364"/><path d="m32.3775 29.5684a8.4167 8.4167 0 0 0 -16.755 0"/><path d="m24 13.3636v8.5996"/><path d="m24 34.6364v-3.9"/><path d="m28.9009 23.5416c.8623-2.8607 2.8743-6.9707 4.6745-8.8082"/><path d="m31.8035 27.2241c1.06-2.1756 6.0012-7.4342 9.358-8.2787"/><path d="m36.36 27.7578c2.3088-1.4985 5.4192-1.4936 6.6985-1.496"/><path d="m29.31 23.8505a10.5556 10.5556 0 0 1 6.58 4.2054"/><path d="m29.9063 30.1857a9.9535 9.9535 0 0 1 4.99 2.6363"/><path d="m19.099 23.5416c-.8623-2.8607-2.8743-6.9707-4.6745-8.8082"/><path d="m16.1965 27.2241c-1.06-2.1756-6.0012-7.4342-9.358-8.2787"/><path d="m11.64 27.7578c-2.3088-1.4985-5.4192-1.4936-6.6985-1.496"/><path d="m18.69 23.8505a10.5557 10.5557 0 0 0 -6.58 4.2054"/><path d="m18.0937 30.1857a9.9535 9.9535 0 0 0 -4.99 2.6363"/></g></svg>