<svg viewBox="0 0 48 48" xmlns="http://www.w3.org/2000/svg"><g fill="none" stroke="#000" stroke-linecap="round" stroke-linejoin="round"><path d="m33.2045 10.2137a16.6459 16.6459 0 0 0 -25.9632 13.7863"/><path d="m8.553 24h2.891l-3.977 6.068-3.967-6.068h2.89z"/><path d="m39.447 24h-2.891l3.967-6.068 3.977 6.068h-2.89z"/><path d="m14.69 37.7964a16.6358 16.6358 0 0 0 25.943-13.7964"/><path d="m21.8557 13.379a.2257.2257 0 0 1 .1862-.3781c3.8824.5756 9.294 5.7728 9.294 12.014 0 6.4725-4.7458 10.1573-5.2593 9.6382-.35-.3555 2.466-2.2572 1.58-3.1657-.5192-.5192-2.0541 1.6929-2.8215.92-.9537-.9311 1.9863-5.5809-.395-7.9454 0 0-3.7865 3.826-3.7865 6.7378s2.782 3.1431 2.5394 3.7074-6.529-1.3938-6.529-7.1327c0-5.1859 5.959-10.6427 5.959-12.5557a2.664 2.664 0 0 0 -.7673-1.8398z"/></g></svg>