<svg viewBox="0 0 48 48" xmlns="http://www.w3.org/2000/svg"><g fill="none" stroke="#000" stroke-linecap="round" stroke-linejoin="round"><circle cx="24" cy="24" r="21.5"/><path d="m30.5811 44.474a23.5082 23.5082 0 0 1 0-40.948"/><path d="m36.1817 41.7185a18.9767 18.9767 0 0 1 0-35.4368"/><path d="m40.3094 38.01a14.442 14.442 0 0 1 0-28.0191"/><path d="m43.1459 33.7918a9.9078 9.9078 0 0 1 0-19.5836"/><path d="m44.8329 29.334a5.3756 5.3756 0 0 1 0-10.668"/><path d="m17.4189 3.526a23.5082 23.5082 0 0 1 0 40.948"/><path d="m11.8183 6.2815a18.9767 18.9767 0 0 1 0 35.4368"/><path d="m7.6906 9.99a14.442 14.442 0 0 1 0 28.0191"/><path d="m4.8541 14.2082a9.9078 9.9078 0 0 1 0 19.5836"/><path d="m3.1671 18.666a5.3756 5.3756 0 0 1 0 10.668"/><path d="m2.5 24h43"/></g></svg>