<svg viewBox="0 0 48 48" xmlns="http://www.w3.org/2000/svg"><g fill="none" stroke="#000" stroke-linecap="round" stroke-linejoin="round"><path d="m37.9 22.81h-11a1.9 1.9 0 0 0 -1.9 1.9v7.73a1.89 1.89 0 0 0 1.9 1.89h11a1.88 1.88 0 0 0 1.86-1.9v-7.78a1.91 1.91 0 0 0 -1.86-1.84zm-10.8 2.24 5.12 3.48a.3.3 0 0 0 .29 0l5.15-3.48"/><path d="m41.68 13h-16.91c-2-.1-5.93-4.23-8.19-4.23h-9.9a2.18 2.18 0 0 0 -2.18 2.23v7.29h39v-3.42a1.83 1.83 0 0 0 -1.82-1.87z"/><path d="m43.5 18.28h-39v18.72a2.18 2.18 0 0 0 2.17 2.2h34.65a2.18 2.18 0 0 0 2.18-2.2z"/></g></svg>