<svg viewBox="0 0 48 48" xmlns="http://www.w3.org/2000/svg"><g fill="none" stroke="#000" stroke-linecap="round" stroke-linejoin="round"><path d="m41.6783 13.0436h-16.9083c-1.9628-.1072-5.9311-4.2372-8.1881-4.2372h-9.9013v-.0018a2.1762 2.1762 0 0 0 -2.1806 2.1717v7.3063h39v-3.4174a1.8217 1.8217 0 0 0 -1.8217-1.8216z"/><path d="m43.5 18.2826h-39v18.7339a2.1762 2.1762 0 0 0 2.1735 2.1789h34.6459a2.1762 2.1762 0 0 0 2.1806-2.1717z"/><path d="m32.4948 33.1118a3.1329 3.1329 0 0 0 2.7461 1.2272h1.6582a2.797 2.797 0 0 0 2.7939-2.8 2.797 2.797 0 0 0 -2.7939-2.8h-1.8321a2.797 2.797 0 0 1 -2.794-2.8 2.797 2.797 0 0 1 2.794-2.8h1.6581a3.1328 3.1328 0 0 1 2.7461 1.2271"/><path d="m35.983 35.739v-14"/></g></svg>