<svg viewBox="0 0 48 48" xmlns="http://www.w3.org/2000/svg"><g fill="none" stroke="#000" stroke-linecap="round" stroke-linejoin="round"><path d="m37.94 29.52a5 5 0 0 0 .05-.67 4.89 4.89 0 0 0 -.05-.66l1.44-1.1a.34.34 0 0 0 .08-.43l-1.36-2.36a.33.33 0 0 0 -.41-.15l-1.7.68a5.76 5.76 0 0 0 -1.15-.67l-.26-1.8a.34.34 0 0 0 -.34-.29h-2.7a.35.35 0 0 0 -.36.27l-.25 1.8a5.49 5.49 0 0 0 -1.15.67l-1.7-.68a.32.32 0 0 0 -.41.15l-1.37 2.36a.34.34 0 0 0 .09.43l1.43 1.11a3.64 3.64 0 0 0 0 .66v.67l-1.43 1.12a.34.34 0 0 0 -.09.44l1.39 2.37a.31.31 0 0 0 .41.14l1.7-.68a5.09 5.09 0 0 0 1.15.67l.25 1.81a.34.34 0 0 0 .34.28h2.66a.35.35 0 0 0 .34-.28l.3-1.81a5.09 5.09 0 0 0 1.16-.67l1.69.68a.35.35 0 0 0 .42-.14l1.36-2.36a.35.35 0 0 0 -.08-.44zm-5.06.84a1.5 1.5 0 0 1 0-3 1.49 1.49 0 0 1 1.49 1.49 1.5 1.5 0 0 1 -1.49 1.51z"/><path d="m41.68 13h-16.91c-2-.1-5.93-4.23-8.19-4.23h-9.9a2.18 2.18 0 0 0 -2.18 2.23v7.29h39v-3.42a1.83 1.83 0 0 0 -1.82-1.87z"/><path d="m43.5 18.28h-39v18.72a2.18 2.18 0 0 0 2.17 2.2h34.65a2.18 2.18 0 0 0 2.18-2.2z"/></g></svg>