<svg viewBox="0 0 48 48" xmlns="http://www.w3.org/2000/svg"><g fill="none" stroke="#000" stroke-linecap="round" stroke-linejoin="round"><path d="m41.68 13h-16.91c-2-.1-5.93-4.23-8.19-4.23h-9.9a2.18 2.18 0 0 0 -2.18 2.23v7.29h39v-3.42a1.83 1.83 0 0 0 -1.82-1.87z"/><path d="m43.5 18.28h-39v18.72a2.18 2.18 0 0 0 2.17 2.2h34.65a2.18 2.18 0 0 0 2.18-2.2z"/><path d="m35.27 35.1a5.33 5.33 0 0 0 2.79-1.48 5.4 5.4 0 0 0 0-7.62"/><path d="m33.22 24.52a5.39 5.39 0 0 0 -2.78 9.1"/><path d="m37.47 26.59-1.43 1.43v-3.93h3.94l-1.44 1.43z"/><path d="m31.02 33.04 1.44-1.44v3.94h-3.94l1.43-1.43z"/></g></svg>