<svg viewBox="0 0 48 48" xmlns="http://www.w3.org/2000/svg"><g fill="none" stroke="#000" stroke-linecap="round" stroke-linejoin="round"><path d="m41.6783 13.0436h-16.9083c-1.9628-.1072-5.9311-4.2372-8.1881-4.2372h-9.9013v-.0018a2.1762 2.1762 0 0 0 -2.1806 2.1717v7.3063h39v-3.4174a1.8217 1.8217 0 0 0 -1.8217-1.8216z"/><path d="m43.5 18.2826h-39v18.7339a2.1762 2.1762 0 0 0 2.1735 2.1789h34.6459a2.1762 2.1762 0 0 0 2.1806-2.1717z"/><path d="m33.6932 25.52a3.22 3.22 0 1 1 -3.2195 3.22 3.2195 3.2195 0 0 1 3.2195-3.22z"/><path d="m33.693 22.739v.7878"/><path d="m39.693 28.739h-.7878"/><path d="m33.693 34.739v-.7878"/><path d="m27.693 28.739h.7878"/><path d="m37.9357 24.4963-.5571.5571"/><path d="m37.9357 32.9816-.5571-.557"/><path d="m29.4504 32.9816.557-.557"/><path d="m29.4504 24.4963.557.5571"/></g></svg>