<svg viewBox="0 0 48 48" xmlns="http://www.w3.org/2000/svg"><g fill="none" stroke="#000" stroke-linecap="round" stroke-linejoin="round"><path d="m41.6783 13.0436h-16.9083c-1.9628-.1072-5.9311-4.2372-8.1881-4.2372h-9.9013v-.0018a2.1762 2.1762 0 0 0 -2.1806 2.1717v7.3063h39v-3.4174a1.8217 1.8217 0 0 0 -1.8217-1.8216z"/><path d="m43.5 18.2826h-39v18.7339a2.1762 2.1762 0 0 0 2.1735 2.1789h34.6459a2.1762 2.1762 0 0 0 2.1806-2.1717z"/><path d="m39.3574 33.32a4.0156 4.0156 0 0 1 -3.08 1.4339 4.0241 4.0241 0 0 1 -4.024-4.0239v-3.9517a4.0242 4.0242 0 0 1 4.0241-4.0242 4.0159 4.0159 0 0 1 3.0929 1.45"/><path d="m30.3295 27.296h5.0812"/><path d="m30.3295 30.2409h5.0812"/></g></svg>