<svg viewBox="0 0 48 48" xmlns="http://www.w3.org/2000/svg"><g fill="none" stroke="#000"><path d="m35.13 22.92h-14a5.81 5.81 0 1 0 3.87 10.16h6.31a5.79 5.79 0 0 0 3.84 1.45 5.81 5.81 0 0 0 0-11.61z" stroke-miterlimit="10"/><path d="m41.68 13h-16.91c-2-.1-5.93-4.23-8.19-4.23h-9.9a2.18 2.18 0 0 0 -2.18 2.23v7.29h39v-3.42a1.83 1.83 0 0 0 -1.82-1.87z" stroke-linecap="round" stroke-linejoin="round"/><path d="m43.5 18.28h-39v18.72a2.18 2.18 0 0 0 2.17 2.2h34.65a2.18 2.18 0 0 0 2.18-2.2z" stroke-linecap="round" stroke-linejoin="round"/><path d="m18.55 28.59h5.17" stroke-linecap="round" stroke-linejoin="round"/><path d="m21.14 26.09v5.08" stroke-linecap="round" stroke-linejoin="round"/></g><path d="m32.66 29.32a.75.75 0 1 1 .75-.75.75.75 0 0 1 -.75.75z"/><path d="m35.14 31.81a.75.75 0 0 1 0-1.5.75.75 0 0 1 0 1.5z"/><path d="m37.63 29.32a.75.75 0 1 1 .75-.75.75.75 0 0 1 -.75.75z"/><path d="m35.14 26.84a.75.75 0 0 1 0-1.5.75.75 0 0 1 0 1.5z"/></svg>