<svg viewBox="0 0 48 48" xmlns="http://www.w3.org/2000/svg"><g fill="none" stroke="#000" stroke-linecap="round" stroke-linejoin="round"><path d="m41.6783 13.0436h-16.9083c-1.9628-.1072-5.9311-4.2372-8.1881-4.2372h-9.9013v-.0018a2.1762 2.1762 0 0 0 -2.1806 2.1717v7.3063h39v-3.4174a1.8217 1.8217 0 0 0 -1.8217-1.8216z"/><path d="m43.5 18.2826h-39v18.7339a2.1762 2.1762 0 0 0 2.1735 2.1789h34.6459a2.1762 2.1762 0 0 0 2.1806-2.1717z"/><path d="m26.278 25.858 1.8 1.471 2.175-.823.374-2.295-1.8-1.472"/><path d="m35.7177 30.9722-5.4645-4.4664"/><path d="m39.693 31.62-1.801-1.471-2.174.823-.374 2.295 1.8 1.472"/></g></svg>