<svg viewBox="0 0 48 48" xmlns="http://www.w3.org/2000/svg"><g fill="none" stroke="#000" stroke-linecap="round" stroke-linejoin="round"><path d="m41.6783 13.0436h-16.9083c-1.9628-.1072-5.9311-4.2372-8.1881-4.2372h-9.9013v-.0018a2.1762 2.1762 0 0 0 -2.1806 2.1717v7.3063h39v-3.4174a1.8217 1.8217 0 0 0 -1.8217-1.8216z"/><path d="m43.5 18.2826h-39v18.7339a2.1762 2.1762 0 0 0 2.1735 2.1789h34.6459a2.1762 2.1762 0 0 0 2.1806-2.1717z"/><path d="m29.2578 28.9614c.5033-.5146 2.392-2.4485 2.568-2.6183a1.0175 1.0175 0 0 0 .188-.98 19.775 19.775 0 0 1 -.36-2.0468.6553.6553 0 0 0 -.7467-.575h-2.7571a.4867.4867 0 0 0 -.44.4519 11.5256 11.5256 0 0 0 1.4948 5.674l-.0007.0008.0128.0209.0407.0724.0022-.0023a11.5043 11.5043 0 0 0 4.2202 4.211l-.004.0039s.05.0292.1412.0788l.0045.0027a11.443 11.443 0 0 0 5.6171 1.4668.4869.4869 0 0 0 .4514-.44v-2.7596a.6558.6558 0 0 0 -.5741-.7474 19.7364 19.7364 0 0 1 -2.045-.36 1.015 1.015 0 0 0 -.979.1882c-.17.1767-2.1 2.0651-2.6163 2.5706"/></g></svg>