<svg viewBox="0 0 48 48" xmlns="http://www.w3.org/2000/svg"><g fill="none" stroke="#000" stroke-linecap="round" stroke-linejoin="round"><path d="m30.9416 13.5v7.1478"/><path d="m19.9816 5.5h3.5739"/><path d="m19.9816 9.0739h2.3194"/><path d="m19.9816 5.5v7.1478"/><path d="m23.9865 16.6478v-7.1478h2.3375a2.4007 2.4007 0 0 1 0 4.8013h-2.3375"/><path d="m26.324 14.3013 2.3374 2.3465"/><path d="m33.1635 17.5h4.7291"/><path d="m35.528 24.6478v-7.1478"/><path d="m37.75 21.5h4.729l-4.729 7.148h4.729"/><path d="m38.7508 30.961a58.5107 58.5107 0 0 1 -5.9479-1.048 2.9362 2.9362 0 0 0 -2.8323.5476c-.5.51-1.9449 1.9355-3.446 3.4083a27.0871 27.0871 0 0 1 -12.3678-12.3773c1.4634-1.5012 2.8323-2.9362 3.3894-3.4366a2.9362 2.9362 0 0 0 .5475-2.8323 58.3782 58.3782 0 0 1 -1.0479-5.9574 1.8882 1.8882 0 0 0 -2.0725-1.6839q-.05.0051-.099.0129h-8.0438a1.4161 1.4161 0 0 0 -1.284 1.2934c-.5192 7.26 3.531 15.03 4.3523 16.5219v.0564l.1133.2171a33.4593 33.4593 0 0 0 12.2734 12.2734l.4155.2361c1.8882 1.0007 9.3938 4.7771 16.4086 4.2579a1.4162 1.4162 0 0 0 1.3123-1.284v-8.0343a1.8882 1.8882 0 0 0 -1.5719-2.1585q-.0494-.0078-.099-.0129z"/><path d="m28.0909 5.5a30 30 0 0 1 14.4091 11.6682"/><path d="m21.5687 17.9006a29.9992 29.9992 0 0 1 10.4892 8.494"/></g></svg>