<svg viewBox="0 0 48 48" xmlns="http://www.w3.org/2000/svg"><g fill="none" stroke="#000" stroke-linecap="round" stroke-linejoin="round"><path d="m27.4457 12.2937-12.382 21.4463a1.9663 1.9663 0 0 0 1.7029 2.95h24.7641a1.9663 1.9663 0 0 0 1.7029-2.95l-12.382-21.4463a1.9663 1.9663 0 0 0 -3.4059 0z"/><path d="m20.9761 23.4993-3.4461-5.9681a1.9664 1.9664 0 0 0 -3.4059 0l-9.3577 16.2088a1.9663 1.9663 0 0 0 1.7029 2.95h10.2973"/><path d="m16.9229 30.5198h7.5149"/><path d="m20.3345 24.6106h8.0728"/><path d="m36.9152 22.7945a4.576 4.576 0 1 0 -4.0269-6.9706"/></g></svg>