<svg viewBox="0 0 48 48" xmlns="http://www.w3.org/2000/svg"><path d="m16.36 4.5c-2.46 4.37-5.14 8.27-6.71 15.35a13.68 13.68 0 0 0 0 6.17c.92 5.44 8.69 12.77 14.35 17.47 5.66-4.7 13.43-12 14.35-17.47a13.68 13.68 0 0 0 0-6.17c-1.57-7.08-4.25-11-6.71-15.35l-5 6.94h-5.26zm-3.06 14.37c1.7 0 3.95 1.45 5.7 3.63 2.42 3 3.15 6.4 1.64 7.62s-4.7-.21-7.11-3.2-3.15-6.4-1.64-7.62a2.12 2.12 0 0 1 1.41-.43zm21.53 0a2.12 2.12 0 0 1 1.41.43c1.51 1.22.78 4.63-1.64 7.62s-5.59 4.42-7.11 3.2-.78-4.63 1.64-7.62c1.76-2.18 4-3.61 5.7-3.63zm-15.25 18 3.84-4.32a.72.72 0 0 1 .49-.26h.09a.8.8 0 0 1 .59.27l3.84 4.32m-4.43-4.6" fill="none" stroke="#000" stroke-linecap="round" stroke-linejoin="round"/></svg>