<svg viewBox="0 0 48 48" xmlns="http://www.w3.org/2000/svg"><g fill="none" stroke="#000" stroke-linecap="round" stroke-linejoin="round"><path d="m24.145 34.288a4.6476 4.6476 0 0 0 4.7112-3.5551.538.538 0 0 0 -.5237-.6343h-8.3788a.5374.5374 0 0 0 -.5247.6286 4.5335 4.5335 0 0 0 4.716 3.5608z"/><path d="m40.1786 13.3114a4.75 4.75 0 0 0 1.7332-3.9 5.0583 5.0583 0 0 0 -5.2-5.0555 4.9192 4.9192 0 0 0 -4.3334 2.3112 18.7 18.7 0 0 0 -8.3784-1.8786 19.8078 19.8078 0 0 0 -8.3779 1.8782 4.9192 4.9192 0 0 0 -4.3334-2.3112 5.15 5.15 0 0 0 -5.2005 5.0555 5.4557 5.4557 0 0 0 1.7332 3.9 18.8375 18.8375 0 0 0 -3.3214 10.8335 19.5 19.5 0 0 0 39 0 18.5 18.5 0 0 0 -3.3214-10.8331z"/><path d="m23.18 27.5546a2.4979 2.4979 0 0 0 1.9211-.0105c.9815-.4159 2.3656-1.1675 2.3656-2.1 0-.8671-2.4553-1.0111-3.3214-1.0111s-3.3223.144-3.3223 1.0111c-.0938.9401 1.3427 1.6975 2.357 2.1105z"/><path d="m35.4121 15.7667c-1.7332-1.1552-5.4886-1.7332-6.9327.1449a2.9463 2.9463 0 0 0 0 4.0445 15.1652 15.1652 0 0 1 3.6113 5.6339c.4331 1.7332 1.1552 2.31 2.4553 2.31s3.9-2.0222 4.3334-5.3445a7.2549 7.2549 0 0 0 -3.4673-6.7888z"/><path d="m31.5127 19.9551a1.0106 1.0106 0 1 1 1.01-1.01.9868.9868 0 0 1 -1.01 1.01z"/><path d="m19.6675 15.9107c-1.4441-1.8772-5.2-1.3-6.9327-.145a7.4155 7.4155 0 0 0 -3.4674 6.7887c.2891 3.3214 2.8893 5.3446 4.3335 5.3446 1.3011 0 2.0222-.7221 2.4553-2.31.433-1.7342 1.8772-3.6114 3.6113-5.6336a2.9038 2.9038 0 0 0 0-4.0447z"/><path d="m16.9232 19.9551a1.0106 1.0106 0 1 1 1.01-1.01.9868.9868 0 0 1 -1.01 1.01z"/></g></svg>