<svg viewBox="0 0 48 48" xmlns="http://www.w3.org/2000/svg"><g fill="none" stroke="#000" stroke-linecap="round" stroke-linejoin="round"><path d="m5.5 29.32a84.5 84.5 0 0 1 37 0v11.18a2 2 0 0 1 -2 2h-33a2 2 0 0 1 -2-2z"/><path d="m24 31.3c0-5.53 0-9.8-4.65-11.81"/><path d="m23.76 25.71c.37-2.42 1.25-3.14 3.49-3.92"/><path d="m22.57 22.13c.34-3.81-2.12-11.1-13.94-8.66 4.21 3 1.74 5.94 6.09 8.32a9.9 9.9 0 0 0 7.85.34z"/><path d="m25.37 22.66c.2-2.95 2-5.53 8.36-4.69 3.83.51 4.2-1.79 4.2-1.79s-1.23 7.82-7.49 7.82c-4.73 0-5.07-1.34-5.07-1.34z"/></g></svg>