<svg viewBox="0 0 48 48" xmlns="http://www.w3.org/2000/svg"><g fill="none" stroke="#000" stroke-linecap="round" stroke-linejoin="round"><path d="m17.6692 38.5728h14.5883v4.9272h-14.5883z"/><path d="m24.9633 33.7906a2.6085 2.6085 0 0 1 2.6085 2.6085v2.1738a0 0 0 0 1 0 0h-5.217a0 0 0 0 1 0 0v-2.1738a2.6085 2.6085 0 0 1 2.6085-2.6085z"/><circle cx="12.0174" cy="23.8396" r="2.4153"/><path d="m13.7199 25.5521 9.1918 9.2457"/><path d="m13.728 22.1345 11.8113-11.6562"/></g><circle cx="24.9633" cy="36.4474" r=".75"/><path d="m28.663 7.365-2.856-2.865-3.123 3.113 2.855 2.865 2.594 9.744 10.265-10.232z" fill="none" stroke="#000" stroke-linecap="round" stroke-linejoin="round"/><path d="m24.3112 5.9909a2.6291 2.6291 0 0 0 -3.9212-.2176 2.4885 2.4885 0 0 0 .0322 3.317c.6763.6763 3.209 3.2707 3.209 3.2707" fill="none" stroke="#000" stroke-linecap="round" stroke-linejoin="round"/></svg>