<svg viewBox="0 0 48 48" xmlns="http://www.w3.org/2000/svg"><g fill="none" stroke="#000"><circle cx="24" cy="24" r="21.5" stroke-miterlimit="7" stroke-width=".97"/><g stroke-linecap="round" stroke-linejoin="round"><path d="m6 18.7h4"/><path d="m6 22.7h2.6"/><path d="m6 18.7v8"/><path d="m12.7 26.7a2 2 0 0 1 -2-2v-1.3a2 2 0 0 1 2-2 2 2 0 0 1 2 2v1.3a2 2 0 0 1 -2 2z"/><path d="m25.4 21.4v3.3a2 2 0 0 0 2 2 2 2 0 0 0 2-2v-3.3"/><path d="m29.4 24.7v2"/><path d="m16.8 23.4a2 2 0 0 1 2-2"/><path d="m16.8 21.4v5.3"/><path d="m41.7 25.7a1.94 1.94 0 0 1 -1.7 1 2 2 0 0 1 -2-2v-1.3a2 2 0 0 1 2-2 2 2 0 0 1 2 2v.6h-4"/><path d="m35.7 26.7v-3.3a2 2 0 0 0 -2-2 2 2 0 0 0 -2 2v3.3"/><path d="m31.7 23.4v-2"/><path d="m21.7 19.7v6a.94.94 0 0 0 1 1h.3"/><path d="m20.7 21.4h2.1"/></g></g></svg>