<svg viewBox="0 0 48 48" xmlns="http://www.w3.org/2000/svg"><g fill="none" stroke="#000" stroke-linecap="round" stroke-linejoin="round"><rect height="37" rx="2" width="37" x="5.5" y="5.5"/><path d="m35.33 20.3v7.41h3.7"/><path d="m33.36 20.3v7.41"/><path d="m8.7 20.3h3.71"/><path d="m8.7 24h2.41"/><path d="m8.7 20.3v7.41"/><path d="m20.11 26.9a2.07 2.07 0 0 0 1.82.81h1.07a1.85 1.85 0 0 0 1.85-1.85 1.85 1.85 0 0 0 -1.85-1.86h-1.19a1.85 1.85 0 0 1 -1.81-1.85 1.85 1.85 0 0 1 1.85-1.85h1.1a2.09 2.09 0 0 1 1.82.81"/><path d="m26.63 26.9a2.09 2.09 0 0 0 1.82.81h1.1a1.85 1.85 0 0 0 1.85-1.85 1.85 1.85 0 0 0 -1.85-1.86h-1.22a1.85 1.85 0 0 1 -1.85-1.85 1.85 1.85 0 0 1 1.85-1.85h1.1a2.09 2.09 0 0 1 1.82.81"/><path d="m13.46 25.25a2.46 2.46 0 0 0 4.91 0v-2.51a2.46 2.46 0 0 0 -4.91 0z"/></g></svg>