<svg viewBox="0 0 48 48" xmlns="http://www.w3.org/2000/svg"><path d="m35.1651 22.4936v-6.788a2.7093 2.7093 0 0 0 -2.7151-2.7156h-6.7529v-3.7384a4.7516 4.7516 0 0 0 -4.7516-4.7516 4.7516 4.7516 0 0 0 -4.7516 4.7516v3.7384h-6.8232a2.7093 2.7093 0 0 0 -2.7152 2.7152v6.788h1.7308a4.7516 4.7516 0 0 1 0 9.5032h-1.7308v6.788a2.7093 2.7093 0 0 0 2.7152 2.7156h6.8232v-2.4786a4.7516 4.7516 0 0 1 4.7516-4.7514 4.7516 4.7516 0 0 1 4.7516 4.7516v2.4784h6.7529a2.7093 2.7093 0 0 0 2.7152-2.7152v-6.788h3.4278a4.7516 4.7516 0 0 0 0-9.5032z" fill="none" stroke="#000" stroke-linecap="round" stroke-linejoin="round"/></svg>