<svg viewBox="0 0 48 48" xmlns="http://www.w3.org/2000/svg"><g fill="none" stroke="#000" stroke-linecap="round" stroke-linejoin="round"><path d="m24 24 9.08-5.09-5.73-3.13c5.3-4.86 10.49-6.93 12.65-6.93s3.49.66 3.49 2.66c0 2.86-2 3.19-2 9 0 4.64-3.1 5.84-5.21 5.72a7.66 7.66 0 1 1 -12.25 9 7.66 7.66 0 1 1 -12.25-9c-2.11.12-5.21-1.08-5.21-5.72 0-5.86-2-6.19-2-9 0-2 1.41-2.66 3.49-2.66s7.36 2.07 12.66 6.93l-5.73 3.13z"/><path d="m24 24v8.67"/><path d="m21.73 22.72v8.68"/><path d="m19.46 21.45v8.67"/><path d="m17.19 20.18v8.67"/><path d="m14.92 18.91v8.67"/></g></svg>