<svg viewBox="0 0 48 48" xmlns="http://www.w3.org/2000/svg"><g fill="none" stroke="#000" stroke-linecap="round" stroke-linejoin="round"><path d="m4.5 17.4346v20.0654a2 2 0 0 0 2 2h35a2 2 0 0 0 2-2v-27a2 2 0 0 0 -2-2h-28.0654"/><path d="m8.777 35.307 6.275-12.736 5.785 9.047 9.045-15.581 9.341 19.27z"/><path d="m20.8372 31.6179-2.1355 3.689"/><path d="m3.5654 7.5654h9.8692v9.8692h-9.8692z" transform="matrix(.70710678 .70710678 -.70710678 .70710678 11.3284 -2.3492)"/><path d="m3.5654 7.5654h9.8692v9.8692h-9.8692z" transform="matrix(0 1 -1 0 21 4)"/></g></svg>