<svg viewBox="0 0 48 48" xmlns="http://www.w3.org/2000/svg"><g fill="none" stroke="#000" stroke-linecap="round" stroke-linejoin="round"><path d="m5.5 11.6667h6.1667v6.1667h-6.1667z"/><path d="m5.5 5.5h6.1667v6.1667h-6.1667z"/><path d="m24 5.5h6.1667v6.1667h-6.1667z"/><path d="m30.1667 5.5h6.1667v6.1667h-6.1667z"/><path d="m36.3333 5.5h6.1667v6.1667h-6.1667z"/><path d="m11.6667 11.6667h6.1667v6.1667h-6.1667z"/><path d="m11.6667 17.8333h6.1667v6.1667h-6.1667z"/><path d="m30.1667 11.6667h6.1667v6.1667h-6.1667z"/><path d="m30.1667 17.8333h6.1667v6.1667h-6.1667z"/><path d="m24 36.3333h6.1667v6.1667h-6.1667z" transform="matrix(0 1 -1 0 66.5 12.3333)"/><path d="m36.3333 36.3333h6.1667v6.1667h-6.1667z" transform="matrix(0 1 -1 0 78.8333 0)"/><path d="m36.3333 30.1667h6.1667v6.1667h-6.1667z" transform="matrix(0 1 -1 0 72.6667 -6.1667)"/><path d="m24 24h6.1667v6.1667h-6.1667z" transform="matrix(0 1 -1 0 54.1667 0)"/><path d="m17.8333 36.3333h6.1667v6.1667h-6.1667z" transform="matrix(0 1 -1 0 60.3333 18.5)"/><path d="m11.6667 36.3333h6.1667v6.1667h-6.1667z" transform="matrix(0 1 -1 0 54.1667 24.6667)"/><path d="m5.5 36.3333h6.1667v6.1667h-6.1667z" transform="matrix(0 1 -1 0 48 30.8333)"/><path d="m11.6667 30.1667h6.1667v6.1667h-6.1667z" transform="matrix(0 1 -1 0 48 18.5)"/><path d="m17.8333 11.6667h6.1667v6.1667h-6.1667z"/></g></svg>