<svg viewBox="0 0 48 48" xmlns="http://www.w3.org/2000/svg"><g fill="none" stroke="#000" stroke-linecap="round" stroke-linejoin="round"><path d="m18.5029 9.3906a9.4838 9.4838 0 0 1 5.4971 8.7709c-3.7691 0-1.9191 10.5631 0 14.45"/><path d="m23.09 18.4221s-4.113-7.0856-11.5378-8.7864-8.2512 6.4967-5.8463 10.27 5.0813 6.3031 8.6421 5.975"/><path d="m23.1942 30.5769s.6981 3.9554-2.0117 6.3452c-2.6436 2.3314-8.09 2.2637-10.4443-.3089-1.9-2.076-2.3109-6.2409.4763-8.4391s10.7347-7.4821 10.7347-7.4821"/><path d="m29.4971 9.3906a9.4838 9.4838 0 0 0 -5.4971 8.7709c3.7691 0 1.9191 10.5631 0 14.45"/><path d="m24.91 18.4221s4.113-7.0856 11.5378-8.7864 8.2512 6.4967 5.8463 10.27-5.0813 6.3031-8.6421 5.975"/><path d="m24.8058 30.5769s-.6981 3.9554 2.0117 6.3452c2.6436 2.3314 8.09 2.2637 10.4443-.3089 1.9-2.076 2.3109-6.2409-.4763-8.4391s-10.7347-7.4821-10.7347-7.4821"/></g></svg>