<svg viewBox="0 0 48 48" xmlns="http://www.w3.org/2000/svg"><g fill="none" stroke="#000" stroke-linecap="round" stroke-linejoin="round"><path d="m10.5783 23.4131a125.4638 125.4638 0 0 0 5.3709 12.2369"/><path d="m40.0331 28.8272c3.0669-1.8402 4.4669-7.5972 4.4669-7.5972l-5.2218 3.303 2.6109-9.2955s-12.8973-6.1337-17.0968-6.1809-16.7035 5.7094-16.7035 5.7094a21.2668 21.2668 0 0 0 .9312 4.134"/><path d="m26.8685 23.8256c-1.5571-5.3791-2.0762-14.769-2.0762-14.769"/><path d="m34.796 31.564 2.5 3.492.331-2.548 3.303 2.312-1.605-8.635-2.217 2.878 1.316 4.003"/><path d="m16.299 35.3388c-.9155.7082-2.2068 2.5686.0944 3.2086 3.9849 1.1082 13.786.1045 19.2932-5.7393"/><path d="m3.5 26.5623c1.0263-2.9373 6.6927-10.1047 9.6966-10.2628 4.7067-.2477 14.6156 9.3781 14.6156 9.3781a36.83 36.83 0 0 1 -.637-7.5732s1.6279 7.1839 3.1142 10.3335c-5.7779-3.4327-16.0312.1416-22.79 7.821.1416-7.3255 4.5652-11.5722 8.1749-12.7046-6.4413-.6017-8.0692.0707-12.1743 3.008z"/><path d="m29.6644 26.9154c2.7837-.07 7.7382 0 7.7382 0"/><path d="m24.3441 37.179c2.9372.1062 5.3083-2.5126 6.6177-6.9716 2.5126.6016 5.6268 2.4064-2.2008 4.6114"/><path d="m13.8336 28.1548a41.7729 41.7729 0 0 0 7.0777 5.54c2.4419-3.24 5.9572-8.9022 5.9572-8.9022"/><path d="m25.5482 27.1407c.4954 2.3.9963 6.25-.1544 6.7117-.8823.3539-2.3062-3.2322-2.3062-3.2322"/><path d="m20.0488 33.1471c.1029 1.4913.0788 2.3148-.1284 2.5033-.2477.2255-2.64-1.4312-2.9567-4.7376"/><path d="m33.3478 31.2688-1.0766.2951"/><path d="m31.3039 32.9087 2.0323-.1006"/></g></svg>