<svg viewBox="0 0 48 48" xmlns="http://www.w3.org/2000/svg"><g fill="none" stroke="#000" stroke-linecap="round" stroke-linejoin="round"><path d="m24 28.459c-3.2775 0-4.52-1.42-5.0966-2.2184"/><path d="m18.5788 22.0419a2.8256 2.8256 0 0 0 -5.6511 0"/><path d="m15.7532 36.8447c1.7016.1343 1.442 4.5922-.732 4.3481s-1.797-4.5477.732-4.3481z"/><ellipse cx="8.743" cy="7.9608" rx="2.4403" ry="1.3311" transform="matrix(.70710678 -.70710678 .70710678 .70710678 -3.0683 8.5139)"/><path d="m14.4982 11.9025a58.5433 58.5433 0 0 0 -4.03-5.6673"/><path d="m12.74 13.5991c-1.53-1.6966-5.7225-3.9128-5.7225-3.9128"/><path d="m24 28.459c3.2775 0 4.52-1.42 5.0966-2.2184"/><path d="m29.4212 22.0419a2.8256 2.8256 0 0 1 5.6511 0"/><path d="m24 43.5c5.0966 0 5.6734-1.6416 5.6734-2.7065s-1.1092-4.6291-5.6734-4.6291-5.6734 3.5643-5.6734 4.6291.5768 2.7065 5.6734 2.7065z"/><path d="m32.2468 36.8447c-1.7016.1343-1.442 4.5922.732 4.3481s1.797-4.5477-.732-4.3481z"/><ellipse cx="39.257" cy="7.9608" rx="1.3311" ry="2.4403" transform="matrix(.70710678 -.70710678 .70710678 .70710678 5.869 30.0905)"/><path d="m33.5018 11.9025a58.5433 58.5433 0 0 1 4.03-5.6673"/><path d="m35.26 13.5991c1.53-1.6966 5.7225-3.9128 5.7225-3.9128"/><path d="m28.332 8.9471.0255.0007a3.4467 3.4467 0 0 0 1.3719-1.6078 9.9478 9.9478 0 0 0 -4.1707.9022 37.0638 37.0638 0 0 0 3.1058-3.7422s-6.2116 1.5529-8.3118 4.2326h.0165c-8.6154 2.3584-13.5932 12.739-13.5932 18.7947 0 6.8623 12.56 8.6371 17.224 8.6371s17.224-1.7744 17.224-8.6371c0-5.8892-4.709-15.8673-12.892-18.5802z"/></g></svg>