<svg viewBox="0 0 48 48" xmlns="http://www.w3.org/2000/svg"><g fill="none" stroke="#000" stroke-linecap="round" stroke-linejoin="round"><path d="m42.05 14.12a2.64 2.64 0 0 0 -1.26-.31 2.84 2.84 0 0 0 -.93.17 2.69 2.69 0 0 0 -2.35-2s0 0 0 0a2.71 2.71 0 0 0 -2.71-2.7 2.76 2.76 0 0 0 -1.45.42 2.69 2.69 0 0 0 -5.05-.83 2.84 2.84 0 0 0 -.93-.17 2.7 2.7 0 0 0 -2.26 1.22 2.66 2.66 0 0 0 -3.51 2.57s0 .07 0 .1a2.69 2.69 0 0 0 -.72 4 2.67 2.67 0 0 0 -1.51 1.72 2.73 2.73 0 0 0 -1.05-.31 2.7 2.7 0 0 0 -1.41 5 2.69 2.69 0 0 0 -1.43 2.37 2 2 0 0 0 0 .42 2.69 2.69 0 0 0 -1.03 2.21 2.85 2.85 0 0 0 0 .41 2.72 2.72 0 0 0 -.5 1.57 2.67 2.67 0 0 0 1.37 2.34 2.71 2.71 0 0 0 2.68 2.15 2.66 2.66 0 0 0 1.78-.68 2.71 2.71 0 0 0 4.22-.36 2.66 2.66 0 0 0 1.5.46h.32a2.69 2.69 0 0 0 5 .61 2.75 2.75 0 0 0 1.83-.77 2.69 2.69 0 0 0 4.44-1.08 2.71 2.71 0 0 0 2.08-1.09h.1a2.71 2.71 0 0 0 2.73-2.73 2.67 2.67 0 0 0 -.68-1.77 2.7 2.7 0 0 0 .94-4.93 2.62 2.62 0 0 0 .41-1.42 2.7 2.7 0 0 0 -.67-1.78 2.74 2.74 0 0 0 1.43-1.72"/><path d="m31.91 17.06a1.85 1.85 0 0 0 -3.24-.8 1.63 1.63 0 0 0 -1.31-.68 1.67 1.67 0 0 0 -1.63 1.34"/><path d="m36.45 26.58a2.38 2.38 0 0 0 .5-4.69"/><path d="m21.09 25.86a1.25 1.25 0 0 0 .28 2.45"/><path d="m6.09 29a3.7 3.7 0 0 0 1.51 6.67 3.63 3.63 0 0 0 -.23 1.23 3.72 3.72 0 1 0 7.43 0 3.65 3.65 0 0 0 -.15-1l2.35-1.65"/><path d="m14.6 27.09-3.6 2.5a3.72 3.72 0 0 0 -1.38-1"/></g></svg>