<svg viewBox="0 0 48 48" xmlns="http://www.w3.org/2000/svg"><g fill="none" stroke="#000" stroke-linecap="round" stroke-linejoin="round"><path d="m24 4.5v39"/><path d="m40.89 14.25-33.78 19.5"/><path d="m40.89 33.75-33.78-19.5"/><path d="m18.44 27.21v9.92"/><path d="m29.56 27.21v9.92"/><path d="m29.56 20.79v-9.92"/><path d="m18.44 10.87v9.92"/><path d="m18.44 20.79-8.6 4.96"/><path d="m24 30.42-8.59 4.96"/><path d="m29.56 27.21 8.6-4.96"/><path d="m32.59 12.62-8.59 4.96"/><path d="m24 30.42-8.59 4.96"/><path d="m29.56 27.21 8.6-4.96"/><path d="m24 17.58-8.59-4.96"/><path d="m18.44 27.21-8.59-4.96"/><path d="m24 30.42 8.59 4.96"/><path d="m38.15 25.75-8.59-4.96"/></g></svg>