<svg viewBox="0 0 48 48" xmlns="http://www.w3.org/2000/svg"><g fill="none" stroke="#000" stroke-linecap="round" stroke-linejoin="round"><path d="m5.4756 18.268a10.0321 10.0321 0 0 1 10.0321-10.0321 13.1521 13.1521 0 0 1 4.815.7086 13.2849 13.2849 0 0 1 5.6886 4.3323c2.2622 2.73-13.0369 18.3835-15.5683 15.805a22.3862 22.3862 0 0 1 -3.8109-5.7079 12.37 12.37 0 0 1 -1.1566-5.1056z"/><path d="m40.0013 33.0064q.01.23.01.4615a10.0321 10.0321 0 0 1 -10.0313 10.0321 14.2254 14.2254 0 0 1 -5.7569-1.8163"/><path d="m18.144 36.1636c.9385 1.5055 6.0593.0078 11.4379-3.3452s8.9772-7.2915 8.0386-8.7969"/><path d="m37.62 24.0219c-.9385-1.5055-6.0592-.0077-11.4379 3.3452s-8.9771 7.2915-8.0386 8.7969a47.327 47.327 0 0 0 6.0784 5.52"/><path d="m37.62 24.0219s2.3745 5.9157 2.38 8.9851"/><path d="m36.0614 17.2767s3.1866-4.9868 3.5116-5.009c-1.6345.8738-5.55 1.3153-5.55 1.3153-7.283 4.357-23.6789 24.853-23.6789 24.853s18.8359-18.6429 25.7183-21.1598z"/><path d="m27.7435 28.5631.1147-.5231"/><path d="m24.3332 30.9494-.9762.2778"/><path d="m21.5216 34.2508.9485-.6989"/><path d="m26.9489 32.9946.1258-.5805"/><path d="m32.3164 28.2012.9042-.2891"/><path d="m32.0734 26.4281.9319-.73"/><path d="m25.92 10.9419c.8128-.7553 3.5894-3.3688 4.1036-5.5184m5.1964-.9235c-2.2917 2.8192-4.3589 5.7541-7.6195 8.0736m7.1907-2.8829c-2.2971.7357-6.1029 4.5385-7.5955 5.9724"/><path d="m30.6594 23.5575a25.9279 25.9279 0 0 1 5.7218-4.72m-.9711 3.08a63.1462 63.1462 0 0 0 7.0044-7.5857"/><path d="m42.5245 18.5456a22.5886 22.5886 0 0 0 -4.482 3.4477"/><path d="m8.4867 11.1026c-2.1309 4.9643 2.3374 11.02 7.7583 15.5239"/><path d="m23.8308 18.7814c-1.3923-1.8814-7.1071-10.2126-15.3443-7.6787"/><path d="m25.8125 34.8938s3.9162 7.3377 8.7609 7.4954"/><path d="m34.9086 28.798s4.8761 6.8024 2.118 11.8107"/></g></svg>