<svg viewBox="0 0 48 48" xmlns="http://www.w3.org/2000/svg"><g fill="none" stroke="#000" stroke-linecap="round" stroke-linejoin="round"><path d="m29.28 9.32c0-.36-1.81-1.19-2.16-1.31a18.08 18.08 0 0 0 -21.27 26.13.83.83 0 0 0 1.15.25 5.74 5.74 0 0 1 8.57 3 5.77 5.77 0 0 1 -.1 3.94.8.8 0 0 0 .53 1.07 18.08 18.08 0 0 0 21.25-26.2c-.19-.32-1.38-1.89-1.74-1.85m-12.9 20.65a9.86 9.86 0 1 1 8.77-10.84 9.87 9.87 0 0 1 -8.77 10.84z"/><path d="m34.26 9.52-.43-4.08a.82.82 0 0 0 -.9-.73l-3.27.34a.82.82 0 0 0 -.73.9l.86 8.17a.82.82 0 0 0 .9.74l13.07-1.38a.83.83 0 0 0 .74-.91l-.35-3.26a.83.83 0 0 0 -.9-.74z"/></g></svg>