<svg viewBox="0 0 48 48" xmlns="http://www.w3.org/2000/svg"><g fill="none" stroke="#000" stroke-linecap="round" stroke-linejoin="round"><path d="m10.9 5.52a3 3 0 0 0 -3 3v30.1h-.46a1.91 1.91 0 1 0 0 3.82h23.2a1.91 1.91 0 1 0 0-3.82h-.41v-17h1a1.28 1.28 0 0 1 1.29 1v11.11a4.9 4.9 0 0 0 4.88 4.88h.21a4.91 4.91 0 0 0 4.88-4.88v-17.89-3.77a1.93 1.93 0 0 0 -.57-1.36l-4.64-4.61a1.91 1.91 0 1 0 -2.69 2.72l2.62 2.6-2 2a1.7 1.7 0 0 0 1.21 2.89h2.2v5.69 11.73a1 1 0 0 1 -1 1h-.21a1 1 0 0 1 -1-1v-9.93-.8a5.12 5.12 0 0 0 -5.09-5.09h-1v-9.35a3 3 0 0 0 -3-3h-16.42zm2.49 3.85h11.31a1.72 1.72 0 0 1 1.73 1.72v8.11a1.72 1.72 0 0 1 -1.73 1.73h-11.31a1.72 1.72 0 0 1 -1.73-1.73v-8.11a1.72 1.72 0 0 1 1.73-1.72zm8.74 14.69a.31.31 0 0 1 .26.43l-1.8 3.72 1.84-.57a.3.3 0 0 1 .36.41l-1.79 3.81 1.51-.31a.3.3 0 0 1 .28.5l-5.08 5.59a.3.3 0 0 1 -.51-.28l.78-3-1.57.6a.3.3 0 0 1 -.39-.39l1.45-3.72-2 .79a.3.3 0 0 1 -.39-.4l2.31-5.37a.33.33 0 0 1 .17-.16l4.44-1.63h.11zm0 0"/><path d="m30.23 17.86v4.04"/></g></svg>