<svg viewBox="0 0 48 48" xmlns="http://www.w3.org/2000/svg"><g fill="none" stroke="#000" stroke-linecap="round" stroke-linejoin="round"><path d="m28.5032 41.1172v-13.7385a2.296 2.296 0 0 0 -2.2951-2.2951h-4.5892a2.2967 2.2967 0 0 0 -2.2952 2.2951v13.7385zm-2.2-13.5955h-4.7789v4.2065h4.7784z"/><path d="m28.5032 33.5449a1.73 1.73 0 0 1 1.9651 1.7706c.0494 1.1147.1064 2.4187.1569 3.5668a1.4656 1.4656 0 0 0 1.5491 1.4953 1.5287 1.5287 0 0 0 1.4405-1.4953c-.0075-2.2833 0-6.3232 0-9.0956l-3.3755-3.6088"/><path d="m33.6148 30.1565a1.2741 1.2741 0 1 1 -.8643-1.2094"/><path d="m3.7094 16.8781c13.8987 6.2469 27.4275 6.2952 40.5812 0"/><circle cx="24" cy="24" r="21.5"/><path d="m24 21.5813-4.22-12.0798"/><path d="m24 5.8852v2.6875"/><path d="m36.7893 11.1828-1.8993 1.9006"/><path d="m11.2107 11.1828 1.9 1.9006"/></g></svg>