<svg viewBox="0 0 48 48" xmlns="http://www.w3.org/2000/svg"><g fill="none" stroke="#000" stroke-linecap="round" stroke-linejoin="round"><g stroke-opacity=".99"><path d="m5.5 5.5h37v24.3h-37z"/><path d="m11.3 7.6h13.8v6.9h-13.8z"/><path d="m26.7 7.6h13.9v6.9h-13.9z"/><path d="m25.1 16.8h8.9"/><path d="m7.3 16.8h15.5"/><path d="m22.7 15.9h2.3v1.8h-2.3z"/><path d="m7.2 11.5h1.9"/><path d="m9.1 14.1h-1.9"/><path d="m7.4 19.8h1.8"/><path d="m10.9 19.8h1.9"/><path d="m14.5 19.8h1.8"/><path d="m18 19.8h1.9"/><path d="m7.4 21.7h1.8"/><path d="m10.9 21.7h1.9"/><path d="m14.5 21.7h1.8"/><path d="m18 21.7h1.9"/><path d="m23.1 19.8h1.8"/><path d="m26.6 19.8h1.9"/><path d="m30.2 19.8h1.8"/><path d="m23.1 21.7h1.8"/><path d="m26.6 21.7h1.9"/><path d="m30.2 21.7h1.8"/><path d="m35.2 19.8h1.8"/><path d="m38.8 19.8h1.8"/><path d="m35.2 21.7h1.8"/><path d="m38.8 21.7h1.8"/><path d="m7.4 25.7h1.8"/><path d="m10.9 25.7h1.9"/><path d="m7.4 27.6h1.8"/><path d="m15.4 25.7h1.8"/><path d="m19 25.7h1.8"/><path d="m15.4 27.6h1.8"/><path d="m19 27.6h1.8"/><path d="m23.8 25.7h1.8"/><path d="m23.8 27.6h1.8"/><path d="m27.3 27.6h1.8"/><path d="m35.2 25.7h1.9"/><path d="m38.8 25.7h1.8"/><path d="m35.2 27.6h1.9"/><path d="m38.8 27.6h1.8"/><path d="m31.9 26.1h.2v.3h-.2z"/><path d="m33.5 27.3h.2v.3h-.2z"/><path d="m9.1 36c.7 2.6.8 3-.1 6.5l-1.5-2.2h-1.5a1.66 1.66 0 0 1 0-2.1h1.4z"/><path d="m38.8 31.5c-.7 2.6-.8 2.9.2 6.5l1.5-2.2h1.4a1.66 1.66 0 0 0 0-2.1h-1.4z"/><path d="m38.3 35.5h-2.8v-3.7h-3.2v3.9h-3v-3.8h-3.2v3.7h-3.3v-3.7h-3.1v3.6h-2.9v-3.6h-3.2v3.6h-3.2v-3.6h-3.1v1.9"/><path d="m40 40-1.6 1.9-3.7-3.7-3.4 3.5-3.4-3.4-3.2 3.3-3.3-3.3-3.4 3.4-3.4-3.4-3.4 3.4-1.6-1.7"/></g><path d="m40.6 16.8h-4.2"/></g></svg>