<svg viewBox="0 0 48 48" xmlns="http://www.w3.org/2000/svg"><g fill="none" stroke="#000" stroke-linecap="round" stroke-linejoin="round"><path d="m16.0925 31.8922a15.8149 15.8149 0 0 1 0-27.3922"/><path d="m17.674 29.153a12.652 12.652 0 0 1 0-21.9138"/><path d="m19.2555 26.4138a9.4891 9.4891 0 0 1 0-16.4354"/><circle cx="24" cy="18.1961" r="2.1087"/><path d="m24 43.5v-23.1952"/><path d="m31.9075 4.5a15.8149 15.8149 0 0 1 0 27.3922"/><path d="m30.326 7.2392a12.652 12.652 0 0 1 0 21.9138"/><path d="m28.7445 9.9784a9.4891 9.4891 0 0 1 0 16.4354"/></g></svg>