<svg viewBox="0 0 48 48" xmlns="http://www.w3.org/2000/svg"><g fill="none" stroke="#000" stroke-linecap="round" stroke-linejoin="round"><path d="m3.56 22.85h1a3.52 3.52 0 0 0 3.47-2.23l3.42-6.91c.85-1.53 1.88-2.55 3.35-2.62h2.7a2.32 2.32 0 0 1 2.54 2.05l1.63 7.39c.55 1.7 1.5 2.24 2.62 2.28h1.23"/><path d="m14.53 23h1.3c1.48 0 2.6-.87 3.45-2.52l3.13-6.68c.71-1.5 1.66-2.66 3.51-2.69h1.31"/><path d="m5.3 16.88h9.29"/><path d="m5.72 29 36.84.12"/><path d="m5.72 36.9 36.84.1"/><path d="m30.47 21.29 12.09.12"/><path d="m30.47 13.64 12.09.12"/></g></svg>