<svg viewBox="0 0 48 48" xmlns="http://www.w3.org/2000/svg"><path d="m14.56 11a33.61 33.61 0 0 0 3.15-3.93 6.87 6.87 0 0 1 2-2 3.49 3.49 0 0 1 1.54-.52 1.84 1.84 0 0 1 1.36.4 1.54 1.54 0 0 1 .69 1.54 12.64 12.64 0 0 1 -1.15 2.42l-2.2 3.47m1.58-2.5a23.39 23.39 0 0 1 3.23-4 3.13 3.13 0 0 1 2.88-.11c2.53 1 .22 4.58-.47 5.73 0 0-3.1 5-4.6 7.52a2.18 2.18 0 0 1 -3.24.05c-.41-.43-1.23-1.67-.85-2.29m9.15-6.05a7.37 7.37 0 0 1 2.41-2 2.62 2.62 0 0 1 2.52 0c1.58.69.91 2.91.47 3.74s-3.45 4.94-4.69 6.73a5.12 5.12 0 0 1 -2 1.27 1.53 1.53 0 0 1 -1.47.05 2.7 2.7 0 0 1 -1.22-1.28 2.83 2.83 0 0 1 0-2.12m13-.57s-.62 5.3-.73 6.18c-.16 2.16-1.76 4.41-3.26 6.29a25.06 25.06 0 0 1 -2.66 2.77v2.33h-12.56v-3.48c-2.3-3.06-5.31-5.55-6.67-8.89-1.59-3.91.83-8.25 3.8-10.81v.06a23.18 23.18 0 0 1 6.12 1.66 2.53 2.53 0 0 1 1.21 3.45c-.57 1.15-2.49 1-4.31.46l-2.19-.81-.4 1.07m18-4.35a2.91 2.91 0 0 1 3.87-.32c1.68 1 .55 3.51-.43 4.8l-3.17 4.16a2.34 2.34 0 0 1 -3.35.37c-.94-.78-1.07-2.77-.24-4.21m-15.23 16.84h18.4v5.75h-18.4zm2.93 5.75h12.53v3.63h-12.59z" fill="none" stroke="#000" stroke-linecap="round" stroke-linejoin="round"/></svg>