<svg viewBox="0 0 48 48" xmlns="http://www.w3.org/2000/svg"><g fill="none" stroke="#000" stroke-linecap="round" stroke-linejoin="round"><path d="m40.5 42.5h-33a2 2 0 0 1 -2-2v-33a2 2 0 0 1 2-2h33a2 2 0 0 1 2 2v33a2 2 0 0 1 -2 2z"/><path d="m20.35 19.23-2.39 9.54-2.39-9.54-2.38 9.54-2.39-9.54"/><path d="m34.81 24.83a2.39 2.39 0 0 1 2.39-2.38"/><path d="m34.81 22.45v6.32"/><path d="m25.64 27.57a2.39 2.39 0 0 1 -2.08 1.2 2.39 2.39 0 0 1 -2.38-2.38v-1.56a2.39 2.39 0 0 1 2.38-2.38 2.39 2.39 0 0 1 2.44 2.38v.78h-4.82"/><path d="m32.72 26.39a2.39 2.39 0 0 1 -2.38 2.38 2.39 2.39 0 0 1 -2.34-2.38v-1.56a2.39 2.39 0 0 1 2.39-2.38 2.39 2.39 0 0 1 2.38 2.38"/><path d="m32.72 28.77v-6.32"/></g></svg>