<svg viewBox="0 0 48 48" xmlns="http://www.w3.org/2000/svg"><g fill="none" stroke="#000" stroke-linecap="round" stroke-linejoin="round"><path d="m29.4883 33.506c6.1751 2.3686 11.0727 2.8094 12.2653.744s-1.6383-6.0866-6.7771-10.25c5.1388-4.1634 7.9694-8.1845 6.7771-10.25-.74-1.282-2.9078-1.5984-5.9222-1.0877"/><path d="m13.0235 24c-5.1388 4.1635-7.9694 8.1847-6.7771 10.25s6.09 1.6246 12.2653-.744c1.0363 6.532 3.1034 10.994 5.4883 10.994 1.4883 0 2.8529-1.7377 3.92-4.6318"/><path d="m29.4883 14.494c-1.0363-6.5321-3.1034-10.994-5.4883-10.994s-4.452 4.4619-5.4883 10.994c-6.1751-2.3686-11.0727-2.8094-12.2653-.744-.726 1.2576.0395 3.24 1.9094 5.5386"/></g></svg>