<svg viewBox="0 0 48 48" xmlns="http://www.w3.org/2000/svg"><g fill="none" stroke="#000" stroke-linecap="round" stroke-linejoin="round"><path d="m38.7836 13.6394 2.6318-.002"/><path d="m40.1104 17.1176 3.3896-.0026"/><path d="m21.5207 25.9358c5.266-3.276 11.4 3.8213 15.5614-1.99 3.5079-4.8984-5.2171-11.3053-8.2671-13.289-3.68-2.3937-6.9024-1.979-8.885-.7456-2.37 1.4742-2.6739 4.542-4.7493 5.8332s-4.9619.2081-7.3317 1.6823c-1.9825 1.2333-3.7786 3.94-3.258 8.3.4315 3.6127 2.3227 14.2709 8.2671 13.2891 7.0519-1.1651 3.3965-9.804 8.6626-13.08z"/><circle cx="11.9832" cy="24.6938" r="3.1192"/><circle cx="22.5004" cy="16.0459" r="1.3133"/><circle cx="27.2715" cy="17.1574" r="1.3133"/><path d="m14.4153 38.5713 4.4803-.0034"/><path d="m17.6687 34.0464 3.5759-.0028"/><path d="m36.9655 24.1032 1.1332-.0009"/><path d="m37.7995 20.4977 2.6192-.002"/><path d="m36.1412 17.1206 1.5231-.0012"/><path d="m32.9255 13.7483 3.4127-.0027"/><path d="m40.1157 24.1008 2.2401-.0017"/><path d="m21.6051 38.5658 2.2402-.0017"/><path d="m27.8634 10.0942 3.9601-.0031"/></g></svg>