<svg viewBox="0 0 48 48" xmlns="http://www.w3.org/2000/svg"><g fill="none" stroke="#000" stroke-linecap="round" stroke-linejoin="round"><path d="m24.0152 28.1932c7.0647.0718 8.62 10.6443 16.1734 7.6038 6.3671-2.5628 1.8993-14.0563.181-17.828-2.0731-4.5511-5.4238-6.1232-8.0836-6.15-3.1794-.0324-5.3475 2.73-8.1319 2.7021s-4.8962-2.8344-8.0754-2.8667c-2.66-.027-6.0412 1.476-8.2071 5.9849-1.7946 3.7359-6.4948 15.1363-.1811 17.8279 7.4902 3.1928 9.2595-7.3457 16.3247-7.274z"/><circle cx="15.608" cy="21.167" r="4.344"/><circle cx="31.0049" cy="19.2869" r="1.4961"/><circle cx="34.9108" cy="23.2729" r="1.4961"/><path d="m15.608 23.4928v-4.6517"/><path d="m13.2822 21.167h4.6517"/></g></svg>