<svg viewBox="0 0 48 48" xmlns="http://www.w3.org/2000/svg"><g fill="none" stroke="#000" stroke-linecap="round" stroke-linejoin="round"><path d="m14.1056 4.5h3.3314v3.3314h-3.3314z"/><path d="m36.6261 12.0068h3.3314v3.3314h-3.3314z"/><path d="m14.1056 40.1686h3.3314v3.3314h-3.3314z"/><path d="m36.6261 32.6617h3.3314v3.3314h-3.3314z"/><path d="m14.1056 7.8314h-6.0632v9.8166h3.3315v-6.4851h2.7317z"/><path d="m11.3739 17.648h9.8167v3.3314h-9.8167z"/><path d="m30.5629 21.4015v-3.7535h-4.775v-2.7317h-6.4852v-3.3315h9.8166v3.7534h7.5068v6.0633z"/><path d="m11.3739 27.0205h9.8167v3.3315h-9.8167z"/><path d="m30.5629 26.5985v2.7315h-4.775v4.7751h-6.4852v2.31h9.8166v-3.7534h7.5068v-6.0632z"/><path d="m8.0424 30.352v9.8166h6.0632v-3.3315h-2.7317v-6.4851z"/></g></svg>