<svg viewBox="0 0 48 48" xmlns="http://www.w3.org/2000/svg"><g fill="none" stroke="#000" stroke-linecap="round" stroke-linejoin="round"><path d="m5.5 15.1758v25.3242a2 2 0 0 0 2 2h33a2 2 0 0 0 2-2v-33a2 2 0 0 0 -2-2h-25.209"/><circle cx="9.5" cy="9.4329" r="7"/><path d="m12.1759 8.1146a2.6785 2.6785 0 0 0 -2.82-2.6779 2.7817 2.7817 0 0 0 -2.532 2.83v2.4849a2.6788 2.6788 0 0 0 2.6761 2.6813 2.6788 2.6788 0 0 0 2.6759-2.6817h-2.6759"/><path d="m30.4341 17v5.5236h3.6088m0 7.0855h-3.6088v1.153a8.2385 8.2385 0 1 1 -8.2385-8.2385h1.153v-5.5236m-1.153 12.6091a1.1527 1.1527 0 1 0 1.153 1.153v-1.153z"/><path d="m34.0429 26.0663h-1.2883"/><path d="m26.8912 23.5289v-2.5465"/><path d="m26.8912 28.7843v-2.2214"/><path d="m25.7206 33.8641a4.6816 4.6816 0 0 0 1.0725-2.1426"/><path d="m20.8577 35.2641a4.7305 4.7305 0 0 0 2.4912.0507"/><path d="m17.5652 31.5457a4.6769 4.6769 0 0 0 1.0216 2.22"/><path d="m19.57 26.8682a4.7156 4.7156 0 0 0 -1.614 1.8721"/><path d="m23.3486 26.0663h-1.153"/><path d="m26.8912 18.2885v-1.2883"/><path d="m23.3486 22.5236v7.0855"/><path d="m30.4341 22.5236v7.0855"/></g></svg>