<svg viewBox="0 0 48 48" xmlns="http://www.w3.org/2000/svg"><g fill="none" stroke="#000" stroke-linecap="round" stroke-linejoin="round"><path d="m5.5 15.1758v25.3242a2 2 0 0 0 2 2h33a2 2 0 0 0 2-2v-33a2 2 0 0 0 -2-2h-25.209"/><circle cx="9.5" cy="9.4329" r="7"/><path d="m12.1759 8.1146a2.6785 2.6785 0 0 0 -2.82-2.6779 2.7817 2.7817 0 0 0 -2.532 2.83v2.4849a2.6788 2.6788 0 0 0 2.6761 2.6813 2.6788 2.6788 0 0 0 2.6759-2.6817h-2.6759"/><circle cx="24" cy="24.492" r="7.5"/><path d="m19.2284 33.2823a10.0155 10.0155 0 0 0 9.5432 0"/><path d="m25.3038 27.8145a1.9625 1.9625 0 0 0 1.3224-1.3224"/><path d="m28.1033 28.319a1.9625 1.9625 0 0 0 .9561-1.6073"/><path d="m24.9742 30.0373a1.9626 1.9626 0 0 0 1.7557-.6444"/><path d="m24 34.492v4.516"/></g></svg>