<svg viewBox="0 0 48 48" xmlns="http://www.w3.org/2000/svg"><g fill="none" stroke="#000" stroke-linecap="round" stroke-linejoin="round"><path d="m5.5 15.1758v25.3242a2 2 0 0 0 2 2h33a2 2 0 0 0 2-2v-33a2 2 0 0 0 -2-2h-25.209"/><circle cx="9.5" cy="9.4329" r="7"/><path d="m12.1759 8.1146a2.6785 2.6785 0 0 0 -2.82-2.6779 2.7817 2.7817 0 0 0 -2.532 2.83v2.4849a2.6788 2.6788 0 0 0 2.6761 2.6813 2.6788 2.6788 0 0 0 2.6759-2.6817h-2.6759"/><circle cx="24.365" cy="34.883" r="3.2442"/><path d="m30.3869 34.883h-2.7778"/><path d="m21.1208 34.883h-1.1557a7.1777 7.1777 0 0 0 -7.1777 7.1777v.4461"/><path d="m24.365 25.8805a3.5685 3.5685 0 0 0 3.5685 3.5685h3.71a3.5686 3.5686 0 0 0 3.5686-3.5685v-1.8249a5.5556 5.5556 0 0 0 -5.5551-5.5556h-10.5841a5.5556 5.5556 0 0 0 -5.5556 5.5556v1.8249a3.5686 3.5686 0 0 0 3.5686 3.5685h3.71a3.5686 3.5686 0 0 0 3.5686-3.5685"/></g></svg>