<svg viewBox="0 0 48 48" xmlns="http://www.w3.org/2000/svg"><g fill="none" stroke="#000" stroke-linecap="round" stroke-linejoin="round"><path d="m5.5 15.1758v25.3242a2 2 0 0 0 2 2h33a2 2 0 0 0 2-2v-33a2 2 0 0 0 -2-2h-25.209"/><circle cx="9.5" cy="9.4329" r="7"/><path d="m12.1759 8.1146a2.6785 2.6785 0 0 0 -2.82-2.6779 2.7817 2.7817 0 0 0 -2.532 2.83v2.4849a2.6788 2.6788 0 0 0 2.6761 2.6813 2.6788 2.6788 0 0 0 2.6759-2.6817h-2.6759"/><path d="m20.1896 37.5h7.6208"/><path d="m16.89 20.6222h-3.118v3.1342a3.9989 3.9989 0 0 0 3.9989 3.9989h1.0423"/><path d="m24 37.5c0-5.9218 7.21-6.8775 7.21-19h-14.42c0 12.1225 7.21 13.0782 7.21 19"/><path d="m31.11 20.6222h3.118v3.1342a3.9989 3.9989 0 0 1 -3.9989 3.9989h-1.0425"/><path d="m24 20.965.948 1.92 2.118.307-1.533 1.495.362 2.11-1.895-.996-1.895.996.362-2.11-1.533-1.495 2.118-.307z"/></g></svg>