<svg viewBox="0 0 48 48" xmlns="http://www.w3.org/2000/svg"><g fill="none" stroke="#000" stroke-linecap="round" stroke-linejoin="round"><path d="m5.5 15.1758v25.3242a2 2 0 0 0 2 2h33a2 2 0 0 0 2-2v-33a2 2 0 0 0 -2-2h-25.209"/><circle cx="9.5" cy="9.4329" r="7"/><path d="m12.1759 8.1146a2.6785 2.6785 0 0 0 -2.82-2.6779 2.7817 2.7817 0 0 0 -2.532 2.83v2.4849a2.6788 2.6788 0 0 0 2.6761 2.6813 2.6788 2.6788 0 0 0 2.6759-2.6817h-2.6759"/><circle cx="24" cy="28" r="11.5"/><path d="m35.038 31.227-4.973-7.517-5.391 8.245"/><path d="m12.961 31.227 7.432-11.049 5.789 9.219"/></g></svg>