<svg viewBox="0 0 48 48" xmlns="http://www.w3.org/2000/svg"><g fill="none" stroke="#000" stroke-linecap="round" stroke-linejoin="round"><path d="m5.5 15.1758v25.3242a2 2 0 0 0 2 2h33a2 2 0 0 0 2-2v-33a2 2 0 0 0 -2-2h-25.209"/><circle cx="9.5" cy="9.4329" r="7"/><path d="m12.1759 8.1146a2.6785 2.6785 0 0 0 -2.82-2.6779 2.7817 2.7817 0 0 0 -2.532 2.83v2.4849a2.6788 2.6788 0 0 0 2.6761 2.6813 2.6788 2.6788 0 0 0 2.6759-2.6817h-2.6759"/><path d="m34.5972 22.5237a11.503 11.503 0 0 0 -21.9988 2.9721"/><path d="m12.5984 28.5043a11.503 11.503 0 0 0 21.9841 3.0066"/></g></svg>