<svg viewBox="0 0 48 48" xmlns="http://www.w3.org/2000/svg"><g fill="none" stroke="#000" stroke-linecap="round" stroke-linejoin="round"><path d="m17.3 22.5976a14.79 14.79 0 0 1 .2851 2.5265c0 3.6251-1.6023 12.5777-2.4344 16.9824a1.0841 1.0841 0 0 0 1.666 1.1035l1.5143-1.003a2.9883 2.9883 0 0 1 3.6814.2994l.0626.058a3.5119 3.5119 0 0 0 3.925.581l2.0556-1.0013a2.1884 2.1884 0 0 1 2.5874.5065.7936.7936 0 0 0 1.3635-.3444 60.0656 60.0656 0 0 0 1.6569-13.7473c0-14.1775-5.4536-23.2029-11.0168-21.23-4.1041 1.4556-5.7149 3.8462-6.1785 6.501"/><path d="m21.6323 12.5909c.9591-.3937 3.2876 1.7809 3.2886 5.07.0008 2.85-1.04 3.3216-1.5073 3.4531-.877.2466-1.9732-1.6169-2.2746-4.4944s-.199-3.7444.4933-4.0287z"/><path d="m25.25 24.7039c.3015.74.7948 1.6717 1.1784 1.6717s.9592-.8358.9592-.8358"/><path d="m27.7162 12.2073c.3182-.1843 1.9223 2.1887 2.3294 4.3848.3015 1.626.1683 2.5-.137 2.6057-.4933.1713-1.6717-2.0851-1.9732-3.1813s-.7399-3.5078-.2192-3.8092z"/><path d="m30.68 10.9-2.6806-6.33c-5.2618-.5477-11.4371 2.2293-12.8683 4.02l.646 5.475"/><path d="m15.6388 21.8811c.3519.5754.7723.9062 1.2069.8811 1.0332-.06 1.7552-2.1087 1.6126-4.5767s-1.0957-4.42-2.1289-4.3607c-.4123.0238-.7751.3645-1.0531.9222"/><path d="m15.2629 21.8809h.8471c.6257-.0362 1.0406-1.6623.9268-3.632s-.7132-3.5372-1.3389-3.5011h-.8473c-.6257.0361-1.0407 1.6622-.9269 3.632s.7135 3.5372 1.3392 3.5011z"/><path d="m32.7887 19.2916c.7284-.7722.8127-2.7516.131-4.8569-.7968-2.4607-2.34-4.1687-3.4617-3.8392"/><path d="m31.4065 11.5785.2876-.11c.6173-.2 1.5386.9379 2.0578 2.5414s.44 3.0654-.1776 3.2653l-.1913.084"/></g></svg>