<svg viewBox="0 0 48 48" xmlns="http://www.w3.org/2000/svg"><g fill="none" stroke="#000" stroke-linecap="round" stroke-linejoin="round"><path d="m13.8281 5.469c-16.0581 16.514 5.479 42.846 25.61 26.531"/><path d="m13.8281 5.469 3.313 3.62"/><path d="m36.1241 28.228 3.314 3.772"/><ellipse cx="26.3081" cy="18.977" rx="13.47" ry="13.508"/><path d="m32.0841 12.917c-1.4631-1.4632-6.353-4.13-11.026.543-2.757 2.757-2.9726 7.9947.4886 11.4559 3.2963 3.2963 8.2991 2.7056 11.5945-.59 1.92-1.92 1.0439-5.3491.2869-7.3051l-6.2038 2.1332"/><path d="m26.5181 37.153v2.805"/><path d="m39.0371 42.531c0-2.573-5.6-2.573-12.519-2.573-6.877 0-12.442 0-12.442 2.573"/></g></svg>