<svg viewBox="0 0 48 48" xmlns="http://www.w3.org/2000/svg"><g fill="none" stroke="#000" stroke-linecap="round"><path d="m5.5 19.7a73.4593 73.4593 0 0 1 13.4343-.6008"/><path d="m12.9989 6.6413c.068 19.7807 0 12.8472.4079 34.0554"/><path d="m13.1619 30.2607a19.343 19.343 0 0 1 -3.41 5.2459c-.2153.25-.4064.4178-.6224.6674-.2033.2348-.893.8217-.893.8217"/><path d="m13.3587 33.29c1.328.7259 2.6315 1.464 3.8693 2.235"/><path d="m27.07 5.7576a36.5757 36.5757 0 0 0 3.3308 6.9334"/><path d="m16.7375 15.1381c6.0885-.64 21.6687-1.2255 25.7625-.68"/><path d="m29.0749 16.57c-8.4294 10.14-13.9014 14.537.3845 16.6307"/><path d="m34.6277 26.573s-2.7877 4.9989-9.8054 11.5358"/><path d="m34.5316 34.9364a36.959 36.959 0 0 1 -6.3447 6.8253"/><path d="m31.4554 39.07a6.7372 6.7372 0 0 0 4.0375 3.1723"/></g></svg>