<svg viewBox="0 0 48 48" xmlns="http://www.w3.org/2000/svg"><g fill="none" stroke="#000" stroke-linecap="round" stroke-linejoin="round"><circle cx="24" cy="24" r="21.5"/><circle cx="24" cy="24" r="6"/><path d="m29.9994 24.0869h15.5006"/><path d="m30.1372 11.4169a14 14 0 0 1 4.4607 3.4352"/><path d="m34.7246 32.999a14.0006 14.0006 0 0 1 -4.5874 3.5841"/><path d="m16.3751 12.2586a14 14 0 0 1 8.8449-2.2053"/><path d="m10.0069 24.44a14 14 0 0 1 2.4831-8.41"/><path d="m17.6441 36.4741a14 14 0 0 1 -6.4338-6.78"/><path d="m23.7769 35.6972v9.8016"/><path d="m34.7246 32.999 6.5479 3.8037"/><path d="m11.21 29.6943-6.27 4.2539"/><path d="m12.49 16.03-6.3944-3.933"/><path d="m25.22 10.0533.08-7.5139"/><path d="m34.5979 14.8521 6.4589-3.9408"/></g></svg>