<svg viewBox="0 0 48 48" xmlns="http://www.w3.org/2000/svg"><g fill="none" stroke="#000" stroke-linecap="round" stroke-linejoin="round"><path d="m36.8351 10.6286h4.4571v26.7429h-4.4571z"/><path d="m29.0351 15.4242h4.4571v21.9473h-4.4571z"/><path d="m14.5077 10.6286h4.4571v26.7429h-4.4571z"/><path d="m6.7077 20.3916h4.4571v16.9798h-4.4571z"/><path d="m41.2922 33.3256h2.2078"/><path d="m33.492 33.326h1.125 2.218"/><path d="m18.9649 33.3256h10.0702"/><path d="m11.1649 33.3256h3.3428"/><path d="m4.5 33.3256h2.2077"/><path d="m41.2922 13.5601h2.2078"/><path d="m18.9649 13.5601h17.8702"/><path d="m4.5 13.5601h10.0077"/><path d="m41.2922 23.4429h2.2078"/><path d="m33.492 23.443h1.125 2.218"/><path d="m18.9649 23.4429h10.0702"/><path d="m11.1649 23.4429h3.3428"/><path d="m4.5 23.4429h2.2077"/></g></svg>