<svg viewBox="0 0 48 48" xmlns="http://www.w3.org/2000/svg"><g fill="none" stroke="#000" stroke-linecap="round" stroke-linejoin="round"><path d="m37.4319 7.4164c6.1377 4.06 7.918 21.242-1.6236 28.5058-9.4613 7.2027-18.7883 6.3355-26.6518-.7091-1.05-.9407.3008-.3862 1.2319-.1751 8.465 1.92 16.0387.6053 21.8554-4.9249 7.0549-6.7075 5.5086-15.8177 4.7946-20.9056-.2143-1.5269-1.0688-2.7585.3936-1.7911z"/><path d="m8.4543 7.3715c-3.3075-.0248-5.1389 15.1448 1.7057 18.1946 5.1841 2.31-5.5745-4.0171 3.2033-13.51l-.0159-4.6479z"/><path d="m19.01 17.0458c-1.3872.4625 2.0987 3.9569 3.98 4.0038a4.3408 4.3408 0 0 0 4.5991-3.7896l.143-4.4327 1.8231-.0119c1.4311-.0094-2.2059-5.6346-2.681-5.6362l-3.4556-.0119-.0954 6.0175a20.1706 20.1706 0 0 1 -4.3132 3.861z"/></g></svg>