<svg viewBox="0 0 48 48" xmlns="http://www.w3.org/2000/svg"><g fill="none" stroke="#000" stroke-linecap="round" stroke-linejoin="round"><path d="m42.5 5.5h-37v37h37z"/><path d="m24 42.5v-37"/><path d="m5.5 24h37"/><path d="m29.6135 35.218c3.6762-4.0731 5.5267-.5825 8.8071-6.05-4.3739.9253-6.8131-2.1869-10.2617.3785l3.3224 12.9535"/><path d="m14.1005 14.1005a13.9869 13.9869 0 0 0 -.9992 18.6768"/><path d="m32.7777 13.1015a13.9337 13.9337 0 0 0 -8.7777-3.1015"/><path d="m15.2223 34.8985a13.9337 13.9337 0 0 0 8.7777 3.1015"/><path d="m38 24a13.9332 13.9332 0 0 0 -3.1013-8.7773"/><path d="m19.6111 20.3364c0-5.4252-9.8307-7.6542-9.8307-12.3644"/><path d="m14.1005 14.1005c.2036-.1744.2955-.3248.5952-.5928 2.3681-2.1182 4.9154-3.1806 4.9154-5.5357"/><circle cx="14.6958" cy="9.2336" r="1.3"/></g></svg>