<svg viewBox="0 0 48 48" xmlns="http://www.w3.org/2000/svg"><g fill="none" stroke="#000" stroke-linecap="round" stroke-linejoin="round"><path d="m24 3a4.77 4.77 0 1 0 4.77 4.77 4.78 4.78 0 0 0 -4.77-4.77zm-16.31 11.86a4.77 4.77 0 1 0 4.76 4.77 4.76 4.76 0 0 0 -4.76-4.77zm32.64 0a4.77 4.77 0 1 0 4.77 4.77 4.77 4.77 0 0 0 -4.77-4.77zm-26.41 19.19a4.77 4.77 0 1 0 4.77 4.77 4.76 4.76 0 0 0 -4.77-4.77zm20.18 0a4.77 4.77 0 1 0 4.76 4.77 4.76 4.76 0 0 0 -4.76-4.77z"/><path d="m19.27 8.35a17.24 17.24 0 0 0 -9.73 6.87"/><path d="m38.05 15.44a17.28 17.28 0 0 0 -9.34-6.94"/><path d="m37.41 35.39a17.09 17.09 0 0 0 3.52-10.39c0-.2 0-.41 0-.61"/><path d="m18 41.22a17.23 17.23 0 0 0 5.68 1 17 17 0 0 0 6.2-1.22"/><path d="m6.53 24.25v.72a17.16 17.16 0 0 0 3.77 10.76"/></g></svg>