<svg viewBox="0 0 48 48" xmlns="http://www.w3.org/2000/svg"><g fill="none" stroke="#000" stroke-linecap="round" stroke-linejoin="round"><path d="m23.8964 45.5a21.2768 21.2768 0 0 1 -21.0427-21.5033 21.2766 21.2766 0 0 1 21.0427-21.4967 20.3639 20.3639 0 0 1 15.14 6.8665 4.9558 4.9558 0 0 1 1.3809 4.2435 4.45 4.45 0 0 1 -2.9042 3.3507 4.3539 4.3539 0 0 1 -4.2887-.878c-3.0018-2.3489-5.7033-4.4764-9.328-4.4764a12.2642 12.2642 0 0 0 -12.1327 12.3917 12.2644 12.2644 0 0 0 12.1288 12.3955h.0039a12.8154 12.8154 0 0 0 9.2529-4.3788 4.2429 4.2429 0 0 1 6.0911-.09 4.4209 4.4209 0 0 1 1.1431 1.9583 4.6986 4.6986 0 0 1 -1.0281 4.3376 20.4806 20.4806 0 0 1 -15.459 7.2794z"/><path d="m44.59 26.105a4.3054 4.3054 0 0 0 -1.53-5.8108 4.097 4.097 0 0 0 -2.0794-.5679h-13.1781a4.26 4.26 0 0 0 0 8.5024h13.1775a4.1583 4.1583 0 0 0 3.61-2.1237z"/></g></svg>