<svg viewBox="0 0 48 48" xmlns="http://www.w3.org/2000/svg"><g fill="none" stroke="#000" stroke-linecap="round" stroke-linejoin="round"><path d="m24 25.467h-10.461v.82s5.1061.3173 5.64 3.88h4.821"/><path d="m22.158 45.421-.738-8.0744-.9992-.7357-.8977-4.3029"/><path d="m20.154 35.232h3.846v-2.9245"/><path d="m22.091 35.232-.3876-2.9245"/><path d="m25.842 45.421.7385-8.0744.9992-.7357.8977-4.3029"/><path d="m27.846 35.232h-3.8455"/><path d="m25.909 35.232.3876-2.9245"/><path d="m24 25.467h10.461v.82s-5.1061.3173-5.64 3.88h-4.821"/><path d="m23.81 23.06s-4.3538-5.2024 0-8.7849 8.9223-2.7086 11.676-5.1938c0 0-.7264 3.2079-2.5049 4.3513 0 0 1.5815.0768 2.0214-.5832 0 0-1.4329 2.9729-2.7749 3.62a4.0092 4.0092 0 0 0 1.723-.3409s-.92 3.77-4.0986 4.166-6.042.5741-6.042 2.7655z"/><circle cx="24" cy="24" r="21.5"/></g></svg>