<svg viewBox="0 0 48 48" xmlns="http://www.w3.org/2000/svg"><path d="m7.31 5.5h19a1.63 1.63 0 0 1 1.59 1.63v4.4a1.63 1.63 0 0 1 -1.64 1.64h-19a1.63 1.63 0 0 1 -1.64-1.64v-4.4a1.63 1.63 0 0 1 1.69-1.63zm29.15 0h4.23a1.63 1.63 0 0 1 1.64 1.63v4.4a1.63 1.63 0 0 1 -1.64 1.64h-4.23a1.63 1.63 0 0 1 -1.64-1.64v-4.4a1.63 1.63 0 0 1 1.64-1.63zm-29.15 14.66h33.38a1.63 1.63 0 0 1 1.64 1.64v4.4a1.64 1.64 0 0 1 -1.64 1.64h-33.38a1.63 1.63 0 0 1 -1.64-1.64v-4.4a1.63 1.63 0 0 1 1.64-1.64zm0 14.66h11.94a1.64 1.64 0 0 1 1.64 1.64v4.41a1.63 1.63 0 0 1 -1.64 1.63h-11.94a1.62 1.62 0 0 1 -1.64-1.63v-4.41a1.64 1.64 0 0 1 1.64-1.64zm21.44 0h11.94a1.64 1.64 0 0 1 1.64 1.64v4.41a1.63 1.63 0 0 1 -1.64 1.63h-11.94a1.62 1.62 0 0 1 -1.64-1.63v-4.41a1.64 1.64 0 0 1 1.64-1.64zm0 0" fill="none" stroke="#000" stroke-linecap="round" stroke-linejoin="round"/></svg>