<svg viewBox="0 0 48 48" xmlns="http://www.w3.org/2000/svg"><circle cx="17.57" cy="12.56" r=".75"/><g fill="none" stroke="#000" stroke-linecap="round" stroke-linejoin="round"><path d="m24 22.64v-8.58a1.82 1.82 0 0 1 1.83-1.82 2.09 2.09 0 0 1 1.83.76"/><path d="m20.45 15.75h5.8"/><path d="m22.86 12.28a3.65 3.65 0 0 0 -.59 0 1.81 1.81 0 0 0 -1.82 1.82v8.58h-2.88v-6.93h-2.87v7.8a2.59 2.59 0 0 1 -2.6 2.6 2.59 2.59 0 0 1 -1.84-.76"/><rect height="6.89" rx="2.6" transform="matrix(-1 0 0 -1 24.2 38.39)" width="5.2" x="9.5" y="15.75"/><rect height="6.89" rx="2.6" transform="matrix(-1 0 0 -1 35.69 58.78)" width="5.2" x="15.25" y="25.94"/><path d="m34.84 32.84v-8.59a1.82 1.82 0 0 1 1.82-1.82 2.13 2.13 0 0 1 1.84.76"/><path d="m31.25 25.94h5.81"/><path d="m20.45 25.94v7.81a2.61 2.61 0 0 1 -2.6 2.6 2.59 2.59 0 0 1 -1.85-.76"/><path d="m28.38 30.24a2.6 2.6 0 0 1 -2.6 2.6 2.61 2.61 0 0 1 -2.6-2.6v-1.69a2.61 2.61 0 0 1 2.6-2.61 2.6 2.6 0 0 1 2.6 2.61"/><path d="m33.66 22.48a3.42 3.42 0 0 0 -.59-.05 1.83 1.83 0 0 0 -1.82 1.82v8.59h-2.87v-6.9"/><path d="m40.5 5.5h-33a2 2 0 0 0 -2 2v33a2 2 0 0 0 2 2h33a2 2 0 0 0 2-2v-33a2 2 0 0 0 -2-2z"/></g></svg>