<svg viewBox="0 0 48 48" xmlns="http://www.w3.org/2000/svg"><g fill="none" stroke="#000" stroke-linecap="round" stroke-linejoin="round"><path d="m4.21 22.12a2.87 2.87 0 0 0 0 3.77l17.91 17.91a2.87 2.87 0 0 0 3.77 0l17.9-17.91a2.85 2.85 0 0 0 0-3.77l-17.9-17.91a2.68 2.68 0 0 0 -1.89-.7 2.66 2.66 0 0 0 -1.88.71z"/><path d="m26.33 17.85 3.82 3.82"/><path d="m17.4 8.92 4.27 4.27"/><circle cx="24" cy="32.41" r="3.3"/><circle cx="24" cy="15.52" r="3.3"/><circle cx="32.48" cy="24" r="3.3"/><path d="m24 29.11v-10.29"/></g></svg>