<svg viewBox="0 0 48 48" xmlns="http://www.w3.org/2000/svg"><g fill="none" stroke="#000" stroke-linecap="round" stroke-linejoin="round"><path d="m9.6279 14.7636v-5.4496a6.7376 6.7376 0 0 1 3.2557 3.9574"/><path d="m15.34 33.3052c.2616-2.1976-.9331-7.4946-5.7122-9.4508-.3578 2.3607.8412 6.8164 5.7122 9.4508z"/><path d="m24 11.2674c11.6512 0 18.0814 6 18.0814 6v8.3026c0 9.9765-15.0814 14.6509-18.0814 17.93-3-3.2791-18.0814-7.9535-18.0814-17.93v-8.3026s6.4302-6 18.0814-6z"/><path d="m38.3721 14.7636v-5.4496a6.7376 6.7376 0 0 0 -3.2557 3.9574"/><path d="m31.655 12.184c.748-2.2927 3.0194-7.684 10.4264-7.684v12.7674c-12.6163 8.0931-14.7328 16.6047-14.7328 23.8806a24.3942 24.3942 0 0 0 -6.6972 0c0-7.2759-2.1165-15.7875-14.7328-23.8806v-12.7674c7.407 0 9.6784 5.3913 10.4264 7.684"/><path d="m32.66 33.3052c-.2616-2.1976.9331-7.4946 5.7122-9.4508.3578 2.3607-.8412 6.8164-5.7122 9.4508z"/></g></svg>