<svg viewBox="0 0 48 48" xmlns="http://www.w3.org/2000/svg"><g fill="none" stroke="#000" stroke-linecap="round" stroke-linejoin="round"><path d="m24 42 7.18-22.1h-14.36z"/><path d="m6.76 19.86-2.19 6.71a1.5 1.5 0 0 0 .54 1.67l18.89 13.76z"/><path d="m6.76 19.86h10.06l-4.33-13.31a.74.74 0 0 0 -1.41 0z"/><path d="m41.25 19.86 2.18 6.71a1.5 1.5 0 0 1 -.54 1.67l-18.89 13.76 17.25-22.1z"/><path d="m41.25 19.86h-10.07l4.33-13.31a.74.74 0 0 1 1.41 0z"/><path d="m24 41.96 7.18-22.1h10.07z"/><path d="m24 41.96-17.24-22.1h10.06z"/></g></svg>