<svg viewBox="0 0 48 48" xmlns="http://www.w3.org/2000/svg"><g fill="none" stroke="#000" stroke-linecap="round" stroke-linejoin="round"><path d="m7.92 37.81a21.52 21.52 0 1 1 32.2 0"/><path d="m20.32 25.11 10.4-6.5-12.2 3a2.11 2.11 0 0 0 -1.3 1.6 2.08 2.08 0 0 0 .9 1.9 2 2 0 0 0 2.2 0z"/><path d="m14.32 29.31h4"/><path d="m14.32 33.31h2.6"/><path d="m14.32 29.31v8"/><path d="m20.72 37.31v-8h2.6a2.7 2.7 0 1 1 0 5.4h-2.6"/><path d="m28.52 36.41a2.38 2.38 0 0 0 2 .9h1.2a2 2 0 0 0 2-2 2 2 0 0 0 -2-2h-1.3a2 2 0 0 1 -2-2 2 2 0 0 1 2-2h1.2a2.15 2.15 0 0 1 2 .9"/></g></svg>