<svg viewBox="0 0 48 48" xmlns="http://www.w3.org/2000/svg"><g fill="none" stroke="#000" stroke-linecap="round" stroke-linejoin="round"><path d="m40.5 5.5h-33a2 2 0 0 0 -2 2v33a2 2 0 0 0 2 2h33a2 2 0 0 0 2-2v-33a2 2 0 0 0 -2-2z"/><path d="m19.7094 17.3305v12.733h6.63"/><path d="m29.0534 28.8265a3.7239 3.7239 0 0 0 3.14 1.4317h1.8846a3.1819 3.1819 0 0 0 0-6.3632h-2.0412a3.1819 3.1819 0 0 1 0-6.3632h1.8842a3.3544 3.3544 0 0 1 3.14 1.4317"/><path d="m16.5375 21.7035a4.2823 4.2823 0 0 0 -4.3965-4.2952 4.46 4.46 0 0 0 -3.9254 4.4542v3.9775a4.24 4.24 0 1 0 8.479 0h-4.24"/></g><circle cx="39.0344" cy="29.9195" r=".75"/></svg>