<svg viewBox="0 0 48 48" xmlns="http://www.w3.org/2000/svg"><g fill="none" stroke="#000" stroke-linecap="round" stroke-linejoin="round"><path d="m40.0988 13.0917a18.8154 18.8154 0 0 1 -6.2562 27.2261m-5.4278 2.0038a18.8824 18.8824 0 0 1 -12.6371-1.8742m-9.7518-14.2451a18.8228 18.8228 0 0 1 18.6662-21.1281 18.7428 18.7428 0 0 1 7.5864 1.5927"/><path d="m41.5105 9.4671a4.8541 4.8541 0 0 1 -4.1993 4.8094c-2.386.3352-9.3139 6.6228-13.3166 8.8936 3.96-4.0913 7.8872-10.65 7.81-13.703a4.7519 4.7519 0 0 1 4.853-4.853 4.8531 4.8531 0 0 1 4.8529 4.853z"/><path d="m22.0824 31.5384c.2279 4.475 14.2867 10.5786 19.7092 11.8354-13.0111.2694-21.51-4.0428-26.6106-3.2479a11.94 11.94 0 0 1 -1.89.2037 8.7912 8.7912 0 1 1 8.7912-8.7912z"/></g></svg>