<svg viewBox="0 0 48 48" xmlns="http://www.w3.org/2000/svg"><g fill="none" stroke="#000" stroke-linecap="round" stroke-linejoin="round"><path d="m15.89 22.47a3.11 3.11 0 0 0 -3.28-3.11 3.23 3.23 0 0 0 -2.94 3.28v2.88a3.11 3.11 0 0 0 3.11 3.11 3.11 3.11 0 0 0 3.11-3.11h-3.11"/><path d="m19.28 28.63v-9.27l4.63 9.28 4.63-9.27v9.27"/><path d="m31.93 19.36 3.11 4.64-3.11 4.64"/><path d="m38.15 19.36-3.11 4.64 3.11 4.64"/><path d="m43.5 37.5v-27a2 2 0 0 0 -2-2h-35a2 2 0 0 0 -2 2v27a2 2 0 0 0 2 2h35a2 2 0 0 0 2-2z"/></g></svg>