<svg viewBox="0 0 48 48" xmlns="http://www.w3.org/2000/svg"><g fill="none" stroke="#000" stroke-linecap="round" stroke-linejoin="round"><path d="m17.7283 31.5213h-8.43l-2.106 5.4438"/><path d="m7.1918 36.965v5.7794h11.1667"/><path d="m17.0417 31.5177-.9506 5.4471v5.7794"/><path d="m20.04 33.2718c1.2349.2119 2.08.6422 2.08 1.1386 0 .4437-.675.8346-1.7 1.0639m-4.1615.0172c-1.0693-.2266-1.7792-.6261-1.7792-1.0811 0-.4986.8526-.9306 2.0965-1.1415"/><path d="m17.7283 31.5213h9.6087l2.1874 5.4438h-8.8982m-4.5347 0h-8.8991"/><path d="m29.5244 36.965v5.7794h-11.1667"/><path d="m19.6746 31.5177.716 4.1024.2346 1.3447v5.7794"/><path d="m10.7635 33.5992h1.6874"/><path d="m10.04 35.3832h1.6874"/><path d="m24.975 33.5992h-1.6874"/><path d="m25.6988 35.3832h-1.6875"/><path d="m15.0363 27.5678h-8.43l-2.1063 5.4438"/><path d="m4.5 33.0115v5.7793h2.6655"/><path d="m14.35 27.5651-.6643 3.8063-.0217.1244"/><path d="m17.3482 29.3183c1.2349.2119 2.08.6422 2.08 1.1386 0 .4437-.675.8346-1.7 1.0639m-4.3468-.0246c-.9652-.2321-1.5939-.6112-1.5939-1.0394 0-.4986.8526-.9306 2.0965-1.1415"/><path d="m15.0363 27.5678h9.6911l1.5293 3.9531m-17.6552 1.4907h-4.1015"/><path d="m16.9836 27.5651.683 3.9137"/><path d="m8.0717 29.6466h1.6874"/><path d="m22.2831 29.6466h-1.6874"/><path d="m39.2907 30.38c0 1.1436-1.8845 2.0707-4.2091 2.0707-2.3246 0-4.2091-.9271-4.2091-2.0707 0-1.1437 1.8845-2.0708 4.2091-2.0708 2.3246 0 4.2091.9271 4.2091 2.0708z"/><path d="m39.2907 33.4585c0 1.1436-1.8845 2.0707-4.2091 2.0707s-4.2091-.9271-4.2091-2.0707"/><path d="m39.2907 36.5092c0 1.1436-1.8845 2.0707-4.2091 2.0707s-4.2091-.9271-4.2091-2.0707"/><path d="m39.2907 39.56c0 1.1436-1.8845 2.0707-4.2091 2.0707s-4.2091-.9271-4.2091-2.0707h.0006v-9.18"/><path d="m35.0814 28.3088v-6.1"/><path d="m43.5 37.4892c0 1.1436-1.8845 2.0708-4.2091 2.0708"/><path d="m38.64 20.1376v-13.2534a1.6286 1.6286 0 0 0 -1.6286-1.6286h-26.8714a1.6286 1.6286 0 0 0 -1.6286 1.6286v20.6292"/><path d="m14.7126 23.8075 4.87-7.8931 7.7335 4.6426 4.3539-8.0365"/><path d="m43.5 31.3879c0 1.1436-1.8845 2.0707-4.2091 2.0707"/><path d="m43.5 34.4386c0 1.1436-1.8845 2.0707-4.2091 2.0707"/><path d="m39.2909 39.56c2.3246 0 4.2091-.9272 4.2091-2.0708v-15.2809"/><path d="m43.5 22.2083c0 1.1436-1.8845 2.0707-4.2091 2.0707-2.3246 0-4.2091-.9271-4.2091-2.0707 0-1.1437 1.8845-2.0707 4.2091-2.0707 2.3246 0 4.2091.927 4.2091 2.0707z"/><path d="m43.5 25.259c0 1.1436-1.8845 2.0707-4.2091 2.0707s-4.2091-.9271-4.2091-2.0707"/><path d="m43.5 28.31c0 1.1436-1.8845 2.0708-4.2091 2.0708"/><path d="m39.2907 39.5599v-9.1795"/><path d="m28.8532 35.2945h2.0199"/></g></svg>