<svg viewBox="0 0 48 48" xmlns="http://www.w3.org/2000/svg"><g fill="none" stroke="#000" stroke-linecap="round" stroke-linejoin="round"><path d="m20.91 6.49a15.27 15.27 0 0 1 3.55.44c-7.46 1.79-12.82 8.88-12.82 17.07s5.36 15.3 12.86 17.07c1.2-2.17 2.92-5.34 2.92-8.67s-1.72-6.5-2.91-8.67c3 1.14 6.57 4.67 6.57 8.67s-3.61 7.53-6.58 8.67a15 15 0 0 1 -3.59.44c-9.06 0-16.41-7.84-16.41-17.51s7.35-17.51 16.41-17.51zm22.59 16.51h-13"/><path d="m37.02 18.94v-12.14"/><path d="m41.87 11.88-4.85-5.39-4.85 5.39"/></g></svg>