<svg viewBox="0 0 48 48" xmlns="http://www.w3.org/2000/svg"><g fill="none" stroke="#000" stroke-linecap="round" stroke-linejoin="round"><path d="m21.68 41.673v-18.5823h-7.4321v-4.6455h7.4321v-6.5037h4.6448v6.5037h7.4318v4.6455h-7.4321v18.5823z"/><path d="m10.972 15.7929s-.392-9.5929 13.1174-9.4646 12.94 9.7439 12.94 9.7439"/><path d="m37.0022 25.9556a4.8166 4.8166 0 0 0 4.6978-4.928 4.82 4.82 0 0 0 -4.6715-4.9555z"/><path d="m10.9978 25.6754a4.8166 4.8166 0 0 1 -4.6978-4.928 4.82 4.82 0 0 1 4.6715-4.9555z"/><path d="m6.3002 20.7474h-.8002"/><path d="m42.5 20.7474h-.8002"/></g></svg>