<svg viewBox="0 0 48 48" xmlns="http://www.w3.org/2000/svg"><g fill="none" stroke="#000" stroke-linecap="round" stroke-linejoin="round"><path d="m37.917 17.294a7.5894 7.5894 0 0 0 -7.4624-7.5478 10.7278 10.7278 0 0 0 -6.4546 1.8671 10.7278 10.7278 0 0 0 -6.4546-1.8671 7.5894 7.5894 0 0 0 -7.4624 7.5478"/><path d="m13.2021 27.3546a6.7581 6.7581 0 0 1 .79.596c.4211 2.26.7108 3.8631 1.1386 6.1382.3676 1.9557.6729 5.7642 3.4766 5.7642 1.9346 0 2.5772-1.3035 2.9306-3.1.4911-2.4962.6719-3.9026 1.2166-6.374.1739-.789.6373-1.3608 1.2452-1.3608s1.0713.5718 1.2452 1.3608c.5447 2.4714.7255 3.8778 1.2166 6.374.3534 1.7961.996 3.1 2.9306 3.1 2.8037 0 3.109-3.8085 3.4766-5.7642.4278-2.2751.7175-3.8786 1.1386-6.1382a6.7581 6.7581 0 0 1 .79-.596"/><path d="m9.414 20.828a2.2774 2.2774 0 0 0 -2.3674-2.25 2.36 2.36 0 0 0 -2.1138 2.3336v2.0834a2.2831 2.2831 0 0 0 4.5658 0h-2.2829"/><path d="m12.6411 25.188a1.684 1.684 0 0 1 -1.691-1.6668v-1.0835a1.6912 1.6912 0 0 1 3.382 0v1.0835a1.684 1.684 0 0 1 -1.691 1.6668z"/><path d="m19.2041 22.536a1.6912 1.6912 0 0 0 -3.382 0v1.084a1.6912 1.6912 0 0 0 3.382 0"/><path d="m19.2041 25.287v-6.668"/><path d="m21.6911 19.485v5.834"/><path d="m20.7611 20.902h1.776"/><path d="m25.4911 24.616a2.0276 2.0276 0 0 0 1.691.75h1.0146a1.667 1.667 0 1 0 0-3.3336h-1.0992a1.667 1.667 0 1 1 0-3.3337h1.0146a1.8259 1.8259 0 0 1 1.691.75"/><path d="m31.5161 22.657a1.6912 1.6912 0 0 1 3.382 0v2.667"/><path d="m31.5161 20.99v4.334"/><path d="m34.8981 22.657a1.6912 1.6912 0 0 1 3.382 0v2.667"/></g><ellipse cx="40.0341" cy="18.975" rx=".8116" ry=".8"/><path d="m40.0341 20.975v4.418" fill="none" stroke="#000" stroke-linecap="round" stroke-linejoin="round"/><path d="m41.9681 18.788v5.834a.7931.7931 0 0 0 .8455.8334h.2536" fill="none" stroke="#000" stroke-linecap="round" stroke-linejoin="round"/></svg>