<svg viewBox="0 0 48 48" xmlns="http://www.w3.org/2000/svg"><g fill="none" stroke="#000" stroke-linecap="round" stroke-linejoin="round"><path d="m27.9643 40.5356-3.9643 3.9644-6.0043-6.0043h-8.4914v-8.4914l-6.0043-6.0043 6.0043-6.0043v-8.4914h8.4914l6.0043-6.0043 6.0043 6.0043h8.4914v8.4914l6.0043 6.0043-3.0115 3.0115"/><path d="m29.8084 36.7645a7.7272 7.7272 0 1 1 6.7053 3.8869l-12.0373-.163a4.6363 4.6363 0 0 1 0-9.2726l4.5053-.0135"/><path d="m20.0637 19.5865h6.2163a6.2484 6.2484 0 0 1 -6.0955 6.3978q-.06.0015-.1206.0017a6.4 6.4 0 0 1 0-12.799 6.3025 6.3025 0 0 1 3.1728.8417"/></g></svg>