<svg viewBox="0 0 48 48" xmlns="http://www.w3.org/2000/svg"><g fill="none" stroke="#000" stroke-linecap="round" stroke-linejoin="round"><path d="m18.92 23.23a3.09 3.09 0 0 1 .86.32l8.93 5-2.48 2.45-8-7.64a1.12 1.12 0 0 1 .69-.13zm-.69.16 8 7.64-8 7.62a1.81 1.81 0 0 1 -.45-1.42v-12.41a1.76 1.76 0 0 1 .45-1.42zm10.48 5.11 2.94 1.64c1.05.58 1.05 1.19 0 1.78l-2.94 1.63-2.48-2.55 2.48-2.52zm0 5-8.93 5c-.49.27-1.15.5-1.54.15l8-7.62z"/><path d="m41.38 19.84h-7.86l-7.77-13a2 2 0 0 0 -3.5 0l-7.77 13h-7.86a3.12 3.12 0 0 0 -3 3.93l4.38 16.31a2.84 2.84 0 0 0 2.74 2.1h26.5a2.84 2.84 0 0 0 2.76-2.1l4.41-16.31a3.12 3.12 0 0 0 -3.03-3.93zm-17.38-8 4.77 8h-9.54z"/></g></svg>