<svg viewBox="0 0 48 48" xmlns="http://www.w3.org/2000/svg"><g fill="none" stroke="#000" stroke-linecap="round" stroke-linejoin="round"><path d="m38.5357 42.2722h-29.0714a3.9642 3.9642 0 0 1 -3.9643-3.9643v-14.0952a3.9628 3.9628 0 0 1 1.1627-2.8046l14.5357-14.52a3.9629 3.9629 0 0 1 5.6032 0l14.5357 14.52a3.9628 3.9628 0 0 1 1.1627 2.8046v14.0952a3.9642 3.9642 0 0 1 -3.9643 3.9643zm-25.1071-7.9285h21.1428v-8.4878l-10.5714-10.5603-10.5714 10.56z"/><path d="m29.5865 9.6699-24.0865 24.1237"/><path d="m13.4286 34.3437v7.9285"/><path d="m34.5714 34.3437v7.9285"/></g></svg>