<svg viewBox="0 0 48 48" xmlns="http://www.w3.org/2000/svg"><path d="m24 2.5a21.68 21.68 0 0 0 -13.82 5 99.36 99.36 0 0 1 15.37 5.24c4.51 1.93 11.84 3.24 18.78 4a21.63 21.63 0 0 0 -20.33-14.24zm-19.27 11.71a21.58 21.58 0 0 0 -2.11 6.63 94.62 94.62 0 0 1 22.93 6.78c4.48 1.92 11.76 3.22 18.67 4a21.36 21.36 0 0 0 1.4-6.89c-7.83-.71-16.58-2-23.19-4.82a88.32 88.32 0 0 0 -17.7-5.68zm-1.8 14.58a21.66 21.66 0 0 0 36.61 10.15c-6-.79-12.18-2-17.11-4.14a86.66 86.66 0 0 0 -19.5-6z" fill="none" stroke="#000" stroke-linejoin="round"/></svg>