<svg viewBox="0 0 48 48" xmlns="http://www.w3.org/2000/svg"><path d="m19.69 2.5a1.09 1.09 0 0 0 -1.06.9l-.8 5.7a15.6 15.6 0 0 0 -3.64 2.12l-5.35-2.16a1.07 1.07 0 0 0 -1.31.46l-4.3 7.48a1.09 1.09 0 0 0 .25 1.38l4.52 3.52a18.53 18.53 0 0 0 -.13 2.1 18.21 18.21 0 0 0 .13 2.1l-4.52 3.55a1.09 1.09 0 0 0 -.25 1.35l4.3 7.45a1.06 1.06 0 0 0 1.31.46l5.35-2.16a16.28 16.28 0 0 0 3.64 2.12l.8 5.7a1.09 1.09 0 0 0 1.06.9h8.61a1.09 1.09 0 0 0 1.06-.9l.8-5.7a15.4 15.4 0 0 0 3.64-2.12l5.35 2.16a1.06 1.06 0 0 0 1.31-.46l4.3-7.45a1.09 1.09 0 0 0 -.25-1.38l-4.51-3.52a14.77 14.77 0 0 0 0-4.2l4.55-3.55a1.09 1.09 0 0 0 .22-1.35l-4.29-7.48a1.08 1.08 0 0 0 -1.32-.46l-5.35 2.16a16.43 16.43 0 0 0 -3.63-2.12l-.81-5.7a1.11 1.11 0 0 0 -1.07-.9zm4.44 21.5h8.87a8.88 8.88 0 0 1 -8.83 9.09 9.09 9.09 0 1 1 4.5-17" fill="none" stroke="#000" stroke-linecap="round" stroke-linejoin="round"/></svg>