<svg viewBox="0 0 48 48" xmlns="http://www.w3.org/2000/svg"><g fill="none" stroke="#000" stroke-linecap="round" stroke-linejoin="round"><path d="m14.75 13.51a9.25 9.25 0 0 1 9.25 9.25v1.24a0 0 0 0 1 0 0h-17.26a1.24 1.24 0 0 1 -1.24-1.24 9.25 9.25 0 0 1 9.25-9.25z"/><path d="m33.25 24a9.25 9.25 0 0 1 9.25 9.25v1.24a0 0 0 0 1 0 0h-17.26a1.24 1.24 0 0 1 -1.24-1.24 9.25 9.25 0 0 1 9.25-9.25z" transform="matrix(-1 0 0 -1 66.5 58.49)"/><path d="m18.75 28a9.25 9.25 0 0 1 9.25 9.25v1.25a0 0 0 0 1 0 0h-17.25a1.24 1.24 0 0 1 -1.25-1.25 9.25 9.25 0 0 1 9.25-9.25z" transform="matrix(0 -1 1 0 -14.5 52)"/><path d="m29.25 9.5a9.25 9.25 0 0 1 9.25 9.25v1.25a0 0 0 0 1 0 0h-17.26a1.24 1.24 0 0 1 -1.24-1.25 9.25 9.25 0 0 1 9.25-9.25z" transform="matrix(0 1 -1 0 44 -14.5)"/></g></svg>