<svg viewBox="0 0 48 48" xmlns="http://www.w3.org/2000/svg"><g fill="none" stroke="#000" stroke-linecap="round" stroke-linejoin="round"><path d="m13.1676 18.573h-5.5276a2.0779 2.0779 0 0 0 -2.0779 2.0778v19.7714a2.0779 2.0779 0 0 0 2.0779 2.0778h32.72a2.0779 2.0779 0 0 0 2.0779-2.0778v-19.7714a2.0779 2.0779 0 0 0 -2.0779-2.0778h-5.284"/><rect height="3.327" rx=".4208" width="20.0445" x="14.0996" y="35.7634"/><rect height="3.3663" rx=".4208" width="3.3663" x="10.7333" y="29.78"/><rect height="3.3663" rx=".4208" width="3.3663" x="16.586" y="29.78"/><path d="m25.8051 30.3553v2.37a.4208.4208 0 0 1 -.4208.4208h-2.5243a.4208.4208 0 0 1 -.4207-.4207v-2.37"/><rect height="3.3663" rx=".4208" width="3.3663" x="28.2915" y="29.78"/><rect height="3.3663" rx=".4208" width="3.3663" x="34.1442" y="29.78"/><rect height="3.3663" rx=".4208" width="3.3663" x="10.7333" y="23.7965"/><path d="m18.2755 27.1628h-1.2687a.4208.4208 0 0 1 -.4208-.4208v-.8747"/><path d="m31.6578 25.8673v.8747a.4208.4208 0 0 1 -.4208.4208h-1.2687"/><rect height="3.3663" rx=".4208" width="3.3663" x="34.1442" y="23.7965"/><path d="m34.2525 23.8775-10.1306 7.7685-10.1306-7.7685a2.1035 2.1035 0 0 1 -.8237-1.67v-15.0243a1.6832 1.6832 0 0 1 1.6832-1.6832h18.5422a1.6832 1.6832 0 0 1 1.6832 1.6832v15.0248a2.1036 2.1036 0 0 1 -.8237 1.6695z"/><path d="m20.001 9.573v12h-2"/><path d="m18.2081 13.4696h3.5862"/><path d="m18.2081 16.9868h3.5862"/><path d="m23.8978 16.9868h6.3448"/><path d="m23.8978 13.4696h6.3448"/><path d="m28.7253 21.573v-8.1034"/><path d="m28.346 11.9523.8621-2.3793"/><path d="m24.4095 9.573.971 2.1379"/><path d="m25.484 13.47v4.1891a3.485 3.485 0 0 1 -.8049 2.2275l-1.402 1.6868"/></g></svg>