<svg viewBox="0 0 48 48" xmlns="http://www.w3.org/2000/svg"><path d="m23.78 2.5a21.52 21.52 0 0 1 12.22 3.63l-5.63 8.41a11.39 11.39 0 1 0 3.85 14.52h-10.22v-10.12h21.5v5.06a21.5 21.5 0 1 1 -22.26-21.49zm.22 2.5a2.53 2.53 0 1 0 2.53 2.53 2.53 2.53 0 0 0 -2.53-2.53zm-16.44 16.47a2.53 2.53 0 1 0 2.53 2.53 2.53 2.53 0 0 0 -2.53-2.53zm32.88 0a2.53 2.53 0 1 0 2.56 2.53 2.53 2.53 0 0 0 -2.56-2.53zm-16.44 16.44a2.53 2.53 0 1 0 2.53 2.53 2.53 2.53 0 0 0 -2.53-2.53z" fill="none" stroke="#000" stroke-linecap="round" stroke-linejoin="round"/></svg>