<svg viewBox="0 0 48 48" xmlns="http://www.w3.org/2000/svg"><path d="m41.59 18a7.28 7.28 0 0 0 -12.24-4.34h-10.68a7.29 7.29 0 0 0 -5-2 7.3 7.3 0 0 0 -7.25 6.34l-1.91 15.24c-.32 3.89 6.53 4 7.81 1.32l4.17-8.92h15l4.17 8.92c1.28 2.66 8.13 2.57 7.81-1.32zm-4.68-.47a1.42 1.42 0 1 1 -1.41 1.42 1.42 1.42 0 0 1 1.41-1.46zm-7.2 1.42a1.42 1.42 0 0 1 1.42-1.42 1.42 1.42 0 1 1 -1.42 1.42zm-17.48 3.1v-1.72h-1.72a.87.87 0 0 1 -.87-.87v-1.09a.87.87 0 0 1 .87-.88h1.72v-1.71a.87.87 0 0 1 .87-.87h1.09a.87.87 0 0 1 .88.87v1.71h1.71a.87.87 0 0 1 .87.88v1.09a.87.87 0 0 1 -.87.87h-1.71v1.72a.87.87 0 0 1 -.88.87h-1.09a.86.86 0 0 1 -.23-.05l-.5-.38a.85.85 0 0 1 -.14-.44zm23.21-.24a1.42 1.42 0 1 1 -1.44-1.42 1.42 1.42 0 0 1 1.44 1.42zm-1.44-7.21a1.43 1.43 0 0 1 1.44 1.4 1.42 1.42 0 1 1 -1.44-1.4z" fill="none" stroke="#000" stroke-linecap="round" stroke-linejoin="round"/></svg>