<svg viewBox="0 0 48 48" xmlns="http://www.w3.org/2000/svg"><g fill="none" stroke="#000" stroke-linecap="round" stroke-linejoin="round"><path d="m17.78 39.67a6.6 6.6 0 0 0 9-2.41l8.36-14.46a3.6 3.6 0 0 0 -1.32-4.92l-2.5-1.44"/><path d="m17.45 39.48a6 6 0 0 1 -2.19-8.19l6.33-11a3.6 3.6 0 0 0 -1.32-4.91l-4.6-2.65a3.58 3.58 0 0 0 -4.91 1.31l-5.13 8.96a8.38 8.38 0 0 0 3.07 11.42l3.56 2.06z"/><path d="m40.2 13.82a6.58 6.58 0 0 1 2.42 9l-5.9 10.18a3.61 3.61 0 0 1 -4.92 1.32l-2.5-1.45"/><path d="m18.17 14.2 1.48-2.56a8.4 8.4 0 0 1 11.47-3.07l3.56 2.06 5.19 3a6 6 0 0 0 -8.19 2.2l-8.68 14.97a3.6 3.6 0 0 1 -4.91 1.32l-2.51-1.45"/></g></svg>