<svg viewBox="0 0 48 48" xmlns="http://www.w3.org/2000/svg"><g fill="none" stroke="#000" stroke-linecap="round" stroke-linejoin="round"><path d="m20.3353 27.6647-5.66-5.66 4.9872-4.9872a1.6006 1.6006 0 0 0 0-2.2638l-7.9225-7.9228a1.6006 1.6006 0 0 0 -2.2638 0l-1.2597 1.2591c-5.4384 5.4383-2.3415 17.3525 6 25.6937"/><path d="m14.6757 22.0052-5.4315 5.4316"/><path d="m14.6757 22.0052-8.9569-8.9569"/><path d="m20.3353 27.6647 5.66 5.66 4.9872-4.9872a1.6006 1.6006 0 0 1 2.2638 0l7.9228 7.9225a1.6006 1.6006 0 0 1 0 2.2638l-1.2591 1.2597c-5.4384 5.4384-17.3525 2.3415-25.6937-6"/><path d="m25.9948 33.3243-5.4316 5.4315"/><path d="m25.9948 33.3243 8.9569 8.9569"/><path d="m42.5 22.26v-.871a15.8891 15.8891 0 0 0 -15.889-15.889h-.871a.8.8 0 0 0 -.8.8v15.96a.8.8 0 0 0 .8.8h15.96a.8.8 0 0 0 .8-.8z"/><path d="m35.2383 23.06v-.2215a10.0772 10.0772 0 0 0 -10.0772-10.0768h-.2211"/></g></svg>