<svg viewBox="0 0 48 48" xmlns="http://www.w3.org/2000/svg"><g fill="none" stroke="#000" stroke-linecap="round" stroke-linejoin="round"><path d="m19.1835 9.8732-8.9413-5.1622a1.5576 1.5576 0 0 0 -2.3364 1.349v35.88a1.5576 1.5576 0 0 0 2.3364 1.3489l31.0732-17.94a1.5576 1.5576 0 0 0 0-2.6978l-2.7412-1.5826"/><path d="m25.9133 34.2413h-11.547a1.5575 1.5575 0 0 1 -1.5576-1.5576v-22.8105h25.7655v17.0583"/><path d="m12.8087 15.2447h25.7655"/><circle cx="18.5295" cy="26.8173" r="1.5576"/><circle cx="23.7875" cy="21.5593" r="1.5576"/><circle cx="27.5264" cy="25.2982" r="1.5576"/><circle cx="33.1397" cy="19.685" r="1.5576"/><path d="m32.0383 20.7864-3.4105 3.4104"/><path d="m24.8889 22.6607 1.5362 1.5361"/><path d="m19.6309 25.716 3.0553-3.0553"/></g></svg>