<svg viewBox="0 0 48 48" xmlns="http://www.w3.org/2000/svg"><g fill="none" stroke="#000" stroke-linecap="round" stroke-linejoin="round"><path d="m38.78 39.5h-29.56a4.569 4.569 0 0 1 -4.595-4.5316v-21.9368a4.569 4.569 0 0 1 4.595-4.5316h29.56a4.569 4.569 0 0 1 4.5949 4.5316v21.9368a4.569 4.569 0 0 1 -4.5949 4.5316zm-28.3425-5.8125h27.125v-19.375h-27.125z"/><path d="m43.375 17.2188a2.9063 2.9063 0 0 0 -2.9062-2.9063h-3.2912"/><path d="m34.6562 39.5a2.9063 2.9063 0 0 0 2.9063-2.9062v-3.2912"/><path d="m4.625 30.7812a2.9063 2.9063 0 0 0 2.9062 2.9063h3.2912"/><path d="m13.3438 8.5a2.9063 2.9063 0 0 0 -2.9063 2.9062v3.2912"/></g></svg>