<svg viewBox="0 0 48 48" xmlns="http://www.w3.org/2000/svg"><g fill="none" stroke="#000" stroke-linecap="round" stroke-linejoin="round"><path d="m20.75 8.83a4.34 4.34 0 0 1 8.67 0"/><path d="m29.42 39.17a4.34 4.34 0 0 1 -8.67 0"/><path d="m11.54 14.12 10.84-8.67"/><path d="m27.79 12.22-10.79 8.66"/><path d="m29.42 8.83v30.34"/><path d="m20.75 39.17v-30.34"/><path d="m27.79 12.22a4.33 4.33 0 0 0 -2.71-7.72h-.08a4.37 4.37 0 0 0 -2.64 1"/><path d="m11.54 14.12a4.33 4.33 0 0 0 2.71 7.71h.07a4.31 4.31 0 0 0 2.68-.95"/><path d="m20.75 30.15 8.67 6.93"/></g></svg>