<svg viewBox="0 0 48 48" xmlns="http://www.w3.org/2000/svg"><g fill="none" stroke="#000" stroke-linecap="round" stroke-linejoin="round"><path d="m14.25 19.557h9.75v-12.463h-8.142z"/><path d="m15.8582 7.0938h-6.7158a2 2 0 0 0 -1.9418 1.5207l-2.7006 10.9428h9.75"/><path d="m24 19.5573a4.875 4.875 0 0 1 -9.75 0"/><path d="m14.25 19.5573a4.875 4.875 0 0 1 -9.75 0"/><path d="m33.75 19.557h-9.75v-12.463h8.142z"/><path d="m32.1418 7.0938h6.7158a2 2 0 0 1 1.9418 1.5207l2.7006 10.9428h-9.75"/><path d="m24 19.5573a4.875 4.875 0 0 0 9.75 0"/><path d="m33.75 19.5573a4.875 4.875 0 0 0 9.75 0"/><path d="m7.3252 23.9768v14.9294a2 2 0 0 0 2 2h29.35a2 2 0 0 0 2-2v-14.9282"/><path d="m33.4991 33.5687h3.9566a3.9771 3.9771 0 0 1 -3.88 4.0721l-.0768.0012a4.0733 4.0733 0 1 1 0-8.1466 4.011 4.011 0 0 1 2.02.5357"/></g></svg>