<svg viewBox="0 0 48 48" xmlns="http://www.w3.org/2000/svg"><g fill="none" stroke="#000" stroke-linecap="round" stroke-linejoin="round"><path d="m32.6319 35.4058c-1.59 2.4228-3.29 5.0352-7.0635 6.1748-3.7828 1.13-9.7585.9672-13.4072-.7183-3.6582-1.695-4.9894-4.9223-4.3094-7.4218.67-2.509 3.3422-4.3 4.5488-6.2247 1.1971-1.9345.929-4.003.6129-5.9183a27.9877 27.9877 0 0 1 -.6129-5.0947 10.325 10.325 0 0 1 1.0294-3.7373"/><path d="m14.5553 12.6116c-6.9429-.4788-1.4364-6.7036.9577-1.9153"/><path d="m15.1814 10.1307c4.5488-5.2671 21.4-6.7413 23.0758 6.6658"/><path d="m19.8224 7.2726c.1844-1.9982 1.2165-2.1541 2.616-.6717"/><path d="m38.2572 16.7965a1.214 1.214 0 0 1 1.312 1.0822 1.3446 1.3446 0 0 1 -2.6335 0 1.2174 1.2174 0 0 1 1.3215-1.0822z"/><path d="m37.06 18.3575c-5.5069 3.9549 5.3813 4.1232 2.509-.3855"/><path d="m28.6807 11.1751a5.7459 5.7459 0 1 1 -5.7459 5.7459 5.7443 5.7443 0 0 1 5.7459-5.7459z"/><path d="m30.596 15.724a1.3227 1.3227 0 1 1 -1.197 1.3119 1.2566 1.2566 0 0 1 1.197-1.3119z"/><path d="m38.4967 21.148v1.7846"/><path d="m36.29 11.2939c2.2266-.7383 4.4755 2.8711 3.03 5.9511"/><path d="m26.9282 25.4537 13.139-2.8637a1.3982 1.3982 0 0 1 1.665 1.0666l.0013.006 1.7334 7.9485a1.3982 1.3982 0 0 1 -1.063 1.6663l-13.1486 2.8637a1.3981 1.3981 0 0 1 -1.665-1.0665l-.0013-.0061-1.7334-7.9485a1.3983 1.3983 0 0 1 1.0666-1.665z"/><path d="m8.8844 31.3775c-5.77-2.4511-1.072-5.0228.8284-1.03"/><path d="m4.5 37.9894q3.1124 2.8729 5.0277-.7183"/><path d="m30.9815 37.7684c1.6762-.389 2.225.73 1.53 3.3333"/><path d="m23.1742 26.4975q1.1972 2.2889 3.8306.1341"/><path d="m26.0472 26.9764 9.0977 3.9647 6.2938-7.8819"/><path d="m28.4789 36.09 4.74-5.9877"/><path d="m36.56 29.1694 6.6911 3.5083"/></g></svg>