<svg viewBox="0 0 48 48" xmlns="http://www.w3.org/2000/svg"><g fill="none" stroke="#000" stroke-linecap="round" stroke-linejoin="round"><circle cx="24" cy="32.37" r="2.27"/><path d="m40.39 12.48c-3.63.06-11 4.15-12.78 14.55"/><path d="m42.5 15.15c-.28 6.31-2.73 14.67-11.08 18.19"/><path d="m27.61 27a53.43 53.43 0 0 0 1.48-10.91c0-5-3.3-10.8-3.3-10.8"/><path d="m7.61 12.48c3.63.06 11 4.15 12.78 14.55"/><path d="m5.5 15.15c.28 6.31 2.73 14.67 11.08 18.19"/><path d="m20.39 27a53.43 53.43 0 0 1 -1.48-10.91c0-5 3.3-10.8 3.3-10.8"/><path d="m16.58 33.34c-3.52-1.71-4.32-6-3.75-10.63 0 0 5.06-1.42 7.56 4.32a14.71 14.71 0 0 1 3.61-9.49 14.71 14.71 0 0 1 3.61 9.46c2.5-5.74 7.56-4.32 7.56-4.32.57 4.66-.23 8.92-3.75 10.63"/><path d="m7.61 42.68h32.78"/><path d="m6.62 38.21h34.76"/></g></svg>