<svg viewBox="0 0 48 48" xmlns="http://www.w3.org/2000/svg"><g fill="none" stroke="#000" stroke-linecap="round" stroke-linejoin="round"><path d="m37.689 6.593a21.1619 21.1619 0 0 1 8.518 17.407 21.4683 21.4683 0 0 1 -1.129 6.893m-1.301 3.125a20.9667 20.9667 0 0 1 -19.07 11.482 21.4361 21.4361 0 0 1 -8.668-1.819m-2.882-1.067a22.4161 22.4161 0 0 1 -10.022-17.823m.329-3.514c1.11-10.831 10.118-18.777 21.243-18.777a21.4216 21.4216 0 0 1 9.978 2.45"/><path d="m19.409 9.08a13.6383 13.6383 0 0 1 5.756-.814 15.582 15.582 0 0 1 15.582 15.581 15.14 15.14 0 0 1 -12.332 15.256m-3.25.326a15.2623 15.2623 0 0 1 -11.594-5.108m-1.806-2.516a15.51 15.51 0 0 1 -2.182-7.958 15.2622 15.2622 0 0 1 6.875-13.16"/><path d="m30.09 15.71a9.03 9.03 0 0 1 4.496 8.188 9.5742 9.5742 0 1 1 -7.54-9.357"/><circle cx="17.792" cy="9.966" r="1.456"/><circle cx="3.249" cy="23.085" r="1.456"/><circle cx="14.436" cy="43.017" r="1.456"/><circle cx="44.538" cy="32.542" r="1.456"/><circle cx="36.3" cy="5.898" r="1.456"/><circle cx="12.707" cy="33.051" r="1.456"/><circle cx="28.47" cy="14.949" r="1.456"/><circle cx="26.742" cy="39.091" r="1.456"/></g></svg>