<svg viewBox="0 0 48 48" xmlns="http://www.w3.org/2000/svg"><g fill="none" stroke="#000" stroke-linecap="round" stroke-linejoin="round"><path d="m19.8 25.51a1.78 1.78 0 1 1 0 2.52 1.78 1.78 0 0 1 0-2.52zm-9.24 11.49a9.52 9.52 0 0 1 .12-13.44 1.47 1.47 0 0 1 2.08.09l.12.14 11.35 10.93a1.71 1.71 0 0 1 0 2.42 9.58 9.58 0 0 1 -13.55 0 .93.93 0 0 1 -.14-.14z"/><path d="m32.85 43.6a25.77 25.77 0 0 0 .2-3.19 25.46 25.46 0 0 0 -25.46-25.41 25.77 25.77 0 0 0 -3.19.2"/><path d="m40.89 37.3c.07-.81.11-1.62.11-2.45a27.85 27.85 0 0 0 -27.85-27.85c-.83 0-1.64 0-2.45.11"/><circle cx="24" cy="24" r="21.5"/></g></svg>