<svg viewBox="0 0 48 48" xmlns="http://www.w3.org/2000/svg"><g fill="none" stroke="#000" stroke-linecap="round" stroke-linejoin="round"><path d="m14.5552 22.1879a3.3529 3.3529 0 0 0 -3.4631-3.3395 3.484 3.484 0 0 0 -3.0921 3.4631v3.0921a3.3395 3.3395 0 0 0 6.6789 0h-3.3389"/><path d="m16.7538 28.8933v-10.0517h3.2668a3.3925 3.3925 0 0 1 0 6.7849h-3.2668"/><path d="m25.3539 27.7624a2.9956 2.9956 0 0 0 2.5129 1.1309h1.5077a2.513 2.513 0 0 0 0-5.0259h-1.6334a2.5129 2.5129 0 0 1 0-5.0258h1.5078a2.6979 2.6979 0 0 1 2.5129 1.1308"/><path d="m33.9373 25.503 1.232 3.65 1.1864-3.65"/><path d="m40 28.1866a1.2188 1.2188 0 0 1 -2.4123-.2467v-1.2184a1.2133 1.2133 0 0 1 1.2184-1.2185 1.1593 1.1593 0 0 1 1.1482.9585"/><path d="m43.5 37.5v-27a2 2 0 0 0 -2-2h-35a2 2 0 0 0 -2 2v27a2 2 0 0 0 2 2h35a2 2 0 0 0 2-2z"/></g></svg>