<svg viewBox="0 0 48 48" xmlns="http://www.w3.org/2000/svg"><g fill="none" stroke="#000" stroke-linecap="round" stroke-linejoin="round"><path d="m40.5 5.5h-33a2 2 0 0 0 -2 2v33a2 2 0 0 0 2 2h33a2 2 0 0 0 2-2v-33a2 2 0 0 0 -2-2z"/><path d="m17.1749 21.1094a3.8413 3.8413 0 0 0 -4.0438-3.84 3.9893 3.9893 0 0 0 -3.6311 4.0576v3.5636a3.8416 3.8416 0 0 0 3.8375 3.8457 3.8416 3.8416 0 0 0 3.8374-3.8458h-3.8374"/><path d="m19.77 24.0038a2.8681 2.8681 0 0 1 2.8681-2.8681"/><path d="m19.7698 24.0038v4.7325"/><path d="m30.083 25.8682a2.8681 2.8681 0 0 1 -2.8681 2.8681 2.8682 2.8682 0 0 1 -2.8682-2.8681v-1.8644a2.8682 2.8682 0 0 1 2.8682-2.8681 2.8681 2.8681 0 0 1 2.8681 2.8681"/><path d="m30.083 28.7363v-7.6006"/><path d="m32.7637 24.0038a2.8681 2.8681 0 0 1 2.8681-2.8681 2.8681 2.8681 0 0 1 2.8682 2.8681v1.8644a2.8681 2.8681 0 0 1 -2.8681 2.8681 2.8681 2.8681 0 0 1 -2.8681-2.8681"/><path d="m32.7637 28.7363v-11.4726"/></g></svg>