<svg viewBox="0 0 48 48" xmlns="http://www.w3.org/2000/svg"><g fill="none" stroke="#000" stroke-linecap="round" stroke-linejoin="round"><path d="m13.27 17.86h8.56"/><path d="m13.27 21.86h7.42"/><path d="m13.27 25.86h5.74"/><g stroke-width=".87"><path d="m30.17 24.73a3.56 3.56 0 0 1 -2 6.83l-5.63-1.65 4-13.65 5.63 1.64a3.56 3.56 0 0 1 -2 6.83z"/><path d="m30.17 24.73-5.63-1.64"/><path d="m26.53 16.26-2-.58"/><path d="m22.55 29.91-2-.58"/><path d="m28.27 16.77.71-2.42"/><path d="m31.06 17.58.7-2.42"/><path d="m23.58 32.84.71-2.42"/><path d="m26.37 33.65.71-2.42"/></g><path d="m22.2 4.86-15.51 6.39v15.75c0 8.44 17.31 16.5 17.31 16.5s17.31-8.06 17.31-16.5v-15.75l-15.51-6.39a4.68 4.68 0 0 0 -3.6 0z"/></g></svg>