<svg viewBox="0 0 48 48" xmlns="http://www.w3.org/2000/svg"><g fill="none" stroke="#000" stroke-linecap="round" stroke-linejoin="round"><path d="m26.2349 26.6278c0 1.3017 1.6946 4.5435 4.5434 4.5435s6.2626-2.5542 6.2626-5.4522c0-2.1612-2.0138-2.48-3.0453-2.48-.4912-.0004-7.7607.2943-7.7607 3.3887z"/><path d="m24 43.5c-6.0907 0-13.2086-5.8961-13.5321-6.4591-4.347-7.5642-4.8379-29.692-4.8379-29.692l2.9519-2.8489a112.9162 112.9162 0 0 0 15.4181 1.4736 112.9162 112.9162 0 0 0 15.4181-1.4736l2.9519 2.8489s-.4912 22.1278-4.8382 29.692c-.3232.563-7.4411 6.4591-13.5318 6.4591z"/><path d="m21.7651 26.6278c0 1.3017-1.6946 4.5435-4.5434 4.5435s-6.2626-2.5542-6.2626-5.4522c0-2.1612 2.0138-2.48 3.0453-2.48.4912-.0004 7.7607.2943 7.7607 3.3887z"/></g></svg>