<svg viewBox="0 0 48 48" xmlns="http://www.w3.org/2000/svg"><g fill="none" stroke="#000" stroke-linecap="round" stroke-linejoin="round"><path d="m37.9064 18.76h-27.8128a3 3 0 0 0 -2.8556 3.92l3.1744 9.857a7 7 0 0 0 6.663 4.8542h13.8492a7 7 0 0 0 6.663-4.8542l3.1744-9.857a3 3 0 0 0 -2.8556-3.92z"/><path d="m17.8682 18.76v-2.0189a6.1318 6.1318 0 0 1 12.2636 0v2.0189"/><path d="m27.39 26.405a3.3935 3.3935 0 0 0 -3.5725-3.3927 3.5243 3.5243 0 0 0 -3.2075 3.5849v3.1482a3.3938 3.3938 0 0 0 3.39 3.3976 3.3938 3.3938 0 0 0 3.39-3.3976h-3.39"/></g></svg>