<svg viewBox="0 0 48 48" xmlns="http://www.w3.org/2000/svg"><g fill="none" stroke="#000" stroke-linecap="round" stroke-linejoin="round"><circle cx="42.75" cy="5.25" r="2.25"/><circle cx="24" cy="24" r="21.5"/><path d="m24.44 42.56c-11.59 0-17.07-9.31-17.07-11.72v-7.95a.63.63 0 0 1 .82-.61c2.61.83 10.81 3.3 15.89 3.3s13.28-2.47 15.92-3.3a.63.63 0 0 1 .82.61v8c-.03 2.36-4.82 11.67-16.38 11.67z"/><path d="m7.37 24a22.62 22.62 0 0 1 -4.11-5.08"/><path d="m7.37 30.31c-1.25-.9-4-4.89-4.71-6"/><path d="m40.79 24a22.62 22.62 0 0 0 4.11-5.08"/><path d="m40.79 30.31c1.25-.9 4-4.89 4.71-6"/></g></svg>