<svg viewBox="0 0 48 48" xmlns="http://www.w3.org/2000/svg"><g fill="none" stroke="#000" stroke-linecap="round" stroke-linejoin="round"><path d="m7.07 26.41h-.19v.19a16.93 16.93 0 0 0 16.94 16.9h.18v-.18a16.92 16.92 0 0 0 -16.93-16.91z"/><path d="m41 26.4a16.92 16.92 0 0 0 -16.9 16.92v.18h.18a16.92 16.92 0 0 0 16.9-16.93v-.17z"/><path d="m28.64 26a4 4 0 0 0 0-.49 4.4 4.4 0 0 0 1 .65 4.65 4.65 0 1 0 4-8.39l-.44-.2.44-.2a5.46 5.46 0 0 0 .59-.39 4.62 4.62 0 1 0 -5.59-7.36 4 4 0 0 0 0-.49 4.64 4.64 0 0 0 -9.27 0 4 4 0 0 0 0 .49 4.77 4.77 0 0 0 -1-.65 4.65 4.65 0 1 0 -4 8.4l.44.2-.44.2a5.36 5.36 0 0 0 -.59.38 4.62 4.62 0 1 0 5.59 7.36 4 4 0 0 0 0 .49 4.64 4.64 0 0 0 9.27 0zm-4.64-3.81a4.64 4.64 0 1 1 4.64-4.64 4.63 4.63 0 0 1 -4.64 4.64z"/></g></svg>