<svg viewBox="0 0 48 48" xmlns="http://www.w3.org/2000/svg"><g fill="none" stroke="#000" stroke-linecap="round" stroke-linejoin="round"><path d="m18.5688 18.3169v10.6031a3.5345 3.5345 0 0 1 -3.5344 3.5345 3.5231 3.5231 0 0 1 -2.4991-1.0352"/><rect height="9.3662" rx="3.5344" transform="matrix(-1 0 0 -1 30.0688 46)" width="7.0688" x="11.5" y="18.3169"/><path d="m21.3259 26.8929a3.9753 3.9753 0 0 0 2.9068.79h.7929a2.339 2.339 0 0 0 2.3365-2.3415 2.339 2.339 0 0 0 -2.3365-2.3414h-1.5856a2.339 2.339 0 0 1 -2.3365-2.3415 2.339 2.339 0 0 1 2.3365-2.3416h.793a3.9753 3.9753 0 0 1 2.9068.79"/><path d="m36.5 25.9029a3.5331 3.5331 0 0 1 -3.069 1.78 3.5344 3.5344 0 0 1 -3.5345-3.5344v-2.2972a3.5344 3.5344 0 0 1 3.5345-3.5344 3.5332 3.5332 0 0 1 3.0655 1.774"/><rect height="37" rx="2" width="37" x="5.5" y="5.5"/></g></svg>