<svg viewBox="0 0 48 48" xmlns="http://www.w3.org/2000/svg"><g fill="none" stroke="#000" stroke-linecap="round" stroke-linejoin="round"><path d="m39.83 20.47-1.65 1.4"/><path d="m8.53 20.57 1.65 1.4"/><path d="m14.56 15.47 1.12 1.85"/><path d="m24.1 12.98v2.16"/><path d="m24.46 31.4 9.23-16.2"/><path d="m43.5 27.4a4 4 0 0 1 -4 4h-31a4 4 0 0 1 -4-4"/><rect height="33.89" rx="4" width="39" x="4.5" y="7.11"/></g><circle cx="27.43" cy="34.74" r=".75"/><circle cx="30.39" cy="34.74" r=".75"/><circle cx="33.35" cy="34.74" r=".75"/><circle cx="36.31" cy="34.74" r=".75"/><circle cx="39.27" cy="34.74" r=".75"/><circle cx="27.43" cy="37.66" r=".75"/><circle cx="30.39" cy="37.66" r=".75"/><circle cx="33.35" cy="37.66" r=".75"/><circle cx="36.31" cy="37.66" r=".75"/><circle cx="39.27" cy="37.66" r=".75"/></svg>