<svg viewBox="0 0 48 48" xmlns="http://www.w3.org/2000/svg"><g fill="none" stroke="#000" stroke-linecap="round" stroke-linejoin="round"><path d="m11.6631 4.7141 12.1352 2.5894 12.1651-2.8035-.03 6.2792-11.7317 3.1571-12.3743-2.9131z"/><path d="m11.7428 15.231 2.35 7.6038 2.0218.04c.7071 3.1371.7618 3.7745 1.25 6.0253h1.6582c1.0208 3.6351 2.6093 7.28 3.64 10.5168h2.51c1.4939-3.8043 2.9579-7.3 4.4916-11.1641l1.5337-.04 1.5785-6.8369h1.6184l1.3345-6.2693-7.564.1245-.8067 6.1448h-1.6188l-.1693 6.8768h-3.1517l-.4034-6.7527h-1.9022l-.3634-6.274z"/><path d="m12.3105 34.8853 4.0483 8.2114 1.1752-2.1014 4.8949 2.5047-3.9637-8.047-1.0507 1.8176z"/><path d="m25.4964 43.3008 4.0036-7.7283.8914 2.0616 5.9456-2.3853-4.4917 7.5242-.8465-2.0217z"/><path d="m24.0025 39.2923v-10.9551"/></g></svg>