<svg viewBox="0 0 48 48" xmlns="http://www.w3.org/2000/svg"><path d="m13.1072 14.6639a23.9007 23.9007 0 0 0 2.4076 9.41c2.44 4.6049 5.8045 7.5629 8.58 8.7412a17.1405 17.1405 0 0 0 7.15-6.1747h-7.8729a11.8878 11.8878 0 0 1 -4.0078-7.7265h23.0959a34.4768 34.4768 0 0 1 -5.8578 12.9534 27.8006 27.8006 0 0 1 -12.49 9.1957h-.0728a28.2818 28.2818 0 0 1 -15.68-14.3647c-1.8873-3.7594-3.8594-10.5844-3.8594-19.7608h39a55.6259 55.6259 0 0 1 -.52 7.7264z" fill="none" stroke="#000" stroke-linecap="round" stroke-linejoin="round"/></svg>