<svg viewBox="0 0 48 48" xmlns="http://www.w3.org/2000/svg"><g fill="none" stroke="#000" stroke-linecap="round" stroke-linejoin="round"><path d="m7.5 5.5a2 2 0 0 0 -2 2v33a2 2 0 0 0 2 2h33a2 2 0 0 0 2-2v-33a2 2 0 0 0 -2-2z"/><path d="m13.574 32.172v7h3.5"/><path d="m30.4395 39.172h3.5"/><path d="m30.4395 32.172h3.5"/><path d="m30.4395 35.672h2.2819"/><path d="m30.4395 32.172v7"/><path d="m18.3414 11.1745a2.3438 2.3438 0 0 0 -2.4673-2.3432 2.4342 2.4342 0 0 0 -2.2155 2.476v2.1743a2.3439 2.3439 0 0 0 2.3414 2.3464 2.3439 2.3439 0 0 0 2.3414-2.3464h-2.3414"/><path d="m34.3414 22.8465a2.3438 2.3438 0 0 0 -2.4673-2.3432 2.4341 2.4341 0 0 0 -2.2155 2.4759v2.1743a2.344 2.344 0 0 0 2.3414 2.3465 2.344 2.344 0 0 0 2.3414-2.3465h-2.3414"/><path d="m13.6553 27.5v-7h2.2917a2.3509 2.3509 0 0 1 0 4.7018h-2.2917"/><path d="m15.947 25.2018 2.2914 2.2964"/><path d="m29.6553 8.828v4.6813a2.3188 2.3188 0 0 0 4.6375 0v-4.6813"/></g></svg>