<svg viewBox="0 0 48 48" xmlns="http://www.w3.org/2000/svg"><g fill="none" stroke="#000" stroke-linecap="round" stroke-linejoin="round"><path d="m21.4 42.49h4.17"/><path d="m21.4 34.15h4.17"/><path d="m21.4 38.32h2.71"/><path d="m21.4 34.15v8.34"/><path d="m7.5 34.15h4.17"/><path d="m7.5 38.32h2.71"/><path d="m7.5 34.15v8.34"/><path d="m34.98 34.15v8.34"/><path d="m40.5 34.15v8.34"/><path d="m34.98 38.32h5.52"/><path d="m27.34 41.55a2.49 2.49 0 0 0 2.09.94h1.25a2.08 2.08 0 0 0 2.08-2.08 2.09 2.09 0 0 0 -2.08-2.09h-1.36a2.09 2.09 0 0 1 -2.08-2.08 2.09 2.09 0 0 1 2.08-2.09h1.25a2.24 2.24 0 0 1 2.09.94"/><path d="m13.73 42.49v-8.34h2.71a2.82 2.82 0 0 1 0 5.63h-2.71"/><path d="m16.63 39.77 2.62 2.72"/><path d="m16.85 15.44a3 3 0 0 0 -3.09-3 3.12 3.12 0 0 0 -2.76 3.11v2.76a3 3 0 0 0 3 3 3 3 0 0 0 3-3h-3"/><path d="m29.47 19.08a2.22 2.22 0 0 1 -2.21 2.21 2.22 2.22 0 0 1 -2.2-2.21v-1.43a2.21 2.21 0 0 1 2.2-2.21 2.21 2.21 0 0 1 2.21 2.21"/><path d="m29.47 21.29v-5.85"/><path d="m36.26 21.29v-3.64a2.21 2.21 0 0 0 -2.2-2.21 2.21 2.21 0 0 0 -2.21 2.21v3.64"/><path d="m31.85 17.65v-2.21"/><ellipse cx="24" cy="18.36" rx="18.5" ry="12.85"/><path d="m21.23 21.29-2.31-5.85"/><path d="m33.22 7.22c-6-1.51-8.53 4.46-9.89 8.22l-2.76 7.94a1.3 1.3 0 0 1 -1.21.89h-.36"/></g></svg>