<svg viewBox="0 0 48 48" xmlns="http://www.w3.org/2000/svg"><g fill="none" stroke="#000" stroke-linecap="round" stroke-linejoin="round"><path d="m13.9 41.89c2.82 1 6-2.45 6-2.45a17.52 17.52 0 0 1 -.36-4.29c-.05-6.15 6.46-8.27 6.46-8.27-9.34 0-11.62-7.61-11.62-7.61s.47.37 2.78.37 2.74-1.38 2.74-1.38c-11.9.8-11.22-12.76-11.22-12.76a43.75 43.75 0 0 0 6.81 6.5c5.29 4.08 8.32 2.27 11.94 7.93 0 0 .5-3.57 0-4.12s-3.73-1.32-3.9-2.81h2.47c1 0 3.74-2.69 5.77-2.69s1.54.71 2.47.71 3.76-1.53 3.76 3.8c0 0-3-.33-3 1.38s4.8 1.2 4.8 7.8h-1.54a15.34 15.34 0 0 1 1.21 4.72c0 1.93-2.26 4.34-2.26 4.34v5.88c0 1.21.44 1.65 1.21 1.65a9.16 9.16 0 0 0 2.14-.27c.87-.24 2.71 2.18.55 2.18h-6.88c-.48 0-.81-.15-.81-.59s2-1.23 2-2.24-1.23-4.1-3.42-4.1-4.86 2.09-4.86 4.07c0 1.08.66 1.1 1.34 1.1s1.34-.48 2-.48 1.41 1.26 1.41 2.24h-12.89c-1.56 0-8.13.33-8.13-4.62s5.29-4 5.29-7.44a1.56 1.56 0 0 0 -1.45-1.75"/><path d="m11.77 24.44v-3.67h-3.1v6.1h1.6v1.82h4.45v-4.25z"/><path d="m5.88 17.9h2.79v2.88h-2.79z"/></g></svg>