<svg viewBox="0 0 48 48" xmlns="http://www.w3.org/2000/svg"><g fill="none" stroke="#000" stroke-linecap="round" stroke-linejoin="round"><path d="m7.45 5.5a2 2 0 0 0 -1.95 2v33.1a2 2 0 0 0 2 2h33.1a2 2 0 0 0 2-2v-33.15a2 2 0 0 0 -2-1.95z"/><path d="m12.59 30.12h5.94"/><path d="m12.59 18.24h5.94"/><path d="m12.59 24.18h3.87"/><path d="m12.59 18.24v11.88"/><path d="m35.41 27.73a3 3 0 0 1 -2.94 2.57 3 3 0 0 1 -3-3v-2a3 3 0 0 1 3-3 3 3 0 0 1 2.94 2.7"/><path d="m26.9 22.6h-3.78a1.88 1.88 0 0 0 -1.88 1.88 1.88 1.88 0 0 0 1.88 1.88h1.88a1.88 1.88 0 0 1 1.88 1.88 1.88 1.88 0 0 1 -1.88 1.88h-3.76"/></g></svg>