<svg viewBox="0 0 48 48" xmlns="http://www.w3.org/2000/svg"><g fill="none" stroke="#000" stroke-linecap="round" stroke-linejoin="round"><circle cx="24" cy="24" r="13.3" stroke-dasharray="1 2"/><path d="m19.4 38.63a16 16 0 0 0 4.56.69 15.34 15.34 0 0 0 10.86-26.19 17 17 0 0 0 -3.54-2.64l1.46-2.7a19.62 19.62 0 0 1 4.26 3.21 18.35 18.35 0 0 1 5.39 13h3.07a21.48 21.48 0 0 0 -21.46-21.53v3.07a20.07 20.07 0 0 1 5.47.82l-.95 2.94a16.39 16.39 0 0 0 -4.52-.69 15.34 15.34 0 0 0 -10.9 26.19 16.38 16.38 0 0 0 3.54 2.64l-1.46 2.71a19.74 19.74 0 0 1 -4.25-3.15 18.35 18.35 0 0 1 -5.39-13h-3.07a21.49 21.49 0 0 0 21.53 21.47v-3.07a20.14 20.14 0 0 1 -5.48-.83z"/><path d="m40.07 31.06.33 5.43-4.13 4-5.2-.49m10.22-13.77a17.89 17.89 0 0 1 -1.23 4.85 17.06 17.06 0 0 1 -9 9 17.86 17.86 0 0 1 -4.85 1.24"/><circle cx="24" cy="24" r="11.26"/></g></svg>