<svg viewBox="0 0 48 48" xmlns="http://www.w3.org/2000/svg"><g fill="none" stroke="#000" stroke-linecap="round" stroke-linejoin="round"><path d="m19.3589 20.75v6.5h3.283"/><path d="m24.7451 20.75v6.5"/><path d="m27.0322 20.75h3.283"/><path d="m27.0322 24h2.134"/><path d="m27.0322 20.75v6.5"/><path d="m6.5461 20.75v6.5"/><path d="m10.8961 20.75v6.5"/><path d="m6.5461 24h4.35"/><path d="m17.3313 27.25-2.134-6.5-2.216 6.5"/><path d="m13.72 25.0563h2.8726"/><path d="m34.96 27.25-2.1339-6.5-2.2161 6.5"/><path d="m31.3482 25.0563h2.8726"/><path d="m37.1039 20.75 4.35 6.5"/><path d="m41.4539 20.75-4.35 6.5"/><path d="m25.6216 18.6389h10.5084l7.37-7.3324h-13.7515l-5.7485 5.7191"/><path d="m11.87 18.6389-7.37-7.3324h13.7515l7.37 7.3324z"/><path d="m25.6216 29.3611h10.5084l7.37 7.3324h-13.7515l-5.7485-5.7191"/><path d="m11.87 29.3611-7.37 7.3324h13.7515l7.37-7.3324z"/></g></svg>