<svg viewBox="0 0 48 48" xmlns="http://www.w3.org/2000/svg"><g fill="none" stroke="#000" stroke-linecap="round" stroke-linejoin="round"><ellipse cx="24" cy="24" rx="21.8" ry="12.53" transform="matrix(.8660254 -.5 .5 .8660254 -8.78 15.22)"/><ellipse cx="24" cy="24" rx="15.28" ry="8.45" transform="matrix(.8660254 -.5 .5 .8660254 -8.78 15.22)"/><ellipse cx="24" cy="24" rx="8.56" ry="4.37" transform="matrix(.8660254 -.5 .5 .8660254 -8.78 15.22)"/><path d="m17.74 13.15 12.52 21.7"/><path d="m5.12 34.9 37.76-21.8"/></g><circle cx="33.36" cy="22.32" r=".75"/><circle cx="15.61" cy="36.36" r=".75"/><circle cx="25.12" cy="20.95" r=".75"/><circle cx="35.61" cy="11.05" r=".75"/><circle cx="39.48" cy="21.7" r=".75"/><circle cx="39.48" cy="24.47" r=".75"/><circle cx="7.23" cy="30.25" r=".75"/><circle cx="11.43" cy="20.95" r=".75"/></svg>