<svg viewBox="0 0 48 48" xmlns="http://www.w3.org/2000/svg"><path d="m4.5 14.8h39v24.5h-39z" fill="none" stroke="#000" stroke-linecap="round" stroke-linejoin="round"/><path d="m4.5 14.8 7.5-6.1h24.8l6.7 6.2" fill="none" stroke="#000" stroke-linecap="round" stroke-linejoin="round"/><circle cx="14.4" cy="18.2" fill="none" r="2" stroke="#000" stroke-linecap="round" stroke-linejoin="round"/><circle cx="8.2" cy="18.2" fill="none" r="1.6" stroke="#000" stroke-linecap="round" stroke-linejoin="round"/><circle cx="20.4" cy="18.2" fill="none" r="1.6" stroke="#000" stroke-linecap="round" stroke-linejoin="round"/><circle cx="11.7" cy="32.3" fill="none" r="2.8" stroke="#000" stroke-linecap="round" stroke-linejoin="round"/><path d="m11.7 32.4 1.7-1.8" fill="none" stroke="#000" stroke-linecap="round" stroke-linejoin="round"/><path d="m31.4 24.4h10.4v10.6h-10.4z" fill="none" stroke="#000" stroke-linecap="round" stroke-linejoin="round"/><path d="m20.1 25.7h9.2v8.2h-9.2z" fill="none" stroke="#000" stroke-linecap="round" stroke-linejoin="round"/><circle cx="22.7" cy="31" fill="none" r="1.1" stroke="#000" stroke-linecap="round" stroke-linejoin="round"/><circle cx="21.8" cy="27.8" r=".8"/><circle cx="24.7" cy="27.8" r=".8"/><circle cx="27.6" cy="27.8" r=".8"/><g fill="none" stroke="#000" stroke-linejoin="round"><path d="m23.5 14.8h20v5.8h-20z" stroke-linecap="round"/><path d="m26.6 18.7 1.4-1.3.8 1.5 1.3-2.1 1.2 2.8 1.2-1.5.6.6.5-.6h3.5l.7.5 1.4-2 .6 2.6" stroke-linecap="round"/><circle cx="11.9" cy="25.4" r=".8" stroke-linecap="round"/><path d="m12 26.2v1.8" stroke-linecap="round"/><circle cx="16.7" cy="25.4" r=".8" stroke-linecap="round"/><path d="m16.7 26.2v1.8" stroke-linecap="round"/><circle cx="7.4" cy="25.4" r=".8" stroke-linecap="round"/><path d="m7.4 26.2v1.8" stroke-linecap="round"/><path d="m31.7 25.3h1.1"/><path d="m31.7 27.5h1.1"/><path d="m31.7 29.7h1.1"/><path d="m31.7 32h1.1"/><path d="m31.7 34.2h1.1"/><path d="m32.8 26.4h1.1"/><path d="m32.8 28.6h1.1"/><path d="m32.8 30.8h1.1"/><path d="m32.8 33.1h1.1"/><path d="m33.9 25.3h1.1"/><path d="m33.9 27.5h1.1"/><path d="m33.9 29.7h1.1"/><path d="m33.9 32h1.1"/><path d="m33.9 34.2h1.1"/><path d="m35 26.4h1.1"/><path d="m35 28.6h1.1"/><path d="m35 30.8h1.1"/><path d="m35 33.1h1.1"/><path d="m36.1 25.3h1.1"/><path d="m36.1 27.5h1.1"/><path d="m36.1 29.7h1.1"/><path d="m36.1 32h1.1"/><path d="m36.1 34.2h1.1"/><path d="m37.3 26.4h1.1"/><path d="m37.3 28.6h1.1"/><path d="m37.3 30.8h1.1"/><path d="m37.3 33.1h1.1"/><path d="m38.4 34.2h1.1"/><path d="m38.4 32h1.1"/><path d="m38.4 29.7h1.1"/><path d="m38.4 27.5h1.1"/><path d="m38.4 25.3h1.1"/><path d="m39.5 26.4h1.1"/><path d="m39.5 28.6h1.1"/><path d="m39.5 30.8h1.1"/><path d="m39.5 33.1h1.1"/><path d="m40.6 25.3h1.1"/><path d="m40.6 27.5h1.1"/><path d="m40.6 29.7h1.1"/><path d="m40.6 32h1.1"/><path d="m40.6 34.2h1.1"/></g></svg>