<svg viewBox="0 0 48 48" xmlns="http://www.w3.org/2000/svg"><g fill="none" stroke="#000" stroke-linecap="round" stroke-linejoin="round"><path d="m22.88 18.2h-.88c-9 0-16.38 1.06-16.38 2.37s7.38 2.37 16.38 2.37 16.4-1.06 16.4-2.37-6.13-2.19-14.11-2.35"/><path d="m5.62 20.57c0 8.2 3.41 15.8 9.71 19.32v1.11s3.65.36 6.7.36"/><path d="m38.43 20.57c0 8.2-3.4 15.8-9.7 19.32v1.11s-3.65.36-6.7.36"/><path d="m14.47 39.37c-5.68.36-9.6 1.1-9.6 2 0 1.2 7.68 2.17 17.16 2.17s17.16-1 17.16-2.17c0-.86-3.92-1.6-9.6-2"/><path d="m37.89 26.15c2.42-1.49 5.24-1.38 5.24 1.11s-4.37 6.26-7.48 5.31"/><path d="m23.18 4.5c-2 1.15-4.93 3.85-4.93 6.37s5.08 3.6 5.08 5.9-3.64 4.15-3.64 4.15 6.12-2.52 6.12-5-5.67-3-5.67-6.27 3.04-5.15 3.04-5.15z"/></g></svg>