<svg viewBox="0 0 48 48" xmlns="http://www.w3.org/2000/svg"><path d="m38.68 10.36a3.6 3.6 0 0 0 -3.88-3.26l-7.33.64-.17-2a1.2 1.2 0 0 0 -1.29-1l-7.33.65a1.19 1.19 0 0 0 -1 1.28l.12 1.89-7.32.64a3.58 3.58 0 0 0 -3.28 3.88l2.13 24.37a3.57 3.57 0 0 0 3.88 3.25l.78-.06.17 2.06a1.2 1.2 0 0 0 1.3 1l4.12-.36a1.19 1.19 0 0 0 1.08-1.28l-.18-2 9.71-.85.17 2.06a1.19 1.19 0 0 0 1.3 1.08l4.11-.35a1.2 1.2 0 0 0 1.09-1.3l-.18-2 .78-.08a3.59 3.59 0 0 0 3.26-3.88zm-8.37 2.43a4.52 4.52 0 0 1 4.9 4.1c.36 4.12-2 .8-4.45 1s-4.2 3.86-4.56-.22a4.52 4.52 0 0 1 4.08-4.92zm-14.41 1.26a4.53 4.53 0 0 1 4.9 4.12c.35 4.11-2 .79-4.45 1s-4.2 3.86-4.55-.23a4.5 4.5 0 0 1 4-4.92h.05zm18.19 17.3a2.89 2.89 0 0 1 -2.61 3.09l-6.48.56-6.51.57a2.85 2.85 0 0 1 -3.11-2.57l-.72-8a.62.62 0 0 1 .54-.69.63.63 0 0 1 .38.09c2.34 1.32 5.15 4.74 8.84 4.42s5.88-4.19 7.94-5.9a.64.64 0 0 1 .89.11.69.69 0 0 1 .14.34z" fill="none" stroke="#000" stroke-linecap="round" stroke-linejoin="round"/></svg>