<svg viewBox="0 0 48 48" xmlns="http://www.w3.org/2000/svg"><g fill="none" stroke="#000" stroke-linecap="round" stroke-linejoin="round"><path d="m21.014 26.597v-5.2l2.603 5.206 2.603-5.198v5.198"/><path d="m15.6671 26.6028v-5.2055h1.7042a1.7482 1.7482 0 0 1 0 3.4964h-1.7042"/><path d="m17.3713 24.8937 1.7041 1.7078"/><path d="m33.648 26.603v-5.206l3.448 5.206v-5.206"/><path d="m5.5 21.3973v5.2055"/><path d="m8.9487 21.3973v5.2055"/><path d="m5.5 23.9902h3.4487"/><path d="m42.5 21.397-1.724 2.603-1.725-2.603"/><path d="m40.7757 26.6028v-2.6028"/><path d="m28.2 24.8784a1.7243 1.7243 0 1 0 3.4486 0v-1.7568a1.7243 1.7243 0 0 0 -3.4486 0z"/><path d="m10.7183 26.5873 1.7276-5.1901"/><path d="m14.1019 26.6028-1.656-5.2056"/><path d="m13.548 24.8614h-2.2552"/><circle cx="24" cy="24" r="21.5"/></g></svg>