<svg viewBox="0 0 48 48" xmlns="http://www.w3.org/2000/svg"><g fill="none" stroke="#000" stroke-linecap="round" stroke-linejoin="round"><path d="m24 43.5c9.0432-3.1174 15.4885-10.3631 16.5-19.5889a79.36 79.36 0 0 0 -.0714-12.0267 2.5414 2.5414 0 0 0 -2.4677-2.3663c-4.0911-.126-8.8455-.8077-12.52-4.4273a2.0516 2.0516 0 0 0 -2.881 0c-3.6749 3.6192-8.4293 4.3013-12.5199 4.4273a2.5414 2.5414 0 0 0 -2.4677 2.3663 79.36 79.36 0 0 0 -.0723 12.0267c1.0115 9.2258 7.4568 16.4715 16.5 19.5889z"/><path d="m33.372 18.156-9.372-5.674-9.372 5.674v13.86h18.744z"/><path d="m14.6282 18.1562-2.5347 1.6023"/><path d="m33.3718 18.1562 2.5347 1.6023"/><path d="m22.3024 26.0165h3.3952v5.9998h-3.3952z"/></g></svg>