<svg enable-background="new 0 0 48 48" viewBox="0 0 48 48" xmlns="http://www.w3.org/2000/svg"><g fill="none" stroke="#000" stroke-linecap="round" stroke-linejoin="round"><path d="m38.5 26.7-5.8 7.7"/><path d="m38.5 34.4-5.8-7.7"/><path d="m9.5 34.4v-4.6c0-1.6 1.3-2.9 2.9-2.9 1.6 0 2.9 1.3 2.9 2.9v4.6"/><path d="m15.3 29.8c0-1.6 1.3-2.9 2.9-2.9 1.6 0 2.9 1.3 2.9 2.9v4.6"/><path d="m29.7 31.5c0 1.6-1.3 2.9-2.9 2.9-1.6 0-2.9-1.3-2.9-2.9v-1.9c0-1.6 1.3-2.9 2.9-2.9 1.6 0 2.9 1.3 2.9 2.9"/><path d="m29.7 34.4v-7.7"/><path d="m11.3 13.6v10.5"/><path d="m18.3 13.6v10.5"/><path d="m11.3 18.8h7"/><path d="m30.9 20.6c0 1.9 1.6 3.5 3.5 3.4 1.9 0 3.4-1.5 3.4-3.4v-3.5c0-1.9-1.6-3.5-3.5-3.4-1.9 0-3.4 1.5-3.4 3.4z"/><path d="m25.6 18.8c1.4 0 2.6 1.2 2.6 2.6s-1.2 2.6-2.6 2.6h-4.3v-10.4h4.3c1.4 0 2.6 1.2 2.6 2.6s-1.1 2.6-2.6 2.6z"/><path d="m25.6 18.8h-4.3"/><path d="m34.4 20.1v-2.6"/><path d="m5.5 19.6v20.9c0 1.1.9 2 2 2h33c1.1 0 2-.9 2-2v-33c0-1.1-.9-2-2-2h-33c-1.1 0-2 .9-2 2z"/></g></svg>