<svg viewBox="0 0 48 48" xmlns="http://www.w3.org/2000/svg"><g fill="none" stroke="#000" stroke-linecap="round" stroke-linejoin="round"><path d="m43.5 37.6v-27.2a2 2 0 0 0 -2-2h-35a2 2 0 0 0 -2 2v27.2a2 2 0 0 0 2 2h35a2 2 0 0 0 2-2z"/><path d="m17.0044 34.0424a2.0059 2.0059 0 0 1 -2-2v-1.3a2.0059 2.0059 0 0 1 2-2 2.0058 2.0058 0 0 1 2 2v1.3a2.0059 2.0059 0 0 1 -2 2z"/><path d="m8.0333 13.9576v8"/><path d="m8.0333 18.6576a2.0058 2.0058 0 0 1 2-2 2.0059 2.0059 0 0 1 2 2v3.3"/><path d="m35.9667 13.9576v8"/><path d="m35.9667 18.6576a2.0059 2.0059 0 0 1 2-2 2.0059 2.0059 0 0 1 2 2v3.3"/><path d="m34.4703 26.0424v8"/><path d="m34.47 30.7424a2.0058 2.0058 0 0 1 2-2 2.0059 2.0059 0 0 1 2 2v3.3"/><path d="m32.3183 14.9576v7"/><path d="m31.2183 16.6576h2.1"/><path d="m18.3841 20.9576a1.9357 1.9357 0 0 1 -1.7 1 2.0059 2.0059 0 0 1 -2-2v-1.3a2.0059 2.0059 0 0 1 2-2 2.0059 2.0059 0 0 1 2 2v.7h-4"/><path d="m28.3278 13.9576v7a.9448.9448 0 0 0 1 1h.3"/><path d="m12.3658 33.0424a1.9355 1.9355 0 0 1 -1.7 1 2.0059 2.0059 0 0 1 -2-2v-1.3a2.0059 2.0059 0 0 1 2-2 1.9355 1.9355 0 0 1 1.7 1"/><path d="m31.8317 33.0424a1.9357 1.9357 0 0 1 -1.7 1 2.0059 2.0059 0 0 1 -2-2v-1.3a2.0058 2.0058 0 0 1 2-2 1.9357 1.9357 0 0 1 1.7 1"/><path d="m25.3349 19.9576a2.0059 2.0059 0 0 1 -2 2 2.0059 2.0059 0 0 1 -2-2v-1.3a2.0059 2.0059 0 0 1 2-2 2.0059 2.0059 0 0 1 2 2"/><path d="m25.3349 21.9576v-5.3"/><path d="m25.493 32.0424a2.0059 2.0059 0 0 1 -2 2 2.006 2.006 0 0 1 -2-2v-1.3a2.0059 2.0059 0 0 1 2-2 2.0058 2.0058 0 0 1 2 2"/><path d="m25.493 34.0424v-5.3"/></g></svg>