<svg viewBox="0 0 48 48" xmlns="http://www.w3.org/2000/svg"><g fill="none" stroke="#000" stroke-linecap="round" stroke-linejoin="round"><path d="m12.1932 16.1987a14.1586 14.1586 0 0 0 .0736 15.7126"/><path d="m31.8013 12.1932a14.158 14.158 0 0 0 -15.8144.1431"/><path d="m35.8068 31.8013a14.158 14.158 0 0 0 -.1431-15.8144"/><path d="m16.1987 35.8067a14.1584 14.1584 0 0 0 15.7126-.0735"/><path d="m24 2.5-5.3231 8.3857"/><path d="m24 2.5 4.7179 8.1559"/><path d="m24 2.5v7.3502"/><path d="m10.656 10.656 5.33 1.679.417 4.068-4.213-.206z"/><path d="m10.6559 10.6559 5.747 5.747"/><path d="m37.344 10.656-1.679 5.33-4.068.417.206-4.213z"/><path d="m37.3441 10.6559-5.747 5.747"/><path d="m37.344 37.344-5.33-1.679-.417-4.068 4.213.206z"/><path d="m37.3441 37.3441-5.747-5.747"/><path d="m10.656 37.344 1.679-5.33 4.068-.417-.206 4.213z"/><path d="m10.6559 37.3441 5.747-5.747"/><path d="m45.5 24-8.3857-5.3231"/><path d="m45.5 24-8.1559 4.7179"/><path d="m45.5 24h-7.3502"/><path d="m24 45.5 5.3231-8.3857"/><path d="m24 45.5-4.7179-8.1559"/><path d="m24 45.5v-7.3502"/><path d="m2.5 24 8.3857 5.3231"/><path d="m2.5 24 1-.578 7.156-4.14"/><path d="m2.5 24h7.3502"/><circle cx="24" cy="24" r="10.7377"/><path d="m23.3494 23.4611c.4912.6378.3636 2.2322-1.4647 2.1047s-2.6786-2.2817-2.6786-3.5325a4.694 4.694 0 0 1 4.7833-4.0995c3.4439-.1275 4.8045 3.89 4.8045 6.1226s-2.7 6.4627-8.8225 5.9737"/><path d="m24.6411 44.49a20.5008 20.5008 0 0 0 19.8508-19.9067"/><path d="m3.51 24.6411a20.5007 20.5007 0 0 0 19.9118 19.8509"/><path d="m23.3588 3.51a20.5008 20.5008 0 0 0 -19.8508 19.9118"/><path d="m44.49 23.3655a20.5008 20.5008 0 0 0 -19.9067-19.8574"/></g></svg>