<svg viewBox="0 0 48 48" xmlns="http://www.w3.org/2000/svg"><g fill="none" stroke="#000" stroke-linecap="round" stroke-linejoin="round"><path d="m5.5 19.1732 3.3636 3.3636h11.7728v2.5232l-5.4659 3.3636-5.466-2.5227-.8409-3.3637"/><path d="m42.5 19.1732-3.3636 3.3636h-11.7728v2.5232l5.34 3.3636 5.5921-2.5227.8409-3.3637"/><path d="m32.83 28.4232v10.9318"/><path d="m15.1705 28.4232v10.9318"/><path d="m19.7955 41.8777.8409-2.5227h6.7272l.8409 2.5227"/><path d="m9.7045 8.2414 9.25 5.0454 1.6819 9.25"/><path d="m38.2955 8.2414-9.25 5.0454-1.6819 9.25"/><path d="m18.9545 13.2868 5.0455 2.5232 5.0455-2.5228"/><path d="m6.7614 10.7641 9.25 4.625"/><path d="m20.6364 25.06v10.9314h6.7272v-10.9314"/><path d="m19.7955 6.98 4.2045 2.9432 4.2045-2.9432a10.733 10.733 0 0 0 -8.409 0z"/><path d="m7.1818 14.5482 9.25 4.625"/><path d="m41.2386 10.7641-9.25 4.625"/><path d="m40.8182 14.5482-9.25 4.625"/></g></svg>