<svg viewBox="0 0 48 48" xmlns="http://www.w3.org/2000/svg"><g fill="none" stroke="#000"><circle cx="24" cy="24" r="21.5" stroke-linecap="round" stroke-linejoin="round"/><path d="m44.1 31.6a21.48 21.48 0 0 0 -38.5 3.5" stroke-linecap="round" stroke-linejoin="round"/><path d="m13.5 42.8c-.5-2.3-.2-3.8 1.7-5.2a3.67 3.67 0 0 0 1.3-1.8 2.1 2.1 0 0 1 1.3-1.3 6.38 6.38 0 0 1 4.2-.5c1.5.6 2.2 1.8 3.4 2.3a3.08 3.08 0 0 0 2.3.1c2.1-1 3.4.2 4.2 1.6a36.53 36.53 0 0 0 3.1 4.3"/><path d="m29.7 36.1c-.1-1.8.5-2.5-1.1-2.5-.7 0-1.7 0-2-.5-.4-1-.8-1-1.5-1.2a3.31 3.31 0 0 0 -1.9-.3c-.3.1.3 1.6-.5 1.5-.4-.1-.9-1.8-1.6-2.3a2.32 2.32 0 0 0 -2.5.4c-1.4 1.3-2.3 1.6-3.2 1.1-.6-.3-.3-2.1.1-2.4.9-.6 1.3 0 2-1 .2-.3-.3-1 .2-1.9s2.5 0 3.3-1.1 2.8-2.7 4.4-1.6a4.37 4.37 0 0 0 1 .6c.3.2.6-.6 1-1s.6-.3 1.3-.3a17.39 17.39 0 0 0 3.4-1.3"/><g stroke-linecap="round" stroke-linejoin="round"><path d="m28.3 13.3-1.8 1-1 1.8-1-1.8-1.8-1 1.8-1 1-1.8 1 1.8z"/><path d="m18.7 9.9-1.3.7-.7 1.3-.7-1.3-1.3-.7 1.3-.7.7-1.2.7 1.3z"/><path d="m37.4 16.1-1 .5-.5 1-.5-1-1-.5 1-.5.5-1 .5 1z"/><path d="m10.3 19.7-1 .5-.5 1-.5-1-1-.5 1-.5.5-1 .5 1z"/></g></g></svg>