<svg viewBox="0 0 48 48" xmlns="http://www.w3.org/2000/svg"><g fill="none" stroke="#000" stroke-linecap="round" stroke-linejoin="round"><path d="m34.303 32.6135a2.7581 2.7581 0 0 1 2.6866-2.79 2.7765 2.7765 0 0 1 1.9633 4.7532c-1.1366.93-4.65 3.6166-4.65 3.6166h5.4771"/><circle cx="24.037" cy="26.2952" r="8.1261"/><path d="m8.4022 11.6235h6.1709l3.9369-4.551h11.499l3.3444 4.551h6.2449a2.8959 2.8959 0 0 1 2.9017 2.9022v23.5a2.8959 2.8959 0 0 1 -2.9022 2.9022h-31.1956a2.8959 2.8959 0 0 1 -2.9022-2.9026v-23.5a2.8959 2.8959 0 0 1 2.9022-2.9018z"/></g></svg>