<svg viewBox="0 0 48 48" xmlns="http://www.w3.org/2000/svg"><g fill="none" stroke="#000" stroke-linecap="round" stroke-linejoin="round"><path d="m40.5 5.5h-33a2 2 0 0 0 -2 2v33a2 2 0 0 0 2 2h33a2 2 0 0 0 2-2v-33a2 2 0 0 0 -2-2z"/><path d="m11.65 19.3187v10.3626"/><path d="m18.1687 19v11"/><path d="m10.8812 24.5h7.2875"/><path d="m21.8812 30h5.5"/><path d="m21.8812 19h5.5"/><path d="m21.8812 22.7812h3.575"/><path d="m21.8812 26.2188h3.575"/><path d="m21.8812 19v11"/><path d="m30.1312 30v-11h3.575a3.7125 3.7125 0 1 1 0 7.425h-3.575"/><path d="m33.9696 26.4134 3.4492 3.5866"/></g></svg>