<svg viewBox="0 0 48 48" xmlns="http://www.w3.org/2000/svg"><g fill="none" stroke="#000" stroke-linecap="round" stroke-linejoin="round"><path d="m7.29 26.28 10.39 10.39"/><path d="m13.4 32.39a3.67 3.67 0 0 1 0-5.2 3.68 3.68 0 0 1 5.19 0l4.29 4.29"/><path d="m29.35 16.43a3.68 3.68 0 0 1 0-5.19"/><path d="m26.75 13.84 6.88 6.88"/><path d="m29.23 22.5a3.66 3.66 0 0 1 -.94 3.57 3.69 3.69 0 0 1 -5.2 0l-1.68-1.69a3.67 3.67 0 0 1 0-5.2 3.68 3.68 0 0 1 5.19 0l.84.85-5.19 5.19"/><path d="m41.84 9.89a3.68 3.68 0 0 1 -.94 3.57 3.69 3.69 0 0 1 -5.2 0l-1.7-1.69a3.68 3.68 0 0 1 0-5.19 3.67 3.67 0 0 1 5.2 0l.84.84-5.19 5.19"/><path d="m6.03 36.67h11.65l-5.82 5.83z"/></g></svg>