<svg viewBox="0 0 48 48" xmlns="http://www.w3.org/2000/svg"><g fill="none" stroke="#000" stroke-linecap="round" stroke-linejoin="round"><path d="m10.3648 35.1252a2.3215 2.3215 0 0 1 -1.6413-3.9628l17.6079-17.6075a2.3212 2.3212 0 0 1 3.2827 3.2827l-17.608 17.6075a2.3129 2.3129 0 0 1 -1.6413.6801z"/><path d="m23.5707 35.1252a2.3215 2.3215 0 0 1 -1.6414-3.9628l17.608-17.6075a2.3212 2.3212 0 1 1 3.2827 3.2827l-17.608 17.6075a2.3133 2.3133 0 0 1 -1.6413.6801z"/><path d="m6.8215 25.4622a2.3212 2.3212 0 0 1 -1.6415-3.9622l7.9454-7.9446a2.3212 2.3212 0 1 1 3.2826 3.2827l-7.9452 7.944a2.3131 2.3131 0 0 1 -1.6413.6801z"/><path d="m8.1128 32.2406 2.3688-9.4771"/><path d="m17.019 15.7594-2.369 9.4771"/><path d="m21.3186 32.2406 2.3694-9.4771"/><path d="m30.2248 15.7594-2.3694 9.4771"/></g></svg>