<svg viewBox="0 0 48 48" xmlns="http://www.w3.org/2000/svg"><path d="m5.38 31.6a10.13 10.13 0 0 0 -1.45.12 21.5 21.5 0 0 0 12 12.21 10.75 10.75 0 0 0 .15-1.8 10.53 10.53 0 0 0 -10.53-10.53zm0-5.31a15.3 15.3 0 0 0 -2.78.26 21.5 21.5 0 0 0 18.48 18.75 16 16 0 0 0 .32-3.17 15.84 15.84 0 0 0 -15.85-15.84h-.12zm.12-5.17a21.33 21.33 0 0 0 -2.88.2 21.79 21.79 0 0 0 -.12 2.68 21.51 21.51 0 0 0 21.5 21.5 22.19 22.19 0 0 0 2.31-.12 20.84 20.84 0 0 0 .26-3.25 21 21 0 0 0 -21-21zm16.68 7.43v.8a21 21 0 0 1 1.82 2.71h1.74v-3.51zm6.39 0v3.51h3.51v-3.51zm-12.64-6.41v1.72a21.7 21.7 0 0 1 2.66 1.79h.85v-3.51zm6.3 0v3.51h3.51v-3.51zm6.39 0v3.51h3.51v-3.51zm0-6.21h3.51v3.51h-3.51zm-6.39 0h3.51v3.51h-3.51zm-6.3 0h3.51v3.51h-3.51zm29.57 8.07a21.5 21.5 0 1 1 -21.5-21.5 21.51 21.51 0 0 1 21.5 21.5z" fill="none" stroke="#000" stroke-linecap="round" stroke-linejoin="round"/></svg>