<svg viewBox="0 0 48 48" xmlns="http://www.w3.org/2000/svg"><g fill="none" stroke="#000" stroke-linecap="round" stroke-linejoin="round"><path d="m42.87 16.87-11.74-11.74a4 4 0 0 0 -3.87-1l-16 4.3a4 4 0 0 0 -2.86 2.79l-4.3 16a4 4 0 0 0 1 3.87l11.77 11.78a4 4 0 0 0 3.87 1l16-4.3a4 4 0 0 0 2.82-2.82l4.3-16a4 4 0 0 0 -.99-3.88z"/><path d="m21.31 29.77h5.77"/><path d="m21.31 18.23h5.77"/><path d="m21.31 24h3.77"/><path d="m21.31 18.23v11.54"/><path d="m29.85 18.23 7.65 11.54"/><path d="m37.5 18.23-7.65 11.54"/><path d="m10.5 18.23v11.54"/><path d="m18.15 18.23v11.54"/><path d="m10.5 23.98h7.65"/></g></svg>