<svg viewBox="0 0 48 48" xmlns="http://www.w3.org/2000/svg"><g fill="none" stroke="#000" stroke-linecap="round" stroke-linejoin="round"><path d="m39.18 21.2519v-5.7519h-9a2 2 0 0 1 -2-2v-9h-18a2 2 0 0 0 -2 2v35a2 2 0 0 0 2 2h27a2 2 0 0 0 2-2v-9.7166"/><path d="m28.1799 4.5 11 11"/><path d="m44.5861 18.0282a2.8444 2.8444 0 0 0 -3.9051.8665l-9.1155 14.3145-.6528 6.2908 5.4243-3.2523 9.1156-14.3145a3.0885 3.0885 0 0 0 -.8665-3.905z"/><path d="m31.5655 33.2092 4.7715 3.0385"/><path d="m11.9799 39.4h3.4"/><path d="m11.9799 32.6h3.4"/><path d="m11.9799 36h2.2168"/><path d="m11.9799 32.6v6.8"/><path d="m17.5799 39.4h3.4"/><path d="m17.5799 32.6h3.4"/><path d="m17.5799 36h2.2168"/><path d="m17.5799 32.6v6.8"/><path d="m26.1799 32.6h3.4"/><path d="m26.1799 36h2.2168"/><path d="m26.1799 32.6v6.8"/><path d="m26.1799 8.5401h2"/><path d="m26.1799 11.9401h2"/><path d="m26.1799 8.5401v6.8"/><path d="m11.6799 15.2798 2.0424-6.7798"/><path d="m15.6799 15.3-1.9576-6.8"/><path d="m15.0251 13.0253h-2.666"/><path d="m17.2799 15.3199 2.0424-6.7798"/><path d="m21.2799 15.3401-1.9576-6.8"/><path d="m20.6251 13.0654h-2.666"/><path d="m32.5011 27.3298 2.0423-6.7798"/><path d="m36.1261 26.0475-1.5827-5.4975"/><path d="m35.8462 25.0753h-2.666"/><path d="m11.9799 27.3399h3.4"/><path d="m11.9799 21.4655 1.7-.9256"/><path d="m13.6799 20.5399v6.8"/><circle cx="19.8324" cy="25.0874" r="2.2525"/><path d="m21.8859 21.3692a2.2 2.2 0 0 0 -1.8953-.8293h-.1582a2.2525 2.2525 0 0 0 -2.2524 2.2525v2.295"/><path d="m26.18 22.7924a2.2525 2.2525 0 1 1 4.505 0 2.1016 2.1016 0 0 1 -.66 1.5928c-.9112.8-3.8453 2.9547-3.8453 2.9547h4.505"/></g></svg>