<svg viewBox="0 0 48 48" xmlns="http://www.w3.org/2000/svg"><path d="m9.54 38.25 5.11-2.06a15.6826 15.6826 0 0 0 3.46 2l.77 5.43a1 1 0 0 0 1 .86h8.2a1 1 0 0 0 1-.86l.77-5.43a15.3623 15.3623 0 0 0 3.46-2l5.11 2.06a1 1 0 0 0 1.25-.44l4.1-7.11a1 1 0 0 0 -.25-1.31l-4.29-3.39a16.516 16.516 0 0 0 .14-2 16.516 16.516 0 0 0 -.14-2l4.33-3.39m-5.1-8.86-5.11 2.06a15.6787 15.6787 0 0 0 -3.46-2l-.77-5.43a1 1 0 0 0 -1-.86h-8.22a1 1 0 0 0 -1 .86l-.77 5.43a15.3585 15.3585 0 0 0 -3.46 2l-5.13-2.06a1 1 0 0 0 -1.25.44l-4.1 7.11a1 1 0 0 0 .25 1.31l4.32 3.39a16.659 16.659 0 0 0 -.14 2 16.516 16.516 0 0 0 .14 2l-4.32 3.39m19.56 1.79a7.18 7.18 0 1 1 7.17-7.19v.01a7.17 7.17 0 0 1 -7.16 7.18z" fill="none" stroke="#000" stroke-linecap="round" stroke-linejoin="round"/></svg>