<svg viewBox="0 0 48 48" xmlns="http://www.w3.org/2000/svg"><g fill="none" stroke="#000" stroke-linecap="round" stroke-linejoin="round"><path d="m15.58 21.6278-2.5211-2.44a2.4945 2.4945 0 1 0 -3.5444 3.511l.3377.3317m.0018 4.9905a15.13 15.13 0 0 0 -1.0984 5.6316v7.2482a1.6016 1.6016 0 0 0 1.6044 1.5992h27.307a1.6014 1.6014 0 0 0 1.5648-1.5994v-7.248a15.1032 15.1032 0 0 0 -1.0618-5.6117m-.4594-4.5761.8087-.7974a2.4917 2.4917 0 1 0 -3.5366-3.511l-2.5418 2.6453"/><path d="m5.5 25.6628h37s-19.205-10.502-37 0z"/><path d="m13.0191 16.2768h21.9609l-3.4414-10.7768-10.3535 1.6047-5.0031-1.1947z"/><path d="m22.1881 32.3868a2.53 2.53 0 0 1 3.625 0"/><circle cx="17.5361" cy="32.3868" r="4.6515"/><circle cx="30.4641" cy="32.3868" r="4.6515"/></g></svg>