<svg viewBox="0 0 48 48" xmlns="http://www.w3.org/2000/svg"><g fill="none" stroke="#000" stroke-linecap="round" stroke-linejoin="round"><path d="m27.89 26a1.94 1.94 0 0 0 -1.89 1.89v12.66a1.94 1.94 0 0 0 1.94 2h12.61a2 2 0 0 0 2-2v-12.66a1.94 1.94 0 0 0 -2-1.94z"/><path d="m7.45 5.5a2 2 0 0 0 -1.95 2v12.61a1.94 1.94 0 0 0 2 1.94h12.61a1.94 1.94 0 0 0 1.94-1.94v-12.66a1.94 1.94 0 0 0 -1.94-1.95z"/><rect height="16.55" rx="2.92" width="16.55" x="25.95" y="5.5"/><rect height="16.55" rx="1.95" width="16.55" x="5.5" y="25.95"/><path d="m28.87 31.3h10.71"/><path d="m28.87 37.14h10.71"/><path d="m8.06 14.22h1.91l1.57 4.27 2.13-9.42h5.82"/><path d="m29.29 9.07h9.87"/><path d="m30.26 18.49c2.15-3.76 1.84-5.75 1.84-9.42"/><path d="m36.49 9.07v9.42"/><path d="m15.3 38.51h4.29"/><path d="m15.3 31.1 2.15-1.17"/><path d="m17.45 29.93v8.58"/><path d="m7.96 34.22h4.29"/></g></svg>