<svg viewBox="0 0 48 48" xmlns="http://www.w3.org/2000/svg"><g fill="none" stroke="#000" stroke-linecap="round" stroke-linejoin="round"><path d="m40.5 5.5h-33a2 2 0 0 0 -2 2v33a2 2 0 0 0 2 2h33a2 2 0 0 0 2-2v-33a2 2 0 0 0 -2-2z"/><path d="m42.5 23.2056-26.2757 19.2944"/><path d="m5.5 33.6755 10.7243 8.8245"/><path d="m5.7103 14.9626 29.1797-1.532"/><path d="m38.8505 5.5-16.0754 32.1897"/><path d="m34.89 13.4306 7.61 9.775"/><path d="m24.8926 36.1349 17.6074 1.9528"/><path d="m15.0475 14.4724 6.4292 24.1707"/><path d="m5.5 28.755 9.5475-14.2826"/><path d="m6.4973 5.7789 8.5502 8.6935"/><path d="m31.7919 19.6343c1.675-3.3541-1.1844-5.8478-3.6811-5.8478s-5.41 1.5967-5.41 3.6154c-.8411-1.9907-1.7053-3.2418-3.8435-3.13-3.1615.166-2.6877 4.4189-2.0531 6.8048"/></g></svg>