<svg viewBox="0 0 48 48" xmlns="http://www.w3.org/2000/svg"><g fill="none" stroke="#000" stroke-linecap="round" stroke-linejoin="round"><path d="m23.8119 35.8391v6.1349c19.8155-4.5265 21.6349-23.47 15.7248-29.1234.3554-2.3869.98-5.5362.282-6.0644s-3.8607 1.1365-5.9234 1.6219c-5.8271-2.2887-11.9424-4.075-20.4494.2821-2.0925-.6835-5.0732-3.01-6.0292-2.1155s.1868 4.6541.282 6.9812c-8.5344 18.9941 10.1147 21.7977 16.1135 22.2831z"/><path d="m16.7956 15.706c4.7519-.2175 9.7558-.0572 14.174-.7756"/><path d="m22.4371 11.7578c-.4366 6.0048-.4993 13.538 1.0225 16.29"/><path d="m27.9026 18.421c-1.4681 3.8634-3.5558 8.3122-8.25 9.59-2.92.7951-4.3025-3.6226.2352-6.8214 3.1629-2.23 8.1466-2.2 10.6948-.336 5.44 3.98-.342 7.861-5.2535 8.8851"/></g></svg>