<svg viewBox="0 0 48 48" xmlns="http://www.w3.org/2000/svg"><g fill="none" stroke="#000" stroke-linecap="round" stroke-linejoin="round"><path d="m24 27.277-4.7285-3.608a1.1573 1.1573 0 0 0 -1.4194.012l-3.6876 2.9137a1.1572 1.1572 0 0 1 -1.5884-.146l-1.6092-1.8387a.5786.5786 0 0 0 -1.0077.4667l2.61 17.4378a1.1572 1.1572 0 0 0 1.1445.9859h10.2863"/><path d="m24 27.277 4.7285-3.608a1.1573 1.1573 0 0 1 1.4194.012l3.6876 2.9137a1.1572 1.1572 0 0 0 1.5884-.146l1.6092-1.8387a.5786.5786 0 0 1 1.0077.4667l-2.61 17.4378a1.1572 1.1572 0 0 1 -1.1445.9859h-10.2863"/><path d="m12.3924 26.2388v-16.807a4.9317 4.9317 0 0 1 4.9318-4.9318 4.9318 4.9318 0 0 1 4.9318 4.9318v16.5145"/><path d="m17.3242 12.287 4.9318-2.5308"/><path d="m17.3242 17.8353 4.9318-2.5308"/><path d="m35.8 26.02c.7976-3.22-.8625-4.7125 0-9.45l-1.279-3.1148-2.077 1.3626-.844-2.5957-2.79.9734c-.5191 3.4393-4.7215 4.769-4.81 9.2146a7.7864 7.7864 0 0 0 .9548 4.1384"/><path d="m28.81 13.1955c.5192-2.5957 2.6606-6.4892 6.619-4.2829s.37 7.6573.37 7.6573"/><path d="m36.1509 6.5765a2.5622 2.5622 0 0 0 -1.394 2.0117"/></g></svg>