<svg viewBox="0 0 48 48" xmlns="http://www.w3.org/2000/svg"><g fill="none" stroke="#000" stroke-linecap="round" stroke-linejoin="round"><path d="m43.3021 33.4637a21.5132 21.5132 0 1 0 -9.8385 9.8383 2.002 2.002 0 0 1 1.3173-.1693l7.6591 1.6915a2 2 0 0 0 2.3842-2.3842l-1.6914-7.659a2.002 2.002 0 0 1 .1693-1.3173z"/><path d="m31.3917 19.3791-6.6695-5.6156a1.1215 1.1215 0 0 0 -1.4444 0l-6.6695 5.6156a1.6817 1.6817 0 0 0 -.5987 1.2866v10.713a1.1213 1.1213 0 0 0 1.1213 1.1213h13.7382a1.1213 1.1213 0 0 0 1.1209-1.1213v-10.713a1.6817 1.6817 0 0 0 -.5983-1.2866z"/></g></svg>