<svg viewBox="0 0 48 48" xmlns="http://www.w3.org/2000/svg"><g fill="none" stroke="#000" stroke-linecap="round" stroke-linejoin="round"><path d="m37.28 41.08a1.63 1.63 0 0 0 1.63-1.63v-13.28h2.09a2.45 2.45 0 0 0 1.59-4.32l-16.65-14.21a3 3 0 0 0 -3.88 0l-16.69 14.21a2.45 2.45 0 0 0 1.63 4.32h2.09v13.28a1.63 1.63 0 0 0 1.63 1.63z"/><path d="m24 41.08v-22.76"/><path d="m24 18.32 2.72-2.71"/><circle cx="27.71" cy="14.62" r="1.4"/><circle cx="32.16" cy="37.12" r="1.4"/><circle cx="20.29" cy="14.62" r="1.4"/><circle cx="15.02" cy="32.1" r="1.4"/><path d="m24 18.32-2.72-2.71"/><path d="m20.29 37.37v-3.85"/><circle cx="20.29" cy="32.12" r="1.4"/><circle cx="15.05" cy="37.37" r="1.4"/><path d="m20.29 37.37h-3.84"/><path d="m28.13 32.12h4.89"/><circle cx="34.42" cy="32.12" r="1.4"/><circle cx="28.13" cy="27.42" r="1.4"/><path d="m28.13 32.12v-3.3"/><path d="m20.27 26.92v-3.84"/><circle cx="20.27" cy="21.68" r="1.4"/><circle cx="15.02" cy="26.92" r="1.4"/><path d="m20.27 26.92h-3.85"/><path d="m24 41.08 3.96-3.96h2.79"/><circle cx="15.02" cy="18.52" r="1.4"/><path d="m15.02 21.68v-1.76"/><path d="m24 41.08-7.99-7.99"/><circle cx="32.34" cy="18.52" r="1.4"/><path d="m32.34 25.96 2.72-2.71"/><circle cx="36.05" cy="22.26" r="1.4"/><circle cx="28.63" cy="22.26" r="1.4"/><path d="m32.34 25.96-2.72-2.71"/><path d="m32.34 27.93v-8.01"/><path d="m24 30.65-8.98-8.97"/><path d="m24 36.27 8.34-8.34"/></g></svg>