<svg viewBox="0 0 48 48" xmlns="http://www.w3.org/2000/svg"><g fill="none" stroke="#000" stroke-linecap="round" stroke-linejoin="round"><path d="m8.5007 18.372v8.6424"/><path d="m8.5007 23.4494a2.126 2.126 0 1 1 4.2514 0v3.565"/><path d="m16.8265 27.0257a2.15 2.15 0 0 1 -2.1258-2.1606v-1.4045a2.126 2.126 0 1 1 4.2515 0v1.4045a2.15 2.15 0 0 1 -2.1257 2.1606z"/><path d="m23.0258 27.0241a2.15 2.15 0 0 1 -2.1258-2.1606v-1.4044a2.126 2.126 0 1 1 4.2514 0v1.4044a2.15 2.15 0 0 1 -2.1256 2.1606z"/><path d="m27.1 24.8577a2.126 2.126 0 1 0 4.2515 0v-1.4044a2.126 2.126 0 1 0 -4.2515 0"/><path d="m27.1002 21.2927v8.6424"/><path d="m33.2999 18.3904v8.6428"/><path d="m39.5007 24.87a2.126 2.126 0 1 1 -4.2515 0v-1.4047a2.126 2.126 0 1 1 4.2515 0"/><path d="m39.5007 27.0303v-5.7256"/><rect height="37" rx="2" width="37" x="5.5" y="5.5"/></g></svg>