<svg viewBox="0 0 48 48" xmlns="http://www.w3.org/2000/svg"><path d="m25.54 32.79 7.6 3.94-1.22-25.89a54.25 54.25 0 0 1 2.72 7.41 41.05 41.05 0 0 1 1 13.42 6.69 6.69 0 0 1 -1 3.19 4.6 4.6 0 0 1 -1.22.84l2.16.66 2.34 5.16m-12.66-36.12s7.15-1.57 10.5-.56a9 9 0 0 1 4.79 3.56c1.68 2.58 1.74 5.95 2.06 9a60.32 60.32 0 0 1 .28 12.38 25.51 25.51 0 0 1 -2.44 8.73 8.7 8.7 0 0 1 -2.53 3 7.87 7.87 0 0 1 -2.81 1.31c-3.19.82-9.85.66-9.85.66l-.94-9.1 1.22-1.6-.75-13 1-1-1.19-11.13zm-20.36 5.6.8 13-.7 2.79v16.32h7.22l.47-16.41 2.35 2.9-.61 13.32 8 .19.18-35.17-7.31-.1-.47 13.6-2.16-.18.02-13.14h-6z" fill="none" stroke="#000" stroke-linecap="round" stroke-linejoin="round"/></svg>