<svg viewBox="0 0 48 48" xmlns="http://www.w3.org/2000/svg"><g fill="none" stroke="#000" stroke-linecap="round" stroke-linejoin="round"><path d="m23.773 9.689 10.186 4.031 4.352 10.053-4.031 10.186-10.053 4.352-10.186-4.031-4.352-10.053 4.031-10.186z"/><path d="m23.7732 9.6893c-4.2962-1.8313-3.1877-7.1893 0-7.1893s4.2962 5.358 0 7.1893"/><path d="m24.2268 38.3107c4.2962 1.8313 3.1877 7.1893 0 7.1893s-4.2962-5.358 0-7.1893"/><path d="m38.3107 23.7732c1.8313-4.2962 7.1893-3.1877 7.1893 0s-5.358 4.2962-7.1893 0"/><path d="m9.6893 24.2268c-1.8313 4.2962-7.1893 3.1877-7.1893 0s5.358-4.2962 7.1893 0"/><path d="m34.28 33.9589c4.3327-1.743 7.3376 2.83 5.0836 5.0835s-6.8266-.7508-5.0836-5.0835"/><path d="m13.72 14.0412c-4.3327 1.7429-7.3376-2.83-5.0836-5.0836s6.8266.7508 5.0836 5.0836"/><path d="m33.9589 13.72c-1.743-4.3327 2.83-7.3376 5.0835-5.0836s-.7508 6.8266-5.0835 5.0836"/><path d="m14.0411 34.28c1.743 4.3327-2.8295 7.3376-5.0835 5.0836s.7508-6.8266 5.0835-5.0836"/></g></svg>