<svg viewBox="0 0 48 48" xmlns="http://www.w3.org/2000/svg"><g fill="none" stroke="#000" stroke-linecap="round" stroke-linejoin="round"><path d="m14.68 36.9336a89.1507 89.1507 0 0 1 18.6449.3752 9.2319 9.2319 0 0 0 10.1661-9.0788 9.9237 9.9237 0 0 0 -10.0541-9.904 8.5962 8.5962 0 0 0 -8.1783 6.2276c-1.5269 6.326-6.1411 9.2561-10.58 12.38z"/><path d="m33.57 18.3261c-.9747-4.0622-4.7255-7.6908-11.4237-7.6908-4.26 0-7.7155 2.27-9.3788 8.9286-.643 2.5741-.1792 5.0194 1.7257 8.8536 1.62 3.2605 1.5461 6.1183.1875 8.5159"/><path d="m12.4768 22.4888c-3.3027-.811-7.9268 2.2312-7.9768 7.2812-.0561 5.6978 5.6474 7.53 10.18 7.1641"/></g></svg>