<svg viewBox="0 0 48 48" xmlns="http://www.w3.org/2000/svg"><g fill="none" stroke="#000" stroke-linecap="round" stroke-linejoin="round"><path d="m9.7692 4.5a2.5035 2.5035 0 0 0 -2.5092 2.509v24.4655a2.5034 2.5034 0 0 0 2.509 2.509h10.821v7.0075a2.5034 2.5034 0 0 0 2.509 2.509h15.1318a2.5036 2.5036 0 0 0 2.509-2.509v-24.4656a2.5034 2.5034 0 0 0 -2.509-2.5089h-10.8162v-7.0075a2.5036 2.5036 0 0 0 -2.509-2.509z"/><path d="m20.5886 33.9833-.001-17.4583a2.5034 2.5034 0 0 1 2.509-2.509h4.3171"/><path d="m25.28 38.8877 10.1825-.0533"/><path d="m13.2321 12.2314 17.1133 19.2458"/><path d="m30.8778 25.5061-.5332 5.9709"/><path d="m24.641 32.0635 5.7043-.5864"/></g></svg>