<svg viewBox="0 0 48 48" xmlns="http://www.w3.org/2000/svg"><g fill="none" stroke="#000" stroke-linecap="round" stroke-linejoin="round"><path d="m6.1467 41.5748.1322-13.2148 3.9578.0371c-.1146 5.7956 6.7986 4.9823 6.787.0729l3.3726.0313-.0469 4.6814c4.2316-1.498 4.9506 5.3472-.0387 3.8768l-.0466 4.657z"/><path d="m36.9063 42.5-13.2163-.2427-.0031-3.7064c5.7965.0525 4.9037-6.8516-.0048-6.7873l-.0028-3.3728 4.6816-.0036c-1.5433-4.2152 5.2937-5.0076 3.877-.0031l4.6573-.0035z"/><path d="m41.8533 12.8944-6.9216 11.2582-3.409-2.1926c3.084-4.9082-3.1883-7.5287-5.7075-3.315l-2.9105-1.8863 2.452-3.9882c-4.3985-.8961-1.4884-7.1334 2.03-3.3027l2.4396-3.9678z"/><path d="m7.0054 10.135h13.2162v3.958c-5.7965-.0566-4.909 6.8481 0 6.7874v3.3728h-4.6816c1.54 4.2164-5.2973 5.0038-3.8769 0h-4.6574z"/></g></svg>