<svg viewBox="0 0 48 48" xmlns="http://www.w3.org/2000/svg"><ellipse cx="41.8787" cy="33.3999" fill="none" rx="1.6216" ry="1.612" stroke="#000" stroke-linecap="round" stroke-linejoin="round"/><circle cx="38.3029" cy="33.3903" r=".75"/><circle cx="9.697" cy="33.3903" r=".75"/><circle cx="13.2728" cy="33.3903" r=".75"/><circle cx="16.8485" cy="33.3903" r=".75"/><circle cx="20.4243" cy="33.3903" r=".75"/><circle cx="24" cy="33.3903" r=".75"/><circle cx="27.5757" cy="33.3903" r=".75"/><circle cx="31.1515" cy="33.3903" r=".75"/><circle cx="34.7272" cy="33.3903" r=".75"/><g fill="none" stroke="#000" stroke-linecap="round" stroke-linejoin="round"><path d="m38.3029 20.8573v7.9227"/><path d="m34.7272 20.8573v7.9227"/><path d="m20.4243 20.8573v7.9227"/><path d="m27.5757 20.8573v7.9227"/><path d="m31.1515 20.8573v7.9227"/><path d="m16.8485 20.8573v7.9227"/><path d="m6.1213 12.9881v15.7919"/><path d="m41.8787 12.9881v15.7919"/><path d="m9.6971 20.8573v7.9227"/><path d="m13.2728 20.8573v7.9227"/><path d="m24 16.5741v12.2043"/><circle cx="6.1213" cy="33.3903" r="1.6216"/></g></svg>