<svg viewBox="0 0 48 48" xmlns="http://www.w3.org/2000/svg"><path d="m24 8.4a1.56 1.56 0 0 1 .64.13l13 5.33v11.23c0 5-3.48 8.66-5.55 10.42-3.4 2.89-7 4.09-8.1 4.09-2.73 0-13.65-5.62-13.65-14.51v-11.23l13-5.33a1.56 1.56 0 0 1 .66-.13m0-3.9a5.58 5.58 0 0 0 -2.13.42l-14.13 5.85a2 2 0 0 0 -1.29 1.85v12.47c0 11.17 12.62 18.41 17.55 18.41s17.55-7.24 17.55-18.41v-12.47a2 2 0 0 0 -1.28-1.89l-14.13-5.85a5.59 5.59 0 0 0 -2.14-.38z" fill="none" stroke="#000" stroke-linecap="round" stroke-linejoin="round"/></svg>