<svg viewBox="0 0 48 48" xmlns="http://www.w3.org/2000/svg"><g fill="none" stroke="#000" stroke-linecap="round" stroke-linejoin="round"><path d="m17.8216 20.8807-.0536 4.7708"/><rect height="10.8279" rx="2.0283" width="23.3179" x="12.4214" y="17.5676"/><path d="m42.5 24a18.5 18.5 0 1 1 -37 0c0-2.5543 1.2763-8.2123 3.1692-9.9349 0 0-.59-6.8272.4268-7.5959.8624-.6522 6.899 1.2349 6.899 1.2349a14.3785 14.3785 0 0 1 8.005-2.2041 14.4173 14.4173 0 0 1 8.4036 2.13s5.7958-2.1 6.9346-1.0944.37 8.0284.37 8.0284a15.494 15.494 0 0 1 2.7918 9.436z"/><path d="m30.0166 20.8807-.0536 4.7708"/></g></svg>