<svg viewBox="0 0 48 48" xmlns="http://www.w3.org/2000/svg"><g fill="none" stroke="#000" stroke-linecap="round" stroke-linejoin="round"><path d="m40.5 5.5h-33a2 2 0 0 0 -2 2v33a2 2 0 0 0 2 2h33a2 2 0 0 0 2-2v-33a2 2 0 0 0 -2-2z"/><path d="m37.4341 36.5005a3.7148 3.7148 0 0 1 -3.2624 1.919 3.8494 3.8494 0 0 1 -3.8381-3.8381v-2.4947a3.85 3.85 0 0 1 3.8381-3.8381 3.85 3.85 0 0 1 3.8383 3.8381v1.3433h-7.6764"/><path d="m20.1619 28.2486v6.3328a3.8493 3.8493 0 0 0 3.8381 3.8386 3.8494 3.8494 0 0 0 3.8381-3.8381v-6.3333"/><path d="m27.8381 34.5814v3.8381"/><path d="m9.9903 23.0672v15.3523"/><path d="m9.99 32.0867a3.8493 3.8493 0 0 1 3.838-3.8381 3.8493 3.8493 0 0 1 3.8381 3.8381v6.3333"/><path d="m19.7053 12.5815 8.5894 8.0842-4.4631 4.4631v-16l4.4631 3.9579-8.5894 8.1685"/></g></svg>