<svg viewBox="0 0 48 48" xmlns="http://www.w3.org/2000/svg"><g fill="none" stroke="#000" stroke-linecap="round" stroke-linejoin="round"><path d="m40.712 30.2764a61.9774 61.9774 0 0 1 -6.3-1.11 3.11 3.11 0 0 0 -3 .58c-.53.54-2.06 2.05-3.65 3.61a28.69 28.69 0 0 1 -13.1-13.11c1.55-1.59 3-3.11 3.59-3.64a3.11 3.11 0 0 0 .58-3 61.8272 61.8272 0 0 1 -1.11-6.31 2 2 0 0 0 -2.1951-1.7837c-.0351.0037-.07.0082-.1049.0137h-8.52a1.5 1.5 0 0 0 -1.36 1.37c-.55 7.69 3.74 15.92 4.61 17.5v.06l.12.23a35.44 35.44 0 0 0 13 13l.44.25c2 1.06 9.95 5.06 17.38 4.51a1.5 1.5 0 0 0 1.39-1.36v-8.51a2 2 0 0 0 -1.6651-2.2864c-.0349-.0054-.0698-.01-.1049-.0136z"/><path d="m33.2492 5.5019c-5.1126 0-9.2572 3.5145-9.2572 7.85a7.1614 7.1614 0 0 0 2.2344 5.1055l-.9821 4.4644 4.2178-2.4118a10.6271 10.6271 0 0 0 3.7871.6919c5.1127 0 9.2573-3.5145 9.2573-7.85s-4.1446-7.85-9.2573-7.85z"/><path d="m34.9392 18.6383c2.88-1.8354 4.3669-8.0694-3.1645-10.6326 1.7721 4.0189-2.5632 4.5252-2.5632 7.658 0 2.5 2.88 3.1645 2.88 3.1645a2.787 2.787 0 0 1 -.0633-2.88c.5063.6329 2.1835 2.6265 2.1518-1.9936a7.3 7.3 0 0 1 .7592 4.6837z"/></g></svg>