<svg viewBox="0 0 48 48" xmlns="http://www.w3.org/2000/svg"><g fill="none" stroke="#000" stroke-linecap="round" stroke-linejoin="round"><path d="m24 14.1448a12.6187 12.6187 0 0 1 4.7855.9972l-.0049-.0042s.7672-6.941 5.1594-9.6378c4.3148 3.5444 4.4484 11.804 4.4484 17.8911l-.0018-.0014c1.6845 2.4891 2.6806 4.9445 2.6806 6.5893 0 6.9732-3.1976 9.516-3.1976 12.521a17.0677 17.0677 0 0 1 -.9632-4.7772c0-2.119 1.1558-3.0632 1.1558-6.1257 0-4.3149-4.8157-8.206-8.5142-8.206-4.0455 0-5.548 4.7772-5.548 9.4774 0-4.7-1.5025-9.4774-5.5478-9.4774-3.6985 0-8.5142 3.8911-8.5142 8.206 0 3.0625 1.1558 4.0067 1.1558 6.1257a17.0677 17.0677 0 0 1 -.9632 4.7772c0-3.005-3.1976-5.5478-3.1976-12.521 0-1.6448.9961-4.1 2.6806-6.5893l-.0018.0014c0-6.0871.1336-14.3467 4.4484-17.8911 4.392 2.6968 5.1592 9.6378 5.1592 9.6378l-.0049.0042a12.6187 12.6187 0 0 1 4.7855-.9972z"/><circle cx="30.7806" cy="31.7127" r="1.6951"/><path d="m35.6866 20.0424c0-2.15-.4523-8.8349-1.9767-10.087-1.5515.9527-2.412 6.475-2.412 6.475a12.9855 12.9855 0 0 1 4.3887 3.612z"/><circle cx="16.8529" cy="32.1296" r="1.7868"/><path d="m24 37.267-2.802 3.068h5.604z"/><path d="m11.6817 19.8285c0-2.2666.4768-9.3125 2.0835-10.6322 1.6354 1.0041 2.5424 6.8249 2.5424 6.8249a13.6883 13.6883 0 0 0 -4.626 3.8073z"/></g></svg>