<svg viewBox="0 0 48 48" xmlns="http://www.w3.org/2000/svg"><g fill="none" stroke="#000" stroke-linecap="round" stroke-linejoin="round"><path d="m22.374 27.269c-.64-.8645-.9217-1.1515-2.1342.3159s-2.1208-.1069-2.7783-2.56l-1.34-5 1.9443-1.9549a10.6535 10.6535 0 0 1 5.9142-11.0115 10.6537 10.6537 0 0 1 5.915 11.0115l1.9442 1.9548-1.34 5c-.6575 2.4536-1.5657 4.0278-2.7783 2.56s-1.494-1.18-2.1342-.3159-.9558 1.294-1.6065 1.294-.9663-.4294-1.6065-1.294z"/><path d="m21.458 26.557s.0346 5.6039-2.2508 7.7421c0 0-4.0339-.897-4.4986 2.764h-2.1121a1.3137 1.3137 0 0 0 -1.388-.8013h-2.75c-.2748.0131-.7575.1151-1.1349 1.3076"/><path d="m26.734 26.638a12.9764 12.9764 0 0 0 1.5511 6.4829s5.2185-1.85 6.2769 3.9956a1.7249 1.7249 0 0 0 1.9467 0s.1-.8791.8792-.8791h2.96a.7348.7348 0 0 1 .7854.7512"/><path d="m22.935 27.993s.4706 5.6292-2.0359 9.2768h-1.5645a1.9621 1.9621 0 0 0 -2.0658 2.0502c-1.4409.6442-1.0981-.6809-2.4131-.7158-1.26 0-2.9863-.1636-2.9863 1.9551 0 0-1.3616-.4277-1.4049.1441"/><path d="m25.166 27.825s.1371 5.649 1.6953 8.2661h2.9947a1.924 1.924 0 0 1 1.874 1.8738c0 1.7745 1.0333 1.2908 1.0333 1.2908s-.1928-.633 1.7355-.633 2.5481.9556 2.5481 1.8927l.702.0137"/><path d="m19.95 25.405a49.532 49.532 0 0 1 -1.5628-5.1428"/><path d="m28.011 25.405a49.532 49.532 0 0 0 1.5628-5.1428"/><circle cx="23.981" cy="14.405" r="1.9625"/><circle cx="24" cy="24" r="21.5"/></g></svg>