<svg viewBox="0 0 48 48" xmlns="http://www.w3.org/2000/svg"><g fill="none" stroke="#000" stroke-linecap="round" stroke-linejoin="round"><circle cx="23.932" cy="24.419" r="18.432"/><path d="m24 13.217v11l3.5 4"/><path d="m13.521 31.889a12.99 12.99 0 1 0 16.977-18.918m-3.729-1.447a12.9778 12.9778 0 0 0 -15.091 16.814"/><path d="m15.746 5.727a7.4873 7.4873 0 0 0 -10.318 10.086m3.943 22.193a3.5638 3.5638 0 0 0 5.658 4.22"/><path d="m32.254 5.727a7.4873 7.4873 0 0 1 10.318 10.086m-3.943 22.193a3.5638 3.5638 0 0 1 -5.658 4.22"/><path d="m17.664 20.209a7.5 7.5 0 0 0 4.137 11.17m4 .106a7.5 7.5 0 0 0 5.26-4.768m.279-4a7.5 7.5 0 0 0 -5.34-5.725m-4 .014a7.386 7.386 0 0 0 -1.365.518m5.857 6.504a2.5 2.5 0 0 0 -.492-1.307m-4 .002a2.5 2.5 0 0 0 1.48 3.938"/></g></svg>