<svg viewBox="0 0 48 48" xmlns="http://www.w3.org/2000/svg"><path d="m27.875 33.5a14.5 14.5 0 1 1 14.5-14.5 14.5167 14.5167 0 0 1 -14.5 14.5zm0-21a6.5 6.5 0 1 0 6.5 6.5 6.5075 6.5075 0 0 0 -6.5-6.5z" fill="none" stroke="#000" stroke-linecap="round" stroke-linejoin="round"/><path d="m21.375 31.9565v7.5435a4 4 0 0 1 -8 0v-20.5" fill="none" stroke="#000" stroke-linecap="round" stroke-linejoin="round"/><path d="m6.375 42.5v-20.5" fill="none" stroke="#000" stroke-linecap="round" stroke-linejoin="round"/><circle cx="6.375" cy="19" r=".75"/><g fill="none" stroke="#000" stroke-linecap="round" stroke-linejoin="round"><path d="m27.875 25.5v8"/><path d="m23.2788 23.5962-5.6568 5.6568"/><path d="m21.375 19h-8"/><path d="m23.2788 14.4038-5.6568-5.6568"/><path d="m27.875 12.5v-8"/><path d="m32.4712 14.4038 5.6568-5.6568"/><path d="m34.375 19h8"/><path d="m32.4712 23.5962 5.6568 5.6568"/></g></svg>