<svg viewBox="0 0 48 48" xmlns="http://www.w3.org/2000/svg"><g fill="none" stroke="#000" stroke-linecap="round" stroke-linejoin="round"><path d="m29.535 33.5623-5.5344-1.8331-5.5345 1.8331-1.1761-5.6974-4.3588-3.8643 4.3588-3.8643 1.1757-5.6973 5.5345 1.833 5.5344-1.833 1.1757 5.6973 4.3597 3.8643-4.3588 3.8643z"/><path d="m24.0006 31.7292v-29.2292"/><path d="m17.6613 7.151 6.3392 3.0277"/><path d="m30.34 7.151-6.3392 3.0277"/><path d="m24.0006 31.7292v13.7721"/><path d="m30.34 40.85-6.3392-3.0277"/><path d="m17.6613 40.85 6.3392-3.0277"/><path d="m17.29 27.8649 25.378-14.6149"/><path d="m35.46 10.1.5409 6.99"/><path d="m41.8 21.0519-5.7989-3.9619"/><path d="m17.29 27.8649-11.9569 6.8861"/><path d="m12.5409 37.9015-.5409-6.9899"/><path d="m6.2016 26.9494 5.7984 3.9622"/><path d="m30.7107 27.8649 11.9573 6.8861"/><path d="m41.8 26.9494-5.7984 3.9622"/><path d="m35.46 37.9015.5409-6.99"/><path d="m30.7107 27.8649-25.3776-14.6149"/><path d="m6.2016 21.0519 5.7984-3.9619"/><path d="m12.5409 10.1-.5409 6.99"/></g></svg>