<svg viewBox="0 0 48 48" xmlns="http://www.w3.org/2000/svg"><path d="m20.2 3.51c-8.2.17-16.04 2.87-16.31 16.69a17.91 17.91 0 0 0 -.5 4.44 19.07 19.07 0 0 0 18.61 19.04c5.92 1.52 12 1 14.77-2 .87-1 1.11-4.06.88-5.57a18.89 18.89 0 0 0 2.66-18.11 11.11 11.11 0 0 1 1.47-1.8l1.48-4.46a12.49 12.49 0 0 0 1.35-4.74 9 9 0 0 0 -4.27 1.57 10.84 10.84 0 0 0 -3.7-1.13 3.64 3.64 0 0 0 -1.93-3l-1.06 2.22c-2.44-1.66-7.85-3.27-13.44-3.15zm-5.2 8.24c2.15 0 4 1.38 4.82 5.16v4.35c.5 5.6 4.21 7.37 4.06 9.3.06 1 2.39 2.23 2.58 4.83.1.65 3.08 1 3.4-.8-4.61-9.81-4-13.22-3.35-16.68.78-1.28 1.51-2.61 2.93-3.08s2.31 3.09 3.45 4.83c.86.67 2.05.56 3.24.89a2.6 2.6 0 0 0 2.5.41 17.52 17.52 0 0 1 .43 3.67 16.63 16.63 0 0 1 -13.61 16.37c-8.81-1.55-13.58-15.51-14.3-18.3-1.08-2.83-3-1.78-3.79-.17a15.48 15.48 0 0 0 -.31 8.35 16.56 16.56 0 0 1 3.25-17.55 9.57 9.57 0 0 1 4.7-1.58z" fill="none" stroke="#000" stroke-linecap="round" stroke-linejoin="round"/></svg>