<svg viewBox="0 0 48 48" xmlns="http://www.w3.org/2000/svg"><g fill="none" stroke="#000" stroke-linecap="round" stroke-linejoin="round"><path d="m36.7893 21.2263a1.602 1.602 0 0 1 1.6694 1.3411l.02 6.55a14.3831 14.3831 0 0 1 -7.1915 12.456 14.373 14.373 0 0 1 -21.5635-12.5524v-6.4536a1.1827 1.1827 0 0 1 1.3152-1.3411"/><path d="m31.0237 31.407a5.2189 5.2189 0 0 1 -3.1937 4.593 7.53 7.53 0 0 1 -6.3866 0"/><path d="m26.5615 31.3209 3.2945 5.84.2324 2.4092-1.8834-1.3573-3.0316-5.4528"/><path d="m23.2812 32.6956-3.0095 5.4131-1.8852 1.5565.1557-2.525 3.3614-5.8592"/><path d="m23.0582 24.1393h2.2545v1.9681h.8193a1.2629 1.2629 0 0 1 1.25 1.2808v3.0818l-2.2392 2.322a1.223 1.223 0 0 1 -1.7676 0l-2.36-2.4231v-2.9807a1.2629 1.2629 0 0 1 1.25-1.2808h.7929z"/><path d="m11.0389 21.2263h25.75a1.5146 1.5146 0 0 0 1.4757-1.5125v-1.9007a11.5974 11.5974 0 0 0 -2.6857-7.2906l2.0147-1.9925a2.3942 2.3942 0 0 0 0-3.3257 2.32 2.32 0 0 0 -3.3347.0055l-2.0072 1.9924c-5.4472-3.4678-11.0025-3.731-16.7342 0l-1.9331-1.9622a2.2906 2.2906 0 0 0 -3.338-.003c-1.4339 1.2443-.2186 3.1118-.0044 3.323l2.0069 1.9774a11.22 11.22 0 0 0 -2.7226 7.2758v1.9007a1.5123 1.5123 0 0 0 1.5126 1.5125"/><circle cx="17.2524" cy="15.5316" r="2.1526"/><circle cx="30.6117" cy="15.5316" r="2.1526"/></g></svg>