<svg viewBox="0 0 48 48" xmlns="http://www.w3.org/2000/svg"><g fill="none" stroke="#000" stroke-linecap="round" stroke-linejoin="round"><path d="m19.1387 22.2459c-3.2987-12.5543 16.9375-12.4448 16.9375 1.8509s-20.2362 14.4052-16.9374 1.8509"/><circle cx="23.6183" cy="17.6923" r="1.4219"/><circle cx="29.1975" cy="18.9185" r="1.4219"/><path d="m31.6441 22.6718a1.4221 1.4221 0 0 0 -1.4116 1.2721c.3.2589.5948.518.8823.7573a5.2156 5.2156 0 0 0 -.6685.1592 1.4219 1.4219 0 1 0 1.1978-2.1886z"/><circle cx="23.6183" cy="30.4939" r="1.4219"/><circle cx="29.1975" cy="29.2677" r="1.4219"/><path d="m25.471 25.4007v-2.5773c-7.5356-1.2085-14.4463.38-14.4463 1.2886s6.9107 2.4972 14.4463 1.2887z"/><path d="m22.7347 22.4983v3.2275"/><path d="m25.471 25.4007c1.815 1.6181 3.4273-.3325 5.6434-.6988-1.6689-1.389-3.5392-3.4873-5.6434-1.8785"/><path d="m11.129 4.5a3.2953 3.2953 0 0 0 -3.3022 3.2979h32.3452a3.2953 3.2953 0 0 0 -3.302-3.2979zm-3.3022 35.7021a3.2953 3.2953 0 0 0 3.3022 3.2979h25.741a3.2953 3.2953 0 0 0 3.3022-3.2979z"/><path d="m5.0434 11.0566 2.7841 12.9434m32.3451 0 2.784-12.9435c.3428-1.617-1.2017-3.0105-2.7841-3.2583h-32.345c-1.5824.2479-3.1269 1.6418-2.7841 3.2584"/><path d="m5.0434 36.9436 2.7841-12.9436m32.3451 0 2.784 12.9435c.3428 1.6169-1.2017 3.01-2.784 3.2583h-32.3451c-1.5824-.2478-3.1269-1.6414-2.7841-3.2583"/></g></svg>