<svg viewBox="0 0 48 48" xmlns="http://www.w3.org/2000/svg"><g fill="none" stroke="#000" stroke-linecap="round" stroke-linejoin="round"><path d="m27.0357 10.3029a5.8029 5.8029 0 1 0 -11.6057 0c0 3.2048 3.0292 9.7079 5.8029 9.7079 2.9926 0 5.8028-6.5031 5.8028-9.7079z"/><path d="m37.9954 25.3164a6.5888 6.5888 0 1 0 -3.5142-12.7c-3.5071.97-9.7064 6.2544-8.8665 9.29.9062 3.2743 8.8736 4.3804 12.3807 3.41z"/><path d="m26.64 39.44a5.8029 5.8029 0 0 0 9.2363-7.0274c-1.9406-2.55-8.289-5.8917-10.4964-4.2122-2.3817 1.8119-.6799 8.6889 1.2601 11.2396z"/><path d="m8.52 33.597a6.4589 6.4589 0 0 0 10.929 6.8866c1.9017-3.018 2.9079-10.9394.2959-12.5852-2.8184-1.7758-9.3236 2.6806-11.2249 5.6986z"/><path d="m11.2994 16.4606a4.9023 4.9023 0 1 0 -2.4494 9.4937c2.6216.6764 8.5806-.429 9.166-2.698.6316-2.448-4.095-6.1193-6.7166-6.7957z"/></g></svg>