<svg viewBox="0 0 48 48" xmlns="http://www.w3.org/2000/svg"><g fill="none" stroke="#000" stroke-linecap="round" stroke-linejoin="round"><path d="m7.45 5.5a2 2 0 0 0 -1.95 2v33.1a2 2 0 0 0 2 2h33.1a2 2 0 0 0 2-2v-33.15a2 2 0 0 0 -2-1.95zm24.35 3.5 6 4.55-6 4.55m1 19.94h5.2m-5.23-9 2.62-1.42m0 0v10.38m-8.06 0a2.61 2.61 0 0 0 2.61-2.61 2.61 2.61 0 0 0 -2.61-2.61 2.61 2.61 0 0 0 2.61-2.61 2.61 2.61 0 0 0 -2.61-2.61m-4.13 9.56a4.47 4.47 0 0 0 3.25.88h.88m-4.13-9.57c.72-.61 1.5-.88 3.25-.88h.88"/><path d="m23.49 13.51h14.27"/><path d="m16.2 25.24-5.96-4.55 5.96-4.55"/><path d="m24.51 20.69h-14.27"/></g></svg>