<svg viewBox="0 0 48 48" xmlns="http://www.w3.org/2000/svg"><g fill="none" stroke="#000" stroke-linecap="round" stroke-linejoin="round"><path d="m4.5 35.7581s1.3132-10.1817 5.639-10.1817c4.6274 0 5.8954 10.2019 5.8954 10.2019"/><path d="m9.8375 25.5764 5.5581.0293c4.6273 0 5.9763 10.1818 5.9763 10.1818"/><path d="m10.0622 25.3016a16.9411 16.9411 0 0 1 33.4378 3.8534v6.4934l-22.1287.1391"/><path d="m21.3718 35.7875-16.8718-.0293"/><path d="m14.9815 16.7865h7.1777v-3.775"/><path d="m22.1591 16.7865h8.2924v-4.12"/><path d="m11.59 21.2178h7.284v-4.4313"/><path d="m18.8736 21.2178h7.4885v-4.4313"/><path d="m26.3621 21.2178h7.5266v-4.4313"/><path d="m20.4145 31.0139h5.9345v-4.7192"/><path d="m26.349 31.0139h7.4947v-4.7192"/><path d="m33.8437 31.0139h6.8444v-4.7192"/><path d="m17.36 26.2947h4.8936v-5.0769"/><path d="m22.2535 26.2947h8.1465v-5.0769"/><path d="m30.4 26.2947h6.9281v-5.0769"/><path d="m37.3279 26.2947h5.9311"/><path d="m15.3956 25.6057v-4.3879"/><path d="m30.4676 35.706v-4.6921"/><path d="m37.2538 35.6641v-4.65"/><path d="m37.2538 31.0139h6.2462"/><path d="m33.8887 21.2178h7.6392"/><path d="m30.4516 16.7865h7.6848"/><path d="m14.9356 31.0139h6.2781"/><path d="m7.2392 35.7582c0-2.104 2.8374-14.5257 6.2986.0147"/></g></svg>