<svg viewBox="0 0 48 48" xmlns="http://www.w3.org/2000/svg"><g fill="none" stroke="#000" stroke-linecap="round" stroke-linejoin="round"><path d="m24 40.5601v-14.0367"/><circle cx="24" cy="20.0842" r="3.0186"/><path d="m43.4015 17.0562a10.5359 10.5359 0 0 0 -19.4015-4.0809 10.5348 10.5348 0 1 0 -15.355 13.9066h-.0181l13.9777 13.1363a2 2 0 0 0 2.7394 0l13.8476-13.0141a10.5219 10.5219 0 0 0 4.2099-9.9479z"/><path d="m30.3223 23.7344a7.3086 7.3086 0 0 0 0-7.3"/><path d="m33.9894 25.8516a11.5474 11.5474 0 0 0 0-11.5347"/><path d="m17.6777 16.434a7.3086 7.3086 0 0 0 0 7.3"/><path d="m14.0106 14.3168a11.5474 11.5474 0 0 0 0 11.5347"/></g></svg>