<svg viewBox="0 0 48 48" xmlns="http://www.w3.org/2000/svg"><g fill="none" stroke="#000" stroke-linecap="round" stroke-linejoin="round"><path d="m34.0381 24.9254a2.7389 2.7389 0 0 1 2.7309-2.7309 2.7389 2.7389 0 0 1 2.731 2.7309v1.7751a2.739 2.739 0 0 1 -2.731 2.731 2.7389 2.7389 0 0 1 -2.7309-2.731"/><path d="m34.0381 29.4315v-10.9238"/><path d="m24.5008 29.4243v-10.9238h1.7751a5.4778 5.4778 0 0 1 5.4618 5.4618 5.4778 5.4778 0 0 1 -5.4618 5.4618z"/><path d="m11.078 29.431v-10.923l5.462 10.923 5.462-10.923v10.923"/><path d="m8.5 18.5077v10.9238"/><path d="m43.5 37.5v-27a2 2 0 0 0 -2-2h-35a2 2 0 0 0 -2 2v27a2 2 0 0 0 2 2h35a2 2 0 0 0 2-2z"/></g></svg>