<svg viewBox="0 0 48 48" xmlns="http://www.w3.org/2000/svg"><g fill="none" stroke="#000" stroke-linecap="round" stroke-linejoin="round"><path d="m40.5 5.5h-33a2 2 0 0 0 -2 2v33a2 2 0 0 0 2 2h33a2 2 0 0 0 2-2v-33a2 2 0 0 0 -2-2z"/><path d="m21.37 20.24 3 2.85a.52.52 0 0 0 .83-.12l7.09-12.66-16.13 3.69a.53.53 0 0 0 -.25.9l4 3.87 7.67-5.11-7.67 5.11 1.49 1.47-2.4 1.93a.42.42 0 0 1 -.68-.32v-4.57"/><path d="m34.75 31.77v3.72a2.75 2.75 0 0 1 -2.75 2.75 2.73 2.73 0 0 1 -1.94-.81"/><path d="m34.75 27.24v4.53a2.75 2.75 0 0 1 -2.75 2.75 2.75 2.75 0 0 1 -2.75-2.75v-4.53"/><path d="m26.75 31.77a2.75 2.75 0 0 1 -2.75 2.75 2.75 2.75 0 0 1 -2.75-2.75v-1.77a2.75 2.75 0 0 1 2.75-2.76 2.75 2.75 0 0 1 2.75 2.76"/><path d="m26.75 34.52v-7.28"/><path d="m13.25 31.77a2.75 2.75 0 0 0 2.75 2.75 2.75 2.75 0 0 0 2.75-2.75v-1.77a2.75 2.75 0 0 0 -2.75-2.76 2.75 2.75 0 0 0 -2.75 2.76"/><path d="m13.25 27.24v11"/></g></svg>