<svg viewBox="0 0 48 48" xmlns="http://www.w3.org/2000/svg"><g fill="none" stroke="#000" stroke-linecap="round" stroke-linejoin="round"><path d="m5.5 19.6v20.9a2 2 0 0 0 2 2h33a2 2 0 0 0 2-2v-33a2 2 0 0 0 -2-2h-33a2 2 0 0 0 -2 2z"/><path d="m15.1191 24.2155a5.7291 5.7291 0 0 1 5.7474-5.7107 5.7291 5.7291 0 0 1 5.7473 5.7107v9.1371"/><path d="m15.1191 18.5048v14.8478"/><path d="m26.6138 24.2155a5.7291 5.7291 0 0 1 5.7473-5.7107 5.7291 5.7291 0 0 1 5.7474 5.7107v9.1371"/></g><ellipse cx="11.8142" cy="15.4719" rx=".7548" ry=".75"/><path d="m11.8142 18.5048v14.8478" fill="none" stroke="#000" stroke-linecap="round" stroke-linejoin="round"/></svg>