<svg viewBox="0 0 48 48" xmlns="http://www.w3.org/2000/svg"><g fill="none" stroke="#000" stroke-linecap="round" stroke-linejoin="round"><path d="m29.4725 17.5206c-.8346-.4174-3.7559-.3734-4.3709-.3954s-1.6253.0659-2.1085.0659a20.346 20.346 0 0 0 -4.2711.6961l-8.9334-10.1846.7947 19.636a36.3523 36.3523 0 0 0 -1.12 6.6331 3.7425 3.7425 0 0 0 .2416 1.9988 17.0718 17.0718 0 0 0 3.2727 3.2946c.9445.5491 8.83 1.0323 12.3219 1.0323a77.8317 77.8317 0 0 0 9.1591-.4612 19.515 19.515 0 0 0 4.2171-4.174 36.4327 36.4327 0 0 0 -1.0543-8.06l1.5153-19.8996z"/><path d="m37.6212 27.6021a48.7064 48.7064 0 0 0 -5.1612-5.6008l6.6767-14.2987"/><path d="m10.5833 27.3386s3.9536-4.6345 4.9859-5.2934l-5.7806-14.3426"/><path d="m10.899 33.5331-6.399-1.886"/><path d="m4.5 36.5642 6.601-1.2125"/><path d="m43.5 31.9165-6.2642 1.6166"/><path d="m43.5 36.7999-6.4663-1.1377"/><path d="m24.0126 33.4137a8.4048 8.4048 0 0 0 1.5282-.0364"/><path d="m30.45 36.8c-3.8562.9935-5.4728-1.1787-5.6728-1.6334-.7767.7915-3.2352 2.4512-5.2223 1.8907"/><path d="m17.6179 28.3297.0168 2.4922"/><path d="m30.7694 28.5149-.0505 2.206"/></g></svg>