<svg viewBox="0 0 48 48" xmlns="http://www.w3.org/2000/svg"><g fill="none" stroke="#000" stroke-linecap="round" stroke-linejoin="round"><path d="m42 39.5a1.5 1.5 0 0 0 1.5-1.5"/><path d="m43.5 33.1724v-20.7586" stroke-dasharray="2.8966 4.8276"/><path d="m43.5 10a1.5 1.5 0 0 0 -1.5-1.5"/><path d="m37.1351 8.5h-28.7027" stroke-dasharray="2.9189 4.8649"/><path d="m6 8.5a1.5 1.5 0 0 0 -1.5 1.5"/><path d="m4.5 14.8276v20.7586" stroke-dasharray="2.8966 4.8276"/><path d="m4.5 38a1.5 1.5 0 0 0 1.5 1.5"/><path d="m10.8649 39.5h28.7027" stroke-dasharray="2.9189 4.8649"/><path d="m43.5 20.4h-1"/><path d="m40.4326 20.4h-4.0845a2.8481 2.8481 0 0 0 -2.8481 2.8482v1.5036a2.8481 2.8481 0 0 0 2.8481 2.8482h5.1181" stroke-dasharray="2.0675 2.0675"/><path d="m42.5 27.6h1"/></g><circle cx="36.472" cy="24" r=".795"/></svg>