<svg viewBox="0 0 48 48" xmlns="http://www.w3.org/2000/svg"><circle cx="24" cy="24" fill="none" r="21.5" stroke="#000" stroke-linecap="round" stroke-linejoin="round"/><circle cx="18.585" cy="17.4201" r=".75"/><circle cx="21.585" cy="17.4201" r=".75"/><circle cx="24.585" cy="17.4201" r=".75"/><circle cx="27.585" cy="17.4201" r=".75"/><circle cx="30.585" cy="17.4201" r=".75"/><circle cx="30.585" cy="20.4201" r=".75"/><circle cx="30.585" cy="23.4201" r=".75"/><circle cx="30.585" cy="26.4201" r=".75"/><circle cx="30.585" cy="29.4201" r=".75"/><circle cx="27.585" cy="20.4201" r=".75"/><circle cx="13.2252" cy="28.775" r=".75"/><circle cx="16.2252" cy="28.775" r=".75"/><circle cx="19.2251" cy="28.775" r=".75"/><circle cx="19.2251" cy="31.775" r=".75"/><circle cx="19.2251" cy="34.775" r=".75"/><circle cx="21.2201" cy="26.7802" r=".75"/><circle cx="23.3563" cy="24.647" r=".75"/><circle cx="25.4548" cy="22.5478" r=".75"/><circle cx="32.6615" cy="15.3399" r=".75"/><circle cx="34.7748" cy="13.225" r=".75"/></svg>