<svg viewBox="0 0 48 48" xmlns="http://www.w3.org/2000/svg"><path d="m24.0121 27.7972a3.6806 3.6806 0 0 0 4.1962 0" fill="none" stroke="#000" stroke-linecap="round" stroke-linejoin="round"/><path d="m30.245 23.3655a.7517.7517 0 0 1 .7664.75.7582.7582 0 0 1 -1.5164 0 .748.748 0 0 1 .75-.75z"/><path d="m22.5908 23.25a.7516.7516 0 0 1 .7663.75.7582.7582 0 0 1 -1.5163 0 .748.748 0 0 1 .75-.75z"/><g fill="none" stroke="#000" stroke-linecap="round" stroke-linejoin="round"><path d="m11.5032 7.41a4.1031 4.1031 0 1 1 -4.1075 4.1075 4.1023 4.1023 0 0 1 4.1075-4.1075z"/><path d="m16.4667 9.3133c4.5707-.0449 2.3089 2.8628-3.8677 4.5406s-10.516.4262-6.6139-1.83"/><path d="m38.9163 28.7465c-2.2534-13.9195-22.8709-16.7765-25.9763-.4165"/><path d="m12.55 29.9086a42.7623 42.7623 0 0 0 26.6679.2484c6.4632 1.688 5.501 4.2124-2.1491 5.6385s-19.0912 1.2138-25.5544-.4742c-6.0851-1.5892-5.6344-3.9423 1.0356-5.4127z"/><path d="m29.9471 38.1414a4.0632 4.0632 0 0 1 -7.4521.0089"/><path d="m17.9439 37.7333a3.69 3.69 0 0 1 -6.6181-1.3928"/><path d="m40.7527 36.2252a3.4777 3.4777 0 0 1 -6.219 1.41"/></g></svg>