<svg viewBox="0 0 48 48" xmlns="http://www.w3.org/2000/svg"><path d="m34.45 30.33a.53.53 0 1 0 -.9.56l3.67 5.9a.52.52 0 0 0 .44.25.54.54 0 0 0 .28-.08.52.52 0 0 0 .17-.73z"/><path d="m24 31.31a.52.52 0 0 0 -.53.52v6.71a.53.53 0 0 0 1.06 0v-6.71a.52.52 0 0 0 -.53-.52z"/><path d="m13.15 30.16a.54.54 0 0 0 -.73.17l-3.66 5.9a.53.53 0 0 0 .17.73.57.57 0 0 0 .28.08.51.51 0 0 0 .44-.25l3.67-5.9a.53.53 0 0 0 -.17-.73z"/><path d="m22.39 15.43a.68.68 0 0 0 -.68-.69.69.69 0 0 0 -.69.69.68.68 0 0 0 .69.68.67.67 0 0 0 .68-.68z"/><path d="m22.39 17.7a3.37 3.37 0 0 0 3.22 0" fill="none" stroke="#000" stroke-linecap="round" stroke-linejoin="round"/><path d="m26.29 14.74a.68.68 0 0 0 -.68.69.67.67 0 0 0 .68.68.68.68 0 0 0 .69-.68.69.69 0 0 0 -.69-.69z"/><g fill="none" stroke="#000" stroke-linecap="round" stroke-linejoin="round"><path d="m32.9 17.12a8.93 8.93 0 0 0 -17.8 0c-6.63 1-10.6 3.05-10.6 5.44 0 4 10.05 6.08 19.5 6.08s19.5-2.13 19.5-6.08c0-2.39-3.96-4.41-10.6-5.44z"/><path d="m32.9 17.12c0 2.25-4.08 4.15-8.9 4.15s-8.9-1.9-8.9-4.15"/></g></svg>