<svg viewBox="0 0 48 48" xmlns="http://www.w3.org/2000/svg"><g fill="none" stroke="#000" stroke-linecap="round" stroke-linejoin="round"><path d="m17.3083 23.5331-1.9343 2.2844a2.0435 2.0435 0 0 1 -2.6666.3511 2.0705 2.0705 0 0 1 -.7638-2.5791 2.0039 2.0039 0 0 1 2.4276-1.1577l16.1238 5.7022a9.6947 9.6947 0 1 0 -4.1171-15.344l-6.4834 7.68"/><path d="m26.8715 26.9216-4.4569 7.1884a9.6923 9.6923 0 0 1 -17.0284-9.1792 9.8217 9.8217 0 0 1 12.2838-5.0046l14.7116 5.0978a2.8755 2.8755 0 0 0 3.57-1.7291 2.9183 2.9183 0 0 0 -1.4542-3.6916 2.958 2.958 0 0 0 -3.79 1.1709l-1.8564 2.9791"/><path d="m37.5454 21.6788 4.5962-.8617"/><path d="m23.7747 23.2319-.5257 1.186"/><path d="m28.6034 24.8885-.5517 1.1907"/><path d="m33.1215 26.2533-.1128 1.3658"/><path d="m36.6794 24.8885 1.4938 1.4646"/><path d="m35.164 18.1773 2.532-6.6886"/><path d="m30.6177 18.9585-4.0747-4.1942"/><path d="m23.6241 29.4065-2.9348-3.3386"/><path d="m20.64 33.9528-4.3919-7.0566"/><path d="m15.8493 37.21-1.458-9.4126"/><path d="m9.45 35.873 3.141-8.3217"/><path d="m5.9557 30.7525 5.2118-4.2573"/><path d="m6.8377 24.8226 3.7754-.0562"/><path d="m10.8606 21.114.61.9234"/><path d="m15.0492 20.4646-.3522.97"/><path d="m19.37 21.66-.5611 1.18"/><path d="m32.6038 18.0737-.8583-6.8966"/><path d="m36.6324 19.721 4.6639-4.344"/><path d="m27.0786 21.8388-3.46-3.5956"/></g></svg>