<svg viewBox="0 0 48 48" xmlns="http://www.w3.org/2000/svg"><g fill="none" stroke="#000" stroke-linecap="round" stroke-linejoin="round"><path d="m37.849 20.9525-10.7512-10.7512c-.44-.44-1.3317-.261-1.992.3993l-20.9236 20.9236c-.66.66-.839 1.5521-.3992 1.992l10.7511 10.7511c.44.44 1.3317.2611 1.992-.3992l20.9239-20.9236c.66-.6603.8388-1.5522.399-1.992z"/><circle cx="14.9434" cy="33.0416" r="2.4842"/><path d="m31.1714 6.002a10.8 10.8 0 0 1 7.7018 3.318 10.8051 10.8051 0 0 1 3.3225 7.6974m-10.2034-7.88a7.115 7.115 0 0 1 7.068 7.0769m-6.324-4.1476a3.5738 3.5738 0 0 1 3.302 2.65 2.7794 2.7794 0 0 1 .0887.74"/></g><circle cx="26.2785" cy="16.3027" r=".75"/><circle cx="32.2223" cy="22.2465" r=".75"/><circle cx="29.2504" cy="19.2746" r=".75"/><circle cx="23.3067" cy="19.2746" r=".75"/><circle cx="29.2504" cy="25.2184" r=".75"/><circle cx="26.2786" cy="22.2465" r=".75"/><circle cx="20.3348" cy="22.2465" r=".75"/><circle cx="26.2785" cy="28.1903" r=".75"/><circle cx="23.3067" cy="25.2184" r=".75"/></svg>