<svg viewBox="0 0 48 48" xmlns="http://www.w3.org/2000/svg"><g fill="none" stroke="#000" stroke-linecap="round" stroke-linejoin="round"><path d="m7.94 12.85a9.84 9.84 0 0 0 .38 3.79l-2.32 1.71"/><path d="m6.3 21.82a16.23 16.23 0 0 1 3.15-1.32"/><path d="m5 27.07a24.76 24.76 0 0 1 3.85-2.56"/><path d="m5.92 30.26a10.29 10.29 0 0 0 .34 3.79"/><path d="m6.61 37a9.33 9.33 0 0 1 1.52-1.24"/><path d="m22.53 30.81a12.08 12.08 0 0 0 -4.9 1.79l.79 1.64 1.33-.82s-.22 2.58.95 2.58 1.1-1.36 1.1-1.36.83 1.29 1.68 1.29.79-1.83.79-1.83l1.67 1.33a11.63 11.63 0 0 0 .82-3.19s-1.13-1.43-4.23-1.43z"/><path d="m22.21 14.18a9.14 9.14 0 0 0 -3.85-.88s-2.71-4.87-6.36-2.15c-3.19 2.4.07 6 1.24 6.44a10.13 10.13 0 0 0 .19 4.58l-1.14-.06a4 4 0 0 0 .82 2.12c.66.56 2.15 1.64 2.08 2.52a4.92 4.92 0 0 0 .67 3.19c.72 1.08 1.73 2.66 1.73 2.66"/><path d="m22.53 30.81v-2.67"/><path d="m9.49 29.15a22.11 22.11 0 0 1 10.17-1.67"/><path d="m10.18 32.78c1.42-1.35 6-3.94 9.48-5.3"/><path d="m18.36 13.3c-1.33.72-4.74 2.52-5.08 4.29"/><path d="m19.31 17.14a6.53 6.53 0 0 1 1.54-1.8"/><path d="m17.13 25.58a4.67 4.67 0 0 1 .61-1.07c.24-.19 1.43-1 1.43-1l.14-4.43c-.66-.67-3.34-.5-4-.31 0 0 1.63 2 2.15 2.06s1.84 0 1.84 0"/><path d="m22.53 25.27a9.32 9.32 0 0 0 -2.58.52"/><path d="m21 25.49c-.14 1.58.88 2.65 1.54 2.65"/><path d="m22.21 14.18a9.19 9.19 0 0 1 3.86-.88s2.71-4.87 6.32-2.15c3.19 2.4-.07 6-1.24 6.44a10.13 10.13 0 0 1 -.15 4.58l1.14-.06a4 4 0 0 1 -.82 2.12c-.66.56-2.15 1.64-2.09 2.52a4.85 4.85 0 0 1 -.66 3.19 26.35 26.35 0 0 1 -1.77 2.28"/><path d="m34.94 29.15a22.11 22.11 0 0 0 -10.17-1.67"/><path d="m34.25 32.78c-1.42-1.35-6-3.94-9.48-5.3"/><path d="m26.07 13.3c1.32.72 4.74 2.52 5.08 4.29"/><path d="m25.12 17.14a6.53 6.53 0 0 0 -1.54-1.8"/><path d="m27.3 25.58a4.42 4.42 0 0 0 -.62-1.07c-.23-.19-1.42-1-1.42-1l-.14-4.43c.66-.67 3.34-.5 4.05-.31 0 0-1.63 2-2.15 2.06s-1.84 0-1.84 0"/><path d="m21.9 25.27a9.32 9.32 0 0 1 2.58.52"/><path d="m23.44 25.49c.14 1.58-.88 2.65-1.54 2.65"/><path d="m8.66 10.58.92-1.42 3.63-2.37 1.55-.35 3.7 2.66.85-1.72 3.19.2.28 2.24 2.25-.91 3.78-2.57 3.55 1.97"/><path d="m25.92 5.56-.52 3.08"/><path d="m34.61 9.3s.85 2.94 1 3.55a6.62 6.62 0 0 1 .24 1.24"/><path d="m36.51 16.55a28.56 28.56 0 0 1 3.08 2.94c.71.8.71 1 .71 1"/><path d="m36.89 21.46a34.12 34.12 0 0 1 3.92 1.63c.25.28 1.19 1.75 1.19 1.75"/><path d="m42 27.48c.19 1.39 1 4.75 1 5.91"/><path d="m37.88 27.68a14.13 14.13 0 0 0 1.33 3.32"/><path d="m34 22.9c.19.66.95 2.38 1 2.59"/><path d="m38.02 33.58.88 1.57.9.4"/><path d="m34.45 35.79a12.33 12.33 0 0 0 2.7 1.84"/><path d="m31.6 36.71a8.61 8.61 0 0 0 1 2"/><path d="m29 37.73a8.36 8.36 0 0 0 .51 3.27"/><path d="m25.66 39a12.54 12.54 0 0 0 .34 2.54"/><path d="m22.68 39.53c.25.57.18 2.68-.15 2.91"/><path d="m19 39.72a7.79 7.79 0 0 0 .66 2.39"/><path d="m15.26 37.18c.31.48.92 1.45.71 2.18"/><path d="m12 35.55a6.59 6.59 0 0 0 .1 2.72"/><path d="m7.21 40.91c.54-.45 2-1.38 2-1.38"/></g></svg>