<svg viewBox="0 0 48 48" xmlns="http://www.w3.org/2000/svg"><g fill="none" stroke="#000" stroke-linecap="round" stroke-linejoin="round"><path d="m7.5 5.5h33a2 2 0 0 1 2 2v33a2 2 0 0 1 -2 2h-33a2 2 0 0 1 -2-2v-33a2 2 0 0 1 2-2z"/><path d="m5.5378 34.4508c4.5423-2.3052 4.5423-2.343 6.6132-2.6831-.9447 1.2546-2.0217 2.0482-1.5872 4.497 2.566.5328 5.0185-1.4625 7.2557-2.2145-.6727.8692-1.761 2.6642-.4346 3.0232a4.7688 4.7688 0 0 0 2.2447-.3892"/><path d="m23.6664 33.5693-2.8343 2.0435.9192-3.3245"/><path d="m31.7973 22.1872-8.1309 11.3821-1.9151-1.281 7.3392-11.8283m0 0 7.4011-10.3843a2.1485 2.1485 0 0 1 1.8409 1.1471l-6.5352 10.9644z"/><path d="m37.7511 12.31c.3175 2.6772-2.412 6.9445-3.5459 9.0863"/></g></svg>