<svg viewBox="0 0 48 48" xmlns="http://www.w3.org/2000/svg"><g fill="none" stroke="#000" stroke-linecap="round" stroke-linejoin="round" stroke-width="1.05"><path d="m5.5 40.55a2 2 0 0 0 2 2h33.1a2 2 0 0 0 2-2v-33.1a2 2 0 0 0 -2-1.95h-33.15a2 2 0 0 0 -1.95 2z"/><path d="m24 35.44a1.2 1.2 0 0 1 -1-.44l-7.55-9.84a1.23 1.23 0 0 1 -.13-1.28 1.22 1.22 0 0 1 1.1-.68h3l-6.63-8.64a1.24 1.24 0 0 1 -.13-1.28 1.22 1.22 0 0 1 1.1-.68h20.46a1.22 1.22 0 0 1 1.1.68 1.24 1.24 0 0 1 -.13 1.28l-6.63 8.64h3a1.22 1.22 0 0 1 1.1.68 1.23 1.23 0 0 1 -.13 1.28l-7.53 9.84a1.2 1.2 0 0 1 -1 .44z"/></g></svg>