<svg viewBox="0 0 48 48" xmlns="http://www.w3.org/2000/svg"><g fill="none" stroke="#000" stroke-linecap="round" stroke-linejoin="round"><circle cx="25.7588" cy="24" r="7.7056"/><path d="m12.1793 24a15.8182 15.8182 0 0 0 27.1589 0"/><path d="m39.3382 24a15.8182 15.8182 0 0 0 -27.1589 0"/><path d="m41.32 24a9.0348 9.0348 0 0 0 -.3554-2.4844l4.2941-2.8606-2.0941-3.8074-5.7222 1.4063a15.2114 15.2114 0 0 0 -3.2049-2.1023l.8684-5.1416-4.7591-1.46-3.6777 4.73c-.3029-.0133-.603-.0347-.91-.0347s-.6074.0214-.91.0347l-3.6783-4.73-4.7591 1.46.8682 5.1419a15.2114 15.2114 0 0 0 -3.2049 2.1023l-5.7222-1.4066-2.094 3.8074 4.294 2.8607a8.86 8.86 0 0 0 0 4.9687l-4.294 2.8607 2.094 3.8073 5.7222-1.4063a15.2114 15.2114 0 0 0 3.205 2.1023l-.8683 5.1416 4.7591 1.46 3.6777-4.7305c.3029.0133.6029.0347.91.0347s.6074-.0214.91-.0347l3.6783 4.7305 4.7591-1.46-.8683-5.1419a15.2114 15.2114 0 0 0 3.2049-2.1023l5.7222 1.4063 2.0941-3.8073-4.2942-2.8607a9.0349 9.0349 0 0 0 .3554-2.4841z"/></g></svg>