<svg viewBox="0 0 48 48" xmlns="http://www.w3.org/2000/svg"><path d="m25.47 27.06c0 4-3 6.27-6.79 5.11a10.31 10.31 0 0 1 -6.79-9.31c0-4 3-6.28 6.79-5.12a10.32 10.32 0 0 1 6.79 9.32zm-2.38-.84a3.45 3.45 0 0 1 -2.19 3.4 4.56 4.56 0 0 1 -4.37-1 5.92 5.92 0 0 1 -2.18-4.41m7.34-.76a.69.69 0 0 1 -1 .71 1.43 1.43 0 0 1 -.95-1.3.7.7 0 0 1 .95-.72 1.46 1.46 0 0 1 1 1.3zm-4.13-1.06a.7.7 0 0 1 -.95.72 1.45 1.45 0 0 1 -.95-1.3.7.7 0 0 1 .95-.72 1.44 1.44 0 0 1 .95 1.29zm-.76-13.96.2 4.92m17.25 2.65-.47 23.53m-29.28-27.94 12.3-3.16 26.7 2.93m-39 .23 2.11 19.78 27.17 8.2 9.13-8 .59-20.25-9.25 4.68z" fill="none" stroke="#000" stroke-linecap="round" stroke-linejoin="round"/></svg>