<svg viewBox="0 0 48 48" xmlns="http://www.w3.org/2000/svg"><g fill="none" stroke="#000" stroke-linecap="round" stroke-linejoin="round"><path d="m40.5 42.5h-33a2 2 0 0 1 -2-2v-33a2 2 0 0 1 2-2h33a2 2 0 0 1 2 2v33a2 2 0 0 1 -2 2z"/><path d="m10.15 18.5v11"/><path d="m22.92 18.5h5.5"/><path d="m22.92 24h3.57"/><path d="m22.92 18.5v11"/><path d="m12.92 29.5v-11h3.6a3.7 3.7 0 0 1 0 7.39h-3.6"/><path d="m30.78 28.29a3.07 3.07 0 0 0 2.69 1.21h1.63a2.75 2.75 0 0 0 2.75-2.75 2.75 2.75 0 0 0 -2.75-2.75h-1.8a2.75 2.75 0 0 1 -2.74-2.75 2.75 2.75 0 0 1 2.74-2.75h1.63a3.08 3.08 0 0 1 2.7 1.21"/></g></svg>