<svg viewBox="0 0 48 48" xmlns="http://www.w3.org/2000/svg"><g fill="none" stroke="#000" stroke-linecap="round" stroke-linejoin="round"><path d="m4.9968 15.1177 3.864-6.693 29.8755-.1532 4.5637 7.0449z"/><path d="m4.9968 15.1177v2.0838l38.3032.0013v-1.8864m-2.002 1.8864 2.202 9.3272-17.12.1m-3.4436 0h-18.4364l2.0838-9.4268m-2.0838 9.4268 2.1832 9.4267 6.68.0315m21.1061.25 6.45-.0826 2.5807-9.7256m-31.6072-9.3272 12.5536 10.7157 11.908-7.9377-3.3544-2.7783m-19.7674 11.9083.1987 10.6177 21.038-.2981v-10.32"/><path d="m13.2735 31.294h-2.5221l-.1987-2.1832h26.9926l-.1987 2.1832h-2.8773m-19.1529 5.9043 11.3136-.1983m-11.3136-2.44h11.3136m-11.3136-2.82 11.3136-.099"/></g></svg>