<svg viewBox="0 0 48 48" xmlns="http://www.w3.org/2000/svg"><g fill="none" stroke="#000" stroke-linecap="round" stroke-linejoin="round"><path d="m11.86 24.24v15h24.28v-15z"/><path d="m7.5 8.76h33a3 3 0 0 1 3 3v2.0578a0 0 0 0 1 0 0h-39a0 0 0 0 1 0 0v-2.0578a3 3 0 0 1 3-3z"/><path d="m4.5 13.8178v13.7822a3 3 0 0 0 3 3h4.36"/><path d="m36.14 30.6h4.36a3 3 0 0 0 3-3v-13.7822"/><circle cx="18.1542" cy="31.74" r="3.455"/><path d="m25.0514 31.74h7.6963"/><path d="m25.0514 34.1015h4.9626"/><path d="m25.0514 29.3785h7.6963"/></g></svg>