<svg viewBox="0 0 48 48" xmlns="http://www.w3.org/2000/svg"><g fill="none" stroke="#000" stroke-linecap="round" stroke-linejoin="round"><path d="m29.1054 42.5c2.4982-.4014 6.8851-.0414 8.66-5.2954m-.193-18.7456c-.8734-2.1281-2.52-2.998-5.612-3.176-5.5822-.3212-18.3095 1.47-22.9566 2.83-3.2708.9578-3.2738 4.9029-3.2738 4.9029"/><path d="m9.8595 23.2429.598 11.5682"/><path d="m13.6792 34.638-.597-11.568 3.7183-.2a3.91 3.91 0 0 1 .4028 7.8088l-3.7182.2"/><path d="m23.885 22.4897 7.5788-.4069"/><path d="m28.3433 33.8511-.5981-11.5682"/><path d="m42.27 21.505-3.121 11.768-4.459-11.361"/><path d="m20.34 16.0407-4.6822-8.0651"/><path d="m22.11 15.772 1.8188-7.4109"/><circle cx="15.0147" cy="6.8216" r="1.3216"/><circle cx="24.3426" cy="7.1057" r="1.3216"/></g></svg>