<svg viewBox="0 0 48 48" xmlns="http://www.w3.org/2000/svg"><g fill="none" stroke="#000" stroke-linecap="round" stroke-linejoin="round"><path d="m24.22 27.81h.28a0 0 0 0 1 0 0v15.69a0 0 0 0 1 0 0h-6.28a0 0 0 0 1 0 0v-9.69a6 6 0 0 1 6-6z"/><path d="m24.49 14.9v6.27h6.09a3.32 3.32 0 0 1 3.32 3.32 3.31 3.31 0 0 1 -3.32 3.32h-6.09v6.28h6.09a9.6 9.6 0 0 0 9.6-9.6 9.59 9.59 0 0 0 -9.6-9.59z"/><path d="m18.22 14.9h6.28v6.28h-6.28z"/><path d="m11.96 8.63h3.53v3.53h-3.53z"/><path d="m7.82 4.5h2.19v2.19h-2.19z"/><path d="m12.63 4.5h2.19v2.19h-2.19z"/><path d="m7.82 9.31h2.19v2.19h-2.19z"/><path d="m11.96 14.9h3.53v3.53h-3.53z"/><path d="m18.22 8.63h3.53v3.53h-3.53z"/></g></svg>