<svg viewBox="0 0 48 48" xmlns="http://www.w3.org/2000/svg"><g fill="none" stroke="#000" stroke-linecap="round" stroke-linejoin="round"><path d="m8.7473 19.4515c5.7918-4.9008 18.6227-6.8615 27.8008-5.7915"/><path d="m28.9739 13.4323c-3.0293 0-12.9945 3.2811-18.5636 9.4294"/><path d="m33.0281 13.4032c0-6.471-4.4549-8.9214-8.1528-8.9214s-9.1778 3.787-9.1778 7.6182c2.7177-3.1305 4.678-4.0988 6.95-4.0988a5.9692 5.9692 0 0 1 5.8191 5.4562"/><path d="m27.6636 40.6318c-7.14-2.5654-15.2534-12.6974-18.9163-21.18"/><path d="m12.3374 26.1246c1.5147 2.6235 9.3388 9.6131 17.4479 11.3619"/><path d="m10.2851 22.6282c-5.604 3.2355-5.4986 8.3187-3.65 11.5212s7.8685 6.0547 11.1867 4.139c-4.07-.7883-5.8887-2.0019-7.0248-3.97a5.9692 5.9692 0 0 1 1.8156-7.7675"/><path d="m36.5481 13.66c1.3483 7.4663-3.37 19.5585-8.8845 26.9721"/><path d="m31.6475 34.1861c1.5094-2.6142 3.6142-12.9049 1.1158-20.7913"/><path d="m29.6457 37.7117c5.604 3.2354 9.9536.6026 11.8025-2.6s1.3093-9.8417-2.0089-11.7575c1.3523 3.9189 1.2107 6.1007.0746 8.0685a5.9692 5.9692 0 0 1 -7.6347 2.3114"/><path d="m19.0389 18.7387h11.4946v11.4946h-11.4946z"/><path d="m23.8951 18.7387a3.4863 3.4863 0 0 1 3.4863 3.4862 3.4863 3.4863 0 0 1 -3.4863 3.4863l4.2771 4.5221"/></g></svg>