<svg viewBox="0 0 48 48" xmlns="http://www.w3.org/2000/svg"><g fill="none" stroke="#000" stroke-linecap="round" stroke-linejoin="round"><path d="m25.4643 33.8681a8.6867 8.6867 0 1 1 8.6868-8.6867 8.6962 8.6962 0 0 1 -8.6868 8.6867z"/><path d="m25.3958 36.4861a11.4169 11.4169 0 1 0 -11.4168-11.4169 11.43 11.43 0 0 0 11.4168 11.4169m-1.3958-31.9861a17.2186 17.2186 0 1 0 17.2186 17.2186 17.2184 17.2184 0 0 0 -17.2186-17.2186z"/><path d="m30.81 37.537a38.8174 38.8174 0 0 1 6.8825 5.3455 3.3056 3.3056 0 0 1 -.5579.4507 49.8776 49.8776 0 0 0 -12.4633-1.4 53.8223 53.8223 0 0 0 -13.3907 1.5668c-.411-.2472-.7416-.4666-.9789-.6374 1.0444-1.0543 5.8514-4.8481 7.1013-5.2353"/></g></svg>