<svg viewBox="0 0 48 48" xmlns="http://www.w3.org/2000/svg"><g fill="none" stroke="#000" stroke-linecap="round" stroke-linejoin="round"><path d="m30.79 24.79-3.48.64-2.76 4.55-.56-6.93-7.15-3.4-1.19.31.94-4.81 1.45 2.82 5.44 2.13 4.33-2.51-7.08-6.32-4.7-.44-5.83 6.35 1.26 7.68 3.63 4.51-.31 4.77-3.32 5.76 6.73 3.6 8.99-.78 3.01-7.96 5.45-6.45-.06-5.86"/><path d="m22.92 13.23.19-8.42-5.07-.31-2.01 6.33"/><path d="m26.52 16.44 3.29-7.99-4.7-2.26-2.12 4.01"/><path d="m29.21 9.92 4.93 4.04-1.7 3.51-4.19 4.32-3.8-2.25"/><path d="m28.71 21.31 2.61 4.37 6.48-4.91-4.64-4.78"/></g></svg>