<svg viewBox="0 0 48 48" xmlns="http://www.w3.org/2000/svg"><g fill="none" stroke="#000" stroke-linecap="round" stroke-linejoin="round"><rect height="39" rx="1.95" width="31.2" x="8.4" y="4.5"/><path d="m11.4 8.5h3.61"/><path d="m11.4 13.32h3.61"/><path d="m11.4 18.14h3.61"/><path d="m18.6 8.5h3.6"/><path d="m18.6 13.32h3.6"/><path d="m18.6 18.14h3.6"/><path d="m25.8 8.5h3.6"/><path d="m25.8 13.32h3.6"/><path d="m25.8 18.14h3.6"/><path d="m32.99 8.5h3.61"/><path d="m32.99 13.32h3.61"/><path d="m32.99 18.14h3.61"/><path d="m11.4 25.04h3.61"/><path d="m11.4 29.86h3.61"/><path d="m11.4 34.68h3.61"/><path d="m11.4 39.5h3.61"/><path d="m18.6 25.04h3.6"/><path d="m18.6 29.86h3.6"/><path d="m18.6 34.68h3.6"/><path d="m18.6 39.5h3.6"/><path d="m25.8 25.04h3.6"/><path d="m25.8 29.86h3.6"/><path d="m25.8 34.68h3.6"/><path d="m25.8 39.5h3.6"/><path d="m32.99 25.04h3.61"/><path d="m32.99 29.86h3.61"/><path d="m32.99 34.68h3.61"/><path d="m32.99 39.5h3.61"/></g></svg>