<svg viewBox="0 0 48 48" xmlns="http://www.w3.org/2000/svg"><g fill="none" stroke="#000" stroke-linecap="round" stroke-linejoin="round"><path d="m24.6479 39.375c-3.7287.86-6.9058-8.8734-7.8643-14.2872s-1.45-15.8255 2.5371-16.4853 6.8816 9.4034 7.7851 14.8087 1.2709 15.1038-2.4579 15.9638z"/><path d="m4.5476 19.785c.9176-3.6 14.3889-3.429 21.1783-1.9568s18.6376 6.4469 17.7241 10.1293-13.4946 4.1593-20.37 2.7725-19.45-7.345-18.5324-10.945z"/><path d="m8.41 30.159c-1.172-2.4763 6.9472-8.58 11.6924-10.7275s14.1592-4.1439 15.2934-1.65-6.368 8.2345-11.0837 10.4449-14.73 4.4089-15.9021 1.9326z"/><path d="m28.4082 12.1737c2.1574 1.405-.5381 9.9078-2.8024 14.1s-8.0749 11.02-10.1627 9.8329.7169-10.3366 3.0205-14.5056 7.7873-10.8322 9.9446-9.4273z"/></g><circle cx="22.0474" cy="24.0892" r=".8"/></svg>