<svg viewBox="0 0 48 48" xmlns="http://www.w3.org/2000/svg"><path d="m5.5 19.6v20.9a2 2 0 0 0 2 2h33a2 2 0 0 0 2-2v-33a2 2 0 0 0 -2-2h-33a2 2 0 0 0 -2 2z" fill="none" stroke="#000" stroke-linecap="round" stroke-linejoin="round"/><circle cx="17.0287" cy="17.5678" r=".75"/><path d="m17.0287 21.4524v9.7298" fill="none" stroke="#000" stroke-linecap="round" stroke-linejoin="round"/><circle cx="30.9713" cy="17.5678" r=".75"/><g fill="none" stroke="#000" stroke-linecap="round" stroke-linejoin="round"><path d="m30.9713 21.4524v9.7298"/><path d="m23.9672 17.4893v11.2907a2.4019 2.4019 0 0 0 2.4018 2.4019h.721"/><path d="m21.4452 21.4523h5.0439"/></g></svg>