<svg viewBox="0 0 48 48" xmlns="http://www.w3.org/2000/svg"><g fill="none" stroke="#000" stroke-linejoin="round"><path d="m24.11 27.48-3.36-5.96-3.34 5.96z"/><path d="m37.69 34.33 5.81-3.43-5.81-3.45z"/><path d="m37.69 27.44 5.81 3.45v-6.88z"/><path d="m27.5 33.44 3.34-5.96h-6.7z"/><path d="m27.48 21.52-3.34 5.96h6.7z"/><path d="m30.84 27.45 3.37-5.96h-6.73z"/><path d="m37.69 20.56 5.81-3.42v-.03l-5.81-3.42z"/><path d="m37.69 27.44v.02l5.81-3.45-5.81-3.45z"/><path d="m4.5 20.55 5.81-3.42v-.03l-5.81-3.42z"/><path d="m4.5 27.42v.03l5.81-3.45-5.81-3.45z"/><path d="m20.76 33.44h6.73l-3.36-5.96z"/><path d="m17.41 27.48 3.37 5.96 3.33-5.96z"/><path d="m14.06 21.49 3.37 5.96 3.33-5.96z"/><path d="m4.5 34.32 5.81-3.42-5.81-3.45z"/><path d="m10.31 30.89v-6.88l-5.81 3.43z"/></g></svg>