<svg viewBox="0 0 48 48" xmlns="http://www.w3.org/2000/svg"><g fill="none" stroke="#000" stroke-linecap="round" stroke-linejoin="round"><path d="m10.4568 18.5734h1.628"/><path d="m12.0848 18.5734-1.9137 10.8532"/><path d="m21.2085 29.4266 1.9137-10.8532h3.5531a2.9714 2.9714 0 0 1 2.9944 3.645 4.5324 4.5324 0 0 1 -4.28 3.6449h-3.5529"/><path d="m30.353 29.427 1.914-10.854 5.276 10.854 1.914-10.854"/><path d="m21.195 18.573-5.509 10.854-1.681-10.854"/><path d="m5.5 19.6v20.9a2 2 0 0 0 2 2h33a2 2 0 0 0 2-2v-33a2 2 0 0 0 -2-2h-33a2 2 0 0 0 -2 2z"/></g></svg>