<svg viewBox="0 0 48 48" xmlns="http://www.w3.org/2000/svg"><g fill="none" stroke="#000" stroke-linejoin="round"><g stroke-linecap="round"><path d="m42.1206 26.6093s-8.5406 2.6346-18.9046-16.6299h-2.09v-2.8179h-11.7281v3.1067h-1.1713s-1.7851-.74-3.5073 8.2075v10.3171s.1432 4.5994 2.8479 4.9328 34.2654 0 34.2654 0 2.7355-2.8631.2888-7.1165z"/><path d="m26.785 21.1872a1.42 1.42 0 0 1 1.42 1.42v3.1542a1.42 1.42 0 0 1 -2.84 0v-3.1544a1.42 1.42 0 0 1 1.42-1.4198z"/><path d="m31.17 24.58a1.2215 1.2215 0 0 1 1.2215 1.2214v2.2837a1.2215 1.2215 0 0 1 -2.4429 0v-2.2835a1.2214 1.2214 0 0 1 1.2214-1.2216z"/><path d="m35.169 26.8359a1.0424 1.0424 0 0 1 1.0424 1.0424v1.5336a1.0424 1.0424 0 1 1 -2.0847 0v-1.5336a1.0423 1.0423 0 0 1 1.0423-1.0424z"/><path d="m38.9721 28.1956a.8379.8379 0 0 1 .8379.838v1.2744a.838.838 0 0 1 -1.6759 0v-1.2744a.838.838 0 0 1 .838-.838z"/><circle cx="9.015" cy="25.9631" r="2.3535"/><circle cx="19.0809" cy="25.9631" r="2.3535"/><path d="m18.1481 13.2649a3.1759 3.1759 0 1 1 0 6.3517"/><path d="m10.8182 13.2649a3.1759 3.1759 0 1 0 0 6.3517h7.33"/><path d="m18.1481 13.2649h-7.33"/></g><path d="m42.4115 35.8955a.9853.9853 0 0 1 1.0885 1.0886c0 1.1977-.4607 1.06-.4607 1.06h-1.18c-12.597 0-18.0413 2.7942-18.0413 2.7942h-19.318v-2.2269h2.0213v-2.42h5.4372v2.321h7.9766v-2.6169z"/></g></svg>