<svg viewBox="0 0 48 48" xmlns="http://www.w3.org/2000/svg"><g fill="none" stroke="#000" stroke-linecap="round" stroke-linejoin="round"><path d="m40 5.5h-33a2 2 0 0 0 -2 2v33a2 2 0 0 0 2 2h33a2 2 0 0 0 2-2v-33a2 2 0 0 0 -2-2z"/><path d="m25.5 9v19.77h9.89"/><path d="m12.61 9h9.89v14.83a5 5 0 0 1 -4.95 4.94 4.94 4.94 0 0 1 -4.94-4.94v-1.64"/><path d="m30.1 38.98h3.61"/><path d="m30.1 31.77h3.61"/><path d="m30.1 35.38h2.35"/><path d="m30.1 31.77v7.21"/><path d="m20.93 38.99v-7.2l3.6 7.21 3.61-7.2v7.2"/><path d="m14.29 34.18a2.39 2.39 0 0 1 4.78 0 2.24 2.24 0 0 1 -.7 1.69c-1 .85-4.08 3.13-4.08 3.13h4.78"/></g></svg>