<svg viewBox="0 0 48 48" xmlns="http://www.w3.org/2000/svg"><g fill="none" stroke="#000" stroke-linecap="round" stroke-linejoin="round"><path d="m13.7277 30.0309h8.9027v8.9027h-8.9027z"/><path d="m16.1245 32.4278h4.1089v4.1089h-4.1089z"/><path d="m25.3696 18.3889h8.9027v8.9027h-8.9027z"/><path d="m27.7665 20.7858h4.1089v4.1089h-4.1089z"/><rect height="6.0837" rx="1.064" width="13.4566" x="17.453" y="4.5"/><path d="m14.4313 7.6426h-5.52v35.8574h30.177v-35.8574h-5.2783v2.6591c0 2.1789-1.1085 3.2231-2.6993 3.2231h-13.8591c-1.6843 0-2.82-.6669-2.82-2.82z"/><path d="m13.7277 18.3889h8.9027v8.9027h-8.9027z"/><path d="m16.1245 20.7858h4.1089v4.1089h-4.1089z"/><path d="m25.3696 36.103h2.9676v2.9676h-2.9676z"/><path d="m28.3372 32.9941h2.9676v2.9676h-2.9676z"/><path d="m31.3048 36.103h2.9676v2.9676h-2.9676z"/><path d="m25.3696 30.1678h2.9676v2.9676h-2.9676z"/><path d="m31.3048 30.1678h2.9676v2.9676h-2.9676z"/></g></svg>