<svg viewBox="0 0 48 48" xmlns="http://www.w3.org/2000/svg"><g fill="none" stroke="#000" stroke-linecap="round" stroke-linejoin="round"><path d="m8.3313 15.6878 4.9228 12.34a4.424 4.424 0 0 1 -2.4641 5.7512 4.4239 4.4239 0 0 1 -5.7455-2.4761l-.5445-1.366"/><path d="m23.413 17.473 7.184-2.866-3.387 12.385 7.184-2.866"/><path d="m32.519 11.818 7.184-2.866-3.387 12.384 7.184-2.866"/><path d="m22.8685 24.15a3.8671 3.8671 0 0 1 -2.1591 5.0248 3.8671 3.8671 0 0 1 -5.0248-2.159l-.9314-2.3348a3.8672 3.8672 0 0 1 2.1591-5.0248 3.8671 3.8671 0 0 1 5.0248 2.1591"/><path d="m24.3014 27.7422-3.7972-9.5187"/><path d="m25.178 33.168.324 5.169-3.201-4.072.323 5.169-3.2-4.072"/><rect height="4.9452" rx="1.8661" transform="matrix(.93438243 -.35627163 .35627163 .93438243 -10.3112 12.6294)" width="3.7322" x="27.2642" y="31.8347"/><path d="m32.3946 32.4135a1.8662 1.8662 0 0 1 1.0789-2.4085"/><path d="m31.7298 30.6698 1.7618 4.6208"/><path d="m34.23 27.02 2.3269 6.1029a.9331.9331 0 0 0 1.2043.5394l.2615-.1"/><path d="m41.6114 28.8993a1.8662 1.8662 0 0 0 -2.4086-1.0788 1.866 1.866 0 0 0 -1.0788 2.4085l.4322 1.1334a1.8661 1.8661 0 0 0 2.4085 1.0788 1.8661 1.8661 0 0 0 1.0788-2.4085"/><path d="m42.7084 31.7763-2.6594-6.9746"/></g></svg>