<svg viewBox="0 0 48 48" xmlns="http://www.w3.org/2000/svg"><g fill="none" stroke="#000" stroke-linecap="round" stroke-linejoin="round"><path d="m8.3313 15.7309 4.9228 12.34a4.424 4.424 0 0 1 -2.4636 5.751h-.0005a4.424 4.424 0 0 1 -5.7455-2.4759l-.5445-1.366"/><path d="m23.413 17.516 7.184-2.866-3.387 12.385 7.184-2.866"/><path d="m32.519 11.861 7.184-2.866-3.387 12.384 7.184-2.866"/><path d="m22.8685 24.1931a3.867 3.867 0 0 1 -2.1585 5.0247 3.8672 3.8672 0 0 1 -5.0248-2.1589l-.9314-2.3348a3.8672 3.8672 0 0 1 2.1591-5.0248 3.867 3.867 0 0 1 5.0247 2.1589"/><path d="m24.3014 27.7853-3.7972-9.5187"/><path d="m35.2451 26.1808 2.8195 7.4867"/><path d="m36.9015 30.5793a2 2 0 0 1 1.1668-2.5766 2 2 0 0 1 2.5766 1.1673l1.163 3.0883"/><path d="m33.0018 35.0963a2.249 2.249 0 0 0 1.6969-.1612l.42-.1581a1.3237 1.3237 0 0 0 .77-1.706 1.3236 1.3236 0 0 0 -1.7043-.774l-.84.3163a1.3237 1.3237 0 0 1 -1.7043-.774 1.3236 1.3236 0 0 1 .77-1.706l.42-.1581a2.25 2.25 0 0 1 1.6969-.1613"/><path d="m25.5043 37.3213a1.9991 1.9991 0 0 1 -1.27 1.5547 2 2 0 0 1 -2.5765-1.1668l-.4582-1.2166a2 2 0 0 1 1.1668-2.5765 1.9991 1.9991 0 0 1 1.9772.3281"/><path d="m30.4852 34.3848a2 2 0 0 1 -1.1668 2.5765 2 2 0 0 1 -2.5765-1.1668l-.4582-1.2166a2 2 0 0 1 1.1668-2.5765 2 2 0 0 1 2.5766 1.1668"/><path d="m31.1901 36.2564-1.8679-4.9599"/></g></svg>