<svg viewBox="0 0 48 48" xmlns="http://www.w3.org/2000/svg"><g fill="none" stroke="#000" stroke-linecap="round" stroke-linejoin="round"><path d="m6.5249 30.1231a18.497 18.497 0 1 1 34.9487.0044"/><path d="m19.2312 40.4668a8.3328 8.3328 0 0 1 -10.7967-12.6953z"/><path d="m28.7688 40.4668a8.3328 8.3328 0 1 0 10.7967-12.6953z"/><path d="m25.1055 20.6363a2.5249 2.5249 0 1 1 0 5.05h-4.1655v-10.0996h4.166a2.5249 2.5249 0 1 1 0 5.05z"/><path d="m25.1055 20.6363h-4.1657"/><path d="m18.3692 15.5862v7.5746a2.5323 2.5323 0 0 1 -2.5249 2.5249 2.5324 2.5324 0 0 1 -2.5249-2.5249v-.8837"/><path d="m30.0128 15.5862v10.0993h5.05"/></g></svg>