<svg viewBox="0 0 48 48" xmlns="http://www.w3.org/2000/svg"><g fill="none" stroke="#000" stroke-linecap="round" stroke-linejoin="round"><path d="m11.8499 23.5739h13.5967v6.9602h-13.5967z"/><path d="m5.733 30.534h-.669l-.564-1.654v-5.306h7.35v6.96h-.82"/><path d="m31.873 30.5341h1.7149l3.9447-.8033v-3.7529s-3.7888-2.404-12.086-2.404v6.96h1.1318"/><path d="m20.039 17.249h-6.918l-1.271 6.325h13.597l-.868-1.015z"/><path d="m43.5 27.1894v-3.7529s-3.7889-2.404-12.086-2.404"/><path d="m31.414 21.032-.868-1.014-4.539-5.31h-6.919"/><path d="m4.5 23.574v-1.889l8.621-4.436"/><circle cx="8.3805" cy="30.6425" r="2.6498"/><circle cx="29.2257" cy="30.6425" r="2.6498"/><path d="m20.0391 17.2492 5.9674-2.5415"/><path d="m13.1209 17.2492 5.9673-2.5415"/><path d="m25.4466 23.5739 5.9674-2.5414"/><path d="m37.5326 29.7308 5.9674-2.5414"/><path d="m37.5326 26.1154 5.9674-2.5415"/></g></svg>