<svg viewBox="0 0 48 48" xmlns="http://www.w3.org/2000/svg"><g fill="none" stroke="#000" stroke-linecap="round" stroke-linejoin="round"><path d="m23.7271 21.8521s-1.046-3.6685.8263-5.7488c0 0-3.4672-7.489 10.61-2.843 0 0 3.19-.2081 4.9928 1.1095 1.6121-2.54.883-7.3074 0-5.27 0 0-.6241-3.2592-1.6643-2.8431s-.5547 1.1788-.5547 1.1788-3.3285-4.4379-2.9125-1.1095c0 0-4.5407-3.9693-3.5365-.2032 0 0-3.6584-2.1879-2.69.3587 0 0-4.6986-2.3673-3.2281.4662 0 0-5.7268-.59-2.7847 2.166-1.7236-.6749-5.7342 2.7635-1.6987 3.5011 0 0-2.4748.61-.2869 3.228 0 0-.5 2.0133.4666 3.0718"/><path d="m23.201 23.2781s.1942 2.8745 1.3057 3.5493c0 0 6.6293 4.0491 12.1471 1.9452 0 0 1.9253-3.4139 2.0245-5.9545a10.5114 10.5114 0 0 1 1.4688-5.0018 4.2334 4.2334 0 0 0 .0086-3.4465"/><path d="m32.6842 21.1111c.368-1.0122 2.9348-1.2438 3.0566.3176.0858 1.1007-.8336 1.5085-1.8657 1.1115"/><path d="m36.5347 24.8029a14.0839 14.0839 0 0 0 -.5557 2.1833s-5.2-.3175-6.0339-.3572c0 0-.913-.5955-1.1512-3.4933a49.0479 49.0479 0 0 0 7.7408 1.6672z"/><path d="m23.554 25.5969a10.31 10.31 0 0 1 -2.58.4763c-1.1115 0 1.1512.9527 1.1512.9527s-.8733.9924-1.2306.9924a11.5888 11.5888 0 0 0 1.8657.5955l-.5557.9924 1.7863.2382-.6153 2.66"/><path d="m21.0531 28.058s-1.3894 1.1512-1.4291 2.223a17.3911 17.3911 0 0 0 .4367 3.1758s-1.6086.8093-.2382 3.85 5.1268-.2466 4.9223-2.0245"/><path d="m24.6107 33.11c.55.55.72 1.271.38 1.6109s-1.061.1695-1.6109-.38-.72-1.2711-.38-1.6109 1.0611-.17 1.6109.38z"/><path d="m23.2435 34.4178-.1442.1441"/><path d="m36.7431 29.2192a3.7531 3.7531 0 0 0 1.4192.3672c.5945.0517-1.0718.6351-1.35.7145s-.1191.5954.1389 1.1115-1.6275.5359-1.6275.5359a.6091.6091 0 0 0 .4168.6351c.4565.1191-1.1909.3573-1.1909.3573a1.0694 1.0694 0 0 0 -.3573.8336 3.3443 3.3443 0 0 1 -1.4787 3.8208"/><path d="m37.0229 31.6865s.6839.2.8824 1.49a1.6216 1.6216 0 0 1 .7075 1.0291m.4679 2.47c-.1721 3.6572-4.2778 2.2852-3.9668-.0726"/><path d="m39.0409 34.8446a1.0279 1.0279 0 1 1 -1.6183 1.1146 1.1965 1.1965 0 0 1 .0548-1.6525.8947.8947 0 0 1 .8536-.0508 1.6167 1.6167 0 0 1 .7099.5887z"/><path d="m32.5447 35.9233s.2807 2.3579-.3087 3.06c0 0-4.5192 2.33-3.2561-1.9649"/><path d="m22.6923 38.59a2.742 2.742 0 0 0 2.5543.3088 7.6143 7.6143 0 0 1 2.3579-2.1614"/><path d="m21.9063 38.8145s.87 3.93 2.8912.3087"/><path d="m28.5869 37.7478c-1.2468.6754-1.3918 4.2687 1.1789 2.1333"/><path d="m37.2464 36.1338-.407.3088"/><path d="m21.2659 18.9145c-6.39-3.0121-2.4526 8.5166 1.9351 4.3636"/><path d="m17.798 20.9524s-2.4612 1.4687-3.8506 8.9714a6.5978 6.5978 0 0 0 5.55 4.446"/><path d="m14.4634 31.1147-.516 1.35s.7542 3.1757 5.3193 3.3345"/><path d="m13.7489 29.13-2.2627-2.1833.1588 5.2-4.7556.3095 4.033 2.3979-3.3662 3.2472 5.8354.2859.6352 5.1128 2.5486-4.041 4.9146 3.2471-1.1831-3.0961.8969-1.0718"/></g></svg>