<svg viewBox="0 0 48 48" xmlns="http://www.w3.org/2000/svg"><g fill="none" stroke="#000" stroke-linecap="round" stroke-linejoin="round"><path d="m6.6562 19.2244h35.8438a0 0 0 0 1 0 0v19.548a3.6631 3.6631 0 0 1 -3.6631 3.6631h-28.5175a3.6631 3.6631 0 0 1 -3.6631-3.6631v-19.548a0 0 0 0 1 -.0001 0z"/><path d="m30.03 30.4162-7.7588-4.8683a.4884.4884 0 0 0 -.748.4137v9.7367a.4884.4884 0 0 0 .748.4137l7.7588-4.8683a.4885.4885 0 0 0 0-.8275z"/><path d="m37.521 5.9215-1.0563 4.2671-5.2247.9614 1.0559-4.267-5.4473 1.0024-1.0565 4.2671-5.2251.9615 1.0565-4.2671-5.4475 1.0024-1.056 4.2671-5.2253.9615 1.0564-4.2671-4.4511.8192a1.2209 1.2209 0 0 0 -.98 1.4218l1.1359 6.1728 35.2518-6.4869-1.1355-6.173a1.2211 1.2211 0 0 0 -1.4219-.98z"/></g></svg>