<svg viewBox="0 0 48 48" xmlns="http://www.w3.org/2000/svg"><g fill="none" stroke="#000" stroke-linecap="round" stroke-linejoin="round"><path d="m16.6665 14.9812a6.0749 6.0749 0 0 0 -9.3265-3.6089c2.2969-.0554 2.629 1.26 2.629 1.26s-6.3373-.457-5.3687 5.41a1.8968 1.8968 0 0 1 1.9372-.8025s-3.6714 4.9002 3.298 5.4524"/><circle cx="16.8602" cy="21.999" r="2.2692"/><path d="m24 37.7177c8.1 0 14.6671-4.4832 14.6671-11.7614 0-6.8907-6.5671-12.7022-14.6671-12.7022s-14.6671 5.8115-14.6671 12.7022c0 7.2782 6.5671 11.7614 14.6671 11.7614z"/><path d="m29.092 32.57s-1.273 1.8268-5.092 1.8268-5.092-1.8268-5.092-1.8268"/><path d="m24 30.7992a2.7826 2.7826 0 0 0 3.0441-2.795c0-1.2177-.4981-3.9574-3.0441-3.9574s-3.0441 2.74-3.0441 3.9574a2.7826 2.7826 0 0 0 3.0441 2.795z"/><path d="m31.3335 14.9812a6.0749 6.0749 0 0 1 9.3265-3.6089c-2.2969-.0554-2.629 1.26-2.629 1.26s6.3373-.457 5.3687 5.41a1.8968 1.8968 0 0 0 -1.9372-.8025s3.6718 4.901-3.2976 5.4531"/><circle cx="31.1398" cy="21.999" r="2.2692"/></g></svg>