<svg viewBox="0 0 48 48" xmlns="http://www.w3.org/2000/svg"><path d="m38.4317 4.4944h-14.4228l-.0089 5.4779h2.4787a.9962.9962 0 0 1 1 .995c.0019 3.7661.0084 17.1686.0084 21.8249 0 2.4608-1.8151 3.4321-3.7911 3.4321-2.4178 0-7.2518-1.9777-7.2518-5.5467a3.9737 3.9737 0 0 1 4.2333-4.2691 6.5168 6.5168 0 0 1 3.2954 1.0568v-7.1692a14.6734 14.6734 0 0 0 -4.4756-.6537c-5.8628 0-9.929 4.9033-9.929 11.1556 0 6.8972 5.2718 12.7077 14.5786 12.7077 5.6651 0 10.8066-3.8479 10.8066-10.77v-21.7634a1 1 0 0 1 1-1h2.4782z" fill="none" stroke="#000" stroke-linecap="round" stroke-linejoin="round"/></svg>