<svg viewBox="0 0 48 48" xmlns="http://www.w3.org/2000/svg"><g fill="none" stroke="#000" stroke-linecap="round" stroke-linejoin="round"><path d="m12.73 4.5v39h24.73a2 2 0 0 0 2-2v-24.18l5.61-6.32a1 1 0 0 0 -.07-1.37l-1.77-1.57a1 1 0 0 0 -1.39.08l-2.38 2.68v-4.32a2 2 0 0 0 -2-2zm19.27 14.68 3.23 2.87-3.77 4.24-3 3.35-2.4 2.7-2.49 2.81-5.67 3.18 2.49-6 2.49-2.8 5.39-6 .24-.28z"/><path d="m39.46 10.82-7.43 8.36"/><path d="m35.26 22.05 4.2-4.73"/><path d="m8.4 6.45v35.1a2 2 0 0 0 1.95 2h2.38v-39.05h-2.38a2 2 0 0 0 -1.95 1.95z"/></g></svg>