<svg viewBox="0 0 48 48" xmlns="http://www.w3.org/2000/svg"><g fill="none" stroke="#000" stroke-linecap="round" stroke-linejoin="round"><path d="m40.5 5.5h-33a2 2 0 0 0 -2 2v33a2 2 0 0 0 2 2h33a2 2 0 0 0 2-2v-33a2 2 0 0 0 -2-2z"/><circle cx="18.2574" cy="21.3861" r="3.637"/><path d="m9.5 17.7492h2.967v9.7624a2.7642 2.7642 0 0 1 -2.7452 2.7829q-.111.0008-.2218-.0074"/><path d="m24.3341 17.7492v5.1528c0 1.4512 2.1065 3.94 5.4563 1.1162"/><path d="m29.79 17.7492v9.8581c0 3.6369-5.4563 3.0627-5.4563.4785"/><path d="m32.6617 17.7492v7.5569"/><path d="m32.6617 20.6205c1.5314-2.8713 5.8383-4.307 5.8383-1.0528v5.7384"/></g></svg>