<svg viewBox="0 0 48 48" xmlns="http://www.w3.org/2000/svg"><g fill="none" stroke="#000" stroke-linecap="round" stroke-linejoin="round"><path d="m7.5 5.5a2 2 0 0 0 -2 2v33a2 2 0 0 0 2 2h33a2 2 0 0 0 2-2v-33a2 2 0 0 0 -2-2z"/><path d="m10.5 23.0908v10.8192c0 2.7187 5.271 5.6594 10.1536 0"/><path d="m21.042 16.0644v10.8194c0 2.7188 5.271 5.6594 10.1536 0"/><path d="m16.2842 22.73a9.25 9.25 0 0 1 2.802 1.9142"/><path d="m15.0307 24.3762a9.25 9.25 0 0 1 2.8019 1.9138"/><path d="m32.2359 10.8565v8.822c0 4.1821-4.7439 4.14-4.7439 1.3732 0-3.4122 5.7635-1.7061 10.008.3745"/><path d="m32.2359 14.7265a15.1872 15.1872 0 0 0 4.7023-.3953"/></g></svg>