<svg viewBox="0 0 48 48" xmlns="http://www.w3.org/2000/svg"><g fill="none" stroke="#000" stroke-linecap="round" stroke-linejoin="round"><path d="m42.3 21.22h-2.1a.58.58 0 0 1 -.57-.47 15.72 15.72 0 0 0 -2.27-5.5.56.56 0 0 1 .07-.74l1.48-1.51a1.19 1.19 0 0 0 0-1.67l-2.24-2.24a1.19 1.19 0 0 0 -1.67 0l-1.49 1.48a.56.56 0 0 1 -.74.07 15.72 15.72 0 0 0 -5.5-2.27.58.58 0 0 1 -.47-.57v-2.1a1.19 1.19 0 0 0 -1.19-1.2h-3.2a1.19 1.19 0 0 0 -1.19 1.2v2.1a.58.58 0 0 1 -.47.57 15.72 15.72 0 0 0 -5.5 2.27.56.56 0 0 1 -.74-.07l-1.51-1.48a1.19 1.19 0 0 0 -1.67 0l-2.24 2.24a1.19 1.19 0 0 0 0 1.67l1.48 1.49a.56.56 0 0 1 .07.74 15.72 15.72 0 0 0 -2.27 5.5.58.58 0 0 1 -.57.47h-2.1a1.19 1.19 0 0 0 -1.2 1.19v3.18a1.19 1.19 0 0 0 1.2 1.19h2.1a.58.58 0 0 1 .57.47 15.72 15.72 0 0 0 2.27 5.5.56.56 0 0 1 -.07.74l-1.48 1.53a1.19 1.19 0 0 0 0 1.67l2.24 2.24a1.19 1.19 0 0 0 1.67 0l1.49-1.48a.56.56 0 0 1 .74-.07 15.72 15.72 0 0 0 5.5 2.27.58.58 0 0 1 .47.57v2.1a1.19 1.19 0 0 0 1.19 1.2h3.18a1.19 1.19 0 0 0 1.19-1.2v-2.1a.58.58 0 0 1 .47-.57 15.72 15.72 0 0 0 5.5-2.27.56.56 0 0 1 .74.07l1.53 1.48a1.19 1.19 0 0 0 1.67 0l2.24-2.24a1.19 1.19 0 0 0 0-1.67l-1.48-1.49a.56.56 0 0 1 -.07-.74 15.72 15.72 0 0 0 2.27-5.5.58.58 0 0 1 .57-.47h2.1a1.19 1.19 0 0 0 1.2-1.19v-3.2a1.19 1.19 0 0 0 -1.2-1.19zm-17.9 11.92a.6.6 0 0 1 -.84 0l-6.83-6.87a.6.6 0 0 1 0-.84l1.95-1.93a.62.62 0 0 1 .87 0l2.45 2.5v-10.71a.6.6 0 0 1 .6-.6h2.89a.6.6 0 0 1 .59.6v10.71l2.46-2.48a.63.63 0 0 1 .87 0l1.81 1.92a.61.61 0 0 1 0 .86z"/><path d="m24 36.05v2.21"/><path d="m27.3 35.59.6 2.15"/><path d="m30.32 34.26 1.15 1.99"/><path d="m20.72 35.59-.59 2.18"/><path d="m17.68 34.25-1.15 2"/><path d="m24 11.95v-2.21"/><path d="m30.32 13.74 1.15-1.99"/><path d="m27.89 10.23-.56 2.19"/><path d="m20.1 10.26.58 2.16"/><path d="m16.53 11.75 1.15 2"/></g></svg>