<svg viewBox="0 0 48 48" xmlns="http://www.w3.org/2000/svg"><g fill="none" stroke="#000" stroke-linecap="round" stroke-linejoin="round"><path d="m15.7533 26.1858v-11.0747"/><path d="m10.216 20.6484h11.0747"/><path d="m36.122 24.246-5.926-3.421v6.843z"/><path d="m31.183 18.157 5.926 3.422v-6.843z"/><path d="m24 33.18h6.28s4.9544 5.44 8.7917 5.44 4.5173-3.06 4.42-5.756-.8694-12.37-1.19-16.4906c-.21-2.6973-2.4287-6.9946-8.2575-6.9946a8.582 8.582 0 0 0 -5.948 2.3612h-8.1924a8.582 8.582 0 0 0 -5.9477-2.3608c-5.8288 0-8.0476 4.2973-8.2575 6.9946-.3206 4.1209-1.0929 13.7948-1.19 16.4906s.5829 5.756 4.42 5.756 8.7917-5.44 8.7917-5.44z"/></g></svg>