<svg viewBox="0 0 48 48" xmlns="http://www.w3.org/2000/svg"><g fill="none" stroke="#000" stroke-linecap="round" stroke-linejoin="round" stroke-width="1.05"><ellipse cx="20.63" cy="23.24" rx="18.48" ry="14.02" transform="matrix(.43145605 -.90213396 .90213396 .43145605 -9.23 31.82)"/><path d="m19.47 25.67-6.81 14.24"/><path d="m28.6 6.57-6.81 14.24"/><path d="m18.57 23.96-12.83 4.54"/><path d="m35.53 17.98-12.84 4.53"/><path d="m18.93 22.43-10.95-5.24"/><path d="m33.28 29.29-10.95-5.24"/><path d="m19.87 21.08-4.5-12.74"/><path d="m25.89 38.13-4.53-12.83"/><ellipse cx="20.63" cy="23.24" rx="2.7" ry="1.88" transform="matrix(.43145605 -.90213396 .90213396 .43145605 -9.23 31.82)"/><path d="m19.47 25.67c-.51 1.07-3.93 2-4.52 3.22a1.24 1.24 0 0 0 .66 1.87 1.29 1.29 0 0 0 1.78-.76"/><path d="m28.6 6.57c11.14 5.33 16.6 17.11 12.2 26.31s-17 12.35-28.14 7"/></g></svg>