<svg viewBox="0 0 48 48" xmlns="http://www.w3.org/2000/svg"><g fill="none" stroke="#000" stroke-linecap="round" stroke-linejoin="round"><path d="m9.9019 18.5981v14.0981"/><path d="m38.0981 18.5981v14.0981"/><circle cx="24" cy="18.5981" r="14.0981"/><circle cx="24" cy="18.5981" r="9.0779"/><circle cx="24" cy="18.5981" r="4.0576"/><path d="m7.5324 32.6962h4.7389a0 0 0 0 1 0 0v8.4343a2.3695 2.3695 0 0 1 -2.3694 2.3695 2.3695 2.3695 0 0 1 -2.3695-2.3695v-8.4343a0 0 0 0 1 0 0z"/><path d="m35.7286 32.6962h4.7389a0 0 0 0 1 0 0v8.4343a2.3695 2.3695 0 0 1 -2.3694 2.3695 2.3695 2.3695 0 0 1 -2.3695-2.3695v-8.4343a0 0 0 0 1 0 0z"/></g></svg>