<svg viewBox="0 0 48 48" xmlns="http://www.w3.org/2000/svg"><path d="m29.41 10.06-1.41-1.62-2.37.94 1.11-2.48-1.28-1.64-1.66 1.87-.08-2.61h-2.52l-.72 2.38-1.2-2.39h-4.28a.24.24 0 0 0 -.24.3l.67 2.8-2.33 2.5a.23.23 0 0 0 0 .26l.65 1.52-2.63 4.35a.25.25 0 0 0 .05.32l3.77 3a.26.26 0 0 0 .29 0l4.69-3.85a.89.89 0 0 1 .6-.2.94.94 0 0 1 .87.4 1.68 1.68 0 0 1 -.13 1.2s-5.26 12.71-5.49 13.32c-.8.39-1.23.85-1.23 1.32a1.17 1.17 0 0 0 .43.79l-.36.94v5.26a.24.24 0 0 0 .25.25l7-.38m7.55-28.55a6.6 6.6 0 0 0 -4.33 11.58c-.44.24-.67.52-.67.8s.24.57.69.81a28.76 28.76 0 0 1 -1.94 8.75c-.79.39-1.22.85-1.22 1.32a1.09 1.09 0 0 0 .43.79l-.51 1.31v3.88c.11 3 3.45 4.23 7.54 4.23s7.42-1.18 7.53-4.23v-3.91c-.25-.39-.46-.78-.67-1.16a1.3 1.3 0 0 0 .6-.94c0-.57-.63-1.12-1.77-1.55a23.43 23.43 0 0 1 -1.4-8.48c.45-.25.69-.53.7-.82s-.24-.56-.68-.8a6.6 6.6 0 0 0 -4.32-11.58zm0 0" fill="none" stroke="#000" stroke-linecap="round" stroke-linejoin="round"/><path d="m16.61 10.1a.72.72 0 1 1 0 1.44.72.72 0 0 1 0-1.44z"/></svg>