<svg viewBox="0 0 48 48" xmlns="http://www.w3.org/2000/svg"><path d="m30.8236 34.9176a1.9775 1.9775 0 1 0 3.9542 0v-2.0144a2.006 2.006 0 0 0 -2.0144-2.0144 1.9441 1.9441 0 0 0 -1.94 2.0144zm12.6764-5.9686-3.9652 7.983-.02-5.9686-2.9643 5.9686-.02-5.9686m-11.4149 5.9686v-5.9686l3.9544 5.9686v-5.9686m-7.261-1.9895v-7.9582l5.2723 7.9582v-17.9059m-16.6127 0v5.272a2.6552 2.6552 0 0 0 2.5864 2.6858 2.6551 2.6551 0 0 0 2.5864-2.6858v-5.272m18.8012 15.22a2.676 2.676 0 0 1 -2.6659 2.6859h-.02a2.676 2.676 0 0 1 -2.6859-2.666v-2.7058a2.676 2.676 0 0 1 2.666-2.6859h.02a2.592 2.592 0 0 1 2.5864 2.6859m-16.6127-5.4712a2.3716 2.3716 0 0 0 1.9895.8952h1.1937a1.9953 1.9953 0 0 0 1.99-1.9895 1.9954 1.9954 0 0 0 -1.99-1.9895h-1.2932a1.9954 1.9954 0 0 1 -1.9895-1.99 1.9954 1.9954 0 0 1 1.9895-1.9895h1.1937a2.136 2.136 0 0 1 1.99.8953m-8.1575 17.011h4.9738m.199 2.4869v-10.4451l-7.9085 11.9372m12.4844-21.8849h5.2723m-20.9897 17.9059v-7.9582h1.2932a3.9908 3.9908 0 0 1 3.9788 3.9791 3.9908 3.9908 0 0 1 -3.9791 3.9791zm31.8327-7.9582h-3.9791v7.9582h3.9791m-3.9791-3.9791h2.5864m-34.618-13.9268h3.9791v5.9686a1.9953 1.9953 0 0 1 -1.99 1.9895 1.9953 1.9953 0 0 1 -1.9891-1.9895v-.6966" fill="none" stroke="#000" stroke-linecap="round" stroke-linejoin="round"/></svg>