<svg viewBox="0 0 48 48" xmlns="http://www.w3.org/2000/svg"><g fill="none" stroke="#000" stroke-linecap="round" stroke-linejoin="round"><path d="m4.984 14.0814c1.3692-3.2994 5.647-7.5363 8.951-9.06l-.03 17.9z"/><path d="m17.48 3.5163c3.296-1.3626 9.31-1.3263 12.7209-.0625l-12.6494 12.6362z"/><path d="m33.9266 4.9091c3.2918 1.3723 7.5189 5.66 9.0392 8.9718l-17.8584-.03z"/><path d="m44.486 17.5735c1.36 3.3033 1.3236 9.3311.0624 12.75l-12.6073-12.6787z"/><path d="m43.0168 33.918c-1.3692 3.2994-5.647 7.5363-8.951 9.06l.03-17.9z"/><path d="m30.52 44.4837c-3.2957 1.3626-9.31 1.3266-12.7206.0625l12.6492-12.6362z"/><path d="m14.0735 43.0905c-3.2918-1.3723-7.5189-5.66-9.0392-8.9718l17.8584.03z"/><path d="m3.514 30.4259c-1.3595-3.3033-1.3236-9.3311-.0624-12.75l12.6073 12.6787z"/></g></svg>