<svg viewBox="0 0 48 48" xmlns="http://www.w3.org/2000/svg"><g fill="none" stroke="#000" stroke-linecap="round" stroke-linejoin="round"><path d="m27.9424 35.9109a1.9712 1.9712 0 0 0 -1.9712-1.9709h-3.9424a1.9712 1.9712 0 0 0 -1.9712 1.9712v3.6467a3.9424 3.9424 0 1 0 7.8848 0z"/><path d="m37.621 13.814-13.621 8.555-13.621-8.555"/><path d="m11.1872 31.2392 4.4155 6.5542a2.6119 2.6119 0 0 0 2.2767 1.301h2.1782"/><path d="m27.9424 39.0944h2.1683a2.6118 2.6118 0 0 0 2.2767-1.301l4.4254-6.5542"/><rect height="20.0963" rx="3" width="33.1949" x="7.4025" y="11.1428"/><path d="m17.9061 11.1428v-2.2811"/><rect height="4.3617" rx="1.5" width="7.8552" x="12.6222" y="4.5"/><path d="m30.0939 11.1428v-2.2811"/><rect height="4.3617" rx="1.5" transform="matrix(-1 0 0 -1 62.9004 13.3617)" width="7.8552" x="27.5226" y="4.5"/></g></svg>