<svg viewBox="0 0 48 48" xmlns="http://www.w3.org/2000/svg"><g fill="none" stroke="#000" stroke-linecap="round" stroke-linejoin="round"><path d="m20.4035 12.6978s20.6112-3.0311 23.0357 9.2875c1.1856 9.8708-15.36 16.6624-15.36 16.6624"/><path d="m41.6693 17.9378s3.8233 5.8165-11.4963 13.4157"/><path d="m19.6518 12.4229a4.1493 4.1493 0 0 1 -2.1428-3.0706 6.0011 6.0011 0 0 1 -2.6505 3.6935 7.361 7.361 0 0 1 -.7517.2749 7.361 7.361 0 0 1 .7517.2749 4.15 4.15 0 0 1 2.1428 3.0707 6.001 6.001 0 0 1 2.6505-3.6936 7.361 7.361 0 0 1 .7517-.2749 7.1414 7.1414 0 0 1 -.7517-.2749z"/><path d="m17.339 28.938.962 4.671-3.443-3.299.962 4.671-3.444-3.3"/><path d="m27.2793 26.6824 1.1223 2.03a1.7183 1.7183 0 0 1 -.6724 2.3352 1.7136 1.7136 0 0 1 -1.3068.1474"/><path d="m25.9076 24.2012 1.3717 2.4812a1.7183 1.7183 0 0 1 -.6724 2.3352 1.7183 1.7183 0 0 1 -2.3352-.6725l-1.3717-2.4813"/><path d="m22.75 29.1864a1.7183 1.7183 0 0 1 -.6725 2.3351 1.7183 1.7183 0 0 1 -2.3352-.6724l-.54-.9775a1.7183 1.7183 0 0 1 .6724-2.3352 1.7183 1.7183 0 0 1 2.3351.6725"/><path d="m23.5813 30.6902-2.203-3.9851"/><path d="m18.922 25.561-3.325-6.015 7.31 3.812-3.325-6.015"/><path d="m4.5 25.6805 3.3254 6.0152"/><path d="m11.059 29.908-4.14-1.638.825-4.357"/><path d="m6.9192 28.2699-.7565.4182"/><path d="m22.0284 18.052a1.2192 1.2192 0 0 0 -.3485-1.4753"/><path d="m17.445 26.3778-.5083.281a1.2032 1.2032 0 0 1 -1.0908.0372l-3.6718-1.7146a2.8145 2.8145 0 0 1 -1.57-1.0931 1.4007 1.4007 0 0 1 .5889-1.9078 1.3749 1.3749 0 0 1 1.8889.5379c.38.6865.1477 1.581-.7724 2.3442-1.0257.8509-1.3944 1.8756-.8214 2.9121a1.6021 1.6021 0 0 0 2.3872.5765c1.3882-.7674 1.4776-2.5355 1.79-4.82"/><path d="m25.586 21.4383a1.9329 1.9329 0 0 0 1.4227-.3475l.3373-.1865a1.1371 1.1371 0 0 0 .4434-1.5459 1.1372 1.1372 0 0 0 -1.5449-.4467l-.6747.373a1.137 1.137 0 0 1 -1.5449-.4467 1.1371 1.1371 0 0 1 .4433-1.5458l.3374-.1865a1.9324 1.9324 0 0 1 1.4227-.3475"/></g></svg>