<svg viewBox="0 0 48 48" xmlns="http://www.w3.org/2000/svg"><g fill="none" stroke="#000" stroke-linecap="round" stroke-linejoin="round"><path d="m30.5 18v-10.24a2.25 2.25 0 0 0 -2.24-2.26h-20.51a2.26 2.26 0 0 0 -2.25 2.26v21.31a.88.88 0 0 0 .89.88.9.9 0 0 0 .61-.25l4.71-4.7h5.79"/><path d="m40.25 18h-20.51a2.26 2.26 0 0 0 -2.24 2.25v14.97a2.26 2.26 0 0 0 2.24 2.25h16.56l4.7 4.76a.88.88 0 0 0 1.25 0 .84.84 0 0 0 .25-.6v-21.34a2.27 2.27 0 0 0 -2.25-2.29z"/><path d="m9.15 35.64 1.83 1.82"/><path d="m5.5 31.62v5.84h5.48l-1.83 1.83"/><path d="m38.85 9.81-1.83-1.82"/><path d="m42.5 13.83v-5.84h-5.48l1.83-1.83"/><path d="m21.24 23.69h17.61"/><path d="m21.22 27.78h10.57"/><path d="m21.22 31.88h13.36"/></g></svg>