<svg viewBox="0 0 48 48" xmlns="http://www.w3.org/2000/svg"><g fill="none" stroke="#000" stroke-linecap="round" stroke-linejoin="round"><path d="m9.5 5.5v2a2 2 0 0 1 -2 2h-2v29h2a2 2 0 0 1 2 2v2h29v-2a2 2 0 0 1 2-2h2v-29h-2a2 2 0 0 1 -2-2v-2z"/><path d="m33.51 22.79a2.25 2.25 0 0 0 -2.24-2.25h-.13a2.34 2.34 0 0 0 -2.14 2.39v2.07a2.25 2.25 0 0 0 2.23 2.25 2.24 2.24 0 0 0 2.27-2.25v-2.19"/><path d="m31.59 31.29v6.72h3.36"/><path d="m21.9 27.26h3.35"/><path d="m21.9 20.54h3.35"/><path d="m23.58 20.54v6.72"/><path d="m19 25a2.24 2.24 0 0 1 -2.23 2.25 2.24 2.24 0 0 1 -2.28-2.25v-2.2a2.24 2.24 0 0 1 2.24-2.24 2.24 2.24 0 0 1 2.27 2.24"/><path d="m31.02 9.69v6.73"/><path d="m35.52 16.42v-6.73"/><path d="m31.02 9.69 4.5 6.73"/><path d="m13.06 9.7v6.7"/><path d="m13.93 13.05 2.47-3.33"/><path d="m13.93 13.05 2.47 3.36"/><path d="m13.93 13.05h-.87"/><path d="m21.38 16.4 2.24-6.71"/><path d="m25.77 16.42-2.15-6.73"/><path d="m25.05 14.17h-2.92"/><path d="m12.48 31.29v6.72"/><path d="m16.98 38.01v-6.72"/><path d="m12.48 31.29 4.5 6.72"/><path d="m21.38 37.99 2.24-6.7"/><path d="m25.77 38.01-2.15-6.72"/><path d="m25.05 35.76h-2.92"/><path d="m24.68 29.04-.96.96"/></g></svg>