<svg viewBox="0 0 48 48" xmlns="http://www.w3.org/2000/svg"><g fill="none" stroke="#000" stroke-linecap="round" stroke-linejoin="round"><path d="m27.1933 23.7407v-3.0207h13.511v3.1155"/><path d="m33.9488 18.0762v2.6438"/><path d="m29.8388 24.0239h8.0312l-3.7793 2.9266v6.7973h-2.74"/><path d="m27.1932 28.5554h13.5111"/><rect height="28.1863" rx="1.0498" width="19.5927" x="23.9073" y="12.4578"/><path d="m30.2883 7.417a1.23 1.23 0 0 0 -.4783.0982l-15.78 6.7042a1.2247 1.2247 0 0 0 -.6481 1.6085l10.047 23.6888a1.2177 1.2177 0 0 0 .7677.6869 1.2193 1.2193 0 0 1 -.2894-.785v-25.7353a1.2224 1.2224 0 0 1 1.2246-1.2255h8.1055l-1.82-4.2916a1.2237 1.2237 0 0 0 -1.1289-.7492z"/><path d="m17.8467 7.356a1.219 1.219 0 0 0 -.8658.359l-12.1209 12.1328a1.2232 1.2232 0 0 0 0 1.7329l18.1815 18.1981a1.2145 1.2145 0 0 0 .9662.3494 1.2163 1.2163 0 0 1 -.5788-.61l-10.0475-23.6915a1.222 1.222 0 0 1 .6482-1.6061l7.8519-3.3342-3.169-3.1714a1.2188 1.2188 0 0 0 -.8658-.3591z"/></g></svg>