<svg viewBox="0 0 48 48" xmlns="http://www.w3.org/2000/svg"><g fill="none" stroke="#000" stroke-linecap="round" stroke-linejoin="round"><rect height="39" rx="2" width="31.5693" x="8.2153" y="4.5"/><path d="m18.4681 30.7087v-6.3957h2.0938a2.148 2.148 0 0 1 0 4.2959h-2.0938"/><path d="m20.5619 28.6089 2.0936 2.0982"/><path d="m13.3575 24.313v6.3957"/><path d="m16.795 30.709-2.633-3.198 2.633-3.176"/><path d="m14.1618 27.5109h-.8043"/><path d="m24.2663 30.6897 2.0775-6.3767"/><path d="m28.4234 30.7087-2.0796-6.3957"/><path d="m27.7277 28.5692h-2.7706"/><path d="m18.0608 30.7087v6.3956"/><path d="m21.498 37.104-2.633-3.197 2.651-3.198"/><path d="m18.8651 33.9065h-.8043"/><path d="m34.638 30.709-1.599 6.395-1.599-6.395-1.599 6.395-1.599-6.395"/><path d="m22.5861 34.9858a2.1186 2.1186 0 0 0 4.2371 0v-2.1585a2.1186 2.1186 0 1 0 -4.2371 0z"/><path d="m19.8899 37.1043v6.3957"/><path d="m23.328 43.5-2.634-3.198 2.651-3.198"/><path d="m20.6942 40.3022h-.8043"/><path d="m14.1153 42.7992a1.789 1.789 0 0 0 1.5681.7008h.9466a1.5972 1.5972 0 0 0 1.5955-1.5989 1.5972 1.5972 0 0 0 -1.5955-1.5989h-1.0459a1.5972 1.5972 0 0 1 -1.5954-1.5989 1.5972 1.5972 0 0 1 1.5954-1.599h.9469a1.7889 1.7889 0 0 1 1.5681.7008"/><path d="m24.8861 43.481 2.0775-6.3767"/><path d="m29.0433 43.5-2.0797-6.3957"/><path d="m28.3476 41.3605h-2.7707"/><path d="m13.3575 37.1043h26.4272"/><path d="m13.3575 30.7087h26.4272"/><path d="m13.3575 24.313h26.4272"/></g></svg>