<svg viewBox="0 0 48 48" xmlns="http://www.w3.org/2000/svg"><g fill="none" stroke="#000" stroke-linecap="round" stroke-linejoin="round"><path d="m23.7255 23.9881a4.83 4.83 0 0 1 2.5707-4.2706 4.34 4.34 0 0 0 2.26-3.8494v-7.6445a2.7236 2.7236 0 0 0 -2.7234-2.7236h-17.6093a2.7235 2.7235 0 0 0 -2.7235 2.7235v31.5529a2.7236 2.7236 0 0 0 2.7235 2.7236h17.6093a2.7235 2.7235 0 0 0 2.7235-2.7235v-7.6684a4.34 4.34 0 0 0 -2.26-3.8494 4.83 4.83 0 0 1 -2.5708-4.2706z"/><path d="m27.8642 41.5743h1.0158a2.7235 2.7235 0 0 0 2.7235-2.7236v-29.7014a2.7235 2.7235 0 0 0 -2.7235-2.7236h-1.0157"/><path d="m36.1442 41.5743h3.6323a2.7236 2.7236 0 0 0 2.7235-2.7236v-29.7014a2.7236 2.7236 0 0 0 -2.7235-2.7236h-3.6323"/><path d="m32.5119 41.5743h3.6323a2.7236 2.7236 0 0 0 2.7235-2.7236v-29.7014a2.7236 2.7236 0 0 0 -2.7235-2.7236h-3.6323"/><path d="m28.88 41.5743h3.6323a2.7235 2.7235 0 0 0 2.7235-2.7236v-29.7014a2.7235 2.7235 0 0 0 -2.7235-2.7236h-3.6323"/></g></svg>