<svg viewBox="0 0 48 48" xmlns="http://www.w3.org/2000/svg"><g fill="none" stroke="#000" stroke-linecap="round" stroke-linejoin="round"><path d="m22.3686 6.6536-15.5171 15.5171a4.614 4.614 0 0 0 -1.3515 3.2628v14.2816a2.3071 2.3071 0 0 0 2.3071 2.3071h32.3858a2.3071 2.3071 0 0 0 2.3071-2.3071v-14.2816a4.614 4.614 0 0 0 -1.3515-3.2628l-15.5171-15.5171a2.3071 2.3071 0 0 0 -3.2628 0z"/><path d="m30.9644 42.0222v-16.5887a4.6143 4.6143 0 0 0 -1.3514-3.2628l-11.3808-11.3807"/><path d="m19.4289 42.0222v-16.5887a4.6144 4.6144 0 0 0 -1.3515-3.2628l-5.613-5.613"/></g></svg>