<svg viewBox="0 0 48 48" xmlns="http://www.w3.org/2000/svg"><path d="m27.22 4.69-6.4.62v26.69l6.33-1v-11.34l8.51 12.63 6.67-2.14-8.71-12.15 8.78-11.45-6.81-1.55-8.44 11.42zm-14.51 6.51a.33.33 0 0 0 -.2.09l-2.51 2.55a.35.35 0 0 0 -.05.4l2.94 4.91a13 13 0 0 0 -1.23 2.85l-5.4 1.13a.34.34 0 0 0 -.26.33v3.6a.33.33 0 0 0 .25.32l5.24 1.29a12.92 12.92 0 0 0 1.28 3.33l-3 4.69a.33.33 0 0 0 0 .42l2.51 2.54a.32.32 0 0 0 .4 0l4.75-2.93a12.32 12.32 0 0 0 3 1.27l1.11 5.41a.32.32 0 0 0 .32.26h3.55a.32.32 0 0 0 .31-.25l1.33-5.41a12.47 12.47 0 0 0 3.09-1.32l4.68 3.12a.33.33 0 0 0 .41 0l2.51-2.54a.33.33 0 0 0 0-.41l-1.66-2.85-.55.18c-.08 0 .42-1.39.13-1.86l-2.19-3.24c-1 4.09-5.77 6.94-9.72 6.94a10.25 10.25 0 0 1 -10.18-10.34c0-4.2 3.27-9.2 7.25-9.86v-2.66a7.56 7.56 0 0 0 -3.1 1.28l-4.8-3.18a.27.27 0 0 0 -.21-.05z" fill="none" stroke="#000" stroke-linecap="round" stroke-linejoin="round"/></svg>