<svg viewBox="0 0 48 48" xmlns="http://www.w3.org/2000/svg"><g fill="none" stroke="#000" stroke-linecap="round" stroke-linejoin="round"><path d="m38.33 30.79a7.37 7.37 0 1 0 7.37 7.36 7.36 7.36 0 0 0 -7.35-7.36zm3 10.24-5.42.08a2.67 2.67 0 0 1 -.11-5.33h.2l-1.13-1.16 7.63 7.53zm-5.33-5.23a2.84 2.84 0 0 1 3.86-1 2.89 2.89 0 0 1 1.14 1.08 4.78 4.78 0 0 1 .38.87 2.57 2.57 0 0 1 2.2 2.44 1.66 1.66 0 0 1 -1.46 1.81h-.77"/><path d="m13.15 21a3.07 3.07 0 1 1 3.06 3.07 3.07 3.07 0 0 1 -3.06-3.07z"/><path d="m31.79 24.06a3.07 3.07 0 1 1 3.07-3.06 3.08 3.08 0 0 1 -3.07 3.07z"/><path d="m24 30.79a2.61 2.61 0 0 1 1.59 4.69l1.24 4.31h-5.67l1.23-4.31a2.62 2.62 0 0 1 1.61-4.69z"/><path d="m42.5 32.07v-3.44"/><path d="m5.51 28.63v11.73a1.94 1.94 0 0 0 1.94 2h24.7"/><path d="m39 14 2.58-2.56a3 3 0 1 0 -4.28-4.26l-2.55 2.6a18.39 18.39 0 0 0 -21.51 0l-2.56-2.53a3.22 3.22 0 0 0 -2.18-.92 3 3 0 0 0 -2.12 5.15l2.62 2.52a18.41 18.41 0 0 0 -3.47 10.8v3.8h37v-3.8a18.57 18.57 0 0 0 -3.53-10.8zm-19.86 7a2.93 2.93 0 1 1 -2.93-2.92 2.93 2.93 0 0 1 2.93 2.92zm12.65 2.92a2.92 2.92 0 1 1 2.92-2.92 2.92 2.92 0 0 1 -2.92 2.94z"/><path d="m5.51 35.29h13.77"/><path d="m28.7 35.29h2.85"/></g></svg>