<svg viewBox="0 0 48 48" xmlns="http://www.w3.org/2000/svg"><path d="m8.37 5.5a2.82 2.82 0 0 0 -2.78 2.86v31.07a2.83 2.83 0 0 0 4.7 2.35l.11-.1.08-.09 13.52-13.52 13.57 13.56a2.82 2.82 0 1 0 4.06-3.91l-.08-.08-15.55-15.53a2.85 2.85 0 0 0 -2-.86 2.8 2.8 0 0 0 -2.14 1l-10.63 10.61v-24.5a2.82 2.82 0 0 0 -2.78-2.86zm19.63 18.57 13.52-13.59a2.83 2.83 0 0 0 0-4 2.87 2.87 0 0 0 -2.11-.85 2.78 2.78 0 0 0 -1.93.86l-15.48 15.56" fill="none" stroke="#000" stroke-linecap="round" stroke-linejoin="round"/></svg>