<svg viewBox="0 0 48 48" xmlns="http://www.w3.org/2000/svg"><g fill="none" stroke="#000" stroke-linecap="round" stroke-linejoin="round"><path d="m33.89 5.5a9.61 9.61 0 1 1 -4.31 18.19l-1.73 1.73 12.8 12.81v4.27h-4.27l-12.8-12.81v4.31h-4.27v4.27h-4.31l-4.23 4.23h-4.27v-4.27l12.81-12.81-12.81-12.81v-4.26h4.27l12.81 12.8 1.74-1.74a9.59 9.59 0 0 1 8.57-13.91zm3.92 7.12a2.85 2.85 0 1 0 2.84 2.84 2.85 2.85 0 0 0 -2.84-2.84z"/><path d="m27.85 25.42-4.27 4.27"/><path d="m23.58 21.15-4.27 4.27"/></g></svg>