<svg viewBox="0 0 48 48" xmlns="http://www.w3.org/2000/svg"><g fill="none" stroke="#000" stroke-linecap="round" stroke-linejoin="round"><path d="m27.8534 35.4444h.1182a.5591.5591 0 0 0 .2329-.0456 1.3052 1.3052 0 0 0 .6929-1.3109c-.2329-.8637.6917-2.26 1.5086-3.1588a11.9181 11.9181 0 0 0 4.5551-9.2681 11.0178 11.0178 0 0 0 -22.0356-.001 11.8754 11.8754 0 0 0 4.5421 9.2692.0115.0115 0 0 0 .0117.0117c.42.4658 1.6374 1.9077 1.5566 3.09a1.6948 1.6948 0 0 0 .83 1.3693.631.631 0 0 0 .165.048v5.1636a.799.799 0 0 0 .7959.8064h.0232a3.3362 3.3362 0 0 0 6.183 0h.0246a.8.8 0 0 0 .7958-.8064z"/><path d="m19.2063 36.4949h9.4669"/><path d="m19.2063 39.9649h9.4669"/><path d="m19.2063 38.2299h9.4669"/><path d="m24.025 4.5-.0078 4.3641"/><path d="m11.7115 9.5298 3.0805 3.0914"/><path d="m36.2885 9.6503-3.0914 3.0804"/></g></svg>