<svg viewBox="0 0 48 48" xmlns="http://www.w3.org/2000/svg"><g fill="none" stroke="#000" stroke-linecap="round" stroke-linejoin="round"><path d="m20.6185 27.459a3.3223 3.3223 0 0 1 -2.2843-.9068l-7.9037-7.4532a3.33 3.33 0 1 1 4.5577-4.8566l.0118.0112 5.4917 5.1786 13.4354-14.1183a3.33 3.33 0 1 1 4.8241 4.5909l-15.72 16.52a3.3215 3.3215 0 0 1 -2.4127 1.0342z"/><path d="m28.4925 28.3817a3.331 3.331 0 0 0 -2.2773-.9h-.7267l-2.457 2.5821a3.3313 3.3313 0 0 1 -4.6973.1273l-2.8732-2.7098h-3.8a3.33 3.33 0 0 0 -3.33 3.33v8.6476a3.33 3.33 0 0 0 6.66 0v-5.3175h9.9079l9.1632 8.5918a3.33 3.33 0 0 0 4.5546-4.8594z"/><circle cx="20.619" cy="10.4609" r="4.0617"/></g></svg>