<svg viewBox="0 0 48 48" xmlns="http://www.w3.org/2000/svg"><g fill="none" stroke="#000" stroke-linecap="round" stroke-linejoin="round"><path d="m12.1 18.2939v4.1429h4.1429v-4.1429zm6.2143 0v4.1429h4.1428v-4.1429zm6.2143 0v4.1429h4.1428v-4.1429zm6.2143 0v4.1429h4.1428v-4.1429zm6.2142 0v4.1429h4.1429v-4.1429zm-24.8571 6.2143v4.1429h4.1429v-4.1429zm6.2143 0v4.1429h4.1428v-4.1429zm6.2143 0v4.1429h4.1428v-4.1429zm6.2143 0v4.1429h4.1428v-4.1429zm6.2142 0v4.1429h4.1429v-4.1429zm-24.8571 6.2143v4.1429h4.1429v-4.1429zm6.2143 0v4.1429h16.5714v-4.1429zm18.6428 0v4.1429h4.1429v-4.1429z"/><path d="m43.5 36.5463v-19.9333a1.7333 1.7333 0 0 0 -1.7333-1.733h-30.3334a1.7333 1.7333 0 0 0 -1.7333 1.733v19.9333a1.7334 1.7334 0 0 0 1.7333 1.7337h30.3334a1.7334 1.7334 0 0 0 1.7333-1.7337z"/><path d="m38.3 14.88v-3.426a1.7334 1.7334 0 0 0 -1.7333-1.734h-30.3334a1.7334 1.7334 0 0 0 -1.7333 1.7337v19.9333a1.7333 1.7333 0 0 0 1.7333 1.733h3.4667"/></g></svg>