<svg viewBox="0 0 48 48" xmlns="http://www.w3.org/2000/svg"><g fill="none" stroke="#000" stroke-linecap="round" stroke-linejoin="round"><path d="m8.14 14.94v4.53h4.53v-4.53zm6.8 0v4.53h4.53v-4.53zm6.79 0v4.53h4.54v-4.53zm6.8 0v4.53h4.53v-4.53zm6.8 0v4.53h4.53v-4.53zm-27.19 6.79v4.54h4.53v-4.54zm6.8 0v4.54h4.53v-4.54zm6.79 0v4.54h4.54v-4.54zm6.8 0v4.54h4.53v-4.54zm6.8 0v4.54h4.53v-4.54zm-27.19 6.8v4.53h4.53v-4.53zm6.8 0v4.53h18.12v-4.53zm20.39 0v4.53h4.53v-4.53z"/><path d="m43.5 35.5v-23a2 2 0 0 0 -2-2h-35a2 2 0 0 0 -2 2v23a2 2 0 0 0 2 2h35a2 2 0 0 0 2-2z"/></g></svg>