<svg viewBox="0 0 48 48" xmlns="http://www.w3.org/2000/svg"><path d="m14.42 6.34a4.82 4.82 0 0 1 1.89.08 3.65 3.65 0 0 1 -.08 1.88 3.35 3.35 0 0 1 -1.89-.08 4.07 4.07 0 0 1 .08-1.88zm2.48 4.1c-1.56.12-4.18-.11-4.49-.5-.4-.63-.23-5.25.24-5.57s5.11-.15 5.57.25a4.59 4.59 0 0 1 .26 2.13m6 9.29 5.1 6.3c.93 1.32-1.23 3-2.41 1.58l-1 .87c-1.31.93-1.62.24-2.22-.55s-1.54-1.46-.37-2.34c-.39-.11-1.74-.92-.43-2.54l-1.35-1.92c-.8-1.44 1.67-2.68 2.72-1.44zm1.39 1.4c3.33-2.77 4.94-10.34-4.52-10.88-1.33-.17.24-3.58.3-4.06-9.36 11-3.05 15.11.7 15.85m8.25 18.72a1.65 1.65 0 1 1 -1.6-1.65 1.65 1.65 0 0 1 1.64 1.65zm-9.93 0a1.65 1.65 0 1 1 -1.65-1.65 1.65 1.65 0 0 1 1.69 1.65zm-2.28-20.82c-5.92 1.75-13.81 7.26-13.11 22.24 5.85-6.11 11.84-15.55 12.11-15.72-4.74 9.16-5.83 11.7-5.92 12.57 11.61-13.71 30.39 5 26.59-12.18m-30.63 13.19a13.18 13.18 0 0 0 1 2.77 16.15 16.15 0 0 0 1.39 2.56m28.45 0c.21-.34.42-.68.61-1a16.92 16.92 0 0 0 -11.3-24.68m10.66 25.7a22 22 0 0 0 7.26-15.7 21.51 21.51 0 0 0 -21.5-21.54 20.67 20.67 0 0 0 -2.74.18m-1.51.24c-.4.08-.79.17-1.18.27m-6.39 2.85a21.52 21.52 0 0 0 -7.18 28.11" fill="none" stroke="#000" stroke-linecap="round" stroke-linejoin="round"/></svg>