<svg viewBox="0 0 48 48" xmlns="http://www.w3.org/2000/svg"><path d="m23.29 9.71a1.9113 1.9113 0 0 0 -1.4374.6537c-1.834 2.1006-3.62 3.5848-6.4949 4.1535-.3374.0669-1.1966.1166-1.3953.3153a.5972.5972 0 0 0 .1213 1.0226l9.74 4.2959a.956.956 0 0 0 .4817.0765 11.7036 11.7036 0 0 0 8.9807-6.3593.9559.9559 0 0 0 -.5677-1.3571l-8.866-2.718a1.8942 1.8942 0 0 0 -.561-.0822zm19.6857 12.013-6.2541-6.553a.9558.9558 0 0 0 -1.5253.194 14.2854 14.2854 0 0 1 -8.5841 6.9012.9556.9556 0 0 0 -.6681 1.1745l3.7349 12.8922a1.1632 1.1632 0 0 0 2.0118.2953l11.3092-12.2904a1.9235 1.9235 0 0 0 -.0229-2.6129zm-31.7294-4.4278a.9554.9554 0 0 0 -.8142.4329l-5.6282 8.5919a1.93 1.93 0 0 0 .8105 2.7849l19.8366 9.0304c1.1908.5419 1.92-.4244 1.6113-1.553l-3.733-13.6542a.9559.9559 0 0 0 -.5361-.6212l-11.1751-4.9295a.955.955 0 0 0 -.3718-.0822z" fill="none" stroke="#000" stroke-linecap="round" stroke-linejoin="round"/></svg>