<svg viewBox="0 0 48 48" xmlns="http://www.w3.org/2000/svg"><g fill="none" stroke="#000" stroke-linecap="round" stroke-linejoin="round"><path d="m9.9974 8.3a1.6973 1.6973 0 0 0 -1.6974 1.6974v28.0052a1.6973 1.6973 0 0 0 1.6974 1.6974h28.0052a1.6973 1.6973 0 0 0 1.6974-1.6974v-28.0052a1.6973 1.6973 0 0 0 -1.6974-1.6974z"/><path d="m25.2 2.9971a1.6974 1.6974 0 0 0 -2.4 0l-19.8029 19.8029a1.6974 1.6974 0 0 0 0 2.4l19.8029 19.8029a1.6974 1.6974 0 0 0 2.4 0l19.8029-19.8029a1.6974 1.6974 0 0 0 0-2.4z"/><path d="m15.762 32.238h16.476v-16.476"/><path d="m15.762 24.255h8.493v-8.493"/><path d="m15.7616 15.7616h4.5017v4.5017h-4.5017z"/><path d="m15.762 28.247h12.485v-12.485"/></g></svg>