<svg viewBox="0 0 48 48" xmlns="http://www.w3.org/2000/svg"><g fill="none" stroke="#000" stroke-linecap="round" stroke-linejoin="round"><path d="m39.24 27.87h-9.87l-5.37-8.77-5.4 8.76h-9.84m18.63 11.68"/><path d="m32.58 5-8.58 14.1-8.62-14.1"/><path d="m24 43.5h.14.08a19.79 19.79 0 0 0 5.53-3.12 30.64 30.64 0 0 0 9.49-12.53c3.04-7.21 2.76-19.8 2.76-19.92v-.41l-.23-.13-.13-.07c-.24-.12-5.16-2.82-17.64-2.82-12.48 0-17.4 2.7-17.6 2.82l-.13.07-.27.13v.41c0 .12-.31 12.71 2.73 19.85a30.56 30.56 0 0 0 9.49 12.53 19.79 19.79 0 0 0 5.53 3.12h.08.14z"/><path d="m11.78 13.19v8.02"/><path d="m12.81 17.2 2.96-3.98"/><path d="m12.81 17.2 2.96 4.02"/><path d="m12.81 17.2h-1.03"/><path d="m32.78 13.2v7.99h3.99"/><path d="m21.32 29.19v7.99"/><path d="m26.69 29.19v7.99"/><path d="m21.32 33.17h5.37"/></g></svg>