<svg viewBox="0 0 48 48" xmlns="http://www.w3.org/2000/svg"><g fill="none" stroke="#000" stroke-linecap="round" stroke-linejoin="round"><path d="m18.6051 18.1284a1.8822 1.8822 0 0 1 1.8406.8744 4.63 4.63 0 0 1 .8278 1.7352c.43 1.7044-.0683 3.3-1.1123 3.5627s-2.2387-.9052-2.6684-2.61.0683-3.299 1.1123-3.5623z"/><path d="m13.938 27.993 25.391-6.932 2.31 8.461 1.361 4.989-25.389 6.931z"/><path d="m14.83 9.1207-8.0344 9.5364a7.6149 7.6149 0 0 0 4.0885 12.3267l3.8738.8892"/><path d="m28.3935 24.0334a15.4858 15.4858 0 0 0 -.4534-4.6062c-1.36-5.368-5.1231-9.0675-8.4146-8.2242s-4.8692 5.8576-3.5091 11.1892a14.97 14.97 0 0 0 1.8861 4.5338"/><path d="m30.55 23.2055a22.29 22.29 0 0 0 -.6644-5.1106c-1.9219-7.4308-7.1347-12.5209-11.6831-11.3762s-6.7256 8.1054-4.8551 15.526a21.6307 21.6307 0 0 0 1.9826 5.1106"/><path d="m21.4063 35.0942a2.84 2.84 0 0 1 .6424-.4848 1.52 1.52 0 0 1 1.8084.04c.5539.5539.3546 1.6512-.4451 2.4509s-1.897.999-2.4508.4451-.3546-1.6515.4451-2.4512z"/><path d="m26.8175 31.8254c-1.9625-3.4613-3.1675-4.6514-5.2936-3.9054l2.5091 6.9676"/><path d="m28.9449 35.1438 8.6369-2.3611"/><path d="m28.765 14.8139c.1658-.0455.3589-.1014.5735-.1636"/><path d="m31.3774 14.1033c2.03-.4693 4.3832-.7119 5.08.7106 1.0568 2.1573-3.6814 6.0963-2.5735 9.0048a2.619 2.619 0 0 0 2.5209 1.8623c.9825-.0991 1.8031-1.1425 1.7717-3.6536a3.4382 3.4382 0 0 0 -1.3519-2.5913" stroke-dasharray="1.2662 2.1103"/><path d="m35.9829 18.7953c-.1676-.1148-.3356-.2245-.5-.3306"/></g></svg>