<svg viewBox="0 0 48 48" xmlns="http://www.w3.org/2000/svg"><g fill="none" stroke="#000" stroke-linecap="round" stroke-linejoin="round"><path d="m4.5 24c6.8316-8.0789 10.8507-11.8506 19.5-11.8506s12.6684 3.7717 19.5 11.8506"/><path d="m4.5 24c6.8316 8.0789 10.8507 11.8506 19.5 11.8506s12.6684-3.7717 19.5-11.8506"/><path d="m21.9555 19.2182v9.2509"/><path d="m25.9676 19.2182v9.2509a2.3127 2.3127 0 0 1 -2.3127 2.3127"/><path d="m14.5 19.2182v9.2509"/><path d="m19.472 28.469-3.809-4.625 3.809-4.595"/><path d="m15.6634 23.8436h-1.1634"/><path d="m33.5 19.2182v9.2509"/><path d="m28.528 28.469 3.809-4.625-3.809-4.595"/><path d="m32.3366 23.8436h1.1634"/></g></svg>