<svg viewBox="0 0 48 48" xmlns="http://www.w3.org/2000/svg"><g fill="none" stroke="#000" stroke-linecap="round" stroke-linejoin="round"><path d="m41.5 7.59h-35a2 2 0 0 0 -2 2v22.5a2 2 0 0 0 2 2h3.16v6.32l6.34-6.32h25.5a2 2 0 0 0 2-2v-22.5a2 2 0 0 0 -2-2z"/><path d="m8.56 12.4v17"/><path d="m8.57 25.78 7.69-7.65"/><path d="m11.01 23.35 6.05 6.02"/><path d="m27.54 12.4v17"/><path d="m27.54 25.78 7.69-7.65"/><path d="m29.99 23.35 6.05 6.02"/><path d="m22.3 18.13v11.27"/><circle cx="39.02" cy="23.97" r="1.98"/></g></svg>