<svg viewBox="0 0 48 48" xmlns="http://www.w3.org/2000/svg"><g fill="none" stroke="#000" stroke-linecap="round" stroke-linejoin="round"><path d="m20.24 9.76v3.39c-5.6 1.12-6.58 5.47-6.58 16.61 0 6.21.13 9.61.27 11.48a2.43 2.43 0 0 0 2.43 2.26h15.28a2.43 2.43 0 0 0 2.43-2.26c.14-1.87.27-5.27.27-11.48 0-10.9-.94-15.3-6.21-16.53v-3.47z"/><path d="m25.12 17.08c-2.79 0-5.17 1-6.05 2.11a6.94 6.94 0 0 0 -1 4.19 6.68 6.68 0 0 0 .27 2.07s-1.22 0-1.22 1.87c0 1.33 1.63 1.29 1.63 1.29l1.5.08s-.14 1.69.64 1.69a4.86 4.86 0 0 0 1.21-.12 1.42 1.42 0 0 0 1 .62 1.52 1.52 0 0 0 1.07-.58 1.32 1.32 0 0 0 1.07.68 1 1 0 0 0 .92-.7 2.23 2.23 0 0 0 1 .26c.59 0 .9-.28.9-1.65 0 0 3 .23 3-1.76 0-1.7-1.14-1.61-1.14-1.61v-3.4a8.28 8.28 0 0 0 -.74-2.86c-.25-1.19-.72-2.18-4.06-2.18z"/><path d="m21.53 21.55a1.47 1.47 0 0 1 1.66 1.45 2.44 2.44 0 0 1 -2.26 2.18c-1 0-1.26-.63-1.26-1.73a1.81 1.81 0 0 1 1.86-1.9z"/><path d="m24.88 23.17a2 2 0 0 0 1.82 2.17 1.57 1.57 0 0 0 1.56-1.62 2.18 2.18 0 0 0 -2.06-2.31c-1.14 0-1.32.85-1.32 1.76z"/><path d="m23.75 25.62a4.29 4.29 0 0 1 1.71 2.16.68.68 0 0 1 -.68.72c-.27 0-1-.72-1-.72s-.31.49-.67.49-.4-.42-.4-.57a3.92 3.92 0 0 1 1.04-2.08z"/><path d="m18.63 37.9 11.22-4.19"/><path d="m31 31.75c-1 .43-1.35 1.62-1.14 2a2.09 2.09 0 0 0 2.15.8"/><path d="m17.58 39.91c1-.47 1.28-1.68 1.05-2a2.1 2.1 0 0 0 -2.18-.7"/><path d="m18.63 33.76 11.22 4.19"/><path d="m31 39.91a1.81 1.81 0 0 1 -1.14-2 2.09 2.09 0 0 1 2.15-.8"/><path d="m17.58 31.75c1 .47 1.28 1.68 1.05 2a2.1 2.1 0 0 1 -2.18.7"/><path d="m29.12 5.66h-9.91l-3.83 1.29"/><path d="m24.16 9.76v-4.1"/></g></svg>