<svg viewBox="0 0 48 48" xmlns="http://www.w3.org/2000/svg"><g fill="none" stroke="#000" stroke-linecap="round" stroke-linejoin="round"><circle cx="24" cy="24" r="21.5"/><path d="m6.9441 37.03a56.3 56.3 0 0 1 9.6961-.751c4.3177 0 11.8355 1.6262 20.3162 4.8788"/><path d="m20.1671 36.5469c1.5198-.2115 3.8329-2.6788 3.8329-2.6788a15.1989 15.1989 0 0 0 2.2372-1.57l2.1787 2.1244v1.24l1.29.8844 3.5888-2.9592s-.3785-1.2932-1.2617-1.64c-.042-.62-2.7477-5.0607-3-5.4252"/><path d="m22.4439 27.055a14.8342 14.8342 0 0 0 2.4393 1.542c.3925.0281 6.5327-4.0934 6.5327-4.0934a4.7308 4.7308 0 0 0 2.1308-1.1215 2.733 2.733 0 0 0 .2243-1.15s.3645-.4766.3645-.6448.28-1.0094.28-1.0935"/><path d="m24.8551 24.5036s.701.8691.9253.8691 5.1028-2.5794 5.2149-3.14"/><path d="m20.1671 28.7653c.09-.0842 2.6435-1.4441 2.6435-1.4441"/><path d="m18.1542 21.8681c.4766 1.9065 3.6729 5.4531 3.6729 5.4531l3.3645-3.2943s-2.8318-3.028-3.1682-3.9532-.7851-2.5234-1.6823-2.9159-4.4579-2.243-4.4579-2.243l-.6732 1.2336a11.73 11.73 0 0 0 -5.1309 9.6729c0 6.5608.757 8.8038.757 8.8038s4.8505-1.0374 6.5888-2.8879 2.7419-2.9719 2.7419-2.9719l.3536-3.004"/><path d="m11.5965 34.4405a3.4352 3.4352 0 0 0 1.423 1.93"/><path d="m32.7212 34.06a15.47 15.47 0 0 0 3.3909 4.5321 17.14 17.14 0 0 0 2.25 1.3037"/><path d="m30.03 36.2793c.5726.757 2.3956 2.8176 2.9561 3.4485"/><path d="m20.1671 17.0789.4544-.4258s2.0467 1.4019 2.6635 1.0094.5888-.8412.5888-.8412 1.0094-.6168.9813-.9252a1.7426 1.7426 0 0 1 .0006-.4486h.8406s-.5327-1.5981-.1963-2.1869l.3364-.5888.4008.3645a2.6 2.6 0 0 0 1.0292-2.58c-.3926-1.57-2.7757-4.0373-3.8692-4.2056s-.9533.1963-.9533.1963-1.9906-1.177-3.2239-.0836-2.6916 2.3551-2.6635 4.5981.056 2.8879.2243 3.1122a2.61 2.61 0 0 0 .7664.4814l-.4939.9637"/><path d="m34.977 16.257 3.028.2-5.284 5.663-2.511-.308z"/></g></svg>