<svg viewBox="0 0 48 48" xmlns="http://www.w3.org/2000/svg"><g fill="none" stroke="#000" stroke-linecap="round" stroke-linejoin="round"><path d="m22.07 20.64v9.2"/><path d="m15.89 29.84v-9.2"/><path d="m22.07 20.64-6.18 9.2"/><path d="m39 23.71a3.08 3.08 0 0 0 -3.26-3.08 3.2 3.2 0 0 0 -2.92 3.26v2.86a3.09 3.09 0 0 0 3.09 3.09 3.09 3.09 0 0 0 3.09-3.09v-3"/><path d="m9 20.61v9.22"/><path d="m10.19 25.22 3.41-4.58"/><path d="m10.19 25.22 3.41 4.63"/><path d="m10.19 25.22h-1.19"/><path d="m24.35 20.64v9.2"/><path d="m30.53 20.64v9.2"/><path d="m24.35 25.22h6.18"/></g><circle cx="35.91" cy="18.82" r=".66"/><circle cx="38.34" cy="18.82" r=".66"/><circle cx="33.49" cy="18.82" r=".66"/><path d="m43.5 37.5v-27a2 2 0 0 0 -2-2h-35a2 2 0 0 0 -2 2v27a2 2 0 0 0 2 2h35a2 2 0 0 0 2-2z" fill="none" stroke="#000" stroke-linecap="round" stroke-linejoin="round"/></svg>