<svg viewBox="0 0 48 48" xmlns="http://www.w3.org/2000/svg"><path d="m24 2.5a21.5 21.5 0 1 0 21.5 21.5 21.51 21.51 0 0 0 -21.5-21.5zm-4.77 5.85a5.32 5.32 0 1 1 -5.31 5.31 5.32 5.32 0 0 1 5.31-5.31zm15 5.52a5.31 5.31 0 1 1 -5.32 5.31 5.31 5.31 0 0 1 5.35-5.31zm-10.23 7.46a2.67 2.67 0 0 1 2.69 2.67 2.68 2.68 0 0 1 -2.69 2.67 2.67 2.67 0 1 1 0-5.34zm-10.26 2.12a5.32 5.32 0 1 1 -5.32 5.32 5.32 5.32 0 0 1 5.32-5.32zm15.05 5.55a5.31 5.31 0 1 1 -5.31 5.31 5.32 5.32 0 0 1 5.31-5.31z" fill="none" stroke="#000" stroke-linecap="round" stroke-linejoin="round"/></svg>