<svg viewBox="0 0 48 48" xmlns="http://www.w3.org/2000/svg"><g fill="none" stroke="#000" stroke-linecap="round" stroke-linejoin="round"><path d="m10.2443 15.7856c-.0006-6.2316 3.4286-11.0878 11.28-11.2828 8.2357-.2049 15.4131 10.6606 11.8024 13.4287"/><path d="m10.6132 12.9241a97.4694 97.4694 0 0 0 -1.1523 30.5759"/><path d="m32.5446 13.3748s1.186 14.5052.6161 23.5114"/><path d="m14.8151 23.8549c.0979 4.5534.5657 16.262 2.797 19.645"/><path d="m29.7311 10.4s.002 6.3288-3.9862 10.7712"/><path d="m26.0525 11.2107c-.24 3.0205.0246 4.1459-2.4736 8.511"/><path d="m23.76 11.8076c.126 2.5421-1.1522 5.1229-3.1332 8.0746a54.2819 54.2819 0 0 0 .5442-5.4335"/><path d="m21.3426 12.3581s.5183 3.8043-3.7189 8.6659"/><path d="m22.2894 6.2767c-.1053-.0463-9.4433 7.9271-2.0646 24.7213"/><path d="m19.3862 10.44s9.262-4.52 13.1584 2.9353"/><path d="m21.1467 7.5292a11.7743 11.7743 0 0 1 10.412 2.1884"/><path d="m33.2955 28.7507s1.5671 6.2029 2.3 7.4367"/><path d="m19.193 28.1521s3.8364 3.0891 6.3021 3.3221"/><path d="m25.4947 31.4743s.9089.5995 4.64-4.17a22.7926 22.7926 0 0 0 1.6176-8.5236"/><path d="m17.6848 33.3182a11.3523 11.3523 0 0 0 .3236-4.1233"/><path d="m24.7628 31.3374s-.9743 2.1305 2.49 4.5077"/><path d="m25.5691 34.3513 10.9525 2.1205s.6329-.02 1.8939 4.0992"/><path d="m17.6848 33.3182s5.4889 9.9332 11.6291 10.1818"/><path d="m27.2524 35.845s2.1916 3.9863 2.0612 7.655"/><path d="m24.331 41.22a6.3328 6.3328 0 0 1 4.6445-.899"/><path d="m40.9168 43.5-.2968-1.0187a18.3216 18.3216 0 0 0 -6.7-4.1037 11.1234 11.1234 0 0 0 -4.7411 2.9691s.5166 1.9923 2.108 2.0456"/><path d="m29.7012 42.446a17.7884 17.7884 0 0 1 3.8758-2.28"/><path d="m31.2866 43.392c.9317-.0316 1.4989-.7031 2.2062-1.1285l2.0324.0594"/><path d="m33.5767 40.1659a3.6824 3.6824 0 0 1 1.65.3926"/><path d="m16.36 16.3306c-.7435-6.2315-2.5959-5.0144-2.5959-5.0144s-1.0157-1.3393-3.1658 4.9069"/><path d="m13.7639 11.316a39.46 39.46 0 0 0 -2.9461 9.6393"/><path d="m13.7639 11.316a49.265 49.265 0 0 1 .45 9.8289"/><path d="m12.6837 22.6151a56.2838 56.2838 0 0 0 1.0555 20.8849"/><path d="m21.4133 43.5s-3.568-1.53-4.8989-3.0952"/><path d="m30.3379 19.9585a18.7458 18.7458 0 0 0 .7043-8.61"/><path d="m17.6848 33.3182-2.0955 1.1634"/><path d="m23.5792 19.7218s.0957-4.1537-.0852-5.53"/><path d="m25.745 21.1712a53.5707 53.5707 0 0 0 .0945-7.2126"/><path d="m20.2243 30.9973c-.555.0942-2.5249-1.8609-5.3926-6.4926"/><path d="m8.9244 38.3973a7.06 7.06 0 0 0 -1.8332 5.1027"/><path d="m30.025 35.2138a35.9863 35.9863 0 0 0 .0543-5.1608"/></g></svg>