<svg viewBox="0 0 48 48" xmlns="http://www.w3.org/2000/svg"><g fill="none" stroke="#000" stroke-linecap="round" stroke-linejoin="round"><path d="m10.273 5.5c0 3.6987-4.4848 3.6987-4.4848 7.3973 0 3.6967 4.4848 3.6967 4.4848 7.3933 0 3.7-4.4848 3.7-4.4848 7.4 0 3.7024 4.4848 3.7024 4.4848 7.4048s-4.4848 3.7022-4.4848 7.4046"/><path d="m26.2424 5.5c0 3.6987-4.4848 3.6987-4.4848 7.3973 0 3.6967 4.4848 3.6967 4.4848 7.3933 0 3.7-4.4848 3.7-4.4848 7.4 0 3.7024 4.4848 3.7024 4.4848 7.4048s-4.4848 3.7022-4.4848 7.4046"/><path d="m42.2118 5.5c0 3.6987-4.4848 3.6987-4.4848 7.3973 0 3.6967 4.4848 3.6967 4.4848 7.3933 0 3.7-4.4848 3.7-4.4848 7.4 0 3.7024 4.4848 3.7024 4.4848 7.4048s-4.4848 3.7022-4.4848 7.4046"/></g></svg>