<svg viewBox="0 0 48 48" xmlns="http://www.w3.org/2000/svg"><path d="m17.92 21.67a1.28 1.28 0 1 0 1.28 1.33 1.28 1.28 0 0 0 -1.28-1.33z"/><path d="m45.5 24a21.5 21.5 0 1 0 -37 14.87 14.69 14.69 0 0 1 .67-2.87 2.66 2.66 0 0 0 -.52-2.72 9.94 9.94 0 0 1 13.07-14.92 1.88 1.88 0 0 0 2.05.09 30.3 30.3 0 0 1 15.73-4 .35.35 0 0 1 .33.37.34.34 0 0 1 -.27.32 30.14 30.14 0 0 0 -13.68 7.56 1.35 1.35 0 0 0 -.37 1.3 2.76 2.76 0 0 0 2 2 15.26 15.26 0 0 1 11.35 13.52 21.35 21.35 0 0 0 6.64-15.52z" fill="none" stroke="#000" stroke-linecap="round" stroke-linejoin="round"/></svg>