<svg viewBox="0 0 48 48" xmlns="http://www.w3.org/2000/svg"><g fill="none" stroke="#000" stroke-linecap="round" stroke-linejoin="round"><path d="m21.748 33.9875c-2.3405-2.0751-2.0354-5.9013-2.0354-5.9013a1.8687 1.8687 0 0 0 0-3.7374 5.1619 5.1619 0 0 0 -3.25-9.1392v-.0021h-.0394v.0025a5.1417 5.1417 0 0 0 -2.2713.5447m-1.6119 1.261a5.1625 5.1625 0 0 0 .6327 7.3331 1.8687 1.8687 0 0 0 0 3.7374s.4288 5.4047-3.6628 6.8508v2.7942h-.5099a1.3855 1.3855 0 0 0 -1.3892 1.3888v2.9911a1.3855 1.3855 0 0 0 1.3892 1.3889h7.4418 5.39"/><path d="m26.0974 15.71a2.2047 2.2047 0 1 0 0 4.4094s.5064 11.5716-4.3257 13.2777v3.2969h-.6017a1.6354 1.6354 0 0 0 -1.64 1.6385v3.529a1.6354 1.6354 0 0 0 1.64 1.6385h17.58a1.6354 1.6354 0 0 0 1.64-1.6385v-3.529a1.6354 1.6354 0 0 0 -1.64-1.6385h-.6047v-3.2967a3.8308 3.8308 0 0 1 -1.3368-.8245m-1.4471-2.12c-1.8195-3.9853-1.5404-10.3328-1.5404-10.3328a2.2047 2.2047 0 1 0 0-4.4093"/><path d="m26.0974 15.71s-3.6383.6889-3.8516-2.4252-.6526-8.7848-.6526-8.7848"/><path d="m33.821 15.71s3.6383.6888 3.8516-2.4252.6526-8.7848.6526-8.7848"/><path d="m21.5932 4.5h2.9555l1.2113 4.52h1.5087l1.2-4.4776h1.3022"/><path d="m38.3252 4.5h-2.9552l-1.2113 4.52h-1.5087l-1.2-4.4776h-1.68"/></g></svg>