<svg viewBox="0 0 48 48" xmlns="http://www.w3.org/2000/svg"><g fill="none" stroke="#000" stroke-linecap="round" stroke-linejoin="round"><path d="m41.5 5.9094h-35a2 2 0 0 0 -2 2v25a2 2 0 0 0 2 2h18.4066l6.8863 6.8863a1 1 0 0 0 1.7071-.7071v-6.1792h8a2 2 0 0 0 2-2v-25a2 2 0 0 0 -2-2z"/><path d="m37.4436 16.2039-3.5411 2.0445v-2.3484a1.1274 1.1274 0 0 0 -1.1273-1.1274h-13.5279a1.1275 1.1275 0 0 0 -1.1273 1.1274v9.0186a1.1274 1.1274 0 0 0 1.1274 1.1273h13.5278a1.1273 1.1273 0 0 0 1.1273-1.1273v-1.8l3.541 2.0445a.4509.4509 0 0 0 .6764-.3906v-8.1781a.4509.4509 0 0 0 -.6763-.3905z"/><path d="m9.8801 14.7727v11.2733"/><path d="m9.8812 23.6513 5.1027-5.0778"/><path d="m11.5052 22.0352 4.0115 3.9939"/></g></svg>