<svg viewBox="0 0 48 48" xmlns="http://www.w3.org/2000/svg"><g fill="none" stroke="#000" stroke-linecap="round" stroke-linejoin="round"><path d="m40.5 5.5h-33a2 2 0 0 0 -2 2v33a2 2 0 0 0 2 2h33a2 2 0 0 0 2-2v-33a2 2 0 0 0 -2-2z"/><rect height="7.2015" rx="2.7175" width="5.4351" x="33.0649" y="20.3413"/><rect height="7.2015" rx="2.7175" width="5.4351" x="16.9216" y="20.3413"/><path d="m9.5 16.6727v10.8701"/><path d="m9.5011 25.2337 4.9203-4.8962"/><path d="m11.067 23.6754 3.8681 3.8511"/><path d="m24.95 23.0589a2.7176 2.7176 0 0 1 2.7175-2.7176 2.7176 2.7176 0 0 1 2.7176 2.7176v1.7664a2.7176 2.7176 0 0 1 -2.7176 2.7175 2.7175 2.7175 0 0 1 -2.7175-2.7175"/><path d="m24.9504 27.5428v-10.8701"/></g></svg>