<svg viewBox="0 0 48 48" xmlns="http://www.w3.org/2000/svg"><g fill="none" stroke="#000" stroke-linecap="round" stroke-linejoin="round"><path d="m4.5 9.8527h28.2947a0 0 0 0 1 0 0v19.225a9.07 9.07 0 0 1 -9.07 9.07h-10.1547a9.07 9.07 0 0 1 -9.07-9.07v-19.225a0 0 0 0 1 0 0z"/><path d="m12.197 25.9493 6.45 6.45 6.45-6.45a8.2 8.2 0 0 0 2.4016-5.798 4.5082 4.5082 0 0 0 -4.212-4.5459 4.4262 4.4262 0 0 0 -4.64 4.4209 4.4261 4.4261 0 0 0 -4.64-4.4209 4.5082 4.5082 0 0 0 -4.212 4.5459 8.2 8.2 0 0 0 2.4024 5.798z"/><path d="m32.7947 9.8527h2.9353a7.77 7.77 0 0 1 0 15.5394h-2.9353"/></g></svg>