<svg viewBox="0 0 48 48" xmlns="http://www.w3.org/2000/svg"><g fill="none" stroke="#000" stroke-linecap="round" stroke-linejoin="round"><path d="m32.7676 12.92v-5.6866a1.5571 1.5571 0 0 0 -1.5576-1.5571h-14.6475a1.5571 1.5571 0 0 0 -1.5572 1.5571v5.6866h-7.9482a1.5571 1.5571 0 0 0 -1.5571 1.5573v26.2893a1.5571 1.5571 0 0 0 1.5571 1.5571h33.8858a1.5571 1.5571 0 0 0 1.5571-1.5571v-26.2893a1.5571 1.5571 0 0 0 -1.5571-1.5573z"/><path d="m42.5 19.7308h-25.7019a1.5571 1.5571 0 0 0 -1.51 1.1764l-5.4005 21.4165"/><path d="m33.987 26.141 2.004 4.06 4.48.651-3.242 3.161.766 4.462-4.008-2.107-4.008 2.107.765-4.462-3.242-3.161 4.481-.651z"/></g></svg>