<svg viewBox="0 0 48 48" xmlns="http://www.w3.org/2000/svg"><path d="m24 3.5a2.8 2.8 0 0 1 2 .82l5.75 5.75a2.78 2.78 0 0 1 0 3.95l-5.75 5.75a2.76 2.76 0 0 1 -3.94 0l-5.78-5.77a2.78 2.78 0 0 1 0-3.95l5.72-5.73a2.8 2.8 0 0 1 2-.82zm-11.95 12a2.8 2.8 0 0 1 2 .82l5.72 5.68a2.78 2.78 0 0 1 0 3.95l-5.77 5.77a2.78 2.78 0 0 1 -3.95 0l-5.73-5.72a2.79 2.79 0 0 1 0-3.95l5.75-5.75a2.82 2.82 0 0 1 1.98-.85zm23.9 0a2.82 2.82 0 0 1 2 .82l5.73 5.68a2.79 2.79 0 0 1 0 3.95l-5.75 5.75a2.78 2.78 0 0 1 -4 0l-5.7-5.7a2.78 2.78 0 0 1 0-3.95l5.77-5.78a2.8 2.8 0 0 1 2-.82zm-12 12a2.75 2.75 0 0 1 2 .82l5.77 5.68a2.78 2.78 0 0 1 0 4l-5.72 5.68a2.78 2.78 0 0 1 -3.94 0l-5.75-5.75a2.78 2.78 0 0 1 0-4l5.69-5.7a2.75 2.75 0 0 1 2-.82z" fill="none" stroke="#000" stroke-linecap="round" stroke-linejoin="round"/></svg>