<svg viewBox="0 0 48 48" xmlns="http://www.w3.org/2000/svg"><g fill="none" stroke="#000" stroke-linecap="round" stroke-linejoin="round"><path d="m16.83 10.0092c-.3463-.3534.2767-5.5343 2.3162-5.5091s2.5547 4.0188 3.0469 3.4772a2.3559 2.3559 0 0 1 1.8069-.6646 2.3559 2.3559 0 0 1 1.8067.6646c.4922.5415 1.0075-3.452 3.0469-3.4772s2.6625 5.1557 2.3162 5.5091"/><path d="m16.83 10.0092s-15.1126 19.3847-1.7115 32.019c0 0 1.7525 1.4718 7.6212 1.4718 0 0 .3069-1.2645 1.26-1.2645s1.2603 1.2645 1.2603 1.2645c5.8687 0 7.6213-1.4718 7.6213-1.4718 13.4017-12.6343-1.7113-32.019-1.7113-32.019"/><path d="m16.6933 26.5959 1.8307-.94 1.706 1.0431"/><path d="m22.4038 23.9862 1.5962-.9218"/><path d="m33.4809 28.6526c-.4778-10.2126-8.6609-10.4669-9.4809-10.4669s-9.0027.2542-9.48 10.4669 8.3283 10.5713 9.48 10.5945 9.9586-.3817 9.4809-10.5945z"/><path d="m31.3065 26.5959-1.9284-.9695-1.6087 1.0726"/><path d="m25.596 23.9862-1.5966-.9218"/><path d="m25.392 14.4958c.432-1.15-.8152-1.0275-1.3919-1.0275s-1.8239-.123-1.3919 1.0275 1.1536 1.467 1.3919 1.467.9599-.3165 1.3919-1.467z"/><path d="m20.1846 12.2867a.3359.3359 0 1 1 -.3359-.3418v.3359z"/><path d="m28.4869 12.2867a.3359.3359 0 1 1 -.3359-.3418v.3359z"/></g></svg>