<svg viewBox="0 0 48 48" xmlns="http://www.w3.org/2000/svg"><g fill="none" stroke="#000" stroke-linecap="round" stroke-linejoin="round"><path d="m24.5457 14.5222a3.9455 3.9455 0 1 1 .0422-.0067"/><path d="m36.8352 19.8008a3.2914 3.2914 0 1 1 .0353-.0055"/><path d="m12.21 17.2519a3.3 3.3 0 1 1 .0353-.0056"/><path d="m5.5007 36.3658v4.79h2.9381l8.3465-1.2185z"/><path d="m42.5 36.2576-11.3861 3.6512 9.8761 1.4039h1.51z"/><path d="m18.3371 35.2v.28l.3157.1788z"/><path d="m29.6636 35.0038-.4327.6335.4327-.2472z"/><path d="m5.5007 28.8626v6.5518l11.8607 2.2273z"/><path d="m42.5 28.6838-11.9711 8.9336 11.9711-2.2974z"/><path d="m18.3371 26.39v5.342l2.181 2.468z"/><path d="m29.6636 25.8163-2.3024 8.3707 2.3024-2.627z"/><path d="m38.5111 22.0438-8.7989 12.8894v.4282l12.7878-7.3266v-1.2384h-.0243a4.8076 4.8076 0 0 0 -.064-.5033 5.7631 5.7631 0 0 0 -3.9006-4.2493z"/><path d="m36.0123 21.6332a7.3691 7.3691 0 0 0 -.9073.0662 5.9176 5.9176 0 0 0 -5.3686 5.097h-.0242v.3356q-.0015.0828 0 .1655v4.2075l8.3883-9.5672a7.2958 7.2958 0 0 0 -2.0882-.3046z"/><path d="m7.9753 20.15a6.2663 6.2663 0 0 0 -2.45 4.5054h-.0246v.3819q-.0014.0938 0 .1876v2.9669l12.7878 7.26v-.3218z"/><path d="m11.8008 18.7856a6.2328 6.2328 0 0 0 -3.7549 1.3024l10.2426 11.5891v-5.459l-1.3973-5.0043a6.4312 6.4312 0 0 0 -5.0904-2.4282z"/><path d="m24.0478 16.2271 1.0728 17.1962 4.543-11.0771v-.9669h-.0221q-.0168-.2528-.0574-.5033a5.6247 5.6247 0 0 0 -5.5363-4.6489z"/><path d="m23.7608 16.2271a5.806 5.806 0 0 0 -.6467.053 5.5859 5.5859 0 0 0 -4.7549 5.0992h-.0221v.3356q-.0012.0827 0 .1655v.8963l4.4171 10.651z"/></g></svg>