<svg viewBox="0 0 48 48" xmlns="http://www.w3.org/2000/svg"><g fill="none" stroke="#000" stroke-linecap="round" stroke-linejoin="round"><path d="m31.877 28.1156a2.6273 2.6273 0 0 1 5.2513 0"/><path d="m21.3743 28.1156a2.6273 2.6273 0 0 1 5.2514 0"/><path d="m10.8716 28.1156a2.5816 2.5816 0 0 1 2.6257-2.5351 2.5816 2.5816 0 0 1 2.6257 2.5351"/><path d="m21.3743 36.1247a2.52 2.52 0 0 1 -1.3128 2.1953 2.7075 2.7075 0 0 1 -2.6257 0 2.52 2.52 0 0 1 -1.3128-2.1955"/><path d="m42.38 36.1247a2.5206 2.5206 0 0 1 -1.3132 2.1953 2.7073 2.7073 0 0 1 -2.6256 0 2.5206 2.5206 0 0 1 -1.3129-2.1955"/><path d="m31.877 36.1247a2.5207 2.5207 0 0 1 -1.3128 2.1953 2.7075 2.7075 0 0 1 -2.6257 0 2.52 2.52 0 0 1 -1.3128-2.1955"/><path d="m5.62 25.8179c0-9.1008 8.2292-16.4779 18.38-16.4779s18.38 7.3776 18.38 16.4784"/><path d="m10.8717 36.1247a2.5206 2.5206 0 0 1 -1.3129 2.1953 2.7073 2.7073 0 0 1 -2.6256 0 2.5206 2.5206 0 0 1 -1.3132-2.1953"/><path d="m5.62 25.8179v10.3068"/><path d="m42.38 25.8179v10.3068"/><path d="m37.1283 36.1247v-8.0091"/><path d="m31.877 28.1156v8.0091"/><path d="m26.6257 36.1247v-8.0091"/><path d="m21.3743 28.1156v8.0091"/><path d="m16.123 36.1247v-8.0091"/><path d="m10.8716 28.1156v8.0091"/></g></svg>