<svg viewBox="0 0 48 48" xmlns="http://www.w3.org/2000/svg"><g fill="none" stroke="#000" stroke-linecap="round" stroke-linejoin="round"><path d="m40.5 5.5h-33a2 2 0 0 0 -2 2v33a2 2 0 0 0 2 2h33a2 2 0 0 0 2-2v-33a2 2 0 0 0 -2-2z"/><path d="m13 13.1179v21.7642"/><path d="m19.0017 24h-6.0017"/><path d="m27.963 34.882-8.961-10.882 8.961-10.809"/><path d="m22.975 34.882-5.974-10.882 5.974-10.809"/><path d="m17.988 34.882-2.987-10.882 2.987-10.809"/><path d="m32.8236 30.5292a2.1765 2.1765 0 1 0 2.1764 2.1765 2.1765 2.1765 0 0 0 -2.1764-2.1765z"/></g></svg>