<svg viewBox="0 0 48 48" xmlns="http://www.w3.org/2000/svg"><path d="m30 5.5c3.41 0 4 3.89 4 3.89s1.27-1.67 2.18-1.62c1.52.08 2.83 1.67 3.35 3.1a7.41 7.41 0 0 1 -.87 6.47c-2.45 3.39-11.25 5.52-11.25 5.52s-2.27-6.81-2.27-10.22 1.43-7.14 4.86-7.14zm-16.64 2.59a7.22 7.22 0 0 1 4 1.25c3.39 2.45 5.52 11.25 5.52 11.25s-6.81 2.27-10.22 2.27-7.16-1.43-7.16-4.86 3.89-4 3.89-4-1.67-1.27-1.63-2.18c.09-1.52 1.68-2.82 3.11-3.35a7.1 7.1 0 0 1 2.49-.38zm7.36 17.05s2.28 6.86 2.28 10.22-1.43 7.14-4.84 7.14-4-3.89-4-3.89-1.31 1.67-2.16 1.63c-1.52-.09-2.84-1.68-3.35-3.11a7.41 7.41 0 0 1 .87-6.47c2.39-3.39 11.2-5.52 11.2-5.52zm14.64 0c3.41 0 7.14 1.43 7.14 4.84s-3.89 4-3.89 4 1.67 1.27 1.62 2.18c-.08 1.52-1.67 2.83-3.1 3.35a7.41 7.41 0 0 1 -6.47-.87c-3.39-2.45-5.52-11.25-5.52-11.25s6.86-2.25 10.22-2.25z" fill="none" stroke="#000" stroke-linecap="round" stroke-linejoin="round"/></svg>