<svg viewBox="0 0 48 48" xmlns="http://www.w3.org/2000/svg"><g fill="none" stroke="#000" stroke-linecap="round" stroke-linejoin="round"><circle cx="24" cy="24" r="21.5"/><path d="m10.06 16.68v11.09"/><path d="m10.06 25.37 4.98-4.97"/><path d="m11.38 24.06 3.66 3.66"/><path d="m23 24.94a2.84 2.84 0 0 1 -2.84 2.83 2.83 2.83 0 0 1 -2.83-2.83v-4.54"/><path d="m23 27.77v-7.37"/><path d="m27.15 20.4a1.84 1.84 0 0 0 -1.84 1.84 1.84 1.84 0 0 0 1.84 1.84h.63"/><path d="m27.78 24.08h.62a1.84 1.84 0 0 1 1.84 1.85 1.84 1.84 0 0 1 -1.84 1.84"/><path d="m30.07 21a3.13 3.13 0 0 0 -2.29-.62h-.63"/><path d="m25.49 27.15a3.11 3.11 0 0 0 2.29.62h.62"/><path d="m37.94 25.37a2.78 2.78 0 0 1 -2.75 2.4 2.77 2.77 0 0 1 -2.77-2.77v-1.83a2.77 2.77 0 0 1 2.77-2.77 2.76 2.76 0 0 1 2.74 2.39"/></g></svg>