<svg viewBox="0 0 48 48" xmlns="http://www.w3.org/2000/svg"><g fill="none" stroke="#000" stroke-linecap="round" stroke-linejoin="round"><rect height="39" rx="1.6421" width="8.2105" x="10.1732" y="4.5"/><path d="m37.0057 4.5h-.821a6.5684 6.5684 0 0 0 -6.5684 6.5684v4.3579a.8209.8209 0 0 1 -.2688.6075l-7.4263 6.7511a1.6423 1.6423 0 0 0 0 2.43l7.4263 6.7511a.8209.8209 0 0 1 .2688.6075v4.3579a6.5684 6.5684 0 0 0 6.5684 6.5686h.821a.8211.8211 0 0 0 .8211-.8211v-13.0724a1.6418 1.6418 0 0 0 -.481-1.1611l-3.8648-3.8648a.8212.8212 0 0 1 0-1.1612l3.8648-3.8648a1.6418 1.6418 0 0 0 .481-1.1611v-13.0724a.8211.8211 0 0 0 -.8211-.8211z"/></g></svg>