<svg viewBox="0 0 48 48" xmlns="http://www.w3.org/2000/svg"><path d="m13.2 18.4h21.5v17.1l-1.8 1.8h-17.9l-1.8-1.8z" fill="none" stroke="#000" stroke-linecap="round" stroke-linejoin="round"/><path d="m13.2 16.4c0-12.8 21.5-12.7 21.5 0z" fill="none" stroke="#000" stroke-linecap="round" stroke-linejoin="round"/><path d="m33.3 16.4v2" fill="none" stroke="#000" stroke-linecap="round" stroke-linejoin="round"/><path d="m15.1 18.4v-2" fill="none" stroke="#000" stroke-linecap="round" stroke-linejoin="round"/><circle cx="19" cy="12.4" r=".8"/><circle cx="29" cy="12.4" r=".8"/><g fill="none" stroke="#000" stroke-linecap="round" stroke-linejoin="round"><path d="m35 43.5h-5.6v-6.2"/><path d="m18.5 37.3v6.2h-5.5"/><path d="m29 7.8 1.5-3.3"/><path d="m17.4 4.5 1.5 3.3"/><path d="m15.3 20.5v10.3h3.4v1.8h1.7v2.4h7.2v-2.4h1.7v-1.8h3.4v-10.4z"/><path d="m17.6 22.7v2"/><path d="m19.5 22.7v2"/><path d="m21.3 22.7v2"/><path d="m23.1 22.7v2"/><path d="m24.9 22.7v2"/><path d="m26.7 22.7v2"/><path d="m28.6 22.7v2"/><path d="m30.4 22.7v2"/><path d="m10.4 30.8a.79.79 0 0 1 -.8-.8v-10a.79.79 0 0 1 .8-.8.79.79 0 0 1 .8.8v10c.1.4-.3.8-.8.8z"/><path d="m37.6 30.8a.79.79 0 0 1 -.8-.8v-10a.79.79 0 0 1 .8-.8.79.79 0 0 1 .8.8v10a.86.86 0 0 1 -.8.8z"/><path d="m18.5 43.5h10.9"/></g></svg>