<svg viewBox="0 0 48 48" xmlns="http://www.w3.org/2000/svg"><g fill="none" stroke="#000" stroke-linecap="round" stroke-linejoin="round"><rect height="13.1016" rx="2.1589" width="5.0441" x="3.5" y="20.4847"/><circle cx="14.8493" cy="28.3621" r="1.8547"/><rect height="13.1016" rx="2.1589" transform="matrix(-1 0 0 -1 83.9559 54.0711)" width="5.0441" x="39.4559" y="20.4847"/><path d="m24.9324 6.6916a18.3815 18.3815 0 0 1 16.86 13.7566"/><path d="m24 37.0337c2.5179 0 4.213-3.4473 4.213-3.4473s-2.1065-3.1364-4.213-3.1364-4.213 3.1363-4.213 3.1363 1.6951 3.4474 4.213 3.4474z"/><path d="m28.213 33.5864a7.6822 7.6822 0 0 1 -4.213 1.6536 7.6822 7.6822 0 0 1 -4.213-1.654"/><circle cx="33.1507" cy="28.3621" r="1.8547"/><path d="m40.234 20.988c-2.2878-6.5143-8.3419-10.441-12.7064-11.9742l.0051-.0009a13.8421 13.8421 0 0 0 -13.6827-4.2829s5.0771.655 7.6317 3.2754a12.0378 12.0378 0 0 0 -10.9723 1.0075s4.7613-1.5239 8.6051.5347c-4.1823 1.8135-9.2894 5.5793-11.3482 11.4394"/><path d="m8.0629 32.7783c3.2659 7.7661 12.2011 10.8635 15.9371 10.8635s12.67-3.0971 15.9364-10.8625"/><path d="m15.8746 8.5585a18.4116 18.4116 0 0 0 -9.6672 11.89"/></g></svg>