<svg viewBox="0 0 48 48" xmlns="http://www.w3.org/2000/svg"><g fill="none" stroke="#000" stroke-linecap="round" stroke-linejoin="round" stroke-width=".99"><path d="m35.24 14.08c4.27 0 6.87 1.55 7.21 5.31l-4.2.51c-.19-1.82-1.25-2.56-3.25-2.56s-3 .84-3 2.27.56 2 2.39 2.46l2.68.61c3.6.83 5.53 2.63 5.53 6a.74.74 0 0 0 0 .21h-4.25c0-1.16-.72-2.07-2.85-2.58l-2.84-.75c-3.51-.83-4.93-2.64-4.93-5.5.05-4.55 3.74-6 7.51-6z"/><path d="m4.5 24.92v-1.82c0-6.59 3.29-10.51 10.88-10.51v3.41c-3.68 0-6.49 2-6.49 7v2z"/><path d="m12.35 33.91c-3.75-1.12-6.22-3.63-6.35-9h4.42a6.31 6.31 0 0 0 1.93 5.09z"/><path d="m17.57 35.41h-2.32a11.53 11.53 0 0 1 -2.9-.38v-3.65a17.23 17.23 0 0 0 4.26.71c.32 0 .64 0 1-.07z"/><path d="m17.57 33.8v-3.38a5.7 5.7 0 0 0 3.24-1.89l1.32 3.69a6.9 6.9 0 0 1 -4.56 1.69z"/><path d="m33.68 34.31c-7.07-.06-9.54-3.31-10.87-7.38l-1.35-4.2c-1-3.06-2.18-5.43-5.87-5.43h-.21v-3.17h.09c5.56 0 8.38 2 10.13 7.39l1.4 4.17c1 3 2.65 5.14 6.7 5.29z"/><path d="m33.68 35.27v-3.27h.1c2.83 0 5.26-.91 5.42-3.08h4.3c.14 4.16-3.39 6.52-9.82 6.52z"/></g></svg>