<svg viewBox="0 0 48 48" xmlns="http://www.w3.org/2000/svg"><path d="m24 4.5a.75.75 0 0 1 .26 0l16.08 4.82a.93.93 0 0 1 .66.88v15.8a15 15 0 0 1 -4.87 11.2c-3 2.84-7.17 4.83-11.87 6.22a.86.86 0 0 1 -.52 0c-4.7-1.39-8.85-3.38-11.87-6.22a15 15 0 0 1 -4.87-11.2v-15.8a.93.93 0 0 1 .66-.88l16.08-4.78a.75.75 0 0 1 .26 0zm-8.91 15.2a2.87 2.87 0 1 1 -2.87 2.87 2.87 2.87 0 0 1 2.87-2.87zm7.3 0a2.87 2.87 0 1 1 -2.87 2.87 2.88 2.88 0 0 1 2.87-2.87zm7.29 0a2.87 2.87 0 1 1 -2.87 2.87 2.87 2.87 0 0 1 2.87-2.87zm5.44-4.6v15" fill="none" stroke="#000" stroke-linecap="round" stroke-linejoin="round"/></svg>