<svg viewBox="0 0 48 48" xmlns="http://www.w3.org/2000/svg"><g fill="none" stroke="#000" stroke-linecap="round" stroke-linejoin="round"><path d="m43.5 41.1083-10.4293-33.145a1.5311 1.5311 0 0 0 -2.9266.0179l-5.4324 18.0319a1.5311 1.5311 0 0 1 -2.9368-.016l-3.7193-12.8531a1.5311 1.5311 0 0 0 -2.9153-.082l-4.9044 13.9587"/><path d="m12.6307 12.0422-5.2628 14.9785"/><path d="m27.5706 6.8917-5.7957 19.1054"/><path d="m16.67 12.0422h-6.1541a1.2456 1.2456 0 0 0 -1.1784.8423l-4.8375 14.1362"/><path d="m19.1564 27.1247-4.4785-12.7465"/><path d="m23.1953 27.1247h-6.1537a1.2456 1.2456 0 0 1 -1.1784-.8422l-2.6486-7.74"/><path d="m39.899 41.1083-10.4262-30.8989"/><path d="m43.5 41.1083h-6.1536a1.2456 1.2456 0 0 1 -1.1785-.8423l-8.2469-24.906"/><path d="m31.8418 6.8917h-6.1536a1.2456 1.2456 0 0 0 -1.1782.8423l-4.1041 13.5322"/><path d="m10.2359 27.0207h-5.7359"/></g></svg>