<svg viewBox="0 0 48 48" xmlns="http://www.w3.org/2000/svg"><g fill="none" stroke="#000" stroke-linecap="round" stroke-linejoin="round"><path d="m18.5 9.1 1.5 2.09 2.54-.42-.43 2.54 2.09 1.49-2.1 1.49.43 2.54-2.53-.42-1.5 2.09-1.5-2.09-2.53.42.42-2.53-2.09-1.5 2.09-1.49-.42-2.53 2.53.41zm18.59 15.9v11.34a10.94 10.94 0 0 1 -4.32 6.66 7.85 7.85 0 0 1 -.76.52 12.72 12.72 0 0 1 -1.31.71 13.33 13.33 0 0 1 -1.52.6 17.12 17.12 0 0 1 -1.74.46c-.65.13-1.31.23-2 .3s-1.48.1-2.22.1q-.78 0-1.5-.06h-.47a14.78 14.78 0 0 1 -1.74-.32 13.67 13.67 0 0 1 -1.53-.5l-.69-.31-.64-.34a11 11 0 0 1 -1.15-.77l-.4-.33a12.09 12.09 0 0 1 -3.82-6.85v-.08c0-.17-.06-.35-.08-.53v-7.6c8.51 0 11 5.7 11.76 8.35a13.65 13.65 0 0 1 14.13-11.35z"/><path d="m32.77 43h8.23a2 2 0 0 0 2-2v-34a2 2 0 0 0 -2-2h-34a2 2 0 0 0 -2 2v34a2 2 0 0 0 2 2h8.13"/></g></svg>