<svg viewBox="0 0 48 48" xmlns="http://www.w3.org/2000/svg"><g fill="none" stroke="#000" stroke-linecap="round" stroke-linejoin="round"><path d="m21.6227 12.4518a3.8757 3.8757 0 0 0 2.6232.6559h.6559a2.1315 2.1315 0 0 0 0-4.2629h-1.4756a2.17 2.17 0 0 1 -2.1315-2.1314 2.17 2.17 0 0 1 2.1315-2.1314h.6558c1.4756 0 2.1314.1639 2.6233.6558"/><path d="m31.378 12.4518a3.8758 3.8758 0 0 0 2.6233.6559h.6558a2.1315 2.1315 0 0 0 0-4.2629h-1.4756a2.17 2.17 0 0 1 -2.1315-2.1314 2.17 2.17 0 0 1 2.1315-2.1314h.6558c1.4756 0 2.1314.1639 2.6233.6558"/><path d="m17.2778 11.55a3.1734 3.1734 0 0 1 -2.7872 1.64 3.2887 3.2887 0 0 1 -3.2791-3.2791v-2.1318a3.2887 3.2887 0 0 1 3.2791-3.2791 3.1733 3.1733 0 0 1 2.7872 1.64"/><path d="m13.3921 18.53h21.0549l-2.1713 22.9434-8.2874 2.0266-8.2873-2.0266-.5749-4.7209"/><path d="m14.402 29.0243h18.7626"/></g></svg>