<svg viewBox="0 0 48 48" xmlns="http://www.w3.org/2000/svg"><g fill="none" stroke="#000" stroke-linecap="round" stroke-linejoin="round"><path d="m40.5 5.5h-33a2 2 0 0 0 -2 2v33a2 2 0 0 0 2 2h33a2 2 0 0 0 2-2v-33a2 2 0 0 0 -2-2z"/><path d="m5.5 35.5841c2.0514-1.7663 6.8037-5.1308 9.6215-5.1308 2.6916 0 18.8364 7.0607 25.3785 12.0467"/><path d="m20.6281 32.1425c2.0514-1.7664 8.2352-4.9159 11.0529-4.9159 2.576 0 5.8567 2.4681 10.819 5.5536"/><path d="m33.6674 27.6273c.2532 1.2278-1.1767 4.2559-.6721 6.7372a27.0583 27.0583 0 0 0 1.8214 4.5189"/><path d="m16.1023 30.6058c-3.63 2.65 1.4164 8.5484 5.2014 11.8942"/><circle cx="15.3738" cy="15.8178" r="3.4486"/></g></svg>