<svg viewBox="0 0 48 48" xmlns="http://www.w3.org/2000/svg"><g fill="none" stroke="#000" stroke-linecap="round" stroke-linejoin="round"><rect height="39" rx="1.77" width="26.59" x="10.7" y="4.5"/><path d="m16 7.64a2.37 2.37 0 1 0 .05 0z"/><path d="m24 7.64a2.35 2.35 0 1 0 2.35 2.36 2.35 2.35 0 0 0 -2.35-2.36z"/><path d="m31.87 7.64a2.35 2.35 0 1 0 2.39 2.36 2.34 2.34 0 0 0 -2.39-2.35z"/><path d="m16 17h.05a2.33 2.33 0 1 1 -.05 0z"/><path d="m24 17a2.35 2.35 0 1 1 -2.35 2.35 2.35 2.35 0 0 1 2.35-2.35z"/><path d="m31.87 17a2.35 2.35 0 1 0 2.39 2.35 2.35 2.35 0 0 0 -2.39-2.35z"/><path d="m16 26.32h.05a2.33 2.33 0 1 1 -.05 0z"/><path d="m24 26.32a2.35 2.35 0 1 1 -2.35 2.35 2.35 2.35 0 0 1 2.35-2.35z"/><path d="m31.87 26.32a2.35 2.35 0 1 0 2.39 2.35 2.35 2.35 0 0 0 -2.39-2.35z"/><path d="m16 35.66h.05a2.33 2.33 0 1 1 -.05 0z"/><path d="m24 35.66a2.35 2.35 0 1 1 -2.35 2.34 2.35 2.35 0 0 1 2.35-2.34z"/><path d="m31.87 35.66a2.35 2.35 0 1 0 2.39 2.34 2.35 2.35 0 0 0 -2.39-2.35z"/><path d="m13.74 14.58h20.87"/></g></svg>