<svg viewBox="0 0 48 48" xmlns="http://www.w3.org/2000/svg"><g fill="none" stroke="#000" stroke-linecap="round" stroke-linejoin="round"><path d="m42.31 36.22c-2.56 1.19-6.41.67-8.89-.28a10.34 10.34 0 0 0 -8.46.37"/><path d="m40.65 34.51c-2.91.68-3.72.11-6.21-.72-2.83-1-7.28-1-9.48.29"/><path d="m40.65 15.81c-1.84.4-3.66 0-6.15-.84a14.32 14.32 0 0 0 -1.88-.49m-3.94-.24a8.3 8.3 0 0 0 -3.72 1"/><path d="m39.25 30.84c-1.52.06-1.78-.14-4.27-1a13.31 13.31 0 0 0 -8.47-.14"/><path d="m39.25 28.74c-1.52.05-1.78-.14-4.27-1a13.31 13.31 0 0 0 -8.47-.15"/><path d="m39.25 26.66c-1.52.06-1.78-.13-4.27-1a13 13 0 0 0 -2.33-.58m-3.65-.08a10.19 10.19 0 0 0 -2.46.56"/><path d="m25 14.79a2.75 2.75 0 0 1 1.2-1.69 7.89 7.89 0 0 1 2.54-.54 9.44 9.44 0 0 1 2.54.2 2.14 2.14 0 0 1 1.32 1.64v11.84l-1.73-1.77-1.87 1.76v-11.29c0-.56-.56-1.85-1.39-2a2.4 2.4 0 0 0 -2.07.68 2.84 2.84 0 0 0 -.54 1.17z"/><path d="m39.25 24.61c-1.52.05-1.78-.14-4.27-1a13.93 13.93 0 0 0 -2.33-.58m-3.65-.09a9.74 9.74 0 0 0 -2.46.55"/><path d="m39.25 22.51c-1.52.06-1.78-.14-4.27-1a15 15 0 0 0 -2.33-.51m-3.65-.16a9.74 9.74 0 0 0 -2.46.56"/><path d="m39.25 20.47c-1.52.06-1.78-.14-4.27-1a13.93 13.93 0 0 0 -2.33-.58m-3.65-.09a9.74 9.74 0 0 0 -2.46.56"/><path d="m39.25 18.34c-1.52.06-1.78-.14-4.27-1a13.93 13.93 0 0 0 -2.33-.58m-3.65-.09a9.74 9.74 0 0 0 -2.46.56"/><path d="m42.31 36.22v-19l-1.66-1.45"/><path d="m42.31 36.22-1.66-1.71v-18.7"/><path d="m7.46 36.24c2.55 1.19 6.4.67 8.89-.28s6.4-1 8.61.35"/><path d="m9.12 34.54c2.9.67 3.72.1 6.21-.73 2.83-1 7.42-1.06 9.63.27"/><path d="m7.46 36.24v-11.11"/><path d="m7.46 36.24 1.66-1.7v-9.67"/><path d="m25 36.31c.58-8.5-5.86-10.77-13.91-11.39a26.66 26.66 0 0 0 -6.55.36l3.92-16.28c7.61-.84 14.79-.34 16.5 6.27"/><path d="m10.71 30.84c1.52.06 1.78-.14 4.27-1a13 13 0 0 1 8.36-.19"/><path d="m10.71 28.74c1.52.05 1.78-.14 4.27-1a15.34 15.34 0 0 1 5.02-.74"/><path d="m10.71 26.66c1.52.06 2.22-.27 4.71-1.1"/><path d="m42.32 18.36h1.18v19.15l-18.5-.58-18.62.58v-12.33"/><path d="m25 15.25v21.06"/><path d="m16.54 21.59-3.29-.12a31.66 31.66 0 0 1 .83-3.78c.46-1.42.78-2.46.78-2.46l-2.93-.09.6-2.23a20.7 20.7 0 0 1 2.55.06c.3-.67.54-1.4.54-1.4a23.82 23.82 0 0 1 3.1.6l-.32 1.44 2.71.72-.71 2-2.47-.59a26.22 26.22 0 0 0 -1.39 5.85z"/></g></svg>