<svg viewBox="0 0 48 48" xmlns="http://www.w3.org/2000/svg"><g fill="none" stroke="#000" stroke-linecap="round" stroke-linejoin="round"><path d="m19.0911 38.2038s-1.5446-3.4657 2.4363-5.6462"/><path d="m21.5266 32.5577s1.1063-4.4211 2.4734-4.4356"/><path d="m9.2925 29.7968-3.22 1.6024"/><path d="m8.4674 27.3927-3.6718.7663"/><path d="m4.6083 24.814 3.72.0022"/><path d="m8.37 23.81s-6.3624-4.3716-2.77-15.6251"/><path d="m15.42 12.4213a24.0108 24.0108 0 0 0 -9.8211-4.2356s5.14 2.7579 5.37 7.9319"/><path d="m15.7145 23.1688s-3.7395.5063-3.4063 5.4567 5.1678 2.8645 5.1678 2.8645 3.387-1.6484 2.8363-4.3368a4.7073 4.7073 0 0 0 -4.5977-3.9846z"/><path d="m17.5779 28.6375a1.1057 1.1057 0 1 1 -1.1057-1.1057 1.1057 1.1057 0 0 1 1.1057 1.1057z"/><path d="m26.4734 32.5577s-1.1063-4.4211-2.4734-4.4356"/><path d="m21.5266 32.5577s2.2958 6.2461 4.946 0"/><path d="m26.8339 39.1867c-.1.0142-2.853-.8633-2.853-3.4456"/><path d="m21.1281 39.1867c.1.0142 2.853-.8633 2.853-3.4456"/><path d="m24 10.3407c-.4138-.01-15.3993.0967-15.3993 14.3063a8.16 8.16 0 0 0 1.32 5.56c1.8214 2.55 3.0764 4.843 9.6071 8.3006a8.5391 8.5391 0 0 0 4.4733 1.3069"/><path d="m28.9089 38.2038s1.5446-3.4657-2.4363-5.6462"/><path d="m26.4734 32.5577s-1.1063-4.4211-2.4734-4.4356"/><path d="m38.7075 29.7968 3.22 1.6024"/><path d="m39.5326 27.3927 3.6718.7663"/><path d="m43.3917 24.814-3.72.0022"/><path d="m39.6305 23.81s6.3624-4.3716 2.77-15.6251"/><path d="m32.5805 12.4213a24.0108 24.0108 0 0 1 9.8206-4.2356s-5.1395 2.7579-5.37 7.9319"/><path d="m32.2855 23.1688s3.7395.5063 3.4063 5.4567-5.1678 2.8645-5.1678 2.8645-3.387-1.6484-2.8363-4.3368a4.7073 4.7073 0 0 1 4.5977-3.9846z"/><path d="m30.4221 28.6375a1.1057 1.1057 0 1 0 1.1057-1.1057 1.1057 1.1057 0 0 0 -1.1057 1.1057z"/><path d="m21.5266 32.5577s1.1063-4.4211 2.4734-4.4356"/><path d="m26.4734 32.5577s-2.2958 6.2461-4.946 0"/><path d="m21.1661 39.1867c.1.0142 2.853-.8633 2.853-3.4456"/><path d="m26.8719 39.1867c-.1.0142-2.853-.8633-2.853-3.4456"/><path d="m24 10.3407c.4138-.01 15.3993.0967 15.3993 14.3063a8.16 8.16 0 0 1 -1.32 5.56c-1.8214 2.55-3.0764 4.843-9.6071 8.3006a8.5391 8.5391 0 0 1 -4.4733 1.3069"/></g></svg>