<svg viewBox="0 0 48 48" xmlns="http://www.w3.org/2000/svg"><path d="m15 5.5a9.49 9.49 0 0 0 -9.5 9.5v4.15a4.21 4.21 0 0 1 .5 0h4v-4.1a5.08 5.08 0 0 1 5.05-5.05h4.08v-4a4.21 4.21 0 0 1 0-.5zm13.81 0a4.21 4.21 0 0 1 0 .5v4h4.19a5.07 5.07 0 0 1 5 5.05v4.08h4a4.21 4.21 0 0 1 .5 0v-4.13a9.49 9.49 0 0 0 -9.5-9.5zm-4.81 10.8a7.68 7.68 0 1 0 5.45 2.25 7.7 7.7 0 0 0 -5.45-2.25zm-18.5 12.53v4.17a9.49 9.49 0 0 0 9.5 9.5h4.15a4.21 4.21 0 0 1 0-.5v-4h-4.1a5.07 5.07 0 0 1 -5.05-5v-4.13h-4a4.21 4.21 0 0 1 -.5 0zm30.94 3.5a4.11 4.11 0 1 0 4.11 4.11 4.11 4.11 0 0 0 -4.11-4.11zm0 0" fill="none" stroke="#000" stroke-linecap="round" stroke-linejoin="round"/></svg>