<svg viewBox="0 0 48 48" xmlns="http://www.w3.org/2000/svg"><g fill="none" stroke="#000" stroke-linecap="round" stroke-linejoin="round"><path d="m6.4853 23.7181a.8.8 0 0 0 -1.0079.7772c.0287 2.951 1.2636 8.8113 5.462 12.7183.6982.65 8.1644-3.4858 8.1644-3.4858l-4.2653 6.5382a18.1209 18.1209 0 0 0 4.6067 2.2186.3876.3876 0 0 0 .3935-.11c.9185-.979 5.45-5.976 6.5339-10.3894 0 0-7.6328-7.4029-9.1929-9.7325 0 0-3.5362 2.0708-6.2923 2.0708a18.3622 18.3622 0 0 1 -4.4021-.6054z"/><path d="m17.18 22.2525c1.9241-1.0871 5.4434-3.5927 7.0724-2.1742a26.494 26.494 0 0 1 3.5155 3.46c1.1107 1.45-.4232 5.1329-1.395 8.4466"/><path d="m25.984 21.6258c3.4045-3.0543 16.5386-16.1258 16.5386-16.1258"/></g></svg>