<svg viewBox="0 0 48 48" xmlns="http://www.w3.org/2000/svg"><g fill="none" stroke="#000" stroke-linecap="round" stroke-linejoin="round"><path d="m39.6 18.79v-12.34a2 2 0 0 0 -2-1.95h-27.25a2 2 0 0 0 -1.95 2v35.1a2 2 0 0 0 1.95 2h27.3a2 2 0 0 0 2-2v-17.11"/><path d="m15.22 12.7h17.55"/><path d="m32.77 20.23h-17.55"/><path d="m15.22 27.77h9.75"/><path d="m15.22 35.3h5.85"/><path d="m26 32.84v2.46h2.4a1 1 0 0 0 .68-.29l15.51-15.51-2.85-2.85-15.51 15.51a1 1 0 0 0 -.23.68z"/><path d="m46.78 17.29a.75.75 0 0 0 0-1.06l-1.73-1.77a.75.75 0 0 0 -1.06 0l-2.25 2.2 2.85 2.85z"/></g></svg>