<svg viewBox="0 0 48 48" xmlns="http://www.w3.org/2000/svg"><g fill="none" stroke="#000" stroke-linecap="round" stroke-linejoin="round"><path d="m40.5 5.5h-33a2 2 0 0 0 -2 2v33a2 2 0 0 0 2 2h33a2 2 0 0 0 2-2v-33a2 2 0 0 0 -2-2z"/><path d="m21.71 10.5a6.74 6.74 0 0 0 -6.71 6.75 6.74 6.74 0 0 0 6.71 6.75h2.29"/><path d="m24 24h2.29a6.74 6.74 0 0 1 6.71 6.75 6.74 6.74 0 0 1 -6.73 6.75"/><path d="m32.38 12.78c-1.86-1.56-3.87-2.28-8.38-2.28h-2.29"/><path d="m15.62 35.22c1.86 1.56 3.87 2.28 8.38 2.28h2.29"/></g></svg>