<svg viewBox="0 0 48 48" xmlns="http://www.w3.org/2000/svg"><g fill="none" stroke="#000" stroke-linecap="round" stroke-linejoin="round"><path d="m40.5 5.5h-33a2 2 0 0 0 -2 2v33a2 2 0 0 0 2 2h33a2 2 0 0 0 2-2v-33a2 2 0 0 0 -2-2z"/><path d="m10.957 17v13.913h6.956"/><path d="m26.9565 29.2609a3.3663 3.3663 0 0 1 -2.9565 1.7391 3.4885 3.4885 0 0 1 -3.4783-3.4783v-2.2608a3.4885 3.4885 0 0 1 3.4783-3.4783 3.4885 3.4885 0 0 1 3.4783 3.4783v1.2174h-6.9566"/><path d="m37.0435 21.7826-6.9565 9.2174"/><path d="m37.0435 31-6.9565-9.2174"/></g></svg>