<svg viewBox="0 0 48 48" xmlns="http://www.w3.org/2000/svg"><g fill="none" stroke="#000" stroke-linecap="round" stroke-linejoin="round"><path d="m28.1923 35.4985 3.5554 2.165-1.1191-16.1891"/><path d="m20.7945 41.363h1.6028v-1.0685l3.2054-1.0685v2.137h1.6028"/><path d="m21.406 28.2024.9913 12.0921c3.3874-5.3726 2.8685-11.2945 4.1197-17.8788"/><path d="m26.8387 15.7192c-1.9247 3.2418-5.234 4.1882-8.9542 5.854 0 0 1.4318 6.6275 3.5215 6.6292 1.7932.0015 2.6286-3.2841 2.6286-3.2841"/><path d="m20.1373 20.641s.03 2.765 1.2843 3.1521c1.7325.5346 6.8646-5.4061 6.8646-5.4061l-.0939 17.1115-2.59 3.7275"/><path d="m13.3151 24.2671c4.4437-1.16 6.4761-5.0995 7.8462-8.5479h5.6774c1.84 3.8139 4.1716 6.8177 7.8462 8.5479"/><ellipse cx="24" cy="13.0479" rx="1.6027" ry="2.137"/><circle cx="13.3151" cy="24.2671" r=".3788"/><circle cx="34.6849" cy="24.2671" r=".3788"/><path d="m11.1781 43.5h25.6438v-25.6438c0-7.4862-5.2807-13.3508-12.8219-13.3562s-12.8219 5.8772-12.8219 13.3562z"/></g></svg>