<svg viewBox="0 0 48 48" xmlns="http://www.w3.org/2000/svg"><g fill="none" stroke="#000" stroke-linecap="round" stroke-linejoin="round"><path d="m39.85 14.43-15.42 3.64a1.79 1.79 0 0 1 -.86 0l-15.42-3.64a1.87 1.87 0 0 0 -1.87 1.86v21.71a1.87 1.87 0 0 0 1.87 1.86l15.42 3.62a1.79 1.79 0 0 0 .86 0l15.42-3.62a1.87 1.87 0 0 0 1.87-1.86v-21.71a1.87 1.87 0 0 0 -1.87-1.86z"/><path d="m22.57 17.84v25.37"/><path d="m25.43 17.84v25.37"/><path d="m37.56 15a15.1 15.1 0 0 0 -27.12 0"/><path d="m30.17 7.82v-3.32l2.53 1.63 2.53-1.63v7.02"/></g></svg>