<svg viewBox="0 0 48 48" xmlns="http://www.w3.org/2000/svg"><g fill="none" stroke="#000" stroke-linecap="round" stroke-linejoin="round"><path d="m42.77 26-3.65 1.39v11a1.31 1.31 0 0 1 -2.61.25 1 1 0 0 1 0-.25v-.62a45.34 45.34 0 0 0 -17.82-6.81l.39 1.21a1 1 0 0 1 -.64 1.18.84.84 0 0 1 -.27 0h-.62l1.29 4.32a1 1 0 0 1 -.65 1.18 1.12 1.12 0 0 1 -.27 0h-4.05a.89.89 0 0 1 -.87-.65l-2.31-7.74h-2.2a2 2 0 0 1 -2-2v-.92a1.9 1.9 0 0 1 -1.95-1.84v-4.25a1.91 1.91 0 0 1 1.89-1.92v-.89a2 2 0 0 1 2-2h5.83c8 0 16.79-3.47 22.28-7.15v-.68a1.32 1.32 0 0 1 2.62 0v11l3.65 1.39a1.14 1.14 0 0 1 .72 1.06v2.65a1.14 1.14 0 0 1 -.76 1.09z"/><path d="m39.16 19.82v7.54"/><path d="m10.71 30.46a55.67 55.67 0 0 1 8 .42"/></g></svg>