<svg viewBox="0 0 48 48" xmlns="http://www.w3.org/2000/svg"><g fill="none" stroke="#000" stroke-linecap="round" stroke-linejoin="round"><path d="m28.764 25.966c0-4.4888-1.9362-5.9908-4.764-5.9908s-4.764 1.502-4.764 5.9908"/><path d="m18.6855 25.966h.55a0 0 0 0 1 0 0v5.324a0 0 0 0 1 0 0h-.55a1.8259 1.8259 0 0 1 -1.8255-1.8256v-1.6725a1.8259 1.8259 0 0 1 1.8255-1.8259z"/><path d="m30.59 25.966h.55a0 0 0 0 1 0 0v5.324a0 0 0 0 1 0 0h-.55a1.8259 1.8259 0 0 1 -1.8259-1.8259v-1.6722a1.8259 1.8259 0 0 1 1.8259-1.8259z" transform="matrix(-1 0 0 -1 59.9044 57.2563)"/><path d="m24 42.476-11.062-8.896v-28.056l11.062 10.827"/><path d="m24 42.476-14.875-6.919v-28.056l14.875 8.85"/><path d="m24 42.476-18.5-4.472v-28.056l18.5 6.403"/><path d="m24 42.476 11.062-8.896v-28.056l-11.062 10.827"/><path d="m24 42.476 14.875-6.919v-28.056l-14.875 8.85"/><path d="m24 42.476 18.5-4.472v-28.056l-18.5 6.403"/></g></svg>