<svg viewBox="0 0 48 48" xmlns="http://www.w3.org/2000/svg"><g fill="none" stroke="#000" stroke-linecap="round" stroke-linejoin="round"><path d="m17.08 27.3h9.75a9.22 9.22 0 0 0 0-18.44h-13.32a9.22 9.22 0 0 0 -1.38 18.33v4.38zm9.2-10.58a1.6 1.6 0 0 1 0 3.19 1.22 1.22 0 0 1 -.27 0 1.6 1.6 0 0 1 .27-3.19zm-7.49 1.58a1.6 1.6 0 1 1 1.59 1.61 1.6 1.6 0 0 1 -1.59-1.61zm-4.3-1.58a1.6 1.6 0 0 1 0 3.19 1.13 1.13 0 0 1 -.26 0 1.6 1.6 0 0 1 .26-3.19z"/><path d="m13.79 30.17a8.77 8.77 0 0 0 7.56 4.38h9.86l4.39 3.73v-3.78-.06a8.76 8.76 0 0 0 7.49-6.59c1.17-4.7-2.14-10-7-10.63"/></g></svg>