<svg viewBox="0 0 48 48" xmlns="http://www.w3.org/2000/svg"><g fill="none" stroke="#000" stroke-linecap="round" stroke-linejoin="round"><path d="m41.62 18.93a97.17 97.17 0 0 0 .28-10.54 127.08 127.08 0 0 0 -34.19 0 70.45 70.45 0 0 0 .16 10.54m3.88 12.43c2.58 4.32 6.73 8.48 13.05 9.4a18.25 18.25 0 0 0 13.2-9.4"/><path d="m4.5 20.68v8.54h4.27"/><path d="m10.7 23.67v5.55"/><path d="m13.9 25.7a2.14 2.14 0 0 1 4.28 0v1.39a2.14 2.14 0 0 1 -4.28 0"/><path d="m13.9 29.22v-8.54"/><path d="m20.63 25.7a2.15 2.15 0 0 1 2.14-2.14"/><path d="m20.63 23.56v5.66"/><path d="m28.86 28.16a2.06 2.06 0 0 1 -1.81 1.06 2.14 2.14 0 0 1 -2.14-2.13v-1.39a2.14 2.14 0 1 1 4.27 0v.75h-4.27"/><path d="m37.09 29.22-2.78-8.54-2.88 8.54"/><path d="m32.39 26.34h3.74"/><path d="m43.5 20.68-2.78 8.54-2.88-8.54"/></g><circle cx="10.7" cy="21.21" r=".75"/></svg>