<svg viewBox="0 0 48 48" xmlns="http://www.w3.org/2000/svg"><g fill="none" stroke="#000" stroke-linecap="round" stroke-linejoin="round"><circle cx="24" cy="24" r="21.5"/><path d="m10.9 30.5c-.2-.5-.4-.9-.6-1.4"/><path d="m9.5 26.3a14.62 14.62 0 1 1 28.5 1.7" stroke-dasharray="2.99 2.99"/><path d="m37.6 29.4c-.2.5-.4.9-.6 1.4"/><path d="m25.9 24-1.9-11.8-1.8 11.8a1.8 1.8 0 0 0 .9 1.6 2.12 2.12 0 0 0 1.9 0 1.89 1.89 0 0 0 .9-1.6z"/><path d="m18.2 33.9h.6v.6h-.6z"/><path d="m21.9 33.9h.6v.6h-.6z"/><path d="m25.5 33.9h.6v.6h-.6z"/><path d="m29.2 33.9h.6v.6h-.6z"/></g></svg>