<svg viewBox="0 0 48 48" xmlns="http://www.w3.org/2000/svg"><g fill="none" stroke="#000" stroke-linecap="round"><g stroke-linejoin="round"><path d="m40.5 5.5h-33a2 2 0 0 0 -2 2v33a2 2 0 0 0 2 2h33a2 2 0 0 0 2-2v-33a2 2 0 0 0 -2-2z"/><path d="m23.2693 42.5-1.0447-1.2845.634-.9592-1.5158-2.11s2.9018-5.0478 5.4124-5.2057l.5569 2.4038 1.2212 1.4338.1734.6635s1.5893.0425 1.8489 1.38a4.638 4.638 0 0 0 3.0644 3.6783"/><path d="m40.7661 42.4822-2.5222-2.8022.6322-1.6913-.785-1.48.42-1.4622s-.45-5.8415-5.9651-4.8918a4.1446 4.1446 0 0 0 -2.6264 4.5347c.39 3.5377 2.6746 4.6961 3.9626 4.533s1.5118.4936 1.01 1.8856"/><path d="m29.9526 34.9531s1.3274-2.5063 2.6912-2.8779c1.4211-.3873 3.4234-.4932 5.6853 3.6047"/><path d="m32.0356 30.39-.98-3.98 2.1421 3.6613"/><path d="m34.5331 30.1133 1.8-3.65-.7231 3.9628"/><path d="m36.9058 31.3348 2.74-1.88-2.2811 2.4336"/><path d="m38.1319 33.3959 3.04-.6424-2.8392 1.3065"/><path d="m30.8363 31.3631-3.1054-1.6005 2.7091 2.1561"/><path d="m29.8894 33.849-2.776.6378 2.7768-.17"/><path d="m30.1867 36.0382-1.6534.74"/><path d="m22.5633 23.2118c1.084.0445 1.9255.3288 1.4609 3.766-.3934 2.911 2.0556 6.1133 2.0556 6.1133"/><path d="m24.2425 34.3542s-.4191-3.8942-1.1656-5.1742"/><path d="m21.5558 26.8813 1.117-.2053"/><path d="m21.1735 25.6282 1.2687-.2416"/><path d="m20.9988 24.387 1.2524-.2663"/><path d="m23.8647 23.8056 1.7115-.853.0276-1.5157h-5.37v1.6042l1.4035.6971"/><path d="m22.5134 29.3407-.0727-2.3073"/><path d="m28.6505 14.56c0 1.12-2.61 2.7426-3.5805 3.3027s-3.68 2.01-4.6505 1.4495-1.0695-3.6322-1.0695-4.7522.1-4.192 1.07-4.7522 3.68.8893 4.6505 1.4494 3.58 2.1819 3.58 3.3028z"/><path d="m30.742 39.5555s.9823-.1833 1.1613-.9357"/><path d="m32.4694 34.4122.1322 1.6265.5959-.1348"/><path d="m32.9885 37.3233.6848-.1849"/></g><path d="m33.6731 39.237c.5218-.105 2.8472-.2324 2.0355-4.253a1.1236 1.1236 0 0 0 -1.7444-.898"/></g></svg>