<svg viewBox="0 0 48 48" xmlns="http://www.w3.org/2000/svg"><g fill="none" stroke="#000" stroke-linecap="round" stroke-linejoin="round"><path d="m23.96 17.59v10.15"/><path d="m29.12 22.66h-10.31"/><path d="m24 35.46c10.79-5.31 10.4-17 10.4-17v-3.93a32.33 32.33 0 0 0 -10.4-1.62 32.33 32.33 0 0 0 -10.4 1.62v3.92s-.4 11.7 10.4 17.01z"/><path d="m23.99 12.91v-5.02"/><ellipse cx="23.99" cy="5.63" rx="2.29" ry="2.25"/><path d="m32.77 14.03 1.83-1.79"/><ellipse cx="36.22" cy="10.64" rx="2.29" ry="2.25"/><path d="m33.87 22.69h5.11"/><ellipse cx="41.27" cy="22.69" rx="2.29" ry="2.25"/><path d="m30.92 29.55 3.64 3.58"/><ellipse cx="36.18" cy="34.73" rx="2.29" ry="2.25"/><path d="m23.93 35.46v2.19"/><ellipse cx="23.93" cy="39.69" rx="2.08" ry="2.04"/><path d="m17 29.47-3.82 3.77"/><ellipse cx="11.71" cy="34.69" rx="2.08" ry="2.05"/><path d="m14.05 22.63h-5.29"/><ellipse cx="6.66" cy="22.63" rx="2.1" ry="2.07"/><path d="m15.23 14.03-1.96-1.93"/><ellipse cx="11.75" cy="10.6" rx="2.15" ry="2.11"/></g></svg>