<svg viewBox="0 0 48 48" xmlns="http://www.w3.org/2000/svg"><g fill="none" stroke="#000" stroke-linecap="round" stroke-linejoin="round"><path d="m8.4 6.45v35.1a1.95 1.95 0 0 0 1.95 1.95h2.3755v-39h-2.3755a1.95 1.95 0 0 0 -1.95 1.95z"/><path d="m12.7257 4.5v39h24.9242a1.95 1.95 0 0 0 1.95-1.95v-35.1a1.95 1.95 0 0 0 -1.9499-1.95z"/><path d="m21.332 24.399v6.862h6.862"/><path d="m30.2078 35.4748 2.8133-8.4519"/><path d="m35.7179 35.5-2.6968-8.4771"/><path d="m34.8157 32.6643h-3.6724"/><path d="m16.6078 14.3717h9.4476"/><path d="m21.3316 12.5v1.8717"/><path d="m23.9757 14.3717c0 2.5847-3.0006 6.8628-6.0012 7.5164"/><path d="m18.45 16.7187c.2971 1.7826 3.3869 4.7535 6.135 5.1694"/><path d="m19.564 26.166 1.768-1.767 1.767 1.767"/><path d="m26.427 29.494 1.767 1.767-1.767 1.768"/></g></svg>