<svg viewBox="0 0 48 48" xmlns="http://www.w3.org/2000/svg"><g fill="none" stroke="#000" stroke-linecap="round" stroke-linejoin="round"><path d="m5.5 21.2193 3.8135 5.3571a12.5456 12.5456 0 0 1 1.7251-.1816 18.3034 18.3034 0 0 1 4.6307.7264 48.0265 48.0265 0 0 1 7.0368 3.0644 26.1464 26.1464 0 0 0 3.5639 1.8386 14.7338 14.7338 0 0 0 6.6963.681 9.31 9.31 0 0 0 3.95-1.9521 9.4345 9.4345 0 0 0 2.6105-3.0872 12.33 12.33 0 0 0 1.0669-4.4036c.2293-2.3672-.5093-4.7571-.3178-7.1276a14.09 14.09 0 0 1 1.09-5.2209l1.1341-2.3607-2.9963 1.3619-.9307-2.9509-1.8386 3.2006c-.4244.7593-1.3744.6078-1.9844.8353a4.0743 4.0743 0 0 0 -1.8386 1.3847 9.8771 9.8771 0 0 0 -.9211 2.32 23.1966 23.1966 0 0 1 -2.0884 4.79 10.4357 10.4357 0 0 1 -3.246 2.9509 14.3828 14.3828 0 0 1 -5.0846 1.589 22.2613 22.2613 0 0 1 -6.3559-.0908 73.4121 73.4121 0 0 1 -9.7154-2.7244z"/><path d="m22.7742 41.0359a14.0334 14.0334 0 0 1 11.94-.0227"/><path d="m33.2613 32.7051-1.6113 6.6056"/><path d="m28.3583 32.6144-2.1565 7.2411"/></g></svg>