<svg viewBox="0 0 48 48" xmlns="http://www.w3.org/2000/svg"><g fill="none" stroke="#000" stroke-linecap="round" stroke-linejoin="round"><path d="m33.4317 43.3262a21.4857 21.4857 0 1 1 9.894-9.8935"/><path d="m20.5 12.75a3.5 3.5 0 0 1 7 0v6.5a3.5 3.5 0 0 1 -7 0z"/><path d="m39.1505 38.5009a2 2 0 0 0 1.9995-2 2 2 0 0 0 -1.9995-1.9995"/><path d="m39.1505 42.5a2 2 0 0 0 1.9995-1.9995 2 2 0 0 0 -1.9995-2"/><path d="m35.8509 41.8252a3.4069 3.4069 0 0 0 2.4876.6748h.812"/><path d="m35.85 35.1682a3.4073 3.4073 0 0 1 2.4894-.6682l.812.0019"/><path d="m37.1135 38.5009h2.037"/><circle cx="38.5" cy="38.5" r="7"/></g></svg>