<svg viewBox="0 0 48 48" xmlns="http://www.w3.org/2000/svg"><g fill="none" stroke="#000" stroke-linecap="round" stroke-linejoin="round"><path d="m42.5 33.5249v-28.0249h-37v37h28.023"/><path d="m40.361 32.6432a18.489 18.489 0 1 0 -7.7623 7.7413"/><circle cx="39" cy="39" r="6.5"/><path d="m10.2776 19.9086v8.6876h3.7948"/><path d="m27.7278 28.5962v-8.6876h1.9547a3.8008 3.8008 0 0 1 3.8008 3.8008v1.086a3.8008 3.8008 0 0 1 -3.8008 3.8008z"/><path d="m17.4769 21.2015h6.2427v6.2427h-6.2427z" transform="matrix(.70710678 -.70710678 .70710678 .70710678 -11.1658 21.6891)"/><path d="m20.5982 28.7371-1.181 1.181"/><path d="m26.1935 23.1419-1.181 1.181"/><path d="m16.184 24.3229-1.181 1.181"/><circle cx="20.0077" cy="15.8197" r="2.4007"/><path d="m9.405 19.9086h1.7452"/><path d="m9.405 28.5962h.8726"/><path d="m26.8553 28.5962h.8725"/><path d="m26.8553 19.9086h.8725"/><path d="m35.6727 19.9086v8.6876h3.7948"/><path d="m34.8002 19.9086h1.7451"/><path d="m34.8002 28.5962h.8725"/><path d="m41.2081 36.72a3.2243 3.2243 0 1 0 0 4.56"/></g></svg>