<svg viewBox="0 0 48 48" xmlns="http://www.w3.org/2000/svg"><g fill="none" stroke="#000" stroke-linecap="round" stroke-linejoin="round"><path d="m18.7452 22.8346a5.0778 5.0778 0 0 1 2.3515.2654 2.1 2.1 0 0 1 1.0342 1.779c-.0976.8577-1.2047 1.238-1.7712 1.8893a6.195 6.195 0 0 0 -1.4473 1.7955c-.558 1.6107.6714 2.8555.059 5.1135-.571 2.1054-3.4855 4.1585-5.9186 4.29a8.984 8.984 0 0 1 -8.0812-4.6155c-1.0783-2.29-.1641-5.416 1.2979-7.4825.7627-1.0779 2.6246-.911 3.4552-1.9375.736-.91.46-2.3364 1.04-3.3522a5.7055 5.7055 0 0 1 1.8753-2.0634 5.3632 5.3632 0 0 1 2.3831-.65 12.95 12.95 0 0 1 2.5568.2825"/><path d="m9.2863 30.8941 4.1683 2.2859"/><path d="m13.9859 29.8284-2.0932-1.2545 7.7339-14.21-.8791-1.7822 2.5755-4.7408 3.6688 1.9591-2.3861 4.744-3.5381.8507"/><path d="m33.1572 38.6486h-7.2737a2.3379 2.3379 0 0 1 -2.0782-2.0786v-16.1057"/><path d="m39.9114 31.167v-8.105h-12.9888c-1.3526 0-3.1173-1.2451-3.1173-2.5977s1.7647-2.5978 3.1173-2.5978h12.9888"/><path d="m25.8835 20.4643h14.0279"/><path d="m26.9226 38.6486v-15.5866"/><path d="m40.0153 34.596 3.1173 3.1175a1.47 1.47 0 0 1 -2.0782 2.0782l-3.1173-3.1175"/><circle cx="36.3324" cy="32.9905" r="3.9486"/></g></svg>