<svg viewBox="0 0 48 48" xmlns="http://www.w3.org/2000/svg"><g fill="none" stroke="#000" stroke-linecap="round" stroke-linejoin="round"><circle cx="33.5455" cy="17.2317" r="1.1645"/><circle cx="36.3596" cy="20.0436" r="1.1645"/><circle cx="30.7313" cy="20.0436" r="1.1645"/><circle cx="33.5455" cy="22.8555" r="1.1645"/><path d="m10.1584 36.107c-2.6653 3.38-5.7-2.3292-5.658-4.8011.1-5.7931 2.9734-13.4507 4.9023-16.7889a5.6747 5.6747 0 0 1 2.2583-2.2058 11.8008 11.8008 0 0 1 4.95-1.4583c.5666-.07 1.6154 1.4171 1.6154 1.4171h11.5468s1.0488-1.4873 1.6154-1.4171a11.8008 11.8008 0 0 1 4.95 1.4583 5.6747 5.6747 0 0 1 2.2583 2.2058c1.9293 3.3382 4.8031 10.9958 4.9031 16.7889.0424 2.4719-2.9927 8.1816-5.658 4.8011-2.1154-2.683-4.12-7.4215-7.1395-7.933a48.4638 48.4638 0 0 0 -6.7025-.3496 50.2739 50.2739 0 0 0 -6.7021.35c-3.0791.4012-5.0241 5.2496-7.1395 7.9326z"/><circle cx="24" cy="16.8576" r="1.7034"/><path d="m15.6315 22.9948v-1.5631"/><path d="m12.5825 19.9482h1.5643"/><path d="m15.6315 16.9017v1.563"/><path d="m18.6805 19.9482h-1.5643"/></g></svg>