<svg viewBox="0 0 48 48" xmlns="http://www.w3.org/2000/svg"><g fill="none" stroke="#000" stroke-linecap="round" stroke-linejoin="round"><path d="m40.1292 42.5a33.0723 33.0723 0 0 0 2.0526-10.9994c0-11.8698-6.7828-26.0006-18.1818-26.0006s-18.1818 14.1308-18.1818 26.0006a33.0723 33.0723 0 0 0 2.0526 10.9994z"/><path d="m21.4621 10.0717a.639.639 0 0 0 -.6271.5317l-.475 3.3595a9.3763 9.3763 0 0 0 -2.1418 1.2484l-3.1569-1.2743a.6339.6339 0 0 0 -.7722.2723l-2.5355 4.3921a.6347.6347 0 0 0 .152.8111l2.6744 2.0982a8.6766 8.6766 0 0 0 0 2.4708l-2.6744 2.0985a.6317.6317 0 0 0 -.152.811l2.5355 4.391a.6263.6263 0 0 0 .7722.2735l3.1568-1.2743a9.6175 9.6175 0 0 0 2.1419 1.2482l.4751 3.3584a.64.64 0 0 0 .6271.5328h5.07a.64.64 0 0 0 .6271-.5328l.475-3.3584a9.379 9.379 0 0 0 2.1431-1.2484l3.1556 1.2743a.6337.6337 0 0 0 .7732-.2735l2.5344-4.391a.6345.6345 0 0 0 -.152-.811l-2.6747-2.0983a8.5616 8.5616 0 0 0 0-2.4708l2.6806-2.0982a.6318.6318 0 0 0 .152-.8111l-2.5343-4.3921a.6271.6271 0 0 0 -.7733-.2723l-3.1556 1.2743a9.6137 9.6137 0 0 0 -2.1418-1.2484l-.4751-3.3595a.6517.6517 0 0 0 -.6342-.5317z"/><circle cx="24" cy="22.7461" r="7.0639"/></g></svg>