<svg viewBox="0 0 48 48" xmlns="http://www.w3.org/2000/svg"><g fill="none" stroke="#000" stroke-linecap="round" stroke-linejoin="round"><path d="m30.17 13.76a4 4 0 0 0 3 .88h.38a3.35 3.35 0 0 0 3.29-3.29 3.35 3.35 0 0 0 -3.29-3.3h-3.38v-3.55h6.72"/><circle cx="24.19" cy="11.26" r="3.38"/><path d="m27.19 5.75a3.06 3.06 0 0 0 -2.75-1.25h-.25a3.36 3.36 0 0 0 -3.38 3.38v3.38"/><path d="m15.72 14.64a2.51 2.51 0 0 0 2.52-2.51 2.51 2.51 0 0 0 -2.52-2.51 2.52 2.52 0 0 0 2.52-2.51 2.52 2.52 0 0 0 -2.52-2.52"/><path d="m11.58 13.8a4.27 4.27 0 0 0 3.12.84h1"/><path d="m11.58 5.43a4.27 4.27 0 0 1 3.12-.84h1"/><circle cx="24" cy="30.61" r="12.89"/><path d="m24 22.19v8.42l6.64 4.36"/></g></svg>