<svg viewBox="0 0 48 48" xmlns="http://www.w3.org/2000/svg"><g fill="none" stroke="#000" stroke-linecap="round" stroke-linejoin="round"><path d="m18.53 7.09a7.28 7.28 0 0 1 6.78 4.63 5.74 5.74 0 0 1 9.69 4.17 4.89 4.89 0 0 1 0 .54 5.19 5.19 0 0 1 7.52 4.64c0 2.29-1.21 3.77-3.39 5.06l-.3.13h-13.64l-.74 3.48 5.81.47-7 13.45 2.14-10.92-5.4-.3 1.3-6.18h-12.3l-.59-.26c-2.12-1.29-2.91-2.66-2.91-4.79a5.06 5.06 0 0 1 5.06-5.05 5.2 5.2 0 0 1 1 .09 7.55 7.55 0 0 1 -.26-1.89 7.27 7.27 0 0 1 7.27-7.27z"/><path d="m21.33 26.26h3.86"/></g></svg>