<svg viewBox="0 0 48 48" xmlns="http://www.w3.org/2000/svg"><g fill="none" stroke="#000" stroke-linecap="round" stroke-linejoin="round"><path d="m19.83 4.635-2.77 2.84h-10.77a1.79 1.79 0 0 0 -1.79 1.79v23.22a1.8 1.8 0 0 0 1.79 1.8h35.42a1.8 1.8 0 0 0 1.79-1.8v-23.22a1.79 1.79 0 0 0 -1.79-1.79h-10.77l-2.77-2.84zm18.93 5.74a1.8509 1.8509 0 1 1 -1.6406 1.6513 1.8585 1.8585 0 0 1 1.6406-1.6513zm-14.76 3.2a8.51 8.51 0 1 1 -8.51 8.51 8.51 8.51 0 0 1 8.51-8.51z"/><path d="m24 34.285-12.1121 9.08"/><path d="m24 34.285-7.2673 9.08"/><path d="m24 34.285-2.4224 9.08"/><path d="m24 34.285 2.4224 9.08"/><path d="m24 34.285 7.2673 9.08"/><path d="m24 34.285 12.1121 9.08"/></g></svg>