<svg viewBox="0 0 48 48" xmlns="http://www.w3.org/2000/svg"><g fill="none" stroke="#000" stroke-linecap="round" stroke-linejoin="round"><path d="m33.3289 40.0111c-4.2108 2.4305-7.6627 2.0564-7.7024-.3365l-.1494-9.0741a2.5771 2.5771 0 0 1 3.627-2.0941l7.783 4.6666c2.0608 1.2351.6515 4.4075-3.5582 6.8381z"/><path d="m42.5308 23.9269c0 4.8612-2.051 7.6637-4.143 6.5016l-7.9335-4.4075a2.5776 2.5776 0 0 1 0-4.1871l7.9335-4.4086c2.1006-1.1664 4.143 1.6404 4.143 6.5016z"/><path d="m33.202 7.9159c4.21 2.43 5.6115 5.6071 3.5593 6.838l-7.7841 4.6666a2.5766 2.5766 0 0 1 -3.6259-2.0941l.1494-9.0741c.0398-2.4015 3.4916-2.767 7.7013-.3364z"/><path d="m14.6711 7.9889c4.2108-2.4305 7.6627-2.0564 7.7024.3365l.1494 9.0746a2.5771 2.5771 0 0 1 -3.627 2.0941l-7.783-4.6666c-2.0608-1.2357-.6514-4.4075 3.5582-6.8386z"/><path d="m5.4692 24.0731c0-4.8612 2.0511-7.6637 4.143-6.5016l7.9335 4.4075a2.5776 2.5776 0 0 1 0 4.1871l-7.9335 4.4086c-2.1006 1.1664-4.143-1.6404-4.143-6.5016z"/><path d="m14.798 40.0842c-4.21-2.4306-5.6115-5.6073-3.5593-6.8381l7.7841-4.6661a2.5766 2.5766 0 0 1 3.6259 2.0941l-.1494 9.0741c-.0393 2.401-3.4916 2.7665-7.7013.336z"/><circle cx="24" cy="24" r="2.694"/><circle cx="24" cy="24" r="21.5"/></g></svg>