<svg viewBox="0 0 48 48" xmlns="http://www.w3.org/2000/svg"><g fill="none" stroke="#000" stroke-linecap="round" stroke-linejoin="round"><path d="m42.5 24a18.51 18.51 0 0 1 -18.5 18.53h-13.43a5.08 5.08 0 0 1 -5.07-5.08v-13.45a18.5 18.5 0 0 1 18.5-18.53 18.51 18.51 0 0 1 18.5 18.53z"/><path d="m24 11.6a12.4 12.4 0 0 0 -12.4 12.4v5.64a6.76 6.76 0 0 0 6.76 6.76h5.64a12.4 12.4 0 0 0 12.4-12.4 12.4 12.4 0 0 0 -12.4-12.4zm7.1 12.4a7.1 7.1 0 0 1 -7.1 7.1h-4.63a2.45 2.45 0 0 1 -2.47-2.45v-4.65a7.1 7.1 0 0 1 7.1-7.1 7.1 7.1 0 0 1 7.1 7.1z"/></g></svg>