<svg viewBox="0 0 48 48" xmlns="http://www.w3.org/2000/svg"><g fill="none" stroke="#000" stroke-linecap="round" stroke-linejoin="round"><path d="m43.5 21.33c0-8.67-8.73-15.7-19.5-15.7-10.26 0-18.77 6.37-19.45 14.65v1c-.05 8.19 7.63 14.88 17.45 15.72 2 .1 1.79.31 1.79 1.62 0 1.31-.05 2.83-.05 2.83 0 .92.51 1 1.19 1 1.3 0 6.37-3.19 9.07-5.46a30.93 30.93 0 0 0 7.79-9.21 13.13 13.13 0 0 0 1.65-5.32c.04-.46.06-.78.06-1.13z"/><path d="m10.5 16.51v8.58h4.29"/><path d="m18.07 25.09h4.29"/><path d="m18.07 16.51h4.29"/><path d="m20.21 16.51v8.58"/><path d="m33.21 25.09h4.29"/><path d="m33.21 16.51h4.29"/><path d="m33.21 20.8h2.15"/><path d="m33.21 16.51v8.58"/><path d="m24.55 25.09v-8.58"/><path d="m31.02 25.09v-8.58"/><path d="m24.55 16.51 6.47 8.58"/></g></svg>