<svg viewBox="0 0 48 48" xmlns="http://www.w3.org/2000/svg"><path d="m7.45 9.77a2.94 2.94 0 0 0 -2.95 2.94v22.57a2.94 2.94 0 0 0 2.94 2.95h33.11a2.94 2.94 0 0 0 3-2.94v-22.57a2.94 2.94 0 0 0 -2.94-3h-33.16zm7.46 8.86a5.6 5.6 0 0 0 -5.4 5.37 5.61 5.61 0 0 0 5.4 5.39 5.6 5.6 0 0 0 5.39-5.39 5.6 5.6 0 0 0 -5.39-5.37zm18.22 0a5.59 5.59 0 0 0 -5.39 5.37 5.6 5.6 0 0 0 5.39 5.39 5.6 5.6 0 0 0 5.39-5.39 5.6 5.6 0 0 0 -5.39-5.37zm-18.22 10.78h18.22" fill="none" stroke="#000" stroke-linecap="round" stroke-linejoin="round"/></svg>