<svg viewBox="0 0 48 48" xmlns="http://www.w3.org/2000/svg"><g fill="none" stroke="#000"><path d="m38.3 23.47-3.38-3.47a1.14 1.14 0 0 0 -1.63-.23 34.74 34.74 0 0 1 -3 2.05 1.81 1.81 0 0 0 -1 1.44v2.92a16.58 16.58 0 0 1 -5.29.82 17.18 17.18 0 0 1 -5.27-.93c0-1.27 0-2.48 0-2.91a1.8 1.8 0 0 0 -1-1.46 34.91 34.91 0 0 1 -3-2.12 1.15 1.15 0 0 0 -1.64.19l-3.39 3.4a.85.85 0 0 0 0 1.1c2.82 3.35 7.84 5 8.82 5.27l.15.05a20.23 20.23 0 0 0 10.45.1s5.9-1.48 9.12-5.13a.86.86 0 0 0 .06-1.09z"/><path d="m38.19 34.26a17.5 17.5 0 0 0 -21.57-26.14l-9.17-2.62 2.35 8.25a17.5 17.5 0 0 0 21.58 26.13l9.16 2.62z" stroke-linecap="round" stroke-linejoin="round"/></g></svg>