<svg viewBox="0 0 48 48" xmlns="http://www.w3.org/2000/svg"><g fill="none" stroke="#000" stroke-linecap="round" stroke-linejoin="round"><path d="m13.1582 18.3583c2.362-11.6876 16.0787-8.8254 17.1661-.9741 3.6778.4509 5.1653 2.448 5.8116 5.0389 10.2818 1.09 9.1288 14.9737.6718 15.05h-24.2877c-10.2956-.2045-11.3022-16.7704.6382-19.1148z"/><path d="m22.3627 30.0151-1.5789 1.68a2.4868 2.4868 0 0 1 -3.3929-3.6281l2.4191-2.587a2.4436 2.4436 0 0 1 3.7289.3695"/><path d="m21.3885 27.2941a2.3552 2.3552 0 0 0 3.796-.1008l2.3516-2.4523c1.9778-2.6338-1.6654-5.3265-3.4265-3.2921l-1.4445 1.4445"/></g></svg>