<svg viewBox="0 0 48 48" xmlns="http://www.w3.org/2000/svg"><g fill="none" stroke="#000" stroke-linecap="round" stroke-linejoin="round"><path d="m16.2182 35.9c-3.1368 0-6.8982 1.496-7.2988 5.6766a.916.916 0 0 0 .9061 1.0025h11.97a.9.9 0 0 0 .9045-.9361c-.0825-1.8382-.9135-5.743-6.4818-5.743z"/><path d="m18.0508 20.564c-1.35 1.0368-7.3687 7.51-4.3595 15.6667"/><path d="m31.7818 35.9c3.1368 0 6.8982 1.496 7.2988 5.6766a.916.916 0 0 1 -.9061 1.0025h-11.97a.9.9 0 0 1 -.9045-.9361c.0825-1.8382.9135-5.743 6.4818-5.743z"/><path d="m35.0148 36.4556c3.1848-2.8438 2.7468-7.5246 2.7468-8.7785 2.8935.82 5.0306 2.9709 5.5941 2.17 1.3744-1.9531-7.5193-7.5461-7.6918-10.8989-.1688-3.279-.4933-13.5268-11.6639-13.5268s-11.4951 10.2478-11.6639 13.527c-.1725 3.3528-9.0662 8.9458-7.6918 10.8989.5635.8007 2.7006-1.35 5.5941-2.17 0 1.2539-.438 5.9347 2.7468 8.7785"/><path d="m29.2763 19.8324c1.9318 1.5032 8.0416 8.242 5.0324 16.3983"/><path d="m24 24.8431 3.9479-4.2791c-.3858-1.0127-1.712-1.929-3.9479-1.929s-3.5621.9163-3.9479 1.929z"/><path d="m20.0521 20.564c-3.424.5063-3.9062-2.7247-3.9062-4.7019 0-2.7006 1.4467-4.4367 3.9062-4.4367s3.7379 3.3275 3.7379 4.9189a3.8486 3.8486 0 0 1 -.609 2.3357"/><path d="m27.7205 20.1334c.6751.0482 3.9538-.3892 3.9538-3.331s-1.76-3.7615-4.1232-3.7615a3.7861 3.7861 0 0 0 -3.8164 2.6682"/><path d="m22.7012 41.4815a6.8371 6.8371 0 0 0 2.6076 0"/></g><circle cx="22.1579" cy="16.5888" r=".75"/><circle cx="25.5497" cy="16.5888" r=".75"/></svg>