<svg viewBox="0 0 48 48" xmlns="http://www.w3.org/2000/svg"><g fill="none" stroke="#000" stroke-linecap="round" stroke-linejoin="round"><path d="m26.0172 7.19 10.03 27.582a12.1061 12.1061 0 0 1 .7288 4.1368 4.5916 4.5916 0 0 1 -1.3449 3.2467 4.5912 4.5912 0 0 1 -3.2468 1.3445h-16.3686a4.5912 4.5912 0 0 1 -3.2467-1.3448 4.5916 4.5916 0 0 1 -1.3449-3.2467 12.1061 12.1061 0 0 1 .7288-4.1368l10.0299-27.5817h-1.3449a1.3448 1.3448 0 0 1 -1.3448-1.3449 1.3448 1.3448 0 0 1 1.3448-1.3451h6.7242a1.3448 1.3448 0 0 1 1.3448 1.3448 1.3448 1.3448 0 0 1 -1.3448 1.3452z"/><path d="m13.1 31.6168h21.8"/><path d="m19.5221 27.5647a1.2784 1.2784 0 1 0 -.3743-.9038 1.2941 1.2941 0 0 0 .3743.9038z"/><path d="m24.3534 21.4911a2.1263 2.1263 0 1 1 0 1.3449 2.152 2.152 0 0 1 0-1.3449z"/><path d="m21.9828 17.9483a.9508.9508 0 1 0 -.2786-.6724.9624.9624 0 0 0 .2786.6724z"/></g></svg>