<svg viewBox="0 0 48 48" xmlns="http://www.w3.org/2000/svg"><g fill="none" stroke="#000" stroke-linecap="round" stroke-linejoin="round"><path d="m32.7554 34.8415h-24.5883a2.7945 2.7945 0 0 1 -2.7944-2.7945v-23.7526a2.7944 2.7944 0 0 1 2.7944-2.7944h14.3639z"/><path d="m25.2 13.1585h14.6329a2.7945 2.7945 0 0 1 2.7944 2.7945v23.7526a2.7944 2.7944 0 0 1 -2.7944 2.7944h-14.3639l-2.669-7.6586"/><path d="m32.7554 34.8415-7.2864 7.6585"/><path d="m16.0441 11.0706a3.96 3.96 0 0 1 3.96 3.96v4.8958a3.96 3.96 0 0 1 -3.96 3.96 3.96 3.96 0 0 1 -3.96-3.96v-4.8957a3.96 3.96 0 0 1 3.96-3.96z"/><path d="m9.4018 21.1048a6.7645 6.7645 0 0 0 13.2847 0"/><path d="m16.0441 26.5891v3.336"/><path d="m27.9687 21.1048h11.2505"/><path d="m31.3835 30.9044h7.8357"/><path d="m29.7307 26.0046h9.4885"/></g></svg>