<svg viewBox="0 0 48 48" xmlns="http://www.w3.org/2000/svg"><path d="m41.4533 23.63c.5638 3.0228.2258 3.3313-.769 6.4647m-3.3224 7.5924a19.2936 19.2936 0 1 1 -22.4419-29.8341m7.0005-1.33a19.3188 19.3188 0 0 1 5.126.6878m-10.5119-.2656 1.8007-1.3505m10.6447-.763 2.0014.1756m-1.7078 5.8227.7882 1.2383m1.8995-3.5054 1.7181.217m5.2206 26.6839 1.8007-1.5m-2.3261-9.2321-.45-2.1m5.9275-.9756c1.963-1.473-.4162.4162.9-.9a1.0676 1.0676 0 0 1 .3011-.1505m-3.6088-1.5516-.2878-1.3254m-3.287.6465-.9431-1.0922m-16.2327-13.7456 2.2406-.5373m16.727 8.4159.9683-.0442.1387-.1181m-1.8863 2.9964 1.0863.552m-2.8633-6.7985 1.1866.2864m5.29 8.2107.5092-1.2575" fill="none" stroke="#000" stroke-linecap="round" stroke-linejoin="round"/></svg>