<svg viewBox="0 0 48 48" xmlns="http://www.w3.org/2000/svg"><g fill="none" stroke="#000" stroke-linecap="round" stroke-linejoin="round"><path d="m33.65 15.37 1.69-1.68a2 2 0 0 0 0-2.79 2 2 0 0 0 -2.79 0l-1.69 1.67a12 12 0 0 0 -14.06 0l-1.63-1.64a2 2 0 0 0 -2.81 0 2 2 0 0 0 0 2.79l1.64 1.66a12 12 0 0 0 -2.29 7v5.76a1.27 1.27 0 0 0 1.29 1.31h21.66a1.27 1.27 0 0 0 1.24-1.27v-5.76a12 12 0 0 0 -2.25-7.05zm-14.89 9a2.23 2.23 0 1 1 2.24-2.26 2.23 2.23 0 0 1 -2.23 2.23zm10.19 0a2.23 2.23 0 1 1 2.21-2.25 2.23 2.23 0 0 1 -2.23 2.23z"/><path d="m7 4.5v34.08"/><path d="m13.78 4.5v5.83"/><path d="m20.59 4.5v6.07"/><path d="m27.41 4.5v6.13"/><path d="m34.22 4.5v5.55"/><path d="m41 4.5v34.08"/><path d="m34.22 37.56v-8.11"/><path d="m27.41 34.71v-5.26"/><path d="m20.59 38.58v-9.13"/><path d="m13.78 38.58v-9.13"/><path d="m7 11.32h4.79"/><path d="m7 18.13h5.39"/><path d="m7 25h4.79"/><path d="m7 31.77h34"/><path d="m7 38.58h25"/><path d="m35.9 25h5.1"/><path d="m35.34 18.13h5.66"/><path d="m35.9 11.32h5.1"/><path d="m41 4.5h-34"/><path d="m22.56 34.21c4.71 2.21 9.32 3.79 13.87 6.28.25 1.14-.15 2.16 1.13 2.84a1.67 1.67 0 0 0 2.2-.78 1.6 1.6 0 0 0 -.17-1.66 2.52 2.52 0 0 0 -1.87-.84 2.92 2.92 0 0 1 -.86-.4c-5.86-3.65-10.53-6.17-14.3-5.44z"/><path d="m33.76 39.12c-4.45 2.59-8.12 4.17-11.2 3.57 3.3-1.54 6.54-2.78 9.76-4.24"/><path d="m33.76 37.78c.9-.43 1.79-.88 2.67-1.37.25-1.14-.15-2.16 1.13-2.84a1.67 1.67 0 0 1 2.2.78 1.6 1.6 0 0 1 -.17 1.65 2.52 2.52 0 0 1 -1.87.84 2.92 2.92 0 0 0 -.86.4c-.67.42-1.32.82-2 1.2"/><path d="m27.41 36.34v2.24"/><path d="m35.12 38.58h5.92"/></g></svg>