<svg viewBox="0 0 48 48" xmlns="http://www.w3.org/2000/svg"><g fill="none" stroke="#000" stroke-linecap="round" stroke-linejoin="round"><path d="m25.81 8.29s-12.88 0-14.24 0c-2.84-.03-5.64 1.12-5.78 1.71-.24 1.09-.74 25-.82 29.08a.58.58 0 0 0 .52.6c7.13.14 17.57 3.32 25.88 3.32 1.82 0 8.09.24 8.09-2.69 0-1.63-1.44-3.42-1.47-5.16 0-.87-.63-10.21-.47-11.43"/><circle cx="10.72" cy="14.34" r="2.47"/><path d="m26.5 22.15c-.25.19-.52.39-.81.58"/><path d="m24 23.8c-4.72 2.73-11.53 5.62-10 8.37 1.42 2.59 6 2.53 8.66 2.26" stroke-dasharray="2.02 2.02"/><path d="m23.6 34.3 1-.16"/><path d="m13 18.52a3.92 3.92 0 0 0 .49.86"/><path d="m15 21.12a3.85 3.85 0 0 0 2.07 1.12 9.92 9.92 0 0 0 5.43-1.72" stroke-dasharray="2.33 2.33"/><path d="m23.54 19.93.86-.52"/><path d="m33.16 5a9.87 9.87 0 1 0 9.84 9.87 9.87 9.87 0 0 0 -9.84-9.87z"/><path d="m32.7 10.6-5.07 1.19 11.07 6.16"/><path d="m29.47 16.54-1.84-4.75"/><path d="m23.71 31c2.58.76 5.93 4.4 8.16 7.4"/><path d="m31.15 29.42a69.42 69.42 0 0 0 -6.42 8.64"/></g></svg>