<svg viewBox="0 0 48 48" xmlns="http://www.w3.org/2000/svg"><g fill="none" stroke="#000" stroke-linecap="round" stroke-linejoin="round"><path d="m38.6475 41.4906v-19.1235h3.9925a.8582.8582 0 0 0 .5562-1.5118l-17.6068-14.9871a2.4521 2.4521 0 0 0 -3.1788 0l-17.6069 14.9871a.8582.8582 0 0 0 .5563 1.5118h3.9925v19.1235a1.226 1.226 0 0 0 1.226 1.226h26.843a1.226 1.226 0 0 0 1.226-1.226z"/><path d="m18.7315 24.8673v-3.47a5.2685 5.2685 0 0 1 10.537 0v3.47"/><path d="m16.8943 24.8673h14.2115v11.6754h-14.2115z"/></g></svg>