<svg viewBox="0 0 48 48" xmlns="http://www.w3.org/2000/svg"><g fill="none" stroke="#000" stroke-linecap="round" stroke-linejoin="round"><path d="m42.6545 23.9931a15.8126 15.8126 0 1 1 -31.6252.0271c0-.009 0-.0181 0-.0271a7.8824 7.8824 0 0 0 -4.3612-7.0737 3.95 3.95 0 0 1 3.5539-7.0558 15.742 15.742 0 0 1 8.708 14.1295 7.912 7.912 0 1 0 7.9122-7.9117 3.95 3.95 0 0 1 0-7.9007 15.8089 15.8089 0 0 1 13.0669 6.9162"/><path d="m31.5423 17.6368c-1.7974-1.7271-.2719-4.7646.7038-5.506"/><path d="m33.9293 20.5066c-.9169-2.7139 3.4343-6.2458 6.5271-5.2317 1.2955.4248 3.161 4.31 3.0378 8.1282a2.4963 2.4963 0 0 1 -.84 1.6255"/><path d="m34.7294 25.0286c.5819-2.9665 6.9312-2.6381 7.9251-1.0355"/><path d="m33.63 28.0475c1.9263-1.3787 4.6455.7432 4.9923 2.2165"/><path d="m30.6988 30.8985a3.4579 3.4579 0 0 1 3.5177 3.37"/><path d="m26.061 31.867c2.11.9264 1.9254 3.578 1.6968 4.3715"/><path d="m21.5183 29.8342a3.032 3.032 0 0 1 -.3834 4.27"/><path d="m19.3369 26.4928a3.2484 3.2484 0 0 1 -.8841 2.9038"/><path d="m18.4131 19.87a3.1356 3.1356 0 0 1 -.88 2.9166"/></g><circle cx="7.5941" cy="14.3162" r=".75"/><circle cx="9.2" cy="12.0731" r=".75"/></svg>