<svg viewBox="0 0 48 48" xmlns="http://www.w3.org/2000/svg"><g fill="none" stroke="#000" stroke-linecap="round" stroke-linejoin="round"><path d="m16.14 19.19v22.81a1.54 1.54 0 0 0 1.54 1.54h19.18a1.54 1.54 0 0 0 1.54-1.54v-24.45a1.64 1.64 0 0 0 -3.27 0 1.64 1.64 0 1 1 -3.27 0v-11.91a1.14 1.14 0 0 0 -1.14-1.14h-20a1.14 1.14 0 0 0 -1.12 1.14v12.41a1.15 1.15 0 0 0 1.14 1.14h22.76"/><path d="m16.14 29.61h22.26"/><path d="m18.77 31.65-.79-2.04.79-2.05"/><path d="m20.93 31.65-.79-2.04.79-2.05"/><path d="m23.09 31.65-.79-2.04.79-2.05"/><path d="m25.25 31.65-.79-2.04.79-2.05"/><path d="m27.41 31.65-.8-2.04.8-2.05"/><path d="m29.57 31.65-.8-2.04.8-2.05"/><path d="m31.72 31.65-.79-2.04.79-2.05"/><path d="m33.88 31.65-.79-2.04.79-2.05"/><path d="m36.04 31.65-.79-2.04.79-2.05"/><path d="m12.36 9.82h16.74"/><path d="m12.36 13.87h9.45"/><path d="m18.9 23.45h16.74"/><path d="m18.9 39.47h16.74"/><path d="m18.9 35.34h13.82"/></g></svg>