<svg viewBox="0 0 48 48" xmlns="http://www.w3.org/2000/svg"><g fill="none" stroke="#000" stroke-linecap="round" stroke-linejoin="round"><path d="m9.39 24.35h13.61a1 1 0 0 1 1 1v5a0 0 0 0 1 0 0h-15.62a0 0 0 0 1 0 0v-5a1 1 0 0 1 1.01-1z"/><path d="m8.38 25.36v-10.08a1.41 1.41 0 0 1 1.41-1.41h12.8a1.41 1.41 0 0 1 1.41 1.41v10.08"/><path d="m24 25.36v-10.08a1.41 1.41 0 0 1 1.41-1.41h12.8a1.41 1.41 0 0 1 1.41 1.41v10.08"/><path d="m5.36 19.57h2.16a.86.86 0 0 1 .86.86v10a0 0 0 0 1 0 0h-2.81a1.07 1.07 0 0 1 -1.07-1.1v-8.9a.86.86 0 0 1 .86-.86z"/><path d="m40.69 19.57h2.81a0 0 0 0 1 0 0v10a.86.86 0 0 1 -.86.86h-2.16a.86.86 0 0 1 -.86-.86v-8.9a1.07 1.07 0 0 1 1.07-1.07z" transform="matrix(-1 0 0 -1 83.12 49.98)"/><path d="m25 24.35h13.61a1 1 0 0 1 1 1v5a0 0 0 0 1 0 0h-15.61a0 0 0 0 1 0 0v-5a1 1 0 0 1 1-1z"/><path d="m8.38 30.41h3.07v3.73h-3.07z"/><path d="m36.55 30.41h3.07v3.73h-3.07z"/></g></svg>