<svg viewBox="0 0 48 48" xmlns="http://www.w3.org/2000/svg"><g fill="none" stroke="#000" stroke-linecap="round" stroke-linejoin="round"><path d="m15.1616 5.3372a10.6483 10.6483 0 0 0 -8.27 17.3719l17.0769 20.0446 16.909-19.8447.0842-.0947.0842-.1052a10.6589 10.6589 0 1 0 -17.0774-12.7107 10.6272 10.6272 0 0 0 -8.7964-4.6612z"/><path d="m19.2137 25.6974a3.1567 3.1567 0 1 0 0-6.3133 3.1567 3.1567 0 1 0 0-6.3132m-5.241 1.1048c.9529-.7892 1.9058-1.1048 3.9705-1.1048h1.27m-5.241 11.5214c.9529.7891 1.747 1.1048 3.9705 1.1048h1.27"/><path d="m33.5963 14.63a3.8942 3.8942 0 0 0 -3.4723-1.5588h-.3157a4.2178 4.2178 0 0 0 -4.2615 4.2088v4.2088m8.523 0a4.2354 4.2354 0 0 1 -4.2615 4.2089 4.2092 4.2092 0 1 1 4.2617-4.2092z"/></g></svg>