<svg viewBox="0 0 48 48" xmlns="http://www.w3.org/2000/svg"><g fill="none" stroke="#000" stroke-linecap="round" stroke-linejoin="round"><path d="m24 19.4832a12.2767 12.2767 0 0 1 6.1665-1.65 12.3333 12.3333 0 0 1 12.3335 12.3335v12.3333h-12.3333a12.3333 12.3333 0 0 1 -12.3334-12.3333 12.2758 12.2758 0 0 1 1.6514-6.169"/><path d="m30.1667 42.5h-12.3334a12.3333 12.3333 0 0 1 -12.3333-12.3333 12.3333 12.3333 0 0 1 12.3333-12.3334 12.3333 12.3333 0 0 1 12.3334 12.3334"/><path d="m30.1667 5.5a12.3333 12.3333 0 0 1 12.3333 12.3333v12.3334a0 0 0 0 1 0 0h-12.3333a12.3333 12.3333 0 0 1 -12.3334-12.3334 12.3333 12.3333 0 0 1 12.3334-12.3333z"/></g></svg>