<svg viewBox="0 0 48 48" xmlns="http://www.w3.org/2000/svg"><path d="m6.45 8.4a2 2 0 0 0 -1.95 1.95v27.3a2 2 0 0 0 2 2h7.18a11.94 11.94 0 0 1 4.06-3 24 24 0 0 1 9.16-2h1.32a18.72 18.72 0 0 1 3.35.41c4.2.93 7.91 2.82 9.11 4.6h.92a2 2 0 0 0 2-2v-27.31a2 2 0 0 0 -2-1.95zm13 6.84a10.1 10.1 0 0 1 1.55 1.28l1.45 1.35 1.09-1.24 1.08-1.24 1.28 1.26 1.28 1.26 1.22-1.28 1.22-1.28 2.26 2.53 1.12-1.06c1-.93 1.74-1.54 1.74-1.54s0 1-.06 2.35-.23 3.33-.32 4.46l-.17 2.05-1.19-.14c-.67-.09-3.29-.16-5.83-.16s-5.16.07-5.85.16c-.89.12-.92.09-1.27.13 0-.16-.14-2.39-.3-4.67s-.27-4.16-.25-4.2zm-4.45 4.76.58 1.56 1.68.13-1.31 1 .4 1.63-1.39-.92-1.43.89.47-1.62-1.29-1.08 1.66-.07zm-3.54 4.19 1.07 2.91 3.13.22-2.48 1.88.75 3.05-2.58-1.72-2.66 1.65.84-3-2.39-2 3.1-.12 1.18-2.9zm22.75 0-.08 2.75a6.41 6.41 0 0 1 -4 5.93 7.77 7.77 0 0 1 -5.95 0 6.41 6.41 0 0 1 -4-5.93l-.18-2.83" fill="none" stroke="#000" stroke-linecap="round" stroke-linejoin="round"/></svg>