<svg viewBox="0 0 48 48" xmlns="http://www.w3.org/2000/svg"><g fill="none" stroke="#000" stroke-linecap="round" stroke-linejoin="round"><path d="m40.5 5.5h-33a2 2 0 0 0 -2 2v33a2 2 0 0 0 2 2h33a2 2 0 0 0 2-2v-33a2 2 0 0 0 -2-2z"/><path d="m9.5 17.594v12.812h6.406"/><path d="m18.9522 30.406v-12.812h4.1944a4.3028 4.3028 0 0 1 0 8.6056h-4.1944"/><path d="m23.1466 26.1996 4.194 4.2032"/><path d="m38.5 26.11v.0524a4.244 4.244 0 0 1 -4.244 4.244 4.244 4.244 0 0 1 -4.244-4.244v-4.3244a4.244 4.244 0 0 1 4.244-4.244 4.244 4.244 0 0 1 4.244 4.244v.0525"/></g></svg>