<svg viewBox="0 0 48 48" xmlns="http://www.w3.org/2000/svg"><g fill="none" stroke="#000" stroke-linecap="round" stroke-linejoin="round"><path d="m40.5 5.5h-33a2 2 0 0 0 -2 2v33a2 2 0 0 0 2 2h33a2 2 0 0 0 2-2v-33a2 2 0 0 0 -2-2z"/><path d="m10.616 18v12h6"/><path d="m29.4338 30v-12h3.9285a4.03 4.03 0 0 1 0 8.06h-3.9285"/><path d="m19.12 28.6852a3.3567 3.3567 0 0 0 2.9419 1.3148h1.7765a2.9968 2.9968 0 0 0 2.9936-3 2.9968 2.9968 0 0 0 -2.9936-3h-1.9629a2.9967 2.9967 0 0 1 -2.9935-3 2.9967 2.9967 0 0 1 2.9935-3h1.7766a3.3564 3.3564 0 0 1 2.9422 1.3148"/></g></svg>