<svg viewBox="0 0 48 48" xmlns="http://www.w3.org/2000/svg"><g fill="none" stroke="#000" stroke-linecap="round" stroke-linejoin="round"><path d="m39.76 22.8v-7.8a2 2 0 0 0 -2-2h-9.82v-7.54a1 1 0 0 0 -1-1h-2.94a3.93 3.93 0 0 0 -3.94 3.94v4.64h-9.85a2 2 0 0 0 -2 2v7.76z"/><path d="m8.24 22.8v19.7a1 1 0 0 0 1 1h1.64a8.08 8.08 0 0 0 7.88-7.88v6.9a1 1 0 0 0 1 1h1.63a7.88 7.88 0 0 0 7.88-7.88v6.9a1 1 0 0 0 1 1h1.65a7.88 7.88 0 0 0 7.88-7.88v-12.86z"/><path d="m18.75 35.6v-12.8"/><path d="m29.25 35.6v-12.8"/></g></svg>