<svg viewBox="0 0 48 48" xmlns="http://www.w3.org/2000/svg"><circle cx="29.8258" cy="18.1669" r=".75"/><g fill="none" stroke="#000" stroke-linecap="round" stroke-linejoin="round"><path d="m29.8262 21.5837v7.4538"/><path d="m8.5605 17.7436v9.8822a1.3338 1.3338 0 0 0 1.4117 1.4117h.4236"/><path d="m26.9893 27.6258a2.7328 2.7328 0 0 1 -2.4 1.4117 2.8317 2.8317 0 0 1 -2.8235-2.8234v-1.8353a2.8318 2.8318 0 0 1 2.8235-2.8235 2.7327 2.7327 0 0 1 2.4 1.4118"/><path d="m18.3393 26.2142a2.8319 2.8319 0 0 1 -2.8236 2.8234 2.8318 2.8318 0 0 1 -2.8234-2.8234v-4.6587"/><path d="m19.4686 29.0376a1.2143 1.2143 0 0 1 -1.1293-1.1293v-6.3528"/><path d="m38.31 26.2142a2.8318 2.8318 0 0 1 -2.8234 2.8234 2.8318 2.8318 0 0 1 -2.8235-2.8234v-1.8353a2.8318 2.8318 0 0 1 2.8235-2.8234 2.8318 2.8318 0 0 1 2.8234 2.8234"/><path d="m39.44 29.0376a1.2145 1.2145 0 0 1 -1.13-1.1293v-6.3528"/><path d="m40.5 42.5h-33a2.0059 2.0059 0 0 1 -2-2v-33a2.0059 2.0059 0 0 1 2-2h33a2.0059 2.0059 0 0 1 2 2v33a2.0059 2.0059 0 0 1 -2 2z"/></g></svg>