<svg viewBox="0 0 48 48" xmlns="http://www.w3.org/2000/svg"><g fill="none" stroke="#000" stroke-linecap="round" stroke-linejoin="round"><path d="m8.5893 7.185c8.0275 19.4944 28.2695 10.1037 28.5747-1.685"/><path d="m5.36 11.7482c14.1947 11.5478 29.8418 6.7118 37.28-3.9317"/><path d="m26.0709 27.0539c-4.1529.6074-8.1417 7.8266-.5617 11.3038 4.4281 2.0312 11.4514-.1822 13.6908 4.1423"/><path d="m16.874 22.28c-4.2528 4.0974-6.7838 9.8836-6.1783 18.7453"/><path d="m23.4508 18.4084c.4295 2.5219 4.2577 2.629 8.1669 2.6784a6.18 6.18 0 0 1 -.9829 3.8615 6.5387 6.5387 0 0 1 -4.5636 2.1063"/><path d="m16.874 22.28a8.5 8.5 0 0 1 -9.3026-2.036c2.1477-.8366 4.3134-1.66 9.4781-.2106 1.3776-.3589 1.5315-1.2072 2.1383-1.8744"/><path d="m31.1674 23.9679-2.8142.48"/></g></svg>