<svg viewBox="0 0 48 48" xmlns="http://www.w3.org/2000/svg"><g fill="none" stroke="#000" stroke-linecap="round" stroke-linejoin="round"><path d="m34.5127 32.4516c-14.0063-1.9691-19.1198-11.0526-28.0127-12.8316"/><path d="m41.5 20.0015a106.6725 106.6725 0 0 0 -13.72-.3815c-.0941 1.9043-4.8708 5.4394-8.0252 7.1026"/><path d="m39.5732 21.9371a91.1451 91.1451 0 0 0 -12.8824-.359"/><path d="m38.197 23.7907a106.39 106.39 0 0 0 -13.4236-.4129"/><path d="m35.8255 25.5817c-8.0672-.6987-13.2069-.6-13.2069-.6"/><path d="m11.1373 21.2715.6349-1.0477s4.6053 1.8422 6.5744 2.7314"/><circle cx="24" cy="24" r="21.5"/></g></svg>