<svg viewBox="0 0 48 48" xmlns="http://www.w3.org/2000/svg"><g fill="none" stroke="#000" stroke-linecap="round" stroke-linejoin="round"><path d="m33.35 5.6c6.12 0 10.15 3.21 10.15 10.81s-4.08 26-17.8 26-21.2-13.21-21.2-19.54c0-9.74 19.12-17.27 28.85-17.27z"/><path d="m16.27 23.58h.84a1 1 0 0 1 1 1v6.92a1 1 0 0 1 -1 1h-.84a4.43 4.43 0 0 1 -4.44-4.5 4.43 4.43 0 0 1 4.44-4.42z"/><path d="m31.73 23.28a7.73 7.73 0 0 0 -15.46 0"/><path d="m16.27 23.58v8.87"/><path d="m34.35 23.28h.84a1 1 0 0 1 1 1v6.92a1 1 0 0 1 -1 1h-.84a4.43 4.43 0 0 1 -4.43-4.43 4.43 4.43 0 0 1 4.43-4.49z" transform="matrix(-1 0 0 -1 66.09 55.44)"/><path d="m31.73 23.28v8.87"/></g></svg>