<svg viewBox="0 0 48 48" xmlns="http://www.w3.org/2000/svg"><circle cx="35.7642" cy="28.5374" r=".75"/><g fill="none" stroke="#000" stroke-linecap="round" stroke-linejoin="round"><path d="m11 14.408v14.343h7.171"/><path d="m27.062 25.1653v4.8407a3.5857 3.5857 0 0 1 -3.5856 3.5856 3.5739 3.5739 0 0 1 -2.5353-1.05"/><path d="m27.062 19.249v5.9163a3.5857 3.5857 0 0 1 -3.5856 3.5857 3.5857 3.5857 0 0 1 -3.5856-3.5857v-5.9163"/><path d="m31.9547 28.751v-11.8326a2.51 2.51 0 0 1 2.51-2.51 2.9223 2.9223 0 0 1 2.5353 1.0502"/><path d="m29.8287 19.249h5.0199"/><path d="m40.5 5.5h-33a2 2 0 0 0 -2 2v33a2 2 0 0 0 2 2h33a2 2 0 0 0 2-2v-33a2 2 0 0 0 -2-2z"/></g></svg>