<svg viewBox="0 0 48 48" xmlns="http://www.w3.org/2000/svg"><g fill="none" stroke="#000" stroke-linecap="round" stroke-linejoin="round"><path d="m23.3973 25.2456v5.0836a3.7767 3.7767 0 0 1 -3.7656 3.7656 3.16 3.16 0 0 1 -2.6359-1.13"/><path d="m23.3973 19.0324v6.2132a3.7766 3.7766 0 0 1 -3.7656 3.7656 3.7767 3.7767 0 0 1 -3.7656-3.7656v-6.2132"/><path d="m34.6065 15.8286v13.18m-2.071-9.9788h3.9538"/><path d="m11.514 13.9v13.18a1.78 1.78 0 0 0 1.882 1.886h.567"/><path d="m27.4448 29v-12.4263a2.574 2.574 0 0 1 2.636-2.6359 2.9319 2.9319 0 0 1 2.6359 1.13m-7.3429 3.9539h5.2718"/><path d="m40.5 5.5h-33a2 2 0 0 0 -2 2v33a2 2 0 0 0 2 2h33a2 2 0 0 0 2-2v-33a2 2 0 0 0 -2-2z"/></g></svg>