<svg viewBox="0 0 48 48" xmlns="http://www.w3.org/2000/svg"><path d="m8.85 22.3653.9925-9.8084s1.1677 6.8309 2.2769 7.94c.5839-.1751 2.6273-.8757 2.6273-.8757 1.1676-3.0359 2.2769-12.26 2.2769-12.26s.9925 9.2829 1.9851 11.3263c.6422-.1167 3.1526-.35 3.1526-.35.9338-2.3944 1.9263-13.8375 1.9263-13.8375s1.226 11.3847 2.1018 13.8368c.7006.0584 2.9775.4087 2.9775.4087 1.0509-2.2769 2.2186-11.3847 2.2186-11.3847s1.0509 10.3922 2.0434 12.3772c.8174.1752 2.5688.8174 2.5688.8174 1.2845-1.518 2.3937-7.765 2.3937-7.765l.759 9.6333s-12.2313 4.262-14.8585 21.0763c-2.3645-16.7268-15.4419-21.1347-15.4419-21.1347z" fill="none" stroke="#000" stroke-linecap="round" stroke-linejoin="round"/></svg>