<svg viewBox="0 0 48 48" xmlns="http://www.w3.org/2000/svg"><g fill="none" stroke="#000" stroke-linecap="round" stroke-linejoin="round"><path d="m16.07 36.17a17.59 17.59 0 0 1 -9.3-6.73 11.68 11.68 0 0 1 -1.88-9.91c1.82-6.96 10.05-11.75 19.11-11.75 9.07 0 17.29 4.79 19.11 11.75a11.68 11.68 0 0 1 -1.89 9.91 17.56 17.56 0 0 1 -9.29 6.73m-7.93-10.08.79 2.41 2.41.79-2.41.79-.79 2.41-.79-2.41-2.41-.79 2.41-.79zm0 6.4 1.09 2.77 2.77 1.1-2.77 1.09-1.09 2.77-1.09-2.77-2.78-1.09 2.78-1.1z"/><path d="m23 24.38a2 2 0 0 1 2 0l4.7 2.62a1.89 1.89 0 0 0 1.73.07 1.88 1.88 0 0 0 .8-2.72l-7.38-11.64a1 1 0 0 0 -1.7 0l-7.38 11.68a1.88 1.88 0 0 0 .8 2.72 1.89 1.89 0 0 0 1.73-.11z"/></g></svg>