<svg viewBox="0 0 48 48" xmlns="http://www.w3.org/2000/svg"><path d="m8 5.48 1 1.65c1.06 1.76 4.82 2.85 5.68 3a12.12 12.12 0 0 1 2.23.47c3.5 1.18 3.18 2.25 2.38 3.48-1 1.49-3.63 1.39-5.77.7s-3.63-3.22-4.2-4.35a11.38 11.38 0 0 1 -1.32-4.95zm32 0a11.42 11.42 0 0 1 -1.32 4.9c-.57 1.14-2.07 3.68-4.2 4.36s-4.81.79-5.77-.7c-.8-1.22-1.12-2.3 2.38-3.48a12.1 12.1 0 0 1 2.23-.46c.9-.1 4.68-1.21 5.68-2.96zm-19.36 12.69c1.84.21 2 .69 2.38 2a1 1 0 0 1 -.93 1.33c-2.05.32-2.32 1.1-3.46 2.32a7.32 7.32 0 0 1 -7.36 2.55c-4.22-.77-6.77-6.95-6.77-6.95 3.27 4.63 5.75 4.88 7.91 4.59a6.9 6.9 0 0 0 4.33-3c.77-1 2.05-3 3.89-2.82zm6.72 0c1.84-.17 3.12 1.83 3.89 2.83s2.18 2.73 4.34 3 4.64 0 7.91-4.59c0 0-2.55 6.18-6.77 6.9a7.31 7.31 0 0 1 -7.36-2.54c-1.14-1.23-1.41-2-3.46-2.32a1 1 0 0 1 -.91-1.32c.35-1.28.55-1.76 2.39-2zm-6.13 5.59c.64 1.24 2.77 1.24 2.77 1.24s2.12-.05 2.77-1.27a73.68 73.68 0 0 1 0 8.41c-.32 2.8-2.77 10.38-2.77 10.38s-2.46-7.58-2.77-10.35a73.68 73.68 0 0 1 0-8.41z" fill="none" stroke="#000" stroke-linecap="round" stroke-linejoin="round"/></svg>