<svg viewBox="0 0 48 48" xmlns="http://www.w3.org/2000/svg"><g fill="none" stroke="#000" stroke-linecap="round" stroke-linejoin="round"><path d="m13.3 5.54 17.7 2.19a2.62 2.62 0 0 1 2.08 2.63v31.37a1.61 1.61 0 0 1 -2.08 1.71l-17.36-4.63a2.27 2.27 0 0 1 -2-2.39v-29.37c.04-.68.36-1.4 1.66-1.51z"/><path d="m32.56 43.13 3.21-2.66a1.55 1.55 0 0 0 .39-1.24l.16-30.31a2.81 2.81 0 0 0 -2.69-3l-12.63-1.36a12.3 12.3 0 0 0 -3.59.13l-4.07.85"/><path d="m20.5 33.64 1.75 3.36 1.9-1.44z"/><path d="m19.55 23.31a10.5 10.5 0 0 1 -1.55-4.82c0-2.42 4.25-2.62 4.25-2.62"/><path d="m22.28 15.87c2.62-.2 5.8.18 5.71 2.3s-1.39 4.1-2.33 5.48"/><path d="m20.32 14.25a7.94 7.94 0 0 1 5-1.11"/><path d="m20.87 20.64 3.69-.71"/><path d="m22.39 23.31a18.18 18.18 0 0 1 -7.24 7.33"/><path d="m22.39 23.31 4.76 7.14 2.65-1.35c-2.58-1.48-5.05-4.03-7.41-5.79z"/><path d="m22.28 10.65.17 24.01"/></g></svg>