<svg viewBox="0 0 48 48" xmlns="http://www.w3.org/2000/svg"><g fill="none" stroke="#000" stroke-linecap="round" stroke-linejoin="round"><path d="m31.049 16.962v13.51h7.451"/><path d="m9.5 30.6345h6.4258"/><path d="m9.5 17.9077h6.4258"/><path d="m9.5 24.2711h4.1768"/><path d="m9.5 17.9077v12.7268"/><path d="m18.52 29.5153a4.5413 4.5413 0 0 0 3.6737 1.5225h2.2042a3.5479 3.5479 0 0 0 3.6737-3.3833 3.548 3.548 0 0 0 -3.6737-3.3834h-2.3879a3.548 3.548 0 0 1 -3.6737-3.3834 3.548 3.548 0 0 1 3.6737-3.3834h2.2042a4.0848 4.0848 0 0 1 3.6737 1.5226"/><path d="m40.5 42.5h-33a2.0059 2.0059 0 0 1 -2-2v-33a2.0059 2.0059 0 0 1 2-2h33a2.0059 2.0059 0 0 1 2 2v33a2.0059 2.0059 0 0 1 -2 2z"/></g></svg>