<svg viewBox="0 0 48 48" xmlns="http://www.w3.org/2000/svg"><path d="m31.93 35.6a5 5 0 0 1 -.45 2.26 4 4 0 0 1 -2.61 2.14 7.61 7.61 0 0 1 -2 .33 3.52 3.52 0 0 1 -1.7-6.67 7.56 7.56 0 0 1 1.91-.66l2.12-.45a1.23 1.23 0 0 0 1-1 2.28 2.28 0 0 0 0-.37v-10.18a1 1 0 0 0 0-.35.53.53 0 0 0 -.56-.44 5.67 5.67 0 0 0 -.91.12l-4.28.87-4.45.89-2.61.56h-.09a.83.83 0 0 0 -.73.92v15a5.8 5.8 0 0 1 -.4 2.29 4 4 0 0 1 -2.71 2.33 8.69 8.69 0 0 1 -2 .33 3.53 3.53 0 0 1 -1.46-6.83 11.52 11.52 0 0 1 2.14-.59l1.62-.33a1.3 1.3 0 0 0 1.12-1.34 1.41 1.41 0 0 0 0-.29v-16.76a4.15 4.15 0 0 1 .07-.7 1.34 1.34 0 0 1 1-1c.49-.13 1-.21 1.46-.31l4.14-.84 4.27-.86 3.78-.76a10 10 0 0 1 1.22-.2.92.92 0 0 1 1 .81.34.34 0 0 1 0 .1 2.94 2.94 0 0 1 0 .42v21.56zm2.26-21.91-6-3.12a4.13 4.13 0 0 1 6.86 3.12 4 4 0 0 1 -1 2.75m-7.79-7.71a6.82 6.82 0 0 1 9.58 9.68m-11-11.7a9.34 9.34 0 0 1 13.08 13.21" fill="none" stroke="#000" stroke-linecap="round" stroke-linejoin="round"/></svg>