<svg viewBox="0 0 48 48" xmlns="http://www.w3.org/2000/svg"><g fill="none" stroke="#000" stroke-linecap="round" stroke-linejoin="round"><path d="m6.8947 36.6579 11.6316-20.5263v-3.4211a2.2958 2.2958 0 0 1 -2.0526-2.0526v-3.4211a2.7449 2.7449 0 0 1 2.7368-2.7368h9.5795a2.7449 2.7449 0 0 1 2.7368 2.7368v3.4211a2.3482 2.3482 0 0 1 -2.0526 2.0526v3.4211l11.6311 20.5263c1.3684 2.4221-2.0527 6.8421-4.7895 6.8421h-24.6316c-2.7368 0-6.1579-4.42-4.7895-6.8421z"/><path d="m19.2105 40.0789v-17.7889c0-2.2579 1.1446-4.7895 4.79-4.7895 2.3979 0 4.79 1.0231 4.79 4.79 0 2.91-4.7895 3.421-4.7895 3.421s4.79.5819 4.79 4.2076-2.5331 4.002-4.791 4.002a4.5844 4.5844 0 0 1 -4.7895-3.4211"/></g></svg>