<svg viewBox="0 0 48 48" xmlns="http://www.w3.org/2000/svg"><g fill="none" stroke="#000" stroke-linecap="round" stroke-linejoin="round"><path d="m36.66 22.15 4.39-4.3 2.45 13.36m-10.76-20.41 2-.34a4.77 4.77 0 0 1 5.59 3.78l.73 3.61m-20.85 5.15 7.65-7.58 15.64 15.79m-21.35 0a1.9 1.9 0 0 1 -1.06.83 1.7 1.7 0 0 1 -.75-3.32 1.7 1.7 0 0 1 2 1.21 1.84 1.84 0 0 1 -.15 1.28zm-5-17.42-2.15.39c-.66-4.35 1.11-6.18 3.8-6.67l3.2-.62c2.69-.5 5.36.85 6.08 4.8l-2.3.44m-13.78 2.66 20.76-4m-24.4 4.64 3.64-.64 15.91 16-6.63 6.59-16.77-17a4.75 4.75 0 0 1 3.85-4.95zm-.94 20.37-2.91-15.42m18.65 18.89-9.85 1.84a4.81 4.81 0 0 1 -5.59-3.78l-.3-1.53 6.21-6.19m14.26 1.13 6.27 6.33-7.65 1.47-3.35.73-1.9-1.94m22.24-6.12a4.68 4.68 0 0 1 -3.81 4.79l-5.5 1.1-6.27-6.33 8.77-8.59"/><path d="m20.21 23.01-6.58 6.6"/><path d="m13.36 16.17-6.52 6.53"/><path d="m27.86 15.43-3.08-3.1"/></g></svg>