<svg viewBox="0 0 48 48" xmlns="http://www.w3.org/2000/svg"><g fill="none" stroke="#000" stroke-linecap="round" stroke-linejoin="round"><path d="m23.5225 5.5h-16.0225a2 2 0 0 0 -2 2v33a2 2 0 0 0 2 2h33a2 2 0 0 0 2-2v-33a2 2 0 0 0 -2-2h-4.9481"/><path d="m29.5377 3.3671a9.5544 9.5544 0 0 0 -9.5542 9.5544c0 7.4771 7.3137 16.49 9.2073 18.6986a.5772.5772 0 0 0 .8815-.0044c1.8615-2.2158 9.02-11.222 9.02-18.6942a9.5543 9.5543 0 0 0 -9.5546-9.5544zm0 13.1251a3.5708 3.5708 0 1 1 3.5708-3.5707 3.5708 3.5708 0 0 1 -3.5708 3.5707z"/><path d="m34.7901 25.0578 7.7099-1.1881"/><path d="m5.5 29.5717 19.8197-3.0544"/><path d="m17.908 27.6595-3.7398-22.1595"/></g></svg>