<svg viewBox="0 0 48 48" xmlns="http://www.w3.org/2000/svg"><g fill="none" stroke="#000" stroke-linecap="round" stroke-linejoin="round" stroke-width=".9045"><path d="m25.33 6.6708a18.1692 18.1692 0 0 0 -16.129 9.8917 18.136 18.136 0 0 1 30.47 13.33 18.1681 18.1681 0 0 1 -2.0384 8.276 18.1391 18.1391 0 0 0 -12.302-31.4974z"/><path d="m14.4845 25.34c-3.53-2.1449-6.6545 3.625-6.6545 3.625s-2.2932-9.5859 7.07-12.0941c0 0-3.5767 6.7967 0 6.7967s6.7463 4.4932 7.2409 5.4637 2.4316 5.8329 5.3954 5.3492a4.6342 4.6342 0 0 1 4.8837 2.3383 4.1067 4.1067 0 0 1 2.1985 1.6468l-2.14.0746a8.8863 8.8863 0 0 1 -5.6678 2.7506c-3.8452.4726-7.925-3.5394-9.2546-4.8541s-.38-1.7-5.2177-1.2184a10.3715 10.3715 0 0 1 -7.8384-2.4254c6.1375-.2791 13.5138-5.3085 9.9839-7.453z"/><path d="m17.3375 40.4751s-5.4548-.3323-7.2782-1.9054a4.3689 4.3689 0 0 0 2.2535-.7408c.7557-.67 1.0607.7958 5.0247 2.6463z"/></g><circle cx="29.8945" cy="37.3033" r=".75"/></svg>