<svg viewBox="0 0 48 48" xmlns="http://www.w3.org/2000/svg"><g fill="none" stroke="#000" stroke-linecap="round" stroke-linejoin="round"><path d="m13.78 8.56 18.82-2.89a6.71 6.71 0 0 1 7.68 6l2.31 25a5 5 0 0 1 -5.39 5.47l-24.64-1.93a7.53 7.53 0 0 1 -6.87-8.56l2.47-17.41a6.7 6.7 0 0 1 5.62-5.68z"/><path d="m10.82 24.13a2 2 0 0 1 2-2 2 2 0 0 1 2 2v3.13"/><path d="m10.82 22.17v5.09"/><path d="m14.73 24.13a2 2 0 0 1 2-2 2 2 0 0 1 2 2v3.13"/><path d="m26.08 24a2 2 0 0 1 2-2"/><path d="m26.08 22.08v5.18"/><path d="m29.5 19.43v7.83"/><path d="m29.5 25.6 3.54-3.53"/><path d="m30.63 24.48 2.78 2.77"/><path d="m24.29 25.3a2 2 0 0 1 -1.95 2 2 2 0 0 1 -2-2v-1.3a2 2 0 0 1 2-2 2 2 0 0 1 1.95 2"/><path d="m24.29 27.26v-5.18"/><path d="m35.91 20.46v5.82a1 1 0 0 0 1 1h.3"/><path d="m34.88 22.08h2.05"/></g></svg>