<svg viewBox="0 0 48 48" xmlns="http://www.w3.org/2000/svg"><g fill="none" stroke="#000" stroke-linecap="round" stroke-linejoin="round"><path d="m42.5 19.63c-2.21 1.68-4.62 3.05-6.8 4.61a28.29 28.29 0 0 0 -7.89 8.76c-.44.77-.77.88-1.43.44s-1.2-.33-1.64.44c-.66 1.21-1.32 2.52-2 3.73-.33.77-.11 1.09.66 1.09a51.08 51.08 0 0 1 6.77 1.06c1.84.44 5.73 1.35 7.72 1.88.17.15.26.26 0 .46h-30.81c-1.84 0-1.75-.54-1.32-2a120.83 120.83 0 0 1 7.24-12.57c.44-.66.33-1.21-.44-1.43-1-.33-.87-.87-.43-1.75 1.53-3.18 3.07-6.25 4.38-9.54a10.74 10.74 0 0 0 .49-6.58 5.5 5.5 0 0 1 -.11-2.34m23 3.86a2.09 2.09 0 0 1 1.74 1.33c.47 1.14-.28 2-1.15 2.74a51.47 51.47 0 0 0 -4.18 3.75c-.87.86-1.56 1.13-2.6 0-1.24-1.36-1.6-2.5-.14-4s3.71-3.32 5.91-3.75a1.49 1.49 0 0 1 .42 0zm-8.89 7.91a.78.78 0 0 1 .32.05 3.63 3.63 0 0 1 1.73 1.87c.12.3.17.91-.14 1s-.81-.17-1-.29-1.43-1.48-1.38-2c0-.37.19-.59.48-.6zm-1.84 3.65a1.29 1.29 0 0 1 .87 2.31c-.78.44-1.62-2.22-.85-2.31zm-2.35 3.17a1.32 1.32 0 0 1 1.05 2c-.59.77-2.1-1.74-1.03-2z"/><path d="m12.56 26.1 13.82 7.35"/></g></svg>