<svg viewBox="0 0 48 48" xmlns="http://www.w3.org/2000/svg"><g fill="none" stroke="#000" stroke-linecap="round" stroke-linejoin="round"><path d="m41.0662 20.4015c0 6.2578-.9723 8.3975-2.8838 10.19-3.8743 3.6342-14.1824 3.3518-14.1824 3.3518a40.2923 40.2923 0 0 1 -7.0141-.5285s-1.1259 7.4142 13.1041 3.7783l-.1445 4.2408c-2.1685.29-22.807 7.92-22.956-18.657l-.056-2.3759c0-6.2578.05-8.4823 2.8838-11.611 3.5658-3.9373 14.1827-3.4353 14.1827-3.4353s10.617-.502 14.182 3.4353c2.8336 3.129 2.8838 5.3535 2.8838 11.611"/><path d="m24 23.3125v-5.9774a4.6542 4.6542 0 0 0 -4.6543-4.6542 4.6542 4.6542 0 0 0 -4.6542 4.6542v9.6463"/><path d="m24 17.3351a4.6542 4.6542 0 0 1 4.6543-4.6542 4.6542 4.6542 0 0 1 4.6542 4.6542v9.6463"/></g></svg>