<svg viewBox="0 0 48 48" xmlns="http://www.w3.org/2000/svg"><g fill="none" stroke="#000" stroke-linecap="round" stroke-linejoin="round"><path d="m33.9617 24a9.96 9.96 0 0 0 -17.5838-6.4113l-.0035-.0031a4.1472 4.1472 0 0 1 -3.2631 1.3286 6.302 6.302 0 0 1 -5.89-8.5406 15.83 15.83 0 0 0 23.3906 21.0748c.0544-.0484.27-.2429.3229-.2928l-.004-.0038a9.9292 9.9292 0 0 0 3.0309-7.1518z"/><circle cx="24" cy="24" r="5.5"/><path d="m18.0567 7.981a6.3026 6.3026 0 0 1 3.714-5.481 15.828 15.828 0 0 0 -13.3007 14.3747"/><path d="m31.1253 8.47a6.3026 6.3026 0 0 1 6.5011-1.2489 15.8307 15.8307 0 0 0 -25.0928 11.6658"/><path d="m40.0188 18.0567a6.3025 6.3025 0 0 1 5.4812 3.714 15.834 15.834 0 0 0 -30.3959-3.2507"/><path d="m39.5805 31.1806a6.3026 6.3026 0 0 1 1.1987 6.4458 15.83 15.83 0 0 0 -23.3911-21.0748"/><path d="m29.9433 40.02a6.3026 6.3026 0 0 1 -3.714 5.48 15.83 15.83 0 0 0 -1.6378-31.4421"/><path d="m16.8748 39.53a6.3026 6.3026 0 0 1 -6.5012 1.249 15.83 15.83 0 0 0 21.0748-23.3909"/><path d="m7.98 29.9432a6.3024 6.3024 0 0 1 -5.48-3.7139 15.83 15.83 0 0 0 31.4421-1.6378"/></g></svg>