<svg viewBox="0 0 48 48" xmlns="http://www.w3.org/2000/svg"><g fill="none" stroke="#000" stroke-linecap="round" stroke-linejoin="round"><path d="m6.45 8.4a2 2 0 0 0 -1.95 1.95v27.3a2 2 0 0 0 2 2h35.1a2 2 0 0 0 2-2v-27.3a2 2 0 0 0 -2-1.95zm3.79 8.14 1.71-3 1.71 3m0 2.41-1.71 3-1.71-3m0 10.08 1.71-3 1.71 3m0 2.41-1.71 3-1.71-3"/><path d="m17.92 13.58h21.11"/><path d="m39.03 17.75h-17.38"/><path d="m25.37 21.91h13.66"/><path d="m17.92 26.09h21.11"/><path d="m39.03 30.25h-17.38"/><path d="m25.37 34.42h13.66"/></g></svg>