<svg fill="#fff" viewBox="0 0 48 48" xmlns="http://www.w3.org/2000/svg"><g fill="none" stroke="#000" stroke-linecap="round" stroke-linejoin="round"><path d="m29.2 17.6h4"/><path d="m29.2 10.8 2-1.1"/><path d="m31.2 9.7v7.9"/><path d="m11.6 17.6c1.1 0 2-.9 2-2 0-1.1-.9-2-2-2 1.1 0 2-.9 2-2 0-1.1-.9-2-2-2"/><path d="m8.3 16.9c.7.6 1.6.8 2.5.7h.8"/><path d="m8.3 10.4c.7-.6 1.6-.8 2.5-.7h.8"/><path d="m15.7 16.9c.7.5 1.5.8 2.4.7h.3c1.4 0 2.6-1.2 2.6-2.6 0-1.4-1.2-2.5-2.6-2.6h-2.7v-2.7h5.3"/><path d="m35.7 17.6h4"/><path d="m35.7 10.8 2-1.1"/><path d="m37.7 9.7v7.9"/><path d="m23.6 12.6 3 3.1"/><path d="m26.6 12.7-3.1 3"/><path d="m24.2 33.6c1.1 0 2-.9 2-2 0-1.1-.9-2-2-2h-1.3c-1.1 0-2 .9-2 2 0 1.1.9 2 2 2-1.1 0-2 .9-2 2 0 1.1.9 2 2 2h1.3c1.1 0 2-.9 2-2 0-1.1-.9-2-2-2"/><path d="m16.5 38.6c1.1 0 2-.9 2-2 0-1.1-.9-2-2-2 1.1 0 2-.9 2-2 0-1.1-.9-2-2-2"/><path d="m13.2 37.9c.7.6 1.6.8 2.5.7h.8"/><path d="m13.2 31.3c.7-.6 1.6-.8 2.5-.7h.8"/><path d="m28.5 38c.7.6 1.6.8 2.4.7h.3c1.4 0 2.6-1.2 2.6-2.6 0-1.4-1.2-2.6-2.6-2.6h-2.7v-2.8h5.3"/></g><circle cx="36.7" cy="38.7" fill="#000" r=".8"/><path d="m36.7 29.8v6.4" fill="none" stroke="#000" stroke-linecap="round" stroke-linejoin="round"/><path d="m40.5 42.5h-33c-1.1 0-2-.9-2-2v-33c0-1.1.9-2 2-2h33c1.1 0 2 .9 2 2v33c0 1.1-.9 2-2 2z" fill="none" stroke="#000" stroke-linecap="round" stroke-linejoin="round"/><path d="m20.8 22.1h6.4" fill="none" stroke="#000" stroke-linecap="round" stroke-linejoin="round"/><path d="m20.8 25.9h6.4" fill="none" stroke="#000" stroke-linecap="round" stroke-linejoin="round"/><path d="m22.9 33.6h1.3" fill="none" stroke="#000" stroke-linecap="round" stroke-linejoin="round"/></svg>