<svg viewBox="0 0 48 48" xmlns="http://www.w3.org/2000/svg"><g fill="none" stroke="#000" stroke-linecap="round" stroke-linejoin="round"><path d="m28.6794 24h-2.15"/><path d="m32.3471 24h-2.15"/><path d="m36.0147 24h-2.15"/><path d="m39.6824 24h-2.15"/><path d="m21.4706 24h-2.15"/><path d="m17.8029 24h-2.15"/><path d="m14.1353 24h-2.15"/><path d="m10.4676 24h-2.15"/><path d="m24 15.6529v2.15"/><path d="m24 19.3206v2.15"/><path d="m24 26.5294v2.15"/><path d="m24 30.1971v2.15"/><path d="m24 33.8647v2.15"/><path d="m24 37.5324v2.15"/><path d="m24 11.9853v2.15"/><path d="m24 8.3176v2.15"/><path d="m10.3412 20.7118c21.7529-22.1324 15.1764 12.9 27.5706 15.6823"/><circle cx="24" cy="24" r="21.5"/></g><circle cx="24" cy="24" r=".75"/></svg>