<svg viewBox="0 0 48 48" xmlns="http://www.w3.org/2000/svg"><g fill="none" stroke="#000" stroke-linecap="round" stroke-linejoin="round"><path d="m37.12 7a.25.25 0 0 0 -.35 0 .25.25 0 0 0 -.05.15v3.61a15.81 15.81 0 1 1 -15.17-4.88h.1l2.86-2.88a.24.24 0 0 0 .08-.33.25.25 0 0 0 -.25-.12 23.5 23.5 0 0 0 -2.65.12 21.5 21.5 0 1 0 15.43 4.33z"/><path d="m23.1 26.84a6.39 6.39 0 0 0 4.23 0 6.14 6.14 0 0 0 4-5.66l.61-16.34a.76.76 0 0 0 -1.36-.5l-10 12.82a6.25 6.25 0 0 0 .88 8.78 6.51 6.51 0 0 0 1.64.9z"/></g></svg>