<svg viewBox="0 0 48 48" xmlns="http://www.w3.org/2000/svg"><g fill="none" stroke="#000" stroke-linecap="round" stroke-linejoin="round"><path d="m18.6582 37.5561h7.3645a0 0 0 0 1 0 0v3.2617a3.6822 3.6822 0 0 1 -3.6827 3.6822 3.6822 3.6822 0 0 1 -3.6822-3.6822v-3.2617a0 0 0 0 1 .0004 0z"/><path d="m25.4759 5.285h-6.271c-8.5014 0-12 3.5818-12 8v21.2711a3 3 0 0 0 3 3h24.271a3 3 0 0 0 3-3v-21.2711c0-4.4182-3.3691-8-12-8z"/><path d="m34.4759 37.5561h3.3192a3 3 0 0 0 3-3v-21.2711c0-4.4182-3.3692-8-12-8h-3.3192"/><circle cx="17.5213" cy="15.7757" r="1.5"/><circle cx="27.1596" cy="15.7757" r="1.5"/><path d="m25.157 19.3067a2.9334 2.9334 0 0 1 -5.6332 0"/><circle cx="13.9267" cy="22.0421" r="2"/><circle cx="30.6596" cy="22.0421" r="2"/></g></svg>