<svg viewBox="0 0 48 48" xmlns="http://www.w3.org/2000/svg"><g fill="none" stroke="#000" stroke-linecap="round" stroke-linejoin="round"><path d="m43.5 23.9538a1.749 1.749 0 0 0 -.51-1.1991l-13.859-13.8693a1.7588 1.7588 0 0 0 -1.249-.51h-21.3835a1.9986 1.9986 0 0 0 -1.9985 1.9489v27.279a1.9985 1.9985 0 0 0 1.9985 1.9985h21.1237a1.82 1.82 0 0 0 .57 0h13.36a1.9986 1.9986 0 0 0 1.9478-1.9985z"/><path d="m38.244 22.5249h-4.2267"/><path d="m41.1318 27.0415h-7.1145"/><path d="m41.1318 31.568h-7.1145"/><path d="m41.1318 36.0945h-7.1145"/><path d="m26.7061 22.6524a7.0435 7.0435 0 0 0 -1.9561-3.6872 7.1365 7.1365 0 0 0 -10.07 0"/><path d="m12.7238 25.3616a7.1233 7.1233 0 0 0 12.0262 3.674"/><path d="m14.045 18.331 1.414 1.414 1.89 1.89h-5.194v-5.207z"/><path d="m23.984 28.269-1.903-1.903h5.207v5.207l-1.89-1.89z"/></g></svg>