<svg viewBox="0 0 48 48" xmlns="http://www.w3.org/2000/svg"><g fill="none" stroke="#000" stroke-linecap="round" stroke-linejoin="round"><path d="m4.51 28.6006v2a2.3334 2.3334 0 0 1 2-2 2.3334 2.3334 0 0 1 2 2 2.3334 2.3334 0 0 1 2-2 2.3334 2.3334 0 0 1 2 2v3.1994"/><path d="m18.6476 32.8a1.9354 1.9354 0 0 1 -1.7 1 2.0055 2.0055 0 0 1 -2-2v-1.3a2 2 0 0 1 3.9993 0v.7h-3.9987"/><path d="m25.0864 32.8a1.9353 1.9353 0 0 1 -1.7 1 2.0055 2.0055 0 0 1 -2-2v-1.3a2 2 0 1 1 3.9992 0v.7h-3.9985"/><path d="m28.0259 33.4a2.3638 2.3638 0 0 0 1.6.4h.4a1.3 1.3 0 1 0 0-2.5995h-.9a1.3 1.3 0 1 1 0-2.5995h.4c.9 0 1.3.1 1.6.4"/><path d="m33.7648 25.8011v7.9985"/><path d="m33.7648 30.5a2.0055 2.0055 0 0 1 2-2 2.0055 2.0055 0 0 1 2 2v3.3"/><path d="m42.2033 33.8a2.0055 2.0055 0 0 1 -2-2v-1.3a2 2 0 1 1 3.9992 0v1.3a2.0055 2.0055 0 0 1 -1.9992 2z"/><path d="m7.9879 40.0829a2.8393 2.8393 0 0 0 2.7395 2.1h26.4952a2.8394 2.8394 0 0 0 2.76-2.1m4.4092-16.307a3.12 3.12 0 0 0 -3.0295-3.9293h-7.859l-7.7686-12.9976a2 2 0 0 0 -3.4994 0l-7.7686 12.9976h-7.8586a3.1194 3.1194 0 0 0 -2.9994 3.9293m20.3763-11.9278 4.7691 7.9985h-9.5383z"/></g></svg>