<svg viewBox="0 0 48 48" xmlns="http://www.w3.org/2000/svg"><g fill="none" stroke="#000" stroke-linecap="round" stroke-linejoin="round"><path d="m33.1654 26.9169 4.0619 11.0896"/><path d="m23.2792 43.5-12.5065-36.1169c4.4416.2338 10.2857-.7013 14.1818-2.8831l6.5835 17.9739"/><path d="m28.4034 22.1731 1.274-4.6774"/><path d="m24.6429 35.9805 2.0974-7.7009"/><path d="m10.8506 39.487 4.832-17.8686"/><path d="m28.3631 13.8792a37.6558 37.6558 0 0 0 -14.0591 3.7421"/><path d="m14.7782 24.963c3.0075-.2422 8.93-1.9565 10.9166-3.2812 1.9573.8907 10.0909.5065 10.87 2.3377s-6.3506 4.48-10.4805 4.2467-11.53-2.475-11.53-2.475"/><path d="m11.7765 36.0633c3.1261-2.6932 8.9159-6.7776 13.9691-4.1315"/><path d="m22.5976 41.5316c2.4349-3.4861 4.2247-7.4487 13.5376-6.2661"/></g></svg>