<svg viewBox="0 0 48 48" xmlns="http://www.w3.org/2000/svg"><g fill="none" stroke="#000" stroke-linecap="round" stroke-linejoin="round"><path d="m19 20.23a2.69 2.69 0 1 1 2.68-2.69 2.69 2.69 0 0 1 -2.68 2.69m5-17.73a21.5 21.5 0 0 0 -4.57 42.5v-19.28a1.76 1.76 0 0 1 1.69-1.72h2.95v-21.5m14.06 32.22a1.68 1.68 0 1 1 1.68-1.72 1.68 1.68 0 0 1 -1.68 1.68m-5.61 0a1.68 1.68 0 1 1 1.67-1.68 1.68 1.68 0 0 1 -1.67 1.68m-5.62 0a1.68 1.68 0 1 1 1.68-1.68 1.68 1.68 0 0 1 -1.68 1.68"/><path d="m19.43 45a21.5 21.5 0 1 0 4.57-42.5"/></g></svg>