<svg viewBox="0 0 48 48" xmlns="http://www.w3.org/2000/svg"><g fill="none" stroke="#000" stroke-linecap="round" stroke-linejoin="round"><path d="m24.0031 4.5043v38.9957"/><path d="m24.0031 43.5a46.0032 46.0032 0 0 1 -5.8257-2.7263 18.7644 18.7644 0 0 1 -5.2124-4.3594 12.554 12.554 0 0 1 -2.8554-7.03c-.2365-2.9179.4271-6.4816 2.8927-10.7363s6.7331-9.1988 11.0007-14.1435"/><path d="m24.0032 4.5c3.89 4.8855 7.7785 9.77 10.1765 13.3655s3.3054 5.904 3.6284 8.3477a11.5779 11.5779 0 0 1 -1.1549 7.1868 13.0166 13.0166 0 0 1 -5.6583 5.01 27.1223 27.1223 0 0 1 -6.9918 1.9893"/><path d="m34.514 23.054-4.129 10.941-4.129-10.941"/><path d="m14.0869 33.0807c.7547.6338 1.5695.9241 3.3993.9241h.9273a2.7353 2.7353 0 0 0 2.7323-2.7381 2.7354 2.7354 0 0 0 -2.7323-2.7382h-1.8545a2.7354 2.7354 0 0 1 -2.7323-2.7385 2.7353 2.7353 0 0 1 2.7323-2.7381h.9273c1.83 0 2.6446.29 3.3993.9241"/></g></svg>