<svg viewBox="0 0 48 48" xmlns="http://www.w3.org/2000/svg"><g fill="none" stroke="#000" stroke-linecap="round" stroke-linejoin="round"><path d="m19.2422 5.1311c-5.5261 1.4589-11.1792 7.3652-12.4746 12.9367a17.7924 17.7924 0 0 0 12.7824 21.4253 2.7186 2.7186 0 0 1 1.2683.7882l2.9352 3.0892a.4528.4528 0 0 0 .6341 0l2.9443-3.0892a2.718 2.718 0 0 1 1.2774-.7791 17.8124 17.8124 0 0 0 -9.3671-34.3711z"/><path d="m22.721 29.41h2.7178"/><path d="m30.8744 23.5215a6.2586 6.2586 0 0 0 -2.2648-.9059c-1.6307 0-2.899 1.8119-4.53 1.8119s-2.9443-1.8119-4.53-1.8119a7.1084 7.1084 0 0 0 -2.2649.9059"/><path d="m17.2854 20.3508v-5.4356h4.53v5.4356h4.53v-5.4356h4.53v5.4356"/><path d="m17.2854 29.41a2.7178 2.7178 0 0 1 5.4356 0"/><path d="m25.4388 29.41a2.7178 2.7178 0 0 1 5.4356 0"/></g></svg>