<svg viewBox="0 0 48 48" xmlns="http://www.w3.org/2000/svg"><g fill="none" stroke="#000" stroke-linecap="round" stroke-linejoin="round"><path d="m20.8884 25.8678h6.2232l5.1859-1.5558v-10.372l-5.1859 1.5558h-6.2232l-5.1859-1.5558v10.372z"/><path d="m15.7025 13.94v-1.5557l1.5558-.5186m13.4834 0 1.5558.5186v1.5557"/><path d="m18.16 14.6125a6.7417 6.7417 0 1 1 11.677 0"/><circle cx="24" cy="11.3471" r="3.6302"/><path d="m19.3326 25.66.5186 4.3562s-2.3035.1852-2.5929 1.5558c-.273 1.2925 5.469 1.25 5.1859 0-.3338-1.4743-2.593-1.5558-2.593-1.5558"/><path d="m28.6674 25.66-.5186 6.4306s-2.3036.1852-2.593 1.5558c-.273 1.2925 5.469 1.25 5.1859 0-.3338-1.4743-2.5929-1.5558-2.5929-1.5558"/><path d="m15.7025 14.9773-2.0744 7.26"/><path d="m32.2975 14.9773 2.593 5.7045"/><circle cx="35.3159" cy="21.585" r="1.0372"/><path d="m24.4629 20.6374h-2.3501"/><path d="m24.4629 20.6374a1.4243 1.4243 0 0 1 0 2.8486h-2.35v-5.6972h2.35a1.4243 1.4243 0 0 1 0 2.8486z"/><circle cx="13.206" cy="23.374" r="1.0372"/><path d="m31.26 27.963 7.26 5.1651v5.186l-10.3712 5.1859v-5.1859l-4.1488-2.0741-4.1488 2.0744v5.1856l-10.3719-5.1859v-5.186l7.26-5.2068z"/><path d="m9.4793 33.1281 10.3719 5.186"/><path d="m28.1488 38.3141 10.3719-5.186"/><path d="m19.8512 43.5h8.2976"/></g></svg>