<svg viewBox="0 0 48 48" xmlns="http://www.w3.org/2000/svg"><g fill="none" stroke="#000" stroke-linecap="round" stroke-linejoin="round"><path d="m7.48 5.5a2 2 0 0 0 -2 2v33a2 2 0 0 0 2 2h33.04a2 2 0 0 0 2-2v-33a2 2 0 0 0 -2-2z"/><path d="m8.5 26.7357v-3.367a2.1044 2.1044 0 0 1 2.1044-2.1044 2.1044 2.1044 0 0 1 2.1043 2.1044v3.367"/><path d="m12.7087 23.3687a2.1044 2.1044 0 0 1 2.1044-2.1044 2.1044 2.1044 0 0 1 2.1043 2.1044v3.367"/><path d="m22.7235 25.7263a2.1035 2.1035 0 0 1 -1.8284 1.062 2.1044 2.1044 0 0 1 -2.1044-2.1044v-1.3678a2.1044 2.1044 0 0 1 2.1044-2.1044 2.1044 2.1044 0 0 1 2.1043 2.1044v.6839h-4.2087"/><path d="m25.0006 26.7357v-3.367a2.1044 2.1044 0 0 1 2.1043-2.1044 2.1044 2.1044 0 0 1 2.1044 2.1044v3.367"/><path d="m29.2093 23.3687a2.1044 2.1044 0 0 1 2.1043-2.1044 2.1044 2.1044 0 0 1 2.1044 2.1044v3.367"/><path d="m39.2241 25.7263a2.1037 2.1037 0 0 1 -1.8285 1.062 2.1044 2.1044 0 0 1 -2.1043-2.1044v-1.3678a2.1044 2.1044 0 0 1 2.1043-2.1044 2.1044 2.1044 0 0 1 2.1044 2.1044v.6839h-4.2087"/></g></svg>