<svg viewBox="0 0 48 48" xmlns="http://www.w3.org/2000/svg"><g fill="none" stroke="#000" stroke-linecap="round" stroke-linejoin="round"><path d="m35.0941 31.7344h3.7038"/><path d="m35.0941 28.0851h3.7038"/><path d="m35.0941 24.4357h3.7038"/><path d="m33.5282 21.4219h6.8357v13.1017h-6.8357z"/><path d="m9.2021 31.7344h3.7038"/><path d="m9.2021 28.0851h3.7038"/><path d="m9.2021 24.4357h3.7038"/><path d="m7.6362 21.4219h6.8357v13.1017h-6.8357z"/><path d="m22.1526 31.7344h3.7038"/><path d="m22.1526 28.0851h3.7038"/><circle cx="36.946" cy="14.4863" r="2.9621"/><circle cx="24" cy="14.4863" r="2.9621"/><rect height="37.5963" rx="1.0192" width="11.108" x="18.446" y="5.2018"/><rect height="37.5963" rx="1.0192" width="11.108" x="31.392" y="5.2018"/><rect height="37.5963" rx="1.0192" width="11.108" x="5.5" y="5.2018"/><circle cx="11.054" cy="14.4863" r="2.9621"/><path d="m22.1526 24.4357h3.7038"/><path d="m20.5822 21.4219h6.8357v13.1017h-6.8357z"/></g></svg>