<svg viewBox="0 0 48 48" xmlns="http://www.w3.org/2000/svg"><g fill="none" stroke="#000" stroke-linecap="round" stroke-linejoin="round"><path d="m5.5 19.6v20.9a2 2 0 0 0 2 2h33a2 2 0 0 0 2-2v-33a2 2 0 0 0 -2-2h-33a2 2 0 0 0 -2 2z"/><path d="m32.7619 36.4864h5.7381"/><path d="m32.7619 25.0102h5.7381"/><path d="m32.7619 30.7483h3.7412"/><path d="m32.7619 25.0102v11.4762"/><path d="m21.6474 21.1953h4.8409"/><path d="m21.6474 11.5136h4.8409"/><path d="m21.6474 16.3545h3.1562"/><path d="m21.6474 11.5136v9.6817"/><path d="m9.5 21.185v-9.671l4.841 9.681 4.841-9.667v9.667"/><path d="m28.818 21.185v-9.671l4.841 9.681 4.841-9.667v9.667"/><path d="m9.5 36.4864v-11.4764h3.7571a3.8542 3.8542 0 0 1 0 7.7084h-3.7571"/><path d="m13.2571 32.7186 3.7568 3.7649"/></g><circle cx="19.9721" cy="25.3688" r=".75"/><path d="m19.9721 28.8834v7.603" fill="none" stroke="#000" stroke-linecap="round" stroke-linejoin="round"/><path d="m22.8426 35.229a3.21 3.21 0 0 0 2.8138 1.2574h1.6991a2.8659 2.8659 0 0 0 2.8628-2.8691 2.8659 2.8659 0 0 0 -2.8628-2.869h-1.8773a2.866 2.866 0 0 1 -2.8629-2.8691 2.866 2.866 0 0 1 2.8629-2.869h1.699a3.21 3.21 0 0 1 2.8139 1.2574" fill="none" stroke="#000" stroke-linecap="round" stroke-linejoin="round"/></svg>