<svg viewBox="0 0 48 48" xmlns="http://www.w3.org/2000/svg"><g fill="none" stroke="#000" stroke-linecap="round" stroke-linejoin="round"><path d="m40.9763 30.6458a5.2763 5.2763 0 0 1 -2.1726-2.0337 54.6611 54.6611 0 0 1 -8.7476 1.0169c-3.701 0-6.6869-.1757-5.4673-3.6243s4.4579-10.5561 5.5934-11.986 2.6859-3.239 3.4486-3.1542c.9463.1051 2.7152 1.2834 2.5166 2.0333-.1892.715-1.1287 2.2774-2.7471 1.1649"/><path d="m32.8639 14.8392a8.1339 8.1339 0 0 1 1.2926-1.6406"/><path d="m35.9393 13.4064c.5677-.1443 1.64.5818 1.035 1.3272a4.7779 4.7779 0 0 1 -2.8178 1.3248c-.6248.0556-2.7967-.021-2.7967-.021-.9252 1.5981-.7149 4.0374-.7991 6.1822a9.3461 9.3461 0 0 1 -.8831 3.6589c3.7009-1.7243 10.0093-3.028 13.8224-2.3972"/><path d="m7.0237 30.6458a5.2763 5.2763 0 0 0 2.1726-2.0337 54.6611 54.6611 0 0 0 8.7476 1.0169c3.701 0 6.6869-.1757 5.4673-3.6243s-4.4579-10.5561-5.5934-11.986-2.6859-3.239-3.4486-3.1542c-.9463.1051-2.7152 1.2834-2.5166 2.0333.1892.715 1.1287 2.2774 2.7471 1.1649"/><path d="m15.1361 14.8392a8.1339 8.1339 0 0 0 -1.2926-1.6406"/><path d="m12.0607 13.4064c-.5677-.1443-1.6405.5818-1.035 1.3272a4.7779 4.7779 0 0 0 2.8178 1.3248c.6248.0556 2.7967-.021 2.7967-.021.9252 1.5981.7149 4.0374.7991 6.1822a9.3461 9.3461 0 0 0 .8831 3.6589c-3.7009-1.7243-10.0093-3.028-13.8224-2.3972"/><path d="m32.1812 11.742a27.5655 27.5655 0 0 0 -16.3641.0006"/><path d="m10.9168 13.9894c-3.941 2.4706-6.4168 6.0406-6.4168 10.0106 0 7.4558 8.73 13.5 19.5 13.5s19.5-6.0442 19.5-13.5c0-3.9705-2.4759-7.5407-6.4172-10.0109"/></g></svg>