<svg viewBox="0 0 48 48" xmlns="http://www.w3.org/2000/svg"><g fill="none" stroke="#000" stroke-linecap="round" stroke-linejoin="round"><path d="m9.89 33.1v-20.79"/><path d="m36.69 34.66v-26.87h3.59v26.87"/><path d="m36.68 7.8-4.75 9.37"/><path d="m4.69 39.78h10.41"/><path d="m9.89 33.1c0 2.44-1.63 6.68-5.2 6.68"/><path d="m9.89 33.1c0 2.44 1.64 6.68 5.21 6.68"/><path d="m33.28 39.78h10.41"/><path d="m36.69 34.66c0 2.45-.89 5.12-3.41 5.12"/><path d="m40.28 34.66c0 2.45.89 5.12 3.41 5.12"/><path d="m23.47 33.56-14.24-22.29c-1.87-2.73-2.23-3.47-4.54-3.47h6.46l14.24 22.28z"/></g></svg>