<svg viewBox="0 0 48 48" xmlns="http://www.w3.org/2000/svg"><g fill="none" stroke="#000" stroke-linecap="round" stroke-linejoin="round"><path d="m43.5 30.81c-24.66 25.9-56.92-8.48-26.87-23a9.1 9.1 0 0 0 -.85 2.19c-10.94 7-8.67 17.46-2.38 22.42a22.12 22.12 0 0 0 15 4.34c8.33-.46 15.14-5.95 15.14-5.95z"/><path d="m15.78 15.74v10.79h5.4"/><path d="m34.62 15.74v10.79h5.39"/><path d="m31 22.91a3.62 3.62 0 0 1 -3.63 3.63 3.62 3.62 0 0 1 -3.62-3.63v-3.56a3.62 3.62 0 0 1 3.62-3.62 3.62 3.62 0 0 1 3.63 3.62"/></g></svg>