<svg viewBox="0 0 48 48" xmlns="http://www.w3.org/2000/svg"><g fill="none" stroke="#000" stroke-linecap="round" stroke-linejoin="round"><path d="m16.1 6.33a2.56 2.56 0 0 0 -2.57 2.56v7.66h-9l4.27 7.45v15.1a2.56 2.56 0 0 0 2.56 2.58h20.09a2.57 2.57 0 0 0 2.55-2.57v-7.66h2.6a2.55 2.55 0 0 0 2.57-2.56v-15.12l4.3-7.44zm17.9 22.18v-9.39a2.57 2.57 0 0 0 -2.56-2.57h-15m.56 7.65a1.87 1.87 0 0 1 0 3.74 1.87 1.87 0 0 1 0-3.74zm8.75 0a1.87 1.87 0 1 1 -1.75 1.8 1.87 1.87 0 0 1 1.83-1.83zm-10.75 7.16h12.84a6.7 6.7 0 0 1 -12.85 0z"/><path d="m13.53 16.55h2.93"/><path d="m34.03 28.51v2.94"/><path d="m18.89 12.91h15.33"/></g></svg>