<svg viewBox="0 0 48 48" xmlns="http://www.w3.org/2000/svg"><g fill="none" stroke="#000" stroke-linecap="round" stroke-linejoin="round"><path d="m23.971 35.016h2.262l.726 3.415h-3.335"/><path d="m42.158 31.771-11.57.213-4.355 3.032.384-18.232 2.391-5.934 11.613-4.611 1.879 5.721-1.708 6.746.171 3.415-1.11 1.638 2.305 8.012-2.092 8.496-8.539-2.647-4.568 4.141h-2.988"/><path d="m39.8529 23.7591-8.1549-2.4062"/><path d="m40.7922 18.7057 1.4943-.2561"/><path d="m42.2865 20.3282-1.4047.1705"/><path d="m26.4389 25.2438 7.9489-.1764"/><path d="m35.647 31.891-4.12 5.729-.939-5.636 3.8-6.917-2.69-3.714-5.081-4.569 14.004-10.545"/><path d="m26.2329 35.0155 5.2943 2.6044"/><path d="m27.45 29.663 3.186-1.185-2.274-1.185z"/><path d="m29.0081 10.8497h-5.0373"/><path d="m24.029 35.016h-2.262l-.726 3.415h2.583"/><path d="m5.842 31.771 11.57.213 4.355 3.032-.384-18.232-2.391-5.934-11.613-4.611-1.879 5.721 1.708 6.746-.171 3.415 1.11 1.638-2.305 8.012 2.092 8.496 8.539-2.647 4.568 4.141h2.988"/><path d="m8.1471 23.7591 8.1549-2.4062"/><path d="m7.2078 18.7057-1.4943-.2561"/><path d="m5.7135 20.3282 1.4047.1705"/><path d="m21.5611 25.2438-7.9489-.1764"/><path d="m12.353 31.891 4.12 5.729.939-5.636-3.8-6.917 2.69-3.714 5.081-4.569-14.004-10.545"/><path d="m21.7671 35.0155-5.2943 2.6044"/><path d="m20.55 29.663-3.186-1.185 2.274-1.185z"/><path d="m18.9919 10.8497h5.0373"/></g></svg>