<svg viewBox="0 0 48 48" xmlns="http://www.w3.org/2000/svg"><g fill="none" stroke="#000" stroke-linecap="round" stroke-linejoin="round"><path d="m11.15 21.93 2.93-2.72 3.26 3.21 9.66-8.91 9.85 9.43v-15.73h-25.7zm8.55-12a2.92 2.92 0 1 1 -2.87 3v-.13a2.9 2.9 0 0 1 2.87-2.9z"/><path d="m38 4h-28a2 2 0 0 0 -2 2v36a2 2 0 0 0 2 2h28a2 2 0 0 0 2-2v-36a2 2 0 0 0 -2-2zm-6.72 37.13a6.09 6.09 0 0 1 -6.17-6.08 6.17 6.17 0 1 1 6.17 6.08zm8.72-17.25a2 2 0 0 1 -2 2h-28a2 2 0 0 1 -2-2"/><path d="m14.83 31.01h6.43"/><path d="m21.26 35.14h-6.43"/><path d="m14.83 39h6.51"/><path d="m28.45 32.09 5.73 5.73"/><path d="m28.43 37.86 5.73-5.73"/></g><path d="m11.9 39.75a.75.75 0 1 1 0-1.5.75.75 0 0 1 0 1.5z"/><path d="m11.9 35.89a.75.75 0 1 1 0-1.5.75.75 0 0 1 .75.74.77.77 0 0 1 -.75.76z"/><path d="m11.9 31.75a.75.75 0 0 1 -.75-.75.74.74 0 0 1 .75-.74.75.75 0 0 1 .75.75.77.77 0 0 1 -.75.74z"/></svg>