<svg viewBox="0 0 48 48" xmlns="http://www.w3.org/2000/svg"><g fill="none" stroke="#000" stroke-linecap="round" stroke-linejoin="round"><path d="m22.46 22.69a7.21 7.21 0 0 0 -12.89 4.21 6.45 6.45 0 0 0 -5.07 6.3c0 2.74 1.64 6.46 6.92 6.46h17a5.05 5.05 0 0 0 4.46-7.44"/><circle cx="30.41" cy="24.43" r="6.25"/><path d="m30.41 11.34v5.29"/><path d="m39.67 15.17-3.74 3.74"/><path d="m43.5 24.43h-5.29"/><path d="m39.67 33.68-3.74-3.74"/><path d="m21.16 15.17 3.74 3.74"/><path d="m8.95 15.71v-4.77"/><path d="m6.56 13.33h4.78"/><path d="m9 18.89c4.71-1.81 4.47-5.42 4.44-7.6 0-.42 0-1.64 0-1.64a16.81 16.81 0 0 0 -4.44-.76 16.81 16.81 0 0 0 -4.44.76s0 1.22 0 1.64c-.08 2.18-.32 5.79 4.44 7.6z"/></g></svg>