<svg viewBox="0 0 48 48" xmlns="http://www.w3.org/2000/svg"><g fill="none" stroke="#000" stroke-linecap="round" stroke-linejoin="round"><circle cx="24" cy="24" r="21.5"/><circle cx="24" cy="24" r="1.5"/><path d="m24 3v2"/><path d="m24 43v2"/><path d="m43.972 30.489-1.902-.618"/><path d="m35.168 39.371 1.175 1.618"/><path d="m43.972 17.511-1.902.618"/><path d="m36.343 7.011-1.175 1.618"/><path d="m12.832 39.371-1.175 1.618"/><path d="m5.93 29.871-1.902.618"/><path d="m4.028 17.511 1.902.618"/><path d="m11.657 7.011 1.175 1.618"/><path d="m24 25.5v9.5"/><path d="m38.266 28.635-12.841-4.172"/><path d="m30.245 16.6665a2.3485 2.3485 0 0 0 2.3583 2.3583 2.2759 2.2759 0 0 0 2.2709-2.3583v-2.3582a2.3313 2.3313 0 0 0 -2.2709-2.3583 2.4056 2.4056 0 0 0 -2.3583 2.3583z"/><path d="m34.3502 12.8234-3.4938 5.328"/></g><circle cx="20.812" cy="18.2387" r=".8734"/><path d="m13.1258 18.4134a2.7393 2.7393 0 0 0 2.0962.6114h.262a2.3124 2.3124 0 0 0 2.271-2.2709 2.3124 2.3124 0 0 0 -2.271-2.2709h-2.3582v-2.4457h4.6292" fill="none" stroke="#000" stroke-linecap="round" stroke-linejoin="round"/><path d="m26.7513 19.0248a1.752 1.752 0 0 0 1.7469-1.7469 1.752 1.752 0 0 0 -1.7469-1.7468 1.752 1.752 0 0 0 1.7469-1.7469 1.752 1.752 0 0 0 -1.7469-1.7469m-2.8823.6114a2.9718 2.9718 0 0 1 2.1836-.6114h.6987m-2.8823 6.3761a2.8416 2.8416 0 0 0 2.1836.6114h.6987" fill="none" stroke="#000" stroke-linecap="round" stroke-linejoin="round"/><circle cx="20.812" cy="13.6095" r=".8734"/></svg>