<svg viewBox="0 0 48 48" xmlns="http://www.w3.org/2000/svg"><g fill="none" stroke="#000" stroke-linecap="round" stroke-linejoin="round"><path d="m36.2132 26.8737a2.0587 2.0587 0 0 1 -2.0527-2.0526v-1.3343a2.0527 2.0527 0 0 1 4.1053 0v1.3343a2.0587 2.0587 0 0 1 -2.0526 2.0526z"/><path d="m26.2579 25.8474a1.9865 1.9865 0 0 1 -1.7447 1.0263 2.0587 2.0587 0 0 1 -2.0527-2.0526v-1.3343a2.0527 2.0527 0 0 1 4.1053 0v.7185h-4.1053"/><path d="m30.1579 18.6632v7.1842a.97.97 0 0 0 1.0263 1.0263h.3079"/><path d="m18.4579 18.6632v7.1842a.97.97 0 0 0 1.0263 1.0263h.3079"/><path d="m14.8658 24.8211a2.0527 2.0527 0 0 1 -4.1053 0v-1.3343a2.0527 2.0527 0 0 1 4.1053 0m0-2.0526v5.4395"/><path d="m19.8947 32.2105a6.3923 6.3923 0 0 0 -2.9987.4693 9.2368 9.2368 0 1 1 0-17.36 6.3923 6.3923 0 0 0 2.9987.4693c1.4387-.2109 5.1316-2.4553 5.1316-2.4553a12.3158 12.3158 0 1 1 0 21.3316s-3.6929-2.244-5.1316-2.4549z"/></g></svg>