<svg viewBox="0 0 48 48" xmlns="http://www.w3.org/2000/svg"><g fill="none" stroke="#000" stroke-linecap="round" stroke-linejoin="round"><path d="m23.0606 28.9735a2.07 2.07 0 0 1 -1.8184 1.07 2.1456 2.1456 0 0 1 -2.1393-2.1394v-1.39a2.1393 2.1393 0 1 1 4.2786 0v.7487h-4.2786"/><path d="m39.1791 28.9735a2.0705 2.0705 0 0 1 -1.8184 1.07 2.1456 2.1456 0 0 1 -2.1393-2.1394v-1.39a2.1393 2.1393 0 1 1 4.2786 0v.7487h-4.2786"/><path d="m34.215 21.486-2.139 8.557-2.139-8.557-2.14 8.557-2.139-8.557"/></g><circle cx="29.937" cy="18.8122" r=".75"/><circle cx="25.5084" cy="18.8122" r=".75"/><circle cx="34.3656" cy="18.8122" r=".75"/><path d="m8.5 30.043v-8.557l4.279 8.557 4.278-8.557v8.557" fill="none" stroke="#000" stroke-linecap="round" stroke-linejoin="round"/><circle cx="12.779" cy="18.8122" r=".75"/><path d="m40.5 42.5h-33a2.0059 2.0059 0 0 1 -2-2v-33a2.0059 2.0059 0 0 1 2-2h33a2.0059 2.0059 0 0 1 2 2v33a2.0059 2.0059 0 0 1 -2 2z" fill="none" stroke="#000" stroke-linecap="round" stroke-linejoin="round"/></svg>