<svg viewBox="0 0 48 48" xmlns="http://www.w3.org/2000/svg"><g fill="none" stroke="#000" stroke-linecap="round" stroke-linejoin="round"><path d="m40.5 5.5h-33a2 2 0 0 0 -2 2v33a2 2 0 0 0 2 2h33a2 2 0 0 0 2-2v-33a2 2 0 0 0 -2-2z"/><path d="m24.9912 21.5975v6.6038a2.2012 2.2012 0 0 1 -2.2012 2.2012 2.1943 2.1943 0 0 1 -1.5565-.6447"/><rect height="5.8334" rx="2.2013" transform="matrix(-1 0 0 -1 45.5799 49.0283)" width="4.4025" x="20.5887" y="21.5975"/><path d="m9.5 23.7987a2.2012 2.2012 0 0 1 2.2013-2.2012 2.2012 2.2012 0 0 1 2.2012 2.2012v3.6321"/><path d="m9.5 21.5975v5.8333"/><path d="m13.9025 23.7987a2.2013 2.2013 0 0 1 2.2013-2.2012 2.2012 2.2012 0 0 1 2.2013 2.2012v3.6321"/><path d="m31.457 26.32a2.2 2.2 0 0 1 -1.9127 1.1108 2.2012 2.2012 0 0 1 -2.2012-2.2008v-1.4313a2.2012 2.2012 0 0 1 2.2012-2.2012 2.2012 2.2012 0 0 1 2.2013 2.2012v.7154h-4.4025"/><path d="m38.5 27.4308v-3.6321a2.2012 2.2012 0 0 0 -2.2013-2.2012 2.2012 2.2012 0 0 0 -2.2012 2.2012v3.6321"/><path d="m34.0975 23.7987v-2.2012"/></g></svg>