<svg viewBox="0 0 48 48" xmlns="http://www.w3.org/2000/svg"><g fill="none" stroke="#000" stroke-linecap="round" stroke-linejoin="round"><path d="m14.6236 12.6654 6.6814 7.299 12.0714-12.4644"/><path d="m16.71 25.6422v-10.5067"/><path d="m27.4021 25.6422v-11.6644"/><path d="m33.2347 13.9778v11.6644"/><path d="m26.74 35.0178a2.34 2.34 0 0 1 -2.3329 2.3328 2.34 2.34 0 0 1 -2.3328-2.3328v-1.5164a2.34 2.34 0 0 1 2.3328-2.3329 2.34 2.34 0 0 1 2.3329 2.3329"/><path d="m26.7399 37.3506v-6.1821"/><path d="m33.4287 35.0178v3.1493a2.34 2.34 0 0 1 -2.3328 2.3329 1.9572 1.9572 0 0 1 -1.633-.7"/><path d="m33.4287 31.1685v3.8493a2.34 2.34 0 0 1 -2.3328 2.3328 2.34 2.34 0 0 1 -2.3329-2.3328v-3.8493"/><path d="m14.5713 37.4074v-8.64h2.8081a2.9161 2.9161 0 0 1 0 5.8322h-2.8081"/><path d="m10.5 43.5h27a2 2 0 0 0 2-2v-35a2 2 0 0 0 -2-2h-27a2 2 0 0 0 -2 2v35a2 2 0 0 0 2 2z"/></g></svg>