<svg viewBox="0 0 48 48" xmlns="http://www.w3.org/2000/svg"><g fill="none" stroke="#000"><path d="m24 8.5a5.4534 5.4534 0 0 1 5.45 5.4564v20.0872a5.45 5.45 0 1 1 -10.9008 0v-20.0872a5.4534 5.4534 0 0 1 5.4508-5.4564z" stroke-linecap="round" stroke-miterlimit="10"/><path d="m31.8291 33.5186c0 3.2033.0642 6.0418-1.3139 8.3844s-4.9626 2.597-5.7931 2.597h-1.4442c-.83 0-4.415-.2544-5.7931-2.597s-1.3139-5.1811-1.3139-8.3844v-19.0372c0-3.2033-.0642-6.0418 1.3139-8.3844s4.9627-2.597 5.7931-2.597h1.4442c.83 0 4.415.2544 5.7931 2.597s1.3139 5.1811 1.3139 8.3844z"/></g></svg>