<svg viewBox="0 0 48 48" xmlns="http://www.w3.org/2000/svg"><g fill="none" stroke="#000" stroke-linecap="round" stroke-linejoin="round"><path d="m39.23 26a16.52 16.52 0 0 0 .14-2 16.52 16.52 0 0 0 -.14-2l4.33-3.39a1 1 0 0 0 .25-1.31l-4.1-7.11a1 1 0 0 0 -1.25-.44l-5.11 2.06a15.68 15.68 0 0 0 -3.46-2l-.77-5.43a1 1 0 0 0 -1-.86h-8.22a1 1 0 0 0 -1 .86l-.77 5.43a15.36 15.36 0 0 0 -3.46 2l-5.13-2.06a1 1 0 0 0 -1.25.44l-4.1 7.11a1 1 0 0 0 .25 1.31l4.32 3.39a16.66 16.66 0 0 0 -.14 2 16.52 16.52 0 0 0 .14 2l-4.32 3.39a1 1 0 0 0 -.25 1.31l4.1 7.11a1 1 0 0 0 1.25.44l5.11-2.06a15.68 15.68 0 0 0 3.46 2l.77 5.43a1 1 0 0 0 1 .86h8.2a1 1 0 0 0 1-.86l.77-5.43a15.36 15.36 0 0 0 3.46-2l5.11 2.06a1 1 0 0 0 1.25-.44l4.1-7.11a1 1 0 0 0 -.25-1.31z"/><g stroke-width=".93"><path d="m17.26 22.34-4.72-1.18"/><path d="m19.33 13.24 1.93 4.58"/><path d="m18.92 34.55 2.1-4.48"/><path d="m28.62 19.21a6.84 6.84 0 0 0 -4.75-1.89 6.68 6.68 0 1 0 0 13.36 6.9 6.9 0 0 0 4.77-1.9l3.45 3.45a11.66 11.66 0 1 1 -8.6-19.89 11.79 11.79 0 0 1 1.88.1 11.61 11.61 0 0 1 6.72 3.31z"/></g></g></svg>