<svg viewBox="0 0 48 48" xmlns="http://www.w3.org/2000/svg"><g fill="none" stroke="#000" stroke-linecap="round" stroke-linejoin="round"><path d="m14.4 12.1v-1.57a1 1 0 0 1 1-1h17.2a1 1 0 0 1 1 1v1.47l-9.13-2.44a1.11 1.11 0 0 0 -1.22.71l-6.25 23.2a1 1 0 0 0 .71 1.22l3.18.85m3.24.87 10.2 2.73a1 1 0 0 0 1.22-.71l6.21-23.2a1 1 0 0 0 -.67-1.23l-7.48-2m-9.44 24.4-3.24-.87h-5.52a1 1 0 0 1 -1-1v-22.4l-7.16 1.92a1 1 0 0 0 -.71 1.22l6.21 23.2a1 1 0 0 0 1.22.71z"/><path d="m29.6 28c-.22-.61-1.08 1-.6 3.2l-2.8-.8c1.74-1.47 1.59-3.22 1.3-3-3.95 1.68-5.49-.83-5-3.4.51-4.21 5.9-3.9 8.7-6.9.8 3.54 5.66 6.4 4.4 10.3-1.16 2.6-3.91 3.69-6 .6z"/><path d="m32.8 35.7c-1 .44-1.73-.23-1.6-.9.13-1.09 1.58-1 2.3-1.8.21.92 1.43 1.59 1.1 2.6a1 1 0 0 1 -1.8.1l-.3 1.1"/><path d="m25.5 14.3c-1 .44-1.73-.23-1.6-.9.13-1.09 1.58-1 2.3-1.8.21.92 1.43 1.59 1.1 2.6a1 1 0 0 1 -1.8.1l-.3 1.1"/></g></svg>