<svg viewBox="0 0 48 48" xmlns="http://www.w3.org/2000/svg"><g fill="none" stroke="#000" stroke-linecap="round" stroke-linejoin="round"><path d="m41.92 25.3v-4.77-14.03a1 1 0 0 0 -1-1h-26.37a1 1 0 0 0 -1 1v7.5"/><path d="m18.19 22.19a3.68 3.68 0 0 0 -3.89-3.68 3.83 3.83 0 0 0 -3.49 3.89v3.41a3.69 3.69 0 0 0 3.69 3.69 3.69 3.69 0 0 0 3.69-3.69z"/><path d="m4.5 16v16a2 2 0 0 0 2 2h16a2 2 0 0 0 2-2v-16a2 2 0 0 0 -2-2h-16a2 2 0 0 0 -2 2z"/><path d="m43.5 42.5-19-10.68"/><path d="m11.67 34v8.5h31.83v-18.11l-15.91 9.17"/></g></svg>