<svg viewBox="0 0 48 48" xmlns="http://www.w3.org/2000/svg"><g fill="none" stroke="#000" stroke-linecap="round" stroke-linejoin="round"><path d="m28 11.81-9.71 3.44a3 3 0 0 0 -2 2.63v13.24a2.61 2.61 0 0 1 -1.4 2.1l-4.32 2a1.44 1.44 0 0 1 -1.89-1.36v-19.14a5.26 5.26 0 0 1 2.7-3.22l12.16-6.86c2.38-.51 4.17.36 4.46 2.78z"/><path d="m25.75 4.61a3 3 0 0 1 2.25 2.81v32.58a4.12 4.12 0 0 1 -1.73 3.17l10.86-3.08a4.54 4.54 0 0 0 2.2-2.69v-26.26a3.31 3.31 0 0 0 -2.53-3.25z"/><path d="m22.51 42.7c1.75.84 2.31 1 3.75.5a4.16 4.16 0 0 0 1.74-3.2v-4.9h-11.82c-1.61.55-2.57 2.27-.77 3.56z"/></g></svg>