<svg viewBox="0 0 48 48" xmlns="http://www.w3.org/2000/svg"><g fill="none" stroke="#000" stroke-linecap="round" stroke-linejoin="round"><path d="m24 43.5c1.2752 0 11.5069-5.8879 11.5069-12.8366v-15.1555c-3.0182 0-11.5069-1.5155-11.5069-1.5155s-8.4963 1.5155-11.5069 1.5155v15.1555c0 6.9487 10.2317 12.8366 11.5069 12.8366z"/><path d="m32.014 12.8816q.01-.1778.012-.3557a8.026 8.026 0 0 0 -16.0519 0q.002.1779.0119.3557"/><path d="m24 21.5344a3.1419 3.1419 0 0 0 -1.4061 5.9514 3.9923 3.9923 0 0 0 -2.583 3.736h7.9782a3.9923 3.9923 0 0 0 -2.583-3.736 3.1419 3.1419 0 0 0 -1.4061-5.9514z"/></g></svg>