<svg viewBox="0 0 48 48" xmlns="http://www.w3.org/2000/svg"><g fill="none" stroke="#000" stroke-linecap="round" stroke-linejoin="round"><path d="m17.91 17.14h12.18a.76.76 0 0 1 .77.77v12.18a.76.76 0 0 1 -.77.77h-12.18a.76.76 0 0 1 -.77-.77v-12.18a.76.76 0 0 1 .77-.77z"/><circle cx="24" cy="24" r="21.5"/><path d="m25.97 13.26v-10.67"/><path d="m22.03 13.26v-10.67"/><path d="m18.09 13.26v-9.94"/><path d="m29.91 13.26v-9.94"/><path d="m22.03 34.83v10.67"/><path d="m25.97 34.83v10.67"/><path d="m29.91 34.83v9.94"/><path d="m18.09 34.83v9.94"/><path d="m34.78 26.02h10.67"/><path d="m34.78 22.08h10.67"/><path d="m34.78 18.14h9.94"/><path d="m34.78 29.95h9.94"/><path d="m13.22 22.08h-10.67"/><path d="m13.22 26.02h-10.67"/><path d="m13.22 29.95h-9.94"/><path d="m13.22 18.14h-9.94"/></g></svg>