<svg viewBox="0 0 48 48" xmlns="http://www.w3.org/2000/svg"><g fill="none" stroke="#000" stroke-linejoin="round"><circle cx="37.07" cy="13.19" r="4.16"/><path d="m33.46 35.73a4 4 0 0 0 1.28.79 6.42 6.42 0 0 0 8.76-6v-9.38a1.75 1.75 0 0 0 -1.72-1.76h-9.36"/><path d="m24.37 17.5s1.07-.17 1.42-.25a5.89 5.89 0 0 0 3.92-7.55 6 6 0 0 0 -11.71 1.82 6.16 6.16 0 0 0 .15 1.36l.28 1.12"/><path d="m14 34a16.15 16.15 0 0 0 .55 2.07 10.5 10.5 0 0 0 9.45 6.43 10.43 10.43 0 0 0 10.12-10.67v-10.67a1.74 1.74 0 0 0 -1.7-1.78h-8"/><path d="m10.35 18.5h8.3" stroke-linecap="round"/><path d="m14.5 29.5v-11" stroke-linecap="round"/><path d="m4.5 16v16a2 2 0 0 0 2 2h16a2 2 0 0 0 2-2v-16a2 2 0 0 0 -2-2h-16a2 2 0 0 0 -2 2z"/></g></svg>