<svg viewBox="0 0 48 48" xmlns="http://www.w3.org/2000/svg"><g fill="none" stroke="#000" stroke-linecap="round" stroke-linejoin="round"><path d="m10.3148 35.6362 4.1419-11.1438"/><path d="m18.4271 35.6694-3.9704-11.177"/><path d="m17.0988 31.9306h-5.4067"/><path d="m25.8582 13.3468h12.4566"/><path d="m32.0865 10.879v2.4678"/><path d="m35.5727 13.3468c0 3.408-3.9563 9.0486-7.9125 9.91"/><path d="m28.2871 16.4414c.3917 2.35 4.4656 6.2674 8.089 6.8158"/><path d="m26.7456 34.933a5.1656 5.1656 0 0 0 5.1656-5.1655v-2.5751"/><path d="m29.581 29.522 2.33-2.33 2.331 2.33"/><path d="m19.5371 13.3468a5.1656 5.1656 0 0 0 -5.1655 5.1656v2.5751"/><path d="m16.701 18.758-2.329 2.329-2.332-2.329"/><path d="m40.5 5.5h-33a2 2 0 0 0 -2 2v33a2 2 0 0 0 2 2h33a2 2 0 0 0 2-2v-33a2 2 0 0 0 -2-2z"/></g></svg>