<svg viewBox="0 0 48 48" xmlns="http://www.w3.org/2000/svg"><g fill="none" stroke="#000" stroke-linecap="round" stroke-linejoin="round"><path d="m26.78 45.33c-7.37-.08-12.78-7.62-12.78-13.46 0-7.3 6-13.27 10-13.27 4.46 0 5.44 4.79 5.44 4.79"/><path d="m2.5 24c0-7.29 7.84-11.38 13.87-11.38s13.13 4.78 13.13 11.38c0 3.2-1.92 2.77-1.92 4.69 0 1.49 3 2.5 6.36 2.5 5.44 0 12-2.72 11.53-9.39a21.54 21.54 0 1 0 -21.47 23.7c8 0 14.64-4.59 18.72-10.84.66-1-.51-2-1.56-1.08a15.51 15.51 0 0 1 -7.77 2.82c-4.21 0-14.74-2.82-14.74-12 0-3.81 2.2-4.87 2.2-4.87"/></g></svg>