<svg viewBox="0 0 48 48" xmlns="http://www.w3.org/2000/svg"><g fill="none" stroke="#000" stroke-linecap="round" stroke-linejoin="round"><path d="m33.67 4.84v23h6.89v-17.41"/><path d="m18.24 45.45a21.87 21.87 0 0 1 -15.53-24.08 21.61 21.61 0 0 1 21.38-18.87 21.63 21.63 0 0 1 21.23 19.06 21.87 21.87 0 0 1 -15.74 23.94"/><path d="m29.58 45.5-1-4.18h-9.41l-.93 4.13"/><path d="m14 5v22.8h-6.88v-17"/><path d="m27.23 2.76v25.06h-6.84v-25"/><path d="m10.7 27.82v13.74"/><path d="m36.89 27.82v14.07"/><path d="m23.84 27.82v13.49"/></g></svg>