<svg viewBox="0 0 48 48" xmlns="http://www.w3.org/2000/svg"><g fill="none" stroke="#000" stroke-linecap="round" stroke-linejoin="round"><path d="m33.38 18.62a2.48 2.48 0 0 1 2.46 2.47"/><path d="m33.38 16.72a4.27 4.27 0 0 1 4.29 4.28"/><path d="m33.38 14.89a6.12 6.12 0 0 1 6.12 6.11"/><path d="m8.5 29.51v-8.58l4.29 8.58 4.3-8.58v8.58"/><path d="m27.1 20.93h5.72"/><path d="m29.96 29.51v-8.58"/><path d="m25.35 26.65a2.85 2.85 0 0 1 -2.86 2.86 2.85 2.85 0 0 1 -2.86-2.86v-2.86a2.85 2.85 0 0 1 2.86-2.86 2.85 2.85 0 0 1 2.86 2.86"/><rect height="31.2" rx="1.95" width="39" x="4.5" y="8.4"/></g></svg>