<svg viewBox="0 0 48 48" xmlns="http://www.w3.org/2000/svg"><g fill="none" stroke="#000" stroke-linecap="round" stroke-linejoin="round"><path d="m4.5 41.03 39-17.03-39-17.03"/><path d="m42.427 36.247c.0213-.16214.03273-.32544.03423-.48897-.0015-.16353-.01293-.32682-.03423-.48897l1.0586-.8288c.09898-.0756.1253-.21353.06112-.32027l-1.0024-1.7383c-.06008-.1079-.19119-.15404-.3056-.10757l-1.2493.50364c-.25996-.1984-.54424-.36272-.84591-.48897l-.18825-1.3275c-.01718-.12151-.12177-.21146-.24448-.21026h-2.0097c-.12271-.0012-.22731.08874-.24448.21026l-.18825 1.3275c-.30206.12545-.58644.28983-.84591.48897l-1.2542-.50364c-.11442-.04647-.24552-.000323-.3056.10757l-1.0024 1.7383c-.06418.10674-.03786.24467.06112.32027l1.0562.8288c-.02122.16215-.03265.32544-.03423.48897.0015.16353.01293.32682.03423.48897l-1.0562.8288c-.09898.0756-.1253.21353-.06112.32027l1.0024 1.7383c.06008.1079.19119.15404.3056.10757l1.2493-.50364c.25996.1984.54424.36272.84591.48897l.18825 1.3275c.01718.12151.12177.21146.24448.21026h2.0048c.12271.0012.22731-.08874.24448-.21026l.18825-1.3275c.30206-.12545.58644-.28983.84591-.48897l1.2493.50364c.11442.04647.24552.000323.3056-.10757l1.0024-1.7383c.06418-.10674.03786-.24467-.06112-.32027z"/></g></svg>