<svg viewBox="0 0 48 48" xmlns="http://www.w3.org/2000/svg"><path d="m40.5 5.5h-33a2 2 0 0 0 -2 2v33a2 2 0 0 0 2 2h33a2 2 0 0 0 2-2v-33a2 2 0 0 0 -2-2z" fill="none" stroke="#000" stroke-linecap="round" stroke-linejoin="round"/><path d="m9.5 28.133v-6.696l3.352 6.703 3.351-6.693v6.693" fill="none" stroke="#000" stroke-linecap="round" stroke-linejoin="round"/><circle cx="18.0125" cy="21.6465" r=".75"/><g fill="none" stroke="#000" stroke-linecap="round" stroke-linejoin="round"><path d="m18.0125 23.6994v4.4411"/><path d="m27.2806 27.7658a1.8852 1.8852 0 0 0 1.3783.3747h.376a1.1091 1.1091 0 0 0 1.1079-1.11 1.109 1.109 0 0 0 -1.1079-1.11h-.752a1.1091 1.1091 0 0 1 -1.1078-1.11 1.1091 1.1091 0 0 1 1.1078-1.11h.376a1.8852 1.8852 0 0 1 1.3783.3747"/><path d="m25.3419 27.2948a1.6752 1.6752 0 0 1 -1.4561.8457 1.6759 1.6759 0 0 1 -1.6758-1.6759v-1.0893a1.6759 1.6759 0 0 1 1.6759-1.6759 1.6759 1.6759 0 0 1 1.6759 1.6759v.5447h-3.3518"/><path d="m19.8215 21.437v5.8655a.838.838 0 0 0 .8379.838h.2514"/><path d="m18.012 36.493v-6.696l3.352 6.703 3.352-6.693v6.693"/><rect height="4.4411" rx="1.6759" width="3.3517" x="26.4154" y="32.0589"/><path d="m31.5111 33.7348a1.6759 1.6759 0 0 1 1.6759-1.6759"/><path d="m31.5111 32.0589v4.4411"/><path d="m37.5485 35.6543a1.6752 1.6752 0 0 1 -1.4561.8457 1.6759 1.6759 0 0 1 -1.6759-1.6759v-1.0893a1.6759 1.6759 0 0 1 1.6759-1.6759 1.6758 1.6758 0 0 1 1.6758 1.6759v.5452h-3.3517"/><path d="m15.2438 36.5h-.5664a1.1731 1.1731 0 0 1 -.9487-.483l-2.325-3.1961a2.745 2.745 0 0 1 -.8244-1.6739 1.3662 1.3662 0 0 1 1.4029-1.35 1.3409 1.3409 0 0 1 1.3584 1.35c0 .765-.62 1.4191-1.7654 1.6364-1.277.2423-2.0752.943-2.0752 2.0981a1.5625 1.5625 0 0 0 1.7656 1.6185c1.547 0 2.4576-1.467 3.8024-3.27"/></g></svg>