<svg viewBox="0 0 48 48" xmlns="http://www.w3.org/2000/svg"><g fill="none" stroke="#000" stroke-linecap="round" stroke-linejoin="round"><path d="m19.18 4.6841a58.598 58.598 0 0 1 14.4661 4.8088c3.16 1.6259 4.1794 4.4886 3.4615 7.9687a31.0724 31.0724 0 0 1 -2.5212 8.0617 8.0138 8.0138 0 0 1 -8.5579 4.3454 38.4647 38.4647 0 0 1 -14.8347-5.6187c-2.9227-2.0212-3.5938-4.6532-2.7986-8.1163a24.8069 24.8069 0 0 1 2.4476-7.3251c2.0099-3.3702 4.8606-4.8606 8.3372-4.1245z"/><path d="m23.957 19.3676 1.1558-2.7753a1.6188 1.6188 0 1 1 2.9888 1.2447l-1.1558 2.7754a1.6188 1.6188 0 0 1 -2.9888-1.2448z"/><path d="m14.556 15.3353a1.9888 1.9888 0 0 1 3.6794 1.4847"/><path d="m36.9784 19.1592a15.3213 15.3213 0 1 1 -26.9817 4.3614"/><path d="m14.1332 29.6881s2.0625 5.23 5.3035 3.0938"/></g></svg>