<svg viewBox="0 0 48 48" xmlns="http://www.w3.org/2000/svg"><g fill="none" stroke="#000" stroke-linecap="round" stroke-linejoin="round"><path d="m20.5421 4.5c1.6811 1.46 2.6941 3.7365 3.3266 6.4781"/><path d="m10.8438 14.4606c7.9376-.4688 19.0226-6.1827 27.9946-6.0212a8.64 8.64 0 0 1 -3.3266 5.9529"/><path d="m10.3434 9.9714c1.1986 3.344.5571 6.253-1.6633 9.4983"/><path d="m16.1212 18.7256c5.7124.1076 10.2642-3.527 14.5758-2.8013a88.9554 88.9554 0 0 1 -7.5286 7.2222c3.8321 5.6126 8.0887 11.1071-1.1384 20.3535a17.0889 17.0889 0 0 1 -3.72-5.0774"/><path d="m10.65 29.6246c9.6714-.7287 20.2819-5.2519 28.67-5.2525"/></g></svg>