<svg viewBox="0 0 48 48" xmlns="http://www.w3.org/2000/svg"><g fill="none" stroke="#000" stroke-linecap="round" stroke-linejoin="round"><path d="m19.4075 4.5h9.185l6.6637 7.0942.6213 11.2358-4.9166 7.778-1.3509 3.9252v6.8241l-5.61 2.1427-5.61-2.1427v-6.8241l-1.3508-3.9252-4.9167-7.778.6213-11.2354z"/><path d="m19.4075 4.5v8.2555"/><path d="m12.7437 11.5942 6.6637 1.1613"/><path d="m12.1224 22.83 7.285-10.0741"/><path d="m28.5925 4.5-9.185 8.2555"/><path d="m28.5925 4.5 2.7646 13.36"/><path d="m35.2562 11.5942-3.8991 6.2658"/><path d="m35.8776 22.83-4.5205-4.97"/><path d="m30.9608 30.608.3962-12.748"/><path d="m19.4075 12.7556 11.9495 5.1044"/><path d="m12.1224 22.83 10.842 1.8185 7.9964 5.96"/><path d="m31.3571 17.86-8.3927 6.7881"/><path d="m19.4075 12.7556 3.557 11.8926"/><path d="m17.0392 30.608 5.9253-5.96"/><path d="m22.9644 24.6482-4.5744 9.8851 12.571-3.9252"/><path d="m18.39 34.5333h11.22"/></g></svg>