<svg viewBox="0 0 48 48" xmlns="http://www.w3.org/2000/svg"><g fill="none" stroke="#000" stroke-linecap="round" stroke-linejoin="round"><path d="m43 31.8268-18.9838 11.2225-19.0162-10.9793v-10.8475"/><path d="m9.5524 29.2747-1.808-1.0438v5.4239l9.7816 5.6474v-1.8079l-1.566-.9043v-1.808l-1.888-1.09v-3.616l-4.52-2.61z"/><path d="m17.6883 39.3959-9.5568-5.5176 3.1372-1.7424 2.8036 1.5564"/><path d="m34.8641 17.0935-2.6653-1.8714-6.0555 3.6536 4.2008 2.5154v1.808l5.9607 3.4473 3.1357-1.808 3.5595-2.0515-5.4239-3.8154"/><path d="m32.1988 15.2221-.0467-1.8271"/><path d="m11.2448 17.596-6.2448 3.6265 12.6883 7.3255 12.6558-7.1569-5.78-3.4656 7.588-4.53-6.7973-3.9249-4.7118 2.9144"/><path d="m30.3441 23.1991-12.6558 7.1569v1.808l1.4035.81v1.808l4.9244 2.8431 10.8479-6.3928v-1.94l1.5116-.8727-.0709-1.773"/><path d="m12.803 18.4952.0258 3.8213 1.5657.7139 1.5658-.7139v-1.8077l-.023-1.9927-1.5428.8984"/><path d="m7.7444 15.575 6.65 3.84 6.0056-3.4679v-7.529l-6.0055-3.4674-6.6501 3.8393z"/><path d="m34.8641 22.1927 1.451.8377 1.261-.728v-7.5838l-1.261-.7281-1.451.97z"/><path d="m43 25.4988-3.616 2.0877v.904l-1.8079 1.0438v1.808l-1.808 1.0438v3.616l7.2319-4.1753z"/><path d="m17.6883 28.548v1.808"/></g></svg>