<svg viewBox="0 0 48 48" xmlns="http://www.w3.org/2000/svg"><g fill="none" stroke="#000" stroke-linecap="round" stroke-linejoin="round"><path d="m10.4318 24.3667h2.8615v2.778h-2.8615z"/><path d="m10.4237 33.9799h2.8615v2.778h-2.8615z"/><path d="m10.4561 15.3353h2.8615v2.778h-2.8615z"/><path d="m41.4088 29.91v-9.0235a2.76 2.76 0 0 0 -2.76-2.76h-30.1027a2.76 2.76 0 0 0 -2.76 2.76v9.0235"/><path d="m41.4088 37.02v-7.11a2.76 2.76 0 0 0 -2.76-2.76h-30.1027a2.76 2.76 0 0 0 -2.76 2.76v7.11"/><path d="m41.4088 20.8866v-9.22a2.76 2.76 0 0 0 -2.76-2.76h-30.1027a2.76 2.76 0 0 0 -2.76 2.76v9.22"/><path d="m4.5 39.0937h39" stroke-dasharray="2 2"/><path d="m20.7591 18.044a6.5292 6.5292 0 0 1 13.0584 0"/><path d="m29.262 18.044-.987-1.709h-1.974l-.987 1.709"/><path d="m22.6571 13.4416 2.6572 4.6024"/><path d="m28.9585 11.7321-2.6572 4.6024"/><path d="m28.2753 16.3345h5.3158"/><path d="m20.7591 27.1447a6.5292 6.5292 0 0 1 13.0584 0"/><path d="m29.262 27.145-.987-1.71h-1.974l-.987 1.71"/><path d="m22.6571 22.5423 2.6572 4.6024"/><path d="m28.9585 20.8328-2.6572 4.6024"/><path d="m28.2753 25.4352h5.3158"/><path d="m20.7591 36.2454a6.5292 6.5292 0 0 1 13.0584 0"/><path d="m29.262 36.245-.987-1.709h-1.974l-.987 1.709"/><path d="m22.6571 31.643 2.6572 4.6024"/><path d="m28.9585 29.9335-2.6572 4.6024"/><path d="m28.2753 34.5359h5.3158"/></g></svg>