<svg viewBox="0 0 48 48" xmlns="http://www.w3.org/2000/svg"><g fill="none" stroke="#000"><path d="m15.24 22.65a2.2 2.2 0 1 1 2.19-2.19 2.19 2.19 0 0 1 -2.19 2.19zm5.76-3.76a3 3 0 1 1 3-3 3 3 0 0 1 -3 3z" stroke-miterlimit="10"/><g stroke-linecap="round" stroke-linejoin="round"><circle cx="24.01" cy="24" r="15.73"/><path d="m24 2.5v5.77"/><path d="m45.51 23.98h-5.76"/><path d="m24.03 45.5v-5.77"/><path d="m2.51 24.02h5.77"/><path d="m35.14 12.88 2.04-2.04"/><path d="m35.14 35.12 2.04 2.04"/><path d="m12.89 35.12-2.04 2.04"/><path d="m12.89 12.88-2.04-2.04"/></g></g></svg>