<svg viewBox="0 0 48 48" xmlns="http://www.w3.org/2000/svg"><g fill="none" stroke="#000" stroke-linecap="round" stroke-linejoin="round"><path d="m40.5 5.5h-33a2 2 0 0 0 -2 2v33a2 2 0 0 0 2 2h33a2 2 0 0 0 2-2v-33a2 2 0 0 0 -2-2z"/><path d="m22.0303 18.956h6.683"/><path d="m25.4343 29.044v-10.088"/><path d="m9.6813 25.009a2.5218 2.5218 0 0 1 5.0436 0v4.0348"/><path d="m9.6813 22.4872v6.5566"/><path d="m14.7249 25.009a2.5218 2.5218 0 1 1 5.0436 0v4.0348"/><path d="m31.6357 18.956h6.683"/><path d="m35.0407 29.044v-10.088"/></g></svg>