<svg viewBox="0 0 48 48" xmlns="http://www.w3.org/2000/svg"><g fill="none" stroke="#000" stroke-linecap="round" stroke-linejoin="round"><path d="m24.0152 23.6062c7.0647.0717 8.62 10.6443 16.1734 7.6037 6.3671-2.5627 1.8993-14.0562.181-17.828-2.0731-4.5511-5.4238-6.1231-8.0836-6.15-3.1794-.0325-5.3475 2.73-8.1319 2.702s-4.8962-2.8339-8.0754-2.8668c-2.66-.027-6.0412 1.4761-8.2071 5.985-1.7946 3.7361-6.4948 15.1365-.1811 17.8279 7.4902 3.1929 9.2595-7.3456 16.3247-7.2738z"/><circle cx="15.608" cy="16.5799" r="3.5533"/><circle cx="31.0049" cy="14.6999" r="1.4961"/><circle cx="34.9108" cy="18.6859" r="1.4961"/><path d="m24 27.679 1.514 3.068 3.387.492-2.451 2.389.579 3.373-3.029-1.593-3.029 1.593.579-3.373-2.451-2.389 3.387-.492z"/><path d="m34.979 33.655 1.182 2.396 2.644.384-1.913 1.865.451 2.633-2.364-1.243-2.365 1.243.452-2.633-1.914-1.865 2.644-.384z"/><path d="m13.021 33.655 1.183 2.396 2.644.384-1.914 1.865.452 2.633-2.365-1.243-2.364 1.243.451-2.633-1.913-1.865 2.644-.384z"/></g></svg>