<svg viewBox="0 0 48 48" xmlns="http://www.w3.org/2000/svg"><path d="m13.1705 21.3329v-11.358q2.8156 5.6433 5.6314 11.286 2.8156-5.6433 5.6314-11.286v11.358" fill="none" stroke="#000" stroke-linecap="round" stroke-linejoin="round"/><circle cx="26.9221" cy="11.4619" r=".75"/><g fill="none" stroke="#000" stroke-linecap="round" stroke-linejoin="round"><path d="m26.9271 13.9269v7.406"/><path d="m34.83 21.3329v-4.6557a2.8157 2.8157 0 1 0 -5.6314 0v4.6557"/><path d="m29.1975 16.6769v-2.821"/><path d="m8.5 23.1688v11.0458h5.5115"/><path d="m24.0149 32.8816a2.1368 2.1368 0 0 1 -1.894 1.3807 2.5458 2.5458 0 0 1 -2.2282-2.7615v-1.795a2.5459 2.5459 0 0 1 2.2282-2.7615 2.5459 2.5459 0 0 1 2.2283 2.7615v.9666h-4.4564"/><path d="m15.7556 28.4118a2.122 2.122 0 0 1 1.88-1.3808 2.5406 2.5406 0 0 1 2.2116 2.7615v1.795a2.54 2.54 0 0 1 -2.2116 2.7615 2.007 2.007 0 0 1 -2.0281-2.269c0-1.6909 1.376-1.4073 4.2853-1.4073"/><path d="m39.0867 33.1732a2.6663 2.6663 0 0 1 -2.3425 1.3808 2.7668 2.7668 0 0 1 -2.7557-2.7616v-1.7949a2.7558 2.7558 0 1 1 5.5115 0v.9665h-5.5115"/><path d="m31.9453 26.9789v8.2846a2.7669 2.7669 0 0 1 -2.7553 2.7616 2.31 2.31 0 0 1 -1.929-.8285"/><path d="m29.1892 26.9789a2.7668 2.7668 0 0 1 2.7558 2.7616v1.7949a2.7558 2.7558 0 1 1 -5.5115 0v-1.7949a2.7668 2.7668 0 0 1 2.7557-2.7616z"/><path d="m40.5 5.5h-33a2 2 0 0 0 -2 2v33a2 2 0 0 0 2 2h33a2 2 0 0 0 2-2v-33a2 2 0 0 0 -2-2z"/></g></svg>