<svg viewBox="0 0 48 48" xmlns="http://www.w3.org/2000/svg"><g fill="none" stroke="#000" stroke-linecap="round" stroke-linejoin="round"><circle cx="24" cy="24" r="21.5"/><path d="m16.714 21.473c1.3078.9142.6231 3.3245-2.9692 6.2583 0 0-2.8018-2.1211-2.85-4.1695s1.7479-1.99 2.5419.2809c0 0 1.97-3.284 3.2773-2.37z"/><path d="m36.675 21.473c1.3078.9142.6231 3.3245-2.9692 6.2583 0 0-2.8018-2.1211-2.85-4.1695s1.7479-1.99 2.5419.2809c0 0 1.9695-3.284 3.2773-2.37z"/><path d="m28.905 34.001h-9.8109s.478 5.4386 4.9482 5.4386 4.8626-5.4386 4.8626-5.4386z"/></g></svg>