<svg viewBox="0 0 48 48" xmlns="http://www.w3.org/2000/svg"><g fill="none" stroke="#000" stroke-linecap="round" stroke-linejoin="round"><path d="m35.57 18.25c0-7.59-5.18-13.75-11.57-13.75s-11.57 6.16-11.57 13.75c0 6.1 3.35 11.26 8 13 1.81.69 1.67 2.79 1.45 4.3l-.96 4.45a3.13 3.13 0 0 0 6.21.83 2.89 2.89 0 0 0 0-.83l-.93-4.38c-.21-1.49-.36-3.61 1.46-4.3 4.56-1.81 7.91-6.97 7.91-13.07zm-11.57 10.56c-4.74 0-8.59-4.72-8.59-10.56s3.85-10.58 8.59-10.58 8.59 4.74 8.59 10.58-3.85 10.56-8.59 10.56z"/><path d="m22.41 11.73-2.74 2.74"/><path d="m25.85 12-5.91 5.9"/></g></svg>