<svg viewBox="0 0 48 48" xmlns="http://www.w3.org/2000/svg"><g fill="none" stroke="#000" stroke-linecap="round" stroke-linejoin="round"><path d="m17.019 13.039-6.794 3.005v4.321l1.982 1.794"/><path d="m12.824 21.992-5.322 3.319 2.661.814v3.068l2.661-1.878"/><path d="m12.8236 19.3001-2.5984 1.0644"/><path d="m12.0722 9.783a12.2745 12.2745 0 0 0 -4.7822 3.1228"/><path d="m30.9813 17.2652h4.1951v21.6615a3.0707 3.0707 0 0 1 -3.0706 3.0706h-5.3508c-.814 0-1.44 0-2.755 1.5027-1.3149-1.5027-1.941-1.5027-2.755-1.5027h-5.3508a3.0707 3.0707 0 0 1 -3.0706-3.0706v-21.6615h4.1951"/><path d="m24 8.562c9.11 0 11.9278 1.221 11.9278 1.221l-4.31 1.664a.9945.9945 0 0 0 -.6365.9279v4.7964a2.1914 2.1914 0 0 1 -2.1913 2.1914h-.9912a1.5536 1.5536 0 0 0 -1.0513.41l-1.425 1.31a1.5536 1.5536 0 0 1 -1.0513.41h-.5422a1.5536 1.5536 0 0 1 -1.0513-.41l-1.425-1.3095a1.5536 1.5536 0 0 0 -1.0513-.41h-.9914a2.1914 2.1914 0 0 1 -2.1914-2.1914v-4.7969a.9945.9945 0 0 0 -.6365-.9279l-4.31-1.664s2.8179-1.221 11.9279-1.221z"/><path d="m30.981 13.039 6.794 3.005v4.321l-1.982 1.794"/><path d="m35.176 21.992 5.322 3.319-2.661.814v3.068l-2.661-1.878"/><path d="m35.1764 19.3001 2.5984 1.0644"/><path d="m35.1764 14.8947 5.5336-1.9889v-5.3065c-3.5691-2.5593-8.226-3.0993-16.71-3.0993s-13.1409.54-16.71 3.0993v5.3065l5.5334 1.9889"/><path d="m35.9278 9.783a12.2745 12.2745 0 0 1 4.782 3.1228"/></g></svg>