<svg viewBox="0 0 48 48" xmlns="http://www.w3.org/2000/svg"><g fill="none" stroke="#000" stroke-linecap="round" stroke-linejoin="round"><path d="m39.46 22.23 1.02-.59v-9.45l-8.19-4.73-8.18 4.73"/><path d="m24.11 12.19-8.19-4.73-8.18 4.73v9.45l1.04.6"/><path d="m15.92 26.36v9.45l8.19 4.73 8.18-4.73v-9.45"/><path d="m21.48 20.21h5.27a5.55 5.55 0 0 1 5.55 5.55v.6a0 0 0 0 1 0 0h-16.38a0 0 0 0 1 0 0v-.6a5.55 5.55 0 0 1 5.56-5.55z"/><path d="m15.92 28.73h16.37"/><path d="m15.92 32.15h16.37"/><path d="m20.4 20.31-1.18-2.16h-2.73"/><path d="m27.93 20.31 1.18-2.16h2.73"/><path d="m15.93 33.32a11.06 11.06 0 0 1 -3.64 2.52"/><path d="m4.6 22.55c2.89-.84 9.18-.23 11.42 2.2"/><path d="m32.29 33.32a11.06 11.06 0 0 0 3.64 2.52"/><path d="m43.64 22.57c-2.9-.84-9.19-.23-11.43 2.2"/><path d="m24.11 12.19v8.02"/></g><circle cx="21.84" cy="23.47" r=".75"/><circle cx="26.38" cy="23.47" r=".75"/></svg>