<svg viewBox="0 0 48 48" xmlns="http://www.w3.org/2000/svg"><g fill="none" stroke="#000" stroke-linecap="round" stroke-linejoin="round"><path d="m14.5 5.5v17.2l1.9-1.8 2.5 2.4 2.5-2.5 2.5 2.6 2.5-2.5 2.5 2.4 2.5-2.5 2 2v-17.3"/><path d="m34.4 35.6c0-3.3 5.2-3.5 5.2 0"/><path d="m34.4 35.6h5.2v4.3h-5.2z"/><path d="m38.2 40v2.5"/><path d="m35.7 40v2.5"/><path d="m32.9 35.2v4"/><path d="m41.1 35.2v4"/><path d="m36.1 33.2-1.1-1.5"/><path d="m37.9 33.2 1.1-1.5"/><path d="m27.6 9.7v8h4"/><path d="m17.3 17.7v-8l4 8 4-8v8"/><path d="m37 28.6a8.5 8.5 0 1 0 8.5 8.5 8.49 8.49 0 0 0 -8.5-8.5z"/><path d="m30.5 42.5h-23a2 2 0 0 1 -2-2v-33a2 2 0 0 1 2-2h33a2 2 0 0 1 2 2v23.1"/></g></svg>