<svg viewBox="0 0 48 48" xmlns="http://www.w3.org/2000/svg"><g fill="none" stroke="#000" stroke-linecap="round" stroke-linejoin="round"><path d="m30.6917 32.1116c.9773 1.7276-1.0848 4.065-6.6917 5.43 0 0-2.0066-3.8836-.9614-6.2081s3.03-1.2952 2.7025 1.679c0 0 3.9738-2.6283 4.9507-.9011z"/><path d="m19.1481 33.8457c3.1578-8.1333 6.2932-16.2746 9.465-24.4026a7.21 7.21 0 0 1 9.5479-3.5594 6.7112 6.7112 0 0 1 3.2064 8.9063c-3.1027 7.9909-6.1828 15.99-9.2994 23.9758a7.21 7.21 0 0 1 -9.548 3.5595 6.664 6.664 0 0 1 -3.372-8.4792z"/><path d="m20.9162 27.8352-4.64-9.5358"/><path d="m19.9007 11.9493a6.9513 6.9513 0 1 1 -6.9507-6.9493 6.95 6.95 0 0 1 6.9507 6.9493z"/></g></svg>