<svg viewBox="0 0 48 48" xmlns="http://www.w3.org/2000/svg"><g fill="none" stroke="#000" stroke-linecap="round" stroke-linejoin="round"><path d="m19.287 25.0251s.8791 4.0826 4.8015 4.0826 4.4558-4.0966 4.4558-4.0966"/><path d="m21.256 31.3339s.8487 7.8936 1.5135 10.6569"/><path d="m24.3034 43.5s1.5251-3.8351 2.2009-12.0037"/><path d="m25.6167 17.3167c-2.4584 1.8469-3.39 3.1917-2.4822 6.309s1.2682 3.19 1.2682 3.19a5.5871 5.5871 0 0 1 2.0256-5.27c2.6829-2.0913 3.9932-4.7811 2.7874-8.8269s-4.7-8.2189-4.7-8.2189.2944 5.7481-2.2811 8.4775c-1.5168 1.6074-4.9988 3.6232-3.5589 7.5009s2.7243 3.288 2.7243 3.288-2.2741-3.9082.5914-6.3893 4.2171-3.3963 4.2773-5.942c0 0 1.8065 4.035-.652 5.8817z"/></g></svg>