<svg viewBox="0 0 48 48" xmlns="http://www.w3.org/2000/svg"><g fill="none" stroke="#000" stroke-linecap="round" stroke-linejoin="round"><path d="m27.82 7.67c-.08 2.87-.63 3.55-3.66 3.54-2.88 0-4-.62-3.94-3.48 0-2.65.78-3.1 3.72-3.15 3.12-.04 3.95.67 3.88 3.09z"/><path d="m36 29.16c.05 8.66-4.83 14.54-12.18 14.42-6.53-.09-11.82-5-11.82-14.42s4.46-14 11.94-14.29 12.06 5.28 12.06 14.29z"/><path d="m29.28 29.29c0 6-1.49 9.31-5.4 9.29-3.49 0-5.11-3.4-5.13-9.28 0-6.18 2-9.19 5.23-9.29 3-.1 5.35 2.74 5.31 9.28z"/></g></svg>