<svg viewBox="0 0 48 48" xmlns="http://www.w3.org/2000/svg"><g fill="none" stroke="#000" stroke-linecap="round" stroke-linejoin="round"><path d="m18.924 19.1788 4.3315 10.45a21.1489 21.1489 0 0 1 9.042-2.1117 19.2351 19.2351 0 0 1 8.7714 2.1117v-10.45a10.3349 10.3349 0 0 0 -3.5735-1.4078l-2.22-5.5768a20.3917 20.3917 0 0 0 -8.8254 1.7326c-6.2807 2.7614-7.526 5.252-7.526 5.252z"/><path d="m32.8978 27.5311 2.7186 6.2289a2.3649 2.3649 0 0 1 -1.2215 3.1135l-12.4378 5.4285a2.3651 2.3651 0 0 1 -3.1135-1.2215l-11.7144-26.8405a2.3649 2.3649 0 0 1 1.2215-3.1135l12.4378-5.4285a2.3651 2.3651 0 0 1 3.1135 1.222l2.98 6.8279"/></g></svg>