<svg viewBox="0 0 48 48" xmlns="http://www.w3.org/2000/svg"><g fill="none" stroke="#000" stroke-linecap="round"><g stroke-linejoin="round"><path d="m6.0491 24.2148c-1.4753.0867-1.4359-3.3325 1.5479-6.7851 3.2607-3.7729 3.2584-2.716 3.2584-2.716s.7511-3.1015 6.62-3.05"/><path d="m17.4752 11.6639a.9314.9314 0 0 1 1.5921.404 6.0044 6.0044 0 0 1 3.8841 4.14"/><path d="m20.4911 21.91s-.3779-3.3354 1.2985-4.4028a11.7474 11.7474 0 0 0 2.92-2.9014 35.2333 35.2333 0 0 0 -1.4057 5.038c-.2243 1.71-1.3346 2.8047-1.7187 2.7934"/><path d="m10.7841 29.5033c-6.121-1.5436-3.7876-13.27.0713-14.79s4.3246 2.5988 4.3246 2.5988-2.08-3.3584-1.99-.3039-.1314 8.4839-6.6242 9.824"/><path d="m13.57 18.3326a2.8729 2.8729 0 0 0 1.61-1.02 2.149 2.149 0 0 1 1.8188-.656m2.22 1.5642a10.2431 10.2431 0 0 1 1.2723 3.6892"/><path d="m21.3035 13.5417s-2.1528 4.1172-8.1759 7.3165"/><path d="m11.98 23.6687s.4026-.0372.7174 1.4319 2.7738 2.5442 2.9489 2.6356a5.2752 5.2752 0 0 1 1.2648 1.1427c.2972.399 1.3655.6821 2.1941-.581s2.2475-2.8392 2.023-4.1444"/><path d="m15.1591 27.7365c-.2557.2713-2.3074 1.76-2.7295 2.6063m3.2492 1.4364a3.45 3.45 0 0 1 .7438.6354"/><path d="m23.076 23.2916c1.1157-.9557-.1444-1.8777 4.9721-1.2224s-.7267-1.0316-5.3641 4.2271m-2.5424 4.0679q-.2.4587-.3848.9526"/><path d="m16.4226 32.4146-1.74.3725-1.7341 2.52s-6.0715 1.2478-6.8655 5.3529 1.1032 3.6832 1.6162 4.7617"/><path d="m10.67 36.3644a12.6933 12.6933 0 0 0 .1127 6.6771s-1.4991-8.3433 8.0122-10.199"/><path d="m18.7946 32.8425s3.4807 3.4173 3.5254 5.85a2.6934 2.6934 0 0 1 -1.4 2.6877"/><path d="m10.2158 32.7013 26.3884-10.3139"/><path d="m19.7568 31.3168s-1.3051 1.948 1.9993 2.88 2.5415-.7357 4.1092-1.5906 2.3173-4.5687 5.5392-5.2548a1.3475 1.3475 0 0 0 .0361-1.2222m-3.5835-2.1142c-.3949-.1043-.8306-.2035-1.3111-.2962"/><path d="m24.4139 45.5s4.306-8.5824 5.9028-9.0547"/><path d="m31.4045 27.3513s-4.5061 2.7765-3.0292 6.1374 3.8775 3.6028 6.6431 1.5673"/><path d="m36.6042 22.3874s2.5483.8156-.5023 4.3122l8.1788-7.3288"/><path d="m44.2807 19.3708-11.3228.1317s4.8338.3767 3.6463 2.8849"/><path d="m12.7742 34.8461c-2.8464-2.8383-3.8053-1.98-3.8053-1.98m4.0131.6141c-.215-.8266-3.1014-2.724-3.1014-2.724-.72-.1913-2.9082 1.5664-2.9586 2.0962a4.8628 4.8628 0 0 0 -1.1974 2.3615c-2.0374 1.8685-2.9948 4.6547-2.6058 5.5.379.8236 1.6557.9524 2.6886.7949"/><path d="m11.2825 35.5672-1.394-1.081-1.767-.1885"/><path d="m7.5576 35.8457 1.6105.0941.4026.4318"/><path d="m22.32 38.6925a4.0353 4.0353 0 0 0 4.0767 2.77"/><path d="m23.8083 34.4614c-.2116.0141.8273 4.4419 4.3666 4.5906"/><path d="m30.3167 36.4453c-.6774.2365-3.8959.56-5.0082-3.1962"/><path d="m14.31 23.384a17.9026 17.9026 0 0 1 .1192 1.8446c-.0409.2131.1892.594 1.0777.6622"/><path d="m15.6019 21.961s2.2142 1.8532 2.98-1.8721"/><path d="m15.6019 21.961s-.3837-1.4416 2.98-1.8721"/><path d="m12.6186 24.1727a1.7082 1.7082 0 0 0 1.383-.8164"/><path d="m14.0016 23.3563s-.1584-.7851-1.5007-.5959"/><path d="m14.2211 11.93c-.1246-.7168-1.5082-7.7936 8.0538-6.2351.9124.0719 3.5014.6056 4.6536.1083m17.78 14.6464a9.5628 9.5628 0 0 1 -1.5229 3.9004m-15.0107 14.702a16.2821 16.2821 0 0 0 .7994 3.0628c.1765.3741.396.8146.6322 1.2764"/><path d="m19.0673 12.0679s8.7527-3.4763 3.2076-6.3735"/><path d="m16.4367 26.8168a2.2979 2.2979 0 0 0 .7781-.3087 9.519 9.519 0 0 1 .9366-.4741"/><path d="m33.5315 17.8167c-1.4827-2.1591-3.7115-3.5714-6.9153-1.6324 0 0-1.88.9706.2566-9.7982"/><path d="m38.7462 17.5709c-.6638-2.4282-1.7213-7.3309-.3694-9.1506m-10.5029-5.4248a19.5043 19.5043 0 0 0 -1.0011 3.3906"/><path d="m37.0255 33.9052a38.4317 38.4317 0 0 1 -1.679 7.2249"/></g><path d="m40.3664 32.8652s-2.477 1.0625-3.6343.2946 3.6879-2.5969 3.6879-2.5969"/><path d="m37.6154 31.8146s-2.4414.6615-2.3366.002.22-1.7179 4.7252-4.24"/><path d="m36.4835 29.8558s-1.999.7951-1.8317-.2885a5.7752 5.7752 0 0 1 1.45-2.8677"/><path d="m40.004 27.5765 1.0667-.3654"/><path d="m40.42 30.5629.8477-.4806"/><path d="m40.3664 32.8652 2.8236-1.1115s1.9683-.1514.7019-4.6015c-.743-2.6108-1.121-3.6479-1.5924-4.1"/><path d="m35.5263 27.4746s-1.2145.1091-1.3185-.78c-.017-.1458.2853-1.2683 1.8633-2.0909"/><path d="m5.7668 33.7131a20.9419 20.9419 0 1 1 38.5273-4.9631m-1.0561 3.0528a21.026 21.026 0 0 1 -7.3456 8.9046 21.5281 21.5281 0 0 1 -10.6618 3.6179" stroke-linejoin="round"/></g></svg>