<svg viewBox="0 0 48 48" xmlns="http://www.w3.org/2000/svg"><g fill="none" stroke="#000" stroke-linecap="round" stroke-linejoin="round"><path d="m8.5397 39.0756h4.7422v4.4244h-4.7422z"/><path d="m34.7183 39.0756h4.7422v4.4244h-4.7422z"/><path d="m7.2894 10.9915h1.2022v7.9346a2.4335 2.4335 0 0 1 -2.4045-2.4621v-4.2415a1.2183 1.2183 0 0 1 1.2022-1.231z"/><path d="m40.7106 10.9915h-1.2022v7.9346a2.4335 2.4335 0 0 0 2.4045-2.4621v-4.2415a1.2183 1.2183 0 0 0 -1.2022-1.231z"/><path d="m24 4.5c-5.511 0-15.46.856-15.46 3.0969v31.4787h30.921v-31.4787c-.0003-2.241-10.0223-3.0969-15.461-3.0969zm.024 4.2318q8.1848 0 12.1972 1.2246a.9611.9611 0 0 1 .6663.9257v17.0185a.975.975 0 0 1 -.975.975h-23.7772a.975.975 0 0 1 -.9749-.975v-17.0185a.9611.9611 0 0 1 .6664-.9257q4.0146-1.2246 12.1972-1.2246zm-10.4353 22.77a2.5016 2.5016 0 0 1 0 5.0011 2.4653 2.4653 0 0 1 -2.4286-2.5 2.4654 2.4654 0 0 1 2.4288-2.5011zm20.8707 0a2.5016 2.5016 0 0 1 0 5.0011 2.4653 2.4653 0 0 1 -2.4285-2.5 2.4654 2.4654 0 0 1 2.4291-2.5011z"/></g></svg>