<svg viewBox="0 0 48 48" xmlns="http://www.w3.org/2000/svg"><g fill="none" stroke="#000" stroke-linecap="round"><g stroke-linejoin="round"><path d="m24 43.47c1.69 0 15.25-7.77 15.25-16.94v-20c-4 0-15.25-2-15.25-2s-11.26 2-15.25 2v20c0 9.17 13.56 16.94 15.25 16.94z"/><path d="m24.2293 28.2039v-12.6a3.5855 3.5855 0 0 0 -3.586-3.5605"/><path d="m24.2291 23.0808a6.8027 6.8027 0 0 0 6.8017-6.8016"/><path d="m34.4316 12.8783a6.8028 6.8028 0 0 0 -6.8016 6.8017"/><path d="m32.9346 15.4469h4.4048"/><path d="m32.6463 17.8632h4.4048"/><path d="m32.2072 20.28h4.4048"/><path d="m30.5331 22.6958h4.4048"/><path d="m29.0584 23.8147 3.1147 3.1147"/><path d="m26.518 24.8333 3.1146 3.1147"/><path d="m26.3206 27.9294 3.9648 3.9648"/><path d="m31.7045 33.3133 1.3235 1.3235"/><path d="m29.8409 33.6359-1.0222 1.0222"/><path d="m32.3394 31.9345h1.4463"/><path d="m25.1455 30.1238 1.2 1.2"/><path d="m25.1455 32.3237 1.2 1.2"/><path d="m25.1455 34.5236 1.2 1.2"/><path d="m24.2292 23.0808a6.8027 6.8027 0 0 1 -6.8017-6.8016"/><path d="m14.0267 12.8783a6.8028 6.8028 0 0 1 6.8017 6.8017"/><path d="m15.5238 15.4469h-4.4048"/><path d="m15.812 17.8632h-4.4047"/><path d="m16.2511 20.28h-4.4047"/><path d="m17.9252 22.6958h-4.4052"/><path d="m19.4 23.8147-3.1147 3.1147"/><path d="m21.94 24.8333-3.1143 3.1147"/><path d="m22.1377 27.9294-3.9647 3.9648"/><path d="m16.7538 33.3133-1.3238 1.3235"/><path d="m18.6174 33.6359 1.0226 1.0222"/><path d="m16.1189 31.9345h-1.4463"/><path d="m23.3128 30.1238-1.2 1.2"/><path d="m23.3128 32.3237-1.2 1.2"/><path d="m23.3128 34.5236-1.2 1.2"/></g><path d="m24 10.36v-2.1584"/><path d="m22.3572 10.3514-1.0794-1.87"/><path d="m25.6428 10.3514 1.0794-1.87"/></g></svg>