<svg viewBox="0 0 48 48" xmlns="http://www.w3.org/2000/svg"><g fill="none" stroke="#000"><path d="m13.1 16.35c.5-13.2 20.7-14.5 22 0-5.7 2.5-16.8 2-22 0z" stroke-linecap="round" stroke-linejoin="round"/><path d="m18.5 7.45-2.1-3" stroke-linecap="round" stroke-linejoin="round"/><path d="m29.8 7.45 2.1-3" stroke-linecap="round" stroke-linejoin="round"/><circle cx="19.1" cy="12.35" r="1.1" stroke-miterlimit="10"/><circle cx="28.9" cy="12.35" r="1.1" stroke-miterlimit="10"/><g stroke-linecap="round" stroke-linejoin="round"><path d="m35.1 16.35-.2 18.9a19.49 19.49 0 0 1 -21.7 0l-.1-18.9"/><path d="m16.6 37.35v4.65a1.58 1.58 0 0 0 1.6 1.6h1.8a1.58 1.58 0 0 0 1.6-1.6v-3.4"/><path d="m27.1 38.35v3.5a1.58 1.58 0 0 0 1.6 1.6h1.8a1.58 1.58 0 0 0 1.6-1.6v-5"/><path d="m23.9 21.05-5.5 2.8 5.5 2.8 5.7-2.8z"/><path d="m29.6 23.85v6.3l-5.6 3-5.5-3v-6.3"/><path d="m23.9 26.65v6.4"/><path d="m10.2 33.45h-2.2a1.11 1.11 0 0 1 -1.1-1.1v-14a1.11 1.11 0 0 1 1.1-1.1h2.1a1.11 1.11 0 0 1 1.1 1.1v14a1 1 0 0 1 -1 1.1z"/><path d="m40 33.45h-2.1a1.11 1.11 0 0 1 -1.1-1.1v-14a1.11 1.11 0 0 1 1.1-1.1h2.1a1.11 1.11 0 0 1 1.1 1.1v14a1.11 1.11 0 0 1 -1.1 1.1z"/></g></g></svg>