<svg viewBox="0 0 48 48" xmlns="http://www.w3.org/2000/svg"><g fill="none" stroke="#000" stroke-linecap="round" stroke-linejoin="round"><path d="m28.68 19.4a3.15 3.15 0 0 0 -3.31-3.14 3.27 3.27 0 0 0 -3 3.32v2.91a3.15 3.15 0 0 0 3.15 3.14 3.15 3.15 0 0 0 3.14-3.14v-3.09"/><path d="m10.84 25.63v-9.37l4.67 9.38 4.68-9.37v9.37"/><path d="m30.88 25.63v-9.39h1.59a4.69 4.69 0 0 1 4.69 4.7 4.69 4.69 0 0 1 -4.69 4.69z"/><path d="m22.2 4.86-15.51 6.39v15.75c0 8.44 17.31 16.5 17.31 16.5s17.31-8.06 17.31-16.5v-15.75l-15.51-6.39a4.68 4.68 0 0 0 -3.6 0z"/></g></svg>