<svg viewBox="0 0 48 48" xmlns="http://www.w3.org/2000/svg"><g fill="none" stroke="#000" stroke-linecap="round" stroke-linejoin="round"><path d="m10.01 9.99h28.89"/><path d="m24.46 5.51v18.71"/><path d="m12.92 17.26h23.07"/><path d="m31.57 24.22h11.43"/><path d="m21.66 24.22h5.61v6.58h-5.61z"/><path d="m33.84 24.22c0 4.31-.81 11.15 5.71 18.27"/><path d="m43 33.81-9.49 4.58"/><path d="m33.94 30.15h3.35"/><path d="m26.08 36.61c-2.59 2.39-8.08 5.29-11.54 5.88"/><path d="m5.86 24.16h5.82l2.08 2.08 2-2h1.83c0 5.06.06 9.59-2.64 13.15"/><path d="m5 41c2.64-2.91 5-6.57 5-16.81"/></g></svg>