<svg viewBox="0 0 48 48" xmlns="http://www.w3.org/2000/svg"><g fill="none" stroke="#000" stroke-linecap="round" stroke-linejoin="round"><path d="m40.5 5.5h-33a2 2 0 0 0 -2 2v33a2 2 0 0 0 2 2h33a2 2 0 0 0 2-2v-33a2 2 0 0 0 -2-2z"/><path d="m32.7871 35.9087v-8h1.3a4.0118 4.0118 0 0 1 4 4 4.0117 4.0117 0 0 1 -4 4z"/><path d="m25.2038 35.9087v-8h2.6a2.7 2.7 0 0 1 0 5.4h-2.6"/><path d="m27.9938 33.3022 2.51 2.6065"/><path d="m21.902 33.2087h-3.4"/><path d="m22.802 35.909-2.6-8-2.7 8"/><path d="m18.402 33.2087h3.5"/><path d="m15.39 33.2087a2.6888 2.6888 0 0 1 -2.6775 2.7h-.0225a2.6887 2.6887 0 0 1 -2.7-2.6775q0-.0113 0-.0225v-2.7a2.6888 2.6888 0 0 1 2.6774-2.7h.0226a2.6058 2.6058 0 0 1 2.6017 2.61c0 .03-.0006.06-.0017.09"/><path d="m29.5711 12.242v8"/><path d="m9.989 20.242v-8l4 8 4-8v8"/><path d="m32.711 20.242v-8l5.3 8v-8"/><path d="m21.1306 17.542a2.65 2.65 0 0 0 5.3.1q.0011-.05 0-.1v-2.7a2.6886 2.6886 0 0 0 -2.6774-2.7h-.0226a2.6058 2.6058 0 0 0 -2.6017 2.61q0 .0452.0017.09z"/></g></svg>