<svg viewBox="0 0 48 48" xmlns="http://www.w3.org/2000/svg"><g stroke="#000" stroke-linecap="round" stroke-linejoin="round"><g fill="none"><path d="m39.5226 23.115v-4.3995a1.0033 1.0033 0 0 0 -1.0032-1.0032h-28.9669"/><path d="m12.7045 14.2h-4.95a2.2541 2.2541 0 0 0 -2.2545 2.2539v24.0222a1.93 1.93 0 0 0 1.93 1.93h30.1623a1.93 1.93 0 0 0 1.93-1.93v-4.44"/><path d="m42.5 39.9655v-22.9855a2.7805 2.7805 0 0 0 -2.78-2.7809h-1.65"/><path d="m35.5118 33.4227a3.8433 3.8433 0 0 1 0-7.6865"/><path d="m35.5118 33.4227h4l2.9551-1.8167"/><path d="m35.5118 25.7364h4l2.9548-1.8164"/><path d="m37.1821 17.5293-2.3769-6.1328-15.4239 6.2257"/><path d="m32.2625 12.1623-4.9838-6.5681-16.0759 11.9017"/></g><circle cx="35.1607" cy="29.5795" r=".634"/></g></svg>