<svg viewBox="0 0 48 48" xmlns="http://www.w3.org/2000/svg"><g fill="none" stroke="#000" stroke-linecap="round" stroke-linejoin="round"><rect height="31" rx="2" width="39" x="4.5" y="8.5"/><path d="m18.34 16.8a3.6 3.6 0 0 0 -3.59 3.6 3.6 3.6 0 0 0 3.59 3.6h1.22"/><path d="m19.56 24h1.22a3.59 3.59 0 0 1 3.59 3.6 3.59 3.59 0 0 1 -3.59 3.6"/><path d="m24 18c-1-.83-2.06-1.21-4.47-1.21h-1.19"/><path d="m15.09 30c1 .83 2.07 1.21 4.47 1.21h1.22"/><path d="m19.56 33v-18"/><path d="m36.35 20.4h7.15a0 0 0 0 1 0 0v7.2a0 0 0 0 1 0 0h-7.15a2.85 2.85 0 0 1 -2.85-2.85v-1.5a2.85 2.85 0 0 1 2.85-2.85z"/></g><circle cx="36.47" cy="24" r=".8"/></svg>