<svg viewBox="0 0 48 48" xmlns="http://www.w3.org/2000/svg"><g fill="none" stroke="#000" stroke-linecap="round" stroke-linejoin="round"><path d="m6.4969 10.73a1.997 1.997 0 0 0 -1.9969 1.9973v22.5753a1.9969 1.9969 0 0 0 1.9969 1.9974h35.0062a1.9969 1.9969 0 0 0 1.9969-1.9974v-22.6052a1.9969 1.9969 0 0 0 -1.9969-1.9969h-35.0062zm37.0031 1.9674-19.5 13.3694-19.5-13.3395"/><path d="m23.9992 26.0428s1.8714-1.4668 3.017-.9074c3.8411 1.8781 5.5216 7.5475 13.5349 3.21-5.47 9.9517-14.1793 5.7112-16.5519 2.2278-2.3712 3.4831-11.0807 7.7239-16.55-2.2278 8.0137 4.3373 9.6938-1.3321 13.5349-3.21 1.1453-.5594 3.0151.9074 3.0151.9074z"/></g></svg>