<svg viewBox="0 0 48 48" xmlns="http://www.w3.org/2000/svg"><g fill="none" stroke="#000" stroke-linecap="round" stroke-linejoin="round"><path d="m23.9987 28.2107s2.2661-1.7986 3.6533-1.1126c4.6513 2.3029 6.6861 9.2545 16.39 3.9362-6.6233 12.202-17.17 7.0029-20.043 2.7316-2.8713 4.2709-13.418 9.4708-20.041-2.7316 9.7039 5.3183 11.738-1.6333 16.39-3.9362 1.3872-.686 3.6514 1.1126 3.6514 1.1126z"/><path d="m43.53 31.1867v-19.798a2 2 0 0 0 -2-2h-35.06v.03a2 2 0 0 0 -2 2v19.8213m35.21-18.001-15.68 11.5397-15.68-11.54"/></g></svg>