<svg viewBox="0 0 48 48" xmlns="http://www.w3.org/2000/svg"><g fill="none" stroke="#000" stroke-linecap="round" stroke-linejoin="round"><path d="m31.3128 15.7808a4.7034 4.7034 0 0 0 -1.62-6.4515 5.6938 5.6938 0 0 0 -1.3945-.5569c-1.8883-.5378-16.2797-4.2724-16.2797-4.2724s10.4647 10.8544 12.0784 12.3316a4.7076 4.7076 0 0 0 7.2158-1.0508z"/><path d="m29.8686 9.4384a4.7051 4.7051 0 0 0 -1.0671 8.3379"/><path d="m28.2986 8.7724c-3.5645 1.5076-4.5186 4.5454-4.2016 8.0592"/><path d="m25.9675 17.8812c0 4.6338-8.916 7.7282-8.916 10.7159s2.9165 5.8329 8.0385 5.8329 6.6511-2.2763 6.6511-3.948-3.4429-6.952-3.4429-12.5279"/><path d="m25.4634 19.7915a3.4864 3.4864 0 0 0 2.9936.3066"/><path d="m25.268 34.429v7.648l1.46 1.423"/><path d="m28.045 34.112v6.054l1.286 1.12"/></g></svg>