<svg viewBox="0 0 48 48" xmlns="http://www.w3.org/2000/svg"><g fill="none" stroke="#000" stroke-linecap="round" stroke-linejoin="round"><path d="m12.1325 16.6483a4.1419 4.1419 0 0 0 2.9972 6.83"/><path d="m11.9811 16.6456a3.139 3.139 0 0 0 -1.2348.2083c-3.2015 1.3652-6.9677 3.6087-4.308 10.4915 0 0 .6623-3.0748 2.6559-3.5881l.0014-.0056a4.14 4.14 0 1 0 2.8855-7.1061z"/><path d="m11.5 24.9005c-.3307 3.1352-3.9852 7.7034-3.9852 7.7034s-.0407 3.5531 4.69 3.5531 4.4052-2.944 4.4052-3.411-2.7484-6.3787-2.8563-8.2144"/><path d="m12.065 42.471-1.14-.913.139-5.479"/><path d="m14.681 41.03-1.319-.995.077-3.956"/><circle cx="22.1327" cy="29.1118" r="1.2588"/><path d="m15.13 28.9172a8.5141 8.5141 0 0 0 5.9147.827"/><path d="m14.6279 27.6066c-1.2662-.383-5.3632 6.2732-6.4211 6.9448"/><circle cx="30.2597" cy="12.1176" r="4.5009"/><path d="m29.98 16.61a4.5011 4.5011 0 0 0 -2.8168-7.7466"/><circle cx="36.8296" cy="7.3011" r="2.8011"/><path d="m33.8211 9.3684.7079-.4743"/><path d="m30.4164 25.0646c-.027 1.3807 1.6243 10.8826 7.3092 10.2329a5.2071 5.2071 0 0 0 0-5.8644 5.1989 5.1989 0 0 0 4.7374.516c-.2707-1.1487-2.9778-3.7745-2.9778-3.7745a3.3511 3.3511 0 0 0 2.9778.1353c-1.2723-.65-9.7185-4.8457-10.2057-7.0114a1.53 1.53 0 0 1 -2.4906 0c-.0541.7851-2.0032 13.0212-3.2485 14.6184 1.5972.406 2.3037.5414 2.749-.1354s1.2304-5.7115 1.1492-8.7169z"/><path d="m28.332 41.957 1.928-1.191-.56-8.465h2.944"/><path d="m31.499 43.5 1.868-1.543-.164-8.839"/><path d="m23.22 28.4789c1.3223-1.032 4.3373-2.3879 6.1866-6.7587"/><path d="m32.2573 19.2985v-3.1482"/><path d="m29.7667 19.2985v-2.6502"/></g></svg>