<svg viewBox="0 0 48 48" xmlns="http://www.w3.org/2000/svg"><g fill="none" stroke="#000" stroke-linecap="round" stroke-linejoin="round"><path d="m37 3a8 8 0 1 0 7.9 8 8 8 0 0 0 -7.9-8zm4.79 10.3a5.26 5.26 0 1 1 -7.2-7.19.18.18 0 0 1 .25.06.24.24 0 0 1 0 .12 5.25 5.25 0 0 0 6.73 6.71.19.19 0 0 1 .26 0 .18.18 0 0 1 -.04.3z"/><path d="m27.87 25.87-2.97 2.13 1.1 3.43a.3.3 0 0 1 -.18.38.31.31 0 0 1 -.28 0l-2.91-2.21-2.93 2.17a.3.3 0 0 1 -.42-.07.32.32 0 0 1 0-.27l1.12-3.43-3-2.12a.3.3 0 0 1 -.06-.42.28.28 0 0 1 .23-.12h3.62l1.11-3.44a.29.29 0 0 1 .38-.19.3.3 0 0 1 .19.19l1.13 3.43h3.6a.29.29 0 0 1 .34.25.3.3 0 0 1 -.12.29zm7 6.57-1.87 1.34.73 2.22a.18.18 0 0 1 -.11.24.21.21 0 0 1 -.19 0l-1.85-1.34-1.85 1.34a.18.18 0 0 1 -.26-.05.23.23 0 0 1 0-.16l.7-2.18-1.85-1.34a.19.19 0 0 1 -.06-.26.18.18 0 0 1 .17-.09h2.29l.71-2.18a.19.19 0 0 1 .24-.12.18.18 0 0 1 .12.12l.64 2.18h2.29a.19.19 0 0 1 .22.15.2.2 0 0 1 -.09.2z"/><path d="m8.4 6.45v35.1a2 2 0 0 0 1.95 2h2.38v-39.05h-2.38a2 2 0 0 0 -1.95 1.95z"/><path d="m32.32 4.5h-19.59v39h24.92a2 2 0 0 0 2-2v-23.07"/></g></svg>