<svg viewBox="0 0 48 48" xmlns="http://www.w3.org/2000/svg"><g fill="none" stroke="#000" stroke-linecap="round" stroke-linejoin="round"><path d="m12.4876 23.6621s-1.149-7.5838 2.4566-10.4688 7.2134.1748 7.8326 2.5261a46.1548 46.1548 0 0 1 .7765 7.3077s1.254-6.3156 3.453-8.5283 4.0032-2.888 6.5608-1.0655c2.2032 1.57 2.1375 2.3847 1.9376 10.7917"/><path d="m35.6312 26.21a6.6686 6.6686 0 0 1 -3.6049 7.4054c-4.8317 2.4885-8.9551 3.082-12.886 1.447s-5.7324-2.8874-6.5166-6.088-.2161-2.78.1454-2.6063a54.83 54.83 0 0 0 11.0926 1.1708c5.964.1083 11.8959.6557 11.7695-1.3289z"/><circle cx="24" cy="24" r="21.5"/></g></svg>