<svg viewBox="0 0 48 48" xmlns="http://www.w3.org/2000/svg"><g fill="none" stroke="#000" stroke-linecap="round" stroke-linejoin="round"><path d="m9.67 7.28a30.14 30.14 0 0 1 14.08 3.38l.25.12.25-.12a29.69 29.69 0 0 1 18.36-2.82c-6.36 2.32-12.39 5.65-16.46 12.91h-4.29c-4.07-7.26-10.11-10.59-16.47-12.91a28.69 28.69 0 0 1 4.29-.56zm4.33 4.83c-3.38.66-6.42 3.84-6.43 7.28a7.21 7.21 0 0 0 14.29 1.36h4.29a7.2 7.2 0 0 0 14.27-1.36c0-3.44-3-6.62-6.42-7.28m-19.21 4.65a2.63 2.63 0 0 1 2.63 2.63 2.63 2.63 0 0 1 -2.63 2.61 2.62 2.62 0 0 1 -2.63-2.62 2.62 2.62 0 0 1 2.62-2.63zm18.42 0a2.63 2.63 0 0 1 2.63 2.63 2.62 2.62 0 0 1 -2.62 2.61 2.62 2.62 0 0 1 -2.63-2.62 2.63 2.63 0 0 1 2.63-2.63zm-9.21 6.7a10.53 10.53 0 0 1 -3.22 4.86c1 1.36 2.06 2.79 3.22 4.64 1.16-1.85 2.2-3.28 3.22-4.64a10.53 10.53 0 0 1 -3.22-4.86z"/><path d="m8.51 9.09a21.5 21.5 0 1 0 31 0"/><path d="m37.69 7.42a21.49 21.49 0 0 0 -27.2-.14"/></g></svg>