<svg viewBox="0 0 48 48" xmlns="http://www.w3.org/2000/svg"><g fill="none" stroke="#000" stroke-linecap="round" stroke-linejoin="round"><path d="m40.5 5.5h-33a2 2 0 0 0 -2 2v33a2 2 0 0 0 2 2h33a2 2 0 0 0 2-2v-33a2 2 0 0 0 -2-2z"/><path d="m12.739 31.113v-22.613l11.261 22.639 11.261-22.605v22.605"/><path d="m17.3914 39.5h3.0568"/><path d="m17.3914 33.3862h3.0568"/><path d="m17.3914 36.4431h1.9869"/><path d="m17.3914 33.3862v6.1138"/><path d="m22.5932 39.5h1.8342"/><path d="m22.5932 33.3862h1.8342"/><path d="m23.5103 33.3862v6.1138"/><path d="m26.6347 33.3862v4.05a1.9884 1.9884 0 1 0 3.9739 0v-4.05"/></g></svg>