<svg viewBox="0 0 48 48" xmlns="http://www.w3.org/2000/svg"><g fill="none" stroke="#000" stroke-linecap="round" stroke-linejoin="round"><path d="m21.07 23.55h18.34a2.46 2.46 0 0 0 2.47-2.47v-4.08a2.47 2.47 0 0 0 -2.47-2.48h-22"/><path d="m21.07 23.55-8.07 6v.58a2.47 2.47 0 0 0 2.48 2.47h23.93a2.46 2.46 0 0 0 2.47-2.47v-4.13a2.47 2.47 0 0 0 -2.47-2.48z"/><rect height="9.01" rx="2.48" width="28.88" x="13" y="32.56"/><path d="m6.2 26.32c0-4.48 0-10.81-.07-14a53.48 53.48 0 0 1 0-5.84l9.61 7 9.58 7s-16.84 12.38-19 13.93c-.09.06-.09-.42-.12-8.09z"/></g></svg>