<svg viewBox="0 0 48 48" xmlns="http://www.w3.org/2000/svg"><g fill="none" stroke="#000" stroke-linecap="round" stroke-linejoin="round"><rect height="37" rx="2" width="37" x="5.5" y="5.5"/><path d="m15.976 17.141v-7.977l3.992 7.985 3.993-7.972v7.972"/><path d="m11.5 38.8356v-7.9849h2.6141a2.6817 2.6817 0 0 1 0 5.3633h-2.6141"/><path d="m18.6707 38.8356v-7.9849h2.6141a2.6817 2.6817 0 0 1 0 5.3633h-2.6141"/><path d="m21.2848 36.214 2.6139 2.6196"/><path d="m18.671 27.992v-7.984l5.29 7.984v-7.984"/><path d="m40.5 9.164-1.996 7.985-1.996-7.985-1.997 7.985-1.996-7.985"/><path d="m11.6581 27.1176a2.2338 2.2338 0 0 0 1.9578.8749h1.1822a1.9941 1.9941 0 0 0 1.9919-1.9963 1.994 1.994 0 0 0 -1.9919-1.9962h-1.3062a1.994 1.994 0 0 1 -1.9919-1.9962 1.9941 1.9941 0 0 1 1.9919-1.9963h1.1822a2.2336 2.2336 0 0 1 1.9578.8749"/><path d="m33.1594 37.9607a2.2333 2.2333 0 0 0 1.9578.8749h1.1822a1.994 1.994 0 0 0 1.9919-1.9962 1.9941 1.9941 0 0 0 -1.9919-1.9963h-1.3062a1.994 1.994 0 0 1 -1.9919-1.9962 1.994 1.994 0 0 1 1.9919-1.9962h1.1822a2.2334 2.2334 0 0 1 1.9578.8749"/><path d="m25.8362 14.5043a2.645 2.645 0 0 0 5.29 0v-2.6949a2.645 2.645 0 1 0 -5.29 0z"/><path d="m40.5 20.008-1.996 7.984-1.996-7.984-1.997 7.984-1.996-7.984"/><path d="m25.8362 25.3475a2.645 2.645 0 1 0 5.29 0v-2.695a2.645 2.645 0 1 0 -5.29 0z"/><path d="m25.8362 36.1906a2.645 2.645 0 1 0 5.29 0v-2.6949a2.645 2.645 0 0 0 -5.29 0z"/></g></svg>