<svg viewBox="0 0 48 48" xmlns="http://www.w3.org/2000/svg"><g fill="none" stroke="#000" stroke-linecap="round" stroke-linejoin="round"><path d="m25.166 26.8112h7.1053"/><path d="m25.166 28.6513h7.1053"/><path d="m23.314 34.0258v1.1242a1.3664 1.3664 0 1 1 -2.7328 0v-1.1242"/><path d="m36.856 34.0258v1.1242a1.3664 1.3664 0 1 1 -2.7328 0v-1.1242"/><path d="m22.6974 23.3861c0-1.1478.9564-2.0587 2.9058-2.0587s2.332 1.0385 2.332 2.0587"/><path d="m40.7611 31.2019v-3.8259c0-1.3664-.3054-2.5219-1.2753-3.0607a3.1773 3.1773 0 0 1 -1.421-1.8583c-.164-.4191-1.0931-2.6053-1.6033-3.7531a3.7573 3.7573 0 0 0 -2.7145-1.8765c-.7288-.0729-2.077-.1458-5.0284-.1458s-4.3.0729-5.0283.1458a3.7573 3.7573 0 0 0 -2.7146 1.8765c-.51 1.1478-1.4393 3.334-1.6032 3.7531a3.178 3.178 0 0 1 -1.4211 1.8583c-.97.5388-1.2753 1.6943-1.2753 3.0607v3.8259"/><path d="m38.5 23.386h-9.781-9.782"/><circle cx="36.9352" cy="26.8112" r="1.3664"/><circle cx="20.502" cy="26.8112" r="1.3664"/><path d="m28.7186 34.0258h10.6579a1.6215 1.6215 0 0 0 1.6215-1.6215 1.6215 1.6215 0 0 0 -1.6215-1.6214h-21.3158a1.6214 1.6214 0 0 0 -1.6214 1.6214 1.6215 1.6215 0 0 0 1.6214 1.6215z"/><path d="m34.74 23.3861c0-1.1478-.9565-2.0587-2.9059-2.0587s-2.332 1.0385-2.332 2.0587"/><path d="m28.7186 16.6816v-9.5824a2.5992 2.5992 0 0 0 -2.5992-2.5992h-16.5182a2.5992 2.5992 0 0 0 -2.5992 2.5992v33.8016a2.5992 2.5992 0 0 0 2.5992 2.5992h16.5182a2.5992 2.5992 0 0 0 2.5992-2.5992v-6.875"/></g></svg>