<svg viewBox="0 0 48 48" xmlns="http://www.w3.org/2000/svg"><g fill="none" stroke="#000" stroke-linecap="round" stroke-linejoin="round"><path d="m20.81 12.71c-1.62-.32-12.21 1.29-12.54 1.29"/><path d="m6.64 16.51c.21.15 6.09 8.34 8.13 10.14a30.37 30.37 0 0 0 3.05 2.35l-.73 1.29 1.49 1.52a.63.63 0 0 1 0 .85l-3.47 4.16a.82.82 0 0 0 0 1.06c1.25 1.52 5.36 5.62 13.24 5.62a18.18 18.18 0 0 0 13.72-5.74.83.83 0 0 0 0-1.08l-2.67-3.32.84.06-1.52-2.42 1.14.15-1.38-1.8h1.35l-1.83-1.92 1.68.21-2-2.38 1.55-.26a22.17 22.17 0 0 0 -1.94-2.56"/><path d="m6 14c-.32.69-.48 2 .17 2.38a1.36 1.36 0 0 0 1.83-.56c.32-.57.68-2.11-.26-2.42a1.3 1.3 0 0 0 -1.74.6z"/><path d="m17.82 29s2.56.33 3.57.33c3.46 0 7.79-3.13 8-3.25s1.63.8 1.51 1c0 0-.81-.83-.93-.78s-3.23 4.7-7.55 4.7-4.6-2-4.6-2z"/><path d="m39.29 21.32c.32-.58 6.56-10-1-14.62-5.51-3.31-9-2.43-11.55-.33-1.31-.53-2.92.37-3.59 2a3.6 3.6 0 0 0 -.15 2.55l-.05.07-5.78.32s5.29 1.55 6.9 3c1.07.94 4.26 4.24 6.84 5.64a64.48 64.48 0 0 0 8.81 3.25s-.72-1.29-.43-1.88z"/><ellipse cx="25.46" cy="9.29" rx="1.41" ry="1" transform="matrix(.38010199 -.92494458 .92494458 .38010199 7.18 29.31)"/></g></svg>