<svg viewBox="0 0 48 48" xmlns="http://www.w3.org/2000/svg"><g fill="none" stroke="#000" stroke-linecap="round" stroke-miterlimit="10" stroke-width="1.21"><path d="m41.27 10.87v-1.55a4.32 4.32 0 1 0 -8.63 0v1.55a1.74 1.74 0 0 0 -1.73 1.73v6.22a1.74 1.74 0 0 0 1.73 1.73h8.63a1.74 1.74 0 0 0 1.73-1.73v-6.22a1.74 1.74 0 0 0 -1.73-1.73zm-5.27 13.13a14.08 14.08 0 0 1 .14 1.73 13.74 13.74 0 0 1 -3.68 9.27 3.42 3.42 0 0 0 -3.28-2.4h-1.73v-5.15a1.72 1.72 0 0 0 -1.72-1.72h-10.37v-3.46h3.46a1.73 1.73 0 0 0 1.73-1.72v-3.46h3.45a3.46 3.46 0 0 0 3.45-3.45v-4.39a17 17 0 0 0 -5.18-.8 17.28 17.28 0 1 0 17.28 17.28c0-.59 0-1.16-.09-1.73zm-15.45 15.42a13.71 13.71 0 0 1 -11.73-16.78l8.27 8.27v1.73a3.47 3.47 0 0 0 3.46 3.45z"/><path d="m32.64 10.87h8.63"/></g></svg>