<svg viewBox="0 0 48 48" xmlns="http://www.w3.org/2000/svg"><path d="m40.5 5.5h-33a2 2 0 0 0 -2 2v33a2 2 0 0 0 2 2h33a2 2 0 0 0 2-2v-33a2 2 0 0 0 -2-2z" fill="none" stroke="#000" stroke-linecap="round" stroke-linejoin="round"/><circle cx="33" cy="20.4" r=".75"/><g fill="none" stroke="#000" stroke-linecap="round" stroke-linejoin="round"><path d="m19.5 25.35v7.2"/><path d="m19.5 25.35a4.5133 4.5133 0 0 1 4.5-4.5 4.5133 4.5133 0 0 1 4.5 4.5"/><path d="m28.5 25.35v2.925a4.5132 4.5132 0 0 0 4.5 4.5h.0011a4.5124 4.5124 0 0 0 4.4989-4.5v-5.175"/><path d="m19.5 25.35a4.5133 4.5133 0 0 0 -4.5-4.5 4.5133 4.5133 0 0 0 -4.5 4.5v7.2"/><path d="m28.5 19.725a4.5133 4.5133 0 0 1 4.5-4.5h.0012a4.5124 4.5124 0 0 1 4.4989 4.5"/></g></svg>