<svg viewBox="0 0 48 48" xmlns="http://www.w3.org/2000/svg"><g fill="none" stroke="#000" stroke-linecap="round" stroke-linejoin="round"><circle cx="31.9661" cy="12.0035" r="1.4133"/><circle cx="37.9519" cy="16.1602" r="1.4133"/><circle cx="38.1166" cy="23.3423" r="1.4133"/><circle cx="38.1166" cy="31.3246" r="1.4133"/><circle cx="33.1232" cy="35.7491" r="1.4133"/><circle cx="30.054" cy="29.7947" r="1.4133"/><circle cx="31.0516" cy="18.9868" r="1.4133"/><path d="m30.2212 17.8435a7.1379 7.1379 0 0 0 -3.7212-3.1821"/><path d="m27.6465 15.1563a8.0169 8.0169 0 0 0 3.6052-1.9337"/><path d="m37.37 17.4484a11.7373 11.7373 0 0 0 .0592 4.6594"/><path d="m37.2529 30.2133s-2.8343-3.4533-3.4578-3.9521a6.2165 6.2165 0 0 0 -3.7411-1.1639c-1.9822.0257-2.673-.8732-3.5535-1.5614"/><path d="m31.9661 25.3662s2.782-2.0745 4.7372-2.0239"/><path d="m31.8518 36.3565c-3.2152 1.8273-3.0727-.5589-5.3516-.3124"/><path d="m29.6383 31.1392s-1.4378 3.6725-3.1383 4.9049"/><ellipse cx="11.1536" cy="32.4746" rx="3.0552" ry="2.0783" transform="matrix(.91751671 -.39769723 .39769723 .91751671 -11.9951 7.1144)"/><path d="m14.07 31.751v-18.875l7.43-4.612"/><path d="m14.0704 24.4114 7.4298-4.6125"/><path d="m14.0704 19.268 7.4298-4.6124"/><path d="m26.5 3.483 16.519 9.537v21.96l-16.519 9.537z"/><path d="m21.5 44.518-16.519-9.538v-21.96l16.519-9.538z"/></g></svg>