<svg viewBox="0 0 48 48" xmlns="http://www.w3.org/2000/svg"><g fill="none" stroke="#000" stroke-linecap="round" stroke-linejoin="round"><rect height="28.1336" rx="2.5008" transform="matrix(.70710678 .70710678 -.70710678 .70710678 25.3653 -6.1927)" width="16.255" x="12.0304" y="13.4555"/><path d="m14.0634 26.299 7.9574 7.9574"/><circle cx="20.8227" cy="25.6215" r="1.8756"/><path d="m22.149 26.948 4.983-4.983v3.861"/><path d="m13.5443 32.2747h2.5008v2.5008h-2.5008z" transform="matrix(.70710678 .70710678 -.70710678 .70710678 28.0391 -.6422)"/><path d="m16.512 37.01 2.261.494-.493-2.262"/><path d="m13.078 30.04-2.262-.494.493 2.262"/><path d="m37.4868 19.4571a8.6241 8.6241 0 0 0 -8.6241-8.6241"/><path d="m42.5 19.4572a13.6374 13.6374 0 0 0 -13.6373-13.6372"/></g></svg>