<svg viewBox="0 0 48 48" xmlns="http://www.w3.org/2000/svg"><g fill="none" stroke="#000" stroke-linecap="round" stroke-linejoin="round"><path d="m24 18.3578c0 5.18-9.847 6.7159-9.847 14.4414a8.3839 8.3839 0 0 0 2.0442 5.2243"/><path d="m24 38.023h-17.88v4.477h17.88"/><path d="m10.0935 42.5c0-2.4727-.8895-4.4773-1.9866-4.4773s-1.9869 2.0046-1.9869 4.4773"/><path d="m14.0668 42.5c0-2.4727-.8895-4.4773-1.9867-4.4773s-1.9866 2.0046-1.9866 4.4773"/><path d="m18.04 42.5c0-2.4727-.8895-4.4773-1.9867-4.4773s-1.9865 2.0046-1.9865 4.4773"/><path d="m22.0134 42.5c0-2.4727-.89-4.4773-1.9867-4.4773s-1.9867 2.0046-1.9867 4.4773"/><path d="m25.9866 42.5c0-2.4727-.8894-4.4773-1.9866-4.4773s-1.9866 2.0046-1.9866 4.4773"/><path d="m11.3584 21.1525 1.0241-3.6872h-1.0241v-.8389c0-1.0828-.8779-4.0481-1.9607-4.0481s-1.9606 2.9653-1.9606 4.0481v.8389h-1.0243l1.0243 3.6872v4.148h-1.0243l1.0243 3.6872v9.035h3.9213v-9.035l1.0241-3.6872h-1.0241z"/><path d="m24 18.3578c0 5.18 9.847 6.7159 9.847 14.4414a8.3839 8.3839 0 0 1 -2.0442 5.2243"/><path d="m24 38.023h17.88v4.477h-17.88"/><path d="m37.9065 42.5c0-2.4727.8895-4.4773 1.9866-4.4773s1.9869 2.0046 1.9869 4.4773"/><path d="m33.9332 42.5c0-2.4727.8895-4.4773 1.9867-4.4773s1.9866 2.0046 1.9866 4.4773"/><path d="m29.96 42.5c0-2.4727.8895-4.4773 1.9867-4.4773s1.9866 2.0046 1.9866 4.4773"/><path d="m25.9866 42.5c0-2.4727.89-4.4773 1.9867-4.4773s1.9867 2.0046 1.9867 4.4773"/><path d="m36.6416 21.1525-1.0241-3.6872h1.0241v-.8389c0-1.0828.8779-4.0481 1.9607-4.0481s1.9606 2.9653 1.9606 4.0481v.8389h1.0243l-1.0243 3.6872v4.148h1.0243l-1.0243 3.6872v9.035h-3.9213v-9.035l-1.0241-3.6872h1.0241z"/><path d="m9.3977 12.5783v-1.8728"/><path d="m38.6023 12.5783v-1.8728"/><path d="m26.2053 16.007a5.5618 5.5618 0 0 1 -2.5621-10.507 6.4338 6.4338 0 1 0 6.1868 9.1368 5.53 5.53 0 0 1 -3.6247 1.3702z"/><path d="m26.692 6.725.579 1.78h1.871l-1.514 1.1.578 1.78-1.514-1.1-1.514 1.1.579-1.78-1.514-1.1h1.871z"/></g></svg>