<svg viewBox="0 0 48 48" xmlns="http://www.w3.org/2000/svg"><g fill="none" stroke="#000" stroke-linecap="round" stroke-linejoin="round"><path d="m5.5765 16.8939 8.8457.0137"/><path d="m5.5765 16.8939-.0265 11.5994 8.898.0411-.0261-11.6268"/><path d="m5.55 28.4933 8.8143 13.6206 3.2452.0274-3.1612-13.6069 14.97 11.36-.0422-34.3944-14.9539 11.4076"/><path d="m31.5533 17.0532a4.2105 4.2105 0 0 1 3.7767 2.7673 7.1314 7.1314 0 0 1 .0039 5.66 4.2934 4.2934 0 0 1 -3.7731 2.8309"/><path d="m31.7 12.2344c2.5725-.0372 4.9613 1.9469 6.2565 5.1968a14.7381 14.7381 0 0 1 .0061 10.5169c-1.2914 3.2516-3.6779 5.239-6.25 5.2053"/><path d="m31.6518 8.2587c3.8441-.0459 7.4126 2.7221 9.3464 7.25a19.2141 19.2141 0 0 1 .0039 14.6426c-1.9314 4.5242-5.4984 7.2857-9.3425 7.2327"/><path d="m10.3257 6.16 27.7025 36.34"/></g></svg>