<svg viewBox="0 0 48 48" xmlns="http://www.w3.org/2000/svg"><g fill="none" stroke="#000" stroke-linecap="round" stroke-linejoin="round"><path d="m24 2.5a21.51 21.51 0 0 0 -21.5 21.5 21.51 21.51 0 0 0 21.5 21.5 21.5 21.5 0 0 0 0-43z"/><path d="m2.7 21.07c12.88-2.53 24.72-9 33-15.09"/><path d="m8.27 38.65a75.32 75.32 0 0 0 20.4-6.65 94.07 94.07 0 0 0 16.7-10.36"/><path d="m13.75 5.1a6.73 6.73 0 1 0 13.09-2.41"/><path d="m28.67 32a5.91 5.91 0 1 0 9.26-5.14"/><path d="m23.22 28.53c.91-3.28 1.87-8.53-.22-8.53-1.23 0-4.59 3.1-6.27 8.49l1.83-9.06-3.2.34"/><path d="m23.22 28.53c1.68-5.39 5.27-8.22 6.49-8.22 2.14 0 1 4.94-.52 8.22a3.78 3.78 0 0 0 3.5-2.6"/></g></svg>