<svg viewBox="0 0 48 48" xmlns="http://www.w3.org/2000/svg"><g fill="none" stroke="#000"><path d="m28.81 11.7065c3.158-.8459 3.5023.5314 5.2322.7845a14.0252 14.0252 0 0 0 3.92.0042c1.3876-.1127 1.5088.208 2.1318 1.7545a105.1889 105.1889 0 0 1 3.32 10.28c.7876 3.2441-3.631 3.9326-8.3328 7.3677-1.4929 1.0907-4.7351 2.067-8.4374 3.0586s-6.9984 1.7667-8.8368 1.5683c-5.79-.6248-9.9611.9875-10.9017-2.2157a105.19 105.19 0 0 1 -2.2672-10.5621c-.234-1.6508-.2894-1.9891.9686-2.5849a14.0236 14.0236 0 0 0 3.3933-1.9632c1.3715-1.0839.9809-2.4487 4.1388-3.2946l7.8354-2.0987z" stroke-miterlimit="5.3333"/><g stroke-linejoin="round"><path d="m31.5861 25.9388-2.2328-8.3158-13.7308 3.6716 2.2328 8.3154 6.8653-1.8358z"/><path d="m30.6065 15.5432c1.45.58 3.573 8.3084 4.0272 11.1439s-3.279 4.1416-8.7059 5.5952-9.3135 2.1884-10.3384-.4942-3.0521-10.4373-2.0864-11.6636 5.4985-2.2424 8.3592-3.0086 7.2942-2.1522 8.744-1.5725z"/><circle cx="35.8655" cy="21.0419" r="1.0268" stroke-linecap="round" transform="matrix(.98477106 -.17385615 .17385615 .98477106 -3.1121 6.5559)"/><circle cx="38.5186" cy="17.8269" r="1.0268" stroke-linecap="round" transform="matrix(.98477106 -.17385615 .17385615 .98477106 -2.5127 6.9682)"/><path d="m9.0215 24.5966 1.2775 5.301" stroke-linecap="round"/><path d="m12.3107 26.6084-5.301 1.2774" stroke-linecap="round"/></g></g></svg>