<svg viewBox="0 0 48 48" xmlns="http://www.w3.org/2000/svg"><g fill="none" stroke="#000" stroke-linecap="round" stroke-linejoin="round"><path d="m19.338 15.9075v6.9754"/><path d="m8.5084 15.9075h3.4859"/><path d="m8.5084 19.3952h2.2657"/><path d="m8.5084 15.9075v6.9754"/><path d="m21.69 22.8822v-6.974h2.2665a2.3538 2.3538 0 0 1 0 4.7075h-2.2665"/><path d="m24.1224 20.61 2.186 2.2712"/><path d="m17.0122 22.8811-2.2674-6.9736-2.354 6.9754m.7858-2.3558h3.05"/><path d="m36.0824 32.0908h3.4176"/><path d="m36.0824 25.2573h3.4176"/><path d="m36.0824 28.6749h2.2201"/><path d="m36.0824 25.2573v6.8352"/><path d="m8.5 32.0908v-6.8335h2.2219a2.3067 2.3067 0 1 1 0 4.6134h-2.2219"/><path d="m29.0533 32.0908v-6.8335l4.5267 6.8352v-6.8352"/><path d="m15.32 25.2573v6.8352m4.5285-6.8352v6.8352m-4.5285-3.4176h4.5285"/><path d="m22.2215 29.7288a2.2639 2.2639 0 1 0 4.5269 0v-2.305a2.2972 2.2972 0 0 0 -2.3067-2.3067 2.2255 2.2255 0 0 0 -2.22 2.3067z"/><path d="m40.5 5.5h-33a2 2 0 0 0 -2 2v33a2 2 0 0 0 2 2h33a2 2 0 0 0 2-2v-33a2 2 0 0 0 -2-2z"/></g></svg>