<svg viewBox="0 0 48 48" xmlns="http://www.w3.org/2000/svg"><g fill="none" stroke="#000" stroke-linecap="round" stroke-linejoin="round"><path d="m39.4882 23.4205a10.2829 10.2829 0 0 0 -14.5422-14.5422"/><path d="m24.426 35.8177a5.127 5.127 0 0 1 1.077 1.588l13.9852-13.9852-14.5422-14.5423-14.1154 14.1155a5.0424 5.0424 0 0 1 2.0253 1.2538c1.5975 1.5976 1.9177 3.8675.715 5.07 1.2027-1.2026 3.4726-.8825 5.07.715s1.9177 3.8674.7151 5.07c1.2026-1.2025 3.4725-.8825 5.07.7152z"/><path d="m10.831 22.994-5.331 19.14 20.003-4.728"/><path d="m12.409 40.2115a7.182 7.182 0 0 0 -4.7251-4.909"/></g></svg>