<svg viewBox="0 0 48 48" xmlns="http://www.w3.org/2000/svg"><g fill="none" stroke="#000" stroke-linecap="round" stroke-linejoin="round"><path d="m36.1883 40.4531a60.8544 60.8544 0 0 1 -18.007 3.0469 3.2841 3.2841 0 0 1 -3.2938-2.7358l-5.3183-31.4368a1.02 1.02 0 0 1 .8354-1.1756l21.5-3.6374a1.02 1.02 0 0 1 1.1756.8354l5.3183 31.4363a3.284 3.284 0 0 1 -2.2102 3.667z"/><path d="m19.7247 34.5752-.8506-5.0274"/><path d="m16.7857 32.4867 5.0274-.8505"/><path d="m23.0215 38.779 2.0298-.3434"/><path d="m28.0489 37.9284 2.0298-.3434"/></g><circle cx="29.751" cy="31.0628" r=".75"/><circle cx="33.0031" cy="28.9737" r=".75"/><path d="m12.2469 25.1555 1.5122-.0834a92.1594 92.1594 0 0 0 20.5391-3.4921l1.291-.3736" fill="none" stroke="#000" stroke-linecap="round" stroke-linejoin="round"/><path d="m14.212 9.3493h16.812v11.2652h-16.812z" fill="none" stroke="#000" stroke-linecap="round" stroke-linejoin="round" transform="matrix(.98598963 -.16680661 .16680661 .98598963 -2.1822 3.9827)"/></svg>