<svg viewBox="0 0 48 48" xmlns="http://www.w3.org/2000/svg"><g fill="none" stroke="#000" stroke-linecap="round" stroke-linejoin="round"><circle cx="24" cy="24" r="21.5"/><path d="m7.71 30.8692c.8411.9252 3.1121 3.9532 3.5327 5.3831h2.6916l2.229-1.43h16.5844v1.6823s4.8224-1.0094 5.79-2.8178c-1.1776-2.0607-3.8729-3.0006-5.3832-3.2383v1.9065h-2.4816s2.0748-2.9719 2.0748-9.813-2.9159-11.5513-7.1777-15.7009c-9.4206.4486-16.4256 3.64-18.729 14.972 7.6263.8969 11.874 6.2523 11.089 10.7383a10.7659 10.7659 0 0 0 -4.0794-1.7453z"/><path d="m17.1849 8.35c3.0861 1.66 6.3385 5.8654 6.3385 5.8654"/><path d="m9.7506 14.215a20.3055 20.3055 0 0 1 6.8475 3.5607"/><circle cx="27.028" cy="28.0935" r="2.0467"/></g></svg>