<svg viewBox="0 0 48 48" xmlns="http://www.w3.org/2000/svg"><g fill="none" stroke="#000" stroke-linecap="round" stroke-linejoin="round"><rect height="37" rx="2" width="37" x="5.5" y="5.5"/><path d="m20.229 19.697v8.493l3.753.148"/><path d="m15.0502 27.9865 3.392.1336"/><path d="m15.0502 19.9056 3.392-.1364"/><path d="m15.0502 23.946 2.1862-.0009"/><path d="m15.0502 19.9056v8.0809"/><path d="m25.9143 28.4145 4.1717.1644"/><path d="m25.9143 19.4689 4.1717-.1676"/><path d="m25.9143 23.9417 2.6852-.001"/><path d="m25.9143 19.4689v8.9456"/><path d="m9.5 20.2045 4.0506-.1596"/><path d="m11.4834 27.9233v-7.797"/><path d="m32.24 22.3447a3.2322 3.2322 0 0 1 3.05-3.2526 3.1131 3.1131 0 0 1 3.21 3.166 3.0751 3.0751 0 0 1 -.9577 2.3254c-1.2989 1.1424-5.3023 4.08-5.3023 4.08l6.26.2466"/></g></svg>