<svg viewBox="0 0 48 48" xmlns="http://www.w3.org/2000/svg"><path d="m24 2.5a21.43 21.43 0 0 0 -20.34 28.39c6.28.63 13.63-.25 13.73-11 .13-14.24 6-15.79 10.82-17a27.05 27.05 0 0 0 -4.21-.39zm4.21.42c-3.68 5.13-6.62 11.94 2.65 17.41 12.31 7.25 10.66 13.1 9.28 17.84a22.54 22.54 0 0 0 5.36-14.17 21.5 21.5 0 0 0 -17.29-21.08zm-4.21 17.93a3.15 3.15 0 0 0 -3.15 3.15 3.15 3.15 0 0 0 3.15 3.15 3.15 3.15 0 0 0 3.15-3.15 3.15 3.15 0 0 0 -3.15-3.15zm6.64 8.88a13.32 13.32 0 0 0 -6.89 2.05c-12.4 7-16.67 2.67-20.09-.89a22.09 22.09 0 0 0 20.34 14.61 21.5 21.5 0 0 0 16.14-7.33c-1.85-4.1-4.64-8.31-9.5-8.44z" fill="none" stroke="#000" stroke-linecap="round" stroke-linejoin="round"/></svg>