<svg viewBox="0 0 48 48" xmlns="http://www.w3.org/2000/svg"><g fill="none" stroke="#000" stroke-linecap="round" stroke-linejoin="round"><path d="m16.7009 25.5484h6.2328"/><path d="m19.8761 34.6322v-9.0838"/><path d="m14.985 31.5664h-3.9985"/><path d="m16.043 34.632-3.057-9.084-3.175 9.084"/><path d="m10.8689 31.5664h4.1161"/><path d="m9.5 15.6388a2.3193 2.3193 0 0 1 2.352-2.271 2.3194 2.3194 0 0 1 2.3521 2.271v3.6335"/><path d="m9.5 13.3678v5.9045"/><path d="m14.2041 15.6388a2.3193 2.3193 0 0 1 2.352-2.271 2.3193 2.3193 0 0 1 2.352 2.271v3.6335"/><path d="m23.8745 19.5495-2.4696-6.018"/><path d="m26.109 13.5315-2.94 8.1754a1.3731 1.3731 0 0 1 -1.2937.9084h-.3528"/><path d="m31.8275 34.6322h-.7056a1.4893 1.4893 0 0 1 -1.2937-.6813l-3.2928-4.3148a3.5872 3.5872 0 0 1 -1.176-2.271 1.86 1.86 0 0 1 1.9992-1.8167 1.8263 1.8263 0 0 1 1.8814 1.8167c0 1.022-.8232 1.93-2.47 2.271-1.764.3406-2.94 1.249-2.94 2.8387 0 1.249.8232 2.1574 2.47 2.1574 2.1168 0 3.41-2.0439 5.2921-4.4284"/><path d="m32.2671 25.5484h6.2329"/><path d="m35.4424 34.6322v-9.0838"/><path d="m40.5 5.5h-33a2 2 0 0 0 -2 2v33a2 2 0 0 0 2 2h33a2 2 0 0 0 2-2v-33a2 2 0 0 0 -2-2z"/></g></svg>