<svg viewBox="0 0 48 48" xmlns="http://www.w3.org/2000/svg"><g fill="none" stroke="#000" stroke-linecap="round" stroke-linejoin="round"><path d="m8.4 6.5v35a2 2 0 0 0 2 2h2.33v-39h-2.33a2 2 0 0 0 -2 2z"/><path d="m12.73 4.5v39h24.87a2 2 0 0 0 2-2v-35a2 2 0 0 0 -2-2z"/><path d="m32.1347 37.5574a2.0027 2.0027 0 0 0 0-.245 2.203 2.203 0 0 0 .5.325 2.325 2.325 0 1 0 2.1412-4.1274q-.0695-.036-.1412-.0673l-.22-.1.22-.1a2.74 2.74 0 0 0 .295-.195 2.3106 2.3106 0 0 0 -2.793-3.6816l-.002.0016a2.0027 2.0027 0 0 0 0-.245 2.32 2.32 0 0 0 -4.635 0 2.0027 2.0027 0 0 0 0 .245 2.3863 2.3863 0 0 0 -.5-.325 2.3259 2.3259 0 0 0 -2 4.2l.22.1-.22.1a2.6784 2.6784 0 0 0 -.295.19 2.3105 2.3105 0 1 0 2.795 3.68 2.0027 2.0027 0 0 0 0 .245 2.32 2.32 0 0 0 4.635 0zm-2.32-1.905a2.32 2.32 0 1 1 2.32-2.32 2.315 2.315 0 0 1 -2.31 2.32z"/></g></svg>