<svg viewBox="0 0 48 48" xmlns="http://www.w3.org/2000/svg"><g fill="none" stroke="#000" stroke-linecap="round" stroke-linejoin="round"><path d="m41.68 13.015h-16.91c-2-.1-5.93-4.23-8.19-4.23h-9.9a2.18 2.18 0 0 0 -2.18 2.1794c0 .0169 0 .0337.0006.0506v7.29h39v-3.42a1.83 1.83 0 0 0 -1.79-1.87z"/><path d="m43.5 18.295h-39v18.72a2.18 2.18 0 0 0 2.16 2.2h.01 34.65a2.18 2.18 0 0 0 2.18-2.18v-.02z"/><path d="m21.2152 23.3a3.5695 3.5695 0 0 0 -2.2752 6.0855l5.06 5.0489 5.06-5.0489a3.574 3.574 0 0 0 -5.06-5.0488 3.5823 3.5823 0 0 0 -2.7848-1.0367z"/></g></svg>