<svg viewBox="0 0 48 48" xmlns="http://www.w3.org/2000/svg"><g fill="none" stroke="#000" stroke-linecap="round" stroke-linejoin="round"><path d="m40 5.5h-33a2 2 0 0 0 -2 2v33a2 2 0 0 0 2 2h33a2 2 0 0 0 2-2v-33a2 2 0 0 0 -2-2z"/><path d="m15.94 36.32v-9.29l4.65 9.3 4.65-9.29v9.29"/><path d="m29.89 36.33-2.48-6.16"/><path d="m32.07 30.17-3 8.37a1.39 1.39 0 0 1 -1.31.93h-.39"/><path d="m5 24h37"/><path d="m23.46 10.79v7.92"/><path d="m10 10.79h3.96"/><path d="m10 14.75h2.57"/><path d="m10 10.79v7.92"/><path d="m16.08 18.71v-7.92h2.59a2.66 2.66 0 0 1 0 5.32h-2.59"/><path d="m18.67 16.11 2.59 2.6"/><path d="m25.61 10.79h5.24"/><path d="m28.23 18.71v-7.92"/><path d="m32.76 10.79h5.24l-5.24 7.92h5.24"/></g></svg>