<svg viewBox="0 0 48 48" xmlns="http://www.w3.org/2000/svg"><g fill="none" stroke="#000" stroke-linecap="round" stroke-linejoin="round"><path d="m40.5 5.5h-33a2 2 0 0 0 -2 2v33a2 2 0 0 0 2 2h33a2 2 0 0 0 2-2v-33a2 2 0 0 0 -2-2z"/><path d="m8.5315 18.496v7.008"/><path d="m13.1744 18.496v7.008"/><path d="m8.5315 21.9868h4.6429"/><path d="m25.2525 22.7008a1.752 1.752 0 0 1 1.752-1.752 1.752 1.752 0 0 1 1.752 1.752v2.8032"/><path d="m25.2525 20.9488v4.5552"/><path d="m28.7565 22.7008a1.752 1.752 0 0 1 1.752-1.752 1.752 1.752 0 0 1 1.752 1.752v2.8032"/><path d="m23.29 24.62a1.7513 1.7513 0 0 1 -1.5223.8841 1.752 1.752 0 0 1 -1.752-1.752v-1.1389a1.752 1.752 0 0 1 1.752-1.752 1.752 1.752 0 0 1 1.752 1.752v.5694h-3.5037"/><path d="m18.3472 23.752a1.752 1.752 0 0 1 -1.752 1.752 1.752 1.752 0 0 1 -1.752-1.752v-1.1388a1.752 1.752 0 0 1 1.752-1.752 1.752 1.752 0 0 1 1.752 1.752"/><path d="m18.3472 25.504v-4.6428"/><path d="m37.5315 23.752a1.752 1.752 0 0 1 -1.752 1.752 1.752 1.752 0 0 1 -1.752-1.752v-1.1388a1.752 1.752 0 0 1 1.752-1.752 1.752 1.752 0 0 1 1.752 1.752"/><path d="m37.5315 25.504v-4.6428"/><path d="m25.2525 27.722c.5267 2.53 3.2962 3.3172 7.1816 3.3224 3.2367.0043 6.4316-.3995 7.1816-3.764"/></g><circle cx="39.6157" cy="25.1355" r=".75"/></svg>