<svg viewBox="0 0 48 48" xmlns="http://www.w3.org/2000/svg"><g fill="none" stroke="#000" stroke-linecap="round" stroke-linejoin="round"><path d="m40.5 5.5h-33a2 2 0 0 0 -2 2v33a2 2 0 0 0 2 2h33a2 2 0 0 0 2-2v-33a2 2 0 0 0 -2-2z"/><path d="m19.66 16.34v11.49a3.82 3.82 0 0 1 -3.83 3.83 3.83 3.83 0 0 1 -3.83-3.83v-1.27"/><rect height="10.15" rx="3.83" width="7.66" x="28.34" y="21.51"/></g><circle cx="24.1" cy="18.07" r=".75"/><path d="m24.1 21.51v10.15" fill="none" stroke="#000" stroke-linecap="round" stroke-linejoin="round"/></svg>