<svg viewBox="0 0 48 48" xmlns="http://www.w3.org/2000/svg"><g fill="none" stroke="#000" stroke-linecap="round" stroke-linejoin="round"><path d="m25.1536 18.9031a4.9753 4.9753 0 0 0 2.6558-.4278 10.4119 10.4119 0 0 0 4.7206-2.9908c2.203-2.5983 2.4989-6.3275 1.8179-7.3628-.6513-.99-3.0649-.4961-4.5075-.0755a12.5392 12.5392 0 0 0 -5.3504 3.5148"/><path d="m19.8607 31.5245a4.0715 4.0715 0 0 1 8.1429 0z"/><circle cx="15.1107" cy="40.6173" r="2.8827"/><circle cx="32.7536" cy="40.6173" r="2.8827"/><path d="m17.9934 40.6173h11.8775"/><path d="m35.6362 40.6173h6.3459a9.5 9.5 0 0 0 -8.3421-9.4291l-.2078-.0708a9.5 9.5 0 0 0 -8.1779-9.4074l-.1007-.0924v-2.7145c0-3.72-.0019-8.1744-2.5786-10.8571-2.6688-2.7786-9.7489-4.354-11.1285-3.1214s-.0515 7.8508 2.3071 10.5854a11.3553 11.3553 0 0 0 8.2785 3.3928h.6786v2.7143l-.1007.0929a9.5 9.5 0 0 0 -8.1778 9.4076l-.0721.0708a9.5 9.5 0 0 0 -8.3422 9.4291h6.21"/></g></svg>