<svg viewBox="0 0 48 48" xmlns="http://www.w3.org/2000/svg"><g fill="none" stroke="#000" stroke-linecap="round" stroke-linejoin="round"><ellipse cx="28.3115" cy="24" rx="13.8714" ry="4.2196" transform="matrix(.3596695 -.93307977 .93307977 .3596695 -4.2652 41.7848)"/><path d="m32.7272 24.2154q.2269.6462.48 1.3023c2.7554 7.1483 6.7519 12.2636 8.9264 11.4254s1.7035-7.3125-1.0519-14.4608-6.7517-12.2636-8.9267-11.4254"/><ellipse cx="10.8558" cy="24" rx="13.8714" ry="4.2196" transform="matrix(.3596695 -.93307977 .93307977 .3596695 -15.4426 25.4973)"/><path d="m15.2716 24.2154q.227.6462.48 1.3023c2.06 5.3433 4.8129 9.5508 6.98 10.9847"/><path d="m24.0006 23.4894q-.18-.5008-.3748-1.0071c-2.7558-7.1483-6.7519-12.2636-8.9264-11.4254"/></g></svg>