<svg viewBox="0 0 48 48" xmlns="http://www.w3.org/2000/svg"><g fill="none" stroke="#000" stroke-linecap="round" stroke-linejoin="round"><path d="m14.2692 37.5h2.519"/><path d="m19.0049 37.5h2.5189"/><path d="m14.2692 34.125h2.519"/><path d="m19.0049 34.125h2.5189"/><path d="m14.2692 30.75h2.519"/><path d="m19.0049 30.75h2.5189"/><path d="m14.2692 27.375h2.519"/><path d="m19.0049 27.375h2.5189"/><path d="m14.2692 24h2.519"/><path d="m19.0049 24h2.5189"/><path d="m14.2692 20.625h2.519"/><path d="m19.0049 20.625h2.5189"/><path d="m14.2692 17.25h2.519"/><path d="m19.0049 17.25h2.5189"/><path d="m28.4762 20.625h2.5189"/><path d="m33.2118 20.625h2.519"/><path d="m28.4762 17.25h2.5189"/><path d="m33.2118 17.25h2.519"/><path d="m14.2692 13.875h2.519"/><path d="m19.0049 13.875h2.5189"/><path d="m14.2692 10.5h2.519"/><path d="m19.0049 10.5h2.5189"/><path d="m23.7405 27.375h2.519"/><path d="m28.4762 27.375h2.5189"/><path d="m23.7405 24h2.519"/><path d="m28.4762 24h2.5189"/><path d="m23.7405 13.875h2.519"/><path d="m28.4762 13.875h2.5189"/><path d="m23.7405 10.5h2.519"/><path d="m28.4762 10.5h2.5189"/><path d="m33.2118 13.875h2.519"/><path d="m33.2118 24h2.519"/><circle cx="24" cy="24" r="21.5"/></g></svg>