<svg viewBox="0 0 48 48" xmlns="http://www.w3.org/2000/svg"><g fill="none" stroke="#000" stroke-linecap="round" stroke-linejoin="round"><path d="m40.5 5.5h-33a2 2 0 0 0 -2 2v33a2 2 0 0 0 2 2h33a2 2 0 0 0 2-2v-33a2 2 0 0 0 -2-2z"/><circle cx="33.243" cy="24.8606" r="4"/><path d="m39.6952 24.1912c0 3.59-5.5318 16.6438-6.5 16.65-1.166.0074-6.5-13.06-6.5-16.65a6.5 6.5 0 1 1 13 0z"/><path d="m37.0359 5.5c-1.961 5.3172 1.5147 9.0739 1.1516 14.5284"/><path d="m15.6494 5.5s-5.5755 4.7232-4.3984 7.3127c2.1575 4.7466-5.741 7.2273-5.751 7.2032"/><path d="m22.7251 5.5s-2.7507 5.618-1.9442 8.3645c3.1613 10.7665-15.2809 13.7055-15.2809 13.7055"/><path d="m30.47 5.5c-2.3211 6.472.283 9.3426.0624 12.76"/><path d="m26.7976 25.2607c.1353.3384-4.1544 3.4417-6.7817 3.2015-4.9644-.454-13.4 6.7141-14.5159 6.1513"/><path d="m28.7183 31.945c-7.1514 3.4488-11.2358-.8123-20.9095 10.555"/></g></svg>