<svg viewBox="0 0 48 48" xmlns="http://www.w3.org/2000/svg"><g fill="none" stroke="#000" stroke-linecap="round" stroke-linejoin="round"><path d="m11.2082 11.785a19.0086 19.0086 0 0 1 33.2918 8.9301"/><path d="m40.34 36.215a19.0086 19.0086 0 0 1 -33.2918-8.93"/><path d="m11.2091 11.7837s9.2269-.0873 13.207 1.36 6.558 5.579 10.0506 6.7982 10.0333.7732 10.0333.7732"/><path d="m7.0494 27.2836s7.94-.3622 11.9335 1.0883 6.5718 5.5824 10.0506 6.7982 11.3065 1.0449 11.3065 1.0449"/><path d="m8.3825 17.1241s.3677-.2388 2.8266-.1738 8.0883-.0323 11.8488 1.36 6.339 5.5215 10.0506 6.7982 11.3915.7732 11.3915.7732"/><path d="m3.5 22.6608a75.575 75.575 0 0 1 7.7091-.2719c3.0225.1336 6.9505.02 10.4906 1.36s6.1203 5.4618 10.0503 6.7978 5.1565.7784 12.75.7736"/></g></svg>