<svg viewBox="0 0 48 48" xmlns="http://www.w3.org/2000/svg"><g fill="none" stroke="#000" stroke-linecap="round" stroke-linejoin="round"><path d="m43.5 31.15-37.8 2.7-1.2-17 37.8-2.7z"/><path d="m21 29.55a2.69 2.69 0 0 1 -2.7-2.7v-1.8a2.69 2.69 0 0 1 2.7-2.7 2.69 2.69 0 0 1 2.7 2.7v1.8a2.75 2.75 0 0 1 -2.7 2.7z"/><path d="m34.4 18.55v11"/><path d="m34.4 25.05a2.69 2.69 0 0 1 2.7-2.7 2.69 2.69 0 0 1 2.7 2.7v4.5"/><path d="m8.3 28.35a3 3 0 0 0 2.7 1.2h1.6a2.69 2.69 0 0 0 2.7-2.7 2.69 2.69 0 0 0 -2.7-2.7h-1.8a2.69 2.69 0 0 1 -2.7-2.7 2.69 2.69 0 0 1 2.7-2.7h1.6a3 3 0 0 1 2.7 1.25"/><path d="m26.8 29a3.17 3.17 0 0 0 2.3.6h.6a1.79 1.79 0 0 0 1.8-1.8 1.79 1.79 0 0 0 -1.8-1.8h-1.2a1.79 1.79 0 0 1 -1.8-1.8 1.79 1.79 0 0 1 1.8-1.8h.6a3.34 3.34 0 0 1 2.3.6"/></g></svg>