<svg viewBox="0 0 48 48" xmlns="http://www.w3.org/2000/svg"><path d="m24 2.5a21.51 21.51 0 0 0 -21.5 21.5 21.51 21.51 0 0 0 21.5 21.5 21.51 21.51 0 0 0 21.5-21.5 21.51 21.51 0 0 0 -21.5-21.5zm0 4.26a17.24 17.24 0 1 1 -17.24 17.24 17.24 17.24 0 0 1 17.24-17.24zm0 4.31a12.93 12.93 0 0 0 -12.93 12.93 12.93 12.93 0 0 0 25.86 0 12.93 12.93 0 0 0 -12.93-12.93zm0 4.36a8.57 8.57 0 1 1 -8.57 8.57 8.57 8.57 0 0 1 8.57-8.57zm0 4.31a4.26 4.26 0 0 0 -4.26 4.26 4.26 4.26 0 0 0 4.26 4.26 4.26 4.26 0 0 0 4.26-4.26 4.26 4.26 0 0 0 -4.26-4.26z" fill="none" stroke="#000" stroke-linecap="round" stroke-linejoin="round"/></svg>