<svg viewBox="0 0 48 48" xmlns="http://www.w3.org/2000/svg"><path d="m24.937 14.4455a10.3464 10.3464 0 0 1 3.3395-4.0488 16.586 16.586 0 0 1 5.0764-2.1967 12.3915 12.3915 0 0 1 3.6988-.249c2.2307.2028 3.4645.8385 4.0805 1.6625a1.8387 1.8387 0 0 1 .3671.9377 1.93 1.93 0 0 1 -.753 1.47 10.8392 10.8392 0 0 1 -3.4563 1.7082c-1.7275.5784-4.0839 1.191-6.4377 1.7326-1.9714.4544-4.5827 1.3519-4.6229 1.3682a1.3674 1.3674 0 0 0 -.7872.8171l-.0069.02a1.3853 1.3853 0 0 0 .6794 1.689 14.7482 14.7482 0 0 1 2.6781 1.84 26.0931 26.0931 0 0 1 4.0368 3.9641 25.0711 25.0711 0 0 1 4.7257 8.5469c.95 3.6483.3516 7.1153-1.7019 8.08-2.0167.9463-4.7085-.4218-6.5943-2.3838a19.1328 19.1328 0 0 1 -4.23-7.4482 33.1167 33.1167 0 0 1 -1.43-9.3459v-.0959c.0025-1.7044-1.25-2.4924-2.7466-1.677-.0368.02-.0727.04-.11.0616-1.9928 1.1517-4.054 3.6287-5.1526 4.925-.48.5664-1.1294 1.3946-1.8165 2.26a17.0482 17.0482 0 0 1 -2.82 3 4.5558 4.5558 0 0 1 -5.1218.314 3.68 3.68 0 0 1 -1.3316-2.9612 4.4959 4.4959 0 0 1 .61-2.3316 11.3019 11.3019 0 0 1 2.72-3.0118 23.8686 23.8686 0 0 1 5.8593-3.3583 20.1673 20.1673 0 0 1 8.1952-1.5188 1.8829 1.8829 0 0 0 1.8516-1.1072c.3692-.8482.8526-1.9422 1.2009-2.6627z" fill="none" stroke="#000" stroke-linecap="round" stroke-linejoin="round"/></svg>