<svg viewBox="0 0 48 48" xmlns="http://www.w3.org/2000/svg"><g fill="none" stroke="#000" stroke-linecap="round" stroke-linejoin="round"><path d="m40.5 42.5h-33a2 2 0 0 1 -2-2v-33a2 2 0 0 1 2-2h33a2 2 0 0 1 2 2v33a2 2 0 0 1 -2 2z"/><path d="m33.04 34.43h5.96"/><path d="m33.04 22.52h5.96"/><path d="m33.04 28.47h3.89"/><path d="m33.04 22.52v11.91"/><path d="m21.19 34.43v-11.91h2.69a5.21 5.21 0 0 1 5.21 5.21v1.49a5.21 5.21 0 0 1 -5.21 5.21z"/><path d="m21.19 16.33v2.26a1.67 1.67 0 0 1 -1.67 1.67 1.69 1.69 0 0 1 -1.18-.49"/><path d="m21.19 13.58v2.75a1.66 1.66 0 0 1 -1.67 1.67 1.67 1.67 0 0 1 -1.67-1.67v-2.75"/><path d="m9 15.24a1.67 1.67 0 0 1 1.67-1.67 1.67 1.67 0 0 1 1.67 1.67v2.67"/><path d="m9 13.57v4.34"/><path d="m12.34 15.24a1.67 1.67 0 0 1 1.66-1.67 1.67 1.67 0 0 1 1.67 1.67v2.67"/><path d="m9 22.52v8a3.95 3.95 0 1 0 7.89 0v-8"/></g></svg>