<svg viewBox="0 0 48 48" xmlns="http://www.w3.org/2000/svg"><g fill="none" stroke="#000" stroke-linecap="round" stroke-linejoin="round"><path d="m9.79 18.85v10.46"/><path d="m16.81 29.31v-10.46"/><path d="m9.79 18.85 7.02 10.46"/><path d="m34.51 18.83a3.65 3.65 0 0 0 -3.32 3.71v3.26a3.51 3.51 0 0 0 3.51 3.51 3.51 3.51 0 0 0 3.51-3.51"/><path d="m38.21 25.8a3.52 3.52 0 0 0 -3.51-3.52 3.52 3.52 0 0 0 -3.51 3.52"/><path d="m34.51 18.83h1.85"/><path d="m27.47 22.34a3.5 3.5 0 0 0 -3.7-3.51 3.64 3.64 0 0 0 -3.32 3.7"/><path d="m27.47 29.31h-7l5.29-3.67a3.81 3.81 0 0 0 1.6-2.12 3.64 3.64 0 0 0 .13-1"/><path d="m9.79 31.76h7.02"/><path d="m9.79 16.24h7.02"/><rect height="38" rx="2" width="38" x="5" y="5"/></g></svg>