<svg viewBox="0 0 48 48" xmlns="http://www.w3.org/2000/svg"><g fill="none" stroke="#000" stroke-linecap="round" stroke-linejoin="round"><path d="m18.8808 6.3975a19.3468 19.3468 0 1 0 23.5155 12.9872"/><path d="m14.9194 25.893c-.061-4.213 2.5648-12.0909 11.4806-15.938l-3.6032-6.4118c-5.3737 2.6258-12.5794 11.6634-7.8774 22.3498z"/><path d="m22.136 12.4087a16.7784 16.7784 0 0 0 -2.9215 8.8424c1.8394-3.7912 7.7259-9.6477 17.4192-9.0767l-.3362-7.347a17.9936 17.9936 0 0 0 -10.6127 3.8556"/><path d="m34.4651 12.1527a16.506 16.506 0 0 0 -10.5691 8.1273c3.3473-2.56 11.238-5.1453 19.64-.2781l3.0022-6.7141a17.7464 17.7464 0 0 0 -9.9239-1.5322"/><path d="m13.4377 20.0692a11.6039 11.6039 0 1 0 19.0467-2.7711"/></g></svg>