<svg viewBox="0 0 48 48" xmlns="http://www.w3.org/2000/svg"><g fill="none" stroke="#000" stroke-linecap="round" stroke-linejoin="round"><path d="m21.94 15a13 13 0 0 0 6.66-4.76l-.4 1c2.8 1.76 4.94 3.76 5.13 7.93s-4.68 9.13-6.23 10.63a12.29 12.29 0 0 1 4.4 2.83l2.2-1.85-4.5 3.79c-1.18-1.35-2.26-2.48-3.92-2.73v-18.17c2.55.61 5.73 2.65 5.89 8.06s-3.77 7.14-5.9 10.11"/><path d="m23.69 14.31v21"/><path d="m23.56 25.68-4.72 3.14-.08-14.13c0 .26-1.58.39-2.82.39a2.55 2.55 0 0 1 -2.58-2.44 2.32 2.32 0 0 1 2.43-2.4c1.31 0 1.84.85 1.82 1.66s-.53 1.7-1.3 1.74a1.14 1.14 0 0 1 -1.17-1c0-.36.26-.76.63-.71.06.53-.15.94.89.94s.82-.34.95-.93"/><path d="m17.36 15c2.24-.46 3.69-2.68 4.57-3.78v15.45"/><path d="m20 28a6.85 6.85 0 0 1 3.67 2.32"/><path d="m16 34.76c1.71 0 .9-.72.91-1.08.33 0 .86.13.67.54s-.88.51-1.58.54z"/><path d="m16 34.76c-.57-.28-.65 0-1.17-.9s1.63-3.32 3.59-3.79a7.24 7.24 0 0 1 5 1.91l-1.93 2.45c-.13-.59-.94-2.47-3.81-2.66s-3.96 2.36-1.68 2.99z"/><path d="m23.69 31.27 4.25-4.49a5.66 5.66 0 0 0 1.61-3.23c0-.94-.35-1.69-1.55-2.67a3.43 3.43 0 0 1 -1.35-2.74c0-.63.33-1.23 1.05-1.24s.88.38.83.94a.46.46 0 0 1 -.38.36"/><path d="m28.41 21.25c-.91-.16-1.63-.44-1.85 1.34.07.92.34 1.37 1 1.3s.74-.66.42-1.15"/><path d="m14.44 17.81c-.41.18-.54-.08-.39-.5s.71-.51 1.18-.46.77.71.76.95a2.12 2.12 0 0 1 -.77 1.67l-1.31 1.29 1.35 1.43 1.4-1.4-1.37-1.38"/><path d="m16.07 28.18c.42-.18.54.08.4.5s-.72.51-1.18.46a1.06 1.06 0 0 1 -.76-1 2.29 2.29 0 0 1 .76-1.66l1.31-1.29-1.35-1.39-1.4 1.39 1.38 1.39"/><path d="m15.26 22.19v1.61"/><path d="m30.17 29.08 3.77-3.48v.56l-.78.14"/><path d="m32.07 27.32a1.65 1.65 0 0 1 1.84 1c.06.34.11.67-.53.85a.72.72 0 0 1 -.73-.19c-.07-.1 0-.35 0-.35"/><path d="m24 4.67c-6.57 3.72-11.9 3.07-16.52-.13a2.8 2.8 0 0 0 -2.21 1.82c1.69 3.71 3.2 7.71 2.89 9.08-4.42 19.11.84 20.46 6.71 22.66 3.65 1.37 6.64 2.81 9.06 5.4 2.63-2.79 5.06-3.92 8.49-5.14 6.82-2.41 11.74-3.78 7.39-22.91-.27-1.21.63-4.89 2.92-9.14-.91-1.25-1.24-1.64-2.27-1.81-5.72 4.68-12.96 2.3-16.46.17z"/></g></svg>