<svg viewBox="0 0 48 48" xmlns="http://www.w3.org/2000/svg"><g fill="none" stroke="#000" stroke-linecap="round" stroke-linejoin="round"><path d="m14.197 20.326a1.6446 1.6446 0 1 1 -1.5089-2.9225"/><ellipse cx="33.269" cy="9.0438" rx="3.6565" ry="3.6424"/><path d="m12.424 17.571 18.954-11.645"/><path d="m14.075 20.382 20.532-7.9486"/><path d="m24.631 16.296v29.206"/><path d="m24.631 16.296 6.754 25.109"/><path d="m24.631 16.296-6.754 25.109"/><path d="m37.28 24.3343-2.552-.8424-2.078 1.6993.0161-2.6773-2.2651-1.4425 2.562-.8122.6778-2.5909 1.5674 2.1753 2.684-.1586-1.5932 2.1565z"/><path d="m13.236 2.5a4.0363 4.0363 0 0 0 .931 7.9684h.0012a4.0548 4.0548 0 0 0 3.8854-2.8984 3.5088 3.5088 0 0 1 -4.8175-5.07z"/></g></svg>