<svg viewBox="0 0 48 48" xmlns="http://www.w3.org/2000/svg"><g fill="none" stroke="#000" stroke-linejoin="round"><path d="m10.32 34.21a12.64 12.64 0 0 1 -5.55-10.49 12.16 12.16 0 0 1 12.17-12.14 12.69 12.69 0 0 1 4.57.81c7 2.73 7.57 9.25 7.38 9.24l-10.13-.07z"/><path d="m24.74 39v4.5h10.08v-5.45h8.41l-.1-14.79-8.58-.05v-9.18-9.53h-7.42v5.2h-5.13v2.82" stroke-linecap="round"/><path d="m24.74 43.5h-11.07v-7.75c1.94-3.23 4.7-7.28 7.12-10.86h11.42l-7.21 10.8h-11.33"/><path d="m34.59 14.45 8.54 8.81"/><path d="m35.7 31.05v2.73" stroke-linecap="round"/></g></svg>