<svg viewBox="0 0 48 48" xmlns="http://www.w3.org/2000/svg"><g fill="none" stroke="#000" stroke-linecap="round" stroke-linejoin="round"><circle cx="24" cy="24" r="21.5"/><path d="m13.49 5.4371.9887 1.1223 5.923.3859-.6574 3.0182-2.0851.3827-.5812 4.0467-2.9691 2.5658-5.2133.8313.0732 2.5223 2.6393 1.91-.5872 1.9277-5.5829-2.2358-1.3547-5.4165"/><path d="m13.376 22.7172 1.294 2.3777 3.4738.0221 1.4418 2.7572 2.8121-.0809-.5641 3.2942-2.5486 2.9864.0527 2.7039-3.1154 2.2868.086 2.9054-1.5983-.5088-1.7148-3.19.0527-6.3364-2.4136-.473-1.544-2.3172.2736-2.3354z"/><path d="m33.77 4.973-2.2258 1.557-3.39.0575-1.4473 3.267 2.6641 1.6515 1.8707-1.264 6.804 1.0815 1.87-1.4579"/><path d="m40.9737 36.6592-1.5945-2.1315-.0084-2.8658-2.7438-4.3846-.1324-2.7838-2.3-1.2232-2.2346 1.4843-4.5525-1.83-1.0623-3.8261 2.5814-3.3123 3.3152.0238 1.1318 1.8058 6.0252 1.1019 4.7829-2.1293"/></g></svg>