<svg viewBox="0 0 48 48" xmlns="http://www.w3.org/2000/svg"><g fill="none" stroke="#000" stroke-linecap="round" stroke-linejoin="round"><path d="m14.2171 23.9506v18.6579"/><path d="m5 23.9506h19.86a1.325 1.325 0 0 1 1.2572.8661l5.9693 16.77 10.0087-25.33"/><path d="m40.6149 42.6085h-33.2289a2.3859 2.3859 0 0 1 -2.386-2.386v-22.2352a1.956 1.956 0 0 1 1.956-1.956h33.658a2.3859 2.3859 0 0 1 2.386 2.386v21.8052a2.3845 2.3845 0 0 1 -2.3851 2.386z"/><path d="m16.0864 13.5361a3.5341 3.5341 0 0 1 3.72-3.3128 3.5341 3.5341 0 0 1 3.7194 3.3128"/><path d="m22.0263 10.5354 4.2344-5.1439"/><path d="m17.8464 10.5354-2.8386-3.0978"/></g></svg>