<svg viewBox="0 0 48 48" xmlns="http://www.w3.org/2000/svg"><g fill="none" stroke="#000" stroke-linecap="round" stroke-linejoin="round"><circle cx="24" cy="24" r="21.5"/><path d="m8.3762 38.77c-2.2378-11.7984 4.9444-5.26 11.3848-3.3913s11.0112 1.9117 16.1912-.0638c-.7739.8709-2.7616 3.6826-2.741 6.247.0128 1.5956-3.5729 3.1858-3.5729 3.1858"/><path d="m17.8805 13.8645-.2231 5.8327c-.1471 3.8458-9.0391 5.1377-9.6893-.0637l-.3506-2.8048"/><path d="m42.6773 15.012-.1273 6.3426c-.0615 3.0592-6.7181 3.0306-6.6932-.3506l.0319-4.3347"/><path d="m39.0576 8.6534-8.8743 10.1514-.1594-2.7729a6.75 6.75 0 0 0 -1.4661 4.6852c-6.157-3.0542-10.1489-8.1171-9.2758-17.6931"/><path d="m17.2871 3.5749c-1.99 2.3258-3.0944 5.1331-2.9126 6.8155l-2.3726-4.2313"/><path d="m2.8878 19.9351a9.3628 9.3628 0 0 0 3.1042 3.1406l-3.4726.0109"/><path d="m4.2709 18.04.01-2.607m.5153-1.1c4.6941-1.1833 11.2677-1.316 13.0846-.4684"/><path d="m42.6773 15.012c-1.51-1.0161-4.5243-.8118-6.8845-.4463"/><path d="m33.1793 27.3147.0319 1.3068"/><path d="m45.4308 22.2764-2.3708 1.9148 2.44.0638"/></g></svg>