<svg viewBox="0 0 48 48" xmlns="http://www.w3.org/2000/svg"><g fill="none" stroke="#000" stroke-linecap="round" stroke-linejoin="round"><path d="m29.2919 14.7848v-5.409h1.7581a1.8256 1.8256 0 0 1 0 3.6511h-1.7581"/><path d="m31.1174 13.0218 1.7579 1.8256"/><path d="m14.665 14.847v-5.409l3.583 5.409v-5.409"/><path d="m23.4622 13.0218a1.818 1.818 0 0 1 -1.8256 1.8255 1.8179 1.8179 0 0 1 -1.8255-1.8255v-1.8255a1.818 1.818 0 0 1 1.8255-1.8256 1.7618 1.7618 0 0 1 1.7579 1.8256"/><path d="m25.0248 14.8474h2.7045"/><path d="m25.0248 9.4383h2.7045"/><path d="m25.0248 12.1429h1.7579"/><path d="m25.0248 9.4383v5.4091"/><path d="m34.0815 9.4383h3.5835"/><path d="m35.9071 14.8474v-5.4091"/><path d="m8.4 6.5v35a2 2 0 0 0 2 2h2.33v-39h-2.33a2 2 0 0 0 -2 2z"/><path d="m12.73 4.5v39h24.87a2 2 0 0 0 2-2v-35a2 2 0 0 0 -2-2z"/></g></svg>