<svg viewBox="0 0 48 48" xmlns="http://www.w3.org/2000/svg"><g fill="none" stroke="#000" stroke-linecap="round" stroke-linejoin="round"><path d="m27.12 32.62v-5.16a3.12 3.12 0 0 0 -3.12-3.12 3.12 3.12 0 0 0 -3.12 3.12v5.16"/><path d="m20.88 27.46v-3.12"/><path d="m8.81 15.38c3.72 0 6.89.3 9.57 3.24 0 0-3.3 1.47-3.3 3.64s2.7 3.19 4 3.19v1.84a3.05 3.05 0 0 0 -2.4.94s-1.84-2.7-4.31-2.7a10.93 10.93 0 0 0 -2.26.26 3.6 3.6 0 0 0 1.7-3.27c0-2.4-3.68-6.79-7.32-5.77a6.67 6.67 0 0 1 4.32-1.37z"/><path d="m39.19 15.38c-3.72 0-6.89.3-9.57 3.24 0 0 3.3 1.47 3.3 3.64s-2.7 3.19-4 3.19v1.84a3.05 3.05 0 0 1 2.4.94s1.84-2.7 4.31-2.7a10.93 10.93 0 0 1 2.26.26 3.6 3.6 0 0 1 -1.7-3.27c0-2.4 3.68-6.79 7.32-5.77a6.67 6.67 0 0 0 -4.32-1.37z"/></g></svg>