<svg viewBox="0 0 48 48" xmlns="http://www.w3.org/2000/svg"><g fill="none" stroke="#000" stroke-linecap="round" stroke-linejoin="round"><path d="m40.5 5.5h-33a2 2 0 0 0 -2 2v33a2 2 0 0 0 2 2h33a2 2 0 0 0 2-2v-33a2 2 0 0 0 -2-2z"/><rect height="6.25" rx="2.35" width="4.7" x="23.01" y="20.35"/><path d="m27.71 22.7v3.9"/><path d="m20.09 25.91a2.31 2.31 0 0 1 -1.66.69 2.35 2.35 0 0 1 -2.35-2.35v-1.55a2.35 2.35 0 0 1 2.35-2.35 2.35 2.35 0 0 1 2.35 2.35v.71"/><path d="m20.78 23.48h-4.7"/><rect height="6.11" rx="2.35" width="4.7" x="34.15" y="20.49"/><path d="m9.15 22.84a2.35 2.35 0 0 1 2.35-2.35 2.35 2.35 0 0 1 2.35 2.35v3.76"/><path d="m9.15 22.84v3.76"/><path d="m31.21 17.21v9.39"/><path d="m29.98 20.49h1.23"/><path d="m31.21 20.49h1.22"/></g></svg>