<svg viewBox="0 0 48 48" xmlns="http://www.w3.org/2000/svg"><g fill="none" stroke="#000" stroke-linecap="round" stroke-linejoin="round"><path d="m41.01 28.7576 2.2684-3.929a1.6573 1.6573 0 0 0 0-1.6572l-8.9218-15.4524a1.6571 1.6571 0 0 0 -1.4351-.8285h-15.9294a1.657 1.657 0 0 0 -1.4351 2.4857l8.443 14.6238 4.3373-7.5124a1.657 1.657 0 0 1 1.4352-.8286h6.2975a1.6572 1.6572 0 0 1 1.4352 2.4857l-5.1702 8.9553a1.6572 1.6572 0 0 0 1.435 2.4862h5.8043a1.6572 1.6572 0 0 0 1.4357-.8286z"/><path d="m6.99 19.2424-2.268 3.929a1.6573 1.6573 0 0 0 0 1.6572l8.9214 15.4524a1.6571 1.6571 0 0 0 1.4351.8285h15.9294a1.657 1.657 0 0 0 1.4351-2.4857l-8.443-14.6238-4.3373 7.5124a1.657 1.657 0 0 1 -1.4352.8286h-6.2975a1.6572 1.6572 0 0 1 -1.4352-2.4857l5.1702-8.9553a1.6572 1.6572 0 0 0 -1.435-2.4862h-5.8045a1.6572 1.6572 0 0 0 -1.4355.8286z"/></g></svg>