<svg viewBox="0 0 48 48" xmlns="http://www.w3.org/2000/svg"><g fill="none" stroke="#000" stroke-linecap="round" stroke-linejoin="round"><circle cx="29.44" cy="18.4" r="1.36"/><path d="m24 13.44c-3 0-9.18.41-9.18 5.77 0 2.67 1.65 3.26 3.33 3.22 1.91-.05 3.78-.92 5.85-.92s3.94.87 5.85.92c1.68 0 3.33-.55 3.33-3.22 0-5.36-6.18-5.77-9.18-5.77z"/><circle cx="18.56" cy="18.4" r="1.36"/><path d="m36.58 17.08c0-6.88-2.45-12.58-3.48-12.58s-5.3 4.5-5.3 4.5-.95-.63-3.8-.63-3.8.63-3.8.63-4.27-4.5-5.3-4.5-3.48 5.7-3.48 12.58 6.29 10.68 6.29 10.68-6.94 2.8-7.28 11.89a25.84 25.84 0 0 0 27.14 0c-.34-9.09-7.28-11.89-7.28-11.89s6.29-3.76 6.29-10.68z"/><path d="m35.17 31.8 2.08-1.47-1.7-2.61-2.66 1.62"/><path d="m37.98 31.38-3.14-4.69"/><path d="m35.55 27.72s7.51-5.62 8-5.62c.73 0 2.29 1.72 2 2.37l-8.35 5.86"/><path d="m39.11 25.1 1.86 2.62"/><path d="m40.85 23.85 1.86 2.65"/><path d="m42.47 22.74 1.75 2.7"/></g></svg>