<svg viewBox="0 0 48 48" xmlns="http://www.w3.org/2000/svg"><g fill="none" stroke="#000" stroke-linecap="round" stroke-linejoin="round"><path d="m30.37 23.32a13.6 13.6 0 0 0 3-8.37 9.16 9.16 0 0 0 -3.37-6.71s-.27-3.24-1.3-3.68-4.1 2-4.1 2-5 .21-6.93 1.49c0 0-4.44-1.06-5-.29s.26 4.14.26 4.14a9.1 9.1 0 0 0 -1.45 5.17c0 3.25 4.91 7.83 4.91 7.83a21.21 21.21 0 0 0 -3.12 10.43c0 4.27 2.08 5.3 2.08 5.3"/><path d="m17.25 29.61 2.9 11.39s-1.24 2.52 2.57 2.52 3-3.16 1.92-3.59l-1.88-7.22"/><path d="m29.13 38.07c-2 .81-2.74 3.93.81 3.93s4.92-4 4.92-6.75a29.07 29.07 0 0 0 -1.24-6.75 4.25 4.25 0 0 0 1.24-1.84c.17-.9 1.11-10 1.19-10.39a4.27 4.27 0 0 0 .47-1.49 2.65 2.65 0 0 0 -3.49-2"/><path d="m25.23 40.44a19 19 0 0 1 2.25-.27"/><path d="m20 41.57a6.68 6.68 0 0 1 -2.82.43c-1.07 0-3.5-1.77-.15-3.91"/><circle cx="22.93" cy="27.96" r="2.51"/><path d="m23.89 25.62a37.14 37.14 0 0 0 5.88-.71"/><path d="m16.39 24.91a29.71 29.71 0 0 0 5.61.72"/><path d="m24.76 12.63a2.91 2.91 0 0 1 3.76-.72"/><path d="m15.37 14.36a2.91 2.91 0 0 1 3.76-.71"/><path d="m25.92 16.07c-1.45 2.25-2.92.93-3.5-.07-.09 1.34-.94 3.11-2.91 1.34"/><path d="m28.77 14a3.79 3.79 0 0 0 2.31-.57"/><path d="m29 15.27a4.66 4.66 0 0 0 2.51-.27"/><path d="m28.77 16.44a2.86 2.86 0 0 0 2.45 0"/><path d="m16.17 16.74a3.82 3.82 0 0 1 -2.37.17"/><path d="m16.33 18.06a4.6 4.6 0 0 1 -2.46.47"/><path d="m16.93 19.1a2.87 2.87 0 0 1 -2.33.76"/></g><circle cx="22.21" cy="15.16" r=".75"/><path d="m12.93 11.91c.87-1.41 2.07-2.52 4.74-3.85" fill="none" stroke="#000" stroke-linecap="round" stroke-linejoin="round"/><path d="m24.6 6.57a8.35 8.35 0 0 1 5.4 1.67" fill="none" stroke="#000" stroke-linecap="round" stroke-linejoin="round"/></svg>