<svg viewBox="0 0 48 48" xmlns="http://www.w3.org/2000/svg"><g fill="none" stroke="#000" stroke-linecap="round" stroke-linejoin="round"><path d="m40.5 5.5h-33a2 2 0 0 0 -2 2v33a2 2 0 0 0 2 2h33a2 2 0 0 0 2-2v-33a2 2 0 0 0 -2-2z"/><path d="m21.08 42.5c-.63-1.88-1.32-3.54-.86-5.74-1.72-2.24-3.31-9.26-1.89-14.82 3.16.8 6.25 1.78 8.83 4.09a16 16 0 0 1 7.23-4.68 24.51 24.51 0 0 1 -1.34-10.5c3.86-.28 7.09 1.76 9.37 4"/><ellipse cx="27.66" cy="34.93" rx="1.71" ry="1.88" transform="matrix(.82035154 -.57185955 .57185955 .82035154 -15.01 22.09)"/><ellipse cx="38.36" cy="26.38" rx="1.57" ry="1.73" transform="matrix(.67597615 -.7369235 .7369235 .67597615 -7.01 36.81)"/></g></svg>