<svg viewBox="0 0 48 48" xmlns="http://www.w3.org/2000/svg"><g fill="none" stroke="#000" stroke-linecap="round" stroke-linejoin="round"><path d="m37.5971 4.5274c1.0258 3.6294.63 5.9825-.6617 8.4452-.227.4229-5.9159-2.4274-5.63-2.78 2.7646-1.7773 3.6333-2.8026 6.2917-5.6652zm-27.1914-.0274c-1.03 3.6294-.6343 5.9825.6617 8.4452.227.4229 5.9159-2.4314 5.6262-2.78-2.7603-1.7774-3.6336-2.8031-6.2879-5.6652z"/><path d="m29.1871 20.9245a6.7991 6.7991 0 1 1 -6.9417-6.7969 6.9668 6.9668 0 0 1 6.9417 6.7969zm1.9029 16.5889c0 3.29-3.7593 5.9637-8.4178 5.9864s-8.4684-2.6115-8.5353-5.9c-.065-3.2891 3.64-5.9991 8.2964-6.0687s8.5237 2.6947 8.6567 5.9823z"/><path d="m17.1853 25.2973c-2.2787 2.0985-2.267 4.8364 0 7.62m15.8075-17.5133a45.1788 45.1788 0 0 0 -10.5556-1.2779"/></g></svg>