<svg viewBox="0 0 48 48" xmlns="http://www.w3.org/2000/svg"><g fill="none" stroke="#000" stroke-linecap="round" stroke-linejoin="round"><path d="m21.1443 30.8943a9.75 9.75 0 1 1 -6.8943-16.6443c5.3848 0 7.8492 5.2872 9.75 9.75 2.11 4.9541 4.3652 9.75 9.75 9.75a9.75 9.75 0 1 0 -6.8943-16.6443"/><path d="m7.75 24h13"/><path d="m9.75 20h9"/><path d="m9.75 28h9"/><path d="m38.1526 27.9179v.48a.6026.6026 0 0 1 -.6026.6021h-1.941a.6026.6026 0 0 1 -.6026-.6026v-.6307a.5975.5975 0 0 1 .3846-.559 4.2667 4.2667 0 0 0 2.7616-3.9513 4.4051 4.4051 0 0 0 -8.8052 0 4.2667 4.2667 0 0 0 2.7616 3.9513.5975.5975 0 0 1 .3846.559v.6307a.6026.6026 0 0 1 -.6026.6026h-1.941a.6026.6026 0 0 1 -.6026-.6026v-.48"/></g></svg>