<svg viewBox="0 0 48 48" xmlns="http://www.w3.org/2000/svg"><g fill="none" stroke="#000" stroke-linecap="round" stroke-linejoin="round"><path d="m38.3684 5.9417h-31.8158a2.0526 2.0526 0 0 0 -2.0526 2.0526v20.5263a2.0526 2.0526 0 0 0 2.0526 2.0526h6.1579v7.3778a1.0263 1.0263 0 0 0 1.7521.7257l8.1034-8.1035h15.8024a2.0526 2.0526 0 0 0 2.0527-2.0526v-20.5263a2.0526 2.0526 0 0 0 -2.0527-2.0526z"/><path d="m12.7105 33.6522h-3.0789a2.0526 2.0526 0 0 1 -2.0527-2.0522v-1.0268"/><path d="m40.4211 9.0206h1.0263a2.0526 2.0526 0 0 1 2.0526 2.0526v20.5268a2.0526 2.0526 0 0 1 -2.0526 2.0526h-6.1574v7.3774a1.0264 1.0264 0 0 1 -1.7521.7257l-8.1039-8.1035h-5.9469"/><path d="m10.1447 11.1907h24.6316"/><path d="m10.1447 17.9397h19.1579"/><path d="m10.1447 24.6887h13.6842"/></g></svg>