<svg viewBox="0 0 48 48" xmlns="http://www.w3.org/2000/svg"><g fill="none" stroke="#000" stroke-linecap="round" stroke-linejoin="round"><path d="m40.5 5.5h-33a2 2 0 0 0 -2 2v33a2 2 0 0 0 2 2h33a2 2 0 0 0 2-2v-33a2 2 0 0 0 -2-2z"/><path d="m18.7667 30.7126c-1.3334-.794-1.3131-19.47.0225-20.2995s16.67 8.3007 16.6676 9.9244-15.3563 11.1688-16.69 10.3756z"/><path d="m21.7305 11.28-3.804 3.9784"/><path d="m23.9172 12.3682-6.1242 6.4426"/><path d="m25.9617 13.4883-8.179 8.3765"/><path d="m28.1806 14.7893-10.2824 10.7969"/><path d="m30.1491 16.0153-10.9285 11.4805"/><path d="m32.12 17.328-10.5809 11.122"/><path d="m34.084 18.7894-8.0857 8.623"/><path d="m18.0662 27.8189c2.3554.1075 3.1946.9316 3.6662 1.9366"/><path d="m14.8134 7.8224.0637 30.661"/><path d="m9.2352 32.97 18.359.2231"/><path d="m37.5362 31.7216a1.1057 1.1057 0 0 1 .8417-1.3049 1.1132 1.1132 0 0 1 1.1391 1.7186c-.3755.4536-1.55 1.7815-1.55 1.7815l2.1546-.4224"/><path d="m37.2939 36.586a1.1841 1.1841 0 0 1 -.9028.8 1.227 1.227 0 0 1 -1.436-.9652l-.153-.78a1.227 1.227 0 0 1 .9652-1.436 1.1842 1.1842 0 0 1 1.1382.4"/><path d="m28.4184 36.9533a1.2235 1.2235 0 0 1 2.4012-.4708l.3766 1.921"/><path d="m28.183 35.7527.612 3.1215"/><path d="m30.82 36.4825a1.2235 1.2235 0 1 1 2.4012-.4707l.3766 1.9209"/><path d="m24.3142 37.9889 2.4444-.1124"/><path d="m24.2561 36.4499 2.4443-.1124"/><path d="m21.1877 40.1912 2.4413-.1663"/><path d="m20.8551 35.3086 2.4413-.1663"/><path d="m21.0214 37.7499 1.5868-.1081"/><path d="m20.8551 35.3086.3326 4.8826"/></g></svg>