<svg viewBox="0 0 48 48" xmlns="http://www.w3.org/2000/svg"><g fill="none" stroke="#000" stroke-linecap="round" stroke-linejoin="round"><path d="m14.51 10.51h9.49v9.49h-9.49zm9.49 9.49h9.49v9.49h-9.49z"/><path d="m24 4.5s-11.26 2-15.25 2v20a11.16 11.16 0 0 0 .8 4.1 15 15 0 0 0 2 3.61 22 22 0 0 0 2.81 3.07 34.47 34.47 0 0 0 3 2.48 34 34 0 0 0 2.89 1.86c1 .59 1.71 1 2.13 1.19l1 .49a1.44 1.44 0 0 0 1.24 0l1-.49c.42-.2 1.13-.6 2.13-1.19a34 34 0 0 0 2.89-1.86 34.47 34.47 0 0 0 3-2.48 22 22 0 0 0 2.81-3.07 15 15 0 0 0 2-3.61 11.16 11.16 0 0 0 .8-4.1v-20c-3.99.03-15.25-2-15.25-2z"/></g></svg>