<svg viewBox="0 0 48 48" xmlns="http://www.w3.org/2000/svg"><g fill="none" stroke="#000" stroke-linecap="round" stroke-linejoin="round"><path d="m40.6663 37.5791a40.4205 40.4205 0 0 0 -33.3335 0"/><path d="m28.6842 34.2531c0-4.2662-7.8369-6.1727-7.8369-10.7148 0-2.4673 1.514-2.6355 3.5888-2.6355s5.0467 1.9626 6.3925 2.86c0 0-.1121 2.0187.729 2.6916s5.4392 2.243 8.1308 5.6075l3.14-2.0748s-3.5888-.2244-5.4953-2.6075l.729-.7009-2.6914-4.5987-2.6916.5607a11.4559 11.4559 0 0 0 -10.444-6.1121c-7.0233 0-6.6266 8.8029-5.93 10.71.694 1.8995 4.15 5.0327 4.15 6.8983"/><circle cx="24" cy="24" r="21.5"/><path d="m34.9501 25.0804.8411.8411"/><path d="m33.8006 21.015c-6.8412-9.3645-13.6823-10.514-18.2243-11.58"/><path d="m25.5505 16.9481a8.7582 8.7582 0 0 0 -1.5505-2.3817"/><path d="m22.2351 16.529a4.8355 4.8355 0 0 0 -2.1168-1.149"/><path d="m19.1916 17.2554a4.62 4.62 0 0 0 -2.41.2549"/><path d="m16.7819 20.033a4.1942 4.1942 0 0 0 -1.9907.8137"/><path d="m16 23.2508a1.8207 1.8207 0 0 0 -1.2091 1.353"/></g></svg>