<svg viewBox="0 0 48 48" xmlns="http://www.w3.org/2000/svg"><g fill="none" stroke="#000" stroke-linecap="round" stroke-linejoin="round"><path d="m37.5866 14.55a12.3493 12.3493 0 0 0 5.9134-.8847l-4.09-5.3053-1.8234 1.05"/><path d="m35.566 30.67a13.5805 13.5805 0 0 0 5.5023 5.1014l-3.0949 1.6586s.4422 2.708 1.6027 3.6475c-3.5369.608-7.3755-.756-8.4406-4.7992"/><path d="m34.4949 32.1671s1.7653 1.2833.66 2.2228a1.8859 1.8859 0 0 1 -2.34-.06"/><path d="m24 42.0718c-7.3416-3.7028-13.5866-14.5348-13.5866-14.5348v-21.6088l3.7028 3.7028 3.6752-3.6752h12.4172l3.6752 3.6752 3.7028-3.7028v21.6088s-6.245 10.832-13.5866 14.5348z"/><path d="m10.4134 14.55a12.3493 12.3493 0 0 1 -5.9134-.8847l4.09-5.3053 1.8238 1.05"/><path d="m12.434 30.67a13.5805 13.5805 0 0 1 -5.5023 5.1014l3.0949 1.6586s-.4422 2.708-1.6027 3.6475c3.5369.608 7.3755-.756 8.4406-4.7992"/><path d="m13.5051 32.1671s-1.7651 1.2829-.66 2.2229a1.8859 1.8859 0 0 0 2.3395-.06"/><path d="m24 5.9558v36.116"/></g></svg>