<svg viewBox="0 0 48 48" xmlns="http://www.w3.org/2000/svg"><g fill="none" stroke="#000" stroke-linecap="round" stroke-linejoin="round"><path d="m17.2715 8.9334 19.7962 28.6189a4.3038 4.3038 0 0 1 .6954 1.683c-.0081.6233-1.5413 1.9634-1.5413 1.9634l-20.1291-.03s-.7939-.3732-.8977-.7488c-.0958-.3467.819-1.415.819-1.415l1.7376-1.7132-.2944-13.6388s-.1507-1.24-.5919-1.5982a1.6543 1.6543 0 0 0 -1.4825-.22c-.9352.3076-2.0938 2.0832-2.0938 2.0832l-.3878-1.0418-.8481.894-.18-2.4017-1.5378-.1525.0226 2.7641-.781-.4486-.8078 1.5963-.1334-1.7687-1.6911 1.5177.0447-2.4993-1.4893-4.5574 5.083-1.952-1.1241-1.2521 2.1675.6935-.492-1.1583 2.0785.8416-.0277-1.204 1.0566.9571 1.1046-1.0164-.3936-3.3785 2.3745 2.4713z"/><path d="m10.357 23.9794.033 2.3336-4.0918.0483-.2269 8.07a3.0147 3.0147 0 0 0 .2784.5915 6.1693 6.1693 0 0 0 .6387.6556l7.8795-.0276a3.4783 3.4783 0 0 0 .9577-.414 2.6213 2.6213 0 0 0 .4348-.6553l-.0169-8.2915-4.1135-.026-.0777-2.494"/><path d="m6.41 28.1413 9.614-.009"/><path d="m9.8871 28.2955 5.7946 6.8845"/><path d="m6.41 28.1413 6.3651 7.5153"/><path d="m12.972 28.2287 3.2633 3.8048"/><path d="m6.1829 31.4292 3.4976 4.2094"/><path d="m9.8871 28.2955-3.7041 3.1345"/><path d="m12.972 28.2287-6.5044 6.58"/><path d="m16.0243 28.1315-7.1328 7.4405"/><path d="m16.2432 31.4-4.0892 4.2349"/><path d="m10.39 26.3137 1.74-.0491"/><path d="m34.2459 6.8013v16.5082"/><path d="m42.5 15.0554h-14.8623"/></g></svg>