<svg viewBox="0 0 48 48" xmlns="http://www.w3.org/2000/svg"><g fill="none" stroke="#000"><g stroke-linecap="round" stroke-linejoin="round"><path d="m18.0564 7.1819v29.843"/><path d="m30.6369 12.2782v29.8431"/><path d="m42.5 35.7218-11.8631 6.3982-12.58-5.0959-12.5569 4.3109v-29.843l12.5564-4.3107 12.5805 5.0958 11.8631-6.3984z"/><path d="m8.6774 28.7753s3.1026-9.4664 3.1026-13.5313"/><path d="m14.7069 26.3656a26.0319 26.0319 0 0 1 -2.9277-11.1206"/><ellipse cx="11.7792" cy="15.2773" rx=".8279" ry=".6333" transform="matrix(.65832694 -.75273212 .75273212 .65832694 -7.4751 14.0865)"/><path d="m9.5006 35.81s2.065-11.2128 15.5793-7.6965c15.6124 4.0623 13.876-8.4943 13.2508-12.7668" stroke-dasharray="3 3"/></g><path d="m9.6144 26.3506 4.2705-1.7193"/><path d="m10.3474 23.8718 2.579-1.0383"/><path d="m10.0391 18.3847a2.2926 2.2926 0 0 1 -1.5949-2.3238 4.3836 4.3836 0 0 1 1.5958-3.2027" stroke-linecap="round" stroke-linejoin="round"/><path d="m13.28 17.4918a4.3837 4.3837 0 0 0 1.5948-3.2024 2.2924 2.2924 0 0 0 -1.5948-2.3239" stroke-linecap="round" stroke-linejoin="round"/></g></svg>