<svg viewBox="0 0 48 48" xmlns="http://www.w3.org/2000/svg"><g fill="none" stroke="#000" stroke-linecap="round" stroke-linejoin="round"><path d="m4.5 21.53c7-1 10-5.47 6.21-12.37 4.92 4 8.41 2.6 9.39-2.87 1.25 4.32 3.77 4 7.44-.38-.42 2.57-.71 5.07 3 5.25-6.53 3-1.55 3.87 4.35 4.62-4.44 1.12-7.09 3.22-3.69 7.22-5.65-4.17-7.73-4.24-3.93 3.16-4.38-4.25-8.22-6.79-8.11 7.89-2.4-10.15-4-6.7-5.56-2.43-.14-6.4-1.72-8.45-5.82-2.81-2.4 5.26 1.54 7.66 6.38 9.67 8.51 2.94 13.67 2.3 13.62-3.93 3.06 4.13 4.34 1.38 5-3.76.6 4.37 2 6.36 5.28 2.38-.4 2-2.72 4.94 2.74 4.19-1 .78.66 1 2.69 1.27-9.33 3.37-18.67 5.17-29.9 1.26-5.49-2-10.08-4.63-7.79-12.12 1.2-2.77 2.88-5.9-1.3-6.24z"/><path d="m16.88 14.68c.87-1.53 3.25-3.06 4.73-2.2s1.21 3.52.39 5.06-3 3.27-4.55 2.46-1.45-3.79-.57-5.32z"/></g></svg>