<svg viewBox="0 0 48 48" xmlns="http://www.w3.org/2000/svg"><path d="m5.37 17.53a1.59 1.59 0 0 1 1.63-1.59h23.14a1.57 1.57 0 0 1 1.57 1.57v2.49a1.57 1.57 0 0 1 -1.57 1.57h-23.14a1.57 1.57 0 0 1 -1.63-1.57zm18.63 23.38a1.59 1.59 0 0 1 -1.58 1.59h-15.42a1.59 1.59 0 0 1 -1.59-1.59v-2.49a1.59 1.59 0 0 1 1.59-1.56h15.42a1.58 1.58 0 0 1 1.58 1.56zm15.41-10.44a1.58 1.58 0 0 1 -1.58 1.58h-30.83a1.6 1.6 0 0 1 -1.59-1.58v-2.47a1.57 1.57 0 0 1 1.53-1.6h30.93a1.57 1.57 0 0 1 1.59 1.6zm3.18-20.91a1.57 1.57 0 0 1 -1.59 1.59h-34a1.59 1.59 0 0 1 -1.63-1.59v-2.49a1.57 1.57 0 0 1 1.57-1.57h34.12a1.57 1.57 0 0 1 1.57 1.57z" fill="none" stroke="#000" stroke-linecap="round" stroke-linejoin="round"/></svg>