<svg viewBox="0 0 48 48" xmlns="http://www.w3.org/2000/svg"><g fill="none" stroke="#000" stroke-linecap="round"><circle cx="24" cy="24.0001" r="9.7351" stroke-linejoin="round"/><path d="m23.0008 5.8108q.2956-.033.5923-.0565.7146-.0131 1.4288.03m-4.201 6.1363a12.0059 12.0059 0 0 1 6.3673-.0248m-1.0755-3.0343a13.8232 13.8232 0 0 0 -4.2078.02m-11.4728 2.9685a18.2611 18.2611 0 0 1 1.4123-1.45m24.3363.017a18.2507 18.2507 0 0 1 1.4208 1.4254m-22.7791-.0251a15.2878 15.2878 0 0 0 -2.9916 2.9827m1.3712 2.892a12.5208 12.5208 0 0 1 4.5242-4.4907m12.5962-.0052a12.521 12.521 0 0 1 4.4921 4.4995m1.3838-2.9056a15.2867 15.2867 0 0 0 -2.97-2.9714m-24.3529 10.0628a15.305 15.305 0 0 0 -.1594 2.46 15.2992 15.2992 0 0 0 .1649 1.7542m3.0391 1.0844a11.9873 11.9873 0 0 1 -.0227-6.3695m24.2129.0218a12.417 12.417 0 0 1 -.0084 6.3579m3.0219-1.0711a14.4735 14.4735 0 0 0 .0174-4.2065m-33.3306 3.0874q-.033-.2956-.0565-.5922.0068-.7233.0708-1.4442m36.3931.0466q.0183.291.0274.5826-.0067.7231-.0708 1.4441m-30.3573 8.14a15.2905 15.2905 0 0 0 2.9828 2.9919m2.8916-1.3712a12.5221 12.5221 0 0 1 -4.4906-4.5242m21.5964.0349a12.5208 12.5208 0 0 1 -4.5242 4.4907m2.9038 1.3838a15.2873 15.2873 0 0 0 2.9917-2.9828m-24.32 4.3681a18.2428 18.2428 0 0 1 -1.4487-1.4124m11.4808 2.9688a15.2821 15.2821 0 0 0 2.46.1594 15.3217 15.3217 0 0 0 1.7542-.1649m1.0839-3.039a11.9873 11.9873 0 0 1 -6.3695.0227m16.7578.0482a18.2424 18.2424 0 0 1 -1.4122 1.4491m-11.1559 4.59c-.4821-.0045-1.5561.0284-2.0364-.0143" stroke-linejoin="round"/><path d="m9.1067 38.87-.3089.33"/><path d="m2.9526 23.9827-.4526.0155"/><path d="m9.1285 9.1039-.3307-.3088"/><path d="m24.0153 2.95-.0153-.4525"/><path d="m38.8936 9.1255.3088-.3307"/><path d="m45.0484 24.0123.4521-.0155"/><path d="m38.8725 38.8916.3307.3088"/><path d="m23.9857 45.0454.0155.4521"/></g></svg>