<svg viewBox="0 0 48 48" xmlns="http://www.w3.org/2000/svg"><path d="m14.11 18.29 29.39 16.9687-9.8259 5.6724-9.9758-5.76.02-.0112-9.6083-5.546zm0 11.3243v.0216l9.5879 5.5359-9.6074 5.5042v.0154l-.0133-.0082.0133-.0072.0095-11.0682zm-.0472 11.0617v.0154l.0144-.0082-.0144-.0072.0372-11.0682.01-11.3178-9.61-5.5487v22.4127zm19.874-33.3516v-.0154l-.0144.0082.0144.0072-.0368 11.0678-.01 11.3178 9.61 5.5483v-22.4123zm-9.6351 5.5042-.02.0112 9.6083 5.5463v11.3239l-29.39-16.9687 9.8259-5.6724zm0 0 9.6074-5.5042v-.0154l.0133.0082-.0133.0072-.0091 11.0678-.01-.0061v-.0216z" fill="none" stroke="#000" stroke-linecap="round" stroke-linejoin="round"/></svg>