<svg viewBox="0 0 48 48" xmlns="http://www.w3.org/2000/svg"><g fill="none" stroke="#000" stroke-linecap="round" stroke-linejoin="round"><path d="m8.4 6.45v35.1a2 2 0 0 0 1.95 2h2.38v-39.05h-2.38a2 2 0 0 0 -1.95 1.95z"/><path d="m12.73 4.5v39h24.92a2 2 0 0 0 2-2v-35.05a2 2 0 0 0 -2-1.95z"/><path d="m21.79 17.54v-4.29"/><path d="m19.54 17.74v-4.49"/><path d="m23.9 17.54v-4.29"/><path d="m26.17 17.74v-4.49"/><path d="m26.17 17.74a3.32 3.32 0 0 1 -6.63 0"/><path d="m22.85 34.75v-13.64"/><path d="m32.78 34.75v-21.5c-5 1.87-4.75 11.25 0 13.6"/></g></svg>