<svg viewBox="0 0 48 48" xmlns="http://www.w3.org/2000/svg"><g fill="none" stroke="#000" stroke-linecap="round" stroke-linejoin="round"><path d="m30.5 15.7a3.76 3.76 0 0 1 2.8 2.5"/><path d="m30.8 12.4c2.8.7 4.6 2.6 5.8 5.3"/><path d="m31.5 8.8c3.4.9 6.6 2.7 8.6 8.3"/><path d="m12.3 35.3a3.76 3.76 0 0 1 2.8 2.5"/><path d="m12.6 32c2.8.7 4.6 2.6 5.8 5.3"/><path d="m13.3 28.4c3.4.9 6.6 2.7 8.6 8.3"/><circle cx="24" cy="24" r="21.5"/><path d="m22.8 18.2h5.7"/><path d="m22.8 24h3.7"/><path d="m22.8 18.2v11.6"/><path d="m11.1 24v-11.6l7.6 11.6v-11.6"/><path d="m36.9 31.7a3.82 3.82 0 0 1 -3.8 3.9 3.8 3.8 0 0 1 -3.8-3.8v-3.9a3.8 3.8 0 0 1 3.8-3.8 3.8 3.8 0 0 1 3.8 3.8"/></g></svg>