<svg viewBox="0 0 48 48" xmlns="http://www.w3.org/2000/svg"><g fill="none" stroke="#000" stroke-linecap="round" stroke-linejoin="round"><path d="m4.5 15.79v16.421h39v-16.421z"/><path d="m32.3457 28.3525a3.1841 3.1841 0 0 0 2.7112 1.2675h1.6267a2.7739 2.7739 0 0 0 2.7112-2.8171 2.7737 2.7737 0 0 0 -2.7112-2.8168h-1.7623a2.7737 2.7737 0 0 1 -2.7113-2.8169 2.7737 2.7737 0 0 1 2.7112-2.8169h1.6268a2.869 2.869 0 0 1 2.7112 1.2677" stroke-width=".9991"/><path d="m8.6053 29.6447v-11.2894l7.1847 11.2894v-11.2894"/><path d="m20.4 18.3553v11.2894"/><path d="m20.4079 24h7.1841"/><path d="m27.592 18.3553v11.2894"/></g></svg>