<svg viewBox="0 0 48 48" xmlns="http://www.w3.org/2000/svg"><g fill="none" stroke="#000" stroke-linecap="round" stroke-linejoin="round"><path d="m24 30.0812a68.0266 68.0266 0 0 1 -9.46-.558"/><path d="m16.1071 29.7124-.0185 1.8318a54.48 54.48 0 0 0 7.9114.4918 54.48 54.48 0 0 0 7.9115-.4918l.0058-1.8343"/><path d="m24 32.0362v1.8251h-6.7636"/><path d="m24 30.0812a68.0271 68.0271 0 0 0 9.46-.558"/><path d="m24 33.8613h6.7637"/><path d="m19.163 24.883a5.9268 5.9268 0 1 1 9.5.2331"/><path d="m12.811 31.215-7.2657 6.72m36.959.0263-7.2843-6.7463m-3.5527-3.291-7.6445-7.08-7.6543 7.08"/><path d="m18.946 31.856v10.644"/><path d="m29.054 31.856v10.644"/><path d="m40.5 5.5h-33a2 2 0 0 0 -2 2v33a2 2 0 0 0 2 2h33a2 2 0 0 0 2-2v-33a2 2 0 0 0 -2-2z"/></g></svg>