<svg viewBox="0 0 48 48" xmlns="http://www.w3.org/2000/svg"><g fill="none" stroke="#000"><g stroke-linecap="round" stroke-linejoin="round"><path d="m28.9633 39.8374h-20.7875a2 2 0 0 1 -2-2v-27.6257a2 2 0 0 1 2-2h2.9551m5.2882 0h11.6395m4.5423 0h3.2012a2 2 0 0 1 2 2v18.6183"/><path d="m18.8265 19.2908h6.3242v6.3242h-6.3242z"/><path d="m28.4525 19.2908h6.3243v6.3242h-6.3243z"/><path d="m9.201 19.2908h6.3242v6.3242h-6.3242z"/><path d="m18.8265 29.1287h6.3242v6.3242h-6.3242z"/><path d="m9.201 29.1287h6.3242v6.3242h-6.3242z"/><path d="m12.4309 5.5h2.402a1 1 0 0 1 1 1v5.0427a1 1 0 0 1 -1 1h-2.402a1 1 0 0 1 -1-1v-5.0427a1 1 0 0 1 1-1z"/><path d="m29.1443 5.5h2.402a1 1 0 0 1 1 1v5.0427a1 1 0 0 1 -1 1h-2.402a1 1 0 0 1 -1-1v-5.0427a1 1 0 0 1 1-1z"/><circle cx="34.7761" cy="35.4523" r="7.0477"/><path d="m37.8106 39.9772-3.122-2.2027-3.2786 1.9612 1.13-3.65-2.8785-2.5125 3.82-.053 1.5-3.5141 1.231 3.6171 3.8055.3407-3.06 2.2885z"/></g><path d="m6.4035 16.2394h31.4053" stroke-miterlimit="5.5714"/></g></svg>