<svg viewBox="0 0 48 48" xmlns="http://www.w3.org/2000/svg"><g fill="none" stroke="#000" stroke-linecap="round" stroke-linejoin="round"><path d="m40.5 5.5h-33a2 2 0 0 0 -2 2v33a2 2 0 0 0 2 2h33a2 2 0 0 0 2-2v-33a2 2 0 0 0 -2-2z"/><path d="m26.502 20.242s11.599.8435 10.91 4.432-11.511-.0781-11.511-.0781"/><path d="m29.4194 25.58a6.8931 6.8931 0 0 0 .6287 1.9273 4.1894 4.1894 0 0 0 .8839.8677 4.8531 4.8531 0 0 1 -2.818 1.0514c-1.5259-.0271-2.7271-1.0942-4.2257-1.5814a6.1354 6.1354 0 0 1 -2.5316-2.2687"/><path d="m29.523 29.425s.2382 1.7544-.3095 2.4192c-.52.6313-1.6185.4-2.3026.848-.34.223-.8361.5157-.9373.9485-.0731.3126.3029.9141.3029.9141l.6862 1.9172a25.9566 25.9566 0 0 1 3.3621 2.47 7.0579 7.0579 0 0 1 2.2562 3.4646"/><path d="m30.475 20.706s.27-5.7836-1.8167-8.2282a7.7464 7.7464 0 0 0 -6.7966-2.8648 7.7839 7.7839 0 0 0 -6.1562 3.6583c-1.05 1.9183-1.0049 4.6812-1.0463 7.1732-.0488 2.94.4371 8.1316 1.621 10.823.7846 1.7835 2.9321 1.3886 3.6961 2.6092a4.1126 4.1126 0 0 1 .28 3.8319c-.6656 1.5557-3.43 2.6028-4.3156 3.7253s-1.1068 1.0948-1.1068 1.0948"/><path d="m20.2564 37.7086a10.559 10.559 0 0 0 3.2089.7857c1.6294.0981 3.4974-1.93 3.4974-1.93"/><path d="m22.763 17.598a1.9834 1.9834 0 0 0 -.0779-2.3775 2.3722 2.3722 0 0 0 -2.8943-.5824c-.7595.5281-.6416 1.6262-.4018 2.52a1.5561 1.5561 0 0 0 .9314.89 2.0743 2.0743 0 0 0 2.4426-.4501z"/><path d="m28.68 17.368c.515-.6739.0856-2.0793-.4558-2.7321a2.0176 2.0176 0 0 0 -2.6892-.0959c-.7595.528-.6651 1.1052-.4252 1.9987a1.5571 1.5571 0 0 0 .7189 1.0679c.8234.3549 2.3069.4736 2.8513-.2387z"/></g><circle cx="21.4498" cy="16.4788" r=".75"/><circle cx="27.2325" cy="16.3842" r=".75"/></svg>