<svg viewBox="0 0 48 48" xmlns="http://www.w3.org/2000/svg"><g fill="none" stroke="#000" stroke-linecap="round" stroke-linejoin="round"><path d="m24.51 19a5 5 0 1 0 5 5 5 5 0 0 0 -5-5z"/><path d="m9 28.82v-9.6l7.39 9.6v-9.6"/><path d="m32.31 27.91a2.76 2.76 0 0 0 2.43 1.09h1.78a2.48 2.48 0 0 0 2.48-2.49 2.48 2.48 0 0 0 -2.48-2.51h-1.93a2.48 2.48 0 0 1 -2.48-2.48 2.48 2.48 0 0 1 2.48-2.48h1.78a2.76 2.76 0 0 1 2.43 1.09"/><path d="m24 2.5a21.51 21.51 0 0 0 -21.5 21.5 21.51 21.51 0 0 0 21.5 21.5 21.5 21.5 0 0 0 0-43z"/></g></svg>