<svg viewBox="0 0 48 48" xmlns="http://www.w3.org/2000/svg"><path d="m36.65 9.75c-4.08 3.68-11.36 9.77-12.78 11.54a7.49 7.49 0 0 0 -1.3 1.89c3.5 1.4 7.49-.11 8.88 3.89a4 4 0 0 1 -.57 3 5.25 5.25 0 0 1 -2.22 1.93 4.7 4.7 0 0 1 -5.66-1c-1.34-1.55-1.47-4.23-.47-7.86a4.47 4.47 0 0 1 -3.05-4.14c-5.14 4.41-11.79 4.5-14 4.4v17.2a2 2 0 0 0 2 2h33.1a2 2 0 0 0 2-2v-33.15a2 2 0 0 0 -2-1.95h-33.13a2 2 0 0 0 -1.95 2v15.9m24.56-14h5.85a1 1 0 0 1 1 1v5.84m-25.32-1v-4.87a1 1 0 0 1 1-1h4.87m0 29.21h-4.92a1 1 0 0 1 -1-1v-4.82m25.32 0v4.87a1 1 0 0 1 -1 1h-4.86" fill="none" stroke="#000" stroke-linecap="round" stroke-linejoin="round"/></svg>