<svg viewBox="0 0 48 48" xmlns="http://www.w3.org/2000/svg"><g fill="none" stroke="#000" stroke-linecap="round" stroke-linejoin="round"><path d="m41.0378 12.488a1.8419 1.8419 0 0 0 -1.8419-1.8419h-30.3918a1.8419 1.8419 0 0 0 -1.8419 1.8419v23.024a1.8419 1.8419 0 0 0 1.8419 1.8419h30.3918a1.8419 1.8419 0 0 0 1.8419-1.8419z"/><path d="m38.0607 10.6461-.583-2.1756a1.8419 1.8419 0 0 0 -2.2559-1.3024l-12.98 3.4779"/><path d="m41.0378 33.26 1.0965-.2939a1.8418 1.8418 0 0 0 1.3025-2.2561l-2.399-8.9532"/><path d="m9.9394 37.354.5829 2.1755a1.8419 1.8419 0 0 0 2.2559 1.3024l12.98-3.4779"/><path d="m6.9622 14.74-1.0965.2939a1.8418 1.8418 0 0 0 -1.3025 2.2561l2.4138 9.0084"/><path d="m12.9485 16.1718h22.103"/><path d="m12.9485 21.3906h22.103"/><path d="m12.9485 26.6094h22.103"/><path d="m12.9485 31.8282h11.0515"/></g></svg>