<svg viewBox="0 0 48 48" xmlns="http://www.w3.org/2000/svg"><g fill="none" stroke="#000" stroke-linecap="round" stroke-linejoin="round"><path d="m30.3476 11.35-3.6-3.6h-20.2v35.8h29.6v-18.7"/><path d="m30.9476 10.55-13 18.2-1.5 12.6 11.5-5.3 13.3-18.4a.9781.9781 0 0 0 -.2-1.4l-8.4-6a1.2681 1.2681 0 0 0 -1.7.3z"/><path d="m16.9476 36.85a4.4006 4.4006 0 0 1 3.5 2.6"/><path d="m17.9476 28.75 10 7.3"/><path d="m29.1476 13.15 10 7.4"/><path d="m27.7476 14.95 10.1 7.4"/><path d="m11.2476 20.55v-9.5c0-1.4 2.5-1.3 2.5 0v10.7c0 2.5-4.7 2.5-4.7 0v-14.3c0-4 5.6-4 5.9 0"/></g></svg>