<svg viewBox="0 0 48 48" xmlns="http://www.w3.org/2000/svg"><g fill="none" stroke="#000" stroke-linecap="round" stroke-linejoin="round"><path d="m39.5 15.5h-9a2 2 0 0 1 -2-2v-9h-18a2 2 0 0 0 -2 2v35a2 2 0 0 0 2 2h27a2 2 0 0 0 2-2z"/><path d="m28.5 4.5 11 11"/><rect height="12.57" rx="1.09" width="17.96" x="15.02" y="27.28"/><path d="m24 31.11a1.42 1.42 0 0 1 1.42 1.43 1.39 1.39 0 0 1 -.55 1.12l.67 2.34h-3.08l.67-2.35a1.39 1.39 0 0 1 -.55-1.12 1.42 1.42 0 0 1 1.42-1.42z"/><path d="m18.06 27.28v-2.49a5.94 5.94 0 1 1 11.88 0v2.49"/></g></svg>