<svg viewBox="0 0 48 48" xmlns="http://www.w3.org/2000/svg"><path d="m5.8967 35.48 13.9533-.923m-15.2465-18.626 13.9533-.923m-14.0511-.57a2.2232 2.2232 0 0 1 2.0926-2.3637l9.4731-.6266a2.2274 2.2274 0 0 1 2.3857 2.0674l1.48 22.3789a2.2275 2.2275 0 0 1 -2.0926 2.3637l-9.4731.6266a2.22 2.22 0 0 1 -2.3854-2.0676c-.3843-7.4667-.9455-14.9221-1.4803-22.3789zm14.1717 1.6939 1.659-9.463 20.2152 2.9781-3.7132 27.7813-16.9884-2.8713m19.8963-18.9425 3.7537 1.95-5.2845 10.11m-4.6177 9.4251-2.2062 4.2321-11.4244-5.6659m2.39-24.8594 14.4011 2.0555m-14.7306.9209 13.6891 1.8921m-14.9292 6.4212 13.964 1.9728m-13.5304-4.7989 14.4011 2.0555m-13.94-4.8006 11.9162 1.6044m-13.2359 6.7739 10.4515 1.5087m-11.38 1.168 14.2859 2.1107" fill="none" stroke="#000" stroke-linecap="round" stroke-linejoin="round"/><path d="m13.7375 36.72a.75.75 0 1 1 -.7974-.6983.7512.7512 0 0 1 .7974.6983z"/></svg>