<svg viewBox="0 0 48 48" xmlns="http://www.w3.org/2000/svg"><g fill="none" stroke="#000" stroke-linecap="round" stroke-linejoin="round"><path d="m18.3234 33.4475a11.0218 11.0218 0 1 1 16.6166-8.1043"/><path d="m22.1985 38.9962 1.8015 4.5038 1.82-4.5513"/><path d="m21.4565 10.4348 2.5435-5.9348 2.5435 5.9348z"/><path d="m12.6094 16.2065-2.398-5.9951 5.9951 2.398z"/><path d="m39.2347 25.7061 4.2653-1.7061-6.3587-2.5435v3.7787"/><path d="m10.4348 26.5435-5.9348-2.5435 5.9348-2.5435z"/><path d="m35.0908 16.5062 2.6978-6.2948-6.2948 2.6978z"/><path d="m16.2065 35.3906-5.9951 2.398 2.398-5.9951z"/><path d="m6.4437 23.0415a4.2395 4.2395 0 0 1 6.1707-4.41"/><path d="m12.6505 18.5189a4.2392 4.2392 0 0 1 4.2019-2.9971"/><path d="m8.7834 31.81a4.2391 4.2391 0 0 1 -3.1-7.13"/><path d="m8.7832 31.8093h7.343"/><path d="m22.26 38.9505a4.07 4.07 0 0 1 -1.91-7.6628"/><path d="m20.37 31.2238a4.1543 4.1543 0 0 1 6.1168-5.2238"/><path d="m26.5029 26.0347a4.1543 4.1543 0 0 1 8.156 0"/><path d="m34.716 26.209a4.1543 4.1543 0 1 1 4.9375 6.6726"/><path d="m41.2005 31.0665a4.1543 4.1543 0 0 1 -2.014 7.7878"/><path d="m39.1865 38.8543-16.9347.11"/></g></svg>