<svg viewBox="0 0 48 48" xmlns="http://www.w3.org/2000/svg"><g fill="none" stroke="#000" stroke-linecap="round" stroke-linejoin="round"><rect height="11.63" rx="5.81" width="33.06" x="7.47" y="29.01"/><circle cx="13.3" cy="34.83" r="5.81"/><path d="m19.24 11.39a2.16 2.16 0 1 1 0-3.05 2.13 2.13 0 0 1 .63 1.49 2.18 2.18 0 0 1 -.63 1.56z"/><path d="m26.84 9.87a.9.9 0 0 0 -.91.9v10.43a.9.9 0 0 0 .9.91h16.17a.9.9 0 0 0 .91-.9v-10.44a.9.9 0 0 0 -.9-.9zm15.29 1.76-7.22 5.31-7.22-5.31"/><path d="m4.89 22.7 9.82-9.82"/><path d="m10.64 16.94 3.36 3.45-3.67 3.68"/><path d="m21.15 13.05-3.14 3.13-6.67-6.67"/><path d="m11.34 9.51-2.88 2.89"/></g></svg>