<svg viewBox="0 0 48 48" xmlns="http://www.w3.org/2000/svg"><g fill="none" stroke="#000" stroke-linecap="round" stroke-linejoin="round"><path d="m37.2759 32.6795v-11.208a13.27 13.27 0 0 0 -10.1959-12.9023v-.9852a3.1017 3.1017 0 0 0 -6.2033 0v.9966a13.27 13.27 0 0 0 -10.1526 12.8909v11.208l-4.2055 4.2056v1.9423h34.9628v-1.9424z"/><path d="m19.3266 38.8274a4.651 4.651 0 1 0 9.3019.0431c0-.0143 0-.0287 0-.0431"/><path d="m22.1283 28.3a2.437 2.437 0 0 1 -2.43-2.43v-1.5794a2.4371 2.4371 0 0 1 2.43-2.43 2.4371 2.4371 0 0 1 2.43 2.43v1.5794a2.4371 2.4371 0 0 1 -2.43 2.43z"/><path d="m16.0827 18.58v8.505a1.1478 1.1478 0 0 0 1.2149 1.215h.3645"/><path d="m31.9173 21.8607v7.29a2.437 2.437 0 0 1 -2.43 2.43 2.0389 2.0389 0 0 1 -1.7009-.7289"/><path d="m29.4874 21.8607a2.437 2.437 0 0 1 2.43 2.43v1.5793a2.437 2.437 0 0 1 -2.43 2.43 2.437 2.437 0 0 1 -2.43-2.43v-1.5794a2.4371 2.4371 0 0 1 2.43-2.4299z"/></g></svg>