<svg viewBox="0 0 48 48" xmlns="http://www.w3.org/2000/svg"><g fill="none" stroke="#000" stroke-linecap="round" stroke-linejoin="round"><path d="m38.94 42.18-1.27-9.61 3.16-8.65a12.67 12.67 0 0 0 -4.74-14.82 2.22 2.22 0 0 0 .18-.38 3.21 3.21 0 0 0 -6-2.19 2.62 2.62 0 0 0 -.11.4 12.7 12.7 0 0 0 -13.16 8.27l-3.16 8.72-7.18 6.54a.77.77 0 0 0 -.06 1.11.71.71 0 0 0 .32.22l3.56 1.29 16.61 6a3.22 3.22 0 0 0 6 2.37l.06-.17 1.17.43 3.54 1.29a.79.79 0 0 0 1-.44.78.78 0 0 0 .08-.38z"/><path d="m27.09 39.1 6.04 2.2"/></g></svg>