<svg viewBox="0 0 48 48" xmlns="http://www.w3.org/2000/svg"><g fill="none" stroke="#000" stroke-linecap="round" stroke-linejoin="round"><path d="m6.0533 19.9379s9.6661-9.3211 23.104-11.16c0 0-5.4706 5.8405-8.4558 7.4767s-14.6485 3.6827-14.6485 3.6827z"/><path d="m36.0229 22.35c-5.8344-6.0173-2.2829-14.1553-2.2829-14.1553s-7.3926 6.1872-7.0558 9.0521 9.3387 5.1032 9.3387 5.1032z"/><path d="m13.2646 39.8053c10.6375-16.7106 30.2354-11.5515 30.2354-11.5515s-14.931-6.8938-19.9039-5.2279-10.3313 16.7792-10.3313 16.7792z"/><path d="m15.5527 21.9712c2.3931 1.4829.5248 4.3034-3.5883 14.5553 0 0 .5111-12.2772-7.4644-13.5913 0 0 8.66-2.4465 11.0527-.9636z"/></g></svg>