<svg viewBox="0 0 48 48" xmlns="http://www.w3.org/2000/svg"><g fill="none" stroke="#000" stroke-linecap="round" stroke-linejoin="round"><path d="m30.902 23.9411-12.9686 9.4658v-18.9309z"/><path d="m36.008 6.166a1.4225 1.4225 0 0 0 -.8769 1.354v1.6538a1.3669 1.3669 0 0 0 1.2929 1.4355h2.9552a1.239 1.239 0 0 0 .996-.5313 21.4985 21.4985 0 0 0 -4.3672-3.9121zm-23.984.0117a21.5012 21.5012 0 0 0 -4.394 3.9062 1.2386 1.2386 0 0 0 .9922.5254h2.9551a1.367 1.367 0 0 0 1.2927-1.4355v-1.6538a1.428 1.428 0 0 0 -.8457-1.3418zm-3.4023 7.7344a1.3655 1.3655 0 0 0 -1.291 1.4355v1.6524a1.3654 1.3654 0 0 0 1.291 1.4355h2.9551a1.367 1.367 0 0 0 1.2932-1.4355v-1.6524a1.3669 1.3669 0 0 0 -1.293-1.4355zm27.803 0a1.367 1.367 0 0 0 -1.293 1.4355v1.6524a1.3669 1.3669 0 0 0 1.293 1.4355h2.9553a1.3654 1.3654 0 0 0 1.2908-1.4355v-1.6524a1.3654 1.3654 0 0 0 -1.291-1.4355zm-27.803 7.8262a1.3655 1.3655 0 0 0 -1.291 1.4355v1.6523a1.3654 1.3654 0 0 0 1.291 1.4355h2.9551a1.367 1.367 0 0 0 1.293-1.4355v-1.6523a1.3669 1.3669 0 0 0 -1.293-1.4355zm27.803 0a1.367 1.367 0 0 0 -1.293 1.4355v1.6523a1.3669 1.3669 0 0 0 1.293 1.4355h2.9553a1.3654 1.3654 0 0 0 1.291-1.4355v-1.6523a1.3654 1.3654 0 0 0 -1.291-1.4355zm-27.803 7.8262a1.3655 1.3655 0 0 0 -1.291 1.4355v1.6523a1.3654 1.3654 0 0 0 1.291 1.4355h2.9551a1.367 1.367 0 0 0 1.293-1.4355v-1.6523a1.3669 1.3669 0 0 0 -1.293-1.4355zm27.803 0a1.367 1.367 0 0 0 -1.293 1.4355v1.6523a1.3669 1.3669 0 0 0 1.293 1.4355h2.9553a1.3654 1.3654 0 0 0 1.291-1.4355v-1.6523a1.3654 1.3654 0 0 0 -1.291-1.4355zm-27.803 7.8262a1.2386 1.2386 0 0 0 -.9922.5254 21.5009 21.5009 0 0 0 4.3945 3.9062 1.428 1.428 0 0 0 .8457-1.3418v-1.6543a1.3669 1.3669 0 0 0 -1.293-1.4355zm27.803 0a1.367 1.367 0 0 0 -1.293 1.4355v1.6543a1.428 1.428 0 0 0 .8457 1.3418 21.4983 21.4983 0 0 0 4.3945-3.9062 1.2386 1.2386 0 0 0 -.9922-.5254z"/><circle cx="24" cy="24" r="21.5"/><path d="m18.046 27.623 4.5324-6.063 1.6692 6.77 3.2735-6.66"/></g></svg>