<svg viewBox="0 0 48 48" xmlns="http://www.w3.org/2000/svg"><g fill="none" stroke="#000" stroke-linecap="round" stroke-linejoin="round"><path d="m43.8 18.69-7.8-5.89-4.23 1.13v-4.39l-7.77-6.04-7.72 6v4.39l-4.28-1.09-7.8 5.89 2.26 5.31-2.26 5.31 7.8 5.89 4.24-1.13v4.39l7.72 6 7.73-6v-4.39l4.31 1.13 7.84-5.89-2.29-5.31zm-15.64 5.31a4.9 4.9 0 0 1 0 .54l1.17.92a.27.27 0 0 1 .06.35l-1.11 1.92a.26.26 0 0 1 -.33.12l-1.38-.55a4.4 4.4 0 0 1 -.94.54l-.21 1.47a.27.27 0 0 1 -.27.23h-2.26a.27.27 0 0 1 -.27-.23l-.21-1.47a4.59 4.59 0 0 1 -.94-.54l-1.38.55a.28.28 0 0 1 -.34-.12l-1.11-1.92a.29.29 0 0 1 .07-.35l1.17-.92a3.67 3.67 0 0 1 0-1.08l-1.17-.92a.29.29 0 0 1 -.07-.35l1.11-1.92a.27.27 0 0 1 .34-.12l1.38.56a3.86 3.86 0 0 1 .94-.55l.21-1.47a.27.27 0 0 1 .27-.23h2.22a.27.27 0 0 1 .27.23l.21 1.47a4.21 4.21 0 0 1 .94.55l1.38-.56a.28.28 0 0 1 .34.12l1.11 1.92a.28.28 0 0 1 -.07.35l-1.17.92a4.9 4.9 0 0 1 .04.54z"/><path d="m16.28 13.93v20.14"/><path d="m31.73 13.93v20.14"/></g></svg>