<svg viewBox="0 0 48 48" xmlns="http://www.w3.org/2000/svg"><g fill="none" stroke="#000" stroke-linecap="round" stroke-linejoin="round"><rect height="4.3047" rx="1.0395" transform="matrix(.70710678 -.70710678 .70710678 .70710678 -6.8968 16.9092)" width="3.246" x="15.3398" y="14.6274"/><path d="m12.2144 24.5732-2.3085-2.3085a1.04 1.04 0 0 0 -1.47-.0031l-.0031.0031-.829.8226a1.0522 1.0522 0 0 0 0 1.4732l2.3149 2.3086"/><rect height="4.3047" rx="1.0395" transform="matrix(.70710678 -.70710678 .70710678 .70710678 -10.6087 15.372)" width="3.246" x="11.6282" y="18.3395"/><path d="m11.7298 21.2634 3.4501 3.4438"/><path d="m24 30.0283-6.5981 6.5981a1.2755 1.2755 0 0 1 -1.8038 0l-11.7245-11.7245a1.2755 1.2755 0 0 1 0-1.8038l11.7245-11.7245a1.2755 1.2755 0 0 1 1.8038 0l6.5981 6.5981"/><rect height="19.1319" rx="1.2755" transform="matrix(.70710678 -.70710678 .70710678 .70710678 -7.7444 29.3033)" width="19.1319" x="21.934" y="14.434"/><path d="m28 20h7v4h-7v4h7"/></g></svg>