<svg viewBox="0 0 48 48" xmlns="http://www.w3.org/2000/svg"><g fill="none" stroke="#000" stroke-linecap="round" stroke-linejoin="round"><path d="m5.5 19.6v20.9a2 2 0 0 0 2 2h33a2 2 0 0 0 2-2v-33a2 2 0 0 0 -2-2h-33a2 2 0 0 0 -2 2z"/><path d="m20.2546 29.9814v-11.9628h3.9163a4.0176 4.0176 0 0 1 0 8.0352h-3.9163"/><path d="m9.5 29.981v-11.962l7.925 11.962v-11.962"/><path d="m30.8116 28.6706a3.3463 3.3463 0 0 0 2.9331 1.3108h1.7711a2.9875 2.9875 0 0 0 2.9842-2.9907 2.9875 2.9875 0 0 0 -2.9842-2.9907h-1.9569a2.9875 2.9875 0 0 1 -2.9842-2.9907 2.9875 2.9875 0 0 1 2.9842-2.9907h1.7711a3.3463 3.3463 0 0 1 2.9331 1.3108"/></g></svg>