<svg viewBox="0 0 48 48" xmlns="http://www.w3.org/2000/svg"><g fill="none" stroke="#000" stroke-linecap="round" stroke-linejoin="round"><path d="m22.8118 14.8029v15.7664a2.4445 2.4445 0 0 0 2.5452 2.6278h.7636"/><path d="m19.6808 33.1971v-8.6716a5.19 5.19 0 0 0 -5.0908-5.2555 5.19 5.19 0 0 0 -5.09 5.2555v8.6716"/><path d="m9.5 24.5263v-5.2555"/><path d="m22.8118 19.0228 5.5072.0038 5.091 13.927 5.09-13.927"/><path d="m5.5 19.6v20.9a2 2 0 0 0 2 2h33a2 2 0 0 0 2-2v-33a2 2 0 0 0 -2-2h-33a2 2 0 0 0 -2 2z"/></g></svg>