<svg viewBox="0 0 48 48" xmlns="http://www.w3.org/2000/svg"><g fill="none" stroke="#000" stroke-linecap="round" stroke-linejoin="round"><circle cx="24" cy="24" r="21.5"/><path d="m19.5234 8.7477c-3.3645 3.3644-8.9159 15.056-6.2243 23.5514-4.9627-2.86-8.5107-13.8093-4.71-20.1028-4.2529 3.101-3.7386 10.6822-3.0891 12.3644-1.6215-.6728-2.7782-3.6491-2.7782-3.6491"/><path d="m13.5607 20.5234c5.5606-1.0934 16.8131-11.7757 17.1122-16.9656"/><path d="m2.9455 28.3738c1.6339 2.1869 2.8676 3.8972 5.3629 3.5327 1.0654 4.486 9.9978 12.5624 14.2092 13.5429"/><path d="m45.4348 22.3174c-.696 3.8688-6.9582 10.9069-9.93 11.5237 3.8691-4.542 6.8426-14.0708 6.66-21.3485"/><path d="m40.924 22.1942c.4847-4.2732-1.354-11.7642-2.6349-14.259a43.9769 43.9769 0 0 1 -8.8685 22.5695"/><path d="m34.2722 22.5686c-2.382 4.3724-7.6554 8.3566-12.3657 10.4875 2.6635-2.5514 7.1209-13.3461 6.1119-23.9161"/><path d="m21.1846 38.0818a11.8409 11.8409 0 0 0 6.3925 2.986 6.84 6.84 0 0 0 4.4159-2.1239"/><path d="m30.0374 41.8037a4.1775 4.1775 0 0 1 -1.948.82"/><path d="m30.95 28.463a20.66 20.66 0 0 0 1.3589 6.6749 13.5154 13.5154 0 0 0 -1.3589 1.7737"/><path d="m29.0634 36.4206.3572.1892"/><path d="m7.4252 27.2944s.3926 2.86.5187 3.14c-.4065-.4626-1.6542-1.57-1.6542-1.57"/><path d="m24.2617 26.4673a6.0661 6.0661 0 0 0 -3.4907-3.1963 8.5281 8.5281 0 0 0 -6.14.8692 4.9441 4.9441 0 0 0 4.8926 3.729"/><path d="m34.2009 27.729c1.444 0 6.7805-2.1028 6.7805-6.2331a9.1851 9.1851 0 0 0 -7.4714 2.6349"/><path d="m18.4572 18.1952c2.6082.1132 5.9963 1.5 7.2064 2.7487"/><path d="m40.5717 16.0294a27.3325 27.3325 0 0 0 -4.99 3.4327"/><path d="m24.9065 23.0124c1.3739-.5545 6.4206-3.1619 7.0374-8.9376"/><path d="m19.1617 23.0171c-1.9724 0-2.4351 4.0039.1514 4.0039a2.3142 2.3142 0 0 0 2.0916-3.5122"/><path d="m32.916 25.25c-.173.8245 1.72 2.1142 2.9532.6s.8983-3.6309-.1747-3.3225"/><path d="m34.7811 24.729.0927-.14"/><path d="m19.5834 24.897.0928-.14"/><path d="m38.7127 31.9109c-.6566 2.7994-7.82 12.3136-8.4861 12.6733"/></g></svg>