<svg viewBox="0 0 48 48" xmlns="http://www.w3.org/2000/svg"><g fill="none" stroke="#000" stroke-linecap="round" stroke-linejoin="round"><path d="m38.8678 26.5874a14.873 14.873 0 0 1 -29.7378-.0931"/><path d="m24 15.4511s1.3287 1.1232-17.0522 12.3634l-2.4478-1.6438s.0977-2.7007.52-6.2991 9.976-9.396 12.9325-11.3326 3.9213-1.578 6.0475-1.578"/><path d="m24 15.4511s-1.3287 1.1232 17.0522 12.3634l2.4478-1.6438s-.0977-2.7007-.52-6.2991-9.976-9.396-12.9325-11.3326-3.9213-1.578-6.0475-1.578"/><ellipse cx="24" cy="31.627" rx="4.6457" ry="5.3791"/><path d="m16.9039 23.8336v4.3606"/><path d="m31.0961 23.8336v4.3606"/><path d="m21.6993 14.3385c.0912-.0736-.0322-7.3672-.0322-7.3672"/><path d="m26.3641 14.3938c.0912-.0736-.0312-7.4225-.0312-7.4225"/><path d="m21.6993 14.3385s1.1816.5921-17.1993 11.8322"/><path d="m26.3641 14.3938s-1.245.5368 17.1359 11.7769"/><path d="m21.6993 14.3385a3.2271 3.2271 0 0 1 4.6648.0553"/><path d="m19.3544 31.6534a8.68 8.68 0 0 0 9.2912 0"/></g></svg>