<svg viewBox="0 0 48 48" xmlns="http://www.w3.org/2000/svg"><g fill="none" stroke="#000" stroke-linecap="round" stroke-linejoin="round"><path d="m40.5 42.5h-33a2 2 0 0 1 -2-2v-33a2 2 0 0 1 2-2h33a2 2 0 0 1 2 2v33a2 2 0 0 1 -2 2z"/><path d="m5.5 24h37"/><path d="m12 19.03v-8.56l5.67 8.56v-8.56"/><path d="m28.28 10.47-2.14 8.56-2.14-8.56-2.14 8.56-2.14-8.56"/><path d="m30.5 18.09a2.37 2.37 0 0 0 2.1.94h1.26a2.14 2.14 0 0 0 2.14-2.14 2.14 2.14 0 0 0 -2.14-2.14h-1.4a2.13 2.13 0 0 1 -2.13-2.14 2.13 2.13 0 0 1 2.13-2.14h1.27a2.37 2.37 0 0 1 2.1.94"/><path d="m12 37.3v-8.56l5.67 8.56v-8.56"/><path d="m36 29.2-2.14 8.56-2.14-8.56-2.14 8.56-2.14-8.56"/><path d="m19.87 34.47a2.84 2.84 0 0 0 5.67 0v-2.89a2.84 2.84 0 1 0 -5.67 0z"/></g></svg>