<svg viewBox="0 0 48 48" xmlns="http://www.w3.org/2000/svg"><g fill="none" stroke="#000" stroke-linecap="round" stroke-linejoin="round"><path d="m30.35 4.58c9.84-1.19 11.33 11.7 1.42 11.7-4.34 0-12.4-3.75-15.71-3.75-3.77 0-4.62 3.75-2.41 5.45"/><path d="m30.35 4.58c4.68.66 3.34 4.64 1.21 4.64-5.85 0-9.73-3.58-15.27-3.58-7.51 0-9.09 10.83-2.64 12.36"/><path d="m29.18 22.46h5.27v5.27h-5.27z" transform="matrix(.70710678 .70710678 -.70710678 .70710678 27.07 -15.15)"/><path d="m31.82 21.37v-5.09"/><path d="m31.82 28.83v7.65"/><path d="m39.13 29c-1.77 4.27-4.67 8.39-13.21 8.39-6.23 0-10.43-4.74-10.43-10.87s1.51-8.94 6.09-11.89"/><path d="m26.2 32.18v-15.47l-10.05 4.25"/><path d="m19.69 34.93 6.51-2.75"/><path d="m19.69 19.47v14.94"/><path d="m39.13 29c.87 6.2-3.61 14.5-14.51 14.5-8.47 0-15.85-6-15.85-14.44 0-8.77 7.22-12.71 12.81-14.43"/></g></svg>