<svg viewBox="0 0 48 48" xmlns="http://www.w3.org/2000/svg"><g fill="none" stroke="#000" stroke-linecap="round" stroke-linejoin="round"><path d="m37.5578 20.9212a12.82 12.82 0 0 0 -.5753-3.0338c-1.954-5.26-4.5439-9.4663-11.63-9.4663-7.5731 0-15.5248 4.9225-15.5248 14.497a56.6265 56.6265 0 0 0 3.1913 19.5819h23.5848a53.1472 53.1472 0 0 0 2.4342-15.264"/><path d="m8.7815 18.9621c2.3104-9.5268 8.2854-13.4621 15.9126-13.4621 6.2748 0 12.8637 2.2719 16.0334 14.6128"/><path d="m10.44 18.5607a4.1317 4.1317 0 0 0 -4.0743 4.4115 4.8256 4.8256 0 0 0 3.6179 4.7318"/><path d="m17.4006 29.8421c.78 1.2992 1.7983 2.5438 3.5093 2.3734a3.8267 3.8267 0 0 0 3.2456-2.6777"/><path d="m10.1582 29.7631c-1.4667 1.2961-4.8475 4.2169-2.5482 6.1916 1.0943.94 2.4276.556 3.5245-.1044"/><circle cx="15.7507" cy="24.1893" r="2.867"/><circle cx="26.7937" cy="24.1893" r="2.867"/><path d="m39.349 19.8168c1.8172 0 2.2855.8294 2.2855 3.3177s-1.3523 3.0833-2.1367 3.0833-2.4342-.4637-2.4342-3.0853 1.3936-3.3157 2.2854-3.3157z"/><path d="m37.0272 18.0165a6.6027 6.6027 0 0 0 -2.6142 6.3622 3.2784 3.2784 0 0 0 6.153 1.4846"/><path d="m30.14 30.6738c-.3043 1.9676 1.2374 7.1809 3.9353 6.1058s2.272-5.7 0-7.7083"/></g></svg>