<svg viewBox="0 0 48 48" xmlns="http://www.w3.org/2000/svg"><g fill="none" stroke="#000" stroke-linecap="round" stroke-linejoin="round"><path d="m40.5 5.5h-33a2.25 2.25 0 0 0 -2 2v33a2.25 2.25 0 0 0 2 2h33a2.25 2.25 0 0 0 2-2v-33a2.25 2.25 0 0 0 -2-2z"/><path d="m13.6992 18.5663a3.6324 3.6324 0 0 0 -4.1992 3.5848v3.6978a3.6293 3.6293 0 0 0 7.2586 0v-3.6978a3.6287 3.6287 0 0 0 -.1483-1.03"/><g stroke-width=".8662"><path d="m24.9758 24a2.7391 2.7391 0 0 1 0 5.4782h-4.52v-10.9564h4.52a2.7391 2.7391 0 0 1 0 5.4782z"/><path d="m24.9758 24h-4.5195"/><path d="m35.7609 24a2.7391 2.7391 0 0 1 0 5.4782h-4.52v-10.9564h4.52a2.7391 2.7391 0 0 1 0 5.4782z"/><path d="m35.7609 24h-4.5195"/></g><path d="m14.2372 20.6431 2.1213-2.1213"/></g></svg>