<svg viewBox="0 0 48 48" xmlns="http://www.w3.org/2000/svg"><g fill="none" stroke="#000" stroke-linecap="round" stroke-linejoin="round"><path d="m26.9329 32.0773h2.5408v2.3706h-2.5408z"/><path d="m40.9591 32.0773h2.5408v2.3706h-2.5408z"/><path d="m35.2165 13.5521c-2.9527 0-8.2836.4587-8.2836 1.6593v16.8659h16.5671v-16.8659c0-1.2006-5.37-1.6593-8.2835-1.6593zm.0128 2.7776a22.4183 22.4183 0 0 1 6.087.6111.48.48 0 0 1 .3325.4619v8.4931a.4866.4866 0 0 1 -.4866.4866h-11.866a.4866.4866 0 0 1 -.4865-.4866v-8.493a.48.48 0 0 1 .3325-.462 22.4224 22.4224 0 0 1 6.087-.6111zm-5.2077 11.3632a1.2484 1.2484 0 0 1 0 2.4958 1.23 1.23 0 0 1 -1.2116-1.2479 1.23 1.23 0 0 1 1.2116-1.2479zm10.4155 0a1.2484 1.2484 0 0 1 0 2.4958 1.23 1.23 0 0 1 -1.212-1.2479 1.23 1.23 0 0 1 1.212-1.2479z"/><circle cx="9.1442" cy="27.1866" r="1.3242"/><circle cx="18.3321" cy="27.1866" r="1.3242"/><path d="m5.6171 16.4328v12.1188a2.8871 2.8871 0 0 0 2.8807 2.8807h10.4808a2.8869 2.8869 0 0 0 2.8806-2.8807v-12.1188a2.8869 2.8869 0 0 0 -2.8806-2.8807h-10.4808a2.8871 2.8871 0 0 0 -2.8807 2.8807z"/><path d="m8.4978 31.4605-3.9978 2.9874"/><path d="m18.9786 31.4605 3.9977 2.9874"/><path d="m7.776 16.2477h11.9244v6.2761h-11.9244z"/></g></svg>