<svg viewBox="0 0 48 48" xmlns="http://www.w3.org/2000/svg"><g fill="none" stroke="#000"><g stroke-linecap="round" stroke-linejoin="round"><path d="m18.7 14.9-14.8 1.4m9.7 7.5-5.9 14.3m11-5.5 13 11.5m-2.9-11.5 16.1-3.4m-11-5.4 5.5-14.8m-10.6 5.9-9.2-11.9m9.2 29.6h-10.1l-5.1-8.8 5.1-8.8h10.1l5.1 8.8zm16.7-8.6a21.5 21.5 0 1 1 -21.5-21.5 21.467 21.467 0 0 1 21.5 21.5z"/><path d="m19.2 22.7h9.5v5.6h-9.5z"/><path d="m20.8 22.7v-1.3a3.1591 3.1591 0 0 1 3.2-3.2 3.1591 3.1591 0 0 1 3.2 3.2v1.3"/></g><circle cx="24" cy="25.1" r="1" stroke-miterlimit="10"/><path d="m24 27v-.9" stroke-linecap="round" stroke-linejoin="round"/></g></svg>