<svg viewBox="0 0 48 48" xmlns="http://www.w3.org/2000/svg"><g fill="none" stroke="#000" stroke-linecap="round" stroke-linejoin="round"><path d="m26.49 15.4a1.5 1.5 0 1 0 1.51 1.47 1.5 1.5 0 0 0 -1.51-1.47z"/><path d="m21.51 15.4a1.5 1.5 0 1 0 1.49 1.53 1.46 1.46 0 0 0 -1.49-1.53z"/><path d="m26.83 20.57h-5.75a4.2 4.2 0 0 1 -4.16-4.07 3.32 3.32 0 0 1 3.27-3.27c.89 0 2.84.35 3.72.35s2.83-.35 3.72-.35a3.33 3.33 0 0 1 3.28 3.27 4 4 0 0 1 -4.08 4.07z"/><path d="m15.5 16.19a15.35 15.35 0 0 0 2.75 8.72.43.43 0 0 1 0 .44 1.53 1.53 0 0 1 -1.07.53 5.2 5.2 0 0 1 -2.83-.44 14.51 14.51 0 0 0 -5.84-1.44c-1.51 0-4 .8-4 2.39a3 3 0 0 0 .36 1.77c2.21 2.39 4.25 2.66 6.9 2.3a16.13 16.13 0 0 0 7.44-2.74 1.11 1.11 0 0 1 .8-.35c.08 0 .08.08.08.17a2.61 2.61 0 0 1 -.79 1.24 21.68 21.68 0 0 1 -4.87 3.63 7.48 7.48 0 0 0 -3.81 4.07 3.29 3.29 0 0 0 .8 3.63 3 3 0 0 0 3.45.8 9.25 9.25 0 0 0 5.31-5.49 18 18 0 0 0 1.33-5.31c.09-.44.18-1.15.27-1.59.09-.18.17-.45.44-.36a.81.81 0 0 1 .44.71 10.5 10.5 0 0 1 -.18 3.37 43 43 0 0 0 -1.23 5.93 3.34 3.34 0 0 0 4.52 3.83 3.25 3.25 0 0 0 2.13-4 19.5 19.5 0 0 0 -1.24-3.81 9.88 9.88 0 0 1 -.89-4.19c0-.53-.09-1.24.53-1.32s.89.61 1.06 1.06c.54 1.15.89 2.39 1.33 3.63a9 9 0 0 0 5.14 5.75c2.65 1.06 4.78.09 5.49-2.39a3 3 0 0 0 -1.51-3.73 15.1 15.1 0 0 0 -2.74-1.06 11.53 11.53 0 0 1 -5-2.83c-.36-.36-.8-.8-.53-1.24s.88-.18 1.33-.09a39.9 39.9 0 0 0 6.64 1.86c2.12.26 4.16.26 5.57-1.68a1.79 1.79 0 0 0 .36-1.33 2.12 2.12 0 0 0 -.44-1.55c-1.6-2.39-3.9-2.12-6.2-1.59-1.86.35-3.72 1-5.58 1.42a6.57 6.57 0 0 1 -1.33 0 14.67 14.67 0 0 0 2.66-7.79c0-.23 0-.89 0-.89a8.5 8.5 0 0 0 -17 0z"/><path d="m29.13 9.45 3.07-3.07"/><path d="m18.87 9.45-3.07-3.07"/></g></svg>