<svg viewBox="0 0 48 48" xmlns="http://www.w3.org/2000/svg"><path d="m38.43 6.76a14.5 14.5 0 0 1 2.57.24c.91 4.78-.49 7.89-3.13 11.9a44.07 44.07 0 0 1 -6.46 7.24 3.67 3.67 0 0 1 .92.68 4.69 4.69 0 0 1 .51.61c1.19 1.67-.58 5.28-2.68 7.78s-11 8.51-11 8.51 5.75-8.72 6.5-10.51a3.12 3.12 0 0 0 0-2.13c-.83.67-1.67 1.33-2.53 2l-8.22-8.22c.65-.86 1.3-1.7 2-2.53a3.09 3.09 0 0 0 -2.14 0c-1.77.76-10.53 6.54-10.53 6.54s6-8.9 8.5-11 6.12-3.87 7.78-2.67a5.84 5.84 0 0 1 .62.52 3.47 3.47 0 0 1 .68.91 43.67 43.67 0 0 1 7.24-6.46c3.26-2.17 5.94-3.47 9.37-3.4zm-5.67 5.37a3.16 3.16 0 0 0 -2.28 5.39 3.17 3.17 0 0 0 4.47 0 3.17 3.17 0 0 0 0-4.47 3.14 3.14 0 0 0 -2.19-.92zm-17.58 17.34a3.36 3.36 0 0 1 2.37 5.73c-.9.87-2.38.82-3.72 1.08-2.21.5-5.83 3.72-5.83 3.72s3.25-3.64 3.75-5.86c.27-1.25 0-2.49 1.08-3.72a3.37 3.37 0 0 1 2.38-1z" fill="none" stroke="#000" stroke-linecap="round" stroke-linejoin="round"/></svg>