<svg viewBox="0 0 48 48" xmlns="http://www.w3.org/2000/svg"><g fill="none" stroke="#000" stroke-linecap="round" stroke-linejoin="round"><path d="m10.807 14.858-5.307 9.195 5.277 9.142 5.307-9.195z"/><path d="m16.084 24-5.307 9.195h10.554l5.308-9.195z"/><path d="m10.807 14.858 5.277 9.142h10.555l-5.278-9.142z"/><path d="m26.669 5.662-5.308 9.196 5.278 9.142 5.307-9.195z"/><path d="m31.946 14.805-5.307 9.195h10.554l5.307-9.195z"/><path d="m26.669 5.662 5.277 9.143h10.554l-5.277-9.143z"/><path d="m26.639 24-5.308 9.195 5.277 9.143 5.308-9.196z"/><path d="m31.916 33.142-5.308 9.196h10.555l5.307-9.196z"/><path d="m26.639 24 5.277 9.142h10.554l-5.277-9.142z"/></g></svg>