<svg viewBox="0 0 48 48" xmlns="http://www.w3.org/2000/svg"><g fill="none" stroke="#000" stroke-linecap="round" stroke-linejoin="round"><path d="m37 28.6a8.46 8.46 0 1 0 8.46 8.46 8.45 8.45 0 0 0 -8.46-8.46zm3.43 11.76-6.23.09a3 3 0 0 1 -3-3 3 3 0 0 1 3.1-3.12l-1.3-1.33 8.76 8.65zm-6.08-6a3.25 3.25 0 0 1 5.69.09 4.8 4.8 0 0 1 .43 1 2.94 2.94 0 0 1 2.53 2.8 1.89 1.89 0 0 1 -1.8 2.11h-.74"/><path d="m15.8 8.58a2.51 2.51 0 1 1 -2.51 2.51 2.51 2.51 0 0 1 2.51-2.51zm16.4 0a2.51 2.51 0 0 1 2.51 2.51 2.51 2.51 0 0 1 -2.51 2.51 2.51 2.51 0 1 1 0-5z"/><path d="m42.5 30.63v-23.18a2 2 0 0 0 -2-1.95h-33.05a2 2 0 0 0 -1.95 2v33.1a2 2 0 0 0 2 2h23.02"/><g stroke-width=".96"><path d="m27.75 22.22 4.5-2.45"/><path d="m32.25 19.77v10.29"/><path d="m18.37 37.77a4.5 4.5 0 0 0 4.5-4.5 4.49 4.49 0 0 0 -4.5-4.5 4.5 4.5 0 0 0 4.5-4.5 4.5 4.5 0 0 0 -4.5-4.5"/><path d="m11.25 36.25c1.24 1 2.58 1.52 5.6 1.52h1.52"/><path d="m11.25 21.27c1.24-1 2.59-1.51 5.6-1.5h1.52"/></g></g></svg>