<svg viewBox="0 0 48 48" xmlns="http://www.w3.org/2000/svg"><g fill="none" stroke="#000" stroke-linecap="round" stroke-linejoin="round"><path d="m17.8333 5.5v37"/><path d="m30.1667 5.5v37"/><path d="m42.5 17.8333h-37"/><path d="m42.5 30.1667h-37"/><path d="m9.9167 15.1667h3.5"/><path d="m9.9167 9.1195 1.75-.9528"/><path d="m11.6667 8.1667v7"/><path d="m36.9025 15.1667a1.75 1.75 0 0 0 1.75-1.75 1.75 1.75 0 0 0 -1.75-1.75 1.75 1.75 0 0 0 1.75-1.75 1.75 1.75 0 0 0 -1.75-1.75"/><path d="m34.0154 14.5762a2.981 2.981 0 0 0 2.1766.5905h.7105"/><path d="m34.0146 8.7513a2.9813 2.9813 0 0 1 2.1782-.5846l.7105.0016"/><path d="m24.5688 36.3333a1.75 1.75 0 0 0 1.75-1.75 1.75 1.75 0 0 0 -1.75-1.75h-1.1376a1.75 1.75 0 0 0 -1.75 1.75 1.75 1.75 0 0 0 1.75 1.75 1.75 1.75 0 0 0 -1.75 1.75 1.75 1.75 0 0 0 1.75 1.75h1.1376a1.75 1.75 0 0 0 1.75-1.75 1.75 1.75 0 0 0 -1.75-1.75"/><path d="m13.105 27.5v-7l-3.757 4.702h4.637"/><path d="m10.219 39.833 3.766-7h-4.637" stroke-width=".9976"/><path d="m21.6812 26.91a2.8343 2.8343 0 0 0 2.1238.59h.2527a2.2611 2.2611 0 0 0 2.2611-2.2611 2.2611 2.2611 0 0 0 -2.2611-2.261h-2.3765v-2.4779h4.3709"/><circle cx="36.3333" cy="25.1813" r="2.3188"/><path d="m38.4471 21.3537a2.2644 2.2644 0 0 0 -1.951-.8537h-.1628a2.3187 2.3187 0 0 0 -2.3187 2.3188v2.3624"/><path d="m21.6813 10.4854a2.3187 2.3187 0 1 1 4.6374 0 2.1634 2.1634 0 0 1 -.6791 1.64c-.938.8232-3.9583 3.0417-3.9583 3.0417h4.6374"/></g></svg>