<svg viewBox="0 0 48 48" xmlns="http://www.w3.org/2000/svg"><g fill="none" stroke="#000" stroke-linecap="round" stroke-linejoin="round"><path d="m40.5 5.5h-33a2 2 0 0 0 -2 2v33a2 2 0 0 0 2 2h33a2 2 0 0 0 2-2v-33a2 2 0 0 0 -2-2z"/><path d="m17.0387 35.13a4.5808 4.5808 0 0 0 -4.1278-4.15l-.0116.0116m.7357 3.3874a1.8363 1.8363 0 1 0 -.0007 2.5969l.0007-.0006a1.8365 1.8365 0 0 0 0-2.5959zm7.6241.4808a9.0063 9.0063 0 0 0 -8.1049-8.1049"/><path d="m28.2952 10.4862-8.9959 8.9959a1 1 0 0 0 0 1.4142l6.7039 6.7037"/><path d="m27.797 36.1573 8.9959-8.996a1 1 0 0 0 0-1.4142l-6.7039-6.7039"/></g></svg>