<svg viewBox="0 0 48 48" xmlns="http://www.w3.org/2000/svg"><g fill="none" stroke="#000" stroke-linecap="round" stroke-linejoin="round"><path d="m40.5 5.5h-33a2 2 0 0 0 -2 2v33a2 2 0 0 0 2 2h33a2 2 0 0 0 2-2v-33a2 2 0 0 0 -2-2z"/><path d="m15.5292 18.1143 15.9524-7.2159a1 1 0 0 1 1.3232.4989l2.2662 5.01a1 1 0 0 1 -.4989 1.3232l-2.9091 1.3159a1 1 0 0 0 -.499 1.3233l4.52 9.9934a1 1 0 0 1 -.499 1.3232l-5.5783 2.5237a1 1 0 0 1 -1.3232-.4989l-4.52-9.9935a1 1 0 0 0 -1.3232-.4989l-3.82 1.728"/><path d="m17.0387 35.13a4.5808 4.5808 0 0 0 -4.1278-4.15l-.0116.0116m.7357 3.3874a1.8363 1.8363 0 1 0 -.0007 2.5969l.0007-.0006a1.8365 1.8365 0 0 0 0-2.5959zm7.6241.4808a9.0063 9.0063 0 0 0 -8.1049-8.1049"/></g></svg>