<svg viewBox="0 0 48 48" xmlns="http://www.w3.org/2000/svg"><g fill="none" stroke="#000" stroke-linecap="round" stroke-linejoin="round"><path d="m19.1993 7.2525a3.1359 3.1359 0 0 1 6.22.803"/><path d="m37.6418 25.05a2.8993 2.8993 0 0 1 -.1478 2.83 3.1358 3.1358 0 0 1 -5.4315 0"/><path d="m31.1994 5.8375a3.1359 3.1359 0 0 1 5.1376 3.5973"/><path d="m38.74 35.9078a11.5634 11.5634 0 0 1 -10.1231 7.5322 12.2021 12.2021 0 0 1 -11.4382-18.7883"/><path d="m29.74 19.32a10.6112 10.6112 0 0 1 7.9007 5.73" stroke-width=".9706"/><path d="m32.7027 34.1835a3.3348 3.3348 0 0 1 2.3341-2.248 3.1358 3.1358 0 0 1 3.7043 3.9723"/><path d="m32.7027 34.1835c-1.1285 2.42-3.6265 3.3194-6.2455 2.7984a5.796 5.796 0 0 1 -.4912-11.249c2.5636-.7472 4.7612-.1653 6.0964 2.1472"/><path d="m31.1994 5.8375-14.0194 18.8143"/><path d="m29.74 19.32 6.5959-9.885"/><path d="m15.4246 29.0215 3.7754-21.769"/><path d="m24.3249 15.0633 1.0951-7.0078"/><path d="m9.3973 18.9081a3.1359 3.1359 0 1 1 5.7208-2.5707"/><path d="m15.81 35.0109-6.4123-16.1031"/><path d="m16.8891 20.5765-1.771-4.2391"/></g></svg>