<svg viewBox="0 0 48 48" xmlns="http://www.w3.org/2000/svg"><g fill="none" stroke="#000" stroke-linecap="round" stroke-linejoin="round"><path d="m5.5 19.6v20.9a2 2 0 0 0 2 2h33a2 2 0 0 0 2-2v-33a2 2 0 0 0 -2-2h-33a2 2 0 0 0 -2 2z"/><path d="m12.9012 29.4a3.3956 3.3956 0 0 1 -3.4378-4l.3654-2.6a4.759 4.759 0 0 1 4.5622-4 3.3956 3.3956 0 0 1 3.4378 4l-.3654 2.6a4.759 4.759 0 0 1 -4.5622 4z"/><path d="m22.0806 13.4-2.2486 16"/><path d="m20.3113 26.0012 8.2551-7.2069"/><path d="m22.9386 23.7075 4.8968 5.6685"/><path d="m37.6561 27.3853a4.7161 4.7161 0 0 1 -3.7561 2.0147 3.3956 3.3956 0 0 1 -3.4378-4l.3654-2.6a4.7589 4.7589 0 0 1 4.5621-4 3.379 3.379 0 0 1 3.1872 2.0077"/></g></svg>