<svg viewBox="0 0 48 48" xmlns="http://www.w3.org/2000/svg"><g fill="none" stroke="#000" stroke-linecap="round" stroke-linejoin="round"><path d="m22.0871 24a8.8153 8.8153 0 0 1 -8.7936 8.837 8.8153 8.8153 0 0 1 -8.7935-8.837 8.8153 8.8153 0 0 1 8.7935-8.8369 8.8153 8.8153 0 0 1 8.7936 8.8369zm-6.3047 0a2.489 2.489 0 1 1 -2.489-2.5012 2.4952 2.4952 0 0 1 2.489 2.5012z"/><rect height="21.4566" rx=".5454" width="5.6428" x="24.6121" y="13.2717"/><path d="m32.78 18.612v3.582l1.7981 1.8047-1.7981 1.807v3.582h3.5643l1.7959-1.807 1.7981 1.807h3.5617v-3.582l-1.7958-1.807 1.7958-1.8047v-3.582h-3.5621l-1.7979 1.807-1.7959-1.807z"/></g></svg>