<svg viewBox="0 0 48 48" xmlns="http://www.w3.org/2000/svg"><circle cx="37.04" cy="13.8" r=".75"/><circle cx="40.64" cy="13.8" r=".72"/><path d="m10.3 39.1h3.7l.9-2.3h-5.5z" fill="none" stroke="#000" stroke-linecap="round" stroke-linejoin="round"/><path d="m34 39.1h3.7l.9-2.3h-5.6z" fill="none" stroke="#000" stroke-linecap="round" stroke-linejoin="round"/><circle cx="37.04" cy="17.4" r=".75"/><circle cx="37.04" cy="21.1" r=".75"/><circle cx="37.04" cy="24.7" r=".72"/><circle cx="40.64" cy="17.4" r=".71"/><circle cx="40.64" cy="21" r=".71"/><circle cx="40.64" cy="24.6" r=".71"/><g fill="none" stroke="#000" stroke-linecap="round" stroke-linejoin="round"><path d="m30.56 12.8v4.2l-2 2.8v6.3l2 2.3v4.3"/><path d="m8.2 12.8h26.2v19.9h-26.2z"/><path d="m36.79 29.8h4.1v3h-4.1z"/><rect height="27.9" rx="2" width="39" x="4.5" y="8.9"/></g></svg>