<svg viewBox="0 0 48 48" xmlns="http://www.w3.org/2000/svg"><g fill="none" stroke="#000" stroke-linecap="round" stroke-linejoin="round"><path d="m40.5 5.5h-33a2 2 0 0 0 -2 2v33a2 2 0 0 0 2 2h33a2 2 0 0 0 2-2v-33a2 2 0 0 0 -2-2z"/><path d="m32.4512 34.5854h6.0488"/><path d="m32.4512 13.4146h6.0488"/><path d="m32.4512 24h3.9438"/><path d="m32.4512 13.4146v21.1708"/><path d="m20.928 34.585v-21.17l8.015 21.17v-21.17"/><path d="m9.5 30.578a4.0073 4.0073 0 1 0 8.0146 0v-13.156a4.0073 4.0073 0 1 0 -8.0146 0z"/><path d="m11.5073 18.089 2-1.089"/><path d="m13.5073 17v14"/></g></svg>