<svg viewBox="0 0 48 48" xmlns="http://www.w3.org/2000/svg"><g fill="none" stroke="#000" stroke-linecap="round" stroke-linejoin="round"><path d="m30.8086 29.4647c-2.3612-.0324-3.2021-1.03-5.4339-4.0052s-4.6174-2.8351-5.434-1.9407c-.6792.7439 3.3315 9.477 4.5283 10.8679a19.5169 19.5169 0 0 0 1.8437 1.9407s-.0426 4.1645-.172 7.1726"/><path d="m37.2452 42.764a75.1705 75.1705 0 0 1 -1.132-7.8275c.0647-.3234.0247-4.6576-.0038-5.6927s-1.1283-9.7681-1.8722-11.4177-3.4286-3.8167-3.4286-3.8167"/><path d="m24.1 33.8692h-11.038a2.3073 2.3073 0 0 1 -2.3072-2.3073v-24.7546a2.3073 2.3073 0 0 1 2.3072-2.3073h15.4393a2.3073 2.3073 0 0 1 2.3073 2.3073v22.6574"/><path d="m10.7548 8.6725h20.0538"/><path d="m10.7548 29.6967h11.1871"/></g><circle cx="26.4703" cy="19.1978" r=".75"/><circle cx="22.8325" cy="19.1978" r=".75"/><circle cx="19.1946" cy="19.1978" r=".75"/></svg>