<svg viewBox="0 0 48 48" xmlns="http://www.w3.org/2000/svg"><g fill="none" stroke="#000" stroke-linecap="round" stroke-linejoin="round"><path d="m7.4474 5.5a1.9432 1.9432 0 0 0 -1.9474 1.9474v33.1052a1.9432 1.9432 0 0 0 1.9474 1.9474h33.1052a1.9432 1.9432 0 0 0 1.9474-1.9474v-33.1052a1.9432 1.9432 0 0 0 -1.9474-1.9474z"/><path d="m5.5 12.6449h37"/><path d="m39 14.1447v-3"/><path d="m29 14.1447v-3"/><path d="m19 14.1447v-3"/><path d="m9 14.1447v-3"/><g stroke-width=".961"><path d="m20.3747 25.477 3.6253-1.974"/><path d="m24 23.503v14.5012"/><path d="m24 38.0042a10.1025 10.1025 0 1 0 -3.9889-.8173"/></g></g></svg>