<svg viewBox="0 0 48 48" xmlns="http://www.w3.org/2000/svg"><g fill="none" stroke="#000" stroke-linecap="round" stroke-linejoin="round"><path d="m40.3582 12.5813-13.9955-6.5413a5.7381 5.7381 0 0 0 -4.8564-.0014l-13.8633 6.47a2.2952 2.2952 0 0 0 -.0012 4.1591l13.9955 6.5415a5.7377 5.7377 0 0 0 4.8564.0014l13.8633-6.4706a2.2952 2.2952 0 0 0 .0012-4.1587z"/><path d="m13.2267 19.2781-5.5837 2.606a2.2952 2.2952 0 0 0 -.0012 4.1591l13.9955 6.5415a5.7377 5.7377 0 0 0 4.8564.0014l13.8633-6.47a2.2952 2.2952 0 0 0 .0012-4.1591l-5.5849-2.61"/><path d="m13.2267 28.6536-5.5837 2.6064a2.2952 2.2952 0 0 0 -.0012 4.1591l13.9955 6.5409a5.7381 5.7381 0 0 0 4.8564.0014l13.8633-6.47a2.2952 2.2952 0 0 0 .0012-4.1591l-5.5849-2.61"/></g></svg>