<svg viewBox="0 0 48 48" xmlns="http://www.w3.org/2000/svg"><g fill="none" stroke="#000" stroke-linecap="round" stroke-linejoin="round"><path d="m7.5 5.5a2.0027 2.0027 0 0 0 -2 2v33a2.0027 2.0027 0 0 0 2 2h33a2.0027 2.0027 0 0 0 2-2v-33a2.0027 2.0027 0 0 0 -2-2z"/><path d="m37.7 24.6 4.78-.736"/><path d="m5.5 29.6 18.4-2.83"/><path d="m27.1 8.38a10.2 10.2 0 0 1 12.4962 7.2059l.0038.0141a10.2 10.2 0 0 1 -6.45 12.2l.144.52 1.11.645 2.83 10.6-3.32.892-2.83-10.6.641-1.11-.14-.526a10.2 10.2 0 0 1 -4.47-19.9zm.819 3.09a6.9079 6.9079 0 1 0 .0032-.0009z"/><path d="m33.1 27.8-1.6.5"/><path d="m17.9 27.7-3.7-22.2"/></g></svg>