<svg viewBox="0 0 48 48" xmlns="http://www.w3.org/2000/svg"><g fill="none" stroke="#000" stroke-linecap="round" stroke-linejoin="round"><path d="m24 4.5a11.84 11.84 0 0 0 -11.84 11.84v18.6a1.84 1.84 0 0 0 1.84 1.84h20a1.84 1.84 0 0 0 1.84-1.84v-18.6a11.84 11.84 0 0 0 -11.84-11.84z"/><rect height="16.65" rx=".92" width="6.62" x="5.53" y="16.34"/><rect height="16.65" rx=".92" width="6.63" x="35.84" y="16.34"/><rect height="6.63" rx=".92" width="6.63" x="14.63" y="36.87"/><rect height="6.63" rx=".92" width="6.63" x="26.74" y="36.87"/><path d="m27.73 20.82v-4.2"/><path d="m25.52 21.01v-4.39"/><path d="m29.79 20.82v-4.2"/><path d="m32.01 21.01v-4.39"/><path d="m32 21a3.25 3.25 0 1 1 -6.49 0"/><ellipse cx="19.23" cy="20.47" rx="3.29" ry="3.85"/><path d="m19.23 33.32v-9.01"/><path d="m28.77 33.32v-9.01"/></g></svg>