<svg viewBox="0 0 48 48" xmlns="http://www.w3.org/2000/svg"><path d="m24 4a16.13 16.13 0 0 0 -9.87 3.38l-1.76-1.76a2 2 0 0 0 -3.48 1.38 2 2 0 0 0 .6 1.43l1.79 1.79a16.06 16.06 0 0 0 -3.39 9.85v23.93h11.31l1.91-7.77.16-.67a5.81 5.81 0 0 1 2.73-10.96 5.81 5.81 0 0 1 5.81 5.81 5.81 5.81 0 0 1 -3.12 5.14l.16.67 1.88 7.78h11.38v-23.89a16.08 16.08 0 0 0 -3.38-9.86l1.76-1.76a2 2 0 0 0 -1.41-3.49 2 2 0 0 0 -1.43.59l-1.79 1.8a16.15 16.15 0 0 0 -9.86-3.39z" fill="none" stroke="#000" stroke-linecap="round" stroke-linejoin="round"/></svg>