<svg viewBox="0 0 48 48" xmlns="http://www.w3.org/2000/svg"><g fill="none" stroke="#000" stroke-linecap="round" stroke-linejoin="round"><path d="m12.654 38.9034a2.3733 2.3733 0 0 0 -2.47-2.3417 2.4585 2.4585 0 0 0 -2.2049 2.4283v2.1682a2.3521 2.3521 0 0 0 2.3816 2.3418 2.352 2.352 0 0 0 2.3815-2.3417h-2.3815"/><path d="m21.6846 43.4976v-6.9383h2.2934a2.342 2.342 0 1 1 0 4.6833h-2.2934"/><path d="m19.529 43.498-2.294-6.939-2.381 6.939"/><path d="m15.6478 41.1559h3.0872"/><path d="m35.4342 42.717a2.1176 2.1176 0 0 0 1.7641.7806h1.0585a1.7547 1.7547 0 0 0 1.7641-1.7346 1.7547 1.7547 0 0 0 -1.7641-1.7345h-1.1468a1.7547 1.7547 0 0 1 -1.7641-1.7346 1.7547 1.7547 0 0 1 1.7641-1.7346h1.0584a1.907 1.907 0 0 1 1.7642.7806"/><path d="m28.5153 43.4976v-6.9383h2.2933a2.342 2.342 0 1 1 0 4.6833h-2.2933"/><path d="m24 4.5a15.995 15.995 0 0 0 -7.9983 29.8615l4.094-7.0865a7.8139 7.8139 0 1 1 7.8247.0242l4.0796 7.0623a15.9958 15.9958 0 0 0 -8-29.8615z"/></g></svg>