<svg viewBox="0 0 48 48" xmlns="http://www.w3.org/2000/svg"><g fill="none" stroke="#000" stroke-linecap="round" stroke-linejoin="round"><path d="m40.5 42.5h-33a2.0059 2.0059 0 0 1 -2-2v-33a2.0059 2.0059 0 0 1 2-2h33a2.0059 2.0059 0 0 1 2 2v33a2.0059 2.0059 0 0 1 -2 2z"/><path d="m32.777 28.32v-8.64l5.723 8.64v-8.64"/><path d="m9.6711 27.373a2.4165 2.4165 0 0 0 2.1182.9465h1.279a2.1574 2.1574 0 0 0 2.1551-2.16 2.1575 2.1575 0 0 0 -2.1551-2.1595h-1.4132a2.1575 2.1575 0 0 1 -2.1551-2.16 2.1574 2.1574 0 0 1 2.1551-2.16h1.279a2.4166 2.4166 0 0 1 2.1182.9465"/><path d="m23.1112 25.4225v.0353a2.8617 2.8617 0 0 1 -2.8612 2.8622 2.8617 2.8617 0 0 1 -2.8617-2.8617v-2.9161a2.8617 2.8617 0 0 1 2.8617-2.8617 2.8617 2.8617 0 0 1 2.8617 2.8617v.0354"/><path d="m24.9189 28.2939 2.8671-8.6134"/><path d="m30.5343 28.3195-2.7483-8.639"/><path d="m29.6149 25.4296h-3.7426"/></g></svg>