<svg viewBox="0 0 48 48" xmlns="http://www.w3.org/2000/svg"><g fill="none" stroke="#000" stroke-linecap="round" stroke-linejoin="round"><path d="m39.5 15.5h-9a2 2 0 0 1 -2-2v-9h-18a2 2 0 0 0 -2 2v35a2 2 0 0 0 2 2h27a2 2 0 0 0 2-2z"/><path d="m28.5 4.5 11 11"/><path d="m21.396 29.9012v-7.9012h1.284a3.9622 3.9622 0 0 1 3.9506 3.9506 3.9621 3.9621 0 0 1 -3.9506 3.9506z"/><path d="m14.1283 27.3333a2.6178 2.6178 0 1 0 5.2346 0v-2.6666a2.6556 2.6556 0 0 0 -2.6666-2.6667 2.5736 2.5736 0 0 0 -2.568 2.6667z"/><path d="m28.6371 29.9012v-7.9012h2.5679a2.6667 2.6667 0 1 1 0 5.3333h-2.5679"/><path d="m31.3926 27.3269 2.4791 2.5743"/></g></svg>