<svg viewBox="0 0 48 48" xmlns="http://www.w3.org/2000/svg"><g fill="none" stroke="#000" stroke-linecap="round" stroke-linejoin="round"><path d="m39.8773 14.1426c-.78 1.0572-4.78.2485-8.33-2.3768s-5.2703-5.8382-4.489-6.8944 4.29.2148 7.8391 2.838c3.5498 2.6253 5.7613 5.378 4.9799 6.4332z"/><path d="m27.0583 4.8714-5.14 7.61a44.6005 44.6005 0 0 0 -2.8538 9.3733"/><path d="m39.8773 14.1426-5.1411 7.6094a32.1052 32.1052 0 0 1 -7.9906 5.3506"/><path d="m19.0645 21.8552-9.7629 14.1227c-2.61 3.8679-1.38 5.7337 0 6.669 1.4657.9934 3.8246 1.804 6.8449-1.82v-.001l10.5991-13.7233"/><path d="m22.4017 11.7658a14.9307 14.9307 0 0 0 12.8053 9.29"/><path d="m19.0645 21.8552c1.0963 2.956 3.8405 4.8431 7.6811 5.2474"/><path d="m16.9121 24.9691c.8677 1.7292 2.105 3.44 3.2487 3.988"/><path d="m14.6954 28.1757c.8677 1.7292 1.8923 3.41 3.037 3.9585"/><path d="m12.724 31.0274c.8677 1.7292 1.6217 3.3972 2.7654 3.9448"/><path d="m10.8148 34.1234c.8677 1.7292 1.5986 3.1255 2.7422 3.6731"/><path d="m8.8561 36.6992c.972 2.9539 3.0781 4.5661 6.6333 4.862"/><path d="m26.9251 5.9939a19.3421 19.3421 0 0 1 11.8369 8.5911"/></g></svg>