<svg viewBox="0 0 48 48" xmlns="http://www.w3.org/2000/svg"><g fill="none" stroke="#000" stroke-linejoin="round"><rect height="37" rx="1.95" width="37" x="5.5" y="5.5"/><path d="m13.92 5.5v37"/><path d="m34.08 5.5v37"/><path d="m42.5 13.92h-37"/><path d="m42.5 34.08h-37"/><g stroke-linecap="round"><path d="m24.23 30.5a4.53 4.53 0 0 0 4.13-4.6v-4a4.36 4.36 0 0 0 -4.36-4.4 4.36 4.36 0 0 0 -4.36 4.36"/><path d="m19.64 21.86a4.36 4.36 0 0 0 4.36 4.36 4.36 4.36 0 0 0 4.36-4.36"/><path d="m20.41 29.08a3.63 3.63 0 0 0 3.18 1.42h.64"/></g></g></svg>