<svg viewBox="0 0 48 48" xmlns="http://www.w3.org/2000/svg"><path d="m18.9011 39.6588v-1.2473c-7.1718 1.5534-8.654-3.4413-8.654-3.4413a6.8106 6.8106 0 0 0 -2.9045-3.8117c-2.3308-1.5892.1793-1.5653.1793-1.5653a5.4026 5.4026 0 0 1 3.9325 2.6526c2.2949 3.9313 5.9764 2.7961 7.4825 2.1389a5.5074 5.5074 0 0 1 1.6376-3.4413c-5.7135-.6452-11.7139-2.8434-11.7139-12.6898a9.9039 9.9039 0 0 1 2.6535-6.8946 9.1737 9.1737 0 0 1 .2511-6.799s2.1515-.6931 7.0641 2.6287a24.464 24.464 0 0 1 12.8614 0c4.9126-3.3217 7.0642-2.6287 7.0642-2.6287a9.2462 9.2462 0 0 1 .251 6.7989 9.8926 9.8926 0 0 1 2.6416 6.8946c0 9.87-5.9765 12.0326-11.7259 12.6779a6.1165 6.1165 0 0 1 1.7452 4.7795v3.9358c0 1.72-1.235 3.7945-2.8679 3.8375-1.0454.0275-2.2763.0105-3.515.0105-1.2141 0-2.4207-.0109-3.4525-.0591-1.6575-.0774-2.9303-2.057-2.9303-3.7768z" fill="none" stroke="#000" stroke-linecap="round" stroke-linejoin="round"/></svg>