<svg viewBox="0 0 48 48" xmlns="http://www.w3.org/2000/svg"><g fill="none" stroke="#000" stroke-linecap="round" stroke-linejoin="round"><path d="m32.2632 34.9034a4.2983 4.2983 0 1 1 -4.2983 4.2983 4.3034 4.3034 0 0 1 4.2983-4.2983z"/><path d="m15.7368 4.5a4.2983 4.2983 0 1 1 -4.2983 4.2983 4.2976 4.2976 0 0 1 4.2983-4.2983z"/><path d="m16.3946 34.9034a4.2983 4.2983 0 1 1 -4.2892 4.2983 4.2976 4.2976 0 0 1 4.2892-4.2983z"/><path d="m32.2632 4.5a4.2983 4.2983 0 1 1 -4.2983 4.2983 4.2976 4.2976 0 0 1 4.2983-4.2983z"/><path d="m32.5065 34.9034c-.6578-13.8861-16.1029-7.9207-16.77-21.8068"/><path d="m32.2632 13.0966c0 3.9649-1.1024 7.323-3.3071 9.0832"/><path d="m16.3946 34.9034c0-3.9709.778-7.1608 2.9827-8.921"/></g></svg>