<svg viewBox="0 0 48 48" xmlns="http://www.w3.org/2000/svg"><g fill="none" stroke="#000" stroke-linecap="round" stroke-linejoin="round"><path d="m8.4 33.75v7.8a2 2 0 0 0 1.95 2h7.8"/><path d="m29.85 43.5h7.8a2 2 0 0 0 2-2v-7.8"/><path d="m18.15 4.5h-7.8a2 2 0 0 0 -1.95 2v7.8"/><path d="m39.6 14.25v-7.8a2 2 0 0 0 -2-1.95h-7.8"/><path d="m15.22 12.7h17.55"/><path d="m32.77 20.23h-17.55"/><path d="m15.22 27.77h9.75"/><path d="m15.22 35.3h5.85"/><path d="m26 32.84v2.46h2.4a1 1 0 0 0 .68-.29l8.1-8.11-2.85-2.84-8.1 8.1a1 1 0 0 0 -.23.68z"/><path d="m39.37 24.7a.74.74 0 0 0 0-1.06l-1.72-1.78a.77.77 0 0 0 -1.06 0l-2.26 2.21 2.85 2.84z"/></g></svg>