<svg viewBox="0 0 48 48" xmlns="http://www.w3.org/2000/svg"><g fill="none" stroke="#000"><circle cx="24" cy="24" r="15.3709" stroke-linecap="square" stroke-miterlimit="15.1181"/><g stroke-linecap="round" stroke-linejoin="round"><path d="m24 2.5 1.953 3.889h-3.906z"/><path d="m24 6.3892v3.83"/><path d="m39.203 8.797-1.369 4.131-2.762-2.762z"/><path d="m36.4527 11.5473-2.7082 2.7082"/><path d="m45.5 24-3.889 1.953v-3.906z"/><path d="m41.6108 24h-3.83"/><path d="m39.203 39.203-4.131-1.369 2.762-2.762z"/><path d="m36.4527 36.4527-2.7082-2.7082"/><path d="m24 45.5-1.953-3.889h3.906z"/><path d="m24 41.6108v-3.83"/><path d="m8.797 39.203 1.369-4.131 2.762 2.762z"/><path d="m11.5473 36.4527 2.7082-2.7082"/><path d="m2.5 24 3.889-1.953v3.906z"/><path d="m6.3892 24h3.83"/><path d="m8.797 8.797 4.131 1.369-2.762 2.762z"/><path d="m11.5473 11.5473 2.7082 2.7082"/><path d="m21.6175 20.1182c0-1.1648.5511-2.109 1.2309-2.109h2.3267c.68 0 1.2309.9442 1.2309 2.109 0 1.1647-.5511 2.109-1.2309 2.109h-2.3267c-.6798 0-1.2309-.9443-1.2309-2.109z"/><path d="m23.1642 22.2272h1.695v1.8336h-1.695z"/><path d="m27.6713 34.5h-7.3213a.8935.8935 0 0 1 -.9786-.9615 3.2777 3.2777 0 0 1 2.5475-3.2222l1.0181-.3089v-5.9466h2.15v5.9466l1.0158.3089a3.2568 3.2568 0 0 1 2.5264 3.3315c-.0274.5834-.3413.8105-.9579.8522z"/><path d="m24.0117 13.5v4.5091"/><path d="m21.9809 15.6668h4.0617"/><path d="m21.6175 24.0608h4.7885"/></g></g></svg>