<svg viewBox="0 0 48 48" xmlns="http://www.w3.org/2000/svg"><g fill="none" stroke="#000" stroke-linecap="round" stroke-linejoin="round"><path d="m11.3561 24a20.5026 20.5026 0 0 1 16.2309-20.0481 20.5 20.5 0 1 0 0 40.0962 20.5026 20.5026 0 0 1 -16.2309-20.0481z"/><path d="m33.0959 18.8118c2.4558-.6783 6.4151-4.5173 6.8273-6.4934 1.113 3.7211 1.5485 7.87-3.7783 12.351"/><path d="m36.1449 24.6694c1.8154 1.7877 7.12 3.297 9.0372 2.666-2.6662 2.8246-6.0421 5.2762-12.5855 2.9033"/><path d="m32.5966 30.2387c-.6405 2.466.7046 7.8143 2.21 9.1594-3.779-.8967-7.59-2.5941-8.8071-9.4476"/><path d="m25.9993 29.9505c-2.4559.6783-6.4151 4.5173-6.8274 6.4934-1.1129-3.7211-1.5485-7.87 3.7784-12.351"/><path d="m22.95 24.0929c-1.8154-1.7877-7.12-3.297-9.0372-2.6659 2.6661-2.8244 6.0416-5.2762 12.5854-2.9034"/><path d="m26.4985 18.5236c.6406-2.466-.7045-7.8143-2.21-9.1594 3.779.8967 7.59 2.5941 8.8071 9.4476"/><path d="m33.096 18.812-3.651 5.281-2.946-5.569"/><path d="m25.9993 29.9505 3.4456-5.8576"/><path d="m32.5966 30.2387-3.1517-6.1458"/><path d="m36.1449 24.6694-6.7-.5765"/><path d="m22.9503 24.0929h6.4946"/></g></svg>