<svg viewBox="0 0 48 48" xmlns="http://www.w3.org/2000/svg"><g fill="none" stroke="#000" stroke-linecap="round" stroke-linejoin="round"><path d="m30.82 24.09a6.82 6.82 0 1 0 -9.92 6.17l-2.73 14.62a21.62 21.62 0 0 0 5.83.61 21.3 21.3 0 0 0 5.84-.61l-2.72-14.62a6.88 6.88 0 0 0 3.7-6.17z"/><path d="m24 2.5a21.62 21.62 0 0 0 -10.87 40.24l3.32-10.18a11.42 11.42 0 0 1 -.83-16 11.22 11.22 0 0 1 15.93-.84 11.42 11.42 0 0 1 .83 16 9.41 9.41 0 0 1 -.83.84l3.32 10.18a21.68 21.68 0 0 0 7.7-29.53 21.41 21.41 0 0 0 -18.57-10.71z"/></g></svg>