<svg viewBox="0 0 48 48" xmlns="http://www.w3.org/2000/svg"><g fill="none" stroke="#000" stroke-linecap="round" stroke-linejoin="round"><path d="m40.5 5.5h-33a2 2 0 0 0 -2 2v33a2 2 0 0 0 2 2h33a2 2 0 0 0 2-2v-33a2 2 0 0 0 -2-2z"/><path d="m38.5 21.7305-6.9871 9.258"/><path d="m38.5 30.9885-6.9871-9.258"/><path d="m28.4911 29.2255a3.4927 3.4927 0 0 1 -3.0356 1.763 3.4936 3.4936 0 0 1 -3.4935-3.4936v-2.2708a3.4935 3.4935 0 0 1 3.4935-3.4936 3.4936 3.4936 0 0 1 3.4936 3.4936v1.1359h-6.9871"/><path d="m9.5 21.7305h4.891"/><path d="m11.5714 30.9885v-11.5315a2.4455 2.4455 0 0 1 2.4455-2.4455h.952a2.881 2.881 0 0 1 2.487 1.0232v11.2043a1.7468 1.7468 0 0 0 1.7468 1.7468h.524"/></g></svg>