<svg viewBox="0 0 48 48" xmlns="http://www.w3.org/2000/svg"><g fill="none" stroke="#000" stroke-linecap="round" stroke-linejoin="round"><path d="m24 33.4615-9.4615-9.4615 9.4615-9.4615 9.4615 9.4615z"/><path d="m24 8.2308-15.7692 15.7692 15.7692 15.7692 15.7692-15.7692z"/><path d="m25.5769 6.6538 3.1539-3.1538"/><path d="m41.3462 22.4231 3.1538-3.1539"/><path d="m38.1923 19.2692 3.1539-3.1538"/><path d="m28.7308 9.8077 3.1538-3.1539"/><path d="m41.3462 25.5769 3.1538 3.1539"/><path d="m38.1923 28.7308 3.1539 3.1538"/><path d="m25.5769 41.3462 3.1539 3.1538"/><path d="m28.7308 38.1923 3.1538 3.1539"/><path d="m22.4231 6.6538-3.1539-3.1538"/><path d="m19.2692 9.8077-3.1538-3.1539"/><path d="m22.4231 41.3462-3.1539 3.1538"/><path d="m19.2692 38.1923-3.1538 3.1539"/><path d="m6.6538 25.5769-3.1538 3.1539"/><path d="m9.8077 28.7308-3.1539 3.1538"/><path d="m6.6538 22.4231-3.1538-3.1539"/><path d="m9.8077 19.2692-3.1539-3.1538"/><path d="m16.1154 12.9615-3.1539-3.1538"/><path d="m12.9615 16.1154-3.1538-3.1539"/><path d="m31.8846 12.9615 3.1539-3.1538"/><path d="m35.0385 16.1154 3.1538-3.1539"/><path d="m31.8846 35.0385 3.1539 3.1538"/><path d="m35.0385 31.8846 3.1538 3.1539"/><path d="m16.1154 35.0385-3.1539 3.1538"/><path d="m12.9615 31.8846-3.1538 3.1539"/></g></svg>