<svg viewBox="0 0 48 48" xmlns="http://www.w3.org/2000/svg"><g fill="none" stroke="#000" stroke-linecap="round" stroke-linejoin="round"><path d="m20.88 4.5.21.17q4 3.11 2.69 7.33-4.37-1.8-2.95-7.33a.59.59 0 0 1 0-.17z"/><path d="m27.5 8.34c-.24 2-1.23 3.26-2.95 3.66-.24-1.85.74-3.08 2.95-3.66z"/><path d="m20.41 12.11a28.09 28.09 0 0 0 3.76.62 12.6 12.6 0 0 0 3.39-.17 4.8 4.8 0 0 0 2.78 4.44 13.87 13.87 0 0 1 3.53 2.6 13.48 13.48 0 0 1 4.13 9.93 13.42 13.42 0 0 1 -4.09 9.87 13.41 13.41 0 0 1 -9.69 4.09h-.22a13.43 13.43 0 0 1 -9.87-4.09 13.44 13.44 0 0 1 -4.13-9.88 13.45 13.45 0 0 1 4.09-9.87 14.18 14.18 0 0 1 3.39-2.54l.41-.21a4.7 4.7 0 0 0 2.49-4.18z"/><path d="m23.7 40.1a10.17 10.17 0 0 1 0-20.34"/><path d="m23.7 36.19a6.13 6.13 0 0 1 0-12.25"/><path d="m23.7 32.78a2.62 2.62 0 0 1 0-5.22"/></g></svg>