<svg viewBox="0 0 48 48" xmlns="http://www.w3.org/2000/svg"><g fill="none" stroke="#000" stroke-linecap="round" stroke-linejoin="round"><path d="m20.28 16.88a3.94 3.94 0 0 1 -.52-1.62 10.83 10.83 0 0 0 -2.38-4.9c-3.54-4.14-9.2-7.09-10.29-5.36-.65 1-.88 2.84-.74 6 .17 4.12 1 7.11 2.52 9.11l.61.79-.4.89c-.35.77-.39 1.34-.28 4.42.13 3.67.35 4.73 1.15 5.64s7.43 4.45 9.1 5m-5.93-10.74a2.66 2.66 0 0 1 1-.18c4.83 0 5.12 0 6.85 3.3a.64.64 0 0 1 -.51.93s-.28 0-.69 0c-1.05 0-3-.09-4.13-1.21a5.15 5.15 0 0 1 -1.13-3.05"/><path d="m29 36.8c1.67-.52 8.23-4 9.1-5s1-2 1.15-5.64c.11-3.08.07-3.65-.28-4.42l-.4-.89.61-.79c1.52-2 2.35-5 2.52-9.11.14-3.13-.09-4.93-.74-6-1.09-1.74-6.75 1.21-10.29 5.35a10.83 10.83 0 0 0 -2.38 4.9 3.94 3.94 0 0 1 -.52 1.62m.4-1a15.85 15.85 0 0 0 -4.17-.33 15.85 15.85 0 0 0 -4.12.34m2.38 27.46a3.35 3.35 0 0 1 -.78-2c-.05-1.14.51-2.35 2.52-2.35s2.57 1.21 2.52 2.35a3.35 3.35 0 0 1 -.78 2m7.77-17.36a5.15 5.15 0 0 1 -1.13 3.07c-1.11 1.12-3.08 1.21-4.13 1.21-.41 0-.68 0-.69 0a.64.64 0 0 1 -.51-.93c1.73-3.3 2-3.3 6.85-3.3a2.66 2.66 0 0 1 1 .18"/><path d="m29.23 33.18c-.37.24-.29 2-.29 4 0 4.25-.25 4.74-1.78 5.66a7.39 7.39 0 0 1 -6.32 0c-1.53-.92-1.78-1.41-1.78-5.66 0-2 .08-3.71-.29-4"/></g></svg>