<svg viewBox="0 0 48 48" xmlns="http://www.w3.org/2000/svg"><g fill="none" stroke="#000" stroke-linecap="round" stroke-linejoin="round"><path d="m14.2762 15.5261c1.1317.914 2.7422 2.3069 5.0056 2.3069 5.8326 0 9.4453-7.7043 11.4476-7.7043a14.8862 14.8862 0 0 0 -8.2312-2.481c-4.8968 0-8.2315 2.1328-8.222 7.8784z"/><path d="m11.585 27.67c-2.206.6428-4.4055.8773-5.1339-.5225-1.359-2.6114 2.4445-8.1475 7.8251-11.6214a39.4162 39.4162 0 0 1 11.3605-4.875"/><path d="m33.053 22.3275c-1.1317-.9141-2.7422-2.3069-5.0056-2.3069-5.8325 0-9.4453 7.7042-11.4475 7.7042a14.8854 14.8854 0 0 0 8.2312 2.4811c4.8967 0 8.2314-2.1329 8.2219-7.8784z"/><path d="m35.325 10.31c2.34-.7334 4.7786-1.093 5.5532.3956 1.359 2.6116-2.4445 8.1475-7.8252 11.6216a39.4162 39.4162 0 0 1 -11.36 4.875"/><path d="m23.7119 43.6589s14.756-15.1174 14.756-24.244a14.7561 14.7561 0 0 0 -29.5121 0c0 9.1266 14.7561 24.244 14.7561 24.244z"/></g></svg>