<svg viewBox="0 0 48 48" xmlns="http://www.w3.org/2000/svg"><g fill="none" stroke="#000" stroke-linecap="round" stroke-linejoin="round"><path d="m39.0764 15.7076a5.9281 5.9281 0 0 0 .0593-.7952 5.8018 5.8018 0 0 0 -.0593-.7834l1.7091-1.3056a.4036.4036 0 0 0 .095-.51l-1.6142-2.8015a.3917.3917 0 0 0 -.4866-.1781l-2.0178.8071a6.8349 6.8349 0 0 0 -1.365-.7952l-.3086-2.1365a.4035.4035 0 0 0 -.4035-.3442h-3.2048a.4155.4155 0 0 0 -.4273.3205l-.2966 2.1365a6.5124 6.5124 0 0 0 -1.365.7952l-2.0178-.8072a.38.38 0 0 0 -.4866.178l-1.6261 2.8012a.4035.4035 0 0 0 .1069.51l1.6973 1.3175a4.3067 4.3067 0 0 0 0 .7834v.7952l-1.6973 1.3294a.4035.4035 0 0 0 -.1069.5222l1.65 2.813a.3679.3679 0 0 0 .4866.1662l2.0178-.8071a6.0405 6.0405 0 0 0 1.3649.7952l.2967 2.1483a.4036.4036 0 0 0 .4036.3324h3.1572a.4156.4156 0 0 0 .4036-.3324l.356-2.1483a6.0415 6.0415 0 0 0 1.3769-.7952l2.0059.8071a.4154.4154 0 0 0 .4985-.1662l1.6142-2.8011a.4154.4154 0 0 0 -.095-.5223zm-6.0058.997a1.78 1.78 0 0 1 0-3.5608 1.7685 1.7685 0 0 1 1.7685 1.7685 1.78 1.78 0 0 1 -1.7685 1.7922z"/><path d="m24.3967 45.4967a21.5 21.5 0 0 1 -21.7574-19.2495"/><path d="m37.3649 23.4016 5.3775 5.3866a.7225.7225 0 0 1 -.029 1.0207l-13.2151 13.193a.7225.7225 0 0 1 -1.0207.0272l-23.6918-23.7315a.7226.7226 0 0 1 .029-1.0206l13.2152-13.193a.7227.7227 0 0 1 1.0207-.0273l4.7134 4.7213"/><path d="m24.3967 45.4967-6.6711-6.1641-3.2489 3.9326"/></g></svg>