<svg viewBox="0 0 48 48" xmlns="http://www.w3.org/2000/svg"><circle cx="24" cy="24" fill="none" r="21.5" stroke="#000" stroke-linecap="round" stroke-linejoin="round"/><path d="m8.0931 38.4644a9.99 9.99 0 1 0 -5.052-19.2794" fill="none" stroke="#000" stroke-linecap="round" stroke-linejoin="round"/><circle cx="26.715" cy="7.8645" r=".75"/><circle cx="22.6756" cy="25.9486" r=".75"/><circle cx="35.5758" cy="23.25" r=".75"/><circle cx="40.7418" cy="28.7664" r=".75"/><circle cx="19.7637" cy="41.0888" r=".75"/><g fill="none" stroke="#000" stroke-linecap="round" stroke-linejoin="round"><path d="m29.24 31.14a5.3071 5.3071 0 0 0 5.3071 5.3071"/><path d="m34.5466 36.4474a5.3071 5.3071 0 0 0 -5.3066 5.3071"/><path d="m29.24 41.7545a5.3071 5.3071 0 0 0 -5.3071-5.3071"/><path d="m23.9324 36.4474a5.3071 5.3071 0 0 0 5.3076-5.3074"/><path d="m38.1588 12.812a3.333 3.333 0 0 0 3.333 3.333"/><path d="m41.4918 16.145a3.333 3.333 0 0 0 -3.333 3.333"/><path d="m38.1588 19.478a3.3331 3.3331 0 0 0 -3.333-3.333"/><path d="m34.8258 16.145a3.333 3.333 0 0 0 3.333-3.333"/><path d="m15.9716 7.4874a4.542 4.542 0 0 0 4.5421 4.542"/><path d="m20.5137 12.0294a4.5421 4.5421 0 0 0 -4.5421 4.5421"/><path d="m15.9716 16.5715a4.5421 4.5421 0 0 0 -4.5416-4.5421"/><path d="m11.43 12.0294a4.542 4.542 0 0 0 4.5421-4.542"/></g></svg>