<svg viewBox="0 0 48 48" xmlns="http://www.w3.org/2000/svg"><g fill="none" stroke="#000" stroke-linecap="round" stroke-linejoin="round"><circle cx="24" cy="24" r="21.5"/><circle cx="24" cy="24" r="18.5"/><circle cx="28.8662" cy="26.1057" r="12.6441"/><circle cx="28.6446" cy="26.1762" r="8.4932"/><path d="m24.7657 18.9323a5.6017 5.6017 0 0 1 4.5843 5.4405 5.3984 5.3984 0 0 1 -5.4 5.39 4.6744 4.6744 0 0 1 -3.3852-1.31m-6.3875 7.7678 3.0727-4.1106m3.4758-4.1812 9.1985-10.12m2.8207-3.7405 3.8924-4.8533m-16.0024.8513 1.32 5.0979m1.209 4.8058 3.6471 14.4778m2.0553 4.302.8721 4.11m-8.4185-20.3408 14.5482 7.1028m-19.213-7.929c-3.8788 1.4206-6.2565 3.7479-8.1405 11.818"/><path d="m22.0656 21.1387a8.055 8.055 0 0 1 1.9142-.06 9.9944 9.9944 0 0 1 9.9441 9.0271c.03.3224-.1109 2.2367-.1109 2.5692m-3.3952 6.045c-1.743 1.471-2.63 2.5591-6.448 2.3576a10.76 10.76 0 0 1 -10.0246-9.5914 9.2529 9.2529 0 0 1 2.1459-7.4362m1.9143-3.0628 3.0023 1.33m-1.0077-4.201 2.1259 2.6094m1.4911-5.6923.2015 3.97m6.1054-4.977-2.68 3.5363m8.7451-1.209-3.5766 1.9948m8.3522 4.5741-4.01.03m3.0124 8.2716-2.9013-1.1791m-3.7579 7.254-1.9747-2.8512m-6.4077 2.9622.1007-3.5867m-5.7125-.2015 1.8941-3.4255m-3.9191-1.884 2.962-1.5717m-3.1938-2.3475 3.4961-.403"/><circle cx="20.232" cy="8.6961" r=".9873"/><path d="m24 2.5v2.9318"/><path d="m28.4701 2.9698-.6096 2.8678"/><path d="m32.7448 4.3588-1.1924 2.6783"/><path d="m36.6374 6.6061-1.7233 2.3719"/><path d="m39.9776 9.6137-2.1788 1.9618"/><path d="m42.6195 13.25-2.539 1.4659"/><path d="m44.4477 17.3561-2.7883.906"/><path d="m45.3822 21.7526-2.9157.3065"/><path d="m45.3822 26.2474-2.9157-.3065"/><path d="m44.4477 30.6439-2.7883-.906"/><path d="m42.6195 34.75-2.539-1.4659"/><path d="m39.9776 38.3863-2.1788-1.9618"/><path d="m36.6374 41.3939-1.7233-2.3719"/><path d="m32.7448 43.6412-1.1924-2.6783"/><path d="m28.4701 45.0302-.6096-2.8678"/><path d="m24 45.5v-2.9318"/><path d="m19.5299 45.0302.6096-2.8678"/><path d="m15.2552 43.6412 1.1924-2.6783"/><path d="m11.3626 41.3939 1.7233-2.3719"/><path d="m8.0224 38.3863 2.1788-1.9618"/><path d="m5.3805 34.75 2.539-1.4659"/><path d="m3.5523 30.6439 2.7883-.906"/><path d="m2.6178 26.2474 2.9157-.3065"/><path d="m2.6178 21.7526 2.9157.3065"/><path d="m3.5523 17.3561 2.7883.906"/><path d="m5.3805 13.25 2.539 1.4659"/><path d="m8.0224 9.6137 2.1788 1.9618"/><path d="m11.3626 6.6061 1.7233 2.3719"/><path d="m15.2552 4.3588 1.1924 2.6783"/><path d="m19.5299 2.9698.6096 2.8678"/><path d="m24 2.5v2.9318"/></g></svg>