<svg viewBox="0 0 48 48" xmlns="http://www.w3.org/2000/svg"><g fill="none" stroke="#000" stroke-linecap="round" stroke-linejoin="round"><path d="m24.64 40.4878a16.5009 16.5009 0 0 0 15.8477-15.8455"/><path d="m7.5123 24.6424a16.5008 16.5008 0 0 0 15.8477 15.8454"/><path d="m23.3577 7.5123a16.5008 16.5008 0 0 0 -15.8454 15.8454"/><path d="m40.4877 23.3577a16.5008 16.5008 0 0 0 -15.8454-15.8454"/><path d="m25.823 16.725-1.823-14.225-1.823 14.224"/><path d="m22.177 31.275 1.823 14.225 1.823-14.225"/><path d="m16.725 22.177-14.225 1.823 14.225 1.823"/><path d="m31.276 25.823 14.224-1.823-14.225-1.823"/><circle cx="24" cy="24" r="7.5"/><path d="m29.3027 29.3027 9.1973 9.1973"/><path d="m9.5 9.5 9.1976 9.1976"/><path d="m18.6975 29.3025-9.1975 9.1975"/><path d="m38.5 9.5-9.1967 9.1967"/></g></svg>