<svg viewBox="0 0 48 48" xmlns="http://www.w3.org/2000/svg"><g fill="none" stroke="#000" stroke-linecap="round" stroke-linejoin="round"><path d="m5.5 8.6169a5.7764 5.7764 0 0 1 5.3916-2.683c3.6157 0 3.6795 6.95 5.6726 9.1478s5.3533 2.2614 9.71 7.1164a120.2058 120.2058 0 0 0 11.8819 10.8342l-3.3985-.5877 7.7424 6.1582s-2.3508 2.8491-2.6319 3.2451-1.84.2683-2.6319-.511-7.3847-6.72-7.3847-6.72-4.273-.14-5.9183-1.0988l-8.5572 5.8513-2.5552-3.22 3.8073-4.3694s-5.8771-4.1651-6.5159-9.4161a35.7141 35.7141 0 0 1 .4727-10.4127 3.36 3.36 0 0 0 -2.8874-3.3212 16.4449 16.4449 0 0 0 -2.1975-.0131z"/><path d="m30.595 26.525 1.914-2.193-3.143-2.913-2.201 1.743"/><path d="m16.6281 31.78c1.5843.5621 5.718 1.367 7.3051 1.7375"/></g></svg>