<svg viewBox="0 0 48 48" xmlns="http://www.w3.org/2000/svg"><g fill="none" stroke="#000" stroke-linecap="round" stroke-linejoin="round"><path d="m24 24.1506v-6.939"/><path d="m20.686 18.3979a6.6379 6.6379 0 1 0 6.6281 0"/><circle cx="24" cy="24" r="21.5"/><path d="m11.0853 9.6961a2.476 2.476 0 0 1 2.1892-.6395l1.4451.2845.1122 1.1776-2.3154.5776.1144 1.0639 3.3645 1.4146v-2.8178l1.9346.5012.3785 1.139 1.0795-.8551 1.2336 2.0887-3.0081 1.0085.7791 1.0383-2.4184 1.2544a1.9645 1.9645 0 0 0 -.8657.892l-.3506.7286a1.9647 1.9647 0 0 1 -1.4571 1.0874l-1.027.1658a.5438.5438 0 0 0 -.4235.7251l.68 1.8437a.645.645 0 0 0 .1864.2674l1.4981 1.2785-.9386.4169a.6446.6446 0 0 1 -.4069.039l-2.1705-.5007a1.4021 1.4021 0 0 1 -.9887-.85l-1.5371-3.8857-.6772-.7848a3.1071 3.1071 0 0 1 -.3409-3.5788l.1465-.2548a21.51 21.51 0 0 1 3.784-4.8257z"/><path d="m35.4628 8.7024 1.3967 1.16a15.3345 15.3345 0 0 1 3.3046 3.8276l.2875.4727a15.331 15.331 0 0 1 1.6252 3.6934l.3072 1.058a7.0385 7.0385 0 0 1 .2792 1.9627v1.221l-1.35.4066-2.9463-4.0359.6753-2.1043-2.1589.14-1.7244-1.3742-.903 1.36-1.9288-1.36-1.4579.982-.7711-1.6682.8972-1.1775 2.2206-1.4279-2.1084-1.0394.7009-1.458 2.0733-.8731a1.54 1.54 0 0 1 1.5811.2345z"/><path d="m34.7293 20.3092 1.5371.9058 1.951-.1122 2.4226 4.8084 1.1075 1.6262.8551-.4486 1.0093.9813-1.514 1.78-1.8079 1.0518.4363 2.5856a1.6212 1.6212 0 0 1 -.448 1.4118l-1.3875 1.3977-1.0952 1.0554a1.6218 1.6218 0 0 1 -.8023.4213l-.5336.1084a1.6212 1.6212 0 0 1 -1.877-1.128l-.8537-2.88 1.2196-2.8741-1.0514-1.514 1.5841-3.9253-.2763-2.4392-1.2617-1.2336.0293-1.1589a.502.502 0 0 1 .7567-.4198z"/><path d="m17.0467 32.4033 2.5 2.0521 3.36 1.1007 2.986-.4346-1.4439 1.9626-1.78.729-1.7928 3.0006a.89.89 0 0 1 -.1391.1772l-1.3811 1.3607a.8881.8881 0 0 1 -1.0074.1682l-.4339-.2081a.8882.8882 0 0 1 -.5009-.8754l.4883-5.7891-1.1075-1.2407z"/><path d="m35.1589 15.13a13.6443 13.6443 0 0 0 -1.1689-1.1487"/><path d="m31.3586 13.0327-1.4589-1.1483"/><path d="m28.7944 13.0622 1.6296-.7652"/><path d="m7.8531 18.77-.3725 1.4667a2.1373 2.1373 0 0 0 .0315 1.1633l.341 1.0911"/></g></svg>