<svg viewBox="0 0 48 48" xmlns="http://www.w3.org/2000/svg"><g fill="none" stroke="#000" stroke-linecap="round" stroke-linejoin="round"><path d="m40.5 5.5h-33a2 2 0 0 0 -2 2v33a2 2 0 0 0 2 2h33a2 2 0 0 0 2-2v-33a2 2 0 0 0 -2-2z"/><path d="m26.27 28.55h4.55"/><path d="m26.27 19.45h4.55"/><path d="m26.27 24h2.96"/><path d="m26.27 19.45v9.1"/><path d="m15.58 22.5a3 3 0 0 0 -3.2-3 3.15 3.15 0 0 0 -2.88 3.17v2.83a3 3 0 0 0 3 3.05 3 3 0 0 0 3-3.05v-3"/><path d="m20 19.45a2.27 2.27 0 0 0 -2.26 2.28 2.27 2.27 0 0 0 2.26 2.27h.77"/><path d="m20.8 24h.77a2.27 2.27 0 0 1 2.27 2.27 2.27 2.27 0 0 1 -2.27 2.28"/><path d="m23.63 20.22a3.87 3.87 0 0 0 -2.83-.77h-.8"/><path d="m18 27.78a3.85 3.85 0 0 0 2.82.77h.77"/><path d="m34.69 19.45a2.28 2.28 0 0 0 -2.27 2.28 2.27 2.27 0 0 0 2.27 2.27h.77"/><path d="m35.46 24h.77a2.27 2.27 0 0 1 2.27 2.27 2.28 2.28 0 0 1 -2.27 2.28"/><path d="m38.28 20.22a3.82 3.82 0 0 0 -2.82-.77h-.77"/><path d="m32.64 27.78a3.84 3.84 0 0 0 2.82.77h.77"/></g></svg>