<svg viewBox="0 0 48 48" xmlns="http://www.w3.org/2000/svg"><g fill="none" stroke="#000" stroke-linecap="round" stroke-linejoin="round"><path d="m29.63 16.18a2.1 2.1 0 0 0 -1 .21l-12.21 5.5a1.25 1.25 0 0 0 .09 2.45l4.32 1.66 1.61 4.29a1.25 1.25 0 0 0 2.45.09l5.5-12.21c.49-1.08.09-1.88-.76-1.94z"/><path d="m18.66 3.2c-6.1 1.61-12.34 8.13-13.77 14.28a19.64 19.64 0 0 0 14.11 23.65 3 3 0 0 1 1.4.87l3.24 3.41a.5.5 0 0 0 .7 0l3.25-3.41a3 3 0 0 1 1.41-.86 19.66 19.66 0 0 0 -10.34-37.94zm5.34 30.68a11.7 11.7 0 1 1 .06 0z"/></g></svg>