<svg viewBox="0 0 48 48" xmlns="http://www.w3.org/2000/svg"><path d="m5.5 5.74h37a1 1 0 0 1 1 1v31.72a1 1 0 0 1 -1 1h-37a1 1 0 0 1 -1-1v-31.72a1 1 0 0 1 1-1z" fill="none" stroke="#000" stroke-linecap="round" stroke-linejoin="round"/><circle cx="40.27" cy="37.16" r=".75"/><circle cx="35.79" cy="37.16" r=".75"/><circle cx="31.31" cy="37.16" r=".75"/><g fill="none" stroke="#000" stroke-linecap="round" stroke-linejoin="round"><path d="m7.32 8.17h33.36v26.06h-33.36z"/><path d="m7.32 22.6h6.49l2.53-8.61 4.29 15.79 3.37-11.81 2.18 7.68 1.82-3.05h12.68"/></g></svg>