<svg viewBox="0 0 48 48" xmlns="http://www.w3.org/2000/svg"><g fill="none" stroke="#000" stroke-linecap="round" stroke-linejoin="round"><circle cx="31.9532" cy="18.1523" r="10.5484"/><path d="m14.157 39.4107a15.11 15.11 0 0 1 1.8363.5685 49.5472 49.5472 0 0 0 6.263-2.0651 77.7143 77.7143 0 0 0 8.4637 2.4375 24.38 24.38 0 0 0 8.5313-2.2344 23.6319 23.6319 0 0 1 2.1787-8.4636 11.4262 11.4262 0 0 0 -1.342-4.7873"/><path d="m41.43 13.5153a28.9209 28.9209 0 0 0 -2.28-9.0153c-1.7943 1.0833-8.1927 3.104-8.1927 3.104s-4.8416-2.534-8.2948-2.7316a53.4625 53.4625 0 0 1 -8.125 2.37s-5.9244-2.7424-9.039-2.2684c1.6927 2.6744 2.9453 8.5413 2.9453 8.5413l-2.3021 7.7764s1.9974 6.1276 2.1667 8.6328a40.1327 40.1327 0 0 0 -2.0651 8.7682s.9707-.0459 2.394.0088"/><path d="m12.785 26.3086h4.4047v18.3165h-4.4047z" transform="matrix(.70710678 .70710678 -.70710678 .70710678 29.4685 -.2097)"/><path d="m25.605 26.576-3.278 3.278-1.727-1.726 3.238-3.238"/><path d="m30.7614 21.0978a.949.949 0 1 1 .3321-1.3.9489.9489 0 0 1 -.3321 1.3z"/><path d="m35.525 18.2727a.949.949 0 1 1 .3321-1.3.949.949 0 0 1 -.3321 1.3z"/><path d="m30.1487 14.6513a6.7828 6.7828 0 0 1 9.294 2.3741.9644.9644 0 0 1 -.3376 1.3216l-10.0351 5.9518a.9645.9645 0 0 1 -1.3216-.3375 6.7829 6.7829 0 0 1 2.3739-9.2941z"/><path d="m24.595 16.7694 2.8138.9629"/><path d="m34.6707 10.7937-.5045 2.931"/></g></svg>