<svg viewBox="0 0 48 48" xmlns="http://www.w3.org/2000/svg"><g fill="none" stroke="#000" stroke-linecap="round" stroke-linejoin="round"><circle cx="24" cy="24" r="21.5"/><rect height="8.4" rx="3.17" width="6.34" x="9.22" y="19.96"/><path d="m27.57 20v5.23a3.16 3.16 0 0 0 3.17 3.17 3.16 3.16 0 0 0 3.16-3.17v-5.23"/><path d="m33.9 25.19v3.17"/><path d="m18.86 27.65a3.56 3.56 0 0 0 2.61.71h.71a2.1 2.1 0 0 0 2.1-2.1 2.1 2.1 0 0 0 -2.1-2.1h-1.42a2.1 2.1 0 0 1 -2.1-2.1 2.1 2.1 0 0 1 2.1-2.1h.71a3.56 3.56 0 0 1 2.61.71"/></g><circle cx="38.03" cy="28.17" r=".75"/><path d="m38.03 15.49v9.43" fill="none" stroke="#000" stroke-linecap="round" stroke-linejoin="round"/></svg>