<svg viewBox="0 0 48 48" xmlns="http://www.w3.org/2000/svg"><g fill="none" stroke="#000" stroke-linecap="round" stroke-linejoin="round"><path d="m13.7525 40.6759c.62-10.2925 1.17-16.6072.8515-28.441"/><path d="m24 8.4792a139.64 139.64 0 0 1 -19.5-1.1551"/><path d="m7.73 7.7157-.038 3.7919a111.8544 111.8544 0 0 0 16.308 1.0181 111.8529 111.8529 0 0 0 16.3079-1.0181l.0119-3.797"/><path d="m24 12.5257v3.778h-13.9416"/><path d="m34.2475 40.6759c-.62-10.2925-1.17-16.6072-.8515-28.441"/><path d="m24 8.4792a139.64 139.64 0 0 0 19.5-1.1551"/><path d="m24 16.3037h13.9416"/></g></svg>