<svg viewBox="0 0 48 48" xmlns="http://www.w3.org/2000/svg"><path d="m45.5 24a21.5 21.5 0 1 1 -21.5-21.5 21.51 21.51 0 0 1 21.5 21.5zm-21.68 3.85v-6.65m-2.74 4v-3.95m-5.29 3.94v-3.94m5.29 3.94a2.65 2.65 0 1 1 -5.29 0m16.21-3.19a3.3 3.3 0 0 0 -3.65-.34 3.24 3.24 0 0 0 .52 6 3.35 3.35 0 0 0 3.61-.88v-2.15h-2.09m11-.09a3.24 3.24 0 1 1 -3.29-3.24 3.24 3.24 0 0 1 3.24 3.24zm-28.08 0a3.23 3.23 0 0 1 -3.31 3.23 3.24 3.24 0 1 1 3.23-3.23zm32.19-.54a21.5 21.5 0 1 1 -21.5-21.5 21.51 21.51 0 0 1 21.5 21.5z" fill="none" stroke="#000" stroke-linecap="round" stroke-linejoin="round"/><circle cx="23.82" cy="18.44" r=".75"/></svg>