<svg viewBox="0 0 48 48" xmlns="http://www.w3.org/2000/svg"><g fill="none" stroke="#000" stroke-linecap="round" stroke-linejoin="round"><path d="m42.63 21.85-16.63-14.21a3 3 0 0 0 -3.9 0l-16.73 14.21a2.43 2.43 0 0 0 -.29 3.44 2.39 2.39 0 0 0 1.92.87h2.09v13.29a1.63 1.63 0 0 0 1.63 1.63h7.35a1.63 1.63 0 0 0 1.63-1.63v-8.18a1 1 0 0 1 1-1h6.64a1 1 0 0 1 1 1v8.18a1.63 1.63 0 0 0 1.63 1.63h7.35a1.63 1.63 0 0 0 1.63-1.63v-13.29h2.05a2.44 2.44 0 0 0 1.59-4.31z"/><path d="m32.45 13.18v-5.26a.4.4 0 0 1 .39-.39h5.68a.4.4 0 0 1 .39.39v10.75"/></g></svg>