<svg viewBox="0 0 48 48" xmlns="http://www.w3.org/2000/svg"><path d="m24 11.57 1 1.86 2.07.26-1.47 1.48.39 2-1.99-.88-1.83 1 .31-2.06-1.48-1.43 2.06-.34zm-12 1.77s2.72 3.4 6.3 4.15a40.8 40.8 0 0 0 .34 4.78 44.2 44.2 0 0 0 1.46 4.78c0-.41.16-.83.21-1.23a11.1 11.1 0 0 1 0-6.41 12.92 12.92 0 0 1 1.78 1.71 4.8 4.8 0 0 1 1.91-.37 4.92 4.92 0 0 1 1.93.38 12.5 12.5 0 0 1 1.78-1.72 11 11 0 0 1 0 6.44c0 .42.08 1.68.2 1.27a42.93 42.93 0 0 0 1.47-4.82 39.1 39.1 0 0 0 .34-4.81c3.58-.75 6.3-4.15 6.3-4.15-2.55 16.46-8.91 18-8.91 18 1.47 0 1.51 2 1 2.18a3.06 3.06 0 0 0 -2.08.31 10.51 10.51 0 0 1 1 1.59 5.85 5.85 0 0 0 -1.51 1 7.7 7.7 0 0 0 -.8-3.14 3.22 3.22 0 0 1 -.71.08 3.38 3.38 0 0 1 -.72-.08 7.5 7.5 0 0 0 -.8 3.14 6 6 0 0 0 -1.51-1 10.92 10.92 0 0 1 1-1.61 3.36 3.36 0 0 0 -2-.29c-.53-.22-.49-2.15 1-2.18s-6.36-1.57-8.91-18z" fill="none" stroke="#000" stroke-linecap="round" stroke-linejoin="round"/><path d="m22.27 23.1a.75.75 0 0 0 0 1.49.75.75 0 0 0 .74-.75.75.75 0 0 0 -.74-.74z"/><path d="m25.7 23.1a.75.75 0 1 0 .75.74.75.75 0 0 0 -.75-.74z"/><path d="m22.2 4.86-15.51 6.39v15.75c0 8.44 17.31 16.5 17.31 16.5s17.31-8.06 17.31-16.5v-15.75l-15.51-6.39a4.68 4.68 0 0 0 -3.6 0z" fill="none" stroke="#000" stroke-linecap="round" stroke-linejoin="round"/></svg>