<svg viewBox="0 0 48 48" xmlns="http://www.w3.org/2000/svg"><g fill="none" stroke="#000" stroke-linecap="round" stroke-linejoin="round"><path d="m40.914 14.296-16.967-9.796-16.861 9.735 16.967 9.796z"/><path d="m24.053 24.031-16.967-9.796v19.469l16.967 9.796z"/><path d="m40.914 14.296-16.861 9.735v19.469l16.861-9.735z"/><path d="m15.8845 15.6206 9.59-5.5366 2.1713 1.2535c2.3317 1.3462 2.3435 3.522.0263 4.86l-1.1987.6921a9.3027 9.3027 0 0 1 -8.4174-.0152z"/><path d="m12.373 32.589v-11.073l6.393 14.764v-11.073"/><path d="m29.478 34.9259c.5917.5424 1.3338.4433 2.3661-.1527l1.4286-.8249a5.31 5.31 0 0 0 2.4073-4.1583c0-1.5289-1.0778-2.146-2.4073-1.3784l-1.5785.9113c-1.3295.7676-2.4073.1505-2.4073-1.3784a5.31 5.31 0 0 1 2.4073-4.1582l1.4287-.8249c1.0323-.596 1.7743-.6951 2.366-.1527"/></g></svg>