<svg viewBox="0 0 48 48" xmlns="http://www.w3.org/2000/svg"><g fill="none" stroke="#000" stroke-linecap="round" stroke-linejoin="round"><path d="m36.3341 35.7108-9.1926-4.8493"/><path d="m29.2178 21.2016a6.9268 6.9268 0 0 0 9.72.2116 6.7932 6.7932 0 0 0 -.1736-9.6126"/><path d="m30.5082 19.9277a3.1737 3.1737 0 0 0 4.4763.0693 3.1085 3.1085 0 0 0 -.05-4.4243"/><circle cx="24" cy="24" r="21.5"/><path d="m36.3293 23.0689v14.86h-24.6586v-14.86"/><path d="m20.8585 30.8615-9.1926 4.8493"/><path d="m36.3293 23.0689c-3.4975 3.6484-7.129 8.3629-12.41 8.3629s-8.7514-4.7145-12.2489-8.3629"/><path d="m7.5568 10.1476 16.4432 16.1924 16.4432-16.192"/><path d="m9.2353 11.8006a6.7932 6.7932 0 0 0 -.1736 9.6126 6.9268 6.9268 0 0 0 9.7205-.2116"/><path d="m13.066 15.5727a3.1085 3.1085 0 0 0 -.0505 4.4243 3.1737 3.1737 0 0 0 4.4763-.0693"/><path d="m15.5052 23.0689h5.1733"/><path d="m27.3215 23.0689h5.1733"/></g></svg>