<svg viewBox="0 0 48 48" xmlns="http://www.w3.org/2000/svg"><g fill="none" stroke="#000" stroke-linecap="round" stroke-linejoin="round"><path d="m8.4 6.45v35.1a1.95 1.95 0 0 0 1.95 1.95h2.3755v-39h-2.3755a1.95 1.95 0 0 0 -1.95 1.95z"/><path d="m12.7257 4.5v39h24.9242a1.95 1.95 0 0 0 1.95-1.95v-35.1a1.95 1.95 0 0 0 -1.9499-1.95z"/><path d="m17.6628 18h17v12h-17z"/><path d="m26.1628 30v-12"/><path d="m17.6628 24h17"/><path d="m17.6628 18 17 12"/><path d="m34.663 18-6.634 4.683-10.366 7.317"/></g></svg>