<svg viewBox="0 0 48 48" xmlns="http://www.w3.org/2000/svg"><g fill="none" stroke="#000" stroke-linecap="round" stroke-linejoin="round"><path d="m43.2033 23.42c0 4.3661 1.1483 2.6156-1.0731 14.928-3.5686 4.6442-12.3123 3.9067-18.4851 4.2436-7.635.4159-9.7389.2922-18.6128-4.4733-.4912-7.0213-.7859-11.9705-.2348-13.6865.6673-2.0759 1.22-2.7611 1.5592-5.1508 1.2746-10.367 9.3293-14.025 17.4338-14.025 10.7928 0 19.4128 7.5227 19.4128 18.164z"/><path d="m10.7636 14.2843c5.0755-3.0022 12.415-4.8218 28.2451-2.4256m-24.721-1.8359a38.9036 38.9036 0 0 1 21.9989-.7276"/><ellipse cx="9.8233" cy="33.5847" rx="3.7307" ry="6.5198"/><path d="m10.5748 17.1908 4.4707-1.22v12.1965m-1.7518 10.0553a125.6443 125.6443 0 0 0 29.0919-1.3126"/><circle cx="19.2943" cy="15.7439" r="1.3946"/><circle cx="28.3455" cy="15.8409" r="1.3946"/><path d="m31.5314 29.3985c.0178 1.6128-1.9241 2.58-3.0252 2.58-.962 0-3.3135-.48-3.3237-1.8067l-.07-9.0423c-.0128-1.7071 1.7709-2.4025 2.9166-2.4025 1.1586 0 3.39.98 3.41 2.7126z"/><circle cx="36.2866" cy="15.7554" r="1.3946"/><circle cx="28.3608" cy="23.4312" r="1.3946"/><circle cx="28.2153" cy="28.5564" r="1.3946"/><path d="m11.9017 40.5575a128.442 128.442 0 0 0 29.4147-1.32m1.6614-18.7472c-1.5544.709-.9381 2.5655-3.2794 2.4214l-.259 9.018c2.6219.2833.6888 3.1553 3.1219 3.9578m-32.6257-2.41 1.4124-3.3645m-1.6587 4.8306 1.1547 3.4934m-2.192-4.6481-2.5594-.8856"/></g></svg>