<svg viewBox="0 0 48 48" xmlns="http://www.w3.org/2000/svg"><g fill="none" stroke="#000" stroke-linecap="round" stroke-linejoin="round"><path d="m19.5324 8.0944-2.1695 3.0033a.99.99 0 0 1 -.8051.4144c-1.7258.0008-7.4322.003-10.2678.0016a1.7893 1.7893 0 0 0 -1.7909 1.7926v25.2229a1.79 1.79 0 0 0 1.7909 1.7908h35.4182a1.7894 1.7894 0 0 0 1.7909-1.7927v-25.2227a1.7894 1.7894 0 0 0 -1.7909-1.7927h-10.26a1 1 0 0 1 -.8108-.4147l-2.1681-3.0026a1 1 0 0 0 -.8108-.4147h-7.3155a1 1 0 0 0 -.8106.4145z"/><path d="m21.765 29.42-4.339-6.244-6.42 9.238h25.924"/><path d="m36.93 32.414-9.684-13.936-6.542 9.414"/></g></svg>