<svg viewBox="0 0 48 48" xmlns="http://www.w3.org/2000/svg"><g fill="none" stroke="#000" stroke-linecap="round" stroke-linejoin="round"><path d="m22.3627 25.5651-18.8627 2.1986c4.6888 10.1089 15.4841 18.2453 28.8425 15.7656 10.7757-2 12.9416-14.8956 6.8612-24.0677-5.076-7.657-12.1327-12.1806-22.6267-12.3888-5.42-.1075-10.069 1.9071-12.7759 6.84z"/><path d="m42.787 34.4444c2.9838-5.1464 1.8467-12.6941-1.6906-18.03-5.0764-7.6571-12.1327-12.1806-22.6264-12.3889-5.42-.1075-10.069 1.9071-12.7759 6.84"/><path d="m3.5 27.7637 1.8927-3.0472"/><path d="m3.8011 13.9124 1.8927-3.0472"/><path d="m18.5652 23.1811-13.1725 1.5354"/><path d="m40.4688 38.0715 2.3182-3.6271"/></g></svg>