<svg viewBox="0 0 48 48" xmlns="http://www.w3.org/2000/svg"><g fill="none" stroke="#000" stroke-linecap="round" stroke-linejoin="round"><path d="m18.2358 18.8332a1.9846 1.9846 0 1 1 1.9847-1.9846 1.9845 1.9845 0 0 1 -1.9847 1.9846z"/><path d="m29.7865 18.8332a1.9846 1.9846 0 1 1 1.9845-1.9846 1.9847 1.9847 0 0 1 -1.9845 1.9846z"/><path d="m24 6.6148a14.147 14.147 0 0 1 14.147 14.147v2.0194a0 0 0 0 1 0 0h-28.294a0 0 0 0 1 0 0v-2.0193a14.147 14.147 0 0 1 14.147-14.1471z"/><path d="m11.7836 4.5 4.0192 4.7309"/><path d="m36.2164 4.5-4.0192 4.7309"/><path d="m9.853 22.7813h28.294a0 0 0 0 1 0 0v18.2812a2.4375 2.4375 0 0 1 -2.437 2.4375h-23.42a2.4375 2.4375 0 0 1 -2.437-2.4375v-18.2812a0 0 0 0 1 0 0z"/><path d="m29.0575 33.7959a4.447 4.447 0 0 0 0-1.33l1.44-1.1a.33.33 0 0 0 .08-.43l-1.36-2.36a.33.33 0 0 0 -.41-.15l-1.7.68a5.68 5.68 0 0 0 -1.15-.67l-.26-1.8a.35.35 0 0 0 -.34-.29h-2.7a.35.35 0 0 0 -.36.27l-.25 1.8a5.4831 5.4831 0 0 0 -1.15.67l-1.7-.68a.33.33 0 0 0 -.41.15l-1.37 2.36a.34.34 0 0 0 .09.43l1.43 1.11a4.8442 4.8442 0 0 0 0 .66v.67l-1.43 1.12a.35.35 0 0 0 -.09.44l1.39 2.37a.32.32 0 0 0 .41.14l1.7-.68a4.8806 4.8806 0 0 0 1.15.67l.25 1.81a.34.34 0 0 0 .34.28h2.66a.34.34 0 0 0 .34-.28l.3-1.81a5.0939 5.0939 0 0 0 1.15-.67l1.69.68a.35.35 0 0 0 .42-.14l1.36-2.36a.35.35 0 0 0 -.08-.44zm-5.06.84a1.5 1.5 0 1 1 0-3h.01a1.49 1.49 0 0 1 1.49 1.49v.01a1.5 1.5 0 0 1 -1.4999 1.5z"/></g></svg>