<svg viewBox="0 0 48 48" xmlns="http://www.w3.org/2000/svg"><g fill="none" stroke="#000" stroke-linecap="round" stroke-linejoin="round"><path d="m40.5 5.5h-33a2 2 0 0 0 -2 2v33a2 2 0 0 0 2 2h33a2 2 0 0 0 2-2v-33a2 2 0 0 0 -2-2z"/><path d="m8.6433 24.1711h4.65v9.7672h7.7969a6.3253 6.3253 0 0 1 -2.9576-7.115 6.2617 6.2617 0 0 1 5.8674-4.6933 6.2617 6.2617 0 0 1 5.867 4.6932 6.3253 6.3253 0 0 1 -2.9576 7.115h7.7969v-9.7671h4.65l-15.3563-10.1094z"/><circle cx="24" cy="28.4035" r="2.8869"/></g></svg>