<svg viewBox="0 0 48 48" xmlns="http://www.w3.org/2000/svg"><path d="m13.8154 7.4929a1.0848 1.0848 0 0 0 -1.0571.9554l-.5877 5.6049h-5.7168a.953.953 0 0 0 -.9538.9553v5.3446a.953.953 0 0 0 .9538.9554h4.9579l-.564 5.383h-4.3939a.953.953 0 0 0 -.9538.9554v5.3446a.953.953 0 0 0 .9538.9553h3.635l-.5876 5.6049a.8451.8451 0 0 0 .8593.9554h6.6795a1.0879 1.0879 0 0 0 1.06-.9554l.5876-5.6049h8.5428l-.5876 5.6049a.8451.8451 0 0 0 .8593.9554h6.6824a1.0848 1.0848 0 0 0 1.0571-.9554l.5877-5.6049h5.7168a.953.953 0 0 0 .9538-.9553v-5.3446a.953.953 0 0 0 -.9538-.9554h-4.9578l.564-5.383h4.3939a.953.953 0 0 0 .9538-.9554v-5.3446a.953.953 0 0 0 -.9538-.9553h-3.635l.5876-5.6049a.8451.8451 0 0 0 -.8593-.9554h-6.6795a1.0879 1.0879 0 0 0 -1.06.9554l-.5876 5.6049h-8.5424l.5876-5.6049a.8451.8451 0 0 0 -.8593-.9554zm6.1952 13.8156h8.5428l-.564 5.383h-8.5428z" fill="none" stroke="#000" stroke-linecap="round" stroke-linejoin="round"/></svg>