<svg viewBox="0 0 48 48" xmlns="http://www.w3.org/2000/svg"><path d="m25.5446 4.5087c-5.7346.1253-13.1126 2.2269-16.0717 7.5513-.2051 1.5892.2217 2.86 1.4426 3.52.5226.11 1.2187.5513 1.2708 1.1733 2.0388 5.6258 1.7442 11.6127 2.2064 17.5229a27.4033 27.4033 0 0 0 .4234 6.8731c.0791.3408.5743 1.8029 1.0163 1.9277q3.8151.9222 5.595-.1666c4.2815-2.8127 2.1423-9.4049 1.1043-13.4963 2.889-1.4425 6.6465-.7365 9.3241-2.8516 11.2362-7.2694 7.8781-22.4776-6.3112-22.0538zm-.9567 8.5318c3.0983-.1334 7.1646 2.5333 4.9643 5.7715-1.9067 2.3553-5.8133 3.0414-8.7531 2.6318-.5333-2.3464-.6623-5.535.3261-7.7345a7.6649 7.6649 0 0 1 3.4627-.6688z" fill="none" stroke="#000" stroke-linecap="round" stroke-linejoin="round"/></svg>