<svg viewBox="0 0 48 48" xmlns="http://www.w3.org/2000/svg"><g fill="none" stroke="#000" stroke-linecap="round" stroke-linejoin="round"><path d="m10.7138 28.5472c.7219-.516 1.9332-.0384 3.4016.9613a60.3608 60.3608 0 0 1 9.0825-.2848 10.3639 10.3639 0 0 0 3.1562-1.2462c1.6983-1.3478 2.3238-2.8849 5.8564-3.81.9663-.0219 1.6676-.0456 2.9458 3.7384a6.9166 6.9166 0 0 1 -.6313 4.5573c-1.1606 1.5049-3.2344 2.8525-9.8539 3.418-3.3383-.139-6.9854-.1213-9.0825-.89.3934.2786-6.6206-4.2679-4.8746-6.4443z"/><path d="m35.1566 27.9064c2.4662-.4523 3.2957-1.7436 3.051-3.24"/><path d="m23.9692 20.3331h-11.4031c-5.0356 0-6.314-3.6185-6.5233-5.3659-.0846-3.7839 1.7614-9.4672 7.9885-9.4672h19.8758c6.2271 0 8.0731 5.6833 7.989 9.4674-.2094 1.7474-1.4877 5.3659-6.5233 5.3659z"/><path d="m6.0423 14.9674.066 19.0153c.0462 6.4411 3.4386 8.1974 7.857 8.5173h19.3456c6.4758-.3753 8.2962-3.5439 8.65-7.5928v-20.1372"/><ellipse cx="24.0013" cy="12.7553" rx="7.7909" ry="4.9188"/></g></svg>