<svg viewBox="0 0 48 48" xmlns="http://www.w3.org/2000/svg"><g fill="none" stroke="#000" stroke-linecap="round" stroke-linejoin="round"><path d="m31.068 32.847 2.817 4.201h-4.3l-2.274-.84"/><path d="m23.027 19.318-1.004 5.572-2.372 5.634 5.486.247-1.878 3.361v2.916h6.326"/><path d="m19.651 30.524-.544 1.483-1.384.84-2.521 2.768 1.384-5.091 5.437-5.634"/><circle cx="24" cy="24" r="21.5"/><path d="m33.885 37.048h6.87l-7.957-8.946-1.483-.148-6.228-11.022-7.809 9.045-4.646 4.943-4.794 6.128"/><path d="m27.3115 26.2871-3.3115-2.2871"/><path d="m42.154 26.683-.958.972-.78-1.097"/><path d="m41.676 28.933-.48-1.278-1.159.685"/><path d="m41.1961 27.6551 1.4012.2979"/><path d="m42.146 21.258-.633 1.21-1.067-.822"/><path d="m42.346 23.55-.833-1.082-.908.994"/><path d="m41.5134 22.4678 1.427-.1249"/><path d="m40.551 16.072-.251 1.342-1.26-.473"/><path d="m41.413 18.206-1.113-.792-.578 1.217"/><path d="m40.3001 17.4143 1.3282-.5366"/><path d="m37.51 11.58.152 1.356-1.343-.084"/><path d="m38.958 13.368-1.296-.432-.196 1.332"/><path d="m37.6624 12.9364 1.1133-.9015"/><path d="m33.288 8.172.543 1.253-1.31.313"/><path d="m35.196 9.459-1.365-.034.201 1.332"/><path d="m33.8308 9.4253.801-1.1876"/><path d="m28.255 6.148.885 1.04-1.161.681"/><path d="m30.455 6.821-1.315.367.582 1.214"/><path d="m29.14 7.1879.4188-1.3699"/><path d="m22.85 5.684 1.15.736-.911.991"/><path d="m25.15 5.684-1.15.736.911.991"/><path d="m24 6.4198v-1.4325"/><path d="m5.846 26.683.958.972.78-1.097"/><path d="m6.324 28.933.48-1.278 1.159.685"/><path d="m6.8039 27.6551-1.4012.2979"/><path d="m5.854 21.258.633 1.21 1.067-.822"/><path d="m5.654 23.55.833-1.082.908.994"/><path d="m6.4866 22.4678-1.427-.1249"/><path d="m7.449 16.072.251 1.342 1.26-.473"/><path d="m6.587 18.206 1.113-.792.578 1.217"/><path d="m7.6999 17.4143-1.3282-.5366"/><path d="m10.49 11.58-.152 1.356 1.343-.084"/><path d="m9.042 13.368 1.296-.432.196 1.332"/><path d="m10.3376 12.9364-1.1133-.9015"/><path d="m14.712 8.172-.543 1.253 1.31.313"/><path d="m12.804 9.459 1.365-.034-.201 1.332"/><path d="m14.1692 9.4253-.801-1.1876"/><path d="m19.745 6.148-.885 1.04 1.161.681"/><path d="m17.545 6.821 1.315.367-.582 1.214"/><path d="m18.86 7.1879-.4188-1.3699"/></g></svg>