<svg viewBox="0 0 48 48" xmlns="http://www.w3.org/2000/svg"><g fill="none" stroke="#000" stroke-linecap="round" stroke-linejoin="round"><path d="m8.339 23.276v10.767l15.654 2.941v-23.465"/><path d="m39.562 23.561v10.294l-15.569 3.129"/><path d="m28.7747 22.075 13.3865 1.8439a1.1763 1.1763 0 0 0 1.2355-1.643l-3.8348-8.6315-15.5691-2.628-15.6542 2.7536-3.7272 8.0156a1.1764 1.1764 0 0 0 1.1482 1.67l13.3385-.927a1.47 1.47 0 0 0 1.24-.8648l3.6551-8.1441 3.6531 7.7276a1.47 1.47 0 0 0 1.1284.8277z"/><path d="m10.904 30.6639 2.9409.3129"/></g></svg>