<svg viewBox="0 0 48 48" xmlns="http://www.w3.org/2000/svg"><g fill="none" stroke="#000" stroke-linecap="round" stroke-linejoin="round"><path d="m12.5611 4.5h20.3369a1.2628 1.2628 0 0 1 1.1589 1.7945l-4.173 14.14a2.5311 2.5311 0 0 1 -2.2181 1.7945h-20.3369a1.2628 1.2628 0 0 1 -1.1589-1.7947l4.173-14.14a2.5309 2.5309 0 0 1 2.2181-1.7943z"/><path d="m20.3342 25.7712h20.3369a1.2628 1.2628 0 0 1 1.1589 1.7945l-4.173 14.14a2.5309 2.5309 0 0 1 -2.2181 1.7943h-20.3369a1.2628 1.2628 0 0 1 -1.1589-1.7945l4.173-14.14a2.5311 2.5311 0 0 1 2.2181-1.7943z"/></g></svg>