<svg viewBox="0 0 48 48" xmlns="http://www.w3.org/2000/svg"><g fill="none" stroke="#000" stroke-linecap="round" stroke-linejoin="round"><path d="m12.9122 10.0377a8.3077 8.3077 0 0 1 -7.103 12.6215q-.1546.0008-.3092-.0043a8.3092 8.3092 0 0 0 15.4139-4.3106c.0006-5.0752-4.6652-8.2444-8.0006-8.3109z"/><path d="m17.5663 7.8215a12.0675 12.0675 0 0 1 6.6708 6.9811h16.6218l-5.2968-6.9811z"/><path d="m13.91 35.8568c4.1443-.01 8.189-.002 12.3 0a6.3135 6.3135 0 0 1 12.5993 0h2.737a2.0422 2.0422 0 0 0 .9537-1.4627v-8.51l-7.2028-7.7571h-11.0811c-.1 6.15-5.5074 13.63-10.2833 17.73z"/><circle cx="32.6367" cy="36.3001" r="3.8784"/><path d="m28.6474 20.3432v5.2082h10.7488l-4.6541-5.2082z"/></g></svg>