<svg viewBox="0 0 48 48" xmlns="http://www.w3.org/2000/svg"><g fill="none" stroke="#000" stroke-linecap="round" stroke-linejoin="round"><path d="m13.773 8.6361 24.31 23.5-32.583 9.3139z"/><path d="m19.7269 11.5739c-.3042.4423-.9534.174-1.186-.19a1.2322 1.2322 0 0 1 .5564-1.7093 1.7494 1.7494 0 0 1 2.1867.7313 2.0189 2.0189 0 0 1 .33 1.229"/><path d="m23.45 8.7584c.6537.9085-.4519 1.2726-1.06.7627a1.4672 1.4672 0 0 1 .0531-2.1611 1.8646 1.8646 0 0 1 2.6516.2151 2.1543 2.1543 0 0 1 -.3171 3.0293"/><path d="m23.67 14.52c.3711 1.0671-.8033 1.1012-1.2451.433a1.4811 1.4811 0 0 1 .6738-2.0759 1.8821 1.8821 0 0 1 2.5035.971 2.1745 2.1745 0 0 1 -1.1783 2.84"/><path d="m28.6311 12.3818c-.5475 1.977-2.337.8153-2.3068-.6389a2.6894 2.6894 0 0 1 3.15-2.405 3.4174 3.4174 0 0 1 2.7368 4.0352 3.9483 3.9483 0 0 1 -4.6921 3.025"/><path d="m31.4435 20.0653c.3726 1.6078-1.3386 1.4742-1.876.4348a2.1636 2.1636 0 0 1 1.3025-2.9101 2.7492 2.7492 0 0 1 3.4848 1.8006 3.1764 3.1764 0 0 1 -2.1548 3.9408"/><path d="m38.7445 23.3385c1.5715 1.1195-.03 2.3279-1.306 1.8338a2.5294 2.5294 0 0 1 -1.1135-3.5571 3.2142 3.2142 0 0 1 4.4465-1.1222 3.7138 3.7138 0 0 1 1.1658 5.12"/><path d="m37.08 14.0257c.7738-.93 1.4535.1289 1.0845.9029a1.5855 1.5855 0 0 1 -2.2758.5281 2.0146 2.0146 0 0 1 -.4916-2.8321 2.3276 2.3276 0 0 1 3.2549-.4871"/><path d="m33.7887 8.6225c.7427 1.0029-.4844 1.4259-1.17.8667a1.636 1.636 0 0 1 .0267-2.4107 2.0788 2.0788 0 0 1 2.9595.1992 2.4021 2.4021 0 0 1 -.3071 3.3823"/></g></svg>