<svg viewBox="0 0 48 48" xmlns="http://www.w3.org/2000/svg"><g fill="none" stroke="#000" stroke-linecap="round" stroke-linejoin="round"><path d="m5.7053 22.7221.0008.0015.0008.0016.0008.0016.0009.0016.0008.0015a2.7727 2.7727 0 0 1 -1.2094 3.7301l5.8939 11.5485a2.7726 2.7726 0 0 1 3.717 1.1876l27.2773-13.9204a2.7728 2.7728 0 0 1 1.2176-3.706l-5.8938-11.5485a2.7727 2.7727 0 0 1 -3.73-1.2092l-.004-.0081z"/><path d="m19.6543 36.3765 21.9184-6.0072a2.7727 2.7727 0 0 1 1.9273-3.3914l-1.374-4.9151"/><path d="m30.5248 28.179.46-1.5143-4.9072-5.6262 1.2652-4.1643a1.187 1.187 0 1 0 -2.2715-.69l-1.2652 4.1644-7.2074 1.9454-.46 1.5144 6.6325-.0527-1.2653 4.1643-1.8594.6757-.345 1.1357 2.88.048 2.42 1.5623.3451-1.1357-1.1691-1.596 1.2652-4.1644z"/></g></svg>