<svg viewBox="0 0 48 48" xmlns="http://www.w3.org/2000/svg"><g fill="none" stroke="#000" stroke-linecap="round" stroke-linejoin="round"><path d="m24 8.28 1.65 1.79a14 14 0 0 1 -1.65 27.93 14 14 0 0 1 -1.64-28zm0 9.54a6.18 6.18 0 0 1 6.18 6.18 6.18 6.18 0 0 1 -6.18 6.18 6.18 6.18 0 0 1 -6.18-6.18 6.18 6.18 0 0 1 6.18-6.18z"/><path d="m24 6.18v-2.68"/><path d="m36.6 11.4 1.9-1.9"/><path d="m41.82 24h2.68"/><path d="m36.6 36.6 1.9 1.9"/><path d="m24 41.82v2.68"/><path d="m11.4 36.6-1.9 1.9"/><path d="m6.18 24h-2.68"/><path d="m11.4 11.4-1.9-1.9"/></g></svg>