<svg viewBox="0 0 48 48" xmlns="http://www.w3.org/2000/svg"><g fill="none" stroke="#000" stroke-linecap="round" stroke-linejoin="round"><path d="m24 43.5c13.3548-4.243 16.6352-14.3682 16.6352-19.2862v-12.905a1.133 1.133 0 0 0 -.7389-1.0623l-15.1081-5.605a2.2656 2.2656 0 0 0 -1.5764 0l-15.1081 5.605a1.133 1.133 0 0 0 -.7389 1.0623v12.905c0 4.918 3.2804 15.0432 16.6352 19.2862z"/><path d="m26.8156 22.6516-2.8093-3.8211-2.7716 3.8476 2.766-3.8526-4.5157-1.447 4.5187 1.44-.0193-4.7418.0268 4.7426 4.5038-1.4836-4.5021 1.491z"/><path d="m18 30.1h12"/></g></svg>