<svg viewBox="0 0 48 48" xmlns="http://www.w3.org/2000/svg"><g fill="none" stroke="#000" stroke-linecap="round" stroke-linejoin="round"><path d="m35 25.677a3 3 0 1 1 -3-3.002 3.0134 3.0134 0 0 1 3 3.002z"/><path d="m26.6459 33.1748a3 3 0 1 1 -3-3.002 3.0134 3.0134 0 0 1 3 3.002z"/><path d="m35 37.0771a3 3 0 1 1 -3-3.0021 3.0133 3.0133 0 0 1 3 3.0021z"/><path d="m32 22.675v-10.3886a7.7864 7.7864 0 0 0 -7.7864-7.7864h-.4272a7.7864 7.7864 0 0 0 -7.7864 7.7864v5.2136"/><path d="m32 34.075v-5.4"/><path d="m34.5211 17.5h3.3165a4 4 0 0 1 3.9534 4.6082l-2.7692 18a4 4 0 0 1 -3.9535 3.3918h-22.1366a4 4 0 0 1 -3.9535-3.3918l-2.7692-18a4 4 0 0 1 3.9534-4.6082h19.3587"/><path d="m25.8723 31.1746 3.903-3.5029"/></g></svg>