<svg viewBox="0 0 48 48" xmlns="http://www.w3.org/2000/svg"><g fill="none" stroke="#000" stroke-linecap="round" stroke-linejoin="round"><path d="m7.5 5.5a2 2 0 0 0 -2 2v33a2 2 0 0 0 2 2h33a2 2 0 0 0 2-2v-33a2 2 0 0 0 -2-2z"/><path d="m28.3281 22.153a3.375 3.375 0 0 1 -3.375 3.375 3.375 3.375 0 0 1 -3.375-3.375v-2.1938a3.375 3.375 0 0 1 3.375-3.375 3.3751 3.3751 0 0 1 3.375 3.375"/><path d="m28.3281 25.528v-8.9438"/><path d="m35.345 25.528-3.595-8.9438"/><path d="m38.5 16.5842-4.2856 12.1487a3.2274 3.2274 0 0 1 -1.91 2.2246"/><path d="m11.5 22.153a3.375 3.375 0 0 0 3.375 3.375 3.375 3.375 0 0 0 3.375-3.375v-2.1938a3.375 3.375 0 0 0 -3.375-3.375 3.375 3.375 0 0 0 -3.375 3.375"/><path d="m11.5 16.5842v13.5"/><circle cx="23.6561" cy="33.5092" r="1.9065"/><circle cx="28.8315" cy="32.2588" r="1.3013"/><circle cx="18.6039" cy="32.6566" r="1.3013"/></g><circle cx="15.625" cy="30.8342" r=".75"/></svg>