<svg viewBox="0 0 48 48" xmlns="http://www.w3.org/2000/svg"><path d="m14.25 4.5h12.12c4.18 0 7.44.88 9.24 2.94 1.64 1.87 2.13 3.94 1.65 7a6.09 6.09 0 0 1 1.74 1.3c1.53 1.76 1.83 4.26 1.25 7.26-1.4 7.18-6.18 9.67-12.29 9.67h-.96a1.52 1.52 0 0 0 -1.49 1.33l-.07.41-1.19 7.49-.06.32a1.52 1.52 0 0 1 -1.5 1.28h-6.31a1.41 1.41 0 0 1 -1.52-1.5c.84-5.36 1.65-10.39 2.49-15.74a5.25 5.25 0 0 1 1.49-.06h4.24c7 0 12.46-2.83 14.06-11l.12-.71a9.21 9.21 0 0 0 -1.26-.64l-.36-.11-.76-.19c-.26-.06-.52-.11-.8-.15a19.18 19.18 0 0 0 -3.13-.23h-10.24a1.45 1.45 0 0 0 -.66.15 1.52 1.52 0 0 0 -.84 1.13q-1.93 12.32-3.89 24.61v.11h-6.8a1 1 0 0 1 -1-1.2l5-32a1.74 1.74 0 0 1 1.73-1.47z" fill="none" stroke="#000" stroke-linecap="round" stroke-linejoin="round"/></svg>