<svg viewBox="0 0 48 48" xmlns="http://www.w3.org/2000/svg"><g fill="none" stroke="#000" stroke-linecap="round" stroke-linejoin="round"><path d="m5.5 19.6v20.9a2 2 0 0 0 2 2h33a2 2 0 0 0 2-2v-33a2 2 0 0 0 -2-2h-33a2 2 0 0 0 -2 2z"/><path d="m5.5 32.5h37"/><path d="m5.5 29.4673h37"/><path d="m31.557 23.533v-7.991l4 8 4-7.988v7.988"/><path d="m8.1327 23.5423v-8h2.619a2.6868 2.6868 0 0 1 0 5.3735h-2.619"/><path d="m24.6482 15.5423h5.3"/><path d="m27.2982 23.5423v-8"/><path d="m24.6482 21.7577v2.7a2 2 0 0 1 -2 2 1.9936 1.9936 0 0 1 -1.4141-.5857"/><path d="m24.6482 18.4577v3.3a2 2 0 0 1 -2 2 2 2 0 0 1 -2-2v-3.3"/><path d="m18.7421 21.5217a2 2 0 0 1 -2 2 2 2 0 0 1 -2-2v-1.3a2 2 0 0 1 2-2 2 2 0 0 1 2 2"/><path d="m18.7421 23.5217v-5.3"/></g></svg>