<svg viewBox="0 0 48 48" xmlns="http://www.w3.org/2000/svg"><g fill="none" stroke="#000" stroke-linecap="round" stroke-linejoin="round"><path d="m35.88 5.86h6.62v5.89h-4.78l-7.33 7.34 7 7.05a1.43 1.43 0 0 1 0 2l-9.25 9.25a1.43 1.43 0 0 1 -1.86.13l-2.06 2.07a8.69 8.69 0 0 1 -12.21 0l-.24-.24a1.43 1.43 0 0 1 -1.94-.06l-4-4a1.45 1.45 0 0 1 0-2l8.17-8.02-.09-.09a1.44 1.44 0 0 1 0-2l9.25-9.26a1.45 1.45 0 0 1 2 0l1 1 8.64-8.64a1.38 1.38 0 0 1 .53-.28.45.45 0 0 1 .11 0 1.56 1.56 0 0 1 .44-.09zm-15.88 25.4-4.1 4.07.23.23a2.82 2.82 0 0 0 4.07 0l2-2z"/><path d="m26.22 14.93 4.17 4.16"/><path d="m15.9 35.33-4.08 4.06"/><path d="m22.24 33.52 4.09 4.04"/><path d="m13.99 25.27 5.99 5.99"/></g></svg>