<svg viewBox="0 0 48 48" xmlns="http://www.w3.org/2000/svg"><g fill="none" stroke="#000" stroke-linecap="round"><g stroke-linejoin="round"><path d="m25.7984 39.355-11.5222-2.0883v-29.755l11.2738-3.0117z"/><path d="m25.7984 39.355 8.3477-6.965v-18.3654l-8.5969-9.5241"/><path d="m15.3836 37.5546-1.6622 2.9724 11.4359 2.973-.1282-4.1283"/><path d="m33.8741 32.8828.4045 2.3491-2.8126-.48"/></g><path d="m18.968 8.587 1.6705 7.9768"/><path d="m21.8549 8.5861-3.937 7.6714"/><path d="m23.3169 11.166-6.7169 2.5331"/><path d="m22.7963 14.5-5.6892-3.68"/><path d="m19.2056 28.3416 1.47 8.378"/><path d="m21.8993 29.0935-3.923 6.5265"/><path d="m22.9106 35.201c-.1434 0-5.9186-5.34-5.9186-5.34"/><path d="m23.3976 32.0312-6.7906.8667"/><path d="m20.5942 26.6256-1.78-8.6926"/><path d="m21.7914 18.2643-4.2576 7.5894"/><path d="m23.3931 21.2682-7.2176 1.8624"/><path d="m22.8652 24.59-6.1293-4.7012"/></g></svg>