<svg viewBox="0 0 48 48" xmlns="http://www.w3.org/2000/svg"><g fill="none" stroke="#000" stroke-linecap="round" stroke-linejoin="round"><path d="m33.375 28.428h4.6607v14.556h-4.6607z" transform="matrix(.70710678 -.70710678 .70710678 .70710678 -14.79 35.706)"/><circle cx="19.191" cy="19.19" r="13.691"/><path d="m30.559 30.56-1.691-1.691"/><circle cx="19.191" cy="19.19" r="9.5"/><path d="m20.408 22.277h3.087"/><path d="m20.408 16.944 1.544-.84"/><path d="m21.952 16.104v6.173"/><path d="m10.205 22.277h1.85"/><path d="m10.138 16.307.374-.203"/><path d="m10.512 16.104v6.173"/><path d="m13.734 20.232a2.0449 2.0449 0 0 0 4.09 0v-2.0835a2.0449 2.0449 0 0 0 -4.09 0z"/><path d="m28.204 16.174a2.0468 2.0468 0 0 0 -2.5794 1.9743v2.0835a2.0465 2.0465 0 0 0 2.5783 1.9746"/></g></svg>