<svg viewBox="0 0 48 48" xmlns="http://www.w3.org/2000/svg"><g fill="none" stroke="#000" stroke-linecap="round" stroke-linejoin="round"><path d="m42.1 19.05 1.4-.9-5.9-4.8-6.1 3.2-13.5-2.3-2.9 1.6"/><path d="m23.3 31.15 2-1.3-1.6-1.7 6.3-3.9 1.6 1.6 10.5-6.8-.8-.7"/><path d="m4.7 16.55-.2-3.7 2.4-1 16.3 19.2v1.4l1.7 1.7v2l-1.5-1.4-1.3-.2-15.1-18.7z"/><path d="m7 15.85-.1-3.85"/><path d="m9.6 15.05 3.1-1.6 5.9 5.9-3.5 2.2"/><path d="m18.6 19.35.1 2.8-1.9 1.3"/><path d="m18.7 22.15 4.7 5-.1 4"/><path d="m11.5 17.35 3.2-1.8"/><path d="m13.3 19.45 3.2-2.1"/><path d="m26.2 17.35 1.2 1.1-1.4 1-1.3-1.2z"/><path d="m35.8 16.15-2.3 1.3 2 1.8 2.4-1.4z"/><path d="m20.6 20.15 1.1 1.2 1.3-.9-1.2-1.1z"/></g></svg>