<svg viewBox="0 0 48 48" xmlns="http://www.w3.org/2000/svg"><g fill="none" stroke="#000" stroke-linecap="round" stroke-linejoin="round"><circle cx="14" cy="14" r="8.5"/><circle cx="34" cy="14" r="8.5"/><circle cx="14" cy="34" r="8.5"/><circle cx="34" cy="34" r="8.5"/><path d="m30.5 17.5 7-7"/><path d="m30.5 10.5 7 7"/><path d="m12 9.9679a4.5 4.5 0 1 0 4 0"/><path d="m14 8.5v4.5"/><path d="m9.5 34a4.5 4.5 0 1 0 1.318-3.182"/></g><circle cx="34" cy="38.5571" r=".75"/><path d="m31.2343 31.2657a2.7657 2.7657 0 0 1 5.5314 0 2.4769 2.4769 0 0 1 -.81 1.9557c-.5724.4591-1.9656 1.2113-1.9656 2.3815v.3771" fill="none" stroke="#000" stroke-linecap="round" stroke-linejoin="round"/><path d="m11.524 28.192-.706 2.626 2.626.706" fill="none" stroke="#000" stroke-linecap="round" stroke-linejoin="round"/></svg>