<svg viewBox="0 0 48 48" xmlns="http://www.w3.org/2000/svg"><g fill="none" stroke="#000" stroke-linecap="round" stroke-linejoin="round"><path d="m16.6 5.5a3.72 3.72 0 0 0 -3.7 3.7v22.2a3.72 3.72 0 0 0 3.7 3.7h22.2a3.72 3.72 0 0 0 3.7-3.7v-22.2a3.72 3.72 0 0 0 -3.7-3.7zm-3.7 7.4h-3.4a4 4 0 0 0 -4 4v21.9a3.72 3.72 0 0 0 3.7 3.7h21.9a4 4 0 0 0 4-4v-3.4"/><path d="m34.55 15.15h5.18"/><path d="m34.55 20.32h3.38"/><path d="m34.55 15.15v10.34"/><path d="m15.67 25.47v-10.34h3.48a3.47 3.47 0 1 1 0 6.94h-3.48"/><path d="m25.11 25.49v-10.38h1.76a5.19 5.19 0 0 1 5.19 5.19 5.19 5.19 0 0 1 -5.19 5.19z"/></g></svg>