<svg viewBox="0 0 48 48" xmlns="http://www.w3.org/2000/svg"><g fill="none" stroke="#000" stroke-linecap="round" stroke-linejoin="round"><path d="m4.5 21.472 1.768-2.278 1.391.228 2.445-2.141 6.167 8.199v1.003l4.25 3.644.865-.547 6.92 4.92"/><path d="m32.8568 32.2223 3.1215-2.3232-.9778-.2733.9778-2.05 2.1437-.41.3761-1.9587 3.0839-2.4144.5641.2734.9026-5.7853-2.52 3.1432-1.8428.6377-.5259 2.2094-6.13 4.35v.7744l-1.2793 1.1845-1.3539-.6833s-4.1557 1.9815-4.25 1.9587"/><path d="m38.047 28.851 2.106-1.366.376 1.776 2.971-1.503"/><path d="m38.047 33.68 2.444-1.458 2.37.729"/><path d="m5.403 31.038 2.294 1.184v-1.184l4.475 2.642"/><path d="m13.865 30.628-2.031-2.505h-2.182l-1.767-2.551 2.99.637-1.035-2.095.038-4.1"/><path d="m13.639 26.3 4.626 6.059.15-1.321 3.573 2.642"/><path d="m20.559 28.077 2.708-4.236 2.444-1.64h1.918l3.874-5.786 6.168 3.144 1.015-1.139 2.172 1.594"/><path d="m26.275 27.485 2.031-2.87 3.723-.501 1.642 2.342-.814-4.574 4.137.865-2.031-1.731-.527-1.275-2.933-3.326"/><path d="m29.719 19.079-1.977-1.343-1.467-2.095-3.309-2.141-2.407 3.098-1.429-.183-1.317 3.098h-1.128l-.282 1.23-1.41-.273-1.574 1.219"/><path d="m18.4151 23.2711a13.5189 13.5189 0 0 0 -.4137-1.936c-.094.0228-1.5983-.5921-1.5983-.5921"/><path d="m19.807 25.116.301-1.275 1.278-.57-.188-1.321-2.256-1.936 4.362 1.321-.301-1.822.602-.41-.639-5.603 2.294 4.094v.78l1.805 1.23.188 1.412"/></g></svg>