<svg viewBox="0 0 48 48" xmlns="http://www.w3.org/2000/svg"><g fill="none" stroke="#000" stroke-linecap="round" stroke-linejoin="round"><path d="m23.8619 24.023c4.0681-.8538 14.2035-5.1142 19.6381-9.8245"/><path d="m19.442 22.978a5.0872 5.0872 0 0 1 1.4064 3.7669l3.4655.8036.4018-.8539-.9543-.6529.5525-.9041-.452-1.1146v-1.5975l-1.0045-.3265-.9041-.8789-.6027.7534-.6027-.3014-1.3059 1.3059a4.819 4.819 0 0 0 -1.6072-1.6324c-.8036-.3264-2.4359-.2009-4.1436-.5022a13.4272 13.4272 0 0 1 -5.65-2.7875l.3516 1.7327 1.6572 1.2808-1.783.2762-.05 1.4566 1.6574 1.3309-1.2556.7032.1255.9041 2.6369.7784-.879 1.03-.05.7533 1.0045.3265-2.0848 1.3558.1757.8789 2.5364.1507.1005 1.0045-1.6575 1.2557.4018.5273.879-.3516a45.8953 45.8953 0 0 0 5.2988-2.9884 28.5609 28.5609 0 0 0 3.7418-3.7166"/><path d="m8.041 18.056-1.356.929.477.829-1.532.728-.552 1.356v2.084l.853.98-1.431.201.151.577 1.506.904-.15.854.552.929.502.955-.301.854 2.009 1.481.754.804 1.424.435"/><path d="m12.72 24.2078a18.7954 18.7954 0 0 0 5.5673-.0747"/><path d="m13.415 28.0758a18.1562 18.1562 0 0 0 3.9929-1.1552"/><path d="m20.4941 24.6166a6.4449 6.4449 0 0 0 1.4341-.609"/></g></svg>