<svg viewBox="0 0 48 48" xmlns="http://www.w3.org/2000/svg"><g fill="none" stroke="#000" stroke-linecap="round" stroke-linejoin="round"><circle cx="32.5" cy="11" r="2.5"/><circle cx="15.5" cy="11" r="2.5"/><path d="m7.5 5.5a2 2 0 0 0 -2 2v33a2 2 0 0 0 2 2h33a2 2 0 0 0 2-2v-33a2 2 0 0 0 -2-2z"/><path d="m13.5 35.2993v-14.5986"/><path d="m22.45 20.7007v5.2514a3 3 0 0 1 -3 3h-5.95"/><path d="m29.693 20.7007h4.807a0 0 0 0 1 0 0v10.2825a0 0 0 0 1 0 0h-4.807a3 3 0 0 1 -3-3v-4.2825a3 3 0 0 1 3-3z"/><path d="m34.5 35.2993v-4.3161"/></g></svg>