<svg viewBox="0 0 48 48" xmlns="http://www.w3.org/2000/svg"><path d="m13.92 24.84-2.48-2.56c.08.6-.17 1.32.11 1.86l.85 1.14m2.31 2.13-.86-4.14m20.07-2.69a5.32 5.32 0 0 1 .08 2.63m-1.3-1.42c.49-.7.83-1.54 1.64-1.93l.39.54m-2.43.18a13.23 13.23 0 0 1 .45 3.42m-7 3.78c.5.38 1.29.54 1.31 1.28v.1m-2.22-.73 1 .77m-3.48-.38.1 1m-2.15-.82c-.42.54-.29 1 .06 1.49m-1.14-2.5a3.43 3.43 0 0 0 2 .74 6.88 6.88 0 0 0 2.86-.15 4.52 4.52 0 0 0 1.95-1.36l.62-.64m-9.39-.13 1.86 1.2c.06-.88.93-.37 1.5-.36a11.22 11.22 0 0 0 4.84-.48c.5-.35 1.11-.87 1.43-.4l.9-1.33m-11.45 2.21a8.46 8.46 0 0 1 .84-1.55 5.23 5.23 0 0 0 2.48-.92c.36-.32.74-1.55.5-.42.11.52.92.73 1.2 1.25s1.06.39 1.63.48a14.21 14.21 0 0 0 1.46-1.8c-.16-.6-.67-1.4.09-.54.47.32.78 1.19 1.44.83a5.22 5.22 0 0 1 2.71-.18l.62.56m.51-5.94c.64.06 1.26.15 1.43.87-.46.13-.89.47-1.36.16m-3.26 1.5c-.51-.47-1.16-.75-1.69-1.16-.82-.55.06-.84.56-1.19s1.52-.24 2.26-.4l1.24.72m-1.48-2.34a1 1 0 0 1 -1.11.61m-10.73 3.11c.54-.36.89-1.25 1.64-1.05a17.56 17.56 0 0 1 2.44.22c.75.46-.06.93-.36 1.4l-.61.76m-4.13-.09.57-.3m-1.46-.58 1.27-.3m4.59-3.91a8.4 8.4 0 0 1 1.55 2.91 16 16 0 0 1 .87 3.55m2-9a19.57 19.57 0 0 1 2.28-.66c.88.31 1.89.36 2.53 1.12.35.32.8 1.06.45 1.47-.71.22-1.07-.28-1.49-.66a12.45 12.45 0 0 1 -3.23-.08zm-9.27 3.45a18.28 18.28 0 0 1 1.12-2.21c1-.3 1.93-.88 3-.67.4.23 1 .87.83 1.41.11 1-.78.22-1.3.11s-.85.52-1.55.09zm-.44-3.09a24.67 24.67 0 0 1 2.75-1.42 34.51 34.51 0 0 1 5.47-.27c1.13.12 2.11-.62 3.16-.93a12.85 12.85 0 0 1 3.27-.36c.36 0 .66.4 1 .55m-13.38-.34a13.72 13.72 0 0 1 2.38-1.14 12.69 12.69 0 0 0 4.08-.19 7.48 7.48 0 0 1 2.67-.08m-5.91-1.59 1.16.07m-1.52 22.89c.7.4 1.25 1.21 2.13 1a4.14 4.14 0 0 1 2.28.44 9.66 9.66 0 0 0 1.82-.2 4.63 4.63 0 0 0 1-1.64m-6.45 5.2c0 1-.19 2.08.37 3l.08.2m.12-6.15a5.52 5.52 0 0 0 .66 2.66c.46 1.06.82 2.19 1.34 3.22l.39.37m-3.61-6.85c-.1.55.31 1.32-.17 1.7s-.88 1-1.57.74-.86.85-.68 1.28c.8 1.83 1.51 3.69 2.17 5.57m9.52-2.07c-1.23.25-2.6.34-3.5 1.31-.51.31-.65 1.21-1.37 1-.7.24-.94-.46-1.26-.94-.22-.73-1.12-.57-1.71-.82-.75-.16-1.55-.13-2.31-.22m9.27-4.13-.4 1.08m.29-5.59a27.06 27.06 0 0 0 -1.27 5l-.09.49m1.81-7c-.45.43-1.16.82-.5 1.41.7.81 1.67 1.41 2.3 2.26a1.67 1.67 0 0 1 .22 1.74c-.58 2.52-1.66 4.84-2.36 7.34m8-4.73a7.25 7.25 0 0 1 -.94 3l-.12.2m3.22-1.69c-1-.75-2.22-1.24-2.84-2.37a14.1 14.1 0 0 0 -2.32-3.24c-1.3-1.12-2.79-2-4.17-3.05a3.79 3.79 0 0 1 -.47-2.34 6.14 6.14 0 0 1 2.09-1.9 7.07 7.07 0 0 1 2-1 2.61 2.61 0 0 0 .55-1.82c-.15-.8.94-.09 1.39-.16.88-.2 1.09-1.23 1.55-1.91-.09-1.07.15-2.22-.46-3.18a1.08 1.08 0 0 0 -1.54-.31c-.65.31-1.18.43-1-.49a51.17 51.17 0 0 0 -.2-5.26 14.12 14.12 0 0 0 -2.16-4.73 7 7 0 0 0 -2.14-2.37 11.6 11.6 0 0 0 -2.34-1.34 27.21 27.21 0 0 1 -3.49-.28 39 39 0 0 0 -4.31 1 34.11 34.11 0 0 0 -3.77 2.37 12.25 12.25 0 0 0 -2.34 4.35c-.48 1.23-.18 2.58-.52 3.84.34 1.63.17 3.34.8 4.91.19.58.53 1.52-.25.7-.49-.19-.93-1.1-1.46-.75a1.21 1.21 0 0 0 -1 1.36 3.74 3.74 0 0 0 .5 2.62c.29.83 1.23 1.1 1.84 1.65.54-.08 1.2-.76 1.59-.11a3 3 0 0 1 1.31 1.6c.22.79 1.16 1 1.72 1.53.74.56 1.65.94 2.34 1.53a4.26 4.26 0 0 1 .6 2.2 15.13 15.13 0 0 1 -2.8 1.82 30.86 30.86 0 0 0 -3.86 2.63 1.68 1.68 0 0 0 -.67 1.1" fill="none" stroke="#000" stroke-linecap="round" stroke-linejoin="round"/></svg>