<svg viewBox="0 0 48 48" xmlns="http://www.w3.org/2000/svg"><g fill="none" stroke="#000" stroke-linecap="round" stroke-linejoin="round"><path d="m21.7093 18.4231c-1.3345 2.8446-2.1423 7.0589-.9131 10.0441-2.7393-1.0887-4.6709-2.5637-5.3733-4.5655-.1053 1.44 1.3346 4.0738 1.3346 4.0738s-4.4251-2.95-4.53-7.8667"/><path d="m11.5567 31.3265c.055.3487.1065.627.1436.8282.2458 1.3345 5.2328 6.2863 6.181 6.2863a34.5721 34.5721 0 0 0 8.78-3.0553"/><path d="m11.2471 27.0249a26.47 26.47 0 0 0 .1585 3.1787"/><path d="m12.2271 20.1088a22.7561 22.7561 0 0 0 -.98 6.0843"/><path d="m16.3887 33.7a2.9734 2.9734 0 0 0 1.756 1.8789 3.5732 3.5732 0 0 0 2.4583-1.3345c.0176-.3162-4.1616-.7727-4.2143-.5444z"/><path d="m23.3158 31.4861a2.8617 2.8617 0 0 0 .1906-5.5339c-.9149-.1144-1.8135 1.34-1.7971 2.6466s.6426 2.8873 1.6065 2.8873z"/><path d="m14.44 30.908c.6958 0 1.317-1.2117 1.0711-2.5989a8.0725 8.0725 0 0 0 -1.2817-2.8046s-1.4927-.7424-1.6332 1.2243.5438 4.1792 1.8438 4.1792z"/><path d="m21.1548 19.772a13.9874 13.9874 0 0 0 2.3924 5.968"/><path d="m24.27 25.9541a11.5194 11.5194 0 0 1 -.3016-2.3568c.398.5385 3.5939 3.4534 3.1139 6.5088"/><path d="m27.75 27.46a6.9007 6.9007 0 0 1 -3.8748 6.0873c1.3345.0352 4.425-1.2408 5.2327-2.9031"/><path d="m32.9474 30.6211c-.9833 1.2643-3.8514 2.94-6.2863 2.1253"/><path d="m14.58 11.5046c-2.5462 2.9149-2.3888 6.2863-2.3537 8.5164"/><path d="m7.6089 21.654a22.4341 22.4341 0 0 1 3.7226-3.354"/><path d="m7.6967 19.3537a9.5609 9.5609 0 0 1 3.6348 1.2994"/><path d="m10.2253 22.0755a12.234 12.234 0 0 0 1.51 5.18c-1.7384-.65-2.8973-2.8271-3.67-4.6182a11.5446 11.5446 0 0 0 4.6357 8.6744c-1.7735.1932-4.3021-.5092-5.0045-1.2057a5.629 5.629 0 0 0 .72 2.3822c-3.9684-2.09-2.8446-6.1634-2.5812-7.1212-.86.9387-1.5453 3.6444-1.9667 5.0316a13.1219 13.1219 0 0 1 .6848-7.27c-1.2467-2.0193-.0351-6.3741.7375-8.13s7.2191-4.35 10.6938-5.6366a6.7568 6.7568 0 0 1 7.2873 1.1414 5.0518 5.0518 0 0 1 5.5062 2.2431"/><path d="m34.7912 25.6576c-.4565 1.3872-4.32 5.4611-5.3381 4.548s-1.2994-5.8825 1.6155-7.6033c-2.5286-1.0009-4.1792-10.7992.2107-14.9433 4.32 3.3715 6.0405 4.2143 5.2327 12.4849.79-2.353 4.0212-4.7938 7.7438-5.0045.4039 2.2476.2283 6.1634-6.497 8.6745 1.5452 1.2116 2.353 3.5652 2.1774 6.5237-1.8262.1665-5.7947-1.291-5.145-4.68z"/><path d="m24.1325 12.33a11.1309 11.1309 0 0 1 3.2837 5.4435"/><path d="m22.9209 14.7355a10.5215 10.5215 0 0 0 -1.2116 3.6876"/><path d="m29.8043 32.6635c-.1464 2.8392-2.0662 8.13-.3571 9.5821s3.1262.783 4.1483.5955c3.4193-.627 9.189-3.1257 6.0831-6.238-1.9194-1.9234-6.78-5.9214-7.5132-7.6546"/><path d="m29.1926 36.4744a4.4349 4.4349 0 0 0 -2.3208 1.5237 9.1635 9.1635 0 0 0 -2.0252-.3063c-.3863.0937-.9131 1.1824-.9131 1.1824l-1.3579-.07-1.2537-1.243"/><path d="m9.7148 38.0989a16.2633 16.2633 0 0 1 -1.9748-6.0189"/><path d="m22.5756 38.8039c-2.23-.0175-7.1878 3.3949-9.2247 3.3949-.6891 0-1.5491-.8169-2.3873-2.0134"/><path d="m12.805 33.9087c-.4726 3.18-2.3248 6.849-2.6148 9.2559-.1756 1.4574-.1932 2.3354-.1932 2.3354a3.6881 3.6881 0 0 1 -1.457-3.4768c.2985-2.3179 2.4531-5.2629 1.7962-10.86"/><path d="m23.5895 27.8467.0792 1.7384"/><path d="m13.9404 27.5189.2625 1.5804"/><path d="m33.72 15.0516a59.9143 59.9143 0 0 1 2.072 7.2s3.108-2.4062 5.338-3.9516"/><path d="m36.2662 25.0782a9.2291 9.2291 0 0 0 -.4741-2.8271 9.2666 9.2666 0 0 0 -2.2827 2.4232"/><path d="m39.8936 28.3091a11.1117 11.1117 0 0 0 2.159-6.9168"/><path d="m41.362 15.7628c-.6032-2.5162-6.8756-13.2628-16.4513-13.2628s-19.5382 5.2845-17.1707 10.4827"/></g></svg>