<svg viewBox="0 0 48 48" xmlns="http://www.w3.org/2000/svg"><g fill="none" stroke="#000" stroke-linecap="round" stroke-linejoin="round"><circle cx="24.7169" cy="21.2309" r="5.3077"/><path d="m29.5629 19.0634-6.105-.0123"/><path d="m22.1988 21.2309 3.0489-5.2805"/><path d="m20.4041 18.1303 3.0464 5.2681"/><path d="m19.8709 23.3984 6.1001.0124"/><path d="m24.1713 26.509 3.0612-5.2731"/><path d="m29.0198 24.3415-3.0439-5.2904"/><path d="m28.3688 27.6307a9.1492 9.1492 0 0 0 4.1317-9.883 11.2251 11.2251 0 0 0 -4.6284-6.46 19.4823 19.4823 0 0 0 -7.5107-2.9477 31.0688 31.0688 0 0 0 -10.6008-.2 39.0734 39.0734 0 0 1 11.4028-3.3478 23.581 23.581 0 0 1 12.6258 1.3316 14.7122 14.7122 0 0 1 5.1668 3.7386 11.7983 11.7983 0 0 1 2.767 5.7142 10.6612 10.6612 0 0 1 -13.3542 12.0541z"/><path d="m14.7857 43.5-2.9127-3.4958-.3283 2.5376a30.2358 30.2358 0 0 1 -5.3985-16.1594 21.8239 21.8239 0 0 1 .5416-5.969 14.1124 14.1124 0 0 1 2.5541-5.3926 12.0606 12.0606 0 0 1 10.6123-4.51 12.3355 12.3355 0 0 1 8.3727 4.5345 6.941 6.941 0 0 0 -9.421 1.5187 8.477 8.477 0 0 0 -1.53 3.5914 14.8637 14.8637 0 0 0 -.1437 3.9254 37.4883 37.4883 0 0 0 .9847 5.6956q.7632 3.2055 1.7684 6.3469l1.1653 4.0767-2.7769-1.6456a3.9918 3.9918 0 0 1 .9426 3.0164 3.9464 3.9464 0 0 1 -.3072 1.1485l-3.8658-3.4578 1.57 3.6056-3.041-.9246"/></g></svg>