<svg viewBox="0 0 48 48" xmlns="http://www.w3.org/2000/svg"><path d="m40.72 30.28a62 62 0 0 1 -6.3-1.11 3.11 3.11 0 0 0 -3 .58c-.53.54-2.06 2.05-3.65 3.61a28.69 28.69 0 0 1 -13.1-13.11c1.55-1.59 3-3.11 3.59-3.64a3.11 3.11 0 0 0 .58-3 61.84 61.84 0 0 1 -1.11-6.31 2 2 0 0 0 -2.3-1.77h-8.52a1.5 1.5 0 0 0 -1.36 1.37c-.55 7.69 3.74 15.92 4.61 17.5v.06l.12.23a35.44 35.44 0 0 0 13 13l.44.25c2 1.06 9.95 5.06 17.38 4.51a1.5 1.5 0 0 0 1.39-1.36v-8.51a2 2 0 0 0 -1.77-2.3z" fill="none" stroke="#000" stroke-linecap="round" stroke-linejoin="round"/></svg>