<svg viewBox="0 0 48 48" xmlns="http://www.w3.org/2000/svg"><path d="m24 29a.75.75 0 1 0 .75.75.74.74 0 0 0 -.75-.75z"/><g fill="none" stroke="#000" stroke-linecap="round" stroke-linejoin="round"><path d="m24 4.5a13.11 13.11 0 0 0 -13.13 13.13c0 10.2 10.09 22.68 12.7 25.61a.1.1 0 0 0 .1.11.83.83 0 0 0 1.09-.11c2.5-3 12.37-15.41 12.37-25.61a13.11 13.11 0 0 0 -13.13-13.13zm6.16 25.35a2 2 0 0 1 -2 2h-8.32a2 2 0 0 1 -2-2v-18.79a2 2 0 0 1 2-2h8.32a2 2 0 0 1 2 2z"/><path d="m17.84 12.68h12.32"/><path d="m17.84 27.14h12.32"/></g></svg>