<svg viewBox="0 0 48 48" xmlns="http://www.w3.org/2000/svg"><g fill="none" stroke="#000" stroke-linecap="round" stroke-linejoin="round"><circle cx="41.8284" cy="32.7474" r="1.6716"/><path d="m37.938 36.647-31.6913-.0311a1.6356 1.6356 0 0 1 -1.7467-1.41l.0082-19.4039a1.62 1.62 0 0 1 1.77-1.4355l30.3805-.0048c.9621.0209 1.816.59 1.7692 1.54l.057 9.6674"/><circle cx="21.7712" cy="26.6186" r="7.4164"/><circle cx="14.5284" cy="18.2616" r="1.1143"/><path d="m29.014 17.1473h6.6859v2.2288h-6.6859z"/><path d="m7.2736 11.353h5.5954v3.0207h-5.5954z"/><circle cx="35.1427" cy="32.7474" r="1.6716"/><path d="m36.27 31.5146 6.6724-7.1246"/><path d="m40.6476 31.5666-6.6194-7.1766"/></g></svg>