<svg viewBox="0 0 48 48" xmlns="http://www.w3.org/2000/svg"><g fill="none" stroke="#000" stroke-linecap="round" stroke-linejoin="round"><rect height="37" rx="3" width="37" x="7.06" y="5.5"/><circle cx="25.56" cy="24" r="3"/><path d="m32.18 27.53a7.52 7.52 0 0 0 0-7.06l6.5-6.5a2.18 2.18 0 1 0 -3.09-3.09l-6.51 6.5a7.5 7.5 0 0 0 -7 0l-6.5-6.5a2.18 2.18 0 0 0 -3.14 3.12l6.5 6.5a7.52 7.52 0 0 0 0 7.06l-6.5 6.44a2.18 2.18 0 1 0 3.09 3.09l6.5-6.5a7.5 7.5 0 0 0 7 0l6.51 6.5a2.18 2.18 0 1 0 3.14-3.09z"/><rect height="8.27" rx="1.65" width="3.31" x="37.98" y="19.86"/><path d="m4.94 13.09h2.12a0 0 0 0 1 0 0v9.13a0 0 0 0 1 0 0h-2.12a1 1 0 0 1 -1-1v-7.13a1 1 0 0 1 1-1z"/><path d="m4.94 25.79h2.12a0 0 0 0 1 0 0v9.13a0 0 0 0 1 0 0h-2.12a1 1 0 0 1 -1-1v-7.13a1 1 0 0 1 1-1z"/></g></svg>