<svg viewBox="0 0 48 48" xmlns="http://www.w3.org/2000/svg"><g fill="none" stroke="#000" stroke-linecap="round" stroke-linejoin="round"><path d="m14.3336 33.0105-.1074-18.6159 17.4259-.7957a27.6229 27.6229 0 0 0 .1028 5.28 92.6454 92.6454 0 0 1 .8309 10.4726 18.5708 18.5708 0 0 0 .6957 3.6123s-16.5388-.7872-18.01-.2779z"/><path d="m24.456 30.837-8.57-.1765s.6979-3.4808 1.07-3.4808 1.695-6.7083 1.695-7.0353.98-4.2009 1.25-4.1133 1.4825.4717 1.6372 1.0845a4.6314 4.6314 0 0 0 1.1658 2.2c.5826.45.6667 2.4215.96 2.7351a4.5885 4.5885 0 0 1 1.0654 1.64 9.8662 9.8662 0 0 0 1.6127 2.2082"/><path d="m17.3418 26.3584s-.2475 1.4526.9467 1.4943 1.0373-2.7171 2.0646-2.6176.03 2.2644 1.5269 2.3971.3564-2.31.8553-2.4429 1.2555 1.868 1.7856 1.9675.5031-2.8215.5031-2.8215"/><path d="m27.0985 21.477s.0635 2.8631 1.0745 3.1523 2.6877-.4093 2.658-1.6331a1.3265 1.3265 0 0 0 -2.4481-.637c-.59 1.1833-.3141 5.3689.02 6.8049s-.7454 2.3283-1.4579 1.8685-1.3179-2.37-.7541-3.005 2.0351.3687 2.6378 1.3735.6247 2.3078 1.6128 1.33.1078-1.3358.1742-2.1724"/><path d="m29.0758 18.6194s1.3-.8068 1.0849-1.57a1.84 1.84 0 0 0 -1.8581-1.5794c-1.28-.0694-1.5292 1.0612-1.4548 1.9619a1.5952 1.5952 0 0 0 1.0249 1.4012 2.3093 2.3093 0 0 0 1.2031-.2134z"/><path d="m12.4527 18.5282-.3227-4.49-6.5958-.5312.1111 4.3883s1.7658.4971 2.3424.1326a4.0684 4.0684 0 0 1 3.1865.0611 1.8412 1.8412 0 0 0 1.2784.4393z"/><path d="m11.5743 22.0363s-3.12-.03-3.4155-.4646-2.001-.3459-2.001-.3459l-.32 5.8333 5.5861-.19z"/><path d="m9.3026 36.1082 4.44-.1156s.6047 6.23.1535 6.3009-4.1059.1919-4.1059.1919.4435-4.2775-.4876-6.3773z"/><path d="m16.064 36.3457a4.7149 4.7149 0 0 0 2.1861.01 6.1513 6.1513 0 0 1 2.0676-.29l.0636 6.4343s-1.07-1.12-1.9177-1.1071-1.8111.75-2.5937.621.3276.7434.1942-5.6683z"/><path d="m23.3865 41.51.1813-5.93 4.2469.0556a40.5028 40.5028 0 0 1 .9835 5.4347c-.1173.7493-3.1522-.4691-5.4117.44z"/><path d="m30.5523 41.3733a1.7963 1.7963 0 0 1 1.3712-.7622 20.1 20.1 0 0 1 3.1131.8516c-.0384-2.7719-.2441-3.7012-.225-4.2291a7.3425 7.3425 0 0 1 .2437-1.5456l-4.6753-.0062z"/><path d="m37.6958 41.15.2352-5.3526 4.31-.108.2245 5.4985s-4.1549-.8984-4.77-.0379z"/><path d="m35.6893 33.1207.16-6.237 5.47.0553a46.9275 46.9275 0 0 1 .4976 4.73c-.1616 0-5.5846.9584-6.1271 1.4512z"/><path d="m35.29 24.2a9.3384 9.3384 0 0 1 2.51.0825c1.0148.2388 3.2034.9685 3.0693-.4545s-.8014-4.6606-.5946-4.9322-4.9767 1.37-4.9767 1.37z"/><path d="m14.6821 11.0057c.3456 0 4.0684.7393 4.0622.0718s-.215-4.6138-.215-4.6138l-3.7478.6289z"/><path d="m21.3919 10.8693c.0643 0 1.9393-.405 2.6665.0725a6.863 6.863 0 0 0 2.1726.69v-5.0213a45.0954 45.0954 0 0 1 -4.9155.3426c-.133-.1706.0764 3.9161.0764 3.9161z"/><path d="m28.3134 10.9944s.1885-.6069 1.6775-.416a25.2 25.2 0 0 0 3.5136.1036l-.1323-5.0436-5.0522 1.0459z"/><path d="m35.8605 10.7235 5.2831-.3458.0926-4.8777-5.673.58z"/></g></svg>