<svg viewBox="0 0 48 48" xmlns="http://www.w3.org/2000/svg"><g fill="none" stroke="#000" stroke-linecap="round" stroke-linejoin="round"><circle cx="24" cy="24" r="21.5"/><path d="m7.932 38.034c8.744 4.076 6.846-2.059 8.543-2.44 7.439 3.691 13.655 2.925 19.728-1.221a7.0739 7.0739 0 0 1 4.068-6.102c2.067-6.449-2.41-8.511-9.763-11.796a16.2307 16.2307 0 0 0 2.645-11.187v-.61"/><path d="m34.085 18.59c-.618 1.843-2.393 3.304-6.328 2.085l4.243 4.17-4.387 1.726-2.373-3.092c-4.914 4.027-4.938 8.485-22.076 4.602"/><path d="m21.573 26.787c-8.677.695-17.786-4.866-15.964-13.95m7.191.934 12.08.216c2.006.128.323-5.11-3.163-2.876-.12-3.14-5.705-3.476-5.394-.791-2.732-1.769-5.141 3.491-3.523 3.451z"/></g></svg>