<svg viewBox="0 0 48 48" xmlns="http://www.w3.org/2000/svg"><path d="m30.17 38.39h4.11v4.11h-4.11zm-16.45 0h4.11v4.11h-4.11zm8.22-8.22h4.12v4.11h-4.12zm-8.22 0h4.11v4.11h-4.11zm16.45-8.23h4.11v4.12h-4.11zm-16.45 0h4.11v4.12h-4.11zm-8.22 0h4.11v4.12h-4.11zm32.89 0h4.11v4.12h-4.11zm0-8.22h4.11v4.11h-4.11zm-16.45 0h4.12v4.11h-4.12zm8.23-8.22h4.11v4.11h-4.11zm-8.23 0h4.12v4.11h-4.12zm-8.22 0h4.11v4.11h-4.11zm-8.22 0h4.11v4.11h-4.11z" fill="none" stroke="#000" stroke-linecap="round" stroke-linejoin="round"/></svg>