<svg viewBox="0 0 48 48" xmlns="http://www.w3.org/2000/svg"><g fill="none" stroke="#000" stroke-linecap="round" stroke-linejoin="round"><path d="m40.3 42.5h-32.6a2.22 2.22 0 0 1 -2.2-2.2v-32.6a2.22 2.22 0 0 1 2.2-2.2h32.6a2.22 2.22 0 0 1 2.2 2.2v32.6a2.22 2.22 0 0 1 -2.2 2.2z"/><path d="m26.22 12.5v17.2"/><path d="m26.22 22.6a4.31 4.31 0 0 1 4.3-4.3 4.31 4.31 0 0 1 4.3 4.3v7.1"/><path d="m13.18 25.4a4.31 4.31 0 0 0 4.3 4.3 4.31 4.31 0 0 0 4.3-4.3v-2.8a4.31 4.31 0 0 0 -4.3-4.3 4.31 4.31 0 0 0 -4.3 4.3"/><path d="m13.18 18.3v17.2"/></g></svg>