<svg viewBox="0 0 48 48" xmlns="http://www.w3.org/2000/svg"><g fill="none" stroke="#000" stroke-linecap="round" stroke-linejoin="round"><path d="m24.2829 39.3278 2.9416-.4138"/><path d="m21.2314 7.0434-.2681-2.0434"/><path d="m20.5844 8.538-4.3544.6333a3.9875 3.9875 0 0 0 -3.3924 4.5017l3.64 25.8965a3.987 3.987 0 0 0 4.5006 3.3913l10.4241-1.465a3.9871 3.9871 0 0 0 3.3923-4.5006l-3.6394-25.8966a3.9876 3.9876 0 0 0 -4.5017-3.3923l-4.4088.6079"/><path d="m16.1229 37.2611 18.3171-2.5743"/><path d="m5.7358 26.65 2.4814 3.7364.9428-9.3218 2.6134 4.7371 1.22-.1721"/><path d="m15.9286 25.2169 1.9422-.2723 1.6518-9.3485 5.5044 13.7457 2.131-9.4318 2.3337 3.4008 1.79-.2512"/><path d="m34.4768 22.6109 2.9132-.41.6966-4.0774 2.7168 5.4252 1.4608-2.0328"/></g></svg>