<svg viewBox="0 0 48 48" xmlns="http://www.w3.org/2000/svg"><g fill="none" stroke="#000" stroke-linecap="round" stroke-linejoin="round"><circle cx="24" cy="24" r="21.5"/><path d="m3.004 19.353.823-.145 2.87 16.275-.784.138"/><path d="m8.7106 18.1489h3.6962v16.5257h-3.6962z" transform="matrix(.98480775 -.17364818 .17364818 .98480775 -4.4259 2.2347)"/><path d="m11.9935 34.5491 1.4421 8.1789"/><path d="m16.2406 17.0195 4.9903 28.3016"/><path d="m22.9441 15.6391h3.6962v16.5257h-3.6962z" transform="matrix(.98480775 -.17364818 .17364818 .98480775 -3.7739 4.6682)"/><path d="m30.0609 14.3842h3.6962v16.5257h-3.6962z" transform="matrix(.98480775 -.17364818 .17364818 .98480775 -3.4479 5.885)"/><path d="m37.1776 13.1293h3.6962v16.5257h-3.6962z" transform="matrix(.98480775 -.17364818 .17364818 .98480775 -3.1218 7.1017)"/><path d="m33.3438 30.7844 2.0219 11.4669"/><path d="m40.4606 29.5296 1.1896 6.7466"/><path d="m26.227 32.0393 2.2895 12.9841"/><path d="m42.137 12.4533-38.3099 6.7551"/></g></svg>