<svg viewBox="0 0 48 48" xmlns="http://www.w3.org/2000/svg"><g fill="none" stroke="#000" stroke-linecap="round" stroke-linejoin="round"><path d="m23.977 25.28a3.2612 3.2612 0 0 0 -1.6339 6.0737l-1 4.64h5.3122l-1-4.64a3.2659 3.2659 0 0 0 1.61-2.8057v-.0383a3.2657 3.2657 0 0 0 -3.2885-3.23z"/><rect height="25.727" rx="3" width="31.231" x="8.3844" y="17.773"/><path d="m13.352 17.773v-2.6126a10.66 10.66 0 0 1 21.319 0v2.613"/></g><path d="m21.1077 10.9838a.75.75 0 1 0 -.75.75.75.75 0 0 0 .75-.75z"/><path d="m21.4487 14.6072a6.1083 6.1083 0 0 0 2.5628.6547 6.1276 6.1276 0 0 0 2.5629-.6547" fill="none" stroke="#000" stroke-linecap="round" stroke-linejoin="round"/><path d="m27.6654 10.2339a.75.75 0 1 0 .75.75.75.75 0 0 0 -.75-.75z"/></svg>