<svg viewBox="0 0 48 48" xmlns="http://www.w3.org/2000/svg"><g fill="none" stroke="#000" stroke-linecap="round" stroke-linejoin="round"><circle cx="24" cy="24" r="21.5"/><path d="m4.502 32.7274a7.6667 7.6667 0 0 1 4.378-1.3539 8.4963 8.4963 0 0 1 8.8105 8.4287"/><path d="m31.7156 43.8069a8.8072 8.8072 0 0 1 7.5928-13.2664 7.8305 7.8305 0 0 1 4.5449 1.2422"/><path d="m31.0654 3.8875a4.9654 4.9654 0 0 1 .32 1.68m-.9312 3.9717a6.867 6.867 0 0 1 -11.95-.2076m-.8142-2.7953q-.0165-.2383-.0166-.481a5.7678 5.7678 0 0 1 .6666-2.7016"/><circle cx="12.5556" cy="18.0823" r="2.6989"/><path d="m14.2637 20.5538s2.99 6.4787-1.8007 6.7708-4.586-4.2146-3.7846-5.4263a4.9236 4.9236 0 0 1 1.7688-1.67"/><path d="m8.306 22.0529s-5.5 1.8977-4.72-3.4439 6.564-1.739 6.564-1.739"/><path d="m7.8059 15.7022s-3.1773-3.2022-.7469-4.73 5.1734-2.3715 6.2429 1.2731"/><path d="m12.3744 15.5229s1.3692-7.2522 4.8863-5.5541 4.9875 5.9562-1.54 7.7029"/><path d="m17.9462 16.9574s4.3785.6064 3.537 4.7056-6.1632 1.6015-6.1632 1.0345"/><path d="m23.1415 12.881a20.1682 20.1682 0 0 0 3.0338 9.631s-1.0185-6.7195 1.9839-10.7228"/><path d="m32.5582 33.6322c-2.3577-6.6962 2.6511-11.66 2.6511-11.66s-2.5215 8.4278 1.9279 8.7778"/><path d="m26.1753 22.512s-2.8763 3.1927-2.9366 4.8158-3.395 5.6493-3.395 7.2553a31.477 31.477 0 0 0 .4672 4.2261s6.7176-2.85 6.8331-4.631 2.7888-2.5459 3.024-3.8507 1.0907-2.56-3.9927-7.8155"/><path d="m34.4016 23.0931c-3.1752-3.9917-1.4276-7.4419-1.4276-7.4419s2.3829 2.6036 2.5728 3.7044"/><path d="m35.5468 19.3556a10.2042 10.2042 0 0 1 3.4159-.7445c1.2245.1189-.4689 3.5455-.4689 3.5455l3.9371-.0573c.3127.7883-1.9011 1.9322-3.1344 2.0468-2.3858.2218-4.9706-.5274-4.8949-1.053"/><path d="m33.47 16.2117s2.2978-6.69 7.3828-5.3885"/><path d="m41.4437 21.8765s2.6588-3.645 2.186-6.5125"/><path d="m10.5317 31.4933s4.39-2.9582 3.5329-4.5138"/><path d="m15.7064 34.4847s2.7147-5.3564.8691-10.9172"/><ellipse cx="8.8541" cy="34.1237" rx="1.574" ry="2.5468" transform="matrix(.4910406 -.87113669 .87113669 .4910406 -25.22 25.0807)"/><ellipse cx="16.5838" cy="41.0671" rx="1.574" ry="2.5468" transform="matrix(.89296716 -.45012182 .45012182 .89296716 -16.7102 11.8602)"/><ellipse cx="32.7062" cy="40.8531" rx="2.5468" ry="1.574" transform="matrix(.31619715 -.9486935 .9486935 .31619715 -16.3925 58.9636)"/><ellipse cx="40.5328" cy="33.198" rx="2.5468" ry="1.574" transform="matrix(.82706095 -.56211225 .56211225 .82706095 -11.6513 28.5252)"/><ellipse cx="30.454" cy="7.581" rx="2.5468" ry="1.574" transform="matrix(.82706095 -.56211225 .56211225 .82706095 1.0053 18.4296)"/><ellipse cx="19.4917" cy="7.909" rx="1.574" ry="2.5468" transform="matrix(.19802175 -.98019763 .98019763 .19802175 7.8795 25.4485)"/><path d="m26.1753 22.512a22.0552 22.0552 0 0 1 -5.8644 16.2972"/><path d="m25.4726 33.5762.1586.6462"/><path d="m27.05 28.9114c.9678.5779.9515.7154 1.1226 1.591"/><path d="m24.0844 29.1439a1.5235 1.5235 0 0 1 -.8687 1.372"/><path d="m22.7182 32.8484a2.1151 2.1151 0 0 0 -1.2506.54"/><path d="m37.6366 18.5263s1.1575-3.5017 2.4482-3.642 2.3694-1.775 2.3694-1.775"/><path d="m17.69 6.5363s-5.7793.1271-7.8067 1.2691"/><path d="m32.6078 7.131a39.7288 39.7288 0 0 1 6.3646 1.5332"/></g></svg>