<svg viewBox="0 0 48 48" xmlns="http://www.w3.org/2000/svg"><g fill="none" stroke="#000" stroke-linecap="round" stroke-linejoin="round"><path d="m35.5 24c0 3.21-5.15 5.84-11.5 5.84s-11.5-2.6-11.5-5.84c-1.27 0-7 2.85-7 3.8v12.75a2 2 0 0 0 2 2h33.1a2 2 0 0 0 2-2v-12.75c-.1-.95-5.83-3.8-7.1-3.8z"/><path d="m24 15.03v-5.27"/><path d="m31.84 16.96 2.64-4.56"/><path d="m16.16 16.96-2.64-4.56"/><path d="m35.5 24c0-2.7-5.86-6.28-11.5-6.28s-11.5 3.6-11.5 6.28m8.3-2.29c-.86.2-1.64 0-1.76-.48s.5-1 1.35-1.21 1.64 0 1.75.47-.49 1.01-1.34 1.22z"/></g></svg>