<svg viewBox="0 0 48 48" xmlns="http://www.w3.org/2000/svg"><g fill="none" stroke="#000" stroke-linecap="round" stroke-linejoin="round"><rect height="37.078" rx=".7242" transform="matrix(.70710678 .70710678 -.70710678 .70710678 24 -9.9411)" width="18.925" x="14.538" y="5.461"/><path d="m19.42 41.962a1.3806 1.3806 0 0 0 1.9527 0l3.5609-3.5608a1.3808 1.3808 0 0 0 0-1.9527"/><path d="m36.449 24.933a1.3808 1.3808 0 0 0 1.9527 0l3.5608-3.5609a1.3806 1.3806 0 0 0 0-1.9527"/><path d="m23.067 11.551a1.3808 1.3808 0 0 1 0-1.9527l3.5609-3.5608a1.3806 1.3806 0 0 1 1.9527 0"/><path d="m6.0379 28.58a1.3806 1.3806 0 0 1 0-1.9527l3.5608-3.5609a1.3808 1.3808 0 0 1 1.9527 0"/><path d="m16.043 22.257v-1.171l5.135-5.135v3.561l-3.94 3.94z"/><path d="m14.25 26.44-3.541.757-.389-.388 4.579-4.579h1.144l1.209 1.209z"/><path d="m28.4877 26.822h3.5612c0-2.3562.1874-3.24-.5623-3.9895l-6.3191-6.3191c-.75-.75-1.6333-.5623-3.9895-.5623v3.5612z"/><path d="m25.743 31.957h1.171l5.135-5.135h-3.561l-3.94 3.94z"/><path d="m21.56 33.75-.757 3.541.388.389 4.579-4.579v-1.144l-1.209-1.209z"/><path d="m17.711 37.291h3.092l.586-2.743-7.937-7.937-2.743.586v3.092z"/><path d="m31.487 22.832 5.643-5.643v-2.274l2.002-2.001"/><path d="m25.168 16.513 5.643-5.643h2.274l2.001-2.002"/></g></svg>