<svg viewBox="0 0 48 48" xmlns="http://www.w3.org/2000/svg"><g fill="none" stroke="#000" stroke-linecap="round" stroke-linejoin="round"><path d="m26.4213 14.2354h-8.2442a1.8182 1.8182 0 0 0 -1.8183 1.8182v18.6064a.5742.5742 0 0 0 1 .3852l5.3252-5.8852a1.1483 1.1483 0 0 1 .8515-.3779h3.127a7.2732 7.2732 0 0 0 7.2719-7.4094 7.4316 7.4316 0 0 0 -7.5131-7.1373z"/><circle cx="24" cy="24" r="21.5"/><path d="m5.5481 12.958a6.9727 6.9727 0 0 1 5.1485-2.2614 13.256 13.256 0 0 1 9.035 3.5386"/><path d="m28.7932 3.0361a6.9723 6.9723 0 0 1 3.7481 4.2006 13.2539 13.2539 0 0 1 -.4806 9.4808"/><path d="m45.4171 22.0974a6.9727 6.9727 0 0 1 -2.8348 4.8457 13.2987 13.2987 0 0 1 -13.3144 1.3555"/><path d="m32.4489 43.7766a6.9726 6.9726 0 0 1 -5.5058-1.1943 13.2984 13.2984 0 0 1 -5.4142-12.1439"/><path d="m7.79 38.1246a6.9724 6.9724 0 0 1 -.553-5.5833 13.2916 13.2916 0 0 1 9.1221-8.717"/></g></svg>