<svg viewBox="0 0 48 48" xmlns="http://www.w3.org/2000/svg"><g fill="none" stroke="#000" stroke-linecap="round" stroke-linejoin="round"><path d="m21.5552 32.77c-.5433 3.3829-6.7607 2.1322-7.7066 4.3376-.5888 1.3728 1.5686 5.132.0118 5.1376-3.428.0124-8.3029-4.9289-8.36-8.6243-.0568-3.7075 2.7535-7.5107 8.214-7.6242 3.6313-.0755 8.915 1.8785 7.84 6.7733"/><path d="m32.9757 21.8346c.2 2.2473-1.9434 4.2768-4.794 4.5385s-5.3341-1.3428-5.5535-3.5883c-.1084-1.1092 4.0026 1.356 3.6715.2282-.1019-.3473-1.2625-4.25 2.148-4.7917a3.6625 3.6625 0 0 1 4.5223 3.5587"/><path d="m41.7741 6.2082a2.5988 2.5988 0 0 1 -.0279 3.6383l-5.2452 6.3119a2.599 2.599 0 0 1 -3.5718.6933 2.599 2.599 0 0 1 .0279-3.6384l5.2452-6.3118a2.5988 2.5988 0 0 1 3.5718-.6933z"/></g><circle cx="18.4422" cy="30.3273" r=".75"/><circle cx="15.9119" cy="28.9246" r=".75"/><circle cx="13.154" cy="28.5423" r=".75"/><circle cx="10.6739" cy="29.4979" r=".75"/><circle cx="8.8852" cy="31.672" r=".75"/></svg>