<svg viewBox="0 0 48 48" xmlns="http://www.w3.org/2000/svg"><g fill="none" stroke="#000" stroke-linecap="round" stroke-linejoin="round"><path d="m36.987 17.487a12.987 12.987 0 1 0 -20.163 10.8208v11.6172a1.391 1.391 0 0 0 1.391 1.391h11.57a1.391 1.391 0 0 0 1.391-1.391v-11.6172a12.9709 12.9709 0 0 0 5.811-10.8208z"/><path d="m16.824 34.465a1.391 1.391 0 0 0 1.391 1.391h11.57a1.391 1.391 0 0 0 1.391-1.391"/><path d="m17.994 23.688h12.012"/><path d="m24 35.856v-12.168"/><path d="m20.256 41.316v.793a1.391 1.391 0 0 0 1.391 1.391h4.706a1.391 1.391 0 0 0 1.391-1.391v-.793"/></g></svg>