<svg viewBox="0 0 48 48" xmlns="http://www.w3.org/2000/svg"><g fill="none" stroke="#000" stroke-linecap="round" stroke-linejoin="round"><path d="m40.5 5.5h-33a2 2 0 0 0 -2 2v33a2 2 0 0 0 2 2h33a2 2 0 0 0 2-2v-33a2 2 0 0 0 -2-2z"/><path d="m5.5 24h37"/><path d="m24 5.5v37"/><path d="m24 14.75h18.5"/><path d="m33.25 5.5v37"/><path d="m37.875 5.5v37"/><path d="m28.625 24v18.5"/><path d="m19.375 33.25v9.25"/><path d="m10.125 33.25v9.25"/><path d="m14.75 42.5v-18.5"/><path d="m5.5 33.25h37"/><path d="m33.25 35.5625h9.25"/><path d="m33.25 40.1875h9.25"/><path d="m24 28.625h18.5"/><path d="m33.25 19.375h9.25"/><path d="m33.25 10.125h9.25"/><path d="m5.5 37.875h37"/><path d="m40.1875 33.25v9.25"/><path d="m35.5625 33.25v9.25"/></g></svg>