<svg viewBox="0 0 48 48" xmlns="http://www.w3.org/2000/svg"><g fill="none" stroke="#000" stroke-linecap="round" stroke-linejoin="round"><path d="m29.2 16.5a10.25 10.25 0 0 0 -10.4 0m-4.8 8.1c.07 4.31 1.93 7.45 5.3 9.3m9.5 0a10 10 0 0 0 5.2-9.3l-2.5.5"/><path d="m25.4 26.8a2.3 2.3 0 0 1 -3 0l-.95.58a8 8 0 0 1 -7.3 11.27 8 8 0 0 1 -5.65-2.25 11.1 11.1 0 0 0 15.5 1.11 11 11 0 0 0 7.15 2.64 10.91 10.91 0 0 0 8.35-3.75 7.9 7.9 0 0 1 -5.65 2.25 8 8 0 0 1 -8-8 7.92 7.92 0 0 1 .66-3.19zm2-.9a8 8 0 0 1 14.44 4.75 7.09 7.09 0 0 1 -.2 1.65 10.22 10.22 0 0 0 .5-3.15 11 11 0 0 0 -7.42-10.4 11 11 0 0 0 .17-1.9 11.19 11.19 0 0 0 -8.08-10.8 8.33 8.33 0 0 1 5.23 7.75 8 8 0 0 1 -7.25 8v1.3a2.32 2.32 0 0 1 1.35 2.3zm-5.76-.6a2.23 2.23 0 0 1 1.46-2.3v-1.3a7.85 7.85 0 0 1 -7-7.95 8 8 0 0 1 5.9-7.75 11 11 0 0 0 -9.1 10.8 10.86 10.86 0 0 0 .18 2 11 11 0 0 0 -7.23 10.3 9.89 9.89 0 0 0 .45 3.15 6.55 6.55 0 0 1 -.15-1.65 8 8 0 0 1 14.42-4.8z"/></g></svg>