<svg viewBox="0 0 48 48" xmlns="http://www.w3.org/2000/svg"><g fill="none" stroke="#000" stroke-linecap="round" stroke-linejoin="round"><path d="m30.323 10.8785c-10.3586 7.3944-7.3466 20.4462-7.3466 20.4462l2.247-4.255m5.1-16.1912c4.2451 11.9982-5.7076 20.9629-5.7076 20.9629l.5995-4.7743"/><path d="m12.2194 13.2052c5.3546.3506 9.8167 5.8008 9.8167 5.8008a17.16 17.16 0 0 0 -1.0518 9.9761c-4.9607-4.3428-9.5612-8.8475-8.7649-15.7769z"/><path d="m2.9482 29.9183a45.41 45.41 0 0 0 20.3665 7.2032c-3.6374-8.4215-10.103-11.4397-20.3665-7.2032z"/><path d="m24.749 37.0752c11.0254-.5589 20.2922-7.0123 20.3028-7.0752-9.3794-4.045-16.1929-1.799-20.3028 7.0752z"/></g></svg>