<svg viewBox="0 0 48 48" xmlns="http://www.w3.org/2000/svg"><g fill="none" stroke="#000" stroke-linecap="round" stroke-linejoin="round"><path d="m12.0728 20.3405c6.6119-4.3415 11.0124-8.5489 12.7072-12.592"/><path d="m20.3327 13.8712 10.7437-1.6173-9.0108 9.2419-7.1625.52 3.35 11.4946 13.0542-1.7329 2.7148-11.8989-9.3 1.213-.6921 11.5522"/><path d="m19.8706 27.0986 9.0109-1.3862"/><path d="m11.2641 35.1275-3.8134 7.3725"/><path d="m16.5205 36.5716 3.5812 3.9855"/><path d="m25.0114 36.2828 3.5813 4.3321"/><path d="m33.9645 35.4163 6.5848 6.7581"/><path d="m24.7226 21.0914-2.657.4044"/><path d="m40.5 5.5h-33a2 2 0 0 0 -2 2v33a2 2 0 0 0 2 2h33a2 2 0 0 0 2-2v-33a2 2 0 0 0 -2-2z"/></g></svg>