<svg viewBox="0 0 48 48" xmlns="http://www.w3.org/2000/svg"><g fill="none" stroke="#000"><path d="m43.69 30.66a1 1 0 0 0 -1.19-.08 15.65 15.65 0 0 1 -17.17-26.17 1 1 0 0 0 -.54-1.87h-.27l-.52-.04a21.5 21.5 0 1 0 20 29.32 1 1 0 0 0 -.31-1.16zm-30.17 6.5a6.79 6.79 0 1 1 6.79-6.79 6.8 6.8 0 0 1 -6.79 6.79z" stroke-linecap="round" stroke-linejoin="round"/><circle cx="13.52" cy="30.37" r="1.18" stroke-miterlimit="10"/><g stroke-linecap="round" stroke-linejoin="round"><path d="m13.52 25.53v3.66"/><path d="m14.71 30.37h3.65"/></g></g></svg>