<svg viewBox="0 0 48 48" xmlns="http://www.w3.org/2000/svg"><path d="m39.01 29.44v5a18.2 18.2 0 0 1 -30.01-.01v-9.43a15 15 0 0 1 2.85-8.76l-2.1-2.07a2.44 2.44 0 0 1 0-3.46 2.39 2.39 0 0 1 1.72-.7 2.59 2.59 0 0 1 1.77.73l2.08 2.08a14.93 14.93 0 0 1 17.45 0l2.1-2.09a2.45 2.45 0 0 1 3.47 0 2.45 2.45 0 0 1 0 3.46l-2.1 2.08a15 15 0 0 1 2.76 8.73v4.49c-2.73 2.86-4.6 4.67-6.42 5.25-1.61.51-3.49.33-6.32-.79m-17.26-6.49c0 .75-.22 2.95-2.52.65a7 7 0 0 1 -1.84-6.35 5.34 5.34 0 0 1 3.08-4.09 3 3 0 0 1 1-.38 1.34 1.34 0 0 1 .28 0c.59.07 1.69 1 1.21 1.79m27.58 0c-.48-.83.62-1.72 1.21-1.79a1.34 1.34 0 0 1 .28 0 3.09 3.09 0 0 1 1 .38 5.36 5.36 0 0 1 3.07 4.09 7 7 0 0 1 -1.84 6.35c-2.3 2.3-2.52.1-2.52-.65m-21.31-4.87a2.76 2.76 0 0 0 0 5.52 2.76 2.76 0 0 0 0-5.52zm12.64 0a2.76 2.76 0 1 0 0 5.52 2.76 2.76 0 0 0 2.76-2.76 2.76 2.76 0 0 0 -2.76-2.76zm-4 10.88a2.31 2.31 0 1 1 -2.32-2.3 2.31 2.31 0 0 1 2.31 2.3z" fill="none" stroke="#000" stroke-linecap="round" stroke-linejoin="round"/></svg>