<svg viewBox="0 0 48 48" xmlns="http://www.w3.org/2000/svg"><g fill="none" stroke="#000" stroke-linecap="round" stroke-linejoin="round"><path d="m5.5014 16.641a8.8875 8.8875 0 0 1 -.2355-1.1347 2.0014 2.0014 0 1 1 3.7615.9525l2.7994 2.1044a1.7 1.7 0 0 1 .5674 1.59c-.11.8906-.7361 1.5485-1.3979 1.4665a.9371.9371 0 0 1 -.4414-.1764l-3.1113-2.3185a2.0013 2.0013 0 1 1 -1.9422-2.4838z"/><path d="m10.5043 31.4344a16.9028 16.9028 0 0 1 -1.7115-7.4344c0-.247.0048-.4939.0153-.738a3.22 3.22 0 0 0 2.4142 2.3837c1.8832.2308 3.712-2.0261 4.0819-5.0373s-.8591-5.6446-2.7413-5.8754a2.2959 2.2959 0 0 0 -1.1117.1459 16.9808 16.9808 0 0 1 30.1608 2.9987c.9659-.0219 2.5868-1.1928 2.787-.881.2517.3909.1745 2.5725-1.927 3.9236a17.0728 17.0728 0 0 1 .2794 3.0798 16.8888 16.8888 0 0 1 -2.3294 8.5833c.0038.0048 1.33 1.3273 1.33 1.3273a.9558.9558 0 0 1 .0019 1.3511l-3.4591 3.4683a.9559.9559 0 0 1 -1.3511.001l-1.08-1.0775a16.9669 16.9669 0 0 1 -21.219-.8324l-1.3547 1.137a.9563.9563 0 0 1 -1.3463-.1182l-3.1485-3.752a.9551.9551 0 0 1 .1183-1.3453s1.5327-1.2777 1.5908-1.3082z"/></g></svg>