<svg viewBox="0 0 48 48" xmlns="http://www.w3.org/2000/svg"><g fill="none" stroke="#000" stroke-linecap="round" stroke-linejoin="round"><path d="m34.42 14.9871a2.2417 2.2417 0 0 1 -2.2351-2.2352v-1.4528a2.2417 2.2417 0 0 1 2.2351-2.2351 2.2418 2.2418 0 0 1 2.2352 2.2351v1.4528a2.2418 2.2418 0 0 1 -2.2352 2.2352z"/><path d="m21.34 9.064v3.6879a2.2417 2.2417 0 0 0 2.2351 2.2351 2.2417 2.2417 0 0 0 2.2349-2.2351v-3.6879"/><path d="m25.8101 12.7519v2.2352"/><path d="m29.3495 7.1641v7.823"/><path d="m28.1202 9.064h2.3468"/><path d="m18.1889 6.0466v7.8234a1.0558 1.0558 0 0 0 .99 1.1176 1.0813 1.0813 0 0 0 .1273 0h.3352"/><path d="m11.3676 12.7519a2.2418 2.2418 0 0 0 2.2351 2.2352 2.2417 2.2417 0 0 0 2.2352-2.2352v-1.4528a2.2418 2.2418 0 0 0 -2.2352-2.2351 2.2417 2.2417 0 0 0 -2.2351 2.2351"/><path d="m11.3676 9.064v8.9405"/><path d="m28.7888 27.9572v6.1166a1.7063 1.7063 0 0 0 1.7063 1.7062"/><path d="m27.559 29.857h5.242l2.235 5.923 2.235-5.923"/><circle cx="32.4153" cy="31.8687" r="10.0847"/><path d="m22.3305 31.8687a10.0828 10.0828 0 0 1 7.2815-9.6816 10.0847 10.0847 0 1 0 0 19.3632 10.083 10.083 0 0 1 -7.2815-9.6816z"/><path d="m11.1287 31.8687a10.0828 10.0828 0 0 1 7.2813-9.6816 10.0847 10.0847 0 1 0 0 19.3632 10.083 10.083 0 0 1 -7.2813-9.6816z"/><path d="m16.7241 31.8687a10.0827 10.0827 0 0 1 7.2814-9.6816 10.0847 10.0847 0 1 0 0 19.3632 10.0829 10.0829 0 0 1 -7.2814-9.6816z"/></g></svg>