<svg viewBox="0 0 48 48" xmlns="http://www.w3.org/2000/svg"><g fill="none" stroke="#000" stroke-linecap="round" stroke-linejoin="round"><rect height="11.9964" rx="1.0546" width="17.1377" x="12.8211" y="18.6705"/><path d="m15.4976 21.5109h6.1177"/><path d="m24.2918 21.5109h2.2941"/><circle cx="15.9073" cy="28.4206" r=".8569"/><circle cx="19.5123" cy="28.4206" r=".8569"/><circle cx="24.9199" cy="27.2462" r="1.7138"/><path d="m15.3337 18.6705 7.7563-4.9705"/><path d="m29.1741 17.1243a2.2934 2.2934 0 0 1 2.2816 2.0378"/><path d="m7.3056 43.5s.0351-3.78.1573-20.8017 21.8771-26.1706 31.2571-9.0496c6.2289 11.369-2.6072 30.3156-21.8976 22.6159z"/><path d="m29.1741 15.4068a4.1845 4.1845 0 0 1 4.14 3.7553"/><path d="m29.1741 13.6526a6.29 6.29 0 0 1 6.0116 5.5095"/></g></svg>