<svg viewBox="0 0 48 48" xmlns="http://www.w3.org/2000/svg"><g fill="none" stroke="#000" stroke-linecap="round" stroke-linejoin="round"><path d="m8.42 15.67 1.58 21.76 13.85 6.12 13.88-6.12 1.82-21.76h-31.12"/><path d="m10.64 17.48h2"/><path d="m17.18 17.48h15.88" stroke-dasharray="4.54 4.54"/><path d="m35.33 17.48h2l-.19 1.99"/><path d="m36.68 24.31-.69 7.26" stroke-dasharray="4.86 4.86"/><path d="m35.76 33.99-.19 1.99-1.81.84"/><path d="m31.11 38.04-3.97 1.82" stroke-dasharray="2.91 2.91"/><path d="m25.82 40.47-1.82.84-1.82-.83"/><path d="m19.52 39.25-4-1.83" stroke-dasharray="2.93 2.93"/><path d="m14.18 36.81-1.81-.83-.19-1.99"/><path d="m11.73 29.15-.68-7.26" stroke-dasharray="4.86 4.86"/><path d="m10.83 19.47-.19-1.99"/><path d="m15.31 15.67 2.93-11.12 9.12 2.37-2.22 8.75"/><path d="m17.51 7.34 4 1.09"/><path d="m16.48 11.25 3.95 1.09"/><path d="m16 13.19 2.68.71"/><path d="m17 9.33 2.58.69"/><path d="m15.47 15.08 2.08.59"/><path d="m27.33 15.67 1.07-2.67 2.33 1-.38 1.73"/><path d="m28.78 13.1.71-1.91 1.57.55-.73 2"/><path d="m29.49 11.19c-.12-1.81.11-5.41 3.07-6.32 1.35 2.45.2 5.08-1.5 6.87"/><path d="m35.66 13.8-.93 1.87"/><path d="m32.09 15.67 1.35-3"/><path d="m33.16 12.33 3.43-3.41-.45 4.82a3 3 0 0 1 -3-1.41"/></g></svg>