<svg viewBox="0 0 48 48" xmlns="http://www.w3.org/2000/svg"><g fill="none" stroke="#000" stroke-linecap="round" stroke-linejoin="round"><path d="m8.49 20a15.51 15.51 0 1 1 10.33 14.63m5.18-19.8a5.18 5.18 0 1 0 5.18 5.17 5.19 5.19 0 0 0 -5.18-5.17z"/><path d="m24 14.83a10.34 10.34 0 0 1 .53 20.67 15.5 15.5 0 0 0 -.53-31"/><path d="m24 4.5a15.53 15.53 0 0 0 -15.51 15.5v18.33a5.17 5.17 0 1 0 10.33 0v-18.33a12.65 12.65 0 0 1 12.63-12.62 11.94 11.94 0 0 1 1.7.12 15.45 15.45 0 0 0 -9.15-3z"/></g></svg>