<svg viewBox="0 0 48 48" xmlns="http://www.w3.org/2000/svg"><g fill="none" stroke="#000" stroke-linecap="round" stroke-linejoin="round"><path d="m16.978 23.317a6.7753 6.7753 0 1 1 12.75 4.2666c-.9867 3.1121-5.1533 5.32-5.873 9.1543s-7.8177 4.0311-7.395-1.4406"/><path d="m27.17 24.5289s.5116-3.61-2.8153-3.61-2.7717 5.8783-5.8783 5.8783"/><path d="m19.8451 30.6042s-1.1551.1858-1.1551 2.0011 3.906 1.65 3.906-1.1565-3.1661-4.2363-1.4945-7.0813"/><path d="m23.9649 12.9966a11.0023 11.0023 0 0 1 11.0022 11.0022"/><path d="m23.9649 7.602a16.3968 16.3968 0 0 1 16.3968 16.3968"/><circle cx="24" cy="24" r="21.5"/></g></svg>