<svg viewBox="0 0 48 48" xmlns="http://www.w3.org/2000/svg"><g fill="none" stroke="#000" stroke-linecap="round" stroke-linejoin="round"><path d="m12.21 25.17v17.02"/><path d="m35.79 25.17v17.02"/><path d="m8.88 22.55a15.12 15.12 0 0 1 15.12-15.12 15.12 15.12 0 0 1 15.12 15.12v4.53a8.81 8.81 0 0 0 -3.33-1.91 1.31 1.31 0 0 0 -1.31-1.31h-2.62a1.3 1.3 0 0 0 -1.31 1.31v17a1.3 1.3 0 0 0 1.31 1.31h2.62a1.31 1.31 0 0 0 1.31-1.31 8.92 8.92 0 0 0 6.27-8.51v-11.11a18.06 18.06 0 0 0 -18.06-18.05 18.06 18.06 0 0 0 -18.06 18.05v11.13a8.92 8.92 0 0 0 6.27 8.51 1.31 1.31 0 0 0 1.31 1.31h2.62a1.3 1.3 0 0 0 1.31-1.31v-17a1.3 1.3 0 0 0 -1.31-1.31h-2.62a1.31 1.31 0 0 0 -1.31 1.31 8.81 8.81 0 0 0 -3.33 1.91z"/></g></svg>