<svg viewBox="0 0 48 48" xmlns="http://www.w3.org/2000/svg"><g fill="none" stroke="#000" stroke-linecap="round" stroke-linejoin="round"><path d="m40.86 14.3-16.97-9.8-16.86 9.73 16.97 9.8z"/><path d="m24 24.03-16.97-9.8v19.47l16.97 9.8z"/><path d="m40.86 14.3-16.86 9.73v19.47l16.86-9.73z"/><g stroke-width="1.08"><path d="m24 32.28-3.48-6.53-10-5.77-3.49 2.5"/><path d="m40.86 22.53-3.45-2.48-9.95 5.74-3.46 6.49"/><path d="m34.26 14.25-10.35-5.97-10.28 5.94 10.35 5.97z"/><path d="m27.36 10.27-10.28 5.94"/><path d="m30.81 12.26-10.28 5.94"/><path d="m30.83 16.23-10.34-5.97"/><path d="m27.41 18.21-10.35-5.97"/></g></g></svg>