<svg viewBox="0 0 48 48" xmlns="http://www.w3.org/2000/svg"><g fill="none" stroke="#000" stroke-linecap="round" stroke-linejoin="round"><path d="m24 4.5a143.8671 143.8671 0 0 0 -10.4347 10.3185c-3.9968 4.5869-6.52 8.76-6.8046 13.6135a7.767 7.767 0 0 0 6.49 8.2407c3.0014.3326 6.2482-.6721 7.454-2.4748s2.4237-1.9273 2.2045.1073-1.7368 7.2876-6.5328 9.1948h7.6236"/><path d="m24 13.8618 1.9715 6.1143 6.423-.014-5.2045 3.7648 1.9982 6.1057-5.1882-3.7876-5.1881 3.7876 1.9981-6.1057-5.2046-3.7648 6.423.014z"/><path d="m24 4.5a143.8671 143.8671 0 0 1 10.4347 10.3185c3.9968 4.5869 6.52 8.76 6.8046 13.6135a7.767 7.767 0 0 1 -6.4893 8.2407c-3.0014.3326-6.2482-.6721-7.454-2.4748s-2.4237-1.9273-2.2045.1073 1.7363 7.2876 6.5323 9.1948h-7.6238"/></g></svg>