<svg viewBox="0 0 48 48" xmlns="http://www.w3.org/2000/svg"><g fill="none" stroke="#000" stroke-linecap="round" stroke-linejoin="round"><path d="m29.995 10.322 11.354 6.821-6.576 18.534-8.721.201-2.807-6.534z"/><path d="m26.0523 35.8777 8.1639-23.0078"/><path d="m5.512 7.661-1.012 7.294 6.241 16.192 1.939.095 4.428-1.571-6.304-16.824z"/><path d="m5.512 7.661.548 7.168 6.62 16.413"/><path d="m7.536 32.412 10.837-2.319 1.518-1.94 1.367 2.735-1.409 1.819-11.217 2.319-1.096-2.614 1.602-2.024 1.225-.221"/><path d="m19.8907 28.1534-3.1189.6214"/><path d="m17.977 33.094 1.914 4.884-1.181 1.687-4.048.674-2.427-6.058"/><path d="m16.3066 33.6139 2.4034 6.0509"/><path d="m41.349 17.143 2.151-.385-6.688 18.59-2.039.329"/><path d="m29.995 10.322 2.909-.081 10.596 6.517"/><path d="m18.3727 30.093 1.4758 2.6143"/></g></svg>