<svg viewBox="0 0 48 48" xmlns="http://www.w3.org/2000/svg"><path d="m13.9979 13.9975a2.1206 2.1206 0 0 1 2.9991 0l3.2182 3.23m19.1748 13.1564a1.8222 1.8222 0 1 1 2.577 2.5769l-3.7046 3.7046s1.3993 1.3677.5847 2.1823m-20.1271-20.1268 11.96-11.96a4.3047 4.3047 0 0 1 6.0877 6.0878l-10.69 10.69 9.5859 10.57 3.7264-3.7252m-25.3933-16.3864a2.1206 2.1206 0 0 0 0 2.9991l3.2295 3.2182m13.1569 19.1749a1.8222 1.8222 0 0 0 2.5769 2.577l3.7047-3.7046s1.3676 1.3993 2.1822.5847m-20.1269-20.1264-11.96 11.96a4.3047 4.3047 0 0 0 6.0877 6.0878l10.69-10.69 10.57 9.5859-3.7257 3.7257" fill="none" stroke="#000" stroke-linecap="round" stroke-linejoin="round"/></svg>