<svg viewBox="0 0 48 48" xmlns="http://www.w3.org/2000/svg"><g fill="none" stroke="#000" stroke-linecap="round" stroke-linejoin="round"><path d="m41.5 8.5h-35a2 2 0 0 0 -2 2v27a2 2 0 0 0 2 2h11.9484v-2.9159h-2.2524v-3.0393h-5.7407v-19.0895h27.09v19.09h-5.7413v3.0393h-2.2527v2.9154h11.9487a2 2 0 0 0 2-2v-27a2 2 0 0 0 -2-2z"/><path d="m18.4484 39.5h11.1029"/><path d="m24 18.8411v-4.3858"/><path d="m21.778 18.8411v-4.3858"/><path d="m26.222 18.8411v-4.3858"/><path d="m30.6589 18.8411v-4.3858"/><path d="m17.3166 18.8411v-4.3858"/><path d="m28.4439 18.8411v-4.3858"/><path d="m19.5561 18.8411v-4.3858"/><path d="m15.112 14.455v4.386h17.776v-4.386"/></g></svg>