<svg viewBox="0 0 48 48" xmlns="http://www.w3.org/2000/svg"><g fill="none" stroke="#000" stroke-linecap="round" stroke-linejoin="round"><path d="m40.5 5.5h-33a2 2 0 0 0 -2 2v33a2 2 0 0 0 2 2h33a2 2 0 0 0 2-2v-33a2 2 0 0 0 -2-2z"/><path d="m10.3727 32.5 3.028-17h5.5655a4.6452 4.6452 0 0 1 4.68 5.7093 7.1154 7.1154 0 0 1 -6.714 5.7093h-5.5653"/><path d="m24.6736 30.6373c.8007 1.3572 2.0179 1.8627 3.8364 1.8627h2.5168a5.2968 5.2968 0 0 0 4.9979-4.25 3.4579 3.4579 0 0 0 -3.4838-4.25h-2.7809a3.4579 3.4579 0 0 1 -3.4839-4.25 5.2968 5.2968 0 0 1 4.9979-4.25h2.5168c1.8186 0 3.0357.5055 3.8364 1.8627"/></g></svg>