<svg viewBox="0 0 48 48" xmlns="http://www.w3.org/2000/svg"><g fill="none" stroke="#000"><path d="m19.205 45.035c-22.062-10.159-16.25-32.61-14.744-37.325a1.9949 1.9949 0 0 1 1.174-1.244c4.991-1.997 11.302-3.682 13.829-3.682 2.047 0 10.003 1.689 14.999 3.688a1.98 1.98 0 0 1 1.16 1.242c1.508 4.721 7.312 27.165-14.745 37.321a2.0184 2.0184 0 0 1 -1.673 0z" stroke-linejoin="round"/><g stroke-miterlimit="10"><path d="m23.11 18.494h6.145"/><circle cx="31.432" cy="18.494" r="1.766"/><path d="m22.605 26.737h5.182"/><circle cx="29.98" cy="26.737" r="1.766"/><path d="m21.975 22.756h19.541"/><circle cx="43.591" cy="22.756" r="1.766"/><path d="m21.633 22.911 1.028 6.56a.6585.6585 0 0 1 -.651.761h-4.006a.6593.6593 0 0 1 -.651-.762l1.041-6.595a.6877.6877 0 0 0 -.272-.639 3.0722 3.0722 0 1 1 3.794.028.6885.6885 0 0 0 -.283.647z"/></g></g></svg>