<svg viewBox="0 0 48 48" xmlns="http://www.w3.org/2000/svg"><g fill="none" stroke="#000" stroke-linecap="round" stroke-linejoin="round"><path d="m13.5723 5.7156c4.4441 0 11.5838 2.8213 16.3364 5.4419 5.2248 2.8806 12.5845 8.7625 12.5913 12.8186-.0078 4.3161-7.534 10.0305-12.5913 12.8192-4.592 2.5316-11.5837 5.4891-16.1748 5.4891a6.1338 6.1338 0 0 1 -2.9526-.6168c-3.6282-2.001-5.2813-10.5737-5.2813-17.6915a44.2547 44.2547 0 0 1 1.2656-10.5461c.9677-3.7592 2.3559-6.229 4.0157-7.1446a5.8268 5.8268 0 0 1 2.791-.57"/><path d="m14.7515 20.1445h5.1085"/><path d="m17.3057 18.7858v-2.9347"/><path d="m15.9471 17.0245c-.3669-1.1141-1.0326-.9782-1.436-.5842-.2967.29-.1026 1.6005.4952 2.2255"/><path d="m18.6644 17.0245c.3668-1.1141 1.0325-.9782 1.4359-.5842.2967.29.1027 1.6005-.4951 2.2255"/><rect height="5.1377" rx="1.9387" width="3.8775" x="15.3578" y="21.9971"/><path d="m21.1853 26.7013a2.1809 2.1809 0 0 0 1.5945.4334h.435a1.283 1.283 0 0 0 1.2816-1.2847 1.283 1.283 0 0 0 -1.2816-1.2844h-.87a1.2831 1.2831 0 0 1 -1.2817-1.2844 1.283 1.283 0 0 1 1.2817-1.2844h.4352a2.1809 2.1809 0 0 1 1.5945.4334"/><path d="m27.2622 20.3976v5.7677a.9694.9694 0 0 0 .9694.9694h.2908"/><path d="m26.2444 21.997h2.0357"/><path d="m34.3037 27.1347v-3.1989a1.9387 1.9387 0 0 0 -1.9387-1.9387 1.9387 1.9387 0 0 0 -1.9387 1.9387v3.1989"/><path d="m30.4263 23.9358v-1.9387"/><path d="m9.6 25.1677a1.9387 1.9387 0 0 0 1.9387 1.9388 1.9388 1.9388 0 0 0 1.9388-1.9388v-1.26a1.9388 1.9388 0 0 0 -1.9388-1.9388 1.9387 1.9387 0 0 0 -1.9387 1.9387"/><path d="m9.5998 21.9688v7.755"/><path d="m36.1822 19.3797v7.755"/></g><circle cx="17.3057" cy="13.972" r=".75"/></svg>