<svg viewBox="0 0 48 48" xmlns="http://www.w3.org/2000/svg"><g fill="none" stroke="#000" stroke-linecap="round" stroke-linejoin="round"><path d="m40.5 5.5h-33a2 2 0 0 0 -2 2v33a2 2 0 0 0 2 2h33a2 2 0 0 0 2-2v-33a2 2 0 0 0 -2-2z"/><path d="m15.1482 24.6078a3.246 3.246 0 0 0 3.2764 3.9777 4.9512 4.9512 0 0 0 4.679-3.9777l.4559-2.5855a3.246 3.246 0 0 0 -3.2763-3.9777 4.9514 4.9514 0 0 0 -4.6791 3.9777"/><path d="m16.3055 18.0446-2.8055 15.9108"/><path d="m26.0267 24.6078a3.246 3.246 0 0 0 3.2763 3.9777 4.9514 4.9514 0 0 0 4.6791-3.9777l.4559-2.5855a3.246 3.246 0 0 0 -3.2764-3.9777 4.9512 4.9512 0 0 0 -4.679 3.9777"/><path d="m27.1839 18.0446-2.8055 15.9108"/></g></svg>