<svg viewBox="0 0 48 48" xmlns="http://www.w3.org/2000/svg"><g fill="none" stroke="#000" stroke-linecap="round" stroke-linejoin="round"><path d="m40.5 5.5h-33a2 2 0 0 0 -2 2v33a2 2 0 0 0 2 2h33a2 2 0 0 0 2-2v-33a2 2 0 0 0 -2-2z"/><path d="m12.182 30.535v4.7837"/><path d="m11.774 12.338h5.5644"/><path d="m28.739 12.416h7.74"/><path d="m11.902 17.177h9.9446"/><path d="m11.842 21.301h7.0249"/><path d="m20.693 21.266h1.317"/><path d="m13.844 30.535v4.7837"/><path d="m18.729 30.535v4.7837"/><path d="m23.908 30.535v4.7837"/><path d="m25.862 30.535v4.7837"/><path d="m29.771 30.535v4.7837"/><path d="m31.725 30.535v4.7837"/><path d="m35.634 30.535v4.7837"/><path d="m22.345 30.535v4.7837"/></g></svg>