<svg viewBox="0 0 48 48" xmlns="http://www.w3.org/2000/svg"><g fill="none" stroke="#000" stroke-linecap="round" stroke-linejoin="round"><path d="m33.5215 15.1055h9.9785"/><path d="m28.1031 16.9044-3.0771 4.2238a3.9727 3.9727 0 1 0 -2.7385 6.8577 4.4392 4.4392 0 0 0 3.1784-.96c1.0687-.8375 5.9178-7.4908 8.0556-11.92"/><path d="m43.5 15.1055c-8.6648 13.15-14.8735 18.2323-20.8559 18.128s-9.5641-4.1235-9.5641-9.2273a9.2017 9.2017 0 0 1 14.9421-7.2311"/><path d="m9.3 23.0674a12.1153 12.1153 0 0 1 3.726-8.0174l-8.526.0556"/><path d="m4.5 15.1055 4.7988 7.9932"/></g></svg>