<svg viewBox="0 0 48 48" xmlns="http://www.w3.org/2000/svg"><g fill="none" stroke="#000" stroke-linecap="round" stroke-linejoin="round"><path d="m30.238 13.5843a7.4409 7.4409 0 0 0 -14.6027 2.17"/><circle cx="23.0695" cy="15.5962" r="4.7779"/><path d="m30.238 13.5843a19.7915 19.7915 0 0 0 .639-4.2143l5.8335 1.4426s-.7719 12.2238-13.622 12.2238c-11.3064 0-11.0723-12.4579-11.0723-12.4579l2.4106-.6327a15.8223 15.8223 0 0 0 1.2085 5.8082"/><path d="m17.1191 24.8651-2.4882 2.6649"/><path d="m6.2543 35.1332h5.0357"/><path d="m5.3589 37.0952h5.0358"/><path d="m21.5391 24.8651-2.4882 2.6649"/><path d="m26.5841 24.8651 2.4882 2.6649"/><path d="m30.8252 24.8651 2.4882 2.6649"/><path d="m38.4647 35.1332h5.0353"/><path d="m37.57 37.0952h5.0353"/><path d="m12.5526 39.8475 4.1433-8.5895h1.3958c2.3621 0 3.3624 1.9326 2.223 4.2947a7.93 7.93 0 0 1 -6.3663 4.2948z"/><path d="m25.2311 31.258-4.1432 8.5895m2.0721-4.2948h5.69m2.0716-4.2947-4.1432 8.5895"/><path d="m33.9816 31.258-4.1432 8.5895h4.2947"/><path d="m4.5 39.2426h5.0357"/><path d="m36.7105 39.2426h5.0354"/></g></svg>