<svg viewBox="0 0 48 48" xmlns="http://www.w3.org/2000/svg"><g fill="none" stroke="#000" stroke-linecap="round" stroke-linejoin="round"><path d="m13.94 8.47a.6.6 0 0 0 -.43.74l2.13 8a.59.59 0 0 0 .28.36l7 4.11a.6.6 0 0 0 .82-.21l4-7.06a.61.61 0 0 0 .06-.46l-2.11-7.95a.61.61 0 0 0 -.69-.48l-5.56 1.48z"/><path d="m39.53 13.94a.6.6 0 0 0 -.74-.43l-7.95 2.13a.59.59 0 0 0 -.36.28l-4.11 7a.6.6 0 0 0 .21.82l7.06 4a.61.61 0 0 0 .46.06l7.94-2.13a.61.61 0 0 0 .43-.74l-1.47-5.49z"/><path d="m34.06 39.53a.6.6 0 0 0 .43-.74l-2.13-7.95a.59.59 0 0 0 -.28-.36l-7-4.11a.6.6 0 0 0 -.82.21l-4 7.06a.61.61 0 0 0 -.06.46l2.13 7.94a.61.61 0 0 0 .74.43l5.49-1.47z"/><path d="m8.47 34.06a.6.6 0 0 0 .74.43l8-2.13a.59.59 0 0 0 .36-.28l4.11-7a.6.6 0 0 0 -.21-.82l-7.06-4a.61.61 0 0 0 -.46-.06l-7.95 2.11a.61.61 0 0 0 -.43.74l1.43 5.51z"/></g></svg>