<svg viewBox="0 0 48 48" xmlns="http://www.w3.org/2000/svg"><g fill="none" stroke="#000" stroke-linecap="round" stroke-linejoin="round"><path d="m40.5 5.5h-33a2 2 0 0 0 -2 2v33a2 2 0 0 0 2 2h33a2 2 0 0 0 2-2v-33a2 2 0 0 0 -2-2z"/><path d="m9.5 28.2152v-8.43h2.76a2.8313 2.8313 0 0 1 0 5.6626h-2.76"/><path d="m30.9288 22.6301-4.2152 5.5851"/><path d="m30.9288 28.2152-4.2152-5.5851"/><path d="m17.1329 24.7377a2.1076 2.1076 0 0 1 2.1076-2.1077"/><path d="m17.1329 22.6301v5.5851"/><path d="m32.909 22.6301v5.5851"/><path d="m34.9005 27.744a2.3707 2.3707 0 0 0 1.7334.4712h.4728a1.3948 1.3948 0 0 0 1.3933-1.3963 1.3948 1.3948 0 0 0 -1.3933-1.3963h-.9457a1.3948 1.3948 0 0 1 -1.3932-1.3963 1.3947 1.3947 0 0 1 1.3932-1.3963h.4729a2.37 2.37 0 0 1 1.7333.4712"/><path d="m24.7165 26.1076a2.1076 2.1076 0 0 1 -2.1076 2.1076 2.1076 2.1076 0 0 1 -2.1076-2.1076v-1.37a2.1076 2.1076 0 0 1 2.1076-2.1076 2.1076 2.1076 0 0 1 2.1076 2.1076"/><path d="m24.7165 28.2152v-5.5851"/><path d="m34.3317 20.6555h-2.8453"/></g></svg>