<svg viewBox="0 0 48 48" xmlns="http://www.w3.org/2000/svg"><g fill="none" stroke="#000" stroke-linecap="round" stroke-linejoin="round"><path d="m8.4 6.5v35a2 2 0 0 0 2 2h2.33v-39h-2.33a2 2 0 0 0 -2 2z"/><path d="m12.73 4.5v39h24.87a2 2 0 0 0 2-2v-35a2 2 0 0 0 -2-2z"/><path d="m34.21 26.83a3.43 3.43 0 0 1 -3 1.74 3.45 3.45 0 0 1 -3.45-3.45v-2.24a3.45 3.45 0 0 1 3.45-3.45 3.45 3.45 0 0 1 3.44 3.45v1.12h-6.88"/><path d="m24.1 26.83a3.43 3.43 0 0 1 -3 1.74 3.46 3.46 0 0 1 -3.45-3.45v-2.24a3.46 3.46 0 0 1 3.45-3.45 3.46 3.46 0 0 1 3 1.73"/><path d="m19.33 16.5 1.55-.87 1.55.87"/></g></svg>