<svg viewBox="0 0 48 48" xmlns="http://www.w3.org/2000/svg"><g fill="none" stroke="#000" stroke-linecap="round" stroke-linejoin="round"><circle cx="29.2181" cy="29.2181" r="13.2819"/><path d="m25.1149 34.2937a3.9584 3.9584 0 0 0 3.3205 1.4942h1.9923a3.3205 3.3205 0 0 0 0-6.641h-2.1583a3.32 3.32 0 1 1 0-6.6409h1.9923a3.5647 3.5647 0 0 1 3.3204 1.494m-4.3166-3.32v16.6021"/><path d="m16.4951 24.6921a4.4675 4.4675 0 0 1 -1.4128-3.2772v-4.3166a4.464 4.464 0 0 1 4.4827-4.4826 4.6727 4.6727 0 0 1 3.4865 1.66m-9.9615 3.1543h5.6448m-5.6448 3.3209h5.6448"/><path d="m16.0208 31.774a13.282 13.282 0 1 1 15.7532-15.7532"/></g></svg>