<svg viewBox="0 0 48 48" xmlns="http://www.w3.org/2000/svg"><g fill="none" stroke="#000" stroke-linecap="round" stroke-linejoin="round"><path d="m21.51 18.62a2.23 2.23 0 0 0 2 .88h1.18a2 2 0 0 0 2-2 2 2 0 0 0 -2-2h-1.3a2 2 0 0 1 -2-2 2 2 0 0 1 2-2h1.18a2.23 2.23 0 0 1 2 .88"/><path d="m24 11.5v-1"/><path d="m24 20.5v-1"/><rect height="20" rx="1" width="37" x="5.5" y="5.5"/><path d="m8.69 5.5a3.19 3.19 0 0 1 -3.19 3.19"/><path d="m42.5 8.69a3.19 3.19 0 0 1 -3.19-3.19"/><path d="m8.69 25.5a3.19 3.19 0 0 0 -3.19-3.19"/><path d="m42.5 22.31a3.19 3.19 0 0 0 -3.19 3.19"/><circle cx="34" cy="15.5" r="2"/><circle cx="14" cy="15.5" r="2"/><path d="m39.32 25.5h-30.64a1 1 0 0 0 -.91 1.43l1.1 2.31a1 1 0 0 0 .9.57h28.46a1 1 0 0 0 .9-.57l1.1-2.31a1 1 0 0 0 -.91-1.43z"/><path d="m16.39 29.81h15.21v4.54h-15.21z"/><path d="m35.88 34.35h-23.76a1 1 0 0 0 -1 .75l-1.89 7.4h29.54l-1.92-7.4a1 1 0 0 0 -.97-.75z"/></g></svg>