<svg viewBox="0 0 48 48" xmlns="http://www.w3.org/2000/svg"><g fill="none" stroke="#000" stroke-linecap="round" stroke-linejoin="round"><path d="m38.72 31.65c1.93 3.34 2 6 0 9.31m-2.12-7.71a5.56 5.56 0 0 1 0 6.1m-2.1-4.54a2.25 2.25 0 0 1 0 3l-2-1.53z"/><path d="m36.38 28.37a7.95 7.95 0 1 0 7.94 7.94 7.93 7.93 0 0 0 -7.93-7.93z"/><path d="m39.5 29v-13.5h-9a2 2 0 0 1 -2-2v-9h-18a2 2 0 0 0 -2 2v35a2 2 0 0 0 2 2h22.56"/><path d="m28.5 4.5 11 11"/><path d="m22.48 30.22v-9.32"/><rect height="6.19" rx="2.33" width="4.66" x="22.48" y="20.9"/><path d="m18.51 17.78v9.32"/><path d="m16.89 20.9h3.25"/><path d="m12.21 27.1v-6.99"/><path d="m14.54 17.78a2.33 2.33 0 0 0 -2.33 2.33"/><path d="m12.21 20.9h2.33"/><path d="m11.4 20.9h.81"/></g></svg>