<svg viewBox="0 0 48 48" xmlns="http://www.w3.org/2000/svg"><g fill="none" stroke="#000" stroke-linecap="round" stroke-linejoin="round"><path d="m16.42 15.1251h15.16"/><path d="m16.42 18.72h15.16"/><path d="m16.42 11.2712h15.16"/><path d="m13.8622 6.342v14.8h-6.0213a2.4612 2.4612 0 0 0 -2.467 2.4664v15.5832a2.4612 2.4612 0 0 0 2.467 2.4664h32.3182a2.4612 2.4612 0 0 0 2.467-2.4664v-15.5834a2.4612 2.4612 0 0 0 -2.467-2.4664h-6.0213v-14.7998z"/><path d="m13.8624 6.342h20.2752v17.3796h-20.2752z"/><path d="m10.6306 21.3023v10.9049a1.546 1.546 0 0 0 1.6735 1.5578c.8271-.0064 1.6735 0 1.6735 0h20.0824s.7694.0256 1.6735 0a1.7169 1.7169 0 0 0 1.6734-1.5732v-11.0124"/></g><circle cx="40.1559" cy="35.763" r=".7502"/><path d="m12.3817 41.658v-3.2571c.0578-.1889.17-.4652.3673-.4652h22.771a.5793.5793 0 0 1 .3672.4653v3.257" fill="none" stroke="#000" stroke-linecap="round" stroke-linejoin="round"/></svg>