<svg viewBox="0 0 48 48" xmlns="http://www.w3.org/2000/svg"><g fill="none" stroke="#000" stroke-linecap="round" stroke-linejoin="round"><rect height="34.846" rx="1.167" width="15.901" x="16.049" y="4.5"/><path d="m22.41 39.345v4.155h3.148v-4.155"/><circle cx="24" cy="32.23" r="3.4846"/><circle cx="24" cy="21.923" r="3.4846"/><circle cx="24" cy="11.616" r="3.4846"/><path d="m16.049 9.1488h-4.4941s.8549 2.4424 4.4941 2.4424"/><path d="m16.049 14.962h-2.149v-3.72"/><path d="m16.049 19.016h-4.4941s.8549 2.4424 4.4941 2.4424"/><path d="m16.049 24.829h-2.149v-3.72"/><path d="m16.049 28.884h-4.4941s.8549 2.4424 4.4941 2.4424"/><path d="m16.049 34.697h-2.149v-3.72"/><path d="m31.951 9.1488h4.4941s-.8549 2.4424-4.4941 2.4424"/><path d="m31.951 14.962h2.149v-3.72"/><path d="m31.951 19.016h4.4941s-.8549 2.4424-4.4941 2.4424"/><path d="m31.951 24.829h2.149v-3.72"/><path d="m31.951 28.884h4.4941s-.8549 2.4424-4.4941 2.4424"/><path d="m31.951 34.697h2.149v-3.72"/></g></svg>