<svg viewBox="0 0 48 48" xmlns="http://www.w3.org/2000/svg"><g fill="none" stroke="#000" stroke-linecap="round" stroke-linejoin="round"><path d="m24 43.5c9.0432-3.1174 15.4885-10.3631 16.5-19.5889a79.36 79.36 0 0 0 -.0714-12.0267 2.5414 2.5414 0 0 0 -2.4677-2.3663c-4.0911-.126-8.8455-.8077-12.52-4.4273a2.0516 2.0516 0 0 0 -2.881 0c-3.6749 3.6192-8.4293 4.3013-12.5199 4.4273a2.5414 2.5414 0 0 0 -2.4677 2.3663 79.36 79.36 0 0 0 -.0723 12.0267c1.0115 9.2258 7.4568 16.4715 16.5 19.5889z"/><circle cx="17.7813" cy="23.4342" r="2.9073"/><circle cx="28.3453" cy="18.1388" r="2.9073"/><circle cx="28.3897" cy="28.7295" r="2.9073"/><path d="m20.3779 24.7347 5.4063 2.7121"/><path d="m25.7487 19.4394-5.3708 2.6942"/></g></svg>