<svg viewBox="0 0 48 48" xmlns="http://www.w3.org/2000/svg"><g fill="none" stroke="#000" stroke-linecap="round" stroke-linejoin="round"><path d="m24 10.16a12.25 12.25 0 0 1 12.25 12.25 12.25 12.25 0 1 1 -12.25-12.25zm-2.54 2.34a10.23 10.23 0 0 0 -7.22 6.81l3.83 1.69 1.11-3.66 2.82-1.68.88-1.66zm-3.39 8.5-2.69 1.4.78 6.6a10.13 10.13 0 0 0 1.57 1.5l5.25-8zm10.49-7.73-1.71 2.73 5-.18a10.36 10.36 0 0 0 -3.29-2.57zm3.85 3.33-6.41 2.89.8 3.88 3.42 1 .53 5.82a10.19 10.19 0 0 0 1.71-13.57z"/><path d="m22.2 4.86-15.51 6.39v15.75c0 8.44 17.31 16.5 17.31 16.5s17.31-8.06 17.31-16.5v-15.75l-15.51-6.39a4.68 4.68 0 0 0 -3.6 0z"/></g></svg>