<svg viewBox="0 0 48 48" xmlns="http://www.w3.org/2000/svg"><g fill="none" stroke="#000"><path d="m36.3 11.1v25m-.1.3h-25m-.1 0v-25m.2-.3h25" stroke-linecap="square"/><g stroke-linecap="round"><path d="m6.6 11.3a3.4 3.4 0 0 1 1.4-5.9 3.28 3.28 0 0 1 3.3 1.2"/><path d="m6.6 36.4v-25"/><path d="m11.3 41.1a3.4 3.4 0 0 1 -5.9-1.4 3.28 3.28 0 0 1 1.2-3.3"/><path d="m36.3 41.1h-25"/><path d="m41.1 36.5a3.32 3.32 0 0 1 1.1 3.4 3.51 3.51 0 0 1 -2.5 2.5 3.28 3.28 0 0 1 -3.3-1.2"/><path d="m41.1 11.5v25"/><path d="m36.4 6.7a3.32 3.32 0 0 1 3.4-1.1 3.51 3.51 0 0 1 2.5 2.5 3.28 3.28 0 0 1 -1.2 3.3"/><path d="m11.4 6.7h25"/></g></g></svg>