<svg viewBox="0 0 48 48" xmlns="http://www.w3.org/2000/svg"><path d="m8.6309 13.6883v7.2221" fill="none" stroke="#000" stroke-linecap="round" stroke-linejoin="round"/><path d="m8.6309 16.6674a1.8109 1.8109 0 0 0 1.8056 1.8056 1.8109 1.8109 0 0 0 1.8055-1.8056v-1.1736a1.8108 1.8108 0 0 0 -1.8055-1.8055 1.8109 1.8109 0 0 0 -1.8056 1.8055" fill="none" stroke="#000" stroke-linecap="round" stroke-linejoin="round"/><path d="m35.59 17.57a1.7474 1.7474 0 0 1 -1.5347.9028 1.8109 1.8109 0 0 1 -1.8053-1.8054v-1.1736a1.8109 1.8109 0 0 1 1.8056-1.8055 1.7474 1.7474 0 0 1 1.5347.9028" fill="none" stroke="#000" stroke-linecap="round" stroke-linejoin="round"/><path d="m29.7568 17.57a1.7474 1.7474 0 0 1 -1.5347.9028 1.8109 1.8109 0 0 1 -1.8056-1.8056v-1.1734a1.8109 1.8109 0 0 1 1.8056-1.8055 1.8108 1.8108 0 0 1 1.8055 1.8055v.632h-3.6111" fill="none" stroke="#000" stroke-linecap="round" stroke-linejoin="round"/><path d="m24.9311 11.5217a.75.75 0 0 1 -.75.75.75.75 0 0 1 -.75-.75.75.75 0 0 1 .75-.75.75.75 0 0 1 .75.75z"/><g fill="none" stroke="#000" stroke-linecap="round" stroke-linejoin="round"><path d="m24.1811 13.6883v5.4166a1.8108 1.8108 0 0 1 -1.8055 1.8051 1.7823 1.7823 0 0 1 -1.2639-.5416"/><path d="m37.4733 13.6883h1.8958"/><path d="m38.4663 12.1536v6.3194"/><path d="m14.6856 13.6883v4.7847"/><path d="m14.6856 15.4938a1.8108 1.8108 0 0 1 1.8055-1.8055"/><path d="m20.2025 18.473a1.8109 1.8109 0 0 1 -1.8056-1.8056v-1.1736a1.8109 1.8109 0 0 1 1.8056-1.8055 1.8108 1.8108 0 0 1 1.8055 1.8055v1.1736a1.8109 1.8109 0 0 1 -1.8055 1.8056z"/><path d="m17.745 37.228v-12.511l6.255 12.511 6.255-12.511v12.511"/><path d="m40.5 5.5h-33a2 2 0 0 0 -2 2v33a2 2 0 0 0 2 2h33a2 2 0 0 0 2-2v-33a2 2 0 0 0 -2-2z"/></g></svg>