<svg viewBox="0 0 48 48" xmlns="http://www.w3.org/2000/svg"><g fill="none" stroke="#000" stroke-linecap="round" stroke-linejoin="round"><path d="m22.2327 22.3815a21.6294 21.6294 0 0 0 -13.4374-13.5832s-7.2493 9.8026-.2765 14.7071c0 0-5.8084 1.5189-3.4594 7.29s8.0991 6.4075 10.5654 4.6234 1.9276-2.9988 4.5274-3.4388"/><path d="m24.3924 22.7075s8.7817-9.6434 18.5058-8.6669c0 0 3.3722 11.738-5.8489 13.0689"/><path d="m37.0493 27.11s6.3635 3.8244-.4136 9.3142-10.678 1.4625-11.1065-.3826a12.91 12.91 0 0 0 -2.3833-4.1466"/><path d="m20.1522 31.98s-.8787 2.5654.5378 3.1665 2.0609-1.4832 2.4559-3.2517 1.6808-7.8828.8884-9.6114"/><path d="m24.0343 22.2831s-.0919-1.9825 2.6881-4.987"/><path d="m20.1522 31.98s1.5257-9.3177 2.6029-9.7029-1.4957-6.31-1.4957-6.31"/></g></svg>