<svg viewBox="0 0 48 48" xmlns="http://www.w3.org/2000/svg"><g fill="none" stroke="#000" stroke-linecap="round" stroke-linejoin="round"><path d="m11.468 16.5923a14.149 14.149 0 0 1 12.7144-11.2438 17.3346 17.3346 0 0 1 2.2792 0 14.0888 14.0888 0 0 1 3.0778.5943m5.0695 2.8372a14.11 14.11 0 0 1 4.8091 9.525 17.3 17.3 0 0 1 0 2.2792 14.1 14.1 0 0 1 -4.378 9.1328m-4.9466 3.043a14.0726 14.0726 0 0 1 -3.6318.78 17.3 17.3 0 0 1 -2.2792 0q-.4977-.04-.9853-.1133c-.6229-.0939-1.612-.3836-2.24-.4217a1.912 1.912 0 0 0 -2.0831 1.1073 6.7168 6.7168 0 0 0 -.2133 2.2521v5.9956a1.1409 1.1409 0 0 1 -1.1407 1.14h-5.1985a1.1409 1.1409 0 0 1 -1.1408-1.14v-20.2321"/><path d="m33.0561 20.5845-11.7273 6.7707a1.3173 1.3173 0 0 1 -1.976-1.1408v-13.5409a1.3172 1.3172 0 0 1 1.976-1.1408l11.7273 6.7707a1.3171 1.3171 0 0 1 0 2.2816z"/><circle cx="32.2907" cy="7.1368" r="2.6365"/><circle cx="32.6228" cy="31.5582" r="2.6365"/><circle cx="11.1803" cy="19.4441" r="2.6365"/></g></svg>