<svg viewBox="0 0 48 48" xmlns="http://www.w3.org/2000/svg"><g fill="none" stroke="#000" stroke-linecap="round" stroke-linejoin="round"><path d="m19.2061 37.3172 6.6778 2.4213v-24.7342a.9957.9957 0 0 1 1.3356-.9316 2.0223 2.0223 0 0 1 1.3356 1.9v10.2065a5.0322 5.0322 0 0 0 6.6779-4.8436 10.3762 10.3762 0 0 0 -6.853-9.7477l-9.1739-3.3264z"/><path d="m16.53 26.5844-10.28 3.68a2.645 2.645 0 0 0 -1.589 3.3938 4.0055 4.0055 0 0 0 1.8132 1.8147 14.164 14.164 0 0 0 10.6577.5181c.0988-.03 1.9759-.6469 2.0742-.6793v-3.8741l-5.7853 2.0379a4.26 4.26 0 0 1 -2.788.0317c-.2685-.0973-.6953-.6284.1169-1l5.78-2.0485z"/><path d="m25.8839 29.1117c.2538-.0867 2.2277-.7694 2.4838-.8459a20.6768 20.6768 0 0 1 13.3254.511 2.8317 2.8317 0 0 1 1.6093 3.6752 2.9092 2.9092 0 0 1 -1.743 1.6517l-15.6755 5.6348v-3.8741l11.7261-4.2027a.7758.7758 0 0 0 0-1.46 5.8784 5.8784 0 0 0 -4.0067.0071l-7.7192 2.7768z"/></g></svg>