<svg viewBox="0 0 48 48" xmlns="http://www.w3.org/2000/svg"><path d="m41.5607 21.9929a7.274 7.274 0 0 0 -12.23-4.3364h-10.6714a7.2839 7.2839 0 0 0 -4.9959-1.9984 7.2941 7.2941 0 0 0 -7.2441 6.3348l-1.9085 15.2277c-.32 3.8868 6.5247 3.9967 7.8037 1.3189l3.0875-4.896a4.3165 4.3165 0 0 1 3.5871-2.2982h9.9918a4.2365 4.2365 0 0 1 3.6171 2.2982l3.0875 4.896c1.279 2.6578 8.1234 2.5679 7.8037-1.3189z" fill="none" stroke="#000" stroke-linecap="round" stroke-linejoin="round"/><circle cx="23.985" cy="12.8534" r=".75"/><circle cx="23.985" cy="8.3789" r=".75"/></svg>