<svg viewBox="0 0 48 48" xmlns="http://www.w3.org/2000/svg"><g fill="none" stroke="#000" stroke-linecap="round" stroke-linejoin="round"><path d="m32.0626 28.0229c-1.3221 7.8789-10.418 10.965-16.8469 7.63a15.5478 15.5478 0 0 1 -7.3192-8.37 18.9173 18.9173 0 0 1 -1.1382-7.3359q.0162-.3778.0472-.7556a18.8333 18.8333 0 0 1 .4161-2.69 17.3964 17.3964 0 0 1 8.9584-11.6107 19.92 19.92 0 0 1 14.3676-1.3566 20.7594 20.7594 0 0 1 12.3787 9.8514q.248.4382.4762.8863c4.0875 8.36 2.2469 20.6571-5.9262 26.6453-6.2223 4.4279-15.3684 5.7491-22.3865 2.48-4.5637-1.8731-9.3409-7.5287-11.2985-13.083a29.4472 29.4472 0 0 1 -.9681-13.07"/><path d="m24.0046 19.02a4.305 4.305 0 1 1 -4.3046 4.3044 4.3047 4.3047 0 0 1 4.3046-4.3044z"/><path d="m32.0626 28.0229c-1.39 4.1564-5.6822 6.9109-10.3069 6.9109a10.4771 10.4771 0 1 1 3.2229-20.4495"/></g></svg>