<svg viewBox="0 0 48 48" xmlns="http://www.w3.org/2000/svg"><g fill="none" stroke="#000" stroke-linecap="round" stroke-linejoin="round"><path d="m14.0138 14.3044a16.7755 16.7755 0 0 1 29.4862 10.9663"/><path d="m43.5 25.2707a53.8219 53.8219 0 0 1 -1.1358 10.552"/><path d="m14.0138 14.3044-.8583 1.2526a2.7924 2.7924 0 0 0 -2.3294 2.1894"/><path d="m13.1555 15.557a36.2623 36.2623 0 0 1 12.9555 2.363c6.779 2.6022 9.2475 4.7986 10.129 6.083a2.2076 2.2076 0 0 1 -.3125 2.9189 2.0973 2.0973 0 0 1 -2.7294.1152"/><path d="m29.962 24.7416c-4.904-4.6748-21.6232-8.1163-22.4784-6.7091-.5284.8694-.9626 2.1064-.6147 2.5692"/><path d="m6.8689 20.6017s-1.89 3.1076-1.2484 3.56c0 0-.6134-.0685-.92 1.2465s-.3063 1.8468.52 2.4158 1.7949 1.4 1.7949 1.4l-2.0435 5.0841s-.2459 2.1078 4.457 3.2919a3.7957 3.7957 0 0 0 4.5429-1.8218m7.4138 2.8c2.7418 1.3293 6.19 1.16 7.1821.0962a13.815 13.815 0 0 0 1.9092-3.25s1.195 2.4115 5.1493 2.3724a13.0514 13.0514 0 0 0 6.738-1.9734"/><path d="m26.7722 32.2094s-7.6944-4.17-13.2084-5.0324a46.129 46.129 0 0 0 -9.0638-.64"/><path d="m5.6205 24.1621a24.34 24.34 0 0 1 6.8683.2594 35.2993 35.2993 0 0 1 9.835 3.1552l1.3576-3.1367a42.6865 42.6865 0 0 0 -11.1278-3.5151 32.7686 32.7686 0 0 0 -5.6847-.3236"/><path d="m30.4769 35.4237 2.7208-8.3866"/></g><circle cx="26.1495" cy="25.4107" r=".7497"/><circle cx="24.5024" cy="28.7928" r=".7497"/><path d="m21.3856 38.5776s-12.1627-5.6984-16.4137-4.2695" fill="none" stroke="#000" stroke-linecap="round" stroke-linejoin="round"/></svg>