<svg viewBox="0 0 48 48" xmlns="http://www.w3.org/2000/svg"><path d="m15.05 28.6947a2.4006 2.4006 0 1 0 2.4007 2.3907 2.4006 2.4006 0 0 0 -2.4007-2.3907zm18.1983 0a2.4006 2.4006 0 1 0 2.3907 2.3907 2.4006 2.4006 0 0 0 -2.3904-2.3907zm-9.1071-24.1947a30.052 30.052 0 0 1 5.23.4383 23.7774 23.7774 0 0 1 5.9169 1.813 5.7767 5.7767 0 0 1 2.67 1.9922 6.447 6.447 0 0 1 .6992 2.2451l1.5282.03c2.48-.2064 2.4275 5.3529-.127 5.2235-.0347 3.1676-.0713 4.6.0214 5.3215v16.8148h-2.6799v2.6795c.2151 3.2561-4.7872 3.2561-4.5722 0v-2.6795h-17.3728v2.6795c.215 3.2561-4.7873 3.2561-4.5722 0v-2.6795h-2.68v-16.8145l.113-5.3415c-2.9088.33-3.2428-5.4552-.127-5.2234l1.4783-.1534a5.6184 5.6184 0 0 1 .6276-2.1018 5.7772 5.7772 0 0 1 2.67-1.9922 23.7787 23.7787 0 0 1 5.9169-1.813 30.0519 30.0519 0 0 1 5.2596-.4386zm-10.4992 6.8238a1.4044 1.4044 0 0 0 -1.3447 1.2152l.0243 9.3275a1.4044 1.4044 0 0 0 1.1555 1.5835h21.1607a1.4144 1.4144 0 0 0 1.4145-1.3746 1.2207 1.2207 0 0 0 0-.1893l-.0474-9.3274a1.4045 1.4045 0 0 0 -1.3949-1.215h-20.9181z" fill="none" stroke="#000" stroke-linecap="round" stroke-linejoin="round"/></svg>