<svg viewBox="0 0 48 48" xmlns="http://www.w3.org/2000/svg"><g fill="none" stroke="#000" stroke-linecap="round" stroke-linejoin="round" stroke-opacity=".99"><circle cx="34.1" cy="21.8" r="1.6"/><circle cx="26.8" cy="24.1" r="1.7"/><circle cx="21.2" cy="25.3" r="1.7"/><circle cx="12.4" cy="23.2" r=".5"/><circle cx="22.6" cy="15.5" r=".5"/><circle cx="21.6" cy="31.1" r=".5"/><circle cx="25.4" cy="34.5" r=".5"/><circle cx="14.9" cy="36.1" r=".4"/><path d="m16.3 16.8v4"/><path d="m14 18.8h4.4"/><path d="m28.5 24.2v-6.2l-5.6 1.2m0 6.2v-6.3"/><path d="m36.5 32.2.5-2.2a1.78 1.78 0 0 0 -1.2-1.9l-2.4-.5a1.36 1.36 0 0 0 -1.7 1.3l-2.1 11.1c-.3 1.1-.1 1.8.8 1.8l2.2.7a1.68 1.68 0 0 0 2.1-1l1.3-6.6"/><path d="m34.2 30.5-1 5.6"/><path d="m32.6 38.8-.1.7"/><path d="m15.4 38.6.1.9"/><path d="m14.4 33.6-.6-3.3"/><path d="m35 40.6c.2 0 3.4.7 3.4.7l2-1.9 1.2-6-1.1-2.2-3.5-.9"/><path d="m11.1 30.4-3.9.9-.9 1.9 1.3 6.8 1.8 1.3 3.7-.7"/><path d="m9.7 38.9.5 2.2"/><path d="m38 41.2 3-15.3"/><path d="m9.2 36.3-2.1-10.4"/><path d="m39.7 24.3c.5-5.9-4-13.2-16.2-12.9-11.6.1-15.8 7.2-15.2 12.9.2 1.8-2.9 2.4-2.7 0 1.5-25.9 36.5-24.3 36.8.3a1.37 1.37 0 1 1 -2.7-.3z"/><path d="m39.7 22.7c.2-5.6-3.3-10.3-8.7-12.9"/><path d="m28.5 9c-11-2.4-20 2.8-20.2 13.3"/><path d="m18.3 40.1c.1 1.1-.3 1.7-1 1.7l-2.1.5c-2-.2-1.6-.8-1.9-1.3l-2.1-11c-.1-1.2.4-1.7 1-1.9l2-.4c1.1-.1 1.9.2 2.1 1.3z"/></g></svg>