<svg viewBox="0 0 48 48" xmlns="http://www.w3.org/2000/svg"><g fill="none" stroke="#000" stroke-linecap="round" stroke-linejoin="round"><path d="m8.0381 16.3415h31.925a3.5369 3.5369 0 0 1 3.5369 3.5369v18.9856a3.5381 3.5381 0 0 1 -3.5381 3.5381h-31.925a3.5369 3.5369 0 0 1 -3.5369-3.5369v-18.9852a3.5381 3.5381 0 0 1 3.5381-3.5385z"/><rect height="4.1274" rx="2.063" width="4.126" x="19.8736" y="19.3526"/><path d="m35.3673 19.3526a2.0633 2.0633 0 0 1 2.063 2.0637 2.0634 2.0634 0 0 1 -2.063 2.0637 2.0634 2.0634 0 0 1 -2.063-2.0637 2.0633 2.0633 0 0 1 2.063-2.0637z"/><path d="m21.8937 12.2122a6.6121 6.6121 0 1 1 13.2242 0"/><path d="m21.8937 12.2122v4.15"/><path d="m35.1179 12.2122v3.9126"/><path d="m12.631 12.7945a6.6124 6.6124 0 0 1 10.4318-5.4"/><path d="m12.631 12.7945v3.2616"/><path d="m8.13 21.8421a2.0631 2.0631 0 1 1 4.1261 0"/><path d="m12.2553 36.7388a2.0631 2.0631 0 1 1 -4.1261 0"/><path d="m12.2553 36.7388v-14.898"/><path d="m8.13 21.8421v14.8979"/></g></svg>