<svg viewBox="0 0 48 48" xmlns="http://www.w3.org/2000/svg"><g fill="none" stroke="#000" stroke-linecap="round" stroke-linejoin="round"><circle cx="24" cy="24" r="21.5"/><path d="m34 5v5a4.5 4.5 0 0 0 4 4h5"/><path d="m11.5 29.5v-16h5.2a5.4 5.4 0 1 1 0 10.8h-5.2"/><path d="m28.2 29.5-4.2-10.6"/><path d="m32 18.9-5 14.4a2.34 2.34 0 0 1 -2.2 1.6h-.6"/><path d="m31.5 30.2a3.4024 3.4024 0 0 1 2.5-.7h.8"/><path d="m34.8 37.5a2.0059 2.0059 0 0 0 2-2 2.0059 2.0059 0 0 0 -2-2 2.0059 2.0059 0 0 0 2-2 2.0059 2.0059 0 0 0 -2-2"/><path d="m31.5 36.9a3.2533 3.2533 0 0 0 2.5.7h.8"/></g></svg>