<svg viewBox="0 0 48 48" xmlns="http://www.w3.org/2000/svg"><g fill="none" stroke="#000" stroke-linecap="round" stroke-linejoin="round"><path d="m31.9588 17.6785h-22.5555a4.9 4.9 0 0 0 -4.6633 6.403l3.9758 12.333a4.7153 4.7153 0 0 0 4.4879 3.2686h22.5555a4.9 4.9 0 0 0 4.6633-6.403l-3.9758-12.333a4.7153 4.7153 0 0 0 -4.4879-3.2686z"/><path d="m36.696 39.6831a6.8041 6.8041 0 0 0 6.804-6.8041v-14.6214a6.8041 6.8041 0 0 0 -6.804-6.8041h-11.9654a4.45 4.45 0 0 1 -2.4773-.7535l-2.4326-1.63a4.45 4.45 0 0 0 -2.4772-.7533h-2.97a5.464 5.464 0 0 0 -3.7755 1.5145 4.9324 4.9324 0 0 0 -1.508 3.9627l.3136 3.8846"/></g></svg>