<svg viewBox="0 0 48 48" xmlns="http://www.w3.org/2000/svg"><path d="m24 2.5a21.5 21.5 0 0 0 -21.5 21.5 21.5 21.5 0 0 0 21.5 21.5 21.49 21.49 0 0 0 9.54-2.26 11.33 11.33 0 0 1 2.86-.79c3.61-.26 6.14 1.48 9.1 3-1.57-3-3.31-5.49-3-9.1a11.37 11.37 0 0 1 .71-2.65 21.5 21.5 0 0 0 -19.21-31.2zm0 6.7a14.8 14.8 0 0 1 14.8 14.8 14.91 14.91 0 0 1 -1.61 6.71 7.08 7.08 0 0 0 -.49 1.81c-.18 2.49 1 4.23 2.1 6.27-2-1.08-3.78-2.28-6.27-2.1a8 8 0 0 0 -2 .54 14.76 14.76 0 0 1 -21.33-13.23 14.8 14.8 0 0 1 14.8-14.8z" fill="none" stroke="#000" stroke-linecap="round" stroke-linejoin="round"/></svg>