<svg viewBox="0 0 48 48" xmlns="http://www.w3.org/2000/svg"><g fill="none" stroke="#000" stroke-linecap="round" stroke-linejoin="round"><path d="m11.9822 19.326c1.7923-21.6386 24.7041-17.7747 24.1509-.099"/><path d="m11.9822 19.326a31.0441 31.0441 0 0 0 24.1509-.099"/><path d="m36.1331 19.2273c2.0153 5.4159 4.1522 10.2141 4.2562 14.8961.03 1.35-1.3588 2.64-2.425.5939l-1.8311-3.5137"/><path d="m11.9822 19.326c-1.6041 4.6665-3.8436 8.998-4.3056 13.6093-.4455 4.4464 1.4649 3.2838 2.3755 1.8311l2.0786-3.3159"/><path d="m12.1309 31.4508c.7173 13.9278 24.2454 13.4192 24.0022-.2474"/><path d="m31.1585 20.8635.9655 4.6485"/><path d="m16.118 39.1362-2.8 2.0151c-1.9 1.3673-1.1606 2.5265.1979 2.326a154.0763 154.0763 0 0 1 21.7755-.2473c1.86.1554 1.943-1.1512.6928-1.8806l-3.6931-2.1547"/><ellipse cx="28.487" cy="13.5604" rx="1.559" ry="3.489"/><ellipse cx="20.6424" cy="13.5604" rx="1.559" ry="3.489"/></g></svg>