<svg viewBox="0 0 48 48" xmlns="http://www.w3.org/2000/svg"><g fill="none" stroke="#000" stroke-linecap="round" stroke-linejoin="round"><path d="m13.78 5.5h-8.28v8.28"/><path d="m42.5 13.78v-8.28h-8.28"/><path d="m34.22 42.5h8.28v-8.28"/><path d="m10.55 26.41v11h11v-11zm3.22 3.22h4.6v4.6h-4.6z"/><path d="m10.55 10.55v11h11v-11zm3.22 3.22h4.6v4.6h-4.6z"/><path d="m26.41 10.55v11h11v-11zm3.22 3.22h4.6v4.6h-4.6z"/><path d="m31.93 37.45a5.79 5.79 0 0 0 3.47-2.1 8.37 8.37 0 0 0 2.05-5.72v-3.22h-11v3.22a8.39 8.39 0 0 0 2.05 5.72 5.79 5.79 0 0 0 3.43 2.1z"/><path d="m31.93 34.23a5.82 5.82 0 0 1 -1.08-.86 5.4 5.4 0 0 1 -1.22-3.74h4.6a5.4 5.4 0 0 1 -1.23 3.74 5.82 5.82 0 0 1 -1.08.86z"/><path d="m5.5 34.22v8.28h8.28"/></g></svg>