<svg viewBox="0 0 48 48" xmlns="http://www.w3.org/2000/svg"><g fill="none" stroke="#000" stroke-linecap="round" stroke-linejoin="round"><path d="m24 4.5a17.77 17.77 0 0 0 -11.26 4l-2-2a3.32 3.32 0 0 0 -4.7 4.7l2.44 2.42a17.73 17.73 0 0 0 -2.24 8.6v8.86h35.49v-8.85a17.71 17.71 0 0 0 -2.22-8.6l2.39-2.42a3.27 3.27 0 0 0 0-4.7 3.31 3.31 0 0 0 -4.69 0l-2 2a17.79 17.79 0 0 0 -11.21-4.01zm-7.8 11.08a3.32 3.32 0 0 1 3.37 3.28 3.34 3.34 0 0 1 -3.28 3.37h-.09a3.33 3.33 0 0 1 -3.28-3.37 3.32 3.32 0 0 1 3.28-3.28zm15.6 0a3.33 3.33 0 0 1 0 6.65 3.33 3.33 0 0 1 -3.37-3.23v-.09a3.33 3.33 0 0 1 3.37-3.28zm-25.53 17.28v10.64h10.64v-10.64zm17.73 5.32v-5.32h-5.32m10.64 0h-3.55v3.55m1.78 7.09h1.77v-3.5h-3.55v-1.82h3.55v-1.77h-1.77v-1.67h1.77m1.77-1.88v10.64h10.64v-10.64zm-12.41 3.55v1.77h1.77v-1.77zm5.32 3.59h-5.32v3.5"/><path d="m25.77 43.5h-5.32"/><path d="m18.68 34.74h3.49v3.44"/><path d="m20.42 41.73h7.36"/><path d="m8.15 34.74h6.89v6.89h-6.89z"/><path d="m32.97 34.74h6.89v6.89h-6.89z"/></g></svg>