<svg viewBox="0 0 48 48" xmlns="http://www.w3.org/2000/svg"><path d="m22.338 30.0589a14.8939 14.8939 0 0 1 -13.1931-14.7952 13.9207 13.9207 0 0 1 4.912-10.7637 14.37 14.37 0 0 0 -2.8822 8.4577 12.8647 12.8647 0 0 0 11.12 12.7452l.0741.0086v-3.8267c0-2.2309-2.4694-2.4691-2.4694-2.4691h8.2751s-2.4693.2381-2.4693 2.4691v3.8286a12.8646 12.8646 0 0 0 11.12-12.7452 14.37 14.37 0 0 0 -2.8822-8.4577 13.9209 13.9209 0 0 1 4.912 10.7637 14.894 14.894 0 0 1 -13.193 14.7958l.0431-.0072v4.5858l-1.7051 8.8514-1.6313-8.8519v-4.5581z" fill="none" stroke="#000" stroke-linecap="round" stroke-linejoin="round"/></svg>