<svg viewBox="0 0 48 48" xmlns="http://www.w3.org/2000/svg"><g fill="none" stroke="#000" stroke-linecap="round" stroke-linejoin="round"><path d="m30.0417 18.266h2.8266m-2.8266-5.653h2.8266m-2.8266 2.827h1.8373m-1.8373-2.827v5.653m-16.4646 0-1.8371-1.8372m-1.908-.0707a1.8729 1.8729 0 1 0 3.7451 0v-1.9081a1.9 1.9 0 0 0 -1.9079-1.9079 1.8412 1.8412 0 0 0 -1.8372 1.9079zm5.3-3.7451v3.7451a1.8386 1.8386 0 1 0 3.6745 0v-3.7451"/><path d="m21.9154 11.129.9893-.3533m-2.4732 7.49h2.8265m-2.8265-5.653h2.8265m-2.8265 2.8273h1.8372m-1.8372-2.827v5.653m17.7365-1.8372a1.9079 1.9079 0 0 1 -3.8158 0v-1.9079a1.9 1.9 0 0 1 1.9078-1.9079 1.8413 1.8413 0 0 1 1.8373 1.9079"/><path d="m9.4787 20.81h29.0426"/><path d="m9.832 36.0152c1.0366.8636 1.9 1.2091 4.1458 1.2091h.518a4.491 4.491 0 1 0 0-8.982h-4.6638v-4.8362h9.1551"/><path d="m21.5268 37.0519h6.9095m-6.9095-11.9188 3.4547-1.9v13.819m6.277 0h6.9095m-6.9095-11.919 3.4548-1.9v13.819"/><path d="m27.1374 15.44a1.431 1.431 0 0 1 0 2.8619h-2.3611v-5.7243h2.3611a1.431 1.431 0 0 1 0 2.8619z"/><path d="m27.1374 15.4395h-2.3611"/><rect height="39" rx="2" width="35" x="6.5" y="4.5"/></g></svg>