<svg viewBox="0 0 48 48" xmlns="http://www.w3.org/2000/svg"><g fill="none" stroke="#000" stroke-linecap="round" stroke-linejoin="round"><path d="m42.1889 19.8792a1.4283 1.4283 0 0 0 -1.0965-.5113h-32.8771a1.6425 1.6425 0 0 0 -1.62 1.3593l-1.0975 6.2247a1.4315 1.4315 0 0 0 1.41 1.68h32.8769a1.6425 1.6425 0 0 0 1.62-1.3591l1.0978-6.225a1.4287 1.4287 0 0 0 -.3136-1.1686z"/><path d="m25.4739 16.1794a6.5425 6.5425 0 0 0 6.1781-5.2461 4.6385 4.6385 0 0 0 -.947-3.8607 4.5157 4.5157 0 0 0 -3.538-1.5726 6.5426 6.5426 0 0 0 -6.178 5.2461 4.6382 4.6382 0 0 0 .9469 3.8607 4.5157 4.5157 0 0 0 3.538 1.5726z"/><path d="m22.526 31.8206a6.5425 6.5425 0 0 0 -6.178 5.2461 4.6378 4.6378 0 0 0 .9469 3.8606 4.5153 4.5153 0 0 0 3.538 1.5727 6.5426 6.5426 0 0 0 6.1781-5.2462 4.6385 4.6385 0 0 0 -.947-3.8607 4.516 4.516 0 0 0 -3.538-1.5725z"/></g></svg>