<svg viewBox="0 0 48 48" xmlns="http://www.w3.org/2000/svg"><g fill="none" stroke="#000" stroke-linecap="round" stroke-linejoin="round"><path d="m20.43 17.33c4.46-.24 9.1 2.33 10.64 8.21a6.88 6.88 0 0 1 .05 13.71h-19.23c-9.21-1.25-10.47-14.66 0-16.46a10.14 10.14 0 0 1 8.54-5.46zm0 0"/><path d="m31.129999 12.28v-3.53"/><path d="m24.88 14.87-2.5-2.5"/><path d="m37.38 27.38 2.5 2.49"/><path d="m39.97 21.12h3.53"/><path d="m37.38 14.87 2.5-2.5"/><path d="m27.12797 16.390543a6.1999998 6.1999998 0 0 1 8.050406.03083 6.1999998 6.1999998 0 0 1 1.233445 7.955413"/></g></svg>