<svg viewBox="0 0 48 48" xmlns="http://www.w3.org/2000/svg"><g fill="none" stroke="#000" stroke-linecap="round" stroke-linejoin="round"><path d="m23.942 2.5044a21.4693 21.4693 0 0 1 18.99 31.5943l.55 2.079 1.929 7.1964a1.6691 1.6691 0 0 1 -1.1794 1.999 1.6093 1.6093 0 0 1 -.87 0l-7.1964-1.929-2.1089-.46a21.4893 21.4893 0 1 1 -10.115-40.48z"/><path d="m7.3 28.8c2.16.1038 3.56 4.0407 5.9 4 1.5582-2.3726.9411-6.0765-1.2-7.3-2.701-1.5435-4.8206 1.0155-4.7 3.3z"/><path d="m16.5 36s2.4-.0454 3.2-.8a3.9234 3.9234 0 0 0 1-3.2c-.1655-1.4046-1.2513-2.7638-.7-4a4.6539 4.6539 0 0 1 4-2.5 4.6539 4.6539 0 0 1 4 2.5c.5513 1.2362-.5265 2.6692-.7 4a3.88 3.88 0 0 0 1 3.2c.8.7546 3.2.8 3.2.8s-4.8648 2.5-7.5 2.5-7.5-2.5-7.5-2.5z"/><path d="m40.7 28.8c-2.16.1038-3.56 4.0407-5.9 4-1.5582-2.3726-.9411-6.0765 1.2-7.3 2.701-1.5435 4.8206 1.0155 4.7 3.3z"/><circle cx="12.75" cy="20.5" r="2"/><circle cx="24" cy="20.5" r="2"/><circle cx="35.2444" cy="20.5017" r="1.999"/></g></svg>