<svg viewBox="0 0 48 48" xmlns="http://www.w3.org/2000/svg"><g fill="none" stroke="#000" stroke-linecap="round" stroke-linejoin="round"><path d="m23.8207 2.5476a21.321 21.321 0 1 0 9.297 40.5124l-5.9023-5.9024a13.7278 13.7278 0 1 1 9.9346-10.0449l5.9243 5.9244a21.33 21.33 0 0 0 -19.2538-30.49z"/><path d="m43.7534 37.13a23.69 23.69 0 0 1 -6.5566 6.595l1.7274 1.7275h6.5758v-6.576z"/><path d="m31.6573 25.0336-6.5758 6.5764 2.6145 2.614a11.5831 11.5831 0 0 0 6.532-6.62z"/><path d="m27.696 34.224 9.5008 9.5009"/><path d="m43.7534 37.13-9.5254-9.5257"/></g></svg>