<svg viewBox="0 0 48 48" xmlns="http://www.w3.org/2000/svg"><g fill="none" stroke="#000" stroke-linecap="round" stroke-linejoin="round"><path d="m5.6132 35.1424 29.5292-29.5292"/><path d="m17.1673 19.2571h-3.9528"/><path d="m11.086 21.234a2.8491 2.8491 0 1 0 4.0281-4.0291l-2.0522-2.0521a2.8893 2.8893 0 0 0 -4.1044 0 2.8006 2.8006 0 0 0 .0753 4.028z"/><path d="m18.783 16.2729a2.5589 2.5589 0 0 0 2.2038-.8363l.9126-.9117a2.15 2.15 0 0 0 -3.0411-3.0411l-.9879.9879a2.15 2.15 0 1 1 -3.04-3.04l.9116-.9116a2.3064 2.3064 0 0 1 2.2048-.8364"/><circle cx="24" cy="24" r="21.5"/><path d="m12.6953 28.0925 6.02 3.0616-1.7888-4.8407h7.0735"/><path d="m19.0743 21.6866h4.9257"/><path d="m24 26.3134h7.0735l-1.7888 4.8407 14.0642-7.1541"/><path d="m43.3489 24-14.0642-7.1541 1.7888 4.8407h-7.0735"/></g></svg>