<svg viewBox="0 0 48 48" xmlns="http://www.w3.org/2000/svg"><path d="m29.7057 9.5181-17.9084-4.9772a1.1274 1.1274 0 0 0 -1.386.7847l-4.9813 17.9055a1.1274 1.1274 0 0 0 .7847 1.3849l17.9075 4.98a1.1275 1.1275 0 0 0 1.386-.7848l4.9793-17.9074a1.1275 1.1275 0 0 0 -.7838-1.386z" fill="none" stroke="#000" stroke-linecap="round" stroke-linejoin="round"/><circle cx="15.3802" cy="10.2435" r=".7498"/><circle cx="13.8042" cy="15.9122" r=".7498"/><circle cx="12.2282" cy="21.5808" r=".7498"/><circle cx="23.6942" cy="12.555" r=".7498"/><circle cx="22.1182" cy="18.2236" r=".7498"/><circle cx="20.5422" cy="23.8923" r=".7498"/><path d="m31.4436 30.1692-8.8909 3.3255a.5751.5751 0 0 0 -.3387.7392l3.326 8.8919a.5749.5749 0 0 0 .7395.3378h.0007l8.89-3.3256a.5749.5749 0 0 0 .3391-.7389v-.0012l-3.3246-8.89a.5749.5749 0 0 0 -.7389-.3391z" fill="none" stroke="#000" stroke-linecap="round" stroke-linejoin="round"/><circle cx="26.0072" cy="35.4527" r=".7498"/><circle cx="27.6493" cy="39.6448" r=".7498"/><circle cx="30.1355" cy="33.9092" r=".7498"/><circle cx="31.7766" cy="38.1017" r=".7498"/><path d="m28.3623 27.1508 14.2483 2.8014-4.6974-13.7422z" fill="none" stroke="#000" stroke-linecap="round" stroke-linejoin="round"/><circle cx="36.8456" cy="21.8698" r=".7498"/><circle cx="36.1061" cy="25.76" r=".7498"/></svg>