<svg viewBox="0 0 48 48" xmlns="http://www.w3.org/2000/svg"><path d="m25.3943 2.5455a21.1471 21.1471 0 0 0 -17.4149 7.3184 21.35 21.35 0 0 0 7.0043 33.2406 21.11 21.11 0 0 0 18.872-.4063.5875.5875 0 0 1 .3-.0638.5817.5817 0 0 1 .2913.0964 16.376 16.376 0 0 0 9.3119 2.7683.5932.5932 0 0 0 .5934-.5949v-7.2342a.5975.5975 0 0 0 -.1369-.3886.5863.5863 0 0 0 -.3553-.2063 8.395 8.395 0 0 1 -1.9819-.5711.5891.5891 0 0 1 -.3273-.3753.6173.6173 0 0 1 -.0177-.2551.6033.6033 0 0 1 .0892-.2389 21.3658 21.3658 0 0 0 -5.8561-29.5607 21.1237 21.1237 0 0 0 -10.3963-3.5413zm-14.217 21.273a12.9087 12.9087 0 0 1 7.9188-11.9366 12.7967 12.7967 0 0 1 14.0012 2.7921 12.9438 12.9438 0 0 1 -1.949 19.865 12.8043 12.8043 0 0 1 -16.2137-1.6038 12.9421 12.9421 0 0 1 -3.7661-9.1179z" fill="none" stroke="#000" stroke-linecap="round" stroke-linejoin="round"/></svg>