<svg viewBox="0 0 48 48" xmlns="http://www.w3.org/2000/svg"><g fill="none" stroke="#000" stroke-linecap="round" stroke-linejoin="round"><path d="m24.0005 4.5s-1.3105 2.7761-6.0256 4.1026-5.495 1.9392-5.495 5.7281"/><path d="m10.4824 14.5759h13.5181"/><path d="m24.0005 35.9994h-12.9352"/><path d="m24.0005 43.5s-2.6174-2.8052-5.63-2.834-6.0423-1.5508-6.0423-4.623"/><path d="m14.0229 36.0574v-21.2822"/><path d="m20.5707 14.7277v21.27"/><path d="m24.0005 4.5s1.3109 2.7761 6.0257 4.1026 5.4949 1.9392 5.4949 5.7281"/><path d="m37.5176 14.5759h-13.5176"/><path d="m24.0005 35.9994h12.9353"/><path d="m24.0005 43.5s2.6174-2.8052 5.63-2.834 6.0423-1.5508 6.0423-4.623"/><path d="m33.9781 36.0574v-21.2822"/><path d="m27.4293 14.7277v21.27"/></g></svg>