<svg viewBox="0 0 48 48" xmlns="http://www.w3.org/2000/svg"><g fill="none" stroke="#000" stroke-linecap="round" stroke-linejoin="round"><path d="m29.0589 44.6327c-.5975.1531-1.2025.2747-1.8106.3712a29.8584 29.8584 0 0 1 -3.33.2946 18.6044 18.6044 0 0 1 -3.4729-.226 20.449 20.449 0 0 1 -3.5784-.8574 19.7538 19.7538 0 0 1 -5.927-3.2022 19.725 19.725 0 0 1 -4.6059-5.1913 21.5042 21.5042 0 0 1 -2.6749-6.6791 25.4083 25.4083 0 0 1 -.3848-7.5153l.0044-.0561a19.1518 19.1518 0 0 0 3.1912 9.5418 17.6917 17.6917 0 0 0 13.1186 7.7333c.4751.04.9564.06 1.4413.06a17.2571 17.2571 0 0 0 6.2733-1.1738.637.637 0 0 1 .0921.0232 1.0088 1.0088 0 0 1 .5859.5465c.4528.9219.8932 1.8512 1.3389 2.7759.0152.033.0312.065.0468.0975q.3429.7069.6832 1.4155a1.5765 1.5765 0 0 1 .263 1.2453c-.1955.5737-.7531.6674-1.2542.7964z"/><path d="m3.2856 21.5614a3.7215 3.7215 0 0 0 3.5254 3.7877 3.6772 3.6772 0 0 0 3.6923-3.0923c-.007.0543-.0134.1081-.0191.1624a14.652 14.652 0 0 0 .9978 7.1691 14.0549 14.0549 0 0 0 4.2109 5.62 13.07 13.07 0 0 0 10.9607 2.5856 1.5635 1.5635 0 0 1 .6495-.0612 17.2552 17.2552 0 0 1 -6.2724 1.1738q-.7216 0-1.4413-.06a17.6919 17.6919 0 0 1 -13.1194-7.7336 19.1464 19.1464 0 0 1 -3.1909-9.5418"/><path d="m23.8377 2.6893q-.94.0023-1.876.0789a20.0676 20.0676 0 0 0 -6.8769 1.7895 20.5085 20.5085 0 0 0 -9.9535 10.0647 21.8067 21.8067 0 0 0 -1.82 6.455l.004.001a3.9438 3.9438 0 0 0 -.0294.4834 3.7211 3.7211 0 0 0 3.5251 3.7873 3.6777 3.6777 0 0 0 3.6927-3.0923v-.0037c.0138-.1113.0281-.2222.0445-.3322l.0009-.0051.0312-.2042a19.2578 19.2578 0 0 1 1.1036-5.5754 17.7454 17.7454 0 0 1 16.5547-12.0162q.5418 0 1.0747.0348a16.8689 16.8689 0 0 1 3.541.605h.0009l.0044.001a3.4893 3.4893 0 0 1 .7073.2018 20.2374 20.2374 0 0 0 -4.6518-1.7051 21.6842 21.6842 0 0 0 -2.8546-.4639q-1.0659-.1025-2.1375-.1039z"/><path d="m35.8855 8.4944a3.94 3.94 0 0 1 -.2566 1.4025 3.6446 3.6446 0 0 1 -3.3809 2.3848 3.5156 3.5156 0 0 1 -1.7336-.4565l-.0009.0022a13.3631 13.3631 0 0 0 -5.4467-1.7621 12.87 12.87 0 0 0 -6.9414 1.2866 13.3765 13.3765 0 0 0 -2.9116 1.944 13.8845 13.8845 0 0 0 -2.2238 2.4741 14.3616 14.3616 0 0 0 -2.4089 5.9419 19.2434 19.2434 0 0 1 1.1032-5.5754 17.7455 17.7455 0 0 1 16.5543-12.0165q.5418 0 1.0747.0348a16.856 16.856 0 0 1 3.541.605h.0009l.0048.0002c.2638.0743.5267.1555.7856.2431.1957.1007.3915.2051.5845.3141l.0072.0046a3.8262 3.8262 0 0 1 1.6486 3.1721"/><path d="m43.6891 30.3539a21.5215 21.5215 0 0 1 -1.2447 3.1684c-.1023.2087-.2082.4175-.3185.6235q-.2292.4365-.4791.8607a6.0684 6.0684 0 0 0 -.5885 1.0026l.016-.0525q.1548-.4266.29-.8629a19.38 19.38 0 0 0 .8581-5.7207 19.08 19.08 0 0 0 -3.4862-11.0589 18.0633 18.0633 0 0 0 -8.0349-6.3734c-.0623-.04-.125-.0761-.1882-.1132l.0014-.0019a3.52 3.52 0 0 0 1.7336.4565 3.6449 3.6449 0 0 0 3.3808-2.3847 3.9452 3.9452 0 0 0 .2567-1.403 3.8273 3.8273 0 0 0 -1.6486-3.1726q.3937.222.7776.4612a19.7063 19.7063 0 0 1 4.7136 4.113 20.9654 20.9654 0 0 1 3.489 5.973 22.6082 22.6082 0 0 1 1.3959 7.471 22.3411 22.3411 0 0 1 -.9239 7.0142"/><path d="m36.2156 43.876c.1966.4078.3848 1.02.7847 1.262a1.7987 1.7987 0 0 0 .9591.1345l5.9094-.0014a1.01 1.01 0 0 0 .86-1.4708q-.5606-1.0982-1.12-2.1973l-2.2819-4.473a2.3534 2.3534 0 0 1 -.2842-.6555s-.0832-.1364.0311-.5183q.1556-.4266.2905-.8625a19.3882 19.3882 0 0 0 .8581-5.7215 19.0788 19.0788 0 0 0 -3.4863-11.0585 18.0639 18.0639 0 0 0 -8.0348-6.3735q.2142.13.4239.2691a13.8672 13.8672 0 0 1 4.1126 4.2768 14.4593 14.4593 0 0 1 2.1024 6.77 14.619 14.619 0 0 1 -1.0627 6.3177 14.1437 14.1437 0 0 1 -3.4494 4.9737 1.4785 1.4785 0 0 0 -.5089.6491 1.077 1.077 0 0 0 .0347.727l3.8613 7.9523z"/></g></svg>