<svg viewBox="0 0 48 48" xmlns="http://www.w3.org/2000/svg"><g fill="none" stroke="#000" stroke-linecap="round" stroke-linejoin="round"><path d="m19.85 35.94c2.5-1.08 4.73-3.95 5.88-6.32 1.68-3.46 2.27-9.62-.53-11.46"/><path d="m20.19 18.48a14.1 14.1 0 0 0 -4.84 5.41c-1.54 3-2.48 8.66-.34 11.21"/><path d="m23.4 10.58a3 3 0 0 0 -1.31 1.16c-1.11 1.87.2 5 2.1 6 1.9 1.08 5.54.52 6.58-1.35s-.24-4.7-2.09-5.78a5.47 5.47 0 0 0 -2.84-.61"/><ellipse cx="16.48" cy="37.45" rx="4.24" ry="2.51"/><path d="m20.69 37.75c1.88.09 3.27.67 3.27 1.34 0 .75-1.7 1.36-3.79 1.36a8.13 8.13 0 0 1 -3-.52"/><path d="m19.09 13.65c-.75.69.37 3.74 1.3 5.15s2.94 3.32 3.63 2.75 0-3-.85-4.48-3.32-4.07-4.08-3.42z"/><path d="m22.84 4.54c1.13-.37 2.22 2 2.6 3.34s.78 3.53-.27 3.92-2.28-1.8-2.71-3.18-.76-3.71.38-4.08z"/><path d="m24.19 5.24a1 1 0 0 1 .62-.67c1.19-.37 2.19 2.01 2.61 3.34a9.11 9.11 0 0 1 .41 2.36"/><circle cx="27.78" cy="13.79" r=".82"/><path d="m15.41 23.77-2.95 4.37-2.83-1.86 6.71-11 3.36 2.22"/><path d="m23.8 43.5-2-2 14.65-14.35 1.92 1.93z"/></g></svg>