<svg viewBox="0 0 48 48" xmlns="http://www.w3.org/2000/svg"><g fill="none" stroke="#000" stroke-linecap="round" stroke-linejoin="round"><path d="m7.5 5.5a2 2 0 0 0 -2 2v33a2 2 0 0 0 2 2h33a2 2 0 0 0 2-2v-33a2 2 0 0 0 -2-2z"/><path d="m20.28 38.417v-9.501l4.756 9.512 4.756-9.498v9.498"/><path d="m13.0981 28.9157h4.7559"/><path d="m13.0981 33.6716h3.0914"/><path d="m13.0981 28.9157v9.5119"/><path d="m37.304 38.428-.001-9.512-5.105 6.389h6.302"/><rect height="5.3" rx="2" width="4" x="30.2048" y="21.4557"/><path d="m13.0981 23.4557a2 2 0 0 1 2-2"/><path d="m13.0981 21.4557v5.3"/></g><circle cx="28.3014" cy="18.9307" r=".75"/><path d="m28.3014 21.3807v5.3" fill="none" stroke="#000" stroke-linecap="round" stroke-linejoin="round"/><path d="m20.4988 24.7557a2 2 0 0 1 -2 2 2 2 0 0 1 -2-2v-1.3a2 2 0 0 1 2-2 2 2 0 0 1 2 2" fill="none" stroke="#000" stroke-linecap="round" stroke-linejoin="round"/><path d="m20.4988 26.7557v-5.3" fill="none" stroke="#000" stroke-linecap="round" stroke-linejoin="round"/><path d="m26.3037 23.4557a2 2 0 0 0 -2-2 2 2 0 0 0 -2 2v1.3a2 2 0 0 0 2 2 2 2 0 0 0 2-2" fill="none" stroke="#000" stroke-linecap="round" stroke-linejoin="round"/><path d="m26.3037 26.7557v-8" fill="none" stroke="#000" stroke-linecap="round" stroke-linejoin="round"/></svg>