<svg viewBox="0 0 48 48" xmlns="http://www.w3.org/2000/svg"><g fill="none" stroke="#000" stroke-linecap="round" stroke-linejoin="round"><path d="m9.2842 35.064a18.4994 18.4994 0 1 1 29.4433-.0131"/><path d="m38.6894 36.2261v-5.8976a1.6452 1.6452 0 0 0 -1.6441-1.6463h-.0011l-26.1017.037a1.65 1.65 0 0 0 -1.6453 1.6452l-.0172 5.8976"/><path d="m13.7639 31.903h8.1979a1.2709 1.2709 0 0 1 1.2709 1.2709 1.2709 1.2709 0 0 1 -1.2709 1.2709h-8.1979a1.2709 1.2709 0 0 1 -1.2709-1.2709 1.2709 1.2709 0 0 1 1.2709-1.2709z"/><rect height="2.3775" rx="1.1882" width="10.7397" x="12.4103" y="36.7397"/><path d="m38.6894 35.0988v5.9019a1.6452 1.6452 0 0 1 -1.6452 1.6453l-26.1017-.04a1.65 1.65 0 0 1 -1.6453-1.6452l-.0172-5.8946"/><path d="m26.5634 24.8161a2.7465 2.7465 0 1 1 .0087-.247"/><path d="m11.0012 28.6887 9.829-3.8671m-3.6017 3.7561 4.4308-1.8465"/><path d="m16.8694 25.6877a7.2922 7.2922 0 1 1 12.3131 2.8781"/><path d="m11.4539 27.8889a12.944 12.944 0 1 1 24.6273.5419"/><circle cx="31.3631" cy="35.6113" r="4.3525"/></g></svg>