<svg viewBox="0 0 48 48" xmlns="http://www.w3.org/2000/svg"><g fill="none" stroke="#000" stroke-linecap="round" stroke-linejoin="round"><circle cx="19.75" cy="6.61" r="2.11"/><circle cx="28.25" cy="6.61" r="2.11"/><circle cx="16.68" cy="31.93" r="2.11"/><circle cx="31.32" cy="31.93" r="2.11"/><path d="m17.64 6.61h-2a4.6 4.6 0 0 0 -4.59 4.59v23a4.6 4.6 0 0 0 4.59 4.59h16.7a4.6 4.6 0 0 0 4.59-4.59v-23a4.6 4.6 0 0 0 -4.59-4.59h-2"/><rect height="9.93" rx="1.83" width="19.17" x="14.41" y="14.26"/><path d="m29.61 14.26v-2.1a.93.93 0 0 0 -.92-.92h-9.38a.93.93 0 0 0 -.92.92v2.1"/><path d="m15.65 38.74-6.37 4.76"/><path d="m32.35 38.74 6.37 4.76"/><path d="m21.86 6.61h4.28"/></g></svg>