<svg viewBox="0 0 48 48" xmlns="http://www.w3.org/2000/svg"><g fill="none" stroke="#000" stroke-linecap="round" stroke-linejoin="round"><path d="m14.25 19.8545a9.75 9.75 0 0 1 9.75 9.75v9.75a0 0 0 0 1 0 0h-9.75a9.75 9.75 0 0 1 -9.75-9.75 9.75 9.75 0 0 1 9.75-9.75z"/><path d="m24 39.3545h9.75a9.75 9.75 0 0 0 9.75-9.75 9.75 9.75 0 0 0 -9.75-9.75 9.75 9.75 0 0 0 -9.75 9.75"/><path d="m24 8.6455a12.72 12.72 0 0 1 12.72 12.72v12.72a0 0 0 0 1 0 0h-12.72a12.72 12.72 0 0 1 -12.72-12.72 12.72 12.72 0 0 1 12.72-12.72z" transform="matrix(.70710678 .70710678 -.70710678 .70710678 22.1372 -10.7127)"/></g></svg>