<svg viewBox="0 0 48 48" xmlns="http://www.w3.org/2000/svg"><g fill="none" stroke="#000" stroke-linecap="round" stroke-linejoin="round"><path d="m24 31.89v-15.78"/><path d="m16.11 24h15.78"/><path d="m24 24c-4.84 4.84-8.48 6.88-8.48 11.72a8.53 8.53 0 1 0 17.05 0"/><path d="m27.22 43.89a3.88 3.88 0 1 0 -6.45 0"/><path d="m24 24c4.84-4.84 8.48-6.88 8.48-11.72a8.53 8.53 0 1 0 -17 0"/><path d="m20.78 4.11a3.88 3.88 0 1 0 6.45 0"/><path d="m24 24c-4.84-4.84-6.88-8.48-11.72-8.48a8.53 8.53 0 1 0 0 17.05"/><path d="m4.11 27.22a3.88 3.88 0 1 0 0-6.45"/><path d="m24 24c4.84 4.84 6.88 8.48 11.72 8.48a8.53 8.53 0 1 0 0-17"/><path d="m43.89 20.78a3.88 3.88 0 1 0 0 6.45"/></g></svg>