<svg viewBox="0 0 48 48" xmlns="http://www.w3.org/2000/svg"><g fill="none" stroke="#000" stroke-linecap="round" stroke-linejoin="round"><path d="m18 6.5h-10.5a2 2 0 0 0 -2 2v7.67a2 2 0 0 0 2 2h10.5m12 0h10.5a2 2 0 0 0 2-2v-7.67a2 2 0 0 0 -2-2h-10.5"/><path d="m18 18.17h-10.5a2 2 0 0 0 -2 2v7.66a2 2 0 0 0 2 2h10.5m12 0h10.5a2 2 0 0 0 2-2v-7.66a2 2 0 0 0 -2-2h-10.5"/><path d="m18 29.83h-10.5a2 2 0 0 0 -2 2v7.67a2 2 0 0 0 2 2h10.5m12 0h10.5a2 2 0 0 0 2-2v-7.67a2 2 0 0 0 -2-2h-10.5"/><path d="m9.37 15.83v-7"/><path d="m9.37 27.5v-7"/><path d="m9.37 39.17v-7"/><rect height="39" rx="1" width="12" x="18" y="4.5"/><path d="m30 15.33a6 6 0 1 0 -12 0"/><path d="m18 16.22h12v3.88h-12z"/></g></svg>