<svg viewBox="0 0 48 48" xmlns="http://www.w3.org/2000/svg"><g fill="none" stroke="#000" stroke-linecap="round" stroke-linejoin="round"><path d="m20.791 28.976-3.756-9.952-3.755 9.952"/><path d="m29.063 19.024-3.756 9.952-3.756-9.952z"/><path d="m8.5 22.7794a3.7558 3.7558 0 0 1 3.7558-3.7558"/><path d="m8.5 19.0236v9.9528"/><path d="m39.0076 27.0811a3.7545 3.7545 0 0 1 -3.2634 1.8953 3.7557 3.7557 0 0 1 -3.7557-3.7558v-2.4412a3.7557 3.7557 0 0 1 3.7557-3.7558 3.7558 3.7558 0 0 1 3.7558 3.7558v1.2206h-7.5115"/><path d="m43.5 37.5v-27a2 2 0 0 0 -2-2h-35a2 2 0 0 0 -2 2v27a2 2 0 0 0 2 2h35a2 2 0 0 0 2-2z"/></g></svg>