<svg viewBox="0 0 48 48" xmlns="http://www.w3.org/2000/svg"><g fill="none" stroke="#000" stroke-linecap="round" stroke-linejoin="round"><path d="m17.53 20.08s5.18-.84 6.22-.84a10.83 10.83 0 0 1 3 .84v-4.28h-2.46c-.74 0-1.16 1-2.36 1-.9 0-2.33-1-2.33-2.07s-.19-2 2-2h5.12v-5.16h-12.72v-2.07h-2.95a2.9 2.9 0 0 0 -2.53 2.5c0 1.1.71 2.78 2.2 2.78"/><path d="m5.34 23.58c-.34 2.79.26 4.6 1.66 5.7s8.27 5.72 11.76 8.23a10.31 10.31 0 0 1 3.3 4.21"/><path d="m6.38 12.79c-1.94 3.6-.44 7.2 1.17 8.44s15.05 10.77 17.75 12.52c4.28 2.85 4.93 8.75 4.93 8.75"/><path d="m11.58 32.5a16.4 16.4 0 0 1 2.84 4.88"/><path d="m11.58 24.16a16.52 16.52 0 0 1 2.84 4.89"/><path d="m19.13 29.48a16.24 16.24 0 0 1 2.87 4.88"/><path d="m19.78 21.72a14.91 14.91 0 0 1 3.1 4.88"/><path d="m12.58 14.81c.26 1.86 3 3.86 5 5.27 2.21 1.63 7.14 5.15 10 7.17 2 1.46 1.73 5.25 1.73 5.25"/><path d="m22.67 23.8 7.43-4.46h7.81l4.27 2.52-2.14 3.42"/><path d="m29.6 39.84c1.41-.55 5.94-1 8.5-1a5.42 5.42 0 0 1 4.08 2.16"/><path d="m27.48 27.25c1.91-2.15 3.59-3.87 6.83-3.87 3.76 0 8.46 2.69 8.46 8.17a7.88 7.88 0 0 1 -4.25 7.32"/><path d="m35.89 23.54c1.53 3.86 2 7.3.56 13"/><path d="m32.74 23.54a24.86 24.86 0 0 0 -1.05 9.31"/><path d="m41.62 27.32c-3 .18-11.52.15-11.52.15"/><path d="m42.77 31.55h-11.17"/><path d="m42.18 35.18c-2 0-7.42 0-7.42 0"/><path d="m37.75 24.09.51-1.22-1.08-1.3"/><path d="m18.21 7.57v3.15l-1.75-.68"/></g></svg>