<svg viewBox="0 0 48 48" xmlns="http://www.w3.org/2000/svg"><g fill="none" stroke="#000" stroke-linecap="round" stroke-linejoin="round"><path d="m30.42 11.45-13.9 17.19a4.7 4.7 0 0 0 -1.19 3.08 4.8 4.8 0 0 0 9.33 1.64z"/><path d="m26.83 15.89a20.38 20.38 0 0 0 -2.83-.2 19.5 19.5 0 0 0 -19.5 19.5 15.65 15.65 0 0 1 15.66-15.65 15.45 15.45 0 0 1 3.42.37"/><path d="m27.78 21.51a15.66 15.66 0 0 1 8 13.68h7.72a19.51 19.51 0 0 0 -14.37-18.82"/><path d="m22.88 15.72v4.05"/><path d="m29.54 22.66 2.87-5.07"/><path d="m34 27.87 6.14-3.62"/><path d="m14.95 20.42-1.08-1.89"/><circle cx="20.17" cy="31.84" r="1.74"/></g></svg>