<svg viewBox="0 0 48 48" xmlns="http://www.w3.org/2000/svg"><g fill="none" stroke="#000" stroke-linecap="round" stroke-linejoin="round"><path d="m12.6 13.09h7.29"/><path d="m12.55 16.21h7.3"/><path d="m12.55 19.28h7.3"/><path d="m12.55 22.43h7.3"/><path d="m8.67 9v25.08h11.12c1.79 0 4.29 1.75 4.29 1.75l-.08-25.48a5.51 5.51 0 0 0 -3.85-1.58z"/><path d="m30.82 34.08h-2.45c-1.79 0-4.29 1.75-4.29 1.75l.09-25.48a5.51 5.51 0 0 1 3.83-1.58h2.8"/><path d="m33.89 8.86 5.6.09v25.13h-5.6"/><path d="m33.89 36.62h7.7v-26.34h-1.59"/><path d="m8.49 10.37h-2.2v26.23h15.16a10.39 10.39 0 0 0 2.53.58 9.37 9.37 0 0 0 2.38-.56h4.46"/><path d="m30.82 7.19v32.4l1.49-1.05 1.58 1v-32.26z"/></g></svg>