<svg viewBox="0 0 48 48" xmlns="http://www.w3.org/2000/svg"><g fill="none" stroke="#000" stroke-linecap="round" stroke-linejoin="round"><path d="m18.7 14.4h10.7v2.7h-10.7z"/><path d="m18.7 20.5h10.7v2.7h-10.7z"/><path d="m32.8 14.4h2.6v2.7h-2.6z"/><path d="m32.8 20.5h2.6v2.7h-2.6z"/><path d="m12.6 5.3v27.5h-6.1v6.2c0 1.8 2 4.5 4.1 4.5h26a5.19 5.19 0 0 0 4.9-4.9v-33.3l-2.3 2.4-3-3.2-3.1 3.2-3-3.2-3.1 3.2-3-3.2-3 3.2-3.1-3.2-3.1 3.2z"/><path d="m12.6 32.8h2.6v-22.2h23.7v27.3c0 3.9-5.4 4.1-5.4 0v-5.1z"/></g></svg>