<svg viewBox="0 0 48 48" xmlns="http://www.w3.org/2000/svg"><g fill="none" stroke="#000" stroke-linecap="round" stroke-linejoin="round"><path d="m9.21 7.47a1.73 1.73 0 0 0 -1.74 1.74v7.14h33.06v-7.14a1.73 1.73 0 0 0 -1.74-1.74zm-1.74 24.18v7.14a1.73 1.73 0 0 0 1.74 1.74h29.58a1.73 1.73 0 0 0 1.74-1.74v-7.14z"/><path d="m6.22 16.35a1.72 1.72 0 0 0 -1.72 1.73v11.84a1.72 1.72 0 0 0 1.72 1.73h35.56a1.72 1.72 0 0 0 1.72-1.73v-11.84a1.72 1.72 0 0 0 -1.72-1.73zm5.11 3.07a4.58 4.58 0 0 1 4.58 4.58 4.58 4.58 0 0 1 -4.58 4.58 4.58 4.58 0 0 1 -4.58-4.58 4.58 4.58 0 0 1 4.58-4.58z"/><path d="m19.15 26.31h17.39"/><path d="m19.15 21.69h21.73"/></g></svg>