<svg viewBox="0 0 48 48" xmlns="http://www.w3.org/2000/svg"><path d="m24 4.5a15.08 15.08 0 0 0 -15.08 15.08c0 12.56 15.08 23.92 15.08 23.92s15.08-11.36 15.08-23.92a15.08 15.08 0 0 0 -15.08-15.08zm.07.8c2.19 1.1 5.8 3.76 7.05 7.43-1 3.37-4.39 6.43-7 7.6v-3.83c-2.12.7-6.49 5.09-6.73 7.35.54 2.43 4.85 6.64 6.65 7.1 0 0-.05-3.43 0-3.58 7.37 0 11.12-6.88 11.08-11.12s-1.78-8.59-5.32-10.6a14.63 14.63 0 0 1 8 12.91 13.75 13.75 0 0 1 -13.8 13.75c-.33 0-.65 0-1 0-13.82-2.2-12.13-22 1-23.05z" fill="none" stroke="#000" stroke-linecap="round" stroke-linejoin="round"/></svg>