<svg viewBox="0 0 48 48" xmlns="http://www.w3.org/2000/svg"><path d="m7.45 5.5a2 2 0 0 0 -1.95 2v33.1a2 2 0 0 0 2 2h33.1a2 2 0 0 0 2-2v-20.19l-2.86 5-11.52-9.41 10.45-10.5zm20.77 10.5 11.42 9.42s-3.06-.54-10.83 5.48l-4.25-3.7s4.5-8.74 3.66-11.2zm-6.87 12.64h3.21l-2.48 3.3-.73.54a3.32 3.32 0 0 1 -1.3.24 2.18 2.18 0 0 1 -1.2-.3 1.57 1.57 0 0 1 -.48-.48h-1.37a1.1 1.1 0 0 1 -.3.35 2 2 0 0 1 -1.27.36h-1.75v-.71h-3.87l-.22.71h-1.08v-4h1.41l.26-.74h1.23l.26.74h2v-.72h1.47a3.14 3.14 0 0 1 1.43.26.9.9 0 0 1 .4.46zm4-.77 2.48 2.13-1.49 1.93h-4.26z" fill="none" stroke="#000" stroke-linecap="round" stroke-linejoin="round"/></svg>