<svg viewBox="0 0 48 48" xmlns="http://www.w3.org/2000/svg"><g fill="none" stroke="#000" stroke-linecap="round" stroke-linejoin="round"><path d="m16.44 22.51a3.11 3.11 0 1 0 3.11 3.11 3.12 3.12 0 0 0 -3.11-3.11zm15.11 0a3.1 3.1 0 0 0 -3.1 3.11 3.11 3.11 0 1 0 3.1-3.11zm-16.78 10.16a16.58 16.58 0 0 0 13.06 2.41 15.81 15.81 0 0 0 5.52-2.49m-13.35-15.51c.54-.06 1.64-.16 2.18-.2s1.21-.05 1.81-.05a29.19 29.19 0 0 1 11.27 2.17 4.41 4.41 0 0 1 3.74-2.17 4.65 4.65 0 0 1 4.5 4.79 5 5 0 0 1 -1.07 3.11 7.62 7.62 0 0 1 1.07 3.77c0 6.5-8.73 11.67-19.5 11.68-10.77 0-19.5-5.18-19.5-11.68a7.69 7.69 0 0 1 1.07-3.78 5 5 0 0 1 -1.07-3.1 4.65 4.65 0 0 1 4.5-4.79 4.42 4.42 0 0 1 3.75 2.17 25.82 25.82 0 0 1 7.25-1.92z"/><path d="m25.19 11.02-4.78-.82 1.35 6.63"/><circle cx="28.7" cy="11.34" r="3.51"/></g></svg>