<svg viewBox="0 0 48 48" xmlns="http://www.w3.org/2000/svg"><g fill="none" stroke="#000" stroke-linecap="round" stroke-linejoin="round"><path d="m28.5445 30.0042v-12.0084h2.7019a5.2537 5.2537 0 0 1 5.2536 5.2542v1.501a5.2537 5.2537 0 0 1 -5.2536 5.2537z"/><path d="m11.5 30.0042v-12.0084h3.9313a4.0329 4.0329 0 0 1 0 8.0658h-3.9313"/><path d="m15.4313 26.0616 3.9309 3.9395"/><path d="m28.4887 26.8618h-5.2536"/><path d="m28.4887 21.1382h-5.2536"/><path d="m40.5 5.5h-33a2 2 0 0 0 -2 2v33a2 2 0 0 0 2 2h33a2 2 0 0 0 2-2v-33a2 2 0 0 0 -2-2z"/></g></svg>