<svg viewBox="0 0 48 48" xmlns="http://www.w3.org/2000/svg"><path d="m6.62 27.61-.89 1.53c-.46 1.9 2.38 1.77 1.77 0zm4.59 2.27-.89 1.54c-.46 1.9 2.38 1.77 1.77 0zm4.55-1-.88 1.54a1 1 0 1 0 1.77 0zm-10.89-3.24h13.23c2.92 0 3.76-5.23-1.66-4.55-.32-1.64-1.44-2.47-3.39-2.47-.29-3.22-4.23-3.31-4.86-.49-1.57.25-2.67 1-2.77 2.52-3.42-.24-4.17 4.99-.55 4.99zm2.06 8.69v-20.66m16.07 14.79c5.84 2.47 11.72 2.4 18 .54m-17.17-8.34a25.54 25.54 0 0 0 17.93 1m-6.94-6.88c3.17 12.57-1.25 17.94-6.93 22.1m.22-23.51c3.16 12.63-1.25 17.97-6.94 22.13m-14.24-21.83a20.67 20.67 0 1 1 0 20.66" fill="none" stroke="#000" stroke-linecap="round" stroke-linejoin="round"/></svg>