<svg viewBox="0 0 48 48" xmlns="http://www.w3.org/2000/svg"><g fill="none" stroke="#000" stroke-linecap="round" stroke-linejoin="round"><path d="m36.5512 41.3362a20.3106 20.3106 0 0 0 -28.7235-28.7235"/><path d="m17.4022 22.1872a6.77 6.77 0 0 0 -9.5745-9.5745"/><path d="m26.9767 31.7617a6.77 6.77 0 0 0 -9.5745-9.5745"/><path d="m36.5512 41.3362a6.77 6.77 0 1 0 -9.5745-9.5745"/><path d="m36.5512 12.6127.9792-.9792"/><path d="m17.4022 22.1872c12.1041-12.1042 19.149-9.5745 19.149-9.5745"/><path d="m26.9767 31.7617c12.1041-12.1042 9.5745-19.149 9.5745-19.149"/><path d="m26.9767 22.1872-12.349 12.3489a5.3468 5.3468 0 0 1 -7.5616 0 5.3469 5.3469 0 0 1 0-7.5617l.8976-.8976"/></g></svg>