<svg viewBox="0 0 48 48" xmlns="http://www.w3.org/2000/svg"><g fill="none" stroke="#000" stroke-linecap="round" stroke-linejoin="round"><path d="m24 2.5-3.503 17.997 3.503 3.503 3.503-3.503z"/><path d="m24 24v-21.5"/><path d="m45.5 24-17.997-3.503-3.503 3.503 3.503 3.503z"/><path d="m24 24h21.5"/><path d="m24 45.5 3.503-17.997-3.503-3.503-3.503 3.503z"/><path d="m24 24v21.5"/><path d="m2.5 24 17.997 3.503 3.503-3.503-3.503-3.503z"/><path d="m24 24h-21.5"/><path d="m41.4828 23.218a17.5012 17.5012 0 0 0 -16.7-16.7008"/><path d="m24.782 41.4828a17.5011 17.5011 0 0 0 16.7008-16.7008"/><path d="m6.5172 24.7819a17.5011 17.5011 0 0 0 16.7007 16.7009"/><path d="m23.2179 6.5172a17.5011 17.5011 0 0 0 -16.7007 16.7008"/><path d="m27.5031 27.5032 5.6293 5.6292"/><path d="m20.4968 27.5031-5.6292 5.6293"/><path d="m20.4969 20.4968-5.6293-5.6292"/><path d="m27.5032 20.4969 5.6292-5.6293"/></g></svg>