<svg viewBox="0 0 48 48" xmlns="http://www.w3.org/2000/svg"><g fill="none" stroke="#000" stroke-linecap="round" stroke-linejoin="round"><path d="m13.0758 39.866v-31.7328h10.7183a10.88 10.88 0 0 1 11.13 10.71 10.88 10.88 0 0 1 -11.13 10.71h-10.7183"/><path d="m24.5775 29.527 10.3465 10.339"/><path d="m13.0758 4.5a3.6393 3.6393 0 0 0 -3.6447 3.6332v31.7339a3.6388 3.6388 0 0 0 3.6447 3.6329 3.6388 3.6388 0 0 0 3.6447-3.6329v-6.6812h6.37l9.2542 9.2469a3.6385 3.6385 0 0 0 5.16-5.1315l-6.1534-6.15a14.266 14.266 0 0 0 7.2183-12.3068 14.606 14.606 0 0 0 -14.7757-14.3445zm3.6447 7.2658h7.073a7.0882 7.0882 0 1 1 0 14.154h-7.073z"/></g></svg>