<svg viewBox="0 0 48 48" xmlns="http://www.w3.org/2000/svg"><g fill="none" stroke="#000" stroke-linecap="round" stroke-linejoin="round"><path d="m10.5 43.5h27a2 2 0 0 0 2-2v-35a2 2 0 0 0 -2-2h-27a2 2 0 0 0 -2 2v35a2 2 0 0 0 2 2z"/><rect height="12.11" rx="1" width="5" x="32.17" y="28.46"/><rect height="12.11" rx="1" width="5" x="32.17" y="14.02"/><rect height="12.11" rx="1" transform="matrix(0 -1 1 0 -21.19 54.96)" width="5" x="14.39" y="32.02"/><rect height="5" rx="1" width="5" x="25.06" y="35.57"/><rect height="5" rx="1" width="5" x="25.06" y="28.46"/><rect height="5" rx="1" width="5" x="10.83" y="28.46"/><rect height="5" rx="1" width="5" x="17.94" y="28.46"/><rect height="5" rx="1" width="5" x="25.06" y="21.13"/><rect height="5" rx="1" width="5" x="10.83" y="21.13"/><rect height="5" rx="1" width="5" x="17.94" y="21.13"/><rect height="5" rx="1" width="5" x="25.06" y="14.02"/><rect height="5" rx="1" width="5" x="10.83" y="14.02"/><rect height="5" rx="1" width="5" x="17.94" y="14.02"/><rect height="5" rx="1" width="5" x="25.06" y="6.91"/><rect height="5" rx="1" width="5" x="32.17" y="6.91"/><rect height="5" rx="1" width="5" x="10.83" y="6.91"/><rect height="5" rx="1" width="5" x="17.94" y="6.91"/></g></svg>