<svg viewBox="0 0 48 48" xmlns="http://www.w3.org/2000/svg"><g fill="none" stroke="#000" stroke-linecap="round" stroke-linejoin="round"><path d="m19.04 5.5 18.5 4.96 4.96 18.5-13.54 13.54-18.5-4.96-4.96-18.5z"/><path d="m21.25 13.72-5.22 19.47 19.46-5.22z"/><path d="m35.49 27.97 2.05-17.51-16.29 3.26z"/><path d="m21.25 13.72-15.75 5.32 10.53 14.15z"/><path d="m16.03 33.19 12.93 9.31-18.5-4.96z"/><path d="m35.49 27.97-6.53 14.53 13.54-13.54z"/><path d="m19.04 5.5 2.21 8.22"/><path d="m21.72 28.08v-7.28h2.44a2.45 2.45 0 1 1 0 4.89h-2.44"/><path d="m24.16 25.69 2.42 2.42"/></g></svg>