<svg viewBox="0 0 48 48" xmlns="http://www.w3.org/2000/svg"><g fill="none" stroke="#000" stroke-linecap="round" stroke-linejoin="round"><path d="m8.3642 29.1504h3.6913"/><path d="m8.3642 34.9179h3.6913"/><path d="m4.5 40.8354h3.6912"/><path d="m12.4246 27.1202h3.6912"/><path d="m16.4849 25.0901h3.6912"/><path d="m26.1744 18.9996h3.6912"/><path d="m20.5453 23.0599h1.8456"/><path d="m26.6358 23.0599h1.8456"/><path d="m31.8957 15.4006h1.8456"/><path d="m35.7023 11.2826h1.8456"/><path d="m41.6544 7.1646h1.8456"/><path d="m24.5133 25.0901h1.8456"/><path d="m24.5133 27.1202h1.8456"/><path d="m22.1448 29.1504h1.8456"/><path d="m21.9295 21.0297h6.5519"/><path d="m22.1448 31.1806h1.8456"/><path d="m20.1761 32.9454h1.8456"/><path d="m18.3305 34.9179h1.8456"/><path d="m18.3305 36.8904h1.8456"/><path d="m16.4849 40.8354h1.8456"/><path d="m6.3456 39.0013h11.9849"/><path d="m6.1111 31.1806h1.8456"/><path d="m8.3642 32.9454h1.8456"/><path d="m6.3456 36.8904h1.8456"/><path d="m12.6091 36.8904h1.8456"/></g></svg>