<svg viewBox="0 0 48 48" xmlns="http://www.w3.org/2000/svg"><g fill="none" stroke="#000" stroke-linecap="round" stroke-linejoin="round"><path d="m16.1 6.33a2.56 2.56 0 0 0 -2.57 2.56v7.66h-9l4.27 7.45v15.1a2.56 2.56 0 0 0 2.56 2.58h20.09a2.58 2.58 0 0 0 2.55-2.57v-7.66h2.6a2.55 2.55 0 0 0 2.57-2.56v-15.12l4.3-7.44zm17.9 25.12v-12.33a2.57 2.57 0 0 0 -2.56-2.57h-17.91"/><path d="m18.92 21.57v15.08"/><path d="m23.94 21.57v15.08"/><path d="m28.97 26.6h-15.08"/><path d="m28.97 31.62h-15.08"/></g></svg>