<svg viewBox="0 0 48 48" xmlns="http://www.w3.org/2000/svg"><path d="m11.28 9v3.82h-6.78v3.74c0 6.26 1.86 9.75 6.33 11.92a21 21 0 0 1 4.56 3.31 11.08 11.08 0 0 0 3.92 2.69l1.69.52v4.53h-2.58c-3.12 0-4.17.71-4.17 2.82v1.42h19.5v-1.27c0-2.07-1.28-3-4.24-3h-2.51v-4.5l1.72-.51a11 11 0 0 0 3.92-2.7 22.75 22.75 0 0 1 4.74-3.47 11.08 11.08 0 0 0 5.71-6.49 27.27 27.27 0 0 0 .44-5.29v-3.71h-6.81v-3.83zm12.72 6.37 2.05 4.24h4.94l-3.87 3.57 1.11 4.56-4.23-2.27-4.23 2.3 1.11-4.56-3.88-3.57h4.95zm-15.94 1.27h3.16v7.88c-.33.2-1.36-1-2.11-2.37a11.81 11.81 0 0 1 -.81-3.28zm28.72 0h3.44l-.29 2.2a7.5 7.5 0 0 1 -2.07 4.9 3.68 3.68 0 0 1 -1.11 1z" fill="none" stroke="#000" stroke-linecap="round" stroke-linejoin="round"/></svg>