<svg viewBox="0 0 48 48" xmlns="http://www.w3.org/2000/svg"><g fill="none" stroke="#000" stroke-linecap="round" stroke-linejoin="round"><path d="m17.4589 28.1657h4.1657"/><path d="m17.4589 19.8343h4.1657"/><path d="m17.4589 24h2.7077"/><path d="m17.4589 19.8343v8.3314"/><path d="m34.3343 28.1657h4.1657"/><path d="m34.3343 19.8343h4.1657"/><path d="m34.3343 24h2.7077"/><path d="m34.3343 19.8343v8.3314"/><path d="m9.5 28.1657v-8.3314h2.7077a2.8119 2.8119 0 1 1 .0023 5.6237h-2.71"/><path d="m12.4056 25.4512 2.6139 2.7145"/><path d="m32.075 19.834-2.083 8.332-2.083-8.332-2.082 8.332-2.083-8.332"/><path d="m40.0662 5.5h-33a2 2 0 0 0 -2 2v33a2 2 0 0 0 2 2h33a2 2 0 0 0 2-2v-33a2 2 0 0 0 -2-2z"/></g></svg>