<svg viewBox="0 0 48 48" xmlns="http://www.w3.org/2000/svg"><g fill="none" stroke="#000" stroke-linecap="round" stroke-linejoin="round"><path d="m5.5 19.2h2.76c.88 0 1.4-.83 1.64-1.76l1.93-6.28h1.46l2 6.65c.2.64.41 1.39 1.4 1.39h5.6l3.71-6.52h7.86l3.76 6.52h4.88"/><path d="m12.53 26.5h1.4"/><path d="m11.13 28.5h1.4"/><path d="m11.13 30.5h1.4"/><path d="m11.13 34.5h1.4"/><path d="m12.53 32.5h1.4"/><path d="m12.53 36.5h1.4"/><path d="m12.53 38.5h1.4"/><path d="m12.53 40.5h1.4"/><path d="m11.13 42.5h1.4"/><path d="m26 26.24v1.4"/><path d="m33.88 26.94v1.4"/><path d="m30 26.22v6.27"/><path d="m30 34.21v8.29"/><path d="m33.88 30.32v1.4"/><path d="m33.88 36.4v1.39"/><path d="m33.88 39.79v1.39"/><path d="m26 31.28v1.4"/><path d="m26 34.94v1.4"/><path d="m26 41.1v1.4"/><path d="m28 28.42v1.39"/><path d="m31.91 26.85v1.39"/><path d="m31.91 31.64v1.36"/><path d="m31.91 34.75v1.4"/><path d="m28 31.86v1.4"/><path d="m28 41.1v1.4"/><path d="m28 38.06v1.4"/><path d="m31.91 38.35v1.4"/><path d="m6.5 23.5v1.4"/><path d="m5.5 24.9h37"/><path d="m41.5 23.5v1.4"/><path d="m11.5 23.5v1.4"/><path d="m16.5 23.5v1.4"/><path d="m26.5 23.5v1.4"/><path d="m21.5 23.5v1.4"/><path d="m31.5 23.5v1.4"/><path d="m36.5 23.5v1.4"/><path d="m38.9 39.5h1.4"/><path d="m38.9 37.5h1.4"/><path d="m38.9 35.5h1.4"/><path d="m5.5 21.5h1.4"/><path d="m5.5 16.5h1.4"/><path d="m5.5 11.5h1.4"/><path d="m5.5 6.5h1.4"/><path d="m5.5 42.5v-37"/></g></svg>