<svg viewBox="0 0 48 48" xmlns="http://www.w3.org/2000/svg"><g fill="none" stroke="#000" stroke-linecap="round" stroke-linejoin="round"><circle cx="29.736" cy="20.058" r="2.5281"/><path d="m37.0575 21.74a9.0038 9.0038 0 0 0 -9.0038-9.0039"/><path d="m41.9746 21.74a13.9209 13.9209 0 0 0 -13.9209-13.9206"/><path d="m17.4535 14.6918h-9.4435a3.51 3.51 0 0 0 -3.51 3.51v18.4688a3.51 3.51 0 0 0 3.51 3.51h31.98a3.51 3.51 0 0 0 3.51-3.51v-9.5788"/><path d="m27.7554 26.7636a2.35 2.35 0 0 0 -2.4744-2.35 2.441 2.441 0 0 0 -2.2219 2.483v2.1805a2.3506 2.3506 0 0 0 2.3482 2.3529 2.3506 2.3506 0 0 0 2.3481-2.3532h-2.3481"/><path d="m8.11 31.43v-7.02h2.2983a2.3576 2.3576 0 0 1 0 4.7152h-2.2983"/><path d="m10.4083 29.1256 2.298 2.3031"/><path d="m15.5894 31.43v-7.02h2.2982a2.3576 2.3576 0 0 1 0 4.7152h-2.2982"/><path d="m17.8876 29.1256 2.298 2.3031"/></g></svg>