<svg viewBox="0 0 48 48" xmlns="http://www.w3.org/2000/svg"><g fill="none" stroke="#000" stroke-linecap="round" stroke-linejoin="round"><path d="m40.5 42.5h-33a2.0059 2.0059 0 0 1 -2-2v-33a2.0059 2.0059 0 0 1 2-2h33a2.0059 2.0059 0 0 1 2 2v33a2.0059 2.0059 0 0 1 -2 2z"/><path d="m8 27.5406v-6.7041h2.1948a2.2516 2.2516 0 0 1 0 4.5031h-2.1948"/><path d="m10.1948 25.3396 2.1946 2.1993"/><path d="m14.0671 20.8365v6.7041"/><path d="m18.5086 20.8365v6.7041"/><path d="m14.0671 24.1759h4.4415"/><path d="m24.545 20.836-2.221 6.705-2.221-6.705"/><rect height="4.4415" rx="1.676" width="3.3521" x="25.1094" y="23.0991"/></g><circle cx="30.2095" cy="21.046" r=".75"/><path d="m30.2095 23.0991v4.4415" fill="none" stroke="#000" stroke-linecap="round" stroke-linejoin="round"/><path d="m39.78 26.6948a1.6755 1.6755 0 0 1 -1.4563.8458 1.6761 1.6761 0 0 1 -1.6761-1.676v-1.0894a1.6761 1.6761 0 0 1 1.6761-1.6761 1.6761 1.6761 0 0 1 1.6763 1.6761v.5448h-3.3521" fill="none" stroke="#000" stroke-linecap="round" stroke-linejoin="round"/><path d="m35.0743 26.6964a1.6753 1.6753 0 0 1 -1.4553.8442 1.6761 1.6761 0 0 1 -1.6761-1.676v-1.0894a1.6761 1.6761 0 0 1 1.6761-1.6761 1.6752 1.6752 0 0 1 1.4536.8413" fill="none" stroke="#000" stroke-linecap="round" stroke-linejoin="round"/></svg>