<svg viewBox="0 0 48 48" xmlns="http://www.w3.org/2000/svg"><g fill="none" stroke="#000" stroke-linecap="round" stroke-linejoin="round"><rect height="37" rx="2" width="37" x="5.5" y="5.5"/><path d="m36 21.5738v7.9862a3.5183 3.5183 0 0 1 -3.5183 3.5183 3.5075 3.5075 0 0 1 -2.4878-1.03"/><rect height="10.2735" rx="3.5183" transform="matrix(-1 0 0 -1 64.9633 46.3844)" width="7.0367" x="28.9633" y="18.0555"/><path d="m12 21.5738a3.5183 3.5183 0 0 1 3.5183-3.5183"/><path d="m12 21.5738v6.7552"/></g><circle cx="17.5252" cy="15.6453" r=".75"/><path d="m17.5252 18.0555v10.2735" fill="none" stroke="#000" stroke-linecap="round" stroke-linejoin="round"/><path d="m26.7784 28.329v-6.7552a3.5183 3.5183 0 0 0 -3.5184-3.5183 3.5183 3.5183 0 0 0 -3.5183 3.5183v6.7552" fill="none" stroke="#000" stroke-linecap="round" stroke-linejoin="round"/></svg>