<svg viewBox="0 0 48 48" xmlns="http://www.w3.org/2000/svg"><path d="m18.68 3.51a1.59 1.59 0 0 0 -1 .23l-8.06 4.66a1.76 1.76 0 0 0 -.62 2.4l3.88 6.79h-7.8a1.75 1.75 0 0 0 -1.76 1.75v9.31a1.75 1.75 0 0 0 1.76 1.75h7.78l-3.86 6.79a1.78 1.78 0 0 0 .64 2.42l8.09 4.66a1.76 1.76 0 0 0 2.42-.68l3.85-6.79 3.88 6.79a1.78 1.78 0 0 0 2.43.68l8-4.66a1.76 1.76 0 0 0 .68-2.42l-3.82-6.79h7.76a1.75 1.75 0 0 0 1.75-1.75v-9.31a1.75 1.75 0 0 0 -1.75-1.75h-7.76l3.88-6.79a1.75 1.75 0 0 0 -.68-2.4l-8-4.66a1.78 1.78 0 0 0 -2.43.64l-3.94 6.81-3.87-6.81a1.78 1.78 0 0 0 -1.45-.87z" fill="none" stroke="#000" stroke-linecap="round" stroke-linejoin="round"/></svg>