<svg viewBox="0 0 48 48" xmlns="http://www.w3.org/2000/svg"><path d="m24 4.5s-11.26 2-15.25 2v20c0 9.23 13.56 17 15.25 17s15.25-7.77 15.25-16.94v-20c-3.99-.03-15.25-2.06-15.25-2.06zm2.37 29.42.81-3.55a7.49 7.49 0 0 0 -3.45-2.7c-2.53-.88-3-.66-2.86-.29s.59.88.44 1.61-.31 1.36-.83 1.42c-.5.88-1.6 3.25-1.68 3.38s1.69.13 2 .13h-5.32m5-3.49c-.21-.29-1-.49-1-1.49a1.79 1.79 0 0 0 -.48-1.56 6.55 6.55 0 0 1 -1.54-2.38c-.29-1-.29-1.8-.62-2.09a4.23 4.23 0 0 1 -1.65-3.74c0-3.07 1.29-4 1.29-4.63a7.72 7.72 0 0 1 .7-2.69 15.78 15.78 0 0 1 1-2.54 2.45 2.45 0 0 1 2.43-1.4 3.2 3.2 0 0 1 1.93.58 15.93 15.93 0 0 1 4.7 0 .19.19 0 0 1 0 .37 9.29 9.29 0 0 0 -2.5 1.36 10 10 0 0 0 -1.24 1.35c-.06 1.15-.24.71-.24 1.4s4.14 3.03 4.74 4.69a8.71 8.71 0 0 1 .55 2.9c.08.55 1.21 1.94 1.25 2.46s-.44 1.1-.33 1.65.7.88.81 1.35-.33 1.4 0 2.06 2.86 2.71 3 3.33.55 1.91 0 2.35-2.5.77-4.26-1.17c-.37-.42-1.47-1.8-1.79-2.22a34.06 34.06 0 0 1 -.81 3.55l1.79.07h-4" fill="none" stroke="#000" stroke-linecap="round" stroke-linejoin="round"/></svg>