<svg viewBox="0 0 48 48" xmlns="http://www.w3.org/2000/svg"><g fill="none" stroke="#000" stroke-linecap="round" stroke-linejoin="round"><path d="m40.5 5.5h-33a2 2 0 0 0 -2 2v33a2 2 0 0 0 2 2h33a2 2 0 0 0 2-2v-33a2 2 0 0 0 -2-2z"/><path d="m13 22.9735a3.1585 3.1585 0 0 1 3.1585-3.1585"/><path d="m13 19.815v8.37"/><path d="m34.5859 26.5911a3.1573 3.1573 0 0 1 -2.7444 1.5939 3.1585 3.1585 0 0 1 -3.1585-3.1585v-2.053a3.1585 3.1585 0 0 1 3.1585-3.1585 3.1585 3.1585 0 0 1 3.1585 3.1585v1.0265h-6.317"/><path d="m25.6586 28.185v-5.2115a3.1585 3.1585 0 0 0 -3.1586-3.1585 3.1585 3.1585 0 0 0 -3.1585 3.1585v5.2115"/><path d="m19.3416 22.9735v-3.1585"/></g></svg>