<svg viewBox="0 0 48 48" xmlns="http://www.w3.org/2000/svg"><g fill="none" stroke="#000" stroke-linecap="round" stroke-linejoin="round"><path d="m4.5 25.4673h39"/><path d="m8.664 25.4673v4.6262"/><path d="m14.131 28.916h8.412l-.8 13.458h-14.046z"/><path d="m39.336 25.4673v4.6262"/><path d="m33.869 28.916h-8.412l.8 13.458h14.046z"/><path d="m24.976 9.456.931-3.83-3.07 2.103-1.178-2.103-1.177 2.103-3.07-2.103.931 3.83z"/><path d="m14.0472 12.3458h1.514c1.514 0 2.7337-1.514 3.4907-1.514 2.0747 0 7.3458-.701 11.4813 11.5654h-13.1215s1.43-2.2991 1.43-3.2664-2.131-1.9908-3.2665-1.9908a2.3594 2.3594 0 0 0 -1.7944.9533s-.35-1.8645-.35-2.4113.6164-3.3362.6164-3.3362z"/><circle cx="18.7995" cy="13.9019" r="1.1776"/></g></svg>