<svg viewBox="0 0 48 48" xmlns="http://www.w3.org/2000/svg"><g fill="none" stroke="#000" stroke-linecap="round" stroke-linejoin="round"><path d="m41.2648 12.6719-26.5525-7.1147a1.666 1.666 0 0 0 -2.04 1.178l-7.1151 26.5525a1.666 1.666 0 0 0 1.178 2.04l26.5525 7.1147a1.666 1.666 0 0 0 2.04-1.178l7.1147-26.5525a1.666 1.666 0 0 0 -1.178-2.04z"/><path d="m29.3193 20.51-8.1808-2.192a.5133.5133 0 0 0 -.6287.3629l-2.192 8.1808a.5133.5133 0 0 0 .3629.6287l8.1808 2.192a.5133.5133 0 0 0 .6287-.3629l2.192-8.1808a.5133.5133 0 0 0 -.3629-.6287z"/></g></svg>