<svg viewBox="0 0 48 48" xmlns="http://www.w3.org/2000/svg"><g fill="none" stroke="#000" stroke-linecap="round" stroke-linejoin="round"><path d="m43.5 24.1a10.48 10.48 0 0 0 -1.7-5.6 13 13 0 0 0 -4.3-4.1 24.17 24.17 0 0 0 -13.1-3.5 25.22 25.22 0 0 0 -4.8.4 19.92 19.92 0 0 0 -3.3-2.4 13.42 13.42 0 0 0 -11.8-.1s5 4.1 4.2 7.6a10.84 10.84 0 0 0 -3.4 7.6 10.67 10.67 0 0 0 3.4 7.6c.8 3.6-4.2 7.6-4.2 7.6a13.23 13.23 0 0 0 11.7-.1 15.47 15.47 0 0 0 3.3-2.4 25.92 25.92 0 0 0 4.8.4 24.17 24.17 0 0 0 13.1-3.5 15.41 15.41 0 0 0 4.3-4.1 8.57 8.57 0 0 0 1.8-5.4z"/><path d="m8.69 16.39c3.48-3.39 9.31-5.56 16.07-5.49"/><circle cx="16.7" cy="24.5" r="2.2"/><circle cx="24.3" cy="24.5" r="2.2"/><circle cx="31.9" cy="24.5" r="2.2"/></g></svg>