<svg viewBox="0 0 48 48" xmlns="http://www.w3.org/2000/svg"><g fill="none" stroke="#000" stroke-linecap="round" stroke-linejoin="round"><path d="m40.5 42.5h-33a2 2 0 0 1 -2-2v-33a2 2 0 0 1 2-2h33a2 2 0 0 1 2 2v33a2 2 0 0 1 -2 2z"/><path d="m10 28.3v-9.54h3.12a3.2 3.2 0 1 1 0 6.4h-3.12"/><path d="m13.12 25.16 3.13 3.13"/><rect height="6.32" rx="2.39" width="4.77" x="18.64" y="21.98"/><path d="m33.23 22v3.93a2.39 2.39 0 0 0 2.38 2.39 2.39 2.39 0 0 0 2.39-2.41v-3.91"/><path d="m38 25.91v2.39"/><path d="m26.14 18.76v9.54"/><path d="m26.14 26.27 4.32-4.3"/><path d="m27.52 24.9 3.39 3.38"/></g></svg>