<svg viewBox="0 0 48 48" xmlns="http://www.w3.org/2000/svg"><g fill="none" stroke="#000" stroke-linecap="round" stroke-linejoin="round"><path d="m40.5 17.21h-7.99a1.72 1.72 0 0 1 -1.72-1.72v-7.99a2 2 0 0 0 -2-2h-9.58a2 2 0 0 0 -2 2v7.99a1.72 1.72 0 0 1 -1.72 1.72h-7.99a2 2 0 0 0 -2 2v9.58a2 2 0 0 0 2 2h7.99a1.72 1.72 0 0 1 1.72 1.72v7.99a2 2 0 0 0 2 2h9.58a2 2 0 0 0 2-2v-7.99a1.72 1.72 0 0 1 1.72-1.72h7.99a2 2 0 0 0 2-2v-9.58a2 2 0 0 0 -2-2z"/><circle cx="24" cy="24" r="6.7898"/><path d="m37.004 21.639 2.361 2.361-2.361 2.361"/><path d="m10.296 26.361-2.361-2.361 2.361-2.361"/><path d="m26.361 37.354-2.361 2.361-2.361-2.361"/><path d="m21.639 10.646 2.361-2.361 2.361 2.361"/></g></svg>