<svg viewBox="0 0 48 48" xmlns="http://www.w3.org/2000/svg"><path d="m42.6665 21.8481-16.6456-14.2234a3.003 3.003 0 0 0 -3.9037 0l-16.7457 14.2234a2.4323 2.4323 0 0 0 -.3046 3.4262l.0143.017a2.392 2.392 0 0 0 1.9218.8708h2.092v13.3025a1.6315 1.6315 0 0 0 1.6315 1.6315h7.3569a1.6315 1.6315 0 0 0 1.6316-1.6315v-8.1877a1.0009 1.0009 0 0 1 1.0009-1.0009h6.6462a1.001 1.001 0 0 1 1.001 1.0009v8.1877a1.6314 1.6314 0 0 0 1.6315 1.6315h7.3569a1.6314 1.6314 0 0 0 1.6315-1.6315v-13.3025h2.0519a2.4422 2.4422 0 0 0 1.5915-4.314z" fill="none" stroke="#000" stroke-linecap="round" stroke-linejoin="round"/></svg>