<svg viewBox="0 0 48 48" xmlns="http://www.w3.org/2000/svg"><g fill="none" stroke="#000" stroke-linecap="round" stroke-linejoin="round"><path d="m11.3581 22.0471a34.4483 34.4483 0 0 1 24.3294-6.6325l-3.5525-8.2892a3.8411 3.8411 0 0 0 -3.01-2.2927l-2.1715-.2972a3.8417 3.8417 0 0 0 -3.0589.9224l-11.2332 9.8872a3.8415 3.8415 0 0 0 -1.3033 2.8835z"/><path d="m11.3581 34.5812s13.855-6.7872 25.2838-4.7663v2.5016a3.8413 3.8413 0 0 1 -.7754 2.3143l-5.5421 7.3421a3.8416 3.8416 0 0 1 -3.066 1.5271h-10.1884a3.8415 3.8415 0 0 1 -2.7577-1.1672l-1.8708-1.9293a3.8416 3.8416 0 0 1 -1.0836-2.6741z"/><path d="m36.6419 26.9314a34.1337 34.1337 0 0 0 -25.2838 6.5v-10.2351s13.855-6.7871 25.2838-4.7662z"/><path d="m11.3581 22.0471v12.5341"/></g></svg>