<svg viewBox="0 0 48 48" xmlns="http://www.w3.org/2000/svg"><g fill="none" stroke="#000" stroke-linecap="round" stroke-linejoin="round"><path d="m28.5733 1.2461s-6.14 1.2616-7.9066 2.9439-10.9345 16.57-10.9345 16.57v23.8038s13.7944-1.2617 15.5607-2.1028 8.1589-9.3364 8.4112-11.1869-.8411-17.243-1.5981-20.271-3.5327-9.757-3.5327-9.757z"/><path d="m28.5733 1.2461s2.5234 1.5981 3.9533 2.5233 3.3644 9.0841 4.2056 11.0187 1.6822 15.9813 1.514 18.757-7.2337 10.3458-8.9162 11.0187-13.0374 2.2711-14.5514 2.1869-5.0467-2.1869-5.0467-2.1869"/><path d="m9.7322 25.6386c2.6074-3.28 13.016-9.1845 22.9519-10.69"/><path d="m9.7322 35.8162c2.1869-2.3552 12.74-8.828 23.8534-9.671"/></g></svg>