<svg viewBox="0 0 48 48" xmlns="http://www.w3.org/2000/svg"><path d="m24 2.5a21.4817 21.4817 0 0 0 -16.1709 7.3579h21.19l1.4449-2.6479a2.0292 2.0292 0 0 1 2.34-.4666c1.2474.6926.54 2.101-.0711 3.3076h7.6085a21.482 21.482 0 0 0 -16.3414-7.551zm-18.3318 10.346a21.469 21.469 0 0 0 14.433 32.3419l-10.0329-9.6563 2.9063-4.6316c-4.86-2.7831-1.9153-8.7577-1.9153-8.7577h-2.4659v9.7139c-1.3054-.08-2.3212-1.8228-2.3212-1.8228v-7.7993c0-2.4945 1.445-2.51 1.445-2.51s20.3829.4273 20.7909-.1517-2.5-5.93-2.5-5.93zm36.8246.2092-6.168.6873-.0711 11.1249c3.0118 0 4.015-.5771 5.5854.9471s-2.7318 8.2519-2.7318 8.2519l-2.3973-1.9864c2.5952-3.8518 1.5942-3.7765 1.5942-3.7765h-2.321l-2.7067 5.4085-2.4842-1.6 1.8488-3.8455h-5.0234l-4.1243 6.5745 9.1591 8.9071a21.5486 21.5486 0 0 0 9.8407-30.6939zm-22.8418 14.994-4.6976 7.4819 10.2879 9.9689a21.4713 21.4713 0 0 0 3.6013-.5172l-9.9185-9.6448 4.5739-7.2888z" fill="none" stroke="#000" stroke-linecap="round" stroke-linejoin="round"/></svg>