<svg viewBox="0 0 48 48" xmlns="http://www.w3.org/2000/svg"><g fill="none" stroke="#000" stroke-linecap="round" stroke-linejoin="round"><path d="m22.79 6.35a.9.9 0 0 0 -.9.91v1.62a.47.47 0 0 1 -.36.44 11.62 11.62 0 0 0 -4.19 1.74.42.42 0 0 1 -.56-.06l-1.15-1.13a.9.9 0 0 0 -1.27 0l-1.71 1.72a.91.91 0 0 0 0 1.28l1.13 1.13a.43.43 0 0 1 .05.57 12.19 12.19 0 0 0 -1.73 4.23.44.44 0 0 1 -.43.36h-1.6a.91.91 0 0 0 -.91.91v2.43a.91.91 0 0 0 .9.92h1.61a.44.44 0 0 1 .43.36 12.19 12.19 0 0 0 1.73 4.22.43.43 0 0 1 -.05.57l-1.13 1.17a.91.91 0 0 0 0 1.28l1.71 1.72a.9.9 0 0 0 1.27 0l1.13-1.13a.43.43 0 0 1 .57-.06 11.65 11.65 0 0 0 4.18 1.74.46.46 0 0 1 .36.44v1.61a.9.9 0 0 0 .9.92h2.42a.91.91 0 0 0 .91-.91v-1.61a.45.45 0 0 1 .36-.44 11.77 11.77 0 0 0 4.19-1.74.42.42 0 0 1 .56.06l1.16 1.13a.9.9 0 0 0 1.27 0l1.71-1.75a.91.91 0 0 0 0-1.28l-1.13-1.14a.43.43 0 0 1 0-.57 12.19 12.19 0 0 0 1.73-4.22.44.44 0 0 1 .43-.36h1.6a.91.91 0 0 0 .91-.91v-2.43a.9.9 0 0 0 -.9-.91h-1.66a.44.44 0 0 1 -.43-.36 12.11 12.11 0 0 0 -1.73-4.22.43.43 0 0 1 0-.57l1.13-1.16a.91.91 0 0 0 0-1.28l-1.66-1.72a.9.9 0 0 0 -1.27 0l-1.13 1.13a.43.43 0 0 1 -.57.06 11.65 11.65 0 0 0 -4.18-1.74.45.45 0 0 1 -.36-.44v-1.61a.9.9 0 0 0 -.9-.92zm1.21 8.59a6.37 6.37 0 1 1 -6.31 6.37 6.34 6.34 0 0 1 6.31-6.37z"/><ellipse cx="24" cy="21.31" rx="2" ry="2.02"/><path d="m22.19 22.12-1 4.77m-1.28 6-2.3 10.61h1l5.39-4.31 5.36 4.31h1l-2.25-10.64m-1.28-6-.83-3.86"/><path d="m28.66 35.44-4.66 3.75-4.66-3.75"/><path d="m24 23.7-2.28 1.83 2.28 1.83 2.28-1.83z"/><ellipse cx="24" cy="21.31" rx="16.67" ry="16.81"/></g></svg>