<svg viewBox="0 0 48 48" xmlns="http://www.w3.org/2000/svg"><g fill="none" stroke="#000" stroke-linecap="round" stroke-linejoin="round"><path d="m6.6008 15.6386h30.3581a2.1008 2.1008 0 0 1 2.1011 2.1008v17.2806a2.1007 2.1007 0 0 1 -2.1008 2.1008h-30.3584a2.1009 2.1009 0 0 1 -2.1008-2.1008v-17.28a2.1009 2.1009 0 0 1 2.1008-2.1014z"/><path d="m8.94 13.8647v-.8847a2.1007 2.1007 0 0 1 2.1007-2.1008h30.3585a2.1008 2.1008 0 0 1 2.1008 2.1008v17.28a2.101 2.101 0 0 1 -2.1009 2.1009h-.412"/><path d="m14.9516 30.6148v-8.4033m-1.05-.067 3.7809.067m0 0a2.8362 2.8362 0 0 1 0 5.6723h-3.7807"/><path d="m13.9018 29.459h3.7814"/><circle cx="23.8807" cy="23.7201" r="1.5756"/><circle cx="28.0823" cy="28.9722" r="1.5756"/><path d="m23.2505 30.5478 5.4621-8.4033"/><path d="m4.5129 19.84h34.5339m-34.5337 4.202h5.252"/><path d="m33.8077 24.042h5.2523"/></g></svg>