<svg viewBox="0 0 48 48" xmlns="http://www.w3.org/2000/svg"><g fill="none" stroke="#000" stroke-linecap="round" stroke-linejoin="round"><path d="m40.5 5.5h-33a2 2 0 0 0 -2 2v33a2 2 0 0 0 2 2h33a2 2 0 0 0 2-2v-33a2 2 0 0 0 -2-2z"/><path d="m11.56 20.91v-9.41h3.08a3.16 3.16 0 0 1 0 6.32h-3.08"/><path d="m14.64 17.82 3.07 3.08"/><path d="m23.7 14.23 1.06-1.97 1.06 1.97"/><path d="m21.82 19.73h5.88"/><path d="m21.82 16.2h5.88"/><path d="m36.44 17.2a2.35 2.35 0 0 0 -2.35-2.35 2.35 2.35 0 0 0 -2.35 2.35v1.53a2.35 2.35 0 0 0 2.35 2.35 2.35 2.35 0 0 0 2.35-2.35"/><path d="m36.44 21.08v-9.4"/><path d="m36.44 30.27-4.7 6.23"/><path d="m36.44 36.5-4.7-6.23"/><path d="m12.79 28.33v7a1.18 1.18 0 0 0 1.21 1.17h.35"/><path d="m11.56 30.27h2.47"/><path d="m23.7 29.65 1.06-1.97 1.06 1.97"/><path d="m21.82 35.15h5.88"/><path d="m21.82 31.62h5.88"/></g></svg>