<svg viewBox="0 0 48 48" xmlns="http://www.w3.org/2000/svg"><g fill="none" stroke="#000" stroke-linecap="round" stroke-linejoin="round"><circle cx="12.98" cy="25.85" r="6.49"/><circle cx="12.98" cy="25.85" r="6.49"/><ellipse cx="12.98" cy="25.85" rx="1.95" ry="4.1"/><path d="m6.57 26.84c-.47.37-.93.76-1.38 1.15a2.1 2.1 0 0 0 -.69 1.57v8.63a2.12 2.12 0 0 0 2.11 2.11h34.78a2.12 2.12 0 0 0 2.11-2.11v-8.63a2.1 2.1 0 0 0 -.69-1.56c-.45-.4-.91-.78-1.39-1.15"/><path d="m30.18 21.53a28 28 0 0 0 -6.18-.68 28.61 28.61 0 0 0 -6.18.67"/><circle cx="35.02" cy="25.85" r="6.49"/><circle cx="35.02" cy="25.85" r="6.49"/><ellipse cx="35.02" cy="25.85" rx="1.95" ry="4.1"/><path d="m29.85 21.39-1.32-12.94-2.93 6.22-1.6-6.97-1.6 6.97-2.93-6.22-1.32 12.94"/><path d="m20.7 34.73.8.81"/><path d="m27.3 34.73-.8.81"/></g></svg>