<svg viewBox="0 0 48 48" xmlns="http://www.w3.org/2000/svg"><g fill="none" stroke="#000" stroke-linecap="round" stroke-linejoin="round"><path d="m23.3169 23.3169h3.7298v3.7298h-3.7298z" transform="matrix(.70710678 -.70710678 .70710678 .70710678 -10.4307 25.1818)"/><path d="m26.1241 27.9983h6.7484v3h-6.7484z" transform="matrix(.70710678 -.70710678 .70710678 .70710678 -12.2186 29.4983)"/><path d="m34.56 29.788-4.772 4.772 5.91 7.94 6.802-6.802z"/><path d="m21.8076 17.5774h6.7484v3h-6.7484z" transform="matrix(-1 0 0 -1 50.3637 38.1547)"/><path d="m21.808 15.294h6.748l1.436-9.794h-9.62z"/><path d="m15.7032 23.6818h6.7484v3h-6.7484z" transform="matrix(0 1 -1 0 44.2592 6.1045)"/><path d="m15.294 28.556v-6.748l-9.794-1.436v9.62z"/></g></svg>