<svg viewBox="0 0 48 48" xmlns="http://www.w3.org/2000/svg"><path d="m11.8626 43.5h2.5344a15.8847 15.8847 0 0 0 15.8847-15.8847v-5.8216a4.5385 4.5385 0 0 1 4.5383-4.5385h.8059v-6.9668h-1.4143a10.2116 10.2116 0 0 0 -10.2116 10.2116v7a10.2116 10.2116 0 0 1 -10.2116 10.2116h-1.4145v-6.9668h.8061a4.5385 4.5385 0 0 0 4.5385-4.5385v-5.8216a15.8847 15.8847 0 0 1 15.8845-15.8847 15.8847 15.8847 0 0 0 -15.8847 15.8847v5.8216a4.5385 4.5385 0 0 1 -4.5383 4.5385h-.8059v6.9668h1.4145a10.2116 10.2116 0 0 0 10.2114-10.2116" fill="none" stroke="#000" stroke-linecap="round" stroke-linejoin="round"/></svg>