<svg viewBox="0 0 48 48" xmlns="http://www.w3.org/2000/svg"><g fill="none" stroke="#000" stroke-linecap="round" stroke-linejoin="round"><path d="m38.8744 26.2368-3.8744-2.2368 3.8743-2.2368a5.5 5.5 0 0 0 -5.5-9.5264l-3.8743 2.2368v-4.4736a5.5 5.5 0 0 0 -11 0v4.4736l-3.8744-2.2368a5.5 5.5 0 0 0 -5.5 9.5264l3.8744 2.2368-3.8744 2.2368a5.5 5.5 0 0 0 5.5 9.5264l3.8744-2.237v4.4738a5.5 5.5 0 0 0 11 0v-4.4738l3.8744 2.237a5.5 5.5 0 0 0 5.5-9.5264z"/><path d="m18.5 14.4736 16.5001 9.5264"/><path d="m18.5 33.5262 16.5001-9.5262"/></g></svg>