<svg viewBox="0 0 48 48" xmlns="http://www.w3.org/2000/svg"><g fill="none" stroke="#000" stroke-linecap="round" stroke-linejoin="round"><path d="m41.6783 13.0436h-16.9083c-1.9628-.1072-5.9311-4.2372-8.1881-4.2372h-9.9013v-.0018a2.1762 2.1762 0 0 0 -2.1806 2.1717v7.3063h39v-3.4174a1.8217 1.8217 0 0 0 -1.8217-1.8216z"/><path d="m43.5 18.2826h-39v18.7339a2.1762 2.1762 0 0 0 2.1735 2.1789h34.6459a2.1762 2.1762 0 0 0 2.1806-2.1717z"/><path d="m29.5459 28.8h-1.5759v-4.031h-4.0307v-1.5759a1.4541 1.4541 0 0 0 -2.9082 0v1.5757h-4.0311v4.0312h1.5757a1.454 1.454 0 1 1 0 2.908h-1.5757v4.031h4.0311v-1.5759a1.4541 1.4541 0 0 1 2.9082 0v1.5759h4.0307v-4.0312h1.5757a1.454 1.454 0 1 0 0-2.908z"/></g></svg>