<svg viewBox="0 0 48 48" xmlns="http://www.w3.org/2000/svg"><g fill="none" stroke="#000"><path d="m40.5 5.5h-33a2 2 0 0 0 -2 2v33a2 2 0 0 0 2 2h33a2 2 0 0 0 2-2v-33a2 2 0 0 0 -2-2z" stroke-linecap="round" stroke-linejoin="round"/><path d="m18.2773 42.5s14.1708-8.083 14.2951-13.28c.0689-2.8809-1.029-4.2049-3.0035-4.8038m-11.0989-1.1245c-2.0661-.829-2.78-2.4681-2.5635-5.0449.338-4.0126 12.1273-10.2639 14.0022-12.7468"/><path d="m29.2418 24.75-3.3746 1.9484-5.9728 3.4483a.866.866 0 0 1 -1.299-.75v-10.7934a.8659.8659 0 0 1 1.299-.75l3.3747 1.9483 5.9727 3.4484a.866.866 0 0 1 0 1.5z" stroke-linecap="round" stroke-linejoin="round"/></g></svg>