<svg viewBox="0 0 48 48" xmlns="http://www.w3.org/2000/svg"><g fill="none" stroke="#000" stroke-linecap="round" stroke-linejoin="round"><path d="m5.8153 15.6392 2.0557 20.2679a8.445 8.445 0 0 0 8.4019 7.5929h15.4542a8.445 8.445 0 0 0 8.4019-7.5929l2.0557-20.2679z"/><path d="m15.6334 15.6392v-2.815a8.3661 8.3661 0 0 1 16.732 0v2.815"/><path d="m20.3975 34.394c.8.6715 1.6632.9793 3.6023.9793h.9827a2.8986 2.8986 0 0 0 2.8954-2.9017 2.8987 2.8987 0 0 0 -2.8954-2.9016h-1.9654a2.8985 2.8985 0 0 1 -2.8954-2.9017 2.8986 2.8986 0 0 1 2.8954-2.9018h.9829c1.9391 0 2.8025.3077 3.6023.9792"/></g></svg>