<svg viewBox="0 0 48 48" xmlns="http://www.w3.org/2000/svg"><g fill="none" stroke="#000" stroke-linecap="round" stroke-linejoin="round"><path d="m21.79 13.0934a3.27 3.27 0 0 0 2.21 1.2384 3.5231 3.5231 0 0 0 2.3164-.7633c3.07-2.2047 5.41-.3 5.33 2.7878-.0471 1.82.0585 4.3172.0224 6.1009-.0845 4.1639-3.9244 6.712-7.6684 6.712-3.2842 0-5.1-2.188-7.07-4.476-3.1531-3.6613-5.9961-7.2309-8.4866-7.2309-1.8587 0-2.7156.758-3.9883 3.0529v-8.3152c0-3.5946 2.6363-6.1076 6.792-6.1076 4.4577-.0002 8.1313 4.5396 10.5425 7.001z"/><path d="m4.4548 20.5152.1608 16.0326a5.9281 5.9281 0 0 0 11.8562 0l-.0205-12.4125"/><path d="m31.6686 22.4572-.07 14.0906a5.9281 5.9281 0 0 0 11.8562 0v-24.7462c0-1.69-1.4852-5.7094-5.6233-5.7094a7.7236 7.7236 0 0 0 -6.1553 2.4145c-1.875 1.7344-3.4678 3.3639-5.36 5.0618"/></g></svg>