<svg viewBox="0 0 48 48" xmlns="http://www.w3.org/2000/svg"><g fill="none" stroke="#000" stroke-linecap="round" stroke-linejoin="round"><rect height="23.1983" rx="2.1843" width="32.7851" x="7.6075" y="20.3017"/><path d="m12.7314 20.3017v-4.5331a11.2686 11.2686 0 0 1 22.5372 0v4.5331"/><path d="m20.5861 36.4728c.7579.6364 1.5762.9281 3.4139.9281h.9313a2.747 2.747 0 0 0 2.744-2.75 2.747 2.747 0 0 0 -2.744-2.75h-1.8626a2.747 2.747 0 0 1 -2.744-2.75 2.747 2.747 0 0 1 2.744-2.75h.9313c1.8377 0 2.656.2916 3.4139.928"/></g></svg>