<svg viewBox="0 0 48 48" xmlns="http://www.w3.org/2000/svg"><g fill="none" stroke="#000" stroke-linecap="round" stroke-linejoin="round"><path d="m16.2017 29.6636c-.8763.5008-4.34 3.2133-4.34 3.2133s5.3416 4.6739 5.8841 5.425c0 0-1.5441-7.5119-1.5441-8.6383z"/><path d="m20.3748 19.9821c-1.7527 0-4.1731 1.9474-6.3848 4.1453s-7.8036 7.0386-7.8036 9.1668 11.0586 10.1823 14.8978 10.1823 9.0139.3756 12.0185-1.8779 8.2209-7.47 8.43-8.3878a12.9 12.9 0 0 0 .1669-4.1314 1.8869 1.8869 0 0 0 -1.5857-1.1684c-.8138 0-2.9421.8763-2.9421 2.3577a13.6812 13.6812 0 0 0 .5425 2.8169 60.3878 60.3878 0 0 1 -5.55 3.86s.1252-7.5742-.2712-9.4521-3.86-4.8825-3.86-5.4667 1.1893-4.4652 1.1893-4.4652 2.4413.5425 2.7125-.9389.0835-1.5441.0835-1.5441a1.954 1.954 0 0 0 .5634-1.5857c-.167-.8764-.6677-.6886-.6469-1.1893s.9383-7.8036-5.9056-7.8036-6.8855 5.6337-6.8855 6.6978 3.1506 5.4041 2.8376 7.1359-.2714 1.5863-.2714 1.5863-.6921.0621-1.3352.0621z"/><path d="m19.9784 13.7642c-.7721.2295-5.1538 6.5935-7.95 6.5935a5.5982 5.5982 0 0 1 -3.6724-1.94c2.4622.1461 5.592-4.6321 7.9915-4.9868a12.4614 12.4614 0 0 1 3.6309.3333z"/></g></svg>