<svg viewBox="0 0 48 48" xmlns="http://www.w3.org/2000/svg"><path d="m15.8216 22.04c0 6.9412 7.6083 12.1141 8.3063 18.0958 0 0 1.3814-1.3813 1.3814-4.7361s-7.1272-13.368-7.1272-16.5765c0-2.4748.2313-3.4644 1.4535-4.9075 0 5.5982 9.0942 11.8363 9.0942 17.9319 0 0 1.3814-1.3814 1.3814-4.7361s-7.1271-13.368-7.1271-16.5765c0-2.4749.2312-3.4644 1.4534-4.9075 0 4.4528 5.7536 9.3408 8.1079 16.5611 6.378 1.7522 10.7546 5.3606 10.7546 9.5275 0 5.8854-8.73 10.6563-19.5 10.6563s-19.5-4.7709-19.5-10.6563c0-4.2892 4.6372-7.9861 11.3216-9.6761z" fill="none" stroke="#000" stroke-linecap="round" stroke-linejoin="round"/></svg>