<svg viewBox="0 0 48 48" xmlns="http://www.w3.org/2000/svg"><path d="m17.19 6.43h.17a.91.91 0 0 1 .53.32l16.72 21.25a.91.91 0 0 1 -.34 1.38 17.77 17.77 0 0 1 -6.27 1.28 14 14 0 0 1 -11.65-5.48 14 14 0 0 1 -2.62-12.61 17.92 17.92 0 0 1 2.73-5.79.91.91 0 0 1 .72-.35zm16.17 2a2.7 2.7 0 1 1 -1.47.57 2.74 2.74 0 0 1 1.47-.57zm-14.43 23.67h8.34a1.08 1.08 0 0 1 .31 0 1.67 1.67 0 0 1 1.24 1l2.28 5.61a1.69 1.69 0 0 1 -1.56 2.31h-12.88a1.68 1.68 0 0 1 -1.55-2.31l2.27-5.61a1.66 1.66 0 0 1 1.55-1zm.19-26.17 10 3.57m4.92 6.28 1.17 10.51" fill="none" stroke="#000" stroke-linecap="round" stroke-linejoin="round"/></svg>