<svg viewBox="0 0 48 48" xmlns="http://www.w3.org/2000/svg"><g fill="none" stroke="#000" stroke-linecap="round" stroke-linejoin="round"><path d="m38.21 7.85-22.21 12.77-10.79-6.23m29.13-7.83-18.34 10.57-8.58-4.88m33.66-2.34-25.08 14.44-12.15-6.94"/><path d="m43.39 15.46a19.36 19.36 0 0 1 1.11 6.54 20.25 20.25 0 0 1 -1.11 6.64l-.5 1.36a20.87 20.87 0 0 1 -4.38 6.54 20.23 20.23 0 0 1 -6.51 4.33 20.19 20.19 0 0 1 -8 1.66 19.93 19.93 0 0 1 -8-1.66 21 21 0 0 1 -6.49-4.33 19.74 19.74 0 0 1 -4.4-6.54 20.71 20.71 0 0 1 -1.61-8v-1.36l12.5 7.09 26.29-15.09z"/></g></svg>