<svg viewBox="0 0 48 48" xmlns="http://www.w3.org/2000/svg"><g fill="none" stroke="#000" stroke-linecap="round" stroke-linejoin="round"><path d="m24 43.5c9.0432-3.1174 15.4885-10.3631 16.5-19.5889a79.36 79.36 0 0 0 -.0714-12.0267 2.5414 2.5414 0 0 0 -2.4677-2.3663c-4.0911-.126-8.8455-.8077-12.52-4.4273a2.0516 2.0516 0 0 0 -2.881 0c-3.6749 3.6192-8.4293 4.3013-12.5199 4.4273a2.5414 2.5414 0 0 0 -2.4677 2.3663 79.36 79.36 0 0 0 -.0723 12.0267c1.0115 9.2258 7.4568 16.4715 16.5 19.5889z"/><path d="m24 33v-18"/><path d="m16.8979 15h14.2042"/><path d="m31.1021 19.0521v-4.0521"/><path d="m16.8979 19.0521v-4.0521"/><path d="m19.5775 33h8.845"/><path d="m27.8996 23.3493h3.2025v3.2025h-3.2025z"/><path d="m16.8979 23.3493h3.2025v3.2025h-3.2025z"/></g></svg>