<svg viewBox="0 0 48 48" xmlns="http://www.w3.org/2000/svg"><g fill="none" stroke="#000" stroke-linecap="round" stroke-linejoin="round"><path d="m18.15 4.5h-7.75a2 2 0 0 0 -2 2v7.75"/><path d="m8.4 33.75v7.75a2 2 0 0 0 2 2h7.75"/><path d="m39.6 14.25v-7.75a2 2 0 0 0 -2-2h-7.75"/><path d="m29.85 43.5h7.75a2 2 0 0 0 2-2v-7.75"/><path d="m33.39 9.38h-18.77a1.41 1.41 0 0 0 -1.35 1.46v26.32a1.4 1.4 0 0 0 1.35 1.46h18.77a1.41 1.41 0 0 0 1.34-1.46v-26.32a1.41 1.41 0 0 0 -1.34-1.46z"/><path d="m16.03 16.08h12.25"/><path d="m16.03 21.36h15.94"/><path d="m16.03 26.64h14.65"/><path d="m16.03 31.91h9.5"/></g></svg>