<svg viewBox="0 0 48 48" xmlns="http://www.w3.org/2000/svg"><g fill="none" stroke="#000" stroke-linecap="round" stroke-linejoin="round"><path d="m13 33.54-3.3.4-2.4-.6-2.8-.4.6-2 2.1-6.2 2.3-4.4.9-1.4 4.6-1.7"/><path d="m14.17 13.34-3.7 5.66"/><path d="m33 17.34 4.6 1.7.9 1.4 2.3 4.4 2.1 6.2.6 2.1-2.8.4-2.4.6-3.2-.5"/><path d="m24.07 36.74c1.1 0 1.4.2 3.3.2.5 0 1.8-.9 3.2-1.6a28.83 28.83 0 0 1 4.6-1.7c.4-.8-5.8-12.7-6.5-13a12.58 12.58 0 0 0 -4.6-.7 13.22 13.22 0 0 0 -4.6.7c-.8.3-6.9 12.2-6.5 13a33 33 0 0 1 4.6 1.7 14.86 14.86 0 0 0 3.2 1.6c1.8 0 2.1-.2 3.3-.2z"/><path d="m28.47 20.54a35.7 35.7 0 0 1 2.8-2.4 5.29 5.29 0 0 1 1.6-.9l.9-3.9-5.1-2s-3.1-.34-4.67-.34c-1.6 0-4.7.3-4.7.3l-5.2 2 .9 3.9a11.1 11.1 0 0 1 1.6.9 35.7 35.7 0 0 1 2.8 2.4"/><path d="m37.57 19-3.7-5.7"/></g></svg>