<svg viewBox="0 0 48 48" xmlns="http://www.w3.org/2000/svg"><g fill="none" stroke="#000" stroke-linecap="round" stroke-linejoin="round"><path d="m40.5 5.5h-33a2 2 0 0 0 -2 2v33a2 2 0 0 0 2 2h33a2 2 0 0 0 2-2v-33a2 2 0 0 0 -2-2z"/><path d="m29.133 27.676-1.404 4.509-1.404-4.509-1.403 4.509-1.404-4.509"/><path d="m18.5552 25.379v6.8057"/><path d="m18.5552 29.3773a1.7014 1.7014 0 0 1 1.7014-1.7014 1.7014 1.7014 0 0 1 1.7014 1.7014v2.8074"/><path d="m8.6072 31.8043a1.9138 1.9138 0 0 0 1.3993.38h.3817a1.1259 1.1259 0 0 0 1.1247-1.1272 1.1259 1.1259 0 0 0 -1.1247-1.1271h-.7634a1.126 1.126 0 0 1 -1.1248-1.1269 1.126 1.126 0 0 1 1.1248-1.1272h.3817a1.9141 1.9141 0 0 1 1.3993.38"/><path d="m16.6346 31.3277a1.7009 1.7009 0 0 1 -1.4774.857 1.7015 1.7015 0 0 1 -1.7015-1.7014v-1.106a1.7015 1.7015 0 0 1 1.7015-1.7014 1.7008 1.7008 0 0 1 1.4757.854"/><path d="m33.9746 30.4833a1.7015 1.7015 0 0 1 -1.7015 1.7014 1.7015 1.7015 0 0 1 -1.7014-1.7014v-1.106a1.7015 1.7015 0 0 1 1.7014-1.7014 1.7015 1.7015 0 0 1 1.7015 1.7014"/><path d="m33.9746 32.1847v-4.5088"/><path d="m36.0972 29.3773a1.7014 1.7014 0 0 1 1.7014-1.7014 1.7014 1.7014 0 0 1 1.7014 1.7014v1.106a1.7014 1.7014 0 0 1 -1.7014 1.7014 1.7014 1.7014 0 0 1 -1.7014-1.7014"/><path d="m36.0972 32.1847v-6.8057"/><path d="m35.4458 22.2515a1.6634 1.6634 0 0 0 1.3322.38h.382a1.4016 1.4016 0 0 0 1.3235-1.1271.9188.9188 0 0 0 -.926-1.1271h-.7634a.9189.9189 0 0 1 -.926-1.1272 1.4015 1.4015 0 0 1 1.3235-1.1272h.3817a1.6634 1.6634 0 0 1 1.3322.38"/><path d="m14.8131 15.8263-1.2001 6.8056"/><path d="m14.108 19.8246a2.1179 2.1179 0 0 1 2.002-1.7014 1.3884 1.3884 0 0 1 1.4014 1.7014l-.495 2.8073"/><path d="m11.8435 21.775a2.0906 2.0906 0 0 1 -1.6285.8569 1.3884 1.3884 0 0 1 -1.4014-1.7014l.195-1.1059a2.1179 2.1179 0 0 1 2.0014-1.7014 1.3764 1.3764 0 0 1 1.3251.854"/><path d="m22.6018 20.9305a2.1179 2.1179 0 0 1 -2.0018 1.7014 1.3884 1.3884 0 0 1 -1.4014-1.7014l.195-1.1059a2.1178 2.1178 0 0 1 2.0014-1.7014 1.3884 1.3884 0 0 1 1.4014 1.7014"/><path d="m22.3018 22.6319.795-4.5087"/><path d="m24.799 19.82a2.1212 2.1212 0 0 1 2.0046-1.7042"/><path d="m25.0995 18.1159-.7963 4.516"/><path d="m28.9024 15.8153-1.0517 5.9647a.6953.6953 0 0 0 .7018.852h.2556"/><path d="m33.4566 21.7733a2.091 2.091 0 0 1 -1.63.8586 1.3884 1.3884 0 0 1 -1.4014-1.7014l.195-1.1059a2.1179 2.1179 0 0 1 2.0014-1.7014 1.3884 1.3884 0 0 1 1.4014 1.7014l-.0975.553h-3.4026"/></g></svg>