<svg viewBox="0 0 48 48" xmlns="http://www.w3.org/2000/svg"><g fill="none" stroke="#000" stroke-linecap="round" stroke-linejoin="round"><path d="m39.5 30.8668v-24.3668a2 2 0 0 0 -2-2h-27a2 2 0 0 0 -2 2v35a2 2 0 0 0 2 2h27a2 2 0 0 0 2-2v-1.4689"/><path d="m37.1342 37.66-15.8465-15.8854v-4.5246h4.6323l15.7849 15.8276"/><path d="m44.3148 37.9846a1.6234 1.6234 0 0 0 0-2.2906l-2.61-2.6164-4.5706 4.5824 2.61 2.6164a1.6136 1.6136 0 0 0 2.2849 0z"/><path d="m13 10.5h22"/><path d="m13 17.25h8.2877"/><path d="m32.6516 24h2.3484"/><path d="m13 24h10.5077"/><path d="m13 30.75h16.989"/><path d="m13 37.5h22"/></g></svg>