<svg viewBox="0 0 48 48" xmlns="http://www.w3.org/2000/svg"><path d="m43.59 21a8.44 8.44 0 0 0 -4.33-4.58c-4.41-1.93-3.92-3.5-5.93-5.58-5.1-5.26-13.33-4.69-17.91-1.51-6.3 4.41-4.19 10.42-8 12.64-4.14 2.39-5.55 8.46-3.42 11.3 2.3 3.11 6.19 1.47 8.52.51a13.7 13.7 0 0 1 7.82-.25c2.64.56 3.37 2.87 5.45 4 1.61.93 4.7.44 6 1s2.21 2.57 4.65 2.52c1 0 2 .82 5.82-4.09s3-12.05 1.33-15.96zm-8.7 6.77a7 7 0 1 1 0-9.9 7 7 0 0 1 0 9.9z" fill="none" stroke="#000" stroke-linecap="round" stroke-linejoin="round"/></svg>