<svg viewBox="0 0 48 48" xmlns="http://www.w3.org/2000/svg"><g fill="none" stroke="#000" stroke-linecap="round" stroke-linejoin="round"><path d="m21.166 15.5277h-6.6173a1.9626 1.9626 0 0 0 -1.7276 2.894l6.0144 11.1566a1.9627 1.9627 0 0 1 -1.7276 2.894h-7.6079"/><path d="m27.3698 21.6702.7452-3.1295"/><path d="m24.7979 32.4723 1.1159-4.6869"/><path d="m26.6387 24.7408h8.7797"/><path d="m28.8323 15.5277h9.6677"/><path d="m40.5 5.5h-33a2 2 0 0 0 -2 2v33a2 2 0 0 0 2 2h33a2 2 0 0 0 2-2v-33a2 2 0 0 0 -2-2z"/></g></svg>