<svg viewBox="0 0 48 48" xmlns="http://www.w3.org/2000/svg"><path d="m24 2.5a21.5 21.5 0 1 0 21.5 21.5 21.44 21.44 0 0 0 -21.5-21.5zm-14.95 22.28a14.84 14.84 0 0 1 14.17-15.73h1.56a15.49 15.49 0 0 1 13.1 9.38 14.36 14.36 0 0 1 1.12 6.74 1.85 1.85 0 0 1 -2.05 1.66.36.36 0 0 1 -.29-.09l-10.22-2.74a1.89 1.89 0 0 0 -2.34 1.37 1.64 1.64 0 0 0 0 1l2.73 10.16a1.88 1.88 0 0 1 -1.36 2.34.37.37 0 0 0 -.3.1 14.36 14.36 0 0 1 -6.74-1.07 15.32 15.32 0 0 1 -9.38-13.12z" fill="none" stroke="#000" stroke-linecap="round" stroke-linejoin="round"/></svg>