<svg viewBox="0 0 48 48" xmlns="http://www.w3.org/2000/svg"><g fill="none" stroke="#000" stroke-linecap="round" stroke-linejoin="round"><circle cx="26.0941" cy="24" r="3.7405"/><path d="m33.0242 17.97a9.1809 9.1809 0 0 1 -.0351 12.0987"/><path d="m36.9219 13.3805a15.16 15.16 0 0 1 .03 21.209"/><path d="m27.6964 16.8456v-7.3608a3.9866 3.9866 0 0 0 -3.9838-3.9848h-12.992a3.9859 3.9859 0 0 0 -3.9838 3.9848v29.03a3.9859 3.9859 0 0 0 3.9838 3.9852h12.992a3.9866 3.9866 0 0 0 3.9838-3.9848v-7.1865"/><path d="m6.7368 37.0621h20.96"/><path d="m6.7368 10.959h20.96"/></g></svg>