<svg enable-background="new 0 0 48 48" viewBox="0 0 48 48" xmlns="http://www.w3.org/2000/svg"><g fill="none" stroke="#000" stroke-linecap="round" stroke-linejoin="round"><path d="m38.3 28.6c0 2-1.6 3.6-3.6 3.6-.2 0-.5 0-.7-.1.1.3.1.5.1.8 0 2-1.6 3.6-3.6 3.6-1 0-2-.4-2.6-1.1-.5 1.9-2.4 3.1-4.3 2.7-1.3-.3-2.3-1.3-2.7-2.7-1.3 1.5-3.6 1.6-5 .3-1-.9-1.4-2.3-1.1-3.6-.2 0-.5.1-.7.1-2 0-3.6-1.6-3.6-3.6v-.1h-4.6v11.7c0 1.1.8 2 1.9 2h.1 33.1c1.1 0 2-.9 2-2v-11.8h-4.6c-.1.1-.1.1-.1.2z"/><path d="m14.6 5.9 3.7 5.6-5.9 1.4-3.6 4.8-3.7-5.6 5.9-1.4z"/><path d="m7.9 16.3c-1.3 2.6-2 5.4-2 8.3v3.8m6.7-19.8-1.6-1.6c-.6-.6-1.4-.9-2.2-.9-1.7 0-3 1.3-3 3 0 .8.3 1.6.9 2.2l.4.3m35.8 16.8v-3.8c0-3.9-1.3-7.7-3.5-10.8l2.6-2.6c1.2-1.2 1.2-3.1 0-4.3s-3.1-1.2-4.3 0l-2.6 2.6c-5.6-4-12.9-4.6-19-1.5m3.4 12.8c0 1.6-1.3 2.9-2.9 2.9s-2.9-1.3-2.9-2.9 1.3-2.9 2.9-2.9c1.6 0 2.9 1.3 2.9 2.9zm12.6 3c-1.6 0-2.9-1.3-2.9-2.9s1.3-2.9 2.9-2.9 2.9 1.3 2.9 2.9c.1 1.5-1.2 2.8-2.9 2.9z"/><path d="m10.5 28.5h27.8"/></g></svg>