<svg viewBox="0 0 48 48" xmlns="http://www.w3.org/2000/svg"><g fill="none" stroke="#000" stroke-linecap="round" stroke-linejoin="round"><path d="m29.6578 36.3379a3.6 3.6 0 0 1 -2.1378-1.1079 3.6 3.6 0 0 1 -7 0 3.57 3.57 0 0 1 -6.15-3.23 3.26 3.26 0 0 1 -.7.07 3.6 3.6 0 0 1 -3.6-3.59v-.14h-4.56v11.66a1.94 1.94 0 0 0 1.8791 1.9991q.0309.0009.0609.0009h25.1626"/><path d="m7.5012 16.1793a18.41 18.41 0 0 0 -1.9712 8.3307v3.8h28.5421m-21.8483-19.8362-1.5438-1.5438a3.22 3.22 0 0 0 -2.18-.93 3 3 0 0 0 -2.12 5.15l.3559.3477m35.7941 17.2971v-4.2848a18.57 18.57 0 0 0 -3.53-10.79l2.58-2.56a3.0158 3.0158 0 0 0 -4.27-4.26l-2.55 2.6a18.3922 18.3922 0 0 0 -19.0392-1.5022m3.4092 12.7222a2.93 2.93 0 1 1 -2.94-2.92h.01a2.93 2.93 0 0 1 2.94 2.9zm12.65 2.92a2.92 2.92 0 1 1 2.92-2.92 2.92 2.92 0 0 1 -2.91 2.9z"/><path d="m14.2674 5.76 3.6553 5.6284-5.9058 1.3616-3.6462 4.842-3.6553-5.6284 5.9058-1.3617z"/><circle cx="37.8952" cy="35.641" r="8.267"/><path d="m39.4012 32.005a2.13 2.13 0 1 1 -2.13 2.13 2.13 2.13 0 0 1 2.13-2.13z"/><path d="m37.8952 35.641-3.24 3.241"/><path d="m35.47 38.066.998.999"/></g></svg>