<svg viewBox="0 0 48 48" xmlns="http://www.w3.org/2000/svg"><g fill="none" stroke="#000" stroke-linecap="round" stroke-linejoin="round"><path d="m5.5 19.6v20.9a2 2 0 0 0 2 2h33a2 2 0 0 0 2-2v-33a2 2 0 0 0 -2-2h-33a2 2 0 0 0 -2 2z"/><path d="m20.56 30.4v-12.8h2.88a5.6 5.6 0 0 1 5.6 5.6v1.6a5.6 5.6 0 0 1 -5.6 5.6z"/><path d="m31.62 17.6v12.8"/><path d="m38.5 30.4-5.27-6.4 5.27-6.357"/><path d="m33.2297 24h-1.6097"/><path d="m9.7535 28.9976a3.58 3.58 0 0 0 3.1384 1.4024h1.895a3.1966 3.1966 0 0 0 3.1931-3.2 3.1966 3.1966 0 0 0 -3.1931-3.2h-2.0938a3.1966 3.1966 0 0 1 -3.1931-3.2 3.1966 3.1966 0 0 1 3.1931-3.2h1.895a3.5806 3.5806 0 0 1 3.1385 1.4024"/></g></svg>