<svg viewBox="0 0 48 48" xmlns="http://www.w3.org/2000/svg"><g fill="none" stroke="#000" stroke-linecap="round" stroke-linejoin="round"><circle cx="22.8" cy="17.4" r="8.5"/><path d="m18.4 24.7-11.2 17.7"/><path d="m37.7 4.8h-19.7v32.7h24.5v-27.9z"/><path d="m39 12.9h-17.63a1.13 1.13 0 0 0 -1.07 1.19v19.68a1.13 1.13 0 0 0 1.07 1.23h17.63a1.13 1.13 0 0 0 1-1.23v-19.68a1.13 1.13 0 0 0 -1-1.19z"/><path d="m23.7 17.4v15.5h13.8v-15.5z"/><path d="m26.46 20v10.3"/><path d="m29.22 20v10.3"/><path d="m31.98 20v10.3"/><path d="m34.74 20v10.3"/><path d="m24.44 11.11a7.18 7.18 0 0 1 3.92 2.89m-7.21 9.65a7.18 7.18 0 0 1 -3.92-2.93"/></g></svg>