<svg viewBox="0 0 48 48" xmlns="http://www.w3.org/2000/svg"><g fill="none" stroke="#000" stroke-linecap="round" stroke-linejoin="round"><path d="m36.15 5.44v2.92h-24.3v-2.92m0 2.92h-5.4a2 2 0 0 0 -1.95 2v27.3a2 2 0 0 0 2 2h35.1a2 2 0 0 0 2-2v-27.35a2 2 0 0 0 -2-2h-5.4m-31.7 6.16h39"/><path d="m18.1 22.93a9.57 9.57 0 0 0 -3.2 1.14 9.55 9.55 0 0 0 -3.18-1.14c-1.31 0-3.57 1-3.57 4.86s2.19 6.79 4.61 6.79c1.24 0 1.53-.55 2.14-.55s.88.55 2.13.55c2.43 0 4.6-2.92 4.6-6.79s-2.21-4.86-3.53-4.86z"/><path d="m14.35 22.31v.36h.37a3.39 3.39 0 0 0 3.39-3.39 2.16 2.16 0 0 0 0-.36h-.36a3.4 3.4 0 0 0 -3.4 3.39z"/><path d="m34.2 24.46a3.74 3.74 0 0 0 -5.27 0 2.22 2.22 0 0 0 -.28.33l1.63 1.63c.19.17-1.63-1.63-1.63-1.63a93.53 93.53 0 0 0 -4.65 9.06.67.67 0 0 0 .89.88c1.13-.51 2.84-1.27 4.47-2.07l-1.67-1.66 1.62 1.62a29.18 29.18 0 0 0 4.89-2.93 3.71 3.71 0 0 0 0-5.25z"/><path d="m39.72 23.76a2.75 2.75 0 0 0 -.22-.26 3 3 0 0 0 -4-.25 3 3 0 0 0 -.16-4 2.43 2.43 0 0 0 -.25-.2 3.58 3.58 0 0 0 -.25 4.95 3.52 3.52 0 0 0 4.88-.24z"/></g></svg>