<svg viewBox="0 0 48 48" xmlns="http://www.w3.org/2000/svg"><g fill="none" stroke="#000" stroke-linecap="round" stroke-linejoin="round"><path d="m16.88 16.6c-3.19-3-4.62-3.43-4.62-6.07a2.35 2.35 0 0 1 2.34-2.36h.05a2.59 2.59 0 0 1 2.23 1.36 2.63 2.63 0 0 1 2.24-1.36 2.35 2.35 0 0 1 2.39 2.31v.08c0 2.61-1.44 3-4.63 6.04z"/><path d="m32.26 40-2.5-4.23 2.53-4.23 2.47 4.23z"/><path d="m16.89 30.49a1.84 1.84 0 1 1 -1.84 1.84 1.84 1.84 0 0 1 1.84-1.84zm-2.89 7.09a1.84 1.84 0 1 1 1.83-1.85 1.83 1.83 0 0 1 -1.83 1.85zm1.46 2.12 1.41-2.48 1.44 2.48zm4.17-2.12a1.84 1.84 0 1 1 1.84-1.84 1.83 1.83 0 0 1 -1.83 1.83z"/><path d="m31.26 16.63 1-1.8 1 1.8zm2.79-1.63a2.11 2.11 0 0 1 -1.8-1.1 2.12 2.12 0 0 1 -1.8 1.1 1.9 1.9 0 0 1 -1.94-1.86v-.07c0-2.13 1.16-2.45 3.74-4.9 2.57 2.45 3.73 2.77 3.73 4.9a1.9 1.9 0 0 1 -1.85 1.93z"/><path d="m10.5 43.5h27a2 2 0 0 0 2-2v-35a2 2 0 0 0 -2-2h-27a2 2 0 0 0 -2 2v35a2 2 0 0 0 2 2z"/></g></svg>