<svg viewBox="0 0 48 48" xmlns="http://www.w3.org/2000/svg"><g fill="none" stroke="#000"><g stroke-linecap="round" stroke-linejoin="round"><path d="m11.628 18.36a13.0524 13.0524 0 0 1 21.6678-4.5742m2.6922 4.8208a55.5237 55.5237 0 0 1 1.9271 23.874"/><path d="m15.61 7.5417a17.9178 17.9178 0 0 0 -7.7337 7.8983m28.139-5.1458a13.5174 13.5174 0 0 1 3.3715 4.3711"/><path d="m5.5 10.269a22.6788 22.6788 0 0 1 4.0368-4.3256m28.55-.0927a22.6861 22.6861 0 0 1 3.9879 4.1941"/><path d="m10.855 23.677a96.4955 96.4955 0 0 1 .3841 10.073m-.3241 5.9892c-.0926.924-.2077 1.8424-.35 2.741"/><path d="m15.073 42.48a30.7064 30.7064 0 0 0 .5789-4.4675m18.12-.0168c-.0636 1.4147-.17 2.9108-.3308 4.4843"/><path d="m19.582 40.062c.05-.6924.09-1.387.1383-2.07m9.3569 2.2087c-.0687.7883-.1536 1.5617-.2333 2.2793"/><path d="m24.453 38.032c-.0247.8874-.0657 1.7706-.1267 2.634-.0412.5827-.1543 1.2547-.2149 1.8147"/><path d="m19.365 17.209a4.4073 4.4073 0 0 1 8.8146 0v2.3619"/><rect height="15.778" rx="1.5672" width="16.899" x="15.323" y="19.739"/></g><path d="m19.365 17.209v2.53" stroke-miterlimit="7"/><circle cx="23.772" cy="27.01" r="2.2552" stroke-linecap="round" stroke-linejoin="round"/><path d="m40.5 5.5h-33a2 2 0 0 0 -2 2v33a2 2 0 0 0 2 2h33a2 2 0 0 0 2-2v-33a2 2 0 0 0 -2-2z" stroke-linecap="round" stroke-linejoin="round"/></g></svg>