<svg viewBox="0 0 48 48" xmlns="http://www.w3.org/2000/svg"><g fill="none" stroke="#000" stroke-linecap="round" stroke-linejoin="round"><path d="m41.68 13.0153h-16.91c-2-.1-5.93-4.23-8.19-4.23h-9.9a2.18 2.18 0 0 0 -2.18 2.1795c0 .0168 0 .0337.0006.05v7.29h38.9994v-3.42a1.83 1.83 0 0 0 -1.79-1.8695z"/><path d="m43.5 18.2951h-38.9994v18.72a2.18 2.18 0 0 0 2.16 2.2h.01 34.6494a2.18 2.18 0 0 0 2.18-2.18v-.02z"/><path d="m32.8258 21.5857a7.1122 7.1122 0 0 1 7.1123 7.1122 7.1123 7.1123 0 1 1 -7.1123-7.1122zm0 3.161a3.003 3.003 0 0 1 .7191 5.9269v1.8964a.7192.7192 0 0 1 -1.4383.0016v-1.898a3.003 3.003 0 0 1 .7192-5.9269z"/></g></svg>