<svg viewBox="0 0 48 48" xmlns="http://www.w3.org/2000/svg"><g fill="none" stroke="#000" stroke-linecap="round" stroke-linejoin="round"><circle cx="24" cy="24" r="14"/><circle cx="24" cy="24" r="21.5"/><path d="m19.0344 30.65c1.1024.9258 2.2926 1.35 4.9656 1.35h1.3546a3.9957 3.9957 0 0 0 3.9913-4 3.9957 3.9957 0 0 0 -3.9913-4h-2.7092a3.9957 3.9957 0 0 1 -3.9913-4 3.9957 3.9957 0 0 1 3.9913-4h1.3546c2.673 0 3.8632.4242 4.9656 1.35"/><path d="m24 2.5 3.963 3.75-3.963 3.75"/><path d="m24 45.5-3.963-3.75 3.963-3.75"/></g></svg>