<svg viewBox="0 0 48 48" xmlns="http://www.w3.org/2000/svg"><g fill="none" stroke="#000" stroke-linecap="round" stroke-linejoin="round"><path d="m14.5118 12.8612h17.3382v28.6012h-17.3382z"/><path d="m10.0412 41.4624h26.2793"/><path d="m31.85 23.8027c2.1479 1.3394 9.0677-1.6438 11.65-9.0105"/><path d="m31.85 32.3871c2.36 2.1309 5.5365 5.1808 11.65-7.12"/><path d="m14.5118 19.6641c-3.3709 0-10.0118-7.6116-10.0118-13.1265"/><path d="m11.1409 7.5007h5.6084"/><path d="m19.0685 7.4908h8.2373"/><path d="m29.6954 7.5007h5.6084"/><circle cx="23.1466" cy="17.7209" r="2.491"/><path d="m27.4828 26.0554a4.3362 4.3362 0 1 0 -8.6723 0v3.4064h1.6884l.379 8.2351h4.7521l.436-8.1573h1.4166z"/><path d="m16.7493 12.8612c0 2.7648 1.54 6.01 4.0122 5.5694"/></g><circle cx="28.0558" cy="17.3329" r=".75"/><circle cx="29.6539" cy="15.3493" r=".75"/></svg>