<svg viewBox="0 0 48 48" xmlns="http://www.w3.org/2000/svg"><g fill="none" stroke="#000" stroke-linecap="round" stroke-linejoin="round"><path d="m26.7878 6.9737c-14.58 1.9863-19.9252 8.4947-21.6971 13.0514s.5415 11.53 5.6192 14.5179 8.79 2.6083 8.79 2.6083 3.78-1.857 4.7832-1.857 2.942 2.21.4447 3.3054c1.1475 2.2335-.701 2.8213-1.5021 2.742s-1.4341-.9993-2.1911-2.0649c-.6966-.98-1.5345-2.1255-1.5345-2.1255s-1.0851-.4123-2.6582-3.8116c-1.3561-2.6014 1.42-2.1286 2.1563-2.0386 4.2547.52 7.5847.9959 17.2416-4.6656s6.8943-13.8035 6.8943-13.8035-1.7657-7.8444-16.3459-5.8583z"/><circle cx="35.481" cy="12.7838" r="2.2348"/></g></svg>