<svg viewBox="0 0 48 48" xmlns="http://www.w3.org/2000/svg"><g fill="none" stroke="#000" stroke-linecap="round" stroke-linejoin="round"><path d="m16.7435 17.9585a44.8792 44.8792 0 0 0 13.8129 0c.0012 18.6742-12.0169 18.16-12.0182 2.8241"/><path d="m34.4315 8.6393-2.5149 29.2863"/><path d="m42.4985 9.332-2.5148 29.2863"/><ellipse cx="38.465" cy="8.9857" rx="1.2667" ry="4.0484" transform="matrix(.0856 -.9963 .9963 .0856 26.2213 46.5408)"/><path d="m39.9837 38.6183c-.06.697-1.9143 1.107-4.1419.9157s-3.985-.9114-3.9251-1.6084"/><path d="m38.4924 8.6661.234-2.7243"/><path d="m35.625 42.0582.1913-2.2272"/><path d="m16.0834 37.9256-2.5149-29.2863"/><path d="m8.0163 38.6183-2.5148-29.2863"/><ellipse cx="9.535" cy="8.9857" rx="4.0484" ry="1.2667" transform="matrix(.99633336 -.08555604 .08555604 .99633336 -.7338 .8487)"/><path d="m16.0834 37.9256c.06.697-1.6975 1.4171-3.9252 1.6084s-4.082-.2187-4.1419-.9157"/><path d="m9.2736 5.9418.234 2.7243"/><path d="m12.1837 39.831.1913 2.2272"/><path d="m14.0535 10.9033a21.7805 21.7805 0 0 0 10.028 2.1609 21.78 21.78 0 0 0 10.0279-2.1609"/><path d="m15.9329 36.1852a21.7843 21.7843 0 0 0 8.1486 1.36 21.7822 21.7822 0 0 0 8.0083-1.308"/></g></svg>