<svg viewBox="0 0 48 48" xmlns="http://www.w3.org/2000/svg"><g fill="none" stroke="#000" stroke-linecap="round" stroke-linejoin="round"><path d="m10.8 6.257a1.9189 1.9189 0 0 0 -1.9187 1.9186v6.5134h15.7939l6.4981 7.821v11.195a1.2628 1.2628 0 0 1 -1.2648 1.2665h-21.0273v4.8526a1.9189 1.9189 0 0 0 1.9188 1.9186h29.7815a1.9189 1.9189 0 0 0 1.9185-1.9186v-31.6487a1.9189 1.9189 0 0 0 -1.9186-1.9186zm-5.0387 28.22 3.0946 4.1375zm3.12.495h-2.1147a1.2643 1.2643 0 0 1 -1.2666-1.2669v-17.752a1.2628 1.2628 0 0 1 1.2665-1.2647h2.1149"/><path d="m21.27 23.6841a3.0733 3.0733 0 1 1 4.3856 2.78l1.4844 5.5984h-5.4808l1.4209-5.576a3.074 3.074 0 0 1 -1.81-2.8024"/></g></svg>