<svg viewBox="0 0 48 48" xmlns="http://www.w3.org/2000/svg"><g fill="none" stroke="#000" stroke-linecap="round" stroke-linejoin="round"><path d="m40.5 42.5h-33a2 2 0 0 1 -2-2v-33a2 2 0 0 1 2-2h33a2 2 0 0 1 2 2v33a2 2 0 0 1 -2 2z"/><path d="m9.5 28h6"/><path d="m9.5 16h6"/><path d="m9.5 22h3.9"/><path d="m9.5 16v12"/><path d="m38.5 25v4a3 3 0 0 1 -3 3 3 3 0 0 1 -2.11-.88"/><path d="m38.5 20.05v4.95a3 3 0 0 1 -6 0v-4.95"/><path d="m24.15 27.28a3.79 3.79 0 0 0 2.45.72h.67a2 2 0 0 0 2-2 2 2 0 0 0 -2-2h-1.34a2 2 0 0 1 -2-2 2 2 0 0 1 2-2h.67a3.93 3.93 0 0 1 2.46.67"/><path d="m18.87 17.59v8.87a1.49 1.49 0 0 0 1.44 1.54h.49"/><path d="m17.3 20h3.1"/><path d="m26.6 29.5v-11"/></g></svg>