<svg viewBox="0 0 48 48" xmlns="http://www.w3.org/2000/svg"><g fill="none" stroke="#000" stroke-linecap="round" stroke-linejoin="round"><path d="m31.18 4.5s1.64.23 1.77 1.24c.2 1.63 1.39 4.21 3.9 8.5 2.06 3.5 2 5.21 1.77 8.24-.26 3.87-2.67 6.37-3.6 5.44-.2-.2-.1-.87.34-2.18a14.58 14.58 0 0 0 .64-3.86c.1-2.77-1.5-5.24-3.37-7.45l-2.08-1.91.23 15.38c-.15 4.79-.51 5.08-2.08 6.33-1.93 1.22-3.78 2.07-6.16 1.49a2.36 2.36 0 0 1 -1.66-2.5 4.53 4.53 0 0 1 2-3.8c1.92-1.64 5.94-2.33 7.93-1.52l-.36-23.4z"/><path d="m11.9 21.55.01 21.95"/><path d="m15.59 20.2.01 21.95"/><path d="m9.28 28.98 8.73-2.73"/><path d="m9.28 37.28 8.73-2.74"/></g></svg>