<svg viewBox="0 0 48 48" xmlns="http://www.w3.org/2000/svg"><path d="m20.33 28.74c1.07 1.68-.07 4.17-2.56 5.56s-5.37 1.15-6.45-.53.08-4.17 2.56-5.56 5.38-1.15 6.45.53zm.39 1.13v-25.37a9 9 0 0 0 1.49 5.13c1.75 2.71 4.1 5.72 4.6 7.67.55 2.12-1.18 4.93-1.18 4.93m-5.3 6.51 9-5.15m5.23-6a4.14 4.14 0 1 1 -5.46 2.12 4.12 4.12 0 0 1 5.5-2.12zm2.48 21.77a4.15 4.15 0 1 1 -4.15-4.13 4.14 4.14 0 0 1 4.19 4.13zm-16.81-7.28 9 5.31" fill="none" stroke="#000" stroke-linecap="round" stroke-linejoin="round"/></svg>