<svg viewBox="0 0 48 48" xmlns="http://www.w3.org/2000/svg"><g fill="none" stroke="#000" stroke-linecap="round" stroke-linejoin="round"><path d="m29.1 26.8a1.47 1.47 0 0 1 -1.7-1.5v-1.1a2 2 0 0 1 1.7-1.9 1.47 1.47 0 0 1 1.7 1.5v1.1a2 2 0 0 1 -1.7 1.9z"/><path d="m32.4 23.5a2 2 0 0 1 1.7-1.9"/><path d="m32.4 21.8v4.5"/><path d="m35 19.2 4.5-.6-4.5 7.4 4.5-.6"/><path d="m8.6 29.2a1.79 1.79 0 0 0 1.4.2l.4-.1a1.38 1.38 0 0 0 1.1-1.3 1 1 0 0 0 -1.1-1l-.8.1a1 1 0 0 1 -1.1-1 1.38 1.38 0 0 1 1.1-1.3l.4-.1a1.89 1.89 0 0 1 1.4.2"/><path d="m23 27.2a1.79 1.79 0 0 0 1.4.2l.4-.1a1.38 1.38 0 0 0 1.1-1.3 1 1 0 0 0 -1.1-1l-.8.2a1 1 0 0 1 -1.1-1 1.38 1.38 0 0 1 1.1-1.3l.4-.1a1.89 1.89 0 0 1 1.4.2"/><path d="m16.2 27.7a2.17 2.17 0 0 1 -1.5 1.1 1.47 1.47 0 0 1 -1.7-1.5v-1.1a2 2 0 0 1 1.7-1.9 1.47 1.47 0 0 1 1.7 1.5v.5l-3.4.4"/><path d="m21.3 27.8v-2.8a1.53 1.53 0 0 0 -1.7-1.5 2 2 0 0 0 -1.7 1.9v2.8"/><path d="m17.9 25.4v-1.7"/><path d="m40.5 5.5h-33a2 2 0 0 0 -2 2v33a2 2 0 0 0 2 2h33a2 2 0 0 0 2-2v-33a2 2 0 0 0 -2-2z"/></g></svg>