<svg viewBox="0 0 48 48" xmlns="http://www.w3.org/2000/svg"><g fill="none" stroke="#000" stroke-linecap="round" stroke-linejoin="round"><path d="m10.3946 12.46h7.67a1.804 1.804 0 0 1 1.6893 1.9v7.2345a1.804 1.804 0 0 1 -1.6893 1.9h-7.67a1.804 1.804 0 0 1 -1.6893-1.9v-7.2345a1.804 1.804 0 0 1 1.6893-1.9z"/><path d="m23.575 4.5h5.1714a1.7324 1.7324 0 0 1 1.6894 1.7724v4.9945a1.7324 1.7324 0 0 1 -1.6894 1.7724h-5.1714a1.7324 1.7324 0 0 1 -1.6894-1.7724v-4.9945a1.7324 1.7324 0 0 1 1.6894-1.7724z"/><path d="m35.0344 9.9423h3.2641a.9962.9962 0 0 1 .9962.9962v3.2575a.9953.9953 0 0 1 -.9953.9953h-3.2641a.9962.9962 0 0 1 -.9962-.9962v-3.2575a.9953.9953 0 0 1 .9953-.9953z"/><path d="m20.9389 36.3346h3.7958a1.719 1.719 0 0 1 1.6894 1.7472v3.671a1.7191 1.7191 0 0 1 -1.6894 1.7472h-3.7958a1.719 1.719 0 0 1 -1.6889-1.7472v-3.671a1.7189 1.7189 0 0 1 1.6889-1.7472z"/><path d="m13.0615 27.6128h3.4659a1.3675 1.3675 0 0 1 1.3279 1.404v3.306a1.3675 1.3675 0 0 1 -1.3279 1.404h-3.4659a1.3675 1.3675 0 0 1 -1.3279-1.404v-3.306a1.3675 1.3675 0 0 1 1.3279-1.404z"/><path d="m23.2229 30.7424a3.92 3.92 0 0 0 3.269 1.4507h1.9614a3.224 3.224 0 1 0 0-6.4474h-2.1249a3.224 3.224 0 1 1 0-6.4473h1.9616a3.529 3.529 0 0 1 3.269 1.4506"/></g></svg>