<svg viewBox="0 0 48 48" xmlns="http://www.w3.org/2000/svg"><g fill="none" stroke="#000" stroke-linecap="round" stroke-linejoin="round"><path d="m3.87 25.92v-3.75"/><path d="m5.81 25.92v-3.75"/><path d="m7.75 25.92v-3.75"/><path d="m17.58 37.78v-3.78"/><path d="m19.52 37.78v-3.78"/><path d="m21.45 37.78v-3.78"/><path d="m17.56 14v-3.78"/><path d="m19.49 14v-3.78"/><path d="m21.43 14v-3.78"/><path d="m42.12 17.49.05 13"/><path d="m40.18 17.49v13"/><path d="m38.24 32.88h4.63"/><path d="m38.24 15.15h4.63"/><path d="m38.24 10.22h-14.87v5.86l-13.69 2.39v11.06l13.69 2.39v5.86h14.87z"/><circle cx="15.25" cy="23.95" r="2.16"/><path d="m22.18 24a1.4 1.4 0 0 1 .79.3l2.7 2.86a2.44 2.44 0 0 0 1.56.69h2"/><path d="m17.71 24h16"/><path d="m33.83 25.43 2.56-1.43-2.56-1.48z"/><circle cx="27.37" cy="20.1" r="1.27"/><path d="m26.07 20.1h-2.07a2.41 2.41 0 0 0 -1.56.69l-2.71 2.86a1.37 1.37 0 0 1 -.79.3"/><path d="m31.9 29.08h-2.56v-2.57h2.56z"/></g></svg>