<svg viewBox="0 0 48 48" xmlns="http://www.w3.org/2000/svg"><g fill="none" stroke="#000" stroke-linecap="round" stroke-linejoin="round"><path d="m25.47 22.9493a10.1654 10.1654 0 0 0 -15.8552 8.4222"/><path d="m14.096 39.8a10.1653 10.1653 0 0 0 15.8467-8.4281"/><path d="m11.185 31.372h3.82l-5.253 5.252-5.252-5.252h3.82z"/><path d="m28.374 31.371h-3.819l5.252-5.253 5.252 5.253h-3.82z"/><path d="m33.654 26.246a14.8088 14.8088 0 0 0 -11.3284-9.4429"/><path d="m38.3652 24.5055a19.8374 19.8374 0 0 0 -15.1752-12.6493"/><path d="m43.5 22.6086a25.318 25.318 0 0 0 -19.3677-16.1441"/></g></svg>