<svg viewBox="0 0 48 48" xmlns="http://www.w3.org/2000/svg"><g fill="none" stroke="#000"><path d="m6.9059 33.8382 12.7659-7.3125m8.7687.0654 12.6527 7.2471" stroke-miterlimit="9"/><path d="m24 18.8871v-14.6566" stroke-miterlimit="9"/><g stroke-linecap="round" stroke-linejoin="round"><path d="m28.4513 26.597-4.4513 2.5702-4.4517-2.57v-5.14l4.4517-2.5708 4.4517 2.57z"/><path d="m24 35.1369-2.5847-1.4923v-2.9846l2.5847-1.4922 2.5847 1.4922v2.9845z"/><path d="m16.964 22.95-2.5848-1.4922v-2.985l2.5848-1.4922 2.5847 1.4922v2.9846z"/><path d="m31.0361 22.95-2.5847-1.4922v-2.985l2.5847-1.4922 2.5847 1.4922v2.9846z"/><path d="m4.1545 32.2986a21.5 21.5 0 0 1 -1.6545-8.2713 20.4107 20.4107 0 0 1 1.747-8.3534l2.6588-1.5159-.0141-3.06a21.27 21.27 0 0 1 14.421-8.4042"/><path d="m45.5 24.0267a20.4107 20.4107 0 0 0 -1.7472-8.3534l-2.6588-1.5159.0141-3.06-.012-.016a21.2709 21.2709 0 0 0 -14.2561-8.3688"/><path d="m6.8918 36.8989a21.7262 21.7262 0 0 0 6.3582 5.7485 20.4123 20.4123 0 0 0 8.1079 2.6636l2.6421-1.5447 2.6432 1.5422"/><path d="m2.5 23.969a20.4107 20.4107 0 0 0 1.747 8.3534l2.6588 1.5159-.0141 3.06"/><path d="m45.5 23.969a20.4107 20.4107 0 0 1 -1.7472 8.3534l-2.6588 1.5159.0141 3.06a21.27 21.27 0 0 1 -14.5 8.4139"/><path d="m13.25 5.3492a20.4123 20.4123 0 0 1 8.1079-2.6636l2.6421 1.5444 2.6431-1.5422"/></g></g></svg>