<svg viewBox="0 0 48 48" xmlns="http://www.w3.org/2000/svg"><g fill="none" stroke="#000" stroke-linecap="round" stroke-linejoin="round"><path d="m18.1 29.9 2.5-7.2 16.7-16.7a2 2 0 0 1 2.4 0l2.2 2.2a2 2 0 0 1 -.1 2.6l-16.7 16.7z"/><path d="m20.6 22.8 4.5 4.8"/><path d="m22.9 25 6.6-6.5"/><path d="m34.8 8.6 4.7 4.5"/><path d="m37.2 10.9-3.7 3.5"/><circle cx="31.5" cy="16.5" r=".3"/><circle cx="15.9" cy="15.9" r=".3"/><path d="m34.2 18.8a11.44 11.44 0 0 1 -17.9 13.6 11.45 11.45 0 0 1 -2.2-14.4"/><path d="m18.1 14a11.46 11.46 0 0 1 11.2-.3"/><path d="m32.3 23.9a8.67 8.67 0 0 1 -2.4 5.9 8.16 8.16 0 0 1 -5.9 2.5"/><path d="m32.5 10.8-5-2-.7-3.2h-5.6l-.8 3.2-4.6 1.8-3-1.6-3.8 3.9 1.7 2.9-1.8 4.6-3.4.8v5.7l3.2.8 2 4.5-1.8 2.8 4.1 4.1 2.7-1.7 4.7 1.8.8 3.3h5.7l.9-3.5 4.3-1.6 3.1 1.7 3.9-3.9-1.6-3 1.8-4.5 3.2-.9v-5.5l-3.6-1-1.8-4.7"/><path d="m19.6 25.4 2.8 3.1"/></g></svg>