<svg viewBox="0 0 48 48" xmlns="http://www.w3.org/2000/svg"><g fill="none" stroke="#000" stroke-linecap="round" stroke-linejoin="round"><path d="m16.8255 4.5a1.1531 1.1531 0 0 0 -1.0249 1.0249v1.0251a1.0777 1.0777 0 0 0 1.0249.8825h3.171c.0747 8.4138-.59 13.8549-4.016 14.0722a4.0071 4.0071 0 0 0 -4.0032 4.0033h10.0211v15.9904l2.0016 2.0016 2.0016-2.0016v-15.9906h10.0211a4.0071 4.0071 0 0 0 -4.0027-4.0033c-3.9435-.1352-4.3329-5.4418-4.0163-14.0726h3.1713a1.0776 1.0776 0 0 0 1.0244-.8819v-1.0251a1.1531 1.1531 0 0 0 -1.0249-1.0249z"/><path d="m21.9984 25.5078h4.0032"/></g></svg>