<svg viewBox="0 0 48 48" xmlns="http://www.w3.org/2000/svg"><g fill="none" stroke="#000" stroke-linecap="round" stroke-linejoin="round"><rect height="37" rx="2" width="37" x="5.5" y="5.5"/><path d="m18.3253 18.7788-1.4886 8.4424"/><path d="m17.4507 23.7387a2.6273 2.6273 0 0 1 2.4828-2.1106 1.7223 1.7223 0 0 1 1.7384 2.1106l-.614 3.4825"/><path d="m30.1144 23.7387a2.6272 2.6272 0 0 1 2.4827-2.1106"/><path d="m30.4865 21.6281-.9862 5.5931"/><path d="m35.1796 18.7788-1.4886 8.4424"/><path d="m34.0081 25.4278 4.4919-3.8027"/><path d="m35.4377 24.2176 2.4768 2.9909"/><path d="m9.5 26.2962a1.9617 1.9617 0 0 0 1.9069.925h1.25a2.6245 2.6245 0 0 0 2.4783-2.1106 1.7206 1.7206 0 0 0 -1.7341-2.1106h-1.3811a1.72 1.72 0 0 1 -1.7339-2.1106 2.6243 2.6243 0 0 1 2.4782-2.1106h1.25a1.9615 1.9615 0 0 1 1.9068.925"/><path d="m27.7619 25.1106a2.6273 2.6273 0 0 1 -2.4828 2.1106 1.7224 1.7224 0 0 1 -1.7385-2.1106l.2419-1.3719a2.6274 2.6274 0 0 1 2.4828-2.1106 1.7224 1.7224 0 0 1 1.7385 2.1106"/><path d="m27.3897 27.2212.9862-5.5931"/></g></svg>