<svg viewBox="0 0 48 48" xmlns="http://www.w3.org/2000/svg"><g fill="none" stroke="#000" stroke-linecap="round" stroke-linejoin="round"><path d="m41 5h-34a2 2 0 0 0 -2 2v34a2 2 0 0 0 2 2h34a2 2 0 0 0 2-2v-34a2 2 0 0 0 -2-2zm-2 17h-7.92v-5.08h-5.08v-7.92h13zm-11.92-1.08v6.16h-6.16v-6.16zm-5.08-11.92v7.92h-5.08v5.08h-7.92v-13zm15.12 30h-28.12v-13h7.92v5.08h14.16v-5.08h7.92v11.12a1.88 1.88 0 0 1 -1.88 1.88z"/><path d="m10.98 39v-1.98h3.96v-1.98h3.96v1.98h1.98"/><path d="m12.96 31.08h1.98v3.96"/><path d="m39 10.57h-1.57v3.14h-1.57v1.57h-3.14v3.14h-1.57"/><path d="m29.58 13.71h1.57v1.57h1.57"/></g></svg>