<svg viewBox="0 0 48 48" xmlns="http://www.w3.org/2000/svg"><path d="m18.55 6a3.84 3.84 0 0 1 2 7.18l-4.35 2.51a6.12 6.12 0 1 0 6.13 10.6l4.34-2.51a3.84 3.84 0 0 1 3.84 6.65l-4.35 2.51a13.79 13.79 0 1 1 -13.78-23.94l4.35-2.51a3.75 3.75 0 0 1 1.82-.49zm9.79 7.26a13.78 13.78 0 0 1 7.28 25.74l-4.35 2.51a3.84 3.84 0 1 1 -4-6.56l.15-.08 4.35-2.51a6.13 6.13 0 1 0 -6.13-10.61l-4.35 2.51a3.83 3.83 0 0 1 -3.83-6.64l4.35-2.51a13.73 13.73 0 0 1 6.51-1.83z" fill="none" stroke="#000" stroke-linecap="round" stroke-linejoin="round"/></svg>