<svg viewBox="0 0 48 48" xmlns="http://www.w3.org/2000/svg"><path d="m23.82 4.5a8 8 0 0 1 4.18.92c1.76.86 6.67 5.79 7.73 7.64s1.15 2.17 1.15 2.38a4.64 4.64 0 0 1 -1 1.54l-1 1.17-1.76-1.66-1.77-1.67-1.35 1.07c-1.28 1-1.36 1-2.5.5a2.1 2.1 0 0 0 -2.45.05l-1.27.61-.62-1.05-.65-1.07-1 .89a2.15 2.15 0 0 1 -3 .48c-.71-.33-1-.31-1.48 0-.67.56-.67.56-1.42-1.25l-.59-1.42-1.63 1.59c-1.54 1.52-1.65 1.57-2.25 1s-.75-.4.45-2.71 6.17-7.22 8-8.1a9.44 9.44 0 0 1 4.17-.91zm-5.16 14.5c.55 0 1.11 2 .71 2.59a.85.85 0 0 1 -1.48 0c-.45-.59.11-2.59.77-2.59zm9.79 0c.55 0 1.11 2 .71 2.59a.85.85 0 0 1 -1.48 0c-.45-.55.13-2.56.77-2.59zm5.36 3.44 3.42 4.41 1.32-.75 1.33-.74c-.73 8.39-5.3 15.79-11.84 17.69a20.13 20.13 0 0 1 -8.57 0c-8.47-3.35-11.85-10.45-11.29-17.86 1.3.8 2.32.57 4.58-1.05a24.14 24.14 0 0 1 2.48-1.64 3.54 3.54 0 0 1 .62 1.36c.46 1.45 1.07 2.37 1.07 1.62s1.31-.55 2.3.1c.77.51.9.48 1.87-.54a3.72 3.72 0 0 1 1.47-1.04c.23 0 .88.66 1.43 1.46l1 1.46 1.2-.92c1.48-1.13 1.52-1.12 2.76.06l1 1 .83-1.06c.45-.58 1.31-1.6 1.92-2.27l1.1-1.21z" fill="none" stroke="#000" stroke-miterlimit="10"/></svg>