<svg viewBox="0 0 48 48" xmlns="http://www.w3.org/2000/svg"><g fill="none" stroke="#000"><path d="m40.5 5.5h-33a2 2 0 0 0 -2 2v33a2 2 0 0 0 2 2h33a2 2 0 0 0 2-2v-33a2 2 0 0 0 -2-2z" stroke-linecap="round" stroke-linejoin="round"/><path d="m5.5 13.136h37"/><g stroke-linecap="round" stroke-linejoin="round"><path d="m9.3602 16.518h5.1596v5.1596h-5.1596z"/><path d="m9.3602 24.515h5.1596v5.1596h-5.1596z"/><path d="m9.3602 32.512h5.1596v5.1596h-5.1596z"/><path d="m33.48 16.518h5.1596v5.1596h-5.1596z"/><path d="m33.48 24.515h5.1596v5.1596h-5.1596z"/><path d="m33.48 32.512h5.1596v5.1596h-5.1596z"/><path d="m25.44 16.518h5.1596v5.1596h-5.1596z"/><path d="m25.44 24.515h5.1596v5.1596h-5.1596z"/><path d="m25.44 32.512h5.1596v5.1596h-5.1596z"/><path d="m17.4 16.518h5.1596v5.1596h-5.1596z"/><path d="m17.4 24.515h5.1596v5.1596h-5.1596z"/><path d="m17.4 32.512h5.1596v5.1596h-5.1596z"/></g></g></svg>