<svg viewBox="0 0 48 48" xmlns="http://www.w3.org/2000/svg"><g fill="none" stroke="#000" stroke-linecap="round" stroke-linejoin="round"><path d="m14.6314 21.0983c-1.4024 3.3466-.5061 8.6281-.2231 9.7849a16.5059 16.5059 0 0 0 2.9 5.6414 69.0771 69.0771 0 0 1 -.6693-6.9482 43.7184 43.7184 0 0 1 .4143-4.3984s1.119 4.0345 1.9124 5.96a18.6151 18.6151 0 0 0 2.1673 4.271 14.1475 14.1475 0 0 0 3.6653 3.3466 30.403 30.403 0 0 0 5.1959 2.137s3.9034.0442 5.8408-.1555a35.0216 35.0216 0 0 0 5.8593-1.0588 35.96 35.96 0 0 0 3.3721-1.2983s.1444-4.4307-.0286-6.636a33.23 33.23 0 0 0 -.9881-6.4382 51.6682 51.6682 0 0 0 -2.6135-6.2158"/><path d="m19.3663 12.6275s3.4474-2.8775 5.1775-4.1508a6.1238 6.1238 0 0 1 2.39-1.3386 3.6607 3.6607 0 0 1 1.7849.2549 11.3279 11.3279 0 0 1 2.1992 1.2112c.2819.1865 1.4024 1.2112 1.4024 1.2112"/><path d="m14.6314 21.0983a20.0173 20.0173 0 0 0 -4.6214 5.1952 19.2182 19.2182 0 0 0 -1.785 3.6654 15.9142 15.9142 0 0 0 -.7012 3.1872c-.1786 1.3786-.1715 4.167-.1715 4.167s-1.0623-1.2549-1.5431-1.921a27.4854 27.4854 0 0 1 -2.2-3.4081 22.014 22.014 0 0 1 -.8377-2.0932 49.7769 49.7769 0 0 1 2.8085-6.657 17.7893 17.7893 0 0 1 3.506-4.3984"/><path d="m7.5238 12.3652a7.9263 7.9263 0 0 1 1.7212-4.2709 6.1892 6.1892 0 0 0 2.996 2.39c.759.2657 1.5481.4364 2.3267.6375 1.44.3717 3.0787.2561 4.3346 1.0518a4.7339 4.7339 0 0 1 1.004 1.243 25.8926 25.8926 0 0 0 -3.9436 1.1469 22.4257 22.4257 0 0 0 -4.147 1.9937 27.0878 27.0878 0 0 0 -2.73 2.2777s-1.7239-4.257-1.5619-6.4697z"/><path d="m25.5637 13.5445a9.75 9.75 0 0 1 8.0956-3.761c1.75-.0006 4.52.5641 6.7889.765a13.1187 13.1187 0 0 0 1.9761.1275 21.0935 21.0935 0 0 0 2.8047-.5419 10.1136 10.1136 0 0 1 -.2231.9881c-.1656.5065-.4681.9608-.6374 1.4661a25.5946 25.5946 0 0 1 -2.5817 5.8327 23.58 23.58 0 0 1 -2.8685 3.06 20.0963 20.0963 0 0 0 -1.8483-2.4863 18.372 18.372 0 0 0 -3.251-2.4223 20.4042 20.4042 0 0 0 -3.6654-1.9442 34.7278 34.7278 0 0 0 -4.5899-1.0837z"/></g></svg>