<svg viewBox="0 0 48 48" xmlns="http://www.w3.org/2000/svg"><g fill="none" stroke="#000" stroke-linecap="round" stroke-linejoin="round"><path d="m40.5 42.5h-33a2 2 0 0 1 -2-2v-33a2 2 0 0 1 2-2h33a2 2 0 0 1 2 2v33a2 2 0 0 1 -2 2z"/><path d="m28.31 33.96h1.44l5.75-9.96-5.75-9.96h-11.5l-2.81 4.87"/><path d="m25.65 42.5 1.92-5.28a13.31 13.31 0 0 0 .16-8.63l.34-.62a12.13 12.13 0 0 0 1.14-6.35 12 12 0 0 0 -5.92.3l-.21.07a13.5 13.5 0 0 0 -3.49-1.9 13.53 13.53 0 0 0 -3.91-.79l-.11-.19a12.13 12.13 0 0 0 -4.34-4 12 12 0 0 0 -3.23 5.56q-.09.34-.15.69a13.71 13.71 0 0 0 -2.35 1.92"/><circle cx="12.35" cy="25.53" r="1.1"/><circle cx="21.63" cy="28.91" r="1.1"/></g></svg>