<svg viewBox="0 0 48 48" xmlns="http://www.w3.org/2000/svg"><g fill="none" stroke="#000" stroke-linecap="round" stroke-linejoin="round"><path d="m4.6183 27.6675a2.8208 2.8208 0 0 0 2.3661 1.0647h1.42a2.373 2.373 0 0 0 2.3656-2.3661 2.3731 2.3731 0 0 0 -2.3659-2.3661h-1.538a2.3731 2.3731 0 0 1 -2.3661-2.3661 2.3731 2.3731 0 0 1 2.3661-2.3661h1.42a2.54 2.54 0 0 1 2.3661 1.0647"/><path d="m12.9782 19.2678v9.4644"/><path d="m19.2484 19.2678v9.4644"/><path d="m12.9782 24h6.2702"/><path d="m21.4564 25.5971a3.1357 3.1357 0 1 0 6.27 0v-3.1942a3.1809 3.1809 0 0 0 -3.1942-3.1943 3.0828 3.0828 0 0 0 -3.076 3.1943z"/><path d="m29.9347 19.2678v9.4644"/><path d="m35.022 28.732-3.904-4.732 3.904-4.732"/><path d="m31.1177 24h-1.183"/><path d="m37.23 19.268h6.27l-6.27 9.464h6.27"/><path d="m21.2617 18.5921a4.2214 4.2214 0 0 1 6.66 0"/><path d="m20.2371 16.3488a5.668 5.668 0 0 1 4.3544-1.7745 5.6678 5.6678 0 0 1 4.3544 1.7745"/><path d="m27.9214 29.4079a4.2214 4.2214 0 0 1 -6.66 0"/><path d="m28.9459 31.6512a5.6678 5.6678 0 0 1 -4.3544 1.7745 5.668 5.668 0 0 1 -4.3544-1.7745"/></g></svg>