<svg viewBox="0 0 48 48" xmlns="http://www.w3.org/2000/svg"><g fill="none" stroke="#000" stroke-linecap="round" stroke-linejoin="round"><path d="m33.0549 43.5h-18.11a4 4 0 0 1 -3.9731-3.5367l-2.5874-22.1907h31.2312l-2.5876 22.1907a4 4 0 0 1 -3.9731 3.5367z"/><path d="m13.3519 17.7726v-2.6126a10.66 10.66 0 0 1 21.3192 0v2.613"/><path d="m19.5288 36.9825c1.1539.8654 2.3077 1.1538 4.6154 1.1538h1.1539a3.75 3.75 0 0 0 0-7.5h-2.5962a3.75 3.75 0 0 1 0-7.5h1.1539c2.5961 0 3.75.2885 4.6154 1.1539"/></g></svg>