<svg viewBox="0 0 48 48" xmlns="http://www.w3.org/2000/svg"><g fill="none" stroke="#000" stroke-linecap="round" stroke-linejoin="round"><path d="m32.48 22h-3.83l-3.79-6.34a1 1 0 0 0 -1.33-.4 1.13 1.13 0 0 0 -.39.42l-3.78 6.32h-3.83a1.51 1.51 0 0 0 -1.53 1.5 1.2 1.2 0 0 0 .05.38l2.13 8a1.39 1.39 0 0 0 1.34 1h12.95a1.37 1.37 0 0 0 1.34-1l2.15-8a1.52 1.52 0 0 0 -1.07-1.88 1.4 1.4 0 0 0 -.41 0z"/><path d="m39.5 15.5h-9a2 2 0 0 1 -2-2v-9h-18a2 2 0 0 0 -2 2v35a2 2 0 0 0 2 2h27a2 2 0 0 0 2-2z"/><path d="m28.5 4.5 11 11"/><path d="m19.36 21.97h9.29"/></g></svg>