<svg viewBox="0 0 48 48" xmlns="http://www.w3.org/2000/svg"><g fill="none" stroke="#000" stroke-linecap="round" stroke-linejoin="round"><path d="m21.0487 28.7668a28.6772 28.6772 0 0 1 -6.3754-8.5155c1.55-1.5894 2.9989-3.1089 3.5887-3.6387a3.1087 3.1087 0 0 0 .58-2.9989 61.8164 61.8164 0 0 1 -1.11-6.3078 1.9993 1.9993 0 0 0 -2.1943-1.783q-.0526.0054-.1049.0136h-8.5168a1.5 1.5 0 0 0 -1.36 1.3695 28.8518 28.8518 0 0 0 1.8518 11.2649"/><path d="m23.72 37.9351c1.9993 1.06 9.9465 5.0582 17.3739 4.5084a1.5 1.5 0 0 0 1.3895-1.3595v-8.507a1.9994 1.9994 0 0 0 -1.6646-2.2856c-.0348-.0054-.07-.01-.1048-.0136a61.99 61.99 0 0 1 -6.2978-1.11 3.1087 3.1087 0 0 0 -2.9989.58c-.53.54-2.0593 2.0492-3.6487 3.6087q-.8049-.3957-1.58-.8389"/><path d="m8.5668 21.1148c.7011 1.6119 1.3219 2.7836 1.5981 3.2851v.06l.12.23a35.4273 35.4273 0 0 0 6.6251 8.3026"/><path d="m10.49 25.04c-1.5342.3572-2.6642.3869-3.1064-.2265-1.7384-2.4112 3.6448-4.6542 2.4673-6.8972-.7741-1.4745-9.3084 3.3084-6.6169 8.4112 2.18 4.1333 6.8148 4.79 11.2444 4.1811"/><path d="m21.0489 28.7666c-2.1143 3-9.2919 7.2984-9.404 13.7285h12.8972c-4.7664-4.3923 7.0654-14.4297 3.6448-18.4951-2.1468-2.5516-7.083-2.4107-11.8472-.8066"/></g></svg>