<svg viewBox="0 0 48 48" xmlns="http://www.w3.org/2000/svg"><g fill="none" stroke="#000" stroke-linecap="round" stroke-linejoin="round"><rect height="26.1181" rx="3" width="28.7299" x="9.635" y="16.468"/><path d="m13.5528 15.9937a10.4472 10.4472 0 0 1 10.4472-10.4472 10.4472 10.4472 0 0 1 10.4472 10.4472"/><path d="m18.4221 25.8973h11.1557a2.775 2.775 0 0 1 2.775 2.775v8.9024a2.7751 2.7751 0 0 1 -2.775 2.7753h-11.1557a2.775 2.775 0 0 1 -2.775-2.775v-8.9027a2.775 2.775 0 0 1 2.775-2.775z"/><path d="m19.5433 30.7148h12.8096"/><path d="m15.6471 35.5322h12.8096"/><circle cx="23.9889" cy="21.1754" r="2.4711"/></g></svg>