<svg viewBox="0 0 48 48" xmlns="http://www.w3.org/2000/svg"><g fill="none" stroke="#000" stroke-linecap="round" stroke-linejoin="round"><ellipse cx="23.7616" cy="21.0624" rx="6.2839" ry="6.182"/><path d="m9.55 27.2371h1.0291"/><path d="m5.2488 27.2371h-.7488a13.095 13.095 0 0 1 4.7893-9.1156c-.2843 3.6274-.2836 6.08.755 9.1156"/><path d="m10.97 17.1682a28.1819 28.1819 0 0 1 9.51-3.8873"/><path d="m15.8637 27.2371h-1.1994m.6166 0a11.9893 11.9893 0 0 1 .5568-12.5771"/><path d="m29.2792 13.42 3.8764 1.46"/><path d="m31.1538 14.15c3.3218 5.4923 2.0651 11.5205-.467 13.0871h4.5869"/><path d="m37.1074 17.03 2.2185 1.7332"/><path d="m38.0976 17.8032c.7523 3.4883-.2323 8.8048-1.344 9.4339h6.748v-.8142"/><path d="m5.8107 32.5885 36.219-.0293"/><path d="m9.0623 34.8685 29.8477-.1494"/><path d="m5.2616 23.74 3.9177-.7157"/></g></svg>