<svg viewBox="0 0 48 48" xmlns="http://www.w3.org/2000/svg"><g fill="none" stroke="#000" stroke-linejoin="round"><path d="m27.32 45.25a23.08 23.08 0 0 1 -3.32.25 22.26 22.26 0 0 1 -3.26-.25m14.44-2.88a21 21 0 0 1 -6.08 2.51m12.26-8.18a21.63 21.63 0 0 1 -4.66 4.65m5.65-6.16 2.54-6.08a21.25 21.25 0 0 1 -2.52 6.07m2.88-14.42a23.33 23.33 0 0 1 .25 3.24 22.43 22.43 0 0 1 -.25 3.28m-42.46 0a22.46 22.46 0 0 1 -.29-3.28 22.43 22.43 0 0 1 .25-3.28m39.63-7.89a21.7 21.7 0 0 1 2.51 6.08m-41.69 0a21.19 21.19 0 0 1 2.52-6.06m31-6.2a21.19 21.19 0 0 1 4.66 4.65m-34.71 0a21.63 21.63 0 0 1 4.63-4.66m17.79-3.54a21.57 21.57 0 0 1 6.07 2.53m-22.33 0a21.07 21.07 0 0 1 6.09-2.51m1.84-.37a21.88 21.88 0 0 1 3.24-.25 22.29 22.29 0 0 1 3.27.25"/><path d="m18.87 44.87a20.92 20.92 0 0 1 -5-1.95l-2.24.51"/><path d="m4.61 36.38.51-2.2a21.7 21.7 0 0 1 -2-5"/><path d="m10 43.85-4.08 1a2.19 2.19 0 0 1 -2.66-1.56 2.27 2.27 0 0 1 0-1.1l1-4.08"/><path d="m24 6.41a17.59 17.59 0 0 0 -14.83 27l-1.65 7.1 7.16-1.64a17.59 17.59 0 1 0 9.32-32.46z"/></g></svg>