<svg viewBox="0 0 48 48" xmlns="http://www.w3.org/2000/svg"><g fill="none" stroke="#000" stroke-linecap="round" stroke-linejoin="round"><g stroke-width=".99"><path d="m24.43 11.87c-.14.36-.27.73-.41 1.1-.31.86-.63 1.72-.95 2.44a5.82 5.82 0 0 1 -.78 1.39 1 1 0 0 1 -.71.44 1 1 0 0 1 -.71-.44 6.6 6.6 0 0 1 -.78-1.39c-.32-.72-.64-1.58-.95-2.44s-.63-1.72-.95-2.44a5.82 5.82 0 0 0 -.78-1.39 1 1 0 0 0 -.71-.43 1 1 0 0 0 -.71.43 6.6 6.6 0 0 0 -.78 1.39c-.32.72-.64 1.58-1 2.44s-.63 1.72-.95 2.44a5.82 5.82 0 0 1 -.78 1.39 1 1 0 0 1 -.71.43 1 1 0 0 1 -.71-.43 6.19 6.19 0 0 1 -.78-1.39c-.32-.72-.64-1.58-.95-2.44s-.63-1.72-1-2.44a5.82 5.82 0 0 0 -.78-1.39 1 1 0 0 0 -.71-.43 1 1 0 0 0 -.71.43 5.82 5.82 0 0 0 -.78 1.39c-.32.72-.64 1.58-1 2.44"/><path d="m43.5 13.09c-.31.87-.63 1.73-1 2.44a5.63 5.63 0 0 1 -.78 1.39.79.79 0 0 1 -1.42 0 5.63 5.63 0 0 1 -.78-1.39c-.32-.71-.64-1.57-1-2.44s-.63-1.72-.95-2.43a6 6 0 0 0 -.78-1.39.79.79 0 0 0 -1.42 0 5.63 5.63 0 0 0 -.78 1.39c-.32.71-.64 1.57-.95 2.43s-.63 1.73-1 2.44a6.36 6.36 0 0 1 -.64 1.39.79.79 0 0 1 -1.42 0 5.63 5.63 0 0 1 -.78-1.39c-.32-.71-.64-1.57-.95-2.44s-.63-1.72-.95-2.43a6.36 6.36 0 0 0 -.78-1.39.79.79 0 0 0 -1.42 0 5.63 5.63 0 0 0 -.78 1.39c-.32.71-.64 1.57-.95 2.43-.14.38-.27.75-.41 1.11"/><path d="m4.5 24v-4h4.9v8.19h4.85v-4.19"/><path d="m14.25 24v-4h4.9v8.19h4.85v-4.19"/><path d="m24 24v-4h4.9v8.19h4.85v-4.19"/><path d="m33.75 24v-4h4.9v8.19h4.85v-4.19"/></g><path d="m9.68 39.08 9.45-8.08v8.1"/><path d="m19.13 39.08 9.45-8.08v8.1"/><path d="m28.58 39.08 9.42-8.08v8.1"/><path d="m38 39.08 5.44-4.67"/><path d="m4.5 35.41 5.18-4.41v8.1"/></g></svg>