<svg viewBox="0 0 48 48" xmlns="http://www.w3.org/2000/svg"><g fill="none" stroke="#000" stroke-linecap="round" stroke-linejoin="round"><path d="m40.7061 30.2742a61.99 61.99 0 0 1 -6.2978-1.11 3.1087 3.1087 0 0 0 -2.9989.58c-.53.54-2.0593 2.0492-3.6487 3.6087a28.68 28.68 0 0 1 -13.0954-13.1052c1.5494-1.5894 2.9989-3.1089 3.5887-3.6387a3.1087 3.1087 0 0 0 .58-2.9989 61.8212 61.8212 0 0 1 -1.11-6.3078 1.9993 1.9993 0 0 0 -2.194-1.783c-.035.0036-.07.0081-.1048.0136h-8.5172a1.5 1.5 0 0 0 -1.36 1.37c-.55 7.6873 3.7387 15.9144 4.6084 17.4938v.06l.12.23a35.4282 35.4282 0 0 0 12.9958 12.9949l.44.25c1.9993 1.06 9.9465 5.0582 17.3738 4.5084a1.5 1.5 0 0 0 1.39-1.36v-8.507a1.9994 1.9994 0 0 0 -1.6646-2.2856c-.0353-.0051-.0703-.0096-.1053-.0132z"/><circle cx="34.5028" cy="13.5057" r="7.9972"/><path d="m29.2139 13.5057h10.5779"/></g></svg>