<svg viewBox="0 0 48 48" xmlns="http://www.w3.org/2000/svg"><g fill="none" stroke="#000" stroke-linecap="round" stroke-linejoin="round"><path d="m38.87 28.74h-4.73v2.68h-4.69v2.68h-9.38v-5.36h4.69v-2.68h4.69v-2.68h9.42z"/><path d="m41.68 13h-16.91c-2-.1-5.93-4.23-8.19-4.23h-9.9a2.18 2.18 0 0 0 -2.18 2.23v7.29h39v-3.42a1.83 1.83 0 0 0 -1.82-1.87z"/><path d="m43.5 18.28h-39v18.72a2.18 2.18 0 0 0 2.17 2.2h34.65a2.18 2.18 0 0 0 2.18-2.2z"/><path d="m29.45 26.06v2.68h4.69"/><path d="m24.76 28.74v2.68h4.71"/></g></svg>