<svg viewBox="0 0 48 48" xmlns="http://www.w3.org/2000/svg"><g fill="none" stroke="#000" stroke-linecap="round" stroke-linejoin="round"><path d="m18.25 14.8235h11.5a4 4 0 0 1 4 4v22.6765a2 2 0 0 1 -2 2h-15.5a2 2 0 0 1 -2-2v-22.6765a4 4 0 0 1 4-4z"/><rect height="8.0294" rx="2" width="16.0588" x="15.9706" y="4.5"/><path d="m19.9853 14.8235v-2.2941"/><path d="m28.0147 14.8235v-2.2941"/><path d="m17.6912 21.1324h12.6176v16.0588h-12.6176z"/><path d="m20.5588 29.1618h6.8824"/><path d="m20.5588 32.6029h6.8824"/><path d="m20.5588 25.7206h2.2941"/><path d="m25.1471 25.7206h2.2941"/></g></svg>