<svg viewBox="0 0 48 48" xmlns="http://www.w3.org/2000/svg"><g fill="none" stroke="#000" stroke-linecap="round" stroke-linejoin="round"><path d="m8.4189 14.4719 9.9221-9.9719"/><path d="m15.838 22.928h7.4346"/><path d="m24.4635 34.994h7.6486"/><path d="m15.838 34.994h.7788"/><path d="m28.7905 28.961h3.3216"/><path d="m15.838 28.961h3.1076"/><path d="m15.838 40.157 1.311-8.691 18.5021-25.797a4 4 0 1 1 6.5009 4.6625l-18.502 25.797z"/><path d="m36.8578 4.51-18.5168-.01v7.9775a1.9945 1.9945 0 0 1 -1.9446 1.9944h-7.9775v27.0337a1.9944 1.9944 0 0 0 1.9944 1.9944h27.2232a1.9945 1.9945 0 0 0 1.9446-1.9944v-27.5896"/><path d="m31.6966 11.1826a4 4 0 0 1 6.5009 4.6625"/><path d="m17.1489 31.466a4 4 0 0 1 6.5011 4.6625"/></g></svg>