<svg viewBox="0 0 48 48" xmlns="http://www.w3.org/2000/svg"><g fill="none" stroke="#000" stroke-linecap="round" stroke-linejoin="round"><path d="m20.9012 17.9891 3.1644-9.5066"/><path d="m27.0988 18.0175-3.0332-9.535"/><path d="m26.0842 14.8279h-4.1308"/><path d="m18.7056 30.3585h10.6264"/><path d="m24.0188 28.2533v2.1052"/><path d="m26.9929 30.3585c0 2.9073-3.3751 7.7193-6.75 8.4544"/><path d="m20.7774 32.9985c.3342 2.005 3.81 5.3466 6.9005 5.8144"/><path d="m13.7864 33.2864a10.2136 10.2136 0 0 0 20.426.16q.0012-.0785.0012-.1566a8.6166 8.6166 0 0 0 -6.331-8.18l-7.79-2.2264a8.5383 8.5383 0 0 1 -6.2867-7.53q-.0245-.3962-.0185-.8a10.2136 10.2136 0 0 1 20.426.16"/></g></svg>