<svg viewBox="0 0 48 48" xmlns="http://www.w3.org/2000/svg"><g fill="none" stroke="#000" stroke-linecap="round" stroke-linejoin="round"><path d="m21.1165 19.2174 3.1221-9.25m0 0 3.0064 9.25m-1.0407-3.122h-4.0471"/><path d="m12.2063 38.3375a11.0267 11.0267 0 0 0 9.25 4.1625h5.55a9.25 9.25 0 0 0 0-18.5h-6.0126a9.25 9.25 0 0 1 0-18.5h5.55c4.1625 0 6.9375.925 9.25 4.1625"/><path d="m35.7938 7.35v2.3125h-2.3125"/><path d="m14.5188 38.3375h-2.3125v2.3125"/><path d="m19.7308 30.4706h8.5384"/><path d="m24 29.0475v1.4231"/><path d="m21.8654 32.6052a13.9834 13.9834 0 0 0 4.9808 5.6923"/><path d="m20.5846 38.2975c3.6027-1.1428 5.4166-4.4387 6.2616-7.8269"/></g></svg>