<svg viewBox="0 0 48 48" xmlns="http://www.w3.org/2000/svg"><g fill="none" stroke="#000" stroke-linejoin="round"><path d="m26.1617 23.0811c2.2911 2.2474 3.3552 6.7756 4.64 5.5467 1.07-1.0231 1.2689-3.3328 1.4206-4.2359a.87.87 0 0 1 .4366-.6209c1.6348-.903 8.1524-5.2618 8.495-15.6811-10.4192.3417-14.8124 6.8947-15.7155 8.5295a.87.87 0 0 1 -.6209.4366c-.903.1517-3.2128.351-4.2359 1.4206-1.2299 1.2834 3.3328 2.3134 5.5801 4.6045z"/><circle cx="35.8558" cy="13.4234" r="1.5836"/><g stroke-linecap="round"><path d="m22.6715 20.7314s-13.7615-.6349-14.4382-15.2314"/><path d="m25.0185 22.1288s-7.7085 6.998-18.1723-1.1851"/><path d="m26.0462 23.28s-10.59 8.1589-4.4378 19.22"/><path d="m27.0815 24.1732s-6.3771 9.128 1.9755 18.3268"/><path d="m23.0514 26.4037s-6.203 5.6938-16.0786 1.8377"/></g></g></svg>