<svg viewBox="0 0 48 48" xmlns="http://www.w3.org/2000/svg"><path d="m17.94 9.44a3.1 3.1 0 0 0 -3.1 3.1v1l-.41.42a21 21 0 0 1 -9.33 5.6l-.48.15v.5a21 21 0 0 0 1.75 11 15.18 15.18 0 0 0 8.35 7.26l.27.1.27-.1a15.17 15.17 0 0 0 8.36-7.26s0 0 0 0h16.78a3.12 3.12 0 0 0 3.1-3.1v-15.57a3.11 3.11 0 0 0 -3.1-3.1zm7.46 13.28c0-.21-.06-2.3-.07-2.51v-.5l-.49-.15a24.09 24.09 0 0 1 -10-6.07m8.76 17.67a19.26 19.26 0 0 0 1.8-8.44m-4.68.22-6.6 6.72-3.94-3.66m30.65-13.46-11.66 7.16m0 0-11.66-7.16" fill="none" stroke="#000" stroke-linecap="round" stroke-linejoin="round"/></svg>