<svg viewBox="0 0 48 48" xmlns="http://www.w3.org/2000/svg"><g fill="none" stroke="#000" stroke-linecap="round" stroke-linejoin="round"><path d="m8.0988 7.8588a1.9194 1.9194 0 0 0 -1.9194 1.9194v31.8025a1.9193 1.9193 0 0 0 1.9194 1.9193h31.8024a1.9193 1.9193 0 0 0 1.9194-1.9193v-31.8025a1.9194 1.9194 0 0 0 -1.9194-1.9194z"/><path d="m9.068 33.5427h7.4971v7.0782h-7.4971z"/><path d="m20.2514 33.5427h7.4971v7.0782h-7.4971z"/><path d="m31.4349 33.5427h7.4971v7.0782h-7.4971z"/><path d="m9.068 23.3351h7.4971v7.0782h-7.4971z"/><path d="m20.2514 23.3351h7.4971v7.0782h-7.4971z"/><path d="m31.4349 23.3351h7.4971v7.0782h-7.4971z"/><path d="m31.4349 13.5974h7.4971v7.0782h-7.4971z"/><path d="m12.8166 10.258v-5.758"/><path d="m35.1834 10.258v-5.758"/></g></svg>