<svg viewBox="0 0 48 48" xmlns="http://www.w3.org/2000/svg"><g fill="none" stroke="#000" stroke-linecap="round" stroke-linejoin="round"><path d="m24 31.71a9.87 9.87 0 0 1 -8.6-4.48 4.67 4.67 0 0 0 -4.49-2.41h-1.32c-2.25 0-2.95-1.65-3.57-3h5.26c5.1 0 5.85 1.87 7 3.48a6.17 6.17 0 0 0 5.72 3.06"/><path d="m7.07 19.3c-2.25 0-2.95-1.65-3.57-3h9.08c4.52 0 8.55.8 8.12 7.48-2.8-4.78-6.16-4.48-9.52-4.48z"/><path d="m24 31.71a9.87 9.87 0 0 0 8.6-4.48 4.67 4.67 0 0 1 4.49-2.41h1.32c2.25 0 3-1.65 3.57-3h-5.26c-5.1 0-5.85 1.87-7 3.48a6.17 6.17 0 0 1 -5.72 3.06"/><path d="m40.93 19.3c2.25 0 3-1.65 3.57-3h-9.08c-4.52 0-8.55.8-8.12 7.48 2.8-4.76 6.16-4.47 9.52-4.47z"/></g></svg>