<svg viewBox="0 0 48 48" xmlns="http://www.w3.org/2000/svg"><g fill="none" stroke="#000" stroke-linecap="round" stroke-linejoin="round"><path d="m23.9941 18.4067c1.9829-3.4046 5.612-4.5269 10.0268-2.9556-1.9829 4.0406-6.6222 5.3875-10.0268 2.9556z"/><circle cx="16.0791" cy="17.3218" r="4.4522"/><path d="m11.124 41.8648a8.9642 8.9642 0 0 0 4.0406-7.0337c0-5.9113-5.35-6.3228-5.35-14.4415-1.8707-1.6087-6.5324-9.5508-4.1529-14.0296.636-1.1972 8.4554 2.9556 8.4554 2.9556 4.4521-2.2447 5.6494-3.18 11.71-3.18s17.1729 5.5744 17.1729 10.8869c0 10.7-8.7921 9.4281-12.496 16.5366a19.0434 19.0434 0 0 0 -1.7584 8.3057z"/><path d="m14.9915 13.0084-.8744-3.6931"/></g></svg>