<svg viewBox="0 0 48 48" xmlns="http://www.w3.org/2000/svg"><g fill="none" stroke="#000" stroke-linecap="round" stroke-linejoin="round"><path d="m14.21 40.09-3.93-1.09a2.57 2.57 0 0 1 -1.78-1.79l-1.1-3.93 23.81-23.81 6.79 6.8z"/><path d="m9.16 38.33 25.46-25.46"/><path d="m36.25 6.44h2.07a3.78 3.78 0 0 1 3.78 3.78v3.78a0 0 0 0 1 0 0h-9.63a0 0 0 0 1 0 0v-3.78a3.78 3.78 0 0 1 3.78-3.78z" transform="matrix(.70710678 .70710678 -.70710678 .70710678 18.14 -23.37)"/><path d="m7.4 33.28-2.57 8.16a1 1 0 0 0 1.22 1.22l8.16-2.57"/><path d="m6.8 42.42a1.22 1.22 0 1 0 -1.73-1.73"/></g></svg>