<svg viewBox="0 0 48 48" xmlns="http://www.w3.org/2000/svg"><g fill="none" stroke="#000" stroke-linecap="round" stroke-linejoin="round"><rect height="37" rx="2" width="37" x="5.5" y="5.5"/><path d="m29.3138 19.0778-2.6378 9.8444"/><path d="m29.1084 28.9222 2.6378-9.8444h3.2229a2.4489 2.4489 0 0 1 2.4132 3.3062 4.62 4.62 0 0 1 -4.185 3.3061h-3.2228"/><path d="m21.4698 19.0778-2.6378 9.8444"/><path d="m24.123 28.922-2.734-4.922 5.363-4.889"/><path d="m21.389 24h-1.2381"/><path d="m10.5 27.8436a2.0726 2.0726 0 0 0 2.1247 1.0786h1.4574a3.44 3.44 0 0 0 3.1153-2.4611 1.8229 1.8229 0 0 0 -1.7964-2.4611h-1.61a1.8229 1.8229 0 0 1 -1.7963-2.4611 3.4393 3.4393 0 0 1 3.1153-2.4611h1.4575a2.0726 2.0726 0 0 1 2.1247 1.0786"/></g></svg>