<svg viewBox="0 0 48 48" xmlns="http://www.w3.org/2000/svg"><g fill="none" stroke="#000" stroke-linecap="round" stroke-linejoin="round"><circle cx="30.9343" cy="18.9662" r="5.2435"/><circle cx="30.9343" cy="21.123" r="1.583"/><circle cx="17.0835" cy="18.9662" r="5.2435"/><circle cx="17.0835" cy="21.123" r="1.583"/><path d="m24.0089 21.6177a1.2432 1.2432 0 0 0 -1.1872 1.2861 8.6025 8.6025 0 0 0 1.1872 2.4734 8.5313 8.5313 0 0 0 1.1872-2.4734 1.2377 1.2377 0 0 0 -1.1872-1.2861z"/><path d="m12.5226 33.282c-.9205-.4815-1.7689-1.0318-1.7689-2.0707v-2.5723l11.1993 5.7986a8.1149 8.1149 0 0 1 2.0539 2.0173 8.1064 8.1064 0 0 1 2.0539-2.0173l11.1992-5.7986v2.5723c0 1.0389-.8485 1.5889-1.7689 2.0707l-11.4863 6.01z"/><path d="m19.7646 41.2661a8.938 8.938 0 0 1 -5.4978-1.5652 4.9455 4.9455 0 0 1 -2.0311-3.68c-1.397-.64-3.8614-1.7679-3.8614-5.4315v-5.8029l3.8584 2.0777v-.9894a8.5049 8.5049 0 0 1 -.99-13.0059s-1.3851-1.4009-1.3851-2.23v-6.1389l11.5655 5.7768c2.5601 1.2782 2.5769 2.6376 2.5769 2.6376s.0171-1.3594 2.5772-2.6376l11.5655-5.7768v6.1389c0 .8285-1.3851 2.23-1.3851 2.23a8.5049 8.5049 0 0 1 -.99 13.0059v.9894l3.8584-2.0777v5.8025c0 3.6636-2.4644 4.7924-3.8614 5.4315a4.9441 4.9441 0 0 1 -2.0311 3.68 8.9367 8.9367 0 0 1 -5.4978 1.5652c-2.2557-.0045-4.2416 2.2343-4.2416 2.2343s-1.9857-2.2389-4.2414-2.2339z"/></g></svg>