<svg viewBox="0 0 48 48" xmlns="http://www.w3.org/2000/svg"><g fill="none" stroke="#000" stroke-linejoin="round"><g stroke-linecap="round"><path d="m23.9984 13.7368s0-2.0526-4.1069-4.1052l-10.2675-5.1316v4.1052a5.3314 5.3314 0 0 0 2.0535 4.1053"/><path d="m23.9984 43.5a4.4488 4.4488 0 0 0 -4.1069-2.0526c-3.08 0-6.1605-1.0264-7.1872-4.1053a5.9852 5.9852 0 0 1 -.2447-1.2975"/><circle cx="16.2743" cy="21.0573" r="2.1898"/><path d="m24.0024 21.2558a1.3683 1.3683 0 0 0 -1.3676 1.3689 1.3679 1.3679 0 0 0 .07.4269l-.004-.002.02.0441a1.3753 1.3753 0 0 0 .0722.1623l1.2092 2.7382 1.2093-2.7382a1.3753 1.3753 0 0 0 .0722-.1623l.02-.0441-.004.002a1.3589 1.3589 0 0 0 -1.2952-1.796h-.0023z"/><path d="m23.9984 13.7368s0-2.0526 4.107-4.1052l10.2674-5.1316v4.1052a5.3311 5.3311 0 0 1 -2.0535 4.1053"/><path d="m23.9984 43.5a4.4491 4.4491 0 0 1 4.107-2.0526c3.08 0 6.16-1.0264 7.1872-4.1053a5.9922 5.9922 0 0 0 .2447-1.2975"/><circle cx="31.7226" cy="21.0573" r="2.1898"/><path d="m22.6824 23.0793a7.5021 7.5021 0 1 1 .8945-1.765"/><path d="m25.4069 23.2112a7.5054 7.5054 0 1 0 -1.12-2.3158q.047.1646.1011.326"/></g><path d="m25.7317 32.9638 15.3383-8.8515c.2 4.2588-1.7353 7.4156-5.547 9.6036l-11.523 6.6492-11.5225-6.6492c-3.8117-2.188-5.7466-5.3448-5.547-9.6036l15.3378 8.8515a3.5286 3.5286 0 0 1 1.7317 3.2407 3.5286 3.5286 0 0 1 1.7317-3.2407z"/></g></svg>