<svg viewBox="0 0 48 48" xmlns="http://www.w3.org/2000/svg"><path d="m38.88 20.5741h-5.4541a6 6 0 0 1 -6-6v-5.4541a3.559 3.559 0 0 0 -2.8123-3.5666 3.4285 3.4285 0 0 0 -4.04 3.3725v5.6482a6 6 0 0 1 -6 6h-5.4536a3.6471 3.6471 0 0 0 -3.6151 3.2418 3.4259 3.4259 0 0 0 3.421 3.61h5.6482a6 6 0 0 1 6 6v5.4541a3.647 3.647 0 0 0 3.2417 3.615 3.426 3.426 0 0 0 3.61-3.4211v-5.648a6 6 0 0 1 6-6h5.6482a3.4259 3.4259 0 0 0 3.421-3.61 3.647 3.647 0 0 0 -3.615-3.2418z" fill="none" stroke="#000" stroke-linecap="round" stroke-linejoin="round"/></svg>