<svg viewBox="0 0 48 48" xmlns="http://www.w3.org/2000/svg"><g fill="none" stroke="#000" stroke-linecap="round" stroke-linejoin="round"><path d="m9.0157 5.8213v18.9155c3.0583-3.4462 8.3627-7.4579 16.5445-12.0086q.2157-.3346.4489-.6578l-.0792.0841-2.5833-1.28a12.4094 12.4094 0 0 1 5.3971-2.1055l-2.9483-2.9477zm0 25.0172v11.6615h25.6534v-27.09q-.6667.3542-1.3661.641l.12-.0288c-1.2582 1.2682-1.8159 2.4425-4.8281 3.9444l.1851-2.8766.1225-.0288q-.4026.0408-.8067.06"/><path d="m25.56 12.7292c-21.1316 11.7537-23.1352 19.9308-16.5443 23.9736-4.4164-7.6528 10.4272-15.178 19.0807-19.5813"/><path d="m42.3258 6.0092a15.0148 15.0148 0 0 0 -16.7654 6.72 14.9058 14.9058 0 0 0 1.059 2.3168 14.9073 14.9073 0 0 0 1.477 2.0755 15.2145 15.2145 0 0 0 7.1758-1.9954 15.1824 15.1824 0 0 0 7.0536-9.1169z"/><path d="m33.4235 16.0212c-1.2583 1.2682-1.8157 2.4431-4.828 3.945l.1845-2.8762"/><path d="m29.1769 8.6663c-1.7275.4555-3.0238.3508-5.8307 2.2084l2.5832 1.2786"/><circle cx="34.8307" cy="10.3055" r="1.6143" transform="matrix(.00573512 -.99998355 .99998355 .00573512 24.3257 45.0765)"/><path d="m42.3262 6.0087a15.1268 15.1268 0 0 0 -4.9922-.45 7.6867 7.6867 0 0 0 .937 2.7607 7.6852 7.6852 0 0 0 1.9541 2.2178 15.1238 15.1238 0 0 0 2.1011-4.5285z"/><path d="m18.2811 35.9252h11.3229"/><path d="m18.2811 30.7759h11.3229"/><path d="m18.2811 25.6267h11.3229"/></g></svg>