<svg viewBox="0 0 48 48" xmlns="http://www.w3.org/2000/svg"><g fill="none" stroke="#000" stroke-linecap="round" stroke-linejoin="round"><path d="m40.4 5.6a47.15 47.15 0 0 1 -32.9 0c-1-.4-2.3.9-2 2 3.2 10.8 3.7 21.7 0 32.9-.3 1 1 2.4 2 2 10.6-4.6 21.4-5.5 32.9 0 1 .5 2.3-.9 2-2-2.4-9.6-4.3-19.2 0-32.9a1.65 1.65 0 0 0 -2-2z"/><path d="m31.1 31.1 8.1 8.1"/><path d="m23.7 8.9v5.2m0 19.9v4.4"/><circle cx="24" cy="24" r="9.8"/><path d="m22.7 16.7 1.8 3.6 4 .6-2.9 2.8.7 3.9-3.5-1.9-3.5 1.9.7-3.9-2.9-2.8 4-.6z"/><path d="m11.5 7.1.3 1.6 1.5.7-1.4.8-.2 1.7-1.2-1.1-1.6.4.7-1.5-.9-1.5 1.7.2z"/><circle cx="11.6" cy="32.9" r="2.1"/><circle cx="34.8" cy="15.2" r="1.8"/><path d="m13.5 7.6a69.36 69.36 0 0 1 2.3 10.8m.1 11.2a49.42 49.42 0 0 1 -2.3 10.5"/><path d="m34.5 7.6a59.49 59.49 0 0 0 -2.3 10.8m-.2 11.4a53.16 53.16 0 0 0 2.2 10.2"/><path d="m40.6 13.3c-1.4.4-2.8.8-4.2 1.1m-3.5.7c-1.2.2-2.3.3-3.5.5m-10.7 0a53.23 53.23 0 0 1 -11.6-2.4"/><path d="m40.8 34.4a61.87 61.87 0 0 0 -11.2-2.3m-11.4-.1c-1.5.1-3.1.4-4.6.6m-4.1 1a18.66 18.66 0 0 0 -2.2.7"/><path d="m39.6 23.7h-5.8m-19.8 0h-5.7"/></g></svg>