<svg viewBox="0 0 48 48" xmlns="http://www.w3.org/2000/svg"><g fill="none" stroke="#000" stroke-linecap="round" stroke-linejoin="round"><path d="m24 4.5-3.6066 2.0823v2.7877l-3.0355 1.7526v8.4726l.6264.3616-5.6407 3.2567v13.5565l11.6564 6.73"/><path d="m12.3437 23.2137 11.6563 6.7299"/><path d="m17.984 19.9564 6.016 3.4736"/><path d="m16.5749 23.2137 7.4251 4.2868"/><path d="m16.5749 23.2137 3.4614-1.9985"/><path d="m17.3581 11.1221 1.3909.8031m2.0481 1.1825 3.2029 1.8493"/><path d="m20.3939 6.5823 3.6067 2.0824"/><path d="m24 18.2578-1.6051-.9267"/><path d="m24 18.2578-1.6051.9267"/><path d="m20.79 18.2578 1.605-.9267"/><path d="m20.79 18.2578 1.605.9267"/><path d="m22.3954 19.1847v2.1012l1.6051-.9267"/><path d="m20.79 20.359 1.605.9267"/><path d="m20.79 20.359v-2.1011"/><path d="m21.942 22.4094v3.7662"/><path d="m20.7486 31.8716-4.1221-2.38-1.5688.9058 4.0856 2.3589v4.765"/><path d="m19.1439 32.7564 1.6053-.8848"/><path d="m19.1439 37.5215 1.6053-.8848v-4.765"/><path d="m15.3834 32.4055 2.1008 1.2129v2.3964"/><path d="m15.83 34.6774-1.3726-.7925v1.5188"/><path d="m14.4574 35.404 1.3726.7925v-1.5188"/><path d="m24 4.5 3.6067 2.0823v2.7877l3.0356 1.7526v3.7062m0 2.7716v1.9948l-.6264.3616 5.6407 3.2567v13.5565l-11.6566 6.73"/><path d="m35.6563 23.2135-11.6563 6.7299"/><path d="m30.0158 19.9565-6.0158 3.4735"/><path d="m31.4252 23.2135-7.4252 4.2865"/><path d="m31.4252 23.2135-3.4614-1.9985"/><path d="m30.6425 11.1226-6.6425 3.8348"/><path d="m27.6069 6.5823-3.6069 2.0824"/><path d="m27.8908 15.0838 1.6051-.9267"/><path d="m27.8908 15.0838 1.6051.9266"/><path d="m31.1009 15.0838-1.605-.9267"/><path d="m31.1009 15.0838-1.605.9266"/><path d="m29.4955 16.0107v2.1011l-1.605-.9266"/><path d="m31.1011 17.185-1.605.9267"/><path d="m31.1011 17.185v-2.1011"/><path d="m26.0577 22.41v3.7662"/><path d="m27.2513 31.8715 4.1221-2.38 1.5689.9058-4.0856 2.3588v4.765"/><path d="m28.8567 32.7567-1.6053-.8848"/><path d="m28.8567 37.521-1.6053-.8847v-4.765"/><path d="m32.617 32.4057-2.1008 1.2129v2.3963"/><path d="m32.1708 34.6776 1.3726-.7924v1.5188"/><path d="m33.543 35.4041-1.3726.7925v-1.5188"/><path d="m21.9985 10.2967-1.6051-.9267"/><path d="m21.9985 10.2967-1.6051.9267"/><path d="m18.7884 10.2967 1.605-.9266"/><path d="m18.7884 10.2967 1.605.9267"/><path d="m20.3938 11.2237v2.1011l1.6051-.9267"/><path d="m18.7882 12.398 1.605.9266"/><path d="m18.7882 12.398v-2.1012"/><path d="m27.8907 17.1848v-2.1011"/><path d="m27.6069 9.37v1.754l-3.6069 2.0823-1.7095-.9869"/><path d="m21.9981 10.2963v2.1011"/><path d="m24 14.9573v3.3"/><path d="m24 20.3592v3.0708"/><path d="m24 23.43v4.07"/><path d="m24 29.9432v13.5568"/><path d="m24 13.2068v-4.5417"/></g></svg>