<svg viewBox="0 0 48 48" xmlns="http://www.w3.org/2000/svg"><g fill="none" stroke="#000" stroke-linecap="round" stroke-linejoin="round"><path d="m43.5 20.29a19.5 19.5 0 0 1 -39 0"/><path d="m39.79 20.29a15.79 15.79 0 0 1 -31.58 0" stroke-width=".94"/><g stroke-width=".87"><path d="m36.07 20.29a12.07 12.07 0 0 1 -24.14 0"/><path d="m36.07 20.29a12.07 12.07 0 1 0 -24.14 0"/><path d="m17.41 23.26a2.22 2.22 0 0 0 1.85.83h1.12a1.86 1.86 0 0 0 1.86-1.85 1.86 1.86 0 0 0 -1.86-1.86h-1.21a1.87 1.87 0 0 1 -1.86-1.86 1.87 1.87 0 0 1 1.86-1.86h1.12a2 2 0 0 1 1.85.84"/><path d="m26.79 16.57v7.43h3.71"/></g></g></svg>