<svg viewBox="0 0 48 48" xmlns="http://www.w3.org/2000/svg"><g fill="none" stroke="#000" stroke-linecap="round" stroke-linejoin="round" stroke-width="1.05"><path d="m19.06 5.5a3.7 3.7 0 0 0 0 7.4h3.7v-3.7a3.69 3.69 0 0 0 -3.68-3.7m0 9.86h-9.88a3.7 3.7 0 1 0 0 7.4h9.86a3.7 3.7 0 1 0 0-7.4"/><path d="m42.5 19.06a3.7 3.7 0 0 0 -7.4 0v3.7h3.7a3.7 3.7 0 0 0 3.7-3.7m-9.86 0v-9.86a3.7 3.7 0 1 0 -7.4 0v9.86a3.7 3.7 0 0 0 7.4 0"/><path d="m28.94 42.5a3.7 3.7 0 0 0 0-7.4h-3.7v3.7a3.7 3.7 0 0 0 3.7 3.7m0-9.86h9.86a3.7 3.7 0 1 0 0-7.4h-9.86a3.7 3.7 0 0 0 0 7.4"/><path d="m5.5 28.94a3.7 3.7 0 0 0 7.4 0v-3.7h-3.7a3.7 3.7 0 0 0 -3.7 3.7m9.86 0v9.86a3.7 3.7 0 0 0 7.4 0v-9.86a3.68 3.68 0 0 0 -3.68-3.7 3.7 3.7 0 0 0 -3.7 3.7"/></g></svg>