<svg viewBox="0 0 48 48" xmlns="http://www.w3.org/2000/svg"><g fill="none" stroke="#000" stroke-linecap="round" stroke-linejoin="round"><path d="m32.204 43.5c-14.811-1.5472-20.02-12.8858-20.7992-15.3661a6.1144 6.1144 0 0 0 2.0906.39s-2.9056-5.7047-3.65-8.8582a19.433 19.433 0 0 0 2.1259.2834s-3.3657-6.4845-2.7988-12.8271c6.0236 3.756 12.4016 7.7245 20.48 8.7166 4.0397-2.5512 6.1657-11.3386 6.1657-11.3386a20.2984 20.2984 0 0 1 3.0118 10.3819c.2835 6.6614-.1657 18.2008-6.626 28.6181"/><path d="m38.7109 13.2888c-1.1209 4.6758-5.7509 10.4868-5.7509 10.4868-7.3228-.2362-19.633-7.6339-23.5409-11.6831"/><path d="m32.96 23.7756c.4725 5.48-.7559 19.7244-.7559 19.7244"/><path d="m37.14 24.5261c-.3059 1.9664-2.0538 4.1732-2.6656 6.664"/><path d="m15.6185 24.7446c4.4136 6.3362 11.3179 3.1135 12.7381 10.0069-3.6706-2.9278-10.6624-.5025-12.7381-10.0069z"/></g></svg>