<svg viewBox="0 0 48 48" xmlns="http://www.w3.org/2000/svg"><g fill="none" stroke="#000" stroke-linecap="round" stroke-linejoin="round"><path d="m23.6764 20.6859a6.7942 6.7942 0 0 1 -4.5043 1.7578s-2.5267 4.98-5.4563 4.98a3.9376 3.9376 0 0 1 -3.8817-4.1746c.1465-1.3916 5.6394-9.0451 5.6394-9.0451s2.2338-6.3718 8.2029-6.3718 9.4845 4.6507 9.4845 10.5465-1.9409 10.6565-1.6845 15.3072l-1.2085 1.8676h-11.3521l-1.2451-1.3915c0-5.0902 3.0761-10.7296 6.0057-13.4761z"/><path d="m30.268 35.554 3.406 4.98-.513 2.966h-17.102l-.695-2.783 3.552-5.163"/><path d="m22.1809 7.9736c.1772-1.0933 2.4842-3.9131 7.1715-2.668-1.7211.6226-2.0507 1.1784-2.0507 1.1784a22.4008 22.4008 0 0 1 5.4564.1766 5.2191 5.2191 0 0 0 -1.5015 1.6478 5.2515 5.2515 0 0 1 5.1268 2.893 3.525 3.525 0 0 0 -2.0873.293 8.0926 8.0926 0 0 1 3.4789 3.6985 21.65 21.65 0 0 0 -2.6-.476 9.79 9.79 0 0 1 1.7943 2.0507c.1831.5859 1.2451 1.6845 1.2085 2.8563a23.6523 23.6523 0 0 1 -.9155 3.9916l-1.7944-1.062s1.5747 2.8564 1.0986 3.9549-2.27.293-2.27.293 1.8676 2.4169 1.2451 3.2958-.4761 2.49-1.1719 2.7465-2.8929.8422-2.8929.8422"/><path d="m19.2977 9.1933c-1.2977-.5919-3.1004-2.4906-2.5791-4.6933a20.35 20.35 0 0 0 5.4623 3.4736"/></g></svg>