<svg viewBox="0 0 48 48" xmlns="http://www.w3.org/2000/svg"><g fill="none" stroke="#000" stroke-linecap="round" stroke-linejoin="round"><path d="m42.5 15.58v-8.13a2 2 0 0 0 -2-1.95h-33.05a2 2 0 0 0 -1.95 2v33.1a2 2 0 0 0 2 2h8.21a19.2 19.2 0 0 1 -.35-5.36 14.73 14.73 0 0 1 6.32-10.82 22.21 22.21 0 0 1 4.07-2.42 10.48 10.48 0 1 1 1.25 4.9 15 15 0 0 0 -2.46 1.42 9.38 9.38 0 0 0 -4.28 7.24 15.14 15.14 0 0 0 .51 4.94h19.78a2 2 0 0 0 2-2v-8.08"/><path d="m27 28.9a10.48 10.48 0 0 1 -1.25-4.9"/></g></svg>