<svg viewBox="0 0 48 48" xmlns="http://www.w3.org/2000/svg"><g fill="none" stroke="#000" stroke-linecap="round" stroke-linejoin="round"><circle cx="24" cy="24" r="21.5"/><path d="m24 39.5v-31"/><path d="m19.6392 25.38c-1.3991 0-1.3991-3.3237-2.7983-3.3237-1.401 0-1.401 3.3237-2.8021 3.3237-1.4026 0-1.4026-3.3237-2.8052-3.3237-1.4006 0-1.4006 3.3237-2.8012 3.3237-1.4039 0-1.4039-3.3237-2.8078-3.3237-1.4061 0-1.4061 3.3237-2.8123 3.3237a.8191.8191 0 0 1 -.272-.0454"/><path d="m19.6392 32.44c-1.3991 0-1.3991-3.3237-2.7983-3.3237-1.401 0-1.401 3.3237-2.8021 3.3237-1.4026 0-1.4026-3.3237-2.8052-3.3237-1.4006 0-1.4006 3.3237-2.8012 3.3237-1.4039 0-1.4039-3.3237-2.8078-3.3237-.93 0-1.2452 1.4552-1.7591 2.44"/><path d="m19.6392 39.5c-1.3991 0-1.3991-3.3237-2.7983-3.3237-1.401 0-1.401 3.3237-2.8021 3.3237-1.4026 0-1.4026-3.3237-2.8052-3.3237-1.2115 0-1.3751 2.4868-2.3036 3.1583"/><path d="m29.9977 13.4977h9v9h-9z"/><path d="m32.9459 20.0758a2.1222 2.1222 0 0 0 1.5518.4219h.4233a1.2487 1.2487 0 0 0 1.2473-1.25 1.2487 1.2487 0 0 0 -1.2473-1.25h-.8466a1.2487 1.2487 0 0 1 -1.2473-1.25 1.2486 1.2486 0 0 1 1.2473-1.25h.4233a2.122 2.122 0 0 1 1.5517.4218"/></g></svg>