<svg viewBox="0 0 48 48" xmlns="http://www.w3.org/2000/svg"><g fill="none" stroke="#000" stroke-linecap="round" stroke-linejoin="round"><path d="m39.23 26a16.66 16.66 0 0 0 .14-2 16.66 16.66 0 0 0 -.14-2l4.33-3.39a1 1 0 0 0 .25-1.31l-4.1-7.11a1 1 0 0 0 -1.25-.44l-5.11 2.06a15.9 15.9 0 0 0 -3.46-2l-.77-5.43a1 1 0 0 0 -1-.86h-8.22a1 1 0 0 0 -1 .86l-.77 5.43a15.28 15.28 0 0 0 -3.46 2l-5.13-2.06a1 1 0 0 0 -1.25.44l-4.1 7.11a1 1 0 0 0 .25 1.31l4.32 3.39a16.66 16.66 0 0 0 -.14 2 16.66 16.66 0 0 0 .14 2l-4.32 3.39a1 1 0 0 0 -.25 1.31l4.1 7.11a1 1 0 0 0 1.25.44l5.11-2.06a15.9 15.9 0 0 0 3.46 2l.77 5.43a1 1 0 0 0 1 .86h8.2a1 1 0 0 0 1-.86l.77-5.43a15.28 15.28 0 0 0 3.46-2l5.11 2.06a1 1 0 0 0 1.25-.44l4.1-7.11a1 1 0 0 0 -.25-1.31z"/><rect height="12" rx="1" width="12" x="18" y="18"/><path d="m21.09 18v-3"/><path d="m26.91 18v-3"/><path d="m30 21.09h3"/><path d="m30 26.91h3"/><path d="m26.91 30v3"/><path d="m21.09 30v3"/><path d="m18 26.91h-3"/><path d="m18 21.09h-3"/></g></svg>