<svg viewBox="0 0 48 48" xmlns="http://www.w3.org/2000/svg"><g fill="none" stroke="#000" stroke-linecap="round" stroke-linejoin="round"><path d="m26.7555 27.0733v6.83a1.0434 1.0434 0 0 0 1.0434 1.0434h4.7155a1.0433 1.0433 0 0 0 1.0433-1.0434v-8.5153h1.3681a1.571 1.571 0 0 0 1.0186-2.7671l-10.6983-9.1094a1.9222 1.9222 0 0 0 -2.4922 0l-10.6982 9.1094a1.5709 1.5709 0 0 0 1.0184 2.7671h1.3681v8.5158a1.0435 1.0435 0 0 0 1.0434 1.0434h4.7155a1.0434 1.0434 0 0 0 1.0434-1.0434v-6.83z"/><path d="m28.4205 5.5h-20.9205a2 2 0 0 0 -2 2v33a2 2 0 0 0 2 2h33a2 2 0 0 0 2-2v-20.9206"/></g></svg>