<svg viewBox="0 0 48 48" xmlns="http://www.w3.org/2000/svg"><g fill="none" stroke="#000" stroke-linecap="round" stroke-linejoin="round"><path d="m22.707 33.2062h-9.6432a1.3561 1.3561 0 0 1 -1.2054-1.2054v-25.1928a1.3561 1.3561 0 0 1 1.2054-1.2054h15.188a1.3561 1.3561 0 0 1 1.2054 1.2054v22.0226"/><path d="m18.89 22.8647 4.82 12.9953-4.42.5842a2.0082 2.0082 0 0 0 -1.1645.6531c-.3275.3583-1.0376 1.1267-.5962 1.3285l8.6886 3.9717 9.2861-3.2615a1.3394 1.3394 0 0 0 .613-1.4537l-1.4337-7.2323a1.3979 1.3979 0 0 0 -1.0056-1.1338l-7.7472-.8445-.7955.4647-2.6778-7.2383a2.1153 2.1153 0 0 0 -2.4079-1.0822 1.9989 1.9989 0 0 0 -1.1593 2.2488z"/><path d="m18.0926 26.8766a5.1832 5.1832 0 1 1 7.5212-2.8866"/></g></svg>