<svg viewBox="0 0 48 48" xmlns="http://www.w3.org/2000/svg"><g fill="none" stroke="#000" stroke-linecap="round" stroke-linejoin="round"><path d="m7.646 28.5251a3.48 3.48 0 0 0 2.9193 1.3137h1.7516a2.9279 2.9279 0 0 0 2.9194-2.9194 2.9279 2.9279 0 0 0 -2.9194-2.9194h-1.8975a2.9279 2.9279 0 0 1 -2.9194-2.9193 2.9279 2.9279 0 0 1 2.9194-2.9193h1.7516a3.134 3.134 0 0 1 2.919 1.3137"/><path d="m18.1117 29.8388v-11.6776l5.8388 11.6776 5.8388-11.6776v11.6776"/><path d="m32.91 28.5251a3.48 3.48 0 0 0 2.9193 1.3137h1.7516a2.9279 2.9279 0 0 0 2.9191-2.9194 2.9279 2.9279 0 0 0 -2.9194-2.9194h-1.8975a2.9279 2.9279 0 0 1 -2.9194-2.9194 2.9279 2.9279 0 0 1 2.9194-2.9193h1.7516a3.134 3.134 0 0 1 2.9193 1.3137"/><circle cx="24" cy="24" r="21.5"/></g></svg>