<svg viewBox="0 0 48 48" xmlns="http://www.w3.org/2000/svg"><g fill="none" stroke="#000" stroke-linecap="round" stroke-linejoin="round"><path d="m39.3635 8.9125h-30.7269a4.1366 4.1366 0 0 0 -4.1366 4.1365v18.052a4.1367 4.1367 0 0 0 4.1366 4.1365h27.6365l5.5625 5.5625a.975.975 0 0 0 1.6644-.6895v-27.0615a4.1365 4.1365 0 0 0 -4.1365-4.1365z"/><path d="m24 28.6306h6.6438a2.2285 2.2285 0 0 0 2.2285-2.2286v-11.165"/><path d="m36.999 19.364-4.127-4.127-4.126 4.127"/><path d="m24 15.237h-6.6437a2.2286 2.2286 0 0 0 -2.2286 2.2286v11.165"/><path d="m11.001 24.504 4.127 4.127 4.126-4.127"/></g></svg>