<svg viewBox="0 0 48 48" xmlns="http://www.w3.org/2000/svg"><g fill="none" stroke="#000" stroke-linecap="round" stroke-linejoin="round"><path d="m41.47 7.28h-34.94a2 2 0 0 0 -2 1.88v22.25a2 2 0 0 0 2 1.88h2.61v7.43l8.26-7.43h24.07a2 2 0 0 0 2-1.88v-22.25a2 2 0 0 0 -2-1.88z"/><path d="m25.61 28.6a8.47 8.47 0 0 0 4.39-14.3"/><path d="m22.38 12a8.47 8.47 0 0 0 -4.38 14.27"/><path d="m29.39 14.9-1.38 1.38v-3.8h3.8l-1.39 1.38z"/><path d="m18.61 25.67 1.38-1.38v3.8h-3.79l1.38-1.38z"/><path d="m24 20.99v-5.96"/><path d="m28.01 23.1-4.01-2.11"/></g></svg>