<svg viewBox="0 0 48 48" xmlns="http://www.w3.org/2000/svg"><g fill="none" stroke="#000" stroke-linecap="round" stroke-linejoin="round"><path d="m9.72 22.6428c1.0383-1.6873 7.667-.3909 14.7739-.7139 6.9679-.3166 13.5194-1.9468 14.8173-.2595 1.6261 2.1145-6.6195 20.8306-19.8577 20.8306s-11.5673-16.878-9.7335-19.8572z"/><path d="m16.5333 5.9381c-1.817 0-4.0233 1.4276-4.0233 3.05s.9734 2.7256 3.1148 2.7256 4.6074-.8437 4.6074-2.8878-1.6222-2.8878-3.6989-2.8878z"/><path d="m35.0861 5.5c-1.817 0-4.0233 1.4276-4.0233 3.05s.9734 2.7255 3.1148 2.7255 4.6074-.8436 4.6074-2.8878-1.6223-2.8877-3.6989-2.8877z"/></g></svg>