<svg viewBox="0 0 48 48" xmlns="http://www.w3.org/2000/svg"><g fill="none" stroke="#000" stroke-linecap="round" stroke-linejoin="round"><path d="m4.5 13.9v20.3h35.2l3.8-11.9c-12.2-8.3-25.6-8.3-38.8-8.4z"/><path d="m6.5 30.1c2.4 1.2 7.9.4 7.9-2.1.1-2.2-5.5-1.3-5.5-3.4-.1-1.4 2.6-2.7 6.1-2"/><path d="m15.6 26.5c.1-.1.5-2.5.8-3.6 3.3 1.1 5.1 7.6 5.7 7.6.6-2.8 1.7-8.2 1.7-8.5"/><path d="m31.6 22.6c-8.8-.7-8.7 9.3.3 7.8"/><path d="m31.9 30.4c.2 0 1.2-5.3 1.7-8 .2 0 6.6 0 6.7.1"/><path d="m32.8 26.5h5.3"/></g></svg>