<svg viewBox="0 0 48 48" xmlns="http://www.w3.org/2000/svg"><g fill="none" stroke="#000" stroke-linecap="round" stroke-linejoin="round"><path d="m34.75 42.6236a21.4875 21.4875 0 1 1 8.0716-8.2236"/><path d="m34.75 42.6237a21.5072 21.5072 0 0 1 0-37.2474"/><path d="m24.0112 23.3a21.4944 21.4944 0 0 1 18.8105 11.1"/><path d="m38.2857 28.7335a21.5153 21.5153 0 0 1 -24.2625 2.982"/><circle cx="17.243" cy="13.6168" r="4.5"/><path d="m18.8036 13.6168a1.5558 1.5558 0 0 1 -1.2636-2.47 2.4668 2.4668 0 0 0 -.297-.03 2.5 2.5 0 1 0 2.5 2.5 2.4668 2.4668 0 0 0 -.03-.297 1.5485 1.5485 0 0 1 -.9094.297z"/><path d="m4.481 33.0414a11.9318 11.9318 0 0 1 1.0174 4.8386 11.9411 11.9411 0 0 1 -2.6336 7.49 12.0251 12.0251 0 0 0 1.6714.13 11.9577 11.9577 0 0 0 8.1644-3.2055"/></g></svg>