<svg viewBox="0 0 48 48" xmlns="http://www.w3.org/2000/svg"><g fill="none" stroke="#000" stroke-linecap="round" stroke-linejoin="round"><circle cx="24" cy="24" r="21.5"/><path d="m18.0247 44.6582a15.0143 15.0143 0 0 1 -2.7677-8.8825c0-4.7944 3.9953-16.36 20.1449-16.36a12.5982 12.5982 0 0 1 10.0961 4.856"/><path d="m2.7411 27.2272a3.72 3.72 0 0 0 3.2215 2.156c2.7337 0 2.9547-2.7964 4.7944-7.1916 5.3902-12.8776 16.3598-14.6776 22.7944-14.6776a18.0222 18.0222 0 0 1 5.1767.8228"/><path d="m15.9856 31.632c2.7772 3.0531 6.59 4.6063 11.9723 4.6063 4.9539 0 11.6237-2.7742 16.3238-5.0873"/><path d="m15.257 4.3527c-1.9789 3.9973-4.3808 10.7683-3.9531 16.6093"/><path d="m33.4989 19.4715c3.1665 4.9537 2.9381 11.0114 2.0752 15.3043"/><path d="m12.0272 13.3618a30.0148 30.0148 0 0 1 6.41-1.3244"/></g></svg>