<svg viewBox="0 0 48 48" xmlns="http://www.w3.org/2000/svg"><g fill="none" stroke="#000" stroke-linecap="round" stroke-linejoin="round"><path d="m13.0875 22.4959v-17.9959l3.7377 3.738h16.4748l3.4854-3.4858v6.9913m0 7.75v7.3452a11.7786 11.7786 0 0 1 -11.8023 11.63h-11.8948v-3.148"/><path d="m13.0875 22.3336-6.11 13.0756s4.9271 2.8562 8.1977-2.7955l2.0048.7063s2.9225-7.83-4.0928-10.9875z"/><path d="m36.7858 26.8386 4.2367 8.695s-4.13 1.9434-7.0176-1.2319"/><path d="m18.8163 38.4691v5.0309h2.7823"/><path d="m24.9835 38.4691v5.0309h2.7824"/><path d="m29.6077 21.3312-3.5532 2.0516v-4.1028z"/><circle cx="20.6008" cy="15.5961" r="5.0056"/><circle cx="33.2832" cy="15.5961" r="5.0056"/><path d="m28.2785 15.5961h-2.6925m-9.9907 0h-2.5071a2.1869 2.1869 0 0 0 -2.231 2.2312"/><path d="m25.8879 26.9683a1.7612 1.7612 0 1 1 -3.5224 0"/><path d="m31.3564 26.9683a1.7613 1.7613 0 1 1 -3.5225 0"/><path d="m28.7876 30.5215a1.7612 1.7612 0 1 1 -3.5224 0"/><circle cx="20.6008" cy="15.5961" r="1.8731"/><circle cx="33.2832" cy="15.5961" r="1.8731"/></g></svg>