<svg viewBox="0 0 48 48" xmlns="http://www.w3.org/2000/svg"><circle cx="37.9344" cy="27.4758" r=".75"/><circle cx="22.0409" cy="27.4758" r=".75"/><circle cx="25.9591" cy="20.5173" r=".75"/><circle cx="33.9105" cy="20.5242" r=".75"/><circle cx="37.824" cy="13.5497" r=".75"/><circle cx="33.8025" cy="6.5818" r=".75"/><circle cx="25.8611" cy="6.5751" r=".75"/><circle cx="21.9305" cy="13.5343" r=".75"/><circle cx="22.1337" cy="41.4249" r=".75"/><circle cx="26.0695" cy="34.4657" r=".75"/><circle cx="34.0235" cy="34.4647" r=".75"/><circle cx="14.1795" cy="41.4181" r=".75"/><circle cx="10.0656" cy="20.5089" r=".75"/><circle cx="14.0962" cy="27.4766" r=".75"/><circle cx="10.176" cy="34.4289" r=".75"/><g fill="none" stroke="#000" stroke-linecap="round" stroke-linejoin="round"><path d="m33.9058 20.5242-7.9467-.0076-4.0286-6.9746 3.9182-6.9669 7.9467.0077 4.0286 6.9745z"/><path d="m22.0409 27.4834-7.9467-.0076-4.0286-6.9746 3.9182-6.9669 7.9467.0077 4.0286 6.9745z"/><path d="m34.0162 34.4657-7.9462-.0077-4.0286-6.9746 3.9182-6.9669 7.9467.0077 4.0286 6.9746z"/><path d="m22.1513 41.4249-7.9467-.0077-4.0286-6.9746 3.9182-6.9668 7.9467.0076 4.0291 6.9746z"/></g><circle cx="13.994" cy="13.5497" r=".75"/></svg>