<svg viewBox="0 0 48 48" xmlns="http://www.w3.org/2000/svg"><g fill="none" stroke="#000" stroke-linecap="round" stroke-linejoin="round"><path d="m5.5 19.6v20.9a2 2 0 0 0 2 2h33a2 2 0 0 0 2-2v-33a2 2 0 0 0 -2-2h-33a2 2 0 0 0 -2 2z"/><path d="m34.4879 21.3896-3.9402 5.2208"/><path d="m34.4879 26.6104-3.9402-5.2208"/><rect height="5.2207" rx="1.9701" width="3.9402" x="13.3597" y="21.3896"/><rect height="5.2207" rx="1.9701" width="3.9402" x="36.0598" y="21.3896"/><path d="m8.1241 26.17a2.2157 2.2157 0 0 0 1.62.4405h.442a1.3038 1.3038 0 0 0 1.3023-1.3052 1.3038 1.3038 0 0 0 -1.302-1.3053h-.884a1.3038 1.3038 0 0 1 -1.3024-1.3052 1.3038 1.3038 0 0 1 1.3024-1.3048h.442a2.2156 2.2156 0 0 1 1.62.4405"/><path d="m28.8417 25.6162a1.9694 1.9694 0 0 1 -1.7117.9938 1.97 1.97 0 0 1 -1.97-1.97v-1.28a1.97 1.97 0 0 1 1.97-1.97 1.97 1.97 0 0 1 1.97 1.97v.64h-3.94"/><path d="m23.1706 23.36a1.97 1.97 0 0 0 -1.97-1.97 1.97 1.97 0 0 0 -1.97 1.97v1.28a1.97 1.97 0 0 0 1.97 1.97 1.97 1.97 0 0 0 1.97-1.97"/><path d="m23.1706 26.6104v-7.8804"/></g></svg>