<svg viewBox="0 0 48 48" xmlns="http://www.w3.org/2000/svg"><g fill="none" stroke="#000" stroke-linecap="round" stroke-linejoin="round"><path d="m18.05 34.4234a11.9945 11.9945 0 1 0 -4.4735-4.4734"/><path d="m24 24-10.024 5.179 4.845 4.845z"/><path d="m8.797 39.203 10.024-5.179-4.845-4.845z"/><path d="m24 9.4815v-6.9815"/><path d="m24 45.5v-6.9815"/><path d="m16.7408 11.4266-3.4908-6.0461"/><path d="m34.75 42.6195-3.4908-6.0461"/><path d="m11.4266 16.7408-6.0461-3.4908"/><path d="m42.6195 34.75-6.0461-3.4908"/><path d="m9.4815 24h-6.9815"/><path d="m45.5 24h-6.9815"/><path d="m42.6195 13.25-6.0461 3.4908"/><path d="m34.75 5.3805-3.4908 6.0461"/><path d="m38.5185 24h6.9815"/><path d="m2.5 24h6.9815"/></g></svg>