<svg viewBox="0 0 48 48" xmlns="http://www.w3.org/2000/svg"><g fill="none" stroke="#000" stroke-linecap="round" stroke-linejoin="round"><path d="m23.38 9.63 17.53 3.55c1.43.31 1.43 1.48 1.17 2.63l-5 25.7c-.34 1.49-1.08 2.24-2.73 1.91l-16.93-3.42c-1.65-.43-1.81-1.51-1.54-3l5.24-25.9c.32-1.1.88-1.86 2.26-1.47z"/><path d="m35.4 12.06v-2c-.09-1.27-.53-2.23-1.86-2.19l-17.76 1.02c-1.5 0-2.14.81-2.07 2.08l1.58 26.4a2.37 2.37 0 0 0 2.13 2.63 3.09 3.09 0 0 1 -2.51-2.37l-8.91-23.83c-.37-1.16-.51-2.29.94-2.89l16.22-6.11c1.6-.6 2.28-.35 2.9 1.08l.88 2.35"/><path d="m22 15.57 3.22-3.8.93 4.77"/><path d="m23.18 14.22 2.65.6"/><path d="m31.86 37 1.22 4.49 2.92-3.8"/><path d="m32.28 38.5 2.66.57"/><path d="m27.77 32.43-4-7.32c-1.68-3.55 3-7.92 6.13-2.9 4-3.73 7.58 2.34 4.41 4.75z"/></g></svg>