<svg viewBox="0 0 48 48" xmlns="http://www.w3.org/2000/svg"><path d="m12.36 4.5a1.83 1.83 0 0 0 -1.83 1.83v35.32a1.83 1.83 0 0 0 1.82 1.85h23.28a1.83 1.83 0 0 0 1.84-1.83v-35.32a1.84 1.84 0 0 0 -1.82-1.85zm7.13 11a5.28 5.28 0 0 1 4.51 2.7 5.28 5.28 0 0 1 4.51-2.73 4.75 4.75 0 0 1 4.82 4.67.43.43 0 0 1 0 .16c0 5.31-2.9 6.12-9.33 12.23-6.45-6.11-9.34-6.92-9.34-12.23a4.76 4.76 0 0 1 4.67-4.83zm-5.64-4.2 1.15-3.43m1.1 3.44-1.1-3.44m.73 2.29h-1.5m19.92 26.55-1.15 3.43m-1.1-3.44 1.1 3.44m-.74-2.29h1.5" fill="none" stroke="#000" stroke-linecap="round" stroke-linejoin="round"/></svg>