<svg viewBox="0 0 48 48" xmlns="http://www.w3.org/2000/svg"><g fill="none" stroke="#000" stroke-linecap="round" stroke-linejoin="round"><path d="m41.68 13h-16.91c-2-.1-5.93-4.23-8.19-4.23h-9.9a2.18 2.18 0 0 0 -2.18 2.23v7.29h39v-3.42a1.83 1.83 0 0 0 -1.82-1.87z"/><path d="m43.5 18.28h-39v18.72a2.18 2.18 0 0 0 2.17 2.2h34.65a2.18 2.18 0 0 0 2.18-2.2z"/><path d="m38.85 30.8a5.13 5.13 0 0 1 -9.59 2.55l2.3-2.35a5.14 5.14 0 0 1 2.81-9.46 5.13 5.13 0 0 1 4.48 2.59l-2.35 2.35a5.13 5.13 0 0 1 2.35 4.32z"/><path d="m31.56 31 4.94-4.52"/></g></svg>