<svg viewBox="0 0 48 48" xmlns="http://www.w3.org/2000/svg"><g fill="none" stroke="#000" stroke-linecap="round" stroke-linejoin="round"><path d="m20.7143 30.3722c0-3.2261-6.3709-3.6715-6.3709-11.7725s4.5012-8.9043 4.5012-12.0497-12.4646.68-12.4646 12.7422 14.3343 14.3061 14.3343 11.08z"/><path d="m30.3042 27.2168c-3.2261 0-3.6715 6.371-11.7724 6.371s-8.9044-4.5013-12.0495-4.5013.68 12.465 12.742 12.465 14.3057-14.3347 11.0799-14.3347z"/><path d="m17.6958 20.8178c3.2261 0 3.6714-6.371 11.7724-6.371s8.9044 4.5013 12.0495 4.5013-.68-12.465-12.742-12.465-14.3057 14.3347-11.0799 14.3347z"/><path d="m27.2864 17.6278c0 3.2261 6.371 3.6715 6.371 11.7725s-4.5012 8.9043-4.5012 12.05 12.465-.68 12.465-12.742-14.3348-14.3066-14.3348-11.0805z"/></g></svg>