<svg viewBox="0 0 48 48" xmlns="http://www.w3.org/2000/svg"><g fill="none" stroke="#000" stroke-linecap="round" stroke-linejoin="round"><path d="m7.2733 17.0074c1.1729-3.76 14.1137-17.3984 30.983-7.946 0 0-7.7274 5.0021-9.2453 7.417 0 0 6.934-2.6564 14.489 9.5213-3.3463-.2415-13.4541 2.7253-16.11 4.45"/><path d="m20.352 34.7621c1.9664.2415 8.6245 2.3459 14.7306 7.4515 0 0 .54-9.6229-4.3183-13.2978"/><path d="m6.8979 27.6915c-.8279-2.38-1.4489-8.2808-.2414-8.2808s2.3458 8.0724 3.3582 8.0724c1.6214 0 2.2994-9.0384 7.612-9.0384 3.8983 0 4.14 3.7258 4.14 6.1061 0 2.6347-2.4493 7.3135-6.4855 7.3135-1.6329 0-3.9673-2.9485-5.6921-2.9485a5.85 5.85 0 0 0 -.6481.0708"/><path d="m10.6637 12.4824c-1.2474-1.6617-3.0758-2.8-3.5933-2.8s-2.4442 3.3745-1.0567 7.9282"/><path d="m19.6966 14.2015c1.2764-1.3109 7.0554-4.8987 8.03-4.0017s.13 9.1419 0 9.7283"/><path d="m25.1127 18.9622a14.5187 14.5187 0 0 0 1.104-7.0375s-3.6223 1.58-4.83 3.2c1.3633.0859 3.3121 2.0436 3.726 3.8375z"/><path d="m17.7033 31.2286c.9929-.52 3.77-1.3134 3.77 1.4637s-4.4329 3.2255-5.5886 3.2255c-2.38 0-6.8306-1.0867-8.6417-5.5714"/><path d="m15.5339 33.6582a4.033 4.033 0 0 0 4.14-1.1269"/><path d="m18.4662 32.4278a4.24 4.24 0 0 1 1.2074.1035 3.6538 3.6538 0 0 1 .069 1.1844"/><path d="m20.5977 34.52a5.8617 5.8617 0 0 0 3.8941-2.4141"/><path d="m17.6037 21.86c.73 0 1.4029 2.0009 1.4029 3.8637s-.5 3.0876-1.1211 3.0876-1.4317-.88-1.4317-3.4757.4197-3.4756 1.1499-3.4756z"/><path d="m7.6654 20.99c-.112.5427-.2845 7.3387 1.2679 7.3387.3978 0 .7054-.3614.9429-.8989"/><path d="m8.5193 18.5482c-.4357-1.0694-.8107-1.5782-1.5782-1.5782-.9229 0-1.6646 1.8026-1.6646 3.2687a5.8357 5.8357 0 0 0 .82 3.2625"/><path d="m4.648 27.4921c-.3967.8624-.0764 1.8112 1.9567 2.6128 1.4874.5865 2.4445.33 2.668-.12.4368-.88-1.5813-1.93-2.3748-2.2932s-1.9639-.8217-2.2499-.1996z"/></g></svg>