<svg viewBox="0 0 48 48" xmlns="http://www.w3.org/2000/svg"><g fill="none" stroke="#000" stroke-linecap="round" stroke-linejoin="round"><path d="m28.62 7.6-2.2-4.1h-4.84l-2.2 4.1 2.2 4.1h4.84z"/><path d="m21.58 11.7-2.2-4.1h-4.84l-2.2 4.1 2.2 4.1h4.84z"/><path d="m14.54 15.8-2.2-4.1h-4.84l-2.2 4.1 2.2 4.1h4.84z"/><path d="m14.54 24-2.2-4.1h-4.84l-2.2 4.1 2.2 4.1h4.84z"/><path d="m14.54 32.2-2.2-4.1h-4.84l-2.2 4.1 2.2 4.1h4.84z"/><path d="m21.58 36.3-2.2-4.1h-4.84l-2.2 4.1 2.2 4.1h4.84z"/><path d="m28.62 40.4-2.2-4.1h-4.84l-2.2 4.1 2.2 4.1h4.84z"/><path d="m42.7 32.2-2.2-4.1h-4.84l-2.2 4.1 2.2 4.1h4.84z"/><path d="m35.66 36.3-2.2-4.1h-4.84l-2.2 4.1 2.2 4.1h4.84z"/><path d="m42.7 15.8-2.2-4.1h-4.84l-2.2 4.1 2.2 4.1h4.84z"/><path d="m42.7 24-2.2-4.1h-4.84l-2.2 4.1 2.2 4.1h4.84z"/><path d="m35.66 11.7-2.2-4.1h-4.84l-2.2 4.1 2.2 4.1h4.84z"/></g></svg>