<svg viewBox="0 0 48 48" xmlns="http://www.w3.org/2000/svg"><g fill="none" stroke="#000" stroke-linecap="round" stroke-linejoin="round"><path d="m19.12 22.73a2.57 2.57 0 0 0 -2.72-2.57 2.67 2.67 0 0 0 -2.4 2.72v2.39a2.58 2.58 0 0 0 2.58 2.57 2.58 2.58 0 0 0 2.58-2.57v-2.54"/><path d="m34 22.73a2.57 2.57 0 0 0 -2.72-2.57 2.67 2.67 0 0 0 -2.44 2.72v2.39a2.58 2.58 0 0 0 2.58 2.57 2.58 2.58 0 0 0 2.58-2.57z"/><path d="m21.42 20.16v7.68"/><path d="m26.58 27.84v-7.68"/><path d="m21.42 20.16 5.16 7.68"/><path d="m8.43 20.15a1.92 1.92 0 0 0 -1.92 1.93 1.92 1.92 0 0 0 1.92 1.92h.65"/><path d="m9.08 24h.65a1.92 1.92 0 0 1 1.92 1.92 1.92 1.92 0 0 1 -1.92 1.93"/><path d="m11.47 20.8a3.26 3.26 0 0 0 -2.39-.65h-.65"/><path d="m6.69 27.2a3.24 3.24 0 0 0 2.39.65h.65"/><path d="m38.27 20.15a1.92 1.92 0 0 0 -1.92 1.93 1.92 1.92 0 0 0 1.92 1.92h.65"/><path d="m38.92 24h.65a1.92 1.92 0 0 1 1.92 1.92 1.92 1.92 0 0 1 -1.92 1.93"/><path d="m41.31 20.8a3.24 3.24 0 0 0 -2.39-.65h-.65"/><path d="m36.53 27.2a3.26 3.26 0 0 0 2.39.65h.65"/><path d="m24 2.5a21.5 21.5 0 1 0 21.5 21.5 21.44 21.44 0 0 0 -21.5-21.5z"/></g></svg>