<svg viewBox="0 0 48 48" xmlns="http://www.w3.org/2000/svg"><g fill="none" stroke="#000" stroke-linecap="round" stroke-linejoin="round"><path d="m18.6356 32.2053h8.0975"/><path d="m18.6356 18.2307 4.0446-2.2286"/><path d="m22.6802 16.0021v16.2032"/><path d="m28.7636 21.2683a5.4069 5.4069 0 0 1 5.2664-5.4693 5.4434 5.4434 0 0 1 3.849 9.3183c-2.2279 1.8234-9.1128 7.09-9.1128 7.09h10.7388"/><path d="m8.505 32.2053h8.1"/><path d="m8.505 18.2307 4.0471-2.2286"/><path d="m12.5521 16.0021v16.2032"/><path d="m43.5 37.5v-27a2 2 0 0 0 -2-2h-35a2 2 0 0 0 -2 2v27a2 2 0 0 0 2 2h35a2 2 0 0 0 2-2z"/></g></svg>