<svg viewBox="0 0 48 48" xmlns="http://www.w3.org/2000/svg"><path d="m16.48 42a8.12 8.12 0 0 1 -4.11-2.34 9.39 9.39 0 0 1 -2.76-6.24 14.61 14.61 0 0 1 .63-4.65 13.6 13.6 0 0 1 4-5.91 13.74 13.74 0 0 1 4.44-2.23 10.84 10.84 0 0 1 4.5-.05 8.84 8.84 0 0 1 2.82 1.26c.34.3.49.13.6-.65.05-.38.39-1.81.39-1.81 2-1.74 6.3-5.69 5.44-2.44-.21 1.16-.84 4.81-1.4 8.12s-1.14 6.51-1.26 7.12a12.92 12.92 0 0 1 -4.45 7.4 10.24 10.24 0 0 1 -6.46 2.56 9.64 9.64 0 0 1 -2.38-.14zm3.75-5a8.18 8.18 0 0 0 4.77-7 5.16 5.16 0 0 0 -1.88-4.07c-3.34-2.3-8.54 1.8-8.54 6.71.03 3.46 2.57 5.45 5.65 4.36zm10-23.57a28.73 28.73 0 0 1 6.7-3.63c1.07-.38 1.07-.38 1.2-1.44.29-2 .33-2.51.23-2.51a32.26 32.26 0 0 0 -3.11.93c-2.41.84-6.39 3-6.55 3.61 0 .12-.2 1.13-.36 2.23s-.34 2.21-.41 2.47c-.13.46-.13.46.66-.28.41-.41 1.16-1.03 1.61-1.38z" fill="none" stroke="#000" stroke-linecap="round" stroke-linejoin="round"/></svg>