<svg viewBox="0 0 48 48" xmlns="http://www.w3.org/2000/svg"><g fill="none" stroke="#000" stroke-linecap="round" stroke-linejoin="round"><path d="m29.94 28.0536-.0727.0412a21.5062 21.5062 0 0 0 3.0718-2.4942c6.6185-6.6185 10.0161-12.5754 9.5115-20.0515-7.4758-.5046-13.4326 2.8931-20.0506 9.5116a21.5012 21.5012 0 0 0 -2.4948 3.0728l.0417-.0738c-4.3948-1.2369-11.1818 1.1046-14.4469 5.0756l11.5127.1076.0262-.0465c-.806 1.6934-1.5119 3.4112-2.1072 5.0236l4.8483 4.8484c1.6122-.5953 3.3295-1.3008 5.0227-2.1069l-.0457.0258.1077 11.5127c3.9711-3.265 6.3125-10.052 5.0753-14.4464z"/><path d="m16.4369 35.5726a13.3646 13.3646 0 0 1 -6.9025 2.893 13.3654 13.3654 0 0 1 2.893-6.9025l.99 3.02z"/><circle cx="31.5964" cy="16.4037" r="2.4336"/></g></svg>