<svg viewBox="0 0 48 48" xmlns="http://www.w3.org/2000/svg"><g fill="none" stroke="#000" stroke-linecap="round" stroke-linejoin="round"><path d="m10.817 5.25 8.2394 21.972 8.2395-21.972m-6.5916 0 8.24 21.972 8.2389-21.972"/><path d="m7.5211 5.25h6.5916m4.3943 0h4.3944m10.986 0h6.5916m-15.38 0h4.3941"/><path d="m24 29.9683a2.7539 2.7539 0 0 1 2.7465 2.7465v3.2958a2.7465 2.7465 0 0 1 -5.493 0v-3.2958a2.754 2.754 0 0 1 2.7465-2.7465zm1.0986 10.7662v3.5155h-2.1972v-3.5155"/><path d="m19.606 37.109a4.4832 4.4832 0 0 0 8.7888 0"/></g></svg>