<svg viewBox="0 0 48 48" xmlns="http://www.w3.org/2000/svg"><g fill="none" stroke="#000" stroke-linecap="round" stroke-linejoin="round"><path d="m8.4 6.45v35.1a2 2 0 0 0 1.95 2h2.38v-39.05h-2.38a2 2 0 0 0 -1.95 1.95z"/><path d="m12.73 4.5v39h24.92a2 2 0 0 0 2-2v-35.05a2 2 0 0 0 -2-1.95z"/><path d="m26.16 12.45 10 5.78v11.54l-10 5.78-10-5.78v-11.54z"/><path d="m26.16 17.59-6.07 10.52h12.15z"/><path d="m32.24 28.11 3.92-9.88-10-.64z"/><path d="m26.16 17.59-10 .64 3.93 9.88z"/><path d="m20.09 28.11 6.07 7.44-10-5.78z"/><path d="m32.24 28.11-6.08 7.44 10-5.78z"/><path d="m26.16 12.45v5.14"/></g></svg>