<svg viewBox="0 0 48 48" xmlns="http://www.w3.org/2000/svg"><g fill="none" stroke="#000" stroke-linecap="round" stroke-linejoin="round"><path d="m39.83 25.12a12.9 12.9 0 0 0 -.46-2.78c3.91-2.49 3.15-8.9 3.15-8.9s-4-.85-6.5 1.36a6.12 6.12 0 0 0 -1.84-2.31"/><path d="m8.43 28.62a63.57 63.57 0 0 0 .4 7.62c3.68 3.35 8.39 7.26 15.55 7.26s14.19-5.75 14.19-5.75a67.47 67.47 0 0 0 1.15-7.75"/><path d="m22.17 10c-3.63.43-5.14 1.8-5.14 1.8a15.8 15.8 0 0 0 -6.76-3.21s-2.47 5.51.5 9.85a13.16 13.16 0 0 0 -1.84 4.9"/><path d="m14.25 21.12c1 2.54 3.11 7.35 7 7.35a7.66 7.66 0 0 0 6-3.25s1.23 3 3.49 3 4.71-2.64 5.13-3.4"/><path d="m24.76 22.53a15.57 15.57 0 0 1 2.45 2.69 14.39 14.39 0 0 1 2.5-2.69 5.47 5.47 0 0 0 -2.48-.81 4.47 4.47 0 0 0 -2.47.81z"/><path d="m11.31 10.63c1.15.85 2.64 4.43 2.64 4.43a15.08 15.08 0 0 0 -1.75 1.58"/><path d="m40.73 14.9c-.91.56-2.94 3.58-2.94 3.58s.85 1.58.94 1.91"/><path d="m25.7 8.8c1.23-1.44 4.46-4.05 6.3-4.3 0 0-2.27 3-2.55 4.13 0 0 2.42-2.31 4.24-1.65 0 0-2.64 1.38-3.2 2.67 0 0 2.45-.28 3.7.47"/><path d="m24.45 9.08c1.76 0 2.78 1 2.78 5.35 0 5-3.67 6.69-5.39 6.69-.73 0-3-.59-3-4.22s3.07-7.82 5.61-7.82z"/><path d="m27.34 14.74c0 1.77 1.19 7 4.58 7 2.47 0 2.77-3.59 2.77-6.63 0-1.51-1.67-4.46-4.43-4.46-2.55-.02-2.92 2.65-2.92 4.09z"/><path d="m18.31 42.48a9.34 9.34 0 0 1 7.42-4.23 7.83 7.83 0 0 1 6 3.57"/><path d="m10.27 23.33c-.87.24-4.15-.09-4.85-1.34 0 0 1 3.7 3.55 3.77a4 4 0 0 1 -3.55 0 3.74 3.74 0 0 0 3.39 2.92"/><path d="m39 25.14c.81.06 2.92-.21 3.32-1 0 0-.65 3.29-2.48 3.7 0 0 .32.47 1.93.53 0 0-1.31 2.34-3.36 1.45"/></g><circle cx="23.4" cy="17.64" r=".75"/><circle cx="30.26" cy="18.06" r=".75"/></svg>