<svg viewBox="0 0 48 48" xmlns="http://www.w3.org/2000/svg"><g fill="none" stroke="#000" stroke-linecap="round" stroke-linejoin="round"><path d="m24 5.5 17.2488 9.9587v27.0413h-34.4976v-27.0263z"/><path d="m7.0651 40.7633a4.4334 4.4334 0 0 0 3.8863 1.7367h2.3466a3.9583 3.9583 0 0 0 3.954-3.9626 3.9583 3.9583 0 0 0 -3.954-3.9625h-2.5928a3.9583 3.9583 0 0 1 -3.954-3.9626 3.9583 3.9583 0 0 1 3.954-3.9626h2.3466a4.4334 4.4334 0 0 1 3.8863 1.7367"/><path d="m41.2488 15.4587-24.3107 12.9277"/><path d="m6.7512 15.4737 34.4976 18.3449"/></g></svg>