<svg viewBox="0 0 48 48" xmlns="http://www.w3.org/2000/svg"><g fill="none" stroke="#000" stroke-linecap="round" stroke-linejoin="round"><path d="m43.5949 32.861a21.4834 21.4834 0 1 0 -10.7307 10.7325m-1.0414-13.7912a35.9132 35.9132 0 0 0 -14.4194-14.06c-1.3779-.7329-1.4464-2.9025-.9382-4.0459a2.5434 2.5434 0 0 1 2.14-1.4375 3.2616 3.2616 0 0 1 .5081-.001 4.5172 4.5172 0 0 1 1.7494.5394 37.378 37.378 0 0 1 16.33 16.34 4.5993 4.5993 0 0 1 .5276 1.5681m-22.5353-9.6797a1.8766 1.8766 0 0 1 .9968.2248 32.1087 32.1087 0 0 1 12.5682 12.5677 1.8477 1.8477 0 0 1 -.84 2.58 2.0746 2.0746 0 0 1 -2.6875-.6255 28.1805 28.1805 0 0 0 -10.9952-10.9943 2.0746 2.0746 0 0 1 -.6255-2.6875 1.7672 1.7672 0 0 1 1.5832-1.0652zm-2.9318 7.4859a1.4619 1.4619 0 0 1 .7525.215 24.0813 24.0813 0 0 1 8.2677 8.2677 1.3234 1.3234 0 0 1 -.45 1.9057 1.6657 1.6657 0 0 1 -2.0621-.3909 21.218 21.218 0 0 0 -7.2709-7.2709 1.6783 1.6783 0 0 1 -.3904-2.0621 1.23 1.23 0 0 1 1.1532-.6645z"/><path d="m36.5535 28.6069a7.9466 7.9466 0 1 0 7.9465 7.9466v-.0094a7.9372 7.9372 0 0 0 -7.9371-7.9372z"/><path d="m33.2689 32.6274c2.8965.9438 3.991 3.2321 3.8481 8.3427"/><path d="m40.529 37.725-3.426 3.255-3.425-3.255"/></g></svg>