<svg viewBox="0 0 48 48" xmlns="http://www.w3.org/2000/svg"><g fill="none" stroke="#000" stroke-linecap="round" stroke-linejoin="round"><path d="m40.21 22.82v3.36m-2-3.36v3.18m.79 11.41h.81m-.4-3.25h.81m-.81-3.25h.81m-3.22-4.91v13m-3.25-13h4.87c3.25 0 4.88 1.63 4.88 3.25v8.13c0 1.62-1.63 4.87-4.87 4.87h-4.88z"/><path d="m7.79 26.19v-3.37m2 3.17v-3.17m-1.63 14.59h.84m-1.25-3.25h.81m-.81-3.25h.81m2.44 8.09v-13m3.25 16.25h-4.88c-3.24.03-4.87-3.25-4.87-4.84v-8.13c0-1.62 1.63-3.28 4.88-3.28h4.87zm9.75-36.53c-8.94 0-17.87 5.69-17.87 17.06h4.87c0-8.12 6.5-12.19 13-12.19 6.5 0 13 4.07 13 12.19h4.87c0-11.37-8.93-17.06-17.87-17.06z"/></g></svg>