<svg viewBox="0 0 48 48" xmlns="http://www.w3.org/2000/svg"><g fill="none" stroke="#000" stroke-linecap="round" stroke-linejoin="round"><path d="m38 4.5h-16.72a2.93 2.93 0 0 0 -2.93 2.92v.29a3.48 3.48 0 0 0 -3.47 3.46v6.73a13 13 0 0 1 -2.11 7.68c-1.64 2.72-4.49 5.33-4.49 10.12 0 3.66 1.85 5.49 4 5.49s4-1.82 4-5.31v-17.94h2v25.56h22.5v-36.08a2.93 2.93 0 0 0 -2.78-2.92zm-1 18.07h-15v-14.17h15z"/><path d="m18.35 7.71v10.23"/><path d="m33.46 12.27a4.49 4.49 0 0 0 -3.21-1.33 4.55 4.55 0 1 0 3.21 7.76"/><path d="m24 16.89h5.87"/><path d="m24 14.08h5.87"/><path d="m16.36 17.94h-1.48"/></g></svg>