<svg viewBox="0 0 48 48" xmlns="http://www.w3.org/2000/svg"><g fill="none" stroke="#000" stroke-linecap="round" stroke-linejoin="round"><path d="m41 5h-34a2 2 0 0 0 -2 2v34a2 2 0 0 0 2 2h34a2 2 0 0 0 2-2v-34a2 2 0 0 0 -2-2zm-2 17h-7.92v-5.08h-5.08v-7.92h13zm-11.92-1.08v6.16h-6.16v-6.16zm-5.08-11.92v7.92h-5.08v5.08h-7.92v-13zm15.12 30h-28.12v-13h7.92v5.08h14.16v-5.08h7.92v11.12a1.88 1.88 0 0 1 -1.88 1.88z"/><path d="m28.9 16.75c-.28-2.32 2.71-5.28 7.53-5a5.26 5.26 0 0 1 -1.43 4.7c-2.19 2.4-3.88 2-3.88 2"/><path d="m19.05 16.75c.29-2.32-3.1-5.61-8.37-4.27a5.49 5.49 0 0 0 1.91 4.6c2.28 2.13 4.29 1.35 4.29 1.35"/><path d="m24 31.08c.08 1.37-.09 5.31-2.5 5.67"/></g></svg>