<svg viewBox="0 0 48 48" xmlns="http://www.w3.org/2000/svg"><g fill="none" stroke="#000"><g stroke-linecap="round" stroke-linejoin="bevel"><circle cx="23.95" cy="23.95" r="7.88"/><circle cx="23.95" cy="23.95" r="11.37"/><path d="m9.29 5.5h29.42a3.79 3.79 0 0 1 3.79 3.79v29.42a3.79 3.79 0 0 1 -3.79 3.79h-29.42a3.79 3.79 0 0 1 -3.79-3.79v-29.42a3.79 3.79 0 0 1 3.79-3.79z"/></g><path d="m42.5 20.26h-7.68"/><path d="m13.08 20.36h-7.58"/><path d="m30.63 14.68v-4a1.79 1.79 0 0 1 1.8-1.8h4.88a1.79 1.79 0 0 1 1.8 1.8v4.78a1.79 1.79 0 0 1 -1.8 1.8h-4.18" stroke-linecap="round" stroke-linejoin="bevel"/></g></svg>