<svg viewBox="0 0 48 48" xmlns="http://www.w3.org/2000/svg"><g fill="none" stroke="#000" stroke-linecap="round" stroke-linejoin="round"><path d="m12.9281 34.1126v-4.2516l-4.8662 2.87h5.9981"/><path d="m43.5 30.0088-5.3645-2.8671"/><path d="m41.019 25.148a3.0238 3.0238 0 0 0 .9236-2.08v-4.5212c0-2.5128-3.7173-4.5239-8.3629-4.5239-3.4772 0-6.2593 1.1265-7.4393 2.7469m-.6116 3.2144v3.084c0 2.5128 3.7151 4.5239 8.051 4.5239 1.9015 0 2.98.1141 4.3787-.4561"/><path d="m4.83 25.8964a11.9032 11.9032 0 0 0 6.603 1.5361h3.962c3.6317 0 6.6031-1.5361 6.6031-3.4137s-2.9714-3.4137-6.6031-3.4137h-4.2919c-3.6317 0-6.6031-1.5362-6.6031-3.4138s2.9714-3.4137 6.6031-3.4137h3.9618c2.9714 0 4.9523.3414 6.603 1.5361"/><path d="m19.9395 34.1078v-1.5708"/><path d="m28.0643 34.2224c-1.76 0-3.2-.5593-3.2-1.243v-.8079c0-.6837 1.44-1.243 3.2-1.243s3.2.5593 3.2 1.243v.8079c.0003.6837-1.4398 1.243-3.2 1.243z"/><path d="m33.1957 30.9536v2.0408c0 .5776 1.4508 1.04 3.1432 1.04s3.1432-.4621 3.1432-1.04v-2.0408"/><path d="m16.7777 30.1735v1.524c0 .4314 1.4507.7764 3.1432.7764s3.1432-.345 3.1432-.7764v-1.524"/></g></svg>