<svg viewBox="0 0 48 48" xmlns="http://www.w3.org/2000/svg"><g fill="none" stroke="#000" stroke-linecap="round" stroke-linejoin="round"><path d="m43.5 32.1156-5.3645-2.8672"/><path d="m41.019 27.2548a3.0238 3.0238 0 0 0 .9236-2.08v-4.5212c0-2.5128-3.7173-4.5239-8.3629-4.5239-3.4772 0-6.2593 1.1265-7.4393 2.7469m-.6116 3.2144v3.084c0 2.5128 3.7151 4.5239 8.051 4.5239 1.9015 0 2.98.1141 4.3787-.4562"/><path d="m4.83 28.0031a11.9023 11.9023 0 0 0 6.603 1.5362h3.962c3.6317 0 6.6031-1.5362 6.6031-3.4137s-2.9714-3.4138-6.6031-3.4138h-4.2919c-3.6317 0-6.6031-1.5361-6.6031-3.4137s2.9714-3.4137 6.6031-3.4137h3.9618c2.9714 0 4.9523.3414 6.603 1.5361"/></g></svg>