<svg viewBox="0 0 48 48" xmlns="http://www.w3.org/2000/svg"><g fill="none" stroke="#000" stroke-linecap="round" stroke-linejoin="round"><path d="m42.22 17.31v-3.85a7.48 7.48 0 0 0 -7.48-7.46 7.48 7.48 0 0 0 -7.49 7.48v6a3.13 3.13 0 0 0 3.13 3.13h9a2.26 2.26 0 0 1 2.26 2.26v11a6.62 6.62 0 0 1 -6.64 6.63h-4.2a3.53 3.53 0 0 1 -3.55-3.5v-6.8c0-4.75-6.18-5.7-6.18-11.88v-11.02h-8.48a6.81 6.81 0 0 0 -6.81 6.82 3.48 3.48 0 0 0 3.48 3.48h2.74v15.69a7.21 7.21 0 0 0 7.21 7.21h11.56"/><path d="m12.04 25.54h-5.15"/><path d="m19.25 42.5h-10.7"/><path d="m21.07 9.3v-3.8"/><path d="m14.81 9.3v-3.8"/></g><circle cx="13.3" cy="13.82" r=".75"/><path d="m37.24 35.68-1.78-3.88a2.07 2.07 0 1 0 -1.65 0l-1.58 3.84z" fill="none" stroke="#000" stroke-linecap="round" stroke-linejoin="round"/></svg>