<svg viewBox="0 0 48 48" xmlns="http://www.w3.org/2000/svg"><path d="m23.0668 17.8076h13.6884m3.1059 5.8111v9.9618a1.8528 1.8528 0 0 1 -1.6391 1.66l-1.8751-.0083-.0023 5.7106a2.0613 2.0613 0 0 1 -4.1226.0081l.0023-5.7107h-4.1243l-.0022 5.7106a2.0613 2.0613 0 0 1 -4.1226.0081l.0026-5.7107-1.8748.0083a1.8836 1.8836 0 0 1 -1.5418-1.1851 1.2935 1.2935 0 0 1 -.0978-.4752" fill="none" stroke="#000" stroke-linecap="round" stroke-linejoin="round"/><circle cx="25.5644" cy="12.2733" r=".75"/><g fill="none" stroke="#000" stroke-linecap="round" stroke-linejoin="round"><path d="m34.6708 8.03 1.3659-3.0439"/><path d="m24.1074 4.9864 1.366 3.0436"/><circle cx="20.0412" cy="24.753" r="2.7843"/><circle cx="20.0412" cy="30.631" r="2.7843"/><circle cx="20.0412" cy="18.772" r="2.7843"/><circle cx="39.8907" cy="19.8013" r="3.6093"/><path d="m20.5173 15.8686a9.6991 9.6991 0 0 1 19.3082.1685"/><path d="m13.4527 19.7284a7.8343 7.8343 0 0 0 -.0272 10.01h.0272"/><path d="m8.0216 14.95a15.4041 15.4041 0 0 0 0 19.6054"/></g><circle cx="34.6708" cy="12.2733" r=".75"/></svg>