<svg viewBox="0 0 48 48" xmlns="http://www.w3.org/2000/svg"><g fill="none" stroke="#000" stroke-linecap="round" stroke-linejoin="round"><path d="m28.1666 42.9406v-17.0146"/><path d="m22.6111 44.5v-17.3974"/><path d="m19.8334 40.8938v-14.9678"/><path d="m25.3889 40.8938v-13.7912"/><circle cx="17.8761" cy="24.5685" r="2.3175"/><circle cx="30.1239" cy="24.5685" r="2.3175"/></g><circle cx="30.1239" cy="24.5685" r=".75"/><circle cx="17.8761" cy="24.5685" r=".75"/><path d="m30.2492 22.2562a24.873 24.873 0 0 0 2.0108-9.7974v-.6988a8.26 8.26 0 0 0 -8.26-8.26" fill="none" stroke="#000" stroke-linecap="round" stroke-linejoin="round"/><path d="m19.787 25.88a4.0563 4.0563 0 0 0 2.903 1.2226h2.62a4.0563 4.0563 0 0 0 2.903-1.2226" fill="none" stroke="#000" stroke-linecap="round" stroke-linejoin="round"/><path d="m24 3.5a8.26 8.26 0 0 0 -8.26 8.26v.6987a24.8738 24.8738 0 0 0 2.0109 9.7975" fill="none" stroke="#000" stroke-linecap="round" stroke-linejoin="round"/></svg>