<svg viewBox="0 0 48 48" xmlns="http://www.w3.org/2000/svg"><g fill="none" stroke="#000" stroke-linecap="round" stroke-linejoin="round"><path d="m24 4.5-15.046 10.6047 15.046 10.8393"/><path d="m8.8523 17.0785-2.0469 1.4427 15.046 10.8388"/><path d="m21.8514 29.36 2.1486 1.5483"/><path d="m8.954 23.3664 15.046 10.8393"/><path d="m8.954 27.6723 15.046 10.8392"/><path d="m8.954 32.6608 15.046 10.8392"/><path d="m8.954 15.1047v17.5561"/><path d="m24 25.944v4.9643"/><path d="m24 4.5 15.046 10.6047-15.046 10.8393"/><path d="m39.171 17.0949 2.0236 1.4263-15.046 10.8388"/><path d="m26.1486 29.36-2.1486 1.5483"/><path d="m39.046 23.3664-15.046 10.8393"/><path d="m39.046 27.6723-15.046 10.8392"/><path d="m39.046 32.6608-15.046 10.8392"/><path d="m39.046 15.1047v17.5561"/><path d="m24 25.944v4.9643"/><path d="m24 30.9083v12.5917"/></g></svg>