<svg viewBox="0 0 48 48" xmlns="http://www.w3.org/2000/svg"><g fill="none" stroke="#000"><g stroke-linecap="round" stroke-linejoin="round"><path d="m4.5 19.323a33.5006 33.5006 0 0 1 39-3.2981"/><path d="m41.1572 21.8253a33.3029 33.3029 0 0 0 -28.2689-.6359 33.468 33.468 0 0 1 6.7743-.7794 33.33 33.33 0 0 1 18.0937 5.3053"/><path d="m14.4764 30.7606c4.4309-2.5088 8.19-3.9887 13.6025-4.2435a33.579 33.579 0 0 0 -6.9818-.7349 27.667 27.667 0 0 0 -12.7228 3.02"/><path d="m17.103 36.7329a33.3311 33.3311 0 0 1 17.547-4.9611q.6341 0 1.2624.0234"/></g><path d="m4.5 19.323 3.8746 9.48"/><path d="m43.5 16.0253-2.3434 5.8"/><path d="m37.7734 25.7316-1.8134 6.0662"/><path d="m14.4764 30.7606 2.6258 5.9713"/></g></svg>