<svg viewBox="0 0 48 48" xmlns="http://www.w3.org/2000/svg"><g fill="none" stroke="#000" stroke-linecap="round" stroke-linejoin="round"><circle cx="30.6862" cy="37.7149" r="3.5996"/><circle cx="17.3138" cy="37.7149" r="3.5996"/><path d="m28.6164 31.4247-4.89 6.2848h-6.4108l4.908-6.2848z"/><path d="m30.6862 37.7149-2.8437-8.6209h-2.0913"/><path d="m21.75 29.436 1.9743 8.2762"/><path d="m20.4724 29.436h2.6619"/><path d="m10.6816 26.9972a59.4158 59.4158 0 0 1 -3.7795 16.1081q17.1024.79 34.1958 0a58.2659 58.2659 0 0 1 -3.78-16.1081"/><path d="m8.7019 26.9972v-2.34h30.5962v2.34z"/><path d="m10.6816 24.6575v-10.7986h6.3892v10.7986"/><path d="m20.4 24.6575v-12.5984"/><path d="m27.6 12.0591v12.5984"/><path d="m24 8.46v-3.96"/><path d="m22.2 6.3h3.6"/><path d="m30.9292 24.6575v-10.7986h6.3892v10.7986"/><path d="m20.4 12.0591a3.6 3.6 0 1 1 7.1992 0"/><path d="m27.6086 12.509h1.3426"/><path d="m20.4 12.509h-1.35"/><path d="m13.8472 12.1311-.689-1.61-1.7423.1708 1.0492-1.4019-1.0189-1.424 1.738.2081.7232-1.5941.689 1.61 1.7423-.1708-1.0487 1.4014 1.019 1.424-1.739-.2081z"/><path d="m34.0947 12.1311-.689-1.61-1.7423.1708 1.0493-1.4019-1.019-1.424 1.7381.2081.7232-1.5941.6889 1.61 1.7424-.1708-1.0493 1.4014 1.019 1.424-1.7381-.2081z"/></g></svg>