<svg viewBox="0 0 48 48" xmlns="http://www.w3.org/2000/svg"><g fill="none" stroke="#000" stroke-linecap="round" stroke-linejoin="round"><path d="m38.36 6.19h-1.07a1.79 1.79 0 0 0 -3.57 0h-19.42a1.79 1.79 0 0 0 -3.57 0h-1.07a2.88 2.88 0 0 0 -2.9 2.81v3.68h34.48v-3.62a2.87 2.87 0 0 0 -2.86-2.87z"/><path d="m41.24 12.71h-34.48v28a2.85 2.85 0 0 0 2.86 2.86h28.74a2.86 2.86 0 0 0 2.88-2.85z"/><path d="m12.38 18.75h23.24"/><path d="m12.5 25h18.82"/><path d="m12.38 31.25h23.24"/><path d="m12.5 37.5h18.82"/></g></svg>