<svg viewBox="0 0 48 48" xmlns="http://www.w3.org/2000/svg"><g fill="none" stroke="#000" stroke-linecap="round" stroke-linejoin="round"><path d="m7.48 5.5a2 2 0 0 0 -2 2v33a2 2 0 0 0 2 2h33.04a2 2 0 0 0 2-2v-33a2 2 0 0 0 -2-2z"/><path d="m32.956 28.1882v-8.3682h2.74a2.81 2.81 0 0 1 0 5.6208h-2.74"/><path d="m35.6956 25.4408 2.7394 2.7453"/><path d="m16.8519 19.82h5.544"/><path d="m19.6239 28.1882v-8.3682"/><path d="m9.6657 27.2713a2.3407 2.3407 0 0 0 2.0518.9169h1.2389a2.09 2.09 0 0 0 2.0876-2.092 2.09 2.09 0 0 0 -2.0876-2.0921h-1.3688a2.09 2.09 0 0 1 -2.0876-2.0921 2.09 2.09 0 0 1 2.0876-2.092h1.2389a2.3407 2.3407 0 0 1 2.0518.9169"/><path d="m26.552 19.812 1.04 3.199h3.364l-2.722 1.978 1.04 3.199-2.722-1.977-2.721 1.977 1.039-3.199-2.722-1.978h3.365z"/></g></svg>