<svg viewBox="0 0 48 48" xmlns="http://www.w3.org/2000/svg"><g fill="none" stroke="#000" stroke-linecap="round" stroke-linejoin="round"><path d="m41.15 24.77 2.35.23-2.12-11.17-10.65-1.53-11.63 2.17-3.53 11.39 11.43 4.36 3.73-17.92"/><path d="m29.94 34.59 10.79-5.14.53-5.91-12.81 3.22z"/><path d="m29.94 34.59-3.53-2"/><path d="m28.88 34-.52 2.1c-.76.4-1.27 0-1.73-.69l-.44-5.48"/><path d="m26.63 35.41c-.64.3-1.49 1-2.1-.78l-.42-5.48"/><path d="m24.53 34.63c-1.44.77-2.09.32-2.1-1.13l-.23-5.1"/><path d="m22.36 32-13.19-7.65 1.88-1.28 4.83 1.83"/><path d="m17.1 20.92-5.47-2.62-4-.08s-.45-.54 0-.54l4.23-.07 6.27.07"/><path d="m35 20-.17 3.49 1.17 1.16 1-.25.93-1.28-.27-3.34z"/><path d="m29.94 16.05 12 .46"/><path d="m14.41 17.63c-.1-1.22-.11-2.9 1.32-3.44 1.17-.73 2.26 0 3.37.28"/><path d="m11.28 17.62.3-4 4.1-.28.05.89"/><path d="m14.42 27.41-.53 5.8-2.19-7.39"/><path d="m9.17 24.35-4.67 1.21 4.82-3.56 1.73 1"/><path d="m11.45 15.38-.83-1c-1.74.04-1.35 1.62-1.33 2.62l2.16-1.57"/><path d="m8 17.67c-.43-2 .24-3 1.67-3"/><path d="m7.51 23.37a2.73 2.73 0 0 1 -1.51-2.86"/><path d="m7.65 21.17-3.13-1.31 3.59-.21z"/><path d="m6.29 19.75c-.55-1.16-.06-1.75 1.16-1.75"/><path d="m7.65 21.17 1.67.83"/><path d="m8.11 19.65 1.68-1.38"/><path d="m8.34 15.13a3.77 3.77 0 0 0 -1.44-3.06 9.5 9.5 0 0 1 3.31 2.39"/><path d="m15.68 13.3-.28-1.51h2.39l3 2.43"/><path d="m31.66 23-.12-.88"/><path d="m40.19 21 .15.72"/></g></svg>