<svg viewBox="0 0 48 48" xmlns="http://www.w3.org/2000/svg"><g fill="none" stroke="#000" stroke-linecap="round" stroke-linejoin="round"><path d="m17.3676 9.9264c-7.1563.9377-6.8932 8.3633-6.8932 12.5257-4.0877 2.4646-4.5686 4.8091-4.5686 7.6344s3.0658 9.1373 9.017 9.1373h17.403c4.2079 0 9.3476-9.7171 9.3476-13.0534 0-3.7271-2.8253-3.9588-2.8253-3.9588s3.2461-1.3826 3.2461-4.0877-2.8854-3.186-7.0333-3.186-5.7709.9621-7.8148 6.1321c0-2.6282.3153-8.37-4.2227-10.46"/><path d="m26.7051 26.84c1.0821 1.7433 1.9838 2.9455 3.9074 2.9455a4.9014 4.9014 0 0 0 4.1475-2.9455"/><path d="m22.4972 19.6267v-5.0495"/><path d="m17.0268 19.6267h-8.7766"/><path d="m15.2234 14.5772v5.0495"/><path d="m17.3676 9.9264a9.1577 9.1577 0 0 1 5.171-3.87c2.3773-.701 4.2023-.141 4.7662.3645a1.0958 1.0958 0 0 1 -.4123 1.886c-2.5684.69-3.28.427-4.1023 2.8065"/><path d="m12.9565 39.0082s-2.7977 1.3878-2.7977 3.4918h20.1381a30.6542 30.6542 0 0 0 -.1954-3.2762"/><path d="m20.0926 39.2238v3.2762"/><path d="m10.4744 22.4521c.9092-.6087 3.186-.3607 3.186-.3607"/></g></svg>