<svg viewBox="0 0 48 48" xmlns="http://www.w3.org/2000/svg"><g fill="none" stroke="#000" stroke-linecap="round" stroke-linejoin="round"><path d="m33.9978 4.6277a9.3577 9.3577 0 0 1 8.4671 10.1705c-.47 5.1467-4.8547 8.1237-10.17 8.4672 0 0-2.98.4263-8.6675-1.476a20.1536 20.1536 0 0 0 -11.018-.3107s4.5439-18.6935 21.39-16.8509"/><path d="m14.0022 43.3723a9.3577 9.3577 0 0 1 -8.4671-10.1705c.47-5.1465 4.8547-8.1237 10.1705-8.4672 0 0 2.98-.4263 8.6675 1.476a20.1536 20.1536 0 0 0 11.018.3107s-4.5439 18.6935-21.39 16.8509"/></g></svg>