<svg viewBox="0 0 48 48" xmlns="http://www.w3.org/2000/svg"><g fill="none" stroke="#000" stroke-linecap="round" stroke-linejoin="round"><path d="m24 15.68 2.28 4.62 5.11.75-3.7 3.59.88 5.09-4.57-2.4-4.57 2.4.88-5.09-3.7-3.59 5.11-.75z"/><path d="m16.61 13a12.65 12.65 0 1 0 14.78 0"/><path d="m22.31 35.8c-4.3-.77-6-.28-6.87.53-1.57 1.41-1.74 2.9-2.34 3.78.86.24 1.74 1.44 4.41 1.44a5.1 5.1 0 0 0 4.8-5.75z"/><path d="m14.12 31.16c-2.38-3.24-4.44-3.64-5.61-3.5-2.06.24-3 1.34-4 1.7.55.68.57 2.13 2.71 3.64a4.78 4.78 0 0 0 6.9-1.84z"/><path d="m16.61 13a3.85 3.85 0 0 0 .57-2.53c-.24-2.06-1.34-3-1.7-4-.68.53-2.13.53-3.64 2.69a4.73 4.73 0 0 0 1.77 6.84"/><path d="m11.48 21.41c-.13-2.25-.93-3.15-1.62-3.7-1.63-1.29-3.09-1.21-4-1.64-.09.88-1.1 1.92-.66 4.5a4.82 4.82 0 0 0 6.22 3.57"/><path d="m25.69 35.8c4.3-.77 6-.28 6.87.53 1.57 1.41 1.74 2.9 2.34 3.78-.86.24-1.74 1.44-4.41 1.44a5.1 5.1 0 0 1 -4.8-5.75z"/><path d="m33.88 31.16c2.38-3.24 4.44-3.64 5.61-3.5 2.06.24 3 1.34 4 1.7-.49.64-.56 2.13-2.7 3.64a4.78 4.78 0 0 1 -6.91-1.84z"/><path d="m31.39 13a3.85 3.85 0 0 1 -.57-2.53c.24-2.06 1.34-3 1.7-4 .68.55 2.13.58 3.64 2.71a4.73 4.73 0 0 1 -1.77 6.82"/><path d="m36.52 21.41c.13-2.25.93-3.15 1.62-3.7 1.63-1.29 3.09-1.21 4-1.64.09.88 1.1 1.92.66 4.5a4.82 4.82 0 0 1 -6.22 3.57"/></g></svg>