<svg viewBox="0 0 48 48" xmlns="http://www.w3.org/2000/svg"><path d="m5.58 34.32a.22.22 0 0 1 -.26-.15 9 9 0 0 1 -.32-2.68c0-3.17 1.83-7.38 4-11.55 3.44-6.7 6.79-13.13 15.59-13.1 6.46.07 9.3 3.79 13 8.7.91 1.24 1.77 2.3 2.55 3.19a.24.24 0 0 1 0 .33 106 106 0 0 1 -16.44 9.32 169 169 0 0 1 -18.12 5.94zm10.05 5.31a15.17 15.17 0 0 1 -7-1.42.22.22 0 0 1 -.1-.31.29.29 0 0 1 .15-.12c4.38-1 12.18-2.86 18-4.58 6.3-1.83 13.32-6.83 16.54-9.29a.21.21 0 0 1 .31 0 .41.41 0 0 1 .05.09 9.87 9.87 0 0 1 .46 3.1c-.13 11.9-25.04 12.54-28.41 12.53z" fill="none" stroke="#000" stroke-linecap="round" stroke-linejoin="round"/></svg>