<svg viewBox="0 0 48 48" xmlns="http://www.w3.org/2000/svg"><path d="m43.1 19.64c-.33-1.48 0-3.2-.62-4.54s-2.23-2.1-3.16-3.32-1.32-2.88-2.54-3.78-2.92-1-4.28-1.66-2.45-2-3.93-2.33-3 .42-4.57.42-3.13-.72-4.57-.4-2.6 1.69-3.93 2.34-3.12.69-4.28 1.63-1.6 2.62-2.54 3.79-2.5 2-3.16 3.32-.29 3.06-.62 4.54-1.4 2.81-1.4 4.35 1.07 2.93 1.4 4.36 0 3.2.62 4.54 2.23 2.15 3.16 3.32 1.32 2.88 2.54 3.78 2.92.93 4.28 1.63 2.45 2 3.93 2.33 3-.42 4.57-.42 3.13.72 4.57.4 2.6-1.69 3.93-2.34 3.12-.69 4.28-1.62 1.6-2.64 2.54-3.81 2.5-2 3.16-3.32.29-3.06.62-4.54 1.4-2.8 1.4-4.34-1.07-2.9-1.4-4.33zm-25.16 15.08a1.6 1.6 0 0 1 -1.12.46h-4v-4a1.6 1.6 0 0 1 .46-1.12l13.27-13.28 4.66 4.66zm16.88-16.88-3.61 3.6-4.66-4.66 3.61-3.6a1.3 1.3 0 0 1 1.8 0l2.9 2.91a1.23 1.23 0 0 1 -.04 1.75z" fill="none" stroke="#000" stroke-linecap="round" stroke-linejoin="round"/></svg>