<svg viewBox="0 0 48 48" xmlns="http://www.w3.org/2000/svg"><path d="m5.5 19.6v20.9a2 2 0 0 0 2 2h33a2 2 0 0 0 2-2v-33a2 2 0 0 0 -2-2h-33a2 2 0 0 0 -2 2z" fill="none" stroke="#000" stroke-linecap="round" stroke-linejoin="round"/><rect fill="none" height="7.3812" rx="2.7853" stroke="#000" stroke-linecap="round" stroke-linejoin="round" width="5.5707" x="21.9919" y="22.3904"/><circle cx="30.3968" cy="18.9784" r=".75"/><g fill="none" stroke="#000" stroke-linecap="round" stroke-linejoin="round"><path d="m30.3968 22.3904v7.3812"/><path d="m9.6754 29.1489a3.1333 3.1333 0 0 0 2.2908.6227h.6249a1.8433 1.8433 0 0 0 1.8413-1.8453 1.8433 1.8433 0 0 0 -1.8413-1.8453h-1.25a1.8433 1.8433 0 0 1 -1.8411-1.8453 1.8433 1.8433 0 0 1 1.8413-1.8457h.6249a3.1328 3.1328 0 0 1 2.2908.6228"/><path d="m18.3313 20.0925v8.2864a1.3927 1.3927 0 0 0 1.3927 1.3927h.4178"/><path d="m16.869 22.3904h2.9246"/><path d="m38.5 28.3687a2.7842 2.7842 0 0 1 -2.4186 1.4029 2.7854 2.7854 0 0 1 -2.7854-2.7853v-1.8105a2.7854 2.7854 0 0 1 2.7854-2.7858 2.7843 2.7843 0 0 1 2.4158 1.3981"/></g></svg>