<svg viewBox="0 0 48 48" xmlns="http://www.w3.org/2000/svg"><g fill="none" stroke="#000" stroke-linecap="round" stroke-linejoin="round"><path d="m12.6925 13.9766a15.4452 15.4452 0 0 1 2.6882.2253 12.222 12.222 0 0 1 3.0415.9319 2.9692 2.9692 0 0 1 1.3722 1.0241 2.8868 2.8868 0 0 1 .3226 1.08c.3277 1.6026.6708 4.7516.7681 5.5094v8.6432h-1.3774v1.3773a1.1777 1.1777 0 1 1 -2.35 0v-1.3769h-8.93v1.3773a1.1777 1.1777 0 1 1 -2.35 0v-1.3773h-1.3777v-8.6432c.0819-.7578.425-3.8863.7527-5.5094a2.8868 2.8868 0 0 1 .3226-1.08 2.9692 2.9692 0 0 1 1.3722-1.0241 12.222 12.222 0 0 1 3.0415-.9319 15.4445 15.4445 0 0 1 2.7035-.2257zm-5.3968 3.5074a.7219.7219 0 0 0 -.6912.6247l-.65 4.721a.722.722 0 0 0 .5939.8141h12.1656a.7271.7271 0 0 0 .7271-.7066.6321.6321 0 0 0 0-.0973l-.65-4.7209a.722.722 0 0 0 -.7169-.6247h-10.7529zm-.2355 8.94a1.234 1.234 0 1 0 1.2288 1.2392v-.01a1.2288 1.2288 0 0 0 -1.229-1.2291zm11.2647 0a1.234 1.234 0 1 0 1.234 1.234v-.005a1.2238 1.2238 0 0 0 -1.2189-1.2289z"/><path d="m5.8774 31.3909h13.6303"/><path d="m8.4068 16.0145h8.5407"/><path d="m23.9573 40.3851v-32.7702"/><path d="m41.8805 13.7214h-13.1461a1.3319 1.3319 0 0 0 -1.3317 1.3092l-.2876 16.8665a1.3319 1.3319 0 0 0 1.3317 1.3546h13.7213a1.3318 1.3318 0 0 0 1.3319-1.3546l-.2876-16.8665a1.3318 1.3318 0 0 0 -1.3319-1.3092z"/><circle cx="30.5649" cy="30.4591" r="1.1203"/><path d="m35.3075 13.7214v-2.0912"/><path d="m30.565 33.252v.971l-2.147 2.147"/><path d="m31.162 12.209.579-.579h3.566"/><circle cx="40.05" cy="30.4591" r="1.1203"/><path d="m40.05 33.252v.971l2.147 2.147"/><path d="m39.453 12.209-.579-.579h-3.567"/><path d="m31.9839 20.6298v6.1989"/><path d="m35.1208 27.9864-3.1369-4.2571"/><path d="m40.651 16.896h-10.687l-.333 11.09h11.353z"/></g></svg>