<svg viewBox="0 0 48 48" xmlns="http://www.w3.org/2000/svg"><g fill="none" stroke="#000"><circle cx="36.4" cy="12.6" r="8.5" stroke-linecap="round" stroke-linejoin="bevel"/><path d="m41.3 19.5v19.5a2 2 0 0 1 -2 2h-29.3a2 2 0 0 1 -2-2v-29.3a2 2 0 0 1 2-2h19.4" stroke-linecap="round" stroke-linejoin="bevel"/><path d="m25.2 41.1v-12.1c1-3.6 10.3-6.4 16.2-4.3"/><path d="m29.4 25.5 6.9 7 5-4.8"/><path d="m29.5 17.4-21.6 21.5"/><path d="m31.6 19.6-21.6 21.5"/><path d="m16.2 15.8h4.9a4.87 4.87 0 0 1 -4.9 5 5 5 0 0 1 0-10 4.3 4.3 0 0 1 2.5.7" stroke-linecap="round" stroke-linejoin="round"/></g></svg>