<svg viewBox="0 0 48 48" xmlns="http://www.w3.org/2000/svg"><g fill="none" stroke="#000" stroke-linecap="round" stroke-linejoin="round"><path d="m14.7371 16.614c-2.2655.8867-3.5067 2.9314-3.918 5.95-3.3244 2.9991-4.0751 5.8559-.6059 9.0134.1883 5.0824 3.5783 8.0781 9 9.7494a5.4987 5.4987 0 0 0 4.7868 2.1732 5.4987 5.4987 0 0 0 4.7865-2.173c5.422-1.6713 8.812-4.667 9-9.7494 3.4692-3.1575 2.7185-6.0143-.6059-9.0134-.4113-3.0188-1.6525-5.0635-3.918-5.95"/><path d="m14.7371 16.614c-3.6886-1.8346-4.9291-6.3308-5.6515-10.794 3.6862-1.0383 14.9144-4.4162 14.9144 6.4343 0 3.5409-4.1591 6.8983-9.2629 4.3597z"/><path d="m33.2629 16.614c3.6886-1.8346 4.9291-6.3308 5.6515-10.7944-3.6862-1.0379-14.9144-4.4158-14.9144 6.4347 0 3.5409 4.1591 6.8983 9.2629 4.3597z"/><path d="m21.4048 12.6154a17.3324 17.3324 0 0 0 -7.8893-4.6146"/><path d="m26.7956 12.6154a17.3324 17.3324 0 0 1 7.8893-4.6146"/><ellipse cx="24.0027" cy="28.954" rx="9.5111" ry="9.515"/><path d="m19.56 26.8928v4.186a1.0443 1.0443 0 0 0 1.5647.9082l1.5181-.8726q.3108-.1787.6221-.3567v-3.1846a.6186.6186 0 0 0 -.3113-.5372l-1.8289-1.0514a1.0454 1.0454 0 0 0 -1.5647.9083z"/><path d="m23.2649 30.9867v-4a1.1509 1.1509 0 0 1 1.7242-.9891l.0193.0111 3.4677 1.9892a1.1431 1.1431 0 0 1 .4035 1.569 1.2226 1.2226 0 0 1 -.4035.4091l-.0193.0111-3.4677 1.9892a1.1536 1.1536 0 0 1 -1.57-.418 1.1367 1.1367 0 0 1 -.1542-.5716z"/></g></svg>