<svg viewBox="0 0 48 48" xmlns="http://www.w3.org/2000/svg"><g fill="none" stroke="#000" stroke-linecap="round" stroke-linejoin="round"><path d="m25.4378 22.0949-2.8756 3.8102"/><path d="m25.4378 25.9051-2.8756-3.81"/><path d="m31.8864 3.9276a21.6385 21.6385 0 0 1 13.1945 24.0787c-2.1925 14.7067-21.2239 22.6186-33.1963 13.8005-12.6653-7.79-12.4707-28.4.34-35.9491l3.7749-1.9438"/><path d="m12.3876 28.9365c.8976.748 1.6455 1.0471 3.59 1.0471h.4488a3.96 3.96 0 0 0 3.8894-3.8893 3.96 3.96 0 0 0 -3.8894-3.8894h-4.039v-4.1885h7.9286"/><path d="m27.757 28.9365c.8976.748 1.6455 1.0471 3.59 1.0471h.4488a3.96 3.96 0 0 0 3.8893-3.8893 3.96 3.96 0 0 0 -3.8893-3.8894h-4.0388v-4.1885h7.9283"/></g></svg>