<svg viewBox="0 0 48 48" xmlns="http://www.w3.org/2000/svg"><path d="m25.5783 8.9437 17.395 10.0553a1.0538 1.0538 0 0 1 0 1.8248l-17.395 10.0552a3.16 3.16 0 0 0 -1.5783 2.7355v4.5317a1.0519 1.0519 0 0 0 1.5783.9107l7.27-4.2026a3.16 3.16 0 0 0 1.5783-2.7354v-4.6333a3.16 3.16 0 0 0 -1.5782-2.7356l-7.27-4.2025a3.16 3.16 0 0 1 -1.5784-2.7354v-7.9583a1.0519 1.0519 0 0 1 1.5783-.9107zm-3.1566 0-17.395 10.0553a1.0538 1.0538 0 0 0 0 1.8248l17.395 10.0552a3.16 3.16 0 0 1 1.5783 2.7355v4.5317a1.0519 1.0519 0 0 1 -1.5783.9107l-7.27-4.2026a3.16 3.16 0 0 1 -1.5783-2.7354v-4.6333a3.16 3.16 0 0 1 1.5782-2.7356l7.27-4.2025a3.16 3.16 0 0 0 1.5784-2.7354v-7.9583a1.0519 1.0519 0 0 0 -1.5783-.9107z" fill="none" stroke="#000" stroke-linecap="round" stroke-linejoin="round"/></svg>