<svg viewBox="0 0 48 48" xmlns="http://www.w3.org/2000/svg"><g fill="none" stroke="#000" stroke-linecap="round" stroke-linejoin="round"><path d="m10.96 4.14h3.56v16.93h-3.56z" transform="matrix(.70710678 .70710678 -.70710678 .70710678 12.65 -5.32)"/><path d="m30.95 19.25h3.56v20.97h-3.56z" transform="matrix(.70710678 .70710678 -.70710678 .70710678 30.61 -14.43)"/><path d="m18.44 17.77h3.56v11.83h-3.56z" transform="matrix(.70710678 .70710678 -.70710678 .70710678 22.67 -7.36)"/><path d="m24.74 18.39h3.56v16.54h-3.56z" transform="matrix(.70710678 .70710678 -.70710678 .70710678 26.62 -10.95)"/><path d="m14.28 11.98h3.56v13.18h-3.56z" transform="matrix(.70710678 .70710678 -.70710678 .70710678 17.84 -5.91)"/><path d="m40.66 28.56 1.84 14.08-13.81-2.11z"/><path d="m37.92 41.92 3.86-3.87"/></g></svg>