<svg viewBox="0 0 48 48" xmlns="http://www.w3.org/2000/svg"><g fill="none" stroke="#000" stroke-linecap="round" stroke-linejoin="round"><path d="m41 32.5 2.5-24h-29.5c-3.3 0-6.6581 3.7179-7 7l-2.5 24h29.5c3.3 0 6.6581-3.7179 7-7z"/><path d="m12.1 20.6a2.3843 2.3843 0 0 0 2 .9h1.2a2 2 0 0 0 0-4h-1.3a2 2 0 0 1 0-4h1.2a2.1471 2.1471 0 0 1 2 .9"/><path d="m22.7036 13.5v8"/><path d="m28 13.5 2 8 2-8 2 8 2-8"/><path d="m17 30.5h5.3"/><path d="m25.7 34.5v-8h1.3a4 4 0 0 1 0 8z"/><path d="m20 13.5h5.408"/><path d="m22.3 26.5v8"/><path d="m17 26.5v8"/></g></svg>