<svg viewBox="0 0 48 48" xmlns="http://www.w3.org/2000/svg"><g fill="none" stroke="#000" stroke-linecap="round" stroke-linejoin="round"><path d="m23.6946 8.5h-17.1946a2.0006 2.0006 0 0 0 -2 2v27a2 2 0 0 0 2 2h35a2 2 0 0 0 2-2v-27a2 2 0 0 0 -2-2h-.2"/><circle cx="32.5" cy="11.5" r="9.3"/><path d="m28.6256 11.9622 2.2255 2.4178 6.0789-5.8132"/><path d="m43.5 27.6033a19.6622 19.6622 0 0 1 -21.4773.3428 19.406 19.406 0 0 1 -8.8143-19.4206"/><path d="m18.0438 39.4944a30.9843 30.9843 0 0 1 -13.5438-13.5635"/></g></svg>