<svg viewBox="0 0 48 48" xmlns="http://www.w3.org/2000/svg"><g fill="none" stroke="#000" stroke-linecap="round"><circle cx="23.4956" cy="23.5702" r="20.0704" stroke-linejoin="round"/><path d="m22.4 3.6786s-4.7444 4.8833.1153 9.0026 3.8832 4.4247 6.088 1.5205 6.5767 2.6026 6.4416 4.9583-1.7139 2.772-4.767-.0506-5.9893 3.3371-.8869 6.0269 12.589 1.3988 14.169-1.4656"/><path d="m3.768 27.2668s.5945-6.181 6.4673-5.19 6.3883 4.08 6.4346 6.9546 7.2707 1.6379 8.8331 3.6508 3.073 6.1126-2.0625 7.8062-8.2179-1.566-11.9621-1.0049"/><path d="m42.0885 30.9261s-5.2811-.9468-7.4834 2.4961-1.58 3.4992 1.6688 5.1472"/><g stroke-linejoin="round"><circle cx="10.4647" cy="16.7046" r="2.8561"/><path d="m35.4341 7.3005c4.04-2.2414 7.16-2.9584 8.48-1.6384 2.7859 2.7861-3.5017 13.5909-14.0441 24.1335s-21.3471 16.8306-24.133 14.0437c-1.2361-1.2361-.6861-4.0507 1.2292-7.7205"/></g></g></svg>