<svg fill="#fff" viewBox="0 0 48 48" xmlns="http://www.w3.org/2000/svg"><g fill="none" stroke="#000" stroke-linecap="round" stroke-linejoin="round" stroke-miterlimit="90"><path d="m23.1 5.5c10.2 0 18.5 8.3 18.5 18.5s-8.3 18.5-18.5 18.5-18.5-8.3-18.5-18.5 8.3-18.5 18.5-18.5z"/><path d="m34.4 9.1c9.1-5.9 12-4.2 6.5 3.8s-17.4 19.5-26.5 25.4-12 4.2-6.5-3.8"/><path d="m4.8 26.5 3-4.3 4.2-.9 3.1 1.9 2 3 .9 2.9 4 1.1"/><path d="m12.1 14.2c1.4 0 2.5 1.1 2.5 2.5s-1.1 2.5-2.5 2.5-2.5-1.1-2.5-2.5 1.1-2.5 2.5-2.5z"/><path d="m35.6 22.3h1.4l1.9-1.7 1.5-3.3"/><path d="m28.4 24.9c-1.5.1-2.9-1-3-2.6-.1-1.5 1-2.9 2.6-3 1.5-.1 2.9 1 3 2.6v.4"/><path d="m34.3 38.7-1.3-3.3-1.8-.3.2-2.3 4.8-3.2 4.8-.5"/><path d="m19.8 5.8v5.5l2.2 3 3.8 1.8 2.9-1.4 2.9 1.1 1.1 2.3.3 1.7"/><path d="m25.3 32.7.6 2.4-1.7 2.6-4 1.8-5.7.9"/></g></svg>