<svg viewBox="0 0 48 48" xmlns="http://www.w3.org/2000/svg"><g fill="none" stroke="#000" stroke-linecap="round" stroke-linejoin="round"><path d="m40.5 5.5h-33a2 2 0 0 0 -2 2v33a2 2 0 0 0 2 2h33a2 2 0 0 0 2-2v-33a2 2 0 0 0 -2-2z"/><path d="m38.9185 24.65-.4757 2.6981a2.488 2.488 0 0 1 -2.3511 1.9987 1.66 1.66 0 0 1 -1.31-.5854"/><path d="m39.5 21.3518-.5815 3.2982a2.4877 2.4877 0 0 1 -2.351 1.9986 1.631 1.631 0 0 1 -1.6463-1.9986l.5815-3.2978"/><path d="m8.5 25.7723a1.8577 1.8577 0 0 0 1.8057.8759h1.1836a2.4852 2.4852 0 0 0 2.3467-1.9982 1.6292 1.6292 0 0 0 -1.6419-1.9987h-1.3077a1.6292 1.6292 0 0 1 -1.6419-1.9986 2.4853 2.4853 0 0 1 2.3467-1.9987h1.1836a1.8577 1.8577 0 0 1 1.8057.876"/><path d="m20.114 24.65a2.4879 2.4879 0 0 1 -2.3511 1.9986 1.6309 1.6309 0 0 1 -1.6462-1.9986l.5815-3.2978"/><path d="m20.561 26.6482a.6524.6524 0 0 1 -.6585-.7995l.7929-4.4969"/><path d="m22.7741 23.35a2.4878 2.4878 0 0 1 2.3511-1.9986 1.631 1.631 0 0 1 1.6462 1.9986l-.2291 1.3a2.4877 2.4877 0 0 1 -2.351 1.9986 1.631 1.631 0 0 1 -1.6463-1.9986"/><path d="m22.1926 26.6482 1.4097-7.9946"/><path d="m29.1014 23.35a2.4879 2.4879 0 0 1 2.3511-1.9986 1.631 1.631 0 0 1 1.6462 1.9986l-.2287 1.3a2.4877 2.4877 0 0 1 -2.351 1.9986 1.6309 1.6309 0 0 1 -1.6466-1.9986"/><path d="m28.5199 26.6482 1.4097-7.9946"/></g></svg>