<svg viewBox="0 0 48 48" xmlns="http://www.w3.org/2000/svg"><g fill="none" stroke="#000" stroke-linecap="round" stroke-linejoin="round"><path d="m8.14 5.5h10a2.64 2.64 0 0 1 2.64 2.64v26.74a7.62 7.62 0 0 1 -7.62 7.62 7.62 7.62 0 0 1 -7.66-7.62v-26.74a2.64 2.64 0 0 1 2.64-2.64z"/><path d="m20.55 7.15a2.64 2.64 0 0 1 2.95-.15l8.63 5a2.66 2.66 0 0 1 1.3 2.61"/><path d="m20.74 21.68 11.73-6.77a2.65 2.65 0 0 1 3.61 1l5 8.63a2.65 2.65 0 0 1 -.18 2.91"/><path d="m20.74 27.26h19.12a2.64 2.64 0 0 1 2.64 2.64v10a2.64 2.64 0 0 1 -2.64 2.64h-26.74"/><circle cx="13.12" cy="34.88" r="3.3"/></g></svg>