<svg viewBox="0 0 48 48" xmlns="http://www.w3.org/2000/svg"><g fill="none" stroke="#000" stroke-linecap="round" stroke-linejoin="round"><path d="m17.15 10.82h13.7a4.22 4.22 0 0 1 4.22 4.18v26.39a2.11 2.11 0 0 1 -2.07 2.11h-18a2.11 2.11 0 0 1 -2.11-2.11v-26.39a4.22 4.22 0 0 1 4.26-4.18z"/><path d="m28.22 4.5h-8.44l-1.05 6.32h10.54z"/><circle cx="24" cy="7.66" r="1.5"/><path d="m12.93 18.2h22.14"/><path d="m12.93 38.23h22.14"/><path d="m19.73 33.57a3.85 3.85 0 0 0 3.36 1.5h2a3.43 3.43 0 0 0 3.42-3.43 3.42 3.42 0 0 0 -3.42-3.42h-2.21a3.43 3.43 0 0 1 -3.42-3.43 3.43 3.43 0 0 1 3.42-3.43h2a3.83 3.83 0 0 1 3.36 1.51"/></g></svg>