<svg viewBox="0 0 48 48" xmlns="http://www.w3.org/2000/svg"><g fill="none" stroke="#000" stroke-linecap="round" stroke-linejoin="round"><path d="m18.41 5.5v37"/><path d="m30.5 5.5v37"/><path d="m9.94 15.35h3.99"/><path d="m9.94 8.47 2-1.09"/><path d="m11.94 7.38v7.97"/><path d="m34.44 14.83a2.78 2.78 0 0 0 2.1.61h.27a2.32 2.32 0 0 0 2.28-2.28 2.32 2.32 0 0 0 -2.28-2.28h-2.37v-2.46h4.65"/><path d="m26.35 28.24v-8l-4.29 5.38h5.29"/><circle cx="37.07" cy="25.57" r="2.69"/><path d="m39.46 21.19a2.45 2.45 0 0 0 -2.19-1h-.2a2.69 2.69 0 0 0 -2.7 2.69v2.69"/><path d="m42.5 18h-37"/><path d="m42.5 30.46h-37"/></g></svg>