<svg viewBox="0 0 48 48" xmlns="http://www.w3.org/2000/svg"><g fill="none" stroke="#000" stroke-linecap="round" stroke-linejoin="round"><path d="m18.41 5.5v37m12.09-37v37m-20.467-27.873a2.78 2.78 0 0 0 2.1.61h.27a2.32 2.32 0 0 0 2.28-2.28 2.32 2.32 0 0 0 -2.28-2.28h-2.37v-2.46h4.65m27.817 9.783h-37m37 12.46h-37m19.561-2.362a2.0059 2.0059 0 0 0 2-2 2.0059 2.0059 0 0 0 -2-2 2.0059 2.0059 0 0 0 2-2 2.0059 2.0059 0 0 0 -2-2m-3.3 7.4a3.2533 3.2533 0 0 0 2.5.7h.8m-3.3-7.4a3.4024 3.4024 0 0 1 2.5-.7h.8"/><circle cx="37.068" cy="35.611" r="2.7"/><path d="m34.668 40.011a2.456 2.456 0 0 0 2.2 1h.2a2.6888 2.6888 0 0 0 2.7-2.7v-2.7m-17.844-25.221a2.6692 2.6692 0 0 1 2.6-2.7 2.6871 2.6871 0 0 1 1.9 4.6c-1.1.9-4.5 3.5-4.5 3.5h5.3"/></g></svg>