<svg viewBox="0 0 48 48" xmlns="http://www.w3.org/2000/svg"><g fill="none" stroke="#000" stroke-linecap="round" stroke-linejoin="round"><circle cx="35.02" cy="22.81" r="4.81"/><path d="m15.47 24.73v9a9.8 9.8 0 0 0 19.6 0v-6.11"/><path d="m15.47 25.87h-3.1a3.11 3.11 0 0 1 -3.09-2.82l-1.09-11.56a4.59 4.59 0 0 1 2.31-4.41l.1-.08"/><circle cx="12.44" cy="6.44" r="1.94"/><path d="m15.47 25.87h3.1a3.11 3.11 0 0 0 3.1-2.82l1.08-11.56a4.58 4.58 0 0 0 -2.31-4.41l-.1-.08"/><circle cx="18.5" cy="6.44" r="1.94"/></g></svg>