<svg viewBox="0 0 48 48" xmlns="http://www.w3.org/2000/svg"><g fill="none" stroke="#000" stroke-linecap="round" stroke-linejoin="round"><path d="m24.0871 22.5469a10.64 10.64 0 0 0 -5.1417 3.89c-1.52 2.1908-5.5442 7.78-5.5442 9.97s6.1254 8.0931 6.1254 8.0931-8.54-3.1745-9.3893-6.1254a36.3973 36.3973 0 0 1 -.8942-10.82c.2682-2.5932 2.1908-9.8811 3.2192-11.446s8.9422-11.5355 11.6248-12.6086c2.638.8495 6.3043 5.0523 8.54 7.8691s6.4384 13.4581 6.2149 15.8724-1.431 12.1614-2.1911 13.6369a29.1777 29.1777 0 0 0 -3.13-6.9749c-.5366-.9389-5.1865-8.3163-5.1865-8.3163s-3.1295-2.6826-4.2473-3.0403z"/><path d="m14.9149 32.5828c1.2454 4.8113 6.6713 8.9512 8.8667 8.9512 1.7563 0 8.6876-3.5754 9.0012-8.8444"/><path d="m19.3843 25.8454c.2181.65-.4405 3.92-1.3108 4.5782 0 0 6.7252-.9515 7.4908-7.015-.0577 2.8515-.9751 5.9094-2.3394 7.015 2.2817-.4705 5.4761-4.2547 5.4761-4.2547"/><path d="m22.5192 39.2445a6.2746 6.2746 0 0 1 2.7286 0"/><path d="m24 12.6171-3.4018 2.3523"/><path d="m22.449 15.455-2.384 1.82 2.234 2.807-3.943 2.415"/><path d="m24 15.973-1.63 1.615 1.63 2.399"/><path d="m24 12.6171 3.4018 2.3523"/><path d="m25.551 15.455 2.384 1.82-2.234 2.807 3.943 2.415"/><path d="m24 15.973 1.63 1.615-1.63 2.399"/><path d="m15.58 31.46a5.9192 5.9192 0 0 0 5.0027 1.8086"/><path d="m20.5825 33.2688a5.6784 5.6784 0 0 0 -3.7676-3.734"/><path d="m31.26 30.2445a5.6041 5.6041 0 0 0 -4.64 2.5862 4.359 4.359 0 0 0 5.4474-1.2931"/><path d="m29.802 31.7751-.5104.2039"/><path d="m17.6266 31.4602.588.2964"/><path d="m26.507 30.4236a14.3736 14.3736 0 0 1 3.76-1.763"/><path d="m21.3762 31.1238a14.5072 14.5072 0 0 0 -1.3686-1.231"/><path d="m18.8831 28.9894c-.4088-.2207-1.2274-.6968-1.2274-.6968"/><path d="m23.2717 36.0493a1.3975 1.3975 0 0 0 1.0875 0"/></g></svg>