<svg viewBox="0 0 48 48" xmlns="http://www.w3.org/2000/svg"><g fill="none" stroke="#000" stroke-linecap="round" stroke-linejoin="round"><path d="m32 41.56c-2.11-3.6-2.38-5.15-2.38-6.82s5.26-6.43 5.26-11a10.94 10.94 0 0 0 -11.1-10.48c-7.13 0-10 5.16-10 8.93s-1.94 5-1.94 5.82 1.71 1.44 1.71 1.44a10 10 0 0 0 .23 2.88c.31.92-.95 3.55 2.66 3.55 1 0 1-.56 2.21-.56s2.17 2.11 2.17 4a14.22 14.22 0 0 1 -.82 4.18"/><path d="m18.14 22.25c2.66 2.81 7 7.5 6.58 15.63"/><path d="m27.57 40.06c-1.26-2.69-2.11-9.12 1.14-16.44"/><path d="m20.4 21.64c.92 0 .92.79 1.85.79s.93-.79 1.86-.79.93.79 1.85.79.93-.79 1.86-.79"/><path d="m24 10.04v-5.54"/><path d="m31.48 11.92 3.91-3.91"/><path d="m36.71 17.45h5.54"/><path d="m16.52 11.92-3.91-3.91"/><path d="m11.29 17.45h-5.54"/></g></svg>