<svg viewBox="0 0 48 48" xmlns="http://www.w3.org/2000/svg"><g fill="none" stroke="#000" stroke-linecap="round" stroke-linejoin="round"><path d="m40.55 5.5h-5.66l-3.89 4.63h7.76l-14.38 15.09h7l-19 13.68 8-11.46h-4.87l11.39-15h-7.25l5.35-6.94h-17.55a2 2 0 0 0 -1.95 2v33.1a2 2 0 0 0 2 2h33.1a2 2 0 0 0 2-2v-33.15a2 2 0 0 0 -2.05-1.95z"/><path d="m33.81 25.31h5.34"/><path d="m32.13 30.66h3.49"/><path d="m33.81 25.31-3.35 10.71"/><path d="m13.69 12.47a4 4 0 0 0 -3.51 2.68 1.9 1.9 0 0 0 1.82 2.68h.91"/><path d="m12.93 17.83h.9a1.9 1.9 0 0 1 1.84 2.67 4 4 0 0 1 -3.51 2.68"/><path d="m17.64 13.37c-.54-.61-1.25-.9-3-.9h-.91"/><path d="m8.21 22.28c.54.62 1.25.9 3 .9h.91"/></g></svg>