<svg viewBox="0 0 48 48" xmlns="http://www.w3.org/2000/svg"><g fill="none" stroke="#000" stroke-linecap="round" stroke-linejoin="round"><rect height="5.983" rx="2.9915" width="39" x="4.5" y="36.522"/><path d="m42.0848 30.81a2.7743 2.7743 0 0 0 -2.7748-2.7741h-30.62a2.7743 2.7743 0 0 0 -2.7748 2.7741"/><path d="m38.3258 7.6928a2.1976 2.1976 0 0 0 -2.1977-2.1977h-24.2562a2.1976 2.1976 0 0 0 -2.1977 2.1977"/><path d="m9.6742 7.6928-5.1742 31.8206"/><path d="m38.3258 7.6928 5.1742 31.8207"/><path d="m18.5577 39.5134h10.8846"/></g><circle cx="7.0871" cy="39.5134" r=".75"/><circle cx="40.9129" cy="39.5134" r=".75"/><path d="m24 24.6487c5.41 0 9.3844-3.8936 8.9226-8.2687-.4184-3.9647-4.3979-6.9157-8.9226-6.9157s-8.5042 2.951-8.9226 6.9157c-.2672 2.5314 2.2185 4.0721 2.2185 4.0721l1.9546-4.0721h-4.1731" fill="none" stroke="#000" stroke-linecap="round" stroke-linejoin="round"/></svg>