<svg viewBox="0 0 48 48" xmlns="http://www.w3.org/2000/svg"><g fill="none" stroke="#000" stroke-linecap="round" stroke-linejoin="round"><path d="m30.8866 15.0474c.6316-5.2631-2.8631-8.9263-8.9609-8.9263-6.05 0-8.8285 4.0421-8.8285 8.9685s-6.4632 8.2104-6.4632 14.9894c0 2.9474 3.9369 8.4421 7.6316 8.4421 5.4789 0 7.1211 1.69 12.82.8126"/><path d="m21.2358 26.0037a8.0518 8.0518 0 0 1 7.04-5.5668c2.779 0 7.6684 3.4684 7.6684 10.5842a8.4282 8.4282 0 0 1 -8.51 8.3211c-2.512 0-5.9922-1.2687-6.7245-6.8383"/><path d="m17.5814 22.858a13.571 13.571 0 0 0 5.8123 4.2083c1.83.7811 3.2414 1.8806 3.03 3.0127-.4211 2.2527-3.8947 2.4421-7.0947 2.4421-4.6527 0-6.6316-6.7158-6.6316-6.7158"/><path d="m33.0537 22.954c-1.1671-1.5171-2.5565-2.7171-2.6513-4.296"/><path d="m23.9919 16.5738s1.2947-1.9264 3.1579-1.9264 7.6737 1.2632 7.6737 2.4948-6.379 1.8-7.9579 1.8c-1.4526 0-2.8737-2.3684-2.8737-2.3684z"/><path d="m25.7919 16.9211c2.0526.9158 8.7152.6781 8.7152.6781"/><path d="m35.4765 27.4081c.5-1.0922 1.2575-2.4817 2.3786-2.0554s1.8 2.3368 1.8 2.3368 1.5949-.4895 2.2579.7105-.079 1.6263-.079 1.6263 1.0375-.17 1.4684.2684c.2636.2682.3548.67-.3158 1.7526-2.0526 3.3158-5.5263 4.0895-7.9894 6.7106-1.63 1.7339-4.4684 5.0684-6.8527.5842"/><path d="m6.634 30.079c-1.2631.3158-2.8421 1.2-1.79 3.0105s4.3369 8.4961 6.9475 8.4961c1.5368 0 2.3368-.1171 2.3368-1.1066a3.082 3.082 0 0 0 -.9895-2.119"/><path d="m6.7176 36.4077c-.5244.7857-1.135 1.6626-1.5074 2.1931a.4959.4959 0 0 0 .2413.7562 7.688 7.688 0 0 0 3.4449.2291"/><path d="m13.6918 41.33c1.1527.8548 4.037.6864 4.037-.8926a1.6965 1.6965 0 0 0 -1.2472-1.8175"/><path d="m19.8972 39.1317c.4842 1.0105.5684 2.5319-.8421 2.708a3.0941 3.0941 0 0 1 -2.08-.2994"/><path d="m19.5709 12.8159c0 1.7894.6254 3.1789 2.7473 3.1789a2.8705 2.8705 0 0 0 3.0737-2.9263 2.41 2.41 0 0 0 -2.6319-2.6737c-2.147 0-3.1891 1.1158-3.1891 2.4211z"/><path d="m30.92 13.0042c-.0326-.4853-.5518-2.2094-1.97-2.2094-.9684 0-1.3895.6948-1.3895 2s.5913 1.9114 1.11 1.9951"/><path d="m29.24 13.451v-.9393"/><path d="m22.8248 13.5212v-.9394"/></g></svg>