<svg viewBox="0 0 48 48" xmlns="http://www.w3.org/2000/svg"><g fill="none" stroke="#000" stroke-linecap="round" stroke-linejoin="round"><circle cx="24" cy="24" r="21.5"/><path d="m25.9468 19.96a4.536 4.536 0 0 1 2.1 2.0923l10.7018-2.8111a15.5285 15.5285 0 0 0 -9.989-9.989z"/><path d="m19.96 22.0532a4.5365 4.5365 0 0 1 2.0923-2.1l-2.8116-10.7015a15.5285 15.5285 0 0 0 -9.989 9.989z"/><path d="m28.0405 25.9468a4.536 4.536 0 0 1 -2.0923 2.1l2.8111 10.7018a15.5285 15.5285 0 0 0 9.989-9.989z"/><path d="m22.0518 28.0465a4.5365 4.5365 0 0 1 -2.0923-2.1l-10.7078 2.8128a15.5285 15.5285 0 0 0 9.989 9.989z"/><circle cx="24" cy="24" r="4.5"/></g></svg>