<svg viewBox="0 0 48 48" xmlns="http://www.w3.org/2000/svg"><g fill="none" stroke="#000" stroke-linecap="round" stroke-linejoin="round"><path d="m6.48 6.45v35.1a2 2 0 0 0 1.95 2h2.38v-39.05h-2.38a2 2 0 0 0 -1.95 1.95z"/><path d="m21 30.78a6.78 6.78 0 1 1 6.78-6.78 6.79 6.79 0 0 1 -6.78 6.78z"/><path d="m24 20.76-4 1.91a.75.75 0 0 0 -.33.33l-1.9 4a.18.18 0 0 0 .09.24.17.17 0 0 0 .14 0l4-1.91a.83.83 0 0 0 .37-.37l1.91-4a.19.19 0 0 0 -.11-.23.17.17 0 0 0 -.17.03z"/></g><path d="m21 24.75a.75.75 0 1 1 .75-.75.76.76 0 0 1 -.75.75z"/><path d="m33.28 24.75a.75.75 0 1 1 .72-.75.75.75 0 0 1 -.75.75z"/><path d="m37.68 29h1.14a2.71 2.71 0 0 0 2.7-2.7v-4.62a2.71 2.71 0 0 0 -2.7-2.68h-1.14v-12.55a2 2 0 0 0 -2-1.95h-24.87v39h24.92a2 2 0 0 0 2-2z" fill="none" stroke="#000" stroke-linecap="round" stroke-linejoin="round"/><path d="m33.28 27a3 3 0 0 1 0-6h4.4v6z" fill="none" stroke="#000" stroke-linecap="round" stroke-linejoin="round"/></svg>