<svg viewBox="0 0 48 48" xmlns="http://www.w3.org/2000/svg"><g fill="none" stroke="#000" stroke-linecap="round" stroke-linejoin="round"><path d="m6.48 6.45v35.1a2 2 0 0 0 1.95 2h2.38v-39.05h-2.38a2 2 0 0 0 -1.95 1.95z"/><path d="m24.27 30.9626a6.9626 6.9626 0 1 1 6.9626-6.9626 6.9626 6.9626 0 0 1 -6.9626 6.9626z"/><path d="m27.3508 20.6727-4.1077 1.9615a.769.769 0 0 0 -.3389.3389l-1.9512 4.1077a.1848.1848 0 0 0 .09.2454l.0023.0011a.175.175 0 0 0 .1438 0l4.1077-1.9615a.8526.8526 0 0 0 .38-.38l1.9614-4.1078a.1952.1952 0 0 0 -.1129-.2362.1748.1748 0 0 0 -.1745.0309z"/></g><path d="m24.27 24.75a.75.75 0 1 1 .75-.75.76.76 0 0 1 -.75.75z"/><path d="m10.81 43.5h24.92a2 2 0 0 0 2-2l-.05-12.5v-22.55a2 2 0 0 0 -2-1.95h-24.87" fill="none" stroke="#000" stroke-linecap="round" stroke-linejoin="round"/></svg>