<svg viewBox="0 0 48 48" xmlns="http://www.w3.org/2000/svg"><g fill="none" stroke="#000" stroke-linecap="round" stroke-linejoin="round"><path d="m40.5 42.5h-33a2 2 0 0 1 -2-2v-33a2 2 0 0 1 2-2h33a2 2 0 0 1 2 2v33a2 2 0 0 1 -2 2z"/><path d="m18.11 27.3a3.34 3.34 0 0 0 2.46.67h.67a2 2 0 0 0 2-2 2 2 0 0 0 -2-2h-1.34a2 2 0 0 1 -2-2 2 2 0 0 1 2-2h.67a3.38 3.38 0 0 1 2.43.73"/><path d="m15.1 26.46a3 3 0 0 1 -2.6 1.54 3 3 0 0 1 -3-3v-2a3 3 0 0 1 3-3 3 3 0 0 1 3 3v1h-6"/><path d="m38.5 25a3 3 0 0 1 -3 3 3 3 0 0 1 -3-3v-2a3 3 0 0 1 3-3 3 3 0 0 1 3 3"/><path d="m38.5 27.97v-7.94"/><path d="m25.67 20h2.39a2 2 0 0 1 2 2 2 2 0 0 1 -2 2h-2.39"/><path d="m25.67 24 4.38 3.97"/></g></svg>