<svg viewBox="0 0 48 48" xmlns="http://www.w3.org/2000/svg"><g fill="none" stroke="#000" stroke-linecap="round" stroke-linejoin="round"><path d="m40.5 42.5h-33a2 2 0 0 1 -2-2v-33a2 2 0 0 1 2-2h33a2 2 0 0 1 2 2v33a2 2 0 0 1 -2 2z"/><path d="m24.17 21.12-3.16 8.36-3.15-8.36"/><path d="m9.7 28.78a3.57 3.57 0 0 0 2.59.7h.71a2.08 2.08 0 0 0 2.09-2.09 2.09 2.09 0 0 0 -2.09-2.09h-1.41a2.08 2.08 0 0 1 -2.09-2.09 2.09 2.09 0 0 1 2.09-2.09h.7a3.53 3.53 0 0 1 2.6.71"/><path d="m27.18 18.52v9.39a1.57 1.57 0 0 0 1.57 1.57h.48"/><path d="m27.18 21.12h1.65"/><path d="m38.5 25.3-6.25-4.18v8.36z"/></g></svg>