<svg viewBox="0 0 48 48" xmlns="http://www.w3.org/2000/svg"><g fill="none" stroke="#000" stroke-linecap="round" stroke-linejoin="round"><path d="m23.9389 21.9076v-7.155"/><path d="m20.3539 18.3376h7.17"/><path d="m24.0139 26.6776c7.065-2.715 6.705-8.13 6.66-11.4v-2.46a25.2144 25.2144 0 0 0 -6.66-1.14 25.2144 25.2144 0 0 0 -6.66 1.14v2.46c-.12 3.27-.48 8.685 6.66 11.4z"/><path d="m24 4.5a13.09 13.09 0 0 0 -13.09 13.09c0 10.25 10 22.61 12.61 25.63a.8.8 0 0 0 1.21 0c2.55-3 12.36-15.38 12.36-25.63a13.09 13.09 0 0 0 -13.09-13.09z"/></g></svg>