<svg viewBox="0 0 48 48" xmlns="http://www.w3.org/2000/svg"><g fill="none" stroke="#000" stroke-linecap="round" stroke-linejoin="round"><path d="m40.5 5.5h-33a2 2 0 0 0 -2 2v33a2 2 0 0 0 2 2h33a2 2 0 0 0 2-2v-33a2 2 0 0 0 -2-2z"/><path d="m36 25.38v5.7323a4.2462 4.2462 0 0 1 -4.2462 4.2462 4.2327 4.2327 0 0 1 -3.0024-1.2436"/><path d="m36 18.3738v7.0062a4.2462 4.2462 0 0 1 -4.2462 4.2462 4.2461 4.2461 0 0 1 -4.2461-4.2462v-7.0062"/><path d="m12.3364 27.7652a4.7509 4.7509 0 0 0 4.1644 1.861h2.5145a4.2416 4.2416 0 0 0 4.237-4.2462 4.2415 4.2415 0 0 0 -4.237-4.2462h-2.7783a4.2415 4.2415 0 0 1 -4.237-4.2461 4.2416 4.2416 0 0 1 4.237-4.2462h2.5146a4.7507 4.7507 0 0 1 4.1644 1.861"/></g></svg>