<svg viewBox="0 0 48 48" xmlns="http://www.w3.org/2000/svg"><g fill="none" stroke="#000" stroke-linecap="round" stroke-linejoin="round"><path d="m30.8508 19.5822a9 9 0 0 0 -15.8161 5.7852m16.4953 5.0751a8.9584 8.9584 0 0 0 1.5045-4.9835 9.054 9.054 0 0 0 -.1457-1.6217m-16.6622 6.101a9.0079 9.0079 0 0 0 11.73 3.6233"/><circle cx="25.3312" cy="26.2258" r="2.3885"/><path d="m31.53 19.4844a2.3885 2.3885 0 1 1 0 4.7769q-.1045 0-.2068-.0088a2.3884 2.3884 0 0 1 .2068-4.7681z"/><path d="m29.485 29.3382a2.3827 2.3827 0 1 1 -.6658.094 2.3885 2.3885 0 0 1 .6658-.094z"/><path d="m15.9956 25.1659a2.3886 2.3886 0 0 1 .2442 4.7646 2.4331 2.4331 0 0 1 -.2442.0123 2.3885 2.3885 0 1 1 0-4.7769z"/><path d="m18.3739 27.3344 4.5849-.8319"/><path d="m27.1446 24.6721 2.5291-1.2978"/><path d="m26.8505 28.0688 1.325 1.6619"/><path d="m19.8318 8.7749-2.7681 2.832s-7.4085.0031-10.7737.0018a1.7893 1.7893 0 0 0 -1.7909 1.7926v23.2229a1.79 1.79 0 0 0 1.7909 1.7909h35.4182a1.7894 1.7894 0 0 0 1.7909-1.7927v-23.2224a1.7894 1.7894 0 0 0 -1.7909-1.7927h-10.7719l-2.7663-2.8324z"/></g></svg>