<svg viewBox="0 0 48 48" xmlns="http://www.w3.org/2000/svg"><g fill="none" stroke="#000" stroke-linecap="round" stroke-linejoin="round"><path d="m39 11.56a19.06 19.06 0 0 0 -33.48 12.25m34.92 10.74a18.91 18.91 0 0 0 3.19-10.55 19.36 19.36 0 0 0 -.31-3.43m-35.27 12.91a19.07 19.07 0 0 0 24.83 7.67"/><circle cx="27.32" cy="25.62" r="5.06"/><path d="m40.44 11.35a5.06 5.06 0 1 1 0 10.11h-.44a5.06 5.06 0 0 1 -1-9.89 4.8 4.8 0 0 1 1.44-.22z"/><path d="m36.12 32.21a5.06 5.06 0 1 1 -1.41.2 5 5 0 0 1 1.41-.2z"/><path d="m7.56 23.38a5.22 5.22 0 0 1 1.38.19 5.06 5.06 0 0 1 -.87 9.9h-.51a5.05 5.05 0 0 1 -2-9.68 4.94 4.94 0 0 1 2-.41z"/><path d="m12.59 27.97 9.71-1.76"/><path d="m31.16 22.33 5.35-2.74"/><path d="m30.54 29.53 2.8 3.51"/></g></svg>