<svg viewBox="0 0 48 48" xmlns="http://www.w3.org/2000/svg"><g fill="none" stroke="#000" stroke-miterlimit="10"><path d="m38.8307 41.5147a4.6708 4.6708 0 0 1 -4.0513-2.3377l-14.8265-25.6805a4.6729 4.6729 0 0 1 8.0935-4.6731l14.8265 25.68a4.6751 4.6751 0 0 1 -4.0422 7.0109z"/><path d="m21.6631 41.5135h-12.49a4.6731 4.6731 0 0 1 0-9.3462h12.49a4.6731 4.6731 0 0 1 0 9.3462z"/><path d="m9.1693 41.5147a4.6751 4.6751 0 0 1 -4.0422-7.0109l14.8265-25.68a4.6729 4.6729 0 1 1 8.0935 4.6731l-14.8265 25.6801a4.6715 4.6715 0 0 1 -4.0513 2.3377z"/></g></svg>