<svg viewBox="0 0 48 48" xmlns="http://www.w3.org/2000/svg"><path d="m38.79 4.5a3 3 0 0 0 -2.07.87l-2.46 2.45a17.53 17.53 0 0 0 -20.52 0l-2.45-2.45a3.07 3.07 0 0 0 -2.08-.87 2.84 2.84 0 0 0 -2 .83 2.86 2.86 0 0 0 0 4.06l2.49 2.46a17.69 17.69 0 0 0 -3.34 10.3v19.49a1.85 1.85 0 0 0 1.85 1.86h31.57a1.86 1.86 0 0 0 1.86-1.86v-19.49a17.55 17.55 0 0 0 -3.34-10.3l2.47-2.44a2.86 2.86 0 0 0 0-4.06 2.84 2.84 0 0 0 -2-.83zm-14.79 15.68 8.38 4.82v9.7l-8.38 4.84-8.38-4.84v-9.7z" fill="none" stroke="#000" stroke-linecap="round" stroke-linejoin="round"/></svg>