<svg viewBox="0 0 48 48" xmlns="http://www.w3.org/2000/svg"><g fill="none" stroke="#000" stroke-linecap="round" stroke-linejoin="round"><path d="m43.5 5.21h-39"/><path d="m41.55 36.41v-31.2"/><path d="m4.5 36.41h39"/><path d="m6.45 5.21v31.2"/><path d="m33.2 15.64a2.32 2.32 0 1 1 -4.64 0v-4.13a2.32 2.32 0 0 1 4.64 0z"/><path d="m19.44 23.12a2.32 2.32 0 0 1 -4.64 0v-4.12a2.32 2.32 0 0 1 4.64 0z"/><path d="m33.2 30.6a2.32 2.32 0 0 1 -4.64 0v-4.13a2.32 2.32 0 0 1 4.64 0z"/><path d="m11.33 13.58h17.23"/><path d="m11.33 28.53h17.23"/><path d="m33.2 13.58h3.47"/><path d="m33.2 28.53h3.47"/><path d="m19.44 21.06h17.23"/><path d="m14.8 21.06h-3.47"/><path d="m11.93 42.46 6.03-6.05"/><path d="m24 36.41v6.38"/><path d="m36.07 42.46-6.03-6.05"/></g></svg>