<svg viewBox="0 0 48 48" xmlns="http://www.w3.org/2000/svg"><g fill="none" stroke="#000" stroke-linecap="round" stroke-linejoin="round"><ellipse cx="24.36" cy="33.5" rx="15.14" ry="4.13" transform="matrix(.96592583 -.25881905 .25881905 .96592583 -7.84 7.45)"/><path d="m14.14 33a5 5 0 0 0 9.11-3.44"/><ellipse cx="24" cy="32.16" rx="20.08" ry="7.63" transform="matrix(.96592583 -.25881905 .25881905 .96592583 -7.51 7.31)"/><path d="m40.87 24.39c-3-1.42-3.81-2-5.59-5.37s-5.65-10.09-12.4-10.08a.92.92 0 0 1 -.76-.39l-.77-1.16a1.27 1.27 0 0 0 -1.35-.52l-3.46.93a1.26 1.26 0 0 0 -.94 1.26v1.16a.88.88 0 0 1 -.46.8c-1.35.73-5.11 3.13-5.81 7.79a69 69 0 0 0 -.76 9.09s9.91-6 14.42-3.37"/></g></svg>