<svg viewBox="0 0 48 48" xmlns="http://www.w3.org/2000/svg"><g fill="none" stroke="#000" stroke-linecap="round" stroke-linejoin="round"><path d="m40.5 5.5h-33a2 2 0 0 0 -2 2v33a2 2 0 0 0 2 2h33a2 2 0 0 0 2-2v-33a2 2 0 0 0 -2-2z"/><path d="m9.5 20.016h5.63"/><path d="m12.368 28.515v-8.499"/><path d="m19.804 26.39a2.1308 2.1308 0 0 1 -2.124 2.1247 2.1309 2.1309 0 0 1 -2.1251-2.1247v-1.3808a2.1309 2.1309 0 0 1 2.1251-2.1246 2.1308 2.1308 0 0 1 2.1245 2.1246"/><path d="m19.804 28.515v-5.63"/></g><circle cx="22.991" cy="20.335" r=".75"/><path d="m22.991 22.885v5.63" fill="none" stroke="#000" stroke-linecap="round" stroke-linejoin="round"/><circle cx="37.65" cy="20.335" r=".75"/><path d="m37.65 22.885v5.63" fill="none" stroke="#000" stroke-linecap="round" stroke-linejoin="round"/><path d="m26.178 25.009a2.1308 2.1308 0 0 1 2.1245-2.1246 2.1308 2.1308 0 0 1 2.1245 2.1246v3.3992" fill="none" stroke="#000" stroke-linecap="round" stroke-linejoin="round"/><path d="m26.178 22.885v5.523" fill="none" stroke="#000" stroke-linecap="round" stroke-linejoin="round"/><path d="m30.427 25.009a2.1309 2.1309 0 0 1 2.1246-2.1246 2.1308 2.1308 0 0 1 2.1245 2.1246v3.3992" fill="none" stroke="#000" stroke-linecap="round" stroke-linejoin="round"/></svg>