<svg viewBox="0 0 48 48" xmlns="http://www.w3.org/2000/svg"><g fill="none" stroke="#000" stroke-linecap="round" stroke-linejoin="round"><path d="m36.6327 19.0338a26.1622 26.1622 0 0 0 5.2225-5.6689 73.0624 73.0624 0 0 0 -18.6909 2.7393 73.0583 73.0583 0 0 0 -17.2 7.8122 26.1626 26.1626 0 0 0 7.46 1.94"/><path d="m17.9327 14.9376a96.9945 96.9945 0 0 1 1.82-10.4376s2.2621 1.4086 4.9453 5.5731"/><path d="m26.5077 35.4442a33.9316 33.9316 0 0 1 -7.4832 8.0558 108.7612 108.7612 0 0 1 -1.7268-20.1014c.0206-.8662.0563-1.7253.1044-2.5719"/><path d="m30.0457 18.4213a109.23 109.23 0 0 1 11.99 17.3493 58.6315 58.6315 0 0 1 -16.7989-5.12"/></g></svg>