<svg viewBox="0 0 48 48" xmlns="http://www.w3.org/2000/svg"><g fill="none" stroke="#000" stroke-linecap="round" stroke-linejoin="round"><path d="m13.34 16.048-3.754 13.6157a1.6835 1.6835 0 0 0 1.6574 2.2883h.6866"/><path d="m9.896 19.8237h4.8056"/><path d="m23.0709 28.3221a5.1283 5.1283 0 0 1 -4.6306 3.63 2.6705 2.6705 0 0 1 -2.6292-3.63l.6505-2.36a5.1285 5.1285 0 0 1 4.6307-3.63 2.6705 2.6705 0 0 1 2.6291 3.63"/><path d="m23.5222 31.952a1.0682 1.0682 0 0 1 -1.0517-1.452l2.2517-8.1674"/><path d="m28.6057 19.8238a1.3468 1.3468 0 0 1 1.326 1.8306l-2.839 10.2976"/><path d="m38.0768 31.952a1.3469 1.3469 0 0 1 -1.326-1.8307l1.5773-5.7208c.6968-2.5277-.7873-4.5767-3.315-4.5767a6.4661 6.4661 0 0 0 -5.8385 4.5767"/><path d="m14.7016 19.8237h13.9042"/><path d="m40.5 42.5h-33a2.0059 2.0059 0 0 1 -2-2v-33a2.0059 2.0059 0 0 1 2-2h33a2.0059 2.0059 0 0 1 2 2v33a2.0059 2.0059 0 0 1 -2 2z"/></g></svg>