<svg viewBox="0 0 48 48" xmlns="http://www.w3.org/2000/svg"><g fill="none" stroke="#000" stroke-linecap="round" stroke-linejoin="round"><path d="m31.3125 11.8125h12.1875a0 0 0 0 1 0 0v12.1875a12.1875 12.1875 0 0 1 -12.1875 12.1875 12.1875 12.1875 0 0 1 -12.1875-12.1875 12.1875 12.1875 0 0 1 12.1875-12.1875z"/><path d="m16.6875 11.8125h12.1875a0 0 0 0 1 0 0v12.1875a12.1875 12.1875 0 0 1 -12.1875 12.1875 12.1875 12.1875 0 0 1 -12.1875-12.1875 12.1875 12.1875 0 0 1 12.1875-12.1875z" transform="matrix(-1 0 0 -1 33.375 48)"/></g></svg>