<svg viewBox="0 0 48 48" xmlns="http://www.w3.org/2000/svg"><g fill="none" stroke="#000" stroke-linecap="round" stroke-linejoin="round"><path d="m35.23 8.05h7.27"/><path d="m17.37 8.05h13.86"/><path d="m5.5 8.05h7.87"/><path d="m5.5 9.55v-3"/><path d="m42.5 9.55v-3"/><ellipse cx="10.34" cy="36.68" rx="4.43" ry="2.85"/><path d="m5.91 36.68v2.42c0 1.58 2 2.85 4.43 2.85s4.43-1.27 4.43-2.85v-2.42"/><ellipse cx="24" cy="39.1" rx="4.43" ry="2.85"/><ellipse cx="37.66" cy="36.68" rx="4.43" ry="2.85"/><path d="m33.23 36.68v2.42c0 1.58 2 2.85 4.43 2.85s4.43-1.27 4.43-2.85v-2.42"/><path d="m10.34 36.68c0-5.09 13.66-12.27 13.66-17.48s-5.44-4.2-5.23 0c.23 4.8 14.45 5.8 14.46-9.15"/><circle cx="33.23" cy="8.05" r="2"/><circle cx="15.37" cy="8.05" r="2"/><path d="m15.37 10.05c0 5.51 4.47 7.81 6.42 9.15s15.87 7.2 15.87 17.48"/></g></svg>