<svg viewBox="0 0 48 48" xmlns="http://www.w3.org/2000/svg"><g fill="none" stroke="#000" stroke-linecap="round" stroke-linejoin="round"><path d="m4.5 10.403a15.7955 15.7955 0 0 1 4.8274 4.291"/><path d="m4.7682 19.575c10.5283 7.1645 6.8007 13.9637.8045 20.7038"/><path d="m19.4117 7.7212c-.2667 8.0673-3.7152 10.3079-6.5438 13.034"/><path d="m18.6435 12.8817a48.9065 48.9065 0 0 1 13.2657-2.6394c8.2009-.2958 10.77 4.2163 11.3171 9.6011.8334 8.1912-.1517 13.39-4.13 17.3252-2.3163 2.291-6.3147 4.8821-14.0529.4828"/><path d="m20.88 20.12h12.6579"/><path d="m26.5609 20.3315v13.4165"/><path d="m16.354 26.4947h19.47"/><path d="m31.7477 28.5325 1.7164 6.0075"/><path d="m32.7113 31.9047c-2.2335.7039-13.3145 5.6328-15.7677-2.353"/><path d="m23.5414 16.5715-5.1492 6.8656"/></g></svg>