<svg viewBox="0 0 48 48" xmlns="http://www.w3.org/2000/svg"><g fill="none" stroke="#000" stroke-linecap="round" stroke-linejoin="round"><path d="m32.8513 27.3006a2.1047 2.1047 0 0 0 -2.245-2.67 3.6341 3.6341 0 0 0 -3.1235 2.8215l-.5258 2.4779a2.0974 2.0974 0 0 0 2.1007 2.6739 3.48 3.48 0 0 0 3.2357-2.6739h-2.6682"/><path d="m9.5 15.2943h5.2847"/><path d="m10.4495 23.2713 1.6929-7.977"/><path d="m35.7626 32.7057a1.566 1.566 0 0 1 -1.571-1.9943l.2751-1.2962a2.5982 2.5982 0 0 1 2.4174-1.9943 1.566 1.566 0 0 1 1.571 1.9943l-.2751 1.2962a2.5983 2.5983 0 0 1 -2.4174 1.9943z"/><path d="m17.1536 21.277a2.5981 2.5981 0 0 1 -2.4174 1.9943 1.5659 1.5659 0 0 1 -1.571-1.9943l.275-1.2962a2.5982 2.5982 0 0 1 2.4175-1.9942 1.5659 1.5659 0 0 1 1.571 1.9942"/><path d="m16.7304 23.2713 1.1215-5.2847"/><path d="m19.4 21.277a1.566 1.566 0 0 0 1.571 1.9943 2.5983 2.5983 0 0 0 2.4175-1.9943l.2751-1.2962a1.5659 1.5659 0 0 0 -1.5711-1.9942 2.5981 2.5981 0 0 0 -2.4174 1.9942"/><path d="m20.0984 17.9866-1.6928 7.9769"/><path d="m24.5628 32.7057h-.674a1.0943 1.0943 0 0 1 -1.0069-.5748l-1.96-3.8032a2.6546 2.6546 0 0 1 -.5583-1.9919 2.1144 2.1144 0 0 1 2.01-1.6071 1.2552 1.2552 0 0 1 1.2764 1.6071 2.8614 2.8614 0 0 1 -2.514 1.9473 3.3619 3.3619 0 0 0 -2.9994 2.4969c-.2358 1.1113.2918 1.926 1.6923 1.926 1.8409 0 3.2949-1.7457 5.3505-3.8911"/><path d="m5.5 19.6v20.9a2 2 0 0 0 2 2h33a2 2 0 0 0 2-2v-33a2 2 0 0 0 -2-2h-33a2 2 0 0 0 -2 2z"/></g></svg>