<svg viewBox="0 0 48 48" xmlns="http://www.w3.org/2000/svg"><g fill="none" stroke="#000" stroke-linecap="round" stroke-linejoin="round"><path d="m17.1426 18.9569c-.49.2013.1312.552.4732.5542a.969.969 0 0 0 1.07-1.1883c-.3066-.8647-1.757-1.213-2.8873-.9394-1.6281.3942-2.2563 1.7393-1.6379 2.7986.8127 1.3921 3.2491 1.9159 5.1651 1.3314 2.3838-.7273 3.266-2.7625 2.2-4.3571-1.28-1.9131-4.71-2.6127-7.3886-1.7186-3.1305 1.045-4.2652 3.7677-2.7547 5.8859 1.7315 2.4281 6.15 3.3021 9.5766 2.1016 3.8693-1.3554 5.2545-4.76 3.3044-7.3937-2.1753-2.9382-7.5717-3.9852-11.7383-2.4813-4.6016 1.661-6.2352 5.7412-3.85 8.8854 2.6131 3.444 8.98 4.6627 13.879 2.858 5.3281-1.963 7.2084-6.7141 4.3907-10.364-3.0465-3.9461-10.3777-5.3354-16.0024-3.232-6.05 2.2623-8.1752 7.68-4.9284 11.8314 2.0655 2.641 5.9938 4.4135 10.296 4.7084"/><path d="m16.31 28.2374h27.19v9.0426h-27.2609c-6.6171 0-11.734-4.4109-11.734-10.1726v-7.912"/><path d="m9.5914 35.3582v-2.2606m3.3909 3.6169v-4.5211m3.3908 5.0866v-2.2609m3.3909 2.2609v-4.5215m3.3908 4.5215v-2.2609m3.3909 2.2609v-4.5215m3.3909 4.5215v-2.2609m6.7817 2.2609v-2.2609m-3.3909 2.2609v-4.5215m6.7817 4.5215v-4.5215"/><path d="m28.2411 28.1243v-9.8335"/></g></svg>