<svg viewBox="0 0 48 48" xmlns="http://www.w3.org/2000/svg"><g fill="none" stroke="#000" stroke-linecap="round" stroke-linejoin="round"><path d="m45.5 24a21.51 21.51 0 0 0 -21.5-21.5l7.23 7.24 4.09-4m-17.18-1.57a2.11 2.11 0 0 0 -1.47.61l-11.89 11.89a2.07 2.07 0 0 0 0 2.93l23.62 23.62a2.07 2.07 0 0 0 2.93 0l11.89-11.89a2.08 2.08 0 0 0 0-2.94l-23.61-23.61a2.11 2.11 0 0 0 -1.47-.61zm-15.64 19.83a21.51 21.51 0 0 0 21.5 21.5l-7.23-7.24-4.09 4"/><path d="m6.91 21.73 14.82-14.82"/><path d="m26.27 41.09 14.82-14.83"/></g></svg>