<svg viewBox="0 0 48 48" xmlns="http://www.w3.org/2000/svg"><path d="m19.89 3.5a1 1 0 0 0 -1 .86l-.77 5.43a15.36 15.36 0 0 0 -3.46 2l-5.12-2.04a1 1 0 0 0 -1.25.44l-4.1 7.11a1 1 0 0 0 .25 1.31l4.32 3.39a16.66 16.66 0 0 0 -.14 2 16.52 16.52 0 0 0 .14 2l-4.32 3.39a1 1 0 0 0 -.25 1.31l4.1 7.11a1 1 0 0 0 1.25.44l4.82-2 6.07-10.07-8.43-6.06 19-9.78c-.38-.2-.76-.38-1.16-.55l-.77-5.43a1.05 1.05 0 0 0 -1-.86zm18.92 6.18a1 1 0 0 0 -.35.07l-4.82 1.95-6.07 10.07 8.43 6.11-19 9.78c.38.2.76.38 1.16.55l.77 5.43a1 1 0 0 0 1 .86h8.2a1 1 0 0 0 1-.86l.77-5.43a15.36 15.36 0 0 0 3.46-2l5.11 2.06a1 1 0 0 0 1.25-.44l4.1-7.11a1 1 0 0 0 -.25-1.31l-4.34-3.41a16.52 16.52 0 0 0 .14-2 16.52 16.52 0 0 0 -.14-2l4.33-3.39a1 1 0 0 0 .25-1.31l-4.1-7.11a1 1 0 0 0 -.9-.51z" fill="none" stroke="#000" stroke-linecap="round" stroke-linejoin="round"/></svg>