<svg viewBox="0 0 48 48" xmlns="http://www.w3.org/2000/svg"><g fill="none" stroke="#000" stroke-linecap="round" stroke-linejoin="round"><path d="m9.112 6.325-1.769-.474-2.843 10.611 1.769.474"/><path d="m15.98 8.165 1.768.474-2.843 10.611-1.769-.474"/><path d="m23.988 10.311-1.769-.474-2.843 10.611 1.768.474"/><path d="m30.855 12.151 1.769.474-2.843 10.611-1.769-.474"/><path d="m19.988 25.238-1.769-.474-2.843 10.611 1.769.474"/><path d="m26.856 27.078 1.768.474-2.843 10.611-1.769-.474"/><path d="m34.864 29.224-1.769-.474-2.843 10.611 1.768.474"/><path d="m41.731 31.064 1.769.474-2.843 10.611-1.769-.474"/></g></svg>