<svg viewBox="0 0 48 48" xmlns="http://www.w3.org/2000/svg"><g fill="none" stroke="#000" stroke-linecap="round" stroke-linejoin="round"><path d="m40.5 5.5h-33a2 2 0 0 0 -2 2v33a2 2 0 0 0 2 2h33a2 2 0 0 0 2-2v-33a2 2 0 0 0 -2-2z"/><path d="m20.811 30.2261h6.2261"/><path d="m20.811 17.7739h6.2261"/><path d="m20.811 24h4.0593"/><path d="m20.811 17.7739v12.4522"/><path d="m30.25 30.2261v-12.4522h2.8018a5.4478 5.4478 0 0 1 5.4482 5.4478v1.5566a5.4478 5.4478 0 0 1 -5.4478 5.4478z"/><path d="m9.5 17.7739h8.2496"/><path d="m13.6248 30.2261v-12.4522"/></g></svg>