<svg viewBox="0 0 48 48" xmlns="http://www.w3.org/2000/svg"><g fill="none" stroke="#000" stroke-linecap="round" stroke-linejoin="round"><circle cx="13.5896" cy="11.9026" r="4.7989"/><path d="m21.8621 5.504c-.8227 5.9872-1.234 8.3181-1.234 12.7971 0 2.6509 1.4419 4.1589 3.3719 4.1589"/><path d="m13.4525 42.504v-17.3472a4.3158 4.3158 0 0 1 1.3711-3.2907 3.6257 3.6257 0 0 0 -3.4278 3.0164 28.4487 28.4487 0 0 1 .3657-6.1243c-2.5595 1.3254-3.3364 2.1938-3.6107 4.0218a8.8505 8.8505 0 0 1 .64-3.6106 7.1918 7.1918 0 0 0 -3.2908 6.2159v14.4882"/><path d="m20.6293 17.89a3.738 3.738 0 0 0 -3.0819 5.6424"/><path d="m13.4525 26.1622c1.851-1.8053 4.87-3.702 10.5475-3.702"/><path d="m13.4525 30.8215a15.0106 15.0106 0 0 1 10.5475-3.8366"/><path d="m13.4525 40.3915c3.8849-2.1024 8.6482-2.1634 10.5475-2.1634"/><path d="m18.2111 27.9335c0 3.3476-.2339 6.8821 2.8435 6.8821s2.9454-4.4181 2.9454-7.8307"/><path d="m18.2265 30.5271c0 2.2622-.4778 4.5017-1.529 4.5017s-1.1639-1.8434-1.1639-5.7435"/><path d="m13.4525 36.4457c1.0055.2513 2.12-.9841 2.12-4.5026"/><path d="m20.4025 22.7517-.9856-.7714"/><circle cx="13.5896" cy="11.9026" r="1.493"/><path d="m40.5 5.504h-33a2 2 0 0 0 -2 2v33a2 2 0 0 0 2 2h33a2 2 0 0 0 2-2v-33a2 2 0 0 0 -2-2z"/><path d="m19.731 38.4851c0-1.3386.47-2.3137 2.0244-2.3137a1.84 1.84 0 0 1 1.7976 2.0586"/><path d="m15.2208 39.5867c0-1.709.1208-2.5012 1.8267-2.8372 1.9137-.3769 2.4532 1.7356 2.4532 1.7356"/><path d="m15.2208 39.066a1.5151 1.5151 0 0 0 -1.7683-1.226"/><circle cx="34.4104" cy="11.9026" r="4.7989"/><path d="m26.1379 5.504c.8227 5.9872 1.234 8.3181 1.234 12.7971 0 2.6509-1.4419 4.1589-3.3719 4.1589"/><path d="m34.5475 42.504v-17.3472a4.3158 4.3158 0 0 0 -1.3711-3.2907 3.6257 3.6257 0 0 1 3.4278 3.0164 28.4487 28.4487 0 0 0 -.3657-6.1243c2.56 1.3254 3.3364 2.1938 3.6107 4.0219a8.8505 8.8505 0 0 0 -.64-3.6106 7.1918 7.1918 0 0 1 3.2908 6.2158v14.4882"/><path d="m27.3707 17.89a3.738 3.738 0 0 1 3.0819 5.6424"/><path d="m34.5475 26.1622c-1.851-1.8053-4.87-3.7022-10.5475-3.7022"/><path d="m34.5475 30.8215a15.0106 15.0106 0 0 0 -10.5475-3.8366"/><path d="m34.5475 40.3915c-3.8849-2.1024-8.6482-2.1634-10.5475-2.1634"/><path d="m29.7889 27.9335c0 3.3476.2339 6.8821-2.8435 6.8821s-2.9454-4.4181-2.9454-7.8307"/><path d="m29.7735 30.5271c0 2.2622.4778 4.5017 1.529 4.5017s1.1639-1.8434 1.1639-5.7435"/><path d="m34.5475 36.4457c-1.0055.2513-2.12-.9841-2.12-4.5026"/><path d="m27.5975 22.7517.9856-.7714"/><circle cx="34.4104" cy="11.9026" r="1.493"/><path d="m28.269 38.4851c0-1.3386-.47-2.3137-2.0244-2.3137a1.84 1.84 0 0 0 -1.7976 2.0586"/><path d="m32.7792 39.5867c0-1.709-.1208-2.5012-1.8267-2.8372-1.9137-.3769-2.4532 1.7356-2.4532 1.7356"/><path d="m32.7792 39.066a1.5151 1.5151 0 0 1 1.7683-1.226"/></g></svg>