<svg viewBox="0 0 48 48" xmlns="http://www.w3.org/2000/svg"><path d="m35.6091 19.875c5.9586 8.4585 6.3746 14.5211 6.8909 20.625a1.9466 1.9466 0 0 1 -2 2h-9.6148a2.0007 2.0007 0 0 1 -2-2 21.3148 21.3148 0 0 0 -4.8852-13.3224 21.3146 21.3146 0 0 0 -4.8853 13.3224 2.0007 2.0007 0 0 1 -2 2h-9.6147a1.9466 1.9466 0 0 1 -2-2c.516-6.1039.932-12.1665 6.8906-20.625a18.8871 18.8871 0 0 0 -4.8906-.656 1.9465 1.9465 0 0 1 -2-2v-9.7185a1.9838 1.9838 0 0 1 2-2 34.4333 34.4333 0 0 1 16.5 4.344 34.433 34.433 0 0 1 16.5-4.3439 1.9838 1.9838 0 0 1 2 2v9.7186a1.9465 1.9465 0 0 1 -2 2 18.8871 18.8871 0 0 0 -4.8906.656zm.084 19.4637c.02.5306.0254 1.0627.0093 1.5987m-.3906-5.1774c.0947.5267.172 1.052.2293 1.5839m-1.0933-5.0732c.1614.5054.312 1.0213.4427 1.536m-1.7654-4.8853q.3441.7281.64 1.4693m-2.38-4.6145c.2867.4479.5627.9066.8227 1.3693m-2.9374-4.2813q.5081.618.984 1.2613m-3.4371-3.8955c.3853.3693.7666.744 1.1306 1.1346m-3.88-3.4519c.4266.3173.8493.6506 1.26.9893m-4.2706-2.9586c.464.2653.9159.5413 1.3693.8279m-4.6039-2.4013c.4894.2039.98.4173 1.464.652m-4.88-1.7813c.5147.1293 1.0307.2813 1.536.4426m-5.0727-1.0895c.5267.0573 1.0574.1306 1.584.224m-5.1772-.3333c.5306-.0254 1.0626-.0307 1.5986-.02m3.5679 26.8743c-.0213.5306-.0266 1.0627-.0106 1.5987m.3906-5.1773c-.0933.5267-.172 1.0573-.2293 1.5839m1.0947-5.0732c-.1614.5054-.3081 1.0213-.4427 1.536m1.7653-4.8853c-.224.4854-.4427.9747-.6413 1.4693m2.38-4.6145c-.2853.4479-.5613.9066-.8226 1.3693m2.9373-4.2813c-.3374.412-.6667.8333-.984 1.2613m12.4312-9.7557c-.4894.2039-.9787.4173-1.4574.652m4.8747-1.7813c-.5161.1293-1.032.2813-1.536.4426m5.0768-1.0895c-.5306.0573-1.0626.1306-1.5879.224m5.1812-.3333c-.536-.0254-1.0666-.0307-1.604-.02" fill="none" stroke="#000" stroke-linecap="round" stroke-linejoin="round"/></svg>