<svg viewBox="0 0 48 48" xmlns="http://www.w3.org/2000/svg"><g fill="none" stroke="#000"><path d="m24 9.2a16.85 16.85 0 1 1 -16.9 16.9 16.94 16.94 0 0 1 16.9-16.9z"/><g stroke-linecap="round" stroke-linejoin="round"><path d="m35.31 19.3-5.5 1.5"/><path d="m12.71 19.3 5.5 1.5"/><path d="m17.68 5c-5.45-3.29-12 .8-11.1 7.5.1.8 1.57 1.78 2.4.8a17.48 17.48 0 0 1 9.1-5.7c1.49-.36.41-2.11-.4-2.6z"/><path d="m30.32 5c5.45-3.29 12 .8 11.1 7.5-.1.8-1.57 1.78-2.4.8a17.48 17.48 0 0 0 -9.1-5.7c-1.49-.36-.41-2.11.4-2.6z"/><path d="m24 13.4v12.65l4.5 6"/></g></g></svg>