<svg viewBox="0 0 48 48" xmlns="http://www.w3.org/2000/svg"><g fill="none" stroke="#000" stroke-linecap="round" stroke-linejoin="round"><path d="m14.2954 35.0237a9.8034 9.8034 0 0 1 -9.7954-9.8117 10.1867 10.1867 0 0 1 4.5354-8.3972 9.8673 9.8673 0 0 1 9.819-9.9448 10.1647 10.1647 0 0 1 7.407 3.272 10.5236 10.5236 0 0 1 4.3356-.9629 9.6965 9.6965 0 0 1 9.733 9.748 9.751 9.751 0 0 1 -7.0325 16.936 11.07 11.07 0 0 1 -9.14 5.2672 10.0151 10.0151 0 0 1 -9.1406-6.0737 4.9536 4.9536 0 0 0 -.7214-.0328z"/><path d="m17.2749 20.7243 5.8705 1.8594"/><path d="m17.2749 24.4438 5.8705-1.8594"/><path d="m23.9185 26.9752a5.9 5.9 0 0 0 6.3029 0"/></g></svg>