<svg viewBox="0 0 48 48" xmlns="http://www.w3.org/2000/svg"><g fill="none" stroke="#000" stroke-linecap="round" stroke-linejoin="round"><path d="m26.1632 19.99v18.3826c0 .4968 1.7113 3.0913 2.7049 3.0913s2.1529.4417 2.1529 1.2145-.3312.828-.7728.7728a22.6791 22.6791 0 0 0 -2.3185-.7728c-.2208.11-1.6009.97-2.0425.7884a5.2268 5.2268 0 0 0 -2.1345-.7888c-.6166.0277-.9569.822-1.84.8139-.6693-.0062-1.3985-.9239-2.3738-.8135-.4686.0531-1.0488.8148-1.49.8214s-.8832-.159-.8832-.8214c0 0 .6072-1.0488 1.1593-1.0488a3.5966 3.5966 0 0 0 1.7941-.6625 8.9531 8.9531 0 0 1 1.7941-2.4841v-12.1447c0-.3864-.46-.9384-.46-1.7113s.46-.9936.46-1.4352v-1.9318"/><path d="m21.2676 4.6883a2.5733 2.5733 0 0 1 2.6324.4889s.6231-.7376 1.2144-.6732a2.8923 2.8923 0 0 1 2.1713 1.9981s-.11-1.0857 1.5273-.7729a8.2851 8.2851 0 0 1 3.22 4.7843c1.8033.0736 1.8033 1.84.552 2.2817 1.4721.6993-.1472 1.84-.1472 1.84 1.0673.2944.4416 4.7475-3.0546 5.3547s-3.7538-.8648-3.7538-.8648-.5336 1.5824-1.8216 1.5272-.9937-1.4168-.9937-1.4168-.35 2.1713-1.6929 2.0793a1.6166 1.6166 0 0 1 -1.5272-1.3248s-.92 1.2329-1.5641.4416a1.41 1.41 0 0 1 -.4048-1.3616s-3.349.11-3.4594-2.5946 1.4537-3.1281 1.4537-3.1281-1.5457-.6257-1.1224-1.6561a2.3623 2.3623 0 0 1 1.656-1.2512 4.9342 4.9342 0 0 1 .0552-3.3122c.7177-1.3248 3.9379-1.012 3.9379-1.012s-.1392-.9292 1.1215-1.4275z"/><path d="m21.581 30.755-3.186-1.737"/><path d="m26.163 35.833 3.392-2.108"/><path d="m29.2226 30.44a1.9892 1.9892 0 0 1 3.2444.208s1.3311-.52 1.7054.4575a1.0682 1.0682 0 0 1 -.4159 1.3935s1.442 1.2876.1525 2.4264-2.5789.7487-2.6621-.3882a1.6446 1.6446 0 0 1 -1.6292-2.5372s-1.0815-.7492-.3951-1.56z"/><path d="m14.7959 30.7608a2.0158 2.0158 0 0 1 -.6537-3.2545s-.8729-1.1723.0044-1.8044a1.1111 1.1111 0 0 1 1.5027.0351s.9037-1.7681 2.3839-.8034 1.4329 2.3409.319 2.7289a1.587 1.587 0 0 1 -.3623 1.8869 1.6435 1.6435 0 0 1 -1.74.402s-.4613 1.2677-1.454.8094z"/></g></svg>