<svg viewBox="0 0 48 48" xmlns="http://www.w3.org/2000/svg"><g fill="none" stroke="#000" stroke-linecap="round" stroke-linejoin="round"><path d="m37.7123 7.4436a21.4975 21.4975 0 1 1 -30.2687 2.8441 21.4931 21.4931 0 0 1 30.2687-2.8441z"/><path d="m34.81 10.9425c5.2288 4.3395 7.7015 9.9886 5.522 12.6177-2.1893 2.6389-8.2 1.2706-13.4289-3.0689-5.2288-4.33-7.7015-9.9788-5.5122-12.6177 2.1791-2.6388 8.1898-1.2608 13.4191 3.0689z"/><path d="m16.3278 33.2653c2.2088 1.8375 3.2643 4.232 2.3358 5.3462-.9284 1.1239-3.4793.5375-5.6882-1.3-2.2186-1.8374-3.2643-4.232-2.3359-5.3462.9188-1.114 3.4697-.5374 5.6883 1.3z"/><path d="m24.0684 23.9218c3.3817 2.805 4.9845 6.46 3.5674 8.1707-1.4172 1.7006-5.3071.8112-8.6887-1.9938-3.3915-2.805-4.9845-6.46-3.5674-8.1609 1.4074-1.7104 5.2973-.821 8.6887 1.984z"/></g></svg>