<svg viewBox="0 0 48 48" xmlns="http://www.w3.org/2000/svg"><g fill="none" stroke="#000" stroke-linecap="round" stroke-linejoin="round"><path d="m17.3577 40.9644h-6.9107a1 1 0 0 1 -1-1v-16.0331a.0669.0669 0 0 0 -.0669-.067h-3.5185a.3835.3835 0 0 1 -.2564-.6687l17.6513-15.8748a1.1119 1.1119 0 0 1 1.487 0l17.6513 15.8748a.3835.3835 0 0 1 -.2564.6687h-3.5855v16.1a1 1 0 0 1 -1 1h-6.9106"/><path d="m30.6423 40.9644h-9.4013v-6.1782a2.8308 2.8308 0 1 1 5.6615 0"/><path d="m26.9025 34.7862v2.0773"/><path d="m28.2185 29.0821a5.1989 5.1989 0 0 0 -4.1257-1.7449 5.1989 5.1989 0 0 0 -4.1257 1.7449"/><path d="m31.3638 25.635a9.9755 9.9755 0 0 0 -7.2815-3.3988 9.6746 9.6746 0 0 0 -7.271 3.1632"/></g></svg>