<svg viewBox="0 0 48 48" xmlns="http://www.w3.org/2000/svg"><g fill="none" stroke="#000" stroke-linecap="round" stroke-linejoin="round"><path d="m12.9374 13.4966h6.6011"/><path d="m16.2379 23.4604v-9.9638"/><path d="m30.5236 16.8594-4.9819 6.601"/><path d="m30.5236 23.4604-4.9819-6.601"/><path d="m23.38 22.2034a2.49 2.49 0 0 1 -2.1644 1.257 2.4909 2.4909 0 0 1 -2.4913-2.4904v-1.62a2.4909 2.4909 0 0 1 2.4909-2.4909 2.4909 2.4909 0 0 1 2.491 2.4909v.81h-4.9819"/><path d="m34.0792 14.8043v7.4106a1.2455 1.2455 0 0 0 1.2455 1.2451h.3736"/><path d="m32.7714 16.8594h2.6155"/><path d="m9.918 23.46 3.3-3.3-3.3-3.301"/><path d="m13.2184 20.16h-3.7365a4.9819 4.9819 0 0 0 -4.9819 4.9818v4.38a4.9819 4.9819 0 0 0 4.9819 4.9819h29.0362a4.9819 4.9819 0 0 0 4.9819-4.9822v-4.38a4.9819 4.9819 0 0 0 -4.9819-4.9815h-1.2455"/></g></svg>