<svg viewBox="0 0 48 48" xmlns="http://www.w3.org/2000/svg"><g fill="none" stroke="#000" stroke-linecap="round" stroke-linejoin="round"><path d="m6.5656 31.7473a4.1955 4.1955 0 0 0 4.127 4.0613c7.6739.2862 9.6542 2.1931 9.4376 6.6914 6.2311-4.8619 10.9151-6.6334 17.1772-6.6953a4.0062 4.0062 0 0 0 4.127-3.8717l-.0657-22.4955a4.1388 4.1388 0 0 0 -4.247-3.8756l-26.433-.0619c-1.8681.05-4.0148 2.3787-4.0612 4.3127z"/><path d="m13.5355 23.0949 9.7315-.07c4.3243.7465 4.2934 3.4192 4.6221 5.5891l-11.7312.066c-3.2567-.3557-2.7307-3.1019-2.6224-5.5851zm.07-3.5894 17.1811.07c4.4248-.0271 4.8116-2.7424 4.8967-5.6587h-19.8039c-1.8952-.0042-2.3903 2.2932-2.2743 5.5887z"/></g></svg>