<svg viewBox="0 0 48 48" xmlns="http://www.w3.org/2000/svg"><g fill="none" stroke="#000" stroke-linecap="round" stroke-linejoin="round"><path d="m5.775 19.012-2.275 4.011 1.484 2.307"/><path d="m18.6293 17.387a11.2856 11.2856 0 0 0 -1.5535 0"/><path d="m11.7015 21.5648c-.63 1.0076-.6718 2.3932 1.0077 3.6318a12.8173 12.8173 0 0 0 -3.233-.1259l.6508.9237-1.1127.7767.7558.7138s-1.0917.9447-.7558 1.8684l1.1966.105a2.7177 2.7177 0 0 0 1.7635 3.338"/><path d="m24 36.806v.8678s-5.1887 2.3792-7.26-2.5192"/><path d="m24 33.4471c-.934-1.8195-4.0131-2.0714-4.0131.1959s2.1657 3.163 4.0131 3.163"/><path d="m9.938 8.1429s1.4556 3.7508 2.7712 5.15a10.48 10.48 0 0 0 -2.2673 3.6949 15.2707 15.2707 0 0 1 -.5039-8.8449z"/><path d="m18.2794 24c1.3192.01 1.2876 3.5409-.2519 3.5969s-1.5395-3.6109.2519-3.5969z"/><path d="m32.6457 12.9994-1.5957-.5458.84-1.0077-3.191-.7558a11.2023 11.2023 0 0 1 1.511-1.8474 5.4231 5.4231 0 0 0 -3.191 1.05v-1.218l-1.9734 1.47-1.0456-1.0081-1.046 1.0077-1.9734-1.47v1.2181a5.4231 5.4231 0 0 0 -3.191-1.05 11.2023 11.2023 0 0 1 1.5115 1.8476l-3.191.7558.84 1.0077-1.5955.5458"/><path d="m31.1178 11.263c.2775-1.9043 3.2913-7.0389 6.0205-7.0389 2.0993 0 4.4926 6.2981 4.4926 9.783s-2.8971 6.382-2.8971 6.382h1.8054l-2.1413 1.7635 2.9391.87s-1.0077 2.2786 1.4695 5.68a3.56 3.56 0 0 0 -2.3093 0s2.5193 1.5116 2.5193 3.0651-4.9545 1.5535-4.9545 1.5535a32.4979 32.4979 0 0 1 3.4009 1.6375c-1.8474 2.4353-6.13 3.0651-8.8172 3.191l1.47 2.3933s-5.5774 3.2329-10.1157 3.2329l3.2571-5.5446a4.5675 4.5675 0 0 1 -3.2571 1.094 4.5675 4.5675 0 0 1 -3.2571-1.094l3.2571 5.5446c-4.5383 0-10.1152-3.233-10.1152-3.233l1.47-2.3933c-2.6871-.1259-6.97-.7557-8.8172-3.191a32.4979 32.4979 0 0 1 3.4004-1.6375s-4.9545 0-4.9545-1.5535 2.5193-3.0651 2.5193-3.0651a3.56 3.56 0 0 0 -2.3093 0c2.4772-3.4009 1.47-5.68 1.47-5.68l2.9391-.87-2.1418-1.7634h1.8054s-2.8971-2.8971-2.8971-6.382 2.3933-9.783 4.4926-9.783c2.7292 0 5.743 5.1346 6.0205 7.0389"/><path d="m42.225 19.012 2.275 4.011-1.484 2.307"/><path d="m31.8479 5.4557h-15.6958"/><path d="m29.3707 17.387a11.2856 11.2856 0 0 1 1.5535 0"/><path d="m36.2985 21.5648c.63 1.0076.6718 2.3932-1.0077 3.6318a12.8173 12.8173 0 0 1 3.233-.1259l-.6508.9237 1.1127.7767-.7558.7138s1.0917.9447.7558 1.8684l-1.1966.105a2.7177 2.7177 0 0 1 -1.7635 3.338"/><path d="m24 36.806v.8678s5.1887 2.3792 7.26-2.5192"/><path d="m24 33.4471c.934-1.8195 4.0131-2.0714 4.0131.1959s-2.1657 3.163-4.0131 3.163"/><path d="m28.0131 33.5031c0-2.0434-2.0434-5.6823-4.0131-5.6823s-4.0131 3.6389-4.0131 5.6823"/><path d="m38.062 8.1429s-1.4556 3.7508-2.7712 5.15a10.48 10.48 0 0 1 2.2673 3.6949 15.2707 15.2707 0 0 0 .5039-8.8449z"/><path d="m29.7206 24c-1.3192.01-1.2876 3.5409.2519 3.5969s1.5395-3.6109-.2519-3.5969z"/><path d="m28.6989 10.69s-1.2596 6.0462-4.6989 6.0462-4.6989-6.0462-4.6989-6.0462"/></g></svg>