<svg viewBox="0 0 48 48" xmlns="http://www.w3.org/2000/svg"><g fill="none" stroke="#000" stroke-linecap="round" stroke-linejoin="round"><path d="m6.2033 34.2492c8.2229 5.6386 34.3012 6.872 34.3012 6.872"/><path d="m14.367 35.248v-10.749h-4.17v-3.935h4.17v-4.581h4.582v4.229h4.914v4.229h-5.208v11.335"/><path d="m24.1101 30.2553v5.8147"/><path d="m31.8117 32.6634v5.0218"/><path d="m38.0377 33.427v4.4638"/><path d="m36.3343 34.6604h3.4654"/><path d="m29.991 34.2492h3.7003"/><path d="m26.7605 31.6649h-5.0512"/><path d="m21.3569 26.6137c3.4067 2.1732 22.1431 6.05 22.1431 6.05"/><path d="m25.5271 22.5023 17.9729-.5287"/><path d="m21.7093 18.2146c3.4067-1.762 20.7922-10.69 20.7922-10.69"/><path d="m17.03 13.9857c-.0783-2.7605 0-7.1069 0-7.1069"/><path d="m4.5 12.87c2.9955 1.7033 7.5768 4.7925 7.5768 4.7925"/><path d="m4.8524 22.5023h3.5828"/><path d="m12.0768 26.6137c-2.4081 1.4684-7.2244 2.4669-7.2244 2.4669"/></g></svg>