<svg viewBox="0 0 48 48" xmlns="http://www.w3.org/2000/svg"><g fill="none" stroke="#000" stroke-linecap="round" stroke-linejoin="round"><path d="m9.45 6.42c3.67-3 10.83-2.68 14.18 2.68s2.61 11.51 0 12.82-9.65 1.25-13-3.22-4.04-9.9-1.18-12.28z"/><path d="m22.92 22.2c-.71.29-1.9 3.12-1.72 4.67s3.52 5.48 4 5.78c1.08.63 5 1.19 5 1.19a22.45 22.45 0 0 1 3.7-2.84 8.58 8.58 0 0 0 -.9-6.76c-2.08-3.43-8.44-3.06-8.44-3.06"/><path d="m33.9 31a3.84 3.84 0 0 1 2.65.78c.45.47 2 5.39.15 6.4s-3 1.49-4 .87-3-2.45-3-3.4a3.42 3.42 0 0 1 .54-1.79"/><path d="m31.14 37.73c1.24.46.91-1.76.58-2.22-.48-.65-1.89-1-2-.15"/><path d="m26.03 32.02-.36 5.46.36 6.02"/><path d="m22.93 27.97-4.18-1.01-2.59 3.9-3.81 1.49h-1.55"/><path d="m21.18 26.3-4.43-5.01-3.87 1.67-4.05-.98-2.77-1.73"/><path d="m28.05 21.41s.34-6.61-.35-7.57c-.36-.5-2.13 0-2.13 0"/><path d="m30.46 22.14.78-1.59 1.7 1.59 2.36-.8 1.73-1.09"/><path d="m34.22 28.45 2.36-1.22 2.8 3.75 1.73 2.86.83.75"/><path d="m23.63 9.1c-3.42.12-11.19 3.27-11.84 10.9"/><path d="m17.13 4.69c-2.28.55-8.89 3.55-9 9.14"/></g></svg>