<svg viewBox="0 0 48 48" xmlns="http://www.w3.org/2000/svg"><g fill="none" stroke="#000" stroke-linecap="round" stroke-linejoin="round"><ellipse cx="24" cy="27.0212" rx="18.139" ry="15.4788"/><path d="m12.2356 5.5 1.0672 4.8823.8054 3.673a19.6185 19.6185 0 0 1 3.8525-1.5909l-2.5507-3.1044z"/><path d="m35.7644 5.5-3.1744 3.86-2.5284 3.077a19.5672 19.5672 0 0 1 3.8327 1.613l.8029-3.668z"/><path d="m21.2808 25.8284c-.0009 1.1141 1.2176 2.0174 2.72 2.0168s2.7189-.9034 2.718-2.0168q0-.0637-.0049-.1275"/><path d="m15.389 28.5641c-.0014 1.7648 1.9288 3.1957 4.3094 3.1946 2.3791-.0005 4.307-1.431 4.3056-3.1946q0-.1011-.008-.2021"/><path d="m23.996 28.5641c-.0013 1.7648 1.9289 3.1957 4.31 3.1946s4.3069-1.431 4.3055-3.1946q0-.1011-.008-.2021"/><path d="m20.25 32.3712c-.0012 4.07 3.0706 7.3683 3.7516 7.3675.5613-.0007 3.7494-3.3 3.7482-7.3675q0-.2331-.0069-.4659"/></g><circle cx="17.6166" cy="21.891" r=".75"/><circle cx="30.3834" cy="21.891" r=".75"/></svg>