<svg viewBox="0 0 48 48" xmlns="http://www.w3.org/2000/svg"><g fill="none" stroke="#000" stroke-linecap="round" stroke-linejoin="round"><path d="m40.5 42.5h-33a2.0059 2.0059 0 0 1 -2-2v-33a2.0059 2.0059 0 0 1 2-2h33a2.0059 2.0059 0 0 1 2 2v33a2.0059 2.0059 0 0 1 -2 2z"/><path d="m9.2034 15.5h11.2625"/><path d="m14.8347 32.5v-17"/><path d="m26.4716 15.5v17"/><path d="m37.7341 15.5v17"/><path d="m26.4716 23.968h11.2625"/><path d="m13.7722 32.5h2.125"/><path d="m25.4091 32.5h2.125"/><path d="m36.6716 32.5h2.125"/><path d="m25.4091 15.5h2.125"/><path d="m36.6716 15.5h2.125"/><path d="m20.4659 15.5v1.0625"/><path d="m9.2034 15.5v1.0625"/></g></svg>