<svg viewBox="0 0 48 48" xmlns="http://www.w3.org/2000/svg"><path d="m7.45 5.5a2 2 0 0 0 -1.95 2v1.89h37v-1.94a2 2 0 0 0 -2-1.95zm3.89 7.3a2.92 2.92 0 0 0 -2.92 2.92v6.33a2.91 2.91 0 0 1 -2.92 2.95v15.55a2 2 0 0 0 2 2h33.1a2 2 0 0 0 2-2v-17.31a2.88 2.88 0 0 1 -2 .76 2.92 2.92 0 0 1 -2.92-2.93v-5.35a2.92 2.92 0 0 0 -5.84 0v1.46a2.92 2.92 0 0 1 -5.84 0v-1.46a2.92 2.92 0 1 0 -5.84 0v9.28a2.93 2.93 0 0 1 -5.85 0v-9.28a2.91 2.91 0 0 0 -2.92-2.92z" fill="none" stroke="#000" stroke-linecap="round" stroke-linejoin="round"/></svg>