<svg viewBox="0 0 48 48" xmlns="http://www.w3.org/2000/svg"><g fill="none" stroke="#000" stroke-linecap="round" stroke-linejoin="round"><circle cx="24" cy="24" r="21.5"/><path d="m24.6078 38.5a15.0542 15.0542 0 0 0 1.313-6.6014c0-7.8937-3.8416-7.8937-3.8416-15.7874a15.0724 15.0724 0 0 1 1.3153-6.6112"/><path d="m32.187 38.5a15.0542 15.0542 0 0 0 1.313-6.6011c0-7.8937-3.8416-7.8937-3.8416-15.7874a15.0724 15.0724 0 0 1 1.3153-6.6115"/><path d="m17.0286 38.5a15.0542 15.0542 0 0 0 1.313-6.6014c0-7.8937-3.8416-7.8937-3.8416-15.7874a15.0724 15.0724 0 0 1 1.3153-6.6112"/></g></svg>