<svg viewBox="0 0 48 48" xmlns="http://www.w3.org/2000/svg"><g fill="none" stroke="#000" stroke-linecap="round" stroke-linejoin="round"><path d="m29.7149 36.7855a5.7145 5.7145 0 0 1 -11.429 0"/><path d="m18.2864 11.2145a5.7145 5.7145 0 1 1 11.429 0"/><path d="m36.7855 18.3322a5.7146 5.7146 0 0 1 0 11.4291"/><path d="m11.2145 29.7608a5.7146 5.7146 0 0 1 0-11.4291"/><path d="m24.0006 29.76a5.7145 5.7145 0 0 1 -5.7145-5.7145"/><path d="m36.7867 29.7608h-12.7861"/><path d="m18.2864 11.2133v12.8332"/><path d="m11.2145 29.7608h7.0711v7.0238"/><path d="m29.7149 36.7842v-7.0242"/><path d="m29.7149 11.2133v7.1184h7.0711"/><path d="m11.2145 18.3322h7.0711"/></g></svg>