<svg viewBox="0 0 48 48" xmlns="http://www.w3.org/2000/svg"><g fill="none" stroke="#000" stroke-linecap="round" stroke-linejoin="round"><path d="m24.28 5.5a5.61 5.61 0 0 0 -1.8.29l-.84.3v35.91l.78.29a4.23 4.23 0 0 0 1.92.25c1.13 0 1.2-.06 6-2l7.94-3.26a27.37 27.37 0 0 0 3.41-1.57 3.17 3.17 0 0 0 .58-.8c.25-.47.26-.94.26-10.81 0-11.23 0-10.8-.77-11.55-.38-.36-3-1.49-13.22-5.63-3.1-1.34-3.36-1.42-4.26-1.42z"/><path d="m18.88 7.47v33.15"/><path d="m13.52 10.16-.13 27.84"/><path d="m8 35.36-.7-.36a3.81 3.81 0 0 1 -1-.8c-.79-1-.78-.83-.78-10.07 0-8.11 0-8.5.27-9.16a3.29 3.29 0 0 1 1.51-1.7l.64-.27s.06 22.36.06 22.36z"/><path d="m7.94 12.96 13.7-6.87"/><path d="m7.97 35.36 13.67 6.59"/><path d="m26.9 34.56 13.6-3.25"/><path d="m34.78 32.68v-18.58"/><path d="m27 11.96v16.45"/><path d="m34.78 14.1-7.88 14.31"/><path d="m40.5 15.67v11.17"/><path d="m40.5 15.67-13.5-3.71"/><path d="m34.78 14.1 5.72 12.74"/></g></svg>