<svg viewBox="0 0 48 48" xmlns="http://www.w3.org/2000/svg"><g fill="none" stroke="#000" stroke-linecap="round" stroke-linejoin="round"><path d="m7.5 22.19v-1.3834h6.3867v1.3834"/><path d="m10.6934 20.8066v6.0674"/><path d="m9.416 27.1934h2.5547"/><path d="m16.2285 20.8066h1.3838v6.0674h-1.3838"/><path d="m17.6123 24h4.6836"/><path d="m23.68 20.8066h-1.3841v6.0674h1.3841"/><ellipse cx="28.7358" cy="24" rx="3.2998" ry="2.9805"/><path d="m35.0236 27.1934v-6.0674m-1.2773 0h4.6542a1.4909 1.4909 0 1 1 0 2.98h-3.3769"/><path d="m37.8389 24.1064 1.5966 3.087h1.0645"/><path d="m33.9592 27.1934h2.5546"/><path d="m43.5 37.5v-27a2 2 0 0 0 -2-2h-35a2 2 0 0 0 -2 2v27a2 2 0 0 0 2 2h35a2 2 0 0 0 2-2z"/></g></svg>