<svg viewBox="0 0 48 48" xmlns="http://www.w3.org/2000/svg"><g fill="none" stroke="#000" stroke-linecap="round" stroke-linejoin="round"><path d="m24 4.5c-10.08 0-18.26 6.32-18.26 14.11a12.66 12.66 0 0 0 5.06 9.73l-3.46 6.66 10.2-3.21a22.88 22.88 0 0 0 6.46.93c10.08 0 18.26-6.31 18.26-14.1s-8.18-14.12-18.26-14.12zm0 4.15a5 5 0 0 1 5 5v4.15h.71a1 1 0 0 1 .95.95v7.25a1 1 0 0 1 -.95.95h-11.4a1 1 0 0 1 -.95-.95v-7.27a1 1 0 0 1 .95-.95h.69v-4.15a5 5 0 0 1 5-4.98z"/><circle cx="13.63" cy="40.6" r="2.9"/><circle cx="24" cy="40.6" r="2.9"/><circle cx="34.37" cy="40.6" r="2.9"/><path d="m19.02 17.78h9.96"/></g></svg>