<svg viewBox="0 0 48 48" xmlns="http://www.w3.org/2000/svg"><g fill="none" stroke="#000" stroke-linecap="round" stroke-linejoin="round"><path d="m22.84 5.79a2.45 2.45 0 0 1 2.32 0 32 32 0 0 1 8.12 6.52 65 65 0 0 1 8.72 11.75.79.79 0 0 1 -.58 1.18l-3.42.43a.66.66 0 0 0 -.57.65v6.39c0 1.86-.6 7-.85 9a.9.9 0 0 1 -.91.81h-23.38a.9.9 0 0 1 -.91-.81c-.25-2-.85-7.12-.85-9v-6.39a.66.66 0 0 0 -.57-.65l-3.35-.43a.79.79 0 0 1 -.61-1.18 65 65 0 0 1 8.69-11.75 32 32 0 0 1 8.15-6.52z"/><path d="m30.83 42.5c.6-4.15 1.27-19.35 1.27-24.27 0 0-5.64 6.41-5.7 12.88v2.7a1.57 1.57 0 0 0 1.39 1.56l3.61.44"/><path d="m19.33 19.58a206.89 206.89 0 0 0 0 22.92"/><path d="m16.17 19.44c-.3 3.71-.55 10.12-.22 12.25.36 2.31 3.1 2.3 3.1 2.3"/><path d="m22.42 19.58c-.09 3.38-.29 10.73-.27 12.11 0 2.1-3.1 2.3-3.1 2.3"/></g></svg>