<svg viewBox="0 0 48 48" xmlns="http://www.w3.org/2000/svg"><g fill="none" stroke="#000" stroke-linecap="round" stroke-linejoin="round"><path d="m20 4a1 1 0 0 0 -1 .84l-.75 5.3a14.8 14.8 0 0 0 -3.37 2l-5-2a1 1 0 0 0 -1.23.43l-4 6.93a1 1 0 0 0 .24 1.28l4.21 3.31a18.26 18.26 0 0 0 -.1 1.91 15.7 15.7 0 0 0 .13 2l-4.21 3.26a1 1 0 0 0 -.24 1.28l4 6.93a1 1 0 0 0 1.23.43l5-2a15.11 15.11 0 0 0 3.37 2l.75 5.3a1 1 0 0 0 .97.8h8a1 1 0 0 0 1-.84l.76-5.3a14.8 14.8 0 0 0 3.37-2l5 2a1 1 0 0 0 1.22-.43l4-6.93a1 1 0 0 0 -.24-1.28l-4.26-3.22a15.7 15.7 0 0 0 .15-2 15.7 15.7 0 0 0 -.14-1.95l4.23-3.31a1 1 0 0 0 .25-1.28l-4-6.93a1 1 0 0 0 -1.22-.43l-5 2a15.18 15.18 0 0 0 -3.38-2l-.74-5.26a1 1 0 0 0 -1-.84z"/><path d="m27 29.49h5.49"/><path d="m27 18.5h5.49"/><path d="m29.75 18.5v10.99"/><path d="m16.91 29.49h5.49"/><path d="m16.91 18.5h5.49"/><path d="m19.66 18.5v10.99"/><path d="m15.51 18.5h8.3"/><path d="m19.66 29.5v-11"/><path d="m15.51 18.5v2.73"/><path d="m23.81 18.5v2.73"/></g></svg>