<svg viewBox="0 0 48 48" xmlns="http://www.w3.org/2000/svg"><g fill="none" stroke="#000" stroke-linecap="round" stroke-linejoin="round"><path d="m13.46 11.7h3.5v3.5h-3.5z" transform="matrix(.98480775 -.17364818 .17364818 .98480775 -2.1 2.85)"/><path d="m20.35 10.48h3.5v3.5h-3.5z" transform="matrix(.98480775 -.17364818 .17364818 .98480775 -1.79 4.02)"/><path d="m27.85 12.71h3.5v3.5h-3.5z" transform="matrix(.98480775 -.17364818 .17364818 .98480775 -2.06 5.36)"/><path d="m29.06 19.61h3.5v3.5h-3.5z" transform="matrix(.98480775 -.17364818 .17364818 .98480775 -3.24 5.68)"/><path d="m29.67 23.05h3.5v3.5h-3.5z" transform="matrix(.98480775 -.17364818 .17364818 .98480775 -3.83 5.83)"/><path d="m21.57 17.37h3.5v3.5h-3.5z" transform="matrix(.98480775 -.17364818 .17364818 .98480775 -2.97 4.34)"/><path d="m22.17 20.82h3.5v3.5h-3.5z" transform="matrix(.98480775 -.17364818 .17364818 .98480775 -3.56 4.5)"/><path d="m30.89 29.94h3.5v3.5h-3.5z" transform="matrix(.98480775 -.17364818 .17364818 .98480775 -5.01 6.15)"/><path d="m31.49 33.39h3.5v3.5h-3.5z" transform="matrix(.98480775 -.17364818 .17364818 .98480775 -5.6 6.31)"/><path d="m26.23 23.66h3.5v3.5h-3.5z" transform="matrix(.98480775 -.17364818 .17364818 .98480775 -3.99 5.24)"/><path d="m26.83 27.1h3.5v3.5h-3.5z" transform="matrix(.98480775 -.17364818 .17364818 .98480775 -4.58 5.4)"/><path d="m24 31.16h3.5v3.5h-3.5z" transform="matrix(.98480775 -.17364818 .17364818 .98480775 -5.32 4.97)"/><path d="m21.16 35.21h3.5v3.5h-3.5z" transform="matrix(.98480775 -.17364818 .17364818 .98480775 -6.07 4.54)"/><path d="m19.34 24.87h3.5v3.5h-3.5z" transform="matrix(.98480775 -.17364818 .17364818 .98480775 -4.3 4.07)"/><path d="m15.89 25.48h3.5v3.5h-3.5z" transform="matrix(.98480775 -.17364818 .17364818 .98480775 -4.46 3.48)"/><path d="m16.5 28.93h3.5v3.5h-3.5z" transform="matrix(.98480775 -.17364818 .17364818 .98480775 -5.05 3.63)"/><path d="m14.07 15.14h3.5v3.5h-3.5z" transform="matrix(.98480775 -.17364818 .17364818 .98480775 -2.69 3)"/><path d="m17.51 14.54h3.5v3.5h-3.5z" transform="matrix(.98480775 -.17364818 .17364818 .98480775 -2.54 3.59)"/><path d="m14.67 18.59h3.5v3.5h-3.5z" transform="matrix(.98480775 -.17364818 .17364818 .98480775 -3.28 3.16)"/><rect height="35.78" rx="1.89" transform="matrix(.98480775 -.17364818 .17364818 .98480775 -3.8 4.53)" width="25.1" x="11.45" y="6.11"/></g></svg>