<svg viewBox="0 0 48 48" xmlns="http://www.w3.org/2000/svg"><g fill="none" stroke="#000" stroke-linecap="round" stroke-linejoin="round"><rect height="3.4414" rx=".7814" width="5.6055" x="5.5" y="22.2793"/><path d="m18.2832 27.9114-4.5165-7.8228h9.0333z"/><path d="m27.1564 19.9636-4.5164 7.8228h9.033z"/><path d="m7.5 5.5a2 2 0 0 0 -2 2v9.2949h27.502a1.3931 1.3931 0 0 1 1.3964 1.3965v11.6172a1.3931 1.3931 0 0 1 -1.3964 1.3965h-27.502v9.2949a2 2 0 0 0 2 2h33a2 2 0 0 0 2-2v-33a2 2 0 0 0 -2-2z"/></g></svg>