<svg viewBox="0 0 48 48" xmlns="http://www.w3.org/2000/svg"><path d="m33.3372 43.5h-18.6744a2 2 0 0 1 -2-2v-35a2 2 0 0 1 2-2h18.6744a2 2 0 0 1 2 2v35a2 2 0 0 1 -2 2z" fill="none" stroke="#000" stroke-linecap="round" stroke-linejoin="round"/><path d="m21.0977 6.0419h3.6279" fill="none" stroke="#000" stroke-linecap="round" stroke-linejoin="round"/><circle cx="26.5531" cy="6.0872" r=".75"/><g fill="none" stroke="#000" stroke-linecap="round" stroke-linejoin="round"><path d="m19.3043 14.9241h-3.8043v3.8043"/><path d="m32.5 18.7284v-3.8043h-3.8043"/><path d="m28.6957 31.9241h3.8043v-3.8041"/><path d="m17.82 24.5314v5.054h5.054v-5.054z"/><path d="m17.82 17.2443v5.0541h5.054v-5.0541z"/><path d="m25.1073 17.2443v5.0541h5.0541v-5.0541z"/><path d="m27.6435 29.6038a2.66 2.66 0 0 0 1.5943-.9649 3.8452 3.8452 0 0 0 .9419-2.6281v-1.4794h-5.054v1.4794a3.8543 3.8543 0 0 0 .9419 2.6281 2.66 2.66 0 0 0 1.5759.9649z"/><path d="m15.5 28.12v3.8044h3.8043"/><path d="m31.051 4.5h-.603a1 1 0 0 0 -.8639.4964l-.9824 1.6852a2 2 0 0 1 -1.7279.9928h-5.7476a2 2 0 0 1 -1.7279-.9928l-.9824-1.6852a1 1 0 0 0 -.8639-.4964h-.603"/></g></svg>