<svg viewBox="0 0 48 48" xmlns="http://www.w3.org/2000/svg"><g fill="none" stroke="#000" stroke-linecap="round" stroke-linejoin="round"><path d="m40.5 42.5h-33a2 2 0 0 1 -2-2v-33a2 2 0 0 1 2-2h33a2 2 0 0 1 2 2v33a2 2 0 0 1 -2 2z"/><path d="m19.72 18.15v10"/><path d="m23.28 28.15h5"/><path d="m23.28 18.15h5"/><path d="m23.28 23.15h3.26"/><path d="m23.28 18.15v10"/><path d="m31.85 28.15v-10h3.27a3.36 3.36 0 0 1 0 6.72h-3.27"/><path d="m35.12 24.87 3.28 3.28"/><path d="m9.53 18.15h6.62"/><path d="m12.84 28.15v-10"/></g></svg>