<svg viewBox="0 0 48 48" xmlns="http://www.w3.org/2000/svg"><g fill="none" stroke="#000" stroke-linecap="round" stroke-linejoin="round"><path d="m7.8684 5.1128a2.863 2.863 0 0 0 -2.8684 2.8684v25.89a2.8622 2.8622 0 0 0 2.8684 2.8688h23.2261l-6.8645 6.1587h15.9016a2.86 2.86 0 0 0 2.8684-2.8687l-.07-25.9018a2.865 2.865 0 0 0 -2.8688-2.8682h-15.232l-1.6848-6.1587z"/><path d="m31.0945 36.74-6.2653-25.48"/><path d="m19.9077 16.8235h-3.3334v9.3955"/><circle cx="13.8302" cy="26.1265" r="2.7416"/><path d="m27.0327 19.2078h3.7952"/><path d="m29.7449 30.4116h6.3958"/><circle cx="32.5523" cy="19.2222" r="1.6224"/><circle cx="38.0302" cy="30.4588" r="1.6224"/><path d="m28.0261 23.2011a1.6224 1.6224 0 1 1 .7331 3.1538"/><path d="m24.23 42.8986-2.1281-5.9473"/><path d="m34.499 19.2078h4.2256"/><path d="m30.4361 24.7254h8.2885"/></g></svg>