<svg viewBox="0 0 48 48" xmlns="http://www.w3.org/2000/svg"><g fill="none" stroke="#000" stroke-linecap="round" stroke-linejoin="round"><path d="m39.87 26.39h-.79v-5.86a15.65 15.65 0 0 0 -4.7-10.32 15.13 15.13 0 0 0 -10.38-4.21 15.11 15.11 0 0 0 -10.37 4.21 15.59 15.59 0 0 0 -4.71 10.31v6h-.79a1.54 1.54 0 0 0 -1.54 1.48v10.52a1.54 1.54 0 0 0 1.54 1.54h6.87v2.11a.83.83 0 0 0 .82.83h2.77a.83.83 0 0 0 .83-.83v-17.69a.83.83 0 0 0 -.83-.83h-2.75a.83.83 0 0 0 -.82.83v2h-2.49v-6c.5-6 5.78-11 11.48-11s11 5 11.47 11v5.93h-2.48v-1.93a.83.83 0 0 0 -.82-.83h-2.79a.83.83 0 0 0 -.82.83v17.69a.83.83 0 0 0 .82.83h2.77a.83.83 0 0 0 .82-.83v-2.17h6.89a1.54 1.54 0 0 0 1.54-1.54v-10.53a1.54 1.54 0 0 0 -1.54-1.54z"/><path d="m15.02 26.49v13.57"/><path d="m32.98 26.39v13.57"/></g></svg>