<svg viewBox="0 0 48 48" xmlns="http://www.w3.org/2000/svg"><g fill="none" stroke="#000" stroke-linejoin="round"><path d="m34.2 27.0522s-.5266 1.1018-1.2382 2.2862a21.6945 21.6945 0 0 0 -2.1033 4.366 10.3171 10.3171 0 0 0 -.2808 4.59c.1123.485 1.3183 4.7207 1.4306 5.2057-3.3749 0-6.8624-.4477-10.2373-.4477-.2388-.7587-1.755-6.0071-2.3841-6.2973a14.5738 14.5738 0 0 0 -2.1595-.2239c-.4689-.0985-2.7811-.4854-1.8512-2.7426-.1783-.2156-.7869-.4681-.6452-.9515a1.7454 1.7454 0 0 0 .14-.3919c-.2969-.2042-.7563-.4689-.5608-.8118.3012-1.063.0409-1.323-.1963-1.4832-.3652-.0216-1.3266-.421-1.1781-1.0355a3.8792 3.8792 0 0 1 .8137-1.2594 11.47 11.47 0 0 0 1.2621-2.0712c.2753-.6365-.4245-.9939-.2525-1.7911.4673-1.52 1.0088-3.7279 1.0088-3.7279"/><path d="m13.46 15.4151 4.2812.721 7.8529 1.1778 8.2554 4.6268 2.708 1.5476.19 4.7505-13.0626-5.7794-12.4322-3.47z"/><path d="m30.424 4.5-6.7391 17.9594z"/><path d="m17.7409 16.1361 12.6831-11.6361 3.4248 17.4407"/></g></svg>