<svg viewBox="0 0 48 48" xmlns="http://www.w3.org/2000/svg"><g fill="none" stroke="#000" stroke-linecap="round" stroke-linejoin="round"><path d="m18.74 20.4 10.85.09.41 13.42c-.92 2.15-5.08 2.46-5.71 3.43-.75-.92-4.37-1.73-5.46-3.43z"/><path d="m31.39 25.63c8.42-4.84-4.8-10.41 3.61-15.63 2 3.43 2.94 8.24 8.14 7.47.54 4.78-1.05 5.63-3.1 5.65.71 2.8 1.85 3.81 3.5 4.51-.48 1.71-1.21 3.15-3.7 2.83-1.36 6.85-3.69 7.51-7.6 7 2.15-4.4-.08-6.69 2.15-9.95z"/><path d="m21.1 6.12h6.12l.13 5.79 2.29 1.95c-1.42 1.67-2.6 3.55-5.05 4.37-2.73-.75-4-2.57-5.38-4.37l2.09-2z"/><path d="m19.88 40.43c2.86 1.54 5.83 2.32 9.22-.06"/><path d="m16.61 26c-8.42-4.85 4.8-10.42-3.61-15.61-2 3.43-2.94 8.24-8.14 7.47-.54 4.78 1 5.62 3.1 5.65-.67 2.79-1.81 3.81-3.46 4.49.48 1.7 1.21 3.15 3.7 2.82 1.36 6.85 3.69 7.51 7.6 7-2.15-4.4.08-6.69-2.15-10z"/></g></svg>