<svg viewBox="0 0 48 48" xmlns="http://www.w3.org/2000/svg"><g fill="none" stroke="#000" stroke-linecap="round" stroke-linejoin="round"><path d="m30.7257 10.2158a15.4091 15.4091 0 0 0 -18.1149 3.1926"/><path d="m39.2066 23.8615a15.3787 15.3787 0 0 0 -6.4714-12.4332"/><path d="m37.0079 31.9111a15.3029 15.3029 0 0 0 1.8714-4.76"/><path d="m28.3557 38.692a15.404 15.404 0 0 0 6.7911-4.2966"/><path d="m11.5871 14.61a15.3986 15.3986 0 0 0 12.2223 24.764 15.5223 15.5223 0 0 0 2.3156-.1729"/><circle cx="28.5192" cy="18.6633" r="1.8294"/><circle cx="19.5019" cy="16.5393" r="1.3492"/><circle cx="19.247" cy="26.6317" r="1.6237"/><circle cx="24.7573" cy="29.8792" r="1.6237"/><circle cx="33.9884" cy="27.6564" r="1.4989"/><circle cx="38.8061" cy="25.4754" r="1.6629"/><path d="m32.1855 40.1137c.0016-.0233.007-.0454.007-.0691a.9967.9967 0 0 0 -1.93-.3519 1.6595 1.6595 0 1 0 .94 3.0745 1.4174 1.4174 0 1 0 .9831-2.6535z"/><path d="m29.5289 4.9929c.0072-.0222.0178-.0424.0236-.0653a.9966.9966 0 0 0 -1.7856-.8121 1.6595 1.6595 0 1 0 .1612 3.2108 1.4174 1.4174 0 1 0 1.6008-2.3334z"/><path d="m7.3029 31.3331a1.4526 1.4526 0 0 0 -2.4913-1.0168 1.4513 1.4513 0 1 0 -1.441 2.4988 1.7654 1.7654 0 1 0 3.4971-.4462 1.4481 1.4481 0 0 0 .4352-1.0358z"/><path d="m9.9858 7.6286a1.4526 1.4526 0 0 0 -1.2158 2.4007 1.4513 1.4513 0 1 0 2.3738 1.6388 1.7654 1.7654 0 1 0 -.1613-3.5217 1.4481 1.4481 0 0 0 -.9967-.5178z"/><path d="m42.3534 29.4147a1.22 1.22 0 0 0 -1.02 2.0157 1.2185 1.2185 0 1 0 1.9931 1.3759 1.4823 1.4823 0 1 0 -.1354-2.9569 1.2163 1.2163 0 0 0 -.8377-.4347z"/><path d="m43.0164 18.5709a1.5653 1.5653 0 1 0 -1.5256 1.2212 1.5494 1.5494 0 0 0 .7131-.1792.6643.6643 0 0 0 .4488.1792.6715.6715 0 0 0 .6715-.6715.66.66 0 0 0 -.3078-.5497z"/><path d="m6.1459 20.8693a1.5654 1.5654 0 1 0 -1.9359-.2632 1.5493 1.5493 0 0 0 .6213.393.6644.6644 0 0 0 .18.4486.6715.6715 0 0 0 .9493.0235.66.66 0 0 0 .1853-.6019z"/><path d="m14.5692 43.2706a1.5653 1.5653 0 1 0 -1.5616-1.1747 1.5494 1.5494 0 0 0 .3505.6462.6638.6638 0 1 0 1.2111.5285z"/><circle cx="20.1748" cy="42.7672" r="1.5472"/><circle cx="9.9717" cy="37.8482" r="1.5764"/><circle cx="5.4613" cy="25.8351" r="1.3575"/><circle cx="7.9793" cy="15.1285" r="1.1604"/><circle cx="19.3389" cy="5.6956" r="1.1862"/><circle cx="36.6617" cy="10.2532" r="1.102"/><circle cx="39.7562" cy="13.6688" r="1.3502"/><circle cx="43.9576" cy="24.2927" r="1.5424"/><circle cx="35.9565" cy="33.0626" r="1.5597"/><circle cx="27.2517" cy="38.994" r="1.1458"/><path d="m14.9637 27.9954a1.0947 1.0947 0 0 0 -1.0947-1.0947c-.0229 0-.0444.0053-.0672.0067a1.2582 1.2582 0 1 0 -2.4837.3547 1.2433 1.2433 0 1 0 1.0682 2.2228 1.2244 1.2244 0 0 0 2.3044-.7731 1.0849 1.0849 0 0 0 .273-.7164z"/><circle cx="23.1525" cy="11.0341" r="1.2553"/><circle cx="31.6989" cy="10.8808" r="1.175"/><circle cx="27.5072" cy="33.8341" r=".6423"/><circle cx="29.8986" cy="34.834" r=".669"/><circle cx="12.6867" cy="14.5081" r="1.0996"/><path d="m27.6 7.3912-.4209 1.5577"/><path d="m35.8844 11.0341-1.7341 1.5343"/><path d="m38.7285 14.5414-1.9329 1.1588"/><path d="m40.018 18.7548-1.5858.3862"/><path d="m42.4152 24.2927-2.4911-.0451"/><path d="m41.3329 31.4304-3.2981-1.5512"/><path d="m30.3464 39.5253-.543-1.3617"/><path d="m20.384 41.22.45-2.1333"/><path d="m15.2182 40.3025 1.3641-2.7266"/><path d="m10.964 36.6273 1.9279-1.7933"/><path d="m7.2677 31.0168 2.4098-.9172"/><path d="m6.8188 25.8351 1.679-.2223"/><path d="m6.8683 19.8871 1.9608.5143"/><path d="m8.9987 15.6764 1.3706.7814"/><path d="m11.9635 11.4582 1.2532 1.3436"/><path d="m19.5019 6.8689.3573 2.2215"/><circle cx="36.6123" cy="38.1717" r="1.125"/><path d="m34.1468 35.3877 1.8097 1.8718"/></g></svg>