<svg viewBox="0 0 48 48" xmlns="http://www.w3.org/2000/svg"><g fill="none" stroke="#000" stroke-linecap="round" stroke-linejoin="round"><path d="m25.2 20.38c.18.1 4.88 3.56 9.16 6.67 5.24 3.82 7.81 5.77 7.88 6a17.71 17.71 0 0 1 0 2.65c-.12 2.69-.18 2.82-1.44 3.12-.56.13-.74.24-.8.48-.15.59-.38.67-4.09 1.42l-4 .84c-7.73 1.62-7.95 1.66-9.07 1.65a5.21 5.21 0 0 1 -1.6-.21 6.64 6.64 0 0 1 -1.94-1.47l-5.66-5.23c-4.17-3.83-4.88-4.55-5-5a2.36 2.36 0 0 0 -.8-1.15l-.71-.68v-2.83c0-2.81 0-2.84.26-2.93m0 0a2.35 2.35 0 0 1 -1.51-2.89c.09-.16 1-1.54 2.1-3.07l4.36-6.23c2.66-3.81 3.13-4.34 4.07-4.82.71-.36 1.16-.44 7.24-1.22l7.11-.92a31 31 0 0 1 3.81-.35c.52.1 1.48.94 1.48 1.3s-.64 1.18-6.17 8.6c-2.18 2.89-4.52 6.13-4.68 6.27"/><path d="m42.24 33-19.53 4.36a.94.94 0 0 1 -.85-.23l-14.67-13.25"/><path d="m7.39 23.75 17.81-3.37"/></g></svg>