<svg viewBox="0 0 48 48" xmlns="http://www.w3.org/2000/svg"><g fill="none" stroke="#000" stroke-linecap="round" stroke-linejoin="round"><path d="m13.34 27.42h3.56"/><path d="m13.34 20.3h3.56"/><path d="m15.12 20.3v7.12"/><path d="m32.22 27.42h3.56"/><path d="m32.22 20.3h3.56"/><path d="m32.22 23.86h2.32"/><path d="m32.22 20.3v7.12"/><path d="m42 22.68a2.39 2.39 0 0 0 -2.52-2.39 2.48 2.48 0 0 0 -2.26 2.52v2.19a2.39 2.39 0 0 0 2.39 2.39 2.39 2.39 0 0 0 2.39-2.39z"/><path d="m6.04 20.29h5.38"/><path d="m8.73 27.42v-7.13"/><path d="m33.17 18.51 1.66-.78"/><circle cx="24" cy="24" r="21.5"/><path d="m20.62 20.3a1.78 1.78 0 0 0 -1.78 1.78 1.78 1.78 0 0 0 1.78 1.78h.6"/><path d="m21.22 23.86h.61a1.78 1.78 0 0 1 1.77 1.78 1.78 1.78 0 0 1 -1.77 1.78"/><path d="m23.43 20.9a3 3 0 0 0 -2.21-.6h-.6"/><path d="m19 26.82a3 3 0 0 0 2.21.6h.61"/><path d="m27.31 20.3a1.78 1.78 0 0 0 -1.78 1.78 1.78 1.78 0 0 0 1.78 1.78h.6"/><path d="m27.91 23.86h.6a1.78 1.78 0 0 1 1.78 1.78 1.78 1.78 0 0 1 -1.78 1.78"/><path d="m30.12 20.9a3 3 0 0 0 -2.21-.6h-.6"/><path d="m25.7 26.82a3 3 0 0 0 2.21.6h.6"/></g></svg>