<svg viewBox="0 0 48 48" xmlns="http://www.w3.org/2000/svg"><g fill="none" stroke="#000" stroke-linecap="round" stroke-linejoin="round"><path d="m40.5 42.5h-33a2.0059 2.0059 0 0 1 -2-2v-33a2.0059 2.0059 0 0 1 2-2h33a2.0059 2.0059 0 0 1 2 2v33a2.0059 2.0059 0 0 1 -2 2z"/><path d="m12.2038 30.2469a4.4754 4.4754 0 0 0 3.923 1.7531h2.3687a3.9957 3.9957 0 0 0 3.9914-4 3.9957 3.9957 0 0 0 -3.9914-4h-2.6172a3.9957 3.9957 0 0 1 -3.9914-4 3.9957 3.9957 0 0 1 3.9914-4h2.3688a4.4755 4.4755 0 0 1 3.923 1.7531"/><path d="m17.1869 34v-20"/><path d="m25.5131 34h10.6"/></g></svg>