<svg viewBox="0 0 48 48" xmlns="http://www.w3.org/2000/svg"><g fill="none" stroke="#000" stroke-linecap="round" stroke-linejoin="round"><path d="m40.5 42.5h-33a2 2 0 0 1 -2-2v-33a2 2 0 0 1 2-2h33a2 2 0 0 1 2 2v33a2 2 0 0 1 -2 2z"/><path d="m19.3 28.69v-9.39l4.7 9.4 4.7-9.38v9.38"/><path d="m10.5 19.3h6.22"/><path d="m13.61 28.7v-9.4"/><path d="m31.46 27.67a2.64 2.64 0 0 0 2.31 1h1.39a2.35 2.35 0 0 0 2.34-2.35 2.35 2.35 0 0 0 -2.34-2.32h-1.54a2.35 2.35 0 0 1 -2.34-2.35 2.35 2.35 0 0 1 2.34-2.35h1.38a2.61 2.61 0 0 1 2.3 1"/></g></svg>