<svg viewBox="0 0 48 48" xmlns="http://www.w3.org/2000/svg"><g fill="none" stroke="#000" stroke-linecap="round" stroke-linejoin="round"><path d="m40.5 5.5h-33a2 2 0 0 0 -2 2v33a2 2 0 0 0 2 2h33a2 2 0 0 0 2-2v-33a2 2 0 0 0 -2-2z"/><circle cx="23.9979" cy="35.5019" r="1.3158"/><path d="m20.258 26.991a9.25 9.25 0 1 1 -.15-17.164"/><path d="m27.892 9.7949a9.25 9.25 0 1 1 -.1647 17.1586"/><path d="m19.841 18.551 4.239.0319"/><path d="m17.896 21.069 4.239.0319"/><path d="m18.215 16.32 4.239.0319"/><path d="m21.928 14.551 4.239.0319"/><path d="m23.745 17.037a2.5193 2.5193 0 0 1 3.761-.3506l-1.5936 2.3586s-1.57 2.1483-3.4741.7968"/><path d="m25.912 19.045a5.5059 5.5059 0 0 1 3.06 3.3785"/><path d="m30.661 15.794a2.498 2.498 0 0 1 -3.1554.8924"/></g><circle cx="28.335" cy="14.726" r=".75"/><circle cx="23.968" cy="18.407" fill="none" r="9.25" stroke="#000" stroke-linecap="round" stroke-linejoin="round"/><rect fill="none" height="8" rx="2" stroke="#000" stroke-linecap="round" stroke-linejoin="round" width="8" x="20.039" y="31.543"/></svg>