<svg viewBox="0 0 48 48" xmlns="http://www.w3.org/2000/svg"><g fill="none" stroke="#000" stroke-linecap="round" stroke-linejoin="round"><path d="m27.0426 12.9416c-3.4291-2.897-16.85-2.2467-16.85-2.2467l-.4726 32.6506s17.8545.133 23.353 0 9.3414-4.5081 9.4005-7.8781 0-24.1813 0-24.1813c-6.858-.8277-11.9426-.1773-15.4309 1.6555z"/><circle cx="19.5311" cy="24.1719" r="6.9765"/><path d="m32.0431 29.33a6.2715 6.2715 0 1 0 -2.3-1.7859"/><path d="m10.193 10.695-4.494 3.252-.199 25.422 4.22 3.977"/><path d="m33.6953 11.0948a7.7961 7.7961 0 0 0 -15.3186-.2988"/><path d="m34.3962 19.662a2.3593 2.3593 0 0 1 -3.8777 2.59 4.1944 4.1944 0 1 0 3.8777-2.59z"/><path d="m20.5239 20.0074a2.4242 2.4242 0 0 1 -4.2509 2.2107 4.31 4.31 0 1 0 4.2509-2.2107z"/><path d="m24.3614 31.4175c0-2.8162 2.0309-3.9612 4.721-3.9612 2.3945 0 3.7543 3.2517 3.7543 3.2517a18.1787 18.1787 0 0 1 -7.4495 1.4485 9.9041 9.9041 0 0 0 5.3211 2.5423s-.8278.6208-3.6657.6208c-2.3058.0004-2.6812-2.4536-2.6812-3.9021z"/><path d="m30.317 31.5687a10.3937 10.3937 0 0 1 -.2583 3.0083"/></g></svg>