<svg viewBox="0 0 48 48" xmlns="http://www.w3.org/2000/svg"><g fill="none" stroke="#000" stroke-linecap="round" stroke-linejoin="round"><path d="m19.7933 14.9a4.5262 4.5262 0 1 1 0-.0253"/><path d="m38.9866 16.6131a4.8267 4.8267 0 1 1 0-.0271"/><path d="m23.52 32.7984a4.8267 4.8267 0 1 1 0-.0271"/><path d="m15.8811 24.8434a4.426 4.426 0 1 1 0-.0248"/><path d="m13.78 36.2234v-5.1374l-3.0934 3.3145.0552-3.3145-6.2418 6.4631"/><path d="m34.8825 35.56h-4.4744l.0552-5.2479h13.0367"/><path d="m30.4629 33.0194 8.3413-.0552"/><path d="m15.88 22.0263 5.524-.0553 10.6617-10.6616"/><path d="m27.0933 16.0053-.0553-3.5353"/><path d="m25.5471 17.663-3.0383-3.3144"/><path d="m25.326 11.53-4.806 4.5854"/><path d="m20.4644 12.58v5.524"/><path d="m17.7026 21.971v5.9659"/><path d="m5.7158 11.9725 5.8-.0552"/><path d="m9.03 12.083.0552 6.0211"/><path d="m25.3813 35.505c3.8027-.1505 3.5072-5.263-.5524-5.1926h-1.2705v5.5793"/><path d="m19.9681 27.1642 5.4688-5.69v6.684"/><path d="m25.3813 26.7221h-2.983"/><path d="m28.1984 22.4683.0552 5.8"/><path d="m28.3642 26.2248 4.7506-4.7506"/><path d="m30.3524 24.5119 2.43 2.4857"/><path d="m34.9378 22.8v3.2039c.0736 2.4382 3.9035 2.4037 4.0324 0l.0311-3.8115"/></g></svg>