<svg viewBox="0 0 48 48" xmlns="http://www.w3.org/2000/svg"><g fill="none" stroke="#000" stroke-linecap="round" stroke-linejoin="round"><path d="m8.4 6.5v35a2 2 0 0 0 2 2h2.33v-39h-2.33a2 2 0 0 0 -2 2z"/><path d="m12.73 4.5v39h24.87a2 2 0 0 0 2-2v-35a2 2 0 0 0 -2-2z"/><path d="m18.3185 14.3123c-1.2769-.47-2.1573.2387-1.8156 1.4063.7378 2.5206.5522 6.78 2.47 7.8917.6554.38-.0647.7037-.3277.8641-2.0559 1.2536-2.5236 5.382.2316 7.52 1.336 1.2815 3.9862.4878 4.7721-1.6576a4.5344 4.5344 0 0 1 .7047-1.3737 21.0321 21.0321 0 0 1 .6705 2.1743c.3319 1.1095 1.2377 2.7884 3.1906 2.6936a4.2739 4.2739 0 0 0 3.7353-4.2752 6.1415 6.1415 0 0 0 -1.0218-3.3382c4.0379-2.5712 6.8112-8.6851 4.8641-8.8986-2.3253-.255-6.864 1.4973-10.2627 5.59-.8557-2.9438-3.2979-7.1573-7.2111-8.5967z"/></g></svg>