<svg viewBox="0 0 48 48" xmlns="http://www.w3.org/2000/svg"><g fill="none" stroke="#000" stroke-linecap="round" stroke-linejoin="round"><path d="m24 9c2.63 0 5.15 1.8 7 5a24.65 24.65 0 0 1 2.9 12.09c0 9.43-4.43 17.08-9.9 17.08s-9.9-7.65-9.9-17.08 4.42-17.09 9.9-17.09z"/><path d="m20.4 42c-3.51-.86-7.21-3.76-9.91-6.87-6.17-7.13-7.85-15.79-3.74-19.36a6.69 6.69 0 0 1 4.42-1.52 13.74 13.74 0 0 1 5.1 1.12"/><path d="m31.73 15.36a13.74 13.74 0 0 1 5.1-1.12 6.69 6.69 0 0 1 4.42 1.52c4.11 3.57 2.43 12.22-3.74 19.34-2.7 3.11-6.4 6-9.91 6.87"/></g></svg>