<svg viewBox="0 0 48 48" xmlns="http://www.w3.org/2000/svg"><g fill="none" stroke="#000" stroke-linecap="round" stroke-linejoin="round"><path d="m40.0045 41.4084a7.4527 7.4527 0 0 0 -2.9528-1.8784c.4771-.0842 2.0486-.0281 2.1047-.8138s-2.3011-.7857-2.3011-.7857 4.995-5.3879 4.995-8.615c1.347.0842 2.0485-.9541.8419-2.61 1.0663.1965 1.1786-1.9924-.2807-2.61-.7576-3.4516-5.3036-5.0792-5.3036-5.0792s-1.2067-7.1-7.0155-9.26-13.6381 1.8237-14.5641 2.9465c.0561-2.3011-3.7322-4.6583-5.8649-1.5154s-.7577 5.8088 2.1327 5.9491a9.45 9.45 0 0 0 -2.245 3.9287s-3.9286 3.0587-4.0689 5.4721c-.04.6854.3956.9814 1.04 1.0541-1.0117.63-1.7132 2.5378.4756 3.6883a6.4818 6.4818 0 0 0 1.5715 2.245s-2.712-.0161-2.61.87c.0842.73 1.3189.5612 1.3189.5612a9.1988 9.1988 0 0 0 -2.7782 2.0204"/><path d="m33.1511 19.4516c.5262-3.9988-2.4413-7.3451-4.1882-7.9976a2.6208 2.6208 0 0 0 -3.3464 1.1786c-1.389-1.2-3.9146-1.8731-5.2826-.0631s-2.9675 4.7985-.442 9.4077"/><path d="m26.7951 19.4516c2.6246-.2867 10.1233.1263 10.7126 4.3145s-5.3677 7.8768-8.7108 8.0269c-5.1563.2315-11.641-3.2072-11.641-5.6065s4.6302-6.1877 9.6392-6.7349z"/><path d="m18.895 28.6568c.2533 1.15 1.9791 6.1587 4.645 6.4814s4.9809-3.3341 4.9809-3.3341"/><path d="m20.6806 32.8263a2.9014 2.9014 0 0 1 3.168.067c.6455-.4116 2.16.2363 2.42 1.3458"/><path d="m32.8841 11.4024c.2986-.7061.8856-4.2381-2.7847-4.768-2.9886-.4315-2.6219 2.5433-2.6219 2.5433"/><path d="m23.708 23.5066c0 1.0267 3.55 4.7705 6.1318 4.7705s5.1354-1.8942 5.1354-5.9772c0-2.4133-4.532-3.171-6.2859-2.54s-4.9813 1.5301-4.9813 3.7467z"/><circle cx="23.2734" cy="18.0485" r="1.0804"/><circle cx="27.6791" cy="17.8802" r=".9401"/><path d="m19.12 11.1173a2.5873 2.5873 0 0 1 3.073-1.5434"/><path d="m26.3181 8.3672a7.4763 7.4763 0 0 1 3.2972 2.0345"/></g></svg>