<svg viewBox="0 0 48 48" xmlns="http://www.w3.org/2000/svg"><g fill="none" stroke="#000" stroke-linecap="round" stroke-linejoin="round"><path d="m31.7735 30.295c-5.3125 2.1102-10.2704 6.225-12.0365 12.205"/><path d="m34.5507 33.5676c-3.42 1.5414-7.6685 4.8882-8.2536 8.9323"/><path d="m35.6351 42.5h-22.4479"/><path d="m30.065 26.687c-8.8231 1.3106-14.6115 8.4643-16.8778 15.813"/><path d="m25.1844 20.7136c-3.4143 0-6.4815 2.1123-7.4022 7.2489v-11.9041a6.21 6.21 0 0 1 12.42 0v4.6552z"/><path d="m35.6351 42.5a6.7649 6.7649 0 0 0 1.9195-13.2522 4.0477 4.0477 0 0 0 -3.0036-5.6852v.0017-7.5059a10.5585 10.5585 0 0 0 -21.1169 0v11.2644h-.2466a7.5886 7.5886 0 0 0 0 15.1771"/></g></svg>