<svg viewBox="0 0 48 48" xmlns="http://www.w3.org/2000/svg"><g fill="none" stroke="#000" stroke-linecap="round" stroke-linejoin="round"><path d="m28.4126 30.8566v-7.5281h1.6939a3.2936 3.2936 0 0 1 3.2935 3.2935v.941a3.2936 3.2936 0 0 1 -3.2935 3.2936z"/><path d="m14.6 28.3629a2.4937 2.4937 0 0 0 4.9874 0v-2.5407a2.4937 2.4937 0 0 0 -4.9874 0z"/><path d="m24.696 27.0925a1.8821 1.8821 0 0 1 0 3.7641h-3.1054v-7.5281h3.1054a1.882 1.882 0 0 1 0 3.764z" stroke-width=".8662"/><path d="m24.696 27.0925h-3.1054" stroke-width=".8662"/><path d="m18.1425 14.7025a1.7 1.7 0 0 1 0-3.39h12a1.7 1.7 0 1 1 0 3.39z"/><path d="m7.8925 31.5725a1.7 1.7 0 0 1 -3.39 0v-10.17a1.7 1.7 0 1 1 3.39 0z"/><path d="m7.8925 26.4825h2.11"/><path d="m24.1425 17.4625v-2.76"/><path d="m36.7725 25.0625h2.3v-3.26h2.11l2.32 7.2-2.33 7.2h-2.1v-3.14h-2.3l.02 2.05a1.58 1.58 0 0 1 -1.58 1.58h-13.56a1.17 1.17 0 0 1 -.66-.2l-4.99-3.47h-4.21a1.79 1.79 0 0 1 -1.79-1.79c0-.0135 0-.027 0-.0405v-9.4a1.8 1.8 0 0 1 1.79-1.77h1.4l2.66-2.26a1.13 1.13 0 0 1 .73-.27h15.26a1.59 1.59 0 0 1 1.58 1.53v2.15h1.79a1.59 1.59 0 0 1 1.58 1.59z"/></g></svg>