<svg viewBox="0 0 48 48" xmlns="http://www.w3.org/2000/svg"><g fill="none" stroke="#000" stroke-linecap="round" stroke-linejoin="round"><path d="m24 2.5 3.05 2.24 3.594-1.188 2.209 3.073 3.784-.019 1.152 3.605 3.605 1.152-.019 3.784 3.073 2.209-1.188 3.594 2.24 3.05-2.24 3.05 1.188 3.594-3.073 2.209.019 3.784-3.605 1.152-1.152 3.605-3.784-.019-2.209 3.073-3.594-1.188-3.05 2.24-3.05-2.24-3.594 1.188-2.209-3.073-3.784.019-1.152-3.605-3.605-1.152.019-3.784-3.073-2.209 1.188-3.594-2.24-3.05 2.24-3.05-1.188-3.594 3.073-2.209-.019-3.784 3.605-1.152 1.152-3.605 3.784.019 2.209-3.073 3.594 1.188z"/><circle cx="24" cy="24" r="12.5"/><path d="m17.249 22.757 6.751 6.751 6.751-6.751"/><path d="m24 29.508v-18.008"/></g></svg>