<svg viewBox="0 0 48 48" xmlns="http://www.w3.org/2000/svg"><path d="m7.45 5.5a2 2 0 0 0 -1.95 2v33.1a2 2 0 0 0 2 2h33.1a2 2 0 0 0 2-2v-33.15a2 2 0 0 0 -2-1.95s-3.29.1-5.5.11a1.94 1.94 0 0 0 -2 1.94v9.23a1 1 0 0 1 -1 1h-16.23a1 1 0 0 1 -1-1v-9.33a2 2 0 0 0 -1.87-1.95zm19.84 1.5a1 1 0 0 0 -1 1v6.56a1 1 0 0 0 1 1h1.39a1 1 0 0 0 1-1v-6.56a1 1 0 0 0 -1-1zm-14.75 14.92h22.92a2 2 0 0 1 1.95 1.95v14a1.94 1.94 0 0 1 -1.95 1.94h-22.92a1.94 1.94 0 0 1 -1.95-1.94v-14a2 2 0 0 1 1.95-1.95zm.66 4.58h21.6m0 4.36h-21.6m0 4.35h21.6" fill="none" stroke="#000" stroke-linecap="round" stroke-linejoin="round"/></svg>