<svg viewBox="0 0 48 48" xmlns="http://www.w3.org/2000/svg"><g fill="none" stroke="#000"><g stroke-linecap="round" stroke-linejoin="round"><path d="m8.8582 18.8032v-9.9668a2.1814 2.1814 0 0 1 2.1853-2.1871h30.2712a2.1814 2.1814 0 0 1 2.1853 2.1871v11.3136a2.1814 2.1814 0 0 1 -2.1853 2.1871h-4.9747"/><path d="m6.6853 18.9626h21.9766a2.1814 2.1814 0 0 1 2.1853 2.1874v1.5464a2.1814 2.1814 0 0 1 -2.1853 2.1871h-21.9766a2.1814 2.1814 0 0 1 -2.1853-2.1874v-1.5461a2.1814 2.1814 0 0 1 2.1853-2.1874z"/><path d="m15.6084 16.7619a2.5114 2.5114 0 0 1 2.5159-2.5179h15.3835a2.5113 2.5113 0 0 1 2.5159 2.5179v15.3958a2.5113 2.5113 0 0 1 -2.5159 2.5179h-15.3835a2.5114 2.5114 0 0 1 -2.5159-2.5179v-7.2577"/><path d="m25.3538 34.78v4.384a2.1814 2.1814 0 0 1 -2.1853 2.1871h-10.19a2.1814 2.1814 0 0 1 -2.1853-2.1871v-13.9231"/></g><path d="m15.6084 16.7619v1.921" stroke-miterlimit="8.8"/></g></svg>