<svg viewBox="0 0 48 48" xmlns="http://www.w3.org/2000/svg"><g fill="none" stroke="#000" stroke-linecap="round" stroke-linejoin="round"><path d="m36.16 22.38c2.38 1.5 3.81 3.43 3.81 5.55 0 4.73-7.15 8.56-16 8.56s-15.97-3.83-15.97-8.56 7.15-8.56 16-8.56a28.64 28.64 0 0 1 4 .27"/><path d="m40 27.93h-32v7c0 4.73 7.15 8.56 16 8.56s16-3.83 16-8.56z"/><path d="m24 36.49v-17.12"/><path d="m29.81 24.82-17.1 9.17v6.91"/><path d="m12.71 21.88 22.59 12.11v6.91"/><path d="m24 35.72v7.78"/><circle cx="32.04" cy="21.12" r="4.31"/><path d="m26.51 14.01-4.91-6.33"/><path d="m16.97 5.77 4.74 6.12"/><path d="m26.25 17.7-3.29-4.28"/><path d="m22.28 4.5 4.11 5.31"/><path d="m27.98 12.02 1.37 1.77"/></g></svg>