<svg viewBox="0 0 48 48" xmlns="http://www.w3.org/2000/svg"><g fill="none" stroke="#000"><path d="m43.5 23.52v-11.686a4.2163 4.2163 0 0 0 -4.2162-4.2162h-30.5676a4.2162 4.2162 0 0 0 -4.2162 4.2162v11.686a8.2185 8.2185 0 0 0 3.4247 6.6755l12.6507 9.0845a5.8713 5.8713 0 0 0 6.8492 0l12.6507-9.0843a8.2185 8.2185 0 0 0 3.4247-6.6757z"/><path d="m29.9974 26.0984h-2.1786a2.1782 2.1782 0 0 0 -1.7082.8265l-1.4561 1.84a.8342.8342 0 0 1 -1.3083 0l-1.456-1.84a2.1783 2.1783 0 0 0 -1.7082-.8265h-2.1786a.6089.6089 0 0 1 -.5275-.9131l5.9979-10.4a.6078.6078 0 0 1 1.0531 0l5.9979 10.4a.6089.6089 0 0 1 -.5275.9131z"/></g></svg>