<svg viewBox="0 0 48 48" xmlns="http://www.w3.org/2000/svg"><g fill="none" stroke="#000" stroke-linecap="round" stroke-linejoin="round"><path d="m24 18.72a2.79 2.79 0 1 0 2.79 2.79 2.79 2.79 0 0 0 -2.79-2.79z"/><path d="m39.81 4.5-15.38 3.64a2.08 2.08 0 0 1 -.86 0l-15.38-3.64a1.86 1.86 0 0 0 -1.86 1.86v31.64a1.86 1.86 0 0 0 1.86 1.86l15.38 3.61a1.79 1.79 0 0 0 .86 0l15.38-3.61a1.86 1.86 0 0 0 1.86-1.86v-31.64a1.86 1.86 0 0 0 -1.86-1.86zm-15.35 33.5a.49.49 0 0 1 -.7.06l-.06-.06c-1.61-1.86-7.82-9.53-7.82-15.88a8.12 8.12 0 1 1 16.24 0c0 6.27-6.12 13.93-7.66 15.88z"/></g></svg>