<svg viewBox="0 0 48 48" xmlns="http://www.w3.org/2000/svg"><path d="m37.42 13.19a2.6 2.6 0 0 0 -2.59-2.61 2.61 2.61 0 1 0 0 5.22 2.6 2.6 0 0 0 1.83-.75 2.54 2.54 0 0 0 .76-1.86zm5.08-7a25.65 25.65 0 0 1 -1.71 9.81 26 26 0 0 1 -5.79 8.16q-1.84 1.85-4.42 4l-.45 8.59a.79.79 0 0 1 -.36.59l-8.7 5.07a.69.69 0 0 1 -.37.1.8.8 0 0 1 -.51-.21l-1.46-1.45a.73.73 0 0 1 -.17-.72l1.92-6.26-6.36-6.37-6.21 1.92h-.21a.72.72 0 0 1 -.52-.2l-1.46-1.44a.7.7 0 0 1 -.11-.88l5.08-8.7a.86.86 0 0 1 .59-.37l8.59-.45c1.45-1.72 2.77-3.19 4-4.42a26.52 26.52 0 0 1 8.13-5.85 25.44 25.44 0 0 1 9.73-1.61.86.86 0 0 1 .55.21.72.72 0 0 1 .22.51z" fill="none" stroke="#000" stroke-linecap="round" stroke-linejoin="round"/></svg>