<svg viewBox="0 0 48 48" xmlns="http://www.w3.org/2000/svg"><g fill="none" stroke="#000"><g stroke-linecap="round" stroke-linejoin="round"><path d="m11.7346 20.1105a9.4746 9.4746 0 0 1 18.4466-1.4619"/><path d="m30.1812 18.6486a6.4969 6.4969 0 0 1 6.0564-.3808 6.3785 6.3785 0 0 1 3.688 5.356"/><path d="m39.9256 23.6238a5.4517 5.4517 0 0 1 -1.1272 10.5027"/><path d="m38.7983 34.1265h-27.9339"/><path d="m11.7346 20.1105a7.0242 7.0242 0 0 0 -.87 14.016"/><path d="m30.147 27.33 7.4542-8.204"/><path d="m20.8136 21.8425 6.5 5.7"/><path d="m6.0792 31.6064 11.7165-9.8307"/></g><circle cx="19.3336" cy="20.5001" r="2" stroke-miterlimit="10"/><circle cx="28.8358" cy="28.8362" r="2" stroke-miterlimit="10"/></g></svg>