<svg viewBox="0 0 48 48" xmlns="http://www.w3.org/2000/svg"><path d="m42.7549 19.2664a.9653.9653 0 0 0 .7451-.9343h-.0037v-8.6475a.97.97 0 0 0 -1.1977-.9346l-13.8956 3.2955a2.4074 2.4074 0 0 1 -1.2942-.05l-6.2729-2.038a2.39 2.39 0 0 0 -1.2982-.05l-14.2926 3.4008a.9617.9617 0 0 0 -.7451.9317v8.6475a.9727.9727 0 0 0 1.2016.9344l13.7633-3.2953a2.4087 2.4087 0 0 1 1.2982.05l6.2729 2.038a2.4279 2.4279 0 0 0 1.2943.05l14.4249-3.4012zm0 15.4249a.9609.9609 0 0 0 .7451-.9343h-.0037v-8.647a.97.97 0 0 0 -1.1977-.9343l-13.8956 3.2943a2.4074 2.4074 0 0 1 -1.2942-.05l-6.2729-2.038a2.3908 2.3908 0 0 0 -1.2982-.05l-14.2926 3.4012a.9609.9609 0 0 0 -.7451.9343v8.6475a.9726.9726 0 0 0 1.2016.9343l13.7633-3.2952a2.4087 2.4087 0 0 1 1.2982.05l6.2729 2.038a2.4 2.4 0 0 0 1.2943.05z" fill="none" stroke="#000" stroke-linecap="round" stroke-linejoin="round"/></svg>