<svg viewBox="0 0 48 48" xmlns="http://www.w3.org/2000/svg"><g fill="none" stroke="#000" stroke-linecap="round" stroke-linejoin="round"><path d="m7.45 5.5a2 2 0 0 0 -1.95 2v33.1a2 2 0 0 0 2 2h33.1a2 2 0 0 0 2-2v-33.15a2 2 0 0 0 -2-1.95z"/><rect height="6.37" rx="2.4" width="4.79" x="18.69" y="31.78"/><path d="m23.48 31.78v6.38"/><path d="m28.26 34.18a2.4 2.4 0 0 1 2.4-2.4 2.4 2.4 0 0 1 2.39 2.4v4"/><path d="m28.26 31.78v6.38"/><path d="m14.49 34.18a2.4 2.4 0 0 1 2.4-2.4"/><path d="m14.49 31.78v6.38"/><path d="m10.64 28.57v9.59"/><path d="m8.96 31.78h3.35"/><path d="m25.87 31.78v6.38"/></g><circle cx="25.87" cy="29.31" r=".9"/></svg>