<svg viewBox="0 0 48 48" xmlns="http://www.w3.org/2000/svg"><g fill="none" stroke="#000" stroke-linecap="round" stroke-linejoin="round"><path d="m13.4555 7.8789h21.089a2.4778 2.4778 0 0 1 2.4822 2.4842v24.2054a2.4778 2.4778 0 0 1 -2.4822 2.4842h-21.089a2.4778 2.4778 0 0 1 -2.4822-2.4842v-24.2054a2.4778 2.4778 0 0 1 2.4822-2.4842z"/><path d="m16.0712 40.28h15.8576m-17.6576 3.22 3.6037-6.4473m12.25 0 3.6039 6.4473"/><path d="m14.0103 7.8789h19.9794v15.4643h-19.9794z"/><circle cx="17.6292" cy="28.462" r="3.2456"/><circle cx="30.3708" cy="28.462" r="3.2456"/><path d="m16.5212 4.5h14.9576"/><path d="m27.3622 4.5v3.3789"/><path d="m20.6378 4.5v3.3789"/><path d="m10.9733 33.5175h26.0534"/><path d="m31.8676 28.7308a1.5153 1.5153 0 0 0 -2.9932 0"/></g><circle cx="16.7617" cy="27.9541" r=".75"/><path d="m29.0678 33.5175c-.0387.9914-.0077 1.4817-.6816 1.8961h-8.7724c-.6739-.4144-.643-.9047-.6816-1.8961" fill="none" stroke="#000" stroke-linecap="round" stroke-linejoin="round"/></svg>