<svg viewBox="0 0 48 48" xmlns="http://www.w3.org/2000/svg"><g fill="none" stroke="#000" stroke-linecap="round" stroke-linejoin="round"><path d="m4.5 35.8439a7.931 7.931 0 0 0 1.0281 3.2489 39.6111 39.6111 0 0 0 8.5128 1.1515c4.0714 0 10.61-1.4394 11.4739-3.2489s1.1515-10.0344 6.3743-13.3244 2.1385-6.0453 1.48-6.6622-7.0318-7.9782-7.4431-9.2531c0 0-4.1125.9048-4.3592 2.3441a20.14 20.14 0 0 1 -.8865 3.1255l-3.0615-.0411s-4.7288 10.3223-6.7856 18.1358c-4.3181 1.7275-6.3332 3.5857-6.3332 4.5239z"/><path d="m14.2877 19.2295.6857.1512"/><path d="m15.5214 16.2069.7173.1254"/><path d="m13.2801 21.7176.6886.2094"/><path d="m12.2931 24.2879.7552.1007"/><path d="m11.3678 27.0227.7579.0127"/><path d="m10.607 29.3051.7492.1589"/><path d="m10.3436 39.9875a6.2893 6.2893 0 0 1 -.8881-1.7175"/><path d="m7.8928 38.27a5.64 5.64 0 0 0 .51 1.4236"/><path d="m6.3506 37.6123a8.1548 8.1548 0 0 0 .3447 1.75"/><path d="m13.8764 36.5842c1.0693-.0206 5.1406-.7814 6.1071-2.0151"/><path d="m27.7766 21.1418a33.9912 33.9912 0 0 0 6.9421-2.2524"/><path d="m29.8123 22.2933a17.8514 17.8514 0 0 0 4.7077-1.1515"/><path d="m29.9357 18.551a8.4487 8.4487 0 0 0 2.2932-2.7929"/><path d="m25.7615 11.7448a23.3684 23.3684 0 0 0 2.8415-.2743"/><path d="m21.0527 31.5464c1.11-.5346 6.7385-2.6582 6.7385-2.6582"/><path d="m25.2269 31.2791a15.6259 15.6259 0 0 1 1.8844-.5316"/><path d="m22.7183 36.8721a18.61 18.61 0 0 0 3.2386-1.41"/><path d="m28.2011 10.9721c2.8107-.4473 11.2961-1.2013 11.2961-1.2013"/><path d="m29.6532 12.6284c1.0943-.2424 5.4455-.6793 5.4455-.6793"/><path d="m34.7187 14.87s7.1913-1.535 8.7813-1.7818"/><path d="m34.9219 19.722 8.3749-2.342"/><path d="m34.0382 21.8668c1.744-.2246 7.1451-1.8512 7.1451-1.8512"/><path d="m27.4082 29.8677c3.0964-1.1521 13.2818-4.9492 13.2818-4.9492"/><path d="m25.6381 36.6848c3.8383-1.6359 15.1477-7.01 15.1477-7.01"/></g><circle cx="16.2044" cy="29.6752" r=".75"/><circle cx="17.4872" cy="27.029" r=".75"/><circle cx="18.7699" cy="24.0854" r=".75"/><circle cx="19.9685" cy="21.1418" r=".75"/><circle cx="21.3353" cy="18.3405" r=".75"/></svg>