<svg viewBox="0 0 48 48" xmlns="http://www.w3.org/2000/svg"><path d="m43 25.43 3.13-1.81-3.13-1.82 2.71-2.37-3.41-1.18 2.19-2.86-3.59-.49 1.58-3.23-3.61.21.92-3.47-3.5.91.22-3.59-3.25 1.57-.49-3.56-2.88 2.16-1.18-3.39-2.4 2.68-1.82-3.1-1.83 3.1-2.4-2.69-1.18 3.39-2.88-2.17-.5 3.55-3.25-1.57.21 3.58-3.5-.91.92 3.47-3.61-.22 1.53 3.23-3.58.49 2.22 2.86-3.42 1.17 2.7 2.38-3.12 1.81 3.12 1.82-2.71 2.38 3.42 1.17-2.19 2.86 3.58.5-1.59 3.22 3.57-.21-.92 3.47 3.5-.9-.22 3.58 3.25-1.56.49 3.55 2.9-2.16 1.17 3.39 2.44-2.67 1.82 3.1 1.83-3.1 2.39 2.69 1.19-3.39 2.88 2.18.5-3.56 3.24 1.57-.21-3.58 3.5.91-.91-3.47 3.61.22-1.58-3.23 3.58-.48-2.18-2.86 3.42-1.17zm-8.73-1.89a10 10 0 0 1 -10 10 10 10 0 0 1 -3.88-19.25v8.56h-2.39l6.34 6.68 6.33-6.68h-2.18v-8.4a10 10 0 0 1 5.77 9.07z" fill="none" stroke="#000" stroke-linecap="round" stroke-linejoin="round"/></svg>