<svg viewBox="0 0 48 48" xmlns="http://www.w3.org/2000/svg"><g fill="none" stroke="#000" stroke-linecap="round" stroke-linejoin="round"><path d="m24.51 18.47-3.51-9.74a1 1 0 0 0 -1.32-.61l-14.5 5.27a1 1 0 0 0 -.62 1.31l9.14 25.11a1 1 0 0 0 1.32.61l10.84-4"/><path d="m12.85 37.48 8.88-3.24"/><path d="m21.82 11.07-16.41 5.97"/><rect height="28.77" rx="1.03" transform="matrix(.98480775 .17364818 -.17364818 .98480775 4.49 -5.31)" width="17.46" x="23.84" y="8.65"/><path d="m22.08 32.23 17.2 3.03"/><path d="m43.05 13.84-17.19-3.03"/><circle cx="13.95" cy="24.27" r="2.05"/><circle cx="33.25" cy="24.27" r="2.05"/><circle cx="20.19" cy="24.27" r="1.54"/><circle cx="27.02" cy="24.27" r="1.54"/></g></svg>