<svg viewBox="0 0 48 48" xmlns="http://www.w3.org/2000/svg"><g fill="none" stroke="#000" stroke-linecap="round" stroke-linejoin="round"><path d="m8.54 39.08h7.74v4.42h-7.74z"/><path d="m31.72 39.08h7.74v4.42h-7.74z"/><path d="m7.29 11h1.2v7.94a2.44 2.44 0 0 1 -2.4-2.47v-4.25a1.22 1.22 0 0 1 1.2-1.22z"/><path d="m40.71 11h-1.2v7.94a2.44 2.44 0 0 0 2.4-2.47v-4.25a1.22 1.22 0 0 0 -1.2-1.22z"/><path d="m24 4.5c-5.51 0-15.46.86-15.46 3.1v31.48h30.92v-31.48c0-2.24-10.02-3.1-15.46-3.1zm0 4.23q8.19 0 12.2 1.23a1 1 0 0 1 .67.92v17a1 1 0 0 1 -1 1h-23.73a1 1 0 0 1 -1-1v-17a1 1 0 0 1 .67-.92q4-1.23 12.19-1.23zm-10.41 22.77a2.5 2.5 0 0 1 0 5 2.47 2.47 0 0 1 -2.43-2.5 2.47 2.47 0 0 1 2.43-2.5zm20.87 0a2.5 2.5 0 0 1 0 5 2.47 2.47 0 0 1 -2.46-2.5 2.47 2.47 0 0 1 2.46-2.5z"/></g></svg>