<svg viewBox="0 0 48 48" xmlns="http://www.w3.org/2000/svg"><g fill="none" stroke="#000" stroke-linecap="round" stroke-linejoin="round"><path d="m9.5836 42.5c-.24-1.2546 1.58-1.7408 1.9709-1.997 4.8532-2.5 9.5154-2.4232 9.1952-7.3089-1.3009-1.1416-1.6692-3.1148-2.5843-4.5581a1.7443 1.7443 0 0 1 -.0426-2.6217c.0247-1.1167.0464-5.56.2449-5.5969.53-2.1723 2.8391-3.3 5.1607-3.3s4.6307 1.1276 5.1606 3.3c.1985.037.22 4.48.2449 5.5969a1.7443 1.7443 0 0 1 -.0426 2.6217c-.9151 1.4433-1.2834 3.4165-2.5843 4.5581-.32 4.8857 4.3421 4.8085 9.1952 7.3089.39.2562 2.2109.7424 1.9709 1.997"/><path d="m6.9037 5.7324h3.8794"/><path d="m6.9037 9.6106h2.5225"/><path d="m6.9037 5.7324v7.7563"/><path d="m13.6536 13.4527v-7.7576h2.5212a2.6182 2.6182 0 0 1 0 5.2364h-2.5212"/><path d="m16.3578 10.9239 2.4352 2.5288"/><path d="m36.055 12.48a2.3108 2.3108 0 0 0 1.9385.8724h1.1643a1.9442 1.9442 0 0 0 1.9385-1.9385 1.9434 1.9434 0 0 0 -1.9385-1.9385h-1.2612a1.9452 1.9452 0 0 1 -1.9385-1.94 1.9444 1.9444 0 0 1 1.9385-1.94h1.1643a2.0811 2.0811 0 0 1 1.9385.8723"/><path d="m33.6369 10.7339a2.6072 2.6072 0 0 1 -2.6169 2.6182 2.607 2.607 0 0 1 -2.6182-2.5958v-2.6381a2.6074 2.6074 0 0 1 2.6182-2.6182 2.5259 2.5259 0 0 1 2.52 2.6182"/></g></svg>