<svg viewBox="0 0 48 48" xmlns="http://www.w3.org/2000/svg"><g fill="none" stroke="#000" stroke-linecap="round" stroke-linejoin="round"><circle cx="17.07" cy="35.78" r="2.02"/><path d="m12.64 9.98h22.72v4.63h-22.72z"/><path d="m31.92 4.5h-15.84a7.58 7.58 0 0 0 -7.58 7.58v19a3 3 0 0 0 .36 1.43l4.78 9a3.78 3.78 0 0 0 3.34 2h14.02a3.78 3.78 0 0 0 3.34-2l4.78-9a3 3 0 0 0 .36-1.43v-19a7.58 7.58 0 0 0 -7.56-7.58z"/><circle cx="30.93" cy="35.78" r="2.02"/><path d="m35.36 14.61v9.76l-3.61 4.66h-15.5l-3.61-4.66v-9.76z"/></g></svg>