<svg viewBox="0 0 48 48" xmlns="http://www.w3.org/2000/svg"><g fill="none" stroke="#000" stroke-linecap="round" stroke-linejoin="round"><path d="m9.12 19.53v1.18a14.93 14.93 0 0 0 11.01 14.42"/><path d="m32.47 8.42a14.93 14.93 0 0 0 -19 1.74"/><path d="m30.41 34.2a14.93 14.93 0 0 0 8-17.35"/><circle cx="24" cy="35.64" r="3.9"/><circle cx="11.07" cy="13.25" r="3.9"/><circle cx="36.93" cy="13.25" r="3.9"/><path d="m18.54 39.31a6.58 6.58 0 0 0 7.84 2.46 6.32 6.32 0 0 0 1.28-.68 6.57 6.57 0 0 0 -7.33-10.91"/><path d="m42.75 16.29a6.57 6.57 0 0 0 -10.84-7.29 6.72 6.72 0 0 0 -.81 1.21 6.57 6.57 0 0 0 2.79 8.87"/><path d="m10.65 6.69a6.57 6.57 0 0 0 -6.07 5.53 7 7 0 0 0 -.07 1.45 6.57 6.57 0 1 0 13.12-.84"/></g></svg>