<svg viewBox="0 0 48 48" xmlns="http://www.w3.org/2000/svg"><g fill="none" stroke="#000" stroke-linecap="round" stroke-linejoin="round"><path d="m20.6866 7.709h-11.5966a2.485 2.485 0 0 0 -2.209 2.2089v4.97a2.485 2.485 0 0 0 2.209 2.2091h11.597"/><path d="m27.3134 17.097h11.5966a2.485 2.485 0 0 0 2.209-2.2089v-4.97a2.485 2.485 0 0 0 -2.209-2.2091h-11.5966"/><path d="m20.6866 5.5h6.6268v23.7463h4.97l-8.2834 7.7313-8.2836-7.7313h4.97z"/><path d="m20.6866 22.6194h-9.94a2.4851 2.4851 0 0 0 -2.209 2.209v15.4626a2.4851 2.4851 0 0 0 2.209 2.209h26.5071a2.4851 2.4851 0 0 0 2.209-2.209v-15.4626a2.4851 2.4851 0 0 0 -2.209-2.209h-9.94"/></g></svg>