<svg viewBox="0 0 48 48" xmlns="http://www.w3.org/2000/svg"><g fill="none" stroke="#000" stroke-linecap="round" stroke-linejoin="round"><ellipse cx="38.95" cy="30.2833" rx="1.8417" ry="1.4083"/><ellipse cx="30.7167" cy="30.2833" rx="1.8417" ry="1.4083"/><path d="m39.7083 25.625v-5.4167h-9.75v5.4167z"/><path d="m29.4167 16.4167h10.8333c2.2624 0 3.25 3.6959 3.25 5.9583v8.6667c0 1.6149-.5517 4.3333-2.1667 4.3333h-13c-1.6149 0-2.1666-2.7184-2.1666-4.3333v-8.6667c0-2.2624.9876-5.9583 3.25-5.9583z"/><path d="m29.4167 16.4167c-4.3317-.0178-8.1285 14.625-17.3334 14.625h-7.5833v4.3333h23.8333"/><path d="m17.3916 33.005v-.8729a14.6977 14.6977 0 0 0 3.51-2.77v2.5749a10.7416 10.7416 0 0 1 -3.51 1.0683zm4.9829-1.9426a17.2982 17.2982 0 0 0 2.0846-1.7247v-4.3333c-.6382.9024-1.3317 1.8341-2.0841 2.7313zm-6.6023 2.0782c-.8362.0529-1.6244.0677-2.6055.0677a7.6481 7.6481 0 0 0 2.6053-.4644z"/><path d="m13.1667 33.2083h-2.1667"/><path d="m9.1583 33.2083h-4.6583"/><path d="m40.25 16.4167-1.0833-3.7917"/><path d="m29.4167 16.4167-1.0834-3.7917-2.9706 7.1044"/><path d="m26.1667 12.625h15.1666"/></g></svg>