<svg viewBox="0 0 48 48" xmlns="http://www.w3.org/2000/svg"><path d="m11.39 6.9c-1.59-.02-2.26 1.54-2.39 2.88l-1.4 6.45c4.61.66 9.46 1.34 13.34 4.11a21.78 21.78 0 0 1 8.86 11.41c.74 3.28-.25 7.48-3.56 9-1.73.54 0 .35.77.38 2.7 0 5.4.07 8.1 0 1.61-.25 1.89-1.93 2.13-3.25l6.2-29.18c.4-1.61-1.38-1.92-2.55-1.77zm9.24 17.34-13.84.58-2.29 11.55c5 1.08 9.59 3 14.51 3.37 2.42 0 5.44.16 7-2.11 1.78-2.51.65-6.46-.82-8.69a16.2 16.2 0 0 0 -4.53-4.71z" fill="none" stroke="#000" stroke-linecap="round" stroke-linejoin="round"/></svg>