<svg viewBox="0 0 48 48" xmlns="http://www.w3.org/2000/svg"><path d="m42.58 13.78v-7.42h-1.86v-1.86h-14.86v1.86h-1.86v11.14h-1.86v1.86h-1.86v1.86h-3.7v1.86h-1.86v1.84h-3.72v-1.84h-1.86v-1.86h-1.86v-3.72h-1.86v11.14h1.86v1.86h1.86v1.86h1.86v1.86h1.86v1.86h1.86v7.42h3.7v-1.86h-1.84v-1.86h1.84v-1.86h1.86v-1.84h1.86v1.84h1.86v5.58h3.72v-1.86h-1.86v-7.42h1.86v-1.86h1.86v-3.72h1.84v-5.56h1.86v1.84h1.86v-3.7h-3.72v-3.72h7.44v-1.86h-5.58v-1.86zm-13-5.56h-1.86v-1.86h1.86z" fill="none" stroke="#000" stroke-linecap="round" stroke-linejoin="round"/></svg>