<svg viewBox="0 0 48 48" xmlns="http://www.w3.org/2000/svg"><g fill="none" stroke="#000" stroke-linecap="round" stroke-linejoin="round"><path d="m33.0839 19.1392a17.2428 17.2428 0 0 0 -9.0839 6.9191 17.278 17.278 0 0 0 20.5-6.6608 17.2432 17.2432 0 0 0 -11.4161-.2583z"/><path d="m33.3876 32.56a17.2434 17.2434 0 0 0 -9.3876-6.5017 17.278 17.278 0 0 0 12.67 17.4384 17.2439 17.2439 0 0 0 -3.2824-10.9367z"/><path d="m20.7179 36.9954a17.2431 17.2431 0 0 0 3.2821-10.9371 17.2781 17.2781 0 0 0 -12.67 17.4384 17.2435 17.2435 0 0 0 9.3879-6.5013z"/><path d="m12.584 26.3166a17.243 17.243 0 0 0 11.416-.2583 17.2779 17.2779 0 0 0 -20.5-6.6608 17.2431 17.2431 0 0 0 9.084 6.9191z"/><path d="m20.2266 15.2809a17.2432 17.2432 0 0 0 3.7734 10.7774 17.2783 17.2783 0 0 0 0-21.555 17.2437 17.2437 0 0 0 -3.7734 10.7776z"/></g></svg>