<svg viewBox="0 0 48 48" xmlns="http://www.w3.org/2000/svg"><g fill="none" stroke="#000" stroke-linecap="round" stroke-linejoin="round"><path d="m10.06 9.3369.0622 4.1519m0 8.7232.0012 4.4917c0 3.1111.0411 5.0744.1806 6.4625a7.9461 7.9461 0 0 0 .7818 3.0015c.854 1.6931 2.5322 2.71 4.8913 3.0053h.0029l.0087.0012h.0112a17.5737 17.5737 0 0 0 6.6891-.6473l.1269-.0411m8.07-10.8471.0573 3.0376a17.3264 17.3264 0 0 0 .2738 3.8 5.8209 5.8209 0 0 0 1.85 3.2754 7.0826 7.0826 0 0 0 3.751 1.4391h.002a18.68 18.68 0 0 0 6.5483-.6312l.132-.0373"/><path d="m4.5 17.5105h17.6892"/><path d="m25.4261 17.5105h17.551"/><path d="m34.2016 8.735v17.5511"/></g></svg>