<svg viewBox="0 0 48 48" xmlns="http://www.w3.org/2000/svg"><g fill="none" stroke="#000" stroke-linecap="round" stroke-linejoin="round"><path d="m23.7568 22.4929c2.1735 2.3983 7.195 3.0168 11.5235-1.88 4.5328-5.1281 8.22-9.5314 8.22-9.5314s-7.8703-6.8206-15.6528-1.9675-5.5964 11.7175-4.0907 13.3789z"/><path d="m23.7568 22.4929c1.7735-3.8038 5.0089-8.3071 12.3979-11.0616"/><path d="m21.8576 22.4929c1.1195-2.7956-.3935-8.4383-5.1154-9.1379s-9.6189.9619-12.2422 4.8532c3.2791 1.2242 4.9392 4.9858 10.843 6.4 2.667.6392 5.6402.0684 6.5146-2.1153z"/><path d="m21.8576 22.4929c-2.6233-2.8273-6.5291-5.6255-10.7556-5.6838"/><path d="m23.7568 23.523c2.8665 0 5.0363 3.4265 4.4405 8.69a47.1442 47.1442 0 0 0 -.1967 8.4165s-9.09-1.3124-9.8553-7.6958c-.7407-6.1799 1.6355-9.4107 5.6115-9.4107z"/><path d="m23.7568 23.523c-1.8992 2.7216-2.4894 8.9739.1558 12.5154"/></g></svg>