<svg viewBox="0 0 48 48" xmlns="http://www.w3.org/2000/svg"><g fill="none" stroke="#000" stroke-linecap="round" stroke-linejoin="round"><circle cx="17.1624" cy="33.0267" r="2.8082"/><path d="m18.9573 38.702.4413 2.503a2.1151 2.1151 0 0 1 -1.7156 2.45l-1.2253.2161a2.1151 2.1151 0 0 1 -2.45-1.7157l-.7736-4.3873"/><path d="m24.5723 5.2982c9.942-1.753 12.6738 2.6853 13.3385 6.4554l2.9012 16.4533a6.5406 6.5406 0 0 1 -5.3055 7.577l-17.3894 3.0661a6.5408 6.5408 0 0 1 -7.5771-5.3054l-2.9011-16.4533c-.6648-3.77.3842-8.875 10.3262-10.628z"/><circle cx="34.4118" cy="29.9851" r="2.8082"/><path d="m34.6663 35.9321.4414 2.503a2.1149 2.1149 0 0 0 2.45 1.7156l1.2252-.216a2.1149 2.1149 0 0 0 1.7156-2.45l-.7736-4.3874"/></g></svg>