<svg viewBox="0 0 48 48" xmlns="http://www.w3.org/2000/svg"><g fill="none" stroke="#000" stroke-linecap="round" stroke-linejoin="round"><circle cx="39.2" cy="8.8" r="3.3"/><path d="m8.82 5.5a3.3 3.3 0 1 1 0 6.6h-3.32v-6.6z"/><path d="m35.9 39.19a3.3 3.3 0 1 1 6.6 0v3.32h-6.6z"/><circle cx="8.8203" cy="39.2" r="3.3"/><path d="m12.1203 39.2h23.7797"/><path d="m39.2 35.8899v-23.7899"/><path d="m35.9 8.8h-23.7797"/><circle cx="24" cy="24" r="7.5"/><path d="m36.8665 11.1335-7.5748 7.5748"/><path d="m11.1537 36.8665 7.5664-7.5664"/><path d="m8.8203 12.1v23.8"/></g><circle cx="39.2" cy="8.8" r=".75"/><circle cx="8.8101" cy="8.8" r=".75"/><circle cx="39.2" cy="39.2" r=".75"/><circle cx="8.8101" cy="39.2" r=".75"/><path d="m5.5 13.8v-10" fill="none" stroke="#000" stroke-linecap="round" stroke-linejoin="round"/><path d="m34.2 42.5h10" fill="none" stroke="#000" stroke-linecap="round" stroke-linejoin="round"/><circle cx="39.2" cy="44.1286" fill="none" r="1.6286" stroke="#000" stroke-linecap="round" stroke-linejoin="round"/><circle cx="42.5" cy="44.1286" fill="none" r="1.6286" stroke="#000" stroke-linecap="round" stroke-linejoin="round"/><circle cx="35.9" cy="44.1286" fill="none" r="1.6286" stroke="#000" stroke-linecap="round" stroke-linejoin="round"/></svg>