<svg viewBox="0 0 48 48" xmlns="http://www.w3.org/2000/svg"><g fill="none" stroke="#000" stroke-linecap="round" stroke-linejoin="round"><path d="m18.181 19.852v-5.602l-5.333-.754-.054 4.471-4.848-.647-.916-12.82 16.97 2.64v12.712"/><path d="m24 32.996v10.504l-5.819-2.693v-7.811"/><path d="m29.819 19.852v-5.602l5.333-.754.054 4.471 4.848-.647.916-12.82-16.97 2.64v12.712"/><path d="m24 32.996v10.504l5.819-2.693v-7.811"/><path d="m30.572 19.852h-13.144v13.144h.915 12.229z"/><path d="m21.3213 30.276v-3.9762"/><path d="m21.3213 22.3h3.3574a2 2 0 0 1 2 2 2 2 0 0 1 -2 2h-3.3574"/><path d="m21.3213 26.3h3.3574a2 2 0 0 1 2 2 2 2 0 0 1 -2 2h-3.3574"/></g></svg>