<svg viewBox="0 0 48 48" xmlns="http://www.w3.org/2000/svg"><g fill="none" stroke="#000" stroke-linecap="round" stroke-linejoin="round"><circle cx="24" cy="24" r="7.6875"/><circle cx="36.8125" cy="24" r="7.6875"/><circle cx="11.1875" cy="24" r="7.6875"/><path d="m8.5375 20h5.3"/><path d="m11.1875 28v-8"/><path d="m21.5084 27.1235a2.2379 2.2379 0 0 0 1.9616.8765h1.1844a1.9978 1.9978 0 0 0 1.9956-2 1.9978 1.9978 0 0 0 -1.9957-2h-1.3086a1.9978 1.9978 0 0 1 -1.9957-2 1.9978 1.9978 0 0 1 1.9957-2h1.1843a2.2379 2.2379 0 0 1 1.9615.8765"/><path d="m37.4625 24a2 2 0 0 1 0 4h-3.3v-8h3.3a2 2 0 0 1 0 4z"/><path d="m37.4625 24h-3.3"/></g></svg>