<svg viewBox="0 0 48 48" xmlns="http://www.w3.org/2000/svg"><g fill="none" stroke="#000" stroke-linecap="round" stroke-linejoin="round"><path d="m40.5 5.5h-33a2 2 0 0 0 -2 2v33a2 2 0 0 0 2 2h33a2 2 0 0 0 2-2v-33a2 2 0 0 0 -2-2z"/><path d="m42.5 40.5442c-9.2132-9.3377-18.52-16.7817-23.504-13.0064l-1.6574.1275c-.9416-1.9638-1.6058-3.9439-1.1155-5.992.8652-2.4153 1.7605-4.946 2.5179-7.0757.587-1.65-.7824-4.5942-3.9522-2.6773-5.3007 3.2056-2.1734 8.8164-1.7211 9.1793.68.5454.1759 1.7434.4144 2.5817a48.2052 48.2052 0 0 0 2.3267 5.5777c.1639-.3608-3.0942-4.0169-5.8964-2.9961a20.5654 20.5654 0 0 1 -4.4124.6371"/><path d="m5.5 30.95c.1139.1981 2.586-.212 4.604-.9894 2.3831-.9182 4.806.9934 3.8566 3.06-2.0237 4.4045 2.6772 9.48 2.6772 9.48"/><path d="m19.5912 27.1508c.31 5.8553-3.2854 5.9594-5.4692 5.3916"/><path d="m22.6387 26.5552a5.1815 5.1815 0 0 1 .1183 3.3731"/><path d="m21.4183 32.7968c-1.9194 2.9568-4.501 4.1479-7.95 3.0267"/><path d="m30.1478 29.7624a8.7388 8.7388 0 0 1 -.22 3.8631"/><path d="m20.8446 42.5a10.6336 10.6336 0 0 0 6.0877-3.5518"/><path d="m35.27 33.7207c.0619 1.7108.2224 3.4444-.7836 4.9088"/><path d="m32.988 41.1474-1.4023 1.3526"/><path d="m38.7683 36.8835a4.6385 4.6385 0 0 1 -.0113 2.1285"/><path d="m28.94 36.1753-.5418.8924"/><path d="m36.1753 38.5976-.3187.9243"/><path d="m13.448 23.5338c-.5793.2414-3.8675-5.5078-3.6313-9.2868.0974-1.558-.782-3.3038-2.9-1.88a7.2481 7.2481 0 0 0 -1.4167 1.753"/><path d="m5.5 22.0239c1.7452 1.8239 4.1621 2.8651 5.8516 4.0835"/><path d="m5.5 24.6693a14.733 14.733 0 0 1 4.2546 1.6474"/><path d="m33.53 15.7769c-2.6694-3.7074-9.8491-4.565-10.1355.1912"/><path d="m23.012 19.506c5.5383-4.6274-6.0361-5.2067-1.7153 2.5647"/><path d="m18.3355 27.5887c-1.72-5.185 6.6384-4.2536 6.2794-.6457"/><path d="m21.8964 21.6733a4.3273 4.3273 0 0 0 -1.8952 2.3867"/><path d="m30.3267 13.329c3.39-1.1669 4.2763-.2477 4.6374 1.1092"/><path d="m32.6056 14.7533c8.4551-.8214 6.2389 4.47 2.1354 4.2108.1667 1.065.3261 2.129-.6693 3.0279"/><path d="m33.7211 28.749c.7669 1.3929.1715 2.3318-.5674 3.2227"/><path d="m34.39 24.3187c3.31 2.5379 1.2577 3.8082.51 3.761a1.27 1.27 0 0 1 -1.1793.6693"/><path d="m24.2792 18.1027c2.944-.685 14.112 3.8254 9.0276 7.1722"/><path d="m23.6963 18.8665a3.1522 3.1522 0 0 0 1.5467 1.5319c3.3954.5582 5.8532 2.4548 8.0638 4.8765"/><path d="m29.7728 22.1725c-.04 2.5142-.4911 7.9284 2.9284 5.8434l1.02.7331"/><path d="m33.3068 25.2749a6.88 6.88 0 0 1 1.5932 2.8051"/><path d="m36.43 16.7968-2.2311-.0956.6056.9243"/><path d="m25.1366 14.6666h.6693"/></g><circle cx="30.5894" cy="15.4166" r=".75"/></svg>