<svg viewBox="0 0 48 48" xmlns="http://www.w3.org/2000/svg"><g fill="none" stroke="#000" stroke-linecap="round" stroke-linejoin="round"><circle cx="36.0775" cy="19.1771" r="1.5295"/><path d="m37.607 19.1771v-8.2671s3.95 2.4383 3.95 3.95a2.9574 2.9574 0 0 1 -1.447 2.3346"/><path d="m11.7462 34.0218s4.3991.0044 4.3991-4.3991-1.7722-7.2114-3.8837-7.2114"/><path d="m12.2616 22.4113s.2614-2.4513-1.3416-2.4513-1.27 2.617-1.27 2.617-3.7554.39-3.001 6.2491 5.0976 5.1957 5.0976 5.1957"/><path d="m10.9226 19.96a15.5415 15.5415 0 0 1 .1079-2.636"/><path d="m9.5455 16.4512s-.1986.8723 1.485.8723 2.1831-.0566 2.2484-.6029.3166-2.2127-.1729-2.2127 1.344-4.5079 2.6608-5.8588 2.4586-2.4329 4.3479-2.46-3.213-1.47-5.3221-.1a11.3436 11.3436 0 0 0 -3.6293 4.123c-.1873.4531-.935 2.4672-1.0058 2.8446s-.1806 1.4155-.1806 1.4155-.4615-.379-.4314 1.979z"/><path d="m12.6813 33.9071s-2.4205 2.6623-2.01 8.5929"/><path d="m13.6808 33.5958s-.7861 5.1932.771 8.9042"/><path d="m21.2131 42.5a28.2317 28.2317 0 0 1 -.9751-6.5223c0-3.9625-2.6325-9.7142-4.5885-10.047"/><path d="m17.2479 24.6786c-1.3155-1.73-4.9668-6.6525-.1819-13.7592"/><path d="m20.5231 6.11a20.8832 20.8832 0 0 1 7.5183 3.32c5.1825 3.3939 1.6964 13.9652 1.5144 13.9953 0 0 1.9-10.76-7.27-14.665"/><path d="m22.2862 8.7605s4.9177 2.1352 2.1207 15.02"/><path d="m24.4069 23.78s-.9531-6.111-1.9568-7.2117m-2.791-7.6751s.9687 9.8311-3.7452 12.3215"/><path d="m34.6664 42.5a5.4661 5.4661 0 0 1 .1958-2.5523c.4453-.872-.3374-8.1513-.5765-9.0162s-.0226-2.1488 1.0734-.9175 2.07 8.3391 2.07 8.3391"/><path d="m34.6664 42.5a4.7462 4.7462 0 0 0 1.5336-1.9537c.4218-1.557 1.6351-2.435 1.6351-2.9136s-.1182-1.6875.1583-1.5071c1.6618 1.0835 1.9829 2.26.7459 3.232"/><path d="m37.6727 36.106s.9754-1.0377 1.3934-.9989 1.361 2.9282 1.361 2.9282"/><path d="m39.9226 36.6345a1.377 1.377 0 0 1 2.0649.2264"/><path d="m38.1675 32.6878a6.6588 6.6588 0 0 0 -1.52-5.0245c-3.4081-4.5406-5.64-8.2334-5.81-10.3636"/><path d="m29.5558 23.4255c-.31.89 2.241 1.1476 1.6293 5.0151a26.8519 26.8519 0 0 1 -2.23 7.0686l-5.9683-.3718s-2.5567 3.7253-2.3075 4.9393"/><path d="m26.6237 35.364a77.5511 77.5511 0 0 0 3.287 7.0586"/><path d="m24.313 35.22a43.2846 43.2846 0 0 0 1.8033 7.28"/><path d="m28.678 26.3193s.1363-1.1282-.11-1.1282a10.8069 10.8069 0 0 1 -1.7268-.9579"/><path d="m14.2641 6.4636s-6.1355.0516-8.5287 3.9951"/><path d="m38.7389 39.3576a6.49 6.49 0 0 0 -.787 3.1424"/><path d="m40.4271 38.0352s1.4735 2.62-2.0949 2.3894"/><path d="m41.9875 36.8609s1.16 2.5914-1.2648 2.41"/><path d="m41.2585 39.2613s.9577 2.1636.0562 3.2387"/></g></svg>