<svg viewBox="0 0 48 48" xmlns="http://www.w3.org/2000/svg"><path d="m40.5 42.5h-33a2.0059 2.0059 0 0 1 -2-2v-33a2.0059 2.0059 0 0 1 2-2h33a2.0059 2.0059 0 0 1 2 2v33a2.0059 2.0059 0 0 1 -2 2z" fill="none" stroke="#000" stroke-linecap="round" stroke-linejoin="round"/><path d="m30.24 20.4132v4.4259a2.6824 2.6824 0 0 0 2.6824 2.6824 2.6824 2.6824 0 0 0 2.6824-2.6824v-4.4259" fill="none" stroke="#000" stroke-linecap="round" stroke-linejoin="round"/><path d="m35.605 24.8391v2.6824" fill="none" stroke="#000" stroke-linecap="round" stroke-linejoin="round"/><circle cx="38.4198" cy="17.1273" r=".75"/><g fill="none" stroke="#000" stroke-linecap="round" stroke-linejoin="round"><path d="m38.4198 20.4132v7.1083"/><path d="m20.6461 18.2v7.98a1.3412 1.3412 0 0 0 1.3412 1.3412h.4027"/><path d="m19.2378 20.4132h2.8165"/><path d="m13.723 26.65 4.024-2.683-4.024-2.682"/><path d="m8.359 26.65 4.023-2.683-4.023-2.682"/><path d="m24.7376 23.9674h2.6824"/></g></svg>