<svg viewBox="0 0 48 48" xmlns="http://www.w3.org/2000/svg"><g fill="none" stroke="#000" stroke-linecap="round" stroke-linejoin="round"><path d="m43.5 22.741v-3.1687a.4029.4029 0 0 0 -.4062-.4063h-13.8694l-4.9156-5.6143 2.5585-2.3644-10.9435-3.8838 2.1693 11.2775 2.6325-2.0637 2.3075 2.6487h-18.1269a.4023.4023 0 0 0 -.4062.4063v3.1687a.4023.4023 0 0 0 .4062.4063h21.5963l.3892.4469a14.9453 14.9453 0 0 0 -6.6186 2.6406c-3.5263 2.6187-4.3632 5.5347-4.0463 7.88h-11.3206a.4074.4074 0 0 0 -.4062.4063v3.1689a.4028.4028 0 0 0 .4062.4063h13.3494a12.8739 12.8739 0 0 0 7.9292 2.6 10.181 10.181 0 0 0 5.9638-1.7463c.3891-.2844.7621-.5688 1.1042-.8531h9.841a.4034.4034 0 0 0 .4062-.4069v-3.1685a.408.408 0 0 0 -.4062-.4063h-6.4432a7.8266 7.8266 0 0 0 .9182-3.436 4.6582 4.6582 0 0 0 -.3185-2.3563 35.0115 35.0115 0 0 0 -3.688-4.2087l-.8442-.9669h10.3757a.4029.4029 0 0 0 .4062-.4063z"/><path d="m23.0331 19.166h6.1913"/><path d="m32.7181 23.1473h-6.2156"/><path d="m18.2556 38.0965h14.9972"/><path d="m36.6506 34.1152h-20.4238"/></g></svg>