<svg viewBox="0 0 48 48" xmlns="http://www.w3.org/2000/svg"><g fill="none" stroke="#000" stroke-linecap="round" stroke-linejoin="round"><path d="m40.5 5.5h-33a2 2 0 0 0 -2 2v33a2 2 0 0 0 2 2h33a2 2 0 0 0 2-2v-33a2 2 0 0 0 -2-2z"/><path d="m39.207 24.21h-6.0911l-5.1666 12.705-7.8983-25.831-5.1666 12.705h-6.0911"/><path d="m38.5757 11.5729-2.3849 2.7171 3.0162 1.9924-3.607.2341.7239 3.5417-2.7169-2.3849-1.9924 3.0167-.2346-3.6078-3.5417.7239 2.3849-2.7161-3.0162-1.9929 3.6073-.2346-.7243-3.5417 2.7166 2.3849 1.9928-3.0157.2346 3.6073z"/></g></svg>