<svg viewBox="0 0 48 48" xmlns="http://www.w3.org/2000/svg"><g fill="none" stroke="#000" stroke-linecap="round" stroke-linejoin="round"><rect height="36.1259" rx="7.2273" transform="matrix(.25881905 -.96592583 .96592583 .25881905 -5.394 40.9704)" width="36.1259" x="5.9369" y="5.937"/><rect height="6.6379" rx="2.1608" transform="matrix(.25881905 -.96592583 .96592583 .25881905 -5.57 41.1211)" width="6.6379" x="20.6911" y="20.8711"/><path d="m9.039 38.5366 6.4552-24.0908a3.4776 3.4776 0 0 1 4.5658-2.6358l17.1859 4.605-3.4875 13.0141c-.1183.4416 7.0241 1.72 8.8513-5.11"/><path d="m17.4716 32.9136 17.2667 4.6264a3.7582 3.7582 0 0 0 5.0956-2.8563m-22.3623-1.77s-2.95 7.2455 5.6415 9.5476"/><path d="m37.2455 16.4149s.96-7.3168-5.2-8.9674"/></g></svg>