<svg viewBox="0 0 48 48" xmlns="http://www.w3.org/2000/svg"><g fill="none" stroke="#000" stroke-linecap="round" stroke-linejoin="round"><path d="m38.66 14.91h-1.38v-4a.61.61 0 0 0 -.61-.6h-26.39a.6.6 0 0 0 -.6.6v18.69a5.48 5.48 0 0 0 1.88 4.12h-5a.7.7 0 0 0 -.66.73 3.24 3.24 0 0 0 3.27 3.19h28.7a3.23 3.23 0 0 0 3.23-3.23.69.69 0 0 0 -.69-.69h-5a5.51 5.51 0 0 0 1.89-4.08v-2.32h1.11a6.39 6.39 0 0 0 6.44-5.6q0-.31 0-.63a6.18 6.18 0 0 0 -6.19-6.18zm0 8.57h-1.38v-4.75h1.38a2.43 2.43 0 0 1 0 4.75z"/><path d="m11.56 33.72h23.83"/></g></svg>