<svg viewBox="0 0 48 48" xmlns="http://www.w3.org/2000/svg"><path d="m34 5.59v4.9h5.77a.48.48 0 0 1 .48.49.52.52 0 0 1 -.09.29l-11.39 15.22a.49.49 0 0 1 -.69.09.43.43 0 0 1 -.1-.09l-11.35-15.21a.48.48 0 0 1 .37-.78h5.77v-7.57a.4.4 0 0 0 -.41-.39 21.53 21.53 0 0 0 -8.81 40.27.41.41 0 0 0 .59-.35v-5.11h-5.8a.49.49 0 0 1 -.49-.49.54.54 0 0 1 .1-.3l11.36-15.24a.5.5 0 0 1 .7-.08l.09.08 11.35 15.24a.49.49 0 0 1 -.1.69.53.53 0 0 1 -.29.1h-5.77v7.71a.4.4 0 0 0 .4.4 21.53 21.53 0 0 0 8.84-40.22.41.41 0 0 0 -.53.21.39.39 0 0 0 0 .14z" fill="none" stroke="#000" stroke-linecap="round" stroke-linejoin="round"/></svg>