<svg viewBox="0 0 48 48" xmlns="http://www.w3.org/2000/svg"><g fill="none" stroke="#000" stroke-linecap="round" stroke-linejoin="round"><path d="m36.52 7.4566h.6273a6.3388 6.3388 0 0 1 6.3527 6.3527v4.632c0 3.5193-1.2318 6.3526-4.7512 6.3526m-29.4666 0c-3.5194 0-4.7822-2.8333-4.7822-6.3526v-4.632a6.3388 6.3388 0 0 1 6.3527-6.3527h.6117"/><path d="m41.56 23.9455v12.283a6.04 6.04 0 0 1 -6.0529 6.053h-23.0138a6.04 6.04 0 0 1 -6.0533-6.053v-12.2434"/><path d="m11.555 5.7185h24.89v8.9608h-24.89z"/><path d="m36.445 11.4223a1.6285 1.6285 0 0 1 0 3.257"/><path d="m11.555 14.6793a1.6285 1.6285 0 0 1 0-3.257"/><path d="m22.6298 29.6234h2.7405v2.8031h-2.7405z"/><path d="m31.3752 29.6234h2.7405v2.8031h-2.7405z"/><path d="m13.8843 29.6234h2.7405v2.8031h-2.7405z"/><path d="m18.257 29.6234h2.7405v2.8031h-2.7405z"/><path d="m27.0025 29.6234h2.7405v2.8031h-2.7405z"/><path d="m20.4434 24.7896h2.7405v2.8031h-2.7405z"/><path d="m29.1889 24.7896h2.7405v2.8031h-2.7405z"/><path d="m11.6979 24.7896h2.7405v2.8031h-2.7405z"/><path d="m16.0707 24.7896h2.7405v2.8031h-2.7405z"/><path d="m24.8161 24.7896h2.7405v2.8031h-2.7405z"/><path d="m33.5616 24.7896h2.7405v2.8031h-2.7405z"/><path d="m17.8963 34.9057h12.2074v2.0346h-12.2074z"/><path d="m36.5289 36.8357a1.9537 1.9537 0 0 1 -2.1846 1.8278h-20.6886a1.9537 1.9537 0 0 1 -2.1846-1.8278"/><path d="m14.9471 8.1791v4.0796"/><path d="m17.6498 8.1791v4.0796"/><path d="m14.9471 10.2189h2.7027"/><path d="m20.4129 12.2587h2.0398"/><path d="m20.4129 8.1791h2.0398"/><path d="m20.4129 10.2189h1.3259"/><path d="m20.4129 8.1791v4.0796"/><path d="m25.2158 12.2587v-4.08h1.3259a1.3769 1.3769 0 1 1 0 2.7537h-1.3259"/><path d="m26.5927 10.8818 1.3259 1.3769"/><path d="m30.35 10.9073a1.3516 1.3516 0 1 0 2.7027 0v-1.3768a1.3711 1.3711 0 0 0 -1.3768-1.3769 1.3287 1.3287 0 0 0 -1.3259 1.3769z"/><path d="m38.7092 22.9056v11.75a2.1755 2.1755 0 0 1 -2.18 2.18m-25.0578 0a2.1755 2.1755 0 0 1 -2.18-2.18v-11.7474"/><path d="m9.2908 22.9082 14.7092-3.9414"/><path d="m38.7092 22.9082-14.7092-3.9414"/></g></svg>