<svg viewBox="0 0 48 48" xmlns="http://www.w3.org/2000/svg"><g fill="none" stroke="#000" stroke-linecap="round" stroke-linejoin="round"><circle cx="24" cy="24" r="21.5"/><path d="m12.54 5.82a49.71 49.71 0 0 0 30.58 8.35"/><path d="m22 2.59c4.29 3.41 9.49 4.41 15 4.31"/><path d="m6 12.19c11.68 8.86 24.79 12.46 39.45 11"/><path d="m2.78 20.55c9.22 7.28 27.82 16.05 41.44 10.8"/><path d="m3.17 29.35c10.65 8.73 23.93 12.75 36 9.87"/><path d="m7.31 37.55c7.54 5.26 15.86 8.05 24.94 6.31"/><path d="m19.83 2.91c-8.49 3.84-15.03 10.16-17.33 20.78"/><path d="m27 2.71c-17.61 5.99-24.61 28.17-17.15 37.44"/><path d="m29.62 3.25c-.8 14.91-4.62 28.2-10.2 41.75"/><path d="m31.21 3.74c9.32 14.61 2 34.77-6.35 41.74"/><path d="m32.57 4.29c9.56 10 14.58 25.51-.32 39.57"/><path d="m28.81 3.05c-12.72 9.95-19.16 33.69-13.55 40.59"/></g></svg>