<svg viewBox="0 0 48 48" xmlns="http://www.w3.org/2000/svg"><g fill="none" stroke="#000" stroke-linecap="round" stroke-linejoin="round"><path d="m24 4.5a16.2462 16.2462 0 0 1 16.2462 16.2462c0 13.983-16.2462 22.7538-16.2462 22.7538s-16.2462-8.7708-16.2462-22.7538a16.2462 16.2462 0 0 1 16.2462-16.2462z"/><path d="m24 9.3836a17.2178 17.2178 0 0 1 2.9976.2512 13.6283 13.6283 0 0 1 3.3916 1.0392 3.3113 3.3113 0 0 1 1.53 1.142 3.22 3.22 0 0 1 .36 1.2047 53.8288 53.8288 0 0 1 .8564 6.1437v9.6381h-1.5356v1.536a1.3133 1.3133 0 1 1 -2.6208 0v-1.536h-9.9581v1.536a1.3133 1.3133 0 1 1 -2.6208 0v-1.536h-1.5359v-9.6381a55.1269 55.1269 0 0 1 .8393-6.1437 3.22 3.22 0 0 1 .36-1.2047 3.3116 3.3116 0 0 1 1.53-1.142 13.6309 13.6309 0 0 1 3.3916-1.0392 17.2194 17.2194 0 0 1 3.0147-.2512zm-6.2808 13.8805a1.3761 1.3761 0 1 0 1.37 1.3817v-.0114a1.37 1.37 0 0 0 -1.37-1.3703zm12.5616 0a1.3761 1.3761 0 1 0 1.376 1.376v-.0057a1.3646 1.3646 0 0 0 -1.3589-1.37z"/><path d="m16.4003 28.8025h15.1994"/><path d="m14.8644 19.1644h18.2712"/><path d="m20.972 25.6401h6.056"/><path d="m20.972 23.6401h6.056"/></g></svg>