<svg viewBox="0 0 48 48" xmlns="http://www.w3.org/2000/svg"><g fill="none" stroke="#000" stroke-linecap="round" stroke-linejoin="round"><path d="m40.5 42.5h-33a2 2 0 0 1 -2-2v-33a2 2 0 0 1 2-2h33a2 2 0 0 1 2 2v33a2 2 0 0 1 -2 2z"/><path d="m35.7856 18.9562a2.726 2.726 0 0 1 2.7144-2.7262"/><path d="m35.7856 16.2302v7.2036"/><path d="m32.6072 22.065a2.75 2.75 0 0 1 -5.1256-1.2512c-.0011-.0315-.0016-.0629-.0016-.0944v-1.7632a2.7144 2.7144 0 1 1 5.4288-.0116v.8932h-5.4288"/><path d="m9.5 12.5646v7.2732a3.6076 3.6076 0 0 0 7.2036 0v-7.2732"/><path d="m19.4992 18.9562a2.7144 2.7144 0 1 1 5.4288 0v1.7632a2.7144 2.7144 0 0 1 -2.7144 2.7144 2.7144 2.7144 0 0 1 -2.7144-2.7144"/><path d="m19.4992 23.4338v-10.8692"/><path d="m5.5 33.009q8.7214.0015 17.44 0l-4.0311-4.0311"/><path d="m22.94 33.009-4.0311 4.031"/></g></svg>