<svg viewBox="0 0 48 48" xmlns="http://www.w3.org/2000/svg"><g fill="none" stroke="#000" stroke-linecap="round" stroke-linejoin="round"><path d="m40.5 42.5h-33a2 2 0 0 1 -2-2v-33a2 2 0 0 1 2-2h33a2 2 0 0 1 2 2v33a2 2 0 0 1 -2 2z"/><path d="m11.5 34.77h4.68"/><path d="m11.5 25.4h4.68"/><path d="m11.5 30.08h3.05"/><path d="m11.5 25.4v9.37"/><path d="m34.16 18.74a2.35 2.35 0 0 1 2.34-2.35"/><path d="m34.16 16.39v6.21"/><path d="m30.64 34.24a2.61 2.61 0 0 0 1.92.53h.53a1.56 1.56 0 0 0 1.55-1.55 1.56 1.56 0 0 0 -1.55-1.56h-1.09a1.54 1.54 0 0 1 -1.55-1.55 1.55 1.55 0 0 1 1.55-1.55h.52a2.69 2.69 0 0 1 1.93.52"/><path d="m31.42 21.42a2.35 2.35 0 0 1 -2 1.18 2.34 2.34 0 0 1 -2.42-2.34v-1.52a2.35 2.35 0 0 1 2.34-2.35 2.34 2.34 0 0 1 2.34 2.35v.76h-4.68"/><path d="m26.64 26.63v7a1.17 1.17 0 0 0 1.17 1.17h.35"/><path d="m25.41 28.56h2.46"/><path d="m22.94 32.43a2.34 2.34 0 0 1 -2.34 2.34 2.34 2.34 0 0 1 -2.34-2.34v-1.53a2.34 2.34 0 0 1 2.34-2.34 2.34 2.34 0 0 1 2.34 2.34"/><path d="m22.94 34.77v-6.21"/><path d="m11.5 13.23v6.27a3.11 3.11 0 0 0 6.21 0v-6.27"/><path d="m20.12 18.74a2.35 2.35 0 0 1 2.34-2.35 2.35 2.35 0 0 1 2.34 2.35v1.52a2.34 2.34 0 0 1 -2.34 2.34 2.34 2.34 0 0 1 -2.34-2.34"/><path d="m20.12 22.6v-9.37"/></g></svg>