<svg viewBox="0 0 48 48" xmlns="http://www.w3.org/2000/svg"><g fill="none" stroke="#000" stroke-linecap="round" stroke-linejoin="round"><path d="m39.9885 9.6255a21.5281 21.5281 0 0 0 -23.3061-5.8481"/><path d="m43.4779 14.8851a21.4581 21.4581 0 0 0 -1.3323-2.4221"/><path d="m14.1586 43.12a21.5146 21.5146 0 0 0 30.6625-24.5009"/><path d="m7.4955 10.2205a21.5015 21.5015 0 0 0 2.3226 29.9395"/><path d="m30.323 24.82a6.2669 6.2669 0 0 0 .0626-.8381 6.1147 6.1147 0 0 0 -.0626-.8255l1.8013-1.376a.4254.4254 0 0 0 .1-.5379l-1.7011-2.9525a.4127.4127 0 0 0 -.5129-.1876l-2.1265.8506a7.2027 7.2027 0 0 0 -1.4385-.8381l-.3253-2.2515a.4252.4252 0 0 0 -.4253-.3627h-3.3772a.4379.4379 0 0 0 -.45.3377l-.3131 2.2516a6.8678 6.8678 0 0 0 -1.4385.838l-2.1259-.8506a.4.4 0 0 0 -.5129.1877l-1.7137 2.952a.4253.4253 0 0 0 .1126.5379l1.7887 1.3885a4.5524 4.5524 0 0 0 0 .8255v.8381l-1.7887 1.401a.4253.4253 0 0 0 -.1126.55l1.7387 2.9645a.3878.3878 0 0 0 .5129.1751l2.1265-.8505a6.3644 6.3644 0 0 0 1.4385.838l.3127 2.2641a.4251.4251 0 0 0 .4253.35h3.3273a.4378.4378 0 0 0 .4253-.35l.3752-2.2641a6.3671 6.3671 0 0 0 1.451-.838l2.114.8505a.4378.4378 0 0 0 .5254-.1751l1.7011-2.952a.4378.4378 0 0 0 -.1-.55zm-6.3294 1.05a1.8763 1.8763 0 0 1 0-3.7526 1.8637 1.8637 0 0 1 1.8638 1.8637 1.8763 1.8763 0 0 1 -1.8637 1.8889z"/><path d="m34.4678 34.4678a14.7521 14.7521 0 1 0 -6.2149 3.716"/></g></svg>