<svg viewBox="0 0 48 48" xmlns="http://www.w3.org/2000/svg"><g fill="none" stroke="#000" stroke-linecap="round" stroke-linejoin="round"><path d="m29.5034 30.1323a7.5114 7.5114 0 0 0 -12.8362-7.3407 7.7316 7.7316 0 0 0 -1.7737 4.9684 8.0366 8.0366 0 0 0 1.7973 4.9691 8.6371 8.6371 0 0 0 4.4818 2.8529 9.6759 9.6759 0 0 0 5.3287-.1561 11.0039 11.0039 0 0 0 4.5393-2.8259 12.7656 12.7656 0 0 0 2.8246-4.5568 14.3136 14.3136 0 0 0 -.45-10.6794 14.9781 14.9781 0 0 0 -7.68-7.469 15.71 15.71 0 0 0 -10.7226-.53 16.5194 16.5194 0 0 0 -8.6426 6.4043 17.5786 17.5786 0 0 0 -2.9741 8.4068 19.0848 19.0848 0 0 0 1.38 8.8252 20.21 20.21 0 0 0 7.686 9.2338 20.6257 20.6257 0 0 0 11.5712 3.26 21.06 21.06 0 0 0 11.4369-3.7257 21.5143 21.5143 0 0 0 7.5569-9.3682 21.6087 21.6087 0 0 0 -9.3905-27.1564 21.6088 21.6088 0 0 0 -28.0616 6.181"/><path d="m29.5034 30.1323a10.4867 10.4867 0 0 0 -16.8649-10.3963 10.6253 10.6253 0 0 0 -3.84 7.4726 13.4106 13.4106 0 0 0 .3517 3.7783 18.5077 18.5077 0 0 0 16.7059 14.3854"/></g></svg>