<svg viewBox="0 0 48 48" xmlns="http://www.w3.org/2000/svg"><path d="m23 43.4a19.22 19.22 0 0 1 -7.63-2.67c-3-2-4.89-5.15-5.84-9.51-.26-1.2-.27-1.59-.32-13.91v-12.81h7.07c.11 7.91.14 23.75.14 23.75a11.66 11.66 0 0 0 6.8 8.86c3 1.16 7.36 1.23 11.74.2.68-.19 2.09-.53 2.09-.53a15.65 15.65 0 0 1 -2 2.4 14.51 14.51 0 0 1 -12.05 4.22zm6.22-9.4a7.48 7.48 0 0 0 1.7-3.93c.09-.46.13-5.07.13-13.13v-12.44h7.71v10.3c0 10.63 0 12.08-.34 13.39a8.76 8.76 0 0 1 -3.27 4.81 14.38 14.38 0 0 1 -6.45 1.54l.52-.57z" fill="none" stroke="#000" stroke-linecap="round" stroke-linejoin="round"/></svg>