<svg viewBox="0 0 48 48" xmlns="http://www.w3.org/2000/svg"><g fill="none" stroke="#000" stroke-linecap="round" stroke-linejoin="round"><path d="m6.5 21.6369v2.73a1.66 1.66 0 0 0 1.6548 1.6548 1.66 1.66 0 0 0 1.6552-1.6544v-2.73"/><path d="m9.8096 24.3673v1.6548"/><path d="m16.7116 19.4029v6.6192"/><path d="m16.7116 23.2917a1.66 1.66 0 0 1 1.6548-1.6548 1.66 1.66 0 0 1 1.6548 1.6548v2.73"/><path d="m38.1904 19.4029v6.6192"/><path d="m38.19 23.2917a1.66 1.66 0 0 1 1.6548-1.6548 1.66 1.66 0 0 1 1.6552 1.6548v2.73"/><path d="m35.4586 20.2303v5.7918"/><path d="m34.5485 21.6369h1.7375"/><path d="m25.0174 25.1947a1.6014 1.6014 0 0 1 -1.4065.8274 1.66 1.66 0 0 1 -1.6548-1.6548v-1.0756a1.66 1.66 0 0 1 1.6548-1.6548 1.66 1.66 0 0 1 1.6548 1.6548v.5791h-3.31"/><path d="m32.4574 19.4029v5.7918a.7817.7817 0 0 0 .8274.8274h.2483"/><path d="m14.7477 25.1947a1.6016 1.6016 0 0 1 -1.4066.8274 1.66 1.66 0 0 1 -1.6548-1.6548v-1.0756a1.66 1.66 0 0 1 1.6548-1.6548 1.6016 1.6016 0 0 1 1.4066.8274"/><path d="m30.4957 24.3673a1.66 1.66 0 0 1 -1.6548 1.6548 1.66 1.66 0 0 1 -1.6548-1.6548v-1.0756a1.66 1.66 0 0 1 1.6548-1.6548 1.66 1.66 0 0 1 1.6548 1.6548"/><path d="m30.4957 26.0221v-4.3852"/><path d="m4.5 29h39"/><path d="m43.5 37.5v-27a2 2 0 0 0 -2-2h-35a2 2 0 0 0 -2 2v27a2 2 0 0 0 2 2h35a2 2 0 0 0 2-2z"/></g></svg>