<svg viewBox="0 0 48 48" xmlns="http://www.w3.org/2000/svg"><g fill="none" stroke="#000" stroke-linecap="round" stroke-linejoin="round"><path d="m24 2.5a21.5 21.5 0 0 1 21.5 21.5v16.5a5 5 0 0 1 -5 5h-16.5a21.5 21.5 0 0 1 -21.5-21.5 21.5 21.5 0 0 1 21.5-21.5z"/><circle cx="24" cy="24" r="15.5"/><path d="m8.7034 21.4924h30.6057"/><path d="m12.8338 13.2541h22.3324"/><path d="m31.3458 21.4924v-8.2383"/><circle cx="39.3201" cy="39.3201" r="3.4556"/></g><circle cx="24" cy="36.507" r=".75"/><circle cx="25.7138" cy="33.507" r=".75"/><circle cx="22.2862" cy="33.507" r=".75"/><circle cx="29.1414" cy="33.507" r=".75"/><circle cx="32.5689" cy="33.507" r=".75"/><circle cx="18.8586" cy="33.507" r=".75"/><circle cx="15.4311" cy="33.507" r=".75"/><circle cx="27.4276" cy="30.507" r=".75"/><circle cx="24" cy="30.507" r=".75"/><circle cx="30.8551" cy="30.507" r=".75"/><circle cx="34.2827" cy="30.507" r=".75"/><circle cx="20.5724" cy="30.507" r=".75"/><circle cx="17.1449" cy="30.507" r=".75"/><circle cx="13.7173" cy="30.507" r=".75"/><circle cx="18.8586" cy="27.507" r=".75"/><circle cx="27.4276" cy="24.507" r=".75"/><circle cx="24" cy="24.507" r=".75"/><circle cx="30.8551" cy="24.507" r=".75"/><circle cx="34.2827" cy="24.507" r=".75"/><circle cx="20.5724" cy="24.507" r=".75"/><circle cx="17.1449" cy="24.507" r=".75"/><circle cx="13.7173" cy="24.507" r=".75"/><circle cx="20.5724" cy="36.507" r=".75"/><circle cx="25.7138" cy="27.507" r=".75"/><circle cx="22.2862" cy="27.507" r=".75"/><circle cx="29.1414" cy="27.507" r=".75"/><circle cx="32.5689" cy="27.507" r=".75"/><circle cx="35.9965" cy="27.507" r=".75"/><circle cx="15.4311" cy="27.507" r=".75"/><circle cx="12.0035" cy="27.507" r=".75"/><circle cx="27.4276" cy="36.507" r=".75"/></svg>