<svg viewBox="0 0 48 48" xmlns="http://www.w3.org/2000/svg"><g fill="none" stroke="#000" stroke-linecap="round" stroke-linejoin="round"><path d="m5.5036 28.4872a3.8165 3.8165 0 1 1 7.6329 0"/><path d="m13.1364 35.755a3.8165 3.8165 0 0 1 -7.6329 0"/><path d="m5.5036 35.755v-7.2678"/><path d="m13.1364 28.4872v7.2677"/><path d="m5.5036 28.4872v-5.2135"/><path d="m5.4985 23.2786c0-9.376 8.2827-16.9769 18.5-16.9769s18.5 7.6008 18.5 16.9769"/><path d="m42.4984 28.4921a3.8165 3.8165 0 1 0 -7.6329 0"/><path d="m34.8656 35.76a3.8165 3.8165 0 1 0 7.6329 0"/><path d="m42.4984 35.76v-7.2679"/><path d="m34.8656 28.4921v7.2679"/><path d="m42.4984 28.4921v-5.2135"/></g></svg>