<svg viewBox="0 0 48 48" xmlns="http://www.w3.org/2000/svg"><path d="m17.13 5.45-5.75 3.32v6.64l5.75 3.32 5.75-3.32v-6.64zm13.74 0-5.75 3.32v6.64l5.75 3.32 5.76-3.32v-6.64zm-20.62 11.91-5.75 3.32v6.64l5.75 3.32 5.75-3.32v-6.64zm13.75 0-5.75 3.32v6.64l5.75 3.32 5.75-3.32v-6.64zm13.75 0-5.75 3.32v6.64l5.75 3.32 5.75-3.32v-6.64zm-20.62 11.9-5.75 3.33v6.64l5.75 3.32 5.75-3.32v-6.64zm13.74 0-5.75 3.33v6.64l5.75 3.32 5.76-3.32v-6.64z" fill="none" stroke="#000" stroke-linecap="round" stroke-linejoin="round"/></svg>