<svg viewBox="0 0 48 48" xmlns="http://www.w3.org/2000/svg"><g fill="none" stroke="#000" stroke-linecap="round" stroke-linejoin="round"><path d="m24 7.59s-4.51 3.93-4.84 4.31-3.32 3.69-4 4.35-7 6.68-7.24 7-3.22 3.17-3.22 3.17.4 1.47.4 1.71.07 2 .07 2l2.74-3.22s-3.19 3.64-3.21 3.89v5.21s.12 5.31.17 5.61 1.18-.74 1.61-1.11 8.77-9.13 8.89-9.23 1.14-.71 1.37-.9 4.14-4.8 4.33-4.91a27.72 27.72 0 0 0 3-2.46c.64-.74 6.1-6.29 6.51-6.6a17.85 17.85 0 0 0 1.58-1.49c0-.07-.48-.91-.6-.89s-.65.16-.65.16a9.17 9.17 0 0 0 -1.14-1.87 4.83 4.83 0 0 0 -1.66-.11l-.47 1.17a16.5 16.5 0 0 0 .81-2.24c0-.29-1.47-.6-1.59-.83s-.66-1.63-.66-1.63h-1l-.2-.97z"/><path d="m13.58 15c-.07.12-1.56 1.54-1.56 1.54s-6 6-6.2 6.2-1.11-1-1.11-1l-.12-7.88.29-1.32-.38-1.14.21-5.11z"/><path d="m10.96 15.28 1.15 1.17"/><path d="m5.64 14.6-1.01-.97"/><path d="m16.18 33.19.68.73-.11.28 2 1.86v.55l2.31 2.22 2.59-2.41-2.18 2 2.18 2.65s4.82-4.47 5.55-5.32 9.17-9.08 9.72-9.68 4.58-4.26 4.58-4.44-.15-4.15-.15-4.15v-5.51s-.81.35-.87 0 1.08-1.63 1-1.9 0-3.64-.11-3.81a13.64 13.64 0 0 0 -2.45 2.07c-.3.34-6.3 6.53-6.67 6.94s-6.1 5.92-6.88 6.77-8.37 8.31-8.71 8.72-2.48 2.43-2.48 2.43z"/><path d="m42.24 25.38 1.26 1.23s-.17 9.38-.19 10-.15 2.74-.12 3 0 2.08 0 2.18a4.33 4.33 0 0 1 -1.3-.81c-.17-.19-5.82-5.74-6.08-6s-1.44-1.65-1.44-1.65 5.44-5.44 5.67-5.77 2.2-2.18 2.2-2.18z"/><path d="m42 29.75c.24.28 1.44 1.4 1.44 1.4"/><path d="m41 37.72c.16.24 2 1.66 2.2 1.82"/><path d="m41.32 19.25c.24-.21 2-1.58 2-1.58"/><path d="m42.34 16.86 1-.61"/></g></svg>