<svg viewBox="0 0 48 48" xmlns="http://www.w3.org/2000/svg"><g fill="none" stroke="#000" stroke-linecap="round" stroke-linejoin="round"><path d="m16.36 24.17-5.21.69c-1.12.15-1.27-.42-1.37-1l-2.16-15.98a1 1 0 0 1 .63-1.2l9.75-2.11c.65-.21 1.12 0 1.34.88l1.89 12.61"/><path d="m21.24 18.06 1.17-1.33.78 1-.48 2.45-2.8 4.47-2.16 1-.75 9.85-.87-.6-1.21-9z"/><path d="m19.91 24.69 4.56-2.57 5.38-.71-.05 1.78-3.95 1.43-2.85 2.28-1.35.17-1.65 7.37 1.67-7.37 1.33-.17 4.2-1.52 5.8-.2-1.45 2.53-2.6.18-4.06 2.18-2.18 5.67 2.17-5.66 3.71-1.46 4.31.43-1.7 2.12h-1.72l-1.89 1.63-2 5.13 2-5.13 1.89-1.63h1.72l3.52 5.65 5.67 2.33v4.35l-8.76-.22-13.53-5-1.25-1.46.15-1.32"/><path d="m11.16 16c1.28-4.14 4.64-5.06 6.92-1.37-1.48 2.44-4 3.48-6.92 1.37z"/><path d="m13.82 12.58a2.85 2.85 0 0 1 1.8 4.3"/><path d="m13.82 12.58c-1.84 2.45.32 4 1.8 4.3"/><path d="m11 13.08-.92-.62"/><path d="m12.32 11.82-.88-1.16"/><path d="m13.92 11.1-.32-1.35"/><path d="m15.72 11.07.44-1.2"/><path d="m17.41 11.72.69-.93"/><path d="m18.13 17 1.14.84"/><path d="m16.41 18.15.66.94"/><path d="m14.5 18.57v1.43"/><path d="m12.22 18.24-.88 1.08"/><path d="m14.45 14.25a1.16 1.16 0 0 1 .33 1c-.29-.39-.48-.58-.33-1z"/></g></svg>