<svg viewBox="0 0 48 48" xmlns="http://www.w3.org/2000/svg"><path d="m19.9 3.5a1 1 0 0 0 -1 .86l-.77 5.43a15.36 15.36 0 0 0 -3.46 2l-5.13-2.04a1 1 0 0 0 -1.25.44l-4.1 7.11a1 1 0 0 0 .25 1.31l4.32 3.39a19 19 0 0 0 -.14 2 16.52 16.52 0 0 0 .14 2l-4.32 3.39a1 1 0 0 0 -.25 1.31l4.1 7.11a1 1 0 0 0 1.25.44l5.11-2.06a15.68 15.68 0 0 0 3.46 2l.77 5.43a1 1 0 0 0 1 .86h8.2a1 1 0 0 0 1-.86l.77-5.43a15.36 15.36 0 0 0 3.46-2l5.11 2.06a1 1 0 0 0 1.25-.44l4.1-7.11a1 1 0 0 0 -.25-1.31l-4.29-3.39a16.52 16.52 0 0 0 .14-2 16.52 16.52 0 0 0 -.14-2l4.33-3.39a1 1 0 0 0 .25-1.31l-4.1-7.11a1 1 0 0 0 -1.25-.44l-5.11 2.06a15.68 15.68 0 0 0 -3.46-2l-.77-5.43a1 1 0 0 0 -1-.86zm4.1 9.92a8 8 0 0 1 8 8c0 4.68-3.8 8.33-8 13.12-4.06-4.58-7.72-8.13-8-12.53a5.06 5.06 0 0 1 0-.55 8 8 0 0 1 8-8zm0 4.18a3.87 3.87 0 1 0 3.87 3.86 3.86 3.86 0 0 0 -3.87-3.86z" fill="none" stroke="#000" stroke-linecap="round" stroke-linejoin="round"/></svg>