<svg viewBox="0 0 48 48" xmlns="http://www.w3.org/2000/svg"><g fill="none" stroke="#000" stroke-linecap="round" stroke-linejoin="round"><path d="m8.51 18.28h5.72"/><path d="m14.23 18.28v8.58a2.87 2.87 0 0 1 -2.86 2.86 2.86 2.86 0 0 1 -2.86-2.86v-.95"/><path d="m25.12 22.13a3.83 3.83 0 0 0 -4-3.83 4 4 0 0 0 -3.64 4.05v3.56a3.84 3.84 0 0 0 3.84 3.84 3.84 3.84 0 0 0 3.84-3.84h-3.88"/><path d="m31.81 18.3v7.61a3.84 3.84 0 0 0 3.84 3.84 3.84 3.84 0 0 0 3.84-3.84v-7.61"/><path d="m28.4 36.36v-24.72"/><circle cx="24" cy="24" r="21.5"/></g></svg>