<svg viewBox="0 0 48 48" xmlns="http://www.w3.org/2000/svg"><g fill="none" stroke="#000" stroke-linecap="round" stroke-linejoin="round"><path d="m24 31.5245h5.9238s5.2482 5.4743 10.5547 5.0531 2.9507-11.1683-1.8867-15.829-10.8018-4.2255-14.5918-4.2255-9.7544-.4353-14.5918 4.2255-7.1933 15.4079-1.8867 15.829 10.5547-5.0531 10.5547-5.0531z"/><path d="m20.1535 27.0913h2.5459"/><path d="m27.8465 27.0913h-2.5459"/><path d="m13.5876 21.2874a1.355 1.355 0 0 0 -1.3584 1.3584v1.165h-1.1651a1.36 1.36 0 0 0 0 2.7193h1.1651v1.1651a1.3584 1.3584 0 0 0 2.7168 0v-1.1652h1.1676a1.36 1.36 0 0 0 0-2.7193h-1.1676v-1.165a1.355 1.355 0 0 0 -1.3584-1.3583z"/><circle cx="36.5896" cy="25.1283" r="1.2595"/><circle cx="31.1019" cy="25.1283" r="1.2595"/><circle cx="33.8458" cy="27.8721" r="1.2595"/><circle cx="33.8458" cy="22.3844" r="1.2595"/><path d="m24 16.5231s-.79-2.5969 1.6472-2.5447 1.9983-2.5792 1.9983-2.5792"/></g></svg>