<svg viewBox="0 0 48 48" xmlns="http://www.w3.org/2000/svg"><g fill="none" stroke="#000" stroke-linecap="round" stroke-linejoin="round"><path d="m27.2018 4.5v23.1563a3.2018 3.2018 0 0 1 -3.2018 3.2018 3.2018 3.2018 0 0 1 -3.2018-3.2018v-23.1563"/><path d="m24 30.8581v9.2955"/><circle cx="24" cy="41.8268" r="1.6732"/><path d="m17.1172 11.1145a9.93 9.93 0 0 0 -.5929 13.6938"/><path d="m31.4757 24.8083a9.93 9.93 0 0 0 -.5928-13.6937"/><path d="m12.51 6.7211a16.2925 16.2925 0 0 0 -.5925 22.4809"/><path d="m36.0822 29.202a16.2924 16.2924 0 0 0 -.5618-22.45"/></g></svg>