<svg viewBox="0 0 48 48" xmlns="http://www.w3.org/2000/svg"><g fill="none" stroke="#000" stroke-linecap="round" stroke-linejoin="round"><circle cx="24" cy="24" r="21.5"/><path d="m16.3747 19.7879h19.6558"/><path d="m16.3747 25.7768h11.8326"/><path d="m30.815 28.9664h2.67a2.67 2.67 0 0 1 2.67 2.67 2.67 2.67 0 0 1 -2.67 2.67 2.67 2.67 0 0 1 -2.67-2.67v-2.67a0 0 0 0 1 0 0z"/><path d="m8.5239 22.6722h2.67a2.67 2.67 0 0 1 2.67 2.67 2.67 2.67 0 0 1 -2.67 2.67 2.67 2.67 0 0 1 -2.67-2.67v-2.67a0 0 0 0 1 0 0z" transform="matrix(0 1 -1 0 36.536 14.1484)"/></g></svg>