<svg viewBox="0 0 48 48" xmlns="http://www.w3.org/2000/svg"><g fill="none" stroke="#000" stroke-linecap="round" stroke-linejoin="round"><path d="m19.0856 16.2885 2.6329-1.52.198-1.9237 2.3805-1.3748.3411 2.0007-.4447 5.7835 6.526 11.3034v4.71l-4.0794-2.3547-6.5258-11.3029-5.2311-2.5067-1.562-1.2957 2.38-1.3744 1.765.79 2.6328-1.52"/><path d="m26.64 32.9133 4.08-2.3551"/><path d="m20.1142 21.61-2.5916-4.4888"/><path d="m24.1931 19.2546-2.4679-4.2746"/><path d="m22.5959 25.8883 3.9019-2.2527"/><path d="m42.2674 15.67v16.66a3.84 3.84 0 0 1 -1.92 3.3252l-14.4274 8.3304a3.84 3.84 0 0 1 -3.84 0l-14.4278-8.33a3.84 3.84 0 0 1 -1.92-3.3252v-16.6604a3.84 3.84 0 0 1 1.92-3.3252l14.4278-8.3304a3.84 3.84 0 0 1 3.84 0l14.4278 8.33a3.84 3.84 0 0 1 1.9196 3.3256z"/></g></svg>