<svg viewBox="0 0 48 48" xmlns="http://www.w3.org/2000/svg"><g fill="none" stroke="#000" stroke-linecap="round" stroke-linejoin="round"><path d="m7.48 5.5a2 2 0 0 0 -2 2v33a2 2 0 0 0 2 2h33.04a2 2 0 0 0 2-2v-33a2 2 0 0 0 -2-2z"/><path d="m14.9216 33.0118 18.0237-18.0236"/><path d="m25.7031 19.8172a4.4758 4.4758 0 0 0 -5.8531 5.8528m2.8052 2.5851a4.4847 4.4847 0 0 0 5.6271-5.63"/><path d="m28.49 17.0306a17.6558 17.6558 0 0 0 -18.99 6.91 17.8279 17.8279 0 0 0 6.4943 5.5859m3.9505 1.44a17.6942 17.6942 0 0 0 18.5552-7.0259 17.8588 17.8588 0 0 0 -6.1695-5.4068"/></g></svg>