<svg viewBox="0 0 48 48" xmlns="http://www.w3.org/2000/svg"><g fill="none" stroke="#000" stroke-linecap="round" stroke-linejoin="round"><path d="m27.8024 6.4114c-1.5856-.9181-2.48-.3872-1.89.3368-1.0108.1206-.408.891-.408.891s-5.2727 6.7783-7.2936 9.2451c-2.1 2.5637-2.8469 1.057-4.4025 3.7439l-9.3083 16.077s.1681 2.3321 3.5156 4.27 5.1163.7274 5.1163.7274l9.3081-16.0767c1.5557-2.6868-.1226-2.5842 1.055-5.682 1.1332-2.9808 4.3865-10.9283 4.3865-10.9283s.9683.1392.57-.7974c.9217.1518.9366-.8882-.6491-1.8068z"/><path d="m21.5933 12.638c-.8224-2.0282-1.475-3.6224-1.475-3.6224s-.9683.1392-.57-.7974c-.9219.1514-.9368-.8887.6489-1.8068s2.48-.3872 1.89.3368c1.0108.1206.408.891.408.891s.6148.7901 1.5048 1.9289"/><path d="m26.4066 12.638c1.2847 1.6325 2.5861 3.2742 3.3825 4.2463 2.1 2.5637 2.8469 1.057 4.4025 3.7439l9.3084 16.077s-.1681 2.3321-3.5156 4.27-5.1163.7274-5.1163.7274l-9.3081-16.0767c-1.5557-2.6868.1226-2.5842-1.055-5.682-.1395-.3669-.3111-.8091-.5048-1.3024"/></g></svg>