<svg viewBox="0 0 48 48" xmlns="http://www.w3.org/2000/svg"><g fill="none" stroke="#000" stroke-linecap="round" stroke-linejoin="round"><path d="m4.1682 32.318a21.5042 21.5042 0 1 1 40.98-12.2112"/><path d="m45.4842 24.831a21.5 21.5 0 0 1 -36.4773 14.579"/><path d="m11.6168 25.4019c2.1869 0 2.7757 1.85 2.7757 3.9813 0 3.5047-4.9065 12.28-10.2617 12.28-1.4579 0-2.4953-.28-2.4953-2.187s4.2617-14.0743 9.9813-14.0743z"/><ellipse cx="40.7345" cy="22.7487" rx="1.9065" ry="3.6506" transform="matrix(.99133195 -.13138096 .13138096 .99133195 -2.6357 5.5489)"/><path d="m40.2549 19.13c-2.6194 1.2815-11.2974 3.5576-14.5913 4.0572a1.9483 1.9483 0 0 0 -1.8786 2.4393c.2524 1.0093 1.0655 1.514 2.5234 1.2336a44.4082 44.4082 0 0 1 14.9057-.4922"/><path d="m33.5264 25.98q.0907.8382.1278 1.7073c.3365 7.8645-2.4968 14.9447-4.2554 17.1289"/><path d="m13.8742 42.97a9.1748 9.1748 0 0 0 4.5137-8.26c0-3.9112-4.5137-13.2477-4.5137-16.15s1.1071-4.92 8.3408-4.92a10.0128 10.0128 0 0 1 7.6435 3.163"/><path d="m26.7935 14.5777c-4.0739-1.8627-9-3.3132-14.9664-.2226-5.8458 3.0281-3.5309 12.3989-3.5309 12.3989"/><path d="m13.1939 10.7173c.6309-1.2617 4.4985-2.338 5.1722 1.8485"/><path d="m33.6816 30.0421c4.7458.39 13.5346-4.7843 13.052-7.9066-.4-2.5889-4.237-2.8426-5.4409-2.62"/><path d="m11.2593 20.2009.1279-1.3165a.857.857 0 0 1 .9321-.7706l5.7321.5311"/><path d="m19.32 17.5935h4.4725a1.0093 1.0093 0 0 1 1.0093 1.0093v1.6507a2.26 2.26 0 0 1 -2.2605 2.2605h-1.8913a2.2605 2.2605 0 0 1 -2.258-2.1543l-.08-1.7095a1.0092 1.0092 0 0 1 1.008-1.0567z"/><path d="m33.4324 19.1713-.121-1.5741a1.3468 1.3468 0 0 0 -1.6445-1.2094l-3.9308.9033a1.3468 1.3468 0 0 0 -1.01 1.6172l.1833.79a3.1583 3.1583 0 0 0 3.833 2.3522l.74-.1826a2.5743 2.5743 0 0 0 1.95-2.6966z"/><path d="m24.8014 18.6028h1.8892"/><path d="m29.8585 16.8032c1.4195.79 2.7614 2.1642 1.3334 5.1361"/><circle cx="21.7712" cy="19.2481" r="1.5981"/><circle cx="30.0653" cy="18.6028" r="1.3347"/></g></svg>