<svg viewBox="0 0 48 48" xmlns="http://www.w3.org/2000/svg"><g fill="none" stroke="#000" stroke-linecap="round" stroke-linejoin="round"><path d="m23.9824 16.0536a5.41 5.41 0 0 0 -3.8736-3.0521c-2.7355-.3908-3.1821 2.2331-3.238 3.4613s.7258 4.5777 1.0607 7.09-.8374 3.07-3.2937 3.07-3.1821-1.0607-3.4054-2.4005 2.5122-6.0851 2.903-8.7089-.8374-3.4054-2.4006-3.4054c-2.3447 0-5.3035 2.3447-6.3642 6.42s-1.5631 9.1.9491 12.4493a10.6741 10.6741 0 0 0 11.1652 3.4612 11.1808 11.1808 0 0 0 4.1938-2.2985"/><path d="m31.2461 14.2018c1.2521-.3231 7.6761 3.3217 7.5924 5.7222s-6.42 4.6336-7.5924 4.7731-2.1772-2.9867-1.8422-5.8617.9769-4.4103 1.8422-4.6336z"/><path d="m43.5 20.0915c0-2.3489-1.8423-9.6859-9.8533-9.9092s-10.0488 6.2805-10.7187 8.9043-4.625 13.1126 2.2889 18.2552a3.7784 3.7784 0 0 0 3.8055-.093c1.6748-.977 1.5641-3.7372 1.162-4.8434-.306-.8416-1.58-1.7821-1.5714-2.47.0279-2.14 3.5822-2.447 6.7364-2.4191s8.1506-2.4284 8.1506-7.4248z"/></g></svg>