<svg viewBox="0 0 48 48" xmlns="http://www.w3.org/2000/svg"><g fill="none" stroke="#000" stroke-linecap="round" stroke-linejoin="round"><path d="m24 43.5c1.96-2.1128 16.32-3.6054 16.32-16.5149v-18.841s-5.831-3.6441-16.32-3.6441-16.32 3.6441-16.32 3.6441v18.841c0 12.9095 14.36 14.4021 16.32 16.5149z"/><path d="m40.32 9.0552c-17.8539 0-22.9745.7947-32.64 10.1183"/><path d="m11.5 20.4431v5.41a3.2788 3.2788 0 0 0 3.2788 3.2788 3.2788 3.2788 0 0 0 3.2788-3.2788v-5.41"/><path d="m18.0576 25.8531v3.2788"/><path d="m30.9 28.3988a3.6877 3.6877 0 0 0 2.6966.7331h.7356a2.17 2.17 0 0 0 2.1678-2.1719 2.17 2.17 0 0 0 -2.1675-2.1722h-1.4712a2.17 2.17 0 0 1 -2.1675-2.1722 2.17 2.17 0 0 1 2.1675-2.1722h.7356a3.6881 3.6881 0 0 1 2.6966.733"/><path d="m21.2828 25.8531a3.2788 3.2788 0 0 0 3.2788 3.2788 3.2788 3.2788 0 0 0 3.2784-3.2788v-2.1312a3.2788 3.2788 0 0 0 -3.2788-3.2788 3.2788 3.2788 0 0 0 -3.2788 3.2788"/><path d="m21.2828 20.4431v13.1152"/></g></svg>