<svg viewBox="0 0 48 48" xmlns="http://www.w3.org/2000/svg"><g fill="none" stroke="#000" stroke-linecap="round" stroke-linejoin="round"><path d="m39.1513 8.8483-2.2713-2.2714-8.6341 1.022-4.9013 3.87.67 4.3935-7.5286 7.5285-1.4905-1.4909 5.6456-5.6456-4.04-4.04-4.196 4.196-.4058-.4057-5.094 5.0939v1.2437s-3.1711 4.3126 0 7.4836"/><path d="m6.9057 29.8257 5.828-5.828 1.5211 1.5211-2.9431 2.9431.6872.6873-.9494.9494h-3.4441a4.3022 4.3022 0 0 1 -.9031 3.37c-1.249 1.249 1.8516-.2461 4.9632 2.8655"/><path d="m7.98 34.3381s-1.277 2.0041 1.2006 4.4819"/><path d="m36.856 11.1436-1.6287-1.6287-5.9989.4236"/><path d="m33.9868 14.0131-.6821-.6821h-4.7585l1.2938 4.829-9.3378 9.3378"/><circle cx="18.9139" cy="29.0859" r="2.0605"/><path d="m17.5213 27.5674-1.6013-1.6014"/><path d="m7.713 24.77 9.2725-9.2724"/><path d="m23.3447 11.4687 3.1089 1.2142"/><path d="m24.0149 15.8619 3.4562 1.1854"/><path d="m37.32 7.0168 1.513-1.5131"/><path d="m17.0808 12.6942a2.06 2.06 0 1 1 2.913 2.9131"/><path d="m39.1513 8.8483 2.2714 2.2717-1.0221 8.6341-3.87 4.9013-4.3935-.67-7.5287 7.5287 1.4905 1.4905 5.6456-5.6455 4.04 4.04-4.1961 4.196.4058.4057-5.0932 5.0936h-1.2437s-4.3125 3.171-7.4836 0"/><path d="m18.1742 41.0941 5.8281-5.828-1.5212-1.5211-2.9431 2.9431-.6872-.6872-.95.9494v3.4441a4.3022 4.3022 0 0 0 -3.37.9031c-1.2489 1.249.2461-1.8516-2.8654-4.9632"/><path d="m13.6619 40.0205s-2.0041 1.2767-4.4819-1.2005"/><path d="m36.856 11.1436 1.6286 1.6287-.4236 5.9989"/><path d="m33.9868 14.0131.6821.6821v4.7585l-4.8289-1.2937-9.3379 9.3379"/><circle cx="18.9139" cy="29.0861" r="2.0606"/><path d="m20.4326 30.4787 1.6014 1.6013"/><path d="m23.23 40.2872 9.2725-9.2725"/><path d="m36.5308 24.6552-1.2142-3.1088"/><path d="m32.138 23.985-1.1853-3.4562"/><path d="m40.9829 10.68 1.513-1.513"/><path d="m35.3057 30.9192a2.06 2.06 0 0 0 -2.913-2.913"/></g></svg>