<svg viewBox="0 0 48 48" xmlns="http://www.w3.org/2000/svg"><g fill="none" stroke="#000" stroke-linecap="round" stroke-linejoin="round"><path d="m40.5 5.5h-33a2 2 0 0 0 -2 2v33a2 2 0 0 0 2 2h33a2 2 0 0 0 2-2v-33a2 2 0 0 0 -2-2z"/><path d="m34.5134 23.575a4.5 4.5 0 0 0 -4.5-4.5 4.5 4.5 0 0 0 -4.5 4.5v2.925a4.5 4.5 0 0 0 4.5 4.5 4.5 4.5 0 0 0 4.5-4.5"/><path d="m36.3134 31a1.8 1.8 0 0 1 -1.8-1.8v-16.2"/><path d="m22.0412 26.5a4.5 4.5 0 0 1 -4.5 4.5 4.5 4.5 0 0 1 -4.5-4.5v-7.425"/><path d="m23.8412 31a1.8 1.8 0 0 1 -1.8-1.8v-10.125"/><path d="m13.0412 19.075h-1.3546"/><path d="m22.0412 19.075h-1.3546"/><path d="m34.5134 13h-1.3546"/></g></svg>