<svg viewBox="0 0 48 48" xmlns="http://www.w3.org/2000/svg"><g fill="none" stroke="#000" stroke-linecap="round" stroke-linejoin="round"><path d="m39.52 25a105.56 105.56 0 0 0 -22.39 2.22c-2.65.57-4.75 1.16-6.31 1.63-1.19.29-1.73.49-2.34.68v12a2 2 0 0 0 1.95 1.95l27.16.1a2 2 0 0 0 1.95-2v-16.6zm-23.07 8.47-.18 2.74 2.15 1.69-2.63.68-.95 2.57-1.46-2.31-2.73-.11 1.75-2.12-.75-2.61 2.56 1zm15.47-5.81a4.87 4.87 0 1 1 -1.83 9.34 4.86 4.86 0 0 0 0-8.92 5 5 0 0 1 1.83-.41zm-6.23 1.75-.19 2.83 2.24 1.76-2.74.67-1 2.63-1.5-2.37-2.8-.11 1.79-2.15-.72-2.67 2.6 1z"/><path d="m39.52 25v-2a15.36 15.36 0 0 0 -6.82-11.49l2.92-5.21a1.16 1.16 0 0 0 -.48-1.64 1.24 1.24 0 0 0 -1.66.46l-2.82 5.22a15.74 15.74 0 0 0 -13.24 0l-2.82-5.22a1.38 1.38 0 0 0 -1.27-.61.9.9 0 0 0 -.39.15 1.17 1.17 0 0 0 -.49 1.64l2.93 5.21a15.6 15.6 0 0 0 -6.92 13v5m12.64-12.8a3.41 3.41 0 0 1 -6.82 0m19.47 0a3.41 3.41 0 1 1 -6.81 0"/></g></svg>