<svg viewBox="0 0 48 48" xmlns="http://www.w3.org/2000/svg"><g fill="none" stroke="#000" stroke-linecap="round" stroke-linejoin="round"><path d="m6.0055 11.6756h35.9857a1.5088 1.5088 0 0 1 1.5088 1.5088v21.6345a1.5055 1.5055 0 0 1 -1.5055 1.5055h-35.9857a1.5088 1.5088 0 0 1 -1.5088-1.5087v-21.6346a1.5055 1.5055 0 0 1 1.5055-1.5055z"/><ellipse cx="15.2778" cy="23.7869" rx="7.3548" ry="7.3391"/><circle cx="27.985" cy="30.3756" r="1.4175"/><circle cx="33.3493" cy="30.3756" r="1.4175"/><circle cx="38.7227" cy="30.3748" r="1.4175"/><path d="m28.178 17.247h10.3482a1.614 1.614 0 0 1 1.614 1.614v5.9864a1.6106 1.6106 0 0 1 -1.6102 1.6105h-10.352a1.6106 1.6106 0 0 1 -1.6106-1.6106v-5.99a1.6106 1.6106 0 0 1 1.6106-1.6103z"/><path d="m36.54 20.187v3.331h1.669"/><path d="m32.3734 23.5179v-3.3309h1.0848a1.1242 1.1242 0 1 1 0 2.2483h-1.0848"/><path d="m33.4998 22.3938 1.0848 1.1241"/><path d="m28.4982 20.1864v2.2068a1.0855 1.0855 0 1 0 2.17 0v-2.2068"/></g></svg>