<svg viewBox="0 0 48 48" xmlns="http://www.w3.org/2000/svg"><g fill="none" stroke="#000" stroke-linecap="round" stroke-linejoin="round"><path d="m12.8519 32.7076a8.2973 8.2973 0 0 1 -7.236-4.3548 9.0121 9.0121 0 0 1 .0091-8.7039 8.2955 8.2955 0 0 1 7.245-4.3383"/><path d="m12.87 15.3106 9.0012-.036"/><path d="m12.4137 32.7348 8.6392.091"/><path d="m35.1481 15.1742a8.2972 8.2972 0 0 1 7.236 4.3547 9.0123 9.0123 0 0 1 -.0091 8.704 8.2957 8.2957 0 0 1 -7.245 4.3383"/><path d="m35.2209 15.2019-9.0013.036"/><path d="m35.13 32.5712-8.6391-.091"/><path d="m15.5056 23.7319h16.7327v.1819h-16.7327z"/></g></svg>