<svg viewBox="0 0 48 48" xmlns="http://www.w3.org/2000/svg"><g fill="none" stroke="#000" stroke-linecap="round" stroke-linejoin="round"><path d="m7.8418 10.6514c1.3808-1.0965 1.8088-.57 2.7962 0l9.8679 5.6972 2.5459-10.7821a9.6189 9.6189 0 0 1 2.1122 0 2.6762 2.6762 0 0 1 1.0156.6228 4.211 4.211 0 0 1 1.2839.28 14.3955 14.3955 0 0 1 1.44.6995c-.5232-.0653-.8744-.1613-1.57-.1955a2.4739 2.4739 0 0 0 -1.3694.6306 1.4356 1.4356 0 0 0 -.41 1.3209c.212 1.3125.3967 1.8546.927 2.2566l10.9566 6.6264a2.6011 2.6011 0 0 0 2.7205 0"/><path d="m7.8418 14.8925c1.3808-1.0966 1.9908-.57 2.9782 0 3.2893 1.8991 5.8437 3.4791 9.133 5.3782"/><path d="m7.8418 19.1337c1.3808-1.0966 1.9881-.57 2.9755 0 3.2893 1.899 5.2935 3.16 8.5828 5.0589"/><path d="m7.8418 23.3747c1.3808-1.0965 2.0647-.57 3.0521 0 3.2893 1.8991 4.664 2.8408 7.9533 4.74"/><path d="m27.1345 15.8377 10.1025 6.1669a3.0345 3.0345 0 0 0 2.9212 0"/><path d="m27.788 20.4943 9.562 5.7074a2.7872 2.7872 0 0 0 2.8086 0"/><path d="m28.4415 25.1508 8.889 5.248a2.8284 2.8284 0 0 0 2.8277 0"/><path d="m8.5475 32.6757v6.5086a3.2779 3.2779 0 0 0 3.193 3.3157 3.2779 3.2779 0 0 0 3.1929-3.3157v-6.5086"/><path d="m16.9847 41.3838a2.948 2.948 0 0 0 2.4729 1.1127h1.4837a2.48 2.48 0 0 0 2.4728-2.4728 2.48 2.48 0 0 0 -2.4728-2.4728h-1.6074a2.48 2.48 0 0 1 -2.4728-2.4729 2.48 2.48 0 0 1 2.4728-2.4728h1.4837a2.6545 2.6545 0 0 1 2.4724 1.1128"/><path d="m26.0224 39.178h4.1415"/><path d="m34.1379 39.1779h4.1415"/><path d="m32.9187 42.4724 3.3238-9.8483 3.2007 9.8483"/><path d="m24.7827 42.4724 3.3238-9.8483 3.2007 9.8483"/></g></svg>