<svg viewBox="0 0 48 48" xmlns="http://www.w3.org/2000/svg"><g fill="none" stroke="#000" stroke-linecap="round" stroke-linejoin="round"><rect height="12.13" rx="1.73" width="12.13" x="4.5" y="11.87"/><rect height="12.13" rx="1.73" width="12.13" x="16.63" y="11.87"/><rect height="12.13" rx="1.73" width="12.13" x="28.77" y="11.87"/><rect height="12.13" rx="1.73" width="12.13" x="7.1" y="24"/><rect height="12.13" rx="1.73" width="12.13" x="19.23" y="24"/><rect height="12.13" rx="1.73" width="12.13" x="31.37" y="24"/><path d="m21.65 21.43h2.1"/><path d="m21.65 14.43h2.1"/><path d="m22.7 14.43v7"/><path d="m11.42 26.57h3.5v5.25a1.76 1.76 0 0 1 -1.75 1.75 1.75 1.75 0 0 1 -1.75-1.75v-.58"/><path d="m23.42 26.57v7"/><path d="m27.18 33.57-2.88-3.5 2.88-3.48"/><path d="m24.3 30.07h-.88"/><path d="m32.51 19.11a2.32 2.32 0 0 0 4.64 0v-2.36a2.32 2.32 0 0 0 -4.64 0z"/><path d="m8.25 14.43v4.68a2.32 2.32 0 0 0 4.64 0v-4.68"/><path d="m35.68 26.57v7h3.5"/></g></svg>