<svg viewBox="0 0 48 48" xmlns="http://www.w3.org/2000/svg"><g fill="none" stroke="#000" stroke-linecap="round" stroke-linejoin="round"><path d="m18.6 17.1-12.6 3.2 8.4 12.1 12.7-5.1z"/><path d="m14.4 32.4-1.6 3.5 12.6-4.7 1.8-3.9"/><path d="m6 20.3-1.5 3.8 8.3 11.8"/><path d="m23.9 31.8a2.22 2.22 0 0 0 2.5 1.3l4.1-2c2-2.1 1.4-3.8.9-5.5l-9.6-11.4-4.5 1.2c-1.8.8-2 1.3-1.7 2.5"/><path d="m21.7 14.2 8.4-2.1a3.68 3.68 0 0 1 3 .5l7.6 7.1c.9 1.4 1.8 2.7-.4 5.7l-9.9 5.7"/><path d="m35.1 14.5 4.8-1.5 3.5 2.5.1 2.9-2.6 1.6"/><path d="m43.4 15.4-4.7 2.4"/><path d="m41.2 20.7-10.5 4.4-4 1.9"/><path d="m5.6 22.3 7.9 11.3"/><path d="m27.1 27.4c1.7 1.7.4 4.4-1.2 5.8"/><path d="m18.6 17.1c-.5-.8-1.1-1.5-1.9-1.5"/></g></svg>