<svg viewBox="0 0 48 48" xmlns="http://www.w3.org/2000/svg"><g fill="none" stroke="#000" stroke-linecap="round" stroke-linejoin="round"><path d="m24 3.5 17.754 10.25v20.5l-17.754 10.25-17.754-10.25v-20.5z"/><path d="m41.2085 34.5647c-1.0919-10.1576-5.2852-22.632-10.4581-22.632-3.7009 0-4.8785 1.7944-6.75 5.1028-1.8719-3.3084-3.0495-5.1028-6.75-5.1028-5.1729 0-9.3662 12.4744-10.4581 22.632"/><path d="m24 30.3252 5.7333-4.4828a.5307.5307 0 0 0 .0078-.8369 9.1748 9.1748 0 0 0 -5.7411-1.7568 9.1748 9.1748 0 0 0 -5.7411 1.7568.5307.5307 0 0 0 .0078.8369z"/></g></svg>