<svg viewBox="0 0 48 48" xmlns="http://www.w3.org/2000/svg"><path d="m39.23 26a16.52 16.52 0 0 0 .14-2 16.52 16.52 0 0 0 -.14-2l4.33-3.39a1 1 0 0 0 .25-1.31l-4.1-7.11a1 1 0 0 0 -1.25-.44l-5.11 2.06a15.68 15.68 0 0 0 -3.46-2l-.77-5.43a1.05 1.05 0 0 0 -1-.86h-8.2a1 1 0 0 0 -1 .86l-.77 5.43a15.36 15.36 0 0 0 -3.46 2l-5.15-2.06a1 1 0 0 0 -1.25.44l-4.1 7.11a1 1 0 0 0 .25 1.31l4.32 3.39a16.66 16.66 0 0 0 -.14 2 16.52 16.52 0 0 0 .14 2l-4.32 3.39a1 1 0 0 0 -.25 1.31l4.1 7.11a1 1 0 0 0 1.25.44l5.11-2.06a15.68 15.68 0 0 0 3.46 2l.77 5.43a1 1 0 0 0 1 .86h8.2a1 1 0 0 0 1-.86l.77-5.43a15.36 15.36 0 0 0 3.46-2l5.11 2.06a1 1 0 0 0 1.25-.44l4.1-7.11a1 1 0 0 0 -.25-1.31zm-19.32-4.65a.52.52 0 0 1 .8-.44l4 2.6a.52.52 0 0 1 0 .87l-4 2.6a.52.52 0 0 1 -.8-.44zm.38-4.44 9.5 6.22a1 1 0 0 1 0 1.63l-9.5 6.24" fill="none" stroke="#000" stroke-linecap="round" stroke-linejoin="round"/></svg>