<svg viewBox="0 0 48 48" xmlns="http://www.w3.org/2000/svg"><g fill="none" stroke="#000" stroke-linecap="round" stroke-linejoin="round"><path d="m23.78 2.5a21.54 21.54 0 0 1 12.22 3.63l-5.63 8.41a11.39 11.39 0 1 0 3.85 14.52h-10.22v-10.12h21.5v5.06a21.5 21.5 0 1 1 -22.26-21.49z"/><path d="m29.4 8.6a16.37 16.37 0 0 0 -5.4-.91"/><path d="m11.41 13.64a16.3 16.3 0 0 0 9.13 26.3"/><path d="m36.23 18.94c1.77 0 1.85 4.77 3.45 4.77s1.85-4.77 3.45-4.77"/></g><circle cx="39.68" cy="26.33" r=".75"/><circle cx="22.55" cy="40.19" r=".75"/><circle cx="31.24" cy="9.35" r=".75"/></svg>