<svg viewBox="0 0 48 48" xmlns="http://www.w3.org/2000/svg"><g fill="none" stroke="#000" stroke-linecap="round" stroke-linejoin="round"><path d="m7.45 5.5a2 2 0 0 0 -1.95 2v33.1a2 2 0 0 0 2 2h33.1a2 2 0 0 0 2-2v-33.15a2 2 0 0 0 -2-1.95zm2.21 2.5a1.63 1.63 0 0 1 1.64 1.66 1.63 1.63 0 0 1 -1.64 1.64 1.63 1.63 0 0 1 -1.66-1.64 1.63 1.63 0 0 1 1.66-1.66zm28.68 0a1.63 1.63 0 0 1 1.66 1.66 1.63 1.63 0 0 1 -1.64 1.64 1.63 1.63 0 0 1 -1.66-1.64 1.63 1.63 0 0 1 1.64-1.66zm-14.34 1a15 15 0 1 1 -15 15 15 15 0 0 1 15-15zm-14.34 27.7a1.64 1.64 0 0 1 1.64 1.64 1.63 1.63 0 0 1 -1.64 1.66 1.63 1.63 0 0 1 -1.66-1.66 1.63 1.63 0 0 1 1.66-1.64zm28.68 0a1.63 1.63 0 0 1 1.66 1.64 1.63 1.63 0 0 1 -1.66 1.66 1.63 1.63 0 0 1 -1.64-1.64 1.63 1.63 0 0 1 1.64-1.64z"/><circle cx="24" cy="24" r="5.31"/></g></svg>