<svg viewBox="0 0 48 48" xmlns="http://www.w3.org/2000/svg"><g fill="none" stroke="#000" stroke-linecap="round" stroke-linejoin="round"><path d="m40.5 42.5h-33a2 2 0 0 1 -2-2v-33a2 2 0 0 1 2-2h33a2 2 0 0 1 2 2v33a2 2 0 0 1 -2 2z"/><path d="m18.71 19.23-3.16 9.54-3.16-9.54"/><rect height="6.32" rx="2.39" width="4.77" x="30.84" y="22.45"/><path d="m26.73 24.83a2.38 2.38 0 0 1 2.38-2.38"/><path d="m26.73 22.45v6.32"/><path d="m24.29 26.39a2.39 2.39 0 0 1 -2.39 2.38 2.39 2.39 0 0 1 -2.38-2.38v-1.56a2.39 2.39 0 0 1 2.38-2.38 2.39 2.39 0 0 1 2.39 2.38"/><path d="m24.29 28.77v-6.32"/></g></svg>