<svg viewBox="0 0 48 48" xmlns="http://www.w3.org/2000/svg"><g fill="none" stroke="#000" stroke-linecap="round" stroke-linejoin="round"><path d="m35.41 31.58c-2.87 6.65-6.74 11.88-11.79 11.92-4.84 0-8.5-5.16-11.26-11.92"/><path d="m7.84 16.42c-.96-4.36-1.65-8.34-1.94-10.42-.15-1.08.59-1.74 2.23-1.44 11.64 2.15 20.5 2.31 31.16.13 2.05-.42 3-.17 2.8 1.3-.32 2.16-1 6.07-2 10.42"/><path d="m38.43 29.09h3.05"/><path d="m38.43 18.91h3.05"/><path d="m39.95 18.91v10.18"/><path d="m25.29 29.07v-10.16l5.09 10.18 5.09-10.16v10.16"/><path d="m13.26 18.91-3.37 10.18-3.37-10.18"/><path d="m22.13 25.67a3.37 3.37 0 0 1 -3.37 3.37 3.37 3.37 0 0 1 -3.37-3.37v-3.39a3.37 3.37 0 0 1 3.37-3.37 3.37 3.37 0 0 1 3.37 3.37"/></g></svg>