<svg viewBox="0 0 48 48" xmlns="http://www.w3.org/2000/svg"><g fill="none" stroke="#000" stroke-linecap="round" stroke-linejoin="round"><path d="m41.5377 23.7386a18.4915 18.4915 0 0 0 -2.2635-4.184l2.59-2.5507a3.022 3.022 0 0 0 -4.2818-4.2658l-.0024.0019-2.55 2.5992a18.41 18.41 0 0 0 -21.5151 0l-2.57-2.57a3.1737 3.1737 0 0 0 -2.171-.9152 2.9793 2.9793 0 0 0 -2.1223.8762 3.0181 3.0181 0 0 0 0 4.2641l2.5994 2.5506a18.4962 18.4962 0 0 0 -3.476 10.8061v1.7968m13.6294-5.613a2.9206 2.9206 0 1 1 -2.9206-2.9206 2.9206 2.9206 0 0 1 2.9206 2.9206zm10.5471 2.0206a2.9195 2.9195 0 1 1 4.904-1.1714"/><circle cx="5.775" cy="34.1478" r="2"/><circle cx="42.225" cy="25.6142" r="2"/><path d="m7.7514 33.8701 32.531-7.7907"/><path d="m7.7749 34.1478h1.5"/><path d="m12.1835 34.1478h27.6314" stroke-dasharray="2.9086 2.9086"/><path d="m41.269 34.148h1.5v-1.5"/><path d="m42.723 29.0691q-.0529-.7483-.166-1.4876"/></g></svg>