<svg viewBox="0 0 48 48" xmlns="http://www.w3.org/2000/svg"><path d="m40 40c1-1 0-3 1-6s-1-5.8-1-8.62c0-2-23 13.62-26 15.62 3.31 1 4 1 6 0 3.22-1.61 6 0 8 1s9 0 12-2zm-23-6 23-12c2-1 1-3 2-5s-.62-8-1.62-11c-3.85.55-2.38.33-8.38 2-4.09 1.14-2-3.58-10-1.58-4 1-4.12 1.28-6.37 1.58.03 2 1.37 26 1.37 26zm-11.54-28c2.07 3 4.05 8.56 2.05 11.56s-.96 7.44.04 10.44c1.14 3.42-1.55 9-1.55 13 2.5.49 2.47 0 6 0l1.45-33.33s-3.99-2.67-7.99-1.67z" fill="none" stroke="#000" stroke-linecap="round" stroke-linejoin="round"/></svg>