<svg viewBox="0 0 48 48" xmlns="http://www.w3.org/2000/svg"><g fill="none" stroke="#000" stroke-linecap="round" stroke-linejoin="round"><path d="m19.9026 7.7626 23.0747 6.5274a.7176.7176 0 0 1 .36 1.1455l-9.8144 11.968a1.8471 1.8471 0 0 1 -2.154.5273l-26.2679-11.225a.99.99 0 0 1 -.0937-1.7747l12.2862-6.8622a3.4341 3.4341 0 0 1 2.6091-.3063z"/><path d="m11.4205 19.4063a64.5164 64.5164 0 0 0 -6.5939 5.5367.6888.6888 0 0 0 .1675 1.0806c3.5359 1.922 19.0785 10.3539 26.4583 14.0964a2.2717 2.2717 0 0 0 3.1495-1.2048c2.0625-5.3554 7.0405-11.5645 8.7094-13.335a.54.54 0 0 0 -.1577-.8592 37.2383 37.2383 0 0 0 -5.715-2.0926"/></g></svg>