<svg viewBox="0 0 48 48" xmlns="http://www.w3.org/2000/svg"><g fill="none" stroke="#000" stroke-linecap="round" stroke-linejoin="round"><rect height="24.342" rx=".5071" width="9.1282" x="33.8718" y="8.2506"/><path d="m23.0183 8.6348-4.4683 17.8723-4.4679-17.8723a.507.507 0 0 0 -.4919-.3842h-8.0828a.5072.5072 0 0 0 -.492.63l5.8319 23.3277a.5071.5071 0 0 0 .492.3841h14.4218a.507.507 0 0 0 .492-.3841l5.832-23.3277a.5072.5072 0 0 0 -.492-.63h-8.0831a.5071.5071 0 0 0 -.4917.3842z"/><circle cx="38.4359" cy="39.1852" r="4.5641"/></g></svg>