<svg viewBox="0 0 48 48" xmlns="http://www.w3.org/2000/svg"><path d="m9 4.5a1.88 1.88 0 0 0 -1.92 1.88v30.07a1.88 1.88 0 0 0 1.92 1.88h1.88v5.17l10.34-5.17h17.78a1.88 1.88 0 0 0 1.88-1.88v-30.07a1.88 1.88 0 0 0 -1.88-1.88zm4.7 6.58h5.6a1 1 0 0 1 .94.94 10.06 10.06 0 0 0 .63 3.76 1.85 1.85 0 0 1 -.63 2.35l-2 2a17.94 17.94 0 0 0 3.38 4.6 18.94 18.94 0 0 0 4.61 3.39l2-2a1.85 1.85 0 0 1 2.35-.63 10.06 10.06 0 0 0 3.76.63 1 1 0 0 1 .94.94v5.64a1 1 0 0 1 -.94.94 22.53 22.53 0 0 1 -21.62-21.64 1 1 0 0 1 .94-.92z" fill="none" stroke="#000" stroke-linecap="round" stroke-linejoin="round"/></svg>