<svg viewBox="0 0 48 48" xmlns="http://www.w3.org/2000/svg"><g fill="none" stroke="#000" stroke-linecap="round" stroke-linejoin="round"><path d="m12.09 12.09h23.81v23.81h-23.81z"/><path d="m17.06 17.06h13.88v13.88h-13.88z"/><path d="m24 17.06v-4.97"/><path d="m30.94 24h4.97"/><path d="m24 30.94v4.97"/><path d="m17.06 24h-4.97"/><path d="m22.84 35.91v6.59h-15.34a2 2 0 0 1 -2-2v-15.34h6.59"/><path d="m12.09 22.84h-6.59v-15.34a2 2 0 0 1 2-2h15.34v6.59"/><path d="m25.16 12.09v-6.59h15.34a2 2 0 0 1 2 2v15.34h-6.59"/><path d="m35.91 25.16h6.59v15.34a2 2 0 0 1 -2 2h-15.34v-6.59"/><path d="m21.5 21.5h5v5h-5z"/></g></svg>