<svg viewBox="0 0 48 48" xmlns="http://www.w3.org/2000/svg"><path d="m43.4811 14.938q-.2608 5.6938-7.9539 15.591-7.9536 10.3344-13.4572 10.3359-3.4112 0-5.7694-6.2946-1.5738-5.771-3.1474-11.5419-1.7509-6.2924-3.7577-6.2949a12.0684 12.0684 0 0 0 -3.0615 1.8365l-1.834-2.3629q2.887-2.5362 5.6909-5.0748 3.8507-3.3258 5.78-3.5018 4.5513-.4377 5.6034 6.2228 1.1367 7.1867 1.5767 8.9367 1.3139 5.9629 2.89 5.9609 1.223 0 3.6776-3.8689 2.4483-3.8665 2.6251-5.8877.35-3.3376-2.6251-3.34a7.31 7.31 0 0 0 -2.8871.6394q2.8757-9.4154 10.9835-9.1515 6.0113.1763 5.6661 7.7958z" fill="none" stroke="#000" stroke-linecap="round" stroke-linejoin="round"/></svg>