<svg viewBox="0 0 48 48" xmlns="http://www.w3.org/2000/svg"><g fill="none" stroke="#000" stroke-linecap="round" stroke-linejoin="round"><circle cx="24" cy="5.23" r="2.73"/><path d="m24 10.96v-3.01"/><circle cx="24" cy="24.05" r="13.09"/><circle cx="36.1" cy="9.63" r="2.73"/><path d="m32.41 14.02 1.94-2.3"/><circle cx="42.54" cy="20.78" r="2.73"/><path d="m36.89 21.77 2.96-.52"/><circle cx="40.3" cy="33.46" r="2.73"/><path d="m35.34 30.59 2.6 1.5"/><circle cx="30.44" cy="41.73" r="2.73"/><path d="m28.48 36.35 1.02 2.82"/><circle cx="17.56" cy="41.73" r="2.73"/><path d="m19.52 36.35-1.02 2.82"/><circle cx="7.7" cy="33.46" r="2.73"/><path d="m12.66 30.59-2.6 1.5"/><circle cx="5.46" cy="20.78" r="2.73"/><path d="m11.11 21.77-2.96-.52"/><circle cx="11.9" cy="9.63" r="2.73"/><path d="m15.59 14.02-1.94-2.3"/></g></svg>