<svg viewBox="0 0 48 48" xmlns="http://www.w3.org/2000/svg"><g fill="none" stroke="#000" stroke-linecap="round" stroke-linejoin="round"><path d="m36.34 36.47a3.36 3.36 0 0 1 -2.38 1 3.37 3.37 0 0 1 -3.37-3.38v-2.23a3.37 3.37 0 0 1 3.41-3.38 3.37 3.37 0 0 1 3.37 3.38v1"/><path d="m37.33 32.97h-6.75"/><rect height="8.98" rx="3.37" width="6.75" x="10.67" y="28.48"/><path d="m20.62 31.86a3.38 3.38 0 0 1 3.38-3.38 3.37 3.37 0 0 1 3.37 3.38v5.6"/><path d="m20.62 28.48v8.98"/><path d="m7.5 5.5a2 2 0 0 0 -2 2v33a2 2 0 0 0 2 2h33a2 2 0 0 0 2-2v-33a2 2 0 0 0 -2-2z"/><circle cx="32.54" cy="15.46" r="4.79"/></g></svg>