<svg viewBox="0 0 48 48" xmlns="http://www.w3.org/2000/svg"><path d="m42.68 15.1q-7.22 12.58-14.45 25.15a4.83 4.83 0 0 1 -4 2.63 4.62 4.62 0 0 1 -4.57-2.43c-3.05-5.26-6.06-10.53-9.09-15.8-1.84-3.2-3.69-6.4-5.52-9.61a4.86 4.86 0 0 1 3.95-7.36 4.66 4.66 0 0 1 4.46 2.51c1.36 2.33 2.69 4.68 4 7 1 1.69 1.92 3.38 2.91 5.05a7.64 7.64 0 0 0 6.4 3.95 7.79 7.79 0 0 0 8.23-6.91c0-.32.06-.63.07-.8a8.18 8.18 0 0 0 -.82-3.63 4.86 4.86 0 1 1 9.07-3 5.06 5.06 0 0 1 -.67 3.28" fill="none" stroke="#000" stroke-linecap="round" stroke-linejoin="round"/></svg>