<svg viewBox="0 0 48 48" xmlns="http://www.w3.org/2000/svg"><g fill="none" stroke="#000" stroke-linecap="round" stroke-linejoin="round"><path d="m29.0284 38.8632-.7939 1.3838a4.8165 4.8165 0 0 1 -3.9745 2.6293 4.6074 4.6074 0 0 1 -4.5713-2.4308c-3.048-5.2531-6.0618-10.5272-9.0885-15.7921q-2.761-4.8065-5.5211-9.6116a4.8557 4.8557 0 0 1 3.946-7.3594 4.6534 4.6534 0 0 1 4.4649 2.5076c1.3588 2.331 2.693 4.676 4.0376 7.0139.97 1.6845 1.9195 3.3807 2.9174 5.0474a7.6257 7.6257 0 0 0 6.391 3.953 7.7837 7.7837 0 0 0 8.19-6.921c.0365-.32.06-.6371.0741-.8a8.1561 8.1561 0 0 0 -.8252-3.6356 4.8551 4.8551 0 1 1 9.0733-3.0243 5.0814 5.0814 0 0 1 -.6653 3.2807m0 0q-3.5845 6.2376-7.1706 12.4728"/><circle cx="34.5" cy="34.5" r="7"/><path d="m32.0084 37.6235a2.2379 2.2379 0 0 0 1.9616.8765h1.1844a1.9978 1.9978 0 0 0 1.9957-2 1.9978 1.9978 0 0 0 -1.9957-2h-1.3087a1.9978 1.9978 0 0 1 -1.9957-2 1.9978 1.9978 0 0 1 1.9957-2h1.1843a2.2379 2.2379 0 0 1 1.9615.8765"/></g></svg>