<svg viewBox="0 0 48 48" xmlns="http://www.w3.org/2000/svg"><g fill="none" stroke="#000" stroke-linecap="round" stroke-linejoin="round"><path d="m35.5174 28.6145a3.4928 3.4928 0 0 1 -3.4826-3.4826v-2.2637a3.4826 3.4826 0 1 1 6.9652 0v2.2637a3.4929 3.4929 0 0 1 -3.4826 3.4826z"/><path d="m8 19.3857 3.4826 9.2289 3.4827-9.2289"/><path d="m22.2721 19.3857 3.4826 9.2289 3.4826-9.2289"/><path d="m18.6187 19.3855v9.229"/><path d="m43.5 37.5v-27a2 2 0 0 0 -2-2h-35a2 2 0 0 0 -2 2v27a2 2 0 0 0 2 2h35a2 2 0 0 0 2-2z"/></g></svg>