<svg viewBox="0 0 48 48" xmlns="http://www.w3.org/2000/svg"><g fill="none" stroke="#000" stroke-linecap="round" stroke-linejoin="round"><path d="m23.9128 18.7991a10.64 10.64 0 0 0 5.7686-1.9684l2.82 8.44a14.9321 14.9321 0 0 1 -8.6469 2.989 14.9321 14.9321 0 0 1 -8.6469-2.989l2.8205-8.44a10.64 10.64 0 0 0 5.7686 1.9684z"/><path d="m23.855 4.5c-1.413 0-2.0845 1.3765-2.3975 2.3322l-.9827 2.8661a5.7674 5.7674 0 0 0 3.38.9607 5.7674 5.7674 0 0 0 3.38-.9607l-.9827-2.8661c-.3121-.9557-.9841-2.3322-2.3971-2.3322z"/><path d="m23.855 36.5631a16.552 16.552 0 0 1 -11.2082-4.0331l1.1226-3.2723h-2.8183c-1.0926 0-1.5383.3628-1.814 1.221l-3.2392 10.9482c-.3244 1.2636-.192 2.0731 1.2611 2.0731h33.392c1.4531 0 1.5855-.8095 1.2611-2.0731l-3.2392-10.948c-.2757-.8582-.7214-1.221-1.8139-1.221h-2.8184l1.1226 3.2721a16.5518 16.5518 0 0 1 -11.2082 4.0331z"/></g></svg>