<svg viewBox="0 0 48 48" xmlns="http://www.w3.org/2000/svg"><g fill="none" stroke="#000" stroke-linecap="round" stroke-linejoin="round"><path d="m24.08 4.5c1.37 0 7.77 7.7 10.69 11.92s3.72 6.9 4.84 8.39 3.39 4.19 3.39 5.46-2.23 2.55-2.73 3.48a36.49 36.49 0 0 1 -5.27 6.09c-1.12.74-9.39 3.66-10.94 3.66s-8.63-3-9.74-3.54-4.25-3.66-5.32-4.64-4-4.38-4-5.17 1.07-1.63 1.81-2.8 4-6.38 5.08-7.77 6.43-8.81 7.59-9.83 3.01-5.25 4.6-5.25z"/><path d="m31.63 41.27a3.87 3.87 0 0 0 2.1-2.13c.23-.79-.24-3.17-1-5.08s-7.08-7.5-8.75-7.5c-1.41 0-10.11 7.17-10.11 11 0 1.77 3.84 3.82 3.84 3.82"/><path d="m23.56 4.64c.39 1.33.8 2 .71 2.64s-1.4 5.68-1.35 8.34 1 4.89 1.16 6.14a38.29 38.29 0 0 1 -.08 4.8"/><path d="m17.1 35.34a29.37 29.37 0 0 0 6.74.93c1.55 0 6-.58 6.39-.67 0 0-2.85 4.89-6.39 4.89s-6.74-5.15-6.74-5.15z"/><path d="m23.84 34.88v1.39"/><path d="m18.68 34.32v1.39"/><path d="m28.21 34.76v1.12"/><path d="m22.53 38.56a13 13 0 0 1 2.42 0"/></g></svg>