<svg viewBox="0 0 48 48" xmlns="http://www.w3.org/2000/svg"><g fill="none" stroke="#000" stroke-linecap="round" stroke-linejoin="round"><path d="m24.3337 21.2347c-13.0195-4.7855-11.8787-24.4715.1032-14.4194 1.31-2.3788 5.5508-5.171 8.3279-1.1012-5.4534-.6458-8.7914 6.0379-8.4311 15.52z"/><path d="m26.5515 23.5689c.4621-13.8638 19.5134-18.952 13.7246-4.4227 2.67.4986 6.6506 3.65 3.6567 7.5628-1.0965-5.3808-8.49-6.4551-17.381-3.14z"/><path d="m25.6548 26.3343c13.4964-3.2055 23.4219 13.833 7.881 12.0749.222 2.7068-1.7694 7.3769-6.3327 5.5194 4.902-2.475 3.9913-9.89-1.5484-17.5944z"/><path d="m21.8649 26.11c7.8951 11.4049-4.3649 26.8486-8.3807 11.7333-2.44 1.1917-7.5152 1.0356-7.4449-3.8909 4.0887 3.6658 10.6644.12 15.826-7.8428z"/><path d="m21.3618 22.8581c-8.7408 10.7713-26.9986 3.3219-13.6105-4.763-1.8269-2.01-3.0969-6.9252 1.6525-8.2362-2.3755 4.9511 2.8687 10.2721 11.9574 12.999z"/></g></svg>