<svg viewBox="0 0 48 48" xmlns="http://www.w3.org/2000/svg"><g fill="none" stroke="#000" stroke-linecap="round" stroke-linejoin="round"><path d="m11.89 31.343h-3.481l-3.909 6.431h38.142l-3.909-6.431h-1.538"/><path d="m28.091 20.141-11.833-3.512-5.474 18.441h25.305l3.425-11.538-7.866-2.335"/><path d="m32.5222 15.2134c-.749 1.4979-3.69 3.9823-3.9458 4.3659s-2.4113 2.2651-.9681 3.4708 3.7083-1.6989 4.4389-2.1921 4.3112-1.4614 5.0784-2.1007 1.8267-1.3153 2.1007-1.9912l-1.4979-4.75s-6.4484-.11-7.307 0-4.4639 4.9343-3.9274 6.3753c.6393 1.7173 2.8556.4065 2.8556.4065"/><path d="m37.728 12.017 3.38-1.791 2.392 6.403-4.274.137"/></g></svg>