<svg viewBox="0 0 48 48" xmlns="http://www.w3.org/2000/svg"><g fill="none" stroke="#000" stroke-linecap="round" stroke-linejoin="round"><circle cx="24" cy="24" r="7.3229"/><path d="m22.4583 16.8313v-4.0084a1.7009 1.7009 0 0 1 1.5417-1.5417 1.7345 1.7345 0 0 1 1.5417 1.5417v4.0083"/><path d="m31.2458 22.5354h4.0084a1.7007 1.7007 0 0 1 1.5416 1.5417 1.7344 1.7344 0 0 1 -1.5416 1.5417h-4.0084"/><path d="m16.7542 22.5354h-4.0084a1.7007 1.7007 0 0 0 -1.5416 1.5417 1.7344 1.7344 0 0 0 1.5416 1.5417h4.0084"/><path d="m22.4583 31.3229v4.0084a1.7008 1.7008 0 0 0 1.5417 1.5416 1.7344 1.7344 0 0 0 1.5417-1.5416v-4.0084"/><path d="m28.0334 17.8634 2.8344-2.8343a1.7007 1.7007 0 0 1 2.18 0 1.7343 1.7343 0 0 1 0 2.18l-2.8343 2.8343"/><path d="m30.2137 28.1105 2.8343 2.8344a1.7007 1.7007 0 0 1 0 2.18 1.7343 1.7343 0 0 1 -2.18 0l-2.8343-2.8343"/><path d="m19.9665 17.8634-2.8343-2.8343a1.7007 1.7007 0 0 0 -2.18 0 1.7343 1.7343 0 0 0 0 2.18l2.8343 2.8343"/><path d="m17.7863 28.1105-2.8343 2.8344a1.7007 1.7007 0 0 0 0 2.18 1.7343 1.7343 0 0 0 2.18 0l2.8343-2.8343"/><path d="m15.1354 14.75-6.3979-9.25"/><path d="m32.8646 14.75 6.3979-9.25"/><path d="m42.5 18.2188-9.046 13.9m-.8617 1.324-5.8944 9.0572"/><path d="m21.3021 42.5-5.9306-9.1128m-.8144-1.2515-9.0571-13.9169"/></g></svg>