<svg viewBox="0 0 48 48" xmlns="http://www.w3.org/2000/svg"><g fill="none" stroke="#000" stroke-linecap="round" stroke-linejoin="round"><path d="m29.4844 30.3374h14.0156v-19.5h-39v19.5h14.0156l-1.8281-8.5312h-4.875l-1.2187-4.875h10.3593l3.0469 13.4063 2.0719-9.75c.7034-3.31 2.2321-3.6562 5.2406-3.6562h6.0937l-1.5843 7.3125a2.0578 2.0578 0 0 1 -1.95 1.5843c-.6888-.0645-1.7213-.6562-1.5844-1.3406l.3656-1.8281a.7186.7186 0 0 0 -.7312-.8532.9427.9427 0 0 0 -.8531.7313z"/><path d="m4.5 30.3375v6.825h15.4781l-1.4625-6.825"/><path d="m29.4844 30.3374-1.4625 6.8251h15.4781v-6.825"/></g></svg>