<svg viewBox="0 0 48 48" xmlns="http://www.w3.org/2000/svg"><g fill="none" stroke="#000" stroke-linecap="round" stroke-linejoin="round"><path d="m8.4633 8.8839h13.2693l4.2347 18.5192 3.01-12.6444c.8119-3.9749 3.1259-5.8355 7.5259-5.8355l6.9968-.0393-2.4674 10.3616c-.27 1.0874-1.3448 1.4314-2.5032 1.4633-2.0744.057-2.56-.8353-2.3788-1.7253a25.6535 25.6535 0 0 0 .5338-2.6418.926.926 0 0 0 -.75-1.0672.9938.9938 0 0 0 -1.0628.8391c-.6509 3.8817-3.9058 19.7006-3.9058 19.7006l-10.2586.0567-4.7126-20.5266-5.9987-.009z"/><path d="m10.2642 39.1161c2.5572 0 6.5849-6.5405 5.6956-9.8593-2.9507-2.9508-8.594-2.7375-11.3315 0-.8844 3.3007 3.0001 9.8593 5.6359 9.8593z"/><path d="m6.9 25.8884c0-5.5724 6.847-5.4787 6.847 0"/><circle cx="10.2928" cy="31.9018" r="1.4896"/><path d="m10.2928 33.3913v1.7652"/></g></svg>