<svg viewBox="0 0 48 48" xmlns="http://www.w3.org/2000/svg"><g fill="none" stroke="#000" stroke-linecap="round" stroke-linejoin="round"><rect height="13.5305" rx="1.1275" width="18.0407" x="16.4389" y="23.6682"/><rect height="3.0068" rx=".7517" width="7.517" x="21.7008" y="28.9301"/><path d="m20.1974 24.0441v12.7788"/><path d="m30.7211 24.0441v12.7788"/><path d="m19.8216 28.9301h-3.0068"/><path d="m34.1038 28.9301h-3.0068"/><path d="m34.1038 31.9369h-3.0068"/><path d="m19.8216 31.9369h-3.0068"/><path d="m23.2042 24.0441v4.5102"/><path d="m23.2042 32.3127v4.5102"/><path d="m27.7144 24.0441v4.5102"/><path d="m27.7144 32.3127v4.5102"/><path d="m29.7289 4.5h-16.6726a1.5034 1.5034 0 0 0 -1.5034 1.5034v33.0746a1.5034 1.5034 0 0 0 1.5034 1.5034h24.806a1.5034 1.5034 0 0 0 1.5034-1.5034v-24.2456z"/><path d="m11.5529 7.4186h-1.4152a1.5034 1.5034 0 0 0 -1.5034 1.5034v33.0746a1.5034 1.5034 0 0 0 1.5034 1.5034h24.806a1.5034 1.5034 0 0 0 1.5034-1.5034v-1.4152"/></g></svg>