<svg viewBox="0 0 48 48" xmlns="http://www.w3.org/2000/svg"><g fill="none" stroke="#000" stroke-linecap="round" stroke-linejoin="round"><path d="m28.5 4.5h-18a2 2 0 0 0 -2 2v35a2 2 0 0 0 2 2h27a2 2 0 0 0 2-2v-26z"/><path d="m22.125 29a2.7109 2.7109 0 0 0 -2.8-2.7 2.8169 2.8169 0 0 0 -2.5 2.8v2.5a2.7 2.7 0 1 0 5.4 0h-2.7"/><path d="m16.825 15.8h5.3"/><path d="m19.525 23.8v-8"/><path d="m25.875 21.1a2.65 2.65 0 1 0 5.3 0v-2.7a2.6888 2.6888 0 0 0 -2.7-2.7 2.6057 2.6057 0 0 0 -2.6 2.7z"/><path d="m25.875 31.6a2.65 2.65 0 1 0 5.3 0v-2.7a2.6888 2.6888 0 0 0 -2.7-2.7 2.6057 2.6057 0 0 0 -2.6 2.7z"/></g></svg>