<svg viewBox="0 0 48 48" xmlns="http://www.w3.org/2000/svg"><path d="m29.3323 25.9072a2.2 2.2 0 0 0 0-3.8144l-5.3172-3.0592 5.4833-2.5569 2.3028 1.3248 7.4588 4.2913a2.2 2.2 0 0 1 0 3.8144l-7.4561 4.29-.0017.0014-2.4851 1.43-5.4833-2.5569zm-16.7445 3.3828v2.4473a2.2 2.2 0 0 0 3.2965 1.9069l.0009-.0006 2.7034-1.5553 5.4832 2.5569-5.7177 3.29-.0037.0023-7.4157 4.2666a2.2 2.2 0 0 1 -3.2976-1.9074v-13.3152zm11.6665-15.83-5.4833 2.5565-2.8856-1.66-.0017-.0009a2.2 2.2 0 0 0 -3.2958 1.9082v2.6362l-4.9508 2.3083v-13.5047a2.2 2.2 0 0 1 3.2976-1.9072l7.4186 4.2682h.0009z" fill="none" stroke="#000" stroke-linecap="round" stroke-linejoin="round"/></svg>