<svg viewBox="0 0 48 48" xmlns="http://www.w3.org/2000/svg"><g fill="none" stroke="#000" stroke-linecap="round" stroke-linejoin="round"><path d="m39.2028 39.2028a21.5 21.5 0 1 1 0-30.4056"/><path d="m21.323 20.533-2.616 6.934-2.617-6.934"/><path d="m44.0999 17v10.4673"/><path d="m32.5256 18.3738v7.7851a1.3084 1.3084 0 0 0 1.3084 1.3084h.3926"/><path d="m31.1518 20.5327h2.7477"/><path d="m41.4586 24.8505a2.6168 2.6168 0 0 1 -2.6168 2.6168 2.6168 2.6168 0 0 1 -2.6168-2.6168v-1.7005a2.6168 2.6168 0 0 1 2.6168-2.6168 2.6168 2.6168 0 0 1 2.6168 2.6168"/><path d="m41.4586 27.4673v-6.9346"/><path d="m26.4546 27.4673-2.7874-6.9346"/><path d="m28.9009 20.5327-3.3229 9.42a1.57 1.57 0 0 1 -1.4806 1.0473h-.43"/></g></svg>