<svg viewBox="0 0 48 48" xmlns="http://www.w3.org/2000/svg"><path d="m24.93 4.76a25.75 25.75 0 0 0 -5.62.46 14.43 14.43 0 0 0 -4.55 1.71c-.49.45-.51 3.29 0 5.11a9.94 9.94 0 0 0 6.76 6.84 9.77 9.77 0 0 0 10.88-4.41 10.44 10.44 0 0 0 1.3-5.47c0-1.65 0-1.79-.57-2.21a18.9 18.9 0 0 0 -5.13-1.79 16.62 16.62 0 0 0 -3.08-.28zm-4.52 19.73" fill="none" stroke="#000" stroke-linecap="round" stroke-linejoin="round"/><circle cx="24.04" cy="8.15" r=".75"/><circle cx="30.28" cy="9.65" r=".75"/><circle cx="17.8" cy="9.65" r=".75"/><circle cx="20.92" cy="8.9" r=".75"/><circle cx="27.16" cy="8.9" r=".75"/><g fill="none" stroke="#000" stroke-linecap="round" stroke-linejoin="round"><path d="m15.61 33.5c-2.55-1.63-2.55-3.16-2.55-4 0-2.16 3.29-4.45 6.32-4.45s2.27 2.49 1.93 3.41-2.9 6.73-3.24 7.65-.88 3 .72 3c3 0 6.9-1.52 7.53-8.71 0 0-5.81 8.54-.52 8.54 5.84 0 6.47-9.13 6.71-13.84"/><circle cx="24.04" cy="15.76" r="1.26"/><path d="m24.04 14.5v-3.79"/><path d="m18.26 5.5h-10.76a2 2 0 0 0 -2 2v33a2 2 0 0 0 2 2h33a2 2 0 0 0 2-2v-33a2 2 0 0 0 -2-2h-10.67"/></g></svg>