<svg viewBox="0 0 48 48" xmlns="http://www.w3.org/2000/svg"><g fill="none" stroke="#000" stroke-linecap="round" stroke-linejoin="round"><path d="m24 45.4911a21.5241 21.5241 0 0 1 -21.5-21.5c0-8.0351 5.1749-13.8349 9.0671-17.5a.7741.7741 0 0 1 .4906-.1864.6874.6874 0 0 1 .4783.2152l3.5207 3.7427a.6853.6853 0 0 1 -.0287.969c-4.8543 4.5654-7.018 8.5001-7.018 12.7584a14.99 14.99 0 1 0 29.9805 0c0-5.5888-3.7524-9.9647-6.9031-12.6536a.6836.6836 0 0 1 -.0754-.9662l3.34-3.9085a.6871.6871 0 0 1 .9649-.0768c7.591 6.48 9.1835 13.15 9.1835 17.6038a21.5247 21.5247 0 0 1 -21.5004 21.5024z"/><path d="m26.6039 2.5089a.6854.6854 0 0 1 .6852.6852v.514h.8223a.6864.6864 0 0 1 .6853.6852v11.9917a.6864.6864 0 0 1 -.6853.6852h-.2576v9.5234a.6855.6855 0 0 1 -.6853.6853h-6.3385a.687.687 0 0 1 -.6852-.68l-.0809-9.7h-.1754a.6855.6855 0 0 1 -.6853-.6852v-11.6491a.6855.6855 0 0 1 .6853-.6852h.77v-.6853a.6855.6855 0 0 1 .6852-.6852z"/><path d="m19.2033 9.7514h9.5934"/></g></svg>