<svg viewBox="0 0 48 48" xmlns="http://www.w3.org/2000/svg"><g fill="none" stroke="#000" stroke-linecap="round" stroke-linejoin="round"><path d="m23.3955 13.428a11.1793 11.1793 0 0 1 9.4893 17.0858"/><path d="m23.3945 13.429h-13.53a4.3564 4.3564 0 0 0 -4.3645 4.3672v20.342a4.3542 4.3542 0 0 0 4.3645 4.3645h20.342a4.3565 4.3565 0 0 0 4.3672-4.3645"/><path d="m22.0055 13.429v-3.2352h4.2621v3.61"/><path d="m29.8785 15.502 2.8615-2.862 2.5949 2.6207-2.8616 2.8616"/><path d="m34.5725 25.969h3.2352v-4.2621h-3.61"/><path d="m32.4985 18.097 2.8615-2.8616-2.6207-2.5949-2.8616 2.8616"/><path d="m24.6055 34.572a11.1793 11.1793 0 0 1 -9.4893-17.0858"/><path d="m24.6055 34.571h13.53a4.3564 4.3564 0 0 0 4.3645-4.3672v-20.342a4.3542 4.3542 0 0 0 -4.3645-4.3645h-20.342a4.3565 4.3565 0 0 0 -4.3672 4.3645"/><path d="m25.9945 34.571v3.2352h-4.2621v-3.61"/><path d="m18.1225 32.498-2.8616 2.862-2.5949-2.6211 2.8616-2.8616"/><path d="m13.4285 22.031h-3.2352v4.2621h3.61"/><path d="m15.5015 29.903-2.8615 2.8616 2.6206 2.5954 2.8616-2.8616"/><circle cx="24.0005" cy="24" r="4.1397"/></g></svg>