<svg viewBox="0 0 48 48" xmlns="http://www.w3.org/2000/svg"><g fill="none" stroke="#000" stroke-linecap="round" stroke-linejoin="round"><path d="m28.65 21.33 4.93 7.74 1.42-2.07a.86.86 0 0 1 .1-.16 1.79 1.79 0 0 1 .51-.48h.05l.1-.06h.06.1.09.09.08.07.12.43.15l.18.05h.16a0 0 0 0 0 0 0l.15.07a2 2 0 0 1 .55.46l.09.13v.06s0 0 0 0l5.1 7.54a1.84 1.84 0 0 1 -1.61 2.73h-35.25a1.84 1.84 0 0 1 -1.84-1.84 1.81 1.81 0 0 1 .23-.88l14.58-22.95c0-.06.07-.11.1-.16a1.8 1.8 0 0 1 .54-.49l.15-.08s0 0 0 0l.14-.06h.13.07.1.57.11.15.14l.14.07a1.92 1.92 0 0 1 .66.61.35.35 0 0 0 0 .08l1.71 2.68"/><path d="m24.22 14.38 4.43 6.95"/><path d="m28.64 21.18a5.36 5.36 0 1 0 -3.59-5.49"/></g></svg>