<svg viewBox="0 0 48 48" xmlns="http://www.w3.org/2000/svg"><g fill="none" stroke="#000" stroke-linecap="round" stroke-linejoin="round"><path d="m42 29.4v9.6a1.9956 1.9956 0 0 1 -2 2h-34a1.9956 1.9956 0 0 1 -2-2v-27a1.9956 1.9956 0 0 1 2-2h34a1.9956 1.9956 0 0 1 2 2v10"/><path d="m6 10a3.375 3.375 0 0 1 3-3h28a3.375 3.375 0 0 1 3 3"/><path d="m44.5 22v7.4h-7.5a3.9988 3.9988 0 0 1 -4.0541-3.7 4.0163 4.0163 0 0 1 4.0541-3.7z"/><path d="m17 26 6 9 6-9-6-10.263z"/><path d="m17 26 6 4 6-4"/></g></svg>