<svg viewBox="0 0 48 48" xmlns="http://www.w3.org/2000/svg"><g fill="none" stroke="#000" stroke-linecap="round" stroke-linejoin="round"><path d="m24 43.5c1.6926 0 15.2735-7.782 15.2735-16.9661v-20.0308c-4.0062 0-15.2735-2.0031-15.2735-2.0031s-11.2773 2.0031-15.2735 2.0031v20.0308c0 9.1841 13.5809 16.9661 15.2735 16.9661z"/><path d="m14.2912 24.3077s6.9334 8.1779 8.7112 4.9779"/><path d="m17.58 17.8188 6.3112-.9778 11.8223 8.2667-7.7335.6223-1.0667 4.7111c-7.5063-5.0945-9.9871-7.0086-9.3333-12.6223z"/><path d="m17.58 17.8188 10.4 7.9112"/><path d="m29.635 27.402 5.151-.327-.727 3.205-5.152.327z"/><path d="m13.6156 26.4543a2.1532 2.1532 0 1 1 2.0014-3.7924"/><path d="m30.267 18.3863a1.4218 1.4218 0 0 1 1.1584.8157"/><path d="m29.8208 15.903a3.7239 3.7239 0 0 1 4.1411 2.9163"/><path d="m29.3932 13.7506a5.8148 5.8148 0 0 1 6.774 4.77"/></g></svg>