<svg viewBox="0 0 48 48" xmlns="http://www.w3.org/2000/svg"><g fill="none" stroke="#000" stroke-linecap="round" stroke-linejoin="round"><path d="m21.55 26.33h5.29l-2.64-4.66z"/><path d="m39.11 10.1-12.79-5.18a5.59 5.59 0 0 0 -4.25 0l-13.13 5.18a2 2 0 0 0 -1.32 1.9v12.47c0 11.16 11.64 19 16.57 19s16.19-7.87 16.19-19v-12.47a2 2 0 0 0 -1.27-1.9zm-7.18 19a2.07 2.07 0 0 1 -1.78 1h-11.91a2 2 0 0 1 -2-2.06 2.11 2.11 0 0 1 .26-1l5.9-10.46a2.07 2.07 0 0 1 2.82-.77 2.11 2.11 0 0 1 .77.77l6 10.51a2.06 2.06 0 0 1 -.06 2.05z"/></g></svg>