<svg viewBox="0 0 48 48" xmlns="http://www.w3.org/2000/svg"><g fill="none" stroke="#000" stroke-linecap="round" stroke-linejoin="round"><path d="m8.7578 22.0523c1.0871-2.3554 11.4147-15.2195 14.676-15.2195s14.223 10.101 15.6725 11.9581"/><path d="m28.7787 20.15c1.8119 2.2648 5.6168 9.7387 11.1882 2.1742"/><path d="m32.1307 36.9547c.9059-5.1638 1.6306-7.61 3.4878-7.61s4.1219 2.899 5.8885 5.9338"/><path d="m29.4129 33.6028c.2718-3.08-1.5552-8.3345-4.2427-8.3345s-3.3671 7.2021-4.0012 9.784"/><path d="m16.9111 15.9373c1.6307 1.6306 5.1638 5.3449 7.021 4.53s4.3484-4.9373 4.8466-6.5226"/><path d="m8.3049 25.8571c1.223 1.223 3.3519 3.76 4.9373 3.7143s6.5226-5.4808 6.5226-5.4808"/><path d="m6.7648 37.4983c1.2683-2.1743 3.8049-4.9826 5.4808-4.7561s3.76 6.3867 4.122 8.425"/><path d="m4.5 41.1672c4.3937-1.1324 26.5436-4.53 39-.4529"/><path d="m13.2422 29.5714a27.7331 27.7331 0 0 1 -.9966 3.1708"/><path d="m23.9321 20.4669c.317 1.223 1.0418 4.8014 1.0418 4.8014"/><path d="m35.392 25.63a32.9418 32.9418 0 0 1 0 3.7322"/><circle cx="23.3432" cy="16.5714" r="1.6307"/><circle cx="13.2422" cy="25.8571" r="1.5174"/><circle cx="35.392" cy="22.324" r="1.4268"/></g></svg>