<svg viewBox="0 0 48 48" xmlns="http://www.w3.org/2000/svg"><g fill="none" stroke="#000" stroke-linecap="round"><circle cx="24" cy="24" r="18.5" stroke-linejoin="round"/><circle cx="24.0192" cy="24.0122" r="4.5" stroke-linejoin="round"/><path d="m24 5.5c.5206-.2349.9733-1.0127 1.29-1.4891a3.0983 3.0983 0 0 0 .51-1.5109"/><path d="m42.5 24c.2349.5206 1.0127.9733 1.4891 1.29a3.0983 3.0983 0 0 0 1.5109.51"/><path d="m24 42.5c-.5206.2349-.9733 1.0127-1.29 1.4891a3.0983 3.0983 0 0 0 -.51 1.5109"/><path d="m5.5 24c-.2349-.5206-1.0127-.9733-1.4891-1.29a3.0983 3.0983 0 0 0 -1.5109-.51"/><path d="m14.75 7.9785a4.2052 4.2052 0 0 0 .373-1.9347 3.0982 3.0982 0 0 0 -.3142-1.5633"/><path d="m40.0215 14.75a4.2052 4.2052 0 0 0 1.9347.373 3.0982 3.0982 0 0 0 1.5633-.3142"/><path d="m33.25 40.0215a4.2052 4.2052 0 0 0 -.373 1.9347 3.0982 3.0982 0 0 0 .3142 1.5633"/><path d="m7.9785 33.25a4.2052 4.2052 0 0 0 -1.9347-.373 3.0982 3.0982 0 0 0 -1.5633.3142"/><path d="m7.9785 14.75a4.2042 4.2042 0 0 0 -.6444-1.862 3.0975 3.0975 0 0 0 -1.0536-1.1968"/><path d="m33.25 7.9785a4.2042 4.2042 0 0 0 1.862-.6444 3.0975 3.0975 0 0 0 1.1968-1.0536"/><path d="m40.0215 33.25a4.2042 4.2042 0 0 0 .6444 1.862 3.0975 3.0975 0 0 0 1.0541 1.1968"/><path d="m14.75 40.0215a4.2042 4.2042 0 0 0 -1.862.6444 3.0975 3.0975 0 0 0 -1.1968 1.0541"/><path d="m24 19.5061v-14"/><path d="m28.5096 24h14"/><path d="m24.0192 28.5122v14"/><path d="m19.5096 24h-14"/></g></svg>