<svg viewBox="0 0 48 48" xmlns="http://www.w3.org/2000/svg"><g fill="none" stroke="#000" stroke-linecap="round" stroke-linejoin="round"><path d="m15.4 12.9-1.76-2.65"/><circle cx="12.26" cy="8.07" r="2.57"/><circle cx="16.3" cy="21.43" r="3.81"/><path d="m34.31 12.9 1.75-2.65"/><circle cx="37.44" cy="8.07" r="2.57"/><circle cx="33.41" cy="21.43" r="3.81"/><path d="m24.85 10.65c-10 0-18.17 6.88-18.17 15.36a14.21 14.21 0 0 0 5.24 10.79 10.31 10.31 0 0 1 -1.56 3.3 11.42 11.42 0 0 1 -2.93 2.4 15.44 15.44 0 0 0 9.24-2.79 20.81 20.81 0 0 0 8.18 1.66c10.04 0 18.15-6.88 18.15-15.37s-8.11-15.35-18.15-15.35z"/></g></svg>