<svg viewBox="0 0 48 48" xmlns="http://www.w3.org/2000/svg"><g fill="none" stroke="#000" stroke-linecap="round" stroke-linejoin="round"><circle cx="24" cy="24" r="21.5"/><path d="m2.56 22.4c5.31 0 5.33 3.2 10.69 3.2s5.37-3.2 10.75-3.2 5.38 3.2 10.76 3.2 5.37-3.18 10.69-3.2"/><path d="m5.17 13.61c2.92.82 3.78 2.87 8.08 2.87 5.37 0 5.37-3.2 10.74-3.2s5.38 3.2 10.76 3.2c4.3 0 5.16-2.05 8.08-2.87"/><path d="m3.88 31.6c4 .5 4.5 3.12 9.37 3.12 5.37 0 5.37-3.2 10.74-3.2s5.38 3.2 10.76 3.2c4.87 0 5.33-2.63 9.37-3.12"/></g></svg>