<svg viewBox="0 0 48 48" xmlns="http://www.w3.org/2000/svg"><g fill="none" stroke="#000" stroke-linecap="round" stroke-linejoin="round"><path d="m30.47 39.38a17.4 17.4 0 1 0 -22-16.78 17.16 17.16 0 0 0 1.34 6.7c.08.21.19.41.29.62 1 2.41-.29 3.47-.29 3.47l-7.04 6.61h8.23m7.14 0h5.55m4.31-21.56a3 3 0 0 1 3-3 3 3 0 0 1 3 3 3 3 0 0 1 -3 3 3 3 0 0 1 -3-3zm-10.26 0a3 3 0 0 1 3-3 3 3 0 0 1 3 3 3 3 0 0 1 -3 3 3 3 0 0 1 -3-3zm-.25 5.76a8.79 8.79 0 0 0 16.61 0"/><circle cx="14.52" cy="41.43" r="3.85"/><circle cx="27.21" cy="41.43" r="3.85"/></g></svg>