<svg viewBox="0 0 48 48" xmlns="http://www.w3.org/2000/svg"><g fill="none" stroke="#000" stroke-linecap="round" stroke-linejoin="round"><rect height="37" rx="2" width="37" x="5.5" y="5.5"/><path d="m25.915 14.734-2.391 9.566-2.391-9.566-2.392 9.566-2.391-9.566"/><path d="m31.3364 23.0928a2.3905 2.3905 0 0 1 -2.0778 1.2072 2.3914 2.3914 0 0 1 -2.3914-2.3914v-1.5547a2.3914 2.3914 0 0 1 2.3914-2.3914 2.3913 2.3913 0 0 1 2.3914 2.3914v.7771h-4.7828"/><path d="m15.9869 23.7004v9.5654"/><path d="m15.9869 29.32a2.3914 2.3914 0 0 1 2.3914-2.3914 2.3914 2.3914 0 0 1 2.3917 2.3914v3.9457"/><path d="m30.0242 29.32a2.3914 2.3914 0 0 1 2.3913-2.3914"/><path d="m30.0242 26.9287v6.3371"/><path d="m9.6506 32.7312a2.69 2.69 0 0 0 1.9668.5346h.5365a1.5826 1.5826 0 0 0 1.5808-1.5842 1.5826 1.5826 0 0 0 -1.5808-1.5843h-1.073a1.5826 1.5826 0 0 1 -1.5809-1.5843 1.5826 1.5826 0 0 1 1.5809-1.5843h.5365a2.6894 2.6894 0 0 1 1.9667.5347"/><path d="m38.1865 32.0591a2.39 2.39 0 0 1 -2.0779 1.2067 2.3913 2.3913 0 0 1 -2.3913-2.3913v-1.5545a2.3914 2.3914 0 0 1 2.3913-2.3914 2.3914 2.3914 0 0 1 2.3914 2.3914v.7772h-4.7827"/><path d="m27.6664 30.8745a2.3914 2.3914 0 0 1 -2.3914 2.3913 2.3913 2.3913 0 0 1 -2.3913-2.3913v-1.5545a2.3914 2.3914 0 0 1 2.3913-2.3914 2.3914 2.3914 0 0 1 2.3914 2.3914"/><path d="m27.6664 33.2658v-6.3371"/></g></svg>