<svg viewBox="0 0 48 48" xmlns="http://www.w3.org/2000/svg"><path d="m19.5 40.43a4.34 4.34 0 0 1 -1.71.36 4.19 4.19 0 0 1 -3.79-2.49l-9.79-21.9a4.19 4.19 0 1 1 7.66-3.4l9.75 21.9a4.19 4.19 0 0 1 -2.12 5.53zm11.65 0a4.34 4.34 0 0 1 -1.71.36 4.19 4.19 0 0 1 -3.83-2.49l-9.75-21.9a4.19 4.19 0 1 1 7.66-3.4l9.75 21.9a4.19 4.19 0 0 1 -2.12 5.53zm4.3-13.2a4.19 4.19 0 1 1 4.19-4.23 4.18 4.18 0 0 1 -4.19 4.23zm3.7-8.84a3.7 3.7 0 1 1 3.7-3.7 3.7 3.7 0 0 1 -3.7 3.7z" fill="none" stroke="#000" stroke-linecap="round" stroke-linejoin="round"/></svg>