<svg viewBox="0 0 48 48" xmlns="http://www.w3.org/2000/svg"><g fill="none" stroke="#000" stroke-linecap="round" stroke-linejoin="round"><path d="m22.51 15.44a6.94 6.94 0 0 0 -12.42 4 6.23 6.23 0 0 0 -1.71 11.56"/><path d="m17.57 31.8h10.74a4.87 4.87 0 0 0 4.87-4.87 4.79 4.79 0 0 0 -.58-2.3"/><circle cx="30.18" cy="17.11" r="6.02"/><path d="m30.18 4.5v5.1"/><path d="m39.1 8.19-3.61 3.61"/><path d="m42.79 17.11h-5.09"/><path d="m39.1 26.03-3.61-3.6"/><path d="m21.26 8.19 3.61 3.61"/><path d="m16.12 33.31-1.81-5.53-4.24 4a3.83 3.83 0 0 0 1.2 6.39l.36.11.38.08a3.83 3.83 0 0 0 4.11-5.05z"/><path d="m21.62 39.42-1.89-3.81-2.65 3.39a2.8 2.8 0 0 0 1.55 4.49h.27.28a2.8 2.8 0 0 0 2.44-4.07z"/></g></svg>