<svg viewBox="0 0 48 48" xmlns="http://www.w3.org/2000/svg"><g fill="none" stroke="#000" stroke-linecap="round" stroke-linejoin="round"><path d="m40.61 26.64a12.31 12.31 0 0 0 -4.32-9.37 7.68 7.68 0 0 0 -9.91-7.38 10.86 10.86 0 0 0 -17.24 12.16 12.41 12.41 0 0 0 10.68 18.77h19.45l-6.37-2.75a12.34 12.34 0 0 0 7.71-11.43z"/><path d="m36.47 22.79-1.65 5.3-1.65-5.3-1.65 5.3-1.65-5.3"/><path d="m18.13 22.79-1.65 5.3-1.65-5.3-1.65 5.3-1.65-5.3"/></g><circle cx="26.38" cy="18.12" r=".75"/><circle cx="21.62" cy="18.12" r=".75"/><circle cx="24" cy="24.09" fill="none" r="4" stroke="#000" stroke-linecap="round" stroke-linejoin="round"/></svg>