<svg viewBox="0 0 48 48" xmlns="http://www.w3.org/2000/svg"><g fill="none" stroke="#000" stroke-linecap="round" stroke-linejoin="round"><path d="m42.8534 13.6572a21.479 21.479 0 1 1 -9.8711-9.1967"/><path d="m35.8565 27.8262s3.04-8.3663-2.6217-12.7406c-2.8855-2.2295-3.581-5.7269-2.1277-8.244a6.762 6.762 0 0 1 9.2371-2.4751c3.2342 1.8673 3.6384 5.9461 2.4751 9.2371-4.643 9.7789-11.4388 25.9048-17.9024 24.8458-3.7892-.6208-.5925-14.1586-.5925-14.1586-4.6984 13.8815-12.4021 17.4962-14.6136 15.7737s-1.6051-7.0307 1.1389-12.22a30.6713 30.6713 0 0 0 3.0179-11.3928"/></g></svg>