<svg viewBox="0 0 48 48" xmlns="http://www.w3.org/2000/svg"><g fill="none" stroke="#000" stroke-linecap="round" stroke-linejoin="round"><path d="m43.5 20.816-20.005-11.55-18.995 10.967 20.005 11.55z"/><path d="m42.332 21.49-.001 6.929-17.859 10.315-18.804-10.856.001-6.97"/><path d="m40.501 22.547-17.006-9.818-15.996 9.236"/><path d="m24.4717 38.7339v-6.9511"/><ellipse cx="23.4862" cy="18.6237" rx="3.9768" ry="2.0714"/><path d="m19.5094 18.6237 1.0326 6.2544c0 .8467 1.3182 1.5334 2.9442 1.5334s2.9441-.6867 2.9441-1.5334l1.0327-6.2544"/><path d="m27.2691 19.7984a2.7422 2.7422 0 0 1 1.2215 2.1491c0 1.6584-1.0949 2.4728-2.9705 2.4728a4.2853 4.2853 0 0 1 -3.7137-2.1837"/></g></svg>