<svg viewBox="0 0 48 48" xmlns="http://www.w3.org/2000/svg"><g fill="none" stroke="#000" stroke-linecap="round" stroke-linejoin="round"><path d="m9 25.44a.9.9 0 0 0 -.9.91v16.25a.9.9 0 0 0 .9.9h12.65a.9.9 0 0 0 .91-.9v-16.25a.91.91 0 0 0 -.91-.91z"/><path d="m9 4.5a.9.9 0 0 0 -.9.9v16.25a.9.9 0 0 0 .9.91h12.65a.91.91 0 0 0 .91-.91v-16.25a.9.9 0 0 0 -.91-.9h-1.09v6l-2-2-2 2v-6z"/><path d="m26.35 25.44a.91.91 0 0 0 -.91.91v16.25a.9.9 0 0 0 .91.9h12.65a.9.9 0 0 0 .9-.9v-16.25a.9.9 0 0 0 -.9-.91h-1.1v6l-2-2-2 2v-6z"/><path d="m26.35 4.5a.9.9 0 0 0 -.91.9v16.25a.91.91 0 0 0 .91.91h12.65a.9.9 0 0 0 .9-.91v-16.25a.9.9 0 0 0 -.9-.9h-1.1v5.33h-4v-5.33z"/><path d="m11.35 14.66h7.97"/><path d="m19.32 18.11h-7.97"/><path d="m28.68 14.66h7.97"/><path d="m36.65 18.11h-7.97"/><path d="m36.65 34.47h-7.97"/><path d="m19.32 34.47h-7.97"/><path d="m19.32 31.02h-7.97"/><path d="m19.32 37.92h-7.97"/></g></svg>