<svg viewBox="0 0 48 48" xmlns="http://www.w3.org/2000/svg"><g fill="none" stroke="#000" stroke-linecap="round" stroke-linejoin="round"><path d="m11.361 38.149 13.418-1.658v5.21l15.708-7.282 2.013-13.083h-4.795l1.184-15.037-30.311 4.677 2.605 9.768h-5.683z"/><path d="m11.5203 25.0674h4.9241"/><path d="m13.9824 32.5v-7.4326"/><path d="m31.556 32.5v-7.433l4.924 7.433v-7.433"/><path d="m17.6035 30.038a2.4621 2.4621 0 0 0 4.9241 0v-2.508a2.4621 2.4621 0 1 0 -4.9241 0z"/><path d="m24.58 30.038a2.462 2.462 0 0 0 4.924 0v-2.508a2.462 2.462 0 1 0 -4.924 0z"/><path d="m23.4212 22.9326h3.7163"/><path d="m23.4212 15.5h3.7163"/><path d="m23.4212 19.2163h2.423"/><path d="m23.4212 15.5v7.4326"/><path d="m21.446 15.5-1.858 7.433-1.859-7.433-1.858 7.433-1.858-7.433"/><g stroke-width=".8662"><path d="m32.1288 19.2163a1.8582 1.8582 0 0 1 0 3.7163h-3.066v-7.4326h3.066a1.8582 1.8582 0 0 1 0 3.7163z"/><path d="m32.1288 19.2163h-3.066"/></g></g></svg>