<svg viewBox="0 0 48 48" xmlns="http://www.w3.org/2000/svg"><path d="m19.31 15.12a1.35 1.35 0 1 1 1.61-1 1.35 1.35 0 0 1 -1.61 1m-4.54 0a1.35 1.35 0 1 1 1.61-1 1.35 1.35 0 0 1 -1.61 1m-4.69 0a1.35 1.35 0 1 1 1.61-1 1.35 1.35 0 0 1 -1.61 1m21.62 4.5v-3.23a.36.36 0 0 1 .57-.33l4.21 3c.23.21.35.45.06.7l-4.27 3.4a.37.37 0 0 1 -.57-.34zm-.19 8.66a9 9 0 1 1 .05 0m13.94-4.28a21.5 21.5 0 1 1 -21.5-21.5 21.51 21.51 0 0 1 21.5 21.5zm-30.66 19.45c0-.21 0-.41 0-.62a9.85 9.85 0 0 0 -9.84-9.83h-.15-.38m16.81 12.33a14.61 14.61 0 0 0 .16-2.33 16.63 16.63 0 0 0 -16.63-16.59h-.12a15.42 15.42 0 0 0 -2 .14m4.44-6.93h17.48m3.59 25.47a21.37 21.37 0 0 0 .11-2.26 23.3 23.3 0 0 0 -23.31-23.3h-.06c-.66 0-1.33 0-2 .09m39.4 0h2.46" fill="none" stroke="#000" stroke-linecap="round" stroke-linejoin="round"/></svg>