<svg viewBox="0 0 48 48" xmlns="http://www.w3.org/2000/svg"><g fill="none" stroke="#000" stroke-linecap="round" stroke-linejoin="round"><path d="m43.4572 14.8979a21.5934 21.5934 0 0 0 1.831-12.1862 21.594 21.594 0 0 0 -12.1861 1.831 21.3 21.3 0 0 0 -18.2041 0 21.5946 21.5946 0 0 0 -12.1862-1.831 21.5934 21.5934 0 0 0 1.831 12.1862 21.4918 21.4918 0 1 0 40.9572 9.1021 21.3785 21.3785 0 0 0 -2.0428-9.1021z"/><path d="m14 30.1454a3.3551 3.3551 0 1 1 6.71 0z"/><path d="m27.29 30.1454a3.3551 3.3551 0 0 1 6.71 0z"/></g></svg>