<svg viewBox="0 0 48 48" xmlns="http://www.w3.org/2000/svg"><g fill="none" stroke="#000" stroke-linecap="round" stroke-linejoin="round"><path d="m17.237 20.492-2.25 7.016-2.118-7.016-2.251 7.016-2.118-7.016"/><path d="m39.5 20.4919-5.2951 7.016"/><path d="m39.5 27.5079-5.2951-7.016"/><path d="m24.0055 26.1844a2.5623 2.5623 0 0 1 -2.25 1.3237 2.6553 2.6553 0 0 1 -2.6476-2.6475v-1.7206a2.6476 2.6476 0 1 1 5.2952 0v.9266h-5.2956"/><path d="m27.3273 26.1844a2.5624 2.5624 0 0 0 2.25 1.3237 2.6553 2.6553 0 0 0 2.6476-2.6475v-1.7206a2.6476 2.6476 0 1 0 -5.2951 0v.9266h5.2951"/><path d="m40.5 42.5h-33a2.0059 2.0059 0 0 1 -2-2v-33a2.0059 2.0059 0 0 1 2-2h33a2.0059 2.0059 0 0 1 2 2v33a2.0059 2.0059 0 0 1 -2 2z"/></g></svg>