<svg viewBox="0 0 48 48" xmlns="http://www.w3.org/2000/svg"><g fill="none" stroke="#000" stroke-linecap="round" stroke-linejoin="round"><path d="m19.237 17.7331-3.1474 3.3145"/><path d="m18.1786 36.0882v-.78h.947l3.4537-3.6766c2.0333 0 3.0917-2.98 3.0917-3.8158a2.1488 2.1488 0 0 1 2.0055-2.2283c2.0332 0 1.5319 2.59 3.2866 2.59 1.5319 0 2.8967-.9749 5.5985-.9749s2.1725 2.284 2.1725 3.12c0 2.5347 2.3675 6.2391 2.3675 6.2391h.5849"/><path d="m38.7341 30.3226c0 .642-2.5182.8337-4.0665 0-1.4484-.78-1.7826-2.1446-3.7045-2.1446-1.1161 0-1.3369 3.4537-8.3838 3.4537"/><path d="m31.3252 30.6847s-1.81.7521-2.5625 1.17c.7242.8077 2.34 3.0359 2.34 3.0359l-.2789 1.3094"/><path d="m43.1588 33.3531.8952-.649-.3481-3.3424s-1.1281.4735-1.6991.752-1.5319.2507-1.5319-1.0166c0-.6963 1.88-1.3926 3.231.2646"/><path d="m34.3333 20.0449c-1.81.557-3.0081.1949-4.8464-.39s-9.08-4.6793-10.9463-4.6793"/><path d="m43.4134 24.752 1.0866-.4735c.0278-1.1141-1.8662-2.7017-1.8662-2.7017s-2.7017 3.5652-2.73 5.1249a15.5478 15.5478 0 0 0 -1.7268-1.7268c2.1168-3.12 4.4564-3.3981 4.4564-3.3981"/><circle cx="9.7948" cy="31.3254" r="5.5985"/><circle cx="9.7948" cy="31.3254" r="1.4205"/><path d="m9.7948 29.9048v-2.0541"/><path d="m10.7992 30.3209 1.4526-1.4525"/><path d="m11.2153 31.3254h2.0542"/><path d="m10.7992 32.3298 1.4526 1.4525"/><path d="m9.7948 32.7459v2.0541"/><path d="m8.7903 32.3298-1.4525 1.4525"/><path d="m8.3743 31.3254h-2.0542"/><path d="m17.12 24.9749a3.4761 3.4761 0 0 0 3.5652 2.3118c1.894 0 2.8968-2.6739 5.1528-2.6739a3.1839 3.1839 0 0 0 -2.5346-.9192c-.9748 0-2.3675 1.894-3.9551 1.894a3.3147 3.3147 0 0 1 -2.2283-.6127z"/><path d="m27.8157 24.1393c1.5041-.4457 3.9552.6127 5.2085.6127 3.231 0 6.1834-5.0971 9.108-5.0971a3.8419 3.8419 0 0 1 1.6609.4664l-.2126-1.33"/><path d="m42.5014 19.6838s-.0071-1.4215-1.1629-1.4215-2.1309 1.3926-4.1642.5292a2.551 2.551 0 0 0 .78 1.2534s-2.2843 2.0611-3.621 2.0611a3.7611 3.7611 0 0 1 -1.5876-.1671 3.4069 3.4069 0 0 0 3.4733 1.4563"/><path d="m9.6 20.8489h9.2751s-2.5451 3.179-4.0666 3.179h-5.2085v-9.3308a9.5506 9.5506 0 0 0 -3.4816-.9192"/><path d="m5.2547 15.8948a11.7734 11.7734 0 0 1 4.3453 1.0862"/><path d="m13.6107 12.3017h3.2309"/><path d="m15.9782 12.3017v-1.2255h-1.6712v1.2255c0 .5391.2313 1.2233.9191 1.2233s.7521-.74.7521-1.2233z"/><path d="m18.4362 14.4185-.9818 1.2952s-1.7826.3551-2.2283-.1462a8.7827 8.7827 0 0 1 -.9191-1.4"/><path d="m14.6134 13.3741s-2.7575 1.7547-2.7575 3.4886c0 0 4.2337-.23 4.1223 1.17a2.3965 2.3965 0 0 1 -1.0724 1.9218 4.3261 4.3261 0 0 1 -1.128-1.1628c-1.0445-.0488-2.3815.2646-2.3815-.947a1.0471 1.0471 0 0 1 .46-.9818"/><path d="m3.5 25.7269a9.9891 9.9891 0 0 0 3.9273-2.2913v-4.1288a1.3047 1.3047 0 0 0 -1.4414-.5153v1.8522a3.6239 3.6239 0 0 0 1.4414.4039"/></g></svg>