<svg viewBox="0 0 48 48" xmlns="http://www.w3.org/2000/svg"><g fill="none" stroke="#000" stroke-linecap="round" stroke-linejoin="round"><path d="m40.5 5.5h-33a2 2 0 0 0 -2 2v33a2 2 0 0 0 2 2h33a2 2 0 0 0 2-2v-33a2 2 0 0 0 -2-2z"/><path d="m5.5 36.526h15.5c1.7029 0 2.3445 1.4975 3 2.55.6449-1.0244 1.3027-2.55 3-2.55h15.5"/><path d="m39.654 28.3239c0 2.6134-3.0238 5.0115-6.4091 5.0115a5.0935 5.0935 0 0 1 -2.3859-.3718l-1.7487.8227.1638-1.7436c-1.45-.7249-1.9192-2.7859-1.8793-3.7187.1118-2.611 2.7444-4.7319 6.13-4.7319s6.13 2.1186 6.13 4.7319z"/></g><circle cx="32.3034" cy="27.575" r=".75"/><circle cx="35.5207" cy="27.575" r=".75"/></svg>