<svg viewBox="0 0 48 48" xmlns="http://www.w3.org/2000/svg"><g fill="none" stroke="#000" stroke-linecap="round" stroke-linejoin="round"><path d="m23.9979 2.5a21.5107 21.5107 0 0 0 -18.8459 31.85l-2.6477 11.1372 11.1376-2.6472a21.498 21.498 0 1 0 10.356-40.34z"/><path d="m9.522 20.2282 5.4012 13.061a26.3206 26.3206 0 0 1 11.275-2.6392 23.94 23.94 0 0 1 10.938 2.6393v-13.0611a12.87 12.87 0 0 0 -4.456-1.76l-2.7682-6.97a25.3769 25.3769 0 0 0 -11.005 2.1655c-7.8318 3.4513-9.3846 6.5641-9.3846 6.5641z"/></g></svg>