<svg viewBox="0 0 48 48" xmlns="http://www.w3.org/2000/svg"><g fill="none" stroke="#000" stroke-linecap="round" stroke-linejoin="round"><path d="m15.6552 41.1378c-.01-2.2274 1.1346-7.16-.7017-6.7511l-7.1585 1.6373s2.6355-3.1591 2.33-3.9059-5.625-6.6491-5.625-6.6491 2.916.8111 2.7887-6.4373"/><path d="m7.2887 19.0312 4.6532.7089 2.89-2.8461 3.282 5.165m.9059-.115 1.6007-10.8652s2.8263 2.5152 3.56 2.0789 6.4321-6.2955 6.4321-6.2955-.2025 7.2236 1.5419 6.4294 4.2771-2.0783 4.2771-2.0783l-4.2123 7.9741 5.6974-2.7283.1869 3.22 5.3964-.7491s-4.5275 4.8227-3.9716 5.3812a9.9242 9.9242 0 0 0 1.6328 1.1845s-11.7434 5.8372-12.02 7.64a8.9716 8.9716 0 0 0 -.0261 2.9674l-9.55-1.665-3.91 6.6992"/><path d="m19.5654 34.4384 12.6541-15.2506-27.7195 6.281 19.7037-1.7-4.6391 10.67"/></g></svg>