<svg viewBox="0 0 48 48" xmlns="http://www.w3.org/2000/svg"><g fill="none" stroke="#000" stroke-linecap="round" stroke-linejoin="round"><path d="m4.4259 15.0932a21.5 21.5 0 1 1 -.0007 17.812"/><path d="m28.4488 14.2308c3.4205 7.1028.6168 18.2243-2.9159 22.5421"/><path d="m37.355 14.8481c3.4206 7.1028.6168 18.2243-2.9159 22.542"/><path d="m26.1961 20.145c2.972 1.7611 11.5514 2.3177 16.486 1.4953"/><path d="m24.9622 29.404c2.9719 1.7611 11.5514 2.3178 16.4859 1.4953"/><circle cx="12.2692" cy="24" r="5.5"/><path d="m12.2692 16.3925v-2.1617"/><path d="m17.6485 18.6207 1.5286-1.5286"/><path d="m19.8767 24h2.1617"/><path d="m17.6485 29.3793 1.5286 1.5286"/><path d="m12.2692 31.6075v2.1617"/><path d="m6.8899 29.3793-1.5286 1.5286"/><path d="m4.6617 24h-2.1617"/><path d="m6.8899 18.6207-1.5286-1.5286"/></g></svg>