<svg viewBox="0 0 48 48" xmlns="http://www.w3.org/2000/svg"><path d="m24 2.5a21.52 21.52 0 0 0 -18.85 31.86l-2.65 11.14 11.14-2.65a21.5 21.5 0 1 0 10.36-40.35zm-10.75 9.77h5.86a1 1 0 0 1 1 1 10.4 10.4 0 0 0 .66 3.91 1.93 1.93 0 0 1 -.66 2.44l-2.05 2a18.6 18.6 0 0 0 3.52 4.79 18.6 18.6 0 0 0 4.77 3.59l2-2.05c1-1 1.46-1 2.44-.66a10.4 10.4 0 0 0 3.91.66 1.05 1.05 0 0 1 1 1v5.86a1.05 1.05 0 0 1 -1 1 23.68 23.68 0 0 1 -15.64-6.84 23.6 23.6 0 0 1 -6.84-15.64 1.07 1.07 0 0 1 1.03-1.06z" fill="none" stroke="#000" stroke-linecap="round" stroke-linejoin="round"/></svg>