<svg viewBox="0 0 48 48" xmlns="http://www.w3.org/2000/svg"><g fill="none" stroke="#000" stroke-linecap="round" stroke-linejoin="round"><path d="m14.3253 12.9192h19.3495v7.8541h-19.3495z"/><circle cx="18.1457" cy="28.1761" r="2.5278"/><circle cx="29.8887" cy="28.1761" r="2.5278"/><path d="m22.3487 8.3263h3.3026"/><path d="m31.1094 6.4191h-1.6852l-.3181-.8029a1.945 1.945 0 0 0 -1.8082-1.2284h-6.5957a1.945 1.945 0 0 0 -1.8082 1.2284l-.3181.8029h-1.6853a6.7632 6.7632 0 0 0 -6.7632 6.7633v16.19a5.9357 5.9357 0 0 0 5.9357 5.9357h15.8738a5.9357 5.9357 0 0 0 5.9357-5.9357v-16.19a6.7632 6.7632 0 0 0 -6.7632-6.7633z"/><path d="m18.8241 35.308-7.1771 8.0798"/><path d="m33.6747 40.4538h-19.3494"/><path d="m31.3691 37.7906h-14.7382"/><path d="m29.1759 35.308 7.1771 8.0798"/></g></svg>