<svg viewBox="0 0 48 48" xmlns="http://www.w3.org/2000/svg"><g fill="none" stroke="#000" stroke-linecap="round" stroke-linejoin="round"><rect height="27" rx="3" width="39" x="4.49" y="13.5"/><path d="m31.5 13.5v-3a3 3 0 0 0 -3-3h-9a3 3 0 0 0 -3 3v3"/><path d="m27.4593 30.4808a5.3926 5.3926 0 0 0 -6.89-.0187v.0187"/><path d="m24.0008 32.6887a2.1622 2.1622 0 1 0 2.1622 2.1623 2.1622 2.1622 0 0 0 -2.1622-2.1623z"/><path d="m30.7481 26.7426a10.6027 10.6027 0 0 0 -13.4946 0"/><path d="m33.99 22.8185a15.6756 15.6756 0 0 0 -20 0"/></g></svg>