<svg viewBox="0 0 48 48" xmlns="http://www.w3.org/2000/svg"><g fill="none" stroke="#000" stroke-linecap="round" stroke-linejoin="round"><path d="m32.64 25.14v-6.54"/><path d="m32.64 18.6h2.75a1.64 1.64 0 0 1 1.61 1.64 1.63 1.63 0 0 1 -1.64 1.64h-2.72"/><path d="m32.64 21.88h2.75a1.64 1.64 0 0 1 1.61 1.64 1.63 1.63 0 0 1 -1.64 1.64h-2.72"/><path d="m32.64 8.81 1.64 6.55"/><path d="m35.91 8.81-1.63 6.55"/><path d="m35.91 8.81 1.63 6.55"/><path d="m39.18 8.81-1.64 6.55"/><path d="m32.64 28.41 1.64 6.55"/><path d="m35.91 28.41-1.63 6.55"/><path d="m35.91 28.41 1.63 6.55"/><path d="m39.18 28.41-1.64 6.55"/><path d="m40.5 5.5h-33a2 2 0 0 0 -2 2v33a2 2 0 0 0 2 2h33a2 2 0 0 0 2-2v-33a2 2 0 0 0 -2-2z"/><path d="m8.82 38.43h30.36"/></g></svg>