<svg viewBox="0 0 48 48" xmlns="http://www.w3.org/2000/svg"><g fill="none" stroke="#000" stroke-linecap="round" stroke-linejoin="round"><ellipse cx="24" cy="28.1542" rx="3.0297" ry="3.1051"/><path d="m24 20.6088a7.5974 7.5974 0 0 0 -7.0929 5.7666 10.1114 10.1114 0 0 0 -.1065 3.0341c.488 4.0588 4.2229 7.8293 7.1994 11.0005 2.9765-3.1716 6.7114-6.9421 7.1994-11.0009a10.1114 10.1114 0 0 0 -.1065-3.0341 7.5974 7.5974 0 0 0 -7.0929-5.7662z"/><path d="m4.5 17.85a23.6634 23.6634 0 0 1 39-.0044"/><path d="m10.2356 22.9287a16.118 16.118 0 0 1 27.5288 0"/></g></svg>