<svg viewBox="0 0 48 48" xmlns="http://www.w3.org/2000/svg"><g fill="none" stroke="#000" stroke-linecap="round" stroke-linejoin="round"><path d="m28.8391 13.8182a7.5754 7.5754 0 0 0 -9.6726-.0239v.0239"/><path d="m31.3482 10.768a11.5353 11.5353 0 0 0 -14.6956 0"/><path d="m33.6754 7.9955a15.1729 15.1729 0 0 0 -19.3931.0145"/><path d="m36.5091 43.5h-25.0182a.7148.7148 0 0 1 -.7148-.7148v-25.0181a.7148.7148 0 0 1 .7148-.7148h22.6374l3.0956 3.0955v22.6374a.7148.7148 0 0 1 -.7148.7148z"/><path d="m13.9928 29.2039h20.0145v14.2961h-20.0145z"/><path d="m18.7217 17.0523h13.5813v7.8628h-13.5813z"/><path d="m26.4743 18.8092h3.1832v4.3489h-3.1832z"/><path d="m16.2772 32.8381h15.4456"/><path d="m31.7228 36.352h-15.4456"/><path d="m16.2772 39.8659h15.4456"/></g></svg>