<svg viewBox="0 0 48 48" xmlns="http://www.w3.org/2000/svg"><g fill="none" stroke="#000" stroke-linecap="round" stroke-linejoin="round"><path d="m41.68 13.015h-16.91c-2-.1-5.93-4.23-8.19-4.23h-9.9a2.18 2.18 0 0 0 -2.1806 2.1794c0 .0169 0 .0337.0006.0506v7.29h39v-3.42a1.83 1.83 0 0 0 -1.7895-1.87z"/><path d="m43.5 18.295h-39v18.72a2.18 2.18 0 0 0 2.16 2.2h.01 34.65a2.18 2.18 0 0 0 2.18-2.18v-.02z"/><path d="m26.534 30.4836a3.9387 3.9387 0 0 0 -5.0323-.0136v.0136"/><path d="m24.0079 32.0962a1.5793 1.5793 0 1 0 1.5792 1.5793 1.5793 1.5793 0 0 0 -1.5792-1.5793z"/><path d="m28.9361 27.7532a7.7443 7.7443 0 0 0 -9.8564 0"/><path d="m31.304 24.887a11.45 11.45 0 0 0 -14.608 0"/></g></svg>