<svg viewBox="0 0 48 48" xmlns="http://www.w3.org/2000/svg"><g fill="none" stroke="#000" stroke-linecap="round" stroke-linejoin="round"><path d="m24.0211 32.9211a4.2163 4.2163 0 1 0 4.2162 4.2164 4.2163 4.2163 0 0 0 -4.2162-4.2164z"/><path d="m25.2921 33.1168 8.0391-25.0143"/><path d="m30.7652 28.6157c-.0913-.0763-.1881-.1418-.2813-.2145"/><path d="m23.845 26.18a10.486 10.486 0 0 0 -6.515 2.3989v.0364"/><path d="m37.1783 21.3261a20.6539 20.6539 0 0 0 -3.6515-2.3934"/><path d="m26.8559 16.8115a20.6419 20.6419 0 0 0 -15.9921 4.5146"/><path d="m43.5 13.6741a30.5523 30.5523 0 0 0 -6.8981-4.31"/><path d="m29.9291 7.2488a30.5319 30.5319 0 0 0 -25.4291 6.4253"/></g></svg>