<svg viewBox="0 0 48 48" xmlns="http://www.w3.org/2000/svg"><g fill="none" stroke="#000" stroke-linecap="round" stroke-linejoin="round"><circle cx="24" cy="24" r="21.5"/><path d="m40.7273 10.49a21.5015 21.5015 0 0 0 -28.96 31.194"/><path d="m15.668 10.911 2.187.394-3.911 6.266v5.552l1.956 5.467 4.1 2.439 4.669 3.533 1.345-.378.799.378v2.565l-2.229 1.388-1.051 1.052.326 2.817 1.819 1.472-.337 1.644"/><path d="m41.012 37.147h-1.75l-1.136-2.122h-2.355l-.21-1.262-5.131-.883-2.733.42-.884 1.262"/><path d="m23.575 33.7345s.3577-2.579.284-2.7052a16.47 16.47 0 0 0 -2.3026-.4206l.757-2.403-2.271.889-1.514-1.4719v-2.1449l1.3037-1.7112 2.3972.41 2.3131-.41 1.3876 2.3841"/><path d="m24.4583 27.4545 3.2383 1.2961"/><path d="m29.1265 29.4312 2.1869.2523"/><path d="m24.542 23.767 3.659-2.074-.294-2.145 2.061-.715-.547-.673 1.892-.925h2.019l-2.229-.841 1.388-1.262h1.677"/><path d="m21.43 7.857.589 1.261h.925l1.598-.967 3.155.799 1.853-2.254"/><path d="m38.747 9.27-2.092 1.11.168 2.691-.715.463-3.323-3.196-1.472-2.103h-3.028"/><path d="m30.22 10.911-.294-.994-2.229-.967-.169 1.934h-.715l-2.271 1.346v.968l2.839 1.471 1.367-2.859 4.584 2.397 1.977 2.187"/><path d="m22.229 16.141 1.771.253 1.49.589v1.514l1.323.21.884-1.283"/><path d="m23.3227 18.7069.6773-2.3131"/></g></svg>