<svg viewBox="0 0 48 48" xmlns="http://www.w3.org/2000/svg"><g fill="none" stroke="#000" stroke-linecap="round" stroke-linejoin="round"><path d="m7.5 5.5a2 2 0 0 0 -2 2v33a2 2 0 0 0 2 2h33a2 2 0 0 0 2-2v-33a2 2 0 0 0 -2-2z"/><path d="m23.504 13.131-2.184 8.738-2.185-8.738-2.184 8.738-2.185-8.738"/><path d="m26.2349 13.131v8.738"/><path d="m28.965 13.131v8.738h4.369"/><path d="m35.519 13.131v8.738h4.369"/><path d="m25.8678 24.51-3.7416 6.4743"/><path d="m31.6176 24.51-5.1265 8.9188"/><path d="m22.1262 30.9847c-2 3.4641 2.33 5.964 4.33 2.5"/><path d="m42.5 24.51h-27a7.01 7.01 0 0 1 -7.01-7.01 7.01 7.01 0 0 1 7.01-7.01h27" stroke-width=".9793"/></g></svg>