<svg viewBox="0 0 48 48" xmlns="http://www.w3.org/2000/svg"><g fill="none" stroke="#000" stroke-linecap="round" stroke-linejoin="round"><ellipse cx="24" cy="15.5256" rx="19.8346" ry="6.7863" transform="matrix(.98082714 -.19487977 .19487977 .98082714 -2.5655 4.9748)"/><path d="m10.0206 22.7775a3.6656 3.6656 0 0 0 -.3585 2.09c.5146 3.7125 7.2467 5.8467 15.0367 4.767s13.6878-4.9645 13.1732-8.6773a3.8986 3.8986 0 0 0 -1.331-2.3393"/><path d="m15.836 29.4161a5.1194 5.1194 0 0 0 .0473.5886c.5146 3.7124 4.9825 6.16 9.9794 5.4679a11.83 11.83 0 0 0 3.6308-1.1048"/><path d="m17.624 33.2577a4.8519 4.8519 0 0 0 -.07 1.7121c.3977 2.8692 3.3146 4.9325 6.95 5.2031"/></g></svg>