<svg viewBox="0 0 48 48" xmlns="http://www.w3.org/2000/svg"><g fill="none" stroke="#000" stroke-linecap="round" stroke-linejoin="round"><path d="m5.5833 33.75h11.9167a0 0 0 0 1 0 0v5.4167a1.0833 1.0833 0 0 1 -1.0833 1.0833h-10.8334a1.0833 1.0833 0 0 1 -1.0833-1.0833v-4.3334a1.0833 1.0833 0 0 1 1.0833-1.0833z"/><path d="m14.25 24h11.9167a1.0833 1.0833 0 0 1 1.0833 1.0833v5.4167a0 0 0 0 1 0 0h-11.9167a1.0833 1.0833 0 0 1 -1.0833-1.0833v-5.4167a0 0 0 0 1 0 0z" transform="matrix(0 1 -1 0 48 6.5)"/><path d="m31.5833 7.75h11.9167a0 0 0 0 1 0 0v5.4167a1.0833 1.0833 0 0 1 -1.0833 1.0833h-10.8334a1.0833 1.0833 0 0 1 -1.0833-1.0833v-4.3334a1.0833 1.0833 0 0 1 1.0833-1.0833z" transform="matrix(-1 0 0 -1 74 22)"/><path d="m20.75 17.5h11.9167a1.0833 1.0833 0 0 1 1.0833 1.0833v5.4167a0 0 0 0 1 0 0h-11.9167a1.0833 1.0833 0 0 1 -1.0833-1.0833v-5.4167a0 0 0 0 1 0 0z" transform="matrix(0 -1 1 0 6.5 48)"/></g></svg>