<svg enable-background="new 0 0 48 48" viewBox="0 0 48 48" xmlns="http://www.w3.org/2000/svg"><g fill="none" stroke="#000" stroke-miterlimit="10"><path d="m28.3 5.6c-7.7 0-13.9 6.1-13.9 13.7 0 8 6.1 14.2 13.9 14.2s14.1-6.2 14.1-13.9c-.1-7.7-6.4-13.9-14.1-14z"/><path d="m5.4 39.3c.1 1.3.9 2.4 2.3 3s2.6.2 3.6-.8c.5-.5.9-1 1.3-1.6 1.9-2.5 1.6-2.7 3.8-5 2.6-2.8 2-1.9-.1-4.3-.5-.6-1-.5-1.5 0-3.1 3-4.3 3.3-7.8 5.7-1.1.7-1.6 1.7-1.6 3z"/><g stroke-linecap="round"><path d="m22.3 14.2 2.6 10.9"/><path d="m24.9 25.1 3.4-10.9"/><path d="m28.3 14.2 3.4 10.9"/><path d="m31.7 25.1 2.6-10.9"/></g></g></svg>