<svg viewBox="0 0 48 48" xmlns="http://www.w3.org/2000/svg"><g fill="none" stroke="#000" stroke-linecap="round" stroke-linejoin="round"><path d="m43.5 27.026h-39a19.5 19.5 0 0 1 39 0z"/><path d="m6.3293 18.7745h6.3944"/><path d="m37.6764 13.1299h-14.8382"/><path d="m30.2573 11.1595h5.0367"/><path d="m20.2896 30.0781h6.8872"/><path d="m23.7332 40.4739v-10.3958"/><path d="m35.613 40.474v-10.396l6.887 10.396v-10.396"/><path d="m12.3873 36.9877v.0423a3.4436 3.4436 0 0 1 -3.4437 3.4436 3.4436 3.4436 0 0 1 -3.4436-3.4436v-3.5083a3.4437 3.4437 0 0 1 3.4436-3.4436 3.4437 3.4437 0 0 1 3.4437 3.4436v.0426"/><path d="m14.1629 40.4431 3.4502-10.365"/><path d="m20.9202 40.474-3.3071-10.3959"/><path d="m19.8139 36.9964h-4.5037"/><path d="m26.3555 40.4431 3.4502-10.365"/><path d="m33.1128 40.474-3.3071-10.3959"/><path d="m32.0065 36.9964h-4.5037"/><path d="m7.3124 16.9331h2.7811"/></g></svg>