<svg viewBox="0 0 48 48" xmlns="http://www.w3.org/2000/svg"><g fill="none" stroke="#000" stroke-linecap="round" stroke-linejoin="round"><path d="m31.32 12.12a4.47 4.47 0 1 1 -4.47 4.47 4.47 4.47 0 0 1 4.47-4.47zm-11.32 8.88 7.22 7.22a.7.7 0 0 0 .99.01l.01-.01 1.38-1.38a.71.71 0 0 1 1 0l7.81 7.81a.7.7 0 0 1 -.5 1.2h-27.83a.7.7 0 0 1 -.58-1.1l9.5-13.62a.7.7 0 0 1 .9791-.1461z"/><path d="m42.52 14.5v-7a2 2 0 0 0 -2-2h-7.02"/><path d="m14.5 5.5h-7.02a2 2 0 0 0 -2 2v7"/><path d="m33.5 42.5h7.02a2 2 0 0 0 2-2v-7"/><path d="m5.48 33.5v7a2 2 0 0 0 2 2h7.02"/></g></svg>