<svg viewBox="0 0 48 48" xmlns="http://www.w3.org/2000/svg"><path d="m32.07 36.83a2.4 2.4 0 0 1 -3.19 1.17 2.36 2.36 0 0 1 -1.14-1.13l-3.74-7.87 2.7-5.56 3.21 6.81 7.43-15.66h-6l-4.64 8.82-.54 1-2.16 4.59-3.71 7.9a2.4 2.4 0 0 1 -4.33 0l-11.23-23.71a2.4 2.4 0 0 1 1.15-3.19 2.33 2.33 0 0 1 1-.22h11.2a2.36 2.36 0 0 1 2.12 1.27l3.8 7.19-2.67 5.18-4.68-8.86h-6l7.45 15.66.76-1.58 3-6.35 3.72-7 2.23-4.29a2.36 2.36 0 0 1 2.12-1.27h11.18a2.39 2.39 0 0 1 2.39 2.4 2.33 2.33 0 0 1 -.23 1z" fill="none" stroke="#000" stroke-linecap="round" stroke-linejoin="round"/></svg>