<svg viewBox="0 0 48 48" xmlns="http://www.w3.org/2000/svg"><g fill="none" stroke="#000" stroke-linecap="round" stroke-linejoin="round"><path d="m6.0526 6.4362v35.06a2 2 0 0 0 1.9954 2.0038h2.3247v-39.0664h-2.3247a2 2 0 0 0 -1.9954 2.0034z"/><path d="m14.603 4.45-4.23-.0172m0 39.066h13.134m9.6613 0h2.0186a1.9994 1.9994 0 0 0 1.9954-2.0034v-5.2824m-5.5885-31.776-9.25.0124"/><path d="m14.603 4.45v8.82l3.86-3.91 3.88 3.91v-8.82"/><path d="m27.121 44.486-2.8634-5.2884 7.0524-23.907 8.0118 2.43-7.0618 23.9536z"/><path d="m36.434 5.3107a2.0973 2.0973 0 0 0 -2.6014 1.4234l-1.3581 4.6059 8.0291 2.3708 1.358-4.6057a2.0987 2.0987 0 0 0 -1.4065-2.6068l-.0059-.0018z"/></g></svg>