<svg viewBox="0 0 48 48" xmlns="http://www.w3.org/2000/svg"><g fill="none" stroke="#000" stroke-linecap="round" stroke-linejoin="round"><path d="m21.31 33.9a2.44 2.44 0 0 1 -2.24-1.47l-2.66-6.14-2.66 6.14a2.45 2.45 0 0 1 -4.49 0l-4.91-11.32a2.45 2.45 0 0 1 4.49-1.95l2.66 6.14 2.66-6.14a2.45 2.45 0 0 1 4.49 0l2.66 6.14 2.09-4.82a4.63 4.63 0 0 1 8.88 1.84v3.68a3 3 0 0 0 1 2.21 3 3 0 0 0 2.31.76 3.14 3.14 0 0 0 2.69-3.21v-5.62a2.45 2.45 0 1 1 4.89 0v5.64a8.06 8.06 0 0 1 -7.17 8.08 7.88 7.88 0 0 1 -8.61-7.86v-2.42l-3.83 8.85a2.46 2.46 0 0 1 -2.25 1.47z"/><path d="m34.82 11.23-1.82 3.77a2.12 2.12 0 0 0 1.44 3 2 2 0 0 0 .35 0 2.19 2.19 0 0 0 .36 0 2.12 2.12 0 0 0 1.44-3z"/><path d="m27.39 23.48a2.77 2.77 0 0 0 -2.77-2.77 2.82 2.82 0 0 0 -1.52.45"/></g></svg>