<svg viewBox="0 0 48 48" xmlns="http://www.w3.org/2000/svg"><g fill="none" stroke="#000" stroke-linecap="round" stroke-linejoin="round"><path d="m40.5 5.5h-33a2 2 0 0 0 -2 2v33a2 2 0 0 0 2 2h33a2 2 0 0 0 2-2v-33a2 2 0 0 0 -2-2z"/><path d="m35.0437 28.4563h4.4563"/><path d="m35.0437 19.5437h4.4563"/><path d="m35.0437 24h2.9055"/><path d="m35.0437 19.5437v8.9126"/><path d="m17.413 19.544-2.229 8.912-2.228-8.912-2.228 8.912-2.228-8.912"/><path d="m25.263 19.544-2.953 4.456-2.952-4.456"/><path d="m22.3103 28.4563v-4.4563"/><path d="m27.203 19.544h5.904l-5.904 8.912h5.904"/></g></svg>