<svg viewBox="0 0 48 48" xmlns="http://www.w3.org/2000/svg"><g fill="none" stroke="#000" stroke-linecap="round" stroke-linejoin="round"><path d="m41.68 13.015h-16.91c-2-.1-5.93-4.23-8.19-4.23h-9.9a2.18 2.18 0 0 0 -2.1806 2.1794c0 .0169 0 .0337.0006.0506v7.29h39v-3.42a1.83 1.83 0 0 0 -1.7895-1.87z"/><path d="m43.5 18.295h-39v18.72a2.18 2.18 0 0 0 2.16 2.2h.01 34.65a2.18 2.18 0 0 0 2.18-2.18v-.02z"/><path d="m22.2617 39.2145 2.55-2.5528c.2681-.2226.5569-.4571.875-.707 2.6927-2.1157 2.273 1.138 6.8809-1.8105a6.0432 6.0432 0 0 0 2.1875-2.3359 6.24 6.24 0 0 0 .0313-5.9454l-4.5059 4.5059-2.467-.4607-.4588-2.467 4.5039-4.5039a4.6671 4.6671 0 0 0 -3.0821-.6856 7.0819 7.0819 0 0 0 -2.8691.7207 6.0522 6.0522 0 0 0 -2.33 2.1836c-2.9487 4.6079.3052 4.1881-1.8105 6.8809-.2527.3217-.4882.6123-.7129.8828l-6.2965 6.2954"/><path d="m18.5074 39.2145 4.523-4.5219"/></g></svg>