<svg viewBox="0 0 48 48" xmlns="http://www.w3.org/2000/svg"><path d="m24 4.5a13.51 13.51 0 0 0 -13.41 13.41c0 8 7.32 11.07 7.32 15.24v1.21h12.18v-1.21c0-4.15 7.32-7.2 7.32-15.24a13.51 13.51 0 0 0 -13.41-13.41zm-2.9 2.34 1.9 2.07-4.15 3.14-1.64 4.19 5.74 1.67-5.55 8.71a11.3 11.3 0 0 1 -2-1.88l-.82-6.84 2.65-1.66-3.71-2a11.44 11.44 0 0 1 7.58-7.41zm7.77 1a11 11 0 0 1 3.51 2.87c-1.81.13-3.43.13-5.24.27.59-1.08 1.16-1.98 1.73-3.12zm4.07 3.61a11.23 11.23 0 0 1 2 6.44 9.92 9.92 0 0 1 -3.68 8l-.44-5.92-3.71-1.08-1.05-4.19 6.88-3.23zm-15 22.89h12.15v4.57h-12.18zm0 4.57h12.15v4.59h-12.18z" fill="none" stroke="#000" stroke-linecap="round" stroke-linejoin="round"/></svg>