<svg viewBox="0 0 48 48" xmlns="http://www.w3.org/2000/svg"><path d="m21.8572 45.4116a21.4447 21.4447 0 0 1 -9.5412-3.3844c-2.4127-1.5741-2.9575-2.2212-2.9575-3.5126 0-2.5939 2.8521-7.1372 7.7318-12.3164 2.7714-2.9415 6.6317-6.3894 7.0492-6.296.8115.1815 7.3 6.5106 9.729 9.49 3.8411 4.7114 5.6069 8.569 4.71 10.2888-.6819 1.3073-4.9134 3.8625-8.0221 4.8442a23.58 23.58 0 0 1 -8.699.8865zm-15.7572-9.5939a22.2968 22.2968 0 0 1 -3.5069-10.4833 16.7961 16.7961 0 0 1 .3669-5.2415 21.4647 21.4647 0 0 1 5.2243-10.6129c1.0781-1.1218 1.1744-1.1491 2.4887-.7064 1.5959.5377 3.3 1.7148 5.9436 4.1049l1.5422 1.3945-.8422 1.0346c-3.9093 4.8024-8.0366 11.61-9.5915 15.8217-.8455 2.29-1.1865 4.588-.8227 5.5449.2456.6458.02.4052-.8024-.8565zm35.1915.5231a10.4377 10.4377 0 0 0 -.64-4.5335c-1.2715-3.8786-5.5213-11.094-9.4238-16l-1.2277-1.5442 1.329-1.22a28.0616 28.0616 0 0 1 4.24-3.3579 8.1642 8.1642 0 0 1 3.122-1.2054c.3886 0 1.7563 1.4194 2.8605 2.9685a22.5059 22.5059 0 0 1 3.6055 8.3347 27.7467 27.7467 0 0 1 .0663 8.0951 25.51 25.51 0 0 1 -1.6119 5.0876 27.2253 27.2253 0 0 1 -2.2019 3.773c-.27.343-.27.3422-.1181-.3979zm-19.0799-28.5938a26.73 26.73 0 0 0 -6.1129-2.16 11.2009 11.2009 0 0 0 -2.0387-.1148c-1.266.064-1.21-.0022.8215-.9618a20.8882 20.8882 0 0 1 5.0085-1.6683 25.8166 25.8166 0 0 1 8.31-.0109 23.1889 23.1889 0 0 1 6.495 2.417l.4509.2775-1.0344-.0523c-2.0552-.1034-5.0508.7266-8.267 2.2919a17.1393 17.1393 0 0 1 -1.8755.8379c-.0614-.0113-.8522-.3966-1.7574-.8562z" fill="none" stroke="#000" stroke-linecap="round" stroke-linejoin="round"/></svg>