<svg viewBox="0 0 48 48" xmlns="http://www.w3.org/2000/svg"><path d="m13.89 31.91 7.94 4.53m15.54-27.12-3.37 1.92m-.86 5.41-3 1.7m7.34 9.59-3.51 1.71m-.35.23-3 1.7m2.38-5.79-3 1.71m0 0-3 1.7m2.21-6.05-3 1.7m-.28.23-3.45 1.92m-.65-4.28-3.68 2.11m7.3-4-3.51 1.91m-.75-3.91-3.43 1.94m3.43 16.48-3.52 1.94m7.85-9-3.69 1.81m4.34-20.32 7.58 4.32m-11.9 10.71v-7.59m4.38 9.76v-7.59m7.62 11.92v-7.59m-16.33 17.46v-3.49m4.37-3.06v-4.33m8.11-.91v-7.59m-12 1-.05-3.73m15.84-5.6v-4.33m-3.79 11.45v-3.48m-8.09-.43 7.59 4.34m-11.5 2.16 7.58 4.34m.55-22.75 7.62 4.33m-11.37 3.25 7.62 4.33m-20 16.25 7.58 4.34m-3.33-11.74 7.58 4.33m-11.91-15.34 7.58 4.33m-7.58-4.33v4.33c.71.37 7.58 4.33 7.58 4.33l-3.25 2.17v4.33l-4.33 3.25v4.34l7.58 4.33 4.33-2.17v-4.33l4.34-2.17v-5.41l7.58 4.33 4.33-2.17v-4.33l-8.66-4.33 4.33-2.17v-4.33l4.33-2.17v-5.42l-7.58-4.33-4.33 2.17v4.33l-4.34 3.25v4.33l-7.58-4.33s-4.25 2.05-4.33 2.17z" fill="none" stroke="#000" stroke-linecap="round" stroke-linejoin="round"/></svg>