<svg viewBox="0 0 48 48" xmlns="http://www.w3.org/2000/svg"><g fill="none" stroke="#000" stroke-linecap="round" stroke-linejoin="round"><path d="m26.42 24.83v10.1"/><rect height="6.72" rx="2.52" width="5.05" x="21.37" y="28.21"/><rect height="6.72" rx="2.52" width="5.05" x="28.85" y="28.21"/><path d="m33.9 28.21v6.72"/><path d="m19.15 28.21-5.05 6.72"/><path d="m19.15 34.93-5.05-6.72"/><path d="m41.38 19.84h-7.86l-7.77-13a2 2 0 0 0 -3.5 0l-7.77 13h-7.86a3.12 3.12 0 0 0 -3 3.93l4.38 16.31a2.84 2.84 0 0 0 2.74 2.1h26.5a2.84 2.84 0 0 0 2.76-2.1l4.41-16.31a3.12 3.12 0 0 0 -3.03-3.93zm-17.38-8 4.77 8h-9.54z"/><path d="m14.48 19.84h19.04"/></g></svg>