<svg viewBox="0 0 48 48" xmlns="http://www.w3.org/2000/svg"><path d="m41.9 34.21v-3.69h-7.67-1.1l-4.21-6.52 4.23-6.55h1.06 7.66v-3.68h-5.03l5.66-5.66-2.61-2.61-5.68 5.69v-5.09h-3.69v7.67 1.1l-6.52 4.21-6.55-4.23v-1.06-7.66h-3.68v5.03l-5.66-5.66-2.61 2.61 5.69 5.68h-5.09v3.69h7.67 1.1l4.21 6.52-4.23 6.55h-1.06-7.66v3.68h5.03l-5.66 5.66 2.61 2.61 5.68-5.69v5.09h3.69v-7.67-1.1l6.52-4.21 6.55 4.23v1.06 7.66h3.68v-5.03l5.66 5.66 2.61-2.61-5.69-5.68z" fill="none" stroke="#000" stroke-linecap="round" stroke-linejoin="round"/></svg>