<svg viewBox="0 0 48 48" xmlns="http://www.w3.org/2000/svg"><g fill="none" stroke="#000" stroke-linecap="round" stroke-linejoin="round"><path d="m24.3278 8.8689c-.1642.9954.0043 2.2574-.616 2.8876-4.4963 2.7849-8.7346 6.0771-5.4287 11.7818 1.7675 3.05 3.6269 4.3624 6.7762 5.7752 6.1451 2.7568 11.1145-3.996 9.6639-8.2778-.16-.4717 1.4491-2.9628 2.9646-3.5807-2.954-.8727-4.5845-.7789-5.5442-.154a34.9826 34.9826 0 0 0 .1155-4.6971 16.0472 16.0472 0 0 0 -4.5817 2.0791c-1.1386-1.9079-.3564-4.2768-3.35-5.8137z"/><path d="m21.3844 27.2234c-2.46 3.6373-4.9552 7.2685-1.9073 11.9077"/><path d="m21.3255 33.2017c2.6168 2.4374 5.3916 3.1307 8.3163.77-3.3228-3.2623-6.3639-2.2927-8.3163-.77z"/><path d="m12.8162 22.7291c-.4916 2.3487-1.6544 4.81 2.8877 7.7773 1.2571-2.9753.3322-5.9481-2.8877-7.7773z"/><path d="m37.8365 5.5c3.9327 0 4.6635 1.1543 4.6635 4.856m0 27.3265c0 3.4322-1.0772 4.8175-4.74 4.8175m-27.288 0c-4.2412 0-4.972-.4612-4.972-4.933m0-27.1721c0-3.9328 1-4.8949 5.087-4.8949"/></g></svg>