<svg viewBox="0 0 48 48" xmlns="http://www.w3.org/2000/svg"><g fill="none" stroke="#000" stroke-linecap="round" stroke-linejoin="round"><path d="m32.6571 16.2426c1.8455-.5269 6.3257-5.6179 3.9971-9.1512s-8.9256-3.59-10.28.6749-.0249 7.9592 2.1927 8.5228a6.0378 6.0378 0 0 0 4.09-.0465z"/><path d="m29.5614 28.1623c.4163-.0141 3.0956-11.92 3.0956-11.92s2.7291 11.0877 2.5335 12.3277"/><path d="m32.6571 16.2426-.34 10.4277s-3.0833 8.36-3.0833 9.245-1.0234 6.6578-.9641 7.181"/><path d="m32.3166 26.671s3.0813 11.8055 3.3834 12.1375 1.5956 4.2886 1.8515 4.3034"/><path d="m14.0932 18.6946s-.5139 1.5419-1.7632.2856-.906-1.7552-.906-1.7552-.9055.0189-.9717-1.136.8677-1.029.8677-1.029-.53-4.1951 2.0155-5.7848 8.2133-1.6836 9.6253 2.1989-.1344 7.714-3.0355 8.745-4.7067.03-5.8314-1.5242z"/><path d="m22.9225 11.4484c-.1624.2661-1.1453 3.1694-7.4819 3.1139s-1.3481 4.1332-1.3481 4.1332"/><path d="m14.6216 19.3735s-2.8569 6.8357-3.2983 11.36"/><path d="m14.6216 19.3735s.8455 8.2461 2.2789 11.3775"/><path d="m14.6216 19.3735s-.7563 7.5842-.2884 9.8235a30.4424 30.4424 0 0 1 2.891 8.9238c.6666 4.1192 1.4122 5.3792 1.4122 5.3792"/><path d="m14.3334 29.1967s-.8247 5.6656-1.65 8.7383a28.6317 28.6317 0 0 0 -.9394 5.0509"/></g></svg>