<svg viewBox="0 0 48 48" xmlns="http://www.w3.org/2000/svg"><g fill="none" stroke="#000" stroke-linecap="round" stroke-linejoin="round"><path d="m39.23 26a16.52 16.52 0 0 0 .14-2 16.52 16.52 0 0 0 -.14-2l4.33-3.39a1 1 0 0 0 .25-1.31l-4.1-7.11a1 1 0 0 0 -1.25-.44l-5.11 2.06a15.68 15.68 0 0 0 -3.46-2l-.77-5.43a1.05 1.05 0 0 0 -1-.86h-8.2a1 1 0 0 0 -1 .86l-.77 5.43a15.36 15.36 0 0 0 -3.46 2l-5.15-2.06a1 1 0 0 0 -1.25.44l-4.1 7.11a1 1 0 0 0 .25 1.31l4.32 3.39a16.66 16.66 0 0 0 -.14 2 16.52 16.52 0 0 0 .14 2l-4.32 3.39a1 1 0 0 0 -.25 1.31l4.1 7.11a1 1 0 0 0 1.25.44l5.11-2.06a15.68 15.68 0 0 0 3.46 2l.77 5.43a1 1 0 0 0 1 .86h8.2a1 1 0 0 0 1-.86l.77-5.43a15.36 15.36 0 0 0 3.46-2l5.11 2.06a1 1 0 0 0 1.25-.44l4.1-7.11a1 1 0 0 0 -.25-1.31z"/><path d="m34.57 25.62a22.15 22.15 0 0 0 -7.5-6.62 22.15 22.15 0 0 0 -9.5-3.18"/><path d="m29.38 29.57a16.37 16.37 0 0 0 -5.58-4.94 16.34 16.34 0 0 0 -7.06-2.36"/><path d="m24.66 32.69a10.56 10.56 0 0 0 -3.66-3.23 10.46 10.46 0 0 0 -4.62-1.54"/></g></svg>