<svg viewBox="0 0 48 48" xmlns="http://www.w3.org/2000/svg"><g fill="none" stroke="#000" stroke-linecap="round" stroke-linejoin="round"><path d="m14.83 17.16a2.17 2.17 0 0 1 2.17 2.17v3.38h1.2a2.1207 2.1207 0 0 1 1.84-1.08c3.062-.2092 3.062 4.4989 0 4.29a2.13 2.13 0 0 1 -1.84-1.08h-1.2v3.45a2.17 2.17 0 0 1 -2.19 2.16h-10.31v-13.34l4.79.04v.51a2.87 2.87 0 1 0 4.3 2.54 2.9 2.9 0 0 0 -1.37-2.53v-.51z"/><path d="m26.46 18.36a2.0808 2.0808 0 0 0 -1.06 1.86 2.1424 2.1424 0 1 0 3.21-1.86v-1.16l3.05-.04a2.17 2.17 0 0 1 2.14 2.12v3.05h.81a2.8506 2.8506 0 0 1 2.46-1.41h.02a2.86 2.86 0 1 1 -2.46 4.3h-.83v3.06a2.17 2.17 0 0 1 -2.16 2.17h-10.33v8.57a1.89 1.89 0 0 0 1.89 1.89h18.42a1.9 1.9 0 0 0 1.88-1.89v-30a1.9 1.9 0 0 0 -1.88-1.93h-18.42a1.89 1.89 0 0 0 -1.89 1.93v8.13h5.15z"/></g></svg>