<svg viewBox="0 0 48 48" xmlns="http://www.w3.org/2000/svg"><g fill="none" stroke="#000" stroke-linecap="round" stroke-linejoin="round"><path d="m18.1 4.5c1.8 1.7 3.6 3.7 3.6 5.4 0 2.6-1.9 4.2-2.6 6.3a5.11 5.11 0 0 0 1.4 4.5 57.27 57.27 0 0 1 3.8 5.8c.2.6.7.8 1.1.6.6-.2.2-.9 0-1.4-.7-1.5-1.4-2.7-2.2-4.1-2.3-3.6-.1-8.4 2.1-11.5a17.86 17.86 0 0 0 4.7 12.8c2.2 2.6 2.4 6.1 2.2 9.4-.4 8.7-12 9.7-17.1 3.3-1.9-2.4-3.4-4.2-4.3-7.2-.8-3.2.7-7.6 2.4-11.3 0 3.7.3 8.7 1.3 10.8.8 1.6 2.8 3.7 3.9 3.5.6-.1.6-1.5-.5-3.4a35.52 35.52 0 0 1 -2.8-5.5 8.69 8.69 0 0 1 2.2-9.2c2.3-2.4 1.7-5.2.8-8.8z"/><path d="m20.8 39.3h-11.5a.9.9 0 0 1 -.9-.9v-20.3a.9.9 0 0 1 .9-.9h3.9"/><path d="m26.6 17.2h12.2a.9.9 0 0 1 .9.9v20.3a.9.9 0 0 1 -.9.9h-12"/><path d="m19 17.2h3.3"/><path d="m13.3 17.2h1.7"/><path d="m15.9 36.4h-3a1 1 0 0 1 -1-1v-4.4"/><path d="m28.3 20.4h7.2a1 1 0 0 1 1 1v14.1a1 1 0 0 1 -1 1h-4.4"/><path d="m20.3 20.4h2.4"/><path d="m13.3 20.4h1.5"/><path d="m20.8 39.3a5.53 5.53 0 0 1 -4 4.2h14.6a5.9 5.9 0 0 1 -3.7-4.2"/></g></svg>