<svg viewBox="0 0 48 48" xmlns="http://www.w3.org/2000/svg"><path d="m24 25.06a14.8 14.8 0 0 1 6.09 1.52 1.13 1.13 0 0 0 1.1 0 12.6 12.6 0 0 1 8.54-1.33 1.15 1.15 0 0 0 1.36-1.13 17 17 0 0 0 -5-12.06 17 17 0 0 0 -10.95-4.95v-1.47a1.14 1.14 0 0 0 -2.28 0v1.47a17.08 17.08 0 0 0 -15.95 16.89 1.16 1.16 0 0 0 .39.87 1.14 1.14 0 0 0 .92.27 12.51 12.51 0 0 1 1.83-.14 12.65 12.65 0 0 1 6.4 1.75 1.19 1.19 0 0 0 .58.15 1.16 1.16 0 0 0 .57-.15 13.72 13.72 0 0 1 6.4-1.7v15a3.44 3.44 0 0 0 3.43 3.43 3.44 3.44 0 0 0 3.43-3.43v-1.2m-13.56-12.15a43.3 43.3 0 0 1 2.26-14.2c1.26-3.38 2.92-5.39 4.44-5.39 1.52 0 3.18 2 4.44 5.39a43.24 43.24 0 0 1 2.26 14.19m-7.84-19.58h2.28" fill="none" stroke="#000" stroke-linecap="round" stroke-linejoin="round"/></svg>