<svg viewBox="0 0 48 48" xmlns="http://www.w3.org/2000/svg"><path d="m39.07 10.1-12.79-5.18a5.61 5.61 0 0 0 -4.26 0l-13.13 5.18a2 2 0 0 0 -1.27 1.9v12.47c0 11.16 11.6 19 16.58 19s16.18-7.87 16.18-19v-12.47a2 2 0 0 0 -1.31-1.9zm-4.36 23.28a1.37 1.37 0 0 1 -1.37 1.35h-.07a21.74 21.74 0 0 1 -20-20 1.34 1.34 0 0 1 1.27-1.43h3a2.69 2.69 0 0 1 2.63 2.3 13.31 13.31 0 0 0 .51 2.14 1.58 1.58 0 0 1 -.4 1.56l-1.66 1.7a19.22 19.22 0 0 0 8.38 8.34l1.77-1.75a1.32 1.32 0 0 1 1.38-.33 14.73 14.73 0 0 0 2.25.54 2.8 2.8 0 0 1 2.32 2.66z" fill="none" stroke="#000" stroke-linecap="round" stroke-linejoin="round"/></svg>