<svg viewBox="0 0 48 48" xmlns="http://www.w3.org/2000/svg"><g fill="none" stroke="#000" stroke-linecap="round" stroke-linejoin="round"><path d="m12.8 33.9v-19.8c4.3-1.6 1.9-5.9 0-5.9h-5.5a2.62 2.62 0 0 0 -2.8 2.8v20.9a7.8 7.8 0 0 0 8.2 8h22.9a7.81 7.81 0 0 0 7.8-7.5v-21.9a2.42 2.42 0 0 0 -2.6-2.4h-5.8c-1.9 0-4.1 4.8 0 5.9v19.8h-3.3v-9.6c0-2.9-1.7-4.5-4.5-4.5h-6.7a4.12 4.12 0 0 0 -4.2 4.3v9.8h-3.5z"/><path d="m20.9 24.5h6.1v6h-6.1z"/><path d="m20.9 33.9h6.2"/><path d="m35.1 15.6h3.7"/><path d="m35.1 20.3h3.7"/><path d="m35.1 25h3.7"/><path d="m12.8 25h-3.6"/><path d="m12.8 20.3h-3.6"/><path d="m12.8 15.6h-3.6"/></g></svg>