<svg viewBox="0 0 48 48" xmlns="http://www.w3.org/2000/svg"><g fill="none" stroke="#000" stroke-linecap="round" stroke-linejoin="round"><path d="m13.556 19.95v7.803h3.901"/><path d="m20.096 19.9503v7.8031"/><path d="m30.5426 27.7534h3.9015"/><path d="m30.5426 19.9503h3.9015"/><path d="m30.5426 23.8519h2.536"/><path d="m30.5426 19.9503v7.8031"/><path d="m22.7345 19.9503h5.1696"/><path d="m25.3681 27.7534v-7.8031"/><path d="m25.114 16.852v-7.803l5.17 7.803v-7.803"/><path d="m14.932 9.049-2.536 3.901-2.633-3.901"/><path d="m12.3963 16.8518v-3.9015"/><path d="m17.1609 14.2671a2.5852 2.5852 0 1 0 5.1695 0v-2.6336a2.6226 2.6226 0 0 0 -2.6336-2.6335 2.5416 2.5416 0 0 0 -2.5359 2.6335z"/><path d="m33.0677 14.2671a2.5852 2.5852 0 1 0 5.1695 0v-2.6336a2.6226 2.6226 0 0 0 -2.6335-2.6335 2.5416 2.5416 0 0 0 -2.536 2.6335z"/><path d="m36.9521 31.1969v7.8031"/><path d="m21.6681 38.1221a2.3253 2.3253 0 0 0 1.9508.8779h1.17a1.9566 1.9566 0 0 0 1.9511-1.9508 1.9565 1.9565 0 0 0 -1.9508-1.9507h-1.268a1.9566 1.9566 0 0 1 -1.9508-1.9508 1.9566 1.9566 0 0 1 1.9508-1.9508h1.1705a2.0943 2.0943 0 0 1 1.9507.8779"/><path d="m32.48 35.0985a1.9508 1.9508 0 1 1 0 3.9015h-3.2186v-7.803h3.2186a1.9508 1.9508 0 1 1 0 3.9015z"/><path d="m32.4801 35.0985h-3.2187"/><path d="m16.019 38.8533a3.9681 3.9681 0 1 0 -2.0061 0"/><path d="m7.5 5.5a2 2 0 0 0 -2 2v33a2 2 0 0 0 2 2h33a2 2 0 0 0 2-2v-33a2 2 0 0 0 -2-2z"/></g></svg>