<svg viewBox="0 0 48 48" xmlns="http://www.w3.org/2000/svg"><g fill="none" stroke="#000" stroke-linecap="round" stroke-linejoin="round"><path d="m24 4.5a13.0911 13.0911 0 0 0 -13.0911 13.0911c0 10.2509 10.0008 22.612 12.6111 25.6323a.8.8 0 0 0 1.21 0c2.55-3 12.361-15.3814 12.361-25.6322a13.0911 13.0911 0 0 0 -13.091-13.0912z"/><path d="m30 17.6753a2.4845 2.4845 0 0 0 -1.4923.5361c-1.686-2.7437-4.9132-2.7144-6.5693.06-2-1.4783-4.9158.5888-4.469 3.3847.5529 2.7194 3.7834 2.8725 7.6485 2.6609 5.5855-.3059 6.6654.0908 7.7322-1.7389a3.4415 3.4415 0 0 0 -2.8501-4.9028z"/><path d="m23.9747 15.9919q-.0154-.0658-.0332-.1316a3.62 3.62 0 1 0 -6.2631 3.2822"/><path d="m18.3393 11.936-.6123-1.4255"/><path d="m15.6337 14.7792-1.4409-.5751"/><path d="m15.6875 18.9203-1.4255.6122"/><path d="m22.6034 11.8823.5751-1.4409"/><path d="m25.0774 14.6494 1.4254-.6123"/></g></svg>