<svg viewBox="0 0 48 48" xmlns="http://www.w3.org/2000/svg"><path d="m29.32 34h12.48c.94 0 1.7-.56 1.7-1.25v-1.23h-2.27v-23a1.69 1.69 0 0 0 -1.69-1.69h-31.07a1.69 1.69 0 0 0 -1.7 1.68v23h-2.27v1.25c0 .69.75 1.25 1.7 1.25h5.63" fill="none" stroke="#000" stroke-linecap="round" stroke-linejoin="round"/><path d="m13.6 11.2a1.77 1.77 0 0 0 -1.77 1.8v26.56a1.67 1.67 0 0 0 1.67 1.67h14.18a1.66 1.66 0 0 0 1.64-1.65v-26.69a1.67 1.67 0 0 0 -1.67-1.67z" fill="none" stroke="#000" stroke-linecap="round" stroke-linejoin="round"/><circle cx="16.83" cy="14.6" r=".73"/><g fill="none" stroke="#000" stroke-linecap="round" stroke-linejoin="round"><path d="m6.77 31.51h5.06"/><path d="m41.23 31.52h-11.91"/><path d="m18.96 14.6h6.26"/></g></svg>