<svg viewBox="0 0 48 48" xmlns="http://www.w3.org/2000/svg"><g fill="none" stroke="#000" stroke-linecap="round" stroke-linejoin="round"><path d="m17.6942 6.9179 24.3451 20.3458a1.2776 1.2776 0 0 1 -.0114 1.9761l-9.9817 11.944a1.3 1.3 0 0 1 -1.7976-.1213l-24.2943-20.3034a1.2426 1.2426 0 0 1 -.1587-1.7726l10.0244-11.9948a1.1985 1.1985 0 0 1 1.8744-.0737z"/><path d="m18.3755 10.8541 3.4053 2.8459-8.2826 9.9108-3.4053-2.8459z"/><path d="m23.9111 15.4374 3.4053 2.8459-8.2827 9.9107-3.4052-2.8459z"/><path d="m29.4943 20.0165 3.4057 2.8458-8.2826 9.9108-3.4052-2.8458z"/><path d="m39.6577 32.1785 2.6428 2.2087-5.1395 6.15-2.6429-2.2087z"/></g></svg>