<svg viewBox="0 0 48 48" xmlns="http://www.w3.org/2000/svg"><g fill="none" stroke="#000" stroke-linecap="round" stroke-linejoin="round"><path d="m40.5 5.5h-33a2 2 0 0 0 -2 2v33a2 2 0 0 0 2 2h33a2 2 0 0 0 2-2v-33a2 2 0 0 0 -2-2z"/><path d="m24.4248 30.8492v-13.6984h4.4846a4.6005 4.6005 0 0 1 0 9.201h-4.4846"/><path d="m28.9094 26.3518 4.4842 4.494"/><path d="m21.3492 23.4007v4.0239a3.4245 3.4245 0 0 1 -3.4246 3.4246"/><path d="m21.3492 17.1508v6.25a3.4245 3.4245 0 0 1 -3.4246 3.4246 3.4245 3.4245 0 0 1 -3.4246-3.4247v-6.25"/></g></svg>