<svg viewBox="0 0 48 48" xmlns="http://www.w3.org/2000/svg"><circle cx="24" cy="24" fill="none" r="21.5" stroke="#000" stroke-linecap="round" stroke-linejoin="round"/><circle cx="36.7279" cy="11.2721" r=".75"/><circle cx="36.7279" cy="11.2721" r=".75"/><circle cx="42" cy="24" r=".75"/><circle cx="42" cy="24" r=".75"/><circle cx="36.7279" cy="36.7279" r=".75"/><circle cx="36.7279" cy="36.7279" r=".75"/><circle cx="24" cy="42" r=".75"/><circle cx="24" cy="42" r=".75"/><circle cx="11.2721" cy="36.7279" r=".75"/><circle cx="11.2721" cy="36.7279" r=".75"/><circle cx="6" cy="24" r=".75"/><circle cx="6" cy="24" r=".75"/><circle cx="11.2721" cy="11.2721" r=".75"/><circle cx="11.2721" cy="11.2721" r=".75"/><circle cx="24" cy="6" r=".75"/><circle cx="24" cy="6" r=".75"/><g fill="none" stroke="#000" stroke-linecap="round" stroke-linejoin="round"><circle cx="24" cy="24" r="15.0698"/><path d="m21.29 32.5 8.9433-17"/><path d="m24 27.3487-6.2333-11.8487"/></g></svg>