<svg viewBox="0 0 48 48" xmlns="http://www.w3.org/2000/svg"><g fill="none" stroke="#000" stroke-linecap="round" stroke-linejoin="round"><path d="m40.5 5.5h-33a2 2 0 0 0 -2 2v33a2 2 0 0 0 2 2h33a2 2 0 0 0 2-2v-33a2 2 0 0 0 -2-2z"/><rect height="6.8272" rx="2.5763" width="5.1526" x="29.9137" y="13.978"/><path d="m12.934 10.5h6.827l-6.827 10.305h6.827"/><path d="m27.919 10.5v10.3053"/><path d="m25.8905 18.229a2.5764 2.5764 0 0 1 -2.5763 2.5763 2.5764 2.5764 0 0 1 -2.5763-2.5763v-1.6747a2.5764 2.5764 0 0 1 2.5763-2.5763 2.5764 2.5764 0 0 1 2.5763 2.5763"/><path d="m25.8905 20.8053v-6.8273"/><path d="m12.9337 34.022v-10.3053h3.3737a3.461 3.461 0 0 1 0 6.9219h-3.3737"/><path d="m26.1321 31.4457a2.5763 2.5763 0 0 1 -2.5763 2.5763 2.5764 2.5764 0 0 1 -2.5758-2.5763v-1.6747a2.5764 2.5764 0 0 1 2.5763-2.5763 2.5763 2.5763 0 0 1 2.5763 2.5763"/><path d="m26.1321 34.022v-6.8273"/><path d="m30.6633 34.022-2.7443-6.8273"/><path d="m33.0717 27.1947-3.2717 9.2737a1.5456 1.5456 0 0 1 -1.4575 1.0316h-.4235"/></g></svg>