<svg viewBox="0 0 48 48" xmlns="http://www.w3.org/2000/svg"><g fill="none" stroke="#000" stroke-linecap="round" stroke-linejoin="round"><path d="m12.5 18.9553h6.68l-6.68 10.0894h6.68"/><path d="m25.3369 26.6963a2.3581 2.3581 0 0 1 -2.3484 2.3484 2.3527 2.3527 0 0 1 -2.3485-2.3484v-1.5308a2.3553 2.3553 0 0 1 2.3484-2.3484 2.3553 2.3553 0 0 1 2.3484 2.3484m0 3.8748v-6.2188"/><path d="m27.6922 18.9553v8.8282a1.1915 1.1915 0 0 0 1.2611 1.2612h.374"/><path d="m33.1516 29.04a2.3527 2.3527 0 0 1 -2.3484-2.344v-1.5218a2.3484 2.3484 0 0 1 4.6968 0v1.5221a2.3553 2.3553 0 0 1 -2.3484 2.3484z"/><path d="m41.5513 4.5024-29.0107.0354c-8.624 7.4-11.224 17.4181-3.53 31.9111.4875 1.7082-.359 3.42-1.9992 5.1283a11.17 11.17 0 0 0 6.863-1.266c13.9828 6.27 21.919 2.1805 29.6436-2.7323l.0355-31.0742a2 2 0 0 0 -2.0022-2.0023z"/></g></svg>