<svg viewBox="0 0 48 48" xmlns="http://www.w3.org/2000/svg"><g fill="none" stroke="#000" stroke-linecap="round"><g stroke-linejoin="round"><path d="m23.0665 26.616v3.3a2 2 0 0 0 4 0v-3.3"/><path d="m27.0665 29.916v2"/><path d="m9.5435 23.916v8"/><path d="m9.5435 28.616a2 2 0 0 1 4 0v3.3"/><path d="m9.547 15.866h4l-4 5.3h4"/><path d="m20.0065 30.916a1.9356 1.9356 0 0 1 -1.7 1 2.0059 2.0059 0 0 1 -2-2v-1.3a2 2 0 0 1 4 0v.7h-4"/><path d="m30.6165 24.916v6a.9448.9448 0 0 0 1 1h.3"/><path d="m29.6165 26.616h2.1"/><path d="m20.3058 17.866a2 2 0 0 0 -4 0v1.3a2 2 0 0 0 4 0"/><path d="m20.3058 21.166v-8"/><path d="m24.168 21.166v-6.6a1.3671 1.3671 0 0 1 1.4-1.4 1.5571 1.5571 0 0 1 1.4.6"/><path d="m23.068 15.866h2.8"/><path d="m38.1565 30.916a1.9356 1.9356 0 0 1 -1.7 1 2.0059 2.0059 0 0 1 -2-2v-1.3a2 2 0 1 1 4 0v.7h-4"/></g><path d="m9.5435 34.834h4"/><circle cx="24" cy="24" r="21.5" stroke-linejoin="round"/></g></svg>