<svg viewBox="0 0 48 48" xmlns="http://www.w3.org/2000/svg"><g fill="none" stroke="#000" stroke-linecap="round" stroke-linejoin="round"><path d="m25.2909 27.5475h3.6671"/><path d="m25.2909 20.2133h3.6671"/><path d="m25.2909 23.8804h2.3836"/><path d="m25.2909 20.2133v7.3342"/><path d="m33.4029 27.4035h3.6671"/><path d="m33.4029 20.0693h3.6671"/><path d="m33.4029 23.7364h2.3836"/><path d="m33.4029 20.0693v7.3342"/><path d="m16.828 20.016h4.859l-4.859 7.334h4.859"/><path d="m40.8334 26.8648a2.8755 2.8755 0 0 0 2.2.6417h.275a2.4271 2.4271 0 0 0 2.3836-2.3836 2.4271 2.4271 0 0 0 -2.3836-2.3836h-2.475v-2.567h4.8589"/><path d="m19.951 36.9551a13.1889 13.1889 0 0 1 5.6914-25.756"/><path d="m30.6365 40.9918a17.9349 17.9349 0 1 1 1.5513-32.4169"/><path d="m23.405 45.5a21.5021 21.5021 0 0 1 .2769-43"/></g></svg>