<svg viewBox="0 0 48 48" xmlns="http://www.w3.org/2000/svg"><path d="m12.75 4.7071c-10.3224 7.4618-13.8966 20.3442-5.8216 31.7852 6.6037 9.357 18.5066 10.5445 29.03 5.1617 6.7828-3.47 9.9-11.9458 9.5084-20.22-.9331-19.7018-21.1268-19.521-25.9251-17.27-3.87 1.8162-6.3931 3.95-8.0485 9.12-2.7476 8.582 16.3574-.9741 19.9536-2.6036 13.988-6.3379 6.3216 2.6586-.0321 6.4336-5.2641 3.1277-12.3426 5.0547-16.453 6.183-4.3359 1.19 1.8749 6.5337 10.386 6.8154 8.476.2805 15.543 7.611 15.2324 7.611" fill="none" stroke="#000" stroke-linecap="round" stroke-linejoin="round"/></svg>