<svg viewBox="0 0 48 48" xmlns="http://www.w3.org/2000/svg"><g fill="none" stroke="#000" stroke-linecap="round" stroke-linejoin="round"><path d="m40.5 5.5h-33a2 2 0 0 0 -2 2v33a2 2 0 0 0 2 2h33a2 2 0 0 0 2-2v-33a2 2 0 0 0 -2-2z"/><path d="m18.426 16.053c1.8632 11.147-3.9242 22.267-8.4381 24.167"/><path d="m8.5947 26.13c7.9-3.12 12.786-3.8551 18.187-4.9973"/><path d="m18.094 26.737c3.82 2.205 5.0764 6.43 7.5408 9.7968"/><path d="m14.903 7.7791a9.4112 9.4112 0 0 1 -2.253 6.7587c3.0881-2.9409 7.232-3.348 11.387-3.7275"/><path d="m39.282 18.865.1231 10.814"/><path d="m31.349 19.945 3.748-.0616"/><path d="m32.557 21.809-1.7 2.0071"/><path d="m33.315 23.447-.1231 4.9769"/><path d="m35.179 27.748c-1.347.736-3.7229.8548-4.0347 2.2119"/><path d="m33.261 25.618 2.3079-.027"/><path d="m30.909 26.359 2.3345.0023"/><path d="m34.854 21.486a1.681 1.681 0 0 1 .9 1.7213"/><path d="m37.291 21.486.1589 3.6015"/><path d="m31.521 23.032 1.7937.4154"/><path d="m37.953 28.901c.3385.8787.8317 1.0994 1.4526.7779"/></g></svg>