<svg viewBox="0 0 48 48" xmlns="http://www.w3.org/2000/svg"><g fill="none" stroke="#000" stroke-linecap="round" stroke-linejoin="round"><path d="m7.4474 5.5h33.1052a1.9474 1.9474 0 0 1 1.9474 1.9474v33.1052a1.9474 1.9474 0 0 1 -1.9474 1.9474h-33.1052a1.9474 1.9474 0 0 1 -1.9474-1.9474v-33.1052a1.9474 1.9474 0 0 1 1.9474-1.9474z"/><path d="m10.3684 7.4474v1.9473l.9737.9737h1.9479l.9737-.9737v-1.9473"/><path d="m12.3158 10.3684-.9737.9737v1.9479l.9737.9737.9742-.9737v-1.9479z"/><path d="m10.3684 7.4474h3.8948"/><path d="m11.3421 7.4474v-1.9474"/><path d="m13.29 7.4474v-1.9474"/><path d="m11.3421 15.2368v27.2632"/><path d="m13.29 15.2368v27.2632"/><path d="m11.3421 39.5789h1.9479"/><path d="m11.3421 36.6579h1.9479"/><path d="m11.3421 33.7368h1.9479"/><path d="m11.3421 30.8158h1.9479"/><path d="m11.3421 27.8947h1.9479"/><path d="m11.3421 24.9737h1.9479"/><path d="m11.3421 22.0526h1.9479"/><path d="m11.3421 19.1316h1.9479"/><path d="m11.3421 16.2105h1.9479"/><path d="m29.8421 11.3421h5.8421"/><path d="m32.7632 8.4211v5.8421"/><path d="m28.6048 35.853a.949.949 0 1 1 .949-.949.949.949 0 0 1 -.949.949z"/><path d="m34.1432 35.853a.949.949 0 1 1 .949-.949.949.949 0 0 1 -.949.949z"/><path d="m31.3662 29.9958a6.7829 6.7829 0 0 1 6.7829 6.7829.9645.9645 0 0 1 -.9645.9645h-11.6679a.9645.9645 0 0 1 -.9645-.9645 6.7829 6.7829 0 0 1 6.7828-6.783z"/><path d="m25.509 28.9845 1.929 2.2636"/><path d="m37.2235 28.9845-1.9291 2.2636"/></g></svg>