<svg viewBox="0 0 48 48" xmlns="http://www.w3.org/2000/svg"><g fill="none" stroke="#000" stroke-linecap="round" stroke-linejoin="round"><path d="m41 20.8116-1.6685-.0416a1.778 1.778 0 0 1 -1.7649-1.766v-1.845m-3.5466 3.7295 1.6685.0412a1.7782 1.7782 0 0 1 1.766 1.766v1.845m-30.4545-2.6907v4.8321h2.416m16.7075.0791h2.4165m-2.416-4.8321h2.416m-2.416 2.416h1.57m-1.57-2.416v4.8321m-6.33-.0726v-4.8326l2.416 4.8321 2.416-4.8321v4.8321m-9.4333-4.8 3.2015 4.8321m0-4.8321-3.2015 4.8321m14.7909-.0575v-4.832h.7854a2.4236 2.4236 0 0 1 2.4161 2.416 2.4236 2.4236 0 0 1 -2.4161 2.416zm-19.275-4.7742v3.2015a1.5721 1.5721 0 1 0 3.1419 0v-3.2015"/><path d="m43.5 35.5v-23a2 2 0 0 0 -2-2h-35a2 2 0 0 0 -2 2v23a2 2 0 0 0 2 2h35a2 2 0 0 0 2-2z"/></g></svg>