<svg viewBox="0 0 48 48" xmlns="http://www.w3.org/2000/svg"><g fill="none" stroke="#000" stroke-linecap="round" stroke-linejoin="round"><path d="m43.5 37.0237a2.1763 2.1763 0 0 1 -2.1806 2.1717h-34.6459a2.1762 2.1762 0 0 1 -2.1735-2.1789v-26.04a2.1762 2.1762 0 0 1 2.1806-2.1719v.0018h9.9013c2.257 0 6.2253 4.13 8.1881 4.2372h16.9083a1.8217 1.8217 0 0 1 1.8217 1.8216z"/><circle cx="38.7664" cy="22.9346" r="3.0841"/><circle cx="24.1933" cy="28.5637" r="3.0841"/><circle cx="31.4798" cy="25.7491" r="3.0841"/><path d="m17.8785 39.1954v-2.8734a3 3 0 0 1 1.9229-2.8l5.07-1.95"/><path d="m24.8992 39.1954v-5.6119a3 3 0 0 1 1.9229-2.8l5.07-1.95"/><path d="m32.1857 39.1954v-8.4264a3 3 0 0 1 1.923-2.8l5.07-1.95"/></g></svg>