<svg viewBox="0 0 48 48" xmlns="http://www.w3.org/2000/svg"><g fill="none" stroke="#000" stroke-linecap="round" stroke-linejoin="round"><path d="m9 21.51h3.306l-3.306 4.38h3.306"/><path d="m15.6116 25.89a1.6578 1.6578 0 0 1 -1.6529-1.6529v-1.0743a1.6578 1.6578 0 0 1 1.6529-1.6528 1.6578 1.6578 0 0 1 1.6529 1.6529v1.0744a1.6578 1.6578 0 0 1 -1.6529 1.6527z"/><path d="m18.9173 23.1628a1.6578 1.6578 0 0 1 1.6527-1.6528 1.6578 1.6578 0 0 1 1.6529 1.6529v2.6447"/><path d="m18.9173 21.5099v4.2976"/><path d="m22.2231 23.1628a1.6578 1.6578 0 0 1 1.6529-1.6528 1.6578 1.6578 0 0 1 1.6529 1.6529v2.6447"/><path d="m30.4876 24.2372a1.6578 1.6578 0 0 1 -1.6529 1.6528 1.6578 1.6578 0 0 1 -1.6529-1.6529v-1.0743a1.6578 1.6578 0 0 1 1.6529-1.6528 1.6578 1.6578 0 0 1 1.6529 1.6529"/><path d="m30.4876 25.8901v-4.3802"/><path d="m32.9669 20.1059v4.9587a.7809.7809 0 0 0 .8265.8265h.2479"/><path d="m32.1405 21.5277h1.7355"/><path d="m37.3471 25.89a1.6578 1.6578 0 0 1 -1.6529-1.6529v-1.0743a1.6578 1.6578 0 0 1 1.6529-1.6528 1.6578 1.6578 0 0 1 1.6529 1.6528v1.0744a1.6578 1.6578 0 0 1 -1.6529 1.6528z"/><path d="m40.5 42.5h-33a2.0059 2.0059 0 0 1 -2-2v-33a2.0059 2.0059 0 0 1 2-2h33a2.0059 2.0059 0 0 1 2 2v33a2.0059 2.0059 0 0 1 -2 2z"/></g></svg>