<svg viewBox="0 0 48 48" xmlns="http://www.w3.org/2000/svg"><g fill="none" stroke="#000" stroke-linecap="round" stroke-linejoin="round"><path d="m37.64 20.29c0-.4 0-.73 0-1.14a7 7 0 0 1 .8-.93c-.51-.73-1.36-1.07-1.29-2.46a7.52 7.52 0 0 0 -3.78-5.64c-3.09-2.82-8.87-3.92-13.37-2.23-6.77.27-9.77 6.11-10.66 8.61-1.4 6.09.85 11.35 3.23 13.26-1.79.54-3.54 1.1-2.2 4.23a9.42 9.42 0 0 0 4.54 3.09c1.49.09 3.24.86 3.53-2.14 2.1 0 7.75 6.31 10 7.34 4.65 1.28 6.89-3.46 13.23-3.79a14.39 14.39 0 0 1 .86-5.64l-1.34-.23c-3.46 2.17-7.2 4.45-11.45 6.9-1.58-2.1-1.63-4.07-.29-6.43 2.67-2.09 5.18-4 10.14-4.46a13.13 13.13 0 0 1 -1.69-4.75"/><path d="m40.06 33.31-1.2-1.85c.21-1 1.17-1.51 2.54-1.55.2 1.35 0 1.9.47 2.82"/><path d="m38 34.56c-1.43-1.4-1.75-3.08-1.92-5.27"/><path d="m33 37.6-1.1-1.6 2.43-2 .48 2.48"/><path d="m37.91 20.34c3.12.51 2 1.78.82 3l-3.16 1.82c-5.25 1.45-5.84-5.87-.76-5.44z"/><path d="m27.42 21.27c1.16.83 2.48 1.63 2.57 2.59.32 1.88-.24 2-.62 2.46a9.76 9.76 0 0 1 -4 2.58c-5.37 1.1-7.37-2.2-7.94-4.69.1-4.59 4-4.24 4.69-4.22 2.53-.42 3.88.5 5.3 1.28z"/><path d="m33.86 10.43 1.18-2-2.23 1.2"/><path d="m18.3 8.08-1.07-1.69.11-.89 1.56.68.1 1.82"/><path d="m9.08 23a25.45 25.45 0 0 1 -2.76.09c-1.32-.46-.88-1.09 0-1.39a16.35 16.35 0 0 1 2.68 0l2.18.42c.55.11 1.37.27-.07.61a12.76 12.76 0 0 1 -2.03.27z"/><path d="m9.58 24.81-1.64.83h1.93"/><path d="m23.92 21.08a6.52 6.52 0 0 0 -3.48 1.79c-.28.29-.33 1.23.48 2.19a6 6 0 0 0 5.68 1.39 8 8 0 0 0 1.82-1.25 1 1 0 0 0 .18-1.2 4.3 4.3 0 0 0 -1.46-1.6 5.06 5.06 0 0 0 -3.22-1.32z"/><path d="m35.9 21.14s-2.08.3-2.37 1.11c-.18.52.14 1.6.62 1.34 1.27-.69 3.09-1.1 3.89-1.59s-1.55-1-2.14-.86z"/><path d="m31 11c.28.28-.36 2.14-.77 1.72.01-.05.51-2.06.77-1.72z"/><path d="m22.21 11.1a19 19 0 0 1 4.46 1.06c-.51.4-2 .1-2.91 0-1.24-.01-1.66-.41-1.55-1.06z"/><path d="m27.77 10.27c.39.06.67.12.74.76a1.12 1.12 0 0 1 -.74-.76z"/></g></svg>