<svg viewBox="0 0 48 48" xmlns="http://www.w3.org/2000/svg"><g fill="none" stroke="#000" stroke-linecap="round" stroke-linejoin="round"><path d="m40.5 42.5h-33a2 2 0 0 1 -2-2v-33a2 2 0 0 1 2-2h33a2 2 0 0 1 2 2v33a2 2 0 0 1 -2 2z"/><rect height="7.54" rx="2.84" width="5.69" x="21.78" y="15.34"/><rect height="7.54" rx="2.84" width="5.69" x="30.26" y="15.34"/><rect height="7.54" rx="2.84" width="5.69" x="30.26" y="28.96"/><path d="m25.59 31.81a2.86 2.86 0 0 1 2.85-2.81"/><path d="m25.59 28.96v7.54"/><path d="m12.06 11.5h7.53l-7.53 11.37h7.53"/><path d="m22.65 35.06a2.84 2.84 0 0 1 -2.47 1.44 2.84 2.84 0 0 1 -2.84-2.84v-1.85a2.85 2.85 0 0 1 2.84-2.81 2.86 2.86 0 0 1 2.82 2.81v.92h-5.66"/><path d="m13.55 26.62v8.46a1.43 1.43 0 0 0 1.45 1.42h.43"/><path d="m12.06 28.96h2.98"/></g></svg>