<svg viewBox="0 0 48 48" xmlns="http://www.w3.org/2000/svg"><path d="m41.54 10.22a6.27 6.27 0 0 1 -2.2 4.78l-13.13 11.76c-.21.2-.61-.1-.41-.4l4.82-9.63c.1-.3 0-.6-.3-.6h-18.65c-2.91 0-5.21-2.6-5.21-5.81s2.3-5.82 5.21-5.82h24.56c2.91-.1 5.31 2.51 5.31 5.72zm-29.87 33.28h24.66c2.91 0 5.21-2.61 5.21-5.81s-2.3-5.82-5.21-5.82h-18.65a.37.37 0 0 1 -.3-.6l4.82-9.62a.29.29 0 0 0 -.41-.41l-13.13 11.63a6.3 6.3 0 0 0 -2.2 4.82c0 3.2 2.4 5.81 5.21 5.81z" fill="none" stroke="#000" stroke-linecap="round" stroke-linejoin="round"/></svg>