<?xml version="1.0" encoding="UTF-8"?><svg width="24" height="24" viewBox="0 0 48 48" xmlns="http://www.w3.org/2000/svg"><g><rect width="48" height="48" fill="white" fill-opacity="0.01" stroke-linejoin="round" stroke-width="4" stroke="none" fill-rule="evenodd"/><g transform="translate(4.000000, 3.000000)"><path d="M6,41 L34,41 L34,17.9473684 C34,11.9013038 27.7319865,7 20,7 C12.2680135,7 6,11.9013038 6,17.9473684 L6,41 Z" stroke-linecap="round" stroke-linejoin="round" stroke-width="4" stroke="#333" fill="none" fill-rule="evenodd"/><path d="M34,19.0436777 C34,18.8000534 34,18.434617 34,17.9473684 C34,11.9013038 27.7319865,7 20,7 C12.2680135,7 6,11.9013038 6,17.9473684 C6,18.4331602 6,18.7975039 6,19.0403998 L34,19.0436777 Z" fill="none" fill-rule="nonzero" stroke-linejoin="round" stroke-width="4" stroke="#333"/><path d="M0,19 L40,19" stroke-linecap="round" stroke-linejoin="round" stroke-width="4" stroke="#333" fill="none" fill-rule="evenodd"/><path d="M17,1 L23,1" stroke-linecap="round" stroke-linejoin="round" stroke-width="4" stroke="#333" fill="none" fill-rule="evenodd"/></g></g></svg>