<?xml version="1.0" encoding="UTF-8"?><svg width="24" height="24" viewBox="0 0 48 48" xmlns="http://www.w3.org/2000/svg"><g><rect width="48" height="48" fill="white" fill-opacity="0.01" stroke-linejoin="round" stroke-width="4" stroke="none" fill-rule="evenodd"/><g transform="translate(7.000000, 4.000000)"><path d="M11.7050001,3.89449161 L17,0 L22.2949999,3.89449161 C25.8819274,6.53268984 28,10.7198227 28,15.172478 L28,33 L6,33 L6,15.172478 C6,10.7198227 8.11807256,6.53268984 11.7050001,3.89449161 Z" fill="none" fill-rule="nonzero" stroke-linejoin="round" stroke-width="4" stroke="#333"/><polygon stroke-linecap="round" points="6 13 -2.83106871e-14 19 -2.83106871e-14 27 6 24" stroke-linejoin="round" stroke-width="4" stroke="#333" fill="none" fill-rule="evenodd"/><polygon stroke-linecap="round" points="28 13 34 19 34 27 28 24" stroke-linejoin="round" stroke-width="4" stroke="#333" fill="none" fill-rule="evenodd"/><path d="M11,35 L11,38" stroke-linecap="round" stroke-linejoin="round" stroke-width="4" stroke="#333" fill="none" fill-rule="evenodd"/><path d="M17,35 L17,40" stroke-linecap="round" stroke-linejoin="round" stroke-width="4" stroke="#333" fill="none" fill-rule="evenodd"/><path d="M23,35 L23,38" stroke-linecap="round" stroke-linejoin="round" stroke-width="4" stroke="#333" fill="none" fill-rule="evenodd"/></g></g></svg>