<?xml version="1.0" encoding="UTF-8"?><svg width="24" height="24" viewBox="0 0 48 48" xmlns="http://www.w3.org/2000/svg"><g><rect width="48" height="48" fill="white" fill-opacity="0.01" stroke-linecap="round" stroke-linejoin="round" stroke-width="4" stroke="none" fill-rule="evenodd"/><g transform="translate(24.000000, 24.000000) rotate(-45.000000) translate(-24.000000, -24.000000) translate(0.000000, 10.000000)"><ellipse cx="24" cy="14" rx="24" ry="14" stroke-linecap="round" stroke-linejoin="round" stroke-width="4" stroke="#333" fill="none" fill-rule="evenodd"/><path d="M24,18 L24,10" transform="translate(24.000000, 14.000000) rotate(180.000000) translate(-24.000000, -14.000000) " stroke-linecap="round" stroke-linejoin="round" stroke-width="4" stroke="#333" fill="none" fill-rule="evenodd"/><path d="M30,18 L30,10" transform="translate(30.000000, 14.000000) rotate(180.000000) translate(-30.000000, -14.000000) " stroke-linecap="round" stroke-linejoin="round" stroke-width="4" stroke="#333" fill="none" fill-rule="evenodd"/><path d="M18,18 L18,10" transform="translate(18.000000, 14.000000) rotate(180.000000) translate(-18.000000, -14.000000) " stroke-linecap="round" stroke-linejoin="round" stroke-width="4" stroke="#333" fill="none" fill-rule="evenodd"/><path d="M8,14.0083363 L40,14.0083363" stroke-linecap="round" stroke-linejoin="round" stroke-width="4" stroke="#333" fill="none" fill-rule="evenodd"/><path d="M8,24 L8,4" transform="translate(8.000000, 14.000000) rotate(180.000000) translate(-8.000000, -14.000000) " stroke-linecap="round" stroke-linejoin="round" stroke-width="4" stroke="#333" fill="none" fill-rule="evenodd"/><path d="M40,24 L40,4" transform="translate(40.000000, 14.000000) rotate(180.000000) translate(-40.000000, -14.000000) " stroke-linecap="round" stroke-linejoin="round" stroke-width="4" stroke="#333" fill="none" fill-rule="evenodd"/></g></g></svg>